<svg id="レイヤー_2" data-name="レイヤー 2" xmlns="http://www.w3.org/2000/svg" xmlns:xlink="http://www.w3.org/1999/xlink" viewBox="0 0 800 100"><defs><style>.cls-1{fill:#e60012;}.cls-2{fill:url(#名称未設定グラデーション_4);}</style><linearGradient id="名称未設定グラデーション_4" x1="153.57" y1="233.26" x2="409" y2="233.26" gradientTransform="translate(-21.96 -196.4) rotate(2.96)" gradientUnits="userSpaceOnUse"><stop offset="0" stop-color="#e60012"/><stop offset="0.15" stop-color="#e60313"/><stop offset="0.25" stop-color="#e70c14"/><stop offset="0.35" stop-color="#e71d18"/><stop offset="0.44" stop-color="#e8331c"/><stop offset="0.5" stop-color="#e94820"/><stop offset="1" stop-color="#ef7e00"/></linearGradient></defs><path class="cls-1" d="M75.67,25.91h5V42.36c0,4.63-2.26,7.38-6.54,8l-.42.06-1.32-2.28.79-.21c2.09-.57,2.46-2.61,2.46-6.69ZM85.34,46h5V25.91h-5ZM126.8,25.56c6.34,0,10.28,4,10.28,10.39s-3.94,10.4-10.28,10.4-10.29-4-10.29-10.4,3.94-10.39,10.29-10.39m5,10.39c0-4.53-2-7.57-5-7.57s-5,3-5,7.57,2,7.57,5,7.57,5-3,5-7.57m44-10.39c6.34,0,10.28,4,10.28,10.39s-3.94,10.4-10.28,10.4-10.29-4-10.29-10.4,3.94-10.39,10.29-10.39m5,10.39c0-4.53-2-7.57-5-7.57s-5,3-5,7.57,2,7.57,5,7.57,5-3,5-7.57m33-10.39c6.34,0,10.29,4,10.29,10.39s-3.95,10.4-10.29,10.4-10.29-4-10.29-10.4,3.94-10.39,10.29-10.39m5,10.39c0-4.53-2-7.57-5-7.57s-5,3-5,7.57,2,7.57,5,7.57,5-3,5-7.57M70.94,25.9V46H66a18.06,18.06,0,0,0-5.61-7.28l-.54.64c-5,5.95-9,7.54-13.08,7.53-8.24,0-4.82-8.47-.27-11.27A13,13,0,0,1,58.6,34.49L66,25.9ZM56.7,36.71c-2.13-.91-5.26-.32-7.32,1-5.33,3.45-4.15,8.62.13,6.05,1.86-1.12,4.23-3.49,7.19-7.06m5.6-.3A20,20,0,0,1,66,39.56V32.05L62.3,36.41M197.43,46V29.24a51.38,51.38,0,0,1,5.52.46V25.91H186.81V29.7a51.38,51.38,0,0,1,5.52-.46V46ZM156.77,34.36a1.73,1.73,0,0,0,0,.4c.37,3.53.81,9.23.88,11.23h5.69c-1.64-9.32-2.48-16.06-3-20.08H157.4L151.22,38.2l-5.86-12.29H142.1c-.47,4-2.19,16-3,20.08h4.07c0-1.94.55-7.7,1-11.39a2.6,2.6,0,0,0,0-.4L149.71,46h1.46l5.6-11.63m-58-8.45H95.13V46H98.8V34.32L98.73,33a5,5,0,0,0,.62.86l11,12.13h2.93V25.91h-3.67V36.54l.07,1.35a5.75,5.75,0,0,0-.56-.81ZM228.11,44.12a2,2,0,0,0-4,0h.25a1.74,1.74,0,0,1,3.47,0Zm-.25,0a1.74,1.74,0,1,1-3.47,0h-.24a2,2,0,1,0,4,0Zm-2.2.24h.63c.29,0,.3.12.3.44a1.62,1.62,0,0,0,0,.46h.43V45.2c-.08,0-.08-.12-.08-.46s-.08-.5-.24-.59a.56.56,0,0,0,.29-.55.6.6,0,0,0-.6-.65H225.3v2.31h.38V43.34h.69a.28.28,0,0,1,.28.31c0,.23-.1.32-.31.32h-.68Z"/><path class="cls-2" d="M287.62,76a3.52,3.52,0,0,0-2.36-6.63l-.33.11c-4-8.41-8.47-12.58-13.61-12.71s-10.11,4.06-14.9,12.77c-1.49-.34-2.83-.69-4-1a4.21,4.21,0,1,0-2.08,8.16c.67.15,1.4.31,2.2.47-1.29,2.55-2.6,5-3.69,7a4,4,0,1,0,7.34,3.24c.8-2.31,2-5.62,3.58-9.07l1.09.13A81.31,81.31,0,0,0,270,79a52.56,52.56,0,0,0,10.85-1,26.51,26.51,0,0,1,1,7.41,4.25,4.25,0,1,0,8.35-1.09C289.61,82,288.73,79.05,287.62,76Zm-23.93-5.16c3.17-5.16,5.8-7.13,7.41-7.13h0c1.6,0,4.06,2.07,6.79,7.29A56.71,56.71,0,0,1,263.69,70.81Zm60.74-.48a16.86,16.86,0,0,0,2.78-2.54,12.38,12.38,0,0,0,2.64-12,9.29,9.29,0,0,0-5-5.87c-4.2-2.08-10.54-2.05-19.39.08-.74.17-1.51.38-2.3.6,0-.07-.05-.14-.07-.2a3.48,3.48,0,0,0-6.57,2.3c-.56.19-1.12.38-1.63.57a3.82,3.82,0,1,0,2.94,7l.81-.39a52.57,52.57,0,0,1,.27,23.29,3.48,3.48,0,0,0,2.35,4.12h0a3.47,3.47,0,0,0,4.42-2.55A53.26,53.26,0,0,0,307,75.69a37.48,37.48,0,0,0,10.68-1.9,26.08,26.08,0,0,1,7.3,9.62,4.57,4.57,0,1,0,8.05-4.2A36.67,36.67,0,0,0,324.43,70.33ZM307.17,56.76c6.77-1.62,12.09-1.84,14.61-.59a2.34,2.34,0,0,1,1.39,1.56A5.49,5.49,0,0,1,322,63.25c-2.73,3.16-8.77,5.27-15,5.51a65.82,65.82,0,0,0-1.76-11.44C305.86,57.11,306.53,56.91,307.17,56.76Zm62,33.71a5.15,5.15,0,0,1-6.34-3.79c-1.3-5.52-4.22-13.94-10.47-17.87q-.9.43-1.8.81a111.71,111.71,0,0,1-2.38,15.87,4.44,4.44,0,0,1-4.44,3.42h0a4.44,4.44,0,0,1-4.15-5.71,90.56,90.56,0,0,0,2.54-11.5c-.76.07-1.52.11-2.28.11h-.27a3.68,3.68,0,1,1,.14-7.35,17.82,17.82,0,0,0,3.29-.31c1.58-20.25-3-38.29-5.5-46.45a4.61,4.61,0,1,1,8.91-2.31A207.79,207.79,0,0,1,351,60.78c5.33-3.57,9.27-8.94,11.48-12.49a4.52,4.52,0,0,1,5.92-1.6h0a4.52,4.52,0,0,1,1.55,6.71,61,61,0,0,1-7.14,8.07,46.54,46.54,0,0,1-3.72,3.16c6.55,5.3,11,13.29,13.47,18.67A5.18,5.18,0,0,1,369.13,90.47ZM244.2,61.59c-4.83,10.35-13.49,19-25,25a82.22,82.22,0,0,1-41.53,8.61c-2.24-.12-4.49-.33-6.68-.62A64.73,64.73,0,0,1,132,73.7a19.13,19.13,0,0,1-7.83,1.21,19.85,19.85,0,0,1-2.43-.27,4.74,4.74,0,0,1-1.28-.39,4.39,4.39,0,0,1,2.14-8.34,4.53,4.53,0,0,1,.81.12,25,25,0,0,0,4.31.7,7,7,0,0,0,2.07-.15c3-.8,5.62-3.69,8-8.82a3.92,3.92,0,0,1,2.92-2.33,3.56,3.56,0,0,1,1.8.17,3.73,3.73,0,0,1,2.14,5,28.55,28.55,0,0,1-6.17,8.94c8.3,8.17,19.82,13.44,33.34,15.25,2,.27,4.06.46,6.11.57a74.65,74.65,0,0,0,37.69-7.78,56.41,56.41,0,0,0,12.83-8.93,39.27,39.27,0,0,0,8.29-11.11,37.47,37.47,0,0,0,3.63-13.24A51,51,0,0,0,239.22,29c-.23-1-.52-2-.8-3.06L238,24.38c-.59-2.2-1.63-4.37-1.61-6.69,0-5,5.64-6.84,9.51-8.23A78.06,78.06,0,0,1,262.63,5a64.27,64.27,0,0,1,11.27-.23,31.16,31.16,0,0,1,9.24,1.77,21.26,21.26,0,0,1,13.57,18,21.82,21.82,0,0,1-9.8,20.93c-3.52,2.25-13.84,6.3-27.69,5.59-1.5-.08-3-.22-4.53-.41a3.76,3.76,0,0,1-2.33-1.15,3.67,3.67,0,0,1-.93-3.18l0-.08a3.7,3.7,0,0,1,3.82-3l.28,0c1.43.18,2.88.31,4.29.38,5.66.29,13.72-.19,20-4.16a14.47,14.47,0,0,0,6.41-13.88,13.71,13.71,0,0,0-8.78-11.76,23.88,23.88,0,0,0-7.25-1.43c-7.64-.4-16,2.07-23.36,4.66a2,2,0,0,0-1.21,2.49C250.15,34.28,249.62,50,244.2,61.59Z"/><path d="M421.58,39.7c.26.09,1.08.3,1.08.62,0,.14-.18.23-.27.29-.44.26-.46.38-.67,1-.09.32-.7,2.45-.7,2.6a.43.43,0,0,0,.44.44,21.34,21.34,0,0,0,3.39-1.08,1.48,1.48,0,0,1,.61-.15c.58,0,.58,1.78.58,2.22s-.06.91-.55,1.05a42.79,42.79,0,0,1-4.79,1.14c-.85.18-.94.32-1.2,1.14a90.18,90.18,0,0,1-5.43,12.88c-.38.7-.61,1.11-1.05,1.11s-2.48-.94-2.48-1.58a2.2,2.2,0,0,1,.49-1,57.52,57.52,0,0,0,5.17-10.81,4.14,4.14,0,0,0,.24-.76c0-.29-.24-.43-.53-.43s-1.69.14-2.6.14c-.58,0-1.05,0-1.22-.52a12.29,12.29,0,0,1-.24-2.14c0-.32.09-.52.44-.52s1.49.12,2.74.12c1.87,0,2.31,0,2.57-.47a26.24,26.24,0,0,0,1.08-5.32c0-.43,0-.73.33-.73S421.2,39.59,421.58,39.7Zm-.41,18.84c1.28,1.43,3.5,1.69,5.28,1.69a13.14,13.14,0,0,0,4.15-.58,1,1,0,0,1,.29-.06c.5,0,.5.67.5,1.84,0,.58,0,1.25-.32,1.46a28.41,28.41,0,0,1-4.56.38c-1.93,0-4.61-.23-6.25-1.31-.47-.33-1.43-1.06-1.43-1.67,0-.44,1.34-2.16,1.81-2.16C420.85,58.13,421.05,58.39,421.17,58.54Zm3.56-9.43a21.11,21.11,0,0,1,5.87.81.56.56,0,0,1,.41.59,7.13,7.13,0,0,1-.56,2,.49.49,0,0,1-.52.38,1.74,1.74,0,0,1-.62-.14,13,13,0,0,0-4.64-.73c-.38,0-.73,0-1.11,0-.58,0-.73-.15-.73-.65C422.83,48.93,423.36,49.11,424.73,49.11Z"/><path d="M456.91,48.73c2.65,3.06,5.57,6,9.25,7.79.27.12.59.27.59.59,0,.55-1.38,2.74-2.16,2.74a8.84,8.84,0,0,1-2.31-1.31,44.17,44.17,0,0,1-7.48-7.3c-.93-1.08-1.57-1.84-2.19-1.84-.78,0-2.13,1.4-2.77,2-1.17,1-2.69,2.34-3.71,3.45-.17.18-.44.5-.7.5-.55,0-2.42-2.43-2.42-2.92,0-.3.67-.59.9-.7a28.32,28.32,0,0,0,4.7-3.51c1.11-1,2.46-2.36,4-2.36C454.54,45.84,455.8,47.44,456.91,48.73Zm6.3-1.43c0,.41-1,1.34-1.4,1.34-.12,0-.44-.35-.93-.88s-1-1.08-1.67-1.69a.49.49,0,0,1-.23-.35c0-.35,1.11-1.26,1.37-1.26A11,11,0,0,1,463.21,47.3Zm3.24-2c0,.41-1,1.37-1.37,1.37-.14,0-.29-.17-.38-.29-.61-.7-1.52-1.63-2.22-2.28-.11-.08-.26-.2-.26-.35,0-.32,1.08-1.25,1.4-1.25A11.23,11.23,0,0,1,466.45,45.28Z"/><path d="M494.66,43.68c0,.2-.32.38-.64.61a28.55,28.55,0,0,0-4.24,3.91.91.91,0,0,0-.29.5c0,.23.24.38.5.38a1.67,1.67,0,0,0,.38-.06,5.43,5.43,0,0,1,1.2-.12,8.52,8.52,0,0,1,3.59.88,6,6,0,0,1,3.47,5.66c0,5.17-4.58,7.86-9.28,7.86-2.43,0-5.87-1-5.87-4a3.67,3.67,0,0,1,3.73-3.54,4.77,4.77,0,0,1,3.89,2.08,2.89,2.89,0,0,1,.52,1.87c0,.2.12.38.35.38a4.75,4.75,0,0,0,3.54-4.5c0-2.83-2.4-4-4.94-4A8.87,8.87,0,0,0,484,54.48c-1.14,1.11-2.19,2.31-3.24,3.5-.09.12-.17.21-.32.21-.61,0-2.1-1.64-2.1-2.1s.43-.68.7-.88A117.29,117.29,0,0,0,488.15,46c.23-.23.76-.76.76-1s-.26-.35-.5-.35-.52.09-.7.12c-.7.17-4.82,1-5.28,1-.65,0-.73-2.19-.73-2.69,0-.67,0-.73.9-.73h.7a27.11,27.11,0,0,0,7.39-1.08A3.88,3.88,0,0,1,491.8,41C493,41,494.66,43.18,494.66,43.68Zm-7.39,14.48A1.21,1.21,0,0,0,486,59.33c0,1.05,1.4,1.54,2.27,1.54.56,0,.79-.52.79-1A1.79,1.79,0,0,0,487.27,58.16Z"/><path d="M525.32,58.3c-.29,0-.29.36-.29.38v2.66c0,.94.06,1.84.06,2.75s-.35.9-1.52.9S522,65,522,64.12s.09-1.81.09-2.78v-2.6c0-.14-.06-.35-.32-.35a.57.57,0,0,0-.24.09,27.83,27.83,0,0,1-6.95,4.73A11.77,11.77,0,0,1,512,64.26c-.62,0-1.52-1.52-1.52-2s.52-.53.87-.67a28.5,28.5,0,0,0,7.33-4.09.33.33,0,0,0,.12-.27c0-.17-.21-.23-.35-.26h-3.56c-1.17,0-2.31.06-3.48.06-.7,0-.67-.32-.67-1.31s0-1.35.67-1.35c1.17,0,2.31.06,3.48.06h6.45c.53,0,.79-.2.79-.76,0-.29-.09-.79-.09-.9,0-.35.26-.41.53-.41.46,0,1.86.11,2.39.17.32.06.76.06.76.41,0,.18-.12.21-.32.38a.7.7,0,0,0-.29.56c0,.43.41.55.78.55h6.4c1.17,0,2.31-.06,3.47-.06.71,0,.68.32.68,1.35s0,1.31-.68,1.31c-1.16,0-2.3-.06-3.47-.06h-3.65c-.15,0-.32.06-.32.26s.06.15.12.24a33.77,33.77,0,0,0,7.38,4.2c.35.15.82.32.82.65,0,.49-1,2-1.66,2a11.85,11.85,0,0,1-2.52-1.17,35.92,35.92,0,0,1-6.8-4.73A.5.5,0,0,0,525.32,58.3Zm-8.15-8.87c-1.28,1-2.63,2-4,2.86-.41.26-.47.29-.5.53s-.08.46-.35.46-1.84-2.13-1.84-2.42.27-.35.44-.44a33.61,33.61,0,0,0,4.7-3.12.71.71,0,0,1,.47-.27c.44,0,1.49,1.41,1.49,1.81S517.38,49.25,517.17,49.43Zm-1.66-3.77a1.05,1.05,0,0,1-.7-.44c-1-1-2.16-2-3.27-2.95-.21-.17-.44-.32-.44-.58A2.78,2.78,0,0,1,512.82,40a.9.9,0,0,1,.5.26c.41.32,2,1.72,2.42,2.1s1.43,1.17,1.43,1.64A2.73,2.73,0,0,1,515.51,45.66Zm7.33-7.12a10,10,0,0,1,1.17.29c.64.17,2.07.47,2.07.87s-.35.3-.56.35a.65.65,0,0,0-.46.33c-.12.14-.18.29-.27.4a.67.67,0,0,0-.08.3c0,.29.23.38.46.38h1.32l1.75,0c.73,0,1.11.29,1.11,1s0,1.22,0,1.84v5.34c0,.61,0,1.23,0,1.84,0,.79-.56.76-1.4.76a2.7,2.7,0,0,1-1.11-.15.73.73,0,0,0-.38-.17h-5.7a.55.55,0,0,0-.35.15,2.23,2.23,0,0,1-1.14.17c-.84,0-1.4,0-1.4-.76,0-.44,0-1.34,0-1.84V44.32c0-.59,0-1.2,0-1.78,0-.79.32-1.11,1.11-1.11l1.52,0a1,1,0,0,0,1.14-.65,18.52,18.52,0,0,0,.82-1.84C522.52,38.74,522.55,38.54,522.84,38.54ZM526,45.6a.67.67,0,0,0,.7-.7v-.38a.67.67,0,0,0-.7-.7h-4.7a.67.67,0,0,0-.7.7v.38a.67.67,0,0,0,.7.7Zm-4.7,2.16a.68.68,0,0,0-.7.7v.41a.67.67,0,0,0,.7.7H526a.67.67,0,0,0,.7-.7v-.41a.68.68,0,0,0-.7-.7ZM534.69,53c-.23,0-.49-.29-.67-.44a40.06,40.06,0,0,0-4-3.18c-.2-.15-.47-.32-.47-.59,0-.49,1-1.78,1.61-1.78A14.23,14.23,0,0,1,534,49c.47.38,1.78,1.43,2.19,1.84a.6.6,0,0,1,.24.44C536.42,51.71,535.25,53,534.69,53Zm1.37-10.78h-.26c-.17,0-.35.21-.46.33-.59.58-3.3,3.15-4,3.15a3,3,0,0,1-1.72-1.66c0-.24.29-.44.61-.68a22.45,22.45,0,0,0,3.39-3.15c.12-.12.26-.32.44-.32a3.48,3.48,0,0,1,1,.64c.64.53,1.43,1.17,1.43,1.4S536.27,42.24,536.06,42.24Z"/><path d="M553.7,41.69c.21,0,.58.15.58.41s-.17.29-.35.44c-1,.76-1.28,10-1.28,11.68,0,2.27-.06,5.81,3.09,5.81a7.39,7.39,0,0,0,5.49-2.83A9.33,9.33,0,0,0,563,52.87c.08-.46.14-1,.58-1,.64,0,2.42,1.49,2.42,2.37a11.1,11.1,0,0,1-1.19,3.41A10.25,10.25,0,0,1,556,63.27,6.45,6.45,0,0,1,550.81,61c-1.31-1.75-1.46-4.58-1.46-6.72q0-3.45.26-6.92c.09-1.34.35-4.14.35-5.34v-.32c0-.44,0-.73.44-.73A23.8,23.8,0,0,1,553.7,41.69Z"/><path d="M586.81,40.26c.64,1.11,1.2,2.25,1.81,3.39a.86.86,0,0,0,.79.55,13.27,13.27,0,0,0,3.18-1.58,1.85,1.85,0,0,1,.79-.35c.59,0,1.87,1.76,1.87,2.28,0,.32-.5.56-.87.76a22.67,22.67,0,0,1-2.69,1.26c-.38.14-1,.26-1,.78a2.29,2.29,0,0,0,.5,1.11,33.45,33.45,0,0,0,4.24,6.43,1.36,1.36,0,0,1,.46.82c0,.64-1.46,1.92-2.07,1.92-.32,0-.76-.38-1.11-.61a14.06,14.06,0,0,0-6.92-2.45c-1.52,0-3.13.9-3.13,2.6,0,3,4.47,3.62,6.72,3.62.67,0,1.26-.06,1.64-.06.58,0,.67.41.67.93a5.48,5.48,0,0,1-.29,1.78c-.15.38-.38.5-1,.5a22.3,22.3,0,0,1-5-.67c-3-.76-5.78-2.51-5.78-6s2.89-5.58,6.16-5.58a9.42,9.42,0,0,1,3.65.85,1,1,0,0,0,.32.09.29.29,0,0,0,.32-.26,1.12,1.12,0,0,0-.17-.44c-.64-1-1.11-1.78-1.7-2.83-.26-.47-.46-1-1.11-1a1.89,1.89,0,0,0-.38.09,40.36,40.36,0,0,1-6.92,1.11c-.64,0-.78-.23-1-1.05a5.91,5.91,0,0,1-.35-1.55c0-.46.32-.49.7-.52a32.53,32.53,0,0,0,5.84-.65c.32-.08.7-.17.7-.58a19.6,19.6,0,0,0-2.19-3.56,1,1,0,0,1-.2-.47c0-.58,2.42-1.2,2.83-1.2S586.64,39.94,586.81,40.26Z"/><path d="M620.5,40.67c0,.17-.2.29-.35.35-.47.17-.58.32-1,1a2,2,0,0,0-.29.67c0,.21.14.29.32.29a21.51,21.51,0,0,0,3.38-.81,2.23,2.23,0,0,1,.73-.18c.5,0,.65.47.73.88a9.16,9.16,0,0,1,.24,1.57c0,.5-.94.62-1.55.73-1.84.38-3.68.71-5.52.91a1,1,0,0,0-.87.47,9.21,9.21,0,0,0-1,1.69.23.23,0,0,0,.24.21,1.08,1.08,0,0,0,.52-.18,8,8,0,0,1,3.18-.76,3,3,0,0,1,3.33,2.63c.06.26.15.5.44.5A26.66,26.66,0,0,0,626.49,49a2.26,2.26,0,0,1,.76-.29c.55,0,1.25,2.25,1.25,2.74s-.32.47-.87.65c-.12,0-.27.08-.41.14-1.17.44-2.31.94-3.45,1.43-.52.21-.76.38-.76,1V55c0,.9,0,1.78,0,2.68,0,1.05-.14,1.17-1.25,1.17S620,58.77,620,58s0-1.28,0-1.9c0-.26-.08-.49-.38-.49-.14,0-3.15,1.28-3.15,3.09s2.83,2.14,4.23,2.14a21.73,21.73,0,0,0,5.44-.73,3.44,3.44,0,0,1,.58-.06c.38,0,.58.32.58,2,0,.88,0,1.11-.67,1.26a39.1,39.1,0,0,1-5.6.38,10.86,10.86,0,0,1-4.62-.76,4.44,4.44,0,0,1-2.92-4.18c0-2.63,2.13-4.06,4.15-5.25.58-.35,1.2-.67,1.81-1,.29-.14.52-.32.52-.67a4,4,0,0,0-.14-.82,1.22,1.22,0,0,0-1.29-1,9.82,9.82,0,0,0-5.46,2.57A19.5,19.5,0,0,0,610.69,56a.49.49,0,0,1-.41.29c-.52,0-2.48-1.17-2.48-1.69,0-.24.23-.47.38-.65.67-.73,4.91-6.6,4.91-7.15,0-.26-.24-.35-.65-.35s-1.14.09-2,.09c-.64,0-.76-.15-.76-1.64,0-1.17.12-1.34.85-1.34.49,0,1.25.06,2.1.06h.85c.75,0,1.54,0,1.81-.38a16.19,16.19,0,0,0,1.57-3.77c.06-.32.12-.61.41-.61S620.5,40.23,620.5,40.67Z"/><path d="M641,56.79c.67,0,5.69,4,5.69,4.76s-1.46,2.24-2.13,2.24c-.23,0-.44-.26-.58-.43a18.06,18.06,0,0,0-4.44-4c-.21-.12-.53-.3-.53-.56A4,4,0,0,1,641,56.79Z"/><path d="M673.07,40.7c0,.14-.12.23-.27.32-.41.2-.61.23-1,1.28-.26.7-.5,1.43-.73,2.13a1,1,0,0,0-.09.41c0,.5.38.62.79.68,1,.11,2,.2,3,.23.56,0,1,0,1,.55a8.39,8.39,0,0,1-.32,1.9c-.11.41-.23.64-.64.64a38.21,38.21,0,0,1-4-.43.88.88,0,0,0-.26-.06c-.47,0-.68.32-.79.7s-.5,2.19-.5,2.42c0,.62.61.64,1,.67a25.72,25.72,0,0,0,2.63.12c.79,0,.88.2.88.5a6.55,6.55,0,0,1-.38,2c-.15.44-.32.67-.82.67-.67,0-2-.2-2.75-.29a2.64,2.64,0,0,0-.46-.06c-.79,0-.79.73-.79,2,0,2.54,1.34,3.88,3.88,3.88,1.32,0,3.33-.35,4.24-1.37a3,3,0,0,0,.64-2.07,12.85,12.85,0,0,0-1-4.24,1.47,1.47,0,0,1-.12-.52c0-.7,2.16-1.08,2.48-1.08s.56.47.79,1.11a16.07,16.07,0,0,1,1,5.11c0,4.52-4.17,6.1-8.06,6.1-4.4,0-7-2.54-7-7,0-.73.11-1.84.11-2.13,0-.64-.49-.82-1.16-1a10.27,10.27,0,0,1-1.73-.7c-.32-.18-.55-.32-.55-.7,0-.18.29-2.49,1-2.49a1.62,1.62,0,0,1,.73.3,5.32,5.32,0,0,0,1.87.81c.49,0,.58-.4.76-1.25.06-.32.17-.7.26-1.14a5.89,5.89,0,0,0,.12-.64c0-.65-.53-.82-.94-1-2-.78-2.63-1.05-2.63-1.57s.47-2.51,1.09-2.51a1.59,1.59,0,0,1,.67.32,19.5,19.5,0,0,0,2,1,.92.92,0,0,0,.38.09c.47,0,.59-.38.67-.7.27-1,.91-3.07,1.14-3.92.09-.32.15-.58.44-.58a10.82,10.82,0,0,1,1.46.47C671.58,39.82,673.07,40.23,673.07,40.7Z"/><path d="M695.17,50.77a22.16,22.16,0,0,0,2.69-.87c2.59-.94,5.66-2.11,8.41-2.11,3.41,0,6.07,2.19,6.07,5.73s-2.66,5.84-5.72,7.15a16.66,16.66,0,0,1-4.5,1.23c-1,0-1.37-2-1.37-2.22,0-.5.55-.56.93-.59a13,13,0,0,0,5-1.46,5,5,0,0,0,2.87-4.17,3,3,0,0,0-3.27-3c-2.84,0-6.63,1.6-9.12,3a1.55,1.55,0,0,1-.81.29c-.76,0-1.81-1.75-1.81-2.37C694.53,51,694.85,50.86,695.17,50.77Z"/><path d="M731.08,40.61a10.68,10.68,0,0,1,1.41-.15c.81,0,.76.44.81,1.11a40.28,40.28,0,0,0,.91,5.23c.09.38.17.88.67.88s5.2-2.75,6-3.25a1.91,1.91,0,0,1,.76-.29c.38,0,.87.88,1,1.17a5.89,5.89,0,0,1,.84,1.78c0,.29-.32.38-.55.47a53.45,53.45,0,0,0-7.21,3.36,29.26,29.26,0,0,0-5.26,3.44A3.68,3.68,0,0,0,729,57c0,1,1,1.78,1.93,2.1a11.59,11.59,0,0,0,3.88.53,43.84,43.84,0,0,0,7.62-.76.83.83,0,0,1,.27,0c.4,0,.43,1.2.43,1.81V61c0,.76,0,1.08-.61,1.23a70.46,70.46,0,0,1-8,.46,11,11,0,0,1-6-1.25,5.15,5.15,0,0,1-2.68-4.5c0-3.18,2.63-5.25,5-6.83a.91.91,0,0,0,.5-.76,1,1,0,0,0-.12-.53c-.35-1.05-1.17-4.14-1.46-5.34a18.82,18.82,0,0,0-.56-1.93,1.37,1.37,0,0,1-.08-.35C729.19,40.76,730.15,40.76,731.08,40.61Z"/><path d="M761.63,59.94a4.06,4.06,0,1,1-4.06-4.06A4.07,4.07,0,0,1,761.63,59.94Zm-6.66,0a2.6,2.6,0,1,0,5.2,0,2.57,2.57,0,0,0-2.6-2.6A2.61,2.61,0,0,0,755,59.94Z"/></svg>