<svg id="レイヤー_1" data-name="レイヤー 1" xmlns="http://www.w3.org/2000/svg" viewBox="0 0 31 26"><title>AP_svg</title><path d="M24.5,3a6.51,6.51,0,0,0-2.62.55,7.51,7.51,0,0,0-12.76,0A6.5,6.5,0,0,0,0,9.5a6.45,6.45,0,0,0,5,6.32V25a1,1,0,0,0,1,1H25a1,1,0,0,0,1-1V15.82A6.45,6.45,0,0,0,31,9.5,6.51,6.51,0,0,0,24.5,3ZM7,24V22H24v2ZM24.91,14A1,1,0,0,0,24,15v5H7V15a1,1,0,0,0-.91-1A4.5,4.5,0,1,1,9,5.75a1,1,0,0,0,.84.13,1,1,0,0,0,.63-.57,5.51,5.51,0,0,1,10.1,0,1,1,0,0,0,.63.57A1,1,0,0,0,22,5.75,4.44,4.44,0,0,1,24.5,5a4.5,4.5,0,0,1,.41,9Z"/></svg>