<?xml version="1.0" encoding="UTF-8"?>
<svg id="_レイヤー_2" data-name="レイヤー 2" xmlns="http://www.w3.org/2000/svg" viewBox="0 0 28 28">
  <defs>
    <style>
      .cls-1 {
        fill: #fff;
      }
    </style>
  </defs>
  <g id="_レイヤー_1-2" data-name="レイヤー 1">
    <g>
      <path class="cls-1" d="m26.72,17.09c-.71,0-1.29.58-1.29,1.29v5.8c0,.69-.56,1.26-1.26,1.26H3.83c-.69,0-1.26-.56-1.26-1.26V3.83c0-.69.56-1.26,1.26-1.26h5.8c.71,0,1.28-.58,1.28-1.29s-.58-1.28-1.28-1.28H3.83C1.71,0,0,1.72,0,3.83v20.34c0,2.12,1.71,3.83,3.83,3.83h20.34c2.12,0,3.83-1.72,3.83-3.83v-5.79c0-.71-.58-1.29-1.29-1.29Z"/>
      <path class="cls-1" d="m25.44,0h-8.87c-.71,0-1.28.57-1.28,1.28s.57,1.28,1.28,1.28h6.74s-9.34,9.62-9.34,9.62c-.5.51-.48,1.33.03,1.82.51.5,1.32.48,1.82-.03l9.61-9.9v7.35c0,.71.58,1.29,1.29,1.29s1.29-.58,1.29-1.29V2.56c0-1.41-1.15-2.56-2.56-2.56Z"/>
    </g>
  </g>
</svg>