<svg id="レイヤー_1" data-name="レイヤー 1" xmlns="http://www.w3.org/2000/svg" xmlns:xlink="http://www.w3.org/1999/xlink" viewBox="0 0 30.29 24.64"><defs><style>.cls-1{fill:url(#名称未設定グラデーション_14);}.cls-2{fill:url(#名称未設定グラデーション_14-2);}</style><linearGradient id="名称未設定グラデーション_14" y1="10.31" x2="30.16" y2="10.31" gradientUnits="userSpaceOnUse"><stop offset="0" stop-color="#d92c6b"/><stop offset="1" stop-color="#ec6e1e"/></linearGradient><linearGradient id="名称未設定グラデーション_14-2" x1="0" y1="23.11" x2="30.29" y2="23.11" xlink:href="#名称未設定グラデーション_14"/></defs><path class="cls-1" d="M29.52,1.08A23.58,23.58,0,0,0,22.15,0a24,24,0,0,0-7,1,24,24,0,0,0-7-1A23.67,23.67,0,0,0,.68,1.08,1,1,0,0,0,0,2V19.62a1,1,0,0,0,.41.81,1,1,0,0,0,.91.14,24.47,24.47,0,0,1,13.47,0h.59a24.47,24.47,0,0,1,13.47,0,1.06,1.06,0,0,0,.31.05,1,1,0,0,0,.59-.19,1,1,0,0,0,.41-.81V2A1,1,0,0,0,29.52,1.08ZM8.05,17.59a25.14,25.14,0,0,0-6.05.7V2.77a24.78,24.78,0,0,1,12.1,0V18.29A25.14,25.14,0,0,0,8.05,17.59Zm20.15.7a25.14,25.14,0,0,0-6.05-.7,25.24,25.24,0,0,0-6,.7V2.77a24.78,24.78,0,0,1,12.1,0Z" transform="translate(0 0)"/><path class="cls-2" d="M29.51,22.67a23.86,23.86,0,0,0-7.36-1.08,24,24,0,0,0-7,1,24,24,0,0,0-7-1A23.56,23.56,0,0,0,.69,22.67a1,1,0,0,0-.64,1.26h0a1,1,0,0,0,1,.68,1.13,1.13,0,0,0,.32-.05,24.47,24.47,0,0,1,13.47,0,1,1,0,0,0,.63,0,24.47,24.47,0,0,1,13.47,0A1,1,0,0,0,30.22,24a1,1,0,0,0-.59-1.29l-.07,0Z" transform="translate(0 0)"/></svg>