<svg id="レイヤー_1" data-name="レイヤー 1" xmlns="http://www.w3.org/2000/svg" viewBox="0 0 30.2 24.62"><title>AP_svg</title><path d="M29.52,1.08A23.7,23.7,0,0,0,22.15,0a24.11,24.11,0,0,0-7,1,24.11,24.11,0,0,0-7-1A23.7,23.7,0,0,0,.68,1.08,1,1,0,0,0,0,2V19.62a1,1,0,0,0,.41.81,1,1,0,0,0,.91.14,24.47,24.47,0,0,1,13.47,0h.05a.76.76,0,0,0,.21,0h.08l.25,0h0a24.47,24.47,0,0,1,13.47,0,1.06,1.06,0,0,0,.31.05,1,1,0,0,0,.59-.19,1,1,0,0,0,.41-.81V2A1,1,0,0,0,29.52,1.08ZM8.05,17.59a25,25,0,0,0-6.05.7V2.77a24.78,24.78,0,0,1,12.1,0V18.29A25,25,0,0,0,8.05,17.59Zm20.15.7a25,25,0,0,0-6.05-.7,25,25,0,0,0-6,.7V2.77a24.78,24.78,0,0,1,12.1,0Z"/><path d="M29.51,22.67a23.88,23.88,0,0,0-7.36-1.08,24.12,24.12,0,0,0-7,1,24.12,24.12,0,0,0-7-1A23.59,23.59,0,0,0,.69,22.67a1,1,0,0,0-.64,1.27,1,1,0,0,0,1,.68,1.25,1.25,0,0,0,.32-.05,24.47,24.47,0,0,1,13.47,0,1,1,0,0,0,.63,0,24.47,24.47,0,0,1,13.47,0,1,1,0,1,0,.62-1.9Z"/></svg>