<svg xmlns="http://www.w3.org/2000/svg" viewBox="0 0 26.52 27"><defs><style>.cls-1{fill:none;stroke:#000;stroke-linecap:round;stroke-linejoin:round;stroke-width:2px;}</style></defs><g id="レイヤー_2" data-name="レイヤー 2"><g id="レイヤー_1-2" data-name="レイヤー 1"><g id="icon_menu"><path d="M23.52,2a1,1,0,0,1,1,1V24a1,1,0,0,1-1,1H4.84a1,1,0,0,1-1-1V3a1,1,0,0,1,1-1H23.52m0-2H4.84a3,3,0,0,0-3,3V24a3,3,0,0,0,3,3H23.52a3,3,0,0,0,3-3V3a3,3,0,0,0-3-3Z"/><line class="cls-1" x1="4.96" y1="6.81" x2="1" y2="6.81"/><line class="cls-1" x1="4.96" y1="13.5" x2="1" y2="13.5"/><line class="cls-1" x1="4.96" y1="20.19" x2="1" y2="20.19"/><path class="cls-1" d="M19.9,20.78V7.29c0-1.53-1.79-.22-2.28.91A9.48,9.48,0,0,0,16.73,13c0,4,3.17,2.05,3.17,5.65"/><polyline class="cls-1" points="11.63 13.55 9.38 10.99 9.38 6.96"/><polyline class="cls-1" points="11.63 13.55 13.88 10.99 13.88 6.96"/><line class="cls-1" x1="11.63" y1="20.78" x2="11.63" y2="6.97"/></g></g></g></svg>