<svg width="221" height="49" viewBox="0 0 221 49" fill="none" xmlns="http://www.w3.org/2000/svg">
<path d="M0.439697 0.238281L26.4397 48.2383" stroke="black"/>
<path d="M42.5397 24.0403L42.6097 25.9163V27.0783H43.8697C44.2337 27.0783 44.4157 27.4003 44.4157 27.7083C44.4157 28.0303 44.2337 28.3523 43.8697 28.3523H42.6097V30.3543C42.6097 30.7603 42.2457 30.9563 41.8677 30.9563C41.5037 30.9563 41.1257 30.7603 41.1257 30.3543V28.3523H39.8097C39.4457 28.3523 39.2637 28.0303 39.2637 27.7083C39.2637 27.4003 39.4457 27.0783 39.8097 27.0783H41.1257V25.9163L41.1817 24.0963C40.5237 25.4403 39.5437 26.8683 38.4377 28.0163C38.2417 28.2123 38.0457 28.2963 37.8497 28.2963C37.4717 28.2963 37.1637 27.9883 37.1637 27.6243C37.1637 27.4423 37.2337 27.2603 37.4017 27.0923C38.6757 25.8043 39.7817 24.1383 40.5517 22.3603H38.2417C37.8637 22.3603 37.6677 22.0103 37.6677 21.6743C37.6677 21.3243 37.8637 20.9883 38.2417 20.9883H41.1257V18.5943C41.1257 18.1883 41.5037 17.9783 41.8677 17.9783C42.2457 17.9783 42.6097 18.1883 42.6097 18.5943V20.9883H45.8857C46.2777 20.9883 46.4597 21.3243 46.4597 21.6743C46.4597 22.0103 46.2777 22.3603 45.8857 22.3603H43.0017C43.9397 24.1103 45.2977 25.7203 46.5297 26.6863C46.7957 26.8963 46.9077 27.1483 46.9077 27.3863C46.9077 27.8063 46.5437 28.1703 46.1097 28.1703C45.9277 28.1703 45.7317 28.1003 45.5497 27.9323C44.4437 26.8963 43.3237 25.4683 42.5397 24.0403ZM35.4417 30.4523V24.1523L35.1477 24.6143C34.9657 24.8943 34.7137 25.0063 34.4757 25.0063C34.0837 25.0063 33.7337 24.7123 33.7337 24.3063C33.7337 24.1523 33.7757 23.9983 33.8877 23.8303C34.7977 22.4583 35.5817 20.4423 36.0157 18.5383C36.0997 18.1743 36.4357 17.9923 36.7717 17.9923C37.1777 17.9923 37.5837 18.2443 37.5837 18.7063C37.5837 18.7623 37.5697 18.8323 37.5557 18.9023C37.2897 20.0363 36.8557 21.2683 36.3377 22.4163C36.6597 22.4583 36.9397 22.6543 36.9397 22.9763V30.4523C36.9397 30.8303 36.5617 31.0123 36.1977 31.0123C35.8197 31.0123 35.4417 30.8303 35.4417 30.4523ZM56.0357 27.1763H55.4337C54.4117 27.1763 54.0337 26.7983 54.0337 26.0283V24.8243C54.0337 24.0403 54.4117 23.6903 55.4337 23.6903H56.3857V22.9203H55.7837C55.4617 22.9203 55.2937 22.6263 55.2937 22.3323C55.2937 22.2063 55.3217 22.0803 55.3917 21.9683C55.1257 22.2343 54.8457 22.4723 54.5797 22.6963C54.4117 22.8363 54.2437 22.8923 54.0757 22.8923C53.6837 22.8923 53.3477 22.5563 53.3477 22.1783C53.3477 21.9823 53.4457 21.7583 53.6977 21.5623C54.6917 20.7923 55.7837 19.5883 56.4977 18.3843C56.6517 18.1323 56.8757 18.0203 57.1137 18.0203C57.5057 18.0203 57.8977 18.3283 57.8977 18.7063C57.8977 18.7623 57.8977 18.8043 57.8837 18.8603C58.7237 19.8123 59.7177 20.6663 60.6697 21.2963C60.9637 21.4923 61.0757 21.7443 61.0757 21.9823C61.0757 22.3743 60.7397 22.7243 60.3197 22.7243C60.1517 22.7243 59.9697 22.6683 59.8017 22.5423C59.5637 22.3743 59.3257 22.1783 59.0737 21.9543C59.1437 22.0663 59.1717 22.1923 59.1717 22.3323C59.1717 22.6263 59.0037 22.9203 58.6677 22.9203H57.7437V23.6903H58.8357C59.8577 23.6903 60.2357 24.0403 60.2357 24.8243V26.0283C60.2357 26.7983 59.8577 27.1763 58.8357 27.1763H57.9677C58.5837 28.1563 59.3957 28.8423 60.3337 29.4023C60.6557 29.5983 60.7817 29.8503 60.7817 30.1023C60.7817 30.4803 60.4457 30.8443 60.0397 30.8443C59.8997 30.8443 59.7457 30.7883 59.5917 30.6903C58.5697 30.0043 57.7157 29.1503 57.0717 28.1143C56.5117 29.2763 55.6157 30.1723 54.4397 30.8023C54.2997 30.8723 54.1737 30.9143 54.0477 30.9143C53.6557 30.9143 53.3617 30.5783 53.3617 30.2143C53.3617 29.9903 53.4737 29.7523 53.7817 29.5843C54.8317 29.0383 55.6017 28.2543 56.0357 27.1763ZM55.6157 26.0563H56.3577C56.3997 25.6923 56.4277 25.3283 56.4277 24.9643V24.8103H55.6157C55.3917 24.8103 55.3217 24.8803 55.3217 25.0483V25.8183C55.3217 26.0003 55.4477 26.0563 55.6157 26.0563ZM57.7157 24.8103V24.8803C57.7157 25.2723 57.6877 25.6643 57.6457 26.0563H58.6537C58.8917 26.0563 58.9617 25.9863 58.9617 25.8183V25.0483C58.9617 24.8803 58.8917 24.8103 58.6537 24.8103H57.7157ZM55.7837 21.7443H58.6677C58.7377 21.7443 58.8077 21.7583 58.8637 21.7863C58.2337 21.2403 57.6597 20.6383 57.1417 20.0083C56.6517 20.6243 56.1477 21.2403 55.5737 21.8003C55.6437 21.7583 55.6997 21.7443 55.7837 21.7443ZM51.7237 19.6863V20.7083H52.7457C53.0397 20.7083 53.1937 20.9883 53.1937 21.2683C53.1937 21.5623 53.0397 21.8423 52.7457 21.8423H51.7237V22.8503H52.7457C53.0397 22.8503 53.1937 23.1303 53.1937 23.4103C53.1937 23.7043 53.0397 23.9843 52.7457 23.9843H51.7237V25.0343H52.4097C53.2357 25.0343 53.5997 25.4263 53.5857 26.1683C53.5577 27.6383 53.4177 28.6743 53.2077 29.4863C52.9277 30.5783 52.3537 30.8723 51.4997 30.8723C51.1777 30.8723 50.9397 30.8443 50.7017 30.8023C50.3237 30.7463 50.1417 30.4383 50.1417 30.1303C50.1417 29.8083 50.3517 29.4723 50.7437 29.4723C50.7997 29.4723 50.8417 29.4723 50.8977 29.4863C51.0937 29.5283 51.2617 29.5423 51.4577 29.5423C51.7517 29.5423 51.8777 29.4583 51.9617 29.1223C52.0597 28.7163 52.1437 28.2403 52.1997 27.7083C52.1297 27.8343 52.0037 27.9043 51.8777 27.9043C51.7517 27.9043 51.6117 27.8343 51.5557 27.6663C51.4297 27.3303 51.3177 27.0923 51.1917 26.8543C51.1497 26.7843 51.1357 26.7283 51.1357 26.6583C51.1357 26.4763 51.3037 26.3643 51.4857 26.3643C51.6117 26.3643 51.7377 26.4203 51.8217 26.5463C51.9757 26.7983 52.0877 27.0363 52.1857 27.2883C52.1997 27.3303 52.2137 27.3583 52.2277 27.3863C52.2417 27.1063 52.2557 26.8123 52.2557 26.5183C52.2557 26.3083 52.1857 26.2243 51.9477 26.2243H49.6097C48.7277 26.2243 48.3637 25.9023 48.3637 25.1323V19.7143C48.3637 18.9023 48.7417 18.4683 49.8337 18.4683H53.0677C53.4317 18.4683 53.5997 18.7763 53.5997 19.0703C53.5997 19.3783 53.4317 19.6863 53.0677 19.6863H51.7237ZM50.5197 19.6863H49.9737C49.7217 19.6863 49.6517 19.7563 49.6517 19.9803V20.7083H50.5197V19.6863ZM50.5197 25.0343V23.9843H49.6517V24.7403C49.6517 24.9783 49.7217 25.0343 49.9737 25.0343H50.5197ZM49.6517 22.8503H50.5197V21.8423H49.6517V22.8503ZM48.1817 27.4703C48.2097 27.2043 48.4337 27.0643 48.6577 27.0643C48.8817 27.0643 49.1197 27.2183 49.1197 27.5123C49.1197 27.8903 48.9657 28.8003 48.7697 29.4303C48.6857 29.7103 48.4757 29.8223 48.2657 29.8223C48.0137 29.8223 47.7757 29.6543 47.7757 29.3743C47.7757 29.3043 47.7897 29.2343 47.8177 29.1643C47.9717 28.7163 48.1117 28.1003 48.1817 27.4703ZM50.0297 27.2183C50.1557 27.7083 50.2677 28.4643 50.2677 28.7303C50.2677 29.0383 50.0437 29.1923 49.8197 29.1923C49.6237 29.1923 49.4417 29.0663 49.4277 28.8143C49.3997 28.3803 49.3437 27.8063 49.2457 27.3863C49.2457 27.3583 49.2317 27.3303 49.2317 27.3023C49.2317 27.0643 49.4417 26.9243 49.6377 26.9243C49.8057 26.9243 49.9737 27.0223 50.0297 27.2183ZM50.9817 26.9243C51.1217 27.2603 51.2757 27.6383 51.3597 28.0583C51.3737 28.1143 51.3737 28.1563 51.3737 28.1983C51.3737 28.4783 51.1637 28.6323 50.9677 28.6323C50.7997 28.6323 50.6317 28.5203 50.5897 28.2963C50.5057 27.8623 50.3937 27.4843 50.2677 27.1763C50.2397 27.1203 50.2397 27.0643 50.2397 27.0083C50.2397 26.8123 50.4217 26.6863 50.6037 26.6863C50.7577 26.6863 50.9117 26.7563 50.9817 26.9243ZM70.0217 25.1183H71.6177C72.5557 25.1183 73.0597 25.5243 73.0597 26.1123C73.0597 26.3923 72.9477 26.7143 72.6957 27.0503C72.3737 27.4703 72.0237 27.8763 71.6177 28.2543C72.4157 28.6883 73.2837 29.0243 74.2357 29.2623C74.6417 29.3603 74.8237 29.6543 74.8237 29.9483C74.8237 30.3403 74.5297 30.7463 74.0537 30.7463C73.9697 30.7463 73.8857 30.7323 73.8017 30.7043C72.6117 30.3823 71.4777 29.8783 70.4557 29.1923C69.3497 29.9763 68.0477 30.5503 66.6477 30.9003C66.5777 30.9143 66.5077 30.9283 66.4517 30.9283C66.0457 30.9283 65.7937 30.5923 65.7937 30.2423C65.7937 29.9483 65.9757 29.6543 66.4237 29.5423C66.9837 29.3883 67.5297 29.2203 68.0617 28.9963C68.5097 28.8003 68.9297 28.5903 69.3357 28.3383C68.9577 27.9743 68.5797 27.6103 68.2577 27.1903C67.8937 27.5403 67.5157 27.8623 67.1377 28.1563C66.9697 28.2823 66.8017 28.3243 66.6477 28.3243C66.2837 28.3243 65.9757 28.0443 65.9757 27.7083C65.9757 27.5123 66.0737 27.3023 66.3257 27.1203C67.2777 26.4203 68.1457 25.5103 68.8317 24.5303C68.1317 24.5723 67.4597 24.6003 66.8297 24.6283C66.3677 24.6423 66.1437 24.2923 66.1437 23.9423C66.1437 23.6063 66.3537 23.2703 66.7877 23.2703C67.2497 23.2703 67.7257 23.2563 68.2017 23.2283C68.4817 22.9483 68.7477 22.6403 69.0137 22.3463C68.3557 21.7863 67.7397 21.3523 67.1377 20.9043C66.9277 20.7503 66.8297 20.5543 66.8297 20.3583C66.8297 19.9943 67.1517 19.6443 67.5717 19.6443C67.7257 19.6443 67.8797 19.6723 68.0477 19.7983L68.2157 19.9243C68.6217 19.3503 68.9577 18.7903 69.2657 18.2443C69.4197 17.9783 69.6437 17.8663 69.8817 17.8663C70.2737 17.8663 70.6657 18.1883 70.6657 18.5803C70.6657 18.6783 70.6377 18.7903 70.5817 18.9023C70.2457 19.5183 69.7837 20.1203 69.2937 20.7223C69.5037 20.9043 69.7137 21.0863 69.9237 21.2543C70.4277 20.6243 70.8757 20.0083 71.1837 19.5323C71.3377 19.3083 71.5477 19.2243 71.7577 19.2243C72.1637 19.2243 72.5557 19.5463 72.5557 19.9523C72.5557 20.0923 72.5137 20.2323 72.4017 20.3863C71.7717 21.2823 70.9457 22.2483 70.0637 23.1303C70.7357 23.0883 71.3937 23.0323 72.0517 22.9763C71.9677 22.8783 71.8837 22.7943 71.7997 22.7103C71.6597 22.5703 71.6037 22.4163 71.6037 22.2763C71.6037 21.9403 71.9397 21.6323 72.3317 21.6323C72.5277 21.6323 72.7377 21.7023 72.9337 21.8843C73.5077 22.4023 74.1797 23.1863 74.6137 23.8303C74.6837 23.9423 74.7257 24.0683 74.7257 24.1803C74.7257 24.5863 74.3337 24.9503 73.9277 24.9503C73.7317 24.9503 73.5357 24.8663 73.3817 24.6423C73.2697 24.4743 73.1297 24.2923 72.9757 24.0963C72.1497 24.2083 71.3237 24.3203 70.4977 24.3903C70.3437 24.6283 70.1897 24.8803 70.0217 25.1183ZM71.1977 26.3083H69.2237C69.5877 26.7423 70.0077 27.1483 70.4557 27.4983C70.7917 27.2043 71.0857 26.8963 71.3517 26.5743C71.4077 26.5043 71.4357 26.4483 71.4357 26.4063C71.4357 26.3363 71.3517 26.3083 71.1977 26.3083ZM63.7217 30.4803V25.3283C63.5257 25.5383 63.3157 25.7343 63.1197 25.9163C62.9517 26.0703 62.7557 26.1403 62.5877 26.1403C62.1957 26.1403 61.8737 25.8183 61.8737 25.4543C61.8737 25.2583 61.9577 25.0483 62.1677 24.8663C63.0357 24.0683 64.0297 22.7523 64.7437 21.4783C64.8837 21.2263 65.1077 21.1283 65.3457 21.1283C65.7377 21.1283 66.1297 21.4083 66.1297 21.8143C66.1297 21.9123 66.1017 22.0383 66.0317 22.1643C65.6817 22.7943 65.2477 23.4663 64.7717 24.0823C65.0097 24.1663 65.1777 24.3483 65.1777 24.6003V30.4803C65.1777 30.8583 64.8137 31.0403 64.4497 31.0403C64.0857 31.0403 63.7217 30.8583 63.7217 30.4803ZM64.3237 18.3563C64.4637 18.1183 64.6877 18.0203 64.9117 18.0203C65.3037 18.0203 65.6957 18.3143 65.6957 18.6923C65.6957 18.8043 65.6677 18.9163 65.5977 19.0423C64.9957 20.0643 64.0437 21.1843 63.1617 21.9543C62.9937 22.0943 62.8257 22.1503 62.6577 22.1503C62.2517 22.1503 61.9157 21.8003 61.9157 21.4223C61.9157 21.2263 61.9997 21.0163 62.2097 20.8483C62.9377 20.2323 63.7637 19.2523 64.3237 18.3563ZM76.4057 28.2683C76.1677 28.1003 76.0837 27.8903 76.0837 27.6943C76.0837 27.3163 76.4057 26.9663 76.8397 26.9663C76.9937 26.9663 77.1617 27.0223 77.3297 27.1203C78.1137 27.5963 79.1917 28.5343 79.8357 29.3323C80.0177 29.5563 80.0877 29.7803 80.0877 29.9763C80.0877 30.4243 79.7097 30.7603 79.2757 30.7603C79.0377 30.7603 78.7857 30.6623 78.5897 30.4103C77.9457 29.6263 77.0917 28.7723 76.4057 28.2683ZM93.7937 19.6443C94.5357 19.7983 95.4877 19.9243 96.5237 19.9243C97.5457 19.9243 98.4837 19.8123 99.1697 19.7423C99.2117 19.7423 99.2537 19.7283 99.2957 19.7283C99.7857 19.7283 100.052 20.1203 100.052 20.5123C100.052 20.8483 99.8557 21.1983 99.4217 21.2683C98.5817 21.4083 97.6017 21.4643 96.5377 21.4643C95.4597 21.4643 94.3817 21.3943 93.4857 21.1983C93.0657 21.1143 92.8697 20.7643 92.8697 20.4283C92.8697 20.0223 93.1357 19.6303 93.6117 19.6303C93.6677 19.6303 93.7377 19.6303 93.7937 19.6443ZM96.4397 29.7383C93.0657 29.7383 91.7497 28.7863 91.7497 26.8823C91.7497 26.5463 91.8057 26.1543 91.9037 25.8323C92.0157 25.4403 92.3517 25.2723 92.6877 25.2723C93.0797 25.2723 93.4577 25.5103 93.4577 25.9163C93.4577 25.9723 93.4437 26.0423 93.4297 26.1123C93.3737 26.3223 93.3457 26.6023 93.3457 26.8123C93.3457 27.6943 93.8217 28.1703 96.4397 28.1703C97.7977 28.1703 99.0997 28.0023 100.262 27.7643C100.346 27.7503 100.416 27.7363 100.486 27.7363C100.948 27.7363 101.228 28.1143 101.228 28.5063C101.228 28.8423 101.018 29.1923 100.542 29.3043C99.3097 29.5843 97.9517 29.7383 96.4397 29.7383ZM108.816 24.1103L108.844 24.1243C109.25 23.8723 109.67 23.7603 110.118 23.7603C111.406 23.7603 112.106 24.5303 112.204 26.7143C112.274 28.2403 112.61 28.4503 113.142 28.4503C113.772 28.4503 114.304 27.9043 114.794 26.6303C114.934 26.2663 115.242 26.0983 115.55 26.0983C115.97 26.0983 116.39 26.4063 116.39 26.8543C116.39 26.9523 116.362 27.0643 116.32 27.1903C115.592 29.1223 114.542 30.0323 113.03 30.0323C111.574 30.0323 110.678 29.2483 110.58 26.8543C110.524 25.4683 110.314 25.1743 109.74 25.1743C108.998 25.1743 108.242 25.8603 107.556 27.2883C107.248 27.9323 106.842 28.7863 106.534 29.4583C106.38 29.7803 106.086 29.9343 105.792 29.9343C105.372 29.9343 104.952 29.6403 104.952 29.1923C104.952 29.0943 104.98 28.9963 105.022 28.8843C106.254 25.9163 108.032 22.1223 109.642 19.1403C109.796 18.8463 110.076 18.7203 110.356 18.7203C110.804 18.7203 111.238 19.0283 111.238 19.4483C111.238 19.5603 111.21 19.6723 111.154 19.7843L108.816 24.1103ZM126.918 28.3383C126.89 29.9063 125.742 30.4663 124.398 30.4663C122.732 30.4663 121.724 29.7383 121.724 28.4363C121.724 27.3163 122.676 26.3923 124.468 26.3923C124.692 26.3923 124.916 26.4063 125.168 26.4343C125.07 25.7903 125.028 25.3143 125.028 24.9503C125.028 24.3483 125.056 24.0403 125.126 23.5923C125.196 23.2003 125.518 23.0323 125.854 23.0323C126.246 23.0323 126.638 23.2563 126.638 23.6763C126.638 23.7183 126.624 23.7463 126.624 23.7883C126.568 24.1943 126.526 24.5443 126.526 24.9363C126.526 25.3283 126.568 25.8743 126.722 26.7563C127.618 27.0223 128.542 27.4283 129.354 27.9743C129.62 28.1563 129.732 28.3943 129.732 28.6323C129.732 29.0243 129.41 29.4023 128.99 29.4023C128.85 29.4023 128.682 29.3463 128.514 29.2343C127.996 28.8703 127.45 28.5623 126.918 28.3383ZM124.398 29.0803C125.042 29.0803 125.392 28.8003 125.392 28.1843C125.392 28.0583 125.392 27.9463 125.378 27.8343C125.07 27.7783 124.776 27.7503 124.496 27.7503C123.516 27.7503 123.208 28.0583 123.208 28.4363C123.208 28.8423 123.488 29.0803 124.398 29.0803ZM121.346 20.8623C121.556 20.1483 121.752 19.4343 121.892 18.7343C121.976 18.3143 122.312 18.1323 122.648 18.1323C123.04 18.1323 123.404 18.3703 123.404 18.8183C123.404 18.8743 123.404 18.9443 123.39 19.0003C123.278 19.5323 123.138 20.0923 122.984 20.6523C123.404 20.5823 123.824 20.5123 124.216 20.4423C124.272 20.4283 124.328 20.4283 124.37 20.4283C124.818 20.4283 125.098 20.7923 125.098 21.1703C125.098 21.4783 124.916 21.7863 124.468 21.8843C123.866 22.0103 123.18 22.1223 122.494 22.2203C121.906 23.9143 121.15 25.5943 120.338 26.9383C120.128 27.2883 119.834 27.4423 119.554 27.4423C119.134 27.4423 118.77 27.1203 118.77 26.7003C118.77 26.5463 118.812 26.3783 118.924 26.2103C119.638 25.0903 120.282 23.7883 120.814 22.4023C120.296 22.4583 119.792 22.4863 119.358 22.5003C118.882 22.5143 118.63 22.1223 118.63 21.7303C118.63 21.3663 118.854 21.0163 119.302 21.0023C119.932 20.9743 120.632 20.9323 121.346 20.8623ZM127.562 20.6943C128.234 20.8763 129.102 21.2683 129.704 21.6463C130.026 21.8423 130.166 22.1223 130.166 22.3743C130.166 22.7803 129.83 23.1443 129.424 23.1443C129.284 23.1443 129.144 23.1023 129.004 23.0183C128.346 22.6403 127.618 22.2763 127.002 22.0523C126.652 21.9263 126.498 21.6743 126.498 21.4223C126.498 21.0443 126.82 20.6523 127.296 20.6523C127.38 20.6523 127.464 20.6663 127.562 20.6943ZM137.6 25.5523H140.358C141.338 25.5523 141.842 26.0003 141.842 26.5603C141.842 26.9103 141.646 27.3023 141.226 27.6523C140.904 27.9183 140.54 28.1563 140.176 28.3943C141.366 28.8283 142.696 29.1223 144.18 29.2903C144.614 29.3463 144.824 29.6683 144.824 29.9903C144.824 30.3403 144.586 30.6903 144.124 30.6903H144.026C142.038 30.4663 140.232 29.9623 138.692 29.2063C136.956 30.0323 134.968 30.6063 132.896 30.8723C132.854 30.8723 132.812 30.8863 132.77 30.8863C132.364 30.8863 132.14 30.5503 132.14 30.2283C132.14 29.9483 132.322 29.6543 132.7 29.5983C134.422 29.3603 135.962 28.9543 137.292 28.4223C136.76 28.0723 136.256 27.6803 135.794 27.2603C135.094 27.7783 134.352 28.2403 133.582 28.6043C133.47 28.6603 133.344 28.6883 133.246 28.6883C132.868 28.6883 132.602 28.3663 132.602 28.0303C132.602 27.8203 132.714 27.5963 132.994 27.4563C134.492 26.7143 135.85 25.6083 136.69 24.5583C136.858 24.3483 137.068 24.2643 137.264 24.2643C137.628 24.2643 137.95 24.5443 137.95 24.8943C137.95 25.0343 137.908 25.1743 137.782 25.3283L137.6 25.5523ZM139.868 26.6583H136.984C137.53 27.0783 138.104 27.4423 138.706 27.7503C139.168 27.4983 139.588 27.2323 139.966 26.9383C140.064 26.8543 140.106 26.7983 140.106 26.7563C140.106 26.6863 140.022 26.6583 139.868 26.6583ZM139.098 20.4703H138.034C137.754 22.6403 136.438 24.3203 134.548 25.2723C134.408 25.3423 134.268 25.3703 134.142 25.3703C133.764 25.3703 133.498 25.0623 133.498 24.7263C133.498 24.4883 133.624 24.2363 133.932 24.0823C135.458 23.3123 136.312 22.1503 136.592 20.4703H132.952C132.574 20.4703 132.378 20.1483 132.378 19.8123C132.378 19.4903 132.574 19.1683 132.952 19.1683H137.642V18.3703C137.642 17.9643 138.034 17.7543 138.412 17.7543C138.804 17.7543 139.182 17.9643 139.182 18.3703V19.1683H143.956C144.348 19.1683 144.53 19.4903 144.53 19.8123C144.53 20.1483 144.348 20.4703 143.956 20.4703H140.526V23.0183C140.526 24.0123 140.036 24.4463 138.972 24.4463C138.58 24.4463 138.37 24.4183 138.062 24.3623C137.684 24.2923 137.502 23.9983 137.502 23.7043C137.502 23.3683 137.74 23.0183 138.174 23.0183C138.216 23.0183 138.272 23.0183 138.328 23.0323C138.538 23.0743 138.636 23.0883 138.804 23.0883C139.014 23.0883 139.098 23.0183 139.098 22.7943V20.4703ZM134.17 21.1283C134.324 20.9603 134.52 20.8763 134.702 20.8763C135.094 20.8763 135.458 21.1843 135.458 21.5623C135.458 21.7163 135.402 21.8843 135.248 22.0523C134.73 22.6123 134.114 23.1863 133.456 23.6623C133.274 23.7883 133.092 23.8443 132.924 23.8443C132.532 23.8443 132.21 23.5223 132.21 23.1723C132.21 22.9763 132.308 22.7663 132.546 22.5983C133.162 22.1643 133.722 21.6463 134.17 21.1283ZM142.584 21.1703C143.144 21.5203 143.816 22.0383 144.362 22.5843C144.558 22.7943 144.642 23.0043 144.642 23.2003C144.642 23.6063 144.306 23.9283 143.928 23.9283C143.746 23.9283 143.55 23.8583 143.368 23.6763C142.85 23.1723 142.248 22.6683 141.73 22.2903C141.506 22.1223 141.422 21.9263 141.422 21.7303C141.422 21.3663 141.744 21.0443 142.15 21.0443C142.29 21.0443 142.43 21.0723 142.584 21.1703ZM148.268 30.2843V23.7883C147.932 24.2783 147.596 24.7123 147.26 25.0903C147.078 25.2863 146.868 25.3703 146.672 25.3703C146.252 25.3703 145.86 25.0343 145.86 24.6143C145.86 24.4323 145.93 24.2503 146.098 24.0683C147.302 22.7103 148.464 20.5263 149.094 18.6783C149.22 18.3143 149.528 18.1603 149.85 18.1603C150.27 18.1603 150.69 18.4403 150.69 18.8743C150.69 18.9583 150.676 19.0423 150.648 19.1263C150.312 20.1343 149.794 21.2543 149.192 22.3183C149.528 22.3603 149.808 22.5703 149.808 22.9343V30.2843C149.808 30.6763 149.43 30.8723 149.038 30.8723C148.66 30.8723 148.268 30.6763 148.268 30.2843ZM153.882 18.8323V22.7523C154.876 22.2343 155.814 21.6043 156.71 20.8623C156.878 20.7223 157.046 20.6663 157.214 20.6663C157.634 20.6663 157.998 21.0723 157.998 21.4783C157.998 21.6883 157.914 21.8983 157.69 22.0663C156.458 23.0043 155.17 23.8163 153.882 24.3623V28.4923C153.882 28.9963 154.05 29.1363 155.268 29.1363C156.766 29.1363 157.088 28.8843 157.214 27.8343C157.27 27.4143 157.592 27.2323 157.928 27.2323C158.32 27.2323 158.712 27.4703 158.712 27.9043V27.9883C158.488 29.9903 157.634 30.5083 155.282 30.5083C152.874 30.5083 152.314 30.0463 152.314 28.6743V18.8323C152.314 18.3703 152.706 18.1463 153.098 18.1463C153.49 18.1463 153.882 18.3703 153.882 18.8323ZM164.55 23.2563C163.99 25.5663 163.178 27.8343 162.184 29.5843C162.002 29.9063 161.708 30.0323 161.428 30.0323C161.022 30.0323 160.658 29.7523 160.658 29.3323C160.658 29.2063 160.7 29.0523 160.784 28.8983C161.666 27.3443 162.394 25.4263 162.926 23.4243C162.352 23.4943 161.792 23.5923 161.26 23.7043C161.204 23.7183 161.134 23.7183 161.078 23.7183C160.644 23.7183 160.406 23.3683 160.406 23.0043C160.406 22.6823 160.602 22.3603 161.036 22.2763C161.75 22.1363 162.52 22.0383 163.262 21.9543C163.43 21.1003 163.57 20.2323 163.668 19.3783C163.724 18.9303 164.074 18.7203 164.438 18.7203C164.83 18.7203 165.222 18.9723 165.222 19.4203V19.5183C165.138 20.2743 165.012 21.0583 164.858 21.8283C165.138 21.8143 165.39 21.8143 165.614 21.8143C167.406 21.8143 168.064 22.6263 168.064 24.8243C168.064 26.1403 167.924 27.3163 167.686 28.1703C167.238 29.7803 166.608 30.3543 165.194 30.3543C164.858 30.3543 164.508 30.3263 164.242 30.2843C163.766 30.2143 163.556 29.8643 163.556 29.5283C163.556 29.1363 163.808 28.7583 164.27 28.7583C164.298 28.7583 164.34 28.7723 164.382 28.7723C164.648 28.8003 164.858 28.8283 165.152 28.8283C165.642 28.8283 165.894 28.6743 166.132 27.8483C166.37 27.0503 166.496 25.9583 166.496 24.8103C166.496 23.5503 166.258 23.2143 165.586 23.2143C165.278 23.2143 164.928 23.2283 164.55 23.2563ZM170.122 20.8623C171.004 21.7023 171.872 22.9903 172.348 23.9283C172.432 24.0963 172.46 24.2643 172.46 24.4043C172.46 24.8943 172.068 25.2163 171.648 25.2163C171.368 25.2163 171.074 25.0623 170.878 24.6843C170.374 23.6763 169.632 22.5983 168.89 21.8003C168.736 21.6323 168.666 21.4503 168.666 21.2963C168.666 20.9043 169.058 20.5963 169.478 20.5963C169.702 20.5963 169.926 20.6803 170.122 20.8623ZM171.326 18.3143C171.214 18.2023 171.172 18.0903 171.172 17.9783C171.172 17.6983 171.438 17.4603 171.76 17.4603C171.9 17.4603 172.04 17.5163 172.18 17.6283C172.544 17.9363 172.964 18.3703 173.258 18.7763C173.37 18.9163 173.412 19.0563 173.412 19.1963C173.412 19.5043 173.146 19.7283 172.852 19.7283C172.684 19.7283 172.502 19.6583 172.362 19.4763C172.04 19.0703 171.648 18.6503 171.326 18.3143ZM169.926 19.4203C169.828 19.3083 169.786 19.1963 169.786 19.0983C169.786 18.8183 170.066 18.5663 170.374 18.5663C170.5 18.5663 170.64 18.6083 170.766 18.7203C171.144 19.0563 171.564 19.5043 171.858 19.9383C171.956 20.0643 171.984 20.1903 171.984 20.3163C171.984 20.6243 171.718 20.8763 171.424 20.8763C171.256 20.8763 171.088 20.7923 170.962 20.6103C170.626 20.1483 170.248 19.7423 169.926 19.4203ZM179.558 21.3383C179.544 21.0863 179.446 20.0923 179.446 19.7143C179.446 19.1123 179.88 18.7623 180.454 18.7623C181.014 18.7623 181.434 19.1263 181.434 19.7143C181.434 20.0923 181.35 20.9323 181.322 21.3383C181.224 22.6963 181.126 24.7683 181.084 26.3223C181.07 26.6863 180.804 26.9103 180.426 26.9103C180.048 26.9103 179.81 26.6863 179.796 26.3223C179.74 24.7823 179.656 22.7103 179.558 21.3383ZM180.44 27.8203C181.042 27.8203 181.504 28.2823 181.504 28.8703C181.504 29.4583 181.042 29.9063 180.44 29.9063C179.838 29.9063 179.376 29.4583 179.376 28.8703C179.376 28.2823 179.838 27.8203 180.44 27.8203Z" fill="#282828"/>
<path d="M220.44 0.238281L194.44 48.2383" stroke="black"/>
</svg>
