<svg width="320" height="295" viewBox="0 0 320 295" fill="none" xmlns="http://www.w3.org/2000/svg">
<rect width="320" height="239" rx="80" fill="#54B6CB"/>
<path d="M43.34 52.94V43.56H40.74V41.06H43.42V34.66H46.08V41.06H48.4V43.56H46.14V52.94H43.34ZM41.42 51.14L40.26 48.02C41.06 47.0333 41.7 46.0267 42.18 45C42.6733 43.9733 43.04 42.8867 43.28 41.74L44.36 42.5C44.2933 43.6467 44.12 44.7667 43.84 45.86C43.5733 46.94 43.2267 47.9333 42.8 48.84C42.3867 49.7467 41.9267 50.5133 41.42 51.14ZM47.18 49.08C46.7533 48.0667 46.32 47.06 45.88 46.06C45.4533 45.0467 44.9933 43.9867 44.5 42.88L46.16 41.98C46.64 42.9 47.1067 43.8067 47.56 44.7C48.0133 45.58 48.4733 46.4933 48.94 47.44L47.18 49.08ZM41.64 40.76C41.4533 40 41.2533 39.22 41.04 38.42C40.8267 37.62 40.62 36.8933 40.42 36.24L42.46 35.5C42.6733 36.1667 42.8733 36.8933 43.06 37.68C43.26 38.4533 43.44 39.24 43.6 40.04L41.64 40.76ZM48.36 50.4L48.1 47.72L59.54 45.58L59.8 48.26L48.36 50.4ZM52.18 46.3C51.5933 45.66 50.9667 44.9933 50.3 44.3C49.6333 43.6067 48.9267 42.9133 48.18 42.22L50.26 40.3C51.0067 40.98 51.7133 41.66 52.38 42.34C53.06 43.0067 53.6867 43.6667 54.26 44.32L52.18 46.3ZM47.78 40.78L45.74 39.96C46.0067 39.2533 46.2467 38.4933 46.46 37.68C46.6733 36.8667 46.84 36.1067 46.96 35.4L49.16 35.88C49 36.6533 48.7933 37.4733 48.54 38.34C48.3 39.1933 48.0467 40.0067 47.78 40.78ZM54.92 52.94V34.66H58.02V52.94H54.92ZM52.98 40.98C52.4733 40.4067 51.9267 39.82 51.34 39.22C50.7533 38.62 50.14 38.0133 49.5 37.4L51.58 35.5C52.22 36.0867 52.8333 36.6733 53.42 37.26C54.0067 37.8467 54.5533 38.42 55.06 38.98L52.98 40.98ZM65.76 52.46V49.94H71.26V48.54H66.84V46.2H71.26V40.94H69.6V39.04H71.26V37.36H74.38V39.04H76.06V37.36H69.6V44.86H66.92V34.94H78.8V44.86H69.6V42.66H76.06V40.94H74.38V46.2H79.04V48.54H74.38V49.94H79.26V52.46H65.76ZM60.9 51.26L60.62 48.58C61.22 48.4733 61.8533 48.34 62.52 48.18C63.2 48.02 63.8733 47.8467 64.54 47.66C65.22 47.4733 65.8467 47.2867 66.42 47.1L66.44 49.7C65.8933 49.9 65.2933 50.1 64.64 50.3C63.9867 50.5 63.3333 50.6867 62.68 50.86C62.0267 51.02 61.4333 51.1533 60.9 51.26ZM62.12 48.8V43.96H60.92V41.28H62.12V38.36H60.72V35.6H66.44V38.36H65.08V41.28H66.32V43.96H65.08V48.8H62.12ZM85.84 48.68C87.8133 48.68 89.3933 48.5667 90.58 48.34C91.7667 48.1 92.62 47.7267 93.14 47.22C93.6733 46.7133 93.94 46.0467 93.94 45.22C93.94 44.34 93.66 43.7 93.1 43.3C92.5533 42.9 91.6733 42.7 90.46 42.7C89.9267 42.7 89.34 42.7467 88.7 42.84C88.06 42.92 87.3133 43.0467 86.46 43.22C85.62 43.38 84.62 43.6067 83.46 43.9L82.88 40.94C84.64 40.5533 86.1533 40.2667 87.42 40.08C88.6867 39.8933 89.7667 39.8 90.66 39.8C92.7667 39.8 94.3667 40.24 95.46 41.12C96.5533 42 97.1 43.28 97.1 44.96C97.1 47.12 96.1667 48.7533 94.3 49.86C92.4467 50.9667 89.6933 51.52 86.04 51.52L85.84 48.68ZM113.94 51.9C112.26 51.9 110.8 51.62 109.56 51.06C108.32 50.5133 107.36 49.7333 106.68 48.72C106 47.7067 105.66 46.5133 105.66 45.14C105.66 44.18 105.82 43.2867 106.14 42.46C106.46 41.6333 106.92 40.9 107.52 40.26C108.133 39.6067 108.86 39.0867 109.7 38.7L110.02 39.34L101.32 39.54V36.64L118.38 36.24V39.14L115.82 39.2C114.9 39.2133 114.033 39.3533 113.22 39.62C112.407 39.8867 111.693 40.2667 111.08 40.76C110.467 41.24 109.987 41.82 109.64 42.5C109.307 43.18 109.14 43.9467 109.14 44.8C109.14 45.68 109.327 46.4267 109.7 47.04C110.073 47.64 110.62 48.1067 111.34 48.44C112.073 48.76 112.947 48.92 113.96 48.92C114.333 48.92 114.753 48.9 115.22 48.86C115.687 48.82 116.12 48.76 116.52 48.68L116.88 51.66C116.387 51.74 115.88 51.8 115.36 51.84C114.853 51.88 114.38 51.9 113.94 51.9ZM122.66 52.84L120.88 50.36C122.56 49.52 123.953 48.5533 125.06 47.46C126.167 46.3533 126.993 45.0933 127.54 43.68C128.087 42.2667 128.36 40.6733 128.36 38.9V34.66H131.64V38.9C131.64 40.38 131.413 41.8267 130.96 43.24C130.507 44.6533 129.873 45.9867 129.06 47.24C128.26 48.48 127.313 49.58 126.22 50.54C125.14 51.4867 123.953 52.2533 122.66 52.84ZM137.34 52.84C136.1 52.2533 134.953 51.4867 133.9 50.54C132.86 49.58 131.947 48.48 131.16 47.24C130.387 45.9867 129.78 44.6533 129.34 43.24C128.913 41.8267 128.7 40.38 128.7 38.9H131.64C131.64 40.6733 131.913 42.2667 132.46 43.68C133.007 45.0933 133.833 46.3533 134.94 47.46C136.06 48.5533 137.453 49.52 139.12 50.36L137.34 52.84ZM121.26 41.3V38.54H138.74V41.3H121.26ZM151.82 43.86C151.593 43.86 151.28 43.8533 150.88 43.84C150.493 43.8133 150.013 43.78 149.44 43.74L149.18 41.24C149.527 41.2667 149.813 41.2933 150.04 41.32C150.28 41.3333 150.46 41.34 150.58 41.34C150.767 41.34 150.893 41.3333 150.96 41.32C151.04 41.2933 151.087 41.2267 151.1 41.12C151.127 41.0133 151.14 40.8333 151.14 40.58V38.26H141.18V35.74H148.36V34.34H151.64V35.74H158.82V38.26H154.14V40.32C154.14 41.1333 154.113 41.78 154.06 42.26C154.007 42.7267 153.9 43.08 153.74 43.32C153.593 43.5467 153.36 43.6933 153.04 43.76C152.733 43.8267 152.327 43.86 151.82 43.86ZM141.98 48.94L140.8 46.56C142.573 46.0267 144.047 45.48 145.22 44.92C146.393 44.3467 147.353 43.7467 148.1 43.12L150.78 43.86C150.06 44.58 149.227 45.2667 148.28 45.92C147.333 46.5733 146.32 47.16 145.24 47.68C144.173 48.1867 143.087 48.6067 141.98 48.94ZM141.68 52.78L140.92 50.16C142.72 50.04 144.307 49.8667 145.68 49.64C147.067 49.4 148.273 49.1067 149.3 48.76C150.34 48.4133 151.247 48.0067 152.02 47.54C152.793 47.0733 153.473 46.54 154.06 45.94L156.38 46.98C155.527 47.9533 154.407 48.8333 153.02 49.62C151.647 50.4067 150.013 51.0667 148.12 51.6C146.24 52.1467 144.093 52.54 141.68 52.78ZM143.2 44.58L140.58 43.18C141.087 42.5533 141.547 41.8467 141.96 41.06C142.373 40.2733 142.72 39.4667 143 38.64L145.82 39.34C145.553 40.3 145.187 41.2333 144.72 42.14C144.267 43.0467 143.76 43.86 143.2 44.58ZM158.32 52.78C156.56 52.66 154.847 52.4 153.18 52C151.527 51.6 150 51.0867 148.6 50.46C147.2 49.8333 146.02 49.1467 145.06 48.4L146.68 46.66C147.627 47.3267 148.693 47.9 149.88 48.38C151.08 48.86 152.433 49.2533 153.94 49.56C155.46 49.8533 157.173 50.0533 159.08 50.16L158.32 52.78ZM145.7 46.98V44.76H156.38V46.98H145.7ZM146.56 44.7L144.24 42.8C144.907 42.28 145.433 41.7467 145.82 41.2C146.22 40.6533 146.5 40.0267 146.66 39.32C146.833 38.6 146.92 37.7267 146.92 36.7H149.86C149.86 37.9933 149.747 39.12 149.52 40.08C149.293 41.04 148.933 41.8933 148.44 42.64C147.96 43.3733 147.333 44.06 146.56 44.7ZM156.72 44.34C156.333 43.5667 155.893 42.7867 155.4 42C154.92 41.2 154.413 40.4333 153.88 39.7L156.58 38.62C157.113 39.3267 157.627 40.08 158.12 40.88C158.613 41.6667 159.047 42.44 159.42 43.2L156.72 44.34ZM161.38 52.04C161.913 50.2533 162.393 48.44 162.82 46.6C163.26 44.76 163.647 42.88 163.98 40.96C164.327 39.0267 164.633 37.0467 164.9 35.02L168.14 35.16C167.913 37.12 167.627 39.0867 167.28 41.06C166.947 43.02 166.56 44.9667 166.12 46.9C165.68 48.82 165.187 50.72 164.64 52.6L161.38 52.04ZM174.1 52.26C172.807 52.26 171.693 52.1067 170.76 51.8C169.84 51.5067 169.127 51.0867 168.62 50.54C168.113 49.98 167.86 49.3133 167.86 48.54C167.86 48.0067 168.02 47.4933 168.34 47C168.66 46.4933 169.153 45.98 169.82 45.46L172.58 46.62C172.153 46.9 171.827 47.18 171.6 47.46C171.373 47.7267 171.26 47.9733 171.26 48.2C171.26 48.44 171.373 48.6467 171.6 48.82C171.84 48.9933 172.173 49.1267 172.6 49.22C173.027 49.3133 173.527 49.36 174.1 49.36C174.713 49.36 175.327 49.3267 175.94 49.26C176.567 49.1933 177.24 49.0933 177.96 48.96L178.3 51.86C177.54 52.0067 176.833 52.1067 176.18 52.16C175.54 52.2267 174.847 52.26 174.1 52.26ZM161.1 40.14V37.34H174.96V40.14H161.1ZM168.78 41.78C170.367 41.6333 171.927 41.5267 173.46 41.46C175.007 41.38 176.547 41.34 178.08 41.34V44.16C176.573 44.16 175.06 44.2 173.54 44.28C172.033 44.3467 170.507 44.4533 168.96 44.6L168.78 41.78ZM174.26 39C173.9 38.28 173.54 37.6333 173.18 37.06C172.82 36.4867 172.42 35.9133 171.98 35.34L173.84 34.22C174.307 34.78 174.727 35.3667 175.1 35.98C175.473 36.58 175.833 37.2333 176.18 37.94L174.26 39ZM177.48 38.64C177.173 37.92 176.853 37.2667 176.52 36.68C176.2 36.0933 175.833 35.5 175.42 34.9L177.32 33.9C177.747 34.5 178.127 35.1067 178.46 35.72C178.793 36.3333 179.12 37.0133 179.44 37.76L177.48 38.64ZM187.84 49.1C188.84 49.06 189.68 49 190.36 48.92C191.04 48.8267 191.58 48.7 191.98 48.54C192.393 48.38 192.707 48.1533 192.92 47.86C193.147 47.5667 193.293 47.1867 193.36 46.72C193.427 46.2533 193.46 45.68 193.46 45V35.06H196.7V45C196.7 46.0267 196.62 46.92 196.46 47.68C196.3 48.4267 196.033 49.0667 195.66 49.6C195.287 50.12 194.787 50.5467 194.16 50.88C193.547 51.2133 192.787 51.4667 191.88 51.64C190.973 51.8133 189.9 51.9333 188.66 52L187.84 49.1ZM186.9 41.56V38.74H199.34V41.56H186.9ZM182.9 52.16C182.553 50.8 182.3 49.44 182.14 48.08C181.98 46.72 181.9 45.2933 181.9 43.8C181.9 42.3067 181.98 40.8867 182.14 39.54C182.3 38.18 182.553 36.82 182.9 35.46L186.22 35.82C185.9 37.0867 185.66 38.3867 185.5 39.72C185.34 41.04 185.26 42.4 185.26 43.8C185.26 45.2 185.34 46.5667 185.5 47.9C185.66 49.22 185.9 50.5133 186.22 51.78L182.9 52.16ZM209.44 52.48C206.893 52.48 204.96 52.0667 203.64 51.24C202.32 50.4133 201.66 49.2067 201.66 47.62C201.66 46.3133 202.12 45.1267 203.04 44.06C203.96 42.9933 205.387 42.02 207.32 41.14C209.267 40.2467 211.767 39.4133 214.82 38.64L215.56 41.54C213.16 42.1533 211.18 42.7733 209.62 43.4C208.073 44.0267 206.92 44.6733 206.16 45.34C205.413 45.9933 205.04 46.6733 205.04 47.38C205.04 48.8333 206.573 49.56 209.64 49.56C210.16 49.56 210.707 49.54 211.28 49.5C211.853 49.46 212.527 49.3867 213.3 49.28C214.087 49.16 215.04 49.0133 216.16 48.84L216.56 51.74C215.2 51.98 213.933 52.16 212.76 52.28C211.6 52.4133 210.493 52.48 209.44 52.48ZM205.24 43.56C204.867 42.24 204.54 40.9333 204.26 39.64C203.993 38.3467 203.787 37.1 203.64 35.9L206.94 35.4C207.1 36.6 207.313 37.8333 207.58 39.1C207.86 40.3533 208.187 41.58 208.56 42.78L205.24 43.56ZM214 39.78C213.667 39.0733 213.327 38.4333 212.98 37.86C212.633 37.2733 212.247 36.6867 211.82 36.1L213.74 35.02C214.193 35.5933 214.593 36.1867 214.94 36.8C215.287 37.4133 215.627 38.08 215.96 38.8L214 39.78ZM216.92 38.72C216.613 38 216.293 37.3467 215.96 36.76C215.627 36.16 215.253 35.5667 214.84 34.98L216.76 33.96C217.187 34.56 217.567 35.1733 217.9 35.8C218.233 36.4133 218.553 37.0867 218.86 37.82L216.92 38.72ZM225.46 52.72C224.833 51.88 224.16 51.0933 223.44 50.36C222.72 49.6267 221.933 48.9533 221.08 48.34L223.34 46.18C224.167 46.8333 224.96 47.5467 225.72 48.32C226.48 49.0933 227.187 49.9133 227.84 50.78L225.46 52.72ZM242.7 52.86L241.68 50.04C243.88 49.84 245.807 49.4933 247.46 49C249.127 48.4933 250.587 47.8267 251.84 47C253.093 46.16 254.207 45.14 255.18 43.94L257.08 45.82C255.587 47.8067 253.667 49.3933 251.32 50.58C248.973 51.7533 246.1 52.5133 242.7 52.86ZM243.18 45.28L240.44 43.96C241.12 42.7333 241.72 41.5067 242.24 40.28C242.76 39.04 243.2 37.7733 243.56 36.48L246.48 37.18C246.12 38.5533 245.66 39.92 245.1 41.28C244.54 42.64 243.9 43.9733 243.18 45.28ZM248.34 46.5C248.113 46.5 247.787 46.4933 247.36 46.48C246.947 46.4667 246.373 46.44 245.64 46.4L245.48 43.72C246.107 43.76 246.607 43.7867 246.98 43.8C247.353 43.8133 247.613 43.82 247.76 43.82C248.027 43.82 248.213 43.8067 248.32 43.78C248.427 43.7533 248.487 43.6867 248.5 43.58C248.527 43.46 248.54 43.2667 248.54 43V34.66H251.82V42.86C251.82 43.7133 251.787 44.3867 251.72 44.88C251.653 45.36 251.507 45.72 251.28 45.96C251.067 46.2 250.72 46.3533 250.24 46.42C249.773 46.4733 249.14 46.5 248.34 46.5ZM256.76 44.94C256.253 43.58 255.707 42.26 255.12 40.98C254.547 39.7 253.927 38.4267 253.26 37.16L256.08 36.12C256.773 37.4 257.407 38.6867 257.98 39.98C258.553 41.2733 259.093 42.6 259.6 43.96L256.76 44.94ZM269.62 52.14C268.007 52.14 266.693 51.8933 265.68 51.4C264.667 50.92 263.92 50.1667 263.44 49.14C262.973 48.1 262.74 46.7667 262.74 45.14V35.6H266.06V45.14C266.06 46.54 266.333 47.5467 266.88 48.16C267.427 48.76 268.34 49.06 269.62 49.06C270.58 49.06 271.427 48.88 272.16 48.52C272.893 48.16 273.567 47.5667 274.18 46.74C274.807 45.9133 275.427 44.7933 276.04 43.38L278.96 44.64C278.4 46.0267 277.813 47.2 277.2 48.16C276.6 49.1067 275.933 49.8733 275.2 50.46C274.467 51.0467 273.64 51.4733 272.72 51.74C271.813 52.0067 270.78 52.14 269.62 52.14ZM44.4 85.64C45.56 85.5867 46.6067 85.4467 47.54 85.22C48.4733 84.98 49.2133 84.68 49.76 84.32C50.3067 83.96 50.58 83.5733 50.58 83.16V82.7L51.4 83.04C51.24 83.2133 51.04 83.3733 50.8 83.52C50.56 83.6533 50.2933 83.7733 50 83.88C49.72 83.9733 49.42 84.0533 49.1 84.12C48.7933 84.1733 48.48 84.2 48.16 84.2C47.24 84.2 46.4333 84.0267 45.74 83.68C45.06 83.3333 44.5267 82.8467 44.14 82.22C43.7667 81.5933 43.58 80.8667 43.58 80.04C43.58 79.2133 43.78 78.4867 44.18 77.86C44.5933 77.2333 45.16 76.7467 45.88 76.4C46.6133 76.04 47.44 75.86 48.36 75.86C48.8533 75.86 49.2933 75.9333 49.68 76.08C50.08 76.2133 50.5667 76.4467 51.14 76.78L49.94 77.34V70.68H53.2V79.94L52.98 78.74C53.54 79.5533 53.82 80.5533 53.82 81.74C53.82 83.0867 53.4733 84.2533 52.78 85.24C52.1 86.2133 51.1 86.9667 49.78 87.5C48.46 88.0467 46.8333 88.3667 44.9 88.46L44.4 85.64ZM48.58 81.8C48.86 81.8 49.1067 81.76 49.32 81.68C49.5333 81.5867 49.72 81.4667 49.88 81.32C50.04 81.16 50.16 80.9733 50.24 80.76C50.3333 80.5333 50.38 80.2867 50.38 80.02C50.38 79.5 50.2133 79.08 49.88 78.76C49.56 78.4267 49.1267 78.26 48.58 78.26C48.0467 78.26 47.6133 78.4267 47.28 78.76C46.9467 79.08 46.78 79.5 46.78 80.02C46.78 80.5533 46.9467 80.9867 47.28 81.32C47.6133 81.64 48.0467 81.8 48.58 81.8ZM40.8 75.28V72.72H58.66V75.28H40.8ZM57.76 81.48C57.44 80.76 57.1133 80.1067 56.78 79.52C56.46 78.92 56.0933 78.3267 55.68 77.74L57.6 76.74C58.0267 77.3267 58.4 77.9333 58.72 78.56C59.0533 79.1733 59.38 79.8467 59.7 80.58L57.76 81.48ZM54.84 82.56C54.5067 81.8533 54.16 81.2067 53.8 80.62C53.4533 80.0333 53.0667 79.4467 52.64 78.86L54.58 77.78C55.02 78.3533 55.4133 78.9467 55.76 79.56C56.1067 80.1733 56.4467 80.8467 56.78 81.58L54.84 82.56ZM64.82 84.38C67.38 84.38 69.4333 84.22 70.98 83.9C72.5267 83.58 73.6467 83.0667 74.34 82.36C75.0467 81.6533 75.4 80.7267 75.4 79.58C75.4 78.3267 75.0067 77.4067 74.22 76.82C73.4467 76.2333 72.2267 75.94 70.56 75.94C69.8933 75.94 69.1533 75.9933 68.34 76.1C67.5267 76.2067 66.5867 76.3667 65.52 76.58C64.4533 76.7933 63.1867 77.0867 61.72 77.46L61.1 74.24C63.3133 73.7467 65.2 73.3867 66.76 73.16C68.3333 72.92 69.68 72.8 70.8 72.8C72.56 72.8 74.04 73.0467 75.24 73.54C76.44 74.0333 77.3467 74.76 77.96 75.72C78.5733 76.6667 78.88 77.84 78.88 79.24C78.88 81.9467 77.7133 83.9933 75.38 85.38C73.06 86.7533 69.62 87.44 65.06 87.44L64.82 84.38ZM88.36 88.94V83.74H81.1V81.14H88.36V80.3H88.34V78.26H91.66V77.12H88.34V75.16H91.66V74.06H88.34V80.3H85.32V71.74H94.68V80.3H91.64V81.14H98.9V83.74H91.64V88.94H88.36ZM81.54 88.72L80.36 86.18C82.1467 85.7133 83.6867 85.2133 84.98 84.68C86.2867 84.1333 87.3867 83.5667 88.28 82.98L90.16 84.12C89.1733 84.9867 87.96 85.8133 86.52 86.6C85.08 87.3867 83.42 88.0933 81.54 88.72ZM81.22 80.54L80.34 78.04C81.1267 77.7733 81.8733 77.5067 82.58 77.24C83.2867 76.96 83.9533 76.68 84.58 76.4L85.48 78.82C84.84 79.1267 84.1667 79.4267 83.46 79.72C82.7667 80.0133 82.02 80.2867 81.22 80.54ZM98.46 88.72C96.58 88.0933 94.92 87.3867 93.48 86.6C92.04 85.8133 90.8267 84.9867 89.84 84.12L91.72 82.98C92.6133 83.5667 93.7133 84.1333 95.02 84.68C96.3267 85.2133 97.8667 85.7133 99.64 86.18L98.46 88.72ZM83.76 76C83.3333 75.6133 82.84 75.1867 82.28 74.72C81.72 74.24 81.1067 73.7667 80.44 73.3L82.14 71.26C82.78 71.7267 83.3867 72.2 83.96 72.68C84.5333 73.16 85.0333 73.5933 85.46 73.98L83.76 76ZM90.74 73.58L87.48 73.38C87.6267 72.9 87.7667 72.4067 87.9 71.9C88.0467 71.3933 88.1733 70.8467 88.28 70.26L91.54 70.44C91.4333 71.0267 91.3067 71.58 91.16 72.1C91.0267 72.6067 90.8867 73.1 90.74 73.58ZM98.62 80.54C97.9533 80.22 97.2667 79.92 96.56 79.64C95.8533 79.3467 95.12 79.0733 94.36 78.82L95.42 76.4C96.22 76.6533 96.9733 76.9133 97.68 77.18C98.3867 77.4467 99.0533 77.7333 99.68 78.04L98.62 80.54ZM96.24 75.92L94.46 73.98C95.02 73.5667 95.5867 73.1267 96.16 72.66C96.7333 72.18 97.2733 71.7133 97.78 71.26L99.56 73.2C99.1333 73.6267 98.6333 74.0733 98.06 74.54C97.4867 74.9933 96.88 75.4533 96.24 75.92ZM109.62 88.14C108.007 88.14 106.693 87.8933 105.68 87.4C104.667 86.92 103.92 86.1667 103.44 85.14C102.973 84.1 102.74 82.7667 102.74 81.14V71.6H106.06V81.14C106.06 82.54 106.333 83.5467 106.88 84.16C107.427 84.76 108.34 85.06 109.62 85.06C110.58 85.06 111.427 84.88 112.16 84.52C112.893 84.16 113.567 83.5667 114.18 82.74C114.807 81.9133 115.427 80.7933 116.04 79.38L118.96 80.64C118.4 82.0267 117.813 83.2 117.2 84.16C116.6 85.1067 115.933 85.8733 115.2 86.46C114.467 87.0467 113.64 87.4733 112.72 87.74C111.813 88.0067 110.78 88.14 109.62 88.14ZM134.72 89.1C133.933 88.5667 133.2 88.0733 132.52 87.62C131.853 87.18 131.193 86.76 130.54 86.36C129.9 85.9467 129.227 85.5267 128.52 85.1C127.813 84.6733 127.027 84.2 126.16 83.68C125.253 83.1333 124.52 82.68 123.96 82.32C123.413 81.96 122.993 81.6467 122.7 81.38C122.42 81.1 122.233 80.8267 122.14 80.56C122.047 80.28 122 79.96 122 79.6C122 79.2267 122.053 78.9 122.16 78.62C122.267 78.3267 122.467 78.0467 122.76 77.78C123.053 77.5 123.473 77.1933 124.02 76.86C124.58 76.5133 125.3 76.1 126.18 75.62C127.047 75.1533 127.953 74.6533 128.9 74.12C129.847 73.5733 130.78 73.0267 131.7 72.48C132.62 71.92 133.453 71.3933 134.2 70.9L135.96 73.54C135.507 73.82 134.987 74.1333 134.4 74.48C133.813 74.8133 133.2 75.16 132.56 75.52C131.933 75.88 131.313 76.2267 130.7 76.56C130.1 76.88 129.56 77.1733 129.08 77.44C128.613 77.6933 128.24 77.8933 127.96 78.04C127.373 78.3467 126.913 78.5933 126.58 78.78C126.26 78.9667 126.04 79.12 125.92 79.24C125.8 79.36 125.74 79.48 125.74 79.6C125.74 79.7333 125.78 79.8533 125.86 79.96C125.94 80.0533 126.127 80.1867 126.42 80.36C126.713 80.5333 127.167 80.8 127.78 81.16C128.087 81.32 128.5 81.5533 129.02 81.86C129.553 82.1533 130.147 82.4933 130.8 82.88C131.467 83.2667 132.14 83.6667 132.82 84.08C133.513 84.4933 134.18 84.9067 134.82 85.32C135.473 85.7333 136.053 86.1133 136.56 86.46L134.72 89.1ZM150.36 88.28C148.813 88.28 147.6 87.9067 146.72 87.16C145.853 86.4267 145.42 85.4067 145.42 84.1C145.42 82.78 145.86 81.7533 146.74 81.02C147.633 80.2867 148.867 79.92 150.44 79.92C151.067 79.92 151.707 80.0333 152.36 80.26C153.027 80.4733 153.713 80.8067 154.42 81.26C155.14 81.7 155.887 82.26 156.66 82.94C157.433 83.62 158.24 84.4267 159.08 85.36L157.14 87.5C156.073 86.4067 155.193 85.5267 154.5 84.86C153.807 84.1933 153.227 83.6867 152.76 83.34C152.307 82.9933 151.9 82.7667 151.54 82.66C151.193 82.54 150.827 82.48 150.44 82.48C149.76 82.48 149.26 82.6 148.94 82.84C148.633 83.08 148.48 83.4733 148.48 84.02C148.48 84.5667 148.633 84.9733 148.94 85.24C149.26 85.5067 149.733 85.64 150.36 85.64C151.053 85.64 151.567 85.4933 151.9 85.2C152.233 84.9067 152.4 84.4733 152.4 83.9V73.34C153.613 73.34 154.753 73.36 155.82 73.4C156.9 73.4267 157.953 73.4733 158.98 73.54L158.8 76.36C157.907 76.2933 156.953 76.2467 155.94 76.22C154.94 76.18 153.913 76.16 152.86 76.16L155.56 74.12V83.56C155.56 85.1467 155.127 86.3267 154.26 87.1C153.393 87.8867 152.093 88.28 150.36 88.28ZM140.78 85.1C141.313 83.5533 141.807 82.0067 142.26 80.46C142.713 78.9 143.133 77.3067 143.52 75.68C143.92 74.0533 144.287 72.3733 144.62 70.64L147.68 70.9C147.36 72.6867 147 74.4333 146.6 76.14C146.2 77.8467 145.767 79.52 145.3 81.16C144.833 82.7867 144.32 84.3867 143.76 85.96L140.78 85.1ZM140.66 76.16V73.34H150.94V76.16H140.66ZM165.84 84.68C167.813 84.68 169.393 84.5667 170.58 84.34C171.767 84.1 172.62 83.7267 173.14 83.22C173.673 82.7133 173.94 82.0467 173.94 81.22C173.94 80.34 173.66 79.7 173.1 79.3C172.553 78.9 171.673 78.7 170.46 78.7C169.927 78.7 169.34 78.7467 168.7 78.84C168.06 78.92 167.313 79.0467 166.46 79.22C165.62 79.38 164.62 79.6067 163.46 79.9L162.88 76.94C164.64 76.5533 166.153 76.2667 167.42 76.08C168.687 75.8933 169.767 75.8 170.66 75.8C172.767 75.8 174.367 76.24 175.46 77.12C176.553 78 177.1 79.28 177.1 80.96C177.1 83.12 176.167 84.7533 174.3 85.86C172.447 86.9667 169.693 87.52 166.04 87.52L165.84 84.68ZM193.94 87.9C192.26 87.9 190.8 87.62 189.56 87.06C188.32 86.5133 187.36 85.7333 186.68 84.72C186 83.7067 185.66 82.5133 185.66 81.14C185.66 80.18 185.82 79.2867 186.14 78.46C186.46 77.6333 186.92 76.9 187.52 76.26C188.133 75.6067 188.86 75.0867 189.7 74.7L190.02 75.34L181.32 75.54V72.64L198.38 72.24V75.14L195.82 75.2C194.9 75.2133 194.033 75.3533 193.22 75.62C192.407 75.8867 191.693 76.2667 191.08 76.76C190.467 77.24 189.987 77.82 189.64 78.5C189.307 79.18 189.14 79.9467 189.14 80.8C189.14 81.68 189.327 82.4267 189.7 83.04C190.073 83.64 190.62 84.1067 191.34 84.44C192.073 84.76 192.947 84.92 193.96 84.92C194.333 84.92 194.753 84.9 195.22 84.86C195.687 84.82 196.12 84.76 196.52 84.68L196.88 87.66C196.387 87.74 195.88 87.8 195.36 87.84C194.853 87.88 194.38 87.9 193.94 87.9ZM210.86 88.26C209.193 88.26 207.753 88.0933 206.54 87.76C205.34 87.4267 204.413 86.9533 203.76 86.34C203.107 85.7133 202.78 84.9733 202.78 84.12C202.78 83.4933 202.953 82.8933 203.3 82.32C203.66 81.7333 204.14 81.26 204.74 80.9L207.56 82C207.147 82.28 206.833 82.5733 206.62 82.88C206.407 83.1867 206.3 83.4933 206.3 83.8C206.3 84.16 206.46 84.4667 206.78 84.72C207.113 84.96 207.6 85.1467 208.24 85.28C208.893 85.4 209.687 85.46 210.62 85.46C211.58 85.46 212.607 85.4 213.7 85.28C214.793 85.1467 215.827 84.9667 216.8 84.74L217.24 87.54C216.227 87.78 215.167 87.96 214.06 88.08C212.967 88.2 211.9 88.26 210.86 88.26ZM201.9 80.12V77.46L218.1 77.06V79.72L201.9 80.12ZM212.34 83.8C211.927 82.8133 211.547 81.7867 211.2 80.72C210.867 79.6533 210.567 78.5667 210.3 77.46C210.047 76.3533 209.84 75.24 209.68 74.12C209.52 72.9867 209.407 71.8533 209.34 70.72L212.56 70.54C212.627 71.62 212.733 72.6867 212.88 73.74C213.04 74.7933 213.247 75.84 213.5 76.88C213.753 77.9067 214.06 78.94 214.42 79.98C214.78 81.02 215.187 82.0667 215.64 83.12L212.34 83.8ZM202.1 75.68V73.04L217.9 72.64V75.28L202.1 75.68ZM221.58 87.84C222.113 86.0533 222.593 84.24 223.02 82.4C223.46 80.56 223.847 78.68 224.18 76.76C224.527 74.8267 224.833 72.8467 225.1 70.82L228.34 70.96C228.113 72.92 227.827 74.8867 227.48 76.86C227.147 78.82 226.76 80.7667 226.32 82.7C225.88 84.62 225.387 86.52 224.84 88.4L221.58 87.84ZM234.3 88.06C233.007 88.06 231.893 87.9067 230.96 87.6C230.04 87.3067 229.327 86.8867 228.82 86.34C228.313 85.78 228.06 85.1133 228.06 84.34C228.06 83.8067 228.22 83.2933 228.54 82.8C228.86 82.2933 229.353 81.78 230.02 81.26L232.78 82.42C232.353 82.7 232.027 82.98 231.8 83.26C231.573 83.5267 231.46 83.7733 231.46 84C231.46 84.24 231.573 84.4467 231.8 84.62C232.04 84.7933 232.373 84.9267 232.8 85.02C233.227 85.1133 233.727 85.16 234.3 85.16C234.913 85.16 235.527 85.1267 236.14 85.06C236.767 84.9933 237.44 84.8933 238.16 84.76L238.5 87.66C237.74 87.8067 237.033 87.9067 236.38 87.96C235.74 88.0267 235.047 88.06 234.3 88.06ZM221.3 75.94V73.14H235.7V75.94H221.3ZM228.98 77.58C230.567 77.4333 232.127 77.3267 233.66 77.26C235.207 77.18 236.747 77.14 238.28 77.14V79.96C236.773 79.96 235.26 80 233.74 80.08C232.233 80.1467 230.707 80.2533 229.16 80.4L228.98 77.58ZM244.7 88.9C243.94 88.9 243.273 88.74 242.7 88.42C242.127 88.1 241.68 87.6533 241.36 87.08C241.053 86.52 240.9 85.86 240.9 85.1C240.9 84.34 241.053 83.6733 241.36 83.1C241.68 82.5267 242.127 82.0867 242.7 81.78C243.273 81.46 243.94 81.3 244.7 81.3C245.46 81.3 246.12 81.46 246.68 81.78C247.253 82.0867 247.7 82.5267 248.02 83.1C248.34 83.6733 248.5 84.34 248.5 85.1C248.5 85.86 248.34 86.52 248.02 87.08C247.7 87.6533 247.253 88.1 246.68 88.42C246.12 88.74 245.46 88.9 244.7 88.9ZM244.7 86.58C245.153 86.58 245.513 86.4467 245.78 86.18C246.047 85.9 246.18 85.54 246.18 85.1C246.18 84.6467 246.047 84.2867 245.78 84.02C245.513 83.7533 245.153 83.62 244.7 83.62C244.26 83.62 243.9 83.7533 243.62 84.02C243.353 84.2867 243.22 84.6467 243.22 85.1C243.22 85.54 243.353 85.9 243.62 86.18C243.9 86.4467 244.26 86.58 244.7 86.58ZM50.2 123.76C48.64 123.76 47.2733 123.58 46.1 123.22C44.94 122.873 44.04 122.387 43.4 121.76C42.7733 121.12 42.46 120.367 42.46 119.5C42.46 118.78 42.6867 118.013 43.14 117.2C43.6067 116.373 44.3133 115.46 45.26 114.46L47.32 115.54C46.5467 116.313 45.96 117.013 45.56 117.64C45.16 118.267 44.96 118.807 44.96 119.26C44.96 119.727 45.1733 120.14 45.6 120.5C46.04 120.86 46.6533 121.14 47.44 121.34C48.2267 121.527 49.1467 121.62 50.2 121.62C50.8667 121.62 51.6 121.58 52.4 121.5C53.2 121.42 53.9867 121.313 54.76 121.18C55.5467 121.033 56.2333 120.873 56.82 120.7L57.3 122.84C56.7133 123.013 56.0067 123.167 55.18 123.3C54.3667 123.447 53.52 123.56 52.64 123.64C51.7733 123.72 50.96 123.76 50.2 123.76ZM43.46 110.58V108.44H56.74V110.58H43.46ZM76.36 123.48C75.52 123.48 74.9 123.26 74.5 122.82C74.1133 122.367 73.92 121.647 73.92 120.66V113.36C73.92 112.56 73.82 111.973 73.62 111.6C73.4333 111.227 73.1333 111.04 72.72 111.04C72.4667 111.04 72.1667 111.127 71.82 111.3C71.4733 111.46 71.04 111.733 70.52 112.12C70.0133 112.507 69.3933 113.033 68.66 113.7C67.9267 114.353 67.0467 115.173 66.02 116.16H65.8C65.24 116.733 64.6067 117.373 63.9 118.08C63.2067 118.787 62.4467 119.573 61.62 120.44L60.32 118.5C62.0133 116.86 63.4667 115.473 64.68 114.34C65.8933 113.207 66.9333 112.28 67.8 111.56C68.6667 110.84 69.4 110.28 70 109.88C70.6133 109.48 71.1533 109.207 71.62 109.06C72.1 108.913 72.5667 108.84 73.02 108.84C74.1 108.84 74.9133 109.173 75.46 109.84C76.02 110.493 76.3 111.46 76.3 112.74V119.52C76.3 120 76.3133 120.367 76.34 120.62C76.38 120.873 76.4333 121.047 76.5 121.14C76.58 121.22 76.6933 121.26 76.84 121.26C77.08 121.26 77.4067 121.18 77.82 121.02C78.2467 120.86 78.7133 120.633 79.22 120.34L79.9 122.38C79.3 122.74 78.7 123.013 78.1 123.2C77.5 123.387 76.92 123.48 76.36 123.48ZM64.96 124.34V112.22H60.48V110.18H64.96V107.26H67.28V124.34H64.96ZM90.58 123.46C90.2467 123.46 89.82 123.413 89.3 123.32C88.78 123.24 88.2333 123.127 87.66 122.98C87.0867 122.82 86.5467 122.647 86.04 122.46L86.58 120.44C87.0067 120.573 87.4333 120.707 87.86 120.84C88.3 120.96 88.7 121.06 89.06 121.14C89.4333 121.207 89.7267 121.24 89.94 121.24C90.3667 121.24 90.72 121.047 91 120.66C91.28 120.26 91.4867 119.64 91.62 118.8C91.7667 117.947 91.84 116.853 91.84 115.52C91.84 114.747 91.8067 114.127 91.74 113.66C91.6867 113.18 91.58 112.82 91.42 112.58C91.26 112.34 91.0133 112.18 90.68 112.1C90.3467 112.02 89.9 111.98 89.34 111.98H80.82V109.9H89.1C90.0333 109.9 90.8067 109.94 91.42 110.02C92.0333 110.087 92.5267 110.227 92.9 110.44C93.2733 110.653 93.5533 110.98 93.74 111.42C93.94 111.847 94.0667 112.42 94.12 113.14C94.1867 113.847 94.22 114.733 94.22 115.8C94.22 117.533 94.0867 118.967 93.82 120.1C93.5667 121.233 93.1733 122.08 92.64 122.64C92.1067 123.187 91.42 123.46 90.58 123.46ZM81.06 123.24C81.5533 121.973 81.9933 120.807 82.38 119.74C82.7667 118.66 83.1133 117.627 83.42 116.64C83.74 115.653 84.0267 114.653 84.28 113.64C84.5467 112.627 84.7933 111.547 85.02 110.4C85.2467 109.253 85.4733 107.987 85.7 106.6L88.02 106.86C87.8067 108.193 87.5867 109.44 87.36 110.6C87.1333 111.747 86.88 112.853 86.6 113.92C86.3333 114.973 86.0333 116.027 85.7 117.08C85.38 118.133 85.0133 119.22 84.6 120.34C84.2 121.46 83.7467 122.66 83.24 123.94L81.06 123.24ZM97.34 119.56C97.22 118.76 97.06 117.907 96.86 117C96.66 116.093 96.4333 115.18 96.18 114.26C95.9267 113.34 95.66 112.453 95.38 111.6C95.1 110.733 94.8133 109.94 94.52 109.22L96.76 108.58C97.0667 109.327 97.36 110.133 97.64 111C97.92 111.867 98.1867 112.76 98.44 113.68C98.6933 114.6 98.92 115.52 99.12 116.44C99.32 117.347 99.4867 118.213 99.62 119.04L97.34 119.56ZM109.88 123.76C109.16 123.76 108.38 123.727 107.54 123.66C106.713 123.607 105.907 123.527 105.12 123.42C104.347 123.313 103.647 123.193 103.02 123.06L103.24 120.98C104.013 121.113 104.793 121.233 105.58 121.34C106.38 121.447 107.147 121.533 107.88 121.6C108.613 121.653 109.28 121.68 109.88 121.68C111.773 121.68 113.207 121.4 114.18 120.84C115.153 120.28 115.64 119.453 115.64 118.36C115.64 117.453 115.3 116.767 114.62 116.3C113.94 115.82 112.96 115.58 111.68 115.58C110.813 115.58 109.94 115.68 109.06 115.88C108.18 116.08 107.347 116.367 106.56 116.74C105.773 117.113 105.073 117.553 104.46 118.06L102.32 117.64C102.493 116.787 102.647 116 102.78 115.28C102.913 114.547 103.027 113.86 103.12 113.22C103.213 112.567 103.293 111.933 103.36 111.32L105.68 111.5C105.6 112.233 105.5 112.993 105.38 113.78C105.273 114.553 105.14 115.333 104.98 116.12L104.64 115.56C105.36 115.107 106.107 114.733 106.88 114.44C107.653 114.133 108.447 113.9 109.26 113.74C110.087 113.58 110.94 113.5 111.82 113.5C113.86 113.5 115.407 113.907 116.46 114.72C117.513 115.533 118.04 116.733 118.04 118.32C118.04 120.12 117.353 121.48 115.98 122.4C114.607 123.307 112.573 123.76 109.88 123.76ZM115.72 110.22C114.467 110.233 113.267 110.227 112.12 110.2C110.973 110.16 109.827 110.093 108.68 110C107.547 109.907 106.367 109.78 105.14 109.62L105.38 107.54C106.513 107.673 107.66 107.787 108.82 107.88C109.98 107.96 111.133 108.027 112.28 108.08C113.427 108.12 114.573 108.14 115.72 108.14V110.22ZM130.84 123.74C129.4 123.74 128.273 123.42 127.46 122.78C126.66 122.127 126.26 121.22 126.26 120.06C126.26 118.873 126.66 117.96 127.46 117.32C128.26 116.68 129.387 116.36 130.84 116.36C131.467 116.36 132.073 116.44 132.66 116.6C133.247 116.747 133.853 117.013 134.48 117.4C135.107 117.787 135.807 118.32 136.58 119C137.367 119.667 138.287 120.52 139.34 121.56L137.86 123.14C136.913 122.18 136.093 121.393 135.4 120.78C134.72 120.153 134.12 119.667 133.6 119.32C133.08 118.973 132.587 118.733 132.12 118.6C131.667 118.453 131.2 118.38 130.72 118.38C129.173 118.38 128.4 118.94 128.4 120.06C128.4 121.167 129.173 121.72 130.72 121.72C131.56 121.72 132.153 121.547 132.5 121.2C132.86 120.84 133.04 120.253 133.04 119.44V107.08H135.36V119.54C135.36 120.94 134.973 121.993 134.2 122.7C133.44 123.393 132.32 123.74 130.84 123.74ZM126.32 112.24V110.22H139.04V112.24H126.32ZM122.62 124.1C122.273 122.727 122.02 121.373 121.86 120.04C121.7 118.707 121.62 117.293 121.62 115.8C121.62 114.32 121.7 112.92 121.86 111.6C122.02 110.267 122.267 108.913 122.6 107.54L124.96 107.84C124.64 109.133 124.4 110.433 124.24 111.74C124.093 113.033 124.02 114.387 124.02 115.8C124.02 117.213 124.093 118.573 124.24 119.88C124.4 121.187 124.64 122.473 124.96 123.74L122.62 124.1ZM143.56 124.84V115.06H140.78V113.14H143.58V106.76H145.74V113.14H148.24V115.06H145.76V124.84H143.56ZM141.44 122.72L140.34 120.48C141.153 119.4 141.82 118.3 142.34 117.18C142.873 116.06 143.28 114.88 143.56 113.64L144.62 114.22C144.487 115.313 144.273 116.38 143.98 117.42C143.687 118.447 143.32 119.413 142.88 120.32C142.453 121.213 141.973 122.013 141.44 122.72ZM147.02 120.44C146.567 119.413 146.107 118.393 145.64 117.38C145.187 116.353 144.713 115.307 144.22 114.24L145.64 113.52C146.133 114.453 146.62 115.393 147.1 116.34C147.58 117.273 148.053 118.22 148.52 119.18L147.02 120.44ZM141.72 112.72C141.547 111.933 141.36 111.14 141.16 110.34C140.973 109.54 140.787 108.807 140.6 108.14L142.42 107.66C142.607 108.327 142.793 109.06 142.98 109.86C143.167 110.647 143.327 111.44 143.46 112.24L141.72 112.72ZM147.98 121.94L147.78 119.9L159.46 117.72L159.66 119.76L147.98 121.94ZM152.44 118.02C151.867 117.38 151.247 116.72 150.58 116.04C149.913 115.347 149.207 114.653 148.46 113.96L150.04 112.46C150.787 113.14 151.5 113.82 152.18 114.5C152.86 115.18 153.48 115.84 154.04 116.48L152.44 118.02ZM147.58 112.74L145.82 112.18C146.06 111.46 146.273 110.693 146.46 109.88C146.66 109.053 146.813 108.28 146.92 107.56L148.8 107.84C148.667 108.613 148.493 109.433 148.28 110.3C148.067 111.153 147.833 111.967 147.58 112.74ZM155.4 124.84V106.76H157.74V124.84H155.4ZM153.54 112.94C153.007 112.34 152.44 111.733 151.84 111.12C151.253 110.507 150.62 109.887 149.94 109.26L151.54 107.78C152.22 108.393 152.86 109.007 153.46 109.62C154.06 110.22 154.627 110.813 155.16 111.4L153.54 112.94ZM165.86 124.26V122.32H171.68V120.32H167.04V118.5H171.68V112.72H169.3V111.08H171.68V109.02H174.06V111.08H176.44V109.02H169.3V116.66H167.1V107.14H178.64V116.66H169.3V114.88H176.44V112.72H174.06V118.5H178.94V120.32H174.06V122.32H179.22V124.26H165.86ZM160.88 123.06L160.66 121.02C161.26 120.873 161.887 120.713 162.54 120.54C163.207 120.353 163.867 120.153 164.52 119.94C165.187 119.713 165.833 119.487 166.46 119.26L166.52 121.24C165.92 121.48 165.293 121.713 164.64 121.94C163.987 122.167 163.34 122.373 162.7 122.56C162.06 122.747 161.453 122.913 160.88 123.06ZM162.46 120.96V115.62H160.96V113.56H162.46V109.86H160.76V107.76H166.48V109.86H164.74V113.56H166.36V115.62H164.74V120.96H162.46ZM192.34 123.94C191.153 123.94 190.16 123.86 189.36 123.7C188.56 123.553 187.933 123.3 187.48 122.94C187.027 122.567 186.7 122.067 186.5 121.44C186.313 120.8 186.22 119.993 186.22 119.02C186.22 118.713 186.227 118.247 186.24 117.62C186.253 116.98 186.273 116.233 186.3 115.38C186.327 114.527 186.353 113.62 186.38 112.66C186.42 111.687 186.46 110.707 186.5 109.72C186.54 108.733 186.58 107.787 186.62 106.88L189 106.94C188.96 107.74 188.92 108.6 188.88 109.52C188.84 110.44 188.8 111.36 188.76 112.28C188.733 113.2 188.707 114.073 188.68 114.9C188.653 115.727 188.633 116.467 188.62 117.12C188.607 117.76 188.6 118.26 188.6 118.62C188.6 119.3 188.647 119.847 188.74 120.26C188.833 120.673 189.013 120.993 189.28 121.22C189.547 121.447 189.927 121.6 190.42 121.68C190.927 121.76 191.567 121.8 192.34 121.8C193.393 121.8 194.22 121.733 194.82 121.6C195.433 121.453 195.86 121.22 196.1 120.9C196.353 120.567 196.48 120.12 196.48 119.56C196.48 119.32 196.453 119.033 196.4 118.7C196.347 118.367 196.287 118.087 196.22 117.86L198.54 117.36C198.66 117.84 198.74 118.253 198.78 118.6C198.833 118.947 198.86 119.293 198.86 119.64C198.86 120.64 198.633 121.46 198.18 122.1C197.727 122.74 197.02 123.207 196.06 123.5C195.1 123.793 193.86 123.94 192.34 123.94ZM181.26 116.54V114.52H197.12V116.54H181.26ZM181.66 111.32V109.3H196.72V111.32H181.66ZM211.22 121.88C212.047 121.853 212.76 121.713 213.36 121.46C213.973 121.193 214.447 120.84 214.78 120.4C215.113 119.947 215.28 119.427 215.28 118.84C215.28 118.173 215.073 117.607 214.66 117.14C214.247 116.66 213.653 116.293 212.88 116.04C212.12 115.787 211.193 115.66 210.1 115.66C209.153 115.66 208.267 115.753 207.44 115.94C206.627 116.127 205.913 116.387 205.3 116.72C204.687 117.053 204.213 117.447 203.88 117.9C203.547 118.34 203.38 118.82 203.38 119.34C203.38 119.767 203.487 120.147 203.7 120.48C203.913 120.813 204.207 121.08 204.58 121.28C204.967 121.48 205.4 121.58 205.88 121.58C206.307 121.58 206.6 121.48 206.76 121.28C206.92 121.067 207 120.68 207 120.12V106.78H209.26V120.3C209.26 121.473 209.013 122.333 208.52 122.88C208.04 123.413 207.26 123.68 206.18 123.68C205.207 123.68 204.333 123.493 203.56 123.12C202.8 122.747 202.2 122.24 201.76 121.6C201.333 120.947 201.12 120.207 201.12 119.38C201.12 118.54 201.34 117.773 201.78 117.08C202.233 116.373 202.867 115.767 203.68 115.26C204.493 114.74 205.453 114.34 206.56 114.06C207.68 113.78 208.9 113.64 210.22 113.64C211.78 113.64 213.113 113.847 214.22 114.26C215.327 114.66 216.173 115.24 216.76 116C217.347 116.76 217.64 117.68 217.64 118.76C217.64 119.76 217.393 120.647 216.9 121.42C216.407 122.193 215.713 122.8 214.82 123.24C213.927 123.693 212.88 123.94 211.68 123.98L211.22 121.88ZM201.76 111.08V109.12H214.12V111.08H201.76ZM217.58 113.4C217.233 112.6 216.82 111.827 216.34 111.08C215.873 110.32 215.353 109.607 214.78 108.94L216.66 107.78C217.233 108.487 217.753 109.213 218.22 109.96C218.687 110.693 219.12 111.5 219.52 112.38L217.58 113.4ZM226.28 124.06V122.02H231.3V116.88H225.7V114.76H231.3V109.5H233.76V114.76H239.24V116.88H233.76V122.02H238.54V124.06H226.28ZM222.34 124.84V111.92H224.66V124.84H222.34ZM221 118.06L220.16 115.42C220.773 114.62 221.313 113.773 221.78 112.88C222.247 111.987 222.653 111.033 223 110.02C223.347 108.993 223.633 107.88 223.86 106.68L226.08 107.08C225.867 108.387 225.573 109.62 225.2 110.78C224.827 111.927 224.393 112.967 223.9 113.9L223.72 113.32C223.587 113.72 223.413 114.133 223.2 114.56C222.987 114.987 222.753 115.42 222.5 115.86C222.26 116.287 222.007 116.693 221.74 117.08C221.487 117.453 221.24 117.78 221 118.06ZM226.64 110.74L226.52 108.7C228.013 108.647 229.473 108.547 230.9 108.4C232.34 108.253 233.673 108.073 234.9 107.86C236.14 107.647 237.22 107.407 238.14 107.14L238.66 109.18C237.727 109.447 236.633 109.693 235.38 109.92C234.14 110.133 232.78 110.313 231.3 110.46C229.833 110.593 228.28 110.687 226.64 110.74ZM250.92 123.9C249.52 123.9 248.373 123.827 247.48 123.68C246.587 123.547 245.887 123.3 245.38 122.94C244.887 122.58 244.54 122.08 244.34 121.44C244.153 120.787 244.06 119.953 244.06 118.94V107.48H246.42V118.94C246.42 119.567 246.473 120.067 246.58 120.44C246.7 120.813 246.913 121.1 247.22 121.3C247.527 121.5 247.973 121.633 248.56 121.7C249.16 121.767 249.947 121.8 250.92 121.8C251.92 121.8 252.987 121.773 254.12 121.72C255.253 121.653 256.353 121.56 257.42 121.44L257.6 123.54C256.507 123.66 255.373 123.747 254.2 123.8C253.027 123.867 251.933 123.9 250.92 123.9ZM240.56 112.82V110.8L259.44 110.4V112.42L240.56 112.82ZM253.74 118.94C253.327 118.94 252.853 118.907 252.32 118.84C251.787 118.76 251.24 118.653 250.68 118.52C250.133 118.373 249.6 118.213 249.08 118.04L249.64 115.96C250.293 116.147 250.827 116.293 251.24 116.4C251.667 116.493 252.02 116.56 252.3 116.6C252.593 116.64 252.853 116.66 253.08 116.66C253.293 116.66 253.427 116.613 253.48 116.52C253.533 116.413 253.56 116.127 253.56 115.66V107.08H255.94V116.44C255.94 117.067 255.873 117.567 255.74 117.94C255.607 118.3 255.38 118.56 255.06 118.72C254.74 118.867 254.3 118.94 253.74 118.94ZM274.7 124.94C273.753 124.233 272.887 123.607 272.1 123.06C271.313 122.527 270.573 122.033 269.88 121.58C269.187 121.127 268.507 120.7 267.84 120.3C267.173 119.887 266.48 119.46 265.76 119.02C265.013 118.567 264.413 118.193 263.96 117.9C263.52 117.593 263.173 117.327 262.92 117.1C262.68 116.873 262.513 116.647 262.42 116.42C262.34 116.18 262.3 115.907 262.3 115.6C262.3 115.28 262.347 115 262.44 114.76C262.547 114.507 262.727 114.267 262.98 114.04C263.233 113.8 263.593 113.533 264.06 113.24C264.527 112.947 265.127 112.593 265.86 112.18C266.62 111.753 267.453 111.273 268.36 110.74C269.267 110.207 270.213 109.633 271.2 109.02C272.187 108.407 273.167 107.753 274.14 107.06L275.54 109C274.953 109.4 274.333 109.807 273.68 110.22C273.027 110.62 272.38 111.013 271.74 111.4C271.1 111.773 270.487 112.127 269.9 112.46C269.327 112.78 268.807 113.073 268.34 113.34C267.873 113.593 267.493 113.8 267.2 113.96C266.627 114.28 266.18 114.533 265.86 114.72C265.553 114.907 265.333 115.067 265.2 115.2C265.08 115.32 265.02 115.453 265.02 115.6C265.02 115.747 265.06 115.873 265.14 115.98C265.233 116.087 265.42 116.227 265.7 116.4C265.98 116.573 266.407 116.827 266.98 117.16C267.3 117.333 267.707 117.567 268.2 117.86C268.707 118.153 269.28 118.493 269.92 118.88C270.56 119.253 271.227 119.667 271.92 120.12C272.627 120.56 273.34 121.027 274.06 121.52C274.793 122 275.5 122.487 276.18 122.98L274.7 124.94ZM41.54 160.04C42.1 158.24 42.6067 156.413 43.06 154.56C43.5267 152.693 43.9333 150.8 44.28 148.88C44.64 146.947 44.9467 145 45.2 143.04L47.58 143.14C47.3533 145.06 47.06 147 46.7 148.96C46.3533 150.92 45.9467 152.867 45.48 154.8C45.0133 156.72 44.4933 158.607 43.92 160.46L41.54 160.04ZM53.94 160.06C52.7267 160.06 51.6733 159.913 50.78 159.62C49.8867 159.34 49.1933 158.947 48.7 158.44C48.2067 157.92 47.96 157.3 47.96 156.58C47.96 156.047 48.14 155.52 48.5 155C48.86 154.48 49.4133 153.94 50.16 153.38L51.96 154.66C51.4533 154.98 51.0733 155.28 50.82 155.56C50.58 155.827 50.46 156.093 50.46 156.36C50.46 156.667 50.6 156.94 50.88 157.18C51.1733 157.407 51.58 157.587 52.1 157.72C52.6333 157.853 53.2467 157.92 53.94 157.92C54.5667 157.92 55.2067 157.887 55.86 157.82C56.5133 157.753 57.1933 157.653 57.9 157.52L58.16 159.66C57.4267 159.793 56.72 159.893 56.04 159.96C55.36 160.027 54.66 160.06 53.94 160.06ZM41.26 147.62V145.54H53.56V147.62H41.26ZM48.74 149.88C50.3133 149.733 51.8533 149.62 53.36 149.54C54.88 149.46 56.4 149.42 57.92 149.42V151.52C56.4267 151.52 54.9267 151.56 53.42 151.64C51.9267 151.707 50.4133 151.827 48.88 152L48.74 149.88ZM55.34 147.42C54.9933 146.7 54.6533 146.053 54.32 145.48C53.9867 144.893 53.6133 144.327 53.2 143.78L54.84 142.8C55.28 143.373 55.6667 143.967 56 144.58C56.3467 145.193 56.6867 145.86 57.02 146.58L55.34 147.42ZM58.22 146.48C57.9 145.733 57.58 145.073 57.26 144.5C56.94 143.913 56.58 143.347 56.18 142.8L57.82 141.9C58.2467 142.487 58.62 143.087 58.94 143.7C59.2733 144.313 59.5933 144.987 59.9 145.72L58.22 146.48ZM70.94 159.94C69.2333 159.94 67.7467 159.733 66.48 159.32C65.2267 158.92 64.2533 158.347 63.56 157.6C62.88 156.853 62.54 155.967 62.54 154.94C62.54 154.047 62.82 153.18 63.38 152.34C63.94 151.487 64.72 150.707 65.72 150L67.68 151.14C66.8267 151.767 66.1733 152.4 65.72 153.04C65.28 153.667 65.06 154.28 65.06 154.88C65.06 155.48 65.2867 156 65.74 156.44C66.1933 156.867 66.8533 157.193 67.72 157.42C68.5867 157.633 69.64 157.74 70.88 157.74C71.8667 157.74 72.8933 157.68 73.96 157.56C75.0267 157.44 76.06 157.253 77.06 157L77.38 159.16C76.3 159.413 75.2 159.607 74.08 159.74C72.9733 159.873 71.9267 159.94 70.94 159.94ZM61.82 147.9V145.86L78.18 145.46V147.5L61.82 147.9ZM73.5 154.98C73.0733 154.047 72.6933 153.107 72.36 152.16C72.0267 151.213 71.7333 150.253 71.48 149.28C71.24 148.293 71.04 147.287 70.88 146.26C70.7333 145.233 70.6267 144.187 70.56 143.12L72.92 143C72.9867 144.027 73.0933 145.02 73.24 145.98C73.4 146.94 73.6 147.88 73.84 148.8C74.0933 149.72 74.3867 150.64 74.72 151.56C75.0667 152.467 75.46 153.393 75.9 154.34L73.5 154.98ZM86.42 159.58C85.74 159.58 85.1133 159.373 84.54 158.96C83.9667 158.533 83.4667 157.94 83.04 157.18C82.6133 156.42 82.28 155.527 82.04 154.5C81.8133 153.46 81.7 152.34 81.7 151.14C81.7 150.167 81.78 149.14 81.94 148.06C82.1133 146.967 82.3733 145.82 82.72 144.62L85.06 144.9C84.7533 146.007 84.52 147.06 84.36 148.06C84.2 149.06 84.12 150 84.12 150.88C84.12 151.72 84.1867 152.513 84.32 153.26C84.4533 154.007 84.6333 154.66 84.86 155.22C85.1 155.78 85.3667 156.22 85.66 156.54C85.9667 156.86 86.2867 157.02 86.62 157.02C86.94 157.02 87.2867 156.887 87.66 156.62C88.0467 156.34 88.44 155.967 88.84 155.5C89.24 155.033 89.6133 154.5 89.96 153.9C90.32 153.3 90.62 152.673 90.86 152.02L93 153.1C92.6667 154.007 92.2533 154.853 91.76 155.64C91.2667 156.427 90.72 157.12 90.12 157.72C89.5333 158.307 88.92 158.76 88.28 159.08C87.64 159.413 87.02 159.58 86.42 159.58ZM96.46 157.64C96.46 156.12 96.3533 154.607 96.14 153.1C95.94 151.593 95.64 150.147 95.24 148.76C94.8533 147.373 94.3867 146.1 93.84 144.94L96.06 144.28C96.6733 145.493 97.18 146.82 97.58 148.26C97.9933 149.687 98.3067 151.193 98.52 152.78C98.7467 154.353 98.86 155.973 98.86 157.64H96.46ZM108.96 154.62L108.6 144.4H111.56L111.22 154.62H108.96ZM108.68 159V156.28H111.5V159H108.68Z" fill="#282828"/>
<path opacity="0.6" d="M49.016 183.68C49.016 181.09 50.122 178.808 52.432 176.946C52.558 176.834 52.712 176.778 52.852 176.778C53.118 176.778 53.37 177.016 53.37 177.282C53.37 177.464 53.3 177.59 53.16 177.716C51.144 179.438 50.304 181.384 50.304 183.68C50.304 185.976 51.144 187.922 53.16 189.644C53.3 189.77 53.37 189.896 53.37 190.078C53.37 190.344 53.118 190.582 52.852 190.582C52.712 190.582 52.558 190.526 52.432 190.414C50.122 188.552 49.016 186.27 49.016 183.68ZM59.39 182.238C58.83 184.548 58.018 186.816 57.024 188.566C56.842 188.888 56.548 189.014 56.268 189.014C55.862 189.014 55.498 188.734 55.498 188.314C55.498 188.188 55.54 188.034 55.624 187.88C56.506 186.326 57.234 184.408 57.766 182.406C57.192 182.476 56.632 182.574 56.1 182.686C56.044 182.7 55.974 182.7 55.918 182.7C55.484 182.7 55.246 182.35 55.246 181.986C55.246 181.664 55.442 181.342 55.876 181.258C56.59 181.118 57.36 181.02 58.102 180.936C58.27 180.082 58.41 179.214 58.508 178.36C58.564 177.912 58.914 177.702 59.278 177.702C59.67 177.702 60.062 177.954 60.062 178.402V178.5C59.978 179.256 59.852 180.04 59.698 180.81C59.978 180.796 60.23 180.796 60.454 180.796C62.246 180.796 62.904 181.608 62.904 183.806C62.904 185.122 62.764 186.298 62.526 187.152C62.078 188.762 61.448 189.336 60.034 189.336C59.698 189.336 59.348 189.308 59.082 189.266C58.606 189.196 58.396 188.846 58.396 188.51C58.396 188.118 58.648 187.74 59.11 187.74C59.138 187.74 59.18 187.754 59.222 187.754C59.488 187.782 59.698 187.81 59.992 187.81C60.482 187.81 60.734 187.656 60.972 186.83C61.21 186.032 61.336 184.94 61.336 183.792C61.336 182.532 61.098 182.196 60.426 182.196C60.118 182.196 59.768 182.21 59.39 182.238ZM65.102 179.844C65.984 180.684 66.852 181.972 67.328 182.91C67.412 183.078 67.44 183.246 67.44 183.386C67.44 183.876 67.048 184.198 66.628 184.198C66.348 184.198 66.054 184.044 65.858 183.666C65.354 182.658 64.612 181.58 63.87 180.782C63.716 180.614 63.646 180.432 63.646 180.278C63.646 179.886 64.038 179.578 64.458 179.578C64.682 179.578 64.906 179.662 65.102 179.844ZM75.322 186.9L75.28 186.886C75.028 187.11 74.664 187.236 74.244 187.236C72.872 187.236 71.864 186.312 71.864 184.716C71.864 183.344 72.732 182.392 74.034 182.392C74.328 182.392 74.608 182.434 74.874 182.504L74.832 181.384C72.914 181.468 71.43 181.552 69.848 181.65C69.722 181.664 69.442 181.678 69.274 181.678C68.798 181.678 68.546 181.272 68.546 180.88C68.546 180.516 68.77 180.152 69.26 180.124C70.926 180.026 72.872 179.928 74.818 179.844C74.804 179.34 74.804 178.78 74.804 178.15C74.804 177.702 75.196 177.464 75.588 177.464C75.966 177.464 76.344 177.688 76.344 178.136V179.802C77.772 179.76 79.158 179.732 80.376 179.732C80.866 179.732 81.104 180.11 81.104 180.502C81.104 180.866 80.866 181.244 80.432 181.244C79.2 181.244 77.814 181.286 76.372 181.328C76.386 182.14 76.414 182.938 76.47 183.75C76.778 184.254 76.946 184.898 76.946 185.612C76.946 187.824 75.882 189.294 73.894 190.218C73.754 190.288 73.628 190.316 73.502 190.316C73.054 190.316 72.718 189.924 72.718 189.532C72.718 189.252 72.872 188.972 73.264 188.804C74.37 188.314 75.07 187.572 75.322 186.9ZM74.16 183.764C73.684 183.764 73.348 184.142 73.348 184.758C73.348 185.444 73.852 185.864 74.314 185.864C74.79 185.864 75.14 185.528 75.14 184.884C75.14 184.254 74.762 183.764 74.16 183.764ZM78.052 177.772C78.01 177.688 77.996 177.604 77.996 177.534C77.996 177.254 78.262 177.058 78.556 177.058C78.766 177.058 78.976 177.156 79.102 177.366C79.354 177.786 79.578 178.276 79.732 178.724C79.76 178.794 79.774 178.864 79.774 178.934C79.774 179.27 79.48 179.494 79.172 179.494C78.948 179.494 78.724 179.368 78.626 179.074C78.472 178.64 78.29 178.234 78.052 177.772ZM79.9 177.422C79.858 177.338 79.83 177.254 79.83 177.17C79.83 176.89 80.096 176.708 80.376 176.708C80.572 176.708 80.782 176.792 80.908 177.002C81.16 177.408 81.398 177.87 81.58 178.304C81.622 178.402 81.636 178.5 81.636 178.584C81.636 178.92 81.356 179.116 81.076 179.116C80.852 179.116 80.628 178.99 80.516 178.724C80.334 178.248 80.124 177.828 79.9 177.422ZM88.02 189.364L85.934 183.246C85.304 183.498 84.618 183.792 83.876 184.142C83.75 184.198 83.638 184.226 83.526 184.226C83.106 184.226 82.812 183.848 82.812 183.47C82.812 183.204 82.952 182.938 83.274 182.784C84.072 182.42 84.786 182.112 85.458 181.846L84.66 179.522C84.632 179.438 84.618 179.368 84.618 179.298C84.618 178.878 85.052 178.626 85.458 178.626C85.752 178.626 86.046 178.766 86.158 179.074L86.914 181.3C88.916 180.614 90.33 180.39 91.59 180.39C93.788 180.39 95.048 181.398 95.048 182.938C95.048 184.688 93.802 185.71 92.052 185.71C91.492 185.71 91.072 185.668 90.666 185.57C90.176 185.444 89.952 185.094 89.952 184.758C89.952 184.366 90.246 184.002 90.736 184.002C90.82 184.002 90.904 184.002 91.002 184.03C91.282 184.1 91.632 184.156 91.982 184.156C92.878 184.156 93.41 183.694 93.41 182.938C93.41 182.308 92.878 181.832 91.562 181.832C90.456 181.832 89.182 182.056 87.39 182.686L89.476 188.86C89.504 188.958 89.518 189.042 89.518 189.126C89.518 189.574 89.112 189.868 88.706 189.868C88.426 189.868 88.132 189.714 88.02 189.364ZM90.89 178.696C91.114 178.892 91.212 179.102 91.212 179.312C91.212 179.732 90.834 180.096 90.4 180.096C90.218 180.096 90.022 180.04 89.84 179.872C89.406 179.508 88.986 179.214 88.468 178.892C88.216 178.738 88.104 178.486 88.104 178.276C88.104 177.884 88.44 177.52 88.888 177.52C89.042 177.52 89.21 177.562 89.378 177.66C89.896 177.926 90.302 178.206 90.89 178.696ZM106.038 186.592L106.444 187.012C106.836 187.418 107.046 187.558 107.312 187.558C107.592 187.558 107.676 187.446 107.886 187.446C108.236 187.446 108.516 187.74 108.516 188.146C108.516 188.524 108.362 188.762 108.012 188.874C107.802 188.93 107.522 188.972 107.284 188.972C106.626 188.972 106.094 188.706 105.436 188.02L105.128 187.698C104.134 188.706 103.196 189.098 101.866 189.098C99.85 189.098 98.534 187.88 98.534 186.06C98.534 184.618 99.15 183.778 100.886 182.952L100.774 182.826C100.158 182.126 99.92 181.51 99.92 180.754C99.92 179.354 101.012 178.318 102.496 178.318C103.98 178.318 105.086 179.27 105.086 180.684C105.086 181.916 104.428 182.812 103.042 183.372L105.072 185.612C105.338 185.108 105.548 184.464 105.632 183.582C105.66 183.274 105.926 183.036 106.276 183.036C106.766 183.036 107.074 183.274 107.074 183.68C107.074 183.75 107.074 183.792 107.06 183.862C106.864 185.052 106.514 185.92 106.038 186.592ZM101.964 182.126L102.244 182.448C103.35 182 103.658 181.538 103.658 180.698C103.658 179.984 103.21 179.536 102.51 179.536C101.782 179.536 101.306 180.026 101.306 180.768C101.306 181.244 101.474 181.566 101.964 182.126ZM104.246 186.718L101.712 183.876C100.424 184.45 100.046 184.996 100.046 186.004C100.046 187.11 100.788 187.824 101.978 187.824C102.888 187.824 103.574 187.474 104.246 186.718ZM113.556 181.832C112.982 181.916 112.408 182 111.834 182C111.372 182 111.134 181.65 111.134 181.272C111.134 180.894 111.372 180.53 111.848 180.502C112.408 180.474 113.08 180.39 113.836 180.264C113.962 179.494 114.018 178.878 114.102 178.108C114.144 177.674 114.508 177.464 114.872 177.464C115.264 177.464 115.656 177.716 115.656 178.164V178.248C115.586 178.92 115.516 179.424 115.432 179.956C115.824 179.872 116.23 179.774 116.636 179.676C116.706 179.662 116.776 179.648 116.846 179.648C117.28 179.648 117.546 180.012 117.546 180.39C117.546 180.684 117.378 180.978 117 181.076C116.356 181.258 115.74 181.412 115.18 181.538C114.676 184.282 114.004 186.872 113.22 188.902C113.052 189.322 112.702 189.518 112.366 189.518C111.974 189.518 111.596 189.238 111.596 188.804C111.596 188.678 111.624 188.552 111.68 188.412C112.45 186.508 113.066 184.282 113.556 181.832ZM116.37 186.634C116.37 186.158 116.762 185.892 117.154 185.892C117.476 185.892 117.784 186.074 117.826 186.48C117.924 187.376 118.428 187.628 119.954 187.628C120.668 187.628 121.27 187.572 121.83 187.488C121.872 187.474 121.942 187.474 121.984 187.474C122.46 187.474 122.726 187.88 122.726 188.258C122.726 188.594 122.516 188.93 122.082 189C121.48 189.098 120.78 189.154 119.982 189.154C118.022 189.154 117.154 188.65 116.706 187.936C116.482 187.586 116.37 187.026 116.37 186.634ZM117.77 182.056C118.862 181.832 120.248 181.678 121.368 181.678C121.872 181.678 122.124 182.056 122.124 182.434C122.124 182.798 121.886 183.148 121.41 183.148C120.29 183.148 118.988 183.316 117.994 183.512C117.938 183.526 117.868 183.526 117.826 183.526C117.392 183.526 117.126 183.176 117.126 182.798C117.126 182.476 117.322 182.154 117.77 182.056ZM133.408 183.414V182.518C132.806 182.56 132.218 182.588 131.686 182.588C131.168 182.588 130.846 182.588 130.482 182.56C130.034 182.532 129.81 182.182 129.81 181.832C129.81 181.468 130.048 181.118 130.482 181.118C130.874 181.118 131.252 181.146 131.644 181.146C132.204 181.146 132.792 181.118 133.366 181.076C133.338 180.236 133.31 179.802 133.254 178.962C133.254 178.878 133.226 178.654 133.226 178.542C133.226 178.094 133.604 177.884 133.996 177.884C134.36 177.884 134.738 178.08 134.766 178.5C134.836 179.284 134.878 180.096 134.906 180.936C135.41 180.866 135.886 180.796 136.306 180.712C136.362 180.698 136.404 180.698 136.446 180.698C136.894 180.698 137.146 181.062 137.146 181.412C137.146 181.72 136.964 182.014 136.586 182.098C136.082 182.196 135.522 182.294 134.934 182.364C134.948 182.714 134.948 183.064 134.948 183.414C134.948 186.116 134.22 188.118 133.044 189.448C132.862 189.658 132.624 189.756 132.4 189.756C131.98 189.756 131.602 189.434 131.602 189.014C131.602 188.832 131.658 188.65 131.826 188.454C132.848 187.25 133.408 185.71 133.408 183.414ZM126.632 178.696C126.73 178.304 127.066 178.122 127.416 178.122C127.822 178.122 128.228 178.374 128.228 178.822C128.228 178.878 128.214 178.948 128.2 179.018C127.752 180.88 127.556 182.784 127.556 184.492C127.556 185.696 127.682 186.928 127.85 187.824C127.864 187.894 127.878 187.964 127.878 188.034C127.878 188.524 127.472 188.79 127.066 188.79C126.716 188.79 126.366 188.594 126.268 188.16C126.044 187.138 125.932 185.836 125.932 184.506C125.932 182.672 126.142 180.656 126.632 178.696ZM141.514 185.458C141.514 183.232 141.654 180.572 141.808 178.514C141.836 178.038 142.228 177.814 142.62 177.814C143.04 177.814 143.432 178.052 143.432 178.514C143.432 178.668 143.404 179.032 143.39 179.186C143.25 181.258 143.138 183.4 143.138 185.472C143.138 187.348 143.712 187.852 144.706 187.852C146.008 187.852 147.226 187.32 148.514 185.724C148.71 185.472 148.962 185.374 149.186 185.374C149.62 185.374 150.012 185.71 150.012 186.144C150.012 186.312 149.956 186.48 149.816 186.662C148.22 188.65 146.526 189.406 144.706 189.406C142.62 189.406 141.514 188.37 141.514 185.458ZM160.61 184.38L160.624 184.352C159.98 183.624 159.49 182.84 159 181.902C157.446 182.182 155.374 182.42 154.632 182.42C154.156 182.42 153.904 182.028 153.904 181.65C153.904 181.314 154.114 180.964 154.576 180.95C155.752 180.894 157.096 180.74 158.384 180.53C158.104 179.802 157.852 179.074 157.656 178.36C157.642 178.304 157.628 178.248 157.628 178.192C157.628 177.772 158.048 177.506 158.454 177.506C158.762 177.506 159.07 177.66 159.168 178.038C159.35 178.752 159.574 179.522 159.868 180.25C160.932 180.026 161.912 179.76 162.682 179.494C162.78 179.452 162.892 179.438 162.976 179.438C163.424 179.438 163.732 179.816 163.732 180.194C163.732 180.474 163.564 180.754 163.158 180.894C162.416 181.146 161.492 181.398 160.498 181.608C161.016 182.588 161.744 183.624 162.794 184.758C162.962 184.94 163.032 185.15 163.032 185.346C163.032 185.766 162.71 186.144 162.262 186.144C162.178 186.144 162.08 186.116 161.982 186.088C160.904 185.71 159.868 185.556 158.748 185.556C157.054 185.556 156.48 186.074 156.48 186.844C156.48 187.642 157.11 188.174 159.196 188.174C159.77 188.174 160.218 188.146 160.666 188.104H160.764C161.254 188.104 161.506 188.482 161.506 188.86C161.506 189.196 161.296 189.532 160.82 189.588C160.358 189.644 159.84 189.672 159.224 189.672C156.368 189.672 154.856 188.594 154.856 186.83C154.856 185.318 156.018 184.198 158.734 184.198C159.49 184.198 160.05 184.268 160.61 184.38ZM171.376 183.372L171.404 183.386C171.81 183.134 172.23 183.022 172.678 183.022C173.966 183.022 174.666 183.792 174.764 185.976C174.834 187.502 175.17 187.712 175.702 187.712C176.332 187.712 176.864 187.166 177.354 185.892C177.494 185.528 177.802 185.36 178.11 185.36C178.53 185.36 178.95 185.668 178.95 186.116C178.95 186.214 178.922 186.326 178.88 186.452C178.152 188.384 177.102 189.294 175.59 189.294C174.134 189.294 173.238 188.51 173.14 186.116C173.084 184.73 172.874 184.436 172.3 184.436C171.558 184.436 170.802 185.122 170.116 186.55C169.808 187.194 169.402 188.048 169.094 188.72C168.94 189.042 168.646 189.196 168.352 189.196C167.932 189.196 167.512 188.902 167.512 188.454C167.512 188.356 167.54 188.258 167.582 188.146C168.814 185.178 170.592 181.384 172.202 178.402C172.356 178.108 172.636 177.982 172.916 177.982C173.364 177.982 173.798 178.29 173.798 178.71C173.798 178.822 173.77 178.934 173.714 179.046L171.376 183.372ZM180.798 189.42L192.334 177.156C192.46 177.03 192.6 176.932 192.726 176.932C193.09 176.932 193.398 177.226 193.398 177.506C193.398 177.66 193.342 177.8 193.202 177.94L181.666 190.204C181.54 190.33 181.4 190.428 181.274 190.428C180.91 190.428 180.602 190.134 180.602 189.854C180.602 189.7 180.658 189.56 180.798 189.42ZM197.528 177.968H204.5C206.096 177.968 206.642 178.584 206.642 179.844V187.88C206.642 189.336 206.012 189.868 204.78 189.868C204.304 189.868 203.94 189.826 203.646 189.77C203.198 189.686 202.988 189.336 202.988 188.986C202.988 188.58 203.254 188.188 203.73 188.188C203.772 188.188 203.828 188.188 203.884 188.202C204.108 188.244 204.346 188.272 204.626 188.272C204.934 188.272 205.074 188.146 205.074 187.712V180.124C205.074 179.564 204.892 179.396 204.206 179.396H197.808C197.122 179.396 196.94 179.578 196.94 180.138V189.434C196.94 189.826 196.548 190.022 196.156 190.022C195.764 190.022 195.372 189.826 195.372 189.434V179.858C195.372 178.598 195.932 177.968 197.528 177.968ZM202.036 187.278H199.88C198.774 187.278 198.312 186.886 198.312 185.878V184.24C198.312 183.232 198.774 182.84 199.88 182.84H202.036C203.142 182.84 203.604 183.232 203.604 184.24V185.878C203.604 186.984 203.058 187.278 202.036 187.278ZM200.174 186.046H201.742C202.064 186.046 202.148 185.948 202.148 185.696V184.422C202.148 184.17 202.064 184.072 201.742 184.072H200.174C199.852 184.072 199.768 184.17 199.768 184.422V185.696C199.768 185.99 199.908 186.046 200.174 186.046ZM198.2 180.474H203.814C204.192 180.474 204.388 180.81 204.388 181.146C204.388 181.482 204.192 181.818 203.814 181.818H198.2C197.822 181.818 197.64 181.482 197.64 181.146C197.64 180.81 197.822 180.474 198.2 180.474ZM216.61 188.356V185.584H214.482C214.132 185.584 213.964 185.234 213.964 184.898C213.964 184.548 214.132 184.212 214.482 184.212H216.61V181.874H215C214.832 182.252 214.65 182.616 214.468 182.952C214.286 183.288 213.992 183.428 213.726 183.428C213.362 183.428 213.026 183.176 213.026 182.784C213.026 182.644 213.068 182.49 213.166 182.322C213.712 181.384 214.146 180.236 214.426 178.976C214.51 178.598 214.818 178.416 215.112 178.416C215.476 178.416 215.84 178.668 215.84 179.088C215.84 179.144 215.84 179.186 215.826 179.242C215.742 179.676 215.63 180.11 215.49 180.53H216.61V177.87C216.61 177.45 216.988 177.24 217.366 177.24C217.744 177.24 218.122 177.45 218.122 177.87V180.53H220.684C221.048 180.53 221.23 180.866 221.23 181.202C221.23 181.538 221.048 181.874 220.684 181.874H218.122V184.212H220.18C220.53 184.212 220.712 184.548 220.712 184.898C220.712 185.234 220.53 185.584 220.18 185.584H218.122V188.356H220.978C221.328 188.356 221.51 188.692 221.51 189.042C221.51 189.378 221.328 189.728 220.978 189.728H213.264C212.928 189.728 212.746 189.378 212.746 189.042C212.746 188.692 212.928 188.356 213.264 188.356H216.61ZM211.724 177.772V189.616C211.724 190.036 211.346 190.246 210.968 190.246C210.576 190.246 210.198 190.036 210.198 189.616V177.772C210.198 177.352 210.576 177.156 210.968 177.156C211.346 177.156 211.724 177.352 211.724 177.772ZM208.882 180.558C208.924 180.236 209.176 180.082 209.428 180.082C209.722 180.082 210.002 180.278 210.002 180.628V180.698C209.946 181.328 209.792 182.168 209.61 182.77C209.512 183.078 209.274 183.218 209.036 183.218C208.742 183.218 208.462 183.008 208.462 182.686C208.462 182.63 208.462 182.56 208.49 182.49C208.672 181.902 208.812 181.104 208.882 180.558ZM212.942 180.012C213.082 180.432 213.208 180.936 213.264 181.314V181.412C213.264 181.79 212.956 182.014 212.676 182.014C212.438 182.014 212.214 181.874 212.158 181.552C212.088 181.132 211.99 180.6 211.892 180.264C211.878 180.208 211.864 180.138 211.864 180.082C211.864 179.788 212.13 179.606 212.396 179.606C212.62 179.606 212.844 179.732 212.942 180.012ZM229.336 180.432L231.996 180.418C233.27 180.418 233.858 180.922 233.858 182.14C233.858 183.918 233.718 185.738 233.452 187.152C233.158 188.748 232.374 189.322 230.904 189.322C230.75 189.322 230.33 189.294 230.078 189.266C229.546 189.196 229.308 188.818 229.308 188.44C229.308 188.034 229.588 187.642 230.078 187.642C230.12 187.642 230.162 187.656 230.204 187.656C230.4 187.67 230.652 187.712 230.946 187.712C231.436 187.712 231.716 187.53 231.856 186.858C232.122 185.57 232.234 183.82 232.234 182.35C232.234 181.986 232.122 181.874 231.674 181.874L229.21 181.888C229.028 183.456 228.664 184.744 228.076 185.836C227.306 187.25 226.228 188.454 224.94 189.266C224.744 189.392 224.548 189.434 224.366 189.434C223.918 189.434 223.568 189.084 223.568 188.678C223.568 188.412 223.708 188.132 224.072 187.894C225.094 187.222 226.018 186.27 226.62 185.122C227.082 184.24 227.39 183.19 227.558 181.902L224.394 181.93C223.918 181.93 223.666 181.566 223.666 181.202C223.666 180.838 223.904 180.474 224.38 180.474L227.684 180.446C227.698 180.012 227.712 179.55 227.712 179.074V178.122C227.712 177.674 228.132 177.45 228.538 177.45C228.958 177.45 229.364 177.674 229.364 178.136V179.074C229.364 179.55 229.35 179.998 229.336 180.432ZM240.004 181.622C240.368 182.196 240.746 182.896 240.984 183.54C241.012 183.624 241.026 183.708 241.026 183.792C241.026 184.198 240.62 184.478 240.228 184.478C239.962 184.478 239.71 184.352 239.584 184.044C239.332 183.428 239.01 182.77 238.688 182.238C238.618 182.126 238.59 182.014 238.59 181.902C238.59 181.538 238.968 181.258 239.36 181.258C239.598 181.258 239.85 181.37 240.004 181.622ZM242.776 180.964C243.126 181.552 243.462 182.224 243.672 182.868C243.7 182.952 243.714 183.036 243.714 183.106C243.714 183.512 243.322 183.778 242.944 183.778C242.678 183.778 242.412 183.638 242.3 183.316C242.062 182.686 241.768 182.07 241.46 181.538C241.39 181.426 241.362 181.314 241.362 181.216C241.362 180.852 241.726 180.6 242.118 180.6C242.37 180.6 242.622 180.698 242.776 180.964ZM245.968 181.524C246.066 181.174 246.346 181.034 246.654 181.034C247.046 181.034 247.466 181.286 247.466 181.706C247.466 181.762 247.452 181.818 247.438 181.888C246.556 185.192 244.33 188.132 241.642 189.588C241.502 189.658 241.376 189.7 241.25 189.7C240.844 189.7 240.536 189.336 240.536 188.958C240.536 188.706 240.662 188.454 240.97 188.286C243.476 186.872 245.142 184.562 245.968 181.524ZM262.446 176.764C263.286 176.764 263.944 177.422 263.944 178.262C263.944 179.116 263.286 179.774 262.446 179.774C261.592 179.774 260.934 179.116 260.934 178.262C260.934 177.422 261.592 176.764 262.446 176.764ZM262.446 177.464C261.998 177.464 261.634 177.814 261.634 178.262C261.634 178.71 261.998 179.074 262.446 179.074C262.894 179.074 263.244 178.71 263.244 178.262C263.244 177.814 262.894 177.464 262.446 177.464ZM252.52 179.508L259.66 179.438C261.13 179.424 261.704 179.956 261.704 180.894C261.704 181.132 261.676 181.398 261.606 181.692C260.836 185.01 258.4 187.866 255.096 189.476C254.928 189.56 254.774 189.588 254.634 189.588C254.158 189.588 253.822 189.196 253.822 188.762C253.822 188.496 253.962 188.202 254.312 188.02C257.406 186.41 259.156 184.17 259.884 181.664C259.912 181.552 259.926 181.468 259.926 181.384C259.926 181.118 259.744 181.02 259.338 181.02L252.59 181.104C252.058 181.104 251.778 180.684 251.778 180.278C251.778 179.9 252.03 179.508 252.52 179.508ZM266.82 180.936V179.41C266.82 178.934 267.24 178.682 267.66 178.682C268.066 178.682 268.472 178.92 268.472 179.41V180.992C268.472 184.856 267.478 187.152 265.546 188.804C265.336 188.986 265.126 189.056 264.916 189.056C264.468 189.056 264.09 188.678 264.09 188.244C264.09 188.02 264.188 187.782 264.426 187.572C266.092 186.074 266.82 184.352 266.82 180.936ZM272.042 179.06V186.774C272.042 186.984 272.098 187.096 272.238 187.096C272.308 187.096 272.406 187.054 272.518 186.998C273.386 186.522 274.45 185.626 275.15 184.632C275.346 184.366 275.598 184.254 275.836 184.254C276.256 184.254 276.662 184.576 276.662 185.01C276.662 185.164 276.606 185.332 276.494 185.5C275.626 186.76 274.408 187.852 273.064 188.566C272.63 188.79 272.224 188.902 271.86 188.902C271.006 188.902 270.39 188.3 270.39 187.264V179.06C270.39 178.584 270.81 178.346 271.216 178.346C271.636 178.346 272.042 178.584 272.042 179.06ZM44.214 205.198L43.71 205.058C41.582 204.47 40.84 203.56 40.84 201.866C40.84 200.214 42.072 199.094 44.018 199.094C45.32 199.094 46.188 199.444 47.014 200.256C47.196 200.438 47.294 200.592 47.294 200.83C47.294 201.348 46.93 201.67 46.44 201.67C46.174 201.67 45.964 201.572 45.838 201.418C45.236 200.704 44.704 200.48 44.074 200.48C43.08 200.48 42.492 201.012 42.492 201.768C42.492 202.678 42.87 203.126 44.256 203.504L44.76 203.644C46.958 204.26 47.728 205.086 47.728 206.906C47.728 208.726 46.37 210.098 44.2 210.098C42.618 210.098 41.498 209.552 40.756 208.6C40.602 208.39 40.518 208.208 40.518 207.998C40.518 207.578 40.896 207.242 41.358 207.242C41.61 207.242 41.834 207.354 41.946 207.508C42.604 208.376 43.248 208.698 44.228 208.698C45.362 208.698 46.062 208.012 46.062 206.934C46.062 206.094 45.614 205.59 44.214 205.198ZM55.8018 208.264H55.9138C55.8578 207.158 55.7878 205.968 55.7878 204.862V199.948C55.7878 199.458 56.1658 199.192 56.6138 199.192C57.0758 199.192 57.4258 199.458 57.4258 199.948V208.656C57.4258 209.538 56.9498 210 56.2358 210C55.4518 210 55.0598 209.734 54.5558 208.6L52.2878 203.434C51.8678 202.482 51.5738 201.684 51.2658 200.746H51.1538C51.1818 201.782 51.2238 202.832 51.2238 203.868V209.244C51.2238 209.734 50.8738 210 50.4118 210C49.9638 210 49.5858 209.734 49.5858 209.244V200.494C49.5858 199.654 50.0198 199.192 50.7898 199.192C51.7138 199.192 52.2038 199.57 52.6658 200.634L54.6258 205.17C55.0738 206.192 55.4378 207.2 55.8018 208.264ZM62.8898 205.198L62.3858 205.058C60.2578 204.47 59.5158 203.56 59.5158 201.866C59.5158 200.214 60.7478 199.094 62.6938 199.094C63.9958 199.094 64.8638 199.444 65.6898 200.256C65.8718 200.438 65.9698 200.592 65.9698 200.83C65.9698 201.348 65.6058 201.67 65.1158 201.67C64.8498 201.67 64.6398 201.572 64.5138 201.418C63.9118 200.704 63.3798 200.48 62.7498 200.48C61.7558 200.48 61.1678 201.012 61.1678 201.768C61.1678 202.678 61.5458 203.126 62.9318 203.504L63.4358 203.644C65.6338 204.26 66.4038 205.086 66.4038 206.906C66.4038 208.726 65.0458 210.098 62.8758 210.098C61.2938 210.098 60.1738 209.552 59.4318 208.6C59.2778 208.39 59.1938 208.208 59.1938 207.998C59.1938 207.578 59.5718 207.242 60.0338 207.242C60.2858 207.242 60.5098 207.354 60.6218 207.508C61.2798 208.376 61.9238 208.698 62.9038 208.698C64.0378 208.698 64.7378 208.012 64.7378 206.934C64.7378 206.094 64.2898 205.59 62.8898 205.198ZM73.8616 200.858L76.4796 200.83C77.6416 200.816 78.2296 201.278 78.2296 202.118C78.2296 202.342 78.1876 202.594 78.1036 202.86C77.1376 206.122 74.7436 209.09 71.6916 210.784C71.5236 210.882 71.3696 210.91 71.2296 210.91C70.7676 210.91 70.4316 210.532 70.4316 210.112C70.4316 209.846 70.5856 209.552 70.9216 209.356C73.7076 207.718 75.5696 205.366 76.4236 202.706C76.4516 202.636 76.4656 202.566 76.4656 202.51C76.4656 202.356 76.3536 202.286 76.0876 202.286L72.9516 202.314C72.2656 203.322 71.4676 204.26 70.6696 204.974C70.4596 205.17 70.2356 205.24 70.0256 205.24C69.6056 205.24 69.2416 204.918 69.2416 204.498C69.2416 204.288 69.3536 204.05 69.5916 203.826C70.9216 202.622 72.2376 200.732 72.9656 199.01C73.1196 198.646 73.4276 198.478 73.7356 198.478C74.1556 198.478 74.5616 198.772 74.5616 199.22C74.5616 199.318 74.5336 199.43 74.4916 199.542C74.3096 199.976 74.0996 200.41 73.8616 200.858ZM89.8636 203.784V199.738C89.8636 199.262 90.2836 199.024 90.7176 199.024C91.1236 199.024 91.5436 199.262 91.5436 199.738V203.896C91.5436 207.438 90.0316 209.58 87.3296 210.868C87.1756 210.938 87.0356 210.98 86.9096 210.98C86.4336 210.98 86.0836 210.574 86.0836 210.154C86.0836 209.888 86.2376 209.608 86.6016 209.426C88.9396 208.278 89.8636 206.584 89.8636 203.784ZM86.1676 199.976V205.478C86.1676 205.954 85.7476 206.206 85.3276 206.206C84.9076 206.206 84.4876 205.954 84.4876 205.478V199.976C84.4876 199.486 84.9076 199.234 85.3276 199.234C85.7476 199.234 86.1676 199.486 86.1676 199.976ZM102.842 202.132V207.578H107.266C107.77 207.578 108.022 207.97 108.022 208.362C108.022 208.754 107.77 209.146 107.266 209.146H96.7656C96.2616 209.146 96.0096 208.754 96.0096 208.362C96.0096 207.97 96.2616 207.578 96.7656 207.578H101.162V202.132H98.0256C97.5216 202.132 97.2696 201.74 97.2696 201.348C97.2696 200.956 97.5216 200.564 98.0256 200.564H106.23C106.734 200.564 106.986 200.956 106.986 201.348C106.986 201.74 106.734 202.132 106.23 202.132H102.842ZM115.792 210.112V204.008C114.63 204.932 113.412 205.73 112.25 206.36C112.082 206.458 111.914 206.486 111.76 206.486C111.312 206.486 110.99 206.108 110.99 205.702C110.99 205.422 111.144 205.114 111.522 204.918C114.056 203.588 116.618 201.432 118.326 199.178C118.522 198.926 118.774 198.814 119.026 198.814C119.46 198.814 119.88 199.15 119.88 199.598C119.88 199.752 119.824 199.934 119.684 200.116C118.858 201.194 117.836 202.258 116.716 203.238C117.094 203.266 117.444 203.518 117.444 203.966V210.112C117.444 210.602 117.038 210.84 116.618 210.84C116.212 210.84 115.792 210.602 115.792 210.112ZM129.792 200.718L132.676 200.69C133.838 200.676 134.426 201.138 134.426 201.978C134.426 202.202 134.384 202.454 134.3 202.72C133.32 205.968 130.52 209.16 127.412 210.84C127.258 210.924 127.09 210.966 126.95 210.966C126.502 210.966 126.18 210.588 126.18 210.182C126.18 209.902 126.32 209.622 126.684 209.426C128.014 208.698 129.26 207.676 130.296 206.5C129.68 205.926 129.134 205.506 128.672 205.198C128.42 205.016 128.322 204.806 128.322 204.582C128.322 204.204 128.658 203.84 129.092 203.84C129.246 203.84 129.414 203.882 129.582 203.994C130.128 204.344 130.688 204.764 131.262 205.282C131.878 204.386 132.368 203.434 132.676 202.51C132.704 202.44 132.718 202.37 132.718 202.314C132.718 202.16 132.606 202.09 132.34 202.09L128.924 202.118C128.21 203.182 127.384 204.162 126.572 204.89C126.376 205.072 126.152 205.142 125.956 205.142C125.522 205.142 125.172 204.806 125.172 204.4C125.172 204.19 125.27 203.952 125.508 203.742C126.81 202.566 128.14 200.718 128.868 199.01C129.022 198.632 129.344 198.478 129.652 198.478C130.058 198.478 130.45 198.758 130.45 199.192C130.45 199.29 130.436 199.402 130.38 199.528C130.212 199.92 130.016 200.312 129.792 200.718ZM138.906 203.952H149.126C149.63 203.952 149.882 204.344 149.882 204.75C149.882 205.142 149.63 205.548 149.126 205.548H138.906C138.402 205.548 138.15 205.142 138.15 204.75C138.15 204.344 138.402 203.952 138.906 203.952ZM156 204.68C156 207.27 154.894 209.552 152.584 211.414C152.458 211.526 152.304 211.582 152.164 211.582C151.898 211.582 151.646 211.344 151.646 211.078C151.646 210.896 151.716 210.77 151.856 210.644C153.872 208.922 154.712 206.976 154.712 204.68C154.712 202.384 153.872 200.438 151.856 198.716C151.716 198.59 151.646 198.464 151.646 198.282C151.646 198.016 151.898 197.778 152.164 197.778C152.304 197.778 152.458 197.834 152.584 197.946C154.894 199.808 156 202.09 156 204.68Z" fill="#282828"/>
<path d="M252.177 281L234.177 239L203 239L252.177 281Z" fill="#54B6CB"/>
</svg>
