<svg width="327" height="315" viewBox="0 0 327 315" fill="none" xmlns="http://www.w3.org/2000/svg">
<rect width="327" height="254" rx="80" fill="#E18965"/>
<path d="M46.42 51.58C45.74 51.58 45.1133 51.3733 44.54 50.96C43.9667 50.5333 43.4667 49.94 43.04 49.18C42.6133 48.42 42.28 47.5267 42.04 46.5C41.8133 45.46 41.7 44.34 41.7 43.14C41.7 42.1667 41.78 41.14 41.94 40.06C42.1133 38.9667 42.3733 37.82 42.72 36.62L45.06 36.9C44.7533 38.0067 44.52 39.06 44.36 40.06C44.2 41.06 44.12 42 44.12 42.88C44.12 43.72 44.1867 44.5133 44.32 45.26C44.4533 46.0067 44.6333 46.66 44.86 47.22C45.1 47.78 45.3667 48.22 45.66 48.54C45.9667 48.86 46.2867 49.02 46.62 49.02C46.94 49.02 47.2867 48.8867 47.66 48.62C48.0467 48.34 48.44 47.9667 48.84 47.5C49.24 47.0333 49.6133 46.5 49.96 45.9C50.32 45.3 50.62 44.6733 50.86 44.02L53 45.1C52.6667 46.0067 52.2533 46.8533 51.76 47.64C51.2667 48.4267 50.72 49.12 50.12 49.72C49.5333 50.3067 48.92 50.76 48.28 51.08C47.64 51.4133 47.02 51.58 46.42 51.58ZM56.46 49.64C56.46 48.12 56.3533 46.6067 56.14 45.1C55.94 43.5933 55.64 42.1467 55.24 40.76C54.8533 39.3733 54.3867 38.1 53.84 36.94L56.06 36.28C56.6733 37.4933 57.18 38.82 57.58 40.26C57.9933 41.6867 58.3067 43.1933 58.52 44.78C58.7467 46.3533 58.86 47.9733 58.86 49.64H56.46ZM67.34 52.06C65.7667 52.06 64.5467 51.7467 63.68 51.12C62.8267 50.5067 62.4 49.6267 62.4 48.48C62.4 47.3333 62.8267 46.46 63.68 45.86C64.5333 45.26 65.7533 44.96 67.34 44.96C68.2067 44.96 69.0467 45.0533 69.86 45.24C70.6733 45.4267 71.4933 45.7267 72.32 46.14C73.16 46.5533 74.04 47.0933 74.96 47.76C75.88 48.4133 76.8733 49.2133 77.94 50.16L76.42 51.68C75.4067 50.8133 74.48 50.08 73.64 49.48C72.8133 48.8667 72.0467 48.3733 71.34 48C70.6333 47.6133 69.9533 47.34 69.3 47.18C68.66 47.0067 68.0067 46.92 67.34 46.92C65.6333 46.92 64.78 47.4267 64.78 48.44C64.78 48.96 64.9933 49.36 65.42 49.64C65.8467 49.9067 66.4733 50.04 67.3 50.04C68.2867 50.04 69.0133 49.8333 69.48 49.42C69.9467 49.0067 70.18 48.3733 70.18 47.52V34.92H72.44V47.52C72.44 49.0267 72.0133 50.16 71.16 50.92C70.32 51.68 69.0467 52.06 67.34 52.06ZM62.26 43.04V41.06H77.74V43.04H62.26ZM62.06 38.96V36.94H77.94V38.96H62.06ZM90.84 51.74C89.4 51.74 88.2733 51.42 87.46 50.78C86.66 50.1267 86.26 49.22 86.26 48.06C86.26 46.8733 86.66 45.96 87.46 45.32C88.26 44.68 89.3867 44.36 90.84 44.36C91.4667 44.36 92.0733 44.44 92.66 44.6C93.2467 44.7467 93.8533 45.0133 94.48 45.4C95.1067 45.7867 95.8067 46.32 96.58 47C97.3667 47.6667 98.2867 48.52 99.34 49.56L97.86 51.14C96.9133 50.18 96.0933 49.3933 95.4 48.78C94.72 48.1533 94.12 47.6667 93.6 47.32C93.08 46.9733 92.5867 46.7333 92.12 46.6C91.6667 46.4533 91.2 46.38 90.72 46.38C89.1733 46.38 88.4 46.94 88.4 48.06C88.4 49.1667 89.1733 49.72 90.72 49.72C91.56 49.72 92.1533 49.5467 92.5 49.2C92.86 48.84 93.04 48.2533 93.04 47.44V35.08H95.36V47.54C95.36 48.94 94.9733 49.9933 94.2 50.7C93.44 51.3933 92.32 51.74 90.84 51.74ZM86.32 40.24V38.22H99.04V40.24H86.32ZM82.62 52.1C82.2733 50.7267 82.02 49.3733 81.86 48.04C81.7 46.7067 81.62 45.2933 81.62 43.8C81.62 42.32 81.7 40.92 81.86 39.6C82.02 38.2667 82.2667 36.9133 82.6 35.54L84.96 35.84C84.64 37.1333 84.4 38.4333 84.24 39.74C84.0933 41.0333 84.02 42.3867 84.02 43.8C84.02 45.2133 84.0933 46.5733 84.24 47.88C84.4 49.1867 84.64 50.4733 84.96 51.74L82.62 52.1ZM105.5 52.58C104.887 51.7667 104.227 51.0067 103.52 50.3C102.813 49.58 102.047 48.9133 101.22 48.3L102.86 46.66C103.687 47.3 104.473 48 105.22 48.76C105.967 49.5067 106.66 50.3133 107.3 51.18L105.5 52.58ZM123.34 52.94V43.56H120.74V41.06H123.42V34.66H126.08V41.06H128.4V43.56H126.14V52.94H123.34ZM121.42 51.14L120.26 48.02C121.06 47.0333 121.7 46.0267 122.18 45C122.673 43.9733 123.04 42.8867 123.28 41.74L124.36 42.5C124.293 43.6467 124.12 44.7667 123.84 45.86C123.573 46.94 123.227 47.9333 122.8 48.84C122.387 49.7467 121.927 50.5133 121.42 51.14ZM127.18 49.08C126.753 48.0667 126.32 47.06 125.88 46.06C125.453 45.0467 124.993 43.9867 124.5 42.88L126.16 41.98C126.64 42.9 127.107 43.8067 127.56 44.7C128.013 45.58 128.473 46.4933 128.94 47.44L127.18 49.08ZM121.64 40.76C121.453 40 121.253 39.22 121.04 38.42C120.827 37.62 120.62 36.8933 120.42 36.24L122.46 35.5C122.673 36.1667 122.873 36.8933 123.06 37.68C123.26 38.4533 123.44 39.24 123.6 40.04L121.64 40.76ZM128.36 50.4L128.1 47.72L139.54 45.58L139.8 48.26L128.36 50.4ZM132.18 46.3C131.593 45.66 130.967 44.9933 130.3 44.3C129.633 43.6067 128.927 42.9133 128.18 42.22L130.26 40.3C131.007 40.98 131.713 41.66 132.38 42.34C133.06 43.0067 133.687 43.6667 134.26 44.32L132.18 46.3ZM127.78 40.78L125.74 39.96C126.007 39.2533 126.247 38.4933 126.46 37.68C126.673 36.8667 126.84 36.1067 126.96 35.4L129.16 35.88C129 36.6533 128.793 37.4733 128.54 38.34C128.3 39.1933 128.047 40.0067 127.78 40.78ZM134.92 52.94V34.66H138.02V52.94H134.92ZM132.98 40.98C132.473 40.4067 131.927 39.82 131.34 39.22C130.753 38.62 130.14 38.0133 129.5 37.4L131.58 35.5C132.22 36.0867 132.833 36.6733 133.42 37.26C134.007 37.8467 134.553 38.42 135.06 38.98L132.98 40.98ZM145.76 52.46V49.94H151.26V48.54H146.84V46.2H151.26V40.94H149.6V39.04H151.26V37.36H154.38V39.04H156.06V37.36H149.6V44.86H146.92V34.94H158.8V44.86H149.6V42.66H156.06V40.94H154.38V46.2H159.04V48.54H154.38V49.94H159.26V52.46H145.76ZM140.9 51.26L140.62 48.58C141.22 48.4733 141.853 48.34 142.52 48.18C143.2 48.02 143.873 47.8467 144.54 47.66C145.22 47.4733 145.847 47.2867 146.42 47.1L146.44 49.7C145.893 49.9 145.293 50.1 144.64 50.3C143.987 50.5 143.333 50.6867 142.68 50.86C142.027 51.02 141.433 51.1533 140.9 51.26ZM142.12 48.8V43.96H140.92V41.28H142.12V38.36H140.72V35.6H146.44V38.36H145.08V41.28H146.32V43.96H145.08V48.8H142.12ZM160.72 51.48C161.2 50.1467 161.62 48.94 161.98 47.86C162.353 46.7667 162.68 45.7333 162.96 44.76C163.253 43.7733 163.513 42.7867 163.74 41.8C163.98 40.8 164.207 39.7333 164.42 38.6C164.633 37.4533 164.86 36.1667 165.1 34.74L168.24 35.08C168.04 36.4267 167.833 37.68 167.62 38.84C167.407 39.9867 167.173 41.0933 166.92 42.16C166.667 43.2133 166.38 44.2733 166.06 45.34C165.753 46.4067 165.407 47.5133 165.02 48.66C164.633 49.8067 164.193 51.06 163.7 52.42L160.72 51.48ZM176.66 48.82C176.567 48.0333 176.433 47.1867 176.26 46.28C176.1 45.3733 175.913 44.46 175.7 43.54C175.5 42.62 175.28 41.74 175.04 40.9L178.08 40.1C178.32 40.98 178.547 41.8867 178.76 42.82C178.973 43.74 179.167 44.6667 179.34 45.6C179.513 46.52 179.653 47.4067 179.76 48.26L176.66 48.82ZM174.94 39.92C174.607 39.2133 174.26 38.5733 173.9 38C173.553 37.4133 173.167 36.82 172.74 36.22L174.68 35.14C175.12 35.7133 175.513 36.3067 175.86 36.92C176.207 37.5333 176.547 38.2067 176.88 38.94L174.94 39.92ZM177.86 38.84C177.54 38.12 177.213 37.4667 176.88 36.88C176.56 36.28 176.193 35.6867 175.78 35.1L177.7 34.1C178.127 34.7 178.5 35.3067 178.82 35.92C179.153 36.5333 179.48 37.2133 179.8 37.96L177.86 38.84ZM170.48 51.86C170.12 51.86 169.68 51.82 169.16 51.74C168.64 51.6733 168.1 51.5733 167.54 51.44C166.98 51.3067 166.447 51.1533 165.94 50.98L166.64 48.32C167.04 48.4267 167.427 48.5333 167.8 48.64C168.173 48.7333 168.513 48.8067 168.82 48.86C169.127 48.9133 169.367 48.94 169.54 48.94C169.9 48.94 170.18 48.7933 170.38 48.5C170.593 48.2067 170.74 47.7 170.82 46.98C170.913 46.2467 170.96 45.2333 170.96 43.94C170.96 43.26 170.933 42.7133 170.88 42.3C170.827 41.8733 170.733 41.5467 170.6 41.32C170.467 41.0933 170.273 40.94 170.02 40.86C169.767 40.78 169.427 40.74 169 40.74H160.56V37.92H168.66C169.673 37.92 170.513 37.96 171.18 38.04C171.847 38.12 172.38 38.28 172.78 38.52C173.18 38.7467 173.48 39.1 173.68 39.58C173.893 40.0467 174.033 40.6733 174.1 41.46C174.167 42.2333 174.2 43.2 174.2 44.36C174.2 46.1733 174.073 47.6333 173.82 48.74C173.58 49.8333 173.187 50.6267 172.64 51.12C172.107 51.6133 171.387 51.86 170.48 51.86ZM188.36 52.94V47.74H181.1V45.14H188.36V44.3H188.34V42.26H191.66V41.12H188.34V39.16H191.66V38.06H188.34V44.3H185.32V35.74H194.68V44.3H191.64V45.14H198.9V47.74H191.64V52.94H188.36ZM181.54 52.72L180.36 50.18C182.147 49.7133 183.687 49.2133 184.98 48.68C186.287 48.1333 187.387 47.5667 188.28 46.98L190.16 48.12C189.173 48.9867 187.96 49.8133 186.52 50.6C185.08 51.3867 183.42 52.0933 181.54 52.72ZM181.22 44.54L180.34 42.04C181.127 41.7733 181.873 41.5067 182.58 41.24C183.287 40.96 183.953 40.68 184.58 40.4L185.48 42.82C184.84 43.1267 184.167 43.4267 183.46 43.72C182.767 44.0133 182.02 44.2867 181.22 44.54ZM198.46 52.72C196.58 52.0933 194.92 51.3867 193.48 50.6C192.04 49.8133 190.827 48.9867 189.84 48.12L191.72 46.98C192.613 47.5667 193.713 48.1333 195.02 48.68C196.327 49.2133 197.867 49.7133 199.64 50.18L198.46 52.72ZM183.76 40C183.333 39.6133 182.84 39.1867 182.28 38.72C181.72 38.24 181.107 37.7667 180.44 37.3L182.14 35.26C182.78 35.7267 183.387 36.2 183.96 36.68C184.533 37.16 185.033 37.5933 185.46 37.98L183.76 40ZM190.74 37.58L187.48 37.38C187.627 36.9 187.767 36.4067 187.9 35.9C188.047 35.3933 188.173 34.8467 188.28 34.26L191.54 34.44C191.433 35.0267 191.307 35.58 191.16 36.1C191.027 36.6067 190.887 37.1 190.74 37.58ZM198.62 44.54C197.953 44.22 197.267 43.92 196.56 43.64C195.853 43.3467 195.12 43.0733 194.36 42.82L195.42 40.4C196.22 40.6533 196.973 40.9133 197.68 41.18C198.387 41.4467 199.053 41.7333 199.68 42.04L198.62 44.54ZM196.24 39.92L194.46 37.98C195.02 37.5667 195.587 37.1267 196.16 36.66C196.733 36.18 197.273 35.7133 197.78 35.26L199.56 37.2C199.133 37.6267 198.633 38.0733 198.06 38.54C197.487 38.9933 196.88 39.4533 196.24 39.92ZM209.62 52.14C208.007 52.14 206.693 51.8933 205.68 51.4C204.667 50.92 203.92 50.1667 203.44 49.14C202.973 48.1 202.74 46.7667 202.74 45.14V35.6H206.06V45.14C206.06 46.54 206.333 47.5467 206.88 48.16C207.427 48.76 208.34 49.06 209.62 49.06C210.58 49.06 211.427 48.88 212.16 48.52C212.893 48.16 213.567 47.5667 214.18 46.74C214.807 45.9133 215.427 44.7933 216.04 43.38L218.96 44.64C218.4 46.0267 217.813 47.2 217.2 48.16C216.6 49.1067 215.933 49.8733 215.2 50.46C214.467 51.0467 213.64 51.4733 212.72 51.74C211.813 52.0067 210.78 52.14 209.62 52.14ZM226.34 51.84C225.607 51.84 224.94 51.6333 224.34 51.22C223.74 50.8067 223.22 50.22 222.78 49.46C222.353 48.7 222.02 47.7933 221.78 46.74C221.553 45.6867 221.44 44.52 221.44 43.24C221.44 42.2267 221.527 41.1733 221.7 40.08C221.873 38.9867 222.14 37.7867 222.5 36.48L225.7 36.84C225.367 38.0133 225.12 39.0867 224.96 40.06C224.8 41.0333 224.72 41.9667 224.72 42.86C224.72 43.6467 224.767 44.3733 224.86 45.04C224.967 45.7067 225.107 46.2867 225.28 46.78C225.453 47.2733 225.653 47.66 225.88 47.94C226.12 48.2067 226.373 48.34 226.64 48.34C226.907 48.34 227.2 48.22 227.52 47.98C227.853 47.74 228.193 47.4133 228.54 47C228.9 46.5733 229.24 46.0933 229.56 45.56C229.88 45.0133 230.153 44.4467 230.38 43.86L233.28 45.38C232.933 46.3 232.5 47.1533 231.98 47.94C231.473 48.7267 230.907 49.4133 230.28 50C229.653 50.5867 229.007 51.04 228.34 51.36C227.673 51.68 227.007 51.84 226.34 51.84ZM235.82 49.86C235.82 48.34 235.72 46.8267 235.52 45.32C235.333 43.8133 235.053 42.3533 234.68 40.94C234.32 39.5267 233.873 38.2067 233.34 36.98L236.36 36.12C236.96 37.3867 237.46 38.76 237.86 40.24C238.273 41.7067 238.58 43.2467 238.78 44.86C238.993 46.4733 239.1 48.14 239.1 49.86H235.82ZM244.7 52.9C243.94 52.9 243.273 52.74 242.7 52.42C242.127 52.1 241.68 51.6533 241.36 51.08C241.053 50.52 240.9 49.86 240.9 49.1C240.9 48.34 241.053 47.6733 241.36 47.1C241.68 46.5267 242.127 46.0867 242.7 45.78C243.273 45.46 243.94 45.3 244.7 45.3C245.46 45.3 246.12 45.46 246.68 45.78C247.253 46.0867 247.7 46.5267 248.02 47.1C248.34 47.6733 248.5 48.34 248.5 49.1C248.5 49.86 248.34 50.52 248.02 51.08C247.7 51.6533 247.253 52.1 246.68 52.42C246.12 52.74 245.46 52.9 244.7 52.9ZM244.7 50.58C245.153 50.58 245.513 50.4467 245.78 50.18C246.047 49.9 246.18 49.54 246.18 49.1C246.18 48.6467 246.047 48.2867 245.78 48.02C245.513 47.7533 245.153 47.62 244.7 47.62C244.26 47.62 243.9 47.7533 243.62 48.02C243.353 48.2867 243.22 48.6467 243.22 49.1C243.22 49.54 243.353 49.9 243.62 50.18C243.9 50.4467 244.26 50.58 244.7 50.58ZM274.8 52.88C274.427 52.88 273.953 52.8667 273.38 52.84C272.807 52.8267 272.113 52.8067 271.3 52.78L271.12 50.1C271.907 50.1267 272.567 50.1533 273.1 50.18C273.633 50.1933 274 50.2 274.2 50.2C274.453 50.2 274.64 50.1867 274.76 50.16C274.88 50.1333 274.953 50.06 274.98 49.94C275.007 49.82 275.02 49.6333 275.02 49.38V38.02H267.1V35.34H279.48V38.02H278.12V49.26C278.12 50.1 278.087 50.76 278.02 51.24C277.953 51.7333 277.813 52.0933 277.6 52.32C277.387 52.56 277.053 52.7133 276.6 52.78C276.16 52.8467 275.56 52.88 274.8 52.88ZM262.42 52.94V39.54H265.46V52.94H262.42ZM261.14 46.36L260.12 42.96C260.787 42.1733 261.36 41.36 261.84 40.52C262.333 39.68 262.747 38.7733 263.08 37.8C263.427 36.8267 263.713 35.7533 263.94 34.58L266.82 35.08C266.58 36.5333 266.233 37.88 265.78 39.12C265.327 40.36 264.78 41.4667 264.14 42.44L263.84 41.68C263.733 42.0267 263.573 42.42 263.36 42.86C263.147 43.2867 262.913 43.7267 262.66 44.18C262.407 44.62 262.147 45.0333 261.88 45.42C261.627 45.7933 261.38 46.1067 261.14 46.36ZM266.64 49.54V39.68H273.84V47.94H269.34V45.66H271.3V41.96H269.34V49.54H266.64ZM40.72 87.48C41.2 86.1467 41.62 84.94 41.98 83.86C42.3533 82.7667 42.68 81.7333 42.96 80.76C43.2533 79.7733 43.5133 78.7867 43.74 77.8C43.98 76.8 44.2067 75.7333 44.42 74.6C44.6333 73.4533 44.86 72.1667 45.1 70.74L48.24 71.08C48.04 72.4267 47.8333 73.68 47.62 74.84C47.4067 75.9867 47.1733 77.0933 46.92 78.16C46.6667 79.2133 46.38 80.2733 46.06 81.34C45.7533 82.4067 45.4067 83.5133 45.02 84.66C44.6333 85.8067 44.1933 87.06 43.7 88.42L40.72 87.48ZM56.66 84.82C56.5667 84.0333 56.4333 83.1867 56.26 82.28C56.1 81.3733 55.9133 80.46 55.7 79.54C55.5 78.62 55.28 77.74 55.04 76.9L58.08 76.1C58.32 76.98 58.5467 77.8867 58.76 78.82C58.9733 79.74 59.1667 80.6667 59.34 81.6C59.5133 82.52 59.6533 83.4067 59.76 84.26L56.66 84.82ZM54.94 75.92C54.6067 75.2133 54.26 74.5733 53.9 74C53.5533 73.4133 53.1667 72.82 52.74 72.22L54.68 71.14C55.12 71.7133 55.5133 72.3067 55.86 72.92C56.2067 73.5333 56.5467 74.2067 56.88 74.94L54.94 75.92ZM57.86 74.84C57.54 74.12 57.2133 73.4667 56.88 72.88C56.56 72.28 56.1933 71.6867 55.78 71.1L57.7 70.1C58.1267 70.7 58.5 71.3067 58.82 71.92C59.1533 72.5333 59.48 73.2133 59.8 73.96L57.86 74.84ZM50.48 87.86C50.12 87.86 49.68 87.82 49.16 87.74C48.64 87.6733 48.1 87.5733 47.54 87.44C46.98 87.3067 46.4467 87.1533 45.94 86.98L46.64 84.32C47.04 84.4267 47.4267 84.5333 47.8 84.64C48.1733 84.7333 48.5133 84.8067 48.82 84.86C49.1267 84.9133 49.3667 84.94 49.54 84.94C49.9 84.94 50.18 84.7933 50.38 84.5C50.5933 84.2067 50.74 83.7 50.82 82.98C50.9133 82.2467 50.96 81.2333 50.96 79.94C50.96 79.26 50.9333 78.7133 50.88 78.3C50.8267 77.8733 50.7333 77.5467 50.6 77.32C50.4667 77.0933 50.2733 76.94 50.02 76.86C49.7667 76.78 49.4267 76.74 49 76.74H40.56V73.92H48.66C49.6733 73.92 50.5133 73.96 51.18 74.04C51.8467 74.12 52.38 74.28 52.78 74.52C53.18 74.7467 53.48 75.1 53.68 75.58C53.8933 76.0467 54.0333 76.6733 54.1 77.46C54.1667 78.2333 54.2 79.2 54.2 80.36C54.2 82.1733 54.0733 83.6333 53.82 84.74C53.58 85.8333 53.1867 86.6267 52.64 87.12C52.1067 87.6133 51.3867 87.86 50.48 87.86ZM68.36 88.94V83.74H61.1V81.14H68.36V80.3H68.34V78.26H71.66V77.12H68.34V75.16H71.66V74.06H68.34V80.3H65.32V71.74H74.68V80.3H71.64V81.14H78.9V83.74H71.64V88.94H68.36ZM61.54 88.72L60.36 86.18C62.1467 85.7133 63.6867 85.2133 64.98 84.68C66.2867 84.1333 67.3867 83.5667 68.28 82.98L70.16 84.12C69.1733 84.9867 67.96 85.8133 66.52 86.6C65.08 87.3867 63.42 88.0933 61.54 88.72ZM61.22 80.54L60.34 78.04C61.1267 77.7733 61.8733 77.5067 62.58 77.24C63.2867 76.96 63.9533 76.68 64.58 76.4L65.48 78.82C64.84 79.1267 64.1667 79.4267 63.46 79.72C62.7667 80.0133 62.02 80.2867 61.22 80.54ZM78.46 88.72C76.58 88.0933 74.92 87.3867 73.48 86.6C72.04 85.8133 70.8267 84.9867 69.84 84.12L71.72 82.98C72.6133 83.5667 73.7133 84.1333 75.02 84.68C76.3267 85.2133 77.8667 85.7133 79.64 86.18L78.46 88.72ZM63.76 76C63.3333 75.6133 62.84 75.1867 62.28 74.72C61.72 74.24 61.1067 73.7667 60.44 73.3L62.14 71.26C62.78 71.7267 63.3867 72.2 63.96 72.68C64.5333 73.16 65.0333 73.5933 65.46 73.98L63.76 76ZM70.74 73.58L67.48 73.38C67.6267 72.9 67.7667 72.4067 67.9 71.9C68.0467 71.3933 68.1733 70.8467 68.28 70.26L71.54 70.44C71.4333 71.0267 71.3067 71.58 71.16 72.1C71.0267 72.6067 70.8867 73.1 70.74 73.58ZM78.62 80.54C77.9533 80.22 77.2667 79.92 76.56 79.64C75.8533 79.3467 75.12 79.0733 74.36 78.82L75.42 76.4C76.22 76.6533 76.9733 76.9133 77.68 77.18C78.3867 77.4467 79.0533 77.7333 79.68 78.04L78.62 80.54ZM76.24 75.92L74.46 73.98C75.02 73.5667 75.5867 73.1267 76.16 72.66C76.7333 72.18 77.2733 71.7133 77.78 71.26L79.56 73.2C79.1333 73.6267 78.6333 74.0733 78.06 74.54C77.4867 74.9933 76.88 75.4533 76.24 75.92ZM89.62 88.14C88.0067 88.14 86.6933 87.8933 85.68 87.4C84.6667 86.92 83.92 86.1667 83.44 85.14C82.9733 84.1 82.74 82.7667 82.74 81.14V71.6H86.06V81.14C86.06 82.54 86.3333 83.5467 86.88 84.16C87.4267 84.76 88.34 85.06 89.62 85.06C90.58 85.06 91.4267 84.88 92.16 84.52C92.8933 84.16 93.5667 83.5667 94.18 82.74C94.8067 81.9133 95.4267 80.7933 96.04 79.38L98.96 80.64C98.4 82.0267 97.8133 83.2 97.2 84.16C96.6 85.1067 95.9333 85.8733 95.2 86.46C94.4667 87.0467 93.64 87.4733 92.72 87.74C91.8133 88.0067 90.78 88.14 89.62 88.14ZM106.34 87.84C105.607 87.84 104.94 87.6333 104.34 87.22C103.74 86.8067 103.22 86.22 102.78 85.46C102.353 84.7 102.02 83.7933 101.78 82.74C101.553 81.6867 101.44 80.52 101.44 79.24C101.44 78.2267 101.527 77.1733 101.7 76.08C101.873 74.9867 102.14 73.7867 102.5 72.48L105.7 72.84C105.367 74.0133 105.12 75.0867 104.96 76.06C104.8 77.0333 104.72 77.9667 104.72 78.86C104.72 79.6467 104.767 80.3733 104.86 81.04C104.967 81.7067 105.107 82.2867 105.28 82.78C105.453 83.2733 105.653 83.66 105.88 83.94C106.12 84.2067 106.373 84.34 106.64 84.34C106.907 84.34 107.2 84.22 107.52 83.98C107.853 83.74 108.193 83.4133 108.54 83C108.9 82.5733 109.24 82.0933 109.56 81.56C109.88 81.0133 110.153 80.4467 110.38 79.86L113.28 81.38C112.933 82.3 112.5 83.1533 111.98 83.94C111.473 84.7267 110.907 85.4133 110.28 86C109.653 86.5867 109.007 87.04 108.34 87.36C107.673 87.68 107.007 87.84 106.34 87.84ZM115.82 85.86C115.82 84.34 115.72 82.8267 115.52 81.32C115.333 79.8133 115.053 78.3533 114.68 76.94C114.32 75.5267 113.873 74.2067 113.34 72.98L116.36 72.12C116.96 73.3867 117.46 74.76 117.86 76.24C118.273 77.7067 118.58 79.2467 118.78 80.86C118.993 82.4733 119.1 84.14 119.1 85.86H115.82ZM125.84 84.68C127.813 84.68 129.393 84.5667 130.58 84.34C131.767 84.1 132.62 83.7267 133.14 83.22C133.673 82.7133 133.94 82.0467 133.94 81.22C133.94 80.34 133.66 79.7 133.1 79.3C132.553 78.9 131.673 78.7 130.46 78.7C129.927 78.7 129.34 78.7467 128.7 78.84C128.06 78.92 127.313 79.0467 126.46 79.22C125.62 79.38 124.62 79.6067 123.46 79.9L122.88 76.94C124.64 76.5533 126.153 76.2667 127.42 76.08C128.687 75.8933 129.767 75.8 130.66 75.8C132.767 75.8 134.367 76.24 135.46 77.12C136.553 78 137.1 79.28 137.1 80.96C137.1 83.12 136.167 84.7533 134.3 85.86C132.447 86.9667 129.693 87.52 126.04 87.52L125.84 84.68ZM153.94 87.9C152.26 87.9 150.8 87.62 149.56 87.06C148.32 86.5133 147.36 85.7333 146.68 84.72C146 83.7067 145.66 82.5133 145.66 81.14C145.66 80.18 145.82 79.2867 146.14 78.46C146.46 77.6333 146.92 76.9 147.52 76.26C148.133 75.6067 148.86 75.0867 149.7 74.7L150.02 75.34L141.32 75.54V72.64L158.38 72.24V75.14L155.82 75.2C154.9 75.2133 154.033 75.3533 153.22 75.62C152.407 75.8867 151.693 76.2667 151.08 76.76C150.467 77.24 149.987 77.82 149.64 78.5C149.307 79.18 149.14 79.9467 149.14 80.8C149.14 81.68 149.327 82.4267 149.7 83.04C150.073 83.64 150.62 84.1067 151.34 84.44C152.073 84.76 152.947 84.92 153.96 84.92C154.333 84.92 154.753 84.9 155.22 84.86C155.687 84.82 156.12 84.76 156.52 84.68L156.88 87.66C156.387 87.74 155.88 87.8 155.36 87.84C154.853 87.88 154.38 87.9 153.94 87.9ZM165.46 88.72C164.833 87.88 164.16 87.0933 163.44 86.36C162.72 85.6267 161.933 84.9533 161.08 84.34L163.34 82.18C164.167 82.8333 164.96 83.5467 165.72 84.32C166.48 85.0933 167.187 85.9133 167.84 86.78L165.46 88.72ZM189.62 88.14C188.007 88.14 186.693 87.8933 185.68 87.4C184.667 86.92 183.92 86.1667 183.44 85.14C182.973 84.1 182.74 82.7667 182.74 81.14V71.6H186.06V81.14C186.06 82.54 186.333 83.5467 186.88 84.16C187.427 84.76 188.34 85.06 189.62 85.06C190.58 85.06 191.427 84.88 192.16 84.52C192.893 84.16 193.567 83.5667 194.18 82.74C194.807 81.9133 195.427 80.7933 196.04 79.38L198.96 80.64C198.4 82.0267 197.813 83.2 197.2 84.16C196.6 85.1067 195.933 85.8733 195.2 86.46C194.467 87.0467 193.64 87.4733 192.72 87.74C191.813 88.0067 190.78 88.14 189.62 88.14ZM214.72 89.1C213.933 88.5667 213.2 88.0733 212.52 87.62C211.853 87.18 211.193 86.76 210.54 86.36C209.9 85.9467 209.227 85.5267 208.52 85.1C207.813 84.6733 207.027 84.2 206.16 83.68C205.253 83.1333 204.52 82.68 203.96 82.32C203.413 81.96 202.993 81.6467 202.7 81.38C202.42 81.1 202.233 80.8267 202.14 80.56C202.047 80.28 202 79.96 202 79.6C202 79.2267 202.053 78.9 202.16 78.62C202.267 78.3267 202.467 78.0467 202.76 77.78C203.053 77.5 203.473 77.1933 204.02 76.86C204.58 76.5133 205.3 76.1 206.18 75.62C207.047 75.1533 207.953 74.6533 208.9 74.12C209.847 73.5733 210.78 73.0267 211.7 72.48C212.62 71.92 213.453 71.3933 214.2 70.9L215.96 73.54C215.507 73.82 214.987 74.1333 214.4 74.48C213.813 74.8133 213.2 75.16 212.56 75.52C211.933 75.88 211.313 76.2267 210.7 76.56C210.1 76.88 209.56 77.1733 209.08 77.44C208.613 77.6933 208.24 77.8933 207.96 78.04C207.373 78.3467 206.913 78.5933 206.58 78.78C206.26 78.9667 206.04 79.12 205.92 79.24C205.8 79.36 205.74 79.48 205.74 79.6C205.74 79.7333 205.78 79.8533 205.86 79.96C205.94 80.0533 206.127 80.1867 206.42 80.36C206.713 80.5333 207.167 80.8 207.78 81.16C208.087 81.32 208.5 81.5533 209.02 81.86C209.553 82.1533 210.147 82.4933 210.8 82.88C211.467 83.2667 212.14 83.6667 212.82 84.08C213.513 84.4933 214.18 84.9067 214.82 85.32C215.473 85.7333 216.053 86.1133 216.56 86.46L214.72 89.1ZM225.96 87.96C225.293 87.96 224.66 87.8133 224.06 87.52C223.46 87.2267 222.92 86.8333 222.44 86.34C221.973 85.8333 221.607 85.2667 221.34 84.64C221.073 84.0133 220.94 83.3533 220.94 82.66C220.94 81.58 221.28 80.66 221.96 79.9C222.653 79.14 223.647 78.5533 224.94 78.14C226.233 77.7267 227.773 77.52 229.56 77.52C231.36 77.52 233.073 77.7533 234.7 78.22C236.34 78.6867 237.947 79.4 239.52 80.36L238.4 83.1C237.387 82.4333 236.407 81.9 235.46 81.5C234.527 81.0867 233.58 80.7933 232.62 80.62C231.673 80.4333 230.653 80.34 229.56 80.34C227.8 80.34 226.433 80.5467 225.46 80.96C224.487 81.36 224 81.9267 224 82.66C224 82.9 224.04 83.14 224.12 83.38C224.213 83.62 224.34 83.84 224.5 84.04C224.66 84.24 224.827 84.4067 225 84.54C225.173 84.66 225.353 84.72 225.54 84.72C225.913 84.72 226.247 84.4867 226.54 84.02C226.833 83.54 227.08 82.8467 227.28 81.94C227.48 81.02 227.627 79.88 227.72 78.52C227.827 77.16 227.88 75.5867 227.88 73.8L228.66 74.72H221.86V71.98H231.22V72.18C231.22 74.9 231.113 77.2533 230.9 79.24C230.7 81.2267 230.387 82.8667 229.96 84.16C229.533 85.44 228.987 86.3933 228.32 87.02C227.653 87.6467 226.867 87.96 225.96 87.96ZM231.08 86.04C231.56 85.68 231.96 85.3333 232.28 85C232.6 84.6533 232.86 84.26 233.06 83.82C233.26 83.3667 233.407 82.8133 233.5 82.16C233.607 81.5067 233.673 80.7067 233.7 79.76C233.74 78.8 233.76 77.6267 233.76 76.24V72.54H236.92V76.42C236.92 77.9667 236.887 79.3 236.82 80.42C236.767 81.54 236.667 82.5067 236.52 83.32C236.373 84.12 236.167 84.8133 235.9 85.4C235.647 85.9733 235.313 86.4933 234.9 86.96C234.487 87.4267 233.98 87.8867 233.38 88.34L231.08 86.04ZM251.28 84.04C251.28 82.56 251.207 81.4133 251.06 80.6C250.927 79.7733 250.687 79.2 250.34 78.88C249.993 78.56 249.5 78.4 248.86 78.4C248.247 78.4 247.66 78.54 247.1 78.82C246.553 79.1 246 79.5533 245.44 80.18C244.88 80.7933 244.28 81.6133 243.64 82.64L240.98 81.12C241.66 80.1333 242.253 79.22 242.76 78.38C243.267 77.54 243.72 76.72 244.12 75.92C244.533 75.1067 244.907 74.2667 245.24 73.4C245.587 72.5333 245.927 71.5867 246.26 70.56L249.48 71.08C249.093 72.2267 248.68 73.2933 248.24 74.28C247.813 75.2533 247.353 76.2 246.86 77.12L246.44 76.86C246.96 76.6067 247.52 76.42 248.12 76.3C248.72 76.1667 249.3 76.1 249.86 76.1C250.967 76.1 251.86 76.3667 252.54 76.9C253.233 77.4333 253.733 78.2867 254.04 79.46C254.36 80.62 254.52 82.1467 254.52 84.04H251.28ZM251.38 88.38C249.3 88.38 247.673 88.0467 246.5 87.38C245.34 86.7267 244.76 85.8067 244.76 84.62C244.76 83.7933 245.047 83 245.62 82.24C246.193 81.48 247.033 80.7733 248.14 80.12C249.26 79.4533 250.62 78.8533 252.22 78.32C253.833 77.7867 255.66 77.3267 257.7 76.94L258.16 79.58C256.587 79.8867 255.173 80.2267 253.92 80.6C252.667 80.9733 251.593 81.3667 250.7 81.78C249.82 82.1933 249.147 82.6133 248.68 83.04C248.213 83.4667 247.98 83.8933 247.98 84.32C247.98 84.7733 248.273 85.12 248.86 85.36C249.447 85.6 250.3 85.72 251.42 85.72C252.18 85.72 253.06 85.6667 254.06 85.56C255.073 85.44 256.233 85.2733 257.54 85.06L257.94 87.76C257.247 87.88 256.5 87.9867 255.7 88.08C254.913 88.1733 254.14 88.2467 253.38 88.3C252.633 88.3533 251.967 88.38 251.38 88.38ZM241.14 75.04V72.46H257.24V75.04H241.14ZM262.62 88.82L260.8 86.4C261.693 85.7467 262.44 85.0067 263.04 84.18C263.653 83.34 264.107 82.4067 264.4 81.38C264.707 80.34 264.86 79.1933 264.86 77.94V74.56H262.96V71.96H269.76V74.56H267.96V77.94C267.96 79.0467 267.82 80.1467 267.54 81.24C267.273 82.3333 266.893 83.3667 266.4 84.34C265.907 85.3133 265.333 86.1867 264.68 86.96C264.04 87.7333 263.353 88.3533 262.62 88.82ZM268.52 87.68C267.947 86.6667 267.36 85.6667 266.76 84.68C266.16 83.6933 265.54 82.7067 264.9 81.72L267.2 80.48C267.893 81.4533 268.54 82.4067 269.14 83.34C269.74 84.2733 270.3 85.1733 270.82 86.04L268.52 87.68ZM260.88 80.38V77.7H270.38V80.38H260.88ZM263.06 77.42L260.56 76.38C260.947 75.5 261.3 74.52 261.62 73.44C261.953 72.36 262.233 71.2467 262.46 70.1L265.14 70.52C264.94 71.7733 264.66 72.9933 264.3 74.18C263.953 75.3533 263.54 76.4333 263.06 77.42ZM270.46 88.52V71.64H278.92V88.52H275.9V87.46H273.38V84.86H275.9V74.32H273.38V88.52H270.46ZM56.08 123.74C55.12 123.74 54.4267 123.493 54 123C53.5733 122.493 53.36 121.68 53.36 120.56V113.74C53.36 113.047 53.28 112.54 53.12 112.22C52.9733 111.887 52.74 111.72 52.42 111.72C52.22 111.72 51.9733 111.793 51.68 111.94C51.4 112.087 51.0267 112.347 50.56 112.72C50.0933 113.08 49.4933 113.593 48.76 114.26C48.0267 114.913 47.12 115.76 46.04 116.8H45.7C45.18 117.333 44.6 117.933 43.96 118.6C43.32 119.253 42.6133 119.98 41.84 120.78L40.18 118.14C41.9 116.513 43.3733 115.147 44.6 114.04C45.84 112.92 46.8933 112.007 47.76 111.3C48.6267 110.58 49.3667 110.027 49.98 109.64C50.5933 109.253 51.1333 108.993 51.6 108.86C52.08 108.713 52.5467 108.64 53 108.64C54.2 108.64 55.1 108.993 55.7 109.7C56.3 110.393 56.6 111.44 56.6 112.84V118.94C56.6 119.42 56.6133 119.787 56.64 120.04C56.6667 120.28 56.7067 120.44 56.76 120.52C56.8267 120.6 56.92 120.64 57.04 120.64C57.2533 120.64 57.5467 120.567 57.92 120.42C58.3067 120.273 58.7533 120.067 59.26 119.8L59.9 122.7C59.3 123.033 58.6733 123.287 58.02 123.46C57.3667 123.647 56.72 123.74 56.08 123.74ZM44.68 124.44V112.56H40.44V109.84H44.68V107.16H47.84V124.44H44.68ZM69.6 124.46C67.5733 124.46 65.9933 124.12 64.86 123.44C63.74 122.76 63.18 121.813 63.18 120.6C63.18 119.56 63.6133 118.753 64.48 118.18C65.36 117.593 66.56 117.3 68.08 117.3C69.4533 117.3 70.48 117.553 71.16 118.06C71.84 118.553 72.18 119.3 72.18 120.3C72.18 120.66 72.14 121.04 72.06 121.44C71.98 121.84 71.8667 122.227 71.72 122.6L68.98 122.32C69.1267 121.947 69.24 121.62 69.32 121.34C69.4 121.047 69.44 120.807 69.44 120.62C69.44 119.94 68.9133 119.6 67.86 119.6C67.3133 119.6 66.8933 119.687 66.6 119.86C66.3067 120.02 66.16 120.26 66.16 120.58C66.16 121.033 66.4133 121.38 66.92 121.62C67.4267 121.86 68.18 121.98 69.18 121.98C71.1533 121.98 72.5933 121.707 73.5 121.16C74.42 120.613 74.88 119.767 74.88 118.62C74.88 117.607 74.5067 116.873 73.76 116.42C73.0267 115.953 71.82 115.72 70.14 115.72C69.18 115.72 68.34 115.8 67.62 115.96C66.9 116.12 66.2133 116.367 65.56 116.7L63.08 118.04L61.8 115.56L72.2 110.24V110.66H63V107.94H77.12V110.66L66.86 116.02L65.2 114.56C65.6533 114.413 66.1733 114.273 66.76 114.14C67.3467 114.007 67.9533 113.887 68.58 113.78C69.2067 113.673 69.8133 113.593 70.4 113.54C70.9867 113.473 71.5067 113.44 71.96 113.44C73.96 113.44 75.5 113.873 76.58 114.74C77.66 115.593 78.2 116.82 78.2 118.42C78.2 120.353 77.4533 121.847 75.96 122.9C74.4667 123.94 72.3467 124.46 69.6 124.46ZM90.2 123.96C88.6 123.96 87.2067 123.773 86.02 123.4C84.8333 123.04 83.9133 122.527 83.26 121.86C82.62 121.193 82.3 120.407 82.3 119.5C82.3 118.753 82.5333 117.953 83 117.1C83.4667 116.247 84.1867 115.293 85.16 114.24L88.16 115.4C87.3733 116.2 86.7733 116.927 86.36 117.58C85.9467 118.22 85.74 118.747 85.74 119.16C85.74 119.547 85.9133 119.887 86.26 120.18C86.62 120.46 87.1333 120.68 87.8 120.84C88.48 120.987 89.28 121.06 90.2 121.06C90.84 121.06 91.5467 121.02 92.32 120.94C93.1067 120.86 93.8933 120.747 94.68 120.6C95.48 120.453 96.2067 120.287 96.86 120.1L97.48 123C96.8267 123.173 96.0733 123.333 95.22 123.48C94.3667 123.64 93.5 123.76 92.62 123.84C91.7533 123.92 90.9467 123.96 90.2 123.96ZM83.3 111.14V108.24H96.9V111.14H83.3ZM110 124.28C107.453 124.28 105.52 123.867 104.2 123.04C102.88 122.213 102.22 121.007 102.22 119.42C102.22 118.087 102.7 116.88 103.66 115.8C104.633 114.707 106.133 113.713 108.16 112.82C110.2 111.913 112.82 111.067 116.02 110.28L116.76 113.18C114.213 113.807 112.113 114.447 110.46 115.1C108.82 115.74 107.6 116.4 106.8 117.08C106 117.747 105.6 118.447 105.6 119.18C105.6 120.633 107.133 121.36 110.2 121.36C110.733 121.36 111.28 121.34 111.84 121.3C112.413 121.26 113.087 121.187 113.86 121.08C114.647 120.96 115.6 120.813 116.72 120.64L117.12 123.54C115.773 123.78 114.513 123.96 113.34 124.08C112.167 124.213 111.053 124.28 110 124.28ZM105.8 115.36C105.427 114.04 105.1 112.733 104.82 111.44C104.553 110.147 104.347 108.9 104.2 107.7L107.52 107.2C107.667 108.4 107.873 109.633 108.14 110.9C108.42 112.153 108.747 113.38 109.12 114.58L105.8 115.36ZM120.72 123.48C121.2 122.147 121.62 120.94 121.98 119.86C122.353 118.767 122.68 117.733 122.96 116.76C123.253 115.773 123.513 114.787 123.74 113.8C123.98 112.8 124.207 111.733 124.42 110.6C124.633 109.453 124.86 108.167 125.1 106.74L128.24 107.08C128.04 108.427 127.833 109.68 127.62 110.84C127.407 111.987 127.173 113.093 126.92 114.16C126.667 115.213 126.38 116.273 126.06 117.34C125.753 118.407 125.407 119.513 125.02 120.66C124.633 121.807 124.193 123.06 123.7 124.42L120.72 123.48ZM136.66 120.82C136.567 120.033 136.433 119.187 136.26 118.28C136.1 117.373 135.913 116.46 135.7 115.54C135.5 114.62 135.28 113.74 135.04 112.9L138.08 112.1C138.32 112.98 138.547 113.887 138.76 114.82C138.973 115.74 139.167 116.667 139.34 117.6C139.513 118.52 139.653 119.407 139.76 120.26L136.66 120.82ZM134.94 111.92C134.607 111.213 134.26 110.573 133.9 110C133.553 109.413 133.167 108.82 132.74 108.22L134.68 107.14C135.12 107.713 135.513 108.307 135.86 108.92C136.207 109.533 136.547 110.207 136.88 110.94L134.94 111.92ZM137.86 110.84C137.54 110.12 137.213 109.467 136.88 108.88C136.56 108.28 136.193 107.687 135.78 107.1L137.7 106.1C138.127 106.7 138.5 107.307 138.82 107.92C139.153 108.533 139.48 109.213 139.8 109.96L137.86 110.84ZM130.48 123.86C130.12 123.86 129.68 123.82 129.16 123.74C128.64 123.673 128.1 123.573 127.54 123.44C126.98 123.307 126.447 123.153 125.94 122.98L126.64 120.32C127.04 120.427 127.427 120.533 127.8 120.64C128.173 120.733 128.513 120.807 128.82 120.86C129.127 120.913 129.367 120.94 129.54 120.94C129.9 120.94 130.18 120.793 130.38 120.5C130.593 120.207 130.74 119.7 130.82 118.98C130.913 118.247 130.96 117.233 130.96 115.94C130.96 115.26 130.933 114.713 130.88 114.3C130.827 113.873 130.733 113.547 130.6 113.32C130.467 113.093 130.273 112.94 130.02 112.86C129.767 112.78 129.427 112.74 129 112.74H120.56V109.92H128.66C129.673 109.92 130.513 109.96 131.18 110.04C131.847 110.12 132.38 110.28 132.78 110.52C133.18 110.747 133.48 111.1 133.68 111.58C133.893 112.047 134.033 112.673 134.1 113.46C134.167 114.233 134.2 115.2 134.2 116.36C134.2 118.173 134.073 119.633 133.82 120.74C133.58 121.833 133.187 122.627 132.64 123.12C132.107 123.613 131.387 123.86 130.48 123.86ZM148.36 124.94V119.74H141.1V117.14H148.36V116.3H148.34V114.26H151.66V113.12H148.34V111.16H151.66V110.06H148.34V116.3H145.32V107.74H154.68V116.3H151.64V117.14H158.9V119.74H151.64V124.94H148.36ZM141.54 124.72L140.36 122.18C142.147 121.713 143.687 121.213 144.98 120.68C146.287 120.133 147.387 119.567 148.28 118.98L150.16 120.12C149.173 120.987 147.96 121.813 146.52 122.6C145.08 123.387 143.42 124.093 141.54 124.72ZM141.22 116.54L140.34 114.04C141.127 113.773 141.873 113.507 142.58 113.24C143.287 112.96 143.953 112.68 144.58 112.4L145.48 114.82C144.84 115.127 144.167 115.427 143.46 115.72C142.767 116.013 142.02 116.287 141.22 116.54ZM158.46 124.72C156.58 124.093 154.92 123.387 153.48 122.6C152.04 121.813 150.827 120.987 149.84 120.12L151.72 118.98C152.613 119.567 153.713 120.133 155.02 120.68C156.327 121.213 157.867 121.713 159.64 122.18L158.46 124.72ZM143.76 112C143.333 111.613 142.84 111.187 142.28 110.72C141.72 110.24 141.107 109.767 140.44 109.3L142.14 107.26C142.78 107.727 143.387 108.2 143.96 108.68C144.533 109.16 145.033 109.593 145.46 109.98L143.76 112ZM150.74 109.58L147.48 109.38C147.627 108.9 147.767 108.407 147.9 107.9C148.047 107.393 148.173 106.847 148.28 106.26L151.54 106.44C151.433 107.027 151.307 107.58 151.16 108.1C151.027 108.607 150.887 109.1 150.74 109.58ZM158.62 116.54C157.953 116.22 157.267 115.92 156.56 115.64C155.853 115.347 155.12 115.073 154.36 114.82L155.42 112.4C156.22 112.653 156.973 112.913 157.68 113.18C158.387 113.447 159.053 113.733 159.68 114.04L158.62 116.54ZM156.24 111.92L154.46 109.98C155.02 109.567 155.587 109.127 156.16 108.66C156.733 108.18 157.273 107.713 157.78 107.26L159.56 109.2C159.133 109.627 158.633 110.073 158.06 110.54C157.487 110.993 156.88 111.453 156.24 111.92ZM169.62 124.14C168.007 124.14 166.693 123.893 165.68 123.4C164.667 122.92 163.92 122.167 163.44 121.14C162.973 120.1 162.74 118.767 162.74 117.14V107.6H166.06V117.14C166.06 118.54 166.333 119.547 166.88 120.16C167.427 120.76 168.34 121.06 169.62 121.06C170.58 121.06 171.427 120.88 172.16 120.52C172.893 120.16 173.567 119.567 174.18 118.74C174.807 117.913 175.427 116.793 176.04 115.38L178.96 116.64C178.4 118.027 177.813 119.2 177.2 120.16C176.6 121.107 175.933 121.873 175.2 122.46C174.467 123.047 173.64 123.473 172.72 123.74C171.813 124.007 170.78 124.14 169.62 124.14ZM186.34 123.84C185.607 123.84 184.94 123.633 184.34 123.22C183.74 122.807 183.22 122.22 182.78 121.46C182.353 120.7 182.02 119.793 181.78 118.74C181.553 117.687 181.44 116.52 181.44 115.24C181.44 114.227 181.527 113.173 181.7 112.08C181.873 110.987 182.14 109.787 182.5 108.48L185.7 108.84C185.367 110.013 185.12 111.087 184.96 112.06C184.8 113.033 184.72 113.967 184.72 114.86C184.72 115.647 184.767 116.373 184.86 117.04C184.967 117.707 185.107 118.287 185.28 118.78C185.453 119.273 185.653 119.66 185.88 119.94C186.12 120.207 186.373 120.34 186.64 120.34C186.907 120.34 187.2 120.22 187.52 119.98C187.853 119.74 188.193 119.413 188.54 119C188.9 118.573 189.24 118.093 189.56 117.56C189.88 117.013 190.153 116.447 190.38 115.86L193.28 117.38C192.933 118.3 192.5 119.153 191.98 119.94C191.473 120.727 190.907 121.413 190.28 122C189.653 122.587 189.007 123.04 188.34 123.36C187.673 123.68 187.007 123.84 186.34 123.84ZM195.82 121.86C195.82 120.34 195.72 118.827 195.52 117.32C195.333 115.813 195.053 114.353 194.68 112.94C194.32 111.527 193.873 110.207 193.34 108.98L196.36 108.12C196.96 109.387 197.46 110.76 197.86 112.24C198.273 113.707 198.58 115.247 198.78 116.86C198.993 118.473 199.1 120.14 199.1 121.86H195.82ZM204.7 124.9C203.94 124.9 203.273 124.74 202.7 124.42C202.127 124.1 201.68 123.653 201.36 123.08C201.053 122.52 200.9 121.86 200.9 121.1C200.9 120.34 201.053 119.673 201.36 119.1C201.68 118.527 202.127 118.087 202.7 117.78C203.273 117.46 203.94 117.3 204.7 117.3C205.46 117.3 206.12 117.46 206.68 117.78C207.253 118.087 207.7 118.527 208.02 119.1C208.34 119.673 208.5 120.34 208.5 121.1C208.5 121.86 208.34 122.52 208.02 123.08C207.7 123.653 207.253 124.1 206.68 124.42C206.12 124.74 205.46 124.9 204.7 124.9ZM204.7 122.58C205.153 122.58 205.513 122.447 205.78 122.18C206.047 121.9 206.18 121.54 206.18 121.1C206.18 120.647 206.047 120.287 205.78 120.02C205.513 119.753 205.153 119.62 204.7 119.62C204.26 119.62 203.9 119.753 203.62 120.02C203.353 120.287 203.22 120.647 203.22 121.1C203.22 121.54 203.353 121.9 203.62 122.18C203.9 122.447 204.26 122.58 204.7 122.58ZM42.34 160.56L40.96 158.72C41.84 158.08 42.5867 157.327 43.2 156.46C43.8267 155.593 44.3 154.62 44.62 153.54C44.9533 152.46 45.12 151.273 45.12 149.98V146.22H43.06V144.22H49.86V146.22H47.46V149.98C47.46 151.073 47.3267 152.147 47.06 153.2C46.8067 154.253 46.4467 155.253 45.98 156.2C45.5133 157.147 44.9733 157.993 44.36 158.74C43.7467 159.487 43.0733 160.093 42.34 160.56ZM48.7 159.34C48.1133 158.327 47.5 157.3 46.86 156.26C46.2333 155.22 45.5867 154.18 44.92 153.14L46.72 152.14C47.44 153.18 48.1133 154.2 48.74 155.2C49.38 156.2 49.98 157.16 50.54 158.08L48.7 159.34ZM41 151.92V149.86H50.22V151.92H41ZM42.7 149.44L40.78 148.66C41.2067 147.767 41.6 146.767 41.96 145.66C42.32 144.553 42.6133 143.413 42.84 142.24L44.88 142.56C44.6667 143.813 44.3733 145.033 44 146.22C43.6267 147.393 43.1933 148.467 42.7 149.44ZM50.68 160.4V143.84H58.8V160.4H56.5V159.24H52.92V157.24H56.5V145.9H52.92V160.4H50.68ZM76.36 159.48C75.52 159.48 74.9 159.26 74.5 158.82C74.1133 158.367 73.92 157.647 73.92 156.66V149.36C73.92 148.56 73.82 147.973 73.62 147.6C73.4333 147.227 73.1333 147.04 72.72 147.04C72.4667 147.04 72.1667 147.127 71.82 147.3C71.4733 147.46 71.04 147.733 70.52 148.12C70.0133 148.507 69.3933 149.033 68.66 149.7C67.9267 150.353 67.0467 151.173 66.02 152.16H65.8C65.24 152.733 64.6067 153.373 63.9 154.08C63.2067 154.787 62.4467 155.573 61.62 156.44L60.32 154.5C62.0133 152.86 63.4667 151.473 64.68 150.34C65.8933 149.207 66.9333 148.28 67.8 147.56C68.6667 146.84 69.4 146.28 70 145.88C70.6133 145.48 71.1533 145.207 71.62 145.06C72.1 144.913 72.5667 144.84 73.02 144.84C74.1 144.84 74.9133 145.173 75.46 145.84C76.02 146.493 76.3 147.46 76.3 148.74V155.52C76.3 156 76.3133 156.367 76.34 156.62C76.38 156.873 76.4333 157.047 76.5 157.14C76.58 157.22 76.6933 157.26 76.84 157.26C77.08 157.26 77.4067 157.18 77.82 157.02C78.2467 156.86 78.7133 156.633 79.22 156.34L79.9 158.38C79.3 158.74 78.7 159.013 78.1 159.2C77.5 159.387 76.92 159.48 76.36 159.48ZM64.96 160.34V148.22H60.48V146.18H64.96V143.26H67.28V160.34H64.96ZM90.18 159.94C88.74 159.94 87.6133 159.62 86.8 158.98C86 158.327 85.6 157.42 85.6 156.26C85.6 155.073 86 154.16 86.8 153.52C87.6 152.88 88.7267 152.56 90.18 152.56C90.82 152.56 91.4267 152.64 92 152.8C92.5867 152.947 93.1933 153.213 93.82 153.6C94.4467 153.987 95.1533 154.52 95.94 155.2C96.7267 155.867 97.64 156.72 98.68 157.76L97.22 159.34C96.2733 158.38 95.4533 157.593 94.76 156.98C94.0667 156.353 93.46 155.867 92.94 155.52C92.42 155.173 91.9333 154.933 91.48 154.8C91.0267 154.653 90.5533 154.58 90.06 154.58C88.5133 154.58 87.74 155.14 87.74 156.26C87.74 157.367 88.5133 157.92 90.06 157.92C90.8867 157.92 91.4733 157.747 91.82 157.4C92.18 157.04 92.36 156.453 92.36 155.64V147.52H91.8V143.38H94.12V147.52H94.68V155.74C94.68 157.14 94.3 158.193 93.54 158.9C92.78 159.593 91.66 159.94 90.18 159.94ZM81.96 160.3C81.6133 158.927 81.36 157.573 81.2 156.24C81.04 154.907 80.96 153.493 80.96 152C80.96 150.52 81.04 149.12 81.2 147.8C81.36 146.467 81.6133 145.113 81.96 143.74L84.32 144.04C84 145.333 83.76 146.633 83.6 147.94C83.4533 149.233 83.38 150.587 83.38 152C83.38 153.413 83.4533 154.773 83.6 156.08C83.76 157.387 84 158.673 84.32 159.94L81.96 160.3ZM85.66 148.54V146.52H98.38V148.54H85.66ZM95.26 146.1C95.14 145.46 95.0067 144.853 94.86 144.28C94.7133 143.707 94.54 143.133 94.34 142.56L96.2 142.1C96.4267 142.673 96.6133 143.253 96.76 143.84C96.9067 144.427 97.0333 145.06 97.14 145.74L95.26 146.1ZM98.04 145.88C97.9333 145.227 97.8067 144.613 97.66 144.04C97.5267 143.467 97.36 142.893 97.16 142.32L99.04 141.9C99.24 142.473 99.4067 143.06 99.54 143.66C99.6867 144.247 99.8067 144.873 99.9 145.54L98.04 145.88ZM102.34 160.56L100.96 158.72C101.84 158.08 102.587 157.327 103.2 156.46C103.827 155.593 104.3 154.62 104.62 153.54C104.953 152.46 105.12 151.273 105.12 149.98V146.22H103.06V144.22H109.86V146.22H107.46V149.98C107.46 151.073 107.327 152.147 107.06 153.2C106.807 154.253 106.447 155.253 105.98 156.2C105.513 157.147 104.973 157.993 104.36 158.74C103.747 159.487 103.073 160.093 102.34 160.56ZM108.7 159.34C108.113 158.327 107.5 157.3 106.86 156.26C106.233 155.22 105.587 154.18 104.92 153.14L106.72 152.14C107.44 153.18 108.113 154.2 108.74 155.2C109.38 156.2 109.98 157.16 110.54 158.08L108.7 159.34ZM101 151.92V149.86H110.22V151.92H101ZM102.7 149.44L100.78 148.66C101.207 147.767 101.6 146.767 101.96 145.66C102.32 144.553 102.613 143.413 102.84 142.24L104.88 142.56C104.667 143.813 104.373 145.033 104 146.22C103.627 147.393 103.193 148.467 102.7 149.44ZM110.68 160.4V143.84H118.8V160.4H116.5V159.24H112.92V157.24H116.5V145.9H112.92V160.4H110.68ZM129.54 160.26C127.567 160.26 126.033 159.94 124.94 159.3C123.86 158.66 123.32 157.76 123.32 156.6C123.32 155.613 123.727 154.847 124.54 154.3C125.367 153.74 126.5 153.46 127.94 153.46C129.3 153.46 130.32 153.713 131 154.22C131.68 154.713 132.02 155.46 132.02 156.46C132.02 156.82 131.967 157.207 131.86 157.62C131.767 158.033 131.627 158.46 131.44 158.9L129.24 158.66C129.427 158.207 129.56 157.82 129.64 157.5C129.733 157.18 129.78 156.9 129.78 156.66C129.78 155.753 129.113 155.3 127.78 155.3C127.1 155.3 126.567 155.413 126.18 155.64C125.807 155.853 125.62 156.167 125.62 156.58C125.62 157.14 125.947 157.587 126.6 157.92C127.253 158.24 128.14 158.4 129.26 158.4C131.407 158.4 133 158.087 134.04 157.46C135.093 156.82 135.62 155.847 135.62 154.54C135.62 153.433 135.207 152.62 134.38 152.1C133.567 151.58 132.267 151.32 130.48 151.32C129.453 151.32 128.547 151.413 127.76 151.6C126.973 151.773 126.247 152.047 125.58 152.42L122.94 153.94L121.98 152.1L133.34 145.78V146.16H123.16V144.14H136.84V146.16L127.08 151.54L125.84 150.52C126.253 150.373 126.713 150.24 127.22 150.12C127.74 149.987 128.267 149.88 128.8 149.8C129.347 149.707 129.873 149.633 130.38 149.58C130.887 149.513 131.347 149.48 131.76 149.48C133.787 149.48 135.34 149.907 136.42 150.76C137.5 151.613 138.04 152.827 138.04 154.4C138.04 156.28 137.3 157.727 135.82 158.74C134.353 159.753 132.26 160.26 129.54 160.26ZM150.96 159.82C149.52 159.82 148.407 159.513 147.62 158.9C146.847 158.287 146.46 157.42 146.46 156.3C146.46 155.18 146.847 154.333 147.62 153.76C148.407 153.173 149.52 152.88 150.96 152.88C151.64 152.88 152.273 152.953 152.86 153.1C153.447 153.247 154.04 153.493 154.64 153.84C155.253 154.187 155.92 154.673 156.64 155.3C157.373 155.913 158.207 156.687 159.14 157.62L157.68 159.08C156.84 158.24 156.1 157.54 155.46 156.98C154.82 156.42 154.24 155.98 153.72 155.66C153.213 155.34 152.727 155.113 152.26 154.98C151.807 154.847 151.333 154.78 150.84 154.78C149.413 154.78 148.7 155.287 148.7 156.3C148.7 157.287 149.38 157.78 150.74 157.78C151.54 157.78 152.107 157.607 152.44 157.26C152.773 156.9 152.94 156.307 152.94 155.48V146.12H146.62V144.1H158.64V146.12H155.2V155.6C155.2 157.027 154.853 158.087 154.16 158.78C153.48 159.473 152.413 159.82 150.96 159.82ZM146.62 150.6V148.62H158.64V150.6H146.62ZM142.78 160.1C142.46 158.727 142.22 157.373 142.06 156.04C141.9 154.707 141.82 153.293 141.82 151.8C141.82 150.32 141.9 148.92 142.06 147.6C142.22 146.267 142.46 144.913 142.78 143.54L145.12 143.84C144.8 145.133 144.567 146.433 144.42 147.74C144.273 149.033 144.2 150.387 144.2 151.8C144.2 153.213 144.273 154.573 144.42 155.88C144.567 157.187 144.8 158.473 145.12 159.74L142.78 160.1ZM169.5 160.28C167.007 160.28 165.113 159.933 163.82 159.24C162.527 158.56 161.88 157.467 161.88 155.96C161.88 154.773 162.34 153.693 163.26 152.72C164.193 151.733 165.633 150.827 167.58 150C169.54 149.173 172.067 148.387 175.16 147.64L175.72 149.76C173.12 150.4 170.98 151.033 169.3 151.66C167.633 152.287 166.393 152.94 165.58 153.62C164.78 154.287 164.38 154.993 164.38 155.74C164.38 156.593 164.813 157.207 165.68 157.58C166.56 157.94 167.88 158.12 169.64 158.12C170.213 158.12 170.813 158.1 171.44 158.06C172.067 158.007 172.767 157.933 173.54 157.84C174.327 157.747 175.22 157.627 176.22 157.48L176.52 159.62C175.24 159.833 174.007 159.993 172.82 160.1C171.647 160.22 170.54 160.28 169.5 160.28ZM165.7 151.34C165.313 150.033 164.987 148.753 164.72 147.5C164.453 146.233 164.24 144.98 164.08 143.74L166.5 143.38C166.673 144.62 166.893 145.86 167.16 147.1C167.427 148.327 167.747 149.547 168.12 150.76L165.7 151.34ZM173.96 147.42C173.613 146.7 173.273 146.053 172.94 145.48C172.607 144.893 172.233 144.327 171.82 143.78L173.46 142.8C173.887 143.373 174.267 143.967 174.6 144.58C174.947 145.193 175.293 145.86 175.64 146.58L173.96 147.42ZM176.82 146.48C176.513 145.733 176.193 145.073 175.86 144.5C175.54 143.913 175.187 143.347 174.8 142.8L176.42 141.9C176.847 142.487 177.227 143.087 177.56 143.7C177.893 144.313 178.213 144.987 178.52 145.72L176.82 146.48ZM185.5 160.58C184.887 159.767 184.227 159.007 183.52 158.3C182.813 157.58 182.047 156.913 181.22 156.3L182.86 154.66C183.687 155.3 184.473 156 185.22 156.76C185.967 157.507 186.66 158.313 187.3 159.18L185.5 160.58ZM209.64 160.04C208.12 160.04 206.873 159.8 205.9 159.32C204.94 158.853 204.227 158.127 203.76 157.14C203.307 156.153 203.08 154.887 203.08 153.34V143.6H205.52V153.34C205.52 154.9 205.847 156.033 206.5 156.74C207.153 157.433 208.2 157.78 209.64 157.78C210.693 157.78 211.62 157.587 212.42 157.2C213.233 156.813 213.967 156.187 214.62 155.32C215.287 154.44 215.927 153.273 216.54 151.82L218.76 152.72C218.227 154.053 217.653 155.187 217.04 156.12C216.44 157.04 215.78 157.793 215.06 158.38C214.353 158.953 213.553 159.373 212.66 159.64C211.767 159.907 210.76 160.04 209.64 160.04ZM222.96 160.18L220.88 159.42L227.36 143.14L229.56 143.78L226.08 152.38L225.34 151.9C226.007 151.353 226.673 150.927 227.34 150.62C228.02 150.313 228.68 150.16 229.32 150.16C229.813 150.16 230.24 150.267 230.6 150.48C230.96 150.68 231.267 150.98 231.52 151.38C231.773 151.767 231.987 152.24 232.16 152.8C232.347 153.36 232.513 154 232.66 154.72C232.78 155.28 232.9 155.767 233.02 156.18C233.153 156.593 233.32 156.913 233.52 157.14C233.733 157.367 234.007 157.48 234.34 157.48C234.927 157.48 235.453 157.1 235.92 156.34C236.387 155.567 236.827 154.347 237.24 152.68L239.34 153.38C238.993 154.86 238.587 156.073 238.12 157.02C237.653 157.953 237.1 158.647 236.46 159.1C235.82 159.567 235.08 159.8 234.24 159.8C233.667 159.8 233.173 159.7 232.76 159.5C232.36 159.3 232.013 159.007 231.72 158.62C231.427 158.233 231.173 157.767 230.96 157.22C230.76 156.66 230.587 156.033 230.44 155.34C230.307 154.753 230.16 154.247 230 153.82C229.853 153.393 229.66 153.067 229.42 152.84C229.193 152.613 228.887 152.5 228.5 152.5C228.247 152.5 227.953 152.553 227.62 152.66C227.287 152.767 226.947 152.947 226.6 153.2C226.267 153.44 225.94 153.773 225.62 154.2C225.3 154.613 225.013 155.133 224.76 155.76L222.96 160.18ZM249.5 160.28C247.007 160.28 245.113 159.933 243.82 159.24C242.527 158.56 241.88 157.467 241.88 155.96C241.88 154.773 242.34 153.693 243.26 152.72C244.193 151.733 245.633 150.827 247.58 150C249.54 149.173 252.067 148.387 255.16 147.64L255.72 149.76C253.12 150.4 250.98 151.033 249.3 151.66C247.633 152.287 246.393 152.94 245.58 153.62C244.78 154.287 244.38 154.993 244.38 155.74C244.38 156.593 244.813 157.207 245.68 157.58C246.56 157.94 247.88 158.12 249.64 158.12C250.213 158.12 250.813 158.1 251.44 158.06C252.067 158.007 252.767 157.933 253.54 157.84C254.327 157.747 255.22 157.627 256.22 157.48L256.52 159.62C255.24 159.833 254.007 159.993 252.82 160.1C251.647 160.22 250.54 160.28 249.5 160.28ZM245.7 151.34C245.313 150.033 244.987 148.753 244.72 147.5C244.453 146.233 244.24 144.98 244.08 143.74L246.5 143.38C246.673 144.62 246.893 145.86 247.16 147.1C247.427 148.327 247.747 149.547 248.12 150.76L245.7 151.34ZM253.96 147.42C253.613 146.7 253.273 146.053 252.94 145.48C252.607 144.893 252.233 144.327 251.82 143.78L253.46 142.8C253.887 143.373 254.267 143.967 254.6 144.58C254.947 145.193 255.293 145.86 255.64 146.58L253.96 147.42ZM256.82 146.48C256.513 145.733 256.193 145.073 255.86 144.5C255.54 143.913 255.187 143.347 254.8 142.8L256.42 141.9C256.847 142.487 257.227 143.087 257.56 143.7C257.893 144.313 258.213 144.987 258.52 145.72L256.82 146.48ZM266.42 159.58C265.74 159.58 265.113 159.373 264.54 158.96C263.967 158.533 263.467 157.94 263.04 157.18C262.613 156.42 262.28 155.527 262.04 154.5C261.813 153.46 261.7 152.34 261.7 151.14C261.7 150.167 261.78 149.14 261.94 148.06C262.113 146.967 262.373 145.82 262.72 144.62L265.06 144.9C264.753 146.007 264.52 147.06 264.36 148.06C264.2 149.06 264.12 150 264.12 150.88C264.12 151.72 264.187 152.513 264.32 153.26C264.453 154.007 264.633 154.66 264.86 155.22C265.1 155.78 265.367 156.22 265.66 156.54C265.967 156.86 266.287 157.02 266.62 157.02C266.94 157.02 267.287 156.887 267.66 156.62C268.047 156.34 268.44 155.967 268.84 155.5C269.24 155.033 269.613 154.5 269.96 153.9C270.32 153.3 270.62 152.673 270.86 152.02L273 153.1C272.667 154.007 272.253 154.853 271.76 155.64C271.267 156.427 270.72 157.12 270.12 157.72C269.533 158.307 268.92 158.76 268.28 159.08C267.64 159.413 267.02 159.58 266.42 159.58ZM276.46 157.64C276.46 156.12 276.353 154.607 276.14 153.1C275.94 151.593 275.64 150.147 275.24 148.76C274.853 147.373 274.387 146.1 273.84 144.94L276.06 144.28C276.673 145.493 277.18 146.82 277.58 148.26C277.993 149.687 278.307 151.193 278.52 152.78C278.747 154.353 278.86 155.973 278.86 157.64H276.46ZM56.96 196.74C56.4933 196.74 56.0333 196.573 55.58 196.24C55.14 195.907 54.74 195.393 54.38 194.7C54.02 194.007 53.72 193.107 53.48 192C53.2533 190.893 53.12 189.573 53.08 188.04H42.76V186.16H55.48V186.8C55.48 187.987 55.5267 189.033 55.62 189.94C55.7267 190.833 55.86 191.587 56.02 192.2C56.18 192.8 56.34 193.253 56.5 193.56C56.66 193.867 56.8067 194.02 56.94 194.02C56.98 194.02 57.02 194 57.06 193.96C57.1 193.907 57.14 193.8 57.18 193.64C57.22 193.467 57.26 193.213 57.3 192.88C57.3533 192.547 57.4067 192.107 57.46 191.56C57.5133 191 57.5667 190.307 57.62 189.48L59.64 189.82C59.56 191.313 59.4467 192.52 59.3 193.44C59.1667 194.347 58.9933 195.04 58.78 195.52C58.5667 196 58.3067 196.32 58 196.48C57.7067 196.653 57.36 196.74 56.96 196.74ZM42.06 196.9L41.06 195.1C42.9133 194.367 44.6733 193.413 46.34 192.24C48.02 191.053 49.4867 189.733 50.74 188.28L52.36 189.62C51.4933 190.66 50.5067 191.64 49.4 192.56C48.3067 193.48 47.14 194.307 45.9 195.04C44.66 195.773 43.38 196.393 42.06 196.9ZM51.58 196.64C50.3933 195.6 49.3 194.687 48.3 193.9C47.3 193.113 46.3467 192.407 45.44 191.78C44.5467 191.153 43.6467 190.58 42.74 190.06L43.92 188.44C44.88 188.987 45.82 189.573 46.74 190.2C47.66 190.827 48.6267 191.547 49.64 192.36C50.6667 193.16 51.78 194.093 52.98 195.16L51.58 196.64ZM42.48 186.18L40.64 184.96C41.4533 184.013 42.18 182.953 42.82 181.78C43.4733 180.593 43.9933 179.38 44.38 178.14L46.62 178.6C46.2067 180 45.64 181.353 44.92 182.66C44.2133 183.953 43.4 185.127 42.48 186.18ZM44.88 184.8V183H56.78V184.8H44.88ZM44.66 181.72V179.76H57.98V181.72H44.66ZM74.46 196.7C74.2333 196.7 73.9 196.687 73.46 196.66C73.0333 196.647 72.5333 196.627 71.96 196.6L71.86 194.64C72.3667 194.667 72.8133 194.687 73.2 194.7C73.5867 194.713 73.8667 194.72 74.04 194.72C74.3867 194.72 74.6333 194.707 74.78 194.68C74.9267 194.64 75.0133 194.547 75.04 194.4C75.0667 194.253 75.08 194.007 75.08 193.66V189.94H67.64V187.96H75.08V186.26H67.64V184.28H72.22V182.26H68.14V180.34H72.22V178.36H74.62V180.34H78.54V182.26H74.62V184.28H79.24V186.26H77.48V187.96H79.24V189.94H77.48V193.54C77.48 194.273 77.4467 194.847 77.38 195.26C77.3267 195.687 77.2 196 77 196.2C76.8 196.413 76.4933 196.547 76.08 196.6C75.68 196.667 75.14 196.7 74.46 196.7ZM61.08 190.96L60.92 188.86C61.6133 188.727 62.32 188.567 63.04 188.38C63.7733 188.193 64.48 187.993 65.16 187.78C65.8533 187.567 66.4867 187.353 67.06 187.14L67.38 189.14C66.7933 189.367 66.1333 189.593 65.4 189.82C64.68 190.047 63.9467 190.26 63.2 190.46C62.4533 190.66 61.7467 190.827 61.08 190.96ZM63.16 196.66C62.9733 196.66 62.7133 196.647 62.38 196.62C62.06 196.607 61.6667 196.587 61.2 196.56L61.1 194.64C61.5133 194.667 61.8667 194.687 62.16 194.7C62.4667 194.713 62.6933 194.72 62.84 194.72C62.9467 194.72 63.02 194.707 63.06 194.68C63.1133 194.653 63.14 194.573 63.14 194.44C63.1533 194.293 63.16 194.06 63.16 193.74V184.06H60.98V182.06H63.16V178.76H65.5V182.06H67.42V184.06H65.5V193.58C65.5 194.3 65.4733 194.86 65.42 195.26C65.38 195.673 65.28 195.98 65.12 196.18C64.96 196.393 64.72 196.527 64.4 196.58C64.0933 196.633 63.68 196.66 63.16 196.66ZM71.18 194.7C70.7267 194.193 70.24 193.673 69.72 193.14C69.2 192.607 68.6867 192.107 68.18 191.64L69.74 190.2C70.26 190.653 70.78 191.147 71.3 191.68C71.82 192.213 72.3 192.74 72.74 193.26L71.18 194.7ZM89.66 195.86C89.0467 195.86 88.3867 195.833 87.68 195.78C86.9733 195.727 86.2667 195.653 85.56 195.56C84.8667 195.48 84.2133 195.38 83.6 195.26L83.86 193.1C84.8467 193.287 85.8467 193.433 86.86 193.54C87.8867 193.647 88.82 193.7 89.66 193.7C91.42 193.7 92.76 193.433 93.68 192.9C94.6 192.367 95.06 191.6 95.06 190.6C95.06 189.747 94.7333 189.1 94.08 188.66C93.44 188.22 92.5 188 91.26 188C90.1933 188 89.18 188.18 88.22 188.54C87.2733 188.9 86.2533 189.48 85.16 190.28L83.1 189.46C83.4333 188.78 83.7667 187.987 84.1 187.08C84.4333 186.16 84.7533 185.207 85.06 184.22C85.3667 183.22 85.6267 182.26 85.84 181.34C86.0533 180.407 86.2 179.6 86.28 178.92L88.64 179.06C88.5733 179.647 88.46 180.32 88.3 181.08C88.1533 181.84 87.9733 182.627 87.76 183.44C87.56 184.24 87.34 185.013 87.1 185.76C86.86 186.493 86.6267 187.147 86.4 187.72L85.98 187.34C86.9 186.86 87.8267 186.5 88.76 186.26C89.6933 186.02 90.64 185.9 91.6 185.9C92.84 185.9 93.9 186.093 94.78 186.48C95.6733 186.867 96.3533 187.42 96.82 188.14C97.3 188.86 97.54 189.72 97.54 190.72C97.54 192.373 96.86 193.647 95.5 194.54C94.14 195.42 92.1933 195.86 89.66 195.86ZM81.56 183.48V181.46H98.44V183.48H81.56ZM101.06 195.44C101.553 194.173 101.993 193.007 102.38 191.94C102.767 190.86 103.113 189.827 103.42 188.84C103.74 187.853 104.027 186.853 104.28 185.84C104.547 184.827 104.793 183.747 105.02 182.6C105.247 181.453 105.473 180.187 105.7 178.8L108.02 179.06C107.807 180.393 107.587 181.64 107.36 182.8C107.133 183.947 106.88 185.053 106.6 186.12C106.333 187.173 106.033 188.227 105.7 189.28C105.38 190.333 105.013 191.42 104.6 192.54C104.2 193.66 103.747 194.86 103.24 196.14L101.06 195.44ZM117.26 192.82C117.14 192.02 116.98 191.167 116.78 190.26C116.593 189.34 116.373 188.42 116.12 187.5C115.867 186.58 115.6 185.693 115.32 184.84L117.54 184.18C117.82 185.06 118.087 185.973 118.34 186.92C118.607 187.853 118.84 188.793 119.04 189.74C119.24 190.673 119.407 191.567 119.54 192.42L117.26 192.82ZM115.16 183.74C114.813 183.007 114.473 182.353 114.14 181.78C113.807 181.207 113.433 180.64 113.02 180.08L114.68 179.12C115.107 179.693 115.487 180.287 115.82 180.9C116.167 181.513 116.507 182.18 116.84 182.9L115.16 183.74ZM117.96 182.68C117.64 181.933 117.32 181.273 117 180.7C116.68 180.113 116.327 179.547 115.94 179L117.56 178.1C117.987 178.687 118.36 179.287 118.68 179.9C119.013 180.513 119.333 181.187 119.64 181.92L117.96 182.68ZM110.56 195.66C110.213 195.66 109.78 195.613 109.26 195.52C108.74 195.44 108.193 195.32 107.62 195.16C107.06 195.013 106.52 194.847 106 194.66L106.54 192.64C106.98 192.773 107.413 192.907 107.84 193.04C108.28 193.16 108.68 193.26 109.04 193.34C109.413 193.407 109.7 193.44 109.9 193.44C110.327 193.44 110.68 193.247 110.96 192.86C111.24 192.46 111.447 191.84 111.58 191C111.727 190.147 111.8 189.053 111.8 187.72C111.8 186.947 111.773 186.327 111.72 185.86C111.667 185.38 111.553 185.02 111.38 184.78C111.22 184.54 110.973 184.38 110.64 184.3C110.307 184.22 109.86 184.18 109.3 184.18H100.82V182.1H109.08C110 182.1 110.767 182.14 111.38 182.22C112.007 182.287 112.5 182.427 112.86 182.64C113.233 182.853 113.513 183.18 113.7 183.62C113.9 184.047 114.027 184.62 114.08 185.34C114.147 186.047 114.18 186.933 114.18 188C114.18 189.733 114.053 191.167 113.8 192.3C113.547 193.433 113.147 194.28 112.6 194.84C112.067 195.387 111.387 195.66 110.56 195.66ZM124.12 196.84V186.34H120.78V184.36H124.12V180.34H126.34V184.36H129.58V186.34H126.34V196.84H124.12ZM121.64 194.34L120.38 192.36C121.327 191.24 122.12 190.04 122.76 188.76C123.4 187.48 123.84 186.2 124.08 184.92L125.4 185.84C125.053 187.693 124.567 189.313 123.94 190.7C123.313 192.073 122.547 193.287 121.64 194.34ZM128.42 192.64C127.913 191.653 127.387 190.667 126.84 189.68C126.293 188.68 125.74 187.693 125.18 186.72L126.24 185.34C126.933 186.393 127.607 187.427 128.26 188.44C128.913 189.44 129.533 190.407 130.12 191.34L128.42 192.64ZM121.18 181.74L121 179.88C121.853 179.84 122.727 179.767 123.62 179.66C124.513 179.54 125.407 179.407 126.3 179.26C127.207 179.1 128.08 178.927 128.92 178.74L129.54 180.54C128.793 180.727 127.967 180.907 127.06 181.08C126.153 181.24 125.207 181.38 124.22 181.5C123.233 181.607 122.22 181.687 121.18 181.74ZM130.22 196.4V179.84H138.9V196.4H136.58V195.24H132.52V193.24H136.58V181.9H132.52V196.4H130.22ZM149.88 195.76C149.16 195.76 148.38 195.727 147.54 195.66C146.713 195.607 145.907 195.527 145.12 195.42C144.347 195.313 143.647 195.193 143.02 195.06L143.24 192.98C144.013 193.113 144.793 193.233 145.58 193.34C146.38 193.447 147.147 193.533 147.88 193.6C148.613 193.653 149.28 193.68 149.88 193.68C151.773 193.68 153.207 193.4 154.18 192.84C155.153 192.28 155.64 191.453 155.64 190.36C155.64 189.453 155.3 188.767 154.62 188.3C153.94 187.82 152.96 187.58 151.68 187.58C150.813 187.58 149.94 187.68 149.06 187.88C148.18 188.08 147.347 188.367 146.56 188.74C145.773 189.113 145.073 189.553 144.46 190.06L142.32 189.64C142.493 188.787 142.647 188 142.78 187.28C142.913 186.547 143.027 185.86 143.12 185.22C143.213 184.567 143.293 183.933 143.36 183.32L145.68 183.5C145.6 184.233 145.5 184.993 145.38 185.78C145.273 186.553 145.14 187.333 144.98 188.12L144.64 187.56C145.36 187.107 146.107 186.733 146.88 186.44C147.653 186.133 148.447 185.9 149.26 185.74C150.087 185.58 150.94 185.5 151.82 185.5C153.86 185.5 155.407 185.907 156.46 186.72C157.513 187.533 158.04 188.733 158.04 190.32C158.04 192.12 157.353 193.48 155.98 194.4C154.607 195.307 152.573 195.76 149.88 195.76ZM155.72 182.22C154.467 182.233 153.267 182.227 152.12 182.2C150.973 182.16 149.827 182.093 148.68 182C147.547 181.907 146.367 181.78 145.14 181.62L145.38 179.54C146.513 179.673 147.66 179.787 148.82 179.88C149.98 179.96 151.133 180.027 152.28 180.08C153.427 180.12 154.573 180.14 155.72 180.14V182.22ZM166.42 195.58C165.74 195.58 165.113 195.373 164.54 194.96C163.967 194.533 163.467 193.94 163.04 193.18C162.613 192.42 162.28 191.527 162.04 190.5C161.813 189.46 161.7 188.34 161.7 187.14C161.7 186.167 161.78 185.14 161.94 184.06C162.113 182.967 162.373 181.82 162.72 180.62L165.06 180.9C164.753 182.007 164.52 183.06 164.36 184.06C164.2 185.06 164.12 186 164.12 186.88C164.12 187.72 164.187 188.513 164.32 189.26C164.453 190.007 164.633 190.66 164.86 191.22C165.1 191.78 165.367 192.22 165.66 192.54C165.967 192.86 166.287 193.02 166.62 193.02C166.94 193.02 167.287 192.887 167.66 192.62C168.047 192.34 168.44 191.967 168.84 191.5C169.24 191.033 169.613 190.5 169.96 189.9C170.32 189.3 170.62 188.673 170.86 188.02L173 189.1C172.667 190.007 172.253 190.853 171.76 191.64C171.267 192.427 170.72 193.12 170.12 193.72C169.533 194.307 168.92 194.76 168.28 195.08C167.64 195.413 167.02 195.58 166.42 195.58ZM176.46 193.64C176.46 192.12 176.353 190.607 176.14 189.1C175.94 187.593 175.64 186.147 175.24 184.76C174.853 183.373 174.387 182.1 173.84 180.94L176.06 180.28C176.673 181.493 177.18 182.82 177.58 184.26C177.993 185.687 178.307 187.193 178.52 188.78C178.747 190.353 178.86 191.973 178.86 193.64H176.46ZM193.04 195.94C191.427 195.94 190.02 195.653 188.82 195.08C187.633 194.52 186.713 193.727 186.06 192.7C185.407 191.66 185.08 190.44 185.08 189.04C185.08 187.947 185.273 186.933 185.66 186C186.06 185.067 186.62 184.253 187.34 183.56C188.073 182.853 188.94 182.313 189.94 181.94L190.14 182.56L180.62 182.78V180.64L197.48 180.24V182.38L194.94 182.44C193.873 182.467 192.887 182.64 191.98 182.96C191.087 183.267 190.313 183.7 189.66 184.26C189.02 184.82 188.52 185.487 188.16 186.26C187.8 187.02 187.62 187.867 187.62 188.8C187.62 189.813 187.84 190.693 188.28 191.44C188.72 192.173 189.34 192.74 190.14 193.14C190.953 193.54 191.927 193.74 193.06 193.74C193.3 193.74 193.567 193.733 193.86 193.72C194.167 193.693 194.473 193.667 194.78 193.64C195.1 193.6 195.38 193.56 195.62 193.52L195.88 195.72C195.6 195.76 195.293 195.793 194.96 195.82C194.627 195.86 194.293 195.887 193.96 195.9C193.627 195.927 193.32 195.94 193.04 195.94ZM195.08 189.7C194.773 189.02 194.44 188.373 194.08 187.76C193.733 187.133 193.333 186.493 192.88 185.84L194.62 184.88C195.073 185.533 195.48 186.18 195.84 186.82C196.2 187.447 196.54 188.113 196.86 188.82L195.08 189.7ZM198.12 188.56C197.827 187.867 197.507 187.213 197.16 186.6C196.827 185.973 196.44 185.333 196 184.68L197.74 183.76C198.18 184.427 198.573 185.08 198.92 185.72C199.28 186.36 199.607 187.04 199.9 187.76L198.12 188.56ZM206.42 195.58C205.74 195.58 205.113 195.373 204.54 194.96C203.967 194.533 203.467 193.94 203.04 193.18C202.613 192.42 202.28 191.527 202.04 190.5C201.813 189.46 201.7 188.34 201.7 187.14C201.7 186.167 201.78 185.14 201.94 184.06C202.113 182.967 202.373 181.82 202.72 180.62L205.06 180.9C204.753 182.007 204.52 183.06 204.36 184.06C204.2 185.06 204.12 186 204.12 186.88C204.12 187.72 204.187 188.513 204.32 189.26C204.453 190.007 204.633 190.66 204.86 191.22C205.1 191.78 205.367 192.22 205.66 192.54C205.967 192.86 206.287 193.02 206.62 193.02C206.94 193.02 207.287 192.887 207.66 192.62C208.047 192.34 208.44 191.967 208.84 191.5C209.24 191.033 209.613 190.5 209.96 189.9C210.32 189.3 210.62 188.673 210.86 188.02L213 189.1C212.667 190.007 212.253 190.853 211.76 191.64C211.267 192.427 210.72 193.12 210.12 193.72C209.533 194.307 208.92 194.76 208.28 195.08C207.64 195.413 207.02 195.58 206.42 195.58ZM216.46 193.64C216.46 192.12 216.353 190.607 216.14 189.1C215.94 187.593 215.64 186.147 215.24 184.76C214.853 183.373 214.387 182.1 213.84 180.94L216.06 180.28C216.673 181.493 217.18 182.82 217.58 184.26C217.993 185.687 218.307 187.193 218.52 188.78C218.747 190.353 218.86 191.973 218.86 193.64H216.46ZM234.7 196.94C233.753 196.233 232.887 195.607 232.1 195.06C231.313 194.527 230.573 194.033 229.88 193.58C229.187 193.127 228.507 192.7 227.84 192.3C227.173 191.887 226.48 191.46 225.76 191.02C225.013 190.567 224.413 190.193 223.96 189.9C223.52 189.593 223.173 189.327 222.92 189.1C222.68 188.873 222.513 188.647 222.42 188.42C222.34 188.18 222.3 187.907 222.3 187.6C222.3 187.28 222.347 187 222.44 186.76C222.547 186.507 222.727 186.267 222.98 186.04C223.233 185.8 223.593 185.533 224.06 185.24C224.527 184.947 225.127 184.593 225.86 184.18C226.62 183.753 227.453 183.273 228.36 182.74C229.267 182.207 230.213 181.633 231.2 181.02C232.187 180.407 233.167 179.753 234.14 179.06L235.54 181C234.953 181.4 234.333 181.807 233.68 182.22C233.027 182.62 232.38 183.013 231.74 183.4C231.1 183.773 230.487 184.127 229.9 184.46C229.327 184.78 228.807 185.073 228.34 185.34C227.873 185.593 227.493 185.8 227.2 185.96C226.627 186.28 226.18 186.533 225.86 186.72C225.553 186.907 225.333 187.067 225.2 187.2C225.08 187.32 225.02 187.453 225.02 187.6C225.02 187.747 225.06 187.873 225.14 187.98C225.233 188.087 225.42 188.227 225.7 188.4C225.98 188.573 226.407 188.827 226.98 189.16C227.3 189.333 227.707 189.567 228.2 189.86C228.707 190.153 229.28 190.493 229.92 190.88C230.56 191.253 231.227 191.667 231.92 192.12C232.627 192.56 233.34 193.027 234.06 193.52C234.793 194 235.5 194.487 236.18 194.98L234.7 196.94Z" fill="#282828"/>
<path opacity="0.6" d="M49.016 219.68C49.016 217.09 50.122 214.808 52.432 212.946C52.558 212.834 52.712 212.778 52.852 212.778C53.118 212.778 53.37 213.016 53.37 213.282C53.37 213.464 53.3 213.59 53.16 213.716C51.144 215.438 50.304 217.384 50.304 219.68C50.304 221.976 51.144 223.922 53.16 225.644C53.3 225.77 53.37 225.896 53.37 226.078C53.37 226.344 53.118 226.582 52.852 226.582C52.712 226.582 52.558 226.526 52.432 226.414C50.122 224.552 49.016 222.27 49.016 219.68ZM61.308 221.906V220.842H58.928C58.564 220.842 58.382 220.52 58.382 220.212C58.382 219.89 58.564 219.582 58.928 219.582H65.592C65.956 219.582 66.138 219.904 66.138 220.212C66.138 220.534 65.956 220.842 65.592 220.842H62.82V221.906H66.726C67.09 221.906 67.272 222.228 67.272 222.536C67.272 222.858 67.09 223.166 66.726 223.166H62.82V225.686C62.82 226.078 62.442 226.288 62.064 226.288C61.686 226.288 61.308 226.078 61.308 225.686V223.166H58.116C57.752 223.166 57.57 222.844 57.57 222.536C57.57 222.214 57.752 221.906 58.116 221.906H61.308ZM60.342 215.396V213.646C60.342 213.24 60.72 213.044 61.098 213.044C61.476 213.044 61.854 213.24 61.854 213.646V215.396H64.206C64.598 215.396 64.682 215.326 64.682 215.074V214.206C64.682 213.8 65.06 213.604 65.452 213.604C65.83 213.604 66.208 213.8 66.208 214.206V215.326C66.208 216.278 65.76 216.614 64.444 216.614H57.892C56.562 216.614 56.128 216.278 56.128 215.326V214.206C56.128 213.8 56.506 213.604 56.884 213.604C57.262 213.604 57.64 213.8 57.64 214.206V215.074C57.64 215.326 57.724 215.396 58.13 215.396H60.342ZM57.542 217.468H66.656C67.02 217.468 67.202 217.79 67.202 218.112C67.202 218.434 67.02 218.756 66.656 218.756H57.766C57.374 218.756 57.262 218.868 57.262 219.204V220.086C57.262 222.298 56.772 224.076 56.002 225.448C55.82 225.784 55.526 225.924 55.246 225.924C54.84 225.924 54.462 225.63 54.462 225.21C54.462 225.084 54.504 224.944 54.588 224.79C55.288 223.572 55.722 221.976 55.722 220.03V218.994C55.722 217.944 56.212 217.468 57.542 217.468ZM78.304 225.378H71.696C70.1 225.378 69.428 224.706 69.428 223.446V216.362C69.428 215.102 70.1 214.43 71.696 214.43H78.304C79.9 214.43 80.572 215.102 80.572 216.362V223.446C80.572 224.944 79.676 225.378 78.304 225.378ZM74.174 220.422H70.968V223.222C70.968 223.768 71.206 223.978 71.864 223.978H74.174V220.422ZM75.686 220.422V223.978H78.136C78.822 223.978 79.032 223.782 79.032 223.222V220.422H75.686ZM75.686 215.83V219.036H79.032V216.586C79.032 216.026 78.822 215.83 78.136 215.83H75.686ZM74.174 215.83H71.864C71.178 215.83 70.968 216.026 70.968 216.586V219.036H74.174V215.83ZM88.636 215.018H94.502C94.894 215.018 95.09 215.34 95.09 215.676C95.09 215.998 94.894 216.334 94.502 216.334H91.744C92.682 217.37 93.872 218.21 95.132 218.784C95.482 218.938 95.636 219.218 95.636 219.484C95.636 219.862 95.356 220.212 94.95 220.212C94.838 220.212 94.712 220.184 94.572 220.114C92.892 219.288 91.296 217.93 90.12 216.334H87.782C86.592 217.972 85.038 219.372 83.442 220.352C83.302 220.436 83.162 220.464 83.036 220.464C82.644 220.464 82.364 220.142 82.364 219.792C82.364 219.568 82.476 219.344 82.756 219.176C83.974 218.42 85.094 217.468 86.032 216.334H83.512C83.12 216.334 82.924 215.998 82.924 215.676C82.924 215.34 83.12 215.018 83.512 215.018H86.998C87.306 214.514 87.6 213.982 87.852 213.422C87.992 213.128 88.258 213.002 88.51 213.002C88.874 213.002 89.238 213.268 89.238 213.66C89.238 213.758 89.224 213.856 89.168 213.968C89.014 214.318 88.832 214.682 88.636 215.018ZM89.7 221.808V224.706C89.7 225.798 89.196 226.246 88.034 226.246C87.628 226.246 87.32 226.218 87.054 226.176C86.62 226.106 86.424 225.798 86.424 225.49C86.424 225.14 86.676 224.776 87.11 224.776C87.152 224.776 87.208 224.776 87.25 224.79C87.46 224.804 87.656 224.832 87.824 224.832C88.09 224.832 88.16 224.762 88.16 224.51V221.808H83.862C83.484 221.808 83.302 221.5 83.302 221.178C83.302 220.87 83.484 220.562 83.862 220.562H94.096C94.488 220.562 94.67 220.87 94.67 221.178C94.67 221.5 94.488 221.808 94.096 221.808H89.7ZM92.206 222.494C92.766 223.04 93.452 223.586 94.194 224.09C94.488 224.286 94.6 224.524 94.6 224.762C94.6 225.14 94.264 225.504 93.844 225.504C93.69 225.504 93.508 225.448 93.34 225.336C92.514 224.748 91.702 224.034 91.128 223.404C90.974 223.236 90.904 223.068 90.904 222.9C90.904 222.536 91.24 222.242 91.632 222.242C91.814 222.242 92.024 222.312 92.206 222.494ZM85.598 222.508C85.766 222.312 85.976 222.228 86.172 222.228C86.55 222.228 86.914 222.536 86.914 222.914C86.914 223.054 86.858 223.222 86.718 223.376C86.102 224.118 85.192 224.902 84.268 225.476C84.114 225.574 83.974 225.602 83.834 225.602C83.428 225.602 83.106 225.266 83.106 224.916C83.106 224.692 83.232 224.454 83.512 224.286C84.254 223.81 84.996 223.194 85.598 222.508ZM91.002 219.54H86.886C86.522 219.54 86.326 219.232 86.326 218.91C86.326 218.602 86.522 218.294 86.886 218.294H91.002C91.38 218.294 91.562 218.602 91.562 218.91C91.562 219.232 91.38 219.54 91.002 219.54ZM108.488 222.858H103.966C105.044 223.74 106.612 224.384 108.544 224.622C109.02 224.678 109.244 225 109.244 225.308C109.244 225.672 108.978 226.022 108.488 226.022C108.446 226.022 108.39 226.008 108.348 226.008C106.01 225.714 104.106 224.804 102.706 223.432C101.726 224.888 100.004 225.784 97.582 226.148C97.526 226.162 97.484 226.162 97.442 226.162C97.008 226.162 96.77 225.812 96.77 225.476C96.77 225.182 96.952 224.888 97.358 224.818C99.388 224.482 100.662 223.88 101.39 222.858H97.512C97.148 222.858 96.966 222.536 96.966 222.228C96.966 221.906 97.148 221.598 97.512 221.598H101.978C102.034 221.388 102.076 221.164 102.118 220.954C102.174 220.576 102.51 220.394 102.846 220.394C103.224 220.394 103.602 220.618 103.602 221.024C103.602 221.066 103.602 221.108 103.588 221.15C103.56 221.304 103.532 221.458 103.49 221.598H108.488C108.852 221.598 109.034 221.906 109.034 222.228C109.034 222.536 108.852 222.858 108.488 222.858ZM103.7 216.152V216.95H107.102C107.452 216.95 107.634 217.244 107.634 217.552C107.634 217.846 107.452 218.154 107.102 218.154H103.7V219.022H108.712C109.062 219.022 109.244 219.33 109.244 219.638C109.244 219.946 109.062 220.254 108.712 220.254H97.26C96.91 220.254 96.742 219.946 96.742 219.638C96.742 219.33 96.91 219.022 97.26 219.022H102.23V218.154H98.912C98.562 218.154 98.394 217.846 98.394 217.552C98.394 217.244 98.562 216.95 98.912 216.95H102.23V216.152H97.946C97.596 216.152 97.428 215.844 97.428 215.55C97.428 215.242 97.596 214.948 97.946 214.948H100.928C100.872 214.906 100.816 214.836 100.76 214.766C100.592 214.528 100.41 214.29 100.228 214.08C100.13 213.954 100.074 213.828 100.074 213.702C100.074 213.366 100.424 213.086 100.788 213.086C100.97 213.086 101.152 213.156 101.306 213.31C101.502 213.492 101.74 213.8 101.922 214.052C102.02 214.178 102.048 214.318 102.048 214.43C102.048 214.64 101.936 214.822 101.768 214.948H103.616C103.938 214.444 104.176 213.982 104.4 213.492C104.54 213.17 104.82 213.03 105.086 213.03C105.45 213.03 105.786 213.268 105.786 213.632C105.786 213.73 105.758 213.842 105.702 213.954C105.52 214.318 105.324 214.64 105.128 214.948H108.292C108.656 214.948 108.824 215.242 108.824 215.55C108.824 215.844 108.656 216.152 108.292 216.152H103.7ZM118.61 220.38L118.624 220.352C117.98 219.624 117.49 218.84 117 217.902C115.446 218.182 113.374 218.42 112.632 218.42C112.156 218.42 111.904 218.028 111.904 217.65C111.904 217.314 112.114 216.964 112.576 216.95C113.752 216.894 115.096 216.74 116.384 216.53C116.104 215.802 115.852 215.074 115.656 214.36C115.642 214.304 115.628 214.248 115.628 214.192C115.628 213.772 116.048 213.506 116.454 213.506C116.762 213.506 117.07 213.66 117.168 214.038C117.35 214.752 117.574 215.522 117.868 216.25C118.932 216.026 119.912 215.76 120.682 215.494C120.78 215.452 120.892 215.438 120.976 215.438C121.424 215.438 121.732 215.816 121.732 216.194C121.732 216.474 121.564 216.754 121.158 216.894C120.416 217.146 119.492 217.398 118.498 217.608C119.016 218.588 119.744 219.624 120.794 220.758C120.962 220.94 121.032 221.15 121.032 221.346C121.032 221.766 120.71 222.144 120.262 222.144C120.178 222.144 120.08 222.116 119.982 222.088C118.904 221.71 117.868 221.556 116.748 221.556C115.054 221.556 114.48 222.074 114.48 222.844C114.48 223.642 115.11 224.174 117.196 224.174C117.77 224.174 118.218 224.146 118.666 224.104H118.764C119.254 224.104 119.506 224.482 119.506 224.86C119.506 225.196 119.296 225.532 118.82 225.588C118.358 225.644 117.84 225.672 117.224 225.672C114.368 225.672 112.856 224.594 112.856 222.83C112.856 221.318 114.018 220.198 116.734 220.198C117.49 220.198 118.05 220.268 118.61 220.38ZM129.376 219.372L129.404 219.386C129.81 219.134 130.23 219.022 130.678 219.022C131.966 219.022 132.666 219.792 132.764 221.976C132.834 223.502 133.17 223.712 133.702 223.712C134.332 223.712 134.864 223.166 135.354 221.892C135.494 221.528 135.802 221.36 136.11 221.36C136.53 221.36 136.95 221.668 136.95 222.116C136.95 222.214 136.922 222.326 136.88 222.452C136.152 224.384 135.102 225.294 133.59 225.294C132.134 225.294 131.238 224.51 131.14 222.116C131.084 220.73 130.874 220.436 130.3 220.436C129.558 220.436 128.802 221.122 128.116 222.55C127.808 223.194 127.402 224.048 127.094 224.72C126.94 225.042 126.646 225.196 126.352 225.196C125.932 225.196 125.512 224.902 125.512 224.454C125.512 224.356 125.54 224.258 125.582 224.146C126.814 221.178 128.592 217.384 130.202 214.402C130.356 214.108 130.636 213.982 130.916 213.982C131.364 213.982 131.798 214.29 131.798 214.71C131.798 214.822 131.77 214.934 131.714 215.046L129.376 219.372ZM138.798 225.42L150.334 213.156C150.46 213.03 150.6 212.932 150.726 212.932C151.09 212.932 151.398 213.226 151.398 213.506C151.398 213.66 151.342 213.8 151.202 213.94L139.666 226.204C139.54 226.33 139.4 226.428 139.274 226.428C138.91 226.428 138.602 226.134 138.602 225.854C138.602 225.7 138.658 225.56 138.798 225.42ZM160.05 217.314H159.182C158.818 218.098 158.398 218.826 157.95 219.456C157.754 219.736 157.502 219.848 157.264 219.848C156.872 219.848 156.536 219.554 156.536 219.162C156.536 219.008 156.592 218.84 156.704 218.672C157.586 217.412 158.37 215.69 158.832 213.856C158.93 213.478 159.238 213.31 159.56 213.31C159.952 213.31 160.344 213.548 160.344 213.968C160.344 214.038 160.33 214.094 160.316 214.164C160.176 214.752 159.98 215.354 159.756 215.942H164.852C165.244 215.942 165.44 216.292 165.44 216.628C165.44 216.978 165.244 217.314 164.852 217.314H161.534V218.728H164.054C164.432 218.728 164.628 219.064 164.628 219.4C164.628 219.736 164.432 220.072 164.054 220.072H161.534V221.514H164.11C164.488 221.514 164.684 221.85 164.684 222.186C164.684 222.522 164.488 222.858 164.11 222.858H161.534V225.644C161.534 226.05 161.17 226.26 160.792 226.26C160.428 226.26 160.05 226.05 160.05 225.644V217.314ZM154.52 225.7V219.092C154.282 219.456 154.03 219.806 153.778 220.114C153.596 220.338 153.372 220.436 153.162 220.436C152.756 220.436 152.378 220.1 152.378 219.694C152.378 219.526 152.434 219.358 152.574 219.176C153.68 217.804 154.702 215.69 155.262 213.814C155.374 213.45 155.682 213.282 156.004 213.282C156.424 213.282 156.844 213.548 156.844 213.996C156.844 214.066 156.83 214.15 156.802 214.234C156.494 215.284 155.99 216.46 155.416 217.552C155.752 217.594 156.046 217.79 156.046 218.154V225.7C156.046 226.078 155.668 226.274 155.29 226.274C154.898 226.274 154.52 226.078 154.52 225.7ZM172.216 214.458V213.632C172.216 213.24 172.594 213.058 172.986 213.058C173.364 213.058 173.742 213.24 173.742 213.632V214.458H177.242C178.53 214.458 178.978 214.892 178.978 215.802V216.698C178.978 217.09 178.6 217.286 178.208 217.286C177.83 217.286 177.438 217.09 177.438 216.698V216.04C177.438 215.774 177.326 215.662 176.976 215.662H169.052C168.702 215.662 168.59 215.774 168.59 216.04V216.754C168.59 217.132 168.212 217.328 167.82 217.328C167.442 217.328 167.05 217.132 167.05 216.754V215.802C167.05 214.892 167.498 214.458 168.786 214.458H172.216ZM173.714 217.916H173.42C173.098 218.182 172.776 218.434 172.44 218.658C173.98 219.988 174.694 221.626 174.694 223.306C174.694 225.476 173.966 226.19 172.664 226.19C172.244 226.19 171.992 226.162 171.642 226.092C171.236 226.008 171.068 225.714 171.068 225.42C171.068 225.084 171.32 224.72 171.74 224.72C171.782 224.72 171.838 224.72 171.88 224.734C172.118 224.776 172.384 224.804 172.636 224.804C172.972 224.804 173.238 224.524 173.238 223.292C173.238 223.11 173.224 222.942 173.21 222.774C171.586 223.95 169.556 224.958 167.61 225.518C167.526 225.546 167.442 225.56 167.372 225.56C166.966 225.56 166.728 225.224 166.728 224.902C166.728 224.636 166.882 224.37 167.218 224.272C169.29 223.67 171.236 222.718 172.874 221.444C172.79 221.234 172.678 221.038 172.566 220.828C171.124 221.808 169.416 222.606 167.778 223.124C167.694 223.152 167.61 223.166 167.54 223.166C167.148 223.166 166.896 222.844 166.896 222.508C166.896 222.27 167.036 222.004 167.372 221.906C168.87 221.458 170.508 220.744 171.838 219.848C171.684 219.68 171.516 219.512 171.348 219.358C170.256 219.974 169.094 220.45 167.932 220.8C167.834 220.828 167.75 220.842 167.666 220.842C167.246 220.842 166.994 220.534 166.994 220.212C166.994 219.96 167.148 219.694 167.512 219.596C168.912 219.19 170.284 218.644 171.404 217.916H169.528C169.164 217.916 168.982 217.608 168.982 217.314C168.982 217.006 169.164 216.712 169.528 216.712H176.472C176.85 216.712 177.046 217.006 177.046 217.314C177.046 217.608 176.85 217.916 176.472 217.916H175.016C175.226 218.588 175.492 219.246 175.828 219.848C176.43 219.47 176.99 219.064 177.522 218.588C177.676 218.448 177.858 218.392 178.026 218.392C178.404 218.392 178.754 218.714 178.754 219.078C178.754 219.26 178.656 219.456 178.446 219.624C177.83 220.1 177.172 220.562 176.486 220.954C177.186 221.99 178.026 222.858 178.978 223.558C179.244 223.754 179.356 224.006 179.356 224.23C179.356 224.608 179.034 224.958 178.614 224.958C178.432 224.958 178.222 224.888 178.012 224.72C177.564 224.356 177.158 223.992 176.766 223.558C175.324 221.948 174.274 219.988 173.714 217.916ZM184.984 219.68C184.984 222.27 183.878 224.552 181.568 226.414C181.442 226.526 181.288 226.582 181.148 226.582C180.882 226.582 180.63 226.344 180.63 226.078C180.63 225.896 180.7 225.77 180.84 225.644C182.856 223.922 183.696 221.976 183.696 219.68C183.696 217.384 182.856 215.438 180.84 213.716C180.7 213.59 180.63 213.464 180.63 213.282C180.63 213.016 180.882 212.778 181.148 212.778C181.288 212.778 181.442 212.834 181.568 212.946C183.878 214.808 184.984 217.09 184.984 219.68Z" fill="#282828"/>
<path d="M61.0002 296L79.0001 254L110.177 254L61.0002 296Z" fill="#E18965"/>
</svg>
