<svg width="327" height="295" viewBox="0 0 327 295" fill="none" xmlns="http://www.w3.org/2000/svg">
<rect width="327" height="251" rx="80" fill="#E18965"/>
<path d="M41.46 42.38L40.48 40.4C41.5333 39.8267 42.5133 39.2533 43.42 38.68C44.3267 38.1067 45.1933 37.5 46.02 36.86C46.86 36.2067 47.6867 35.5067 48.5 34.76H51.5C52.3133 35.5067 53.1333 36.2067 53.96 36.86C54.8 37.5 55.6733 38.1067 56.58 38.68C57.4867 39.2533 58.4667 39.8267 59.52 40.4L58.54 42.38C56.94 41.5267 55.4267 40.6 54 39.6C52.5867 38.6 51.2533 37.5 50 36.3C48.7467 37.5 47.4067 38.6 45.98 39.6C44.5667 40.6 43.06 41.5267 41.46 42.38ZM48.6 52.92L47.36 51.06C49.1467 50.1533 50.7467 49.1533 52.16 48.06C53.5867 46.9667 54.7667 45.8467 55.7 44.7L57.74 45.64C56.9933 46.6 56.1533 47.5133 55.22 48.38C54.2867 49.2467 53.2667 50.06 52.16 50.82C51.0667 51.5667 49.88 52.2667 48.6 52.92ZM42.26 45.64V43.6H57.74V45.64H42.26ZM44.72 41.82V39.84H55.28V41.82H44.72ZM67.34 52.06C65.7667 52.06 64.5467 51.7467 63.68 51.12C62.8267 50.5067 62.4 49.6267 62.4 48.48C62.4 47.3333 62.8267 46.46 63.68 45.86C64.5333 45.26 65.7533 44.96 67.34 44.96C68.2067 44.96 69.0467 45.0533 69.86 45.24C70.6733 45.4267 71.4933 45.7267 72.32 46.14C73.16 46.5533 74.04 47.0933 74.96 47.76C75.88 48.4133 76.8733 49.2133 77.94 50.16L76.42 51.68C75.4067 50.8133 74.48 50.08 73.64 49.48C72.8133 48.8667 72.0467 48.3733 71.34 48C70.6333 47.6133 69.9533 47.34 69.3 47.18C68.66 47.0067 68.0067 46.92 67.34 46.92C65.6333 46.92 64.78 47.4267 64.78 48.44C64.78 48.96 64.9933 49.36 65.42 49.64C65.8467 49.9067 66.4733 50.04 67.3 50.04C68.2867 50.04 69.0133 49.8333 69.48 49.42C69.9467 49.0067 70.18 48.3733 70.18 47.52V34.92H72.44V47.52C72.44 49.0267 72.0133 50.16 71.16 50.92C70.32 51.68 69.0467 52.06 67.34 52.06ZM62.26 43.04V41.06H77.74V43.04H62.26ZM62.06 38.96V36.94H77.94V38.96H62.06ZM93.04 51.94C91.4267 51.94 90.02 51.6533 88.82 51.08C87.6333 50.52 86.7133 49.7267 86.06 48.7C85.4067 47.66 85.08 46.44 85.08 45.04C85.08 43.9467 85.2733 42.9333 85.66 42C86.06 41.0667 86.62 40.2533 87.34 39.56C88.0733 38.8533 88.94 38.3133 89.94 37.94L90.14 38.56L80.62 38.78V36.64L97.48 36.24V38.38L94.94 38.44C93.8733 38.4667 92.8867 38.64 91.98 38.96C91.0867 39.2667 90.3133 39.7 89.66 40.26C89.02 40.82 88.52 41.4867 88.16 42.26C87.8 43.02 87.62 43.8667 87.62 44.8C87.62 45.8133 87.84 46.6933 88.28 47.44C88.72 48.1733 89.34 48.74 90.14 49.14C90.9533 49.54 91.9267 49.74 93.06 49.74C93.3 49.74 93.5667 49.7333 93.86 49.72C94.1667 49.6933 94.4733 49.6667 94.78 49.64C95.1 49.6 95.38 49.56 95.62 49.52L95.88 51.72C95.6 51.76 95.2933 51.7933 94.96 51.82C94.6267 51.86 94.2933 51.8867 93.96 51.9C93.6267 51.9267 93.32 51.94 93.04 51.94ZM95.08 45.7C94.7733 45.02 94.44 44.3733 94.08 43.76C93.7333 43.1333 93.3333 42.4933 92.88 41.84L94.62 40.88C95.0733 41.5333 95.48 42.18 95.84 42.82C96.2 43.4467 96.54 44.1133 96.86 44.82L95.08 45.7ZM98.12 44.56C97.8267 43.8667 97.5067 43.2133 97.16 42.6C96.8267 41.9733 96.44 41.3333 96 40.68L97.74 39.76C98.18 40.4267 98.5733 41.08 98.92 41.72C99.28 42.36 99.6067 43.04 99.9 43.76L98.12 44.56ZM110.02 52.12C108.527 52.12 107.367 51.7733 106.54 51.08C105.713 50.4 105.3 49.46 105.3 48.26C105.3 47.02 105.727 46.0667 106.58 45.4C107.433 44.72 108.633 44.38 110.18 44.38C110.833 44.38 111.48 44.48 112.12 44.68C112.76 44.88 113.427 45.1867 114.12 45.6C114.813 46.0133 115.553 46.5467 116.34 47.2C117.14 47.8533 118 48.6467 118.92 49.58L117.48 51.18C116.413 50.14 115.513 49.3 114.78 48.66C114.06 48.0067 113.44 47.5133 112.92 47.18C112.413 46.8333 111.947 46.6 111.52 46.48C111.107 46.36 110.66 46.3 110.18 46.3C109.273 46.3 108.607 46.4533 108.18 46.76C107.767 47.0667 107.56 47.54 107.56 48.18C107.56 48.8333 107.767 49.3267 108.18 49.66C108.593 49.98 109.207 50.14 110.02 50.14C110.913 50.14 111.58 49.9467 112.02 49.56C112.473 49.1733 112.7 48.62 112.7 47.9V37.56C113.873 37.56 114.96 37.58 115.96 37.62C116.973 37.6467 117.967 37.6933 118.94 37.76L118.8 39.86C117.933 39.7933 117.027 39.7467 116.08 39.72C115.147 39.68 114.147 39.66 113.08 39.66L115.02 38.16V47.66C115.02 49.1267 114.6 50.24 113.76 51C112.92 51.7467 111.673 52.12 110.02 52.12ZM100.92 48.94C101.507 47.3533 102.047 45.7933 102.54 44.26C103.033 42.7133 103.493 41.1533 103.92 39.58C104.347 37.9933 104.74 36.3667 105.1 34.7L107.36 34.92C107 36.6267 106.6 38.3 106.16 39.94C105.733 41.5667 105.267 43.18 104.76 44.78C104.267 46.38 103.72 47.9867 103.12 49.6L100.92 48.94ZM100.76 39.66V37.56H110.84V39.66H100.76ZM122.96 52.18L120.88 51.42L127.36 35.14L129.56 35.78L126.08 44.38L125.34 43.9C126.007 43.3533 126.673 42.9267 127.34 42.62C128.02 42.3133 128.68 42.16 129.32 42.16C129.813 42.16 130.24 42.2667 130.6 42.48C130.96 42.68 131.267 42.98 131.52 43.38C131.773 43.7667 131.987 44.24 132.16 44.8C132.347 45.36 132.513 46 132.66 46.72C132.78 47.28 132.9 47.7667 133.02 48.18C133.153 48.5933 133.32 48.9133 133.52 49.14C133.733 49.3667 134.007 49.48 134.34 49.48C134.927 49.48 135.453 49.1 135.92 48.34C136.387 47.5667 136.827 46.3467 137.24 44.68L139.34 45.38C138.993 46.86 138.587 48.0733 138.12 49.02C137.653 49.9533 137.1 50.6467 136.46 51.1C135.82 51.5667 135.08 51.8 134.24 51.8C133.667 51.8 133.173 51.7 132.76 51.5C132.36 51.3 132.013 51.0067 131.72 50.62C131.427 50.2333 131.173 49.7667 130.96 49.22C130.76 48.66 130.587 48.0333 130.44 47.34C130.307 46.7533 130.16 46.2467 130 45.82C129.853 45.3933 129.66 45.0667 129.42 44.84C129.193 44.6133 128.887 44.5 128.5 44.5C128.247 44.5 127.953 44.5533 127.62 44.66C127.287 44.7667 126.947 44.9467 126.6 45.2C126.267 45.44 125.94 45.7733 125.62 46.2C125.3 46.6133 125.013 47.1333 124.76 47.76L122.96 52.18ZM150.02 52.08C147.527 52.08 145.633 51.6933 144.34 50.92C143.047 50.1333 142.4 48.9867 142.4 47.48C142.4 46.2133 142.873 45.06 143.82 44.02C144.767 42.9667 146.24 41.9933 148.24 41.1C150.253 40.2067 152.84 39.36 156 38.56L156.56 40.7C153.88 41.38 151.673 42.0733 149.94 42.78C148.22 43.4867 146.947 44.2133 146.12 44.96C145.307 45.6933 144.9 46.48 144.9 47.32C144.9 49.0533 146.653 49.92 150.16 49.92C150.733 49.92 151.333 49.8933 151.96 49.84C152.587 49.7867 153.287 49.7133 154.06 49.62C154.847 49.5133 155.74 49.38 156.74 49.22L157.02 51.38C155.753 51.5933 154.527 51.76 153.34 51.88C152.167 52.0133 151.06 52.08 150.02 52.08ZM146.22 43.14C145.833 41.8333 145.507 40.5533 145.24 39.3C144.973 38.0333 144.76 36.78 144.6 35.54L147.02 35.18C147.193 36.42 147.413 37.66 147.68 38.9C147.947 40.1267 148.267 41.3467 148.64 42.56L146.22 43.14ZM170.02 52.12C168.527 52.12 167.367 51.7733 166.54 51.08C165.713 50.4 165.3 49.46 165.3 48.26C165.3 47.02 165.727 46.0667 166.58 45.4C167.433 44.72 168.633 44.38 170.18 44.38C170.833 44.38 171.48 44.48 172.12 44.68C172.76 44.88 173.427 45.1867 174.12 45.6C174.813 46.0133 175.553 46.5467 176.34 47.2C177.14 47.8533 178 48.6467 178.92 49.58L177.48 51.18C176.413 50.14 175.513 49.3 174.78 48.66C174.06 48.0067 173.44 47.5133 172.92 47.18C172.413 46.8333 171.947 46.6 171.52 46.48C171.107 46.36 170.66 46.3 170.18 46.3C169.273 46.3 168.607 46.4533 168.18 46.76C167.767 47.0667 167.56 47.54 167.56 48.18C167.56 48.8333 167.767 49.3267 168.18 49.66C168.593 49.98 169.207 50.14 170.02 50.14C170.913 50.14 171.58 49.9467 172.02 49.56C172.473 49.1733 172.7 48.62 172.7 47.9V37.56C173.873 37.56 174.96 37.58 175.96 37.62C176.973 37.6467 177.967 37.6933 178.94 37.76L178.8 39.86C177.933 39.7933 177.027 39.7467 176.08 39.72C175.147 39.68 174.147 39.66 173.08 39.66L175.02 38.16V47.66C175.02 49.1267 174.6 50.24 173.76 51C172.92 51.7467 171.673 52.12 170.02 52.12ZM160.92 48.94C161.507 47.3533 162.047 45.7933 162.54 44.26C163.033 42.7133 163.493 41.1533 163.92 39.58C164.347 37.9933 164.74 36.3667 165.1 34.7L167.36 34.92C167 36.6267 166.6 38.3 166.16 39.94C165.733 41.5667 165.267 43.18 164.76 44.78C164.267 46.38 163.72 47.9867 163.12 49.6L160.92 48.94ZM160.76 39.66V37.56H170.84V39.66H160.76ZM194.7 52.94C193.753 52.2333 192.887 51.6067 192.1 51.06C191.313 50.5267 190.573 50.0333 189.88 49.58C189.187 49.1267 188.507 48.7 187.84 48.3C187.173 47.8867 186.48 47.46 185.76 47.02C185.013 46.5667 184.413 46.1933 183.96 45.9C183.52 45.5933 183.173 45.3267 182.92 45.1C182.68 44.8733 182.513 44.6467 182.42 44.42C182.34 44.18 182.3 43.9067 182.3 43.6C182.3 43.28 182.347 43 182.44 42.76C182.547 42.5067 182.727 42.2667 182.98 42.04C183.233 41.8 183.593 41.5333 184.06 41.24C184.527 40.9467 185.127 40.5933 185.86 40.18C186.62 39.7533 187.453 39.2733 188.36 38.74C189.267 38.2067 190.213 37.6333 191.2 37.02C192.187 36.4067 193.167 35.7533 194.14 35.06L195.54 37C194.953 37.4 194.333 37.8067 193.68 38.22C193.027 38.62 192.38 39.0133 191.74 39.4C191.1 39.7733 190.487 40.1267 189.9 40.46C189.327 40.78 188.807 41.0733 188.34 41.34C187.873 41.5933 187.493 41.8 187.2 41.96C186.627 42.28 186.18 42.5333 185.86 42.72C185.553 42.9067 185.333 43.0667 185.2 43.2C185.08 43.32 185.02 43.4533 185.02 43.6C185.02 43.7467 185.06 43.8733 185.14 43.98C185.233 44.0867 185.42 44.2267 185.7 44.4C185.98 44.5733 186.407 44.8267 186.98 45.16C187.3 45.3333 187.707 45.5667 188.2 45.86C188.707 46.1533 189.28 46.4933 189.92 46.88C190.56 47.2533 191.227 47.6667 191.92 48.12C192.627 48.56 193.34 49.0267 194.06 49.52C194.793 50 195.5 50.4867 196.18 50.98L194.7 52.94ZM210.98 52.84V38.44H209.64V36.46H219.34V38.44H213.48V41.5H218.74V43.5H213.48V46.64H218.74V48.68H213.48V52.84H210.98ZM203.08 52.84V39.82H205.52V52.84H203.08ZM201.56 45.96L200.54 43.64C201.247 42.8 201.867 41.9267 202.4 41.02C202.933 40.1 203.393 39.12 203.78 38.08C204.167 37.0267 204.493 35.8933 204.76 34.68L207 35.16C206.76 36.44 206.433 37.6333 206.02 38.74C205.607 39.8467 205.113 40.86 204.54 41.78L204.46 41.18C204.313 41.5667 204.127 41.98 203.9 42.42C203.687 42.8467 203.447 43.28 203.18 43.72C202.927 44.1467 202.66 44.5533 202.38 44.94C202.1 45.3267 201.827 45.6667 201.56 45.96ZM207.68 43.9L205.78 42.46C206.58 41.2333 207.293 39.9533 207.92 38.62C208.56 37.2733 209.1 35.8933 209.54 34.48L211.82 34.94C211.353 36.5 210.767 38.0467 210.06 39.58C209.353 41.1 208.56 42.54 207.68 43.9ZM226 49.16C228.013 49.16 229.647 49.0267 230.9 48.76C232.167 48.48 233.093 48.0467 233.68 47.46C234.267 46.8733 234.56 46.12 234.56 45.2C234.56 44.1733 234.22 43.4067 233.54 42.9C232.873 42.3933 231.853 42.14 230.48 42.14C229.933 42.14 229.333 42.1867 228.68 42.28C228.027 42.36 227.273 42.4867 226.42 42.66C225.58 42.8333 224.6 43.0667 223.48 43.36L223.02 41.1C224.713 40.7 226.18 40.4067 227.42 40.22C228.66 40.02 229.727 39.92 230.62 39.92C232.66 39.92 234.227 40.36 235.32 41.24C236.413 42.12 236.96 43.38 236.96 45.02C236.96 47.1 236.047 48.6733 234.22 49.74C232.407 50.8067 229.713 51.34 226.14 51.34L226 49.16ZM253.84 51.74C252.227 51.74 250.82 51.4667 249.62 50.92C248.433 50.3733 247.513 49.6 246.86 48.6C246.207 47.5867 245.88 46.4 245.88 45.04C245.88 43.9733 246.073 42.9933 246.46 42.1C246.86 41.1933 247.42 40.4 248.14 39.72C248.873 39.0267 249.74 38.5 250.74 38.14L250.94 38.76L241.42 38.98V36.84L258.28 36.44V38.58L255.74 38.64C254.7 38.6667 253.733 38.8267 252.84 39.12C251.96 39.4133 251.187 39.8333 250.52 40.38C249.853 40.9267 249.333 41.5733 248.96 42.32C248.6 43.0533 248.42 43.88 248.42 44.8C248.42 45.7867 248.64 46.64 249.08 47.36C249.52 48.0667 250.14 48.6067 250.94 48.98C251.753 49.3533 252.727 49.54 253.86 49.54C254.233 49.54 254.66 49.52 255.14 49.48C255.633 49.44 256.06 49.3867 256.42 49.32L256.68 51.52C256.253 51.5867 255.78 51.64 255.26 51.68C254.753 51.72 254.28 51.74 253.84 51.74ZM266.42 51.58C265.74 51.58 265.113 51.3733 264.54 50.96C263.967 50.5333 263.467 49.94 263.04 49.18C262.613 48.42 262.28 47.5267 262.04 46.5C261.813 45.46 261.7 44.34 261.7 43.14C261.7 42.1667 261.78 41.14 261.94 40.06C262.113 38.9667 262.373 37.82 262.72 36.62L265.06 36.9C264.753 38.0067 264.52 39.06 264.36 40.06C264.2 41.06 264.12 42 264.12 42.88C264.12 43.72 264.187 44.5133 264.32 45.26C264.453 46.0067 264.633 46.66 264.86 47.22C265.1 47.78 265.367 48.22 265.66 48.54C265.967 48.86 266.287 49.02 266.62 49.02C266.94 49.02 267.287 48.8867 267.66 48.62C268.047 48.34 268.44 47.9667 268.84 47.5C269.24 47.0333 269.613 46.5 269.96 45.9C270.32 45.3 270.62 44.6733 270.86 44.02L273 45.1C272.667 46.0067 272.253 46.8533 271.76 47.64C271.267 48.4267 270.72 49.12 270.12 49.72C269.533 50.3067 268.92 50.76 268.28 51.08C267.64 51.4133 267.02 51.58 266.42 51.58ZM276.46 49.64C276.46 48.12 276.353 46.6067 276.14 45.1C275.94 43.5933 275.64 42.1467 275.24 40.76C274.853 39.3733 274.387 38.1 273.84 36.94L276.06 36.28C276.673 37.4933 277.18 38.82 277.58 40.26C277.993 41.6867 278.307 43.1933 278.52 44.78C278.747 46.3533 278.86 47.9733 278.86 49.64H276.46ZM41.74 91.84C42.3 90.04 42.8067 88.2133 43.26 86.36C43.7267 84.4933 44.1333 82.6 44.48 80.68C44.84 78.7467 45.1467 76.8 45.4 74.84L47.78 74.94C47.5533 76.86 47.26 78.8 46.9 80.76C46.5533 82.72 46.1467 84.6667 45.68 86.6C45.2133 88.52 44.6933 90.4067 44.12 92.26L41.74 91.84ZM54.14 91.86C52.9267 91.86 51.8733 91.7133 50.98 91.42C50.0867 91.14 49.3933 90.7467 48.9 90.24C48.4067 89.72 48.16 89.1 48.16 88.38C48.16 87.8467 48.34 87.32 48.7 86.8C49.06 86.28 49.6133 85.74 50.36 85.18L52.16 86.46C51.6533 86.78 51.2733 87.08 51.02 87.36C50.78 87.6267 50.66 87.8933 50.66 88.16C50.66 88.4667 50.8 88.74 51.08 88.98C51.3733 89.2067 51.78 89.3867 52.3 89.52C52.8333 89.6533 53.4467 89.72 54.14 89.72C54.7667 89.72 55.4067 89.6867 56.06 89.62C56.7133 89.5533 57.3933 89.4533 58.1 89.32L58.36 91.46C57.6267 91.5933 56.92 91.6933 56.24 91.76C55.56 91.8267 54.86 91.86 54.14 91.86ZM41.46 79.42V77.34H55.54V79.42H41.46ZM48.94 81.68C50.5133 81.5333 52.0533 81.42 53.56 81.34C55.08 81.26 56.6 81.22 58.12 81.22V83.32C56.6267 83.32 55.1267 83.36 53.62 83.44C52.1267 83.5067 50.6133 83.6267 49.08 83.8L48.94 81.68ZM63.56 92.84V83.06H60.78V81.14H63.58V74.76H65.74V81.14H68.24V83.06H65.76V92.84H63.56ZM61.44 90.72L60.34 88.48C61.1533 87.4 61.82 86.3 62.34 85.18C62.8733 84.06 63.28 82.88 63.56 81.64L64.62 82.22C64.4867 83.3133 64.2733 84.38 63.98 85.42C63.6867 86.4467 63.32 87.4133 62.88 88.32C62.4533 89.2133 61.9733 90.0133 61.44 90.72ZM67.02 88.44C66.5667 87.4133 66.1067 86.3933 65.64 85.38C65.1867 84.3533 64.7133 83.3067 64.22 82.24L65.64 81.52C66.1333 82.4533 66.62 83.3933 67.1 84.34C67.58 85.2733 68.0533 86.22 68.52 87.18L67.02 88.44ZM61.72 80.72C61.5467 79.9333 61.36 79.14 61.16 78.34C60.9733 77.54 60.7867 76.8067 60.6 76.14L62.42 75.66C62.6067 76.3267 62.7933 77.06 62.98 77.86C63.1667 78.6467 63.3267 79.44 63.46 80.24L61.72 80.72ZM67.98 89.94L67.78 87.9L79.46 85.72L79.66 87.76L67.98 89.94ZM72.44 86.02C71.8667 85.38 71.2467 84.72 70.58 84.04C69.9133 83.3467 69.2067 82.6533 68.46 81.96L70.04 80.46C70.7867 81.14 71.5 81.82 72.18 82.5C72.86 83.18 73.48 83.84 74.04 84.48L72.44 86.02ZM67.58 80.74L65.82 80.18C66.06 79.46 66.2733 78.6933 66.46 77.88C66.66 77.0533 66.8133 76.28 66.92 75.56L68.8 75.84C68.6667 76.6133 68.4933 77.4333 68.28 78.3C68.0667 79.1533 67.8333 79.9667 67.58 80.74ZM75.4 92.84V74.76H77.74V92.84H75.4ZM73.54 80.94C73.0067 80.34 72.44 79.7333 71.84 79.12C71.2533 78.5067 70.62 77.8867 69.94 77.26L71.54 75.78C72.22 76.3933 72.86 77.0067 73.46 77.62C74.06 78.22 74.6267 78.8133 75.16 79.4L73.54 80.94ZM85.86 92.26V90.32H91.68V88.32H87.04V86.5H91.68V80.72H89.3V79.08H91.68V77.02H94.06V79.08H96.44V77.02H89.3V84.66H87.1V75.14H98.64V84.66H89.3V82.88H96.44V80.72H94.06V86.5H98.94V88.32H94.06V90.32H99.22V92.26H85.86ZM80.88 91.06L80.66 89.02C81.26 88.8733 81.8867 88.7133 82.54 88.54C83.2067 88.3533 83.8667 88.1533 84.52 87.94C85.1867 87.7133 85.8333 87.4867 86.46 87.26L86.52 89.24C85.92 89.48 85.2933 89.7133 84.64 89.94C83.9867 90.1667 83.34 90.3733 82.7 90.56C82.06 90.7467 81.4533 90.9133 80.88 91.06ZM82.46 88.96V83.62H80.96V81.56H82.46V77.86H80.76V75.76H86.48V77.86H84.74V81.56H86.36V83.62H84.74V88.96H82.46ZM111.7 89.54C112.407 89.46 113.053 89.26 113.64 88.94C114.24 88.6067 114.753 88.1867 115.18 87.68C115.62 87.16 115.96 86.5667 116.2 85.9C116.44 85.2333 116.56 84.5133 116.56 83.74C116.56 82.6467 116.307 81.6933 115.8 80.88C115.293 80.0533 114.587 79.42 113.68 78.98C112.787 78.54 111.747 78.32 110.56 78.32C109.547 78.32 108.607 78.4867 107.74 78.82C106.873 79.1533 106.107 79.62 105.44 80.22C104.787 80.8067 104.273 81.5 103.9 82.3C103.527 83.0867 103.34 83.9333 103.34 84.84C103.34 85.4933 103.447 86.12 103.66 86.72C103.873 87.32 104.14 87.8133 104.46 88.2C104.793 88.5733 105.14 88.76 105.5 88.76C106.02 88.76 106.52 88.2867 107 87.34C107.48 86.3933 107.913 85.0333 108.3 83.26C108.7 81.4733 109.033 79.3333 109.3 76.84L111.62 77.08C111.327 79.56 110.993 81.6867 110.62 83.46C110.247 85.2333 109.82 86.6867 109.34 87.82C108.86 88.9533 108.313 89.7933 107.7 90.34C107.087 90.8733 106.393 91.14 105.62 91.14C104.98 91.14 104.387 90.98 103.84 90.66C103.293 90.34 102.82 89.8933 102.42 89.32C102.02 88.7467 101.707 88.08 101.48 87.32C101.253 86.5467 101.14 85.72 101.14 84.84C101.14 83.5867 101.373 82.4333 101.84 81.38C102.307 80.3133 102.96 79.3933 103.8 78.62C104.64 77.8467 105.633 77.2467 106.78 76.82C107.94 76.38 109.207 76.16 110.58 76.16C112.193 76.16 113.62 76.4667 114.86 77.08C116.113 77.6933 117.093 78.5667 117.8 79.7C118.507 80.8333 118.86 82.18 118.86 83.74C118.86 84.7933 118.7 85.7733 118.38 86.68C118.073 87.5867 117.633 88.3933 117.06 89.1C116.487 89.7933 115.8 90.36 115 90.8C114.2 91.24 113.313 91.52 112.34 91.64L111.7 89.54ZM130.92 80.22H133.64C135.52 80.22 136.24 80.88 136.24 82.26V84.64C136.24 86.02 135.52 86.68 133.64 86.68H126.3C124.42 86.68 123.7 86.02 123.7 84.64V82.26C123.7 80.88 124.42 80.22 126.3 80.22H128.72V74.96C128.72 74.36 129.28 74.06 129.82 74.06C130.38 74.06 130.92 74.36 130.92 74.96V76.64H136.48C137.02 76.64 137.3 77.1 137.3 77.58C137.3 78.04 137.02 78.52 136.48 78.52H130.92V80.22ZM126.56 84.84H133.38C133.92 84.84 134.08 84.7 134.08 84.28V82.62C134.08 82.2 133.92 82.06 133.38 82.06H126.56C126.02 82.06 125.86 82.2 125.86 82.62V84.28C125.86 84.68 126 84.84 126.56 84.84ZM123.08 88.38C123.3 87.92 123.68 87.72 124.08 87.72C124.62 87.72 125.16 88.12 125.16 88.72C125.16 88.84 125.14 88.98 125.08 89.14C124.66 90.1 124.06 91.16 123.52 91.88C123.22 92.26 122.86 92.42 122.52 92.42C121.92 92.42 121.4 91.96 121.4 91.38C121.4 91.16 121.48 90.9 121.66 90.66C122.14 90.04 122.72 89.16 123.08 88.38ZM128.66 88.56C128.92 89.3 129.18 90.22 129.32 90.88C129.34 90.96 129.34 91.04 129.34 91.1C129.34 91.8 128.76 92.18 128.18 92.18C127.72 92.18 127.26 91.92 127.16 91.38C127.02 90.62 126.8 89.76 126.6 89.08C126.56 88.96 126.56 88.86 126.56 88.76C126.56 88.18 127.08 87.84 127.62 87.84C128.04 87.84 128.48 88.06 128.66 88.56ZM136.84 87.92C137.4 88.5 138.14 89.46 138.6 90.24C138.74 90.46 138.8 90.68 138.8 90.88C138.8 91.5 138.24 91.94 137.66 91.94C137.32 91.94 136.96 91.76 136.72 91.38C136.2 90.56 135.66 89.74 135.14 89.08C134.96 88.86 134.88 88.64 134.88 88.44C134.88 87.92 135.38 87.52 135.94 87.52C136.24 87.52 136.56 87.64 136.84 87.92ZM132.74 88.34C133.1 88.96 133.54 89.96 133.74 90.56C133.8 90.72 133.82 90.86 133.82 90.98C133.82 91.64 133.24 92.02 132.68 92.02C132.24 92.02 131.82 91.8 131.66 91.28C131.44 90.64 131.06 89.68 130.76 89.04C130.68 88.88 130.66 88.74 130.66 88.62C130.66 88.08 131.16 87.74 131.7 87.74C132.1 87.74 132.5 87.92 132.74 88.34ZM147.62 82.72C147.18 80.8 146.88 78.42 146.88 75.66C146.88 74.94 147.46 74.58 148.04 74.58C148.62 74.58 149.2 74.94 149.2 75.66C149.2 77.9 149.38 79.9 149.66 81.52C150.88 80.92 152.24 80.38 153.6 79.96C153.72 79.92 153.84 79.9 153.96 79.9C154.58 79.9 155 80.46 155 81.02C155 81.44 154.78 81.84 154.26 82C152.48 82.56 150.48 83.38 149 84.32C147.28 85.44 146.68 86.54 146.68 87.56C146.68 88.8 147.5 89.44 150.68 89.44C152.28 89.44 153.7 89.3 154.82 89.08C154.92 89.06 155 89.06 155.08 89.06C155.78 89.06 156.16 89.6 156.16 90.16C156.16 90.66 155.88 91.14 155.26 91.28C153.9 91.56 152.36 91.66 150.66 91.66C146.46 91.66 144.36 90.38 144.36 87.68C144.36 86.04 145.12 84.42 147.62 82.72ZM170.92 80.22H173.64C175.52 80.22 176.24 80.88 176.24 82.26V84.64C176.24 86.02 175.52 86.68 173.64 86.68H166.3C164.42 86.68 163.7 86.02 163.7 84.64V82.26C163.7 80.88 164.42 80.22 166.3 80.22H168.72V74.96C168.72 74.36 169.28 74.06 169.82 74.06C170.38 74.06 170.92 74.36 170.92 74.96V76.64H176.48C177.02 76.64 177.3 77.1 177.3 77.58C177.3 78.04 177.02 78.52 176.48 78.52H170.92V80.22ZM166.56 84.84H173.38C173.92 84.84 174.08 84.7 174.08 84.28V82.62C174.08 82.2 173.92 82.06 173.38 82.06H166.56C166.02 82.06 165.86 82.2 165.86 82.62V84.28C165.86 84.68 166 84.84 166.56 84.84ZM163.08 88.38C163.3 87.92 163.68 87.72 164.08 87.72C164.62 87.72 165.16 88.12 165.16 88.72C165.16 88.84 165.14 88.98 165.08 89.14C164.66 90.1 164.06 91.16 163.52 91.88C163.22 92.26 162.86 92.42 162.52 92.42C161.92 92.42 161.4 91.96 161.4 91.38C161.4 91.16 161.48 90.9 161.66 90.66C162.14 90.04 162.72 89.16 163.08 88.38ZM168.66 88.56C168.92 89.3 169.18 90.22 169.32 90.88C169.34 90.96 169.34 91.04 169.34 91.1C169.34 91.8 168.76 92.18 168.18 92.18C167.72 92.18 167.26 91.92 167.16 91.38C167.02 90.62 166.8 89.76 166.6 89.08C166.56 88.96 166.56 88.86 166.56 88.76C166.56 88.18 167.08 87.84 167.62 87.84C168.04 87.84 168.48 88.06 168.66 88.56ZM176.84 87.92C177.4 88.5 178.14 89.46 178.6 90.24C178.74 90.46 178.8 90.68 178.8 90.88C178.8 91.5 178.24 91.94 177.66 91.94C177.32 91.94 176.96 91.76 176.72 91.38C176.2 90.56 175.66 89.74 175.14 89.08C174.96 88.86 174.88 88.64 174.88 88.44C174.88 87.92 175.38 87.52 175.94 87.52C176.24 87.52 176.56 87.64 176.84 87.92ZM172.74 88.34C173.1 88.96 173.54 89.96 173.74 90.56C173.8 90.72 173.82 90.86 173.82 90.98C173.82 91.64 173.24 92.02 172.68 92.02C172.24 92.02 171.82 91.8 171.66 91.28C171.44 90.64 171.06 89.68 170.76 89.04C170.68 88.88 170.66 88.74 170.66 88.62C170.66 88.08 171.16 87.74 171.7 87.74C172.1 87.74 172.5 87.92 172.74 88.34ZM187.3 81.74C186.5 85.04 185.34 88.28 183.92 90.78C183.66 91.24 183.24 91.42 182.84 91.42C182.26 91.42 181.74 91.02 181.74 90.42C181.74 90.24 181.8 90.02 181.92 89.8C183.18 87.58 184.22 84.84 184.98 81.98C184.16 82.08 183.36 82.22 182.6 82.38C182.52 82.4 182.42 82.4 182.34 82.4C181.72 82.4 181.38 81.9 181.38 81.38C181.38 80.92 181.66 80.46 182.28 80.34C183.3 80.14 184.4 80 185.46 79.88C185.7 78.66 185.9 77.42 186.04 76.2C186.12 75.56 186.62 75.26 187.14 75.26C187.7 75.26 188.26 75.62 188.26 76.26V76.4C188.14 77.48 187.96 78.6 187.74 79.7C188.14 79.68 188.5 79.68 188.82 79.68C191.38 79.68 192.32 80.84 192.32 83.98C192.32 85.86 192.12 87.54 191.78 88.76C191.14 91.06 190.24 91.88 188.22 91.88C187.74 91.88 187.24 91.84 186.86 91.78C186.18 91.68 185.88 91.18 185.88 90.7C185.88 90.14 186.24 89.6 186.9 89.6C186.94 89.6 187 89.62 187.06 89.62C187.44 89.66 187.74 89.7 188.16 89.7C188.86 89.7 189.22 89.48 189.56 88.3C189.9 87.16 190.08 85.6 190.08 83.96C190.08 82.16 189.74 81.68 188.78 81.68C188.34 81.68 187.84 81.7 187.3 81.74ZM195.26 78.32C196.52 79.52 197.76 81.36 198.44 82.7C198.56 82.94 198.6 83.18 198.6 83.38C198.6 84.08 198.04 84.54 197.44 84.54C197.04 84.54 196.62 84.32 196.34 83.78C195.62 82.34 194.56 80.8 193.5 79.66C193.28 79.42 193.18 79.16 193.18 78.94C193.18 78.38 193.74 77.94 194.34 77.94C194.66 77.94 194.98 78.06 195.26 78.32ZM196.98 74.68C196.82 74.52 196.76 74.36 196.76 74.2C196.76 73.8 197.14 73.46 197.6 73.46C197.8 73.46 198 73.54 198.2 73.7C198.72 74.14 199.32 74.76 199.74 75.34C199.9 75.54 199.96 75.74 199.96 75.94C199.96 76.38 199.58 76.7 199.16 76.7C198.92 76.7 198.66 76.6 198.46 76.34C198 75.76 197.44 75.16 196.98 74.68ZM194.98 76.26C194.84 76.1 194.78 75.94 194.78 75.8C194.78 75.4 195.18 75.04 195.62 75.04C195.8 75.04 196 75.1 196.18 75.26C196.72 75.74 197.32 76.38 197.74 77C197.88 77.18 197.92 77.36 197.92 77.54C197.92 77.98 197.54 78.34 197.12 78.34C196.88 78.34 196.64 78.22 196.46 77.96C195.98 77.3 195.44 76.72 194.98 76.26ZM202.2 80.44C205.8 78.88 209.46 78.02 212.34 78.02C215.92 78.02 218.34 79.94 218.34 83C218.34 86.82 215.5 89.5 210 90.28C209.92 90.3 209.84 90.3 209.76 90.3C209.06 90.3 208.66 89.74 208.66 89.16C208.66 88.68 208.98 88.18 209.66 88.06C214.34 87.26 215.98 85.64 215.98 83C215.98 81.46 214.82 80.14 212.34 80.14C209.84 80.14 206.66 80.94 203.08 82.52C202.88 82.6 202.68 82.64 202.5 82.64C201.84 82.64 201.38 82.12 201.38 81.54C201.38 81.12 201.62 80.7 202.2 80.44ZM233.54 89C233.5 91.24 231.86 92.04 229.94 92.04C227.56 92.04 226.12 91 226.12 89.14C226.12 87.54 227.48 86.22 230.04 86.22C230.36 86.22 230.68 86.24 231.04 86.28C230.9 85.36 230.84 84.68 230.84 84.16C230.84 83.3 230.88 82.86 230.98 82.22C231.08 81.66 231.54 81.42 232.02 81.42C232.58 81.42 233.14 81.74 233.14 82.34C233.14 82.4 233.12 82.44 233.12 82.5C233.04 83.08 232.98 83.58 232.98 84.14C232.98 84.7 233.04 85.48 233.26 86.74C234.54 87.12 235.86 87.7 237.02 88.48C237.4 88.74 237.56 89.08 237.56 89.42C237.56 89.98 237.1 90.52 236.5 90.52C236.3 90.52 236.06 90.44 235.82 90.28C235.08 89.76 234.3 89.32 233.54 89ZM229.94 90.06C230.86 90.06 231.36 89.66 231.36 88.78C231.36 88.6 231.36 88.44 231.34 88.28C230.9 88.2 230.48 88.16 230.08 88.16C228.68 88.16 228.24 88.6 228.24 89.14C228.24 89.72 228.64 90.06 229.94 90.06ZM225.58 78.32C225.88 77.3 226.16 76.28 226.36 75.28C226.48 74.68 226.96 74.42 227.44 74.42C228 74.42 228.52 74.76 228.52 75.4C228.52 75.48 228.52 75.58 228.5 75.66C228.34 76.42 228.14 77.22 227.92 78.02C228.52 77.92 229.12 77.82 229.68 77.72C229.76 77.7 229.84 77.7 229.9 77.7C230.54 77.7 230.94 78.22 230.94 78.76C230.94 79.2 230.68 79.64 230.04 79.78C229.18 79.96 228.2 80.12 227.22 80.26C226.38 82.68 225.3 85.08 224.14 87C223.84 87.5 223.42 87.72 223.02 87.72C222.42 87.72 221.9 87.26 221.9 86.66C221.9 86.44 221.96 86.2 222.12 85.96C223.14 84.36 224.06 82.5 224.82 80.52C224.08 80.6 223.36 80.64 222.74 80.66C222.06 80.68 221.7 80.12 221.7 79.56C221.7 79.04 222.02 78.54 222.66 78.52C223.56 78.48 224.56 78.42 225.58 78.32ZM234.46 78.08C235.42 78.34 236.66 78.9 237.52 79.44C237.98 79.72 238.18 80.12 238.18 80.48C238.18 81.06 237.7 81.58 237.12 81.58C236.92 81.58 236.72 81.52 236.52 81.4C235.58 80.86 234.54 80.34 233.66 80.02C233.16 79.84 232.94 79.48 232.94 79.12C232.94 78.58 233.4 78.02 234.08 78.02C234.2 78.02 234.32 78.04 234.46 78.08ZM247.3 81.74C246.5 85.04 245.34 88.28 243.92 90.78C243.66 91.24 243.24 91.42 242.84 91.42C242.26 91.42 241.74 91.02 241.74 90.42C241.74 90.24 241.8 90.02 241.92 89.8C243.18 87.58 244.22 84.84 244.98 81.98C244.16 82.08 243.36 82.22 242.6 82.38C242.52 82.4 242.42 82.4 242.34 82.4C241.72 82.4 241.38 81.9 241.38 81.38C241.38 80.92 241.66 80.46 242.28 80.34C243.3 80.14 244.4 80 245.46 79.88C245.7 78.66 245.9 77.42 246.04 76.2C246.12 75.56 246.62 75.26 247.14 75.26C247.7 75.26 248.26 75.62 248.26 76.26V76.4C248.14 77.48 247.96 78.6 247.74 79.7C248.14 79.68 248.5 79.68 248.82 79.68C251.38 79.68 252.32 80.84 252.32 83.98C252.32 85.86 252.12 87.54 251.78 88.76C251.14 91.06 250.24 91.88 248.22 91.88C247.74 91.88 247.24 91.84 246.86 91.78C246.18 91.68 245.88 91.18 245.88 90.7C245.88 90.14 246.24 89.6 246.9 89.6C246.94 89.6 247 89.62 247.06 89.62C247.44 89.66 247.74 89.7 248.16 89.7C248.86 89.7 249.22 89.48 249.56 88.3C249.9 87.16 250.08 85.6 250.08 83.96C250.08 82.16 249.74 81.68 248.78 81.68C248.34 81.68 247.84 81.7 247.3 81.74ZM255.26 78.32C256.52 79.52 257.76 81.36 258.44 82.7C258.56 82.94 258.6 83.18 258.6 83.38C258.6 84.08 258.04 84.54 257.44 84.54C257.04 84.54 256.62 84.32 256.34 83.78C255.62 82.34 254.56 80.8 253.5 79.66C253.28 79.42 253.18 79.16 253.18 78.94C253.18 78.38 253.74 77.94 254.34 77.94C254.66 77.94 254.98 78.06 255.26 78.32ZM256.98 74.68C256.82 74.52 256.76 74.36 256.76 74.2C256.76 73.8 257.14 73.46 257.6 73.46C257.8 73.46 258 73.54 258.2 73.7C258.72 74.14 259.32 74.76 259.74 75.34C259.9 75.54 259.96 75.74 259.96 75.94C259.96 76.38 259.58 76.7 259.16 76.7C258.92 76.7 258.66 76.6 258.46 76.34C258 75.76 257.44 75.16 256.98 74.68ZM254.98 76.26C254.84 76.1 254.78 75.94 254.78 75.8C254.78 75.4 255.18 75.04 255.62 75.04C255.8 75.04 256 75.1 256.18 75.26C256.72 75.74 257.32 76.38 257.74 77C257.88 77.18 257.92 77.36 257.92 77.54C257.92 77.98 257.54 78.34 257.12 78.34C256.88 78.34 256.64 78.22 256.46 77.96C255.98 77.3 255.44 76.72 254.98 76.26ZM271.84 81.24C274.76 81.24 276.76 82.82 276.76 85.34C276.76 88.46 274.42 90.66 269.94 91.3C269.88 91.32 269.8 91.32 269.74 91.32C269.14 91.32 268.82 90.82 268.82 90.34C268.82 89.92 269.08 89.5 269.64 89.4C273.44 88.74 274.74 87.46 274.74 85.34C274.74 84.06 273.82 83.06 271.84 83.06C269.78 83.06 267.2 83.72 264.26 85.02C264.1 85.1 263.94 85.12 263.78 85.12C263.22 85.12 262.84 84.66 262.84 84.18C262.84 83.82 263.04 83.44 263.52 83.24C266.48 81.94 269.48 81.24 271.84 81.24ZM45.08 120.76C44.26 120.88 43.44 121 42.62 121C41.96 121 41.62 120.5 41.62 119.96C41.62 119.42 41.96 118.9 42.64 118.86C43.44 118.82 44.4 118.7 45.48 118.52C45.66 117.42 45.74 116.54 45.86 115.44C45.92 114.82 46.44 114.52 46.96 114.52C47.52 114.52 48.08 114.88 48.08 115.52V115.64C47.98 116.6 47.88 117.32 47.76 118.08C48.32 117.96 48.9 117.82 49.48 117.68C49.58 117.66 49.68 117.64 49.78 117.64C50.4 117.64 50.78 118.16 50.78 118.7C50.78 119.12 50.54 119.54 50 119.68C49.08 119.94 48.2 120.16 47.4 120.34C46.68 124.26 45.72 127.96 44.6 130.86C44.36 131.46 43.86 131.74 43.38 131.74C42.82 131.74 42.28 131.34 42.28 130.72C42.28 130.54 42.32 130.36 42.4 130.16C43.5 127.44 44.38 124.26 45.08 120.76ZM49.1 127.62C49.1 126.94 49.66 126.56 50.22 126.56C50.68 126.56 51.12 126.82 51.18 127.4C51.32 128.68 52.04 129.04 54.22 129.04C55.24 129.04 56.1 128.96 56.9 128.84C56.96 128.82 57.06 128.82 57.12 128.82C57.8 128.82 58.18 129.4 58.18 129.94C58.18 130.42 57.88 130.9 57.26 131C56.4 131.14 55.4 131.22 54.26 131.22C51.46 131.22 50.22 130.5 49.58 129.48C49.26 128.98 49.1 128.18 49.1 127.62ZM51.1 121.08C52.66 120.76 54.64 120.54 56.24 120.54C56.96 120.54 57.32 121.08 57.32 121.62C57.32 122.14 56.98 122.64 56.3 122.64C54.7 122.64 52.84 122.88 51.42 123.16C51.34 123.18 51.24 123.18 51.18 123.18C50.56 123.18 50.18 122.68 50.18 122.14C50.18 121.68 50.46 121.22 51.1 121.08ZM71.02 118.04H65.32C64.66 118.04 64.44 118.26 64.44 118.8V120.06C64.44 122.72 63.82 124.84 62.76 126.62C62.5 127.06 62.12 127.24 61.76 127.24C61.24 127.24 60.76 126.84 60.76 126.28C60.76 126.1 60.82 125.88 60.94 125.66C61.88 124 62.36 122.32 62.36 119.94V118.54C62.36 117.02 63.02 116.36 64.84 116.36H70.8C70.76 115.86 70.72 115.34 70.7 114.8C70.68 114.2 71.18 113.9 71.7 113.9C72.18 113.9 72.68 114.18 72.7 114.76C72.72 115.32 72.76 115.84 72.8 116.36H74.84L74.8 116.32C74.52 116.04 74.2 115.82 73.88 115.62C73.6 115.44 73.48 115.2 73.48 114.98C73.48 114.56 73.86 114.16 74.34 114.16C74.48 114.16 74.64 114.2 74.8 114.28C75.18 114.48 75.64 114.8 75.98 115.12C76.2 115.3 76.28 115.52 76.28 115.74C76.28 115.98 76.16 116.2 75.98 116.36H78C78.5 116.36 78.74 116.78 78.74 117.2C78.74 117.62 78.5 118.04 78 118.04H73.02C73.26 119.28 73.6 120.52 74.16 121.66C74.62 121 75 120.28 75.32 119.52C75.5 119.1 75.84 118.92 76.2 118.92C76.68 118.92 77.18 119.28 77.18 119.82C77.18 119.96 77.14 120.1 77.08 120.26C76.58 121.4 75.94 122.46 75.18 123.4C75.82 124.3 76.32 124.64 76.74 124.64C77.1 124.64 77.3 124.4 77.44 123.56C77.52 123.06 77.92 122.82 78.34 122.82C78.82 122.82 79.32 123.14 79.32 123.68V123.8C79.06 125.76 78.16 126.64 76.82 126.64C75.84 126.64 74.8 126.04 73.84 124.88C73.2 125.5 72.52 126.06 71.78 126.56C71.56 126.7 71.34 126.78 71.14 126.78C70.64 126.78 70.24 126.36 70.24 125.88C70.24 125.6 70.38 125.32 70.72 125.08C71.5 124.56 72.18 123.98 72.8 123.34C72.74 123.22 72.68 123.12 72.62 123C71.88 121.56 71.34 119.94 71.02 118.04ZM68.9 125.26H67C65.64 125.26 65.18 124.84 65.18 123.76V122.74C65.18 121.66 65.64 121.24 67 121.24H68.9C70.26 121.24 70.72 121.66 70.72 122.74V123.76C70.72 125.02 70.04 125.26 68.9 125.26ZM67.32 123.92H68.58C68.9 123.92 68.98 123.84 68.98 123.6V122.88C68.98 122.64 68.9 122.56 68.58 122.56H67.32C67 122.56 66.92 122.64 66.92 122.88V123.6C66.92 123.86 67.08 123.92 67.32 123.92ZM70.04 120.4H65.82C65.42 120.4 65.22 120.02 65.22 119.64C65.22 119.28 65.42 118.9 65.82 118.9H70.04C70.44 118.9 70.64 119.28 70.64 119.64C70.64 120.02 70.44 120.4 70.04 120.4ZM65.5 130.54V128.06C65.5 127.5 66.02 127.22 66.54 127.22C67.06 127.22 67.58 127.5 67.58 128.06V130.28C67.58 130.7 67.76 130.82 69.96 130.82C72.44 130.82 72.78 130.6 72.88 129.64C72.94 129.1 73.4 128.84 73.88 128.84C74.4 128.84 74.92 129.16 74.92 129.76V129.86C74.72 131.82 73.88 132.48 69.96 132.48C66 132.48 65.5 132.1 65.5 130.54ZM62.64 128.2C62.82 127.8 63.2 127.64 63.56 127.64C64.08 127.64 64.6 127.98 64.6 128.54C64.6 128.66 64.56 128.8 64.5 128.96C64.18 129.74 63.74 130.56 63.26 131.2C63.04 131.5 62.7 131.64 62.38 131.64C61.84 131.64 61.32 131.22 61.32 130.7C61.32 130.5 61.38 130.3 61.54 130.08C61.98 129.5 62.3 128.94 62.64 128.2ZM76.86 127.72C77.42 128.24 78 128.88 78.42 129.48C78.58 129.7 78.64 129.9 78.64 130.1C78.64 130.68 78.12 131.12 77.56 131.12C77.28 131.12 76.98 131 76.74 130.68C76.28 130.08 75.84 129.54 75.32 128.98C75.12 128.76 75.04 128.54 75.04 128.34C75.04 127.84 75.52 127.42 76.08 127.42C76.34 127.42 76.62 127.5 76.86 127.72ZM70.14 126.76C70.56 126.98 71 127.3 71.36 127.6C71.66 127.84 71.78 128.12 71.78 128.38C71.78 128.88 71.36 129.32 70.84 129.32C70.64 129.32 70.42 129.26 70.2 129.08C69.86 128.8 69.42 128.46 69.04 128.2C68.76 128 68.62 127.76 68.62 127.52C68.62 127.06 69.06 126.62 69.6 126.62C69.78 126.62 69.96 126.66 70.14 126.76ZM87.08 128.4H86.86C85.32 128.4 84.74 127.84 84.74 126.52V121.86C84.74 120.54 85.4 119.98 86.94 119.98H93.08C94.62 119.98 95.28 120.54 95.28 121.86V126.52C95.28 127.84 94.7 128.4 93.16 128.4H92.76V130.16C92.76 130.56 92.96 130.64 94.4 130.64C96.4 130.64 96.74 130.42 96.84 129.54C96.9 128.98 97.38 128.72 97.84 128.72C98.38 128.72 98.88 129.02 98.88 129.62V129.72C98.7 131.56 97.94 132.32 94.36 132.32C91.14 132.32 90.72 131.9 90.72 130.5V128.4H89.2C88.62 129.72 87.72 130.68 86.48 131.42C85.18 132.2 83.72 132.54 82.22 132.7H82.1C81.52 132.7 81.18 132.26 81.18 131.78C81.18 131.36 81.48 130.94 82.08 130.88C84.6 130.62 86.22 129.84 87.08 128.4ZM87.44 127H92.58C93.1 127 93.24 126.9 93.24 126.52V126.02H86.78V126.52C86.78 126.9 86.92 127 87.44 127ZM86.78 123.72V124.68H93.24V123.72H86.78ZM93.24 122.38V121.9C93.24 121.52 93.1 121.42 92.58 121.42H87.44C86.92 121.42 86.78 121.52 86.78 121.9V122.38H93.24ZM86.38 117.3H92.4C92.88 116.52 93.3 115.76 93.72 114.8C93.92 114.36 94.3 114.18 94.68 114.18C95.22 114.18 95.76 114.56 95.76 115.12C95.76 115.26 95.74 115.42 95.66 115.58C95.36 116.2 95.04 116.78 94.72 117.3H96.18C97.96 117.3 98.64 117.94 98.64 119.28V120.72C98.64 121.3 98.1 121.6 97.58 121.6C97.02 121.6 96.48 121.3 96.48 120.72V119.62C96.48 119.14 96.32 119.04 95.68 119.04H84.32C83.68 119.04 83.54 119.14 83.54 119.62V120.82C83.54 121.38 83 121.68 82.46 121.68C81.9 121.68 81.36 121.38 81.36 120.82V119.28C81.36 117.94 82.04 117.3 83.84 117.3H85.34C85.18 117.2 85.06 117.08 84.96 116.88C84.78 116.56 84.48 116.1 84.18 115.68C84.06 115.52 84.02 115.34 84.02 115.2C84.02 114.7 84.52 114.3 85.08 114.3C85.38 114.3 85.7 114.44 85.94 114.72C86.26 115.14 86.54 115.56 86.76 116C86.86 116.18 86.9 116.34 86.9 116.5C86.9 116.84 86.68 117.14 86.38 117.3ZM90.16 114.48C90.44 114.9 90.68 115.34 90.88 115.76C90.96 115.92 90.98 116.08 90.98 116.22C90.98 116.78 90.46 117.14 89.94 117.14C89.56 117.14 89.18 116.96 89 116.54C88.82 116.16 88.62 115.74 88.38 115.36C88.26 115.18 88.22 115.02 88.22 114.86C88.22 114.36 88.72 114 89.26 114C89.6 114 89.94 114.14 90.16 114.48ZM113.04 131.94C111.427 131.94 110.02 131.653 108.82 131.08C107.633 130.52 106.713 129.727 106.06 128.7C105.407 127.66 105.08 126.44 105.08 125.04C105.08 123.947 105.273 122.933 105.66 122C106.06 121.067 106.62 120.253 107.34 119.56C108.073 118.853 108.94 118.313 109.94 117.94L110.14 118.56L100.62 118.78V116.64L117.48 116.24V118.38L114.94 118.44C113.873 118.467 112.887 118.64 111.98 118.96C111.087 119.267 110.313 119.7 109.66 120.26C109.02 120.82 108.52 121.487 108.16 122.26C107.8 123.02 107.62 123.867 107.62 124.8C107.62 125.813 107.84 126.693 108.28 127.44C108.72 128.173 109.34 128.74 110.14 129.14C110.953 129.54 111.927 129.74 113.06 129.74C113.3 129.74 113.567 129.733 113.86 129.72C114.167 129.693 114.473 129.667 114.78 129.64C115.1 129.6 115.38 129.56 115.62 129.52L115.88 131.72C115.6 131.76 115.293 131.793 114.96 131.82C114.627 131.86 114.293 131.887 113.96 131.9C113.627 131.927 113.32 131.94 113.04 131.94ZM115.08 125.7C114.773 125.02 114.44 124.373 114.08 123.76C113.733 123.133 113.333 122.493 112.88 121.84L114.62 120.88C115.073 121.533 115.48 122.18 115.84 122.82C116.2 123.447 116.54 124.113 116.86 124.82L115.08 125.7ZM118.12 124.56C117.827 123.867 117.507 123.213 117.16 122.6C116.827 121.973 116.44 121.333 116 120.68L117.74 119.76C118.18 120.427 118.573 121.08 118.92 121.72C119.28 122.36 119.607 123.04 119.9 123.76L118.12 124.56ZM129.64 132.04C128.12 132.04 126.873 131.8 125.9 131.32C124.94 130.853 124.227 130.127 123.76 129.14C123.307 128.153 123.08 126.887 123.08 125.34V115.6H125.52V125.34C125.52 126.9 125.847 128.033 126.5 128.74C127.153 129.433 128.2 129.78 129.64 129.78C130.693 129.78 131.62 129.587 132.42 129.2C133.233 128.813 133.967 128.187 134.62 127.32C135.287 126.44 135.927 125.273 136.54 123.82L138.76 124.72C138.227 126.053 137.653 127.187 137.04 128.12C136.44 129.04 135.78 129.793 135.06 130.38C134.353 130.953 133.553 131.373 132.66 131.64C131.767 131.907 130.76 132.04 129.64 132.04ZM141.74 131.84C142.3 130.04 142.807 128.213 143.26 126.36C143.727 124.493 144.133 122.6 144.48 120.68C144.84 118.747 145.147 116.8 145.4 114.84L147.78 114.94C147.553 116.86 147.26 118.8 146.9 120.76C146.553 122.72 146.147 124.667 145.68 126.6C145.213 128.52 144.693 130.407 144.12 132.26L141.74 131.84ZM154.14 131.86C152.927 131.86 151.873 131.713 150.98 131.42C150.087 131.14 149.393 130.747 148.9 130.24C148.407 129.72 148.16 129.1 148.16 128.38C148.16 127.847 148.34 127.32 148.7 126.8C149.06 126.28 149.613 125.74 150.36 125.18L152.16 126.46C151.653 126.78 151.273 127.08 151.02 127.36C150.78 127.627 150.66 127.893 150.66 128.16C150.66 128.467 150.8 128.74 151.08 128.98C151.373 129.207 151.78 129.387 152.3 129.52C152.833 129.653 153.447 129.72 154.14 129.72C154.767 129.72 155.407 129.687 156.06 129.62C156.713 129.553 157.393 129.453 158.1 129.32L158.36 131.46C157.627 131.593 156.92 131.693 156.24 131.76C155.56 131.827 154.86 131.86 154.14 131.86ZM141.46 119.42V117.34H155.54V119.42H141.46ZM148.94 121.68C150.513 121.533 152.053 121.42 153.56 121.34C155.08 121.26 156.6 121.22 158.12 121.22V123.32C156.627 123.32 155.127 123.36 153.62 123.44C152.127 123.507 150.613 123.627 149.08 123.8L148.94 121.68ZM161.78 131V128.18H164.62V131H161.78ZM168.05 131V128.18H170.89V131H168.05ZM174.319 131V128.18H177.159V131H174.319ZM187.905 126.62L187.545 116.4H190.505L190.165 126.62H187.905ZM187.625 131V128.28H190.445V131H187.625Z" fill="#282828"/>
<path opacity="0.6" d="M52.88 167.4C52.88 163.7 54.46 160.44 57.76 157.78C57.94 157.62 58.16 157.54 58.36 157.54C58.74 157.54 59.1 157.88 59.1 158.26C59.1 158.52 59 158.7 58.8 158.88C55.92 161.34 54.72 164.12 54.72 167.4C54.72 170.68 55.92 173.46 58.8 175.92C59 176.1 59.1 176.28 59.1 176.54C59.1 176.92 58.74 177.26 58.36 177.26C58.16 177.26 57.94 177.18 57.76 177.02C54.46 174.36 52.88 171.1 52.88 167.4ZM64.36 167.38H64.42C64.84 166.52 65.3 165.86 65.96 165.08C67.18 163.66 68.84 162.56 70.7 162.16C70.62 161.32 70.54 160.5 70.42 159.68C70.42 159.62 70.4 159.58 70.4 159.54C70.4 158.92 70.98 158.58 71.54 158.58C72.06 158.58 72.58 158.86 72.66 159.46C72.78 160.3 72.88 161.14 72.96 161.98C76.3 162.14 78.28 164.32 78.28 167.38C78.28 170.8 75.7 172.96 72.1 172.96H71.84C71.28 174.08 70.48 175.04 69.46 175.88C69.2 176.1 68.92 176.18 68.66 176.18C68.06 176.18 67.54 175.7 67.54 175.14C67.54 174.84 67.68 174.54 68.02 174.26C68.7 173.72 69.22 173.16 69.64 172.5C68.64 172.04 67.84 171.3 67.3 170.22C67.2 170.04 67.16 169.88 67.16 169.72C67.16 169.16 67.68 168.74 68.22 168.74C68.56 168.74 68.9 168.9 69.14 169.3C69.44 169.82 69.96 170.28 70.44 170.56C70.72 169.44 70.84 168.04 70.84 166.18C70.84 165.52 70.82 164.84 70.8 164.14C69.56 164.56 68.42 165.36 67.36 166.56C66.48 167.52 65.62 169.02 65.18 170.24C64.98 170.76 64.94 171.08 64.94 171.3C64.94 171.48 64.98 171.68 65.02 171.96C65.02 172.7 64.44 173.1 63.88 173.1C63.4 173.1 62.94 172.84 62.78 172.26C62.36 170.68 62.12 169.2 62.12 167.26C62.12 165.82 62.32 163.52 62.74 161.64C62.88 161.02 63.36 160.76 63.86 160.76C64.42 160.76 64.98 161.12 64.98 161.74C64.98 161.82 64.98 161.9 64.96 161.98C64.56 164.04 64.32 165.64 64.32 166.9C64.32 167.1 64.32 167.16 64.36 167.38ZM73.08 163.94C73.12 164.7 73.14 165.46 73.14 166.2C73.14 167.98 72.98 169.52 72.64 170.84C74.72 170.66 76.02 169.64 76.02 167.38C76.02 165.52 75.02 164.16 73.08 163.94ZM88.48 158.58C89.92 158.78 91.78 159.3 93.1 159.84C93.6 160.04 93.82 160.46 93.82 160.88C93.82 161.46 93.4 162.06 92.78 162.06C92.66 162.06 92.52 162.02 92.38 161.98C91.12 161.54 89.36 161.04 88.02 160.78C87.44 160.66 87.18 160.22 87.18 159.76C87.18 159.18 87.58 158.56 88.28 158.56C88.36 158.56 88.42 158.58 88.48 158.58ZM85.32 166.66C85.14 166.74 84.96 166.78 84.8 166.78C84.16 166.78 83.7 166.22 83.7 165.66C83.7 165.28 83.92 164.88 84.44 164.66C86.34 163.82 88.64 163.34 90.2 163.34C93.34 163.34 94.82 164.76 94.82 167.44C94.82 170.52 93.42 173.72 90.4 175.84C90.14 176.02 89.88 176.1 89.64 176.1C89 176.1 88.5 175.58 88.5 175C88.5 174.66 88.66 174.3 89.08 174C91.58 172.16 92.5 169.94 92.5 167.46C92.5 166.16 91.96 165.48 90.24 165.48C89.04 165.48 87.18 165.86 85.32 166.66ZM106.88 167.4H106.92C107.12 166.94 107.26 166.56 107.44 166.02C107.6 165.58 107.96 165.38 108.3 165.38C108.76 165.38 109.2 165.7 109.2 166.18C109.2 166.26 109.18 166.34 109.16 166.42C108.82 167.56 108.28 168.82 107.76 169.72C107.44 170.26 106.9 170.54 106.38 170.54C105.82 170.54 105.28 170.22 105.1 169.58C104.84 168.72 104.62 167.28 104.62 166.14C104.62 164.54 104.86 162.34 105.36 160.26C105.5 159.7 106.02 159.44 106.5 159.44C107.06 159.44 107.6 159.76 107.6 160.34C107.6 160.42 107.58 160.5 107.56 160.6C107.12 162.46 106.82 164.74 106.82 165.94C106.82 166.58 106.84 167 106.88 167.4ZM112.08 160.16V160.04C112.08 159.38 112.68 159.02 113.28 159.02C113.82 159.02 114.36 159.32 114.46 159.98C114.74 162.08 114.88 164.26 114.88 166.42C114.88 170.76 113.32 173.78 110.52 175.92C110.24 176.14 109.94 176.24 109.68 176.24C109.06 176.24 108.56 175.72 108.56 175.12C108.56 174.78 108.72 174.42 109.08 174.12C111.36 172.24 112.48 169.8 112.48 166.42C112.48 164.36 112.34 162.28 112.08 160.16ZM132.3 168.4L132.32 168.36C131.4 167.32 130.7 166.2 130 164.86C127.78 165.26 124.82 165.6 123.76 165.6C123.08 165.6 122.72 165.04 122.72 164.5C122.72 164.02 123.02 163.52 123.68 163.5C125.36 163.42 127.28 163.2 129.12 162.9C128.72 161.86 128.36 160.82 128.08 159.8C128.06 159.72 128.04 159.64 128.04 159.56C128.04 158.96 128.64 158.58 129.22 158.58C129.66 158.58 130.1 158.8 130.24 159.34C130.5 160.36 130.82 161.46 131.24 162.5C132.76 162.18 134.16 161.8 135.26 161.42C135.4 161.36 135.56 161.34 135.68 161.34C136.32 161.34 136.76 161.88 136.76 162.42C136.76 162.82 136.52 163.22 135.94 163.42C134.88 163.78 133.56 164.14 132.14 164.44C132.88 165.84 133.92 167.32 135.42 168.94C135.66 169.2 135.76 169.5 135.76 169.78C135.76 170.38 135.3 170.92 134.66 170.92C134.54 170.92 134.4 170.88 134.26 170.84C132.72 170.3 131.24 170.08 129.64 170.08C127.22 170.08 126.4 170.82 126.4 171.92C126.4 173.06 127.3 173.82 130.28 173.82C131.1 173.82 131.74 173.78 132.38 173.72H132.52C133.22 173.72 133.58 174.26 133.58 174.8C133.58 175.28 133.28 175.76 132.6 175.84C131.94 175.92 131.2 175.96 130.32 175.96C126.24 175.96 124.08 174.42 124.08 171.9C124.08 169.74 125.74 168.14 129.62 168.14C130.7 168.14 131.5 168.24 132.3 168.4ZM147.68 166.96L147.72 166.98C148.3 166.62 148.9 166.46 149.54 166.46C151.38 166.46 152.38 167.56 152.52 170.68C152.62 172.86 153.1 173.16 153.86 173.16C154.76 173.16 155.52 172.38 156.22 170.56C156.42 170.04 156.86 169.8 157.3 169.8C157.9 169.8 158.5 170.24 158.5 170.88C158.5 171.02 158.46 171.18 158.4 171.36C157.36 174.12 155.86 175.42 153.7 175.42C151.62 175.42 150.34 174.3 150.2 170.88C150.12 168.9 149.82 168.48 149 168.48C147.94 168.48 146.86 169.46 145.88 171.5C145.44 172.42 144.86 173.64 144.42 174.6C144.2 175.06 143.78 175.28 143.36 175.28C142.76 175.28 142.16 174.86 142.16 174.22C142.16 174.08 142.2 173.94 142.26 173.78C144.02 169.54 146.56 164.12 148.86 159.86C149.08 159.44 149.48 159.26 149.88 159.26C150.52 159.26 151.14 159.7 151.14 160.3C151.14 160.46 151.1 160.62 151.02 160.78L147.68 166.96ZM161.14 175.6L177.62 158.08C177.8 157.9 178 157.76 178.18 157.76C178.7 157.76 179.14 158.18 179.14 158.58C179.14 158.8 179.06 159 178.86 159.2L162.38 176.72C162.2 176.9 162 177.04 161.82 177.04C161.3 177.04 160.86 176.62 160.86 176.22C160.86 176 160.94 175.8 161.14 175.6ZM48.24 205.28H53.46C54.92 205.28 55.8 205.98 55.8 207.04C55.8 207.44 55.68 207.9 55.4 208.38C54.7 209.62 53.76 210.78 52.68 211.82C54.34 212.92 56.28 213.72 58.42 214.24C59.02 214.38 59.3 214.84 59.3 215.28C59.3 215.84 58.88 216.42 58.18 216.42C58.1 216.42 57.98 216.4 57.88 216.38C55.38 215.8 53.02 214.72 51.02 213.2C48.92 214.76 46.42 215.92 43.88 216.56C43.78 216.58 43.68 216.6 43.6 216.6C42.98 216.6 42.58 216.08 42.58 215.56C42.58 215.16 42.82 214.76 43.36 214.62C45.66 214.02 47.74 213.06 49.48 211.84C48.42 210.78 47.54 209.58 46.82 208.28C45.58 210.52 44.06 212.48 42.36 213.96C42.1 214.2 41.8 214.3 41.54 214.3C41 214.3 40.54 213.86 40.54 213.34C40.54 213.06 40.66 212.78 40.94 212.52C43.52 210.14 45.58 206.9 46.76 203.04H41.94C41.36 203.04 41.08 202.54 41.08 202.06C41.08 201.56 41.36 201.08 41.94 201.08H47.26C47.42 200.38 47.54 199.64 47.64 198.9C47.72 198.3 48.22 198 48.74 198C49.3 198 49.86 198.34 49.86 199.02C49.86 199.06 49.84 199.12 49.84 199.18C49.76 199.82 49.64 200.46 49.5 201.08H58.22C58.8 201.08 59.1 201.56 59.1 202.06C59.1 202.54 58.8 203.04 58.22 203.04H49C48.78 203.8 48.52 204.54 48.24 205.28ZM52.78 207.16H48.32C49.02 208.44 49.94 209.6 51.04 210.56C51.92 209.72 52.66 208.82 53.22 207.84C53.32 207.66 53.36 207.54 53.36 207.42C53.36 207.24 53.18 207.16 52.78 207.16ZM65.16 208.6V212.6C66.42 213.82 68.38 214.3 73.02 214.3C75.12 214.3 76.94 214.24 78.44 214.08H78.58C79.22 214.08 79.54 214.58 79.54 215.08C79.54 215.58 79.24 216.08 78.58 216.12C77.02 216.24 75.2 216.3 73.08 216.3C68.06 216.3 65.9 215.74 64.36 214.28C63.72 215 62.96 215.76 62.26 216.28C62.02 216.46 61.78 216.52 61.56 216.52C60.98 216.52 60.5 216.06 60.5 215.52C60.5 215.22 60.68 214.88 61.08 214.6C61.74 214.14 62.46 213.5 63.08 212.82V208.94C63.08 208.6 63.02 208.48 62.5 208.48H61.62C61.04 208.48 60.74 207.98 60.74 207.5C60.74 207 61.04 206.52 61.62 206.52H62.98C64.54 206.52 65.16 207.22 65.16 208.6ZM78.2 203.86H75.54C75.7 204 75.82 204.2 75.82 204.44C75.82 204.6 75.78 204.76 75.68 204.92C75.54 205.16 75.4 205.42 75.22 205.68H78.3C78.8 205.68 79.04 206.08 79.04 206.5C79.04 206.9 78.8 207.32 78.3 207.32H73.32V208.22H76.84C77.34 208.22 77.58 208.62 77.58 209.02C77.58 209.42 77.34 209.82 76.84 209.82H73.32V210.74H77.98C78.48 210.74 78.72 211.14 78.72 211.56C78.72 211.96 78.48 212.38 77.98 212.38H73.32V213.12C73.32 213.66 72.82 213.94 72.3 213.94C71.8 213.94 71.28 213.66 71.28 213.12V212.38H66.98C66.52 212.38 66.28 211.96 66.28 211.56C66.28 211.14 66.52 210.74 66.98 210.74H71.28V209.82H68.18C67.72 209.82 67.5 209.42 67.5 209.02C67.5 208.62 67.72 208.22 68.18 208.22H71.28V207.32H66.88C66.42 207.32 66.18 206.9 66.18 206.5C66.18 206.08 66.42 205.68 66.88 205.68H69.54C69.38 205.44 69.18 205.14 69 204.86C68.88 204.68 68.82 204.52 68.82 204.38C68.82 204.18 68.92 204 69.06 203.86H66.48C66.02 203.86 65.78 203.44 65.78 203.04C65.78 202.62 66.02 202.22 66.48 202.22H71.28V201.3H68.02C67.56 201.3 67.32 200.88 67.32 200.48C67.32 200.06 67.56 199.66 68.02 199.66H71.28V198.8C71.28 198.24 71.8 197.98 72.3 197.98C72.82 197.98 73.32 198.24 73.32 198.8V199.66H76.86C77.36 199.66 77.6 200.06 77.6 200.48C77.6 200.88 77.36 201.3 76.86 201.3H73.32V202.22H78.2C78.7 202.22 78.94 202.62 78.94 203.04C78.94 203.44 78.7 203.86 78.2 203.86ZM71.4 205.68H73.08C73.38 205.2 73.62 204.76 73.86 204.2C73.92 204.06 74 203.94 74.1 203.86H70.56C70.6 203.9 70.64 203.94 70.7 204.02C70.96 204.36 71.1 204.54 71.28 204.84C71.4 205.04 71.44 205.22 71.44 205.4C71.44 205.5 71.42 205.6 71.4 205.68ZM63.36 199.5C63.98 199.96 64.48 200.48 64.9 200.98C65.12 201.24 65.2 201.5 65.2 201.74C65.2 202.36 64.66 202.84 64.06 202.84C63.76 202.84 63.46 202.72 63.2 202.4C62.82 201.92 62.44 201.52 61.88 201.02C61.6 200.78 61.5 200.5 61.5 200.24C61.5 199.7 61.98 199.22 62.58 199.22C62.84 199.22 63.1 199.3 63.36 199.5ZM88.88 215.9V209.64C86.72 209.8 84.58 209.88 82.52 209.92C81.84 209.92 81.48 209.42 81.48 208.92C81.48 208.42 81.82 207.94 82.5 207.94C84.22 207.94 86.04 207.9 87.86 207.82C88.08 207.62 88.3 207.4 88.52 207.2C87.34 206.16 86.28 205.38 85.12 204.62C84.82 204.42 84.68 204.16 84.68 203.88C84.68 203.38 85.14 202.9 85.72 202.9C85.94 202.9 86.16 202.96 86.38 203.1C86.6 203.24 86.86 203.4 87.1 203.58C87.68 202.9 88.24 202.18 88.66 201.4C86.98 201.58 84.3 201.78 83.64 201.78C83 201.78 82.64 201.28 82.64 200.78C82.64 200.3 82.96 199.84 83.6 199.8C87.62 199.62 91.5 199.14 95.24 198.2C95.34 198.18 95.44 198.16 95.54 198.16C96.2 198.16 96.64 198.72 96.64 199.28C96.64 199.68 96.4 200.08 95.8 200.22C94.08 200.62 92.3 200.94 90.5 201.18C90.64 201.34 90.72 201.52 90.72 201.74C90.72 201.94 90.64 202.16 90.48 202.4C90.02 203.1 89.38 203.88 88.64 204.7C89.06 205.02 89.48 205.38 89.9 205.72C90.78 204.72 91.6 203.68 92.32 202.6C92.54 202.28 92.86 202.14 93.18 202.14C93.74 202.14 94.28 202.58 94.28 203.14C94.28 203.34 94.22 203.54 94.06 203.76C92.96 205.24 91.86 206.52 90.72 207.68C92 207.6 93.28 207.5 94.56 207.38C94.36 207.2 94.16 207.04 93.98 206.88C93.7 206.66 93.58 206.4 93.58 206.16C93.58 205.68 94.06 205.26 94.6 205.26C94.84 205.26 95.08 205.34 95.3 205.5C96.36 206.36 97.58 207.52 98.46 208.58C98.66 208.82 98.74 209.04 98.74 209.26C98.74 209.84 98.2 210.28 97.64 210.28C97.34 210.28 97.04 210.16 96.8 209.84C96.6 209.56 96.38 209.28 96.14 209.02C94.44 209.2 92.74 209.36 91.04 209.5V215.9C91.04 216.52 90.5 216.82 89.96 216.82C89.42 216.82 88.88 216.52 88.88 215.9ZM83.88 215.44C83.66 215.62 83.4 215.7 83.18 215.7C82.58 215.7 82.06 215.22 82.06 214.68C82.06 214.4 82.18 214.12 82.5 213.86C83.48 213.06 84.4 212.1 85.16 210.98C85.4 210.64 85.72 210.5 86.04 210.5C86.6 210.5 87.14 210.92 87.14 211.46C87.14 211.64 87.08 211.84 86.94 212.04C86.14 213.22 85.08 214.46 83.88 215.44ZM94.72 210.7C95.48 211.58 96.42 212.52 97.44 213.38C97.78 213.66 97.92 213.98 97.92 214.28C97.92 214.84 97.4 215.32 96.82 215.32C96.56 215.32 96.3 215.22 96.04 215C94.96 214.02 93.8 212.8 93.06 211.86C92.9 211.66 92.82 211.44 92.82 211.24C92.82 210.72 93.34 210.3 93.88 210.3C94.18 210.3 94.48 210.42 94.72 210.7ZM104.94 208.6L100.62 201.32C100.5 201.12 100.46 200.88 100.46 200.62C100.46 200.08 101.08 199.56 101.9 199.56C102.3 199.56 102.64 199.78 102.82 200.1L106.34 206.22L109.88 200.06C110.04 199.78 110.36 199.56 110.78 199.56C111.52 199.56 112.12 200.08 112.12 200.68C112.12 200.94 112.06 201.14 111.96 201.32L107.46 208.52V213.86C107.46 214.6 106.94 215 106.22 215C105.5 215 104.94 214.6 104.94 213.86V208.6ZM116.166 215.08C113.406 215.08 111.426 213.02 111.426 209.62C111.426 206.24 113.426 204.22 116.166 204.22C118.906 204.22 120.906 206.24 120.906 209.62C120.906 213.02 118.946 215.08 116.166 215.08ZM116.166 213.26C117.746 213.26 118.606 211.96 118.606 209.62C118.606 207.3 117.746 206.04 116.166 206.04C114.606 206.04 113.726 207.3 113.726 209.62C113.726 211.96 114.606 213.26 116.166 213.26ZM123.178 210.76V205.36C123.178 204.72 123.618 204.32 124.318 204.32C125.038 204.32 125.478 204.7 125.478 205.36V210.44C125.478 211.94 125.638 212.4 125.858 212.66C126.118 212.98 126.458 213.18 126.978 213.18C128.478 213.18 129.478 212.22 129.478 210.1V205.36C129.478 204.72 129.918 204.32 130.618 204.32C131.338 204.32 131.778 204.7 131.778 205.36V209.7C131.778 211.5 131.918 212.7 132.058 213.46C132.098 213.62 132.158 213.86 132.158 214.18C132.158 214.7 131.658 215 130.918 215C130.438 215 130.178 214.78 129.998 214.3C129.898 214 129.778 213.6 129.698 213.18C129.218 214.26 128.038 215.08 126.658 215.08C125.438 215.08 124.718 214.82 124.098 214.16C123.438 213.44 123.178 212.62 123.178 210.76ZM139.805 201.78V213.86C139.805 214.6 139.285 215 138.565 215C137.845 215 137.285 214.6 137.285 213.86V201.78H133.765C133.125 201.78 132.785 201.32 132.785 200.76C132.785 200.2 133.125 199.74 133.765 199.74H143.345C143.985 199.74 144.325 200.2 144.325 200.76C144.325 201.32 143.985 201.78 143.345 201.78H139.805ZM144.272 210.76V205.36C144.272 204.72 144.712 204.32 145.412 204.32C146.132 204.32 146.572 204.7 146.572 205.36V210.44C146.572 211.94 146.732 212.4 146.952 212.66C147.212 212.98 147.552 213.18 148.072 213.18C149.572 213.18 150.572 212.22 150.572 210.1V205.36C150.572 204.72 151.012 204.32 151.712 204.32C152.432 204.32 152.872 204.7 152.872 205.36V209.7C152.872 211.5 153.012 212.7 153.152 213.46C153.192 213.62 153.252 213.86 153.252 214.18C153.252 214.7 152.752 215 152.012 215C151.532 215 151.272 214.78 151.092 214.3C150.992 214 150.872 213.6 150.792 213.18C150.312 214.26 149.132 215.08 147.752 215.08C146.532 215.08 145.812 214.82 145.192 214.16C144.532 213.44 144.272 212.62 144.272 210.76ZM158.075 213.82V213.96C158.075 214.56 157.635 214.98 156.995 214.98C156.335 214.98 155.855 214.56 155.855 213.96V200.46C155.855 199.8 156.295 199.42 157.015 199.42C157.735 199.42 158.155 199.82 158.155 200.46V205.74C158.775 204.84 159.835 204.22 160.895 204.22C163.475 204.22 165.275 206.14 165.275 209.5C165.275 212.98 163.175 215.08 160.415 215.08C159.615 215.08 158.615 214.56 158.075 213.82ZM158.155 209V211.96C158.615 212.74 159.475 213.28 160.395 213.28C161.855 213.28 162.975 211.92 162.975 209.58C162.975 207.26 162.055 206.08 160.695 206.08C159.315 206.08 158.155 207.3 158.155 209ZM174.113 210.28H169.113C169.193 212.16 170.453 213.24 171.753 213.24C172.673 213.24 173.353 213.06 174.093 212.46C174.273 212.32 174.473 212.22 174.713 212.22C175.273 212.22 175.673 212.64 175.673 213.14C175.673 213.46 175.573 213.68 175.393 213.84C174.453 214.62 173.153 215.06 171.753 215.06C168.853 215.06 166.953 213.08 166.953 209.62C166.953 206.3 168.953 204.24 171.613 204.24C173.953 204.24 175.813 206.12 175.813 208.52C175.813 209.68 175.193 210.28 174.113 210.28ZM169.173 208.62H173.233C173.553 208.62 173.693 208.4 173.693 208.12C173.693 207.16 172.913 206 171.573 206C170.173 206 169.253 207.12 169.173 208.62ZM180.362 210.28V213.94C180.362 214.58 179.922 214.98 179.222 214.98C178.502 214.98 178.062 214.6 178.062 213.94V205.34C178.062 204.74 178.542 204.32 179.202 204.32C179.842 204.32 180.282 204.74 180.282 205.34V206.88C180.742 205.12 181.682 204.22 183.042 204.22C183.882 204.22 184.162 204.62 184.162 205.34C184.162 206.02 183.802 206.44 183.042 206.44C181.602 206.44 180.362 207.78 180.362 210.28ZM191.573 207.4C191.573 211.1 189.993 214.36 186.693 217.02C186.513 217.18 186.293 217.26 186.093 217.26C185.713 217.26 185.353 216.92 185.353 216.54C185.353 216.28 185.453 216.1 185.653 215.92C188.533 213.46 189.733 210.68 189.733 207.4C189.733 204.12 188.533 201.34 185.653 198.88C185.453 198.7 185.353 198.52 185.353 198.26C185.353 197.88 185.713 197.54 186.093 197.54C186.293 197.54 186.513 197.62 186.693 197.78C189.993 200.44 191.573 203.7 191.573 207.4Z" fill="#282828"/>
<path d="M61.0002 293L79.0001 251L110.177 251L61.0002 293Z" fill="#E18965"/>
</svg>
