<svg width="320" height="215" viewBox="0 0 320 215" fill="none" xmlns="http://www.w3.org/2000/svg">
<rect width="320" height="173" rx="80" fill="#69BD83"/>
<path d="M42.22 54.64V38.8H57.78V54.64H55.38V53.66H44.62V51.74H55.38V49.28H44.62V47.44H55.38V45.02H44.62V43.16H55.38V40.78H44.62V54.64H42.22ZM49.92 40.22L47.48 39.9C47.7333 39.3267 47.96 38.7333 48.16 38.12C48.3733 37.4933 48.56 36.8333 48.72 36.14L51.18 36.44C51.0067 37.1333 50.8133 37.7933 50.6 38.42C50.4 39.0467 50.1733 39.6467 49.92 40.22ZM72.72 54.58C72.4 54.58 71.96 54.5667 71.4 54.54C70.8533 54.5133 70.1933 54.4733 69.42 54.42L69.38 52.32C70.0067 52.36 70.5867 52.3933 71.12 52.42C71.6667 52.4467 72.0933 52.46 72.4 52.46C72.6 52.46 72.78 52.42 72.94 52.34C73.1 52.26 73.24 52.1067 73.36 51.88C73.48 51.6533 73.5733 51.32 73.64 50.88C73.72 50.44 73.78 49.86 73.82 49.14C73.86 48.42 73.88 47.52 73.88 46.44V45.1H64.14V43.06H76.26V45.4C76.26 47.08 76.2267 48.4733 76.16 49.58C76.1067 50.6867 76 51.58 75.84 52.26C75.6933 52.9267 75.4867 53.4267 75.22 53.76C74.9533 54.0933 74.6133 54.3133 74.2 54.42C73.8 54.5267 73.3067 54.58 72.72 54.58ZM63.24 54.94L61.76 53.06C62.5867 52.62 63.3 52.1333 63.9 51.6C64.5133 51.0533 65.02 50.4333 65.42 49.74C65.82 49.0333 66.1267 48.22 66.34 47.3C66.5667 46.38 66.7133 45.3267 66.78 44.14L69.12 44.24C69.0533 45.6267 68.8867 46.86 68.62 47.94C68.3667 49.02 68 49.9867 67.52 50.84C67.0533 51.68 66.4667 52.4333 65.76 53.1C65.0533 53.7667 64.2133 54.38 63.24 54.94ZM62.08 46.04L60.42 44.36C61.6067 43.3333 62.6733 42.2133 63.62 41C64.5667 39.7733 65.3933 38.4533 66.1 37.04L68.26 37.8C67.54 39.36 66.66 40.8267 65.62 42.2C64.5933 43.5733 63.4133 44.8533 62.08 46.04ZM77.92 46.04C76.6 44.8533 75.42 43.5733 74.38 42.2C73.34 40.8267 72.46 39.36 71.74 37.8L73.9 37.04C74.6067 38.4533 75.4333 39.7733 76.38 41C77.3267 42.2133 78.3933 43.3333 79.58 44.36L77.92 46.04ZM91.7 51.54C92.4067 51.46 93.0533 51.26 93.64 50.94C94.24 50.6067 94.7533 50.1867 95.18 49.68C95.62 49.16 95.96 48.5667 96.2 47.9C96.44 47.2333 96.56 46.5133 96.56 45.74C96.56 44.6467 96.3067 43.6933 95.8 42.88C95.2933 42.0533 94.5867 41.42 93.68 40.98C92.7867 40.54 91.7467 40.32 90.56 40.32C89.5467 40.32 88.6067 40.4867 87.74 40.82C86.8733 41.1533 86.1067 41.62 85.44 42.22C84.7867 42.8067 84.2733 43.5 83.9 44.3C83.5267 45.0867 83.34 45.9333 83.34 46.84C83.34 47.4933 83.4467 48.12 83.66 48.72C83.8733 49.32 84.14 49.8133 84.46 50.2C84.7933 50.5733 85.14 50.76 85.5 50.76C86.02 50.76 86.52 50.2867 87 49.34C87.48 48.3933 87.9133 47.0333 88.3 45.26C88.7 43.4733 89.0333 41.3333 89.3 38.84L91.62 39.08C91.3267 41.56 90.9933 43.6867 90.62 45.46C90.2467 47.2333 89.82 48.6867 89.34 49.82C88.86 50.9533 88.3133 51.7933 87.7 52.34C87.0867 52.8733 86.3933 53.14 85.62 53.14C84.98 53.14 84.3867 52.98 83.84 52.66C83.2933 52.34 82.82 51.8933 82.42 51.32C82.02 50.7467 81.7067 50.08 81.48 49.32C81.2533 48.5467 81.14 47.72 81.14 46.84C81.14 45.5867 81.3733 44.4333 81.84 43.38C82.3067 42.3133 82.96 41.3933 83.8 40.62C84.64 39.8467 85.6333 39.2467 86.78 38.82C87.94 38.38 89.2067 38.16 90.58 38.16C92.1933 38.16 93.62 38.4667 94.86 39.08C96.1133 39.6933 97.0933 40.5667 97.8 41.7C98.5067 42.8333 98.86 44.18 98.86 45.74C98.86 46.7933 98.7 47.7733 98.38 48.68C98.0733 49.5867 97.6333 50.3933 97.06 51.1C96.4867 51.7933 95.8 52.36 95 52.8C94.2 53.24 93.3133 53.52 92.34 53.64L91.7 51.54ZM105.64 40.42H106.58C108 40.42 108.66 41.12 108.66 42.26C108.66 43.72 108.06 46.7 107.08 48.7C107.68 49.16 108.24 49.6 108.68 50.04C108.96 50.32 109.08 50.62 109.08 50.9C109.08 51.48 108.58 51.94 108.04 51.94C107.78 51.94 107.52 51.84 107.3 51.62C106.94 51.28 106.54 50.9 106.08 50.54C105.26 51.84 104.28 52.98 103.18 53.88C102.94 54.08 102.68 54.16 102.44 54.16C101.88 54.16 101.42 53.7 101.42 53.16C101.42 52.88 101.56 52.6 101.86 52.34C102.86 51.5 103.72 50.48 104.42 49.34C104.08 49.1 103.74 48.88 103.38 48.68C103.18 49.06 102.82 49.22 102.46 49.22C101.94 49.22 101.42 48.86 101.42 48.34C101.42 48.22 101.44 48.12 101.48 48C102.08 46.32 102.64 44.36 103.12 42.32H101.64C101.08 42.32 100.8 41.84 100.8 41.36C100.8 40.88 101.08 40.42 101.62 40.42H103.52C103.76 39.3 103.94 38.16 104.12 37.02C104.2 36.5 104.64 36.26 105.12 36.26C105.66 36.26 106.2 36.6 106.2 37.2V37.32C106.04 38.34 105.86 39.38 105.64 40.42ZM106.1 42.32H105.24C104.86 43.82 104.5 45.34 104.02 46.82C104.48 47.04 104.92 47.28 105.36 47.54C106.04 46.02 106.52 43.78 106.52 42.66C106.52 42.38 106.42 42.32 106.1 42.32ZM112.72 46.74H109.72C109.18 46.74 108.9 46.24 108.9 45.76C108.9 45.26 109.18 44.78 109.72 44.78H112.72V41.74C112.72 41.16 113.26 40.86 113.8 40.86H113.94C114.48 40.42 114.92 40 115.2 39.6C115.26 39.5 115.3 39.42 115.3 39.34C115.3 39.24 115.18 39.18 114.98 39.18H110.46C109.92 39.18 109.64 38.7 109.64 38.22C109.64 37.72 109.92 37.22 110.46 37.22H115.92C117.12 37.22 117.82 37.88 117.82 38.78C117.82 39.16 117.7 39.6 117.4 40.04C116.74 41 115.84 41.92 114.88 42.64V44.78H118.3C118.86 44.78 119.14 45.28 119.14 45.76C119.14 46.26 118.86 46.74 118.3 46.74H114.88V52.04C114.88 53.86 114.08 54.48 112.52 54.48C111.92 54.48 111.48 54.46 110.94 54.34C110.32 54.22 110.02 53.74 110.02 53.26C110.02 52.72 110.4 52.18 111.06 52.18C111.14 52.18 111.22 52.18 111.3 52.2C111.64 52.26 111.84 52.28 112.2 52.28C112.58 52.28 112.72 52.16 112.72 51.78V46.74ZM125.06 38.06L128.38 37.56C128.58 37.52 128.78 37.52 128.98 37.52C130.22 37.52 130.92 38.22 130.92 39.28C130.92 39.44 130.92 39.6 130.88 39.78C130.62 41.24 130.24 42.72 129.82 44.12C131.14 44.3 132.44 44.66 133.72 45.08C133.92 44.14 134.04 43.12 134.1 42.04C134.12 41.42 134.66 41.1 135.22 41.1C135.8 41.1 136.38 41.46 136.38 42.16C136.38 43.3 136.14 44.7 135.84 45.96C136.84 46.42 137.82 46.96 138.78 47.58C139.18 47.84 139.34 48.22 139.34 48.58C139.34 49.2 138.86 49.78 138.22 49.78C138 49.78 137.76 49.72 137.52 49.56C136.72 49.04 135.94 48.58 135.16 48.18C134.4 50.22 133.3 51.96 131.96 53.28C131.64 53.6 131.3 53.74 130.98 53.74C130.36 53.74 129.86 53.2 129.86 52.62C129.86 52.36 129.96 52.08 130.2 51.84C131.44 50.6 132.44 49.06 133.1 47.22C131.82 46.7 130.52 46.32 129.16 46.1C128.76 47.16 128.34 48.14 127.92 48.96C126.9 50.98 125.86 51.62 124.42 51.62C122.76 51.62 121.54 50.54 121.54 48.48C121.54 45.98 123.8 43.92 127.14 43.92H127.6C128 42.64 128.38 41.3 128.54 40.04C128.54 39.98 128.56 39.92 128.56 39.88C128.56 39.7 128.44 39.68 128.16 39.72L125.36 40.18C125.28 40.2 125.2 40.2 125.14 40.2C124.5 40.2 124.12 39.66 124.12 39.12C124.12 38.64 124.42 38.16 125.06 38.06ZM124.44 49.44C125.02 49.44 125.34 49.26 125.88 48.26C126.24 47.58 126.58 46.78 126.9 45.94C124.82 45.96 123.72 47.14 123.72 48.4C123.72 49.12 124.04 49.44 124.44 49.44ZM145.22 51.64C143.18 51.64 141.48 50 141.48 46.88C141.48 42.32 145.26 38.58 150.76 38.58C155.64 38.58 158.46 41.64 158.46 45.62C158.46 49.24 156.32 51.9 152.88 53C152.72 53.06 152.56 53.08 152.42 53.08C151.74 53.08 151.3 52.52 151.3 51.94C151.3 51.5 151.54 51.06 152.14 50.84C154.98 49.82 156.12 48.1 156.12 45.62C156.12 43 154.34 40.84 151.3 40.62C151.1 43.94 150.28 46.94 149.04 49.12C147.94 51.06 146.76 51.64 145.22 51.64ZM148.96 40.76C145.98 41.34 143.78 43.92 143.78 46.88C143.78 48.72 144.5 49.4 145.22 49.4C145.84 49.4 146.38 49.08 146.96 48.06C147.98 46.28 148.72 43.7 148.96 40.76ZM173.94 47.84L174.02 50.98V54C174.02 54.58 173.5 54.86 172.96 54.86C172.44 54.86 171.9 54.58 171.9 54V50.98L171.98 47.82C170.74 49.5 168.84 51.38 166.92 52.7C166.66 52.88 166.42 52.94 166.2 52.94C165.64 52.94 165.24 52.48 165.24 51.98C165.24 51.66 165.4 51.32 165.76 51.08C167.76 49.74 169.68 47.88 171.16 45.68H168.2C167.66 45.68 167.4 45.2 167.4 44.72C167.4 44.24 167.66 43.76 168.2 43.76H171.9V41.44H169.1C168.56 41.44 168.3 40.96 168.3 40.48C168.3 40 168.56 39.52 169.1 39.52H171.9V36.88C171.9 36.3 172.44 36 172.96 36C173.5 36 174.02 36.3 174.02 36.88V39.52H177.14C177.68 39.52 177.96 40 177.96 40.48C177.96 40.96 177.68 41.44 177.14 41.44H174.02V43.76H178.38C178.92 43.76 179.2 44.24 179.2 44.72C179.2 45.2 178.92 45.68 178.38 45.68H174.54C175.72 47.46 177.24 49.14 178.88 50.5C179.24 50.8 179.4 51.16 179.4 51.48C179.4 52.04 178.94 52.5 178.36 52.5C178.06 52.5 177.74 52.38 177.42 52.08C176.14 50.82 174.88 49.32 173.94 47.84ZM164.9 49.34H163.18C161.84 49.34 161.26 48.74 161.26 47.5V39.36C161.26 38.1 161.84 37.5 163.18 37.5H164.9C166.24 37.5 166.82 38.1 166.82 39.36V47.5C166.82 48.82 166.18 49.34 164.9 49.34ZM163.66 47.42H164.42C164.72 47.42 164.84 47.28 164.84 46.94V39.92C164.84 39.56 164.72 39.42 164.42 39.42H163.66C163.36 39.42 163.24 39.56 163.24 39.92V46.94C163.24 47.24 163.36 47.42 163.66 47.42ZM183.54 38.64C183.66 38.06 184.16 37.8 184.66 37.8C185.24 37.8 185.82 38.14 185.82 38.82C185.82 38.88 185.82 38.96 185.8 39.04C185.12 42.32 184.88 45.04 184.88 47.88C184.88 49.54 185.1 51.4 185.24 52.58C185.24 52.64 185.26 52.7 185.26 52.74C185.26 53.42 184.68 53.8 184.1 53.8C183.56 53.8 183.04 53.5 182.94 52.82C182.78 51.54 182.6 49.56 182.6 47.88C182.6 44.9 182.84 42.2 183.54 38.64ZM195.66 39.56H195.82C196.52 39.56 196.9 40.08 196.9 40.62C196.9 41.12 196.58 41.62 195.88 41.72C194.12 41.96 192.14 42.12 190.24 42.16C189.46 42.18 189.08 41.64 189.08 41.08C189.08 40.56 189.44 40.02 190.16 40C192.02 39.96 193.92 39.8 195.66 39.56ZM190.44 48.4C190.62 49.64 191.24 50.1 193.74 50.1C194.64 50.1 195.74 50 196.76 49.8C196.84 49.78 196.92 49.78 197 49.78C197.68 49.78 198.06 50.34 198.06 50.9C198.06 51.36 197.8 51.84 197.18 51.96C196 52.2 194.82 52.3 193.72 52.3C190.02 52.3 188.48 51.18 188.26 48.76V48.66C188.26 47.94 188.84 47.54 189.42 47.54C189.9 47.54 190.36 47.82 190.44 48.4ZM205.76 46.48V50.2C206.98 51.48 208.82 51.94 213.06 51.94C215.12 51.94 216.76 51.88 218.28 51.74H218.38C219.06 51.74 219.38 52.26 219.38 52.8C219.38 53.3 219.08 53.82 218.42 53.86C216.74 53.96 215.2 54.02 213.08 54.02C208.46 54.02 206.3 53.38 204.82 51.84C204.14 52.64 203.36 53.34 202.36 54.06C202.14 54.22 201.9 54.28 201.68 54.28C201.1 54.28 200.62 53.78 200.62 53.22C200.62 52.9 200.8 52.54 201.2 52.26C202.08 51.66 202.9 50.98 203.62 50.22V46.72C203.62 46.32 203.5 46.18 202.98 46.18H201.74C201.16 46.18 200.86 45.68 200.86 45.18C200.86 44.68 201.16 44.18 201.74 44.18H203.46C205.16 44.18 205.76 44.88 205.76 46.48ZM208.6 42.22V38.26C208.6 37.68 209.14 37.38 209.68 37.38C209.96 37.38 210.26 37.46 210.46 37.64C212.38 37.42 214.46 37 216.18 36.46C216.32 36.42 216.46 36.4 216.6 36.4C217.26 36.4 217.64 36.92 217.64 37.44C217.64 37.82 217.42 38.22 216.92 38.36C215.16 38.88 212.94 39.3 210.74 39.54V41.86H218.2C218.74 41.86 219.02 42.34 219.02 42.82C219.02 43.3 218.74 43.78 218.2 43.78H215.54V50.24C215.54 50.82 215 51.12 214.46 51.12C213.92 51.12 213.38 50.82 213.38 50.24V43.78H210.7C210.56 46.46 210.02 48.38 208.94 50.18C208.7 50.6 208.32 50.76 207.96 50.76C207.4 50.76 206.88 50.36 206.88 49.76C206.88 49.56 206.94 49.34 207.08 49.1C208.16 47.34 208.6 45.4 208.6 42.22ZM203.7 37.28C204.4 37.76 205.1 38.38 205.64 39C205.88 39.28 205.98 39.56 205.98 39.82C205.98 40.44 205.44 40.96 204.82 40.96C204.52 40.96 204.18 40.82 203.9 40.5C203.32 39.82 202.8 39.36 202.22 38.88C201.94 38.64 201.8 38.36 201.8 38.1C201.8 37.54 202.32 37.04 202.94 37.04C203.18 37.04 203.44 37.1 203.7 37.28ZM221.6 43.04C225.2 41.48 228.86 40.62 231.74 40.62C235.32 40.62 237.74 42.54 237.74 45.6C237.74 49.42 234.9 52.1 229.4 52.88C229.32 52.9 229.24 52.9 229.16 52.9C228.46 52.9 228.06 52.34 228.06 51.76C228.06 51.28 228.38 50.78 229.06 50.66C233.74 49.86 235.38 48.24 235.38 45.6C235.38 44.06 234.22 42.74 231.74 42.74C229.24 42.74 226.06 43.54 222.48 45.12C222.28 45.2 222.08 45.24 221.9 45.24C221.24 45.24 220.78 44.72 220.78 44.14C220.78 43.72 221.02 43.3 221.6 43.04ZM236.96 37.68C236.8 37.52 236.74 37.36 236.74 37.2C236.74 36.8 237.12 36.46 237.58 36.46C237.78 36.46 237.98 36.54 238.18 36.7C238.7 37.14 239.3 37.76 239.72 38.34C239.88 38.54 239.94 38.74 239.94 38.94C239.94 39.38 239.56 39.7 239.14 39.7C238.9 39.7 238.64 39.6 238.44 39.34C237.98 38.76 237.42 38.16 236.96 37.68ZM234.96 39.26C234.82 39.1 234.76 38.94 234.76 38.8C234.76 38.4 235.16 38.04 235.6 38.04C235.78 38.04 235.98 38.1 236.16 38.26C236.7 38.74 237.3 39.38 237.72 40C237.86 40.18 237.9 40.36 237.9 40.54C237.9 40.98 237.52 41.34 237.1 41.34C236.86 41.34 236.62 41.22 236.44 40.96C235.96 40.3 235.42 39.72 234.96 39.26ZM253.44 45.02V43.74C252.58 43.8 251.74 43.84 250.98 43.84C250.24 43.84 249.78 43.84 249.26 43.8C248.62 43.76 248.3 43.26 248.3 42.76C248.3 42.24 248.64 41.74 249.26 41.74C249.82 41.74 250.36 41.78 250.92 41.78C251.72 41.78 252.56 41.74 253.38 41.68C253.34 40.48 253.3 39.86 253.22 38.66C253.22 38.54 253.18 38.22 253.18 38.06C253.18 37.42 253.72 37.12 254.28 37.12C254.8 37.12 255.34 37.4 255.38 38C255.48 39.12 255.54 40.28 255.58 41.48C256.3 41.38 256.98 41.28 257.58 41.16C257.66 41.14 257.72 41.14 257.78 41.14C258.42 41.14 258.78 41.66 258.78 42.16C258.78 42.6 258.52 43.02 257.98 43.14C257.26 43.28 256.46 43.42 255.62 43.52C255.64 44.02 255.64 44.52 255.64 45.02C255.64 48.88 254.6 51.74 252.92 53.64C252.66 53.94 252.32 54.08 252 54.08C251.4 54.08 250.86 53.62 250.86 53.02C250.86 52.76 250.94 52.5 251.18 52.22C252.64 50.5 253.44 48.3 253.44 45.02ZM243.76 38.28C243.9 37.72 244.38 37.46 244.88 37.46C245.46 37.46 246.04 37.82 246.04 38.46C246.04 38.54 246.02 38.64 246 38.74C245.36 41.4 245.08 44.12 245.08 46.56C245.08 48.28 245.26 50.04 245.5 51.32C245.52 51.42 245.54 51.52 245.54 51.62C245.54 52.32 244.96 52.7 244.38 52.7C243.88 52.7 243.38 52.42 243.24 51.8C242.92 50.34 242.76 48.48 242.76 46.58C242.76 43.96 243.06 41.08 243.76 38.28ZM268.6 36.88C269.68 37.14 271.02 37.6 272.06 38.14C272.56 38.4 272.76 38.82 272.76 39.24C272.76 39.8 272.34 40.34 271.7 40.34C271.52 40.34 271.32 40.3 271.1 40.2C270.06 39.74 268.8 39.24 267.84 38.96C267.32 38.8 267.08 38.4 267.08 38C267.08 37.44 267.54 36.84 268.26 36.84C268.36 36.84 268.48 36.86 268.6 36.88ZM265.9 46.3L265.94 46.32C267.46 45 269.76 44.18 271.74 44.18C274.88 44.18 276.82 45.9 276.82 48.16C276.82 51.24 274.28 53.44 269.46 54C269.4 54 269.34 54.02 269.28 54.02C268.58 54.02 268.18 53.46 268.18 52.92C268.18 52.42 268.52 51.92 269.2 51.84C273.12 51.38 274.48 49.9 274.48 48.18C274.48 47.14 273.66 46.18 271.74 46.18C269.62 46.18 267.22 47.26 265.54 49.22C265.26 49.56 264.88 49.7 264.52 49.7C263.92 49.7 263.34 49.26 263.34 48.54C263.34 48.46 263.34 48.38 263.36 48.3C263.56 46.82 264.04 44.2 264.62 41.46C264.74 40.88 265.24 40.62 265.72 40.62C266.3 40.62 266.86 40.96 266.86 41.56C266.86 41.62 266.86 41.7 266.84 41.76C266.46 43.62 266.12 45.14 265.9 46.3ZM47.28 82.52L47.24 83.34C50.02 80.6 51.56 79.54 53.02 79.54C54.76 79.54 55.54 80.68 55.54 82.22V82.5L55.16 89.54V89.62C55.16 90.04 55.32 90.14 55.66 90.14C56.08 90.14 56.66 89.94 57.58 88.96C57.86 88.66 58.18 88.54 58.48 88.54C59.08 88.54 59.6 89.04 59.6 89.64C59.6 89.9 59.5 90.2 59.24 90.48C57.96 91.9 56.7 92.46 55.48 92.46C53.78 92.46 52.84 91.74 52.84 89.98V89.7L53.2 82.9V82.7C53.2 82.1 53.02 81.84 52.56 81.84C51.72 81.84 50.26 82.98 47.18 86.18L47.16 92.94C47.16 93.62 46.62 93.96 46.08 93.96C45.54 93.96 45.02 93.62 45.02 92.94L45.08 88.44L43.56 90.78C43.34 91.12 43.02 91.28 42.72 91.28C42.16 91.28 41.62 90.8 41.62 90.24C41.62 90.06 41.68 89.86 41.8 89.68C42.78 88.28 43.96 86.32 45.14 84.08L45.18 82.86L42.8 83.3C42.74 83.32 42.68 83.32 42.62 83.32C42.04 83.32 41.72 82.78 41.72 82.28C41.72 81.82 41.96 81.38 42.5 81.28L45.2 80.82L45.24 77.68C45.24 77.06 45.8 76.74 46.32 76.74C46.86 76.74 47.4 77.06 47.38 77.68L47.32 80.52C47.82 80.54 48 80.88 48 81.16C48 81.52 47.86 81.88 47.28 82.52ZM69 84.06L69.04 84.12C69.88 83.78 70.78 83.62 71.58 83.62C74.7 83.62 76.74 85.32 76.74 88.1C76.74 91.6 74.22 93.84 70.32 93.84C67.58 93.84 65.84 92.44 65.84 90.66C65.84 89.16 66.84 88.1 68.62 88.1C70.54 88.1 71.88 89.38 72.46 91.38C73.7 90.78 74.4 89.62 74.4 88.12C74.4 86.7 73.28 85.56 71.36 85.56C69.34 85.56 67.38 86.26 64.92 88.16C64.64 88.38 64.34 88.48 64.08 88.48C63.46 88.48 62.96 87.96 62.96 87.38C62.96 87.06 63.1 86.72 63.46 86.44C65.78 84.64 68.36 81.98 70.22 79.68C69.24 79.84 67.94 79.98 66.94 80.06C66.86 80.06 66.34 80.12 66.08 80.12C65.44 80.12 65.08 79.58 65.08 79.04C65.08 78.54 65.4 78.04 66.06 78C67.68 77.92 69.8 77.66 71.72 77.36C71.82 77.34 71.9 77.34 72 77.34C72.82 77.34 73.38 77.92 73.38 78.6C73.38 78.9 73.26 79.22 73.02 79.54C71.84 81.06 70.32 82.8 69 84.06ZM70.2 91.84H70.36C70.02 90.56 69.42 89.88 68.58 89.88C68.16 89.88 67.86 90.22 67.86 90.66C67.86 91.32 68.62 91.84 70.2 91.84ZM86.06 94.06C84.46 94.06 83.2267 93.72 82.36 93.04C81.4933 92.3733 81.06 91.4133 81.06 90.16C81.06 88.8933 81.4867 87.9333 82.34 87.28C83.1933 86.6133 84.4333 86.28 86.06 86.28C86.94 86.28 87.8133 86.38 88.68 86.58C89.56 86.7667 90.48 87.0733 91.44 87.5C92.4 87.9267 93.4333 88.4867 94.54 89.18C95.66 89.86 96.8933 90.6933 98.24 91.68L96.8 93.34C95.2533 92.1533 93.8533 91.1933 92.6 90.46C91.36 89.7133 90.2067 89.1667 89.14 88.82C88.0733 88.4733 87.0467 88.3 86.06 88.3C85.14 88.3 84.4533 88.4533 84 88.76C83.5467 89.0533 83.32 89.52 83.32 90.16C83.32 91.4133 84.1933 92.04 85.94 92.04C86.9267 92.04 87.6467 91.84 88.1 91.44C88.5533 91.0267 88.78 90.3867 88.78 89.52V76.88H91.16V80.1H98.24V82.12H91.16V89.52C91.16 91.0667 90.7467 92.2133 89.92 92.96C89.0933 93.6933 87.8067 94.06 86.06 94.06ZM104.78 91.92C106.407 91.8533 107.867 91.6933 109.16 91.44C110.453 91.1733 111.56 90.8267 112.48 90.4C113.4 89.9733 114.1 89.4867 114.58 88.94C115.06 88.38 115.3 87.76 115.3 87.08C115.3 86.32 114.96 85.7533 114.28 85.38C113.613 84.9933 112.587 84.8 111.2 84.8C110.52 84.8 109.767 84.8467 108.94 84.94C108.113 85.02 107.16 85.16 106.08 85.36C105 85.56 103.727 85.82 102.26 86.14L101.68 83.94C103.627 83.5 105.4 83.1733 107 82.96C108.6 82.7333 110.013 82.62 111.24 82.62C113.44 82.62 115.093 82.98 116.2 83.7C117.307 84.42 117.86 85.4933 117.86 86.92C117.86 87.9733 117.567 88.9333 116.98 89.8C116.407 90.6533 115.573 91.3933 114.48 92.02C113.387 92.6467 112.067 93.14 110.52 93.5C108.987 93.86 107.253 94.0733 105.32 94.14L104.78 91.92ZM114.86 80.32C113.94 80.32 112.9 80.3 111.74 80.26C110.593 80.2067 109.4 80.1333 108.16 80.04C106.933 79.9333 105.74 79.82 104.58 79.7L104.88 77.38C105.867 77.5133 106.94 77.6333 108.1 77.74C109.26 77.8467 110.427 77.9267 111.6 77.98C112.773 78.0333 113.86 78.06 114.86 78.06V80.32ZM133.24 93.22C132.04 93.22 130.967 93.0533 130.02 92.72C129.087 92.3867 128.353 91.9267 127.82 91.34C127.3 90.74 127.04 90.06 127.04 89.3C127.04 87.94 127.927 86.54 129.7 85.1L131.42 86.4C130.713 86.9733 130.193 87.4733 129.86 87.9C129.54 88.3267 129.38 88.7333 129.38 89.12C129.38 89.52 129.54 89.8667 129.86 90.16C130.18 90.4533 130.627 90.68 131.2 90.84C131.773 91 132.453 91.08 133.24 91.08C133.907 91.08 134.653 91.0333 135.48 90.94C136.32 90.8333 137.167 90.6933 138.02 90.52L138.34 92.62C137.473 92.8067 136.6 92.9533 135.72 93.06C134.853 93.1667 134.027 93.22 133.24 93.22ZM127.96 81.12V78.96H138.22V81.12H127.96ZM123.14 94.1C122.793 92.7267 122.54 91.3733 122.38 90.04C122.22 88.7067 122.14 87.2933 122.14 85.8C122.14 84.32 122.22 82.92 122.38 81.6C122.54 80.2667 122.793 78.9133 123.14 77.54L125.52 77.84C125.2 79.1333 124.96 80.4333 124.8 81.74C124.653 83.0333 124.58 84.3867 124.58 85.8C124.58 87.2133 124.653 88.5733 124.8 89.88C124.96 91.1867 125.2 92.4733 125.52 93.74L123.14 94.1ZM150.02 94.12C148.527 94.12 147.367 93.7733 146.54 93.08C145.713 92.4 145.3 91.46 145.3 90.26C145.3 89.02 145.727 88.0667 146.58 87.4C147.433 86.72 148.633 86.38 150.18 86.38C150.833 86.38 151.48 86.48 152.12 86.68C152.76 86.88 153.427 87.1867 154.12 87.6C154.813 88.0133 155.553 88.5467 156.34 89.2C157.14 89.8533 158 90.6467 158.92 91.58L157.48 93.18C156.413 92.14 155.513 91.3 154.78 90.66C154.06 90.0067 153.44 89.5133 152.92 89.18C152.413 88.8333 151.947 88.6 151.52 88.48C151.107 88.36 150.66 88.3 150.18 88.3C149.273 88.3 148.607 88.4533 148.18 88.76C147.767 89.0667 147.56 89.54 147.56 90.18C147.56 90.8333 147.767 91.3267 148.18 91.66C148.593 91.98 149.207 92.14 150.02 92.14C150.913 92.14 151.58 91.9467 152.02 91.56C152.473 91.1733 152.7 90.62 152.7 89.9V79.56C153.873 79.56 154.96 79.58 155.96 79.62C156.973 79.6467 157.967 79.6933 158.94 79.76L158.8 81.86C157.933 81.7933 157.027 81.7467 156.08 81.72C155.147 81.68 154.147 81.66 153.08 81.66L155.02 80.16V89.66C155.02 91.1267 154.6 92.24 153.76 93C152.92 93.7467 151.673 94.12 150.02 94.12ZM140.92 90.94C141.507 89.3533 142.047 87.7933 142.54 86.26C143.033 84.7133 143.493 83.1533 143.92 81.58C144.347 79.9933 144.74 78.3667 145.1 76.7L147.36 76.92C147 78.6267 146.6 80.3 146.16 81.94C145.733 83.5667 145.267 85.18 144.76 86.78C144.267 88.38 143.72 89.9867 143.12 91.6L140.92 90.94ZM140.76 81.66V79.56H150.84V81.66H140.76ZM166 91.16C168.013 91.16 169.647 91.0267 170.9 90.76C172.167 90.48 173.093 90.0467 173.68 89.46C174.267 88.8733 174.56 88.12 174.56 87.2C174.56 86.1733 174.22 85.4067 173.54 84.9C172.873 84.3933 171.853 84.14 170.48 84.14C169.933 84.14 169.333 84.1867 168.68 84.28C168.027 84.36 167.273 84.4867 166.42 84.66C165.58 84.8333 164.6 85.0667 163.48 85.36L163.02 83.1C164.713 82.7 166.18 82.4067 167.42 82.22C168.66 82.02 169.727 81.92 170.62 81.92C172.66 81.92 174.227 82.36 175.32 83.24C176.413 84.12 176.96 85.38 176.96 87.02C176.96 89.1 176.047 90.6733 174.22 91.74C172.407 92.8067 169.713 93.34 166.14 93.34L166 91.16ZM181.74 93.84C182.3 92.04 182.807 90.2133 183.26 88.36C183.727 86.4933 184.133 84.6 184.48 82.68C184.84 80.7467 185.147 78.8 185.4 76.84L187.78 76.94C187.553 78.86 187.26 80.8 186.9 82.76C186.553 84.72 186.147 86.6667 185.68 88.6C185.213 90.52 184.693 92.4067 184.12 94.26L181.74 93.84ZM194.14 93.86C192.927 93.86 191.873 93.7133 190.98 93.42C190.087 93.14 189.393 92.7467 188.9 92.24C188.407 91.72 188.16 91.1 188.16 90.38C188.16 89.8467 188.34 89.32 188.7 88.8C189.06 88.28 189.613 87.74 190.36 87.18L192.16 88.46C191.653 88.78 191.273 89.08 191.02 89.36C190.78 89.6267 190.66 89.8933 190.66 90.16C190.66 90.4667 190.8 90.74 191.08 90.98C191.373 91.2067 191.78 91.3867 192.3 91.52C192.833 91.6533 193.447 91.72 194.14 91.72C194.767 91.72 195.407 91.6867 196.06 91.62C196.713 91.5533 197.393 91.4533 198.1 91.32L198.36 93.46C197.627 93.5933 196.92 93.6933 196.24 93.76C195.56 93.8267 194.86 93.86 194.14 93.86ZM181.46 81.42V79.34H195.54V81.42H181.46ZM188.94 83.68C190.513 83.5333 192.053 83.42 193.56 83.34C195.08 83.26 196.6 83.22 198.12 83.22V85.32C196.627 85.32 195.127 85.36 193.62 85.44C192.127 85.5067 190.613 85.6267 189.08 85.8L188.94 83.68ZM208.96 88.62L208.6 78.4H211.56L211.22 88.62H208.96ZM208.68 93V90.28H211.5V93H208.68Z" fill="#282828"/>
<path opacity="0.6" d="M52.88 129.4C52.88 125.7 54.46 122.44 57.76 119.78C57.94 119.62 58.16 119.54 58.36 119.54C58.74 119.54 59.1 119.88 59.1 120.26C59.1 120.52 59 120.7 58.8 120.88C55.92 123.34 54.72 126.12 54.72 129.4C54.72 132.68 55.92 135.46 58.8 137.92C59 138.1 59.1 138.28 59.1 138.54C59.1 138.92 58.74 139.26 58.36 139.26C58.16 139.26 57.94 139.18 57.76 139.02C54.46 136.36 52.88 133.1 52.88 129.4ZM64.28 127.98H65.42C67.04 127.98 67.9 127.14 67.9 125.72C67.9 124.56 66.98 123.74 65.52 123.74C64.68 123.74 63.8 124.12 63.08 124.74C62.82 124.98 62.6 125.04 62.36 125.04C61.76 125.04 61.24 124.54 61.24 123.92C61.24 123.62 61.32 123.38 61.54 123.2C62.5 122.36 64.04 121.74 65.52 121.74C68.44 121.74 70.24 123.34 70.24 125.62C70.24 127.26 69.44 128.36 67.88 128.78C69.66 129.32 70.74 130.64 70.74 132.34C70.74 135.2 68.58 137.14 65.46 137.14C63.82 137.14 62.28 136.68 61.28 135.88C60.96 135.62 60.84 135.34 60.84 134.96C60.84 134.38 61.28 133.92 61.9 133.92C62.12 133.92 62.3 133.96 62.48 134.08C63.48 134.82 64.44 135.14 65.46 135.14C67.22 135.14 68.34 133.98 68.34 132.44C68.34 130.92 67.3 129.96 65.54 129.96H64.28C63.7 129.96 63.34 129.54 63.34 128.96C63.34 128.38 63.7 127.98 64.28 127.98ZM77.7359 121.74C80.7759 121.74 82.7959 123.9 82.7959 129.44C82.7959 134.98 80.7759 137.14 77.7359 137.14C74.6959 137.14 72.7159 134.98 72.7159 129.44C72.7159 123.9 74.6959 121.74 77.7359 121.74ZM77.7359 123.74C76.0759 123.74 75.0759 125.14 75.0759 129.44C75.0759 133.74 76.0759 135.14 77.7359 135.14C79.4159 135.14 80.4359 133.74 80.4359 129.44C80.4359 125.14 79.4159 123.74 77.7359 123.74ZM87.2719 138V128.56C86.9319 129.08 86.5719 129.58 86.2119 130.02C85.9519 130.34 85.6319 130.48 85.3319 130.48C84.7519 130.48 84.2119 130 84.2119 129.42C84.2119 129.18 84.2919 128.94 84.4919 128.68C86.0719 126.72 87.5319 123.7 88.3319 121.02C88.4919 120.5 88.9319 120.26 89.3919 120.26C89.9919 120.26 90.5919 120.64 90.5919 121.28C90.5919 121.38 90.5719 121.5 90.5319 121.62C90.0919 123.12 89.3719 124.8 88.5519 126.36C89.0319 126.42 89.4519 126.7 89.4519 127.22V138C89.4519 138.54 88.9119 138.82 88.3719 138.82C87.8119 138.82 87.2719 138.54 87.2719 138ZM96.0719 125.94L101.572 125.46H101.652C102.192 125.46 102.472 125.98 102.472 126.5C102.472 126.96 102.252 127.4 101.752 127.44L96.3319 127.92C96.6119 129.64 97.0319 131.22 97.6119 132.6C98.7319 135.26 99.6519 135.92 100.252 135.92C100.512 135.92 100.752 135.66 100.892 134.36C100.952 133.74 101.412 133.46 101.892 133.46C102.432 133.46 103.012 133.84 103.012 134.52V134.66C102.732 137.44 101.692 138.28 100.352 138.28C98.5919 138.28 96.8919 136.6 95.4719 133.2C94.8519 131.7 94.3919 130 94.0919 128.1L91.1719 128.36H91.0919C90.5519 128.36 90.2719 127.84 90.2719 127.34C90.2719 126.88 90.5119 126.44 90.9919 126.4L93.8519 126.14C93.6919 124.58 93.6119 122.9 93.6119 121.14C93.6119 120.52 94.1719 120.22 94.7319 120.22C95.2919 120.22 95.8519 120.52 95.8519 121.14C95.8519 122.84 95.9119 124.44 96.0719 125.94ZM98.4319 121.56C98.9719 121.96 99.4719 122.38 99.8919 122.8C100.132 123.06 100.252 123.34 100.252 123.58C100.252 124.16 99.7319 124.66 99.1719 124.66C98.9319 124.66 98.6719 124.54 98.4519 124.3C98.0319 123.82 97.5919 123.4 97.0919 123C96.8519 122.8 96.7319 122.56 96.7319 122.32C96.7319 121.82 97.2119 121.32 97.7719 121.32C97.9919 121.32 98.2119 121.4 98.4319 121.56ZM104.812 137.6L121.292 120.08C121.472 119.9 121.672 119.76 121.852 119.76C122.372 119.76 122.812 120.18 122.812 120.58C122.812 120.8 122.732 121 122.532 121.2L106.052 138.72C105.872 138.9 105.672 139.04 105.492 139.04C104.972 139.04 104.532 138.62 104.532 138.22C104.532 138 104.612 137.8 104.812 137.6ZM142.012 126.82H139.112C138.912 127.6 138.612 128.6 138.252 129.46C137.732 130.7 137.072 131.84 136.272 132.88C137.892 133.7 139.492 134.62 140.932 135.64C141.312 135.9 141.472 136.26 141.472 136.6C141.472 137.2 140.952 137.78 140.312 137.78C140.072 137.78 139.812 137.7 139.552 137.52C138.052 136.42 136.392 135.4 134.732 134.54C132.492 136.52 129.692 137.66 126.532 138.26C126.432 138.28 126.352 138.28 126.252 138.28C125.592 138.28 125.212 137.78 125.212 137.26C125.212 136.82 125.492 136.36 126.112 136.24C128.672 135.74 130.872 134.92 132.652 133.52C131.692 133.12 130.752 132.72 129.772 132.38L129.692 132.52C129.412 133 128.992 133.2 128.592 133.2C128.012 133.2 127.452 132.8 127.452 132.22C127.452 132.06 127.492 131.88 127.612 131.68C128.532 130.08 129.352 128.48 130.032 126.82H125.332C124.812 126.82 124.532 126.34 124.532 125.86C124.532 125.38 124.812 124.9 125.332 124.9H130.772C131.232 123.6 131.632 122.24 132.032 120.78C132.172 120.28 132.632 120.04 133.092 120.04C133.672 120.04 134.252 120.38 134.252 120.98C134.252 121.06 134.232 121.14 134.212 121.24C133.872 122.5 133.512 123.72 133.092 124.9H142.012C142.552 124.9 142.832 125.38 142.832 125.86C142.832 126.34 142.552 126.82 142.012 126.82ZM136.752 126.82H132.392C131.852 128.12 131.292 129.4 130.672 130.66C131.892 131.04 133.092 131.46 134.252 131.96C135.472 130.48 136.292 128.68 136.752 126.82ZM155.972 136.08V132.12H152.932C152.432 132.12 152.192 131.62 152.192 131.14C152.192 130.64 152.432 130.16 152.932 130.16H155.972V126.82H153.672C153.432 127.36 153.172 127.88 152.912 128.36C152.652 128.84 152.232 129.04 151.852 129.04C151.332 129.04 150.852 128.68 150.852 128.12C150.852 127.92 150.912 127.7 151.052 127.46C151.832 126.12 152.452 124.48 152.852 122.68C152.972 122.14 153.412 121.88 153.832 121.88C154.352 121.88 154.872 122.24 154.872 122.84C154.872 122.92 154.872 122.98 154.852 123.06C154.732 123.68 154.572 124.3 154.372 124.9H155.972V121.1C155.972 120.5 156.512 120.2 157.052 120.2C157.592 120.2 158.132 120.5 158.132 121.1V124.9H161.792C162.312 124.9 162.572 125.38 162.572 125.86C162.572 126.34 162.312 126.82 161.792 126.82H158.132V130.16H161.072C161.572 130.16 161.832 130.64 161.832 131.14C161.832 131.62 161.572 132.12 161.072 132.12H158.132V136.08H162.212C162.712 136.08 162.972 136.56 162.972 137.06C162.972 137.54 162.712 138.04 162.212 138.04H151.192C150.712 138.04 150.452 137.54 150.452 137.06C150.452 136.56 150.712 136.08 151.192 136.08H155.972ZM148.992 120.96V137.88C148.992 138.48 148.452 138.78 147.912 138.78C147.352 138.78 146.812 138.48 146.812 137.88V120.96C146.812 120.36 147.352 120.08 147.912 120.08C148.452 120.08 148.992 120.36 148.992 120.96ZM144.932 124.94C144.992 124.48 145.352 124.26 145.712 124.26C146.132 124.26 146.532 124.54 146.532 125.04V125.14C146.452 126.04 146.232 127.24 145.972 128.1C145.832 128.54 145.492 128.74 145.152 128.74C144.732 128.74 144.332 128.44 144.332 127.98C144.332 127.9 144.332 127.8 144.372 127.7C144.632 126.86 144.832 125.72 144.932 124.94ZM150.732 124.16C150.932 124.76 151.112 125.48 151.192 126.02V126.16C151.192 126.7 150.752 127.02 150.352 127.02C150.012 127.02 149.692 126.82 149.612 126.36C149.512 125.76 149.372 125 149.232 124.52C149.212 124.44 149.192 124.34 149.192 124.26C149.192 123.84 149.572 123.58 149.952 123.58C150.272 123.58 150.592 123.76 150.732 124.16ZM170.792 129.4C170.792 133.1 169.212 136.36 165.912 139.02C165.732 139.18 165.512 139.26 165.312 139.26C164.932 139.26 164.572 138.92 164.572 138.54C164.572 138.28 164.672 138.1 164.872 137.92C167.752 135.46 168.952 132.68 168.952 129.4C168.952 126.12 167.752 123.34 164.872 120.88C164.672 120.7 164.572 120.52 164.572 120.26C164.572 119.88 164.932 119.54 165.312 119.54C165.512 119.54 165.732 119.62 165.912 119.78C169.212 122.44 170.792 125.7 170.792 129.4Z" fill="#282828"/>
<path d="M61.0002 215L79.0001 173L110.177 173L61.0002 215Z" fill="#69BD83"/>
</svg>
