<svg width="327" height="215" viewBox="0 0 327 215" fill="none" xmlns="http://www.w3.org/2000/svg">
<rect width="327" height="173" rx="80" fill="#69BD83"/>
<path d="M43.34 52.94V43.56H40.74V41.06H43.42V34.66H46.08V41.06H48.4V43.56H46.14V52.94H43.34ZM41.42 51.14L40.26 48.02C41.06 47.0333 41.7 46.0267 42.18 45C42.6733 43.9733 43.04 42.8867 43.28 41.74L44.36 42.5C44.2933 43.6467 44.12 44.7667 43.84 45.86C43.5733 46.94 43.2267 47.9333 42.8 48.84C42.3867 49.7467 41.9267 50.5133 41.42 51.14ZM47.18 49.08C46.7533 48.0667 46.32 47.06 45.88 46.06C45.4533 45.0467 44.9933 43.9867 44.5 42.88L46.16 41.98C46.64 42.9 47.1067 43.8067 47.56 44.7C48.0133 45.58 48.4733 46.4933 48.94 47.44L47.18 49.08ZM41.64 40.76C41.4533 40 41.2533 39.22 41.04 38.42C40.8267 37.62 40.62 36.8933 40.42 36.24L42.46 35.5C42.6733 36.1667 42.8733 36.8933 43.06 37.68C43.26 38.4533 43.44 39.24 43.6 40.04L41.64 40.76ZM48.36 50.4L48.1 47.72L59.54 45.58L59.8 48.26L48.36 50.4ZM52.18 46.3C51.5933 45.66 50.9667 44.9933 50.3 44.3C49.6333 43.6067 48.9267 42.9133 48.18 42.22L50.26 40.3C51.0067 40.98 51.7133 41.66 52.38 42.34C53.06 43.0067 53.6867 43.6667 54.26 44.32L52.18 46.3ZM47.78 40.78L45.74 39.96C46.0067 39.2533 46.2467 38.4933 46.46 37.68C46.6733 36.8667 46.84 36.1067 46.96 35.4L49.16 35.88C49 36.6533 48.7933 37.4733 48.54 38.34C48.3 39.1933 48.0467 40.0067 47.78 40.78ZM54.92 52.94V34.66H58.02V52.94H54.92ZM52.98 40.98C52.4733 40.4067 51.9267 39.82 51.34 39.22C50.7533 38.62 50.14 38.0133 49.5 37.4L51.58 35.5C52.22 36.0867 52.8333 36.6733 53.42 37.26C54.0067 37.8467 54.5533 38.42 55.06 38.98L52.98 40.98ZM65.76 52.46V49.94H71.26V48.54H66.84V46.2H71.26V40.94H69.6V39.04H71.26V37.36H74.38V39.04H76.06V37.36H69.6V44.86H66.92V34.94H78.8V44.86H69.6V42.66H76.06V40.94H74.38V46.2H79.04V48.54H74.38V49.94H79.26V52.46H65.76ZM60.9 51.26L60.62 48.58C61.22 48.4733 61.8533 48.34 62.52 48.18C63.2 48.02 63.8733 47.8467 64.54 47.66C65.22 47.4733 65.8467 47.2867 66.42 47.1L66.44 49.7C65.8933 49.9 65.2933 50.1 64.64 50.3C63.9867 50.5 63.3333 50.6867 62.68 50.86C62.0267 51.02 61.4333 51.1533 60.9 51.26ZM62.12 48.8V43.96H60.92V41.28H62.12V38.36H60.72V35.6H66.44V38.36H65.08V41.28H66.32V43.96H65.08V48.8H62.12ZM90.94 51.9C89.42 51.9 88.2333 51.5467 87.38 50.84C86.5267 50.1333 86.1 49.1533 86.1 47.9C86.1 46.6333 86.52 45.6533 87.36 44.96C88.2133 44.2533 89.4067 43.9 90.94 43.9C91.5667 43.9 92.16 43.98 92.72 44.14C93.2933 44.3 93.8933 44.58 94.52 44.98C95.1467 45.3667 95.86 45.9133 96.66 46.62C97.46 47.3267 98.4067 48.2333 99.5 49.34L97.52 51.48C96.56 50.48 95.74 49.6667 95.06 49.04C94.3933 48.4 93.8133 47.9067 93.32 47.56C92.84 47.2133 92.4 46.9733 92 46.84C91.6 46.7067 91.1867 46.64 90.76 46.64C89.5867 46.64 89 47.06 89 47.9C89 48.74 89.5867 49.16 90.76 49.16C91.4 49.16 91.8533 49.0333 92.12 48.78C92.4 48.5267 92.54 48.1133 92.54 47.54V35.04H95.68V47.7C95.68 49.06 95.2667 50.1 94.44 50.82C93.6267 51.54 92.46 51.9 90.94 51.9ZM86.36 40.7V37.96H99.14V40.7H86.36ZM82.34 52.16C82.0067 50.8 81.76 49.44 81.6 48.08C81.44 46.72 81.36 45.2933 81.36 43.8C81.36 42.3067 81.44 40.8867 81.6 39.54C81.76 38.18 82.0067 36.82 82.34 35.46L85.52 35.82C85.2267 37.0867 85 38.3867 84.84 39.72C84.6933 41.04 84.62 42.4 84.62 43.8C84.62 45.2 84.6933 46.5667 84.84 47.9C85 49.22 85.2267 50.5133 85.52 51.78L82.34 52.16ZM106.96 51V48.5H100.2V45.62L106.96 36.4H110.36V45.62H112.7V48.5H110.36V51H106.96ZM103.5 45.76H107.1V40.9H107.06L103.5 45.72V45.76ZM117.886 48.38C120.446 48.38 122.5 48.22 124.046 47.9C125.593 47.58 126.713 47.0667 127.406 46.36C128.113 45.6533 128.466 44.7267 128.466 43.58C128.466 42.3267 128.073 41.4067 127.286 40.82C126.513 40.2333 125.293 39.94 123.626 39.94C122.96 39.94 122.22 39.9933 121.406 40.1C120.593 40.2067 119.653 40.3667 118.586 40.58C117.52 40.7933 116.253 41.0867 114.786 41.46L114.166 38.24C116.38 37.7467 118.266 37.3867 119.826 37.16C121.4 36.92 122.746 36.8 123.866 36.8C125.626 36.8 127.106 37.0467 128.306 37.54C129.506 38.0333 130.413 38.76 131.026 39.72C131.64 40.6667 131.946 41.84 131.946 43.24C131.946 45.9467 130.78 47.9933 128.446 49.38C126.126 50.7533 122.686 51.44 118.126 51.44L117.886 48.38ZM144.526 49.04C145.193 48.9467 145.8 48.7533 146.346 48.46C146.893 48.1667 147.36 47.7933 147.746 47.34C148.146 46.8733 148.453 46.34 148.666 45.74C148.88 45.1267 148.986 44.4733 148.986 43.78C148.986 42.7667 148.753 41.8933 148.286 41.16C147.833 40.4133 147.193 39.84 146.366 39.44C145.553 39.04 144.62 38.84 143.566 38.84C142.66 38.84 141.806 39 141.006 39.32C140.22 39.6267 139.526 40.0533 138.926 40.6C138.326 41.1467 137.853 41.78 137.506 42.5C137.16 43.22 136.986 43.9933 136.986 44.82C136.986 45.3533 137.073 45.88 137.246 46.4C137.42 46.9067 137.64 47.3333 137.906 47.68C138.186 48.0133 138.466 48.18 138.746 48.18C139.16 48.18 139.566 47.7333 139.966 46.84C140.38 45.9333 140.76 44.6333 141.106 42.94C141.466 41.2333 141.786 39.1933 142.066 36.82L145.226 37.16C144.893 39.7733 144.526 41.9867 144.126 43.8C143.74 45.6133 143.3 47.08 142.806 48.2C142.313 49.32 141.746 50.14 141.106 50.66C140.466 51.1667 139.733 51.42 138.906 51.42C138.2 51.42 137.546 51.26 136.946 50.94C136.346 50.6067 135.826 50.1467 135.386 49.56C134.946 48.96 134.606 48.26 134.366 47.46C134.126 46.6467 134.006 45.7667 134.006 44.82C134.006 43.5267 134.24 42.34 134.706 41.26C135.173 40.1667 135.833 39.2267 136.686 38.44C137.54 37.6533 138.553 37.04 139.726 36.6C140.9 36.16 142.186 35.94 143.586 35.94C145.24 35.94 146.706 36.2533 147.986 36.88C149.28 37.4933 150.293 38.3867 151.026 39.56C151.76 40.72 152.126 42.1267 152.126 43.78C152.126 44.86 151.966 45.8667 151.646 46.8C151.34 47.72 150.893 48.54 150.306 49.26C149.72 49.9667 149.013 50.5467 148.186 51C147.373 51.44 146.46 51.7267 145.446 51.86L144.526 49.04ZM154.326 51.76V48.92H161.386V38.68H154.926V35.84H171.206V38.68H164.746V48.92H171.806V51.76H154.326ZM179.726 52.46V49.94H184.686V48.74H180.926V46.6H184.686V45.46H180.526V43.1H192.286V45.46H187.866V46.6H191.866V48.74H187.866V49.94H192.526V52.46H179.726ZM174.506 50.44L173.346 47.52C174.12 46.2667 174.72 45.04 175.146 43.84C175.573 42.64 175.853 41.4533 175.986 40.28L176.766 41.76C176.553 43.9467 176.253 45.7333 175.866 47.12C175.493 48.4933 175.04 49.6 174.506 50.44ZM175.706 52.94V42.34H173.806V39.74H175.706V36.44H178.506V39.74H180.426V42.34H178.506V52.94H175.706ZM179.426 47.92C178.973 46.92 178.513 45.9333 178.046 44.96C177.58 43.9733 177.086 42.9933 176.566 42.02L177.806 40.76C178.433 41.8 179.02 42.7933 179.566 43.74C180.113 44.6733 180.626 45.58 181.106 46.46L179.426 47.92ZM174.186 38.08L173.926 35.66C174.966 35.58 176.02 35.44 177.086 35.24C178.153 35.04 179.12 34.8067 179.986 34.54L180.626 36.88C179.92 37.16 179.013 37.4067 177.906 37.62C176.813 37.8333 175.573 37.9867 174.186 38.08ZM180.886 42.16V35.14H191.746V42.16H183.926V39.94H188.646V37.66H183.926V42.16H180.886ZM206.206 52.1C204.526 52.1 203.066 51.8133 201.826 51.24C200.586 50.6667 199.626 49.86 198.946 48.82C198.266 47.78 197.926 46.5533 197.926 45.14C197.926 44.1533 198.086 43.2333 198.406 42.38C198.726 41.5267 199.186 40.7667 199.786 40.1C200.4 39.4333 201.126 38.9 201.966 38.5L202.286 39.14L193.586 39.34V36.44L210.646 36.04V38.94L208.086 39C207.153 39.0133 206.28 39.16 205.466 39.44C204.653 39.72 203.94 40.1133 203.326 40.62C202.713 41.1267 202.24 41.7333 201.906 42.44C201.573 43.1333 201.406 43.92 201.406 44.8C201.406 45.7067 201.593 46.4867 201.966 47.14C202.34 47.78 202.886 48.2733 203.606 48.62C204.34 48.9533 205.213 49.12 206.226 49.12C206.466 49.12 206.733 49.1133 207.026 49.1C207.32 49.0733 207.62 49.0467 207.926 49.02C208.233 48.98 208.52 48.9333 208.786 48.88L209.146 51.86C208.826 51.9 208.493 51.94 208.146 51.98C207.8 52.02 207.46 52.0467 207.126 52.06C206.793 52.0867 206.486 52.1 206.206 52.1ZM207.626 46.06C207.306 45.3667 206.966 44.7067 206.606 44.08C206.246 43.4533 205.833 42.8133 205.366 42.16L207.426 41.04C207.893 41.6933 208.306 42.34 208.666 42.98C209.04 43.62 209.393 44.3 209.726 45.02L207.626 46.06ZM210.886 44.96C210.58 44.2533 210.253 43.5867 209.906 42.96C209.56 42.32 209.166 41.6733 208.726 41.02L210.786 39.96C211.226 40.64 211.62 41.3 211.966 41.94C212.326 42.58 212.66 43.2667 212.966 44L210.886 44.96ZM215.586 53.04L213.466 50.16C213.706 49.6667 213.913 49.2 214.086 48.76C214.26 48.3067 214.4 47.84 214.506 47.36C214.626 46.88 214.72 46.3533 214.786 45.78C214.853 45.2067 214.9 44.54 214.926 43.78C214.953 43.02 214.966 42.14 214.966 41.14V36.44H231.926V39.04H218.006V43.48C218.006 44.9067 217.92 46.18 217.746 47.3C217.586 48.4067 217.326 49.42 216.966 50.34C216.62 51.26 216.16 52.16 215.586 53.04ZM220.646 49.46C220.366 49.46 220.006 49.4533 219.566 49.44C219.14 49.4267 218.64 49.3933 218.066 49.34L217.726 46.88C218.1 46.92 218.46 46.9533 218.806 46.98C219.153 46.9933 219.413 47 219.586 47C219.706 47 219.806 46.9867 219.886 46.96C219.966 46.9333 220.026 46.86 220.066 46.74C220.12 46.6067 220.16 46.4133 220.186 46.16C220.226 45.8933 220.246 45.5267 220.246 45.06C220.26 44.5933 220.266 43.9933 220.266 43.26H217.166V40.84H222.926C222.926 42.4933 222.913 43.8533 222.886 44.92C222.86 45.9867 222.793 46.8333 222.686 47.46C222.593 48.0733 222.46 48.5267 222.286 48.82C222.126 49.1 221.913 49.28 221.646 49.36C221.38 49.4267 221.046 49.46 220.646 49.46ZM221.226 52.54L220.146 49.96C221.506 49.48 222.74 48.7867 223.846 47.88C224.953 46.96 225.9 45.8533 226.686 44.56C227.486 43.2533 228.073 41.7733 228.446 40.12L231.106 40.84C230.666 42.76 229.973 44.4933 229.026 46.04C228.093 47.5867 226.966 48.9133 225.646 50.02C224.326 51.1133 222.853 51.9533 221.226 52.54ZM229.766 52.86C229.206 52.86 228.613 52.64 227.986 52.2C227.36 51.76 226.746 51.0867 226.146 50.18C225.546 49.26 225 48.08 224.506 46.64C224.026 45.2 223.64 43.48 223.346 41.48C223.066 39.4667 222.926 37.1533 222.926 34.54H225.866C225.866 36.6067 225.966 38.4533 226.166 40.08C226.38 41.7067 226.64 43.1133 226.946 44.3C227.266 45.4867 227.593 46.4733 227.926 47.26C228.26 48.0333 228.56 48.6067 228.826 48.98C229.106 49.3533 229.3 49.54 229.406 49.54C229.486 49.54 229.566 49.44 229.646 49.24C229.74 49.04 229.833 48.6933 229.926 48.2C230.02 47.7067 230.106 47.02 230.186 46.14L232.626 47.24C232.573 48.24 232.453 49.1 232.266 49.82C232.093 50.5267 231.873 51.1067 231.606 51.56C231.353 52.0133 231.066 52.34 230.746 52.54C230.426 52.7533 230.1 52.86 229.766 52.86ZM228.866 37.94C228.52 37.42 228.153 36.9067 227.766 36.4C227.38 35.8933 226.993 35.42 226.606 34.98L228.966 34.04C229.366 34.48 229.753 34.9533 230.126 35.46C230.513 35.9667 230.88 36.48 231.226 37L228.866 37.94ZM237.226 49.2C239.693 49.2 241.673 49 243.166 48.6C244.673 48.2 245.766 47.5533 246.446 46.66C247.126 45.7533 247.466 44.5733 247.466 43.12C247.466 41.72 247.173 40.6933 246.586 40.04C246 39.3733 245.086 39.04 243.846 39.04C243.18 39.04 242.546 39.1467 241.946 39.36C241.346 39.56 240.813 39.8533 240.346 40.24C239.88 40.6267 239.513 41.0867 239.246 41.62C238.98 42.1533 238.846 42.7533 238.846 43.42V46.14H235.706V35.58H238.846V39.44H237.646C238.22 38.6533 238.833 38.0067 239.486 37.5C240.14 36.98 240.853 36.6 241.626 36.36C242.4 36.1067 243.253 35.98 244.186 35.98C246.333 35.98 247.966 36.5933 249.086 37.82C250.22 39.0333 250.786 40.8 250.786 43.12C250.786 45.2133 250.313 46.9267 249.366 48.26C248.42 49.5933 246.96 50.58 244.986 51.22C243.013 51.86 240.48 52.18 237.386 52.18L237.226 49.2ZM41.3 75.4V72.72H48.36V70.46H51.64V72.72H58.7V75.4H41.3ZM40.9 88.36V85.6H59.1V88.36H40.9ZM45.58 84.84C45.3133 83.5067 45.0067 82.1533 44.66 80.78C44.3267 79.4067 43.9733 78.08 43.6 76.8L46.7 76.1C47.0733 77.4067 47.4267 78.7667 47.76 80.18C48.1067 81.58 48.4133 82.96 48.68 84.32L45.58 84.84ZM53.06 86.98L50.16 85.86C50.88 84.4867 51.5333 82.96 52.12 81.28C52.7067 79.6 53.1933 77.86 53.58 76.06L56.84 76.68C56.4267 78.56 55.9 80.3867 55.26 82.16C54.62 83.9333 53.8867 85.54 53.06 86.98ZM65.84 84.68C67.8133 84.68 69.3933 84.5667 70.58 84.34C71.7667 84.1 72.62 83.7267 73.14 83.22C73.6733 82.7133 73.94 82.0467 73.94 81.22C73.94 80.34 73.66 79.7 73.1 79.3C72.5533 78.9 71.6733 78.7 70.46 78.7C69.9267 78.7 69.34 78.7467 68.7 78.84C68.06 78.92 67.3133 79.0467 66.46 79.22C65.62 79.38 64.62 79.6067 63.46 79.9L62.88 76.94C64.64 76.5533 66.1533 76.2667 67.42 76.08C68.6867 75.8933 69.7667 75.8 70.66 75.8C72.7667 75.8 74.3667 76.24 75.46 77.12C76.5533 78 77.1 79.28 77.1 80.96C77.1 83.12 76.1667 84.7533 74.3 85.86C72.4467 86.9667 69.6933 87.52 66.04 87.52L65.84 84.68ZM93.94 87.9C92.26 87.9 90.8 87.62 89.56 87.06C88.32 86.5133 87.36 85.7333 86.68 84.72C86 83.7067 85.66 82.5133 85.66 81.14C85.66 80.18 85.82 79.2867 86.14 78.46C86.46 77.6333 86.92 76.9 87.52 76.26C88.1333 75.6067 88.86 75.0867 89.7 74.7L90.02 75.34L81.32 75.54V72.64L98.38 72.24V75.14L95.82 75.2C94.9 75.2133 94.0333 75.3533 93.22 75.62C92.4067 75.8867 91.6933 76.2667 91.08 76.76C90.4667 77.24 89.9867 77.82 89.64 78.5C89.3067 79.18 89.14 79.9467 89.14 80.8C89.14 81.68 89.3267 82.4267 89.7 83.04C90.0733 83.64 90.62 84.1067 91.34 84.44C92.0733 84.76 92.9467 84.92 93.96 84.92C94.3333 84.92 94.7533 84.9 95.22 84.86C95.6867 84.82 96.12 84.76 96.52 84.68L96.88 87.66C96.3867 87.74 95.88 87.8 95.36 87.84C94.8533 87.88 94.38 87.9 93.94 87.9ZM106.34 87.84C105.607 87.84 104.94 87.6333 104.34 87.22C103.74 86.8067 103.22 86.22 102.78 85.46C102.353 84.7 102.02 83.7933 101.78 82.74C101.553 81.6867 101.44 80.52 101.44 79.24C101.44 78.2267 101.527 77.1733 101.7 76.08C101.873 74.9867 102.14 73.7867 102.5 72.48L105.7 72.84C105.367 74.0133 105.12 75.0867 104.96 76.06C104.8 77.0333 104.72 77.9667 104.72 78.86C104.72 79.6467 104.767 80.3733 104.86 81.04C104.967 81.7067 105.107 82.2867 105.28 82.78C105.453 83.2733 105.653 83.66 105.88 83.94C106.12 84.2067 106.373 84.34 106.64 84.34C106.907 84.34 107.2 84.22 107.52 83.98C107.853 83.74 108.193 83.4133 108.54 83C108.9 82.5733 109.24 82.0933 109.56 81.56C109.88 81.0133 110.153 80.4467 110.38 79.86L113.28 81.38C112.933 82.3 112.5 83.1533 111.98 83.94C111.473 84.7267 110.907 85.4133 110.28 86C109.653 86.5867 109.007 87.04 108.34 87.36C107.673 87.68 107.007 87.84 106.34 87.84ZM115.82 85.86C115.82 84.34 115.72 82.8267 115.52 81.32C115.333 79.8133 115.053 78.3533 114.68 76.94C114.32 75.5267 113.873 74.2067 113.34 72.98L116.36 72.12C116.96 73.3867 117.46 74.76 117.86 76.24C118.273 77.7067 118.58 79.2467 118.78 80.86C118.993 82.4733 119.1 84.14 119.1 85.86H115.82ZM129.6 88.46C127.573 88.46 125.993 88.12 124.86 87.44C123.74 86.76 123.18 85.8133 123.18 84.6C123.18 83.56 123.613 82.7533 124.48 82.18C125.36 81.5933 126.56 81.3 128.08 81.3C129.453 81.3 130.48 81.5533 131.16 82.06C131.84 82.5533 132.18 83.3 132.18 84.3C132.18 84.66 132.14 85.04 132.06 85.44C131.98 85.84 131.867 86.2267 131.72 86.6L128.98 86.32C129.127 85.9467 129.24 85.62 129.32 85.34C129.4 85.0467 129.44 84.8067 129.44 84.62C129.44 83.94 128.913 83.6 127.86 83.6C127.313 83.6 126.893 83.6867 126.6 83.86C126.307 84.02 126.16 84.26 126.16 84.58C126.16 85.0333 126.413 85.38 126.92 85.62C127.427 85.86 128.18 85.98 129.18 85.98C131.153 85.98 132.593 85.7067 133.5 85.16C134.42 84.6133 134.88 83.7667 134.88 82.62C134.88 81.6067 134.507 80.8733 133.76 80.42C133.027 79.9533 131.82 79.72 130.14 79.72C129.18 79.72 128.34 79.8 127.62 79.96C126.9 80.12 126.213 80.3667 125.56 80.7L123.08 82.04L121.8 79.56L132.2 74.24V74.66H123V71.94H137.12V74.66L126.86 80.02L125.2 78.56C125.653 78.4133 126.173 78.2733 126.76 78.14C127.347 78.0067 127.953 77.8867 128.58 77.78C129.207 77.6733 129.813 77.5933 130.4 77.54C130.987 77.4733 131.507 77.44 131.96 77.44C133.96 77.44 135.5 77.8733 136.58 78.74C137.66 79.5933 138.2 80.82 138.2 82.42C138.2 84.3533 137.453 85.8467 135.96 86.9C134.467 87.94 132.347 88.46 129.6 88.46ZM150.02 88.08C147.527 88.08 145.633 87.6933 144.34 86.92C143.047 86.1333 142.4 84.9867 142.4 83.48C142.4 82.2133 142.873 81.06 143.82 80.02C144.767 78.9667 146.24 77.9933 148.24 77.1C150.253 76.2067 152.84 75.36 156 74.56L156.56 76.7C153.88 77.38 151.673 78.0733 149.94 78.78C148.22 79.4867 146.947 80.2133 146.12 80.96C145.307 81.6933 144.9 82.48 144.9 83.32C144.9 85.0533 146.653 85.92 150.16 85.92C150.733 85.92 151.333 85.8933 151.96 85.84C152.587 85.7867 153.287 85.7133 154.06 85.62C154.847 85.5133 155.74 85.38 156.74 85.22L157.02 87.38C155.753 87.5933 154.527 87.76 153.34 87.88C152.167 88.0133 151.06 88.08 150.02 88.08ZM146.22 79.14C145.833 77.8333 145.507 76.5533 145.24 75.3C144.973 74.0333 144.76 72.78 144.6 71.54L147.02 71.18C147.193 72.42 147.413 73.66 147.68 74.9C147.947 76.1267 148.267 77.3467 148.64 78.56L146.22 79.14ZM162.34 88.56L160.96 86.72C161.84 86.08 162.587 85.3267 163.2 84.46C163.827 83.5933 164.3 82.62 164.62 81.54C164.953 80.46 165.12 79.2733 165.12 77.98V74.22H163.06V72.22H169.86V74.22H167.46V77.98C167.46 79.0733 167.327 80.1467 167.06 81.2C166.807 82.2533 166.447 83.2533 165.98 84.2C165.513 85.1467 164.973 85.9933 164.36 86.74C163.747 87.4867 163.073 88.0933 162.34 88.56ZM168.7 87.34C168.113 86.3267 167.5 85.3 166.86 84.26C166.233 83.22 165.587 82.18 164.92 81.14L166.72 80.14C167.44 81.18 168.113 82.2 168.74 83.2C169.38 84.2 169.98 85.16 170.54 86.08L168.7 87.34ZM161 79.92V77.86H170.22V79.92H161ZM162.7 77.44L160.78 76.66C161.207 75.7667 161.6 74.7667 161.96 73.66C162.32 72.5533 162.613 71.4133 162.84 70.24L164.88 70.56C164.667 71.8133 164.373 73.0333 164 74.22C163.627 75.3933 163.193 76.4667 162.7 77.44ZM170.68 88.4V71.84H178.8V88.4H176.5V87.24H172.92V85.24H176.5V73.9H172.92V88.4H170.68ZM184.26 85.8C186.833 85.8 188.907 85.58 190.48 85.14C192.067 84.7 193.213 83.9867 193.92 83C194.64 82 195 80.7133 195 79.14C195 77.54 194.66 76.3467 193.98 75.56C193.313 74.76 192.287 74.36 190.9 74.36C190.127 74.36 189.4 74.4867 188.72 74.74C188.053 74.9933 187.467 75.3533 186.96 75.82C186.453 76.2867 186.047 76.84 185.74 77.48C185.447 78.12 185.3 78.8267 185.3 79.6V82.22H182.98V71.7H185.3V75.96H184.4C184.88 75.1333 185.447 74.4333 186.1 73.86C186.767 73.2867 187.52 72.8533 188.36 72.56C189.213 72.2533 190.14 72.1 191.14 72.1C193.18 72.1 194.74 72.7067 195.82 73.92C196.913 75.12 197.46 76.86 197.46 79.14C197.46 81.1933 196.993 82.8733 196.06 84.18C195.14 85.4867 193.72 86.4467 191.8 87.06C189.88 87.6867 187.407 88 184.38 88L184.26 85.8ZM205.5 88.58C204.887 87.7667 204.227 87.0067 203.52 86.3C202.813 85.58 202.047 84.9133 201.22 84.3L202.86 82.66C203.687 83.3 204.473 84 205.22 84.76C205.967 85.5067 206.66 86.3133 207.3 87.18L205.5 88.58ZM222.4 88.64V71.34H237.6V88.64H235.2V87.66H224.8V85.74H235.2V82.88H224.8V80.96H235.2V78.1H224.8V76.16H235.2V73.32H224.8V88.64H222.4ZM250.58 87.46C250.247 87.46 249.82 87.4133 249.3 87.32C248.78 87.24 248.233 87.1267 247.66 86.98C247.087 86.82 246.547 86.6467 246.04 86.46L246.58 84.44C247.007 84.5733 247.433 84.7067 247.86 84.84C248.3 84.96 248.7 85.06 249.06 85.14C249.433 85.2067 249.727 85.24 249.94 85.24C250.367 85.24 250.72 85.0467 251 84.66C251.28 84.26 251.487 83.64 251.62 82.8C251.767 81.9467 251.84 80.8533 251.84 79.52C251.84 78.7467 251.807 78.1267 251.74 77.66C251.687 77.18 251.58 76.82 251.42 76.58C251.26 76.34 251.013 76.18 250.68 76.1C250.347 76.02 249.9 75.98 249.34 75.98H240.82V73.9H249.1C250.033 73.9 250.807 73.94 251.42 74.02C252.033 74.0867 252.527 74.2267 252.9 74.44C253.273 74.6533 253.553 74.98 253.74 75.42C253.94 75.8467 254.067 76.42 254.12 77.14C254.187 77.8467 254.22 78.7333 254.22 79.8C254.22 81.5333 254.087 82.9667 253.82 84.1C253.567 85.2333 253.173 86.08 252.64 86.64C252.107 87.1867 251.42 87.46 250.58 87.46ZM241.06 87.24C241.553 85.9733 241.993 84.8067 242.38 83.74C242.767 82.66 243.113 81.6267 243.42 80.64C243.74 79.6533 244.027 78.6533 244.28 77.64C244.547 76.6267 244.793 75.5467 245.02 74.4C245.247 73.2533 245.473 71.9867 245.7 70.6L248.02 70.86C247.807 72.1933 247.587 73.44 247.36 74.6C247.133 75.7467 246.88 76.8533 246.6 77.92C246.333 78.9733 246.033 80.0267 245.7 81.08C245.38 82.1333 245.013 83.22 244.6 84.34C244.2 85.46 243.747 86.66 243.24 87.94L241.06 87.24ZM257.34 83.56C257.22 82.76 257.06 81.9067 256.86 81C256.66 80.0933 256.433 79.18 256.18 78.26C255.927 77.34 255.66 76.4533 255.38 75.6C255.1 74.7333 254.813 73.94 254.52 73.22L256.76 72.58C257.067 73.3267 257.36 74.1333 257.64 75C257.92 75.8667 258.187 76.76 258.44 77.68C258.693 78.6 258.92 79.52 259.12 80.44C259.32 81.3467 259.487 82.2133 259.62 83.04L257.34 83.56ZM269.88 87.76C269.16 87.76 268.38 87.7267 267.54 87.66C266.713 87.6067 265.907 87.5267 265.12 87.42C264.347 87.3133 263.647 87.1933 263.02 87.06L263.24 84.98C264.013 85.1133 264.793 85.2333 265.58 85.34C266.38 85.4467 267.147 85.5333 267.88 85.6C268.613 85.6533 269.28 85.68 269.88 85.68C271.773 85.68 273.207 85.4 274.18 84.84C275.153 84.28 275.64 83.4533 275.64 82.36C275.64 81.4533 275.3 80.7667 274.62 80.3C273.94 79.82 272.96 79.58 271.68 79.58C270.813 79.58 269.94 79.68 269.06 79.88C268.18 80.08 267.347 80.3667 266.56 80.74C265.773 81.1133 265.073 81.5533 264.46 82.06L262.32 81.64C262.493 80.7867 262.647 80 262.78 79.28C262.913 78.5467 263.027 77.86 263.12 77.22C263.213 76.5667 263.293 75.9333 263.36 75.32L265.68 75.5C265.6 76.2333 265.5 76.9933 265.38 77.78C265.273 78.5533 265.14 79.3333 264.98 80.12L264.64 79.56C265.36 79.1067 266.107 78.7333 266.88 78.44C267.653 78.1333 268.447 77.9 269.26 77.74C270.087 77.58 270.94 77.5 271.82 77.5C273.86 77.5 275.407 77.9067 276.46 78.72C277.513 79.5333 278.04 80.7333 278.04 82.32C278.04 84.12 277.353 85.48 275.98 86.4C274.607 87.3067 272.573 87.76 269.88 87.76ZM275.72 74.22C274.467 74.2333 273.267 74.2267 272.12 74.2C270.973 74.16 269.827 74.0933 268.68 74C267.547 73.9067 266.367 73.78 265.14 73.62L265.38 71.54C266.513 71.6733 267.66 71.7867 268.82 71.88C269.98 71.96 271.133 72.0267 272.28 72.08C273.427 72.12 274.573 72.14 275.72 72.14V74.22ZM44.64 115.6C46.5733 115.587 48.2267 115.447 49.6 115.18C50.9867 114.9 52.12 114.48 53 113.92C53.88 113.347 54.5267 112.613 54.94 111.72C55.3533 110.827 55.56 109.767 55.56 108.54V105.88H44.4V110.8H42.02V103.78H48.68V100.74H51.04V103.78H57.98V108.54C57.98 110.593 57.5133 112.307 56.58 113.68C55.6467 115.04 54.22 116.06 52.3 116.74C50.3933 117.42 47.9733 117.78 45.04 117.82L44.64 115.6ZM61.82 117.86V102.54H78.18V117.86H75.76V116.46H64.26V117.86H61.82ZM64.26 114.32H75.76V104.68H64.26V114.32ZM95.18 118.06V116.66H82.06V114.52H95.18V104.48H82.06V102.34H97.66V118.06H95.18ZM113.04 117.94C111.427 117.94 110.02 117.653 108.82 117.08C107.633 116.52 106.713 115.727 106.06 114.7C105.407 113.66 105.08 112.44 105.08 111.04C105.08 109.947 105.273 108.933 105.66 108C106.06 107.067 106.62 106.253 107.34 105.56C108.073 104.853 108.94 104.313 109.94 103.94L110.14 104.56L100.62 104.78V102.64L117.48 102.24V104.38L114.94 104.44C113.873 104.467 112.887 104.64 111.98 104.96C111.087 105.267 110.313 105.7 109.66 106.26C109.02 106.82 108.52 107.487 108.16 108.26C107.8 109.02 107.62 109.867 107.62 110.8C107.62 111.813 107.84 112.693 108.28 113.44C108.72 114.173 109.34 114.74 110.14 115.14C110.953 115.54 111.927 115.74 113.06 115.74C113.3 115.74 113.567 115.733 113.86 115.72C114.167 115.693 114.473 115.667 114.78 115.64C115.1 115.6 115.38 115.56 115.62 115.52L115.88 117.72C115.6 117.76 115.293 117.793 114.96 117.82C114.627 117.86 114.293 117.887 113.96 117.9C113.627 117.927 113.32 117.94 113.04 117.94ZM115.08 111.7C114.773 111.02 114.44 110.373 114.08 109.76C113.733 109.133 113.333 108.493 112.88 107.84L114.62 106.88C115.073 107.533 115.48 108.18 115.84 108.82C116.2 109.447 116.54 110.113 116.86 110.82L115.08 111.7ZM118.12 110.56C117.827 109.867 117.507 109.213 117.16 108.6C116.827 107.973 116.44 107.333 116 106.68L117.74 105.76C118.18 106.427 118.573 107.08 118.92 107.72C119.28 108.36 119.607 109.04 119.9 109.76L118.12 110.56ZM129.64 118.04C128.12 118.04 126.873 117.8 125.9 117.32C124.94 116.853 124.227 116.127 123.76 115.14C123.307 114.153 123.08 112.887 123.08 111.34V101.6H125.52V111.34C125.52 112.9 125.847 114.033 126.5 114.74C127.153 115.433 128.2 115.78 129.64 115.78C130.693 115.78 131.62 115.587 132.42 115.2C133.233 114.813 133.967 114.187 134.62 113.32C135.287 112.44 135.927 111.273 136.54 109.82L138.76 110.72C138.227 112.053 137.653 113.187 137.04 114.12C136.44 115.04 135.78 115.793 135.06 116.38C134.353 116.953 133.553 117.373 132.66 117.64C131.767 117.907 130.76 118.04 129.64 118.04ZM141.74 117.84C142.3 116.04 142.807 114.213 143.26 112.36C143.727 110.493 144.133 108.6 144.48 106.68C144.84 104.747 145.147 102.8 145.4 100.84L147.78 100.94C147.553 102.86 147.26 104.8 146.9 106.76C146.553 108.72 146.147 110.667 145.68 112.6C145.213 114.52 144.693 116.407 144.12 118.26L141.74 117.84ZM154.14 117.86C152.927 117.86 151.873 117.713 150.98 117.42C150.087 117.14 149.393 116.747 148.9 116.24C148.407 115.72 148.16 115.1 148.16 114.38C148.16 113.847 148.34 113.32 148.7 112.8C149.06 112.28 149.613 111.74 150.36 111.18L152.16 112.46C151.653 112.78 151.273 113.08 151.02 113.36C150.78 113.627 150.66 113.893 150.66 114.16C150.66 114.467 150.8 114.74 151.08 114.98C151.373 115.207 151.78 115.387 152.3 115.52C152.833 115.653 153.447 115.72 154.14 115.72C154.767 115.72 155.407 115.687 156.06 115.62C156.713 115.553 157.393 115.453 158.1 115.32L158.36 117.46C157.627 117.593 156.92 117.693 156.24 117.76C155.56 117.827 154.86 117.86 154.14 117.86ZM141.46 105.42V103.34H155.54V105.42H141.46ZM148.94 107.68C150.513 107.533 152.053 107.42 153.56 107.34C155.08 107.26 156.6 107.22 158.12 107.22V109.32C156.627 109.32 155.127 109.36 153.62 109.44C152.127 109.507 150.613 109.627 149.08 109.8L148.94 107.68Z" fill="#282828"/>
<path opacity="0.6" d="M41.456 138.68C41.456 136.09 42.59 133.808 44.732 131.946C44.858 131.834 45.012 131.778 45.152 131.778C45.418 131.778 45.67 132.016 45.67 132.282C45.67 132.464 45.6 132.59 45.46 132.716C43.612 134.438 42.744 136.384 42.744 138.68C42.744 140.976 43.612 142.922 45.46 144.644C45.6 144.77 45.67 144.896 45.67 145.078C45.67 145.344 45.418 145.582 45.152 145.582C45.012 145.582 44.858 145.526 44.732 145.414C42.59 143.552 41.456 141.27 41.456 138.68ZM54.1147 137.056V142.922C54.1147 144.336 53.4147 144.882 52.1967 144.882C51.8747 144.882 51.5107 144.868 51.1187 144.798C50.6707 144.714 50.4607 144.364 50.4607 144C50.4607 143.58 50.7407 143.16 51.2447 143.16C51.2867 143.16 51.3427 143.16 51.3987 143.174C51.6647 143.216 51.8327 143.23 52.0007 143.23C52.3087 143.23 52.4347 143.132 52.4347 142.726V137.056H48.3747C47.9267 137.056 47.7027 136.678 47.7027 136.314C47.7027 135.936 47.9267 135.572 48.3747 135.572H52.4347V133.486C52.4347 133.01 52.8687 132.772 53.2887 132.772C53.7087 132.772 54.1147 132.996 54.1147 133.458V135.572H58.1187C58.5667 135.572 58.7907 135.936 58.7907 136.314C58.7907 136.678 58.5667 137.056 58.1187 137.056H54.1147ZM58.1047 132.17C58.9447 132.17 59.6027 132.828 59.6027 133.668C59.6027 134.522 58.9447 135.18 58.1047 135.18C57.2507 135.18 56.5927 134.522 56.5927 133.668C56.5927 132.828 57.2507 132.17 58.1047 132.17ZM58.1047 134.48C58.5527 134.48 58.9027 134.116 58.9027 133.668C58.9027 133.22 58.5527 132.87 58.1047 132.87C57.6567 132.87 57.2927 133.22 57.2927 133.668C57.2927 134.116 57.6567 134.48 58.1047 134.48ZM57.1807 138.848C57.5307 139.562 58.2027 140.612 58.7347 141.256C58.9167 141.48 59.0007 141.704 59.0007 141.9C59.0007 142.362 58.5947 142.712 58.1607 142.712C57.8947 142.712 57.6007 142.586 57.3767 142.278C56.8307 141.55 56.0887 140.332 55.6967 139.45C55.6407 139.324 55.6127 139.198 55.6127 139.086C55.6127 138.638 56.0047 138.372 56.4107 138.372C56.7187 138.372 57.0127 138.512 57.1807 138.848ZM49.2707 138.89C49.4247 138.54 49.7187 138.386 50.0267 138.386C50.4327 138.386 50.8387 138.68 50.8387 139.142C50.8387 139.254 50.8247 139.366 50.7687 139.492C50.3207 140.598 49.6207 141.662 48.7667 142.516C48.5567 142.726 48.3187 142.81 48.1087 142.81C47.6607 142.81 47.2827 142.46 47.2827 142.054C47.2827 141.844 47.3667 141.634 47.5767 141.438C48.2767 140.752 48.8507 139.856 49.2707 138.89ZM64.3067 136.622C64.6707 137.196 65.0487 137.896 65.2867 138.54C65.3147 138.624 65.3287 138.708 65.3287 138.792C65.3287 139.198 64.9227 139.478 64.5307 139.478C64.2647 139.478 64.0127 139.352 63.8867 139.044C63.6347 138.428 63.3127 137.77 62.9907 137.238C62.9207 137.126 62.8927 137.014 62.8927 136.902C62.8927 136.538 63.2707 136.258 63.6627 136.258C63.9007 136.258 64.1527 136.37 64.3067 136.622ZM67.0787 135.964C67.4287 136.552 67.7647 137.224 67.9747 137.868C68.0027 137.952 68.0167 138.036 68.0167 138.106C68.0167 138.512 67.6247 138.778 67.2467 138.778C66.9807 138.778 66.7147 138.638 66.6027 138.316C66.3647 137.686 66.0707 137.07 65.7627 136.538C65.6927 136.426 65.6647 136.314 65.6647 136.216C65.6647 135.852 66.0287 135.6 66.4207 135.6C66.6727 135.6 66.9247 135.698 67.0787 135.964ZM70.2707 136.524C70.3687 136.174 70.6487 136.034 70.9567 136.034C71.3487 136.034 71.7687 136.286 71.7687 136.706C71.7687 136.762 71.7547 136.818 71.7407 136.888C70.8587 140.192 68.6327 143.132 65.9447 144.588C65.8047 144.658 65.6787 144.7 65.5527 144.7C65.1467 144.7 64.8387 144.336 64.8387 143.958C64.8387 143.706 64.9647 143.454 65.2727 143.286C67.7787 141.872 69.4447 139.562 70.2707 136.524ZM80.9947 133.486V137.42C81.1347 137.168 81.3867 136.986 81.6807 136.986C81.8067 136.986 81.9187 137.014 82.0447 137.07C82.9127 137.462 84.1307 138.176 85.0127 138.862C85.2927 139.072 85.4047 139.338 85.4047 139.59C85.4047 140.038 85.0547 140.416 84.6067 140.416C84.4247 140.416 84.2147 140.36 84.0187 140.206C83.2067 139.59 82.0167 138.862 81.4007 138.526C81.2047 138.414 81.0787 138.288 80.9947 138.134V144.168C80.9947 144.658 80.5887 144.896 80.1687 144.896C79.7627 144.896 79.3427 144.658 79.3427 144.168V133.486C79.3427 132.996 79.7627 132.744 80.1687 132.744C80.5887 132.744 80.9947 132.996 80.9947 133.486ZM83.4307 134.76C83.3327 134.648 83.2907 134.536 83.2907 134.438C83.2907 134.158 83.5707 133.906 83.8787 133.906C84.0047 133.906 84.1447 133.948 84.2707 134.06C84.6487 134.396 85.0687 134.844 85.3627 135.278C85.4607 135.404 85.4887 135.53 85.4887 135.656C85.4887 135.964 85.2227 136.216 84.9287 136.216C84.7607 136.216 84.5927 136.132 84.4667 135.95C84.1307 135.488 83.7527 135.082 83.4307 134.76ZM84.8307 133.654C84.7187 133.542 84.6767 133.43 84.6767 133.318C84.6767 133.038 84.9427 132.8 85.2647 132.8C85.4047 132.8 85.5447 132.856 85.6847 132.968C86.0487 133.276 86.4687 133.71 86.7627 134.116C86.8747 134.256 86.9167 134.396 86.9167 134.536C86.9167 134.844 86.6507 135.068 86.3567 135.068C86.1887 135.068 86.0067 134.998 85.8667 134.816C85.5447 134.41 85.1527 133.99 84.8307 133.654ZM93.8747 135.628L93.4687 133.332C93.4547 133.29 93.4547 133.234 93.4547 133.192C93.4547 132.758 93.8747 132.52 94.2807 132.52C94.6307 132.52 94.9807 132.702 95.0507 133.108L95.4567 135.39L98.6207 134.9C98.6627 134.886 98.7047 134.886 98.7467 134.886C99.2087 134.886 99.4607 135.292 99.4607 135.67C99.4607 135.978 99.2787 136.286 98.8867 136.342L95.7087 136.832L96.0587 138.806L100.161 138.12C100.203 138.106 100.259 138.106 100.301 138.106C100.749 138.106 101.001 138.498 101.001 138.876C101.001 139.184 100.819 139.492 100.427 139.562L96.3107 140.248L96.9827 144.028C96.9967 144.07 96.9967 144.126 96.9967 144.168C96.9967 144.602 96.5907 144.854 96.1847 144.854C95.8347 144.854 95.4847 144.672 95.4147 144.252L94.7427 140.514L90.6407 141.2C90.5987 141.214 90.5567 141.214 90.5147 141.214C90.0667 141.214 89.8147 140.808 89.8147 140.43C89.8147 140.122 89.9967 139.814 90.3887 139.744L94.4907 139.058L94.1407 137.07L91.0047 137.56C90.9627 137.574 90.9207 137.574 90.8787 137.574C90.4447 137.574 90.1927 137.168 90.1927 136.79C90.1927 136.468 90.3607 136.16 90.7667 136.104L93.8747 135.628ZM108.687 138.05L112.243 137.49C112.383 137.462 112.523 137.462 112.663 137.462C113.461 137.462 113.965 137.882 113.965 138.54C113.965 138.792 113.895 139.072 113.741 139.366C113.335 140.164 112.747 140.976 112.089 141.592C111.907 141.774 111.697 141.844 111.515 141.844C111.123 141.844 110.787 141.522 110.787 141.144C110.787 140.976 110.871 140.78 111.053 140.612C111.557 140.15 111.963 139.632 112.285 139.086C112.327 139.016 112.341 138.974 112.341 138.932C112.341 138.862 112.285 138.82 112.173 138.82C112.145 138.82 112.103 138.834 112.061 138.834L108.939 139.338L109.919 144.476C109.933 144.518 109.933 144.56 109.933 144.602C109.933 144.994 109.569 145.218 109.205 145.218C108.897 145.218 108.603 145.05 108.533 144.7L107.539 139.562L105.187 139.94C105.145 139.954 105.103 139.954 105.061 139.954C104.655 139.954 104.431 139.604 104.431 139.268C104.431 138.974 104.599 138.694 104.963 138.638L107.287 138.274L106.839 135.978C106.825 135.922 106.825 135.88 106.825 135.838C106.825 135.446 107.175 135.25 107.539 135.25C107.861 135.25 108.183 135.418 108.253 135.782L108.687 138.05ZM119.593 134.116L125.165 134.018H125.249C126.285 134.018 126.817 134.494 126.817 135.222C126.817 135.446 126.761 135.698 126.663 135.978C126.229 137.14 125.557 138.274 124.745 139.324C126.047 140.206 127.503 141.494 128.497 142.642C128.679 142.852 128.763 143.076 128.763 143.272C128.763 143.734 128.329 144.112 127.867 144.112C127.643 144.112 127.391 144.014 127.195 143.776C126.327 142.726 125.039 141.452 123.751 140.486C122.393 141.956 120.769 143.174 119.187 143.958C119.047 144.028 118.907 144.056 118.781 144.056C118.305 144.056 117.969 143.65 117.969 143.244C117.969 142.964 118.109 142.698 118.445 142.53C121.357 141.06 123.807 138.68 124.913 135.964C124.955 135.88 124.969 135.796 124.969 135.74C124.969 135.614 124.857 135.558 124.619 135.558L119.607 135.656C119.145 135.67 118.907 135.278 118.907 134.9C118.907 134.508 119.145 134.13 119.593 134.116ZM137.079 134.718L139.963 134.69C141.125 134.676 141.713 135.138 141.713 135.978C141.713 136.202 141.671 136.454 141.587 136.72C140.607 139.968 137.807 143.16 134.699 144.84C134.545 144.924 134.377 144.966 134.237 144.966C133.789 144.966 133.467 144.588 133.467 144.182C133.467 143.902 133.607 143.622 133.971 143.426C135.301 142.698 136.547 141.676 137.583 140.5C136.967 139.926 136.421 139.506 135.959 139.198C135.707 139.016 135.609 138.806 135.609 138.582C135.609 138.204 135.945 137.84 136.379 137.84C136.533 137.84 136.701 137.882 136.869 137.994C137.415 138.344 137.975 138.764 138.549 139.282C139.165 138.386 139.655 137.434 139.963 136.51C139.991 136.44 140.005 136.37 140.005 136.314C140.005 136.16 139.893 136.09 139.627 136.09L136.211 136.118C135.497 137.182 134.671 138.162 133.859 138.89C133.663 139.072 133.439 139.142 133.243 139.142C132.809 139.142 132.459 138.806 132.459 138.4C132.459 138.19 132.557 137.952 132.795 137.742C134.097 136.566 135.427 134.718 136.155 133.01C136.309 132.632 136.631 132.478 136.939 132.478C137.345 132.478 137.737 132.758 137.737 133.192C137.737 133.29 137.723 133.402 137.667 133.528C137.499 133.92 137.303 134.312 137.079 134.718ZM146.193 137.952H156.413C156.917 137.952 157.169 138.344 157.169 138.75C157.169 139.142 156.917 139.548 156.413 139.548H146.193C145.689 139.548 145.437 139.142 145.437 138.75C145.437 138.344 145.689 137.952 146.193 137.952ZM165.303 137.252C166.087 137.252 166.731 137.896 166.731 138.68C166.731 139.464 166.087 140.108 165.303 140.108C164.519 140.108 163.875 139.464 163.875 138.68C163.875 137.896 164.519 137.252 165.303 137.252ZM180.059 132.912C181.431 134.508 183.447 135.978 185.407 136.93C185.771 137.112 185.925 137.406 185.925 137.686C185.925 138.092 185.631 138.456 185.169 138.456C185.015 138.456 184.861 138.428 184.679 138.33C182.747 137.336 180.717 135.754 179.233 134.032C177.749 135.782 175.803 137.42 173.801 138.554C173.661 138.638 173.535 138.666 173.409 138.666C173.003 138.666 172.681 138.302 172.681 137.924C172.681 137.686 172.807 137.434 173.115 137.252C175.257 136.006 177.203 134.298 178.631 132.366C178.813 132.128 179.065 132.016 179.317 132.016C179.723 132.016 180.101 132.296 180.101 132.688C180.101 132.758 180.087 132.828 180.059 132.912ZM184.371 140.766H178.827C178.407 141.606 177.945 142.418 177.441 143.202C178.701 143.104 179.961 143.006 181.207 142.838C181.011 142.628 180.801 142.432 180.619 142.264C180.451 142.11 180.381 141.942 180.381 141.788C180.381 141.438 180.717 141.13 181.123 141.13C181.305 141.13 181.487 141.2 181.669 141.34C182.495 142.012 183.419 142.964 184.035 143.762C184.189 143.958 184.259 144.154 184.259 144.322C184.259 144.728 183.895 145.022 183.503 145.022C183.251 145.022 182.985 144.91 182.775 144.63C182.621 144.42 182.439 144.196 182.257 143.986C179.835 144.378 177.861 144.588 175.257 144.742C175.159 144.742 174.823 144.77 174.683 144.77C174.221 144.77 173.983 144.406 173.983 144.056C173.983 143.706 174.207 143.37 174.697 143.342L175.663 143.3C176.195 142.474 176.713 141.648 177.133 140.766H174.249C173.843 140.766 173.633 140.416 173.633 140.08C173.633 139.73 173.843 139.394 174.249 139.394H184.371C184.791 139.394 184.987 139.73 184.987 140.08C184.987 140.416 184.791 140.766 184.371 140.766ZM177.091 136.86H181.501C181.921 136.86 182.117 137.196 182.117 137.546C182.117 137.882 181.921 138.232 181.501 138.232H177.091C176.685 138.232 176.475 137.882 176.475 137.546C176.475 137.196 176.685 136.86 177.091 136.86ZM190.195 140.024V144.658C190.195 145.05 189.831 145.246 189.467 145.246C189.089 145.246 188.725 145.05 188.725 144.658V140.234C188.403 140.5 188.081 140.738 187.759 140.962C187.605 141.074 187.437 141.116 187.297 141.116C186.919 141.116 186.625 140.78 186.625 140.43C186.625 140.206 186.737 139.982 186.989 139.814C188.347 138.946 189.593 137.504 190.167 136.286C190.195 136.216 190.209 136.174 190.209 136.132C190.209 136.034 190.125 135.992 189.957 135.992H187.465C187.115 135.992 186.947 135.656 186.947 135.32C186.947 134.998 187.115 134.662 187.465 134.662H188.725V132.73C188.725 132.338 189.089 132.156 189.467 132.156C189.831 132.156 190.195 132.338 190.195 132.73V134.662H190.601C191.399 134.662 191.847 135.026 191.847 135.67C191.847 135.894 191.791 136.16 191.665 136.454C191.357 137.182 190.881 137.924 190.307 138.624C190.895 138.904 191.525 139.282 191.931 139.604C192.169 139.786 192.267 139.996 192.267 140.192C192.267 140.556 191.959 140.864 191.609 140.864C191.455 140.864 191.301 140.808 191.147 140.682C190.867 140.458 190.545 140.234 190.195 140.024ZM194.913 143.146V138.61H192.897C192.491 138.61 192.281 138.246 192.281 137.896C192.281 137.532 192.491 137.182 192.897 137.182H194.913V133.08C194.913 132.618 195.305 132.394 195.697 132.394C196.089 132.394 196.481 132.618 196.481 133.08V137.182H198.749C199.169 137.182 199.365 137.532 199.365 137.896C199.365 138.246 199.169 138.61 198.749 138.61H196.481V143.146H199.183C199.603 143.146 199.799 143.496 199.799 143.86C199.799 144.21 199.603 144.574 199.183 144.574H192.029C191.623 144.574 191.413 144.21 191.413 143.86C191.413 143.496 191.623 143.146 192.029 143.146H194.913ZM209.921 135.726H204.699C203.565 135.726 203.131 135.348 203.131 134.536V133.696C203.131 132.87 203.565 132.506 204.699 132.506H209.921C211.069 132.506 211.489 132.87 211.489 133.696V134.536C211.489 135.558 210.803 135.726 209.921 135.726ZM205.021 134.648H209.613C209.949 134.648 210.033 134.55 210.033 134.34V133.892C210.033 133.668 209.949 133.584 209.613 133.584H205.021C204.685 133.584 204.587 133.668 204.587 133.892V134.34C204.587 134.62 204.783 134.648 205.021 134.648ZM210.383 142.852H204.251C202.963 142.852 202.473 142.404 202.473 141.438V137.784C202.473 136.818 202.963 136.37 204.251 136.37H210.383C211.671 136.37 212.147 136.818 212.147 137.784V141.438C212.147 142.614 211.433 142.852 210.383 142.852ZM204.475 141.76H210.159C210.635 141.76 210.705 141.69 210.705 141.396V140.976H203.929V141.396C203.929 141.774 204.153 141.76 204.475 141.76ZM203.929 139.212V139.968H210.705V139.212H203.929ZM210.705 138.204V137.826C210.705 137.532 210.635 137.462 210.159 137.462H204.475C203.999 137.462 203.929 137.532 203.929 137.826V138.204H210.705ZM204.755 142.978C204.895 142.908 205.035 142.88 205.161 142.88C205.581 142.88 205.889 143.202 205.889 143.538C205.889 143.762 205.763 143.986 205.455 144.14C204.489 144.602 203.159 145.022 201.983 145.274C201.927 145.288 201.857 145.288 201.801 145.288C201.381 145.288 201.129 144.952 201.129 144.602C201.129 144.322 201.311 144.028 201.717 143.944C202.795 143.72 203.901 143.37 204.755 142.978ZM209.725 142.964C210.439 143.272 211.629 143.636 212.805 143.874C213.211 143.958 213.393 144.252 213.393 144.56C213.393 144.91 213.141 145.26 212.721 145.26C212.651 145.26 212.595 145.246 212.525 145.232C211.251 144.966 209.921 144.532 209.067 144.112C208.773 143.972 208.647 143.734 208.647 143.524C208.647 143.188 208.941 142.88 209.347 142.88C209.459 142.88 209.585 142.908 209.725 142.964ZM219.147 138.68C219.147 141.27 218.013 143.552 215.871 145.414C215.745 145.526 215.591 145.582 215.451 145.582C215.185 145.582 214.933 145.344 214.933 145.078C214.933 144.896 215.003 144.77 215.143 144.644C216.991 142.922 217.859 140.976 217.859 138.68C217.859 136.384 216.991 134.438 215.143 132.716C215.003 132.59 214.933 132.464 214.933 132.282C214.933 132.016 215.185 131.778 215.451 131.778C215.591 131.778 215.745 131.834 215.871 131.946C218.013 133.808 219.147 136.09 219.147 138.68Z" fill="#282828"/>
<path d="M259.177 215L241.177 173L210 173L259.177 215Z" fill="#69BD83"/>
</svg>
