<svg width="327" height="238" viewBox="0 0 327 238" fill="none" xmlns="http://www.w3.org/2000/svg">
<rect width="327" height="194" rx="80" fill="#E18965"/>
<path d="M42.76 49.72L41.14 47.9C41.94 47.34 42.6333 46.78 43.22 46.22C43.82 45.66 44.32 45.0667 44.72 44.44C45.12 43.8 45.4333 43.0933 45.66 42.32C45.9 41.5333 46.0667 40.64 46.16 39.64C46.2667 38.64 46.32 37.48 46.32 36.16H40.96V34.12H48.78V31.48H51.22V34.12H59.04V36.16H48.78C48.78 37.9333 48.6733 39.4867 48.46 40.82C48.2467 42.1533 47.9067 43.34 47.44 44.38C46.9733 45.4067 46.3533 46.3467 45.58 47.2C44.82 48.0533 43.88 48.8933 42.76 49.72ZM53.54 49.32C53.0733 49.32 52.48 49.3 51.76 49.26C51.0533 49.2333 50.2533 49.1867 49.36 49.12L49.26 46.96C50.0333 47.0133 50.76 47.06 51.44 47.1C52.12 47.14 52.66 47.16 53.06 47.16C53.38 47.16 53.66 47.0867 53.9 46.94C54.14 46.7933 54.3267 46.5067 54.46 46.08C54.6067 45.6533 54.7133 45.0333 54.78 44.22C54.86 43.3933 54.9 42.3 54.9 40.94V40.82H47.36V38.76H57.3V40.34C57.3 41.94 57.26 43.28 57.18 44.36C57.1133 45.4267 56.9933 46.2933 56.82 46.96C56.6467 47.6267 56.4133 48.1267 56.12 48.46C55.84 48.7933 55.4867 49.02 55.06 49.14C54.6333 49.26 54.1267 49.32 53.54 49.32ZM66.58 49.26V47.28H71.94V45.52H67.82V43.76H71.94V42.12H67.38V40.26H79.08V42.12H74.34V43.76H78.64V45.52H74.34V47.28H79.38V49.26H66.58ZM61.52 46.88L60.42 44.56C61.2067 43.2267 61.82 41.9467 62.26 40.72C62.7 39.48 62.98 38.2667 63.1 37.08L64 38.4C63.76 40.4 63.4333 42.0733 63.02 43.42C62.6067 44.7667 62.1067 45.92 61.52 46.88ZM62.98 49.84V38.78H60.82V36.78H62.98V33.34H65.18V36.78H67.32V38.78H65.18V49.84H62.98ZM66.28 44.32C65.88 43.4133 65.46 42.5 65.02 41.58C64.5933 40.6467 64.14 39.7 63.66 38.74L64.82 37.68C65.38 38.7067 65.9067 39.68 66.4 40.6C66.9067 41.52 67.38 42.4 67.82 43.24L66.28 44.32ZM61.16 34.76L60.96 32.88C61.9733 32.7867 62.9933 32.64 64.02 32.44C65.06 32.24 66.04 32.0067 66.96 31.74L67.5 33.54C66.7 33.82 65.7533 34.0667 64.66 34.28C63.58 34.4933 62.4133 34.6533 61.16 34.76ZM67.84 39.12V32.34H78.5V39.12H70.18V37.32H76.18V34.32H70.18V39.12H67.84ZM96.86 49.66C96.38 49.66 95.88 49.48 95.36 49.12C94.84 48.76 94.3333 48.1667 93.84 47.34C93.36 46.5133 92.92 45.4067 92.52 44.02C92.1333 42.6333 91.82 40.9133 91.58 38.86C91.3533 36.8067 91.24 34.38 91.24 31.58H93.52C93.52 33.7667 93.6 35.7 93.76 37.38C93.9333 39.06 94.1467 40.5067 94.4 41.72C94.6667 42.92 94.94 43.9067 95.22 44.68C95.5133 45.44 95.78 46.0067 96.02 46.38C96.26 46.74 96.44 46.92 96.56 46.92C96.6667 46.92 96.7667 46.8333 96.86 46.66C96.9667 46.4867 97.0667 46.16 97.16 45.68C97.2667 45.2 97.3667 44.5 97.46 43.58L99.52 44.36C99.44 45.32 99.3133 46.14 99.14 46.82C98.98 47.4867 98.78 48.0267 98.54 48.44C98.3 48.8667 98.0333 49.1733 97.74 49.36C97.4467 49.56 97.1533 49.66 96.86 49.66ZM81.8 49.16L81.48 47.16C82.8667 46.9733 84.1933 46.78 85.46 46.58C86.7267 46.3667 87.8867 46.1533 88.94 45.94C90.0067 45.7133 90.9133 45.4933 91.66 45.28L92 47.18C91.24 47.4067 90.32 47.64 89.24 47.88C88.1733 48.12 87 48.3467 85.72 48.56C84.4533 48.7867 83.1467 48.9867 81.8 49.16ZM85.18 46.76V40.58H82V38.66H90.86V40.58H87.6V46.76H85.18ZM81.06 36.46V34.48H98.94V36.46H81.06ZM97.32 34.94C96.7733 34.5533 96.2067 34.18 95.62 33.82C95.0467 33.46 94.4867 33.1333 93.94 32.84L95.08 31.24C95.64 31.5333 96.2067 31.8667 96.78 32.24C97.3667 32.6 97.9267 32.9733 98.46 33.36L97.32 34.94ZM110.02 49.08C107.527 49.08 105.633 48.6933 104.34 47.92C103.047 47.1333 102.4 45.9867 102.4 44.48C102.4 43.2133 102.873 42.06 103.82 41.02C104.767 39.9667 106.24 38.9933 108.24 38.1C110.253 37.2067 112.84 36.36 116 35.56L116.56 37.7C113.88 38.38 111.673 39.0733 109.94 39.78C108.22 40.4867 106.947 41.2133 106.12 41.96C105.307 42.6933 104.9 43.48 104.9 44.32C104.9 46.0533 106.653 46.92 110.16 46.92C110.733 46.92 111.333 46.8933 111.96 46.84C112.587 46.7867 113.287 46.7133 114.06 46.62C114.847 46.5133 115.74 46.38 116.74 46.22L117.02 48.38C115.753 48.5933 114.527 48.76 113.34 48.88C112.167 49.0133 111.06 49.08 110.02 49.08ZM106.22 40.14C105.833 38.8333 105.507 37.5533 105.24 36.3C104.973 35.0333 104.76 33.78 104.6 32.54L107.02 32.18C107.193 33.42 107.413 34.66 107.68 35.9C107.947 37.1267 108.267 38.3467 108.64 39.56L106.22 40.14ZM121.82 46.56C123.793 45.6 125.58 44.52 127.18 43.32C128.793 42.1067 130.2 40.8 131.4 39.4C132.613 38 133.587 36.5267 134.32 34.98L135.04 35.54H122.86V33.36H136.68V35.54C135.92 37.2867 134.86 38.9733 133.5 40.6C132.153 42.2133 130.58 43.7 128.78 45.06C126.993 46.42 125.033 47.6 122.9 48.6L121.82 46.56ZM136.7 48.74C135.94 47.8733 135.187 47.0867 134.44 46.38C133.707 45.6733 132.947 45.0133 132.16 44.4C131.373 43.7867 130.527 43.1933 129.62 42.62L131.18 40.92C132.513 41.76 133.767 42.6867 134.94 43.7C136.113 44.7 137.253 45.8333 138.36 47.1L136.7 48.74ZM149.5 49.74L148.02 32.06L150.5 31.86L151.98 49.54L149.5 49.74ZM141.2 44.72L141.12 42.58L158.8 41.92L158.88 44.06L141.2 44.72ZM142 37.56L141.92 35.42L158 34.86L158.08 37L142 37.56ZM170.02 48.72V32.56H172.44V47.64L171.04 46.38C172.227 46.38 173.26 46.12 174.14 45.6C175.02 45.08 175.727 44.3 176.26 43.26C176.807 42.22 177.173 40.9333 177.36 39.4L179.62 39.72C179.407 41.6133 178.92 43.2333 178.16 44.58C177.413 45.9267 176.44 46.9533 175.24 47.66C174.04 48.3667 172.64 48.72 171.04 48.72H170.02ZM160.4 46.94C161.173 46.5933 161.807 46.2067 162.3 45.78C162.807 45.3533 163.2 44.8333 163.48 44.22C163.76 43.6067 163.953 42.84 164.06 41.92C164.167 41 164.22 39.86 164.22 38.5V32.56H166.6V38.66C166.6 40.2067 166.513 41.54 166.34 42.66C166.167 43.78 165.893 44.7333 165.52 45.52C165.147 46.3067 164.64 46.9733 164 47.52C163.36 48.0667 162.573 48.54 161.64 48.94L160.4 46.94ZM191.56 45.12C191.56 43.5733 191.467 42.3533 191.28 41.46C191.107 40.5533 190.807 39.9067 190.38 39.52C189.967 39.1333 189.393 38.94 188.66 38.94C188.02 38.94 187.4 39.0933 186.8 39.4C186.213 39.7067 185.62 40.2 185.02 40.88C184.433 41.5467 183.787 42.44 183.08 43.56L181.12 42.44C181.787 41.4133 182.373 40.4667 182.88 39.6C183.4 38.7333 183.867 37.8867 184.28 37.06C184.707 36.22 185.093 35.3667 185.44 34.5C185.8 33.62 186.147 32.6667 186.48 31.64L188.84 32.02C188.427 33.26 187.987 34.4067 187.52 35.46C187.053 36.5 186.54 37.5333 185.98 38.56L185.44 38.24C186.027 37.8667 186.653 37.5867 187.32 37.4C188 37.2 188.68 37.1 189.36 37.1C190.467 37.1 191.353 37.3667 192.02 37.9C192.7 38.4333 193.193 39.2933 193.5 40.48C193.807 41.6533 193.96 43.2 193.96 45.12H191.56ZM191.36 49.18C189.307 49.18 187.7 48.8667 186.54 48.24C185.38 47.6267 184.8 46.7667 184.8 45.66C184.8 44.8867 185.093 44.1267 185.68 43.38C186.267 42.62 187.113 41.9067 188.22 41.24C189.34 40.5733 190.68 39.96 192.24 39.4C193.813 38.84 195.587 38.3533 197.56 37.94L197.92 39.9C196.28 40.2467 194.8 40.64 193.48 41.08C192.173 41.52 191.047 41.9867 190.1 42.48C189.167 42.96 188.447 43.4533 187.94 43.96C187.433 44.4667 187.18 44.96 187.18 45.44C187.18 46 187.54 46.44 188.26 46.76C188.993 47.0667 190.033 47.22 191.38 47.22C192.207 47.22 193.127 47.1667 194.14 47.06C195.153 46.94 196.247 46.7733 197.42 46.56L197.74 48.56C197.06 48.68 196.34 48.7867 195.58 48.88C194.82 48.9733 194.073 49.0467 193.34 49.1C192.62 49.1533 191.96 49.18 191.36 49.18ZM181.18 35.62V33.72H197.12V35.62H181.18ZM208.64 49.7C208.32 49.7 207.9 49.6933 207.38 49.68C206.86 49.6667 206.2 49.6467 205.4 49.62L205.3 47.58C206.02 47.6067 206.64 47.6333 207.16 47.66C207.693 47.6733 208.08 47.68 208.32 47.68C208.587 47.68 208.773 47.6667 208.88 47.64C208.987 47.6133 209.047 47.5533 209.06 47.46C209.087 47.3533 209.1 47.1867 209.1 46.96V44.56H200.88V42.52H209.1V41H211.56V42.52H219.12V44.56H211.56V47.32C211.56 47.8667 211.533 48.3 211.48 48.62C211.427 48.94 211.3 49.1733 211.1 49.32C210.913 49.48 210.62 49.58 210.22 49.62C209.833 49.6733 209.307 49.7 208.64 49.7ZM204.98 35.84C204.713 35.24 204.42 34.6467 204.1 34.06C203.78 33.4733 203.467 32.92 203.16 32.4L205.24 31.6C205.573 32.12 205.893 32.6733 206.2 33.26C206.507 33.8467 206.8 34.4467 207.08 35.06L204.98 35.84ZM204.44 39.36V37.38H215.56V39.36H204.44ZM211.2 43.02L209.92 41.38C210.653 40.86 211.373 40.3133 212.08 39.74C212.8 39.1667 213.467 38.5867 214.08 38L215.56 39.36C214.907 40.04 214.227 40.6733 213.52 41.26C212.827 41.8467 212.053 42.4333 211.2 43.02ZM201.54 39.18V34.16H218.46V39.18H216.18V36.08H203.82V39.18H201.54ZM209.66 35.72C209.38 35.0933 209.087 34.4867 208.78 33.9C208.473 33.3 208.16 32.7333 207.84 32.2L209.92 31.4C210.24 31.9333 210.553 32.5 210.86 33.1C211.18 33.7 211.473 34.3133 211.74 34.94L209.66 35.72ZM214.94 35.62L212.82 35.04C213.193 34.4533 213.547 33.8667 213.88 33.28C214.227 32.68 214.533 32.1 214.8 31.54L216.94 32.08C216.673 32.6533 216.367 33.24 216.02 33.84C215.687 34.44 215.327 35.0333 214.94 35.62ZM222.96 49.18L220.88 48.42L227.36 32.14L229.56 32.78L226.08 41.38L225.34 40.9C226.007 40.3533 226.673 39.9267 227.34 39.62C228.02 39.3133 228.68 39.16 229.32 39.16C229.813 39.16 230.24 39.2667 230.6 39.48C230.96 39.68 231.267 39.98 231.52 40.38C231.773 40.7667 231.987 41.24 232.16 41.8C232.347 42.36 232.513 43 232.66 43.72C232.78 44.28 232.9 44.7667 233.02 45.18C233.153 45.5933 233.32 45.9133 233.52 46.14C233.733 46.3667 234.007 46.48 234.34 46.48C234.927 46.48 235.453 46.1 235.92 45.34C236.387 44.5667 236.827 43.3467 237.24 41.68L239.34 42.38C238.993 43.86 238.587 45.0733 238.12 46.02C237.653 46.9533 237.1 47.6467 236.46 48.1C235.82 48.5667 235.08 48.8 234.24 48.8C233.667 48.8 233.173 48.7 232.76 48.5C232.36 48.3 232.013 48.0067 231.72 47.62C231.427 47.2333 231.173 46.7667 230.96 46.22C230.76 45.66 230.587 45.0333 230.44 44.34C230.307 43.7533 230.16 43.2467 230 42.82C229.853 42.3933 229.66 42.0667 229.42 41.84C229.193 41.6133 228.887 41.5 228.5 41.5C228.247 41.5 227.953 41.5533 227.62 41.66C227.287 41.7667 226.947 41.9467 226.6 42.2C226.267 42.44 225.94 42.7733 225.62 43.2C225.3 43.6133 225.013 44.1333 224.76 44.76L222.96 49.18ZM241.54 49.04C242.1 47.24 242.607 45.4133 243.06 43.56C243.527 41.6933 243.933 39.8 244.28 37.88C244.64 35.9467 244.947 34 245.2 32.04L247.58 32.14C247.353 34.06 247.06 36 246.7 37.96C246.353 39.92 245.947 41.8667 245.48 43.8C245.013 45.72 244.493 47.6067 243.92 49.46L241.54 49.04ZM253.94 49.06C252.727 49.06 251.673 48.9133 250.78 48.62C249.887 48.34 249.193 47.9467 248.7 47.44C248.207 46.92 247.96 46.3 247.96 45.58C247.96 45.0467 248.14 44.52 248.5 44C248.86 43.48 249.413 42.94 250.16 42.38L251.96 43.66C251.453 43.98 251.073 44.28 250.82 44.56C250.58 44.8267 250.46 45.0933 250.46 45.36C250.46 45.6667 250.6 45.94 250.88 46.18C251.173 46.4067 251.58 46.5867 252.1 46.72C252.633 46.8533 253.247 46.92 253.94 46.92C254.567 46.92 255.207 46.8867 255.86 46.82C256.513 46.7533 257.193 46.6533 257.9 46.52L258.16 48.66C257.427 48.7933 256.72 48.8933 256.04 48.96C255.36 49.0267 254.66 49.06 253.94 49.06ZM241.26 36.62V34.54H253.56V36.62H241.26ZM248.74 38.88C250.313 38.7333 251.853 38.62 253.36 38.54C254.88 38.46 256.4 38.42 257.92 38.42V40.52C256.427 40.52 254.927 40.56 253.42 40.64C251.927 40.7067 250.413 40.8267 248.88 41L248.74 38.88ZM255.34 36.42C254.993 35.7 254.653 35.0533 254.32 34.48C253.987 33.8933 253.613 33.3267 253.2 32.78L254.84 31.8C255.28 32.3733 255.667 32.9667 256 33.58C256.347 34.1933 256.687 34.86 257.02 35.58L255.34 36.42ZM258.22 35.48C257.9 34.7333 257.58 34.0733 257.26 33.5C256.94 32.9133 256.58 32.3467 256.18 31.8L257.82 30.9C258.247 31.4867 258.62 32.0867 258.94 32.7C259.273 33.3133 259.593 33.9867 259.9 34.72L258.22 35.48ZM270.2 48.76C268.64 48.76 267.273 48.58 266.1 48.22C264.94 47.8733 264.04 47.3867 263.4 46.76C262.773 46.12 262.46 45.3667 262.46 44.5C262.46 43.78 262.687 43.0133 263.14 42.2C263.607 41.3733 264.313 40.46 265.26 39.46L267.32 40.54C266.547 41.3133 265.96 42.0133 265.56 42.64C265.16 43.2667 264.96 43.8067 264.96 44.26C264.96 44.7267 265.173 45.14 265.6 45.5C266.04 45.86 266.653 46.14 267.44 46.34C268.227 46.5267 269.147 46.62 270.2 46.62C270.867 46.62 271.6 46.58 272.4 46.5C273.2 46.42 273.987 46.3133 274.76 46.18C275.547 46.0333 276.233 45.8733 276.82 45.7L277.3 47.84C276.713 48.0133 276.007 48.1667 275.18 48.3C274.367 48.4467 273.52 48.56 272.64 48.64C271.773 48.72 270.96 48.76 270.2 48.76ZM263.46 35.58V33.44H276.74V35.58H263.46ZM50.02 79.08C47.5267 79.08 45.6333 78.6933 44.34 77.92C43.0467 77.1333 42.4 75.9867 42.4 74.48C42.4 73.2133 42.8733 72.06 43.82 71.02C44.7667 69.9667 46.24 68.9933 48.24 68.1C50.2533 67.2067 52.84 66.36 56 65.56L56.56 67.7C53.88 68.38 51.6733 69.0733 49.94 69.78C48.22 70.4867 46.9467 71.2133 46.12 71.96C45.3067 72.6933 44.9 73.48 44.9 74.32C44.9 76.0533 46.6533 76.92 50.16 76.92C50.7333 76.92 51.3333 76.8933 51.96 76.84C52.5867 76.7867 53.2867 76.7133 54.06 76.62C54.8467 76.5133 55.74 76.38 56.74 76.22L57.02 78.38C55.7533 78.5933 54.5267 78.76 53.34 78.88C52.1667 79.0133 51.06 79.08 50.02 79.08ZM46.22 70.14C45.8333 68.8333 45.5067 67.5533 45.24 66.3C44.9733 65.0333 44.76 63.78 44.6 62.54L47.02 62.18C47.1933 63.42 47.4133 64.66 47.68 65.9C47.9467 67.1267 48.2667 68.3467 48.64 69.56L46.22 70.14ZM73.04 78.94C71.4267 78.94 70.02 78.6533 68.82 78.08C67.6333 77.52 66.7133 76.7267 66.06 75.7C65.4067 74.66 65.08 73.44 65.08 72.04C65.08 70.9467 65.2733 69.9333 65.66 69C66.06 68.0667 66.62 67.2533 67.34 66.56C68.0733 65.8533 68.94 65.3133 69.94 64.94L70.14 65.56L60.62 65.78V63.64L77.48 63.24V65.38L74.94 65.44C73.8733 65.4667 72.8867 65.64 71.98 65.96C71.0867 66.2667 70.3133 66.7 69.66 67.26C69.02 67.82 68.52 68.4867 68.16 69.26C67.8 70.02 67.62 70.8667 67.62 71.8C67.62 72.8133 67.84 73.6933 68.28 74.44C68.72 75.1733 69.34 75.74 70.14 76.14C70.9533 76.54 71.9267 76.74 73.06 76.74C73.3 76.74 73.5667 76.7333 73.86 76.72C74.1667 76.6933 74.4733 76.6667 74.78 76.64C75.1 76.6 75.38 76.56 75.62 76.52L75.88 78.72C75.6 78.76 75.2933 78.7933 74.96 78.82C74.6267 78.86 74.2933 78.8867 73.96 78.9C73.6267 78.9267 73.32 78.94 73.04 78.94ZM75.08 72.7C74.7733 72.02 74.44 71.3733 74.08 70.76C73.7333 70.1333 73.3333 69.4933 72.88 68.84L74.62 67.88C75.0733 68.5333 75.48 69.18 75.84 69.82C76.2 70.4467 76.54 71.1133 76.86 71.82L75.08 72.7ZM78.12 71.56C77.8267 70.8667 77.5067 70.2133 77.16 69.6C76.8267 68.9733 76.44 68.3333 76 67.68L77.74 66.76C78.18 67.4267 78.5733 68.08 78.92 68.72C79.28 69.36 79.6067 70.04 79.9 70.76L78.12 71.56ZM85.5 79.58C84.8867 78.7667 84.2267 78.0067 83.52 77.3C82.8133 76.58 82.0467 75.9133 81.22 75.3L82.86 73.66C83.6867 74.3 84.4733 75 85.22 75.76C85.9667 76.5067 86.66 77.3133 87.3 78.18L85.5 79.58ZM102.22 79.64V63.8H117.78V79.64H115.38V78.66H104.62V76.74H115.38V74.28H104.62V72.44H115.38V70.02H104.62V68.16H115.38V65.78H104.62V79.64H102.22ZM109.92 65.22L107.48 64.9C107.733 64.3267 107.96 63.7333 108.16 63.12C108.373 62.4933 108.56 61.8333 108.72 61.14L111.18 61.44C111.007 62.1333 110.813 62.7933 110.6 63.42C110.4 64.0467 110.173 64.6467 109.92 65.22ZM132.72 79.58C132.4 79.58 131.96 79.5667 131.4 79.54C130.853 79.5133 130.193 79.4733 129.42 79.42L129.38 77.32C130.007 77.36 130.587 77.3933 131.12 77.42C131.667 77.4467 132.093 77.46 132.4 77.46C132.6 77.46 132.78 77.42 132.94 77.34C133.1 77.26 133.24 77.1067 133.36 76.88C133.48 76.6533 133.573 76.32 133.64 75.88C133.72 75.44 133.78 74.86 133.82 74.14C133.86 73.42 133.88 72.52 133.88 71.44V70.1H124.14V68.06H136.26V70.4C136.26 72.08 136.227 73.4733 136.16 74.58C136.107 75.6867 136 76.58 135.84 77.26C135.693 77.9267 135.487 78.4267 135.22 78.76C134.953 79.0933 134.613 79.3133 134.2 79.42C133.8 79.5267 133.307 79.58 132.72 79.58ZM123.24 79.94L121.76 78.06C122.587 77.62 123.3 77.1333 123.9 76.6C124.513 76.0533 125.02 75.4333 125.42 74.74C125.82 74.0333 126.127 73.22 126.34 72.3C126.567 71.38 126.713 70.3267 126.78 69.14L129.12 69.24C129.053 70.6267 128.887 71.86 128.62 72.94C128.367 74.02 128 74.9867 127.52 75.84C127.053 76.68 126.467 77.4333 125.76 78.1C125.053 78.7667 124.213 79.38 123.24 79.94ZM122.08 71.04L120.42 69.36C121.607 68.3333 122.673 67.2133 123.62 66C124.567 64.7733 125.393 63.4533 126.1 62.04L128.26 62.8C127.54 64.36 126.66 65.8267 125.62 67.2C124.593 68.5733 123.413 69.8533 122.08 71.04ZM137.92 71.04C136.6 69.8533 135.42 68.5733 134.38 67.2C133.34 65.8267 132.46 64.36 131.74 62.8L133.9 62.04C134.607 63.4533 135.433 64.7733 136.38 66C137.327 67.2133 138.393 68.3333 139.58 69.36L137.92 71.04ZM153.04 78.94C151.427 78.94 150.02 78.6533 148.82 78.08C147.633 77.52 146.713 76.7267 146.06 75.7C145.407 74.66 145.08 73.44 145.08 72.04C145.08 70.9467 145.273 69.9333 145.66 69C146.06 68.0667 146.62 67.2533 147.34 66.56C148.073 65.8533 148.94 65.3133 149.94 64.94L150.14 65.56L140.62 65.78V63.64L157.48 63.24V65.38L154.94 65.44C153.873 65.4667 152.887 65.64 151.98 65.96C151.087 66.2667 150.313 66.7 149.66 67.26C149.02 67.82 148.52 68.4867 148.16 69.26C147.8 70.02 147.62 70.8667 147.62 71.8C147.62 72.8133 147.84 73.6933 148.28 74.44C148.72 75.1733 149.34 75.74 150.14 76.14C150.953 76.54 151.927 76.74 153.06 76.74C153.3 76.74 153.567 76.7333 153.86 76.72C154.167 76.6933 154.473 76.6667 154.78 76.64C155.1 76.6 155.38 76.56 155.62 76.52L155.88 78.72C155.6 78.76 155.293 78.7933 154.96 78.82C154.627 78.86 154.293 78.8867 153.96 78.9C153.627 78.9267 153.32 78.94 153.04 78.94ZM155.08 72.7C154.773 72.02 154.44 71.3733 154.08 70.76C153.733 70.1333 153.333 69.4933 152.88 68.84L154.62 67.88C155.073 68.5333 155.48 69.18 155.84 69.82C156.2 70.4467 156.54 71.1133 156.86 71.82L155.08 72.7ZM158.12 71.56C157.827 70.8667 157.507 70.2133 157.16 69.6C156.827 68.9733 156.44 68.3333 156 67.68L157.74 66.76C158.18 67.4267 158.573 68.08 158.92 68.72C159.28 69.36 159.607 70.04 159.9 70.76L158.12 71.56ZM161.46 73.1L160.68 71.06C163.04 70.4333 165.233 69.66 167.26 68.74C169.287 67.82 171.107 66.78 172.72 65.62C174.333 64.46 175.687 63.2333 176.78 61.94L178.58 63.18C177.407 64.54 175.967 65.84 174.26 67.08C172.567 68.3067 170.64 69.4333 168.48 70.46C166.333 71.4867 163.993 72.3667 161.46 73.1ZM165.2 77.24L162.8 76.9C162.987 76.34 163.167 75.72 163.34 75.04C163.513 74.36 163.673 73.6733 163.82 72.98C163.98 72.2867 164.107 71.64 164.2 71.04L166.6 71.08C166.507 71.7333 166.387 72.42 166.24 73.14C166.093 73.86 165.933 74.5733 165.76 75.28C165.587 75.9733 165.4 76.6267 165.2 77.24ZM173.98 79.64C173.687 79.64 173.273 79.6333 172.74 79.62C172.207 79.6067 171.627 79.5867 171 79.56C170.387 79.5333 169.8 79.5067 169.24 79.48L169.12 77.46C169.627 77.4733 170.147 77.4933 170.68 77.52C171.227 77.5333 171.72 77.5467 172.16 77.56C172.613 77.5733 172.953 77.58 173.18 77.58C173.393 77.58 173.567 77.5667 173.7 77.54C173.847 77.5 173.96 77.4067 174.04 77.26C174.133 77.1 174.213 76.84 174.28 76.48C174.347 76.12 174.42 75.6333 174.5 75.02H165.54V73.12H177.28C177.147 74.6267 177 75.82 176.84 76.7C176.693 77.5667 176.5 78.2067 176.26 78.62C176.033 79.0467 175.733 79.32 175.36 79.44C175 79.5733 174.54 79.64 173.98 79.64ZM166.06 72.4L165.8 70.62C168.373 70.4867 170.707 70.3 172.8 70.06C174.907 69.82 176.647 69.5533 178.02 69.26L178.48 71.1C177.08 71.38 175.307 71.6333 173.16 71.86C171.027 72.0867 168.66 72.2667 166.06 72.4ZM160.76 68.6V66.68H167.7V64.74H162.54V62.92H167.7V61.46H170.16V62.92H174.62V64.74H170.16V66.68H179.24V68.6H160.76ZM183.26 79.1L181.82 77.34L193.24 68.38L193.28 69.02H182.62V66.94H195.8V69.02L190.54 73.26L189.42 73.16C189.473 72.72 189.64 72.3933 189.92 72.18C190.2 71.9533 190.573 71.84 191.04 71.84C191.68 71.84 192.153 71.9667 192.46 72.22C192.767 72.46 192.98 72.7733 193.1 73.16C193.233 73.5467 193.34 73.94 193.42 74.34C193.487 74.7267 193.573 75.1 193.68 75.46C193.8 75.8067 193.993 76.0933 194.26 76.32C194.527 76.5333 194.927 76.64 195.46 76.64C195.687 76.64 195.987 76.6267 196.36 76.6C196.747 76.56 197.14 76.5133 197.54 76.46C197.953 76.3933 198.313 76.3267 198.62 76.26L198.84 78.34C198.453 78.4467 198.04 78.5333 197.6 78.6C197.16 78.6667 196.733 78.7133 196.32 78.74C195.92 78.78 195.567 78.8 195.26 78.8C194.46 78.8 193.813 78.6933 193.32 78.48C192.84 78.28 192.467 78.0133 192.2 77.68C191.933 77.3467 191.74 76.9867 191.62 76.6C191.5 76.2133 191.4 75.8533 191.32 75.52C191.253 75.1867 191.18 74.9 191.1 74.66C191.02 74.42 190.907 74.2333 190.76 74.1C190.627 73.9533 190.42 73.88 190.14 73.88C190.033 73.88 189.92 73.9067 189.8 73.96C189.68 74 189.527 74.0867 189.34 74.22C189.167 74.34 188.92 74.5333 188.6 74.8L183.26 79.1ZM195.34 65.1C194.353 65.1 193.247 65.0733 192.02 65.02C190.793 64.9667 189.52 64.8933 188.2 64.8C186.893 64.7067 185.6 64.6 184.32 64.48L184.58 62.34C185.887 62.4733 187.173 62.5933 188.44 62.7C189.707 62.8067 190.927 62.8867 192.1 62.94C193.273 62.9933 194.353 63.02 195.34 63.02V65.1ZM213.84 78.74C212.227 78.74 210.82 78.4667 209.62 77.92C208.433 77.3733 207.513 76.6 206.86 75.6C206.207 74.5867 205.88 73.4 205.88 72.04C205.88 70.9733 206.073 69.9933 206.46 69.1C206.86 68.1933 207.42 67.4 208.14 66.72C208.873 66.0267 209.74 65.5 210.74 65.14L210.94 65.76L201.42 65.98V63.84L218.28 63.44V65.58L215.74 65.64C214.7 65.6667 213.733 65.8267 212.84 66.12C211.96 66.4133 211.187 66.8333 210.52 67.38C209.853 67.9267 209.333 68.5733 208.96 69.32C208.6 70.0533 208.42 70.88 208.42 71.8C208.42 72.7867 208.64 73.64 209.08 74.36C209.52 75.0667 210.14 75.6067 210.94 75.98C211.753 76.3533 212.727 76.54 213.86 76.54C214.233 76.54 214.66 76.52 215.14 76.48C215.633 76.44 216.06 76.3867 216.42 76.32L216.68 78.52C216.253 78.5867 215.78 78.64 215.26 78.68C214.753 78.72 214.28 78.74 213.84 78.74ZM223.56 79.84V70.06H220.78V68.14H223.58V61.76H225.74V68.14H228.24V70.06H225.76V79.84H223.56ZM221.44 77.72L220.34 75.48C221.153 74.4 221.82 73.3 222.34 72.18C222.873 71.06 223.28 69.88 223.56 68.64L224.62 69.22C224.487 70.3133 224.273 71.38 223.98 72.42C223.687 73.4467 223.32 74.4133 222.88 75.32C222.453 76.2133 221.973 77.0133 221.44 77.72ZM227.02 75.44C226.567 74.4133 226.107 73.3933 225.64 72.38C225.187 71.3533 224.713 70.3067 224.22 69.24L225.64 68.52C226.133 69.4533 226.62 70.3933 227.1 71.34C227.58 72.2733 228.053 73.22 228.52 74.18L227.02 75.44ZM221.72 67.72C221.547 66.9333 221.36 66.14 221.16 65.34C220.973 64.54 220.787 63.8067 220.6 63.14L222.42 62.66C222.607 63.3267 222.793 64.06 222.98 64.86C223.167 65.6467 223.327 66.44 223.46 67.24L221.72 67.72ZM227.98 76.94L227.78 74.9L239.46 72.72L239.66 74.76L227.98 76.94ZM232.44 73.02C231.867 72.38 231.247 71.72 230.58 71.04C229.913 70.3467 229.207 69.6533 228.46 68.96L230.04 67.46C230.787 68.14 231.5 68.82 232.18 69.5C232.86 70.18 233.48 70.84 234.04 71.48L232.44 73.02ZM227.58 67.74L225.82 67.18C226.06 66.46 226.273 65.6933 226.46 64.88C226.66 64.0533 226.813 63.28 226.92 62.56L228.8 62.84C228.667 63.6133 228.493 64.4333 228.28 65.3C228.067 66.1533 227.833 66.9667 227.58 67.74ZM235.4 79.84V61.76H237.74V79.84H235.4ZM233.54 67.94C233.007 67.34 232.44 66.7333 231.84 66.12C231.253 65.5067 230.62 64.8867 229.94 64.26L231.54 62.78C232.22 63.3933 232.86 64.0067 233.46 64.62C234.06 65.22 234.627 65.8133 235.16 66.4L233.54 67.94ZM245.86 79.26V77.32H251.68V75.32H247.04V73.5H251.68V67.72H249.3V66.08H251.68V64.02H254.06V66.08H256.44V64.02H249.3V71.66H247.1V62.14H258.64V71.66H249.3V69.88H256.44V67.72H254.06V73.5H258.94V75.32H254.06V77.32H259.22V79.26H245.86ZM240.88 78.06L240.66 76.02C241.26 75.8733 241.887 75.7133 242.54 75.54C243.207 75.3533 243.867 75.1533 244.52 74.94C245.187 74.7133 245.833 74.4867 246.46 74.26L246.52 76.24C245.92 76.48 245.293 76.7133 244.64 76.94C243.987 77.1667 243.34 77.3733 242.7 77.56C242.06 77.7467 241.453 77.9133 240.88 78.06ZM242.46 75.96V70.62H240.96V68.56H242.46V64.86H240.76V62.76H246.48V64.86H244.74V68.56H246.36V70.62H244.74V75.96H242.46ZM273.04 78.94C271.427 78.94 270.02 78.6533 268.82 78.08C267.633 77.52 266.713 76.7267 266.06 75.7C265.407 74.66 265.08 73.44 265.08 72.04C265.08 70.9467 265.273 69.9333 265.66 69C266.06 68.0667 266.62 67.2533 267.34 66.56C268.073 65.8533 268.94 65.3133 269.94 64.94L270.14 65.56L260.62 65.78V63.64L277.48 63.24V65.38L274.94 65.44C273.873 65.4667 272.887 65.64 271.98 65.96C271.087 66.2667 270.313 66.7 269.66 67.26C269.02 67.82 268.52 68.4867 268.16 69.26C267.8 70.02 267.62 70.8667 267.62 71.8C267.62 72.8133 267.84 73.6933 268.28 74.44C268.72 75.1733 269.34 75.74 270.14 76.14C270.953 76.54 271.927 76.74 273.06 76.74C273.3 76.74 273.567 76.7333 273.86 76.72C274.167 76.6933 274.473 76.6667 274.78 76.64C275.1 76.6 275.38 76.56 275.62 76.52L275.88 78.72C275.6 78.76 275.293 78.7933 274.96 78.82C274.627 78.86 274.293 78.8867 273.96 78.9C273.627 78.9267 273.32 78.94 273.04 78.94ZM275.08 72.7C274.773 72.02 274.44 71.3733 274.08 70.76C273.733 70.1333 273.333 69.4933 272.88 68.84L274.62 67.88C275.073 68.5333 275.48 69.18 275.84 69.82C276.2 70.4467 276.54 71.1133 276.86 71.82L275.08 72.7ZM278.12 71.56C277.827 70.8667 277.507 70.2133 277.16 69.6C276.827 68.9733 276.44 68.3333 276 67.68L277.74 66.76C278.18 67.4267 278.573 68.08 278.92 68.72C279.28 69.36 279.607 70.04 279.9 70.76L278.12 71.56ZM50.92 109.06C49.2933 109.06 47.88 108.9 46.68 108.58C45.4933 108.26 44.58 107.813 43.94 107.24C43.3 106.653 42.98 105.96 42.98 105.16C42.98 104.467 43.2133 103.82 43.68 103.22C44.1467 102.62 44.8 102.127 45.64 101.74L47.22 103.14C46.62 103.433 46.1867 103.727 45.92 104.02C45.6533 104.3 45.5267 104.613 45.54 104.96C45.5533 105.4 45.76 105.773 46.16 106.08C46.56 106.373 47.1467 106.6 47.92 106.76C48.7067 106.92 49.6533 107 50.76 107C51.7333 107 52.7533 106.933 53.82 106.8C54.9 106.667 55.9067 106.493 56.84 106.28L57.18 108.36C56.22 108.587 55.2 108.76 54.12 108.88C53.04 109 51.9733 109.06 50.92 109.06ZM42.06 100.68V98.72L57.94 98.32V100.28L42.06 100.68ZM52.86 104.82C52.42 103.793 52.0267 102.753 51.68 101.7C51.3333 100.647 51.0333 99.5867 50.78 98.52C50.54 97.44 50.34 96.34 50.18 95.22C50.02 94.0867 49.9067 92.9333 49.84 91.76L52.22 91.62C52.2867 92.7533 52.3933 93.8533 52.54 94.92C52.7 95.9867 52.9 97.0333 53.14 98.06C53.38 99.0867 53.6733 100.12 54.02 101.16C54.38 102.187 54.7933 103.227 55.26 104.28L52.86 104.82ZM42.26 96.26V94.3L57.74 93.9V95.86L42.26 96.26ZM69.54 109.26C67.5667 109.26 66.0333 108.94 64.94 108.3C63.86 107.66 63.32 106.76 63.32 105.6C63.32 104.613 63.7267 103.847 64.54 103.3C65.3667 102.74 66.5 102.46 67.94 102.46C69.3 102.46 70.32 102.713 71 103.22C71.68 103.713 72.02 104.46 72.02 105.46C72.02 105.82 71.9667 106.207 71.86 106.62C71.7667 107.033 71.6267 107.46 71.44 107.9L69.24 107.66C69.4267 107.207 69.56 106.82 69.64 106.5C69.7333 106.18 69.78 105.9 69.78 105.66C69.78 104.753 69.1133 104.3 67.78 104.3C67.1 104.3 66.5667 104.413 66.18 104.64C65.8067 104.853 65.62 105.167 65.62 105.58C65.62 106.14 65.9467 106.587 66.6 106.92C67.2533 107.24 68.14 107.4 69.26 107.4C71.4067 107.4 73 107.087 74.04 106.46C75.0933 105.82 75.62 104.847 75.62 103.54C75.62 102.433 75.2067 101.62 74.38 101.1C73.5667 100.58 72.2667 100.32 70.48 100.32C69.4533 100.32 68.5467 100.413 67.76 100.6C66.9733 100.773 66.2467 101.047 65.58 101.42L62.94 102.94L61.98 101.1L73.34 94.78V95.16H63.16V93.14H76.84V95.16L67.08 100.54L65.84 99.52C66.2533 99.3733 66.7133 99.24 67.22 99.12C67.74 98.9867 68.2667 98.88 68.8 98.8C69.3467 98.7067 69.8733 98.6333 70.38 98.58C70.8867 98.5133 71.3467 98.48 71.76 98.48C73.7867 98.48 75.34 98.9067 76.42 99.76C77.5 100.613 78.04 101.827 78.04 103.4C78.04 105.28 77.3 106.727 75.82 107.74C74.3533 108.753 72.26 109.26 69.54 109.26ZM86.06 109.06C84.46 109.06 83.2267 108.72 82.36 108.04C81.4933 107.373 81.06 106.413 81.06 105.16C81.06 103.893 81.4867 102.933 82.34 102.28C83.1933 101.613 84.4333 101.28 86.06 101.28C86.94 101.28 87.8133 101.38 88.68 101.58C89.56 101.767 90.48 102.073 91.44 102.5C92.4 102.927 93.4333 103.487 94.54 104.18C95.66 104.86 96.8933 105.693 98.24 106.68L96.8 108.34C95.2533 107.153 93.8533 106.193 92.6 105.46C91.36 104.713 90.2067 104.167 89.14 103.82C88.0733 103.473 87.0467 103.3 86.06 103.3C85.14 103.3 84.4533 103.453 84 103.76C83.5467 104.053 83.32 104.52 83.32 105.16C83.32 106.413 84.1933 107.04 85.94 107.04C86.9267 107.04 87.6467 106.84 88.1 106.44C88.5533 106.027 88.78 105.387 88.78 104.52V91.88H91.16V95.1H98.24V97.12H91.16V104.52C91.16 106.067 90.7467 107.213 89.92 107.96C89.0933 108.693 87.8067 109.06 86.06 109.06ZM104.78 106.92C106.407 106.853 107.867 106.693 109.16 106.44C110.453 106.173 111.56 105.827 112.48 105.4C113.4 104.973 114.1 104.487 114.58 103.94C115.06 103.38 115.3 102.76 115.3 102.08C115.3 101.32 114.96 100.753 114.28 100.38C113.613 99.9933 112.587 99.8 111.2 99.8C110.52 99.8 109.767 99.8467 108.94 99.94C108.113 100.02 107.16 100.16 106.08 100.36C105 100.56 103.727 100.82 102.26 101.14L101.68 98.94C103.627 98.5 105.4 98.1733 107 97.96C108.6 97.7333 110.013 97.62 111.24 97.62C113.44 97.62 115.093 97.98 116.2 98.7C117.307 99.42 117.86 100.493 117.86 101.92C117.86 102.973 117.567 103.933 116.98 104.8C116.407 105.653 115.573 106.393 114.48 107.02C113.387 107.647 112.067 108.14 110.52 108.5C108.987 108.86 107.253 109.073 105.32 109.14L104.78 106.92ZM114.86 95.32C113.94 95.32 112.9 95.3 111.74 95.26C110.593 95.2067 109.4 95.1333 108.16 95.04C106.933 94.9333 105.74 94.82 104.58 94.7L104.88 92.38C105.867 92.5133 106.94 92.6333 108.1 92.74C109.26 92.8467 110.427 92.9267 111.6 92.98C112.773 93.0333 113.86 93.06 114.86 93.06V95.32ZM133.24 108.22C132.04 108.22 130.967 108.053 130.02 107.72C129.087 107.387 128.353 106.927 127.82 106.34C127.3 105.74 127.04 105.06 127.04 104.3C127.04 102.94 127.927 101.54 129.7 100.1L131.42 101.4C130.713 101.973 130.193 102.473 129.86 102.9C129.54 103.327 129.38 103.733 129.38 104.12C129.38 104.52 129.54 104.867 129.86 105.16C130.18 105.453 130.627 105.68 131.2 105.84C131.773 106 132.453 106.08 133.24 106.08C133.907 106.08 134.653 106.033 135.48 105.94C136.32 105.833 137.167 105.693 138.02 105.52L138.34 107.62C137.473 107.807 136.6 107.953 135.72 108.06C134.853 108.167 134.027 108.22 133.24 108.22ZM127.96 96.12V93.96H138.22V96.12H127.96ZM123.14 109.1C122.793 107.727 122.54 106.373 122.38 105.04C122.22 103.707 122.14 102.293 122.14 100.8C122.14 99.32 122.22 97.92 122.38 96.6C122.54 95.2667 122.793 93.9133 123.14 92.54L125.52 92.84C125.2 94.1333 124.96 95.4333 124.8 96.74C124.653 98.0333 124.58 99.3867 124.58 100.8C124.58 102.213 124.653 103.573 124.8 104.88C124.96 106.187 125.2 107.473 125.52 108.74L123.14 109.1ZM144.54 109.74C143.847 109.74 143.233 109.593 142.7 109.3C142.18 109.007 141.773 108.6 141.48 108.08C141.2 107.56 141.06 106.947 141.06 106.24C141.06 105.547 141.2 104.94 141.48 104.42C141.773 103.887 142.18 103.48 142.7 103.2C143.233 102.907 143.847 102.76 144.54 102.76C145.247 102.76 145.86 102.907 146.38 103.2C146.9 103.48 147.307 103.887 147.6 104.42C147.893 104.94 148.04 105.547 148.04 106.24C148.04 106.947 147.893 107.56 147.6 108.08C147.307 108.6 146.9 109.007 146.38 109.3C145.86 109.593 145.247 109.74 144.54 109.74ZM144.56 107.86C145.04 107.86 145.427 107.713 145.72 107.42C146.013 107.127 146.16 106.733 146.16 106.24C146.16 105.76 146.013 105.373 145.72 105.08C145.427 104.787 145.04 104.64 144.56 104.64C144.067 104.64 143.673 104.787 143.38 105.08C143.087 105.373 142.94 105.76 142.94 106.24C142.94 106.733 143.087 107.127 143.38 107.42C143.673 107.713 144.067 107.86 144.56 107.86ZM163.56 109.84V100.06H160.78V98.14H163.58V91.76H165.74V98.14H168.24V100.06H165.76V109.84H163.56ZM161.44 107.72L160.34 105.48C161.153 104.4 161.82 103.3 162.34 102.18C162.873 101.06 163.28 99.88 163.56 98.64L164.62 99.22C164.487 100.313 164.273 101.38 163.98 102.42C163.687 103.447 163.32 104.413 162.88 105.32C162.453 106.213 161.973 107.013 161.44 107.72ZM167.02 105.44C166.567 104.413 166.107 103.393 165.64 102.38C165.187 101.353 164.713 100.307 164.22 99.24L165.64 98.52C166.133 99.4533 166.62 100.393 167.1 101.34C167.58 102.273 168.053 103.22 168.52 104.18L167.02 105.44ZM161.72 97.72C161.547 96.9333 161.36 96.14 161.16 95.34C160.973 94.54 160.787 93.8067 160.6 93.14L162.42 92.66C162.607 93.3267 162.793 94.06 162.98 94.86C163.167 95.6467 163.327 96.44 163.46 97.24L161.72 97.72ZM167.98 106.94L167.78 104.9L179.46 102.72L179.66 104.76L167.98 106.94ZM172.44 103.02C171.867 102.38 171.247 101.72 170.58 101.04C169.913 100.347 169.207 99.6533 168.46 98.96L170.04 97.46C170.787 98.14 171.5 98.82 172.18 99.5C172.86 100.18 173.48 100.84 174.04 101.48L172.44 103.02ZM167.58 97.74L165.82 97.18C166.06 96.46 166.273 95.6933 166.46 94.88C166.66 94.0533 166.813 93.28 166.92 92.56L168.8 92.84C168.667 93.6133 168.493 94.4333 168.28 95.3C168.067 96.1533 167.833 96.9667 167.58 97.74ZM175.4 109.84V91.76H177.74V109.84H175.4ZM173.54 97.94C173.007 97.34 172.44 96.7333 171.84 96.12C171.253 95.5067 170.62 94.8867 169.94 94.26L171.54 92.78C172.22 93.3933 172.86 94.0067 173.46 94.62C174.06 95.22 174.627 95.8133 175.16 96.4L173.54 97.94ZM185.86 109.26V107.32H191.68V105.32H187.04V103.5H191.68V97.72H189.3V96.08H191.68V94.02H194.06V96.08H196.44V94.02H189.3V101.66H187.1V92.14H198.64V101.66H189.3V99.88H196.44V97.72H194.06V103.5H198.94V105.32H194.06V107.32H199.22V109.26H185.86ZM180.88 108.06L180.66 106.02C181.26 105.873 181.887 105.713 182.54 105.54C183.207 105.353 183.867 105.153 184.52 104.94C185.187 104.713 185.833 104.487 186.46 104.26L186.52 106.24C185.92 106.48 185.293 106.713 184.64 106.94C183.987 107.167 183.34 107.373 182.7 107.56C182.06 107.747 181.453 107.913 180.88 108.06ZM182.46 105.96V100.62H180.96V98.56H182.46V94.86H180.76V92.76H186.48V94.86H184.74V98.56H186.36V100.62H184.74V105.96H182.46ZM211.7 106.54C212.407 106.46 213.053 106.26 213.64 105.94C214.24 105.607 214.753 105.187 215.18 104.68C215.62 104.16 215.96 103.567 216.2 102.9C216.44 102.233 216.56 101.513 216.56 100.74C216.56 99.6467 216.307 98.6933 215.8 97.88C215.293 97.0533 214.587 96.42 213.68 95.98C212.787 95.54 211.747 95.32 210.56 95.32C209.547 95.32 208.607 95.4867 207.74 95.82C206.873 96.1533 206.107 96.62 205.44 97.22C204.787 97.8067 204.273 98.5 203.9 99.3C203.527 100.087 203.34 100.933 203.34 101.84C203.34 102.493 203.447 103.12 203.66 103.72C203.873 104.32 204.14 104.813 204.46 105.2C204.793 105.573 205.14 105.76 205.5 105.76C206.02 105.76 206.52 105.287 207 104.34C207.48 103.393 207.913 102.033 208.3 100.26C208.7 98.4733 209.033 96.3333 209.3 93.84L211.62 94.08C211.327 96.56 210.993 98.6867 210.62 100.46C210.247 102.233 209.82 103.687 209.34 104.82C208.86 105.953 208.313 106.793 207.7 107.34C207.087 107.873 206.393 108.14 205.62 108.14C204.98 108.14 204.387 107.98 203.84 107.66C203.293 107.34 202.82 106.893 202.42 106.32C202.02 105.747 201.707 105.08 201.48 104.32C201.253 103.547 201.14 102.72 201.14 101.84C201.14 100.587 201.373 99.4333 201.84 98.38C202.307 97.3133 202.96 96.3933 203.8 95.62C204.64 94.8467 205.633 94.2467 206.78 93.82C207.94 93.38 209.207 93.16 210.58 93.16C212.193 93.16 213.62 93.4667 214.86 94.08C216.113 94.6933 217.093 95.5667 217.8 96.7C218.507 97.8333 218.86 99.18 218.86 100.74C218.86 101.793 218.7 102.773 218.38 103.68C218.073 104.587 217.633 105.393 217.06 106.1C216.487 106.793 215.8 107.36 215 107.8C214.2 108.24 213.313 108.52 212.34 108.64L211.7 106.54ZM221.36 109.32V107.32H228.78V104H223.16V102.06H228.78V99.32H224.14V97.38H235.92V99.32H231.22V102.06H236.84V104H231.22V107.32H238.64V109.32H221.36ZM221.46 99.38L220.48 97.4C221.533 96.8267 222.513 96.2533 223.42 95.68C224.327 95.1067 225.193 94.5 226.02 93.86C226.86 93.2067 227.687 92.5067 228.5 91.76H231.5C232.313 92.5067 233.133 93.2067 233.96 93.86C234.8 94.5 235.673 95.1067 236.58 95.68C237.487 96.2533 238.467 96.8267 239.52 97.4L238.54 99.38C236.94 98.5267 235.427 97.6 234 96.6C232.587 95.6 231.253 94.5 230 93.3C228.747 94.5 227.407 95.6 225.98 96.6C224.567 97.6 223.06 98.5267 221.46 99.38ZM251.18 109.84V106.52H247.68V104.6H251.18V97H245.64V95H251.18V91.76H253.52V95H259.36V97H253.52V104.6H256.86V106.52H253.52V109.84H251.18ZM242.38 109.84V96.84H244.66V109.84H242.38ZM241 103.18L240.2 100.42C240.787 99.62 241.3 98.78 241.74 97.9C242.193 97.0067 242.587 96.0533 242.92 95.04C243.267 94.0133 243.553 92.8933 243.78 91.68L246.02 92.08C245.807 93.3867 245.507 94.62 245.12 95.78C244.747 96.9267 244.32 97.9667 243.84 98.9L243.72 98.44C243.587 98.8267 243.413 99.24 243.2 99.68C242.987 100.107 242.753 100.54 242.5 100.98C242.26 101.407 242.007 101.813 241.74 102.2C241.487 102.573 241.24 102.9 241 103.18ZM245.94 107.34L244.34 105.52C245.713 104.053 246.893 102.567 247.88 101.06C248.88 99.54 249.68 98.0067 250.28 96.46L251.86 97.3C251.433 98.5267 250.933 99.7067 250.36 100.84C249.787 101.96 249.133 103.06 248.4 104.14C247.68 105.207 246.86 106.273 245.94 107.34ZM258.48 107.34C257.627 106.26 256.847 105.18 256.14 104.1C255.447 103.02 254.827 101.913 254.28 100.78C253.733 99.6333 253.253 98.4467 252.84 97.22L254.48 96.42C255.027 97.9 255.74 99.36 256.62 100.8C257.513 102.227 258.573 103.647 259.8 105.06L258.48 107.34ZM278.62 109.46C277.74 108.793 276.913 107.953 276.14 106.94C275.367 105.913 274.68 104.78 274.08 103.54C273.493 102.287 273.047 101 272.74 99.68L274.7 99.08C274.9 100.16 275.233 101.22 275.7 102.26C276.18 103.287 276.767 104.247 277.46 105.14C278.153 106.033 278.927 106.82 279.78 107.5L278.62 109.46ZM261.94 109.84V97.42H264.14V109.84H261.94ZM265 109.62L264.24 107.76C265.947 107.213 267.46 106.593 268.78 105.9C270.113 105.207 271.213 104.473 272.08 103.7L272.9 105.02C272.02 105.913 270.907 106.753 269.56 107.54C268.227 108.313 266.707 109.007 265 109.62ZM265.08 106.32L264.4 104.56C265.96 104.093 267.327 103.567 268.5 102.98C269.687 102.38 270.673 101.747 271.46 101.08L272.32 102.34C271.493 103.087 270.48 103.8 269.28 104.48C268.08 105.147 266.68 105.76 265.08 106.32ZM260.8 103.24L260.16 100.36C260.693 99.6 261.167 98.8 261.58 97.96C262.007 97.1067 262.387 96.1667 262.72 95.14C263.067 94.1133 263.367 92.9733 263.62 91.72L265.88 92.1C265.653 93.4467 265.34 94.7067 264.94 95.88C264.54 97.0533 264.073 98.1133 263.54 99.06L263.26 98.94C263.153 99.2733 263 99.64 262.8 100.04C262.613 100.44 262.407 100.84 262.18 101.24C261.953 101.627 261.72 101.993 261.48 102.34C261.24 102.687 261.013 102.987 260.8 103.24ZM272.16 109.68C271.8 109.68 271.353 109.667 270.82 109.64C270.3 109.627 269.673 109.607 268.94 109.58L268.82 107.66C269.353 107.687 269.813 107.713 270.2 107.74C270.587 107.753 270.9 107.76 271.14 107.76C271.353 107.76 271.513 107.733 271.62 107.68C271.74 107.627 271.813 107.493 271.84 107.28C271.88 107.053 271.9 106.707 271.9 106.24C271.9 105.453 271.8 104.72 271.6 104.04C271.4 103.36 271.087 102.713 270.66 102.1C270.233 101.473 269.687 100.867 269.02 100.28L270.84 99.16C271.533 99.7733 272.127 100.473 272.62 101.26C273.113 102.047 273.487 102.867 273.74 103.72C274.007 104.573 274.14 105.433 274.14 106.3C274.14 107.193 274.08 107.88 273.96 108.36C273.84 108.853 273.633 109.193 273.34 109.38C273.047 109.58 272.653 109.68 272.16 109.68ZM265.24 103.18L264.54 101.54C265.927 101.153 267.16 100.72 268.24 100.24C269.333 99.76 270.24 99.2467 270.96 98.7L271.84 99.76C271.067 100.4 270.127 101.007 269.02 101.58C267.927 102.153 266.667 102.687 265.24 103.18ZM265.92 98.48L264.14 97.24C264.767 96.68 265.347 96.0867 265.88 95.46C266.413 94.8333 266.893 94.18 267.32 93.5C267.76 92.8067 268.12 92.12 268.4 91.44L270.7 91.76C270.447 92.52 270.087 93.3067 269.62 94.12C269.153 94.92 268.6 95.6933 267.96 96.44C267.333 97.1867 266.653 97.8667 265.92 98.48ZM275.88 105.52L274.56 103.94C275.12 103.5 275.673 102.993 276.22 102.42C276.767 101.847 277.3 101.22 277.82 100.54L279.34 101.76C278.833 102.493 278.287 103.173 277.7 103.8C277.113 104.427 276.507 105 275.88 105.52ZM265.68 100.3V96.04H267.92V98.66H271.12V97.04H273.32V98.66H276.58V97.04H266.68V95.22H278.86V100.3H265.68ZM268.42 94.36V92.56H276.04V94.36H268.42ZM274.02 96.84L272.2 95.64C272.427 95.4133 272.66 95.1733 272.9 94.92C273.14 94.6667 273.367 94.4133 273.58 94.16C273.793 93.8933 273.973 93.6533 274.12 93.44L276.04 94.36C275.813 94.7333 275.52 95.14 275.16 95.58C274.8 96.02 274.42 96.44 274.02 96.84ZM41.06 138.44C41.5533 137.173 41.9933 136.007 42.38 134.94C42.7667 133.86 43.1133 132.827 43.42 131.84C43.74 130.853 44.0267 129.853 44.28 128.84C44.5467 127.827 44.7933 126.747 45.02 125.6C45.2467 124.453 45.4733 123.187 45.7 121.8L48.02 122.06C47.8067 123.393 47.5867 124.64 47.36 125.8C47.1333 126.947 46.88 128.053 46.6 129.12C46.3333 130.173 46.0333 131.227 45.7 132.28C45.38 133.333 45.0133 134.42 44.6 135.54C44.2 136.66 43.7467 137.86 43.24 139.14L41.06 138.44ZM57.26 135.82C57.14 135.02 56.98 134.167 56.78 133.26C56.5933 132.34 56.3733 131.42 56.12 130.5C55.8667 129.58 55.6 128.693 55.32 127.84L57.54 127.18C57.82 128.06 58.0867 128.973 58.34 129.92C58.6067 130.853 58.84 131.793 59.04 132.74C59.24 133.673 59.4067 134.567 59.54 135.42L57.26 135.82ZM55.16 126.74C54.8133 126.007 54.4733 125.353 54.14 124.78C53.8067 124.207 53.4333 123.64 53.02 123.08L54.68 122.12C55.1067 122.693 55.4867 123.287 55.82 123.9C56.1667 124.513 56.5067 125.18 56.84 125.9L55.16 126.74ZM57.96 125.68C57.64 124.933 57.32 124.273 57 123.7C56.68 123.113 56.3267 122.547 55.94 122L57.56 121.1C57.9867 121.687 58.36 122.287 58.68 122.9C59.0133 123.513 59.3333 124.187 59.64 124.92L57.96 125.68ZM50.56 138.66C50.2133 138.66 49.78 138.613 49.26 138.52C48.74 138.44 48.1933 138.32 47.62 138.16C47.06 138.013 46.52 137.847 46 137.66L46.54 135.64C46.98 135.773 47.4133 135.907 47.84 136.04C48.28 136.16 48.68 136.26 49.04 136.34C49.4133 136.407 49.7 136.44 49.9 136.44C50.3267 136.44 50.68 136.247 50.96 135.86C51.24 135.46 51.4467 134.84 51.58 134C51.7267 133.147 51.8 132.053 51.8 130.72C51.8 129.947 51.7733 129.327 51.72 128.86C51.6667 128.38 51.5533 128.02 51.38 127.78C51.22 127.54 50.9733 127.38 50.64 127.3C50.3067 127.22 49.86 127.18 49.3 127.18H40.82V125.1H49.08C50 125.1 50.7667 125.14 51.38 125.22C52.0067 125.287 52.5 125.427 52.86 125.64C53.2333 125.853 53.5133 126.18 53.7 126.62C53.9 127.047 54.0267 127.62 54.08 128.34C54.1467 129.047 54.18 129.933 54.18 131C54.18 132.733 54.0533 134.167 53.8 135.3C53.5467 136.433 53.1467 137.28 52.6 137.84C52.0667 138.387 51.3867 138.66 50.56 138.66ZM74.32 139.5C74.16 139.5 74 139.5 73.84 139.5C73.68 139.5 73.5133 139.493 73.34 139.48C72.7533 139.453 72.2867 139.42 71.94 139.38C71.5933 139.34 71.3333 139.267 71.16 139.16C70.9867 139.067 70.8733 138.92 70.82 138.72C70.7667 138.533 70.74 138.28 70.74 137.96V134H65.32V132.06H74.68V130.58H65.32V128.88H74.68V127.4H65.32V125.7H74.68V124.22H65.32V134H62.9V122.24H77.1V134H73.14V136.86C73.14 137.167 73.1733 137.353 73.24 137.42C73.3067 137.487 73.5133 137.527 73.86 137.54C73.98 137.553 74.0933 137.56 74.2 137.56C74.32 137.547 74.4333 137.54 74.54 137.54C74.6733 137.54 74.8 137.547 74.92 137.56C75.04 137.56 75.1533 137.553 75.26 137.54C75.5267 137.527 75.7333 137.5 75.88 137.46C76.04 137.407 76.1533 137.293 76.22 137.12C76.3 136.947 76.36 136.667 76.4 136.28C76.44 135.893 76.4733 135.353 76.5 134.66L78.78 134.9C78.7267 135.78 78.6667 136.5 78.6 137.06C78.5467 137.607 78.46 138.04 78.34 138.36C78.22 138.693 78.0333 138.94 77.78 139.1C77.54 139.26 77.22 139.36 76.82 139.4C76.4333 139.44 75.94 139.467 75.34 139.48C75.18 139.48 75.0133 139.48 74.84 139.48C74.6667 139.493 74.4933 139.5 74.32 139.5ZM61.76 139.8L61.08 137.76C62.4 137.507 63.4667 137.173 64.28 136.76C65.0933 136.347 65.6867 135.847 66.06 135.26C66.4467 134.673 66.64 134.013 66.64 133.28L69.06 133.42C68.9933 135.02 68.36 136.367 67.16 137.46C65.96 138.553 64.16 139.333 61.76 139.8ZM83.26 139.1L81.82 137.34L93.24 128.38L93.28 129.02H82.62V126.94H95.8V129.02L90.54 133.26L89.42 133.16C89.4733 132.72 89.64 132.393 89.92 132.18C90.2 131.953 90.5733 131.84 91.04 131.84C91.68 131.84 92.1533 131.967 92.46 132.22C92.7667 132.46 92.98 132.773 93.1 133.16C93.2333 133.547 93.34 133.94 93.42 134.34C93.4867 134.727 93.5733 135.1 93.68 135.46C93.8 135.807 93.9933 136.093 94.26 136.32C94.5267 136.533 94.9267 136.64 95.46 136.64C95.6867 136.64 95.9867 136.627 96.36 136.6C96.7467 136.56 97.14 136.513 97.54 136.46C97.9533 136.393 98.3133 136.327 98.62 136.26L98.84 138.34C98.4533 138.447 98.04 138.533 97.6 138.6C97.16 138.667 96.7333 138.713 96.32 138.74C95.92 138.78 95.5667 138.8 95.26 138.8C94.46 138.8 93.8133 138.693 93.32 138.48C92.84 138.28 92.4667 138.013 92.2 137.68C91.9333 137.347 91.74 136.987 91.62 136.6C91.5 136.213 91.4 135.853 91.32 135.52C91.2533 135.187 91.18 134.9 91.1 134.66C91.02 134.42 90.9067 134.233 90.76 134.1C90.6267 133.953 90.42 133.88 90.14 133.88C90.0333 133.88 89.92 133.907 89.8 133.96C89.68 134 89.5267 134.087 89.34 134.22C89.1667 134.34 88.92 134.533 88.6 134.8L83.26 139.1ZM95.34 125.1C94.3533 125.1 93.2467 125.073 92.02 125.02C90.7933 124.967 89.52 124.893 88.2 124.8C86.8933 124.707 85.6 124.6 84.32 124.48L84.58 122.34C85.8867 122.473 87.1733 122.593 88.44 122.7C89.7067 122.807 90.9267 122.887 92.1 122.94C93.2733 122.993 94.3533 123.02 95.34 123.02V125.1ZM113.84 138.74C112.227 138.74 110.82 138.467 109.62 137.92C108.433 137.373 107.513 136.6 106.86 135.6C106.207 134.587 105.88 133.4 105.88 132.04C105.88 130.973 106.073 129.993 106.46 129.1C106.86 128.193 107.42 127.4 108.14 126.72C108.873 126.027 109.74 125.5 110.74 125.14L110.94 125.76L101.42 125.98V123.84L118.28 123.44V125.58L115.74 125.64C114.7 125.667 113.733 125.827 112.84 126.12C111.96 126.413 111.187 126.833 110.52 127.38C109.853 127.927 109.333 128.573 108.96 129.32C108.6 130.053 108.42 130.88 108.42 131.8C108.42 132.787 108.64 133.64 109.08 134.36C109.52 135.067 110.14 135.607 110.94 135.98C111.753 136.353 112.727 136.54 113.86 136.54C114.233 136.54 114.66 136.52 115.14 136.48C115.633 136.44 116.06 136.387 116.42 136.32L116.68 138.52C116.253 138.587 115.78 138.64 115.26 138.68C114.753 138.72 114.28 138.74 113.84 138.74ZM130.92 139.06C129.293 139.06 127.88 138.9 126.68 138.58C125.493 138.26 124.58 137.813 123.94 137.24C123.3 136.653 122.98 135.96 122.98 135.16C122.98 134.467 123.213 133.82 123.68 133.22C124.147 132.62 124.8 132.127 125.64 131.74L127.22 133.14C126.62 133.433 126.187 133.727 125.92 134.02C125.653 134.3 125.527 134.613 125.54 134.96C125.553 135.4 125.76 135.773 126.16 136.08C126.56 136.373 127.147 136.6 127.92 136.76C128.707 136.92 129.653 137 130.76 137C131.733 137 132.753 136.933 133.82 136.8C134.9 136.667 135.907 136.493 136.84 136.28L137.18 138.36C136.22 138.587 135.2 138.76 134.12 138.88C133.04 139 131.973 139.06 130.92 139.06ZM122.06 130.68V128.72L137.94 128.32V130.28L122.06 130.68ZM132.86 134.82C132.42 133.793 132.027 132.753 131.68 131.7C131.333 130.647 131.033 129.587 130.78 128.52C130.54 127.44 130.34 126.34 130.18 125.22C130.02 124.087 129.907 122.933 129.84 121.76L132.22 121.62C132.287 122.753 132.393 123.853 132.54 124.92C132.7 125.987 132.9 127.033 133.14 128.06C133.38 129.087 133.673 130.12 134.02 131.16C134.38 132.187 134.793 133.227 135.26 134.28L132.86 134.82ZM122.26 126.26V124.3L137.74 123.9V125.86L122.26 126.26ZM141.74 138.84C142.3 137.04 142.807 135.213 143.26 133.36C143.727 131.493 144.133 129.6 144.48 127.68C144.84 125.747 145.147 123.8 145.4 121.84L147.78 121.94C147.553 123.86 147.26 125.8 146.9 127.76C146.553 129.72 146.147 131.667 145.68 133.6C145.213 135.52 144.693 137.407 144.12 139.26L141.74 138.84ZM154.14 138.86C152.927 138.86 151.873 138.713 150.98 138.42C150.087 138.14 149.393 137.747 148.9 137.24C148.407 136.72 148.16 136.1 148.16 135.38C148.16 134.847 148.34 134.32 148.7 133.8C149.06 133.28 149.613 132.74 150.36 132.18L152.16 133.46C151.653 133.78 151.273 134.08 151.02 134.36C150.78 134.627 150.66 134.893 150.66 135.16C150.66 135.467 150.8 135.74 151.08 135.98C151.373 136.207 151.78 136.387 152.3 136.52C152.833 136.653 153.447 136.72 154.14 136.72C154.767 136.72 155.407 136.687 156.06 136.62C156.713 136.553 157.393 136.453 158.1 136.32L158.36 138.46C157.627 138.593 156.92 138.693 156.24 138.76C155.56 138.827 154.86 138.86 154.14 138.86ZM141.46 126.42V124.34H155.54V126.42H141.46ZM148.94 128.68C150.513 128.533 152.053 128.42 153.56 128.34C155.08 128.26 156.6 128.22 158.12 128.22V130.32C156.627 130.32 155.127 130.36 153.62 130.44C152.127 130.507 150.613 130.627 149.08 130.8L148.94 128.68Z" fill="#282828"/>
<path opacity="0.6" d="M49.016 159.68C49.016 157.09 50.122 154.808 52.432 152.946C52.558 152.834 52.712 152.778 52.852 152.778C53.118 152.778 53.37 153.016 53.37 153.282C53.37 153.464 53.3 153.59 53.16 153.716C51.144 155.438 50.304 157.384 50.304 159.68C50.304 161.976 51.144 163.922 53.16 165.644C53.3 165.77 53.37 165.896 53.37 166.078C53.37 166.344 53.118 166.582 52.852 166.582C52.712 166.582 52.558 166.526 52.432 166.414C50.122 164.552 49.016 162.27 49.016 159.68ZM58.76 162.564H55.428C54.77 162.564 54.406 162.228 54.406 161.612C54.406 161.234 54.476 160.996 54.714 160.604L57.934 155.172C58.284 154.584 58.606 154.36 59.222 154.36C60.006 154.36 60.314 154.766 60.314 155.592V161.262H61.154C61.644 161.262 61.896 161.486 61.896 161.906C61.896 162.326 61.644 162.564 61.154 162.564H60.314V164.216C60.314 164.72 60.02 165 59.516 165C59.026 165 58.76 164.72 58.76 164.216V162.564ZM58.76 161.262V158.686C58.76 157.748 58.802 156.838 58.872 155.9H58.774C58.41 156.726 58.018 157.524 57.528 158.378L55.876 161.262H58.76ZM66.4152 154.318C68.5432 154.318 69.9572 155.83 69.9572 159.708C69.9572 163.586 68.5432 165.098 66.4152 165.098C64.2872 165.098 62.9012 163.586 62.9012 159.708C62.9012 155.83 64.2872 154.318 66.4152 154.318ZM66.4152 155.718C65.2532 155.718 64.5532 156.698 64.5532 159.708C64.5532 162.718 65.2532 163.698 66.4152 163.698C67.5912 163.698 68.3052 162.718 68.3052 159.708C68.3052 156.698 67.5912 155.718 66.4152 155.718ZM73.0903 165.7V159.092C72.8523 159.456 72.6003 159.806 72.3483 160.114C72.1663 160.338 71.9423 160.436 71.7323 160.436C71.3263 160.436 70.9483 160.1 70.9483 159.694C70.9483 159.526 71.0043 159.358 71.1443 159.176C72.2503 157.804 73.2723 155.69 73.8323 153.814C73.9443 153.45 74.2523 153.282 74.5743 153.282C74.9943 153.282 75.4143 153.548 75.4143 153.996C75.4143 154.066 75.4003 154.15 75.3723 154.234C75.0643 155.284 74.5603 156.46 73.9863 157.552C74.3223 157.594 74.6163 157.79 74.6163 158.154V165.7C74.6163 166.078 74.2383 166.274 73.8603 166.274C73.4683 166.274 73.0903 166.078 73.0903 165.7ZM79.2503 157.258L83.1003 156.922H83.1563C83.5343 156.922 83.7303 157.286 83.7303 157.65C83.7303 157.972 83.5763 158.28 83.2263 158.308L79.4323 158.644C79.6283 159.848 79.9223 160.954 80.3283 161.92C81.1123 163.782 81.7563 164.244 82.1763 164.244C82.3583 164.244 82.5263 164.062 82.6243 163.152C82.6663 162.718 82.9883 162.522 83.3243 162.522C83.7023 162.522 84.1083 162.788 84.1083 163.264V163.362C83.9123 165.308 83.1843 165.896 82.2463 165.896C81.0143 165.896 79.8243 164.72 78.8303 162.34C78.3963 161.29 78.0743 160.1 77.8643 158.77L75.8203 158.952H75.7643C75.3863 158.952 75.1903 158.588 75.1903 158.238C75.1903 157.916 75.3583 157.608 75.6943 157.58L77.6963 157.398C77.5843 156.306 77.5283 155.13 77.5283 153.898C77.5283 153.464 77.9203 153.254 78.3123 153.254C78.7043 153.254 79.0963 153.464 79.0963 153.898C79.0963 155.088 79.1383 156.208 79.2503 157.258ZM80.9023 154.192C81.2803 154.472 81.6303 154.766 81.9243 155.06C82.0923 155.242 82.1763 155.438 82.1763 155.606C82.1763 156.012 81.8123 156.362 81.4203 156.362C81.2523 156.362 81.0703 156.278 80.9163 156.11C80.6223 155.774 80.3143 155.48 79.9643 155.2C79.7963 155.06 79.7123 154.892 79.7123 154.724C79.7123 154.374 80.0483 154.024 80.4403 154.024C80.5943 154.024 80.7483 154.08 80.9023 154.192ZM85.3683 165.42L96.9043 153.156C97.0303 153.03 97.1703 152.932 97.2963 152.932C97.6603 152.932 97.9683 153.226 97.9683 153.506C97.9683 153.66 97.9123 153.8 97.7723 153.94L86.2363 166.204C86.1103 166.33 85.9703 166.428 85.8443 166.428C85.4803 166.428 85.1723 166.134 85.1723 165.854C85.1723 165.7 85.2283 165.56 85.3683 165.42ZM111.408 157.874H109.378C109.238 158.42 109.028 159.12 108.776 159.722C108.412 160.59 107.95 161.388 107.39 162.116C108.524 162.69 109.644 163.334 110.652 164.048C110.918 164.23 111.03 164.482 111.03 164.72C111.03 165.14 110.666 165.546 110.218 165.546C110.05 165.546 109.868 165.49 109.686 165.364C108.636 164.594 107.474 163.88 106.312 163.278C104.744 164.664 102.784 165.462 100.572 165.882C100.502 165.896 100.446 165.896 100.376 165.896C99.9143 165.896 99.6483 165.546 99.6483 165.182C99.6483 164.874 99.8443 164.552 100.278 164.468C102.07 164.118 103.61 163.544 104.856 162.564C104.184 162.284 103.526 162.004 102.84 161.766L102.784 161.864C102.588 162.2 102.294 162.34 102.014 162.34C101.608 162.34 101.216 162.06 101.216 161.654C101.216 161.542 101.244 161.416 101.328 161.276C101.972 160.156 102.546 159.036 103.022 157.874H99.7323C99.3683 157.874 99.1723 157.538 99.1723 157.202C99.1723 156.866 99.3683 156.53 99.7323 156.53H103.54C103.862 155.62 104.142 154.668 104.422 153.646C104.52 153.296 104.842 153.128 105.164 153.128C105.57 153.128 105.976 153.366 105.976 153.786C105.976 153.842 105.962 153.898 105.948 153.968C105.71 154.85 105.458 155.704 105.164 156.53H111.408C111.786 156.53 111.982 156.866 111.982 157.202C111.982 157.538 111.786 157.874 111.408 157.874ZM107.726 157.874H104.674C104.296 158.784 103.904 159.68 103.47 160.562C104.324 160.828 105.164 161.122 105.976 161.472C106.83 160.436 107.404 159.176 107.726 157.874ZM121.18 164.356V161.584H119.052C118.702 161.584 118.534 161.234 118.534 160.898C118.534 160.548 118.702 160.212 119.052 160.212H121.18V157.874H119.57C119.402 158.252 119.22 158.616 119.038 158.952C118.856 159.288 118.562 159.428 118.296 159.428C117.932 159.428 117.596 159.176 117.596 158.784C117.596 158.644 117.638 158.49 117.736 158.322C118.282 157.384 118.716 156.236 118.996 154.976C119.08 154.598 119.388 154.416 119.682 154.416C120.046 154.416 120.41 154.668 120.41 155.088C120.41 155.144 120.41 155.186 120.396 155.242C120.312 155.676 120.2 156.11 120.06 156.53H121.18V153.87C121.18 153.45 121.558 153.24 121.936 153.24C122.314 153.24 122.692 153.45 122.692 153.87V156.53H125.254C125.618 156.53 125.8 156.866 125.8 157.202C125.8 157.538 125.618 157.874 125.254 157.874H122.692V160.212H124.75C125.1 160.212 125.282 160.548 125.282 160.898C125.282 161.234 125.1 161.584 124.75 161.584H122.692V164.356H125.548C125.898 164.356 126.08 164.692 126.08 165.042C126.08 165.378 125.898 165.728 125.548 165.728H117.834C117.498 165.728 117.316 165.378 117.316 165.042C117.316 164.692 117.498 164.356 117.834 164.356H121.18ZM116.294 153.772V165.616C116.294 166.036 115.916 166.246 115.538 166.246C115.146 166.246 114.768 166.036 114.768 165.616V153.772C114.768 153.352 115.146 153.156 115.538 153.156C115.916 153.156 116.294 153.352 116.294 153.772ZM113.452 156.558C113.494 156.236 113.746 156.082 113.998 156.082C114.292 156.082 114.572 156.278 114.572 156.628V156.698C114.516 157.328 114.362 158.168 114.18 158.77C114.082 159.078 113.844 159.218 113.606 159.218C113.312 159.218 113.032 159.008 113.032 158.686C113.032 158.63 113.032 158.56 113.06 158.49C113.242 157.902 113.382 157.104 113.452 156.558ZM117.512 156.012C117.652 156.432 117.778 156.936 117.834 157.314V157.412C117.834 157.79 117.526 158.014 117.246 158.014C117.008 158.014 116.784 157.874 116.728 157.552C116.658 157.132 116.56 156.6 116.462 156.264C116.448 156.208 116.434 156.138 116.434 156.082C116.434 155.788 116.7 155.606 116.966 155.606C117.19 155.606 117.414 155.732 117.512 156.012ZM131.554 159.68C131.554 162.27 130.448 164.552 128.138 166.414C128.012 166.526 127.858 166.582 127.718 166.582C127.452 166.582 127.2 166.344 127.2 166.078C127.2 165.896 127.27 165.77 127.41 165.644C129.426 163.922 130.266 161.976 130.266 159.68C130.266 157.384 129.426 155.438 127.41 153.716C127.27 153.59 127.2 153.464 127.2 153.282C127.2 153.016 127.452 152.778 127.718 152.778C127.858 152.778 128.012 152.834 128.138 152.946C130.448 154.808 131.554 157.09 131.554 159.68Z" fill="#282828"/>
<path d="M259.177 236L241.177 194L210 194L259.177 236Z" fill="#E18965"/>
</svg>
