<svg width="290" height="279" viewBox="0 0 290 279" fill="none" xmlns="http://www.w3.org/2000/svg">
<rect width="290" height="161" rx="80" fill="#FFF464"/>
<path d="M41.008 45.608V43.336H46.656V35.144H41.488V32.872H54.512V35.144H49.344V43.336H54.992V45.608H41.008ZM61.968 46.168V44.152H65.936V43.192H62.928V41.48H65.936V40.568H62.608V38.68H72.016V40.568H68.48V41.48H71.68V43.192H68.48V44.152H72.208V46.168H61.968ZM57.792 44.552L56.864 42.216C57.4827 41.2133 57.9627 40.232 58.304 39.272C58.6453 38.312 58.8693 37.3627 58.976 36.424L59.6 37.608C59.4293 39.3573 59.1893 40.7867 58.88 41.896C58.5813 42.9947 58.2187 43.88 57.792 44.552ZM58.752 46.552V38.072H57.232V35.992H58.752V33.352H60.992V35.992H62.528V38.072H60.992V46.552H58.752ZM61.728 42.536C61.3653 41.736 60.9973 40.9467 60.624 40.168C60.2507 39.3787 59.856 38.5947 59.44 37.816L60.432 36.808C60.9333 37.64 61.4027 38.4347 61.84 39.192C62.2773 39.9387 62.688 40.664 63.072 41.368L61.728 42.536ZM57.536 34.664L57.328 32.728C58.16 32.664 59.0027 32.552 59.856 32.392C60.7093 32.232 61.4827 32.0453 62.176 31.832L62.688 33.704C62.1227 33.928 61.3973 34.1253 60.512 34.296C59.6373 34.4667 58.6453 34.5893 57.536 34.664ZM62.896 37.928V32.312H71.584V37.928H65.328V36.152H69.104V34.328H65.328V37.928H62.896ZM81.12 45.928C79.84 45.928 78.7253 45.7787 77.776 45.48C76.8267 45.192 76.0907 44.7813 75.568 44.248C75.056 43.7147 74.8 43.0853 74.8 42.36C74.8 41.7627 74.9867 41.1227 75.36 40.44C75.7333 39.7573 76.3093 38.9947 77.088 38.152L79.488 39.08C78.8587 39.72 78.3787 40.3013 78.048 40.824C77.7173 41.336 77.552 41.7573 77.552 42.088C77.552 42.3973 77.6907 42.6693 77.968 42.904C78.256 43.128 78.6667 43.304 79.2 43.432C79.744 43.5493 80.384 43.608 81.12 43.608C81.632 43.608 82.1973 43.576 82.816 43.512C83.4453 43.448 84.0747 43.3573 84.704 43.24C85.344 43.1227 85.9253 42.9893 86.448 42.84L86.944 45.16C86.4213 45.2987 85.8187 45.4267 85.136 45.544C84.4533 45.672 83.76 45.768 83.056 45.832C82.3627 45.896 81.7173 45.928 81.12 45.928ZM75.6 35.352V33.032H86.48V35.352H75.6ZM84.176 40.888C83.9307 40.3333 83.6587 39.8053 83.36 39.304C83.072 38.8027 82.7413 38.2907 82.368 37.768L84.032 36.872C84.3947 37.3947 84.72 37.912 85.008 38.424C85.3067 38.936 85.5893 39.48 85.856 40.056L84.176 40.888ZM86.784 40.008C86.5493 39.4427 86.288 38.9093 86 38.408C85.7227 37.896 85.4133 37.3787 85.072 36.856L86.704 36.008C87.0667 36.552 87.3867 37.08 87.664 37.592C87.952 38.104 88.2133 38.6533 88.448 39.24L86.784 40.008ZM97.92 46.024C95.8827 46.024 94.336 45.6933 93.28 45.032C92.224 44.3707 91.696 43.4053 91.696 42.136C91.696 41.0693 92.08 40.104 92.848 39.24C93.6267 38.3653 94.8267 37.5707 96.448 36.856C98.08 36.1307 100.176 35.4533 102.736 34.824L103.328 37.144C101.291 37.6453 99.6107 38.1573 98.288 38.68C96.976 39.192 96 39.72 95.36 40.264C94.72 40.7973 94.4 41.3573 94.4 41.944C94.4 43.1067 95.6267 43.688 98.08 43.688C98.5067 43.688 98.944 43.672 99.392 43.64C99.8507 43.608 100.389 43.5493 101.008 43.464C101.637 43.368 102.4 43.2507 103.296 43.112L103.616 45.432C102.539 45.624 101.531 45.768 100.592 45.864C99.6533 45.9707 98.7627 46.024 97.92 46.024ZM94.56 38.888C94.2613 37.832 94 36.7867 93.776 35.752C93.5627 34.7173 93.3973 33.72 93.28 32.76L95.936 32.36C96.0533 33.32 96.2187 34.3067 96.432 35.32C96.656 36.3227 96.9173 37.304 97.216 38.264L94.56 38.888ZM117.232 45.352C116.272 45.352 115.413 45.2133 114.656 44.936C113.909 44.648 113.323 44.2533 112.896 43.752C112.48 43.2507 112.272 42.68 112.272 42.04C112.272 40.9093 112.955 39.7413 114.32 38.536L116.208 39.912C115.707 40.36 115.349 40.7333 115.136 41.032C114.923 41.32 114.816 41.5867 114.816 41.832C114.816 42.088 114.912 42.3067 115.104 42.488C115.296 42.6587 115.573 42.792 115.936 42.888C116.299 42.984 116.731 43.032 117.232 43.032C117.723 43.032 118.304 42.9947 118.976 42.92C119.648 42.8347 120.341 42.728 121.056 42.6L121.408 44.872C120.683 45.0213 119.963 45.1387 119.248 45.224C118.533 45.3093 117.861 45.352 117.232 45.352ZM113.04 35.912V33.592H121.264V35.912H113.04ZM108.896 45.928C108.629 44.84 108.432 43.752 108.304 42.664C108.176 41.576 108.112 40.4347 108.112 39.24C108.112 38.0453 108.176 36.9093 108.304 35.832C108.432 34.744 108.629 33.656 108.896 32.568L111.488 32.856C111.243 33.8693 111.056 34.9093 110.928 35.976C110.811 37.032 110.752 38.12 110.752 39.24C110.752 40.36 110.811 41.4533 110.928 42.52C111.056 43.576 111.243 44.6107 111.488 45.624L108.896 45.928ZM130.752 46.184C128.715 46.184 127.168 45.8533 126.112 45.192C125.056 44.5307 124.528 43.5653 124.528 42.296C124.528 41.2507 124.896 40.3013 125.632 39.448C126.368 38.5947 127.509 37.816 129.056 37.112C130.613 36.3973 132.613 35.7307 135.056 35.112L135.648 37.432C133.728 37.9227 132.144 38.4187 130.896 38.92C129.659 39.4213 128.736 39.9387 128.128 40.472C127.531 40.9947 127.232 41.5387 127.232 42.104C127.232 43.2667 128.459 43.848 130.912 43.848C131.328 43.848 131.765 43.832 132.224 43.8C132.683 43.768 133.221 43.7093 133.84 43.624C134.469 43.528 135.232 43.4107 136.128 43.272L136.448 45.592C135.36 45.784 134.347 45.928 133.408 46.024C132.48 46.1307 131.595 46.184 130.752 46.184ZM127.392 39.048C127.093 37.992 126.832 36.9467 126.608 35.912C126.395 34.8773 126.229 33.88 126.112 32.92L128.752 32.52C128.88 33.48 129.051 34.4667 129.264 35.48C129.488 36.4827 129.749 37.464 130.048 38.424L127.392 39.048ZM134.4 36.024C134.133 35.4587 133.861 34.9467 133.584 34.488C133.307 34.0187 132.997 33.5493 132.656 33.08L134.192 32.216C134.555 32.6747 134.875 33.1493 135.152 33.64C135.429 34.1307 135.701 34.664 135.968 35.24L134.4 36.024ZM136.736 35.176C136.491 34.6 136.235 34.0773 135.968 33.608C135.701 33.128 135.403 32.6533 135.072 32.184L136.608 31.368C136.949 31.848 137.253 32.3387 137.52 32.84C137.787 33.3307 138.043 33.8693 138.288 34.456L136.736 35.176ZM149.008 43.432C149.541 43.3573 150.027 43.2027 150.464 42.968C150.901 42.7333 151.275 42.4347 151.584 42.072C151.904 41.6987 152.149 41.272 152.32 40.792C152.491 40.3013 152.576 39.7787 152.576 39.224C152.576 38.4133 152.389 37.7147 152.016 37.128C151.653 36.5307 151.141 36.072 150.48 35.752C149.829 35.432 149.083 35.272 148.24 35.272C147.515 35.272 146.832 35.4 146.192 35.656C145.563 35.9013 145.008 36.2427 144.528 36.68C144.048 37.1173 143.669 37.624 143.392 38.2C143.115 38.776 142.976 39.3947 142.976 40.056C142.976 40.4827 143.045 40.904 143.184 41.32C143.323 41.7253 143.499 42.0667 143.712 42.344C143.936 42.6107 144.16 42.744 144.384 42.744C144.715 42.744 145.04 42.3867 145.36 41.672C145.691 40.9467 145.995 39.9067 146.272 38.552C146.56 37.1867 146.816 35.5547 147.04 33.656L149.568 33.928C149.301 36.0187 149.008 37.7893 148.688 39.24C148.379 40.6907 148.027 41.864 147.632 42.76C147.237 43.656 146.784 44.312 146.272 44.728C145.76 45.1333 145.173 45.336 144.512 45.336C143.947 45.336 143.424 45.208 142.944 44.952C142.464 44.6853 142.048 44.3173 141.696 43.848C141.344 43.368 141.072 42.808 140.88 42.168C140.688 41.5173 140.592 40.8133 140.592 40.056C140.592 39.0213 140.779 38.072 141.152 37.208C141.525 36.3333 142.053 35.5813 142.736 34.952C143.419 34.3227 144.229 33.832 145.168 33.48C146.107 33.128 147.136 32.952 148.256 32.952C149.579 32.952 150.752 33.2027 151.776 33.704C152.811 34.1947 153.621 34.9093 154.208 35.848C154.795 36.776 155.088 37.9013 155.088 39.224C155.088 40.088 154.96 40.8933 154.704 41.64C154.459 42.376 154.101 43.032 153.632 43.608C153.163 44.1733 152.597 44.6373 151.936 45C151.285 45.352 150.555 45.5813 149.744 45.688L149.008 43.432ZM161.488 46.008C160.123 46.008 159.067 45.7147 158.32 45.128C157.573 44.552 157.2 43.7253 157.2 42.648C157.2 41.56 157.568 40.728 158.304 40.152C159.04 39.576 160.101 39.288 161.488 39.288C162.213 39.288 162.928 39.368 163.632 39.528C164.336 39.688 165.072 39.944 165.84 40.296C166.608 40.648 167.429 41.112 168.304 41.688C169.189 42.2533 170.171 42.9467 171.248 43.768L169.68 45.544C168.517 44.584 167.461 43.8053 166.512 43.208C165.573 42.6107 164.693 42.1733 163.872 41.896C163.051 41.6187 162.256 41.48 161.488 41.48C160.859 41.48 160.395 41.576 160.096 41.768C159.797 41.9493 159.648 42.2427 159.648 42.648C159.648 43.4373 160.219 43.832 161.36 43.832C162.011 43.832 162.485 43.7093 162.784 43.464C163.083 43.208 163.232 42.8027 163.232 42.248V32.072H165.808V34.44H171.152V36.632H165.808V42.248C165.808 43.5387 165.456 44.488 164.752 45.096C164.048 45.704 162.96 46.008 161.488 46.008ZM176.704 43.688C177.973 43.624 179.104 43.5013 180.096 43.32C181.099 43.1387 181.947 42.904 182.64 42.616C183.333 42.328 183.861 41.9973 184.224 41.624C184.587 41.2507 184.768 40.84 184.768 40.392C184.768 39.912 184.555 39.56 184.128 39.336C183.701 39.112 183.029 39 182.112 39C181.6 39 181.024 39.0373 180.384 39.112C179.755 39.1867 178.997 39.304 178.112 39.464C177.227 39.624 176.144 39.8427 174.864 40.12L174.224 37.736C175.856 37.3733 177.339 37.1013 178.672 36.92C180.005 36.728 181.173 36.632 182.176 36.632C183.979 36.632 185.328 36.9307 186.224 37.528C187.12 38.1147 187.568 39.0053 187.568 40.2C187.568 41.064 187.333 41.848 186.864 42.552C186.405 43.2453 185.733 43.848 184.848 44.36C183.963 44.872 182.885 45.272 181.616 45.56C180.357 45.8587 178.923 46.0347 177.312 46.088L176.704 43.688ZM185.184 35.336C184.427 35.336 183.568 35.32 182.608 35.288C181.648 35.2453 180.645 35.192 179.6 35.128C178.565 35.0533 177.552 34.968 176.56 34.872L176.864 32.376C177.675 32.472 178.56 32.5627 179.52 32.648C180.48 32.7227 181.451 32.7813 182.432 32.824C183.413 32.856 184.331 32.872 185.184 32.872V35.336ZM198.048 46.024C196.811 46.024 195.84 45.7253 195.136 45.128C194.443 44.5413 194.096 43.7253 194.096 42.68C194.096 41.624 194.448 40.8027 195.152 40.216C195.867 39.6293 196.853 39.336 198.112 39.336C198.613 39.336 199.125 39.4267 199.648 39.608C200.181 39.7787 200.731 40.0453 201.296 40.408C201.872 40.76 202.469 41.208 203.088 41.752C203.707 42.296 204.352 42.9413 205.024 43.688L203.472 45.4C202.619 44.5253 201.915 43.8213 201.36 43.288C200.805 42.7547 200.341 42.3493 199.968 42.072C199.605 41.7947 199.28 41.6133 198.992 41.528C198.715 41.432 198.421 41.384 198.112 41.384C197.568 41.384 197.168 41.48 196.912 41.672C196.667 41.864 196.544 42.1787 196.544 42.616C196.544 43.0533 196.667 43.3787 196.912 43.592C197.168 43.8053 197.547 43.912 198.048 43.912C198.603 43.912 199.013 43.7947 199.28 43.56C199.547 43.3253 199.68 42.9787 199.68 42.52V34.072C200.651 34.072 201.563 34.088 202.416 34.12C203.28 34.1413 204.123 34.1787 204.944 34.232L204.8 36.488C204.085 36.4347 203.323 36.3973 202.512 36.376C201.712 36.344 200.891 36.328 200.048 36.328L202.208 34.696V42.248C202.208 43.5173 201.861 44.4613 201.168 45.08C200.475 45.7093 199.435 46.024 198.048 46.024ZM190.384 43.48C190.811 42.2427 191.205 41.0053 191.568 39.768C191.931 38.52 192.267 37.2453 192.576 35.944C192.896 34.6427 193.189 33.2987 193.456 31.912L195.904 32.12C195.648 33.5493 195.36 34.9467 195.04 36.312C194.72 37.6773 194.373 39.016 194 40.328C193.627 41.6293 193.216 42.9093 192.768 44.168L190.384 43.48ZM190.288 36.328V34.072H198.512V36.328H190.288ZM208.464 42.248V37.576H220.336V42.248H211.088V40.952H217.712V40.472H211.088V39.32H217.712V38.872H211.088V42.248H208.464ZM208.528 46.36L206.592 45.224C206.976 44.8187 207.317 44.3867 207.616 43.928C207.925 43.4587 208.197 42.9733 208.432 42.472L210.432 43.256C210.219 43.832 209.952 44.376 209.632 44.888C209.323 45.4 208.955 45.8907 208.528 46.36ZM214.672 46.52C214.309 46.52 213.936 46.5147 213.552 46.504C213.179 46.504 212.859 46.4987 212.592 46.488C212.112 46.4667 211.723 46.424 211.424 46.36C211.125 46.296 210.896 46.1893 210.736 46.04C210.587 45.8907 210.485 45.6667 210.432 45.368C210.379 45.0693 210.352 44.6747 210.352 44.184V42.76H212.912V44.024C212.912 44.2053 212.917 44.3387 212.928 44.424C212.949 44.5093 212.987 44.5627 213.04 44.584C213.104 44.6053 213.2 44.6267 213.328 44.648C213.456 44.6587 213.627 44.6693 213.84 44.68C214.053 44.68 214.283 44.68 214.528 44.68C214.709 44.68 214.912 44.68 215.136 44.68C215.371 44.6693 215.568 44.6587 215.728 44.648C215.909 44.6267 216.059 44.6053 216.176 44.584C216.293 44.552 216.384 44.4987 216.448 44.424C216.512 44.3387 216.56 44.2213 216.592 44.072C216.635 43.9227 216.661 43.72 216.672 43.464L219.024 43.832C218.992 44.376 218.933 44.808 218.848 45.128C218.773 45.4587 218.651 45.7147 218.48 45.896C218.32 46.0773 218.096 46.2053 217.808 46.28C217.531 46.3547 217.173 46.4133 216.736 46.456C216.469 46.4773 216.171 46.4933 215.84 46.504C215.509 46.5147 215.12 46.52 214.672 46.52ZM215.28 44.616C214.928 44.2853 214.549 43.9653 214.144 43.656C213.739 43.336 213.317 43.0373 212.88 42.76L214.336 41.4C214.763 41.6773 215.168 41.9653 215.552 42.264C215.947 42.5627 216.32 42.872 216.672 43.192L215.28 44.616ZM220.144 46.28C219.867 45.704 219.552 45.1387 219.2 44.584C218.859 44.0187 218.485 43.464 218.08 42.92L220.272 42.008C220.645 42.5733 220.987 43.128 221.296 43.672C221.616 44.216 221.92 44.7813 222.208 45.368L220.144 46.28ZM210.848 36.632C210.635 36.1733 210.405 35.7147 210.16 35.256C209.915 34.7973 209.659 34.3653 209.392 33.96L211.6 33.064C211.867 33.5013 212.128 33.96 212.384 34.44C212.651 34.92 212.896 35.4 213.12 35.88L210.848 36.632ZM207.12 37.128V35.352H221.68V37.128H207.12ZM207.6 34.568V32.728H213.088V31.592H215.712V32.728H221.2V34.568H207.6ZM217.792 36.776L215.664 35.88C216.219 35.0267 216.677 34.1573 217.04 33.272L219.312 33.96C219.12 34.4293 218.891 34.9093 218.624 35.4C218.368 35.88 218.091 36.3387 217.792 36.776ZM232.432 46.712V39.736H229.024V37.656H232.432V35.816H229.328V33.736H232.432V31.768H234.912V33.736H238.24V35.816H234.912V37.656H238.48V39.736H234.912V46.712H232.432ZM223.936 45.912V32.632H229.328V45.048H226.288V42.968H227.184V34.776H226.288V45.912H223.936ZM229.856 46.04L228.112 44.264C228.997 43.272 229.76 42.28 230.4 41.288C231.04 40.296 231.584 39.2773 232.032 38.232L233.712 38.648C233.285 40.056 232.763 41.352 232.144 42.536C231.525 43.7093 230.763 44.8773 229.856 46.04ZM237.392 46.04C236.507 44.8773 235.765 43.7093 235.168 42.536C234.571 41.352 234.064 40.056 233.648 38.648L235.392 38.232C235.776 39.1813 236.245 40.1093 236.8 41.016C237.365 41.912 238.032 42.8133 238.8 43.72L237.392 46.04ZM40.576 74.384C40.96 73.3173 41.296 72.352 41.584 71.488C41.8827 70.6133 42.144 69.7867 42.368 69.008C42.6027 68.2187 42.8107 67.4293 42.992 66.64C43.184 65.84 43.3653 64.9867 43.536 64.08C43.7067 63.1627 43.888 62.1333 44.08 60.992L46.592 61.264C46.432 62.3413 46.2667 63.344 46.096 64.272C45.9253 65.1893 45.7387 66.0747 45.536 66.928C45.3333 67.7707 45.104 68.6187 44.848 69.472C44.6027 70.3253 44.3253 71.2107 44.016 72.128C43.7067 73.0453 43.3547 74.048 42.96 75.136L40.576 74.384ZM53.328 72.256C53.2533 71.6267 53.1467 70.9493 53.008 70.224C52.88 69.4987 52.7307 68.768 52.56 68.032C52.4 67.296 52.224 66.592 52.032 65.92L54.464 65.28C54.656 65.984 54.8373 66.7093 55.008 67.456C55.1787 68.192 55.3333 68.9333 55.472 69.68C55.6107 70.416 55.7227 71.1253 55.808 71.808L53.328 72.256ZM51.952 65.136C51.6853 64.5707 51.408 64.0587 51.12 63.6C50.8427 63.1307 50.5333 62.656 50.192 62.176L51.744 61.312C52.096 61.7707 52.4107 62.2453 52.688 62.736C52.9653 63.2267 53.2373 63.7653 53.504 64.352L51.952 65.136ZM54.288 64.272C54.032 63.696 53.7707 63.1733 53.504 62.704C53.248 62.224 52.9547 61.7493 52.624 61.28L54.16 60.48C54.5013 60.96 54.8 61.4453 55.056 61.936C55.3227 62.4267 55.584 62.9707 55.84 63.568L54.288 64.272ZM48.384 74.688C48.096 74.688 47.744 74.656 47.328 74.592C46.912 74.5387 46.48 74.4587 46.032 74.352C45.584 74.2453 45.1573 74.1227 44.752 73.984L45.312 71.856C45.632 71.9413 45.9413 72.0267 46.24 72.112C46.5387 72.1867 46.8107 72.2453 47.056 72.288C47.3013 72.3307 47.4933 72.352 47.632 72.352C47.92 72.352 48.144 72.2347 48.304 72C48.4747 71.7653 48.592 71.36 48.656 70.784C48.7307 70.1973 48.768 69.3867 48.768 68.352C48.768 67.808 48.7467 67.3707 48.704 67.04C48.6613 66.6987 48.5867 66.4373 48.48 66.256C48.3733 66.0747 48.2187 65.952 48.016 65.888C47.8133 65.824 47.5413 65.792 47.2 65.792H40.448V63.536H46.928C47.7387 63.536 48.4107 63.568 48.944 63.632C49.4773 63.696 49.904 63.824 50.224 64.016C50.544 64.1973 50.784 64.48 50.944 64.864C51.1147 65.2373 51.2267 65.7387 51.28 66.368C51.3333 66.9867 51.36 67.76 51.36 68.688C51.36 70.1387 51.2587 71.3067 51.056 72.192C50.864 73.0667 50.5493 73.7013 50.112 74.096C49.6853 74.4907 49.1093 74.688 48.384 74.688ZM61.888 72.992V67.296V60.992H64.336V67.296V72.992H61.888ZM58.128 64.752V62.688H71.152V64.752H58.128ZM66.064 73.104C66.672 72.9653 67.1893 72.7627 67.616 72.496C68.0533 72.2187 68.384 71.888 68.608 71.504C68.832 71.1093 68.944 70.6773 68.944 70.208C68.944 69.6747 68.8 69.216 68.512 68.832C68.224 68.448 67.8133 68.1547 67.28 67.952C66.7573 67.7387 66.1227 67.632 65.376 67.632C64.608 67.632 63.9093 67.7227 63.28 67.904C62.6613 68.0747 62.128 68.3253 61.68 68.656C61.232 68.9867 60.8853 69.3813 60.64 69.84C60.3947 70.288 60.272 70.7893 60.272 71.344C60.272 71.7387 60.3413 72.0427 60.48 72.256C60.6187 72.4587 60.8213 72.56 61.088 72.56C61.344 72.56 61.6533 72.4693 62.016 72.288C62.3893 72.096 62.7947 71.8293 63.232 71.488C63.6693 71.1467 64.1227 70.7467 64.592 70.288C65.072 69.8293 65.5467 69.3227 66.016 68.768C66.4853 68.2133 66.9387 67.6267 67.376 67.008L69.168 68.224C68.624 69.0133 68.0587 69.744 67.472 70.416C66.896 71.088 66.3093 71.6907 65.712 72.224C65.1147 72.7573 64.5227 73.2107 63.936 73.584C63.36 73.9467 62.7947 74.224 62.24 74.416C61.696 74.6187 61.1733 74.72 60.672 74.72C59.808 74.72 59.1253 74.4267 58.624 73.84C58.1227 73.2427 57.872 72.4373 57.872 71.424C57.872 70.5813 58.0427 69.808 58.384 69.104C58.736 68.3893 59.2267 67.776 59.856 67.264C60.496 66.7413 61.248 66.3413 62.112 66.064C62.976 65.776 63.9253 65.632 64.96 65.632C66.3253 65.632 67.488 65.8133 68.448 66.176C69.408 66.528 70.1387 67.0453 70.64 67.728C71.152 68.4107 71.408 69.2427 71.408 70.224C71.408 71.024 71.2213 71.7653 70.848 72.448C70.4747 73.1307 69.952 73.7067 69.28 74.176C68.6187 74.6453 67.8507 74.9653 66.976 75.136L66.064 73.104ZM80.96 75.168C79.3387 75.168 78.0747 74.896 77.168 74.352C76.272 73.808 75.824 73.0507 75.824 72.08C75.824 71.248 76.1707 70.6027 76.864 70.144C77.568 69.6747 78.528 69.44 79.744 69.44C80.8427 69.44 81.664 69.6427 82.208 70.048C82.752 70.4427 83.024 71.04 83.024 71.84C83.024 72.128 82.992 72.432 82.928 72.752C82.864 73.072 82.7733 73.3813 82.656 73.68L80.464 73.456C80.5813 73.1573 80.672 72.896 80.736 72.672C80.8 72.4373 80.832 72.2453 80.832 72.096C80.832 71.552 80.4107 71.28 79.568 71.28C79.1307 71.28 78.7947 71.3493 78.56 71.488C78.3253 71.616 78.208 71.808 78.208 72.064C78.208 72.4267 78.4107 72.704 78.816 72.896C79.2213 73.088 79.824 73.184 80.624 73.184C82.2027 73.184 83.3547 72.9653 84.08 72.528C84.816 72.0907 85.184 71.4133 85.184 70.496C85.184 69.6853 84.8853 69.0987 84.288 68.736C83.7013 68.3627 82.736 68.176 81.392 68.176C80.624 68.176 79.952 68.24 79.376 68.368C78.8 68.496 78.2507 68.6933 77.728 68.96L75.744 70.032L74.72 68.048L83.04 63.792V64.128H75.68V61.952H86.976V64.128L78.768 68.416L77.44 67.248C77.8027 67.1307 78.2187 67.0187 78.688 66.912C79.1573 66.8053 79.6427 66.7093 80.144 66.624C80.6453 66.5387 81.1307 66.4747 81.6 66.432C82.0693 66.3787 82.4853 66.352 82.848 66.352C84.448 66.352 85.68 66.6987 86.544 67.392C87.408 68.0747 87.84 69.056 87.84 70.336C87.84 71.8827 87.2427 73.0773 86.048 73.92C84.8533 74.752 83.1573 75.168 80.96 75.168ZM99.088 72.432C99.6213 72.3573 100.107 72.2027 100.544 71.968C100.981 71.7333 101.355 71.4347 101.664 71.072C101.984 70.6987 102.229 70.272 102.4 69.792C102.571 69.3013 102.656 68.7787 102.656 68.224C102.656 67.4133 102.469 66.7147 102.096 66.128C101.733 65.5307 101.221 65.072 100.56 64.752C99.9093 64.432 99.1627 64.272 98.32 64.272C97.5947 64.272 96.912 64.4 96.272 64.656C95.6427 64.9013 95.088 65.2427 94.608 65.68C94.128 66.1173 93.7493 66.624 93.472 67.2C93.1947 67.776 93.056 68.3947 93.056 69.056C93.056 69.4827 93.1253 69.904 93.264 70.32C93.4027 70.7253 93.5787 71.0667 93.792 71.344C94.016 71.6107 94.24 71.744 94.464 71.744C94.7947 71.744 95.12 71.3867 95.44 70.672C95.7707 69.9467 96.0747 68.9067 96.352 67.552C96.64 66.1867 96.896 64.5547 97.12 62.656L99.648 62.928C99.3813 65.0187 99.088 66.7893 98.768 68.24C98.4587 69.6907 98.1067 70.864 97.712 71.76C97.3173 72.656 96.864 73.312 96.352 73.728C95.84 74.1333 95.2533 74.336 94.592 74.336C94.0267 74.336 93.504 74.208 93.024 73.952C92.544 73.6853 92.128 73.3173 91.776 72.848C91.424 72.368 91.152 71.808 90.96 71.168C90.768 70.5173 90.672 69.8133 90.672 69.056C90.672 68.0213 90.8587 67.072 91.232 66.208C91.6053 65.3333 92.1333 64.5813 92.816 63.952C93.4987 63.3227 94.3093 62.832 95.248 62.48C96.1867 62.128 97.216 61.952 98.336 61.952C99.6587 61.952 100.832 62.2027 101.856 62.704C102.891 63.1947 103.701 63.9093 104.288 64.848C104.875 65.776 105.168 66.9013 105.168 68.224C105.168 69.088 105.04 69.8933 104.784 70.64C104.539 71.376 104.181 72.032 103.712 72.608C103.243 73.1733 102.677 73.6373 102.016 74C101.365 74.352 100.635 74.5813 99.824 74.688L99.088 72.432ZM115.056 74.528C114.757 74.528 114.4 74.496 113.984 74.432C113.579 74.3787 113.152 74.2987 112.704 74.192C112.256 74.0853 111.829 73.9627 111.424 73.824L111.984 71.696C112.293 71.7813 112.597 71.8667 112.896 71.952C113.195 72.0267 113.467 72.0853 113.712 72.128C113.957 72.1707 114.155 72.192 114.304 72.192C114.581 72.192 114.8 72.0747 114.96 71.84C115.131 71.6053 115.253 71.2 115.328 70.624C115.403 70.0373 115.44 69.2267 115.44 68.192C115.44 67.648 115.419 67.2107 115.376 66.88C115.333 66.5387 115.259 66.2773 115.152 66.096C115.045 65.9147 114.885 65.792 114.672 65.728C114.469 65.664 114.203 65.632 113.872 65.632H107.008V63.376H113.6C114.4 63.376 115.067 63.408 115.6 63.472C116.133 63.536 116.56 63.664 116.88 63.856C117.211 64.0373 117.456 64.32 117.616 64.704C117.787 65.0773 117.893 65.5787 117.936 66.208C117.989 66.8267 118.016 67.6 118.016 68.528C118.016 69.9787 117.92 71.1467 117.728 72.032C117.536 72.9067 117.221 73.5413 116.784 73.936C116.357 74.3307 115.781 74.528 115.056 74.528ZM107.136 74.224C107.52 73.1573 107.856 72.192 108.144 71.328C108.443 70.4533 108.704 69.6267 108.928 68.848C109.163 68.0587 109.371 67.2693 109.552 66.48C109.744 65.68 109.925 64.8267 110.096 63.92C110.267 63.0027 110.448 61.9733 110.64 60.832L113.152 61.104C112.992 62.1813 112.827 63.184 112.656 64.112C112.485 65.0293 112.299 65.9147 112.096 66.768C111.893 67.6107 111.664 68.4587 111.408 69.312C111.163 70.1653 110.885 71.0507 110.576 71.968C110.267 72.8853 109.915 73.888 109.52 74.976L107.136 74.224ZM119.92 71.28C119.845 70.6507 119.739 69.9787 119.6 69.264C119.472 68.5493 119.323 67.8347 119.152 67.12C118.992 66.3947 118.816 65.696 118.624 65.024C118.443 64.3413 118.256 63.7173 118.064 63.152L120.512 62.576C120.715 63.1627 120.907 63.7973 121.088 64.48C121.28 65.1627 121.456 65.8667 121.616 66.592C121.787 67.3067 121.936 68.0213 122.064 68.736C122.192 69.4507 122.299 70.1387 122.384 70.8L119.92 71.28ZM124.48 70.32L123.664 68.176C125.541 67.7067 127.285 67.1093 128.896 66.384C130.507 65.6587 131.947 64.8427 133.216 63.936C134.496 63.0187 135.557 62.0533 136.4 61.04L138.32 62.304C137.392 63.3707 136.245 64.4053 134.88 65.408C133.515 66.4107 131.957 67.3333 130.208 68.176C128.459 69.008 126.549 69.7227 124.48 70.32ZM127.6 73.808L125.056 73.456C125.205 73.008 125.349 72.5013 125.488 71.936C125.637 71.36 125.771 70.784 125.888 70.208C126.016 69.6213 126.112 69.088 126.176 68.608L128.72 68.624C128.656 69.1573 128.565 69.728 128.448 70.336C128.331 70.944 128.197 71.5467 128.048 72.144C127.909 72.7413 127.76 73.296 127.6 73.808ZM134.352 75.488C134.107 75.488 133.765 75.4827 133.328 75.472C132.891 75.4613 132.416 75.4453 131.904 75.424C131.392 75.4133 130.901 75.4027 130.432 75.392L130.288 73.296C130.693 73.3067 131.104 73.3227 131.52 73.344C131.936 73.3547 132.315 73.3653 132.656 73.376C132.997 73.3867 133.248 73.392 133.408 73.392C133.557 73.392 133.675 73.3813 133.76 73.36C133.845 73.3387 133.915 73.2907 133.968 73.216C134.021 73.1307 134.064 72.9973 134.096 72.816C134.139 72.624 134.181 72.3627 134.224 72.032H127.856V70.128H137.184C137.077 71.3547 136.96 72.3253 136.832 73.04C136.715 73.7547 136.555 74.288 136.352 74.64C136.149 74.992 135.888 75.2213 135.568 75.328C135.248 75.4347 134.843 75.488 134.352 75.488ZM128.304 69.664L128.08 67.888C130.107 67.8027 131.947 67.6853 133.6 67.536C135.253 67.376 136.619 67.2053 137.696 67.024L138.144 68.864C137.035 69.0347 135.632 69.1947 133.936 69.344C132.24 69.4827 130.363 69.5893 128.304 69.664ZM123.728 66.576V64.608H128.88V63.616H125.072V61.728H128.88V60.688H131.488V61.728H134.688V63.616H131.488V64.608H138.672V66.576H123.728ZM142.72 75.056L141.168 73.152L149.872 66.752V67.392H141.856V65.136H152.704V67.392L148.64 70.512L147.376 70.48C147.397 70 147.541 69.6373 147.808 69.392C148.085 69.136 148.464 69.008 148.944 69.008C149.456 69.008 149.835 69.104 150.08 69.296C150.325 69.4773 150.491 69.712 150.576 70C150.672 70.2773 150.747 70.5653 150.8 70.864C150.843 71.1307 150.901 71.3867 150.976 71.632C151.051 71.8667 151.179 72.0587 151.36 72.208C151.541 72.3573 151.813 72.432 152.176 72.432C152.336 72.432 152.565 72.4213 152.864 72.4C153.163 72.368 153.477 72.3307 153.808 72.288C154.149 72.2347 154.448 72.1867 154.704 72.144L154.928 74.4C154.565 74.4853 154.203 74.5547 153.84 74.608C153.488 74.6613 153.147 74.6987 152.816 74.72C152.496 74.752 152.203 74.768 151.936 74.768C151.232 74.768 150.667 74.6827 150.24 74.512C149.813 74.352 149.488 74.1387 149.264 73.872C149.04 73.6053 148.875 73.3227 148.768 73.024C148.672 72.7253 148.597 72.448 148.544 72.192C148.501 71.9787 148.453 71.8027 148.4 71.664C148.357 71.5253 148.299 71.4187 148.224 71.344C148.16 71.2693 148.059 71.232 147.92 71.232C147.856 71.232 147.787 71.248 147.712 71.28C147.648 71.3013 147.547 71.36 147.408 71.456C147.28 71.552 147.077 71.7013 146.8 71.904L142.72 75.056ZM152.368 64.064C151.579 64.064 150.667 64.048 149.632 64.016C148.608 63.9733 147.536 63.92 146.416 63.856C145.307 63.792 144.213 63.7173 143.136 63.632L143.408 61.312C144.507 61.408 145.589 61.4987 146.656 61.584C147.723 61.6587 148.741 61.7173 149.712 61.76C150.683 61.792 151.568 61.808 152.368 61.808V64.064ZM164.768 75.024C163.531 75.024 162.56 74.7253 161.856 74.128C161.163 73.5413 160.816 72.7253 160.816 71.68C160.816 70.624 161.168 69.8027 161.872 69.216C162.587 68.6293 163.573 68.336 164.832 68.336C165.333 68.336 165.845 68.4267 166.368 68.608C166.901 68.7787 167.451 69.0453 168.016 69.408C168.592 69.76 169.189 70.208 169.808 70.752C170.427 71.296 171.072 71.9413 171.744 72.688L170.192 74.4C169.339 73.5253 168.635 72.8213 168.08 72.288C167.525 71.7547 167.061 71.3493 166.688 71.072C166.325 70.7947 166 70.6133 165.712 70.528C165.435 70.432 165.141 70.384 164.832 70.384C164.288 70.384 163.888 70.48 163.632 70.672C163.387 70.864 163.264 71.1787 163.264 71.616C163.264 72.0533 163.387 72.3787 163.632 72.592C163.888 72.8053 164.267 72.912 164.768 72.912C165.323 72.912 165.733 72.7947 166 72.56C166.267 72.3253 166.4 71.9787 166.4 71.52V63.072C167.371 63.072 168.283 63.088 169.136 63.12C170 63.1413 170.843 63.1787 171.664 63.232L171.52 65.488C170.805 65.4347 170.043 65.3973 169.232 65.376C168.432 65.344 167.611 65.328 166.768 65.328L168.928 63.696V71.248C168.928 72.5173 168.581 73.4613 167.888 74.08C167.195 74.7093 166.155 75.024 164.768 75.024ZM157.104 72.48C157.531 71.2427 157.925 70.0053 158.288 68.768C158.651 67.52 158.987 66.2453 159.296 64.944C159.616 63.6427 159.909 62.2987 160.176 60.912L162.624 61.12C162.368 62.5493 162.08 63.9467 161.76 65.312C161.44 66.6773 161.093 68.016 160.72 69.328C160.347 70.6293 159.936 71.9093 159.488 73.168L157.104 72.48ZM157.008 65.328V63.072H165.232V65.328H157.008ZM173.696 74.384C174.08 73.3173 174.416 72.352 174.704 71.488C175.003 70.6133 175.264 69.7867 175.488 69.008C175.723 68.2187 175.931 67.4293 176.112 66.64C176.304 65.84 176.485 64.9867 176.656 64.08C176.827 63.1627 177.008 62.1333 177.2 60.992L179.712 61.264C179.552 62.3413 179.387 63.344 179.216 64.272C179.045 65.1893 178.859 66.0747 178.656 66.928C178.453 67.7707 178.224 68.6187 177.968 69.472C177.723 70.3253 177.445 71.2107 177.136 72.128C176.827 73.0453 176.475 74.048 176.08 75.136L173.696 74.384ZM186.448 72.256C186.373 71.6267 186.267 70.9493 186.128 70.224C186 69.4987 185.851 68.768 185.68 68.032C185.52 67.296 185.344 66.592 185.152 65.92L187.584 65.28C187.776 65.984 187.957 66.7093 188.128 67.456C188.299 68.192 188.453 68.9333 188.592 69.68C188.731 70.416 188.843 71.1253 188.928 71.808L186.448 72.256ZM185.072 65.136C184.805 64.5707 184.528 64.0587 184.24 63.6C183.963 63.1307 183.653 62.656 183.312 62.176L184.864 61.312C185.216 61.7707 185.531 62.2453 185.808 62.736C186.085 63.2267 186.357 63.7653 186.624 64.352L185.072 65.136ZM187.408 64.272C187.152 63.696 186.891 63.1733 186.624 62.704C186.368 62.224 186.075 61.7493 185.744 61.28L187.28 60.48C187.621 60.96 187.92 61.4453 188.176 61.936C188.443 62.4267 188.704 62.9707 188.96 63.568L187.408 64.272ZM181.504 74.688C181.216 74.688 180.864 74.656 180.448 74.592C180.032 74.5387 179.6 74.4587 179.152 74.352C178.704 74.2453 178.277 74.1227 177.872 73.984L178.432 71.856C178.752 71.9413 179.061 72.0267 179.36 72.112C179.659 72.1867 179.931 72.2453 180.176 72.288C180.421 72.3307 180.613 72.352 180.752 72.352C181.04 72.352 181.264 72.2347 181.424 72C181.595 71.7653 181.712 71.36 181.776 70.784C181.851 70.1973 181.888 69.3867 181.888 68.352C181.888 67.808 181.867 67.3707 181.824 67.04C181.781 66.6987 181.707 66.4373 181.6 66.256C181.493 66.0747 181.339 65.952 181.136 65.888C180.933 65.824 180.661 65.792 180.32 65.792H173.568V63.536H180.048C180.859 63.536 181.531 63.568 182.064 63.632C182.597 63.696 183.024 63.824 183.344 64.016C183.664 64.1973 183.904 64.48 184.064 64.864C184.235 65.2373 184.347 65.7387 184.4 66.368C184.453 66.9867 184.48 67.76 184.48 68.688C184.48 70.1387 184.379 71.3067 184.176 72.192C183.984 73.0667 183.669 73.7013 183.232 74.096C182.805 74.4907 182.229 74.688 181.504 74.688ZM197.728 74.768C197.099 74.768 196.427 74.7413 195.712 74.688C195.008 74.6453 194.331 74.5813 193.68 74.496C193.029 74.4107 192.475 74.3147 192.016 74.208L192.24 71.952C192.869 72.0693 193.515 72.1707 194.176 72.256C194.837 72.3413 195.472 72.4053 196.08 72.448C196.688 72.4907 197.237 72.512 197.728 72.512C199.061 72.512 200.059 72.336 200.72 71.984C201.392 71.6213 201.728 71.0773 201.728 70.352C201.728 69.7547 201.499 69.3067 201.04 69.008C200.592 68.6987 199.925 68.544 199.04 68.544C198.411 68.544 197.771 68.6187 197.12 68.768C196.48 68.9067 195.867 69.1093 195.28 69.376C194.704 69.632 194.171 69.9413 193.68 70.304L191.36 69.84C191.509 69.104 191.632 68.4533 191.728 67.888C191.835 67.312 191.92 66.7787 191.984 66.288C192.059 65.7973 192.123 65.312 192.176 64.832L194.704 65.04C194.651 65.5627 194.587 66.0907 194.512 66.624C194.437 67.1467 194.347 67.6853 194.24 68.24L193.904 67.76C194.48 67.4187 195.051 67.1413 195.616 66.928C196.181 66.7147 196.757 66.56 197.344 66.464C197.931 66.3573 198.549 66.304 199.2 66.304C200.928 66.304 202.219 66.6347 203.072 67.296C203.936 67.9573 204.368 68.9547 204.368 70.288C204.368 71.792 203.813 72.9173 202.704 73.664C201.605 74.4 199.947 74.768 197.728 74.768ZM202.56 64.192C201.515 64.2133 200.501 64.2133 199.52 64.192C198.549 64.1707 197.584 64.1227 196.624 64.048C195.664 63.9627 194.677 63.8507 193.664 63.712L193.936 61.472C194.843 61.568 195.787 61.6533 196.768 61.728C197.749 61.8027 198.725 61.8613 199.696 61.904C200.677 61.936 201.632 61.952 202.56 61.952V64.192ZM209.072 75.552V68.048H206.992V66.048H209.136V60.928H211.264V66.048H213.12V68.048H211.312V75.552H209.072ZM207.536 74.112L206.608 71.616C207.248 70.8267 207.76 70.0213 208.144 69.2C208.539 68.3787 208.832 67.5093 209.024 66.592L209.888 67.2C209.835 68.1173 209.696 69.0133 209.472 69.888C209.259 70.752 208.981 71.5467 208.64 72.272C208.309 72.9973 207.941 73.6107 207.536 74.112ZM212.144 72.464C211.803 71.6533 211.456 70.848 211.104 70.048C210.763 69.2373 210.395 68.3893 210 67.504L211.328 66.784C211.712 67.52 212.085 68.2453 212.448 68.96C212.811 69.664 213.179 70.3947 213.552 71.152L212.144 72.464ZM207.712 65.808C207.563 65.2 207.403 64.576 207.232 63.936C207.061 63.296 206.896 62.7147 206.736 62.192L208.368 61.6C208.539 62.1333 208.699 62.7147 208.848 63.344C209.008 63.9627 209.152 64.592 209.28 65.232L207.712 65.808ZM213.088 73.52L212.88 71.376L222.032 69.664L222.24 71.808L213.088 73.52ZM216.144 70.24C215.675 69.728 215.173 69.1947 214.64 68.64C214.107 68.0853 213.541 67.5307 212.944 66.976L214.608 65.44C215.205 65.984 215.771 66.528 216.304 67.072C216.848 67.6053 217.349 68.1333 217.808 68.656L216.144 70.24ZM212.624 65.824L210.992 65.168C211.205 64.6027 211.397 63.9947 211.568 63.344C211.739 62.6933 211.872 62.0853 211.968 61.52L213.728 61.904C213.6 62.5227 213.435 63.1787 213.232 63.872C213.04 64.5547 212.837 65.2053 212.624 65.824ZM218.336 75.552V60.928H220.816V75.552H218.336ZM216.784 65.984C216.379 65.5253 215.941 65.056 215.472 64.576C215.003 64.096 214.512 63.6107 214 63.12L215.664 61.6C216.176 62.0693 216.667 62.5387 217.136 63.008C217.605 63.4773 218.043 63.936 218.448 64.384L216.784 65.984ZM227.648 75.168V73.152H232.048V72.032H228.512V70.16H232.048V65.952H230.72V64.432H232.048V63.088H234.544V64.432H235.888V63.088H230.72V69.088H228.576V61.152H238.08V69.088H230.72V67.328H235.888V65.952H234.544V70.16H238.272V72.032H234.544V73.152H238.448V75.168H227.648ZM223.76 74.208L223.536 72.064C224.016 71.9787 224.523 71.872 225.056 71.744C225.6 71.616 226.139 71.4773 226.672 71.328C227.216 71.1787 227.717 71.0293 228.176 70.88L228.192 72.96C227.755 73.12 227.275 73.28 226.752 73.44C226.229 73.6 225.707 73.7493 225.184 73.888C224.661 74.016 224.187 74.1227 223.76 74.208ZM224.736 72.24V68.368H223.776V66.224H224.736V63.888H223.616V61.68H228.192V63.888H227.104V66.224H228.096V68.368H227.104V72.24H224.736ZM49.024 100.632C49.024 99.448 48.9653 98.5307 48.848 97.88C48.7413 97.2187 48.5493 96.76 48.272 96.504C47.9947 96.248 47.6 96.12 47.088 96.12C46.5973 96.12 46.128 96.232 45.68 96.456C45.2427 96.68 44.8 97.0427 44.352 97.544C43.904 98.0347 43.424 98.6907 42.912 99.512L40.784 98.296C41.328 97.5067 41.8027 96.776 42.208 96.104C42.6133 95.432 42.976 94.776 43.296 94.136C43.6267 93.4853 43.9253 92.8133 44.192 92.12C44.4693 91.4267 44.7413 90.6693 45.008 89.848L47.584 90.264C47.2747 91.1813 46.944 92.0347 46.592 92.824C46.2507 93.6027 45.8827 94.36 45.488 95.096L45.152 94.888C45.568 94.6853 46.016 94.536 46.496 94.44C46.976 94.3333 47.44 94.28 47.888 94.28C48.7733 94.28 49.488 94.4933 50.032 94.92C50.5867 95.3467 50.9867 96.0293 51.232 96.968C51.488 97.896 51.616 99.1173 51.616 100.632H49.024ZM49.104 104.104C47.44 104.104 46.1387 103.837 45.2 103.304C44.272 102.781 43.808 102.045 43.808 101.096C43.808 100.435 44.0373 99.8 44.496 99.192C44.9547 98.584 45.6267 98.0187 46.512 97.496C47.408 96.9627 48.496 96.4827 49.776 96.056C51.0667 95.6293 52.528 95.2613 54.16 94.952L54.528 97.064C53.2693 97.3093 52.1387 97.5813 51.136 97.88C50.1333 98.1787 49.2747 98.4933 48.56 98.824C47.856 99.1547 47.3173 99.4907 46.944 99.832C46.5707 100.173 46.384 100.515 46.384 100.856C46.384 101.219 46.6187 101.496 47.088 101.688C47.5573 101.88 48.24 101.976 49.136 101.976C49.744 101.976 50.448 101.933 51.248 101.848C52.0587 101.752 52.9867 101.619 54.032 101.448L54.352 103.608C53.7973 103.704 53.2 103.789 52.56 103.864C51.9307 103.939 51.312 103.997 50.704 104.04C50.1067 104.083 49.5733 104.104 49.104 104.104ZM40.912 93.432V91.368H53.792V93.432H40.912ZM60.368 101.912C61.296 101.869 62.1333 101.757 62.88 101.576C63.6267 101.384 64.2187 101.144 64.656 100.856C65.104 100.568 65.328 100.259 65.328 99.928V99.56L65.968 99.832C65.84 99.9707 65.68 100.099 65.488 100.216C65.296 100.323 65.0827 100.419 64.848 100.504C64.624 100.579 64.384 100.643 64.128 100.696C63.8827 100.739 63.632 100.76 63.376 100.76C62.64 100.76 61.9947 100.621 61.44 100.344C60.896 100.067 60.4747 99.6773 60.176 99.176C59.8773 98.6747 59.728 98.0933 59.728 97.432C59.728 96.7707 59.888 96.1893 60.208 95.688C60.5387 95.1867 60.992 94.7973 61.568 94.52C62.144 94.232 62.8053 94.088 63.552 94.088C63.936 94.088 64.2827 94.1467 64.592 94.264C64.912 94.3707 65.3013 94.5573 65.76 94.824L64.8 95.272V89.944H67.408V97.352L67.232 96.392C67.4667 96.7227 67.6373 97.0853 67.744 97.48C67.8507 97.864 67.904 98.3013 67.904 98.792C67.904 99.8693 67.6267 100.803 67.072 101.592C66.528 102.371 65.728 102.973 64.672 103.4C63.616 103.837 62.32 104.093 60.784 104.168L60.368 101.912ZM63.712 98.84C63.936 98.84 64.1333 98.808 64.304 98.744C64.4853 98.6693 64.64 98.5733 64.768 98.456C64.896 98.328 64.992 98.1787 65.056 98.008C65.1307 97.8267 65.168 97.6293 65.168 97.416C65.168 97 65.0347 96.664 64.768 96.408C64.5013 96.1413 64.1493 96.008 63.712 96.008C63.2853 96.008 62.9387 96.1413 62.672 96.408C62.4053 96.664 62.272 97 62.272 97.416C62.272 97.8427 62.4053 98.1893 62.672 98.456C62.9387 98.712 63.2853 98.84 63.712 98.84ZM57.488 93.624V91.576H71.792V93.624H57.488ZM80.96 104.168C79.3387 104.168 78.0747 103.896 77.168 103.352C76.272 102.808 75.824 102.051 75.824 101.08C75.824 100.248 76.1707 99.6027 76.864 99.144C77.568 98.6747 78.528 98.44 79.744 98.44C80.8427 98.44 81.664 98.6427 82.208 99.048C82.752 99.4427 83.024 100.04 83.024 100.84C83.024 101.128 82.992 101.432 82.928 101.752C82.864 102.072 82.7733 102.381 82.656 102.68L80.464 102.456C80.5813 102.157 80.672 101.896 80.736 101.672C80.8 101.437 80.832 101.245 80.832 101.096C80.832 100.552 80.4107 100.28 79.568 100.28C79.1307 100.28 78.7947 100.349 78.56 100.488C78.3253 100.616 78.208 100.808 78.208 101.064C78.208 101.427 78.4107 101.704 78.816 101.896C79.2213 102.088 79.824 102.184 80.624 102.184C82.2027 102.184 83.3547 101.965 84.08 101.528C84.816 101.091 85.184 100.413 85.184 99.496C85.184 98.6853 84.8853 98.0987 84.288 97.736C83.7013 97.3627 82.736 97.176 81.392 97.176C80.624 97.176 79.952 97.24 79.376 97.368C78.8 97.496 78.2507 97.6933 77.728 97.96L75.744 99.032L74.72 97.048L83.04 92.792V93.128H75.68V90.952H86.976V93.128L78.768 97.416L77.44 96.248C77.8027 96.1307 78.2187 96.0187 78.688 95.912C79.1573 95.8053 79.6427 95.7093 80.144 95.624C80.6453 95.5387 81.1307 95.4747 81.6 95.432C82.0693 95.3787 82.4853 95.352 82.848 95.352C84.448 95.352 85.68 95.6987 86.544 96.392C87.408 97.0747 87.84 98.056 87.84 99.336C87.84 100.883 87.2427 102.077 86.048 102.92C84.8533 103.752 83.1573 104.168 80.96 104.168ZM94.768 103.848C93.488 103.848 92.5013 103.576 91.808 103.032C91.1147 102.499 90.768 101.731 90.768 100.728C90.768 99.7147 91.1093 98.9467 91.792 98.424C92.4747 97.8907 93.4667 97.624 94.768 97.624C95.472 97.624 96.1707 97.704 96.864 97.864C97.568 98.0133 98.304 98.2587 99.072 98.6C99.84 98.9413 100.667 99.3893 101.552 99.944C102.448 100.488 103.435 101.155 104.512 101.944L103.36 103.272C102.123 102.323 101.003 101.555 100 100.968C99.008 100.371 98.0853 99.9333 97.232 99.656C96.3787 99.3787 95.5573 99.24 94.768 99.24C94.032 99.24 93.4827 99.3627 93.12 99.608C92.7573 99.8427 92.576 100.216 92.576 100.728C92.576 101.731 93.2747 102.232 94.672 102.232C95.4613 102.232 96.0373 102.072 96.4 101.752C96.7627 101.421 96.944 100.909 96.944 100.216V90.104H98.848V92.68H104.512V94.296H98.848V100.216C98.848 101.453 98.5173 102.371 97.856 102.968C97.1947 103.555 96.1653 103.848 94.768 103.848ZM110.384 102.136C111.685 102.083 112.853 101.955 113.888 101.752C114.923 101.539 115.808 101.261 116.544 100.92C117.28 100.579 117.84 100.189 118.224 99.752C118.608 99.304 118.8 98.808 118.8 98.264C118.8 97.656 118.528 97.2027 117.984 96.904C117.451 96.5947 116.629 96.44 115.52 96.44C114.976 96.44 114.373 96.4773 113.712 96.552C113.051 96.616 112.288 96.728 111.424 96.888C110.56 97.048 109.541 97.256 108.368 97.512L107.904 95.752C109.461 95.4 110.88 95.1387 112.16 94.968C113.44 94.7867 114.571 94.696 115.552 94.696C117.312 94.696 118.635 94.984 119.52 95.56C120.405 96.136 120.848 96.9947 120.848 98.136C120.848 98.9787 120.613 99.7467 120.144 100.44C119.685 101.123 119.019 101.715 118.144 102.216C117.269 102.717 116.213 103.112 114.976 103.4C113.749 103.688 112.363 103.859 110.816 103.912L110.384 102.136ZM118.448 92.856C117.712 92.856 116.88 92.84 115.952 92.808C115.035 92.7653 114.08 92.7067 113.088 92.632C112.107 92.5467 111.152 92.456 110.224 92.36L110.464 90.504C111.253 90.6107 112.112 90.7067 113.04 90.792C113.968 90.8773 114.901 90.9413 115.84 90.984C116.779 91.0267 117.648 91.048 118.448 91.048V92.856ZM133.792 103.176C132.832 103.176 131.973 103.043 131.216 102.776C130.469 102.509 129.883 102.141 129.456 101.672C129.04 101.192 128.832 100.648 128.832 100.04C128.832 98.952 129.541 97.832 130.96 96.68L132.336 97.72C131.771 98.1787 131.355 98.5787 131.088 98.92C130.832 99.2613 130.704 99.5867 130.704 99.896C130.704 100.216 130.832 100.493 131.088 100.728C131.344 100.963 131.701 101.144 132.16 101.272C132.619 101.4 133.163 101.464 133.792 101.464C134.325 101.464 134.923 101.427 135.584 101.352C136.256 101.267 136.933 101.155 137.616 101.016L137.872 102.696C137.179 102.845 136.48 102.963 135.776 103.048C135.083 103.133 134.421 103.176 133.792 103.176ZM129.568 93.496V91.768H137.776V93.496H129.568ZM125.712 103.88C125.435 102.781 125.232 101.699 125.104 100.632C124.976 99.5653 124.912 98.4347 124.912 97.24C124.912 96.056 124.976 94.936 125.104 93.88C125.232 92.8133 125.435 91.7307 125.712 90.632L127.616 90.872C127.36 91.9067 127.168 92.9467 127.04 93.992C126.923 95.0267 126.864 96.1093 126.864 97.24C126.864 98.3707 126.923 99.4587 127.04 100.504C127.168 101.549 127.36 102.579 127.616 103.592L125.712 103.88ZM147.856 103.896C146.661 103.896 145.733 103.619 145.072 103.064C144.411 102.52 144.08 101.768 144.08 100.808C144.08 99.816 144.421 99.0533 145.104 98.52C145.787 97.976 146.747 97.704 147.984 97.704C148.507 97.704 149.024 97.784 149.536 97.944C150.048 98.104 150.581 98.3493 151.136 98.68C151.691 99.0107 152.283 99.4373 152.912 99.96C153.552 100.483 154.24 101.117 154.976 101.864L153.824 103.144C152.971 102.312 152.251 101.64 151.664 101.128C151.088 100.605 150.592 100.211 150.176 99.944C149.771 99.6667 149.397 99.48 149.056 99.384C148.725 99.288 148.368 99.24 147.984 99.24C147.259 99.24 146.725 99.3627 146.384 99.608C146.053 99.8533 145.888 100.232 145.888 100.744C145.888 101.267 146.053 101.661 146.384 101.928C146.715 102.184 147.205 102.312 147.856 102.312C148.571 102.312 149.104 102.157 149.456 101.848C149.819 101.539 150 101.096 150 100.52V92.248C150.939 92.248 151.808 92.264 152.608 92.296C153.419 92.3173 154.213 92.3547 154.992 92.408L154.88 94.088C154.187 94.0347 153.461 93.9973 152.704 93.976C151.957 93.944 151.157 93.928 150.304 93.928L151.856 92.728V100.328C151.856 101.501 151.52 102.392 150.848 103C150.176 103.597 149.179 103.896 147.856 103.896ZM140.576 101.352C141.045 100.083 141.477 98.8347 141.872 97.608C142.267 96.3707 142.635 95.1227 142.976 93.864C143.317 92.5947 143.632 91.2933 143.92 89.96L145.728 90.136C145.44 91.5013 145.12 92.84 144.768 94.152C144.427 95.4533 144.053 96.744 143.648 98.024C143.253 99.304 142.816 100.589 142.336 101.88L140.576 101.352ZM140.448 93.928V92.248H148.512V93.928H140.448ZM161.28 101.528C162.891 101.528 164.197 101.421 165.2 101.208C166.213 100.984 166.955 100.637 167.424 100.168C167.893 99.6987 168.128 99.096 168.128 98.36C168.128 97.5387 167.856 96.9253 167.312 96.52C166.779 96.1147 165.963 95.912 164.864 95.912C164.427 95.912 163.947 95.9493 163.424 96.024C162.901 96.088 162.299 96.1893 161.616 96.328C160.944 96.4667 160.16 96.6533 159.264 96.888L158.896 95.08C160.251 94.76 161.424 94.5253 162.416 94.376C163.408 94.216 164.261 94.136 164.976 94.136C166.608 94.136 167.861 94.488 168.736 95.192C169.611 95.896 170.048 96.904 170.048 98.216C170.048 99.88 169.317 101.139 167.856 101.992C166.405 102.845 164.251 103.272 161.392 103.272L161.28 101.528ZM174.512 103.672C174.96 102.232 175.365 100.771 175.728 99.288C176.101 97.7947 176.427 96.28 176.704 94.744C176.992 93.1973 177.237 91.64 177.44 90.072L179.344 90.152C179.163 91.688 178.928 93.24 178.64 94.808C178.363 96.376 178.037 97.9333 177.664 99.48C177.291 101.016 176.875 102.525 176.416 104.008L174.512 103.672ZM184.432 103.688C183.461 103.688 182.619 103.571 181.904 103.336C181.189 103.112 180.635 102.797 180.24 102.392C179.845 101.976 179.648 101.48 179.648 100.904C179.648 100.477 179.792 100.056 180.08 99.64C180.368 99.224 180.811 98.792 181.408 98.344L182.848 99.368C182.443 99.624 182.139 99.864 181.936 100.088C181.744 100.301 181.648 100.515 181.648 100.728C181.648 100.973 181.76 101.192 181.984 101.384C182.219 101.565 182.544 101.709 182.96 101.816C183.387 101.923 183.877 101.976 184.432 101.976C184.933 101.976 185.445 101.949 185.968 101.896C186.491 101.843 187.035 101.763 187.6 101.656L187.808 103.368C187.221 103.475 186.656 103.555 186.112 103.608C185.568 103.661 185.008 103.688 184.432 103.688ZM174.288 93.736V92.072H185.552V93.736H174.288ZM180.272 95.544C181.531 95.4267 182.763 95.336 183.968 95.272C185.184 95.208 186.4 95.176 187.616 95.176V96.856C186.421 96.856 185.221 96.888 184.016 96.952C182.821 97.0053 181.611 97.1013 180.384 97.24L180.272 95.544Z" fill="#282828"/>
<path opacity="0.6" d="M49.016 126.68C49.016 124.09 50.122 121.808 52.432 119.946C52.558 119.834 52.712 119.778 52.852 119.778C53.118 119.778 53.37 120.016 53.37 120.282C53.37 120.464 53.3 120.59 53.16 120.716C51.144 122.438 50.304 124.384 50.304 126.68C50.304 128.976 51.144 130.922 53.16 132.644C53.3 132.77 53.37 132.896 53.37 133.078C53.37 133.344 53.118 133.582 52.852 133.582C52.712 133.582 52.558 133.526 52.432 133.414C50.122 131.552 49.016 129.27 49.016 126.68ZM56.814 130.432H60.734C61.238 130.432 61.476 130.74 61.476 131.16C61.476 131.58 61.238 131.874 60.734 131.874H55.568C55.064 131.874 54.742 131.496 54.742 130.978C54.742 130.572 54.882 130.278 55.176 130.026C56.296 129.032 57.234 128.178 58.326 126.904C59.194 125.882 59.572 125.154 59.572 124.342C59.572 123.292 59.026 122.76 58.144 122.76C57.57 122.76 56.94 123.012 56.268 123.67C56.1 123.824 55.932 123.908 55.736 123.908C55.26 123.908 54.924 123.572 54.924 123.124C54.924 122.9 54.994 122.76 55.204 122.55C55.946 121.822 57.08 121.318 58.13 121.318C60.132 121.318 61.252 122.522 61.252 124.314C61.252 125.602 60.804 126.47 59.544 127.8C58.382 129.018 57.696 129.634 56.814 130.432ZM66.4152 121.318C68.5432 121.318 69.9572 122.83 69.9572 126.708C69.9572 130.586 68.5432 132.098 66.4152 132.098C64.2872 132.098 62.9012 130.586 62.9012 126.708C62.9012 122.83 64.2872 121.318 66.4152 121.318ZM66.4152 122.718C65.2532 122.718 64.5532 123.698 64.5532 126.708C64.5532 129.718 65.2532 130.698 66.4152 130.698C67.5912 130.698 68.3052 129.718 68.3052 126.708C68.3052 123.698 67.5912 122.718 66.4152 122.718ZM73.0903 132.7V126.092C72.8523 126.456 72.6003 126.806 72.3483 127.114C72.1663 127.338 71.9423 127.436 71.7323 127.436C71.3263 127.436 70.9483 127.1 70.9483 126.694C70.9483 126.526 71.0043 126.358 71.1443 126.176C72.2503 124.804 73.2723 122.69 73.8323 120.814C73.9443 120.45 74.2523 120.282 74.5743 120.282C74.9943 120.282 75.4143 120.548 75.4143 120.996C75.4143 121.066 75.4003 121.15 75.3723 121.234C75.0643 122.284 74.5603 123.46 73.9863 124.552C74.3223 124.594 74.6163 124.79 74.6163 125.154V132.7C74.6163 133.078 74.2383 133.274 73.8603 133.274C73.4683 133.274 73.0903 133.078 73.0903 132.7ZM79.2503 124.258L83.1003 123.922H83.1563C83.5343 123.922 83.7303 124.286 83.7303 124.65C83.7303 124.972 83.5763 125.28 83.2263 125.308L79.4323 125.644C79.6283 126.848 79.9223 127.954 80.3283 128.92C81.1123 130.782 81.7563 131.244 82.1763 131.244C82.3583 131.244 82.5263 131.062 82.6243 130.152C82.6663 129.718 82.9883 129.522 83.3243 129.522C83.7023 129.522 84.1083 129.788 84.1083 130.264V130.362C83.9123 132.308 83.1843 132.896 82.2463 132.896C81.0143 132.896 79.8243 131.72 78.8303 129.34C78.3963 128.29 78.0743 127.1 77.8643 125.77L75.8203 125.952H75.7643C75.3863 125.952 75.1903 125.588 75.1903 125.238C75.1903 124.916 75.3583 124.608 75.6943 124.58L77.6963 124.398C77.5843 123.306 77.5283 122.13 77.5283 120.898C77.5283 120.464 77.9203 120.254 78.3123 120.254C78.7043 120.254 79.0963 120.464 79.0963 120.898C79.0963 122.088 79.1383 123.208 79.2503 124.258ZM80.9023 121.192C81.2803 121.472 81.6303 121.766 81.9243 122.06C82.0923 122.242 82.1763 122.438 82.1763 122.606C82.1763 123.012 81.8123 123.362 81.4203 123.362C81.2523 123.362 81.0703 123.278 80.9163 123.11C80.6223 122.774 80.3143 122.48 79.9643 122.2C79.7963 122.06 79.7123 121.892 79.7123 121.724C79.7123 121.374 80.0483 121.024 80.4403 121.024C80.5943 121.024 80.7483 121.08 80.9023 121.192ZM85.3683 132.42L96.9043 120.156C97.0303 120.03 97.1703 119.932 97.2963 119.932C97.6603 119.932 97.9683 120.226 97.9683 120.506C97.9683 120.66 97.9123 120.8 97.7723 120.94L86.2363 133.204C86.1103 133.33 85.9703 133.428 85.8443 133.428C85.4803 133.428 85.1723 133.134 85.1723 132.854C85.1723 132.7 85.2283 132.56 85.3683 132.42ZM111.408 124.874H109.378C109.238 125.42 109.028 126.12 108.776 126.722C108.412 127.59 107.95 128.388 107.39 129.116C108.524 129.69 109.644 130.334 110.652 131.048C110.918 131.23 111.03 131.482 111.03 131.72C111.03 132.14 110.666 132.546 110.218 132.546C110.05 132.546 109.868 132.49 109.686 132.364C108.636 131.594 107.474 130.88 106.312 130.278C104.744 131.664 102.784 132.462 100.572 132.882C100.502 132.896 100.446 132.896 100.376 132.896C99.9143 132.896 99.6483 132.546 99.6483 132.182C99.6483 131.874 99.8443 131.552 100.278 131.468C102.07 131.118 103.61 130.544 104.856 129.564C104.184 129.284 103.526 129.004 102.84 128.766L102.784 128.864C102.588 129.2 102.294 129.34 102.014 129.34C101.608 129.34 101.216 129.06 101.216 128.654C101.216 128.542 101.244 128.416 101.328 128.276C101.972 127.156 102.546 126.036 103.022 124.874H99.7323C99.3683 124.874 99.1723 124.538 99.1723 124.202C99.1723 123.866 99.3683 123.53 99.7323 123.53H103.54C103.862 122.62 104.142 121.668 104.422 120.646C104.52 120.296 104.842 120.128 105.164 120.128C105.57 120.128 105.976 120.366 105.976 120.786C105.976 120.842 105.962 120.898 105.948 120.968C105.71 121.85 105.458 122.704 105.164 123.53H111.408C111.786 123.53 111.982 123.866 111.982 124.202C111.982 124.538 111.786 124.874 111.408 124.874ZM107.726 124.874H104.674C104.296 125.784 103.904 126.68 103.47 127.562C104.324 127.828 105.164 128.122 105.976 128.472C106.83 127.436 107.404 126.176 107.726 124.874ZM121.18 131.356V128.584H119.052C118.702 128.584 118.534 128.234 118.534 127.898C118.534 127.548 118.702 127.212 119.052 127.212H121.18V124.874H119.57C119.402 125.252 119.22 125.616 119.038 125.952C118.856 126.288 118.562 126.428 118.296 126.428C117.932 126.428 117.596 126.176 117.596 125.784C117.596 125.644 117.638 125.49 117.736 125.322C118.282 124.384 118.716 123.236 118.996 121.976C119.08 121.598 119.388 121.416 119.682 121.416C120.046 121.416 120.41 121.668 120.41 122.088C120.41 122.144 120.41 122.186 120.396 122.242C120.312 122.676 120.2 123.11 120.06 123.53H121.18V120.87C121.18 120.45 121.558 120.24 121.936 120.24C122.314 120.24 122.692 120.45 122.692 120.87V123.53H125.254C125.618 123.53 125.8 123.866 125.8 124.202C125.8 124.538 125.618 124.874 125.254 124.874H122.692V127.212H124.75C125.1 127.212 125.282 127.548 125.282 127.898C125.282 128.234 125.1 128.584 124.75 128.584H122.692V131.356H125.548C125.898 131.356 126.08 131.692 126.08 132.042C126.08 132.378 125.898 132.728 125.548 132.728H117.834C117.498 132.728 117.316 132.378 117.316 132.042C117.316 131.692 117.498 131.356 117.834 131.356H121.18ZM116.294 120.772V132.616C116.294 133.036 115.916 133.246 115.538 133.246C115.146 133.246 114.768 133.036 114.768 132.616V120.772C114.768 120.352 115.146 120.156 115.538 120.156C115.916 120.156 116.294 120.352 116.294 120.772ZM113.452 123.558C113.494 123.236 113.746 123.082 113.998 123.082C114.292 123.082 114.572 123.278 114.572 123.628V123.698C114.516 124.328 114.362 125.168 114.18 125.77C114.082 126.078 113.844 126.218 113.606 126.218C113.312 126.218 113.032 126.008 113.032 125.686C113.032 125.63 113.032 125.56 113.06 125.49C113.242 124.902 113.382 124.104 113.452 123.558ZM117.512 123.012C117.652 123.432 117.778 123.936 117.834 124.314V124.412C117.834 124.79 117.526 125.014 117.246 125.014C117.008 125.014 116.784 124.874 116.728 124.552C116.658 124.132 116.56 123.6 116.462 123.264C116.448 123.208 116.434 123.138 116.434 123.082C116.434 122.788 116.7 122.606 116.966 122.606C117.19 122.606 117.414 122.732 117.512 123.012ZM131.554 126.68C131.554 129.27 130.448 131.552 128.138 133.414C128.012 133.526 127.858 133.582 127.718 133.582C127.452 133.582 127.2 133.344 127.2 133.078C127.2 132.896 127.27 132.77 127.41 132.644C129.426 130.922 130.266 128.976 130.266 126.68C130.266 124.384 129.426 122.438 127.41 120.716C127.27 120.59 127.2 120.464 127.2 120.282C127.2 120.016 127.452 119.778 127.718 119.778C127.858 119.778 128.012 119.834 128.138 119.946C130.448 121.808 131.554 124.09 131.554 126.68Z" fill="#282828"/>
<path d="M222.177 203L204.177 161L173 161L222.177 203Z" fill="#FFF464"/>
</svg>
