<svg width="327" height="279" viewBox="0 0 327 279" fill="none" xmlns="http://www.w3.org/2000/svg">
<rect width="327" height="182" rx="80" fill="#54B6CB"/>
<path d="M43.34 52.94V43.56H40.74V41.06H43.42V34.66H46.08V41.06H48.4V43.56H46.14V52.94H43.34ZM41.42 51.14L40.26 48.02C41.06 47.0333 41.7 46.0267 42.18 45C42.6733 43.9733 43.04 42.8867 43.28 41.74L44.36 42.5C44.2933 43.6467 44.12 44.7667 43.84 45.86C43.5733 46.94 43.2267 47.9333 42.8 48.84C42.3867 49.7467 41.9267 50.5133 41.42 51.14ZM47.18 49.08C46.7533 48.0667 46.32 47.06 45.88 46.06C45.4533 45.0467 44.9933 43.9867 44.5 42.88L46.16 41.98C46.64 42.9 47.1067 43.8067 47.56 44.7C48.0133 45.58 48.4733 46.4933 48.94 47.44L47.18 49.08ZM41.64 40.76C41.4533 40 41.2533 39.22 41.04 38.42C40.8267 37.62 40.62 36.8933 40.42 36.24L42.46 35.5C42.6733 36.1667 42.8733 36.8933 43.06 37.68C43.26 38.4533 43.44 39.24 43.6 40.04L41.64 40.76ZM48.36 50.4L48.1 47.72L59.54 45.58L59.8 48.26L48.36 50.4ZM52.18 46.3C51.5933 45.66 50.9667 44.9933 50.3 44.3C49.6333 43.6067 48.9267 42.9133 48.18 42.22L50.26 40.3C51.0067 40.98 51.7133 41.66 52.38 42.34C53.06 43.0067 53.6867 43.6667 54.26 44.32L52.18 46.3ZM47.78 40.78L45.74 39.96C46.0067 39.2533 46.2467 38.4933 46.46 37.68C46.6733 36.8667 46.84 36.1067 46.96 35.4L49.16 35.88C49 36.6533 48.7933 37.4733 48.54 38.34C48.3 39.1933 48.0467 40.0067 47.78 40.78ZM54.92 52.94V34.66H58.02V52.94H54.92ZM52.98 40.98C52.4733 40.4067 51.9267 39.82 51.34 39.22C50.7533 38.62 50.14 38.0133 49.5 37.4L51.58 35.5C52.22 36.0867 52.8333 36.6733 53.42 37.26C54.0067 37.8467 54.5533 38.42 55.06 38.98L52.98 40.98ZM65.76 52.46V49.94H71.26V48.54H66.84V46.2H71.26V40.94H69.6V39.04H71.26V37.36H74.38V39.04H76.06V37.36H69.6V44.86H66.92V34.94H78.8V44.86H69.6V42.66H76.06V40.94H74.38V46.2H79.04V48.54H74.38V49.94H79.26V52.46H65.76ZM60.9 51.26L60.62 48.58C61.22 48.4733 61.8533 48.34 62.52 48.18C63.2 48.02 63.8733 47.8467 64.54 47.66C65.22 47.4733 65.8467 47.2867 66.42 47.1L66.44 49.7C65.8933 49.9 65.2933 50.1 64.64 50.3C63.9867 50.5 63.3333 50.6867 62.68 50.86C62.0267 51.02 61.4333 51.1533 60.9 51.26ZM62.12 48.8V43.96H60.92V41.28H62.12V38.36H60.72V35.6H66.44V38.36H65.08V41.28H66.32V43.96H65.08V48.8H62.12ZM85.84 48.68C87.8133 48.68 89.3933 48.5667 90.58 48.34C91.7667 48.1 92.62 47.7267 93.14 47.22C93.6733 46.7133 93.94 46.0467 93.94 45.22C93.94 44.34 93.66 43.7 93.1 43.3C92.5533 42.9 91.6733 42.7 90.46 42.7C89.9267 42.7 89.34 42.7467 88.7 42.84C88.06 42.92 87.3133 43.0467 86.46 43.22C85.62 43.38 84.62 43.6067 83.46 43.9L82.88 40.94C84.64 40.5533 86.1533 40.2667 87.42 40.08C88.6867 39.8933 89.7667 39.8 90.66 39.8C92.7667 39.8 94.3667 40.24 95.46 41.12C96.5533 42 97.1 43.28 97.1 44.96C97.1 47.12 96.1667 48.7533 94.3 49.86C92.4467 50.9667 89.6933 51.52 86.04 51.52L85.84 48.68ZM113.94 51.9C112.26 51.9 110.8 51.62 109.56 51.06C108.32 50.5133 107.36 49.7333 106.68 48.72C106 47.7067 105.66 46.5133 105.66 45.14C105.66 44.18 105.82 43.2867 106.14 42.46C106.46 41.6333 106.92 40.9 107.52 40.26C108.133 39.6067 108.86 39.0867 109.7 38.7L110.02 39.34L101.32 39.54V36.64L118.38 36.24V39.14L115.82 39.2C114.9 39.2133 114.033 39.3533 113.22 39.62C112.407 39.8867 111.693 40.2667 111.08 40.76C110.467 41.24 109.987 41.82 109.64 42.5C109.307 43.18 109.14 43.9467 109.14 44.8C109.14 45.68 109.327 46.4267 109.7 47.04C110.073 47.64 110.62 48.1067 111.34 48.44C112.073 48.76 112.947 48.92 113.96 48.92C114.333 48.92 114.753 48.9 115.22 48.86C115.687 48.82 116.12 48.76 116.52 48.68L116.88 51.66C116.387 51.74 115.88 51.8 115.36 51.84C114.853 51.88 114.38 51.9 113.94 51.9ZM128.36 45.86C128.36 45.8067 128.36 45.76 128.36 45.72C128.36 45.6667 128.36 45.62 128.36 45.58V44.48H122.9V42.34H128.36V41.4H122.7V39.16H128.36V37.88H131.64V39.16H137.3V41.4H131.64V42.34H137.1V44.48H131.64V45.58C131.64 45.62 131.64 45.6667 131.64 45.72C131.64 45.76 131.64 45.8067 131.64 45.86H128.36ZM121.98 52.86L120.88 50.16C122.107 50 123.173 49.8067 124.08 49.58C125 49.34 125.753 49.0667 126.34 48.76C126.94 48.4533 127.4 48.1267 127.72 47.78H132.28C132.587 48.1133 133.04 48.4333 133.64 48.74C134.24 49.0467 134.993 49.32 135.9 49.56C136.807 49.8 137.88 50 139.12 50.16L138.02 52.86C136.847 52.6733 135.76 52.3933 134.76 52.02C133.773 51.66 132.893 51.24 132.12 50.76C131.347 50.28 130.693 49.7733 130.16 49.24C129.627 49.7733 128.953 50.28 128.14 50.76C127.34 51.24 126.42 51.66 125.38 52.02C124.34 52.3933 123.207 52.6733 121.98 52.86ZM120.98 47.9V45.46H139.02V47.9H120.98ZM121.16 39.86V35.82H128.36V34.44H131.64V35.82H138.84V39.86H135.9V38.2H124.1V39.86H121.16ZM149.32 52.9L148.26 50.16C149.34 49.8267 150.193 49.4667 150.82 49.08C151.447 48.6933 151.893 48.26 152.16 47.78C152.44 47.3 152.58 46.74 152.58 46.1V43.54H151.66V47.74H149.36V41.28H152.58V40.48H151.06V38.14H156.94V40.48H155.4V41.28H158.72V47.74H151.66V45.54H156.34V43.54H155.4V46.1C155.4 46.74 155.247 47.4 154.94 48.08C154.647 48.7467 154.227 49.3867 153.68 50C153.147 50.6133 152.507 51.1733 151.76 51.68C151.027 52.1867 150.213 52.5933 149.32 52.9ZM141.84 52.26L140.3 51.74C140.487 50.82 140.633 49.9467 140.74 49.12C140.847 48.2933 140.92 47.4333 140.96 46.54L142.42 46.8C142.393 47.68 142.327 48.5867 142.22 49.52C142.127 50.44 142 51.3533 141.84 52.26ZM142.92 51.84C142.907 51.04 142.873 50.2333 142.82 49.42C142.78 48.6067 142.733 47.7467 142.68 46.84L143.94 46.64C144.02 47.52 144.087 48.38 144.14 49.22C144.193 50.0467 144.233 50.8533 144.26 51.64L142.92 51.84ZM144.68 50.76C144.627 50.12 144.56 49.48 144.48 48.84C144.4 48.1867 144.313 47.5133 144.22 46.82L145.44 46.58C145.547 47.26 145.64 47.9333 145.72 48.6C145.813 49.2533 145.887 49.9 145.94 50.54L144.68 50.76ZM146.2 49.64C146.147 49.1333 146.08 48.64 146 48.16C145.92 47.68 145.833 47.1933 145.74 46.7L146.84 46.5C146.933 46.98 147.02 47.4667 147.1 47.96C147.18 48.44 147.247 48.9333 147.3 49.44L146.2 49.64ZM146.84 52.88C146.653 52.88 146.407 52.8733 146.1 52.86C145.793 52.8467 145.453 52.8133 145.08 52.76L144.92 50.16C145.053 50.1867 145.227 50.2067 145.44 50.22C145.653 50.2333 145.853 50.2467 146.04 50.26C146.227 50.2733 146.347 50.28 146.4 50.28C146.493 50.28 146.567 50.2533 146.62 50.2C146.673 50.1467 146.707 50 146.72 49.76C146.747 49.5067 146.76 49.1 146.76 48.54C146.773 47.9667 146.78 47.16 146.78 46.12H141.06V35.04H149.1V37.46H147.48V44.02H145.02V37.46H143.88V38.46H148.86V40.24H143.88V41.22H148.8V43H143.88V44.02H148.9V46.28C148.9 47.76 148.867 48.9467 148.8 49.84C148.733 50.72 148.62 51.3733 148.46 51.8C148.313 52.24 148.107 52.5267 147.84 52.66C147.573 52.8067 147.24 52.88 146.84 52.88ZM158.68 52.9C157.587 52.5 156.62 51.94 155.78 51.22C154.94 50.5 154.28 49.7 153.8 48.82C153.32 47.94 153.08 47.06 153.08 46.18H155.4C155.4 46.8067 155.527 47.3533 155.78 47.82C156.033 48.2867 156.473 48.7067 157.1 49.08C157.727 49.4533 158.6 49.8133 159.72 50.16L158.68 52.9ZM149.26 41.32L148.24 38.68C148.867 38.24 149.427 37.8133 149.92 37.4C150.413 36.9733 150.887 36.5267 151.34 36.06C151.793 35.58 152.247 35.0467 152.7 34.46H155.3C155.767 35.0333 156.22 35.5533 156.66 36.02C157.113 36.4733 157.58 36.9067 158.06 37.32C158.553 37.7333 159.107 38.16 159.72 38.6L158.7 41.32C157.793 40.68 156.953 39.9733 156.18 39.2C155.407 38.4133 154.68 37.54 154 36.58C153.307 37.54 152.573 38.4133 151.8 39.2C151.027 39.9733 150.18 40.68 149.26 41.32ZM165.96 51.96C165.293 51.96 164.66 51.8133 164.06 51.52C163.46 51.2267 162.92 50.8333 162.44 50.34C161.973 49.8333 161.607 49.2667 161.34 48.64C161.073 48.0133 160.94 47.3533 160.94 46.66C160.94 45.58 161.28 44.66 161.96 43.9C162.653 43.14 163.647 42.5533 164.94 42.14C166.233 41.7267 167.773 41.52 169.56 41.52C171.36 41.52 173.073 41.7533 174.7 42.22C176.34 42.6867 177.947 43.4 179.52 44.36L178.4 47.1C177.387 46.4333 176.407 45.9 175.46 45.5C174.527 45.0867 173.58 44.7933 172.62 44.62C171.673 44.4333 170.653 44.34 169.56 44.34C167.8 44.34 166.433 44.5467 165.46 44.96C164.487 45.36 164 45.9267 164 46.66C164 46.9 164.04 47.14 164.12 47.38C164.213 47.62 164.34 47.84 164.5 48.04C164.66 48.24 164.827 48.4067 165 48.54C165.173 48.66 165.353 48.72 165.54 48.72C165.913 48.72 166.247 48.4867 166.54 48.02C166.833 47.54 167.08 46.8467 167.28 45.94C167.48 45.02 167.627 43.88 167.72 42.52C167.827 41.16 167.88 39.5867 167.88 37.8L168.66 38.72H161.86V35.98H171.22V36.18C171.22 38.9 171.113 41.2533 170.9 43.24C170.7 45.2267 170.387 46.8667 169.96 48.16C169.533 49.44 168.987 50.3933 168.32 51.02C167.653 51.6467 166.867 51.96 165.96 51.96ZM171.08 50.04C171.56 49.68 171.96 49.3333 172.28 49C172.6 48.6533 172.86 48.26 173.06 47.82C173.26 47.3667 173.407 46.8133 173.5 46.16C173.607 45.5067 173.673 44.7067 173.7 43.76C173.74 42.8 173.76 41.6267 173.76 40.24V36.54H176.92V40.42C176.92 41.9667 176.887 43.3 176.82 44.42C176.767 45.54 176.667 46.5067 176.52 47.32C176.373 48.12 176.167 48.8133 175.9 49.4C175.647 49.9733 175.313 50.4933 174.9 50.96C174.487 51.4267 173.98 51.8867 173.38 52.34L171.08 50.04ZM181.58 51.84C182.113 50.0533 182.593 48.24 183.02 46.4C183.46 44.56 183.847 42.68 184.18 40.76C184.527 38.8267 184.833 36.8467 185.1 34.82L188.34 34.96C188.113 36.92 187.827 38.8867 187.48 40.86C187.147 42.82 186.76 44.7667 186.32 46.7C185.88 48.62 185.387 50.52 184.84 52.4L181.58 51.84ZM194.3 52.06C193.007 52.06 191.893 51.9067 190.96 51.6C190.04 51.3067 189.327 50.8867 188.82 50.34C188.313 49.78 188.06 49.1133 188.06 48.34C188.06 47.8067 188.22 47.2933 188.54 46.8C188.86 46.2933 189.353 45.78 190.02 45.26L192.78 46.42C192.353 46.7 192.027 46.98 191.8 47.26C191.573 47.5267 191.46 47.7733 191.46 48C191.46 48.24 191.573 48.4467 191.8 48.62C192.04 48.7933 192.373 48.9267 192.8 49.02C193.227 49.1133 193.727 49.16 194.3 49.16C194.913 49.16 195.527 49.1267 196.14 49.06C196.767 48.9933 197.44 48.8933 198.16 48.76L198.5 51.66C197.74 51.8067 197.033 51.9067 196.38 51.96C195.74 52.0267 195.047 52.06 194.3 52.06ZM181.3 39.94V37.14H195.7V39.94H181.3ZM188.98 41.58C190.567 41.4333 192.127 41.3267 193.66 41.26C195.207 41.18 196.747 41.14 198.28 41.14V43.96C196.773 43.96 195.26 44 193.74 44.08C192.233 44.1467 190.707 44.2533 189.16 44.4L188.98 41.58ZM206.34 51.84C205.607 51.84 204.94 51.6333 204.34 51.22C203.74 50.8067 203.22 50.22 202.78 49.46C202.353 48.7 202.02 47.7933 201.78 46.74C201.553 45.6867 201.44 44.52 201.44 43.24C201.44 42.2267 201.527 41.1733 201.7 40.08C201.873 38.9867 202.14 37.7867 202.5 36.48L205.7 36.84C205.367 38.0133 205.12 39.0867 204.96 40.06C204.8 41.0333 204.72 41.9667 204.72 42.86C204.72 43.6467 204.767 44.3733 204.86 45.04C204.967 45.7067 205.107 46.2867 205.28 46.78C205.453 47.2733 205.653 47.66 205.88 47.94C206.12 48.2067 206.373 48.34 206.64 48.34C206.907 48.34 207.2 48.22 207.52 47.98C207.853 47.74 208.193 47.4133 208.54 47C208.9 46.5733 209.24 46.0933 209.56 45.56C209.88 45.0133 210.153 44.4467 210.38 43.86L213.28 45.38C212.933 46.3 212.5 47.1533 211.98 47.94C211.473 48.7267 210.907 49.4133 210.28 50C209.653 50.5867 209.007 51.04 208.34 51.36C207.673 51.68 207.007 51.84 206.34 51.84ZM215.82 49.86C215.82 48.34 215.72 46.8267 215.52 45.32C215.333 43.8133 215.053 42.3533 214.68 40.94C214.32 39.5267 213.873 38.2067 213.34 36.98L216.36 36.12C216.96 37.3867 217.46 38.76 217.86 40.24C218.273 41.7067 218.58 43.2467 218.78 44.86C218.993 46.4733 219.1 48.14 219.1 49.86H215.82ZM233.14 52.1C231.46 52.1 230 51.8133 228.76 51.24C227.52 50.6667 226.56 49.86 225.88 48.82C225.2 47.78 224.86 46.5533 224.86 45.14C224.86 44.1533 225.02 43.2333 225.34 42.38C225.66 41.5267 226.12 40.7667 226.72 40.1C227.333 39.4333 228.06 38.9 228.9 38.5L229.22 39.14L220.52 39.34V36.44L237.58 36.04V38.94L235.02 39C234.087 39.0133 233.213 39.16 232.4 39.44C231.587 39.72 230.873 40.1133 230.26 40.62C229.647 41.1267 229.173 41.7333 228.84 42.44C228.507 43.1333 228.34 43.92 228.34 44.8C228.34 45.7067 228.527 46.4867 228.9 47.14C229.273 47.78 229.82 48.2733 230.54 48.62C231.273 48.9533 232.147 49.12 233.16 49.12C233.4 49.12 233.667 49.1133 233.96 49.1C234.253 49.0733 234.553 49.0467 234.86 49.02C235.167 48.98 235.453 48.9333 235.72 48.88L236.08 51.86C235.76 51.9 235.427 51.94 235.08 51.98C234.733 52.02 234.393 52.0467 234.06 52.06C233.727 52.0867 233.42 52.1 233.14 52.1ZM234.56 46.06C234.24 45.3667 233.9 44.7067 233.54 44.08C233.18 43.4533 232.767 42.8133 232.3 42.16L234.36 41.04C234.827 41.6933 235.24 42.34 235.6 42.98C235.973 43.62 236.327 44.3 236.66 45.02L234.56 46.06ZM237.82 44.96C237.513 44.2533 237.187 43.5867 236.84 42.96C236.493 42.32 236.1 41.6733 235.66 41.02L237.72 39.96C238.16 40.64 238.553 41.3 238.9 41.94C239.26 42.58 239.593 43.2667 239.9 44L237.82 44.96ZM241.36 52.84V39.12H258.64V52.84H255.54V52.16H244.46V49.94H251.48V48.36H248.52V46.46H251.48V44.88H248.52V42.96H251.48V41.42H254.22V49.94H255.54V41.42H248.52V49.94H245.78V41.42H244.46V52.84H241.36ZM250.72 40.68L247.36 40.16C247.56 39.5733 247.74 38.9667 247.9 38.34C248.073 37.7 248.227 37.0267 248.36 36.32L251.72 36.82C251.587 37.5267 251.433 38.2 251.26 38.84C251.087 39.48 250.907 40.0933 250.72 40.68ZM241.1 37.54V34.94H258.9V37.54H241.1ZM261.8 52.64V36.88H278.2V52.64H275.02V51.56H264.98V49.06H275.02V45.44H264.98V42.92H275.02V39.48H264.98V52.64H261.8ZM270.32 38.36L267.08 38C267.293 37.4133 267.487 36.8067 267.66 36.18C267.847 35.54 268.013 34.8667 268.16 34.16L271.44 34.52C271.293 35.2267 271.12 35.9 270.92 36.54C270.733 37.18 270.533 37.7867 270.32 38.36ZM46.34 87.84C45.6067 87.84 44.94 87.6333 44.34 87.22C43.74 86.8067 43.22 86.22 42.78 85.46C42.3533 84.7 42.02 83.7933 41.78 82.74C41.5533 81.6867 41.44 80.52 41.44 79.24C41.44 78.2267 41.5267 77.1733 41.7 76.08C41.8733 74.9867 42.14 73.7867 42.5 72.48L45.7 72.84C45.3667 74.0133 45.12 75.0867 44.96 76.06C44.8 77.0333 44.72 77.9667 44.72 78.86C44.72 79.6467 44.7667 80.3733 44.86 81.04C44.9667 81.7067 45.1067 82.2867 45.28 82.78C45.4533 83.2733 45.6533 83.66 45.88 83.94C46.12 84.2067 46.3733 84.34 46.64 84.34C46.9067 84.34 47.2 84.22 47.52 83.98C47.8533 83.74 48.1933 83.4133 48.54 83C48.9 82.5733 49.24 82.0933 49.56 81.56C49.88 81.0133 50.1533 80.4467 50.38 79.86L53.28 81.38C52.9333 82.3 52.5 83.1533 51.98 83.94C51.4733 84.7267 50.9067 85.4133 50.28 86C49.6533 86.5867 49.0067 87.04 48.34 87.36C47.6733 87.68 47.0067 87.84 46.34 87.84ZM55.82 85.86C55.82 84.34 55.72 82.8267 55.52 81.32C55.3333 79.8133 55.0533 78.3533 54.68 76.94C54.32 75.5267 53.8733 74.2067 53.34 72.98L56.36 72.12C56.96 73.3867 57.46 74.76 57.86 76.24C58.2733 77.7067 58.58 79.2467 58.78 80.86C58.9933 82.4733 59.1 84.14 59.1 85.86H55.82ZM68.42 82.36L67.92 72.4H72L71.5 82.36H68.42ZM68.2 87V83.86H71.72V87H68.2ZM85.9577 88.26V86.32H91.7777V84.32H87.1377V82.5H91.7777V76.72H89.3977V75.08H91.7777V73.02H94.1577V75.08H96.5377V73.02H89.3977V80.66H87.1977V71.14H98.7377V80.66H89.3977V78.88H96.5377V76.72H94.1577V82.5H99.0377V84.32H94.1577V86.32H99.3177V88.26H85.9577ZM80.9777 87.06L80.7577 85.02C81.3577 84.8733 81.9843 84.7133 82.6377 84.54C83.3043 84.3533 83.9643 84.1533 84.6177 83.94C85.2843 83.7133 85.931 83.4867 86.5577 83.26L86.6177 85.24C86.0177 85.48 85.391 85.7133 84.7377 85.94C84.0843 86.1667 83.4377 86.3733 82.7977 86.56C82.1577 86.7467 81.551 86.9133 80.9777 87.06ZM82.5577 84.96V79.62H81.0577V77.56H82.5577V73.86H80.8577V71.76H86.5777V73.86H84.8377V77.56H86.4577V79.62H84.8377V84.96H82.5577ZM107.678 88.74V77.92H119.038V86.1C119.038 86.8867 119.004 87.46 118.938 87.82C118.884 88.1933 118.771 88.4333 118.598 88.54C118.438 88.6467 118.191 88.7 117.858 88.7C117.738 88.7 117.504 88.6933 117.158 88.68C116.824 88.6667 116.451 88.6467 116.038 88.62L115.878 86.62C116.078 86.6467 116.251 86.6667 116.398 86.68C116.558 86.6933 116.664 86.7 116.718 86.7C116.771 86.7 116.804 86.6933 116.818 86.68C116.844 86.6667 116.858 86.6333 116.858 86.58C116.871 86.5267 116.878 86.4267 116.878 86.28V84.16H115.758V88.24H113.838V84.16H112.758V88.24H110.858V84.16H109.778V82.24H110.858V79.9H112.758V82.24H113.838V79.9H115.758V82.24H116.878V79.9H109.778V88.74H107.678ZM101.238 88.94V82.88H106.758V88.16H103.258V86.38H104.878V84.66H103.258V88.94H101.238ZM101.398 81.84V80.04H106.678V81.84H101.398ZM101.398 79V77.2H106.678V79H101.398ZM100.858 76.14V74.2H107.178V76.14H100.858ZM101.238 73.22V71.36H106.718V73.22H101.238ZM109.818 76.76V74.78H116.898V76.76H109.818ZM107.498 77.08L106.938 74.98C108.004 74.34 108.964 73.6867 109.818 73.02C110.684 72.34 111.524 71.5867 112.338 70.76H114.378C115.191 71.5867 116.024 72.34 116.878 73.02C117.744 73.6867 118.711 74.34 119.778 74.98L119.218 77.08C118.111 76.44 117.071 75.7333 116.098 74.96C115.124 74.1867 114.204 73.3467 113.338 72.44C112.484 73.3467 111.571 74.1867 110.598 74.96C109.638 75.7333 108.604 76.44 107.498 77.08ZM126.818 85.66V74.84H138.438V83.28C138.438 83.8133 138.418 84.24 138.378 84.56C138.338 84.88 138.244 85.1133 138.098 85.26C137.964 85.4067 137.751 85.5 137.458 85.54C137.164 85.58 136.758 85.6 136.238 85.6C136.078 85.6 135.838 85.6 135.518 85.6C135.198 85.5867 134.878 85.5733 134.558 85.56L134.438 83.8C134.824 83.8133 135.144 83.8267 135.398 83.84C135.651 83.84 135.811 83.84 135.878 83.84C135.984 83.84 136.058 83.8333 136.098 83.82C136.138 83.8067 136.158 83.76 136.158 83.68C136.171 83.5867 136.178 83.4467 136.178 83.26V82.36H129.018V80.78H136.178V79.44H129.018V77.84H136.178V76.52H133.598V85.56H131.458V76.52H129.018V85.66H126.818ZM121.838 88.84L120.758 86.92C121.518 86.4267 122.204 85.9267 122.818 85.42C123.444 84.9 124.024 84.3467 124.558 83.76L125.858 85.36C125.338 85.9867 124.751 86.58 124.098 87.14C123.444 87.7 122.691 88.2667 121.838 88.84ZM123.338 85.14V80.18H121.058V78.18H125.638V85.14H123.338ZM133.518 88.52C132.131 88.52 130.931 88.48 129.918 88.4C128.904 88.32 128.044 88.1867 127.338 88C126.644 87.8267 126.064 87.5867 125.598 87.28C125.131 86.9733 124.744 86.6 124.438 86.16C124.144 85.72 123.891 85.2 123.678 84.6L125.618 84.46C125.791 84.7933 125.998 85.08 126.238 85.32C126.478 85.5467 126.778 85.74 127.138 85.9C127.498 86.06 127.951 86.1867 128.498 86.28C129.058 86.3733 129.751 86.44 130.578 86.48C131.404 86.52 132.398 86.54 133.558 86.54H139.138L138.998 88.52H133.518ZM124.738 76.24C124.178 75.6133 123.611 75 123.038 74.4C122.464 73.7867 121.884 73.1933 121.298 72.62L122.898 71.22C123.471 71.7933 124.038 72.3867 124.598 73C125.171 73.6 125.731 74.22 126.278 74.86L124.738 76.24ZM131.618 76.06C131.031 75.6467 130.458 75.2467 129.898 74.86C129.338 74.4733 128.791 74.1067 128.258 73.76L129.698 72.56C130.231 72.9067 130.778 73.2733 131.338 73.66C131.898 74.0333 132.464 74.4267 133.038 74.84L131.618 76.06ZM126.458 73.02V71.14H138.438V73.02H126.458ZM133.218 75.8L131.778 74.7C132.444 74.4067 133.071 74.1067 133.658 73.8C134.244 73.4933 134.798 73.1867 135.318 72.88C135.838 72.56 136.311 72.2467 136.738 71.94L138.438 73.02C138.158 73.2333 137.731 73.5 137.158 73.82C136.598 74.14 135.971 74.48 135.278 74.84C134.598 75.1867 133.911 75.5067 133.218 75.8ZM144.358 85.8C146.931 85.8 149.004 85.58 150.578 85.14C152.164 84.7 153.311 83.9867 154.018 83C154.738 82 155.098 80.7133 155.098 79.14C155.098 77.54 154.758 76.3467 154.078 75.56C153.411 74.76 152.384 74.36 150.998 74.36C150.224 74.36 149.498 74.4867 148.818 74.74C148.151 74.9933 147.564 75.3533 147.058 75.82C146.551 76.2867 146.144 76.84 145.838 77.48C145.544 78.12 145.398 78.8267 145.398 79.6V82.22H143.078V71.7H145.398V75.96H144.498C144.978 75.1333 145.544 74.4333 146.198 73.86C146.864 73.2867 147.618 72.8533 148.458 72.56C149.311 72.2533 150.238 72.1 151.238 72.1C153.278 72.1 154.838 72.7067 155.918 73.92C157.011 75.12 157.558 76.86 157.558 79.14C157.558 81.1933 157.091 82.8733 156.158 84.18C155.238 85.4867 153.818 86.4467 151.898 87.06C149.978 87.6867 147.504 88 144.478 88L144.358 85.8ZM173.338 87.22C172.138 87.22 171.064 87.0533 170.118 86.72C169.184 86.3867 168.451 85.9267 167.918 85.34C167.398 84.74 167.138 84.06 167.138 83.3C167.138 81.94 168.024 80.54 169.798 79.1L171.518 80.4C170.811 80.9733 170.291 81.4733 169.958 81.9C169.638 82.3267 169.478 82.7333 169.478 83.12C169.478 83.52 169.638 83.8667 169.958 84.16C170.278 84.4533 170.724 84.68 171.298 84.84C171.871 85 172.551 85.08 173.338 85.08C174.004 85.08 174.751 85.0333 175.578 84.94C176.418 84.8333 177.264 84.6933 178.118 84.52L178.438 86.62C177.571 86.8067 176.698 86.9533 175.818 87.06C174.951 87.1667 174.124 87.22 173.338 87.22ZM168.058 75.12V72.96H178.318V75.12H168.058ZM163.238 88.1C162.891 86.7267 162.638 85.3733 162.478 84.04C162.318 82.7067 162.238 81.2933 162.238 79.8C162.238 78.32 162.318 76.92 162.478 75.6C162.638 74.2667 162.891 72.9133 163.238 71.54L165.618 71.84C165.298 73.1333 165.058 74.4333 164.898 75.74C164.751 77.0333 164.678 78.3867 164.678 79.8C164.678 81.2133 164.751 82.5733 164.898 83.88C165.058 85.1867 165.298 86.4733 165.618 87.74L163.238 88.1ZM193.558 83.52C193.264 83.52 192.944 83.5133 192.598 83.5C192.264 83.4733 191.924 83.4467 191.578 83.42V81.32C191.871 81.3333 192.158 81.3533 192.438 81.38C192.731 81.3933 192.998 81.4 193.238 81.4C194.531 81.4 195.464 81.1667 196.038 80.7C196.624 80.22 196.918 79.4667 196.918 78.44C196.918 76.7333 196.138 75.88 194.578 75.88C194.324 75.88 194.018 75.9133 193.658 75.98C193.311 76.0333 192.878 76.1267 192.358 76.26C191.851 76.3933 191.204 76.5933 190.418 76.86L181.158 79.88L180.458 77.76L189.738 74.74C190.524 74.4733 191.204 74.2667 191.778 74.12C192.364 73.96 192.891 73.8467 193.358 73.78C193.824 73.7 194.271 73.66 194.698 73.66C196.191 73.66 197.338 74.06 198.138 74.86C198.938 75.66 199.338 76.82 199.338 78.34C199.338 80.02 198.844 81.3067 197.858 82.2C196.884 83.08 195.451 83.52 193.558 83.52ZM187.578 88.48C187.124 86.6267 186.638 84.7733 186.118 82.92C185.611 81.0533 185.091 79.2267 184.558 77.44C184.038 75.64 183.511 73.9067 182.978 72.24L185.218 71.62C185.764 73.3 186.304 75.0467 186.838 76.86C187.371 78.66 187.891 80.5 188.398 82.38C188.918 84.2467 189.418 86.1133 189.898 87.98L187.578 88.48ZM191.258 79.9C190.978 78.8333 190.624 77.5933 190.198 76.18C189.784 74.7533 189.311 73.2067 188.778 71.54L191.038 70.94C191.331 71.8067 191.618 72.72 191.898 73.68C192.191 74.6267 192.471 75.58 192.738 76.54C193.018 77.5 193.264 78.4133 193.478 79.28L191.258 79.9ZM216.458 87.48C215.618 87.48 214.998 87.26 214.598 86.82C214.211 86.3667 214.018 85.6467 214.018 84.66V77.36C214.018 76.56 213.918 75.9733 213.718 75.6C213.531 75.2267 213.231 75.04 212.818 75.04C212.564 75.04 212.264 75.1267 211.918 75.3C211.571 75.46 211.138 75.7333 210.618 76.12C210.111 76.5067 209.491 77.0333 208.758 77.7C208.024 78.3533 207.144 79.1733 206.118 80.16H205.898C205.338 80.7333 204.704 81.3733 203.998 82.08C203.304 82.7867 202.544 83.5733 201.718 84.44L200.418 82.5C202.111 80.86 203.564 79.4733 204.778 78.34C205.991 77.2067 207.031 76.28 207.898 75.56C208.764 74.84 209.498 74.28 210.098 73.88C210.711 73.48 211.251 73.2067 211.718 73.06C212.198 72.9133 212.664 72.84 213.118 72.84C214.198 72.84 215.011 73.1733 215.558 73.84C216.118 74.4933 216.398 75.46 216.398 76.74V83.52C216.398 84 216.411 84.3667 216.438 84.62C216.478 84.8733 216.531 85.0467 216.598 85.14C216.678 85.22 216.791 85.26 216.938 85.26C217.178 85.26 217.504 85.18 217.918 85.02C218.344 84.86 218.811 84.6333 219.318 84.34L219.998 86.38C219.398 86.74 218.798 87.0133 218.198 87.2C217.598 87.3867 217.018 87.48 216.458 87.48ZM205.058 88.34V76.22H200.578V74.18H205.058V71.26H207.378V88.34H205.058ZM230.278 87.94C228.838 87.94 227.711 87.62 226.898 86.98C226.098 86.3267 225.698 85.42 225.698 84.26C225.698 83.0733 226.098 82.16 226.898 81.52C227.698 80.88 228.824 80.56 230.278 80.56C230.918 80.56 231.524 80.64 232.098 80.8C232.684 80.9467 233.291 81.2133 233.918 81.6C234.544 81.9867 235.251 82.52 236.038 83.2C236.824 83.8667 237.738 84.72 238.778 85.76L237.318 87.34C236.371 86.38 235.551 85.5933 234.858 84.98C234.164 84.3533 233.558 83.8667 233.038 83.52C232.518 83.1733 232.031 82.9333 231.578 82.8C231.124 82.6533 230.651 82.58 230.158 82.58C228.611 82.58 227.838 83.14 227.838 84.26C227.838 85.3667 228.611 85.92 230.158 85.92C230.984 85.92 231.571 85.7467 231.918 85.4C232.278 85.04 232.458 84.4533 232.458 83.64V75.52H231.898V71.38H234.218V75.52H234.778V83.74C234.778 85.14 234.398 86.1933 233.638 86.9C232.878 87.5933 231.758 87.94 230.278 87.94ZM222.058 88.3C221.711 86.9267 221.458 85.5733 221.298 84.24C221.138 82.9067 221.058 81.4933 221.058 80C221.058 78.52 221.138 77.12 221.298 75.8C221.458 74.4667 221.711 73.1133 222.058 71.74L224.418 72.04C224.098 73.3333 223.858 74.6333 223.698 75.94C223.551 77.2333 223.478 78.5867 223.478 80C223.478 81.4133 223.551 82.7733 223.698 84.08C223.858 85.3867 224.098 86.6733 224.418 87.94L222.058 88.3ZM225.758 76.54V74.52H238.478V76.54H225.758ZM235.358 74.1C235.238 73.46 235.104 72.8533 234.958 72.28C234.811 71.7067 234.638 71.1333 234.438 70.56L236.298 70.1C236.524 70.6733 236.711 71.2533 236.858 71.84C237.004 72.4267 237.131 73.06 237.238 73.74L235.358 74.1ZM238.138 73.88C238.031 73.2267 237.904 72.6133 237.758 72.04C237.624 71.4667 237.458 70.8933 237.258 70.32L239.138 69.9C239.338 70.4733 239.504 71.06 239.638 71.66C239.784 72.2467 239.904 72.8733 239.998 73.54L238.138 73.88ZM245.598 88.58C244.984 87.7667 244.324 87.0067 243.618 86.3C242.911 85.58 242.144 84.9133 241.318 84.3L242.958 82.66C243.784 83.3 244.571 84 245.318 84.76C246.064 85.5067 246.758 86.3133 247.398 87.18L245.598 88.58ZM49.64 124.04C48.12 124.04 46.8733 123.8 45.9 123.32C44.94 122.853 44.2267 122.127 43.76 121.14C43.3067 120.153 43.08 118.887 43.08 117.34V107.6H45.52V117.34C45.52 118.9 45.8467 120.033 46.5 120.74C47.1533 121.433 48.2 121.78 49.64 121.78C50.6933 121.78 51.62 121.587 52.42 121.2C53.2333 120.813 53.9667 120.187 54.62 119.32C55.2867 118.44 55.9267 117.273 56.54 115.82L58.76 116.72C58.2267 118.053 57.6533 119.187 57.04 120.12C56.44 121.04 55.78 121.793 55.06 122.38C54.3533 122.953 53.5533 123.373 52.66 123.64C51.7667 123.907 50.76 124.04 49.64 124.04ZM66 121.16C68.0133 121.16 69.6467 121.027 70.9 120.76C72.1667 120.48 73.0933 120.047 73.68 119.46C74.2667 118.873 74.56 118.12 74.56 117.2C74.56 116.173 74.22 115.407 73.54 114.9C72.8733 114.393 71.8533 114.14 70.48 114.14C69.9333 114.14 69.3333 114.187 68.68 114.28C68.0267 114.36 67.2733 114.487 66.42 114.66C65.58 114.833 64.6 115.067 63.48 115.36L63.02 113.1C64.7133 112.7 66.18 112.407 67.42 112.22C68.66 112.02 69.7267 111.92 70.62 111.92C72.66 111.92 74.2267 112.36 75.32 113.24C76.4133 114.12 76.96 115.38 76.96 117.02C76.96 119.1 76.0467 120.673 74.22 121.74C72.4067 122.807 69.7133 123.34 66.14 123.34L66 121.16ZM90.58 123.46C90.2467 123.46 89.82 123.413 89.3 123.32C88.78 123.24 88.2333 123.127 87.66 122.98C87.0867 122.82 86.5467 122.647 86.04 122.46L86.58 120.44C87.0067 120.573 87.4333 120.707 87.86 120.84C88.3 120.96 88.7 121.06 89.06 121.14C89.4333 121.207 89.7267 121.24 89.94 121.24C90.3667 121.24 90.72 121.047 91 120.66C91.28 120.26 91.4867 119.64 91.62 118.8C91.7667 117.947 91.84 116.853 91.84 115.52C91.84 114.747 91.8067 114.127 91.74 113.66C91.6867 113.18 91.58 112.82 91.42 112.58C91.26 112.34 91.0133 112.18 90.68 112.1C90.3467 112.02 89.9 111.98 89.34 111.98H80.82V109.9H89.1C90.0333 109.9 90.8067 109.94 91.42 110.02C92.0333 110.087 92.5267 110.227 92.9 110.44C93.2733 110.653 93.5533 110.98 93.74 111.42C93.94 111.847 94.0667 112.42 94.12 113.14C94.1867 113.847 94.22 114.733 94.22 115.8C94.22 117.533 94.0867 118.967 93.82 120.1C93.5667 121.233 93.1733 122.08 92.64 122.64C92.1067 123.187 91.42 123.46 90.58 123.46ZM81.06 123.24C81.5533 121.973 81.9933 120.807 82.38 119.74C82.7667 118.66 83.1133 117.627 83.42 116.64C83.74 115.653 84.0267 114.653 84.28 113.64C84.5467 112.627 84.7933 111.547 85.02 110.4C85.2467 109.253 85.4733 107.987 85.7 106.6L88.02 106.86C87.8067 108.193 87.5867 109.44 87.36 110.6C87.1333 111.747 86.88 112.853 86.6 113.92C86.3333 114.973 86.0333 116.027 85.7 117.08C85.38 118.133 85.0133 119.22 84.6 120.34C84.2 121.46 83.7467 122.66 83.24 123.94L81.06 123.24ZM97.34 119.56C97.22 118.76 97.06 117.907 96.86 117C96.66 116.093 96.4333 115.18 96.18 114.26C95.9267 113.34 95.66 112.453 95.38 111.6C95.1 110.733 94.8133 109.94 94.52 109.22L96.76 108.58C97.0667 109.327 97.36 110.133 97.64 111C97.92 111.867 98.1867 112.76 98.44 113.68C98.6933 114.6 98.92 115.52 99.12 116.44C99.32 117.347 99.4867 118.213 99.62 119.04L97.34 119.56ZM104.26 121.8C106.833 121.8 108.907 121.58 110.48 121.14C112.067 120.7 113.213 119.987 113.92 119C114.64 118 115 116.713 115 115.14C115 113.54 114.66 112.347 113.98 111.56C113.313 110.76 112.287 110.36 110.9 110.36C110.127 110.36 109.4 110.487 108.72 110.74C108.053 110.993 107.467 111.353 106.96 111.82C106.453 112.287 106.047 112.84 105.74 113.48C105.447 114.12 105.3 114.827 105.3 115.6V118.22H102.98V107.7H105.3V111.96H104.4C104.88 111.133 105.447 110.433 106.1 109.86C106.767 109.287 107.52 108.853 108.36 108.56C109.213 108.253 110.14 108.1 111.14 108.1C113.18 108.1 114.74 108.707 115.82 109.92C116.913 111.12 117.46 112.86 117.46 115.14C117.46 117.193 116.993 118.873 116.06 120.18C115.14 121.487 113.72 122.447 111.8 123.06C109.88 123.687 107.407 124 104.38 124L104.26 121.8ZM128.4 114.84V112.96H132.32V110.52H127.96V108.52H132.32V106.56H134.72V108.52H139.34V110.52H134.72V112.96H138.88V114.84H128.4ZM122.28 123.86L120.62 123.56C120.793 122.653 120.94 121.733 121.06 120.8C121.18 119.867 121.267 118.933 121.32 118L122.98 118.14C122.927 119.1 122.84 120.06 122.72 121.02C122.6 121.98 122.453 122.927 122.28 123.86ZM123.4 124.84V116.42H125.6V124.84H123.4ZM126.42 123.12C126.393 122.64 126.353 122.107 126.3 121.52C126.26 120.92 126.207 120.32 126.14 119.72C126.087 119.107 126.027 118.553 125.96 118.06L127.58 117.84C127.66 118.32 127.727 118.873 127.78 119.5C127.847 120.113 127.907 120.727 127.96 121.34C128.013 121.94 128.053 122.48 128.08 122.96L126.42 123.12ZM120.86 117.2L120.8 115.26L127.5 114.86L127.52 116.74L120.86 117.2ZM123.2 114.68C122.96 114.293 122.687 113.873 122.38 113.42C122.087 112.967 121.78 112.507 121.46 112.04C121.153 111.573 120.86 111.14 120.58 110.74L121.66 108.78C122.1 109.407 122.553 110.08 123.02 110.8C123.487 111.52 123.893 112.16 124.24 112.72L123.2 114.68ZM123.54 116.74L122.02 115.7C122.78 114.567 123.507 113.427 124.2 112.28C124.893 111.12 125.547 109.927 126.16 108.7L127.84 109.56C127.187 110.813 126.507 112.033 125.8 113.22C125.107 114.393 124.353 115.567 123.54 116.74ZM127.06 117.52C126.967 117.027 126.853 116.5 126.72 115.94C126.587 115.367 126.447 114.8 126.3 114.24C126.153 113.667 126.007 113.147 125.86 112.68L127.5 112.24C127.647 112.733 127.793 113.267 127.94 113.84C128.087 114.413 128.227 114.987 128.36 115.56C128.493 116.133 128.607 116.673 128.7 117.18L127.06 117.52ZM128.52 124.68V116.44H138.62V124.68H136.2V123.72H130.82V121.82H136.2V118.42H130.82V124.68H128.52ZM123.44 111.88L121.94 110.8C122.3 110.107 122.633 109.407 122.94 108.7C123.247 107.993 123.547 107.28 123.84 106.56L125.64 107.28C125.32 108.067 124.973 108.847 124.6 109.62C124.24 110.38 123.853 111.133 123.44 111.88ZM148.78 124.8V118.48H141.26V116.54H148.78V112.08H144.84V110.46H148.78V109H151.22V110.46H155.16V109H144.84V115.36H142.5V107.14H157.5V115.36H144.84V113.6H155.16V112.08H151.22V116.54H158.74V118.48H151.22V124.8H148.78ZM141.74 124.54L140.58 122.58C142.42 121.673 144.007 120.753 145.34 119.82C146.673 118.887 147.787 117.893 148.68 116.84L150.18 117.72C149.247 118.987 148.073 120.193 146.66 121.34C145.247 122.487 143.607 123.553 141.74 124.54ZM158.22 124.56C156.353 123.573 154.713 122.507 153.3 121.36C151.9 120.213 150.72 119.007 149.76 117.74L151.32 116.84C152.213 117.893 153.327 118.893 154.66 119.84C155.993 120.787 157.58 121.72 159.42 122.64L158.22 124.56ZM161.06 123.44C161.553 122.173 161.993 121.007 162.38 119.94C162.767 118.86 163.113 117.827 163.42 116.84C163.74 115.853 164.027 114.853 164.28 113.84C164.547 112.827 164.793 111.747 165.02 110.6C165.247 109.453 165.473 108.187 165.7 106.8L168.02 107.06C167.807 108.393 167.587 109.64 167.36 110.8C167.133 111.947 166.88 113.053 166.6 114.12C166.333 115.173 166.033 116.227 165.7 117.28C165.38 118.333 165.013 119.42 164.6 120.54C164.2 121.66 163.747 122.86 163.24 124.14L161.06 123.44ZM177.26 120.82C177.14 120.02 176.98 119.167 176.78 118.26C176.593 117.34 176.373 116.42 176.12 115.5C175.867 114.58 175.6 113.693 175.32 112.84L177.54 112.18C177.82 113.06 178.087 113.973 178.34 114.92C178.607 115.853 178.84 116.793 179.04 117.74C179.24 118.673 179.407 119.567 179.54 120.42L177.26 120.82ZM175.16 111.74C174.813 111.007 174.473 110.353 174.14 109.78C173.807 109.207 173.433 108.64 173.02 108.08L174.68 107.12C175.107 107.693 175.487 108.287 175.82 108.9C176.167 109.513 176.507 110.18 176.84 110.9L175.16 111.74ZM177.96 110.68C177.64 109.933 177.32 109.273 177 108.7C176.68 108.113 176.327 107.547 175.94 107L177.56 106.1C177.987 106.687 178.36 107.287 178.68 107.9C179.013 108.513 179.333 109.187 179.64 109.92L177.96 110.68ZM170.56 123.66C170.213 123.66 169.78 123.613 169.26 123.52C168.74 123.44 168.193 123.32 167.62 123.16C167.06 123.013 166.52 122.847 166 122.66L166.54 120.64C166.98 120.773 167.413 120.907 167.84 121.04C168.28 121.16 168.68 121.26 169.04 121.34C169.413 121.407 169.7 121.44 169.9 121.44C170.327 121.44 170.68 121.247 170.96 120.86C171.24 120.46 171.447 119.84 171.58 119C171.727 118.147 171.8 117.053 171.8 115.72C171.8 114.947 171.773 114.327 171.72 113.86C171.667 113.38 171.553 113.02 171.38 112.78C171.22 112.54 170.973 112.38 170.64 112.3C170.307 112.22 169.86 112.18 169.3 112.18H160.82V110.1H169.08C170 110.1 170.767 110.14 171.38 110.22C172.007 110.287 172.5 110.427 172.86 110.64C173.233 110.853 173.513 111.18 173.7 111.62C173.9 112.047 174.027 112.62 174.08 113.34C174.147 114.047 174.18 114.933 174.18 116C174.18 117.733 174.053 119.167 173.8 120.3C173.547 121.433 173.147 122.28 172.6 122.84C172.067 123.387 171.387 123.66 170.56 123.66ZM181.82 124.72V116.64H184.16V121.48H188.78V115.18H182.7V108.36H185.02V113.18H188.78V106.68H191.22V113.18H194.98V108.36H197.3V115.18H191.22V121.48H195.84V116.64H198.18V124.72H195.84V123.54H184.16V124.72H181.82ZM209.54 124.26C207.567 124.26 206.033 123.94 204.94 123.3C203.86 122.66 203.32 121.76 203.32 120.6C203.32 119.613 203.727 118.847 204.54 118.3C205.367 117.74 206.5 117.46 207.94 117.46C209.3 117.46 210.32 117.713 211 118.22C211.68 118.713 212.02 119.46 212.02 120.46C212.02 120.82 211.967 121.207 211.86 121.62C211.767 122.033 211.627 122.46 211.44 122.9L209.24 122.66C209.427 122.207 209.56 121.82 209.64 121.5C209.733 121.18 209.78 120.9 209.78 120.66C209.78 119.753 209.113 119.3 207.78 119.3C207.1 119.3 206.567 119.413 206.18 119.64C205.807 119.853 205.62 120.167 205.62 120.58C205.62 121.14 205.947 121.587 206.6 121.92C207.253 122.24 208.14 122.4 209.26 122.4C211.407 122.4 213 122.087 214.04 121.46C215.093 120.82 215.62 119.847 215.62 118.54C215.62 117.433 215.207 116.62 214.38 116.1C213.567 115.58 212.267 115.32 210.48 115.32C209.453 115.32 208.547 115.413 207.76 115.6C206.973 115.773 206.247 116.047 205.58 116.42L202.94 117.94L201.98 116.1L213.34 109.78V110.16H203.16V108.14H216.84V110.16L207.08 115.54L205.84 114.52C206.253 114.373 206.713 114.24 207.22 114.12C207.74 113.987 208.267 113.88 208.8 113.8C209.347 113.707 209.873 113.633 210.38 113.58C210.887 113.513 211.347 113.48 211.76 113.48C213.787 113.48 215.34 113.907 216.42 114.76C217.5 115.613 218.04 116.827 218.04 118.4C218.04 120.28 217.3 121.727 215.82 122.74C214.353 123.753 212.26 124.26 209.54 124.26ZM228.96 118.62L228.6 108.4H231.56L231.22 118.62H228.96ZM228.68 123V120.28H231.5V123H228.68Z" fill="#282828"/>
<path opacity="0.6" d="M49.016 147.68C49.016 145.09 50.122 142.808 52.432 140.946C52.558 140.834 52.712 140.778 52.852 140.778C53.118 140.778 53.37 141.016 53.37 141.282C53.37 141.464 53.3 141.59 53.16 141.716C51.144 143.438 50.304 145.384 50.304 147.68C50.304 149.976 51.144 151.922 53.16 153.644C53.3 153.77 53.37 153.896 53.37 154.078C53.37 154.344 53.118 154.582 52.852 154.582C52.712 154.582 52.558 154.526 52.432 154.414C50.122 152.552 49.016 150.27 49.016 147.68ZM58.76 150.564H55.428C54.77 150.564 54.406 150.228 54.406 149.612C54.406 149.234 54.476 148.996 54.714 148.604L57.934 143.172C58.284 142.584 58.606 142.36 59.222 142.36C60.006 142.36 60.314 142.766 60.314 143.592V149.262H61.154C61.644 149.262 61.896 149.486 61.896 149.906C61.896 150.326 61.644 150.564 61.154 150.564H60.314V152.216C60.314 152.72 60.02 153 59.516 153C59.026 153 58.76 152.72 58.76 152.216V150.564ZM58.76 149.262V146.686C58.76 145.748 58.802 144.838 58.872 143.9H58.774C58.41 144.726 58.018 145.524 57.528 146.378L55.876 149.262H58.76ZM66.4152 142.318C68.5432 142.318 69.9572 143.83 69.9572 147.708C69.9572 151.586 68.5432 153.098 66.4152 153.098C64.2872 153.098 62.9012 151.586 62.9012 147.708C62.9012 143.83 64.2872 142.318 66.4152 142.318ZM66.4152 143.718C65.2532 143.718 64.5532 144.698 64.5532 147.708C64.5532 150.718 65.2532 151.698 66.4152 151.698C67.5912 151.698 68.3052 150.718 68.3052 147.708C68.3052 144.698 67.5912 143.718 66.4152 143.718ZM73.0903 153.7V147.092C72.8523 147.456 72.6003 147.806 72.3483 148.114C72.1663 148.338 71.9423 148.436 71.7323 148.436C71.3263 148.436 70.9483 148.1 70.9483 147.694C70.9483 147.526 71.0043 147.358 71.1443 147.176C72.2503 145.804 73.2723 143.69 73.8323 141.814C73.9443 141.45 74.2523 141.282 74.5743 141.282C74.9943 141.282 75.4143 141.548 75.4143 141.996C75.4143 142.066 75.4003 142.15 75.3723 142.234C75.0643 143.284 74.5603 144.46 73.9863 145.552C74.3223 145.594 74.6163 145.79 74.6163 146.154V153.7C74.6163 154.078 74.2383 154.274 73.8603 154.274C73.4683 154.274 73.0903 154.078 73.0903 153.7ZM79.2503 145.258L83.1003 144.922H83.1563C83.5343 144.922 83.7303 145.286 83.7303 145.65C83.7303 145.972 83.5763 146.28 83.2263 146.308L79.4323 146.644C79.6283 147.848 79.9223 148.954 80.3283 149.92C81.1123 151.782 81.7563 152.244 82.1763 152.244C82.3583 152.244 82.5263 152.062 82.6243 151.152C82.6663 150.718 82.9883 150.522 83.3243 150.522C83.7023 150.522 84.1083 150.788 84.1083 151.264V151.362C83.9123 153.308 83.1843 153.896 82.2463 153.896C81.0143 153.896 79.8243 152.72 78.8303 150.34C78.3963 149.29 78.0743 148.1 77.8643 146.77L75.8203 146.952H75.7643C75.3863 146.952 75.1903 146.588 75.1903 146.238C75.1903 145.916 75.3583 145.608 75.6943 145.58L77.6963 145.398C77.5843 144.306 77.5283 143.13 77.5283 141.898C77.5283 141.464 77.9203 141.254 78.3123 141.254C78.7043 141.254 79.0963 141.464 79.0963 141.898C79.0963 143.088 79.1383 144.208 79.2503 145.258ZM80.9023 142.192C81.2803 142.472 81.6303 142.766 81.9243 143.06C82.0923 143.242 82.1763 143.438 82.1763 143.606C82.1763 144.012 81.8123 144.362 81.4203 144.362C81.2523 144.362 81.0703 144.278 80.9163 144.11C80.6223 143.774 80.3143 143.48 79.9643 143.2C79.7963 143.06 79.7123 142.892 79.7123 142.724C79.7123 142.374 80.0483 142.024 80.4403 142.024C80.5943 142.024 80.7483 142.08 80.9023 142.192ZM85.3683 153.42L96.9043 141.156C97.0303 141.03 97.1703 140.932 97.2963 140.932C97.6603 140.932 97.9683 141.226 97.9683 141.506C97.9683 141.66 97.9123 141.8 97.7723 141.94L86.2363 154.204C86.1103 154.33 85.9703 154.428 85.8443 154.428C85.4803 154.428 85.1723 154.134 85.1723 153.854C85.1723 153.7 85.2283 153.56 85.3683 153.42ZM111.408 145.874H109.378C109.238 146.42 109.028 147.12 108.776 147.722C108.412 148.59 107.95 149.388 107.39 150.116C108.524 150.69 109.644 151.334 110.652 152.048C110.918 152.23 111.03 152.482 111.03 152.72C111.03 153.14 110.666 153.546 110.218 153.546C110.05 153.546 109.868 153.49 109.686 153.364C108.636 152.594 107.474 151.88 106.312 151.278C104.744 152.664 102.784 153.462 100.572 153.882C100.502 153.896 100.446 153.896 100.376 153.896C99.9143 153.896 99.6483 153.546 99.6483 153.182C99.6483 152.874 99.8443 152.552 100.278 152.468C102.07 152.118 103.61 151.544 104.856 150.564C104.184 150.284 103.526 150.004 102.84 149.766L102.784 149.864C102.588 150.2 102.294 150.34 102.014 150.34C101.608 150.34 101.216 150.06 101.216 149.654C101.216 149.542 101.244 149.416 101.328 149.276C101.972 148.156 102.546 147.036 103.022 145.874H99.7323C99.3683 145.874 99.1723 145.538 99.1723 145.202C99.1723 144.866 99.3683 144.53 99.7323 144.53H103.54C103.862 143.62 104.142 142.668 104.422 141.646C104.52 141.296 104.842 141.128 105.164 141.128C105.57 141.128 105.976 141.366 105.976 141.786C105.976 141.842 105.962 141.898 105.948 141.968C105.71 142.85 105.458 143.704 105.164 144.53H111.408C111.786 144.53 111.982 144.866 111.982 145.202C111.982 145.538 111.786 145.874 111.408 145.874ZM107.726 145.874H104.674C104.296 146.784 103.904 147.68 103.47 148.562C104.324 148.828 105.164 149.122 105.976 149.472C106.83 148.436 107.404 147.176 107.726 145.874ZM121.18 152.356V149.584H119.052C118.702 149.584 118.534 149.234 118.534 148.898C118.534 148.548 118.702 148.212 119.052 148.212H121.18V145.874H119.57C119.402 146.252 119.22 146.616 119.038 146.952C118.856 147.288 118.562 147.428 118.296 147.428C117.932 147.428 117.596 147.176 117.596 146.784C117.596 146.644 117.638 146.49 117.736 146.322C118.282 145.384 118.716 144.236 118.996 142.976C119.08 142.598 119.388 142.416 119.682 142.416C120.046 142.416 120.41 142.668 120.41 143.088C120.41 143.144 120.41 143.186 120.396 143.242C120.312 143.676 120.2 144.11 120.06 144.53H121.18V141.87C121.18 141.45 121.558 141.24 121.936 141.24C122.314 141.24 122.692 141.45 122.692 141.87V144.53H125.254C125.618 144.53 125.8 144.866 125.8 145.202C125.8 145.538 125.618 145.874 125.254 145.874H122.692V148.212H124.75C125.1 148.212 125.282 148.548 125.282 148.898C125.282 149.234 125.1 149.584 124.75 149.584H122.692V152.356H125.548C125.898 152.356 126.08 152.692 126.08 153.042C126.08 153.378 125.898 153.728 125.548 153.728H117.834C117.498 153.728 117.316 153.378 117.316 153.042C117.316 152.692 117.498 152.356 117.834 152.356H121.18ZM116.294 141.772V153.616C116.294 154.036 115.916 154.246 115.538 154.246C115.146 154.246 114.768 154.036 114.768 153.616V141.772C114.768 141.352 115.146 141.156 115.538 141.156C115.916 141.156 116.294 141.352 116.294 141.772ZM113.452 144.558C113.494 144.236 113.746 144.082 113.998 144.082C114.292 144.082 114.572 144.278 114.572 144.628V144.698C114.516 145.328 114.362 146.168 114.18 146.77C114.082 147.078 113.844 147.218 113.606 147.218C113.312 147.218 113.032 147.008 113.032 146.686C113.032 146.63 113.032 146.56 113.06 146.49C113.242 145.902 113.382 145.104 113.452 144.558ZM117.512 144.012C117.652 144.432 117.778 144.936 117.834 145.314V145.412C117.834 145.79 117.526 146.014 117.246 146.014C117.008 146.014 116.784 145.874 116.728 145.552C116.658 145.132 116.56 144.6 116.462 144.264C116.448 144.208 116.434 144.138 116.434 144.082C116.434 143.788 116.7 143.606 116.966 143.606C117.19 143.606 117.414 143.732 117.512 144.012ZM131.554 147.68C131.554 150.27 130.448 152.552 128.138 154.414C128.012 154.526 127.858 154.582 127.718 154.582C127.452 154.582 127.2 154.344 127.2 154.078C127.2 153.896 127.27 153.77 127.41 153.644C129.426 151.922 130.266 149.976 130.266 147.68C130.266 145.384 129.426 143.438 127.41 141.716C127.27 141.59 127.2 141.464 127.2 141.282C127.2 141.016 127.452 140.778 127.718 140.778C127.858 140.778 128.012 140.834 128.138 140.946C130.448 142.808 131.554 145.09 131.554 147.68Z" fill="#282828"/>
<path d="M259.177 224L241.177 182L210 182L259.177 224Z" fill="#54B6CB"/>
</svg>
