<svg width="290" height="215" viewBox="0 0 290 215" fill="none" xmlns="http://www.w3.org/2000/svg">
<rect width="290" height="161" rx="80" fill="#FFF464"/>
<path d="M42.112 45.576V32.584H44.896V45.016L43.264 43.112C44.5653 43.112 45.728 42.9947 46.752 42.76C47.776 42.5253 48.6827 42.1627 49.472 41.672C50.272 41.1707 50.9707 40.5253 51.568 39.736C52.176 38.9467 52.7093 37.9973 53.168 36.888L55.376 37.832C54.7147 39.5813 53.8293 41.032 52.72 42.184C51.6213 43.336 50.2827 44.1893 48.704 44.744C47.136 45.2987 45.3013 45.576 43.2 45.576H42.112ZM70.88 42.04C69.2053 41.4747 67.5573 40.9627 65.936 40.504C64.3253 40.0453 62.8107 39.656 61.392 39.336L62.064 36.872C63.6107 37.2133 65.216 37.6187 66.88 38.088C68.544 38.5573 70.1493 39.0587 71.696 39.592L70.88 42.04ZM59.744 46.232V32.248H62.464V46.232H59.744ZM80.944 45.656V32.568H83.6V44.504L82.048 43.144C82.9867 43.144 83.776 42.9627 84.416 42.6C85.056 42.2267 85.5573 41.6613 85.92 40.904C86.2933 40.136 86.5387 39.16 86.656 37.976L89.104 38.312C88.9653 39.8907 88.5973 41.2293 88 42.328C87.4027 43.4267 86.6027 44.2587 85.6 44.824C84.608 45.3787 83.424 45.656 82.048 45.656H80.944ZM73.456 43.704C74.0427 43.416 74.5227 43.1173 74.896 42.808C75.2693 42.488 75.5573 42.104 75.76 41.656C75.9627 41.208 76.1013 40.6533 76.176 39.992C76.2613 39.32 76.304 38.488 76.304 37.496V32.568H78.896V37.688C78.896 38.8827 78.8213 39.9227 78.672 40.808C78.5333 41.6827 78.304 42.44 77.984 43.08C77.6747 43.7093 77.2587 44.2533 76.736 44.712C76.2133 45.16 75.5733 45.5493 74.816 45.88L73.456 43.704ZM104.16 42.04C102.485 41.4747 100.837 40.9627 99.216 40.504C97.6053 40.0453 96.0907 39.656 94.672 39.336L95.344 36.872C96.8907 37.2133 98.496 37.6187 100.16 38.088C101.824 38.5573 103.429 39.0587 104.976 39.592L104.16 42.04ZM93.024 46.232V32.248H95.744V46.232H93.024ZM108.976 45.24V35.144H113.376V33.848H115.744V35.144H120.016V41.64H111.52V39.944H117.472V39.128H111.52V37.608H117.472V36.84H111.52V45.24H108.976ZM107.552 46.44L107.344 44.424C108.613 44.3707 109.936 44.28 111.312 44.152C112.699 44.024 114.064 43.8693 115.408 43.688L115.616 45.64C114.272 45.8427 112.907 46.0133 111.52 46.152C110.144 46.2907 108.821 46.3867 107.552 46.44ZM120.832 46.504C119.691 46.2587 118.619 45.8853 117.616 45.384C116.624 44.8827 115.733 44.2747 114.944 43.56C114.165 42.8347 113.525 42.0347 113.024 41.16L115.072 40.376C115.456 41.016 115.947 41.5973 116.544 42.12C117.152 42.6427 117.899 43.112 118.784 43.528C119.68 43.9333 120.747 44.3013 121.984 44.632L120.832 46.504ZM118.128 44.92L116.72 43.368C117.339 42.9627 117.925 42.5413 118.48 42.104C119.035 41.656 119.573 41.1973 120.096 40.728L121.664 42.136C120.587 43.1387 119.408 44.0667 118.128 44.92ZM107.312 36.696L106.768 34.568C107.984 34.1413 109.088 33.704 110.08 33.256C111.072 32.808 112.043 32.312 112.992 31.768H116.128C117.077 32.312 118.048 32.808 119.04 33.256C120.032 33.704 121.136 34.1413 122.352 34.568L121.808 36.696C120.443 36.2373 119.157 35.72 117.952 35.144C116.757 34.568 115.627 33.944 114.56 33.272C113.493 33.944 112.357 34.568 111.152 35.144C109.957 35.72 108.677 36.2373 107.312 36.696ZM126 38.52V32.216H136.4V38.52H128.608V36.632H133.792V34.232H128.608V38.52H126ZM123.968 46.456V39.352H130.72V46.456H128.4V45.912H126.512V44.04H128.4V41.304H126.512V46.456H123.968ZM131.68 46.456V39.352H138.432V46.456H135.888V45.912H134V44.04H135.888V41.304H134V46.456H131.68ZM148.32 45.88C147.115 45.88 146.165 45.5973 145.472 45.032C144.789 44.4667 144.448 43.6827 144.448 42.68C144.448 41.6667 144.789 40.8827 145.472 40.328C146.155 39.7627 147.104 39.48 148.32 39.48C148.821 39.48 149.301 39.544 149.76 39.672C150.219 39.8 150.699 40.024 151.2 40.344C151.701 40.6533 152.267 41.0907 152.896 41.656C153.536 42.2213 154.293 42.9467 155.168 43.832L153.6 45.544C152.821 44.744 152.16 44.0933 151.616 43.592C151.083 43.08 150.619 42.6853 150.224 42.408C149.84 42.1307 149.488 41.9387 149.168 41.832C148.848 41.7253 148.523 41.672 148.192 41.672C147.243 41.672 146.768 42.008 146.768 42.68C146.768 43.352 147.243 43.688 148.192 43.688C148.704 43.688 149.067 43.5867 149.28 43.384C149.493 43.1813 149.6 42.8507 149.6 42.392V36.248V32.872H152.128V36.248V42.52C152.128 43.608 151.797 44.44 151.136 45.016C150.475 45.592 149.536 45.88 148.32 45.88ZM141.44 46.088C141.184 45 140.992 43.912 140.864 42.824C140.736 41.736 140.672 40.5947 140.672 39.4C140.672 38.2053 140.736 37.0693 140.864 35.992C140.992 34.904 141.184 33.816 141.44 32.728L144 33.016C143.755 34.0293 143.568 35.0693 143.44 36.136C143.323 37.192 143.264 38.28 143.264 39.4C143.264 40.52 143.323 41.6133 143.44 42.68C143.568 43.736 143.755 44.7707 144 45.784L141.44 46.088ZM144.672 37.128V34.952H154.88V37.128H144.672ZM151.504 34.792C151.408 34.2693 151.296 33.7787 151.168 33.32C151.051 32.8507 150.907 32.3813 150.736 31.912L152.48 31.496C152.661 31.9547 152.811 32.424 152.928 32.904C153.045 33.3733 153.152 33.88 153.248 34.424L151.504 34.792ZM153.936 34.584C153.851 34.0613 153.749 33.5707 153.632 33.112C153.525 32.6427 153.387 32.168 153.216 31.688L154.944 31.32C155.115 31.7893 155.259 32.264 155.376 32.744C155.493 33.224 155.589 33.7307 155.664 34.264L153.936 34.584ZM164.976 45.528C164.677 45.528 164.32 45.496 163.904 45.432C163.499 45.3787 163.072 45.2987 162.624 45.192C162.176 45.0853 161.749 44.9627 161.344 44.824L161.904 42.696C162.213 42.7813 162.517 42.8667 162.816 42.952C163.115 43.0267 163.387 43.0853 163.632 43.128C163.877 43.1707 164.075 43.192 164.224 43.192C164.501 43.192 164.72 43.0747 164.88 42.84C165.051 42.6053 165.173 42.2 165.248 41.624C165.323 41.0373 165.36 40.2267 165.36 39.192C165.36 38.648 165.339 38.2107 165.296 37.88C165.253 37.5387 165.179 37.2773 165.072 37.096C164.965 36.9147 164.805 36.792 164.592 36.728C164.389 36.664 164.123 36.632 163.792 36.632H156.928V34.376H163.52C164.32 34.376 164.987 34.408 165.52 34.472C166.053 34.536 166.48 34.664 166.8 34.856C167.131 35.0373 167.376 35.32 167.536 35.704C167.707 36.0773 167.813 36.5787 167.856 37.208C167.909 37.8267 167.936 38.6 167.936 39.528C167.936 40.9787 167.84 42.1467 167.648 43.032C167.456 43.9067 167.141 44.5413 166.704 44.936C166.277 45.3307 165.701 45.528 164.976 45.528ZM157.056 45.224C157.44 44.1573 157.776 43.192 158.064 42.328C158.363 41.4533 158.624 40.6267 158.848 39.848C159.083 39.0587 159.291 38.2693 159.472 37.48C159.664 36.68 159.845 35.8267 160.016 34.92C160.187 34.0027 160.368 32.9733 160.56 31.832L163.072 32.104C162.912 33.1813 162.747 34.184 162.576 35.112C162.405 36.0293 162.219 36.9147 162.016 37.768C161.813 38.6107 161.584 39.4587 161.328 40.312C161.083 41.1653 160.805 42.0507 160.496 42.968C160.187 43.8853 159.835 44.888 159.44 45.976L157.056 45.224ZM169.84 42.28C169.765 41.6507 169.659 40.9787 169.52 40.264C169.392 39.5493 169.243 38.8347 169.072 38.12C168.912 37.3947 168.736 36.696 168.544 36.024C168.363 35.3413 168.176 34.7173 167.984 34.152L170.432 33.576C170.635 34.1627 170.827 34.7973 171.008 35.48C171.2 36.1627 171.376 36.8667 171.536 37.592C171.707 38.3067 171.856 39.0213 171.984 39.736C172.112 40.4507 172.219 41.1387 172.304 41.8L169.84 42.28ZM176.448 43.56C178.421 43.56 180.005 43.4 181.2 43.08C182.405 42.76 183.28 42.2427 183.824 41.528C184.368 40.8027 184.64 39.8587 184.64 38.696C184.64 37.576 184.405 36.7547 183.936 36.232C183.467 35.6987 182.736 35.432 181.744 35.432C181.211 35.432 180.704 35.5173 180.224 35.688C179.744 35.848 179.317 36.0827 178.944 36.392C178.571 36.7013 178.277 37.0693 178.064 37.496C177.851 37.9227 177.744 38.4027 177.744 38.936V41.112H175.232V32.664H177.744V35.752H176.784C177.243 35.1227 177.733 34.6053 178.256 34.2C178.779 33.784 179.349 33.48 179.968 33.288C180.587 33.0853 181.269 32.984 182.016 32.984C183.733 32.984 185.04 33.4747 185.936 34.456C186.843 35.4267 187.296 36.84 187.296 38.696C187.296 40.3707 186.917 41.7413 186.16 42.808C185.403 43.8747 184.235 44.664 182.656 45.176C181.077 45.688 179.051 45.944 176.576 45.944L176.448 43.56ZM190.864 45.832C191.291 44.4027 191.675 42.952 192.016 41.48C192.368 40.008 192.677 38.504 192.944 36.968C193.221 35.4213 193.467 33.8373 193.68 32.216L196.272 32.328C196.091 33.896 195.861 35.4693 195.584 37.048C195.317 38.616 195.008 40.1733 194.656 41.72C194.304 43.256 193.909 44.776 193.472 46.28L190.864 45.832ZM201.04 46.008C200.005 46.008 199.115 45.8853 198.368 45.64C197.632 45.4053 197.061 45.0693 196.656 44.632C196.251 44.184 196.048 43.6507 196.048 43.032C196.048 42.6053 196.176 42.1947 196.432 41.8C196.688 41.3947 197.083 40.984 197.616 40.568L199.824 41.496C199.483 41.72 199.221 41.944 199.04 42.168C198.859 42.3813 198.768 42.5787 198.768 42.76C198.768 42.952 198.859 43.1173 199.04 43.256C199.232 43.3947 199.499 43.5013 199.84 43.576C200.181 43.6507 200.581 43.688 201.04 43.688C201.531 43.688 202.021 43.6613 202.512 43.608C203.013 43.5547 203.552 43.4747 204.128 43.368L204.4 45.688C203.792 45.8053 203.227 45.8853 202.704 45.928C202.192 45.9813 201.637 46.008 201.04 46.008ZM190.64 36.312V34.072H201.728V36.312H190.64ZM196.784 37.624C198.053 37.5067 199.301 37.4213 200.528 37.368C201.765 37.304 202.997 37.272 204.224 37.272V39.528C203.019 39.528 201.808 39.56 200.592 39.624C199.387 39.6773 198.165 39.7627 196.928 39.88L196.784 37.624ZM201.168 35.4C200.88 34.824 200.592 34.3067 200.304 33.848C200.016 33.3893 199.696 32.9307 199.344 32.472L200.832 31.576C201.205 32.024 201.541 32.4933 201.84 32.984C202.139 33.464 202.427 33.9867 202.704 34.552L201.168 35.4ZM203.744 35.112C203.499 34.536 203.243 34.0133 202.976 33.544C202.72 33.0747 202.427 32.6 202.096 32.12L203.616 31.32C203.957 31.8 204.261 32.2853 204.528 32.776C204.795 33.2667 205.056 33.8107 205.312 34.408L203.744 35.112ZM211.072 43.144C212.651 43.144 213.915 43.0533 214.864 42.872C215.813 42.68 216.496 42.3813 216.912 41.976C217.339 41.5707 217.552 41.0373 217.552 40.376C217.552 39.672 217.328 39.16 216.88 38.84C216.443 38.52 215.739 38.36 214.768 38.36C214.341 38.36 213.872 38.3973 213.36 38.472C212.848 38.536 212.251 38.6373 211.568 38.776C210.896 38.904 210.096 39.0853 209.168 39.32L208.704 36.952C210.112 36.6427 211.323 36.4133 212.336 36.264C213.349 36.1147 214.213 36.04 214.928 36.04C216.613 36.04 217.893 36.392 218.768 37.096C219.643 37.8 220.08 38.824 220.08 40.168C220.08 41.896 219.333 43.2027 217.84 44.088C216.357 44.9733 214.155 45.416 211.232 45.416L211.072 43.144ZM224.304 45.672C224.731 44.2427 225.115 42.792 225.456 41.32C225.808 39.848 226.117 38.344 226.384 36.808C226.661 35.2613 226.907 33.6773 227.12 32.056L229.712 32.168C229.531 33.736 229.301 35.3093 229.024 36.888C228.757 38.456 228.448 40.0133 228.096 41.56C227.744 43.096 227.349 44.616 226.912 46.12L224.304 45.672ZM234.48 45.848C233.445 45.848 232.555 45.7253 231.808 45.48C231.072 45.2453 230.501 44.9093 230.096 44.472C229.691 44.024 229.488 43.4907 229.488 42.872C229.488 42.4453 229.616 42.0347 229.872 41.64C230.128 41.2347 230.523 40.824 231.056 40.408L233.264 41.336C232.923 41.56 232.661 41.784 232.48 42.008C232.299 42.2213 232.208 42.4187 232.208 42.6C232.208 42.792 232.299 42.9573 232.48 43.096C232.672 43.2347 232.939 43.3413 233.28 43.416C233.621 43.4907 234.021 43.528 234.48 43.528C234.971 43.528 235.461 43.5013 235.952 43.448C236.453 43.3947 236.992 43.3147 237.568 43.208L237.84 45.528C237.232 45.6453 236.667 45.7253 236.144 45.768C235.632 45.8213 235.077 45.848 234.48 45.848ZM224.08 36.152V33.912H235.6V36.152H224.08ZM230.224 37.464C231.493 37.3467 232.741 37.2613 233.968 37.208C235.205 37.144 236.437 37.112 237.664 37.112V39.368C236.459 39.368 235.248 39.4 234.032 39.464C232.827 39.5173 231.605 39.6027 230.368 39.72L230.224 37.464ZM44.592 75.728L43.936 73.568C44.7893 73.4507 45.5147 73.3013 46.112 73.12C46.72 72.928 47.2053 72.7093 47.568 72.464C47.9413 72.2187 48.2133 71.9573 48.384 71.68C48.5547 71.392 48.64 71.0827 48.64 70.752V67.744H44.576V66.144H55.248V67.744H51.184V70.752C51.184 71.2533 51.024 71.76 50.704 72.272C50.384 72.784 49.9253 73.2747 49.328 73.744C48.7413 74.2027 48.0427 74.608 47.232 74.96C46.432 75.312 45.552 75.568 44.592 75.728ZM41.456 75.552V65.376H43.76V75.552H41.456ZM40.544 70.56L40.096 67.376C40.5013 66.832 40.8533 66.256 41.152 65.648C41.4613 65.0293 41.744 64.3307 42 63.552C42.256 62.7733 42.4853 61.8773 42.688 60.864L45.056 61.28C44.8747 62.4427 44.608 63.52 44.256 64.512C43.9147 65.504 43.5147 66.384 43.056 67.152L42.624 66.976C42.5493 67.2427 42.4267 67.5467 42.256 67.888C42.096 68.2187 41.9147 68.5547 41.712 68.896C41.52 69.2373 41.3227 69.552 41.12 69.84C40.9173 70.128 40.7253 70.368 40.544 70.56ZM44.4 72.224V70.448H55.424V72.224H44.4ZM55.072 75.728C54.1653 75.568 53.3333 75.312 52.576 74.96C51.8293 74.608 51.184 74.2027 50.64 73.744C50.096 73.2853 49.6693 72.8 49.36 72.288C49.0613 71.7653 48.912 71.2533 48.912 70.752H51.184C51.184 71.2 51.3333 71.6053 51.632 71.968C51.9413 72.3307 52.4267 72.6453 53.088 72.912C53.76 73.1787 54.64 73.3973 55.728 73.568L55.072 75.728ZM44.912 69.84V68.352H54.928V69.84H44.912ZM46.928 67.28C46.8 66.736 46.656 66.1867 46.496 65.632C46.336 65.0773 46.1653 64.5387 45.984 64.016L48.4 63.792C48.5813 64.3147 48.752 64.8533 48.912 65.408C49.072 65.952 49.216 66.5013 49.344 67.056L46.928 67.28ZM46.032 64.304C45.8827 63.8453 45.7227 63.392 45.552 62.944C45.392 62.496 45.216 62.0693 45.024 61.664L46.768 61.072C46.9493 61.4667 47.1253 61.888 47.296 62.336C47.4667 62.784 47.6267 63.2427 47.776 63.712L46.032 64.304ZM52.928 67.344L50.528 67.056C50.688 66.6827 50.8267 66.336 50.944 66.016C51.0613 65.6853 51.168 65.344 51.264 64.992C51.3707 64.64 51.472 64.24 51.568 63.792L53.968 64.016C53.8507 64.592 53.7013 65.1627 53.52 65.728C53.3387 66.2933 53.1413 66.832 52.928 67.344ZM44.576 64.832V62.896H47.808V60.832H49.744V62.896H50.352V60.832H52.272V62.896H55.344V64.832H44.576ZM53.984 64.16L52.24 63.696C52.4427 63.2693 52.6293 62.832 52.8 62.384C52.9813 61.936 53.1307 61.4987 53.248 61.072L54.992 61.52C54.864 61.9573 54.7147 62.4 54.544 62.848C54.3733 63.296 54.1867 63.7333 53.984 64.16ZM67.152 74.88C65.808 74.88 64.64 74.6507 63.648 74.192C62.656 73.7333 61.888 73.088 61.344 72.256C60.8 71.424 60.528 70.4427 60.528 69.312C60.528 68.5227 60.656 67.7867 60.912 67.104C61.168 66.4213 61.536 65.8133 62.016 65.28C62.5067 64.7467 63.088 64.32 63.76 64L64.016 64.512L57.056 64.672V62.352L70.704 62.032V64.352L68.656 64.4C67.9093 64.4107 67.2107 64.528 66.56 64.752C65.9093 64.976 65.3387 65.2907 64.848 65.696C64.3573 66.1013 63.9787 66.5867 63.712 67.152C63.4453 67.7067 63.312 68.336 63.312 69.04C63.312 69.7653 63.4613 70.3893 63.76 70.912C64.0587 71.424 64.496 71.8187 65.072 72.096C65.6587 72.3627 66.3573 72.496 67.168 72.496C67.36 72.496 67.5733 72.4907 67.808 72.48C68.0427 72.4587 68.2827 72.4373 68.528 72.416C68.7733 72.384 69.0027 72.3467 69.216 72.304L69.504 74.688C69.248 74.72 68.9813 74.752 68.704 74.784C68.4267 74.816 68.1547 74.8373 67.888 74.848C67.6213 74.8693 67.376 74.88 67.152 74.88ZM68.288 70.048C68.032 69.4933 67.76 68.9653 67.472 68.464C67.184 67.9627 66.8533 67.4507 66.48 66.928L68.128 66.032C68.5013 66.5547 68.832 67.072 69.12 67.584C69.4187 68.096 69.7013 68.64 69.968 69.216L68.288 70.048ZM70.896 69.168C70.6507 68.6027 70.3893 68.0693 70.112 67.568C69.8347 67.056 69.52 66.5387 69.168 66.016L70.816 65.168C71.168 65.712 71.4827 66.24 71.76 66.752C72.048 67.264 72.3147 67.8133 72.56 68.4L70.896 69.168ZM83.184 74.88C82.1707 74.88 81.328 74.816 80.656 74.688C79.9947 74.5707 79.472 74.3573 79.088 74.048C78.7147 73.7493 78.448 73.3387 78.288 72.816C78.128 72.2933 78.048 71.632 78.048 70.832C78.048 70.5867 78.0533 70.2133 78.064 69.712C78.0747 69.2 78.0907 68.6027 78.112 67.92C78.1333 67.2373 78.1547 66.5067 78.176 65.728C78.208 64.9493 78.24 64.16 78.272 63.36C78.304 62.56 78.336 61.7973 78.368 61.072L80.96 61.12C80.928 61.7387 80.896 62.4107 80.864 63.136C80.832 63.8507 80.8 64.5707 80.768 65.296C80.7467 66.0107 80.7253 66.6987 80.704 67.36C80.6827 68.0213 80.6667 68.6133 80.656 69.136C80.6453 69.6587 80.64 70.0693 80.64 70.368C80.64 70.8587 80.6667 71.248 80.72 71.536C80.784 71.824 80.9013 72.0427 81.072 72.192C81.2427 72.3413 81.4987 72.4427 81.84 72.496C82.1813 72.5387 82.6293 72.56 83.184 72.56C83.888 72.56 84.4373 72.5227 84.832 72.448C85.2373 72.3733 85.5253 72.2453 85.696 72.064C85.8667 71.8827 85.952 71.632 85.952 71.312C85.952 71.1413 85.9253 70.9173 85.872 70.64C85.8187 70.352 85.7653 70.1227 85.712 69.952L88.24 69.408C88.3467 69.8667 88.4213 70.2453 88.464 70.544C88.5067 70.832 88.528 71.1147 88.528 71.392C88.528 72.1813 88.336 72.8373 87.952 73.36C87.568 73.872 86.9813 74.2507 86.192 74.496C85.4027 74.752 84.4 74.88 83.184 74.88ZM74.16 69.104V66.912H87.008V69.104H74.16ZM74.48 64.992V62.8H86.688V64.992H74.48ZM94.288 75.376C93.7867 74.704 93.248 74.0747 92.672 73.488C92.096 72.9013 91.4667 72.3627 90.784 71.872L92.592 70.144C93.2533 70.6667 93.888 71.2373 94.496 71.856C95.104 72.4747 95.6693 73.1307 96.192 73.824L94.288 75.376ZM108.144 75.488L107.264 73.328C108.331 73.2 109.243 73.0347 110 72.832C110.757 72.6187 111.376 72.384 111.856 72.128C112.336 71.8613 112.688 71.5733 112.912 71.264C113.136 70.9547 113.248 70.624 113.248 70.272V68.944H107.2V67.168H113.248V66.464H108.48V64.8H113.248V64.112H107.68V62.096H121.44V64.112H115.872V64.8H120.64V66.464H115.872V67.168H121.92V68.944H115.872V70.416C115.872 70.896 115.685 71.3973 115.312 71.92C114.949 72.4427 114.427 72.944 113.744 73.424C113.061 73.8933 112.245 74.3093 111.296 74.672C110.357 75.0453 109.307 75.3173 108.144 75.488ZM107.28 71.632V69.664H121.84V71.632H107.28ZM120.976 75.488C119.877 75.3173 118.875 75.0453 117.968 74.672C117.061 74.3093 116.283 73.8933 115.632 73.424C114.981 72.9547 114.475 72.4587 114.112 71.936C113.76 71.4133 113.584 70.9067 113.584 70.416L115.872 70.272C115.872 70.6133 115.979 70.944 116.192 71.264C116.416 71.5733 116.763 71.8613 117.232 72.128C117.712 72.384 118.331 72.6187 119.088 72.832C119.856 73.0347 120.779 73.2 121.856 73.328L120.976 75.488ZM111.44 63.616C111.237 63.168 111.019 62.7253 110.784 62.288C110.56 61.84 110.331 61.4187 110.096 61.024L112.496 60.656C112.731 61.0507 112.96 61.472 113.184 61.92C113.419 62.3573 113.637 62.8 113.84 63.248L111.44 63.616ZM117.744 63.552L115.28 63.248C115.547 62.8213 115.792 62.3893 116.016 61.952C116.251 61.504 116.453 61.0773 116.624 60.672L119.088 60.96C118.907 61.376 118.699 61.808 118.464 62.256C118.24 62.6933 118 63.1253 117.744 63.552ZM132.592 75.712V68.736H129.184V66.656H132.592V64.816H129.488V62.736H132.592V60.768H135.072V62.736H138.4V64.816H135.072V66.656H138.64V68.736H135.072V75.712H132.592ZM124.096 74.912V61.632H129.488V74.048H126.448V71.968H127.344V63.776H126.448V74.912H124.096ZM130.016 75.04L128.272 73.264C129.157 72.272 129.92 71.28 130.56 70.288C131.2 69.296 131.744 68.2773 132.192 67.232L133.872 67.648C133.445 69.056 132.923 70.352 132.304 71.536C131.685 72.7093 130.923 73.8773 130.016 75.04ZM137.552 75.04C136.667 73.8773 135.925 72.7093 135.328 71.536C134.731 70.352 134.224 69.056 133.808 67.648L135.552 67.232C135.936 68.1813 136.405 69.1093 136.96 70.016C137.525 70.912 138.192 71.8133 138.96 72.72L137.552 75.04ZM147.536 74.912C146.245 74.912 145.195 74.7147 144.384 74.32C143.573 73.936 142.976 73.3333 142.592 72.512C142.219 71.68 142.032 70.6133 142.032 69.312V61.68H144.688V69.312C144.688 70.432 144.907 71.2373 145.344 71.728C145.781 72.208 146.512 72.448 147.536 72.448C148.304 72.448 148.981 72.304 149.568 72.016C150.155 71.728 150.693 71.2533 151.184 70.592C151.685 69.9307 152.181 69.0347 152.672 67.904L155.008 68.912C154.56 70.0213 154.091 70.96 153.6 71.728C153.12 72.4853 152.587 73.0987 152 73.568C151.413 74.0373 150.752 74.3787 150.016 74.592C149.291 74.8053 148.464 74.912 147.536 74.912ZM161.552 74.672C160.965 74.672 160.432 74.5067 159.952 74.176C159.472 73.8453 159.056 73.376 158.704 72.768C158.363 72.16 158.096 71.4347 157.904 70.592C157.723 69.7493 157.632 68.816 157.632 67.792C157.632 66.9813 157.701 66.1387 157.84 65.264C157.979 64.3893 158.192 63.4293 158.48 62.384L161.04 62.672C160.773 63.6107 160.576 64.4693 160.448 65.248C160.32 66.0267 160.256 66.7733 160.256 67.488C160.256 68.1173 160.293 68.6987 160.368 69.232C160.453 69.7653 160.565 70.2293 160.704 70.624C160.843 71.0187 161.003 71.328 161.184 71.552C161.376 71.7653 161.579 71.872 161.792 71.872C162.005 71.872 162.24 71.776 162.496 71.584C162.763 71.392 163.035 71.1307 163.312 70.8C163.6 70.4587 163.872 70.0747 164.128 69.648C164.384 69.2107 164.603 68.7573 164.784 68.288L167.104 69.504C166.827 70.24 166.48 70.9227 166.064 71.552C165.659 72.1813 165.205 72.7307 164.704 73.2C164.203 73.6693 163.685 74.032 163.152 74.288C162.619 74.544 162.085 74.672 161.552 74.672ZM169.136 73.088C169.136 71.872 169.056 70.6613 168.896 69.456C168.747 68.2507 168.523 67.0827 168.224 65.952C167.936 64.8213 167.579 63.7653 167.152 62.784L169.568 62.096C170.048 63.1093 170.448 64.208 170.768 65.392C171.099 66.5653 171.344 67.7973 171.504 69.088C171.675 70.3787 171.76 71.712 171.76 73.088H169.136ZM175.792 75.552V68.048H173.712V66.048H175.856V60.928H177.984V66.048H179.84V68.048H178.032V75.552H175.792ZM174.256 74.112L173.328 71.616C173.968 70.8267 174.48 70.0213 174.864 69.2C175.259 68.3787 175.552 67.5093 175.744 66.592L176.608 67.2C176.555 68.1173 176.416 69.0133 176.192 69.888C175.979 70.752 175.701 71.5467 175.36 72.272C175.029 72.9973 174.661 73.6107 174.256 74.112ZM178.864 72.464C178.523 71.6533 178.176 70.848 177.824 70.048C177.483 69.2373 177.115 68.3893 176.72 67.504L178.048 66.784C178.432 67.52 178.805 68.2453 179.168 68.96C179.531 69.664 179.899 70.3947 180.272 71.152L178.864 72.464ZM174.432 65.808C174.283 65.2 174.123 64.576 173.952 63.936C173.781 63.296 173.616 62.7147 173.456 62.192L175.088 61.6C175.259 62.1333 175.419 62.7147 175.568 63.344C175.728 63.9627 175.872 64.592 176 65.232L174.432 65.808ZM179.808 73.52L179.6 71.376L188.752 69.664L188.96 71.808L179.808 73.52ZM182.864 70.24C182.395 69.728 181.893 69.1947 181.36 68.64C180.827 68.0853 180.261 67.5307 179.664 66.976L181.328 65.44C181.925 65.984 182.491 66.528 183.024 67.072C183.568 67.6053 184.069 68.1333 184.528 68.656L182.864 70.24ZM179.344 65.824L177.712 65.168C177.925 64.6027 178.117 63.9947 178.288 63.344C178.459 62.6933 178.592 62.0853 178.688 61.52L180.448 61.904C180.32 62.5227 180.155 63.1787 179.952 63.872C179.76 64.5547 179.557 65.2053 179.344 65.824ZM185.056 75.552V60.928H187.536V75.552H185.056ZM183.504 65.984C183.099 65.5253 182.661 65.056 182.192 64.576C181.723 64.096 181.232 63.6107 180.72 63.12L182.384 61.6C182.896 62.0693 183.387 62.5387 183.856 63.008C184.325 63.4773 184.763 63.936 185.168 64.384L183.504 65.984ZM194.368 75.168V73.152H198.768V72.032H195.232V70.16H198.768V65.952H197.44V64.432H198.768V63.088H201.264V64.432H202.608V63.088H197.44V69.088H195.296V61.152H204.8V69.088H197.44V67.328H202.608V65.952H201.264V70.16H204.992V72.032H201.264V73.152H205.168V75.168H194.368ZM190.48 74.208L190.256 72.064C190.736 71.9787 191.243 71.872 191.776 71.744C192.32 71.616 192.859 71.4773 193.392 71.328C193.936 71.1787 194.437 71.0293 194.896 70.88L194.912 72.96C194.475 73.12 193.995 73.28 193.472 73.44C192.949 73.6 192.427 73.7493 191.904 73.888C191.381 74.016 190.907 74.1227 190.48 74.208ZM191.456 72.24V68.368H190.496V66.224H191.456V63.888H190.336V61.68H194.912V63.888H193.824V66.224H194.816V68.368H193.824V72.24H191.456ZM206.976 74.384C207.36 73.3173 207.696 72.352 207.984 71.488C208.283 70.6133 208.544 69.7867 208.768 69.008C209.003 68.2187 209.211 67.4293 209.392 66.64C209.584 65.84 209.765 64.9867 209.936 64.08C210.107 63.1627 210.288 62.1333 210.48 60.992L212.992 61.264C212.832 62.3413 212.667 63.344 212.496 64.272C212.325 65.1893 212.139 66.0747 211.936 66.928C211.733 67.7707 211.504 68.6187 211.248 69.472C211.003 70.3253 210.725 71.2107 210.416 72.128C210.107 73.0453 209.755 74.048 209.36 75.136L206.976 74.384ZM219.728 72.256C219.653 71.6267 219.547 70.9493 219.408 70.224C219.28 69.4987 219.131 68.768 218.96 68.032C218.8 67.296 218.624 66.592 218.432 65.92L220.864 65.28C221.056 65.984 221.237 66.7093 221.408 67.456C221.579 68.192 221.733 68.9333 221.872 69.68C222.011 70.416 222.123 71.1253 222.208 71.808L219.728 72.256ZM218.352 65.136C218.085 64.5707 217.808 64.0587 217.52 63.6C217.243 63.1307 216.933 62.656 216.592 62.176L218.144 61.312C218.496 61.7707 218.811 62.2453 219.088 62.736C219.365 63.2267 219.637 63.7653 219.904 64.352L218.352 65.136ZM220.688 64.272C220.432 63.696 220.171 63.1733 219.904 62.704C219.648 62.224 219.355 61.7493 219.024 61.28L220.56 60.48C220.901 60.96 221.2 61.4453 221.456 61.936C221.723 62.4267 221.984 62.9707 222.24 63.568L220.688 64.272ZM214.784 74.688C214.496 74.688 214.144 74.656 213.728 74.592C213.312 74.5387 212.88 74.4587 212.432 74.352C211.984 74.2453 211.557 74.1227 211.152 73.984L211.712 71.856C212.032 71.9413 212.341 72.0267 212.64 72.112C212.939 72.1867 213.211 72.2453 213.456 72.288C213.701 72.3307 213.893 72.352 214.032 72.352C214.32 72.352 214.544 72.2347 214.704 72C214.875 71.7653 214.992 71.36 215.056 70.784C215.131 70.1973 215.168 69.3867 215.168 68.352C215.168 67.808 215.147 67.3707 215.104 67.04C215.061 66.6987 214.987 66.4373 214.88 66.256C214.773 66.0747 214.619 65.952 214.416 65.888C214.213 65.824 213.941 65.792 213.6 65.792H206.848V63.536H213.328C214.139 63.536 214.811 63.568 215.344 63.632C215.877 63.696 216.304 63.824 216.624 64.016C216.944 64.1973 217.184 64.48 217.344 64.864C217.515 65.2373 217.627 65.7387 217.68 66.368C217.733 66.9867 217.76 67.76 217.76 68.688C217.76 70.1387 217.659 71.3067 217.456 72.192C217.264 73.0667 216.949 73.7013 216.512 74.096C216.085 74.4907 215.509 74.688 214.784 74.688ZM231.552 75.552V64.32H230.832V62.24H238.64V64.32H234.128V66.4H238.16V68.48H234.128V70.592H238.16V72.736H234.128V75.552H231.552ZM225.232 75.552V64.896H227.728V75.552H225.232ZM224.16 70.32L223.36 67.616C223.904 66.976 224.373 66.32 224.768 65.648C225.173 64.9653 225.515 64.2347 225.792 63.456C226.069 62.6667 226.299 61.8027 226.48 60.864L228.784 61.296C228.592 62.448 228.309 63.5093 227.936 64.48C227.573 65.44 227.131 66.304 226.608 67.072L226.384 66.592C226.299 66.8693 226.165 67.184 225.984 67.536C225.813 67.8773 225.621 68.2293 225.408 68.592C225.205 68.944 224.992 69.2693 224.768 69.568C224.555 69.8667 224.352 70.1173 224.16 70.32ZM229.584 68.656L227.584 67.088C228.192 66.0747 228.741 65.0347 229.232 63.968C229.723 62.9013 230.149 61.8133 230.512 60.704L232.912 61.184C232.528 62.464 232.053 63.7387 231.488 65.008C230.923 66.2667 230.288 67.4827 229.584 68.656ZM52.864 103.592C52.096 103.592 51.5413 103.395 51.2 103C50.8587 102.595 50.688 101.944 50.688 101.048V95.592C50.688 95.0373 50.624 94.632 50.496 94.376C50.3787 94.1093 50.192 93.976 49.936 93.976C49.776 93.976 49.5787 94.0347 49.344 94.152C49.12 94.2693 48.8213 94.4773 48.448 94.776C48.0747 95.064 47.5947 95.4747 47.008 96.008C46.4213 96.5307 45.696 97.208 44.832 98.04H44.56C44.144 98.4667 43.68 98.9467 43.168 99.48C42.656 100.003 42.0907 100.584 41.472 101.224L40.144 99.112C41.52 97.8107 42.6987 96.7173 43.68 95.832C44.672 94.936 45.5147 94.2053 46.208 93.64C46.9013 93.064 47.4933 92.6213 47.984 92.312C48.4747 92.0027 48.9067 91.7947 49.28 91.688C49.664 91.5707 50.0373 91.512 50.4 91.512C51.36 91.512 52.08 91.7947 52.56 92.36C53.04 92.9147 53.28 93.752 53.28 94.872V99.752C53.28 100.136 53.2907 100.429 53.312 100.632C53.3333 100.824 53.3653 100.952 53.408 101.016C53.4613 101.08 53.536 101.112 53.632 101.112C53.8027 101.112 54.0373 101.053 54.336 100.936C54.6453 100.819 55.0027 100.653 55.408 100.44L55.92 102.76C55.44 103.027 54.9387 103.229 54.416 103.368C53.8933 103.517 53.376 103.592 52.864 103.592ZM43.744 104.152V94.648H40.352V92.472H43.744V90.328H46.272V104.152H43.744ZM67.792 103.72C66.448 103.72 65.28 103.496 64.288 103.048C63.296 102.611 62.528 101.987 61.984 101.176C61.44 100.365 61.168 99.4107 61.168 98.312C61.168 97.544 61.296 96.8293 61.552 96.168C61.808 95.5067 62.176 94.92 62.656 94.408C63.1467 93.8853 63.728 93.4693 64.4 93.16L64.656 93.672L57.696 93.832V91.512L71.344 91.192V93.512L69.296 93.56C68.56 93.5707 67.8667 93.6827 67.216 93.896C66.5653 94.1093 65.9947 94.4133 65.504 94.808C65.0133 95.192 64.6293 95.656 64.352 96.2C64.0853 96.744 63.952 97.3573 63.952 98.04C63.952 98.744 64.1013 99.3413 64.4 99.832C64.6987 100.312 65.136 100.685 65.712 100.952C66.2987 101.208 66.9973 101.336 67.808 101.336C68.1067 101.336 68.4427 101.32 68.816 101.288C69.1893 101.256 69.536 101.208 69.856 101.144L70.144 103.528C69.7493 103.592 69.344 103.64 68.928 103.672C68.5227 103.704 68.144 103.72 67.792 103.72ZM75.28 100.776L73.6 98.712C73.7493 98.4347 73.8773 98.1573 73.984 97.88C74.0907 97.6027 74.1813 97.2933 74.256 96.952C74.3307 96.6107 74.384 96.2107 74.416 95.752C74.4587 95.2827 74.4907 94.728 74.512 94.088C74.5333 93.4373 74.544 92.6693 74.544 91.784V90.76H88.288V92.664H76.896V93.672C76.896 94.568 76.864 95.368 76.8 96.072C76.736 96.776 76.64 97.4053 76.512 97.96C76.384 98.5147 76.2187 99.0213 76.016 99.48C75.8133 99.9387 75.568 100.371 75.28 100.776ZM75.296 104.472L73.504 103.032C73.888 102.584 74.2347 102.104 74.544 101.592C74.864 101.08 75.1253 100.547 75.328 99.992L77.344 100.936C77.1307 101.587 76.848 102.216 76.496 102.824C76.144 103.432 75.744 103.981 75.296 104.472ZM81.68 104.6C81.3173 104.6 80.944 104.595 80.56 104.584C80.1867 104.573 79.872 104.563 79.616 104.552C79.136 104.531 78.7467 104.488 78.448 104.424C78.1493 104.371 77.9253 104.264 77.776 104.104C77.6267 103.944 77.5253 103.709 77.472 103.4C77.4187 103.101 77.392 102.707 77.392 102.216V100.072H79.952V101.992C79.952 102.184 79.9573 102.328 79.968 102.424C79.9893 102.509 80.0267 102.568 80.08 102.6C80.144 102.621 80.24 102.637 80.368 102.648C80.496 102.659 80.6667 102.669 80.88 102.68C81.0933 102.691 81.3227 102.696 81.568 102.696C81.7493 102.696 81.9573 102.691 82.192 102.68C82.4267 102.669 82.6187 102.659 82.768 102.648C82.96 102.637 83.1147 102.611 83.232 102.568C83.3493 102.525 83.44 102.456 83.504 102.36C83.5787 102.253 83.632 102.104 83.664 101.912C83.696 101.709 83.7173 101.443 83.728 101.112L86.08 101.448C86.048 102.088 85.9947 102.605 85.92 103C85.856 103.384 85.744 103.677 85.584 103.88C85.424 104.093 85.1947 104.243 84.896 104.328C84.608 104.424 84.224 104.493 83.744 104.536C83.488 104.557 83.1893 104.573 82.848 104.584C82.5173 104.595 82.128 104.6 81.68 104.6ZM82.56 102.28C82.208 101.928 81.8293 101.592 81.424 101.272C81.0187 100.952 80.5973 100.653 80.16 100.376L81.648 98.952C82.0853 99.2293 82.496 99.5227 82.88 99.832C83.2747 100.141 83.6427 100.461 83.984 100.792L82.56 102.28ZM76.848 99.512V95.272H82.192V99.016H79.024V97.704H80.256V96.568H79.024V99.512H76.848ZM87.04 104.248C86.752 103.64 86.4267 103.027 86.064 102.408C85.712 101.789 85.328 101.192 84.912 100.616L86.912 99.576C87.3387 100.173 87.7387 100.787 88.112 101.416C88.4853 102.035 88.8213 102.659 89.12 103.288L87.04 104.248ZM76.768 94.728V93.192H82.336V94.728H76.768ZM82.656 98.856L81.456 97.016C82.4373 96.5253 83.3067 95.928 84.064 95.224C84.8213 94.52 85.5253 93.672 86.176 92.68L87.936 93.816C87.2533 94.9787 86.48 95.9707 85.616 96.792C84.7627 97.6133 83.776 98.3013 82.656 98.856ZM86.352 100.12C85.9253 100.12 85.504 99.9867 85.088 99.72C84.672 99.4533 84.2773 99.048 83.904 98.504C83.5307 97.9493 83.2 97.2613 82.912 96.44C82.6347 95.608 82.4107 94.6373 82.24 93.528C82.08 92.408 82 91.1493 82 89.752H84.208C84.208 90.84 84.2613 91.816 84.368 92.68C84.4853 93.544 84.6347 94.3013 84.816 94.952C84.9973 95.592 85.184 96.1253 85.376 96.552C85.5787 96.9787 85.7653 97.2987 85.936 97.512C86.1067 97.7253 86.2453 97.832 86.352 97.832C86.4267 97.832 86.5067 97.784 86.592 97.688C86.6773 97.5813 86.7627 97.4107 86.848 97.176C86.944 96.9413 87.024 96.6213 87.088 96.216L88.864 96.824C88.736 97.9333 88.4373 98.76 87.968 99.304C87.4987 99.848 86.96 100.12 86.352 100.12ZM85.952 92.408C85.76 91.992 85.552 91.5813 85.328 91.176C85.1147 90.76 84.896 90.3653 84.672 89.992L86.72 89.432C86.9547 89.8053 87.1787 90.2 87.392 90.616C87.616 91.032 87.824 91.448 88.016 91.864L85.952 92.408ZM93.584 103.528V101.8H90.704V100.2H93.584V99.192L93.696 99.128V95.4L93.584 95.368V94.328H90.608V92.728H93.584V91.48H96.032V92.728H98.608V94.328H96.032V95.352L95.92 95.4V99.128L96.032 99.224V100.2H98.368V101.8H96.032V103.528H93.584ZM90.592 104.424L90.448 102.568C91.0453 102.547 91.6907 102.525 92.384 102.504C93.0773 102.472 93.776 102.435 94.48 102.392C95.1947 102.349 95.888 102.312 96.56 102.28C97.2427 102.237 97.8667 102.195 98.432 102.152L98.56 103.864C97.7813 103.949 96.928 104.024 96 104.088C95.072 104.163 94.1387 104.227 93.2 104.28C92.272 104.344 91.4027 104.392 90.592 104.424ZM90.944 99.64V94.888H98.528V99.64H92.864V98.376H96.752V97.752H92.864V96.792H96.752V96.168H92.864V99.64H90.944ZM99.328 104.568L97.536 103.272C97.8667 102.792 98.1547 102.28 98.4 101.736C98.6453 101.181 98.8533 100.557 99.024 99.864C99.2053 99.16 99.3493 98.344 99.456 97.416C99.5733 96.488 99.6587 95.4107 99.712 94.184C99.7653 92.9467 99.792 91.5067 99.792 89.864H101.936C101.936 91.5707 101.904 93.0907 101.84 94.424C101.776 95.7467 101.68 96.92 101.552 97.944C101.424 98.9573 101.253 99.8587 101.04 100.648C100.837 101.427 100.592 102.136 100.304 102.776C100.027 103.405 99.7013 104.003 99.328 104.568ZM103.008 104.264C102.805 104.264 102.491 104.248 102.064 104.216C101.648 104.184 101.227 104.147 100.8 104.104L100.736 101.88C101.131 101.944 101.44 101.987 101.664 102.008C101.899 102.029 102.08 102.04 102.208 102.04C102.304 102.04 102.384 102.008 102.448 101.944C102.512 101.88 102.565 101.747 102.608 101.544C102.661 101.341 102.704 101.037 102.736 100.632C102.779 100.216 102.805 99.6667 102.816 98.984C102.827 98.2907 102.832 97.4213 102.832 96.376V95.144H98.272V93.064H105.264V94.584C105.264 96.1413 105.253 97.464 105.232 98.552C105.211 99.6293 105.173 100.525 105.12 101.24C105.067 101.955 104.987 102.515 104.88 102.92C104.773 103.325 104.635 103.624 104.464 103.816C104.304 104.008 104.107 104.131 103.872 104.184C103.637 104.237 103.349 104.264 103.008 104.264ZM90.928 92.248L90.8 90.568C91.3547 90.5467 91.9627 90.5147 92.624 90.472C93.2853 90.4293 93.9573 90.376 94.64 90.312C95.3333 90.248 96 90.184 96.64 90.12C97.2907 90.0453 97.8827 89.9707 98.416 89.896L98.64 91.656C97.904 91.7413 97.0827 91.8267 96.176 91.912C95.28 91.9973 94.3787 92.072 93.472 92.136C92.5653 92.1893 91.7173 92.2267 90.928 92.248ZM113.296 99.288L112.896 91.32H116.16L115.76 99.288H113.296ZM113.12 103V100.488H115.936V103H113.12Z" fill="#282828"/>
<path opacity="0.6" d="M49.016 126.68C49.016 124.09 50.122 121.808 52.432 119.946C52.558 119.834 52.712 119.778 52.852 119.778C53.118 119.778 53.37 120.016 53.37 120.282C53.37 120.464 53.3 120.59 53.16 120.716C51.144 122.438 50.304 124.384 50.304 126.68C50.304 128.976 51.144 130.922 53.16 132.644C53.3 132.77 53.37 132.896 53.37 133.078C53.37 133.344 53.118 133.582 52.852 133.582C52.712 133.582 52.558 133.526 52.432 133.414C50.122 131.552 49.016 129.27 49.016 126.68ZM56.996 125.686H57.794C58.928 125.686 59.53 125.098 59.53 124.104C59.53 123.292 58.886 122.718 57.864 122.718C57.276 122.718 56.66 122.984 56.156 123.418C55.974 123.586 55.82 123.628 55.652 123.628C55.232 123.628 54.868 123.278 54.868 122.844C54.868 122.634 54.924 122.466 55.078 122.34C55.75 121.752 56.828 121.318 57.864 121.318C59.908 121.318 61.168 122.438 61.168 124.034C61.168 125.182 60.608 125.952 59.516 126.246C60.762 126.624 61.518 127.548 61.518 128.738C61.518 130.74 60.006 132.098 57.822 132.098C56.674 132.098 55.596 131.776 54.896 131.216C54.672 131.034 54.588 130.838 54.588 130.572C54.588 130.166 54.896 129.844 55.33 129.844C55.484 129.844 55.61 129.872 55.736 129.956C56.436 130.474 57.108 130.698 57.822 130.698C59.054 130.698 59.838 129.886 59.838 128.808C59.838 127.744 59.11 127.072 57.878 127.072H56.996C56.59 127.072 56.338 126.778 56.338 126.372C56.338 125.966 56.59 125.686 56.996 125.686ZM66.4152 121.318C68.5432 121.318 69.9572 122.83 69.9572 126.708C69.9572 130.586 68.5432 132.098 66.4152 132.098C64.2872 132.098 62.9012 130.586 62.9012 126.708C62.9012 122.83 64.2872 121.318 66.4152 121.318ZM66.4152 122.718C65.2532 122.718 64.5532 123.698 64.5532 126.708C64.5532 129.718 65.2532 130.698 66.4152 130.698C67.5912 130.698 68.3052 129.718 68.3052 126.708C68.3052 123.698 67.5912 122.718 66.4152 122.718ZM73.0903 132.7V126.092C72.8523 126.456 72.6003 126.806 72.3483 127.114C72.1663 127.338 71.9423 127.436 71.7323 127.436C71.3263 127.436 70.9483 127.1 70.9483 126.694C70.9483 126.526 71.0043 126.358 71.1443 126.176C72.2503 124.804 73.2723 122.69 73.8323 120.814C73.9443 120.45 74.2523 120.282 74.5743 120.282C74.9943 120.282 75.4143 120.548 75.4143 120.996C75.4143 121.066 75.4003 121.15 75.3723 121.234C75.0643 122.284 74.5603 123.46 73.9863 124.552C74.3223 124.594 74.6163 124.79 74.6163 125.154V132.7C74.6163 133.078 74.2383 133.274 73.8603 133.274C73.4683 133.274 73.0903 133.078 73.0903 132.7ZM79.2503 124.258L83.1003 123.922H83.1563C83.5343 123.922 83.7303 124.286 83.7303 124.65C83.7303 124.972 83.5763 125.28 83.2263 125.308L79.4323 125.644C79.6283 126.848 79.9223 127.954 80.3283 128.92C81.1123 130.782 81.7563 131.244 82.1763 131.244C82.3583 131.244 82.5263 131.062 82.6243 130.152C82.6663 129.718 82.9883 129.522 83.3243 129.522C83.7023 129.522 84.1083 129.788 84.1083 130.264V130.362C83.9123 132.308 83.1843 132.896 82.2463 132.896C81.0143 132.896 79.8243 131.72 78.8303 129.34C78.3963 128.29 78.0743 127.1 77.8643 125.77L75.8203 125.952H75.7643C75.3863 125.952 75.1903 125.588 75.1903 125.238C75.1903 124.916 75.3583 124.608 75.6943 124.58L77.6963 124.398C77.5843 123.306 77.5283 122.13 77.5283 120.898C77.5283 120.464 77.9203 120.254 78.3123 120.254C78.7043 120.254 79.0963 120.464 79.0963 120.898C79.0963 122.088 79.1383 123.208 79.2503 124.258ZM80.9023 121.192C81.2803 121.472 81.6303 121.766 81.9243 122.06C82.0923 122.242 82.1763 122.438 82.1763 122.606C82.1763 123.012 81.8123 123.362 81.4203 123.362C81.2523 123.362 81.0703 123.278 80.9163 123.11C80.6223 122.774 80.3143 122.48 79.9643 122.2C79.7963 122.06 79.7123 121.892 79.7123 121.724C79.7123 121.374 80.0483 121.024 80.4403 121.024C80.5943 121.024 80.7483 121.08 80.9023 121.192ZM85.3683 132.42L96.9043 120.156C97.0303 120.03 97.1703 119.932 97.2963 119.932C97.6603 119.932 97.9683 120.226 97.9683 120.506C97.9683 120.66 97.9123 120.8 97.7723 120.94L86.2363 133.204C86.1103 133.33 85.9703 133.428 85.8443 133.428C85.4803 133.428 85.1723 133.134 85.1723 132.854C85.1723 132.7 85.2283 132.56 85.3683 132.42ZM108.622 126.512H102.658C101.286 126.512 100.796 126.036 100.796 125V122.284C100.796 121.262 101.286 120.786 102.658 120.786H108.622C110.008 120.786 110.498 121.262 110.498 122.284V125C110.498 126.274 109.756 126.512 108.622 126.512ZM102.84 125.336H104.814V124.216H102.28V124.874C102.28 125.21 102.392 125.336 102.84 125.336ZM102.28 123.096H104.814V121.962H102.84C102.378 121.962 102.28 122.088 102.28 122.41V123.096ZM106.27 121.962V123.096H109.014V122.424C109.014 122.088 108.916 121.962 108.454 121.962H106.27ZM109.014 124.216H106.27V125.336H108.454C108.916 125.336 109.014 125.21 109.014 124.874V124.216ZM105.99 127.982L109.182 127.968C110.414 127.968 110.848 128.346 110.848 129.144C110.848 129.788 110.736 130.712 110.54 131.496C110.246 132.686 109.602 133.092 108.398 133.092C107.992 133.092 107.656 133.064 107.278 133.008C106.872 132.938 106.69 132.63 106.69 132.308C106.69 131.958 106.914 131.622 107.348 131.622H107.446C107.754 131.664 107.978 131.692 108.272 131.692C108.706 131.692 108.93 131.58 109.028 131.174C109.168 130.614 109.294 129.788 109.294 129.48C109.294 129.256 109.182 129.2 108.874 129.2L105.556 129.228C104.646 131.174 102.854 132.504 100.418 133.19C100.334 133.218 100.25 133.232 100.18 133.232C99.7463 133.232 99.4803 132.868 99.4803 132.518C99.4803 132.238 99.6343 131.972 100.012 131.86C101.874 131.3 103.148 130.502 103.918 129.228L100.32 129.256C99.9563 129.256 99.7603 128.948 99.7603 128.626C99.7603 128.318 99.9563 128.01 100.32 128.01L104.45 127.996C104.52 127.758 104.576 127.506 104.618 127.254C104.674 126.904 104.996 126.736 105.318 126.736C105.71 126.736 106.116 126.96 106.116 127.366C106.116 127.394 106.116 127.45 106.102 127.492C106.074 127.66 106.032 127.814 105.99 127.982ZM121.18 131.356V128.584H119.052C118.702 128.584 118.534 128.234 118.534 127.898C118.534 127.548 118.702 127.212 119.052 127.212H121.18V124.874H119.57C119.402 125.252 119.22 125.616 119.038 125.952C118.856 126.288 118.562 126.428 118.296 126.428C117.932 126.428 117.596 126.176 117.596 125.784C117.596 125.644 117.638 125.49 117.736 125.322C118.282 124.384 118.716 123.236 118.996 121.976C119.08 121.598 119.388 121.416 119.682 121.416C120.046 121.416 120.41 121.668 120.41 122.088C120.41 122.144 120.41 122.186 120.396 122.242C120.312 122.676 120.2 123.11 120.06 123.53H121.18V120.87C121.18 120.45 121.558 120.24 121.936 120.24C122.314 120.24 122.692 120.45 122.692 120.87V123.53H125.254C125.618 123.53 125.8 123.866 125.8 124.202C125.8 124.538 125.618 124.874 125.254 124.874H122.692V127.212H124.75C125.1 127.212 125.282 127.548 125.282 127.898C125.282 128.234 125.1 128.584 124.75 128.584H122.692V131.356H125.548C125.898 131.356 126.08 131.692 126.08 132.042C126.08 132.378 125.898 132.728 125.548 132.728H117.834C117.498 132.728 117.316 132.378 117.316 132.042C117.316 131.692 117.498 131.356 117.834 131.356H121.18ZM116.294 120.772V132.616C116.294 133.036 115.916 133.246 115.538 133.246C115.146 133.246 114.768 133.036 114.768 132.616V120.772C114.768 120.352 115.146 120.156 115.538 120.156C115.916 120.156 116.294 120.352 116.294 120.772ZM113.452 123.558C113.494 123.236 113.746 123.082 113.998 123.082C114.292 123.082 114.572 123.278 114.572 123.628V123.698C114.516 124.328 114.362 125.168 114.18 125.77C114.082 126.078 113.844 126.218 113.606 126.218C113.312 126.218 113.032 126.008 113.032 125.686C113.032 125.63 113.032 125.56 113.06 125.49C113.242 124.902 113.382 124.104 113.452 123.558ZM117.512 123.012C117.652 123.432 117.778 123.936 117.834 124.314V124.412C117.834 124.79 117.526 125.014 117.246 125.014C117.008 125.014 116.784 124.874 116.728 124.552C116.658 124.132 116.56 123.6 116.462 123.264C116.448 123.208 116.434 123.138 116.434 123.082C116.434 122.788 116.7 122.606 116.966 122.606C117.19 122.606 117.414 122.732 117.512 123.012ZM131.554 126.68C131.554 129.27 130.448 131.552 128.138 133.414C128.012 133.526 127.858 133.582 127.718 133.582C127.452 133.582 127.2 133.344 127.2 133.078C127.2 132.896 127.27 132.77 127.41 132.644C129.426 130.922 130.266 128.976 130.266 126.68C130.266 124.384 129.426 122.438 127.41 120.716C127.27 120.59 127.2 120.464 127.2 120.282C127.2 120.016 127.452 119.778 127.718 119.778C127.858 119.778 128.012 119.834 128.138 119.946C130.448 121.808 131.554 124.09 131.554 126.68Z" fill="#282828"/>
<path d="M61.0002 203L79.0001 161L110.177 161L61.0002 203Z" fill="#FFF464"/>
</svg>
