<svg width="327" height="295" viewBox="0 0 327 295" fill="none" xmlns="http://www.w3.org/2000/svg">
<rect width="327" height="241" rx="80" fill="#54B6CB"/>
<path d="M43.56 52.84V43.06H40.78V41.14H43.58V34.76H45.74V41.14H48.24V43.06H45.76V52.84H43.56ZM41.44 50.72L40.34 48.48C41.1533 47.4 41.82 46.3 42.34 45.18C42.8733 44.06 43.28 42.88 43.56 41.64L44.62 42.22C44.4867 43.3133 44.2733 44.38 43.98 45.42C43.6867 46.4467 43.32 47.4133 42.88 48.32C42.4533 49.2133 41.9733 50.0133 41.44 50.72ZM47.02 48.44C46.5667 47.4133 46.1067 46.3933 45.64 45.38C45.1867 44.3533 44.7133 43.3067 44.22 42.24L45.64 41.52C46.1333 42.4533 46.62 43.3933 47.1 44.34C47.58 45.2733 48.0533 46.22 48.52 47.18L47.02 48.44ZM41.72 40.72C41.5467 39.9333 41.36 39.14 41.16 38.34C40.9733 37.54 40.7867 36.8067 40.6 36.14L42.42 35.66C42.6067 36.3267 42.7933 37.06 42.98 37.86C43.1667 38.6467 43.3267 39.44 43.46 40.24L41.72 40.72ZM47.98 49.94L47.78 47.9L59.46 45.72L59.66 47.76L47.98 49.94ZM52.44 46.02C51.8667 45.38 51.2467 44.72 50.58 44.04C49.9133 43.3467 49.2067 42.6533 48.46 41.96L50.04 40.46C50.7867 41.14 51.5 41.82 52.18 42.5C52.86 43.18 53.48 43.84 54.04 44.48L52.44 46.02ZM47.58 40.74L45.82 40.18C46.06 39.46 46.2733 38.6933 46.46 37.88C46.66 37.0533 46.8133 36.28 46.92 35.56L48.8 35.84C48.6667 36.6133 48.4933 37.4333 48.28 38.3C48.0667 39.1533 47.8333 39.9667 47.58 40.74ZM55.4 52.84V34.76H57.74V52.84H55.4ZM53.54 40.94C53.0067 40.34 52.44 39.7333 51.84 39.12C51.2533 38.5067 50.62 37.8867 49.94 37.26L51.54 35.78C52.22 36.3933 52.86 37.0067 53.46 37.62C54.06 38.22 54.6267 38.8133 55.16 39.4L53.54 40.94ZM65.86 52.26V50.32H71.68V48.32H67.04V46.5H71.68V40.72H69.3V39.08H71.68V37.02H74.06V39.08H76.44V37.02H69.3V44.66H67.1V35.14H78.64V44.66H69.3V42.88H76.44V40.72H74.06V46.5H78.94V48.32H74.06V50.32H79.22V52.26H65.86ZM60.88 51.06L60.66 49.02C61.26 48.8733 61.8867 48.7133 62.54 48.54C63.2067 48.3533 63.8667 48.1533 64.52 47.94C65.1867 47.7133 65.8333 47.4867 66.46 47.26L66.52 49.24C65.92 49.48 65.2933 49.7133 64.64 49.94C63.9867 50.1667 63.34 50.3733 62.7 50.56C62.06 50.7467 61.4533 50.9133 60.88 51.06ZM62.46 48.96V43.62H60.96V41.56H62.46V37.86H60.76V35.76H66.48V37.86H64.74V41.56H66.36V43.62H64.74V48.96H62.46ZM91.7 49.54C92.4067 49.46 93.0533 49.26 93.64 48.94C94.24 48.6067 94.7533 48.1867 95.18 47.68C95.62 47.16 95.96 46.5667 96.2 45.9C96.44 45.2333 96.56 44.5133 96.56 43.74C96.56 42.6467 96.3067 41.6933 95.8 40.88C95.2933 40.0533 94.5867 39.42 93.68 38.98C92.7867 38.54 91.7467 38.32 90.56 38.32C89.5467 38.32 88.6067 38.4867 87.74 38.82C86.8733 39.1533 86.1067 39.62 85.44 40.22C84.7867 40.8067 84.2733 41.5 83.9 42.3C83.5267 43.0867 83.34 43.9333 83.34 44.84C83.34 45.4933 83.4467 46.12 83.66 46.72C83.8733 47.32 84.14 47.8133 84.46 48.2C84.7933 48.5733 85.14 48.76 85.5 48.76C86.02 48.76 86.52 48.2867 87 47.34C87.48 46.3933 87.9133 45.0333 88.3 43.26C88.7 41.4733 89.0333 39.3333 89.3 36.84L91.62 37.08C91.3267 39.56 90.9933 41.6867 90.62 43.46C90.2467 45.2333 89.82 46.6867 89.34 47.82C88.86 48.9533 88.3133 49.7933 87.7 50.34C87.0867 50.8733 86.3933 51.14 85.62 51.14C84.98 51.14 84.3867 50.98 83.84 50.66C83.2933 50.34 82.82 49.8933 82.42 49.32C82.02 48.7467 81.7067 48.08 81.48 47.32C81.2533 46.5467 81.14 45.72 81.14 44.84C81.14 43.5867 81.3733 42.4333 81.84 41.38C82.3067 40.3133 82.96 39.3933 83.8 38.62C84.64 37.8467 85.6333 37.2467 86.78 36.82C87.94 36.38 89.2067 36.16 90.58 36.16C92.1933 36.16 93.62 36.4667 94.86 37.08C96.1133 37.6933 97.0933 38.5667 97.8 39.7C98.5067 40.8333 98.86 42.18 98.86 43.74C98.86 44.7933 98.7 45.7733 98.38 46.68C98.0733 47.5867 97.6333 48.3933 97.06 49.1C96.4867 49.7933 95.8 50.36 95 50.8C94.2 51.24 93.3133 51.52 92.34 51.64L91.7 49.54ZM101.36 51.56V49.4H108.74V38.2H101.96V36.04H118.04V38.2H111.26V49.4H118.64V51.56H101.36ZM126.58 52.26V50.28H131.94V48.52H127.82V46.76H131.94V45.12H127.38V43.26H139.08V45.12H134.34V46.76H138.64V48.52H134.34V50.28H139.38V52.26H126.58ZM121.52 49.88L120.42 47.56C121.207 46.2267 121.82 44.9467 122.26 43.72C122.7 42.48 122.98 41.2667 123.1 40.08L124 41.4C123.76 43.4 123.433 45.0733 123.02 46.42C122.607 47.7667 122.107 48.92 121.52 49.88ZM122.98 52.84V41.78H120.82V39.78H122.98V36.34H125.18V39.78H127.32V41.78H125.18V52.84H122.98ZM126.28 47.32C125.88 46.4133 125.46 45.5 125.02 44.58C124.593 43.6467 124.14 42.7 123.66 41.74L124.82 40.68C125.38 41.7067 125.907 42.68 126.4 43.6C126.907 44.52 127.38 45.4 127.82 46.24L126.28 47.32ZM121.16 37.76L120.96 35.88C121.973 35.7867 122.993 35.64 124.02 35.44C125.06 35.24 126.04 35.0067 126.96 34.74L127.5 36.54C126.7 36.82 125.753 37.0667 124.66 37.28C123.58 37.4933 122.413 37.6533 121.16 37.76ZM127.84 42.12V35.34H138.5V42.12H130.18V40.32H136.18V37.32H130.18V42.12H127.84ZM153.24 51.22C152.04 51.22 150.967 51.0533 150.02 50.72C149.087 50.3867 148.353 49.9267 147.82 49.34C147.3 48.74 147.04 48.06 147.04 47.3C147.04 45.94 147.927 44.54 149.7 43.1L151.42 44.4C150.713 44.9733 150.193 45.4733 149.86 45.9C149.54 46.3267 149.38 46.7333 149.38 47.12C149.38 47.52 149.54 47.8667 149.86 48.16C150.18 48.4533 150.627 48.68 151.2 48.84C151.773 49 152.453 49.08 153.24 49.08C153.907 49.08 154.653 49.0333 155.48 48.94C156.32 48.8333 157.167 48.6933 158.02 48.52L158.34 50.62C157.473 50.8067 156.6 50.9533 155.72 51.06C154.853 51.1667 154.027 51.22 153.24 51.22ZM147.96 39.12V36.96H158.22V39.12H147.96ZM143.14 52.1C142.793 50.7267 142.54 49.3733 142.38 48.04C142.22 46.7067 142.14 45.2933 142.14 43.8C142.14 42.32 142.22 40.92 142.38 39.6C142.54 38.2667 142.793 36.9133 143.14 35.54L145.52 35.84C145.2 37.1333 144.96 38.4333 144.8 39.74C144.653 41.0333 144.58 42.3867 144.58 43.8C144.58 45.2133 144.653 46.5733 144.8 47.88C144.96 49.1867 145.2 50.4733 145.52 51.74L143.14 52.1ZM166.84 49.52V42.2V34.78H169.1V42.2V49.52H166.84ZM161.96 39.04V37.12H178.04V39.04H161.96ZM171.92 50.22C172.747 50.06 173.46 49.8 174.06 49.44C174.673 49.0667 175.14 48.6 175.46 48.04C175.793 47.48 175.96 46.8667 175.96 46.2C175.96 45.44 175.747 44.7867 175.32 44.24C174.907 43.6933 174.313 43.2667 173.54 42.96C172.767 42.6533 171.847 42.5 170.78 42.5C169.807 42.5 168.907 42.6333 168.08 42.9C167.253 43.1533 166.533 43.5133 165.92 43.98C165.307 44.4467 164.833 44.9933 164.5 45.62C164.167 46.2333 164 46.9133 164 47.66C164 48.22 164.1 48.6667 164.3 49C164.513 49.32 164.8 49.48 165.16 49.48C165.507 49.48 165.933 49.3467 166.44 49.08C166.947 48.8133 167.507 48.44 168.12 47.96C168.747 47.48 169.387 46.9267 170.04 46.3C170.707 45.6733 171.353 45 171.98 44.28C172.607 43.56 173.187 42.8133 173.72 42.04L175.5 43.18C174.82 44.1533 174.107 45.0667 173.36 45.92C172.613 46.7733 171.853 47.5533 171.08 48.26C170.32 48.9533 169.567 49.5533 168.82 50.06C168.087 50.5533 167.38 50.9333 166.7 51.2C166.02 51.4667 165.393 51.6 164.82 51.6C163.873 51.6 163.12 51.2467 162.56 50.54C162.013 49.8333 161.74 48.9 161.74 47.74C161.74 46.7 161.953 45.7467 162.38 44.88C162.82 44.0133 163.427 43.26 164.2 42.62C164.987 41.9667 165.907 41.4667 166.96 41.12C168.013 40.76 169.16 40.58 170.4 40.58C172.053 40.58 173.46 40.8067 174.62 41.26C175.793 41.7 176.693 42.34 177.32 43.18C177.947 44.02 178.26 45.0267 178.26 46.2C178.26 47.1867 178.02 48.1 177.54 48.94C177.073 49.78 176.413 50.4867 175.56 51.06C174.72 51.6333 173.747 52.0133 172.64 52.2L171.92 50.22ZM189.54 52.26C187.567 52.26 186.033 51.94 184.94 51.3C183.86 50.66 183.32 49.76 183.32 48.6C183.32 47.6133 183.727 46.8467 184.54 46.3C185.367 45.74 186.5 45.46 187.94 45.46C189.3 45.46 190.32 45.7133 191 46.22C191.68 46.7133 192.02 47.46 192.02 48.46C192.02 48.82 191.967 49.2067 191.86 49.62C191.767 50.0333 191.627 50.46 191.44 50.9L189.24 50.66C189.427 50.2067 189.56 49.82 189.64 49.5C189.733 49.18 189.78 48.9 189.78 48.66C189.78 47.7533 189.113 47.3 187.78 47.3C187.1 47.3 186.567 47.4133 186.18 47.64C185.807 47.8533 185.62 48.1667 185.62 48.58C185.62 49.14 185.947 49.5867 186.6 49.92C187.253 50.24 188.14 50.4 189.26 50.4C191.407 50.4 193 50.0867 194.04 49.46C195.093 48.82 195.62 47.8467 195.62 46.54C195.62 45.4333 195.207 44.62 194.38 44.1C193.567 43.58 192.267 43.32 190.48 43.32C189.453 43.32 188.547 43.4133 187.76 43.6C186.973 43.7733 186.247 44.0467 185.58 44.42L182.94 45.94L181.98 44.1L193.34 37.78V38.16H183.16V36.14H196.84V38.16L187.08 43.54L185.84 42.52C186.253 42.3733 186.713 42.24 187.22 42.12C187.74 41.9867 188.267 41.88 188.8 41.8C189.347 41.7067 189.873 41.6333 190.38 41.58C190.887 41.5133 191.347 41.48 191.76 41.48C193.787 41.48 195.34 41.9067 196.42 42.76C197.5 43.6133 198.04 44.8267 198.04 46.4C198.04 48.28 197.3 49.7267 195.82 50.74C194.353 51.7533 192.26 52.26 189.54 52.26ZM210.56 49.72V34.48H218.72V36.6H213.02V49.72H210.56ZM222.86 47.36V41.6H237.14V47.36H225.32V45.86H234.68V45.12H225.32V43.74H234.68V43.08H225.32V47.36H222.86ZM222.28 52.54L220.46 51.42C220.967 50.9133 221.42 50.36 221.82 49.76C222.233 49.16 222.587 48.5467 222.88 47.92L224.8 48.68C224.507 49.3867 224.153 50.0667 223.74 50.72C223.327 51.36 222.84 51.9667 222.28 52.54ZM230.24 52.74C229.787 52.74 229.327 52.7333 228.86 52.72C228.407 52.72 228.007 52.7133 227.66 52.7C227.113 52.6733 226.673 52.62 226.34 52.54C226.007 52.4733 225.753 52.3533 225.58 52.18C225.42 52.0067 225.307 51.7467 225.24 51.4C225.187 51.0667 225.16 50.6133 225.16 50.04V48.2H227.58V49.78C227.58 50.1 227.593 50.3333 227.62 50.48C227.647 50.6267 227.707 50.72 227.8 50.76C227.907 50.7867 228.08 50.8133 228.32 50.84C228.533 50.8533 228.8 50.8667 229.12 50.88C229.44 50.8933 229.773 50.9 230.12 50.9C230.4 50.9 230.7 50.8933 231.02 50.88C231.353 50.8667 231.653 50.8533 231.92 50.84C232.253 50.8133 232.507 50.7867 232.68 50.76C232.867 50.72 233 50.6533 233.08 50.56C233.173 50.4533 233.24 50.2933 233.28 50.08C233.32 49.8667 233.36 49.5667 233.4 49.18L235.62 49.5C235.58 50.18 235.507 50.7133 235.4 51.1C235.307 51.5 235.16 51.8067 234.96 52.02C234.773 52.2333 234.507 52.38 234.16 52.46C233.813 52.5533 233.36 52.62 232.8 52.66C232.44 52.6867 232.053 52.7067 231.64 52.72C231.227 52.7333 230.76 52.74 230.24 52.74ZM231.54 50.56C231.06 50.1333 230.54 49.72 229.98 49.32C229.42 48.92 228.847 48.5467 228.26 48.2L229.64 46.82C230.227 47.1667 230.793 47.5333 231.34 47.92C231.887 48.2933 232.4 48.6867 232.88 49.1L231.54 50.56ZM237.62 52.44C237.26 51.76 236.847 51.08 236.38 50.4C235.927 49.72 235.44 49.06 234.92 48.42L236.94 47.5C237.447 48.1667 237.913 48.8333 238.34 49.5C238.78 50.1667 239.18 50.8533 239.54 51.56L237.62 52.44ZM226.08 40.46C225.8 39.8733 225.487 39.2933 225.14 38.72C224.807 38.1467 224.46 37.5933 224.1 37.06L226.18 36.2C226.553 36.76 226.913 37.34 227.26 37.94C227.607 38.54 227.933 39.1467 228.24 39.76L226.08 40.46ZM221.06 40.96V39.14H238.94V40.96H221.06ZM221.66 37.76V35.88H228.78V34.28H231.22V35.88H238.34V37.76H221.66ZM233.7 40.62L231.68 39.74C232.48 38.6867 233.12 37.5733 233.6 36.4L235.76 37.04C235.493 37.6533 235.187 38.2667 234.84 38.88C234.493 39.4933 234.113 40.0733 233.7 40.62ZM252.08 53.04V43.98H247.6V41.98H252.08V39.1H247.94V37.1H252.08V34.56H254.42V37.1H258.84V39.1H254.42V41.98H259.14V43.98H254.42V53.04H252.08ZM241.3 52.04V35.74H247.32V50.86H243.56V48.88H245.16V37.78H243.56V52.04H241.3ZM248.1 51.98L246.4 50.34C247.627 49.0733 248.68 47.8067 249.56 46.54C250.44 45.2733 251.167 43.96 251.74 42.6L253.42 43C252.847 44.6933 252.127 46.26 251.26 47.7C250.407 49.14 249.353 50.5667 248.1 51.98ZM258.16 51.98C256.973 50.5667 255.98 49.14 255.18 47.7C254.393 46.26 253.727 44.6933 253.18 43L254.88 42.6C255.387 43.88 256.02 45.1133 256.78 46.3C257.54 47.4867 258.46 48.68 259.54 49.88L258.16 51.98ZM269.44 37.88V53.12H261.28V51H266.98V37.88H269.44ZM51.56 84.12C51.56 82.5733 51.4667 81.3533 51.28 80.46C51.1067 79.5533 50.8067 78.9067 50.38 78.52C49.9667 78.1333 49.3933 77.94 48.66 77.94C48.02 77.94 47.4 78.0933 46.8 78.4C46.2133 78.7067 45.62 79.2 45.02 79.88C44.4333 80.5467 43.7867 81.44 43.08 82.56L41.12 81.44C41.7867 80.4133 42.3733 79.4667 42.88 78.6C43.4 77.7333 43.8667 76.8867 44.28 76.06C44.7067 75.22 45.0933 74.3667 45.44 73.5C45.8 72.62 46.1467 71.6667 46.48 70.64L48.84 71.02C48.4267 72.26 47.9867 73.4067 47.52 74.46C47.0533 75.5 46.54 76.5333 45.98 77.56L45.44 77.24C46.0267 76.8667 46.6533 76.5867 47.32 76.4C48 76.2 48.68 76.1 49.36 76.1C50.4667 76.1 51.3533 76.3667 52.02 76.9C52.7 77.4333 53.1933 78.2933 53.5 79.48C53.8067 80.6533 53.96 82.2 53.96 84.12H51.56ZM51.36 88.18C49.3067 88.18 47.7 87.8667 46.54 87.24C45.38 86.6267 44.8 85.7667 44.8 84.66C44.8 83.8867 45.0933 83.1267 45.68 82.38C46.2667 81.62 47.1133 80.9067 48.22 80.24C49.34 79.5733 50.68 78.96 52.24 78.4C53.8133 77.84 55.5867 77.3533 57.56 76.94L57.92 78.9C56.28 79.2467 54.8 79.64 53.48 80.08C52.1733 80.52 51.0467 80.9867 50.1 81.48C49.1667 81.96 48.4467 82.4533 47.94 82.96C47.4333 83.4667 47.18 83.96 47.18 84.44C47.18 85 47.54 85.44 48.26 85.76C48.9933 86.0667 50.0333 86.22 51.38 86.22C52.2067 86.22 53.1267 86.1667 54.14 86.06C55.1533 85.94 56.2467 85.7733 57.42 85.56L57.74 87.56C57.06 87.68 56.34 87.7867 55.58 87.88C54.82 87.9733 54.0733 88.0467 53.34 88.1C52.62 88.1533 51.96 88.18 51.36 88.18ZM41.18 74.62V72.72H57.12V74.62H41.18ZM65.86 88.26V86.32H71.68V84.32H67.04V82.5H71.68V76.72H69.3V75.08H71.68V73.02H74.06V75.08H76.44V73.02H69.3V80.66H67.1V71.14H78.64V80.66H69.3V78.88H76.44V76.72H74.06V82.5H78.94V84.32H74.06V86.32H79.22V88.26H65.86ZM60.88 87.06L60.66 85.02C61.26 84.8733 61.8867 84.7133 62.54 84.54C63.2067 84.3533 63.8667 84.1533 64.52 83.94C65.1867 83.7133 65.8333 83.4867 66.46 83.26L66.52 85.24C65.92 85.48 65.2933 85.7133 64.64 85.94C63.9867 86.1667 63.34 86.3733 62.7 86.56C62.06 86.7467 61.4533 86.9133 60.88 87.06ZM62.46 84.96V79.62H60.96V77.56H62.46V73.86H60.76V71.76H66.48V73.86H64.74V77.56H66.36V79.62H64.74V84.96H62.46ZM82.4 88.92L80.54 87.4C80.7133 86.96 80.86 86.4933 80.98 86C81.1 85.4933 81.2 84.9067 81.28 84.24C81.36 83.5733 81.42 82.76 81.46 81.8C81.5 80.84 81.52 79.6733 81.52 78.3V74.84H89.52V85.7C89.52 86.42 89.5 86.9867 89.46 87.4C89.42 87.8133 89.34 88.12 89.22 88.32C89.1133 88.52 88.9467 88.6467 88.72 88.7C88.5067 88.7533 88.2133 88.78 87.84 88.78C87.5867 88.78 87.2533 88.7667 86.84 88.74C86.4267 88.7267 85.9067 88.7067 85.28 88.68L85.18 86.76C85.6467 86.7867 86.0333 86.8133 86.34 86.84C86.6467 86.8533 86.8667 86.86 87 86.86C87.1867 86.86 87.3133 86.8467 87.38 86.82C87.46 86.78 87.5067 86.6933 87.52 86.56C87.5333 86.4133 87.54 86.18 87.54 85.86V84.38H82.32V82.54H84.66V76.78H86.44V82.54H87.54V80.52H82.36V78.72H87.54V76.78H83.62V79.34C83.6333 80.8467 83.5933 82.18 83.5 83.34C83.42 84.4867 83.2867 85.5133 83.1 86.42C82.9267 87.3267 82.6933 88.16 82.4 88.92ZM82.3 77.56L80.56 76.4C81.12 75.5333 81.6267 74.5533 82.08 73.46C82.5333 72.3667 82.88 71.2667 83.12 70.16L85.36 70.38C85.2133 71.1933 84.9867 72.0333 84.68 72.9C84.3733 73.7667 84.0133 74.6067 83.6 75.42C83.2 76.22 82.7667 76.9333 82.3 77.56ZM91.16 83.24L89.2 82.44C89.5867 81.72 89.9333 80.9867 90.24 80.24C90.5467 79.48 90.8067 78.7133 91.02 77.94L93.06 78.34C92.8467 79.1933 92.58 80.0333 92.26 80.86C91.9533 81.6867 91.5867 82.48 91.16 83.24ZM93.92 88.8V85.44H89.92V83.44H93.92V81.32H91.06V79.4H93.96V78.08H96.26V79.4H98.88V81.32H96.26V83.44H99.24V85.44H96.26V88.8H93.92ZM86.8 76.68L84.86 75.88C85.0467 75.5733 85.2267 75.24 85.4 74.88C85.5733 74.5067 85.74 74.14 85.9 73.78C86.06 73.4067 86.2 73.0667 86.32 72.76L88.32 73.32C88.16 73.8133 87.94 74.36 87.66 74.96C87.3933 75.56 87.1067 76.1333 86.8 76.68ZM83.16 73.32V71.46H88.32V73.32H83.16ZM90.4 78.68L89.26 76.92C90.2467 76.4133 91.0133 75.7733 91.56 75C92.1067 74.2267 92.4067 73.3333 92.46 72.32L94.58 72.66C94.4733 74.0467 94.0533 75.2533 93.32 76.28C92.5867 77.2933 91.6133 78.0933 90.4 78.68ZM96.74 77.6C96.62 77.6 96.4133 77.6 96.12 77.6C95.84 77.5867 95.52 77.5733 95.16 77.56C94.8 77.5333 94.4533 77.5133 94.12 77.5L93.96 75.58C94.1867 75.5933 94.4133 75.6133 94.64 75.64C94.8667 75.6533 95.0733 75.6667 95.26 75.68C95.4467 75.68 95.5867 75.68 95.68 75.68C95.8667 75.68 96.0133 75.66 96.12 75.62C96.24 75.58 96.3267 75.4867 96.38 75.34C96.4467 75.18 96.4933 74.9333 96.52 74.6C96.5467 74.2667 96.5733 73.8067 96.6 73.22H89.84V71.24H99.02C98.98 72.4 98.9333 73.3733 98.88 74.16C98.8267 74.9333 98.7467 75.5533 98.64 76.02C98.5467 76.4733 98.42 76.8133 98.26 77.04C98.1 77.2667 97.8933 77.42 97.64 77.5C97.4 77.5667 97.1 77.6 96.74 77.6ZM109.64 88.04C108.12 88.04 106.873 87.8 105.9 87.32C104.94 86.8533 104.227 86.1267 103.76 85.14C103.307 84.1533 103.08 82.8867 103.08 81.34V71.6H105.52V81.34C105.52 82.9 105.847 84.0333 106.5 84.74C107.153 85.4333 108.2 85.78 109.64 85.78C110.693 85.78 111.62 85.5867 112.42 85.2C113.233 84.8133 113.967 84.1867 114.62 83.32C115.287 82.44 115.927 81.2733 116.54 79.82L118.76 80.72C118.227 82.0533 117.653 83.1867 117.04 84.12C116.44 85.04 115.78 85.7933 115.06 86.38C114.353 86.9533 113.553 87.3733 112.66 87.64C111.767 87.9067 110.76 88.04 109.64 88.04ZM133.84 87.74C132.227 87.74 130.82 87.4667 129.62 86.92C128.433 86.3733 127.513 85.6 126.86 84.6C126.207 83.5867 125.88 82.4 125.88 81.04C125.88 79.9733 126.073 78.9933 126.46 78.1C126.86 77.1933 127.42 76.4 128.14 75.72C128.873 75.0267 129.74 74.5 130.74 74.14L130.94 74.76L121.42 74.98V72.84L138.28 72.44V74.58L135.74 74.64C134.7 74.6667 133.733 74.8267 132.84 75.12C131.96 75.4133 131.187 75.8333 130.52 76.38C129.853 76.9267 129.333 77.5733 128.96 78.32C128.6 79.0533 128.42 79.88 128.42 80.8C128.42 81.7867 128.64 82.64 129.08 83.36C129.52 84.0667 130.14 84.6067 130.94 84.98C131.753 85.3533 132.727 85.54 133.86 85.54C134.233 85.54 134.66 85.52 135.14 85.48C135.633 85.44 136.06 85.3867 136.42 85.32L136.68 87.52C136.253 87.5867 135.78 87.64 135.26 87.68C134.753 87.72 134.28 87.74 133.84 87.74ZM145.5 88.58C144.887 87.7667 144.227 87.0067 143.52 86.3C142.813 85.58 142.047 84.9133 141.22 84.3L142.86 82.66C143.687 83.3 144.473 84 145.22 84.76C145.967 85.5067 146.66 86.3133 147.3 87.18L145.5 88.58ZM162.5 85.64C163.567 85.3067 164.433 84.96 165.1 84.6C165.767 84.24 166.28 83.7933 166.64 83.26C167 82.7267 167.247 82.0533 167.38 81.24C167.527 80.4267 167.6 79.4133 167.6 78.2V76.1H170.84V78.2C170.84 79.7067 170.713 81.02 170.46 82.14C170.22 83.2467 169.827 84.1933 169.28 84.98C168.747 85.7667 168.04 86.4267 167.16 86.96C166.293 87.4933 165.227 87.9267 163.96 88.26L162.5 85.64ZM161.78 75.04V72.22H178.68V75.04H161.78ZM170.42 80.24C171.887 79.5867 173.027 78.78 173.84 77.82C174.667 76.8467 175.147 75.7467 175.28 74.52L178.68 75.04C178.48 76.16 178.073 77.22 177.46 78.22C176.86 79.22 176.113 80.1133 175.22 80.9C174.34 81.6867 173.353 82.3067 172.26 82.76L170.42 80.24ZM193.22 76.54C192.9 75.8333 192.56 75.1733 192.2 74.56C191.84 73.9333 191.427 73.2933 190.96 72.64L193.02 71.52C193.487 72.1733 193.9 72.82 194.26 73.46C194.633 74.1 194.987 74.7733 195.32 75.48L193.22 76.54ZM196.48 75.44C196.173 74.7333 195.847 74.0667 195.5 73.44C195.153 72.8 194.76 72.1467 194.32 71.48L196.38 70.44C196.82 71.1067 197.213 71.7667 197.56 72.42C197.92 73.06 198.253 73.7467 198.56 74.48L196.48 75.44ZM197.6 83.3C195.507 82.5933 193.447 81.9533 191.42 81.38C189.407 80.8067 187.513 80.32 185.74 79.92L186.58 76.84C188.513 77.2667 190.52 77.7733 192.6 78.36C194.68 78.9467 196.687 79.5733 198.62 80.24L197.6 83.3ZM183.68 88.54V71.06H187.08V88.54H183.68ZM204.04 85.12C205.88 85.0667 207.42 84.9067 208.66 84.64C209.913 84.36 210.907 83.94 211.64 83.38C212.387 82.8067 212.92 82.06 213.24 81.14C213.573 80.2067 213.74 79.0667 213.74 77.72V71.46H217.22V77.64C217.22 79.48 216.98 81.06 216.5 82.38C216.033 83.6867 215.287 84.76 214.26 85.6C213.247 86.4267 211.927 87.04 210.3 87.44C208.687 87.8533 206.74 88.0733 204.46 88.1L204.04 85.12ZM202.82 80.8V71.46H206.3V80.8H202.82ZM222.5 85C226.487 84.84 229.44 83.86 231.36 82.06C233.293 80.2467 234.26 77.5533 234.26 73.98L235.86 75.68H221.6V72.62H237.56V73.98C237.56 76.9533 237.013 79.4667 235.92 81.52C234.827 83.56 233.207 85.1267 231.06 86.22C228.913 87.3133 226.253 87.9 223.08 87.98L222.5 85ZM234.4 74.84C234.187 74.0667 233.96 73.3667 233.72 72.74C233.493 72.1133 233.22 71.48 232.9 70.84L235.02 70.14C235.34 70.78 235.613 71.4333 235.84 72.1C236.08 72.7533 236.307 73.4667 236.52 74.24L234.4 74.84ZM237.54 74.56C237.353 73.7867 237.153 73.0867 236.94 72.46C236.727 71.82 236.473 71.1733 236.18 70.52L238.24 69.9C238.56 70.5533 238.827 71.2133 239.04 71.88C239.253 72.5467 239.447 73.2667 239.62 74.04L237.54 74.56ZM240.72 87.48C241.2 86.1467 241.62 84.94 241.98 83.86C242.353 82.7667 242.68 81.7333 242.96 80.76C243.253 79.7733 243.513 78.7867 243.74 77.8C243.98 76.8 244.207 75.7333 244.42 74.6C244.633 73.4533 244.86 72.1667 245.1 70.74L248.24 71.08C248.04 72.4267 247.833 73.68 247.62 74.84C247.407 75.9867 247.173 77.0933 246.92 78.16C246.667 79.2133 246.38 80.2733 246.06 81.34C245.753 82.4067 245.407 83.5133 245.02 84.66C244.633 85.8067 244.193 87.06 243.7 88.42L240.72 87.48ZM256.66 84.82C256.567 84.0333 256.433 83.1867 256.26 82.28C256.1 81.3733 255.913 80.46 255.7 79.54C255.5 78.62 255.28 77.74 255.04 76.9L258.08 76.1C258.32 76.98 258.547 77.8867 258.76 78.82C258.973 79.74 259.167 80.6667 259.34 81.6C259.513 82.52 259.653 83.4067 259.76 84.26L256.66 84.82ZM254.94 75.92C254.607 75.2133 254.26 74.5733 253.9 74C253.553 73.4133 253.167 72.82 252.74 72.22L254.68 71.14C255.12 71.7133 255.513 72.3067 255.86 72.92C256.207 73.5333 256.547 74.2067 256.88 74.94L254.94 75.92ZM257.86 74.84C257.54 74.12 257.213 73.4667 256.88 72.88C256.56 72.28 256.193 71.6867 255.78 71.1L257.7 70.1C258.127 70.7 258.5 71.3067 258.82 71.92C259.153 72.5333 259.48 73.2133 259.8 73.96L257.86 74.84ZM250.48 87.86C250.12 87.86 249.68 87.82 249.16 87.74C248.64 87.6733 248.1 87.5733 247.54 87.44C246.98 87.3067 246.447 87.1533 245.94 86.98L246.64 84.32C247.04 84.4267 247.427 84.5333 247.8 84.64C248.173 84.7333 248.513 84.8067 248.82 84.86C249.127 84.9133 249.367 84.94 249.54 84.94C249.9 84.94 250.18 84.7933 250.38 84.5C250.593 84.2067 250.74 83.7 250.82 82.98C250.913 82.2467 250.96 81.2333 250.96 79.94C250.96 79.26 250.933 78.7133 250.88 78.3C250.827 77.8733 250.733 77.5467 250.6 77.32C250.467 77.0933 250.273 76.94 250.02 76.86C249.767 76.78 249.427 76.74 249 76.74H240.56V73.92H248.66C249.673 73.92 250.513 73.96 251.18 74.04C251.847 74.12 252.38 74.28 252.78 74.52C253.18 74.7467 253.48 75.1 253.68 75.58C253.893 76.0467 254.033 76.6733 254.1 77.46C254.167 78.2333 254.2 79.2 254.2 80.36C254.2 82.1733 254.073 83.6333 253.82 84.74C253.58 85.8333 253.187 86.6267 252.64 87.12C252.107 87.6133 251.387 87.86 250.48 87.86ZM270.86 88.26C269.193 88.26 267.753 88.0933 266.54 87.76C265.34 87.4267 264.413 86.9533 263.76 86.34C263.107 85.7133 262.78 84.9733 262.78 84.12C262.78 83.4933 262.953 82.8933 263.3 82.32C263.66 81.7333 264.14 81.26 264.74 80.9L267.56 82C267.147 82.28 266.833 82.5733 266.62 82.88C266.407 83.1867 266.3 83.4933 266.3 83.8C266.3 84.16 266.46 84.4667 266.78 84.72C267.113 84.96 267.6 85.1467 268.24 85.28C268.893 85.4 269.687 85.46 270.62 85.46C271.58 85.46 272.607 85.4 273.7 85.28C274.793 85.1467 275.827 84.9667 276.8 84.74L277.24 87.54C276.227 87.78 275.167 87.96 274.06 88.08C272.967 88.2 271.9 88.26 270.86 88.26ZM261.9 80.12V77.46L278.1 77.06V79.72L261.9 80.12ZM272.34 83.8C271.927 82.8133 271.547 81.7867 271.2 80.72C270.867 79.6533 270.567 78.5667 270.3 77.46C270.047 76.3533 269.84 75.24 269.68 74.12C269.52 72.9867 269.407 71.8533 269.34 70.72L272.56 70.54C272.627 71.62 272.733 72.6867 272.88 73.74C273.04 74.7933 273.247 75.84 273.5 76.88C273.753 77.9067 274.06 78.94 274.42 79.98C274.78 81.02 275.187 82.0667 275.64 83.12L272.34 83.8ZM262.1 75.68V73.04L277.9 72.64V75.28L262.1 75.68ZM54.72 125.1C53.9333 124.567 53.2 124.073 52.52 123.62C51.8533 123.18 51.1933 122.76 50.54 122.36C49.9 121.947 49.2267 121.527 48.52 121.1C47.8133 120.673 47.0267 120.2 46.16 119.68C45.2533 119.133 44.52 118.68 43.96 118.32C43.4133 117.96 42.9933 117.647 42.7 117.38C42.42 117.1 42.2333 116.827 42.14 116.56C42.0467 116.28 42 115.96 42 115.6C42 115.227 42.0533 114.9 42.16 114.62C42.2667 114.327 42.4667 114.047 42.76 113.78C43.0533 113.5 43.4733 113.193 44.02 112.86C44.58 112.513 45.3 112.1 46.18 111.62C47.0467 111.153 47.9533 110.653 48.9 110.12C49.8467 109.573 50.78 109.027 51.7 108.48C52.62 107.92 53.4533 107.393 54.2 106.9L55.96 109.54C55.5067 109.82 54.9867 110.133 54.4 110.48C53.8133 110.813 53.2 111.16 52.56 111.52C51.9333 111.88 51.3133 112.227 50.7 112.56C50.1 112.88 49.56 113.173 49.08 113.44C48.6133 113.693 48.24 113.893 47.96 114.04C47.3733 114.347 46.9133 114.593 46.58 114.78C46.26 114.967 46.04 115.12 45.92 115.24C45.8 115.36 45.74 115.48 45.74 115.6C45.74 115.733 45.78 115.853 45.86 115.96C45.94 116.053 46.1267 116.187 46.42 116.36C46.7133 116.533 47.1667 116.8 47.78 117.16C48.0867 117.32 48.5 117.553 49.02 117.86C49.5533 118.153 50.1467 118.493 50.8 118.88C51.4667 119.267 52.14 119.667 52.82 120.08C53.5133 120.493 54.18 120.907 54.82 121.32C55.4733 121.733 56.0533 122.113 56.56 122.46L54.72 125.1ZM66.26 124.26C64.5533 124.26 63.2333 123.893 62.3 123.16C61.3667 122.44 60.9 121.407 60.9 120.06C60.9 118.7 61.36 117.66 62.28 116.94C63.2 116.22 64.5267 115.86 66.26 115.86C67.1667 115.86 68.06 115.96 68.94 116.16C69.82 116.36 70.74 116.68 71.7 117.12C72.66 117.56 73.6867 118.14 74.78 118.86C75.8867 119.567 77.1133 120.433 78.46 121.46L76.5 123.68C75.0467 122.48 73.7267 121.507 72.54 120.76C71.3667 120.013 70.2667 119.467 69.24 119.12C68.2133 118.773 67.22 118.6 66.26 118.6C65.4733 118.6 64.8933 118.72 64.52 118.96C64.1467 119.187 63.96 119.553 63.96 120.06C63.96 121.047 64.6733 121.54 66.1 121.54C66.9133 121.54 67.5067 121.387 67.88 121.08C68.2533 120.76 68.44 120.253 68.44 119.56V106.84H71.66V109.8H78.34V112.54H71.66V119.56C71.66 121.173 71.22 122.36 70.34 123.12C69.46 123.88 68.1 124.26 66.26 124.26ZM84.48 121.36C86.0667 121.28 87.48 121.127 88.72 120.9C89.9733 120.673 91.0333 120.38 91.9 120.02C92.7667 119.66 93.4267 119.247 93.88 118.78C94.3333 118.313 94.56 117.8 94.56 117.24C94.56 116.64 94.2933 116.2 93.76 115.92C93.2267 115.64 92.3867 115.5 91.24 115.5C90.6 115.5 89.88 115.547 89.08 115.64C88.2933 115.733 87.3467 115.88 86.24 116.08C85.1333 116.28 83.78 116.553 82.18 116.9L81.38 113.92C83.42 113.467 85.2733 113.127 86.94 112.9C88.6067 112.66 90.0667 112.54 91.32 112.54C93.5733 112.54 95.26 112.913 96.38 113.66C97.5 114.393 98.06 115.507 98.06 117C98.06 118.08 97.7667 119.06 97.18 119.94C96.6067 120.807 95.7667 121.56 94.66 122.2C93.5533 122.84 92.2067 123.34 90.62 123.7C89.0467 124.073 87.2533 124.293 85.24 124.36L84.48 121.36ZM95.08 110.92C94.1333 110.92 93.06 110.9 91.86 110.86C90.66 110.807 89.4067 110.74 88.1 110.66C86.8067 110.567 85.54 110.46 84.3 110.34L84.68 107.22C85.6933 107.34 86.8 107.453 88 107.56C89.2 107.653 90.4133 107.727 91.64 107.78C92.8667 107.82 94.0133 107.84 95.08 107.84V110.92ZM113.34 123.44C112.14 123.44 111.067 123.267 110.12 122.92C109.187 122.56 108.453 122.067 107.92 121.44C107.4 120.813 107.14 120.1 107.14 119.3C107.14 117.887 107.993 116.427 109.7 114.92L112.06 116.64C111.433 117.2 110.987 117.667 110.72 118.04C110.453 118.4 110.32 118.733 110.32 119.04C110.32 119.36 110.44 119.633 110.68 119.86C110.92 120.073 111.267 120.24 111.72 120.36C112.173 120.48 112.713 120.54 113.34 120.54C113.953 120.54 114.68 120.493 115.52 120.4C116.36 120.293 117.227 120.16 118.12 120L118.56 122.84C117.653 123.027 116.753 123.173 115.86 123.28C114.967 123.387 114.127 123.44 113.34 123.44ZM108.1 111.64V108.74H118.38V111.64H108.1ZM102.92 124.16C102.587 122.8 102.34 121.44 102.18 120.08C102.02 118.72 101.94 117.293 101.94 115.8C101.94 114.307 102.02 112.887 102.18 111.54C102.34 110.18 102.587 108.82 102.92 107.46L106.16 107.82C105.853 109.087 105.62 110.387 105.46 111.72C105.313 113.04 105.24 114.4 105.24 115.8C105.24 117.2 105.313 118.567 105.46 119.9C105.62 121.22 105.853 122.513 106.16 123.78L102.92 124.16ZM130.36 124.28C128.813 124.28 127.6 123.907 126.72 123.16C125.853 122.427 125.42 121.407 125.42 120.1C125.42 118.78 125.86 117.753 126.74 117.02C127.633 116.287 128.867 115.92 130.44 115.92C131.067 115.92 131.707 116.033 132.36 116.26C133.027 116.473 133.713 116.807 134.42 117.26C135.14 117.7 135.887 118.26 136.66 118.94C137.433 119.62 138.24 120.427 139.08 121.36L137.14 123.5C136.073 122.407 135.193 121.527 134.5 120.86C133.807 120.193 133.227 119.687 132.76 119.34C132.307 118.993 131.9 118.767 131.54 118.66C131.193 118.54 130.827 118.48 130.44 118.48C129.76 118.48 129.26 118.6 128.94 118.84C128.633 119.08 128.48 119.473 128.48 120.02C128.48 120.567 128.633 120.973 128.94 121.24C129.26 121.507 129.733 121.64 130.36 121.64C131.053 121.64 131.567 121.493 131.9 121.2C132.233 120.907 132.4 120.473 132.4 119.9V109.34C133.613 109.34 134.753 109.36 135.82 109.4C136.9 109.427 137.953 109.473 138.98 109.54L138.8 112.36C137.907 112.293 136.953 112.247 135.94 112.22C134.94 112.18 133.913 112.16 132.86 112.16L135.56 110.12V119.56C135.56 121.147 135.127 122.327 134.26 123.1C133.393 123.887 132.093 124.28 130.36 124.28ZM120.78 121.1C121.313 119.553 121.807 118.007 122.26 116.46C122.713 114.9 123.133 113.307 123.52 111.68C123.92 110.053 124.287 108.373 124.62 106.64L127.68 106.9C127.36 108.687 127 110.433 126.6 112.14C126.2 113.847 125.767 115.52 125.3 117.16C124.833 118.787 124.32 120.387 123.76 121.96L120.78 121.1ZM120.66 112.16V109.34H130.94V112.16H120.66ZM144.16 121.2C146.627 121.2 148.607 121 150.1 120.6C151.607 120.2 152.7 119.553 153.38 118.66C154.06 117.753 154.4 116.573 154.4 115.12C154.4 113.72 154.107 112.693 153.52 112.04C152.933 111.373 152.02 111.04 150.78 111.04C150.113 111.04 149.48 111.147 148.88 111.36C148.28 111.56 147.747 111.853 147.28 112.24C146.813 112.627 146.447 113.087 146.18 113.62C145.913 114.153 145.78 114.753 145.78 115.42V118.14H142.64V107.58H145.78V111.44H144.58C145.153 110.653 145.767 110.007 146.42 109.5C147.073 108.98 147.787 108.6 148.56 108.36C149.333 108.107 150.187 107.98 151.12 107.98C153.267 107.98 154.9 108.593 156.02 109.82C157.153 111.033 157.72 112.8 157.72 115.12C157.72 117.213 157.247 118.927 156.3 120.26C155.353 121.593 153.893 122.58 151.92 123.22C149.947 123.86 147.413 124.18 144.32 124.18L144.16 121.2ZM167.5 124.26C165.807 124.26 164.5 123.927 163.58 123.26C162.673 122.607 162.22 121.667 162.22 120.44C162.22 119.213 162.673 118.28 163.58 117.64C164.487 117 165.793 116.68 167.5 116.68C168.367 116.68 169.207 116.773 170.02 116.96C170.833 117.147 171.653 117.447 172.48 117.86C173.307 118.273 174.18 118.813 175.1 119.48C176.02 120.147 177.02 120.967 178.1 121.94L176.04 124C175.027 123.107 174.12 122.36 173.32 121.76C172.52 121.147 171.787 120.66 171.12 120.3C170.467 119.927 169.847 119.66 169.26 119.5C168.673 119.34 168.087 119.26 167.5 119.26C166.14 119.26 165.46 119.633 165.46 120.38C165.46 120.753 165.627 121.04 165.96 121.24C166.293 121.44 166.78 121.54 167.42 121.54C168.233 121.54 168.84 121.38 169.24 121.06C169.64 120.727 169.84 120.227 169.84 119.56V106.96H172.9V119.56C172.9 121.133 172.447 122.307 171.54 123.08C170.647 123.867 169.3 124.26 167.5 124.26ZM162.1 115.5V112.84H177.9V115.5H162.1ZM161.9 111.46V108.74H178.1V111.46H161.9ZM189.62 124.14C188.007 124.14 186.693 123.893 185.68 123.4C184.667 122.92 183.92 122.167 183.44 121.14C182.973 120.1 182.74 118.767 182.74 117.14V107.6H186.06V117.14C186.06 118.54 186.333 119.547 186.88 120.16C187.427 120.76 188.34 121.06 189.62 121.06C190.58 121.06 191.427 120.88 192.16 120.52C192.893 120.16 193.567 119.567 194.18 118.74C194.807 117.913 195.427 116.793 196.04 115.38L198.96 116.64C198.4 118.027 197.813 119.2 197.2 120.16C196.6 121.107 195.933 121.873 195.2 122.46C194.467 123.047 193.64 123.473 192.72 123.74C191.813 124.007 190.78 124.14 189.62 124.14ZM201.58 123.84C202.113 122.053 202.593 120.24 203.02 118.4C203.46 116.56 203.847 114.68 204.18 112.76C204.527 110.827 204.833 108.847 205.1 106.82L208.34 106.96C208.113 108.92 207.827 110.887 207.48 112.86C207.147 114.82 206.76 116.767 206.32 118.7C205.88 120.62 205.387 122.52 204.84 124.4L201.58 123.84ZM214.3 124.06C213.007 124.06 211.893 123.907 210.96 123.6C210.04 123.307 209.327 122.887 208.82 122.34C208.313 121.78 208.06 121.113 208.06 120.34C208.06 119.807 208.22 119.293 208.54 118.8C208.86 118.293 209.353 117.78 210.02 117.26L212.78 118.42C212.353 118.7 212.027 118.98 211.8 119.26C211.573 119.527 211.46 119.773 211.46 120C211.46 120.24 211.573 120.447 211.8 120.62C212.04 120.793 212.373 120.927 212.8 121.02C213.227 121.113 213.727 121.16 214.3 121.16C214.913 121.16 215.527 121.127 216.14 121.06C216.767 120.993 217.44 120.893 218.16 120.76L218.5 123.66C217.74 123.807 217.033 123.907 216.38 123.96C215.74 124.027 215.047 124.06 214.3 124.06ZM201.3 111.94V109.14H215.7V111.94H201.3ZM208.98 113.58C210.567 113.433 212.127 113.327 213.66 113.26C215.207 113.18 216.747 113.14 218.28 113.14V115.96C216.773 115.96 215.26 116 213.74 116.08C212.233 116.147 210.707 116.253 209.16 116.4L208.98 113.58Z" fill="#282828"/>
<path opacity="0.6" d="M52.88 157.4C52.88 153.7 54.46 150.44 57.76 147.78C57.94 147.62 58.16 147.54 58.36 147.54C58.74 147.54 59.1 147.88 59.1 148.26C59.1 148.52 59 148.7 58.8 148.88C55.92 151.34 54.72 154.12 54.72 157.4C54.72 160.68 55.92 163.46 58.8 165.92C59 166.1 59.1 166.28 59.1 166.54C59.1 166.92 58.74 167.26 58.36 167.26C58.16 167.26 57.94 167.18 57.76 167.02C54.46 164.36 52.88 161.1 52.88 157.4ZM70.78 149.6V150.9C70.78 151.6 70.78 152.28 70.8 152.94C72.18 152.84 73.56 152.66 74.74 152.4C74.82 152.38 74.9 152.38 74.98 152.38C75.64 152.38 76.02 152.92 76.02 153.48C76.02 153.94 75.76 154.4 75.14 154.54C73.88 154.82 72.38 155.02 70.86 155.1C70.96 156.7 71.04 158.32 71.24 159.9C73.02 160.44 74.78 161.28 76.34 162.32C76.76 162.6 76.92 162.98 76.92 163.34C76.92 163.96 76.44 164.54 75.76 164.54C75.5 164.54 75.22 164.46 74.92 164.24C73.82 163.48 72.58 162.78 71.32 162.26C71.08 164.26 69.5 165.64 66.76 165.64C64.26 165.64 62.5 164.5 62.5 162.46C62.5 160.7 64.12 159.22 66.82 159.22C67.5 159.22 68.2 159.28 68.92 159.38C68.68 157.04 68.48 154.28 68.48 150.84V149.6C68.48 148.96 69.06 148.66 69.64 148.66C70.2 148.66 70.78 148.96 70.78 149.6ZM66.76 163.54C68.08 163.54 69.06 162.78 69.06 161.56C68.3 161.38 67.54 161.28 66.82 161.28C65.52 161.28 64.88 161.76 64.88 162.46C64.88 163.18 65.44 163.54 66.76 163.54ZM86.22 150.58C87.28 150.8 88.64 150.98 90.12 150.98C91.58 150.98 92.92 150.82 93.9 150.72C93.96 150.72 94.02 150.7 94.08 150.7C94.78 150.7 95.16 151.26 95.16 151.82C95.16 152.3 94.88 152.8 94.26 152.9C93.06 153.1 91.66 153.18 90.14 153.18C88.6 153.18 87.06 153.08 85.78 152.8C85.18 152.68 84.9 152.18 84.9 151.7C84.9 151.12 85.28 150.56 85.96 150.56C86.04 150.56 86.14 150.56 86.22 150.58ZM90 165C85.18 165 83.3 163.64 83.3 160.92C83.3 160.44 83.38 159.88 83.52 159.42C83.68 158.86 84.16 158.62 84.64 158.62C85.2 158.62 85.74 158.96 85.74 159.54C85.74 159.62 85.72 159.72 85.7 159.82C85.62 160.12 85.58 160.52 85.58 160.82C85.58 162.08 86.26 162.76 90 162.76C91.94 162.76 93.8 162.52 95.46 162.18C95.58 162.16 95.68 162.14 95.78 162.14C96.44 162.14 96.84 162.68 96.84 163.24C96.84 163.72 96.54 164.22 95.86 164.38C94.1 164.78 92.16 165 90 165ZM105.06 150.06L108.38 149.56C108.58 149.52 108.78 149.52 108.98 149.52C110.22 149.52 110.92 150.22 110.92 151.28C110.92 151.44 110.92 151.6 110.88 151.78C110.62 153.24 110.24 154.72 109.82 156.12C111.14 156.3 112.44 156.66 113.72 157.08C113.92 156.14 114.04 155.12 114.1 154.04C114.12 153.42 114.66 153.1 115.22 153.1C115.8 153.1 116.38 153.46 116.38 154.16C116.38 155.3 116.14 156.7 115.84 157.96C116.84 158.42 117.82 158.96 118.78 159.58C119.18 159.84 119.34 160.22 119.34 160.58C119.34 161.2 118.86 161.78 118.22 161.78C118 161.78 117.76 161.72 117.52 161.56C116.72 161.04 115.94 160.58 115.16 160.18C114.4 162.22 113.3 163.96 111.96 165.28C111.64 165.6 111.3 165.74 110.98 165.74C110.36 165.74 109.86 165.2 109.86 164.62C109.86 164.36 109.96 164.08 110.2 163.84C111.44 162.6 112.44 161.06 113.1 159.22C111.82 158.7 110.52 158.32 109.16 158.1C108.76 159.16 108.34 160.14 107.92 160.96C106.9 162.98 105.86 163.62 104.42 163.62C102.76 163.62 101.54 162.54 101.54 160.48C101.54 157.98 103.8 155.92 107.14 155.92H107.6C108 154.64 108.38 153.3 108.54 152.04C108.54 151.98 108.56 151.92 108.56 151.88C108.56 151.7 108.44 151.68 108.16 151.72L105.36 152.18C105.28 152.2 105.2 152.2 105.14 152.2C104.5 152.2 104.12 151.66 104.12 151.12C104.12 150.64 104.42 150.16 105.06 150.06ZM104.44 161.44C105.02 161.44 105.34 161.26 105.88 160.26C106.24 159.58 106.58 158.78 106.9 157.94C104.82 157.96 103.72 159.14 103.72 160.4C103.72 161.12 104.04 161.44 104.44 161.44ZM127.2 154.64L127.16 155.38C129.78 152.62 131.56 151.56 133.14 151.56C135.96 151.56 137.1 153.2 137.1 158.3C137.1 159.34 137.02 160.06 136.92 160.72C137.56 161.12 138.22 161.62 138.88 162.14C139.2 162.4 139.34 162.7 139.34 162.98C139.34 163.56 138.78 164.06 138.22 164.06C138 164.06 137.8 163.98 137.6 163.82C137.18 163.46 136.74 163.1 136.3 162.76C135.48 164.26 134.12 164.96 132.56 164.96C130.58 164.96 129.12 163.88 129.12 162.04C129.12 160.64 130.28 159.4 132.48 159.4C133.26 159.4 134.06 159.52 134.82 159.76C134.86 159.36 134.88 158.86 134.88 158.22C134.88 154.36 134.34 153.58 133.16 153.62C132.12 153.64 131.22 154.32 130.42 154.96C129.22 155.92 128.16 157.02 127.12 158.16L127.1 164.88C127.1 165.56 126.58 165.9 126.04 165.9C125.52 165.9 124.98 165.56 124.98 164.88L125 160.66L123.6 162.82C123.38 163.18 123.06 163.32 122.74 163.32C122.22 163.32 121.7 162.88 121.7 162.32C121.7 162.12 121.76 161.92 121.9 161.7C122.9 160.16 124.04 158.14 125.06 155.96L125.1 154.9L122.9 155.3C122.82 155.32 122.76 155.32 122.68 155.32C122.06 155.32 121.72 154.78 121.72 154.28C121.72 153.82 121.98 153.38 122.54 153.28L125.12 152.82L125.16 149.68C125.16 149.06 125.72 148.74 126.26 148.74C126.8 148.74 127.34 149.06 127.32 149.68L127.26 152.54C127.78 152.62 127.94 153 127.94 153.28C127.94 153.64 127.84 153.9 127.2 154.64ZM132.56 162.98C133.4 163 134 162.7 134.5 161.74C133.86 161.44 133.16 161.28 132.42 161.28C131.5 161.28 131.08 161.66 131.1 162.1C131.12 162.86 131.94 162.98 132.56 162.98ZM152.3 158.4L152.32 158.36C151.4 157.32 150.7 156.2 150 154.86C147.78 155.26 144.82 155.6 143.76 155.6C143.08 155.6 142.72 155.04 142.72 154.5C142.72 154.02 143.02 153.52 143.68 153.5C145.36 153.42 147.28 153.2 149.12 152.9C148.72 151.86 148.36 150.82 148.08 149.8C148.06 149.72 148.04 149.64 148.04 149.56C148.04 148.96 148.64 148.58 149.22 148.58C149.66 148.58 150.1 148.8 150.24 149.34C150.5 150.36 150.82 151.46 151.24 152.5C152.76 152.18 154.16 151.8 155.26 151.42C155.4 151.36 155.56 151.34 155.68 151.34C156.32 151.34 156.76 151.88 156.76 152.42C156.76 152.82 156.52 153.22 155.94 153.42C154.88 153.78 153.56 154.14 152.14 154.44C152.88 155.84 153.92 157.32 155.42 158.94C155.66 159.2 155.76 159.5 155.76 159.78C155.76 160.38 155.3 160.92 154.66 160.92C154.54 160.92 154.4 160.88 154.26 160.84C152.72 160.3 151.24 160.08 149.64 160.08C147.22 160.08 146.4 160.82 146.4 161.92C146.4 163.06 147.3 163.82 150.28 163.82C151.1 163.82 151.74 163.78 152.38 163.72H152.52C153.22 163.72 153.58 164.26 153.58 164.8C153.58 165.28 153.28 165.76 152.6 165.84C151.94 165.92 151.2 165.96 150.32 165.96C146.24 165.96 144.08 164.42 144.08 161.9C144.08 159.74 145.74 158.14 149.62 158.14C150.7 158.14 151.5 158.24 152.3 158.4ZM168.6 165.52L165.62 156.78C164.72 157.14 163.74 157.56 162.68 158.06C162.5 158.14 162.34 158.18 162.18 158.18C161.58 158.18 161.16 157.64 161.16 157.1C161.16 156.72 161.36 156.34 161.82 156.12C162.96 155.6 163.98 155.16 164.94 154.78L163.8 151.46C163.76 151.34 163.74 151.24 163.74 151.14C163.74 150.54 164.36 150.18 164.94 150.18C165.36 150.18 165.78 150.38 165.94 150.82L167.02 154C169.88 153.02 171.9 152.7 173.7 152.7C176.84 152.7 178.64 154.14 178.64 156.34C178.64 158.84 176.86 160.3 174.36 160.3C173.56 160.3 172.96 160.24 172.38 160.1C171.68 159.92 171.36 159.42 171.36 158.94C171.36 158.38 171.78 157.86 172.48 157.86C172.6 157.86 172.72 157.86 172.86 157.9C173.26 158 173.76 158.08 174.26 158.08C175.54 158.08 176.3 157.42 176.3 156.34C176.3 155.44 175.54 154.76 173.66 154.76C172.08 154.76 170.26 155.08 167.7 155.98L170.68 164.8C170.72 164.94 170.74 165.06 170.74 165.18C170.74 165.82 170.16 166.24 169.58 166.24C169.18 166.24 168.76 166.02 168.6 165.52ZM172.7 150.28C173.02 150.56 173.16 150.86 173.16 151.16C173.16 151.76 172.62 152.28 172 152.28C171.74 152.28 171.46 152.2 171.2 151.96C170.58 151.44 169.98 151.02 169.24 150.56C168.88 150.34 168.72 149.98 168.72 149.68C168.72 149.12 169.2 148.6 169.84 148.6C170.06 148.6 170.3 148.66 170.54 148.8C171.28 149.18 171.86 149.58 172.7 150.28ZM187.7 155.34C186.9 158.64 185.74 161.88 184.32 164.38C184.06 164.84 183.64 165.02 183.24 165.02C182.66 165.02 182.14 164.62 182.14 164.02C182.14 163.84 182.2 163.62 182.32 163.4C183.58 161.18 184.62 158.44 185.38 155.58C184.56 155.68 183.76 155.82 183 155.98C182.92 156 182.82 156 182.74 156C182.12 156 181.78 155.5 181.78 154.98C181.78 154.52 182.06 154.06 182.68 153.94C183.7 153.74 184.8 153.6 185.86 153.48C186.1 152.26 186.3 151.02 186.44 149.8C186.52 149.16 187.02 148.86 187.54 148.86C188.1 148.86 188.66 149.22 188.66 149.86V150C188.54 151.08 188.36 152.2 188.14 153.3C188.54 153.28 188.9 153.28 189.22 153.28C191.78 153.28 192.72 154.44 192.72 157.58C192.72 159.46 192.52 161.14 192.18 162.36C191.54 164.66 190.64 165.48 188.62 165.48C188.14 165.48 187.64 165.44 187.26 165.38C186.58 165.28 186.28 164.78 186.28 164.3C186.28 163.74 186.64 163.2 187.3 163.2C187.34 163.2 187.4 163.22 187.46 163.22C187.84 163.26 188.14 163.3 188.56 163.3C189.26 163.3 189.62 163.08 189.96 161.9C190.3 160.76 190.48 159.2 190.48 157.56C190.48 155.76 190.14 155.28 189.18 155.28C188.74 155.28 188.24 155.3 187.7 155.34ZM195.86 151.92C197.12 153.12 198.36 154.96 199.04 156.3C199.16 156.54 199.2 156.78 199.2 156.98C199.2 157.68 198.64 158.14 198.04 158.14C197.64 158.14 197.22 157.92 196.94 157.38C196.22 155.94 195.16 154.4 194.1 153.26C193.88 153.02 193.78 152.76 193.78 152.54C193.78 151.98 194.34 151.54 194.94 151.54C195.26 151.54 195.58 151.66 195.86 151.92ZM212.3 158.4L212.32 158.36C211.4 157.32 210.7 156.2 210 154.86C207.78 155.26 204.82 155.6 203.76 155.6C203.08 155.6 202.72 155.04 202.72 154.5C202.72 154.02 203.02 153.52 203.68 153.5C205.36 153.42 207.28 153.2 209.12 152.9C208.72 151.86 208.36 150.82 208.08 149.8C208.06 149.72 208.04 149.64 208.04 149.56C208.04 148.96 208.64 148.58 209.22 148.58C209.66 148.58 210.1 148.8 210.24 149.34C210.5 150.36 210.82 151.46 211.24 152.5C212.76 152.18 214.16 151.8 215.26 151.42C215.4 151.36 215.56 151.34 215.68 151.34C216.32 151.34 216.76 151.88 216.76 152.42C216.76 152.82 216.52 153.22 215.94 153.42C214.88 153.78 213.56 154.14 212.14 154.44C212.88 155.84 213.92 157.32 215.42 158.94C215.66 159.2 215.76 159.5 215.76 159.78C215.76 160.38 215.3 160.92 214.66 160.92C214.54 160.92 214.4 160.88 214.26 160.84C212.72 160.3 211.24 160.08 209.64 160.08C207.22 160.08 206.4 160.82 206.4 161.92C206.4 163.06 207.3 163.82 210.28 163.82C211.1 163.82 211.74 163.78 212.38 163.72H212.52C213.22 163.72 213.58 164.26 213.58 164.8C213.58 165.28 213.28 165.76 212.6 165.84C211.94 165.92 211.2 165.96 210.32 165.96C206.24 165.96 204.08 164.42 204.08 161.9C204.08 159.74 205.74 158.14 209.62 158.14C210.7 158.14 211.5 158.24 212.3 158.4ZM227.68 156.96L227.72 156.98C228.3 156.62 228.9 156.46 229.54 156.46C231.38 156.46 232.38 157.56 232.52 160.68C232.62 162.86 233.1 163.16 233.86 163.16C234.76 163.16 235.52 162.38 236.22 160.56C236.42 160.04 236.86 159.8 237.3 159.8C237.9 159.8 238.5 160.24 238.5 160.88C238.5 161.02 238.46 161.18 238.4 161.36C237.36 164.12 235.86 165.42 233.7 165.42C231.62 165.42 230.34 164.3 230.2 160.88C230.12 158.9 229.82 158.48 229 158.48C227.94 158.48 226.86 159.46 225.88 161.5C225.44 162.42 224.86 163.64 224.42 164.6C224.2 165.06 223.78 165.28 223.36 165.28C222.76 165.28 222.16 164.86 222.16 164.22C222.16 164.08 222.2 163.94 222.26 163.78C224.02 159.54 226.56 154.12 228.86 149.86C229.08 149.44 229.48 149.26 229.88 149.26C230.52 149.26 231.14 149.7 231.14 150.3C231.14 150.46 231.1 150.62 231.02 150.78L227.68 156.96ZM241.14 165.6L257.62 148.08C257.8 147.9 258 147.76 258.18 147.76C258.7 147.76 259.14 148.18 259.14 148.58C259.14 148.8 259.06 149 258.86 149.2L242.38 166.72C242.2 166.9 242 167.04 241.82 167.04C241.3 167.04 240.86 166.62 240.86 166.22C240.86 166 240.94 165.8 241.14 165.6ZM49.68 205.16V196.44C48.02 197.76 46.28 198.9 44.62 199.8C44.38 199.94 44.14 199.98 43.92 199.98C43.28 199.98 42.82 199.44 42.82 198.86C42.82 198.46 43.04 198.02 43.58 197.74C47.2 195.84 50.86 192.76 53.3 189.54C53.58 189.18 53.94 189.02 54.3 189.02C54.92 189.02 55.52 189.5 55.52 190.14C55.52 190.36 55.44 190.62 55.24 190.88C54.06 192.42 52.6 193.94 51 195.34C51.54 195.38 52.04 195.74 52.04 196.38V205.16C52.04 205.86 51.46 206.2 50.86 206.2C50.28 206.2 49.68 205.86 49.68 205.16ZM65.72 190.04H74.44C75.1 190.04 75.44 190.58 75.44 191.12C75.44 191.66 75.1 192.2 74.44 192.2H65.72C65.08 192.2 64.74 191.66 64.74 191.12C64.74 190.58 65.08 190.04 65.72 190.04ZM63.74 194.5L74.28 194.4C76.12 194.38 76.98 195.16 76.98 196.38C76.98 196.72 76.92 197.1 76.78 197.52C75.54 201.22 72.28 204.18 68.36 205.72C68.18 205.78 68.02 205.82 67.86 205.82C67.18 205.82 66.7 205.24 66.7 204.66C66.7 204.24 66.94 203.82 67.52 203.58C71.02 202.18 73.44 199.92 74.44 197.28C74.5 197.12 74.54 196.98 74.54 196.88C74.54 196.64 74.34 196.54 73.9 196.54L63.78 196.66C63.1 196.66 62.76 196.12 62.76 195.58C62.76 195.04 63.08 194.5 63.74 194.5ZM84.7 190.88L92.66 190.74H92.78C94.26 190.74 95.02 191.42 95.02 192.46C95.02 192.78 94.94 193.14 94.8 193.54C94.18 195.2 93.22 196.82 92.06 198.32C93.92 199.58 96 201.42 97.42 203.06C97.68 203.36 97.8 203.68 97.8 203.96C97.8 204.62 97.18 205.16 96.52 205.16C96.2 205.16 95.84 205.02 95.56 204.68C94.32 203.18 92.48 201.36 90.64 199.98C88.7 202.08 86.38 203.82 84.12 204.94C83.92 205.04 83.72 205.08 83.54 205.08C82.86 205.08 82.38 204.5 82.38 203.92C82.38 203.52 82.58 203.14 83.06 202.9C87.22 200.8 90.72 197.4 92.3 193.52C92.36 193.4 92.38 193.28 92.38 193.2C92.38 193.02 92.22 192.94 91.88 192.94L84.72 193.08C84.06 193.1 83.72 192.54 83.72 192C83.72 191.44 84.06 190.9 84.7 190.88ZM109.96 189.78V195.4C110.16 195.04 110.52 194.78 110.94 194.78C111.12 194.78 111.28 194.82 111.46 194.9C112.7 195.46 114.44 196.48 115.7 197.46C116.1 197.76 116.26 198.14 116.26 198.5C116.26 199.14 115.76 199.68 115.12 199.68C114.86 199.68 114.56 199.6 114.28 199.38C113.12 198.5 111.42 197.46 110.54 196.98C110.26 196.82 110.08 196.64 109.96 196.42V205.04C109.96 205.74 109.38 206.08 108.78 206.08C108.2 206.08 107.6 205.74 107.6 205.04V189.78C107.6 189.08 108.2 188.72 108.78 188.72C109.38 188.72 109.96 189.08 109.96 189.78ZM126.76 191.22V201.36C126.76 201.92 126.9 202.12 127.24 202.12C127.36 202.12 127.52 202.1 127.7 202.04C130.48 201.18 134.14 198.76 136.24 196.26C136.52 195.92 136.86 195.78 137.2 195.78C137.84 195.78 138.42 196.3 138.42 196.96C138.42 197.22 138.32 197.52 138.08 197.8C135.62 200.78 131.54 203.36 128.04 204.46C127.56 204.62 127.1 204.68 126.68 204.68C125.28 204.68 124.36 203.78 124.36 202.02V191.22C124.36 190.54 124.96 190.22 125.56 190.22C126.16 190.22 126.76 190.54 126.76 191.22ZM142.7 196.36H157.3C158.02 196.36 158.38 196.92 158.38 197.5C158.38 198.06 158.02 198.64 157.3 198.64H142.7C141.98 198.64 141.62 198.06 141.62 197.5C141.62 196.92 141.98 196.36 142.7 196.36ZM169.68 191.74L173.8 191.7C175.46 191.68 176.3 192.34 176.3 193.54C176.3 193.86 176.24 194.22 176.12 194.6C174.72 199.24 170.72 203.8 166.28 206.2C166.06 206.32 165.82 206.38 165.62 206.38C164.98 206.38 164.52 205.84 164.52 205.26C164.52 204.86 164.72 204.46 165.24 204.18C167.14 203.14 168.92 201.68 170.4 200C169.52 199.18 168.74 198.58 168.08 198.14C167.72 197.88 167.58 197.58 167.58 197.26C167.58 196.72 168.06 196.2 168.68 196.2C168.9 196.2 169.14 196.26 169.38 196.42C170.16 196.92 170.96 197.52 171.78 198.26C172.66 196.98 173.36 195.62 173.8 194.3C173.84 194.2 173.86 194.1 173.86 194.02C173.86 193.8 173.7 193.7 173.32 193.7L168.44 193.74C167.42 195.26 166.24 196.66 165.08 197.7C164.8 197.96 164.48 198.06 164.2 198.06C163.58 198.06 163.08 197.58 163.08 197C163.08 196.7 163.22 196.36 163.56 196.06C165.42 194.38 167.32 191.74 168.36 189.3C168.58 188.76 169.04 188.54 169.48 188.54C170.06 188.54 170.62 188.94 170.62 189.56C170.62 189.7 170.6 189.86 170.52 190.04C170.28 190.6 170 191.16 169.68 191.74ZM182.7 196.36H197.3C198.02 196.36 198.38 196.92 198.38 197.5C198.38 198.06 198.02 198.64 197.3 198.64H182.7C181.98 198.64 181.62 198.06 181.62 197.5C181.62 196.92 181.98 196.36 182.7 196.36ZM210 195.36C211.12 195.36 212.04 196.28 212.04 197.4C212.04 198.52 211.12 199.44 210 199.44C208.88 199.44 207.96 198.52 207.96 197.4C207.96 196.28 208.88 195.36 210 195.36ZM236.68 199.24H228.38C226.94 199.24 226.42 198.84 226.42 197.82V196.5C226.42 195.5 226.94 195.08 228.38 195.08H236.64C238.08 195.08 238.68 195.5 238.68 196.5V197.82C238.68 198.88 238.02 199.24 236.68 199.24ZM228.54 197.84H229.96V196.5H228.54C228.32 196.5 228.26 196.58 228.26 196.78V197.52C228.26 197.72 228.32 197.84 228.54 197.84ZM231.64 196.5V197.84H233.3V196.5H231.64ZM234.98 196.5V197.84H236.5C236.72 197.84 236.84 197.76 236.84 197.52V196.78C236.84 196.58 236.72 196.5 236.5 196.5H234.98ZM234.92 194.36H229.98C228.2 194.36 227.78 193.78 227.78 192.68V190.28C227.78 189.18 228.32 188.62 229.98 188.62H234.92C236.58 188.62 237.1 189.18 237.1 190.28V192.68C237.1 194.1 236.18 194.36 234.92 194.36ZM230.14 192.88H234.72C235.1 192.88 235.18 192.8 235.18 192.56V192.16H229.7V192.56C229.7 192.86 229.88 192.88 230.14 192.88ZM235.18 190.8V190.42C235.18 190.18 235.1 190.1 234.72 190.1H230.14C229.76 190.1 229.7 190.18 229.7 190.42V190.8H235.18ZM227.56 200H235C236.18 200 236.84 200.56 236.84 201.28C236.84 201.7 236.62 202.16 236.16 202.6C235.76 202.98 235.3 203.32 234.78 203.66C235.84 204.04 236.98 204.32 238.16 204.48C238.8 204.58 239.1 205.02 239.1 205.46C239.1 205.96 238.74 206.42 238.1 206.42C238.04 206.42 237.94 206.4 237.88 206.4C236.16 206.16 234.4 205.6 232.8 204.74C231.04 205.56 229.02 206.2 226.82 206.56C226.74 206.58 226.64 206.58 226.58 206.58C225.96 206.58 225.6 206.1 225.6 205.62C225.6 205.22 225.86 204.82 226.38 204.74C228.02 204.48 229.6 204.08 231 203.6C230.24 203.02 229.58 202.38 229 201.64H227.56C227.04 201.64 226.76 201.22 226.76 200.82C226.76 200.4 227.04 200 227.56 200ZM234.12 201.64H231.26C231.76 202.1 232.3 202.46 232.86 202.78C233.38 202.52 233.86 202.22 234.24 201.94C234.34 201.88 234.38 201.8 234.38 201.76C234.38 201.68 234.3 201.64 234.12 201.64ZM223.72 199.62C223.9 199.1 224.34 198.86 224.8 198.86C225.34 198.86 225.9 199.22 225.9 199.9C225.9 200 225.88 200.12 225.84 200.26C225.34 202.14 224.32 204.22 223.46 205.6C223.18 206.04 222.78 206.22 222.38 206.22C221.8 206.22 221.26 205.82 221.26 205.22C221.26 205.02 221.34 204.8 221.48 204.58C222.32 203.28 223.16 201.34 223.72 199.62ZM223.94 188.76C224.52 189.18 225.16 189.76 225.62 190.26C225.86 190.54 225.96 190.82 225.96 191.06C225.96 191.66 225.44 192.12 224.88 192.12C224.62 192.12 224.34 192.02 224.1 191.76C223.72 191.36 223.1 190.72 222.52 190.24C222.24 190 222.12 189.74 222.12 189.5C222.12 188.98 222.64 188.52 223.24 188.52C223.46 188.52 223.72 188.6 223.94 188.76ZM222.54 193.54C223.12 193.94 223.84 194.56 224.32 195.08C224.56 195.36 224.66 195.64 224.66 195.88C224.66 196.48 224.12 196.96 223.54 196.96C223.28 196.96 223 196.86 222.78 196.62C222.3 196.08 221.56 195.44 221.12 195.08C220.82 194.84 220.7 194.58 220.7 194.32C220.7 193.78 221.22 193.32 221.84 193.32C222.06 193.32 222.3 193.38 222.54 193.54ZM252.42 202.38H247.58C245.9 202.38 245.22 201.74 245.22 200.24V195.14C245.22 193.64 245.9 193 247.58 193H248.92V191.24H241.74C241.2 191.24 240.92 190.74 240.92 190.26C240.92 189.76 241.2 189.28 241.74 189.28H258.26C258.82 189.28 259.1 189.78 259.1 190.26C259.1 190.76 258.82 191.24 258.26 191.24H251V193H252.42C254.1 193 254.78 193.64 254.78 195.14V200.24C254.78 201.9 253.96 202.38 252.42 202.38ZM247.84 200.58H248.96V198.48H247.22V200.04C247.22 200.52 247.4 200.58 247.84 200.58ZM247.22 196.76H248.96V194.8H247.84C247.34 194.8 247.22 194.92 247.22 195.34V196.76ZM250.96 194.8V196.76H252.78V195.34C252.78 194.92 252.66 194.8 252.16 194.8H250.96ZM252.78 198.48H250.96V200.58H252.16C252.66 200.58 252.78 200.46 252.78 200.04V198.48ZM256.22 202.84V193.5C256.22 192.9 256.78 192.62 257.34 192.62C257.9 192.62 258.46 192.9 258.46 193.5V203.14C258.46 204.94 257.58 205.92 255.3 205.92H244.76C242.48 205.92 241.6 204.94 241.6 203.14V193.6C241.6 193 242.16 192.72 242.72 192.72C243.28 192.72 243.84 193 243.84 193.6V202.84C243.84 203.64 244.14 203.92 245.12 203.92H254.94C255.92 203.92 256.22 203.64 256.22 202.84ZM268.88 189.94V188.76C268.88 188.2 269.42 187.94 269.98 187.94C270.52 187.94 271.06 188.2 271.06 188.76V189.94H276.06C277.9 189.94 278.54 190.56 278.54 191.86V193.14C278.54 193.7 278 193.98 277.44 193.98C276.9 193.98 276.34 193.7 276.34 193.14V192.2C276.34 191.82 276.18 191.66 275.68 191.66H264.36C263.86 191.66 263.7 191.82 263.7 192.2V193.22C263.7 193.76 263.16 194.04 262.6 194.04C262.06 194.04 261.5 193.76 261.5 193.22V191.86C261.5 190.56 262.14 189.94 263.98 189.94H268.88ZM271.02 194.88H270.6C270.14 195.26 269.68 195.62 269.2 195.94C271.4 197.84 272.42 200.18 272.42 202.58C272.42 205.68 271.38 206.7 269.52 206.7C268.92 206.7 268.56 206.66 268.06 206.56C267.48 206.44 267.24 206.02 267.24 205.6C267.24 205.12 267.6 204.6 268.2 204.6C268.26 204.6 268.34 204.6 268.4 204.62C268.74 204.68 269.12 204.72 269.48 204.72C269.96 204.72 270.34 204.32 270.34 202.56C270.34 202.3 270.32 202.06 270.3 201.82C267.98 203.5 265.08 204.94 262.3 205.74C262.18 205.78 262.06 205.8 261.96 205.8C261.38 205.8 261.04 205.32 261.04 204.86C261.04 204.48 261.26 204.1 261.74 203.96C264.7 203.1 267.48 201.74 269.82 199.92C269.7 199.62 269.54 199.34 269.38 199.04C267.32 200.44 264.88 201.58 262.54 202.32C262.42 202.36 262.3 202.38 262.2 202.38C261.64 202.38 261.28 201.92 261.28 201.44C261.28 201.1 261.48 200.72 261.96 200.58C264.1 199.94 266.44 198.92 268.34 197.64C268.12 197.4 267.88 197.16 267.64 196.94C266.08 197.82 264.42 198.5 262.76 199C262.62 199.04 262.5 199.06 262.38 199.06C261.78 199.06 261.42 198.62 261.42 198.16C261.42 197.8 261.64 197.42 262.16 197.28C264.16 196.7 266.12 195.92 267.72 194.88H265.04C264.52 194.88 264.26 194.44 264.26 194.02C264.26 193.58 264.52 193.16 265.04 193.16H274.96C275.5 193.16 275.78 193.58 275.78 194.02C275.78 194.44 275.5 194.88 274.96 194.88H272.88C273.18 195.84 273.56 196.78 274.04 197.64C274.9 197.1 275.7 196.52 276.46 195.84C276.68 195.64 276.94 195.56 277.18 195.56C277.72 195.56 278.22 196.02 278.22 196.54C278.22 196.8 278.08 197.08 277.78 197.32C276.9 198 275.96 198.66 274.98 199.22C275.98 200.7 277.18 201.94 278.54 202.94C278.92 203.22 279.08 203.58 279.08 203.9C279.08 204.44 278.62 204.94 278.02 204.94C277.76 204.94 277.46 204.84 277.16 204.6C276.52 204.08 275.94 203.56 275.38 202.94C273.32 200.64 271.82 197.84 271.02 194.88ZM287.12 197.4C287.12 201.1 285.54 204.36 282.24 207.02C282.06 207.18 281.84 207.26 281.64 207.26C281.26 207.26 280.9 206.92 280.9 206.54C280.9 206.28 281 206.1 281.2 205.92C284.08 203.46 285.28 200.68 285.28 197.4C285.28 194.12 284.08 191.34 281.2 188.88C281 188.7 280.9 188.52 280.9 188.26C280.9 187.88 281.26 187.54 281.64 187.54C281.84 187.54 282.06 187.62 282.24 187.78C285.54 190.44 287.12 193.7 287.12 197.4Z" fill="#282828"/>
<path d="M61.0002 283L79.0001 241L110.177 241L61.0002 283Z" fill="#54B6CB"/>
</svg>
