<svg width="290" height="295" viewBox="0 0 290 295" fill="none" xmlns="http://www.w3.org/2000/svg">
<rect width="290" height="237" rx="80" fill="#FFF464"/>
<path d="M42.18 52.78L40.46 50.78C40.6467 50.3667 40.8067 49.94 40.94 49.5C41.0867 49.06 41.2133 48.5867 41.32 48.08C41.4267 47.5733 41.5067 47.0133 41.56 46.4C41.6267 45.7867 41.6733 45.0933 41.7 44.32C41.74 43.5333 41.76 42.6467 41.76 41.66V36.3H49.18V34.28H51.62V36.3H58.66V38.3H44.08V43.34C44.08 44.38 44.04 45.3533 43.96 46.26C43.88 47.1533 43.76 47.9933 43.6 48.78C43.4533 49.5533 43.26 50.2733 43.02 50.94C42.78 51.5933 42.5 52.2067 42.18 52.78ZM45.58 51.6L43.52 50.72C43.8667 49.7733 44.1933 48.6667 44.5 47.4C44.82 46.12 45.0933 44.7333 45.32 43.24L47.44 43.66C47.32 44.6333 47.16 45.6067 46.96 46.58C46.7733 47.5533 46.56 48.4733 46.32 49.34C46.0933 50.1933 45.8467 50.9467 45.58 51.6ZM51.76 52.62C50.9067 52.62 50.2267 52.5933 49.72 52.54C49.2267 52.5 48.86 52.4 48.62 52.24C48.3933 52.0933 48.24 51.8667 48.16 51.56C48.0933 51.2533 48.06 50.8333 48.06 50.3V41.62H50.48V49.78C50.48 49.9667 50.4867 50.1133 50.5 50.22C50.5133 50.3267 50.56 50.4067 50.64 50.46C50.7333 50.5 50.8733 50.5267 51.06 50.54C51.26 50.54 51.5333 50.54 51.88 50.54C52.2267 50.54 52.5133 50.5333 52.74 50.52C52.98 50.4933 53.16 50.4267 53.28 50.32C53.4133 50.2 53.5133 50.02 53.58 49.78C53.6467 49.5267 53.6933 49.18 53.72 48.74C53.7467 48.2867 53.7667 47.7067 53.78 47L56.02 47.24C55.98 48.28 55.9267 49.1333 55.86 49.8C55.8067 50.4667 55.7067 50.9867 55.56 51.36C55.4133 51.7467 55.1867 52.0267 54.88 52.2C54.5867 52.3867 54.1867 52.5 53.68 52.54C53.1733 52.5933 52.5333 52.62 51.76 52.62ZM57.28 51.36C57.0133 49.9467 56.6933 48.5667 56.32 47.22C55.9467 45.86 55.5333 44.6133 55.08 43.48L57.26 42.8C57.7133 43.9467 58.1333 45.2 58.52 46.56C58.9067 47.92 59.24 49.3133 59.52 50.74L57.28 51.36ZM54.96 42.3C53.8667 41.8467 52.7267 41.4533 51.54 41.12C50.3533 40.7733 49.0533 40.4667 47.64 40.2L48.28 38.34C49.5067 38.5133 50.7267 38.7667 51.94 39.1C53.1533 39.42 54.42 39.8467 55.74 40.38L54.96 42.3ZM62.46 52.94L60.52 51.36C60.8933 50.8267 61.2067 50.28 61.46 49.72C61.7267 49.16 61.9333 48.5467 62.08 47.88C62.24 47.2133 62.3533 46.4467 62.42 45.58C62.5 44.7133 62.54 43.7 62.54 42.54V35.14H78.28V49.7C78.28 50.4067 78.2467 50.9667 78.18 51.38C78.1267 51.7933 78 52.1 77.8 52.3C77.6133 52.5 77.3267 52.6267 76.94 52.68C76.5533 52.7467 76.0267 52.78 75.36 52.78C75.1067 52.78 74.76 52.7667 74.32 52.74C73.8933 52.7267 73.3533 52.7067 72.7 52.68L72.58 50.7C73.1933 50.7267 73.6933 50.7533 74.08 50.78C74.48 50.8067 74.7667 50.82 74.94 50.82C75.2467 50.82 75.4667 50.8 75.6 50.76C75.7467 50.72 75.84 50.6333 75.88 50.5C75.92 50.3533 75.94 50.1267 75.94 49.82V46.82H64.04V44.98H75.94V41.84H64.9V40H75.94V37.1H71.3V52.34H69.02V37.1H64.9V43.52C64.9 45.0533 64.8133 46.38 64.64 47.5C64.48 48.6067 64.22 49.5933 63.86 50.46C63.5 51.3133 63.0333 52.14 62.46 52.94ZM81.06 51.44C81.5533 50.1733 81.9933 49.0067 82.38 47.94C82.7667 46.86 83.1133 45.8267 83.42 44.84C83.74 43.8533 84.0267 42.8533 84.28 41.84C84.5467 40.8267 84.7933 39.7467 85.02 38.6C85.2467 37.4533 85.4733 36.1867 85.7 34.8L88.02 35.06C87.8067 36.3933 87.5867 37.64 87.36 38.8C87.1333 39.9467 86.88 41.0533 86.6 42.12C86.3333 43.1733 86.0333 44.2267 85.7 45.28C85.38 46.3333 85.0133 47.42 84.6 48.54C84.2 49.66 83.7467 50.86 83.24 52.14L81.06 51.44ZM97.26 48.82C97.14 48.02 96.98 47.1667 96.78 46.26C96.5933 45.34 96.3733 44.42 96.12 43.5C95.8667 42.58 95.6 41.6933 95.32 40.84L97.54 40.18C97.82 41.06 98.0867 41.9733 98.34 42.92C98.6067 43.8533 98.84 44.7933 99.04 45.74C99.24 46.6733 99.4067 47.5667 99.54 48.42L97.26 48.82ZM95.16 39.74C94.8133 39.0067 94.4733 38.3533 94.14 37.78C93.8067 37.2067 93.4333 36.64 93.02 36.08L94.68 35.12C95.1067 35.6933 95.4867 36.2867 95.82 36.9C96.1667 37.5133 96.5067 38.18 96.84 38.9L95.16 39.74ZM97.96 38.68C97.64 37.9333 97.32 37.2733 97 36.7C96.68 36.1133 96.3267 35.5467 95.94 35L97.56 34.1C97.9867 34.6867 98.36 35.2867 98.68 35.9C99.0133 36.5133 99.3333 37.1867 99.64 37.92L97.96 38.68ZM90.56 51.66C90.2133 51.66 89.78 51.6133 89.26 51.52C88.74 51.44 88.1933 51.32 87.62 51.16C87.06 51.0133 86.52 50.8467 86 50.66L86.54 48.64C86.98 48.7733 87.4133 48.9067 87.84 49.04C88.28 49.16 88.68 49.26 89.04 49.34C89.4133 49.4067 89.7 49.44 89.9 49.44C90.3267 49.44 90.68 49.2467 90.96 48.86C91.24 48.46 91.4467 47.84 91.58 47C91.7267 46.1467 91.8 45.0533 91.8 43.72C91.8 42.9467 91.7733 42.3267 91.72 41.86C91.6667 41.38 91.5533 41.02 91.38 40.78C91.22 40.54 90.9733 40.38 90.64 40.3C90.3067 40.22 89.86 40.18 89.3 40.18H80.82V38.1H89.08C90 38.1 90.7667 38.14 91.38 38.22C92.0067 38.2867 92.5 38.4267 92.86 38.64C93.2333 38.8533 93.5133 39.18 93.7 39.62C93.9 40.0467 94.0267 40.62 94.08 41.34C94.1467 42.0467 94.18 42.9333 94.18 44C94.18 45.7333 94.0533 47.1667 93.8 48.3C93.5467 49.4333 93.1467 50.28 92.6 50.84C92.0667 51.3867 91.3867 51.66 90.56 51.66ZM113.04 51.94C111.427 51.94 110.02 51.6533 108.82 51.08C107.633 50.52 106.713 49.7267 106.06 48.7C105.407 47.66 105.08 46.44 105.08 45.04C105.08 43.9467 105.273 42.9333 105.66 42C106.06 41.0667 106.62 40.2533 107.34 39.56C108.073 38.8533 108.94 38.3133 109.94 37.94L110.14 38.56L100.62 38.78V36.64L117.48 36.24V38.38L114.94 38.44C113.873 38.4667 112.887 38.64 111.98 38.96C111.087 39.2667 110.313 39.7 109.66 40.26C109.02 40.82 108.52 41.4867 108.16 42.26C107.8 43.02 107.62 43.8667 107.62 44.8C107.62 45.8133 107.84 46.6933 108.28 47.44C108.72 48.1733 109.34 48.74 110.14 49.14C110.953 49.54 111.927 49.74 113.06 49.74C113.3 49.74 113.567 49.7333 113.86 49.72C114.167 49.6933 114.473 49.6667 114.78 49.64C115.1 49.6 115.38 49.56 115.62 49.52L115.88 51.72C115.6 51.76 115.293 51.7933 114.96 51.82C114.627 51.86 114.293 51.8867 113.96 51.9C113.627 51.9267 113.32 51.94 113.04 51.94ZM115.08 45.7C114.773 45.02 114.44 44.3733 114.08 43.76C113.733 43.1333 113.333 42.4933 112.88 41.84L114.62 40.88C115.073 41.5333 115.48 42.18 115.84 42.82C116.2 43.4467 116.54 44.1133 116.86 44.82L115.08 45.7ZM118.12 44.56C117.827 43.8667 117.507 43.2133 117.16 42.6C116.827 41.9733 116.44 41.3333 116 40.68L117.74 39.76C118.18 40.4267 118.573 41.08 118.92 41.72C119.28 42.36 119.607 43.04 119.9 43.76L118.12 44.56ZM130.92 52.06C129.293 52.06 127.88 51.9 126.68 51.58C125.493 51.26 124.58 50.8133 123.94 50.24C123.3 49.6533 122.98 48.96 122.98 48.16C122.98 47.4667 123.213 46.82 123.68 46.22C124.147 45.62 124.8 45.1267 125.64 44.74L127.22 46.14C126.62 46.4333 126.187 46.7267 125.92 47.02C125.653 47.3 125.527 47.6133 125.54 47.96C125.553 48.4 125.76 48.7733 126.16 49.08C126.56 49.3733 127.147 49.6 127.92 49.76C128.707 49.92 129.653 50 130.76 50C131.733 50 132.753 49.9333 133.82 49.8C134.9 49.6667 135.907 49.4933 136.84 49.28L137.18 51.36C136.22 51.5867 135.2 51.76 134.12 51.88C133.04 52 131.973 52.06 130.92 52.06ZM122.06 43.68V41.72L137.94 41.32V43.28L122.06 43.68ZM132.86 47.82C132.42 46.7933 132.027 45.7533 131.68 44.7C131.333 43.6467 131.033 42.5867 130.78 41.52C130.54 40.44 130.34 39.34 130.18 38.22C130.02 37.0867 129.907 35.9333 129.84 34.76L132.22 34.62C132.287 35.7533 132.393 36.8533 132.54 37.92C132.7 38.9867 132.9 40.0333 133.14 41.06C133.38 42.0867 133.673 43.12 134.02 44.16C134.38 45.1867 134.793 46.2267 135.26 47.28L132.86 47.82ZM122.26 39.26V37.3L137.74 36.9V38.86L122.26 39.26ZM149.54 52.26C147.567 52.26 146.033 51.94 144.94 51.3C143.86 50.66 143.32 49.76 143.32 48.6C143.32 47.6133 143.727 46.8467 144.54 46.3C145.367 45.74 146.5 45.46 147.94 45.46C149.3 45.46 150.32 45.7133 151 46.22C151.68 46.7133 152.02 47.46 152.02 48.46C152.02 48.82 151.967 49.2067 151.86 49.62C151.767 50.0333 151.627 50.46 151.44 50.9L149.24 50.66C149.427 50.2067 149.56 49.82 149.64 49.5C149.733 49.18 149.78 48.9 149.78 48.66C149.78 47.7533 149.113 47.3 147.78 47.3C147.1 47.3 146.567 47.4133 146.18 47.64C145.807 47.8533 145.62 48.1667 145.62 48.58C145.62 49.14 145.947 49.5867 146.6 49.92C147.253 50.24 148.14 50.4 149.26 50.4C151.407 50.4 153 50.0867 154.04 49.46C155.093 48.82 155.62 47.8467 155.62 46.54C155.62 45.4333 155.207 44.62 154.38 44.1C153.567 43.58 152.267 43.32 150.48 43.32C149.453 43.32 148.547 43.4133 147.76 43.6C146.973 43.7733 146.247 44.0467 145.58 44.42L142.94 45.94L141.98 44.1L153.34 37.78V38.16H143.16V36.14H156.84V38.16L147.08 43.54L145.84 42.52C146.253 42.3733 146.713 42.24 147.22 42.12C147.74 41.9867 148.267 41.88 148.8 41.8C149.347 41.7067 149.873 41.6333 150.38 41.58C150.887 41.5133 151.347 41.48 151.76 41.48C153.787 41.48 155.34 41.9067 156.42 42.76C157.5 43.6133 158.04 44.8267 158.04 46.4C158.04 48.28 157.3 49.7267 155.82 50.74C154.353 51.7533 152.26 52.26 149.54 52.26ZM166.06 52.06C164.46 52.06 163.227 51.72 162.36 51.04C161.493 50.3733 161.06 49.4133 161.06 48.16C161.06 46.8933 161.487 45.9333 162.34 45.28C163.193 44.6133 164.433 44.28 166.06 44.28C166.94 44.28 167.813 44.38 168.68 44.58C169.56 44.7667 170.48 45.0733 171.44 45.5C172.4 45.9267 173.433 46.4867 174.54 47.18C175.66 47.86 176.893 48.6933 178.24 49.68L176.8 51.34C175.253 50.1533 173.853 49.1933 172.6 48.46C171.36 47.7133 170.207 47.1667 169.14 46.82C168.073 46.4733 167.047 46.3 166.06 46.3C165.14 46.3 164.453 46.4533 164 46.76C163.547 47.0533 163.32 47.52 163.32 48.16C163.32 49.4133 164.193 50.04 165.94 50.04C166.927 50.04 167.647 49.84 168.1 49.44C168.553 49.0267 168.78 48.3867 168.78 47.52V34.88H171.16V38.1H178.24V40.12H171.16V47.52C171.16 49.0667 170.747 50.2133 169.92 50.96C169.093 51.6933 167.807 52.06 166.06 52.06ZM184.78 49.92C186.407 49.8533 187.867 49.6933 189.16 49.44C190.453 49.1733 191.56 48.8267 192.48 48.4C193.4 47.9733 194.1 47.4867 194.58 46.94C195.06 46.38 195.3 45.76 195.3 45.08C195.3 44.32 194.96 43.7533 194.28 43.38C193.613 42.9933 192.587 42.8 191.2 42.8C190.52 42.8 189.767 42.8467 188.94 42.94C188.113 43.02 187.16 43.16 186.08 43.36C185 43.56 183.727 43.82 182.26 44.14L181.68 41.94C183.627 41.5 185.4 41.1733 187 40.96C188.6 40.7333 190.013 40.62 191.24 40.62C193.44 40.62 195.093 40.98 196.2 41.7C197.307 42.42 197.86 43.4933 197.86 44.92C197.86 45.9733 197.567 46.9333 196.98 47.8C196.407 48.6533 195.573 49.3933 194.48 50.02C193.387 50.6467 192.067 51.14 190.52 51.5C188.987 51.86 187.253 52.0733 185.32 52.14L184.78 49.92ZM194.86 38.32C193.94 38.32 192.9 38.3 191.74 38.26C190.593 38.2067 189.4 38.1333 188.16 38.04C186.933 37.9333 185.74 37.82 184.58 37.7L184.88 35.38C185.867 35.5133 186.94 35.6333 188.1 35.74C189.26 35.8467 190.427 35.9267 191.6 35.98C192.773 36.0333 193.86 36.06 194.86 36.06V38.32ZM213.24 51.22C212.04 51.22 210.967 51.0533 210.02 50.72C209.087 50.3867 208.353 49.9267 207.82 49.34C207.3 48.74 207.04 48.06 207.04 47.3C207.04 45.94 207.927 44.54 209.7 43.1L211.42 44.4C210.713 44.9733 210.193 45.4733 209.86 45.9C209.54 46.3267 209.38 46.7333 209.38 47.12C209.38 47.52 209.54 47.8667 209.86 48.16C210.18 48.4533 210.627 48.68 211.2 48.84C211.773 49 212.453 49.08 213.24 49.08C213.907 49.08 214.653 49.0333 215.48 48.94C216.32 48.8333 217.167 48.6933 218.02 48.52L218.34 50.62C217.473 50.8067 216.6 50.9533 215.72 51.06C214.853 51.1667 214.027 51.22 213.24 51.22ZM207.96 39.12V36.96H218.22V39.12H207.96ZM203.14 52.1C202.793 50.7267 202.54 49.3733 202.38 48.04C202.22 46.7067 202.14 45.2933 202.14 43.8C202.14 42.32 202.22 40.92 202.38 39.6C202.54 38.2667 202.793 36.9133 203.14 35.54L205.52 35.84C205.2 37.1333 204.96 38.4333 204.8 39.74C204.653 41.0333 204.58 42.3867 204.58 43.8C204.58 45.2133 204.653 46.5733 204.8 47.88C204.96 49.1867 205.2 50.4733 205.52 51.74L203.14 52.1ZM230.02 52.12C228.527 52.12 227.367 51.7733 226.54 51.08C225.713 50.4 225.3 49.46 225.3 48.26C225.3 47.02 225.727 46.0667 226.58 45.4C227.433 44.72 228.633 44.38 230.18 44.38C230.833 44.38 231.48 44.48 232.12 44.68C232.76 44.88 233.427 45.1867 234.12 45.6C234.813 46.0133 235.553 46.5467 236.34 47.2C237.14 47.8533 238 48.6467 238.92 49.58L237.48 51.18C236.413 50.14 235.513 49.3 234.78 48.66C234.06 48.0067 233.44 47.5133 232.92 47.18C232.413 46.8333 231.947 46.6 231.52 46.48C231.107 46.36 230.66 46.3 230.18 46.3C229.273 46.3 228.607 46.4533 228.18 46.76C227.767 47.0667 227.56 47.54 227.56 48.18C227.56 48.8333 227.767 49.3267 228.18 49.66C228.593 49.98 229.207 50.14 230.02 50.14C230.913 50.14 231.58 49.9467 232.02 49.56C232.473 49.1733 232.7 48.62 232.7 47.9V37.56C233.873 37.56 234.96 37.58 235.96 37.62C236.973 37.6467 237.967 37.6933 238.94 37.76L238.8 39.86C237.933 39.7933 237.027 39.7467 236.08 39.72C235.147 39.68 234.147 39.66 233.08 39.66L235.02 38.16V47.66C235.02 49.1267 234.6 50.24 233.76 51C232.92 51.7467 231.673 52.12 230.02 52.12ZM220.92 48.94C221.507 47.3533 222.047 45.7933 222.54 44.26C223.033 42.7133 223.493 41.1533 223.92 39.58C224.347 37.9933 224.74 36.3667 225.1 34.7L227.36 34.92C227 36.6267 226.6 38.3 226.16 39.94C225.733 41.5667 225.267 43.18 224.76 44.78C224.267 46.38 223.72 47.9867 223.12 49.6L220.92 48.94ZM220.76 39.66V37.56H230.84V39.66H220.76ZM44.26 85.8C46.8333 85.8 48.9067 85.58 50.48 85.14C52.0667 84.7 53.2133 83.9867 53.92 83C54.64 82 55 80.7133 55 79.14C55 77.54 54.66 76.3467 53.98 75.56C53.3133 74.76 52.2867 74.36 50.9 74.36C50.1267 74.36 49.4 74.4867 48.72 74.74C48.0533 74.9933 47.4667 75.3533 46.96 75.82C46.4533 76.2867 46.0467 76.84 45.74 77.48C45.4467 78.12 45.3 78.8267 45.3 79.6V82.22H42.98V71.7H45.3V75.96H44.4C44.88 75.1333 45.4467 74.4333 46.1 73.86C46.7667 73.2867 47.52 72.8533 48.36 72.56C49.2133 72.2533 50.14 72.1 51.14 72.1C53.18 72.1 54.74 72.7067 55.82 73.92C56.9133 75.12 57.46 76.86 57.46 79.14C57.46 81.1933 56.9933 82.8733 56.06 84.18C55.14 85.4867 53.72 86.4467 51.8 87.06C49.88 87.6867 47.4067 88 44.38 88L44.26 85.8ZM65.5 88.58C64.8867 87.7667 64.2267 87.0067 63.52 86.3C62.8133 85.58 62.0467 84.9133 61.22 84.3L62.86 82.66C63.6867 83.3 64.4733 84 65.22 84.76C65.9667 85.5067 66.66 86.3133 67.3 87.18L65.5 88.58ZM81.82 85.56C83.7933 84.6 85.58 83.52 87.18 82.32C88.7933 81.1067 90.2 79.8 91.4 78.4C92.6133 77 93.5867 75.5267 94.32 73.98L95.04 74.54H82.86V72.36H96.68V74.54C95.92 76.2867 94.86 77.9733 93.5 79.6C92.1533 81.2133 90.58 82.7 88.78 84.06C86.9933 85.42 85.0333 86.6 82.9 87.6L81.82 85.56ZM96.7 87.74C95.94 86.8733 95.1867 86.0867 94.44 85.38C93.7067 84.6733 92.9467 84.0133 92.16 83.4C91.3733 82.7867 90.5267 82.1933 89.62 81.62L91.18 79.92C92.5133 80.76 93.7667 81.6867 94.94 82.7C96.1133 83.7 97.2533 84.8333 98.36 86.1L96.7 87.74ZM109.5 88.74L108.02 71.06L110.5 70.86L111.98 88.54L109.5 88.74ZM101.2 83.72L101.12 81.58L118.8 80.92L118.88 83.06L101.2 83.72ZM102 76.56L101.92 74.42L118 73.86L118.08 76L102 76.56ZM130.02 87.72V71.56H132.44V86.64L131.04 85.38C132.227 85.38 133.26 85.12 134.14 84.6C135.02 84.08 135.727 83.3 136.26 82.26C136.807 81.22 137.173 79.9333 137.36 78.4L139.62 78.72C139.407 80.6133 138.92 82.2333 138.16 83.58C137.413 84.9267 136.44 85.9533 135.24 86.66C134.04 87.3667 132.64 87.72 131.04 87.72H130.02ZM120.4 85.94C121.173 85.5933 121.807 85.2067 122.3 84.78C122.807 84.3533 123.2 83.8333 123.48 83.22C123.76 82.6067 123.953 81.84 124.06 80.92C124.167 80 124.22 78.86 124.22 77.5V71.56H126.6V77.66C126.6 79.2067 126.513 80.54 126.34 81.66C126.167 82.78 125.893 83.7333 125.52 84.52C125.147 85.3067 124.64 85.9733 124 86.52C123.36 87.0667 122.573 87.54 121.64 87.94L120.4 85.94ZM151.7 85.54C152.407 85.46 153.053 85.26 153.64 84.94C154.24 84.6067 154.753 84.1867 155.18 83.68C155.62 83.16 155.96 82.5667 156.2 81.9C156.44 81.2333 156.56 80.5133 156.56 79.74C156.56 78.6467 156.307 77.6933 155.8 76.88C155.293 76.0533 154.587 75.42 153.68 74.98C152.787 74.54 151.747 74.32 150.56 74.32C149.547 74.32 148.607 74.4867 147.74 74.82C146.873 75.1533 146.107 75.62 145.44 76.22C144.787 76.8067 144.273 77.5 143.9 78.3C143.527 79.0867 143.34 79.9333 143.34 80.84C143.34 81.4933 143.447 82.12 143.66 82.72C143.873 83.32 144.14 83.8133 144.46 84.2C144.793 84.5733 145.14 84.76 145.5 84.76C146.02 84.76 146.52 84.2867 147 83.34C147.48 82.3933 147.913 81.0333 148.3 79.26C148.7 77.4733 149.033 75.3333 149.3 72.84L151.62 73.08C151.327 75.56 150.993 77.6867 150.62 79.46C150.247 81.2333 149.82 82.6867 149.34 83.82C148.86 84.9533 148.313 85.7933 147.7 86.34C147.087 86.8733 146.393 87.14 145.62 87.14C144.98 87.14 144.387 86.98 143.84 86.66C143.293 86.34 142.82 85.8933 142.42 85.32C142.02 84.7467 141.707 84.08 141.48 83.32C141.253 82.5467 141.14 81.72 141.14 80.84C141.14 79.5867 141.373 78.4333 141.84 77.38C142.307 76.3133 142.96 75.3933 143.8 74.62C144.64 73.8467 145.633 73.2467 146.78 72.82C147.94 72.38 149.207 72.16 150.58 72.16C152.193 72.16 153.62 72.4667 154.86 73.08C156.113 73.6933 157.093 74.5667 157.8 75.7C158.507 76.8333 158.86 78.18 158.86 79.74C158.86 80.7933 158.7 81.7733 158.38 82.68C158.073 83.5867 157.633 84.3933 157.06 85.1C156.487 85.7933 155.8 86.36 155 86.8C154.2 87.24 153.313 87.52 152.34 87.64L151.7 85.54ZM162.26 88.72L160.54 86.78C160.807 86.2733 161.04 85.7133 161.24 85.1C161.453 84.4867 161.627 83.8 161.76 83.04C161.893 82.28 161.993 81.4267 162.06 80.48C162.127 79.52 162.16 78.42 162.16 77.18V72.56H169.18V70.34H171.62V72.56H178.66V74.6H164.5V78.82C164.5 80.3267 164.413 81.68 164.24 82.88C164.08 84.0667 163.833 85.14 163.5 86.1C163.18 87.0467 162.767 87.92 162.26 88.72ZM163.8 88.22L163.68 86.16C165.667 86.08 167.727 85.9333 169.86 85.72C172.007 85.4933 174.173 85.22 176.36 84.9L176.56 86.84C174.32 87.2 172.133 87.5 170 87.74C167.88 87.98 165.813 88.14 163.8 88.22ZM167.9 86.78L165.62 86.14C166.327 84.5267 167.02 82.7933 167.7 80.94C168.393 79.0733 169.047 77.18 169.66 75.26L172.04 75.8C171.44 77.7333 170.78 79.6333 170.06 81.5C169.353 83.3667 168.633 85.1267 167.9 86.78ZM177.1 88.84C176.713 88.04 176.28 87.2 175.8 86.32C175.333 85.4267 174.853 84.5333 174.36 83.64C173.867 82.7467 173.393 81.9133 172.94 81.14L174.98 80.1C175.447 80.8867 175.927 81.7267 176.42 82.62C176.927 83.5133 177.413 84.4067 177.88 85.3C178.36 86.1933 178.787 87.0267 179.16 87.8L177.1 88.84ZM181.06 87.44C181.553 86.1733 181.993 85.0067 182.38 83.94C182.767 82.86 183.113 81.8267 183.42 80.84C183.74 79.8533 184.027 78.8533 184.28 77.84C184.547 76.8267 184.793 75.7467 185.02 74.6C185.247 73.4533 185.473 72.1867 185.7 70.8L188.02 71.06C187.807 72.3933 187.587 73.64 187.36 74.8C187.133 75.9467 186.88 77.0533 186.6 78.12C186.333 79.1733 186.033 80.2267 185.7 81.28C185.38 82.3333 185.013 83.42 184.6 84.54C184.2 85.66 183.747 86.86 183.24 88.14L181.06 87.44ZM197.26 84.82C197.14 84.02 196.98 83.1667 196.78 82.26C196.593 81.34 196.373 80.42 196.12 79.5C195.867 78.58 195.6 77.6933 195.32 76.84L197.54 76.18C197.82 77.06 198.087 77.9733 198.34 78.92C198.607 79.8533 198.84 80.7933 199.04 81.74C199.24 82.6733 199.407 83.5667 199.54 84.42L197.26 84.82ZM195.16 75.74C194.813 75.0067 194.473 74.3533 194.14 73.78C193.807 73.2067 193.433 72.64 193.02 72.08L194.68 71.12C195.107 71.6933 195.487 72.2867 195.82 72.9C196.167 73.5133 196.507 74.18 196.84 74.9L195.16 75.74ZM197.96 74.68C197.64 73.9333 197.32 73.2733 197 72.7C196.68 72.1133 196.327 71.5467 195.94 71L197.56 70.1C197.987 70.6867 198.36 71.2867 198.68 71.9C199.013 72.5133 199.333 73.1867 199.64 73.92L197.96 74.68ZM190.56 87.66C190.213 87.66 189.78 87.6133 189.26 87.52C188.74 87.44 188.193 87.32 187.62 87.16C187.06 87.0133 186.52 86.8467 186 86.66L186.54 84.64C186.98 84.7733 187.413 84.9067 187.84 85.04C188.28 85.16 188.68 85.26 189.04 85.34C189.413 85.4067 189.7 85.44 189.9 85.44C190.327 85.44 190.68 85.2467 190.96 84.86C191.24 84.46 191.447 83.84 191.58 83C191.727 82.1467 191.8 81.0533 191.8 79.72C191.8 78.9467 191.773 78.3267 191.72 77.86C191.667 77.38 191.553 77.02 191.38 76.78C191.22 76.54 190.973 76.38 190.64 76.3C190.307 76.22 189.86 76.18 189.3 76.18H180.82V74.1H189.08C190 74.1 190.767 74.14 191.38 74.22C192.007 74.2867 192.5 74.4267 192.86 74.64C193.233 74.8533 193.513 75.18 193.7 75.62C193.9 76.0467 194.027 76.62 194.08 77.34C194.147 78.0467 194.18 78.9333 194.18 80C194.18 81.7333 194.053 83.1667 193.8 84.3C193.547 85.4333 193.147 86.28 192.6 86.84C192.067 87.3867 191.387 87.66 190.56 87.66ZM204.26 85.8C206.833 85.8 208.907 85.58 210.48 85.14C212.067 84.7 213.213 83.9867 213.92 83C214.64 82 215 80.7133 215 79.14C215 77.54 214.66 76.3467 213.98 75.56C213.313 74.76 212.287 74.36 210.9 74.36C210.127 74.36 209.4 74.4867 208.72 74.74C208.053 74.9933 207.467 75.3533 206.96 75.82C206.453 76.2867 206.047 76.84 205.74 77.48C205.447 78.12 205.3 78.8267 205.3 79.6V82.22H202.98V71.7H205.3V75.96H204.4C204.88 75.1333 205.447 74.4333 206.1 73.86C206.767 73.2867 207.52 72.8533 208.36 72.56C209.213 72.2533 210.14 72.1 211.14 72.1C213.18 72.1 214.74 72.7067 215.82 73.92C216.913 75.12 217.46 76.86 217.46 79.14C217.46 81.1933 216.993 82.8733 216.06 84.18C215.14 85.4867 213.72 86.4467 211.8 87.06C209.88 87.6867 207.407 88 204.38 88L204.26 85.8ZM231.56 84.12C231.56 82.5733 231.467 81.3533 231.28 80.46C231.107 79.5533 230.807 78.9067 230.38 78.52C229.967 78.1333 229.393 77.94 228.66 77.94C228.02 77.94 227.4 78.0933 226.8 78.4C226.213 78.7067 225.62 79.2 225.02 79.88C224.433 80.5467 223.787 81.44 223.08 82.56L221.12 81.44C221.787 80.4133 222.373 79.4667 222.88 78.6C223.4 77.7333 223.867 76.8867 224.28 76.06C224.707 75.22 225.093 74.3667 225.44 73.5C225.8 72.62 226.147 71.6667 226.48 70.64L228.84 71.02C228.427 72.26 227.987 73.4067 227.52 74.46C227.053 75.5 226.54 76.5333 225.98 77.56L225.44 77.24C226.027 76.8667 226.653 76.5867 227.32 76.4C228 76.2 228.68 76.1 229.36 76.1C230.467 76.1 231.353 76.3667 232.02 76.9C232.7 77.4333 233.193 78.2933 233.5 79.48C233.807 80.6533 233.96 82.2 233.96 84.12H231.56ZM231.36 88.18C229.307 88.18 227.7 87.8667 226.54 87.24C225.38 86.6267 224.8 85.7667 224.8 84.66C224.8 83.8867 225.093 83.1267 225.68 82.38C226.267 81.62 227.113 80.9067 228.22 80.24C229.34 79.5733 230.68 78.96 232.24 78.4C233.813 77.84 235.587 77.3533 237.56 76.94L237.92 78.9C236.28 79.2467 234.8 79.64 233.48 80.08C232.173 80.52 231.047 80.9867 230.1 81.48C229.167 81.96 228.447 82.4533 227.94 82.96C227.433 83.4667 227.18 83.96 227.18 84.44C227.18 85 227.54 85.44 228.26 85.76C228.993 86.0667 230.033 86.22 231.38 86.22C232.207 86.22 233.127 86.1667 234.14 86.06C235.153 85.94 236.247 85.7733 237.42 85.56L237.74 87.56C237.06 87.68 236.34 87.7867 235.58 87.88C234.82 87.9733 234.073 88.0467 233.34 88.1C232.62 88.1533 231.96 88.18 231.36 88.18ZM221.18 74.62V72.72H237.12V74.62H221.18ZM42.2 119.82L40.56 117.86C40.7333 117.487 40.8867 117.107 41.02 116.72C41.1667 116.32 41.2933 115.887 41.4 115.42C41.5067 114.953 41.5933 114.453 41.66 113.92C41.7267 113.373 41.7733 112.78 41.8 112.14C41.84 111.5 41.86 110.793 41.86 110.02V107.86H58.56V109.74H44.1V111.72C44.1 112.52 44.0533 113.3 43.96 114.06C43.8667 114.82 43.7333 115.547 43.56 116.24C43.4 116.933 43.2 117.58 42.96 118.18C42.7333 118.78 42.48 119.327 42.2 119.82ZM42.26 124.6L40.54 123.26C41.06 122.687 41.5267 122.067 41.94 121.4C42.3667 120.72 42.7133 120.02 42.98 119.3L44.9 120.16C44.62 120.973 44.2533 121.767 43.8 122.54C43.36 123.3 42.8467 123.987 42.26 124.6ZM50.66 124.84C50.2067 124.84 49.7467 124.833 49.28 124.82C48.8267 124.807 48.4267 124.793 48.08 124.78C47.5467 124.753 47.12 124.7 46.8 124.62C46.48 124.553 46.2333 124.42 46.06 124.22C45.9 124.033 45.7933 123.76 45.74 123.4C45.7 123.04 45.68 122.567 45.68 121.98V119.24H48.08V121.66C48.08 122.033 48.0933 122.307 48.12 122.48C48.1467 122.64 48.2067 122.74 48.3 122.78C48.4067 122.82 48.58 122.853 48.82 122.88C49.0333 122.893 49.3 122.907 49.62 122.92C49.94 122.933 50.2733 122.94 50.62 122.94C50.9 122.94 51.2067 122.933 51.54 122.92C51.8867 122.907 52.18 122.893 52.42 122.88C52.7267 122.853 52.9733 122.813 53.16 122.76C53.3467 122.693 53.4867 122.593 53.58 122.46C53.6867 122.327 53.76 122.12 53.8 121.84C53.8533 121.56 53.8933 121.173 53.92 120.68L56.16 121.04C56.1067 121.827 56.0333 122.46 55.94 122.94C55.86 123.407 55.72 123.76 55.52 124C55.3333 124.24 55.0533 124.413 54.68 124.52C54.32 124.627 53.8333 124.707 53.22 124.76C52.8733 124.787 52.4867 124.807 52.06 124.82C51.6467 124.833 51.18 124.84 50.66 124.84ZM51.88 122.08C51.4 121.627 50.88 121.193 50.32 120.78C49.7733 120.353 49.2 119.953 48.6 119.58L49.96 118.16C50.56 118.52 51.1333 118.907 51.68 119.32C52.2267 119.733 52.74 120.16 53.22 120.6L51.88 122.08ZM44.56 118.38V112.92H51.22V117.58H46.72V116.06H49.2V114.46H46.72V118.38H44.56ZM57.68 124.36C57.3067 123.587 56.8867 122.807 56.42 122.02C55.9533 121.233 55.4467 120.473 54.9 119.74L56.8 118.76C57.3467 119.507 57.86 120.28 58.34 121.08C58.82 121.88 59.2533 122.673 59.64 123.46L57.68 124.36ZM44.46 112.16V110.52H51.36V112.16H44.46ZM51.12 117.98L49.94 116.3C51.2867 115.633 52.4667 114.8 53.48 113.8C54.4933 112.787 55.3867 111.56 56.16 110.12L57.88 111.08C57.0933 112.68 56.14 114.053 55.02 115.2C53.9133 116.333 52.6133 117.26 51.12 117.98ZM56.68 119.1C56.2133 119.1 55.7333 118.92 55.24 118.56C54.7467 118.2 54.2667 117.667 53.8 116.96C53.3467 116.253 52.9333 115.393 52.56 114.38C52.1867 113.353 51.8933 112.18 51.68 110.86C51.4667 109.54 51.36 108.08 51.36 106.48H53.46C53.46 107.947 53.5467 109.247 53.72 110.38C53.9067 111.513 54.14 112.493 54.42 113.32C54.7133 114.133 55 114.813 55.28 115.36C55.5733 115.893 55.8333 116.287 56.06 116.54C56.3 116.793 56.4667 116.92 56.56 116.92C56.6667 116.92 56.7733 116.86 56.88 116.74C56.9867 116.607 57.0933 116.367 57.2 116.02C57.3067 115.673 57.4133 115.18 57.52 114.54L59.3 115.08C59.1267 116.52 58.8 117.553 58.32 118.18C57.8533 118.793 57.3067 119.1 56.68 119.1ZM55.92 109.26C55.6933 108.847 55.4533 108.427 55.2 108C54.9467 107.573 54.6933 107.167 54.44 106.78L56.34 106.08C56.62 106.48 56.88 106.893 57.12 107.32C57.3733 107.747 57.6067 108.173 57.82 108.6L55.92 109.26ZM69.44 124.04C67.92 124.04 66.6733 123.8 65.7 123.32C64.74 122.853 64.0267 122.127 63.56 121.14C63.1067 120.153 62.88 118.887 62.88 117.34V107.6H65.32V117.34C65.32 118.9 65.6467 120.033 66.3 120.74C66.9533 121.433 68 121.78 69.44 121.78C70.4933 121.78 71.42 121.587 72.22 121.2C73.0333 120.813 73.7667 120.187 74.42 119.32C75.0867 118.44 75.7267 117.273 76.34 115.82L78.56 116.72C78.0267 118.053 77.4533 119.187 76.84 120.12C76.24 121.04 75.58 121.793 74.86 122.38C74.1533 122.953 73.3533 123.373 72.46 123.64C71.5667 123.907 70.56 124.04 69.44 124.04ZM72.78 112.64C72.4733 111.947 72.14 111.293 71.78 110.68C71.4333 110.067 71.0333 109.433 70.58 108.78L72.32 107.82C72.7733 108.473 73.18 109.12 73.54 109.76C73.9 110.387 74.24 111.053 74.56 111.76L72.78 112.64ZM75.82 111.5C75.5267 110.807 75.2067 110.147 74.86 109.52C74.5267 108.893 74.14 108.253 73.7 107.6L75.44 106.7C75.88 107.353 76.2733 108 76.62 108.64C76.98 109.28 77.3067 109.967 77.6 110.7L75.82 111.5ZM81.74 123.84C82.3 122.04 82.8067 120.213 83.26 118.36C83.7267 116.493 84.1333 114.6 84.48 112.68C84.84 110.747 85.1467 108.8 85.4 106.84L87.78 106.94C87.5533 108.86 87.26 110.8 86.9 112.76C86.5533 114.72 86.1467 116.667 85.68 118.6C85.2133 120.52 84.6933 122.407 84.12 124.26L81.74 123.84ZM94.14 123.86C92.9267 123.86 91.8733 123.713 90.98 123.42C90.0867 123.14 89.3933 122.747 88.9 122.24C88.4067 121.72 88.16 121.1 88.16 120.38C88.16 119.847 88.34 119.32 88.7 118.8C89.06 118.28 89.6133 117.74 90.36 117.18L92.16 118.46C91.6533 118.78 91.2733 119.08 91.02 119.36C90.78 119.627 90.66 119.893 90.66 120.16C90.66 120.467 90.8 120.74 91.08 120.98C91.3733 121.207 91.78 121.387 92.3 121.52C92.8333 121.653 93.4467 121.72 94.14 121.72C94.7667 121.72 95.4067 121.687 96.06 121.62C96.7133 121.553 97.3933 121.453 98.1 121.32L98.36 123.46C97.6267 123.593 96.92 123.693 96.24 123.76C95.56 123.827 94.86 123.86 94.14 123.86ZM81.46 111.42V109.34H95.54V111.42H81.46ZM88.94 113.68C90.5133 113.533 92.0533 113.42 93.56 113.34C95.08 113.26 96.6 113.22 98.12 113.22V115.32C96.6267 115.32 95.1267 115.36 93.62 115.44C92.1267 115.507 90.6133 115.627 89.08 115.8L88.94 113.68ZM104.54 124.74C103.847 124.74 103.233 124.593 102.7 124.3C102.18 124.007 101.773 123.6 101.48 123.08C101.2 122.56 101.06 121.947 101.06 121.24C101.06 120.547 101.2 119.94 101.48 119.42C101.773 118.887 102.18 118.48 102.7 118.2C103.233 117.907 103.847 117.76 104.54 117.76C105.247 117.76 105.86 117.907 106.38 118.2C106.9 118.48 107.307 118.887 107.6 119.42C107.893 119.94 108.04 120.547 108.04 121.24C108.04 121.947 107.893 122.56 107.6 123.08C107.307 123.6 106.9 124.007 106.38 124.3C105.86 124.593 105.247 124.74 104.54 124.74ZM104.56 122.86C105.04 122.86 105.427 122.713 105.72 122.42C106.013 122.127 106.16 121.733 106.16 121.24C106.16 120.76 106.013 120.373 105.72 120.08C105.427 119.787 105.04 119.64 104.56 119.64C104.067 119.64 103.673 119.787 103.38 120.08C103.087 120.373 102.94 120.76 102.94 121.24C102.94 121.733 103.087 122.127 103.38 122.42C103.673 122.713 104.067 122.86 104.56 122.86ZM127.5 124.26C125.807 124.26 124.5 123.927 123.58 123.26C122.673 122.607 122.22 121.667 122.22 120.44C122.22 119.213 122.673 118.28 123.58 117.64C124.487 117 125.793 116.68 127.5 116.68C128.367 116.68 129.207 116.773 130.02 116.96C130.833 117.147 131.653 117.447 132.48 117.86C133.307 118.273 134.18 118.813 135.1 119.48C136.02 120.147 137.02 120.967 138.1 121.94L136.04 124C135.027 123.107 134.12 122.36 133.32 121.76C132.52 121.147 131.787 120.66 131.12 120.3C130.467 119.927 129.847 119.66 129.26 119.5C128.673 119.34 128.087 119.26 127.5 119.26C126.14 119.26 125.46 119.633 125.46 120.38C125.46 120.753 125.627 121.04 125.96 121.24C126.293 121.44 126.78 121.54 127.42 121.54C128.233 121.54 128.84 121.38 129.24 121.06C129.64 120.727 129.84 120.227 129.84 119.56V106.96H132.9V119.56C132.9 121.133 132.447 122.307 131.54 123.08C130.647 123.867 129.3 124.26 127.5 124.26ZM122.1 115.5V112.84H137.9V115.5H122.1ZM121.9 111.46V108.74H138.1V111.46H121.9ZM150.98 124.16C149.22 124.16 147.7 123.947 146.42 123.52C145.14 123.107 144.153 122.513 143.46 121.74C142.78 120.953 142.44 120.013 142.44 118.92C142.44 118.067 142.667 117.227 143.12 116.4C143.587 115.573 144.26 114.787 145.14 114.04L147.98 115.3C147.273 115.967 146.74 116.6 146.38 117.2C146.033 117.787 145.86 118.333 145.86 118.84C145.86 119.36 146.047 119.8 146.42 120.16C146.793 120.507 147.353 120.767 148.1 120.94C148.86 121.113 149.8 121.2 150.92 121.2C151.893 121.2 152.9 121.14 153.94 121.02C154.98 120.9 156.027 120.727 157.08 120.5L157.48 123.44C156.333 123.667 155.207 123.84 154.1 123.96C152.993 124.093 151.953 124.16 150.98 124.16ZM141.66 112.32V109.58L158.34 109.18V111.92L141.66 112.32ZM153 118.98C152.6 118.087 152.233 117.16 151.9 116.2C151.58 115.24 151.293 114.253 151.04 113.24C150.8 112.227 150.6 111.207 150.44 110.18C150.28 109.14 150.167 108.107 150.1 107.08L153.34 106.92C153.407 107.893 153.513 108.853 153.66 109.8C153.82 110.747 154.02 111.68 154.26 112.6C154.5 113.52 154.787 114.44 155.12 115.36C155.467 116.28 155.867 117.2 156.32 118.12L153 118.98ZM173.34 123.44C172.14 123.44 171.067 123.267 170.12 122.92C169.187 122.56 168.453 122.067 167.92 121.44C167.4 120.813 167.14 120.1 167.14 119.3C167.14 117.887 167.993 116.427 169.7 114.92L172.06 116.64C171.433 117.2 170.987 117.667 170.72 118.04C170.453 118.4 170.32 118.733 170.32 119.04C170.32 119.36 170.44 119.633 170.68 119.86C170.92 120.073 171.267 120.24 171.72 120.36C172.173 120.48 172.713 120.54 173.34 120.54C173.953 120.54 174.68 120.493 175.52 120.4C176.36 120.293 177.227 120.16 178.12 120L178.56 122.84C177.653 123.027 176.753 123.173 175.86 123.28C174.967 123.387 174.127 123.44 173.34 123.44ZM168.1 111.64V108.74H178.38V111.64H168.1ZM162.92 124.16C162.587 122.8 162.34 121.44 162.18 120.08C162.02 118.72 161.94 117.293 161.94 115.8C161.94 114.307 162.02 112.887 162.18 111.54C162.34 110.18 162.587 108.82 162.92 107.46L166.16 107.82C165.853 109.087 165.62 110.387 165.46 111.72C165.313 113.04 165.24 114.4 165.24 115.8C165.24 117.2 165.313 118.567 165.46 119.9C165.62 121.22 165.853 122.513 166.16 123.78L162.92 124.16ZM183.34 124.94V115.56H180.74V113.06H183.42V106.66H186.08V113.06H188.4V115.56H186.14V124.94H183.34ZM181.42 123.14L180.26 120.02C181.06 119.033 181.7 118.027 182.18 117C182.673 115.973 183.04 114.887 183.28 113.74L184.36 114.5C184.293 115.647 184.12 116.767 183.84 117.86C183.573 118.94 183.227 119.933 182.8 120.84C182.387 121.747 181.927 122.513 181.42 123.14ZM187.18 121.08C186.753 120.067 186.32 119.06 185.88 118.06C185.453 117.047 184.993 115.987 184.5 114.88L186.16 113.98C186.64 114.9 187.107 115.807 187.56 116.7C188.013 117.58 188.473 118.493 188.94 119.44L187.18 121.08ZM181.64 112.76C181.453 112 181.253 111.22 181.04 110.42C180.827 109.62 180.62 108.893 180.42 108.24L182.46 107.5C182.673 108.167 182.873 108.893 183.06 109.68C183.26 110.453 183.44 111.24 183.6 112.04L181.64 112.76ZM188.36 122.4L188.1 119.72L199.54 117.58L199.8 120.26L188.36 122.4ZM192.18 118.3C191.593 117.66 190.967 116.993 190.3 116.3C189.633 115.607 188.927 114.913 188.18 114.22L190.26 112.3C191.007 112.98 191.713 113.66 192.38 114.34C193.06 115.007 193.687 115.667 194.26 116.32L192.18 118.3ZM187.78 112.78L185.74 111.96C186.007 111.253 186.247 110.493 186.46 109.68C186.673 108.867 186.84 108.107 186.96 107.4L189.16 107.88C189 108.653 188.793 109.473 188.54 110.34C188.3 111.193 188.047 112.007 187.78 112.78ZM194.92 124.94V106.66H198.02V124.94H194.92ZM192.98 112.98C192.473 112.407 191.927 111.82 191.34 111.22C190.753 110.62 190.14 110.013 189.5 109.4L191.58 107.5C192.22 108.087 192.833 108.673 193.42 109.26C194.007 109.847 194.553 110.42 195.06 110.98L192.98 112.98ZM205.76 124.46V121.94H211.26V120.54H206.84V118.2H211.26V112.94H209.6V111.04H211.26V109.36H214.38V111.04H216.06V109.36H209.6V116.86H206.92V106.94H218.8V116.86H209.6V114.66H216.06V112.94H214.38V118.2H219.04V120.54H214.38V121.94H219.26V124.46H205.76ZM200.9 123.26L200.62 120.58C201.22 120.473 201.853 120.34 202.52 120.18C203.2 120.02 203.873 119.847 204.54 119.66C205.22 119.473 205.847 119.287 206.42 119.1L206.44 121.7C205.893 121.9 205.293 122.1 204.64 122.3C203.987 122.5 203.333 122.687 202.68 122.86C202.027 123.02 201.433 123.153 200.9 123.26ZM202.12 120.8V115.96H200.92V113.28H202.12V110.36H200.72V107.6H206.44V110.36H205.08V113.28H206.32V115.96H205.08V120.8H202.12ZM231.46 121.04C232.127 120.947 232.733 120.753 233.28 120.46C233.827 120.167 234.293 119.793 234.68 119.34C235.08 118.873 235.387 118.34 235.6 117.74C235.813 117.127 235.92 116.473 235.92 115.78C235.92 114.767 235.687 113.893 235.22 113.16C234.767 112.413 234.127 111.84 233.3 111.44C232.487 111.04 231.553 110.84 230.5 110.84C229.593 110.84 228.74 111 227.94 111.32C227.153 111.627 226.46 112.053 225.86 112.6C225.26 113.147 224.787 113.78 224.44 114.5C224.093 115.22 223.92 115.993 223.92 116.82C223.92 117.353 224.007 117.88 224.18 118.4C224.353 118.907 224.573 119.333 224.84 119.68C225.12 120.013 225.4 120.18 225.68 120.18C226.093 120.18 226.5 119.733 226.9 118.84C227.313 117.933 227.693 116.633 228.04 114.94C228.4 113.233 228.72 111.193 229 108.82L232.16 109.16C231.827 111.773 231.46 113.987 231.06 115.8C230.673 117.613 230.233 119.08 229.74 120.2C229.247 121.32 228.68 122.14 228.04 122.66C227.4 123.167 226.667 123.42 225.84 123.42C225.133 123.42 224.48 123.26 223.88 122.94C223.28 122.607 222.76 122.147 222.32 121.56C221.88 120.96 221.54 120.26 221.3 119.46C221.06 118.647 220.94 117.767 220.94 116.82C220.94 115.527 221.173 114.34 221.64 113.26C222.107 112.167 222.767 111.227 223.62 110.44C224.473 109.653 225.487 109.04 226.66 108.6C227.833 108.16 229.12 107.94 230.52 107.94C232.173 107.94 233.64 108.253 234.92 108.88C236.213 109.493 237.227 110.387 237.96 111.56C238.693 112.72 239.06 114.127 239.06 115.78C239.06 116.86 238.9 117.867 238.58 118.8C238.273 119.72 237.827 120.54 237.24 121.26C236.653 121.967 235.947 122.547 235.12 123C234.307 123.44 233.393 123.727 232.38 123.86L231.46 121.04ZM41.96 160.74V144.68H58.04V160.74H54.86V159.86H45.14V157.42H54.86V155.54H45.14V153.24H54.86V151.36H45.14V149.06H54.86V147.22H45.14V160.74H41.96ZM50.32 146.26L47.08 145.9C47.2933 145.313 47.4867 144.707 47.66 144.08C47.8467 143.44 48.0133 142.767 48.16 142.06L51.44 142.42C51.28 143.127 51.1067 143.8 50.92 144.44C50.7333 145.08 50.5333 145.687 50.32 146.26ZM61.42 160.98V145.82H78.58V160.98H75.4V159.92H64.6V157.4H75.4V154.06H71.54V157.4H68.46V154.06H64.6V151.54H68.46V142.34H71.54V151.54H75.4V148.42H64.6V160.98H61.42ZM94.22 160.7C93.8867 160.7 93.54 160.693 93.18 160.68C92.82 160.667 92.4867 160.653 92.18 160.64C91.5667 160.613 91.0733 160.553 90.7 160.46C90.34 160.38 90.06 160.227 89.86 160C89.6733 159.787 89.5467 159.473 89.48 159.06C89.4133 158.66 89.38 158.12 89.38 157.44V142.94H92.56V157.08C92.56 157.333 92.5733 157.52 92.6 157.64C92.6267 157.747 92.6733 157.82 92.74 157.86C92.82 157.887 92.94 157.913 93.1 157.94C93.2467 157.953 93.4133 157.967 93.6 157.98C93.7867 157.98 93.9667 157.98 94.14 157.98C94.34 157.98 94.5133 157.98 94.66 157.98C94.8067 157.967 94.9733 157.953 95.16 157.94C95.32 157.913 95.4467 157.88 95.54 157.84C95.6467 157.8 95.7267 157.7 95.78 157.54C95.8467 157.38 95.9 157.12 95.94 156.76C95.98 156.4 96.0133 155.907 96.04 155.28C96.0667 154.653 96.0933 153.847 96.12 152.86L99.14 153.2C99.0867 154.533 99.0267 155.64 98.96 156.52C98.9067 157.4 98.82 158.107 98.7 158.64C98.58 159.16 98.42 159.553 98.22 159.82C98.02 160.087 97.76 160.267 97.44 160.36C97.12 160.467 96.7267 160.547 96.26 160.6C95.9133 160.64 95.58 160.667 95.26 160.68C94.9533 160.693 94.6067 160.7 94.22 160.7ZM83.4 160.94V147.6H86.58V160.94H83.4ZM81.66 154.4L80.3 151.3C81.1533 150.54 81.8867 149.74 82.5 148.9C83.1267 148.047 83.66 147.107 84.1 146.08C84.5533 145.053 84.9333 143.887 85.24 142.58L88.14 143.02C87.8867 144.553 87.5067 145.947 87 147.2C86.4933 148.44 85.8733 149.56 85.14 150.56L85.02 149.52C84.8733 149.88 84.6733 150.287 84.42 150.74C84.18 151.18 83.9 151.633 83.58 152.1C83.2733 152.553 82.9533 152.987 82.62 153.4C82.2867 153.8 81.9667 154.133 81.66 154.4ZM90.8 152.44L89.78 149.7C91.1267 149.14 92.4067 148.473 93.62 147.7C94.8333 146.913 96.1133 145.933 97.46 144.76L99.42 147C97.9533 148.267 96.52 149.34 95.12 150.22C93.7333 151.087 92.2933 151.827 90.8 152.44ZM108.42 154.36L107.92 144.4H112L111.5 154.36H108.42ZM108.2 159V155.86H111.72V159H108.2Z" fill="#282828"/>
<path opacity="0.6" d="M52.88 193.4C52.88 189.7 54.46 186.44 57.76 183.78C57.94 183.62 58.16 183.54 58.36 183.54C58.74 183.54 59.1 183.88 59.1 184.26C59.1 184.52 59 184.7 58.8 184.88C55.92 187.34 54.72 190.12 54.72 193.4C54.72 196.68 55.92 199.46 58.8 201.92C59 202.1 59.1 202.28 59.1 202.54C59.1 202.92 58.74 203.26 58.36 203.26C58.16 203.26 57.94 203.18 57.76 203.02C54.46 200.36 52.88 197.1 52.88 193.4ZM64.02 198.76H69.62C70.34 198.76 70.68 199.2 70.68 199.8C70.68 200.4 70.34 200.82 69.62 200.82H62.24C61.52 200.82 61.06 200.28 61.06 199.54C61.06 198.96 61.26 198.54 61.68 198.18C63.28 196.76 64.62 195.54 66.18 193.72C67.42 192.26 67.96 191.22 67.96 190.06C67.96 188.56 67.18 187.8 65.92 187.8C65.1 187.8 64.2 188.16 63.24 189.1C63 189.32 62.76 189.44 62.48 189.44C61.8 189.44 61.32 188.96 61.32 188.32C61.32 188 61.42 187.8 61.72 187.5C62.78 186.46 64.4 185.74 65.9 185.74C68.76 185.74 70.36 187.46 70.36 190.02C70.36 191.86 69.72 193.1 67.92 195C66.26 196.74 65.28 197.62 64.02 198.76ZM77.7359 185.74C80.7759 185.74 82.7959 187.9 82.7959 193.44C82.7959 198.98 80.7759 201.14 77.7359 201.14C74.6959 201.14 72.7159 198.98 72.7159 193.44C72.7159 187.9 74.6959 185.74 77.7359 185.74ZM77.7359 187.74C76.0759 187.74 75.0759 189.14 75.0759 193.44C75.0759 197.74 76.0759 199.14 77.7359 199.14C79.4159 199.14 80.4359 197.74 80.4359 193.44C80.4359 189.14 79.4159 187.74 77.7359 187.74ZM87.2719 202V192.56C86.9319 193.08 86.5719 193.58 86.2119 194.02C85.9519 194.34 85.6319 194.48 85.3319 194.48C84.7519 194.48 84.2119 194 84.2119 193.42C84.2119 193.18 84.2919 192.94 84.4919 192.68C86.0719 190.72 87.5319 187.7 88.3319 185.02C88.4919 184.5 88.9319 184.26 89.3919 184.26C89.9919 184.26 90.5919 184.64 90.5919 185.28C90.5919 185.38 90.5719 185.5 90.5319 185.62C90.0919 187.12 89.3719 188.8 88.5519 190.36C89.0319 190.42 89.4519 190.7 89.4519 191.22V202C89.4519 202.54 88.9119 202.82 88.3719 202.82C87.8119 202.82 87.2719 202.54 87.2719 202ZM96.0719 189.94L101.572 189.46H101.652C102.192 189.46 102.472 189.98 102.472 190.5C102.472 190.96 102.252 191.4 101.752 191.44L96.3319 191.92C96.6119 193.64 97.0319 195.22 97.6119 196.6C98.7319 199.26 99.6519 199.92 100.252 199.92C100.512 199.92 100.752 199.66 100.892 198.36C100.952 197.74 101.412 197.46 101.892 197.46C102.432 197.46 103.012 197.84 103.012 198.52V198.66C102.732 201.44 101.692 202.28 100.352 202.28C98.5919 202.28 96.8919 200.6 95.4719 197.2C94.8519 195.7 94.3919 194 94.0919 192.1L91.1719 192.36H91.0919C90.5519 192.36 90.2719 191.84 90.2719 191.34C90.2719 190.88 90.5119 190.44 90.9919 190.4L93.8519 190.14C93.6919 188.58 93.6119 186.9 93.6119 185.14C93.6119 184.52 94.1719 184.22 94.7319 184.22C95.2919 184.22 95.8519 184.52 95.8519 185.14C95.8519 186.84 95.9119 188.44 96.0719 189.94ZM98.4319 185.56C98.9719 185.96 99.4719 186.38 99.8919 186.8C100.132 187.06 100.252 187.34 100.252 187.58C100.252 188.16 99.7319 188.66 99.1719 188.66C98.9319 188.66 98.6719 188.54 98.4519 188.3C98.0319 187.82 97.5919 187.4 97.0919 187C96.8519 186.8 96.7319 186.56 96.7319 186.32C96.7319 185.82 97.2119 185.32 97.7719 185.32C97.9919 185.32 98.2119 185.4 98.4319 185.56ZM104.812 201.6L121.292 184.08C121.472 183.9 121.672 183.76 121.852 183.76C122.372 183.76 122.812 184.18 122.812 184.58C122.812 184.8 122.732 185 122.532 185.2L106.052 202.72C105.872 202.9 105.672 203.04 105.492 203.04C104.972 203.04 104.532 202.62 104.532 202.22C104.532 202 104.612 201.8 104.812 201.6ZM142.012 190.82H139.112C138.912 191.6 138.612 192.6 138.252 193.46C137.732 194.7 137.072 195.84 136.272 196.88C137.892 197.7 139.492 198.62 140.932 199.64C141.312 199.9 141.472 200.26 141.472 200.6C141.472 201.2 140.952 201.78 140.312 201.78C140.072 201.78 139.812 201.7 139.552 201.52C138.052 200.42 136.392 199.4 134.732 198.54C132.492 200.52 129.692 201.66 126.532 202.26C126.432 202.28 126.352 202.28 126.252 202.28C125.592 202.28 125.212 201.78 125.212 201.26C125.212 200.82 125.492 200.36 126.112 200.24C128.672 199.74 130.872 198.92 132.652 197.52C131.692 197.12 130.752 196.72 129.772 196.38L129.692 196.52C129.412 197 128.992 197.2 128.592 197.2C128.012 197.2 127.452 196.8 127.452 196.22C127.452 196.06 127.492 195.88 127.612 195.68C128.532 194.08 129.352 192.48 130.032 190.82H125.332C124.812 190.82 124.532 190.34 124.532 189.86C124.532 189.38 124.812 188.9 125.332 188.9H130.772C131.232 187.6 131.632 186.24 132.032 184.78C132.172 184.28 132.632 184.04 133.092 184.04C133.672 184.04 134.252 184.38 134.252 184.98C134.252 185.06 134.232 185.14 134.212 185.24C133.872 186.5 133.512 187.72 133.092 188.9H142.012C142.552 188.9 142.832 189.38 142.832 189.86C142.832 190.34 142.552 190.82 142.012 190.82ZM136.752 190.82H132.392C131.852 192.12 131.292 193.4 130.672 194.66C131.892 195.04 133.092 195.46 134.252 195.96C135.472 194.48 136.292 192.68 136.752 190.82ZM155.972 200.08V196.12H152.932C152.432 196.12 152.192 195.62 152.192 195.14C152.192 194.64 152.432 194.16 152.932 194.16H155.972V190.82H153.672C153.432 191.36 153.172 191.88 152.912 192.36C152.652 192.84 152.232 193.04 151.852 193.04C151.332 193.04 150.852 192.68 150.852 192.12C150.852 191.92 150.912 191.7 151.052 191.46C151.832 190.12 152.452 188.48 152.852 186.68C152.972 186.14 153.412 185.88 153.832 185.88C154.352 185.88 154.872 186.24 154.872 186.84C154.872 186.92 154.872 186.98 154.852 187.06C154.732 187.68 154.572 188.3 154.372 188.9H155.972V185.1C155.972 184.5 156.512 184.2 157.052 184.2C157.592 184.2 158.132 184.5 158.132 185.1V188.9H161.792C162.312 188.9 162.572 189.38 162.572 189.86C162.572 190.34 162.312 190.82 161.792 190.82H158.132V194.16H161.072C161.572 194.16 161.832 194.64 161.832 195.14C161.832 195.62 161.572 196.12 161.072 196.12H158.132V200.08H162.212C162.712 200.08 162.972 200.56 162.972 201.06C162.972 201.54 162.712 202.04 162.212 202.04H151.192C150.712 202.04 150.452 201.54 150.452 201.06C150.452 200.56 150.712 200.08 151.192 200.08H155.972ZM148.992 184.96V201.88C148.992 202.48 148.452 202.78 147.912 202.78C147.352 202.78 146.812 202.48 146.812 201.88V184.96C146.812 184.36 147.352 184.08 147.912 184.08C148.452 184.08 148.992 184.36 148.992 184.96ZM144.932 188.94C144.992 188.48 145.352 188.26 145.712 188.26C146.132 188.26 146.532 188.54 146.532 189.04V189.14C146.452 190.04 146.232 191.24 145.972 192.1C145.832 192.54 145.492 192.74 145.152 192.74C144.732 192.74 144.332 192.44 144.332 191.98C144.332 191.9 144.332 191.8 144.372 191.7C144.632 190.86 144.832 189.72 144.932 188.94ZM150.732 188.16C150.932 188.76 151.112 189.48 151.192 190.02V190.16C151.192 190.7 150.752 191.02 150.352 191.02C150.012 191.02 149.692 190.82 149.612 190.36C149.512 189.76 149.372 189 149.232 188.52C149.212 188.44 149.192 188.34 149.192 188.26C149.192 187.84 149.572 187.58 149.952 187.58C150.272 187.58 150.592 187.76 150.732 188.16ZM170.792 193.4C170.792 197.1 169.212 200.36 165.912 203.02C165.732 203.18 165.512 203.26 165.312 203.26C164.932 203.26 164.572 202.92 164.572 202.54C164.572 202.28 164.672 202.1 164.872 201.92C167.752 199.46 168.952 196.68 168.952 193.4C168.952 190.12 167.752 187.34 164.872 184.88C164.672 184.7 164.572 184.52 164.572 184.26C164.572 183.88 164.932 183.54 165.312 183.54C165.512 183.54 165.732 183.62 165.912 183.78C169.212 186.44 170.792 189.7 170.792 193.4Z" fill="#282828"/>
<path d="M61.0002 279L79.0001 237L110.177 237L61.0002 279Z" fill="#FFF464"/>
</svg>
