<svg width="325" height="279" viewBox="0 0 325 279" fill="none" xmlns="http://www.w3.org/2000/svg">
<rect width="325" height="146" rx="73" fill="#69BD83"/>
<path d="M46.64 52.74V41.82H48.84V49.88H56.54V41.82H58.82V52.74H56.52V51.76H48.86V52.74H46.64ZM41.84 45.82L40.18 45.48C40.4067 44.3333 40.6067 43.1733 40.78 42C40.9533 40.8133 41.0867 39.6267 41.18 38.44L42.84 38.64C42.7467 39.8267 42.6133 41.0267 42.44 42.24C42.2667 43.4533 42.0667 44.6467 41.84 45.82ZM42.96 52.84V34.76H45.28V52.84H42.96ZM45.82 42.62C45.6867 41.9267 45.54 41.2067 45.38 40.46C45.22 39.7133 45.0467 38.9867 44.86 38.28L46.42 37.9C46.62 38.6067 46.8 39.34 46.96 40.1C47.1333 40.8467 47.2867 41.5733 47.42 42.28L45.82 42.62ZM50.2 49.78L48.94 48.08C49.6733 47.6 50.36 47.02 51 46.34C51.6533 45.66 52.2533 44.9 52.8 44.06C53.3467 43.2067 53.82 42.3 54.22 41.34L56.12 42.22C55.7333 43.2067 55.24 44.1667 54.64 45.1C54.04 46.02 53.36 46.88 52.6 47.68C51.8533 48.4667 51.0533 49.1667 50.2 49.78ZM55.18 49.36C54.38 48.4667 53.6333 47.68 52.94 47C52.26 46.3067 51.5867 45.6733 50.92 45.1C50.2667 44.5267 49.58 43.9733 48.86 43.44L50.18 41.88C50.9 42.4 51.5933 42.9467 52.26 43.52C52.9267 44.08 53.6067 44.7133 54.3 45.42C55.0067 46.1133 55.76 46.9 56.56 47.78L55.18 49.36ZM48.48 41.12C48.1867 40.0533 47.8867 39.0733 47.58 38.18C47.2867 37.2867 47.0067 36.5067 46.74 35.84L48.86 35.16C49.2067 36 49.52 36.86 49.8 37.74C50.0933 38.6067 50.3667 39.5067 50.62 40.44L48.48 41.12ZM52.36 40.64C52.0933 39.5733 51.82 38.58 51.54 37.66C51.2733 36.74 51.0067 35.9333 50.74 35.24L52.88 34.66C53.16 35.3667 53.4267 36.1533 53.68 37.02C53.9467 37.8867 54.2067 38.8867 54.46 40.02L52.36 40.64ZM56.7 41.6L54.62 40.74C55.0333 39.9933 55.4533 39.12 55.88 38.12C56.3067 37.1067 56.7 36.0067 57.06 34.82L59.22 35.44C58.8067 36.72 58.3867 37.8867 57.96 38.94C57.5333 39.9933 57.1133 40.88 56.7 41.6ZM65.74 51.74C65.1533 51.74 64.5867 51.5933 64.04 51.3C63.4933 51.0067 63 50.6133 62.56 50.12C62.12 49.6267 61.7733 49.08 61.52 48.48C61.2667 47.8667 61.14 47.2467 61.14 46.62C61.14 45.62 61.4733 44.7667 62.14 44.06C62.82 43.34 63.7867 42.7933 65.04 42.42C66.2933 42.0333 67.7867 41.84 69.52 41.84C71.3067 41.84 73.0067 42.08 74.62 42.56C76.2333 43.0267 77.8267 43.7533 79.4 44.74L78.56 46.76C77.5333 46.08 76.54 45.5333 75.58 45.12C74.62 44.7067 73.6467 44.4067 72.66 44.22C71.6733 44.02 70.6267 43.92 69.52 43.92C67.5867 43.92 66.08 44.16 65 44.64C63.9333 45.1067 63.4 45.7667 63.4 46.62C63.4 46.9133 63.46 47.22 63.58 47.54C63.7 47.86 63.8667 48.16 64.08 48.44C64.2933 48.7067 64.5133 48.9267 64.74 49.1C64.98 49.26 65.2133 49.34 65.44 49.34C65.88 49.34 66.28 49.0733 66.64 48.54C67 47.9933 67.3067 47.2067 67.56 46.18C67.8133 45.1533 68.0067 43.9067 68.14 42.44C68.2867 40.96 68.36 39.2933 68.36 37.44L68.94 38.12H61.96V36.1H70.8V36.3C70.8 38.8333 70.6933 41.0667 70.48 43C70.2667 44.92 69.9467 46.5267 69.52 47.82C69.0933 49.1133 68.56 50.0933 67.92 50.76C67.2933 51.4133 66.5667 51.74 65.74 51.74ZM71.5 50.4C71.9933 50.04 72.4067 49.6867 72.74 49.34C73.0733 48.98 73.3467 48.56 73.56 48.08C73.7733 47.6 73.9333 47.02 74.04 46.34C74.1467 45.6467 74.22 44.8 74.26 43.8C74.3 42.8 74.32 41.5867 74.32 40.16V36.62H76.64V40.28C76.64 41.8267 76.6133 43.1667 76.56 44.3C76.5067 45.42 76.4067 46.38 76.26 47.18C76.1133 47.98 75.9067 48.6667 75.64 49.24C75.3867 49.8133 75.06 50.3267 74.66 50.78C74.26 51.2333 73.7667 51.68 73.18 52.12L71.5 50.4ZM91.7 49.54C92.4067 49.46 93.0533 49.26 93.64 48.94C94.24 48.6067 94.7533 48.1867 95.18 47.68C95.62 47.16 95.96 46.5667 96.2 45.9C96.44 45.2333 96.56 44.5133 96.56 43.74C96.56 42.6467 96.3067 41.6933 95.8 40.88C95.2933 40.0533 94.5867 39.42 93.68 38.98C92.7867 38.54 91.7467 38.32 90.56 38.32C89.5467 38.32 88.6067 38.4867 87.74 38.82C86.8733 39.1533 86.1067 39.62 85.44 40.22C84.7867 40.8067 84.2733 41.5 83.9 42.3C83.5267 43.0867 83.34 43.9333 83.34 44.84C83.34 45.4933 83.4467 46.12 83.66 46.72C83.8733 47.32 84.14 47.8133 84.46 48.2C84.7933 48.5733 85.14 48.76 85.5 48.76C86.02 48.76 86.52 48.2867 87 47.34C87.48 46.3933 87.9133 45.0333 88.3 43.26C88.7 41.4733 89.0333 39.3333 89.3 36.84L91.62 37.08C91.3267 39.56 90.9933 41.6867 90.62 43.46C90.2467 45.2333 89.82 46.6867 89.34 47.82C88.86 48.9533 88.3133 49.7933 87.7 50.34C87.0867 50.8733 86.3933 51.14 85.62 51.14C84.98 51.14 84.3867 50.98 83.84 50.66C83.2933 50.34 82.82 49.8933 82.42 49.32C82.02 48.7467 81.7067 48.08 81.48 47.32C81.2533 46.5467 81.14 45.72 81.14 44.84C81.14 43.5867 81.3733 42.4333 81.84 41.38C82.3067 40.3133 82.96 39.3933 83.8 38.62C84.64 37.8467 85.6333 37.2467 86.78 36.82C87.94 36.38 89.2067 36.16 90.58 36.16C92.1933 36.16 93.62 36.4667 94.86 37.08C96.1133 37.6933 97.0933 38.5667 97.8 39.7C98.5067 40.8333 98.86 42.18 98.86 43.74C98.86 44.7933 98.7 45.7733 98.38 46.68C98.0733 47.5867 97.6333 48.3933 97.06 49.1C96.4867 49.7933 95.8 50.36 95 50.8C94.2 51.24 93.3133 51.52 92.34 51.64L91.7 49.54ZM106 52.32V50.44H111.58V49.5H106.7V47.76H111.58V40.02H106.38V38.26H111.58V36.54H114.02V38.26H119.06V40.02H114.02V47.76H118.86V49.5H114.02V50.44H119.4V52.32H106ZM101.52 49.88L100.42 47.56C101.233 46.2 101.86 44.9067 102.3 43.68C102.74 42.4533 103.02 41.2533 103.14 40.08L104.06 41.4C103.807 43.3333 103.467 44.9867 103.04 46.36C102.627 47.72 102.12 48.8933 101.52 49.88ZM102.94 52.84V41.78H100.86V39.78H102.94V36.34H105.14V39.78H106.74V41.78H105.14V52.84H102.94ZM106 47.18C105.6 46.2733 105.187 45.3667 104.76 44.46C104.333 43.54 103.887 42.6 103.42 41.64L104.56 40.58C105.133 41.6067 105.667 42.5867 106.16 43.52C106.653 44.44 107.12 45.3133 107.56 46.14L106 47.18ZM101.2 37.76L101 35.88C102 35.7867 103.007 35.64 104.02 35.44C105.033 35.24 105.987 35.0067 106.88 34.74L107.44 36.5C106.667 36.7933 105.74 37.0533 104.66 37.28C103.593 37.4933 102.44 37.6533 101.2 37.76ZM107.06 46.96V40.8H118.58V46.96H109.24V45.38H116.3V44.56H109.24V43.22H116.3V42.38H109.24V46.96H107.06ZM107.06 37.54L107.04 35.66C108.56 35.6333 110.027 35.58 111.44 35.5C112.867 35.4067 114.173 35.3 115.36 35.18C116.56 35.0467 117.573 34.9 118.4 34.74L118.68 36.62C117.84 36.78 116.82 36.9267 115.62 37.06C114.433 37.1933 113.113 37.3 111.66 37.38C110.207 37.46 108.673 37.5133 107.06 37.54ZM121.54 52.04C122.1 50.24 122.607 48.4133 123.06 46.56C123.527 44.6933 123.933 42.8 124.28 40.88C124.64 38.9467 124.947 37 125.2 35.04L127.58 35.14C127.353 37.06 127.06 39 126.7 40.96C126.353 42.92 125.947 44.8667 125.48 46.8C125.013 48.72 124.493 50.6067 123.92 52.46L121.54 52.04ZM133.94 52.06C132.727 52.06 131.673 51.9133 130.78 51.62C129.887 51.34 129.193 50.9467 128.7 50.44C128.207 49.92 127.96 49.3 127.96 48.58C127.96 48.0467 128.14 47.52 128.5 47C128.86 46.48 129.413 45.94 130.16 45.38L131.96 46.66C131.453 46.98 131.073 47.28 130.82 47.56C130.58 47.8267 130.46 48.0933 130.46 48.36C130.46 48.6667 130.6 48.94 130.88 49.18C131.173 49.4067 131.58 49.5867 132.1 49.72C132.633 49.8533 133.247 49.92 133.94 49.92C134.567 49.92 135.207 49.8867 135.86 49.82C136.513 49.7533 137.193 49.6533 137.9 49.52L138.16 51.66C137.427 51.7933 136.72 51.8933 136.04 51.96C135.36 52.0267 134.66 52.06 133.94 52.06ZM121.26 39.62V37.54H133.56V39.62H121.26ZM128.74 41.88C130.313 41.7333 131.853 41.62 133.36 41.54C134.88 41.46 136.4 41.42 137.92 41.42V43.52C136.427 43.52 134.927 43.56 133.42 43.64C131.927 43.7067 130.413 43.8267 128.88 44L128.74 41.88ZM135.34 39.42C134.993 38.7 134.653 38.0533 134.32 37.48C133.987 36.8933 133.613 36.3267 133.2 35.78L134.84 34.8C135.28 35.3733 135.667 35.9667 136 36.58C136.347 37.1933 136.687 37.86 137.02 38.58L135.34 39.42ZM138.22 38.48C137.9 37.7333 137.58 37.0733 137.26 36.5C136.94 35.9133 136.58 35.3467 136.18 34.8L137.82 33.9C138.247 34.4867 138.62 35.0867 138.94 35.7C139.273 36.3133 139.593 36.9867 139.9 37.72L138.22 38.48ZM146 49.16C148.013 49.16 149.647 49.0267 150.9 48.76C152.167 48.48 153.093 48.0467 153.68 47.46C154.267 46.8733 154.56 46.12 154.56 45.2C154.56 44.1733 154.22 43.4067 153.54 42.9C152.873 42.3933 151.853 42.14 150.48 42.14C149.933 42.14 149.333 42.1867 148.68 42.28C148.027 42.36 147.273 42.4867 146.42 42.66C145.58 42.8333 144.6 43.0667 143.48 43.36L143.02 41.1C144.713 40.7 146.18 40.4067 147.42 40.22C148.66 40.02 149.727 39.92 150.62 39.92C152.66 39.92 154.227 40.36 155.32 41.24C156.413 42.12 156.96 43.38 156.96 45.02C156.96 47.1 156.047 48.6733 154.22 49.74C152.407 50.8067 149.713 51.34 146.14 51.34L146 49.16ZM161.74 51.84C162.3 50.04 162.807 48.2133 163.26 46.36C163.727 44.4933 164.133 42.6 164.48 40.68C164.84 38.7467 165.147 36.8 165.4 34.84L167.78 34.94C167.553 36.86 167.26 38.8 166.9 40.76C166.553 42.72 166.147 44.6667 165.68 46.6C165.213 48.52 164.693 50.4067 164.12 52.26L161.74 51.84ZM174.14 51.86C172.927 51.86 171.873 51.7133 170.98 51.42C170.087 51.14 169.393 50.7467 168.9 50.24C168.407 49.72 168.16 49.1 168.16 48.38C168.16 47.8467 168.34 47.32 168.7 46.8C169.06 46.28 169.613 45.74 170.36 45.18L172.16 46.46C171.653 46.78 171.273 47.08 171.02 47.36C170.78 47.6267 170.66 47.8933 170.66 48.16C170.66 48.4667 170.8 48.74 171.08 48.98C171.373 49.2067 171.78 49.3867 172.3 49.52C172.833 49.6533 173.447 49.72 174.14 49.72C174.767 49.72 175.407 49.6867 176.06 49.62C176.713 49.5533 177.393 49.4533 178.1 49.32L178.36 51.46C177.627 51.5933 176.92 51.6933 176.24 51.76C175.56 51.8267 174.86 51.86 174.14 51.86ZM161.46 39.42V37.34H175.54V39.42H161.46ZM168.94 41.68C170.513 41.5333 172.053 41.42 173.56 41.34C175.08 41.26 176.6 41.22 178.12 41.22V43.32C176.627 43.32 175.127 43.36 173.62 43.44C172.127 43.5067 170.613 43.6267 169.08 43.8L168.94 41.68ZM181.08 52.98V39.48H184.56V38.36H180.86V35.94H184.56V34.66H187.66V35.94H191.38V38.36H187.66V39.48H191.14V49.32C191.14 50.1733 191.12 50.84 191.08 51.32C191.053 51.8133 190.987 52.1733 190.88 52.4C190.773 52.64 190.607 52.7867 190.38 52.84C190.153 52.9067 189.847 52.94 189.46 52.94C189.3 52.94 189.053 52.9333 188.72 52.92C188.4 52.9067 188.053 52.8867 187.68 52.86L187.52 50.38C187.747 50.42 187.927 50.4467 188.06 50.46C188.193 50.4733 188.293 50.48 188.36 50.48C188.453 50.48 188.513 50.4733 188.54 50.46C188.58 50.4333 188.607 50.36 188.62 50.24C188.633 50.12 188.64 49.9267 188.64 49.66V42H183.66V52.98H181.08ZM184.94 52.46V49.76H183.36V47.5H184.94V46.64H183.36V44.36H188.94V46.64H187.36V47.5H188.94V49.56H187.16V52.46H184.94ZM184.46 45.28C184.38 44.8 184.287 44.32 184.18 43.84C184.073 43.3467 183.953 42.88 183.82 42.44L185.44 41.98C185.573 42.4467 185.693 42.92 185.8 43.4C185.907 43.8667 186 44.3467 186.08 44.84L184.46 45.28ZM187.42 46.1L185.88 45.34C186.08 44.8467 186.26 44.3067 186.42 43.72C186.593 43.1333 186.74 42.5333 186.86 41.92L188.48 42.5C188.333 43.14 188.167 43.7667 187.98 44.38C187.807 44.9933 187.62 45.5667 187.42 46.1ZM192.14 53.04L190.24 50.54C190.92 49.6867 191.5 48.7 191.98 47.58C192.46 46.4467 192.82 45.1733 193.06 43.76C193.313 42.3467 193.44 40.7933 193.44 39.1V34.86H196.54V39.1C196.54 40.9 196.66 42.5067 196.9 43.92C197.14 45.3333 197.493 46.5867 197.96 47.68C198.44 48.76 199.033 49.7133 199.74 50.54L197.9 53.04C197.313 52.4133 196.767 51.5467 196.26 50.44C195.753 49.32 195.32 48.0533 194.96 46.64C194.613 48 194.193 49.24 193.7 50.36C193.22 51.4667 192.7 52.36 192.14 53.04ZM190.94 41.66V38.9H199.46V41.66H190.94ZM197.74 38.6C197.393 38.0667 197.033 37.5533 196.66 37.06C196.287 36.5667 195.887 36.0733 195.46 35.58L197.36 34.2C197.8 34.7067 198.2 35.1933 198.56 35.66C198.933 36.1133 199.3 36.6067 199.66 37.14L197.74 38.6ZM201.3 39.4V36.72H208.36V34.46H211.64V36.72H218.7V39.4H201.3ZM200.9 52.36V49.6H219.1V52.36H200.9ZM205.58 48.84C205.313 47.5067 205.007 46.1533 204.66 44.78C204.327 43.4067 203.973 42.08 203.6 40.8L206.7 40.1C207.073 41.4067 207.427 42.7667 207.76 44.18C208.107 45.58 208.413 46.96 208.68 48.32L205.58 48.84ZM213.06 50.98L210.16 49.86C210.88 48.4867 211.533 46.96 212.12 45.28C212.707 43.6 213.193 41.86 213.58 40.06L216.84 40.68C216.427 42.56 215.9 44.3867 215.26 46.16C214.62 47.9333 213.887 49.54 213.06 50.98ZM231.28 48.04C231.28 46.56 231.207 45.4133 231.06 44.6C230.927 43.7733 230.687 43.2 230.34 42.88C229.993 42.56 229.5 42.4 228.86 42.4C228.247 42.4 227.66 42.54 227.1 42.82C226.553 43.1 226 43.5533 225.44 44.18C224.88 44.7933 224.28 45.6133 223.64 46.64L220.98 45.12C221.66 44.1333 222.253 43.22 222.76 42.38C223.267 41.54 223.72 40.72 224.12 39.92C224.533 39.1067 224.907 38.2667 225.24 37.4C225.587 36.5333 225.927 35.5867 226.26 34.56L229.48 35.08C229.093 36.2267 228.68 37.2933 228.24 38.28C227.813 39.2533 227.353 40.2 226.86 41.12L226.44 40.86C226.96 40.6067 227.52 40.42 228.12 40.3C228.72 40.1667 229.3 40.1 229.86 40.1C230.967 40.1 231.86 40.3667 232.54 40.9C233.233 41.4333 233.733 42.2867 234.04 43.46C234.36 44.62 234.52 46.1467 234.52 48.04H231.28ZM231.38 52.38C229.3 52.38 227.673 52.0467 226.5 51.38C225.34 50.7267 224.76 49.8067 224.76 48.62C224.76 47.7933 225.047 47 225.62 46.24C226.193 45.48 227.033 44.7733 228.14 44.12C229.26 43.4533 230.62 42.8533 232.22 42.32C233.833 41.7867 235.66 41.3267 237.7 40.94L238.16 43.58C236.587 43.8867 235.173 44.2267 233.92 44.6C232.667 44.9733 231.593 45.3667 230.7 45.78C229.82 46.1933 229.147 46.6133 228.68 47.04C228.213 47.4667 227.98 47.8933 227.98 48.32C227.98 48.7733 228.273 49.12 228.86 49.36C229.447 49.6 230.3 49.72 231.42 49.72C232.18 49.72 233.06 49.6667 234.06 49.56C235.073 49.44 236.233 49.2733 237.54 49.06L237.94 51.76C237.247 51.88 236.5 51.9867 235.7 52.08C234.913 52.1733 234.14 52.2467 233.38 52.3C232.633 52.3533 231.967 52.38 231.38 52.38ZM221.14 39.04V36.46H237.24V39.04H221.14ZM241.6 46.4L240.58 43.72C242.927 43.1333 245.107 42.3867 247.12 41.48C249.133 40.5733 250.933 39.5533 252.52 38.42C254.12 37.2733 255.447 36.0667 256.5 34.8L258.9 36.38C257.74 37.7133 256.307 39.0067 254.6 40.26C252.893 41.5133 250.947 42.6667 248.76 43.72C246.573 44.76 244.187 45.6533 241.6 46.4ZM245.5 50.76L242.32 50.32C242.507 49.76 242.687 49.1267 242.86 48.42C243.047 47.7 243.213 46.98 243.36 46.26C243.52 45.5267 243.64 44.86 243.72 44.26L246.9 44.28C246.82 44.9467 246.707 45.66 246.56 46.42C246.413 47.18 246.247 47.9333 246.06 48.68C245.887 49.4267 245.7 50.12 245.5 50.76ZM253.94 52.86C253.633 52.86 253.207 52.8533 252.66 52.84C252.113 52.8267 251.52 52.8067 250.88 52.78C250.24 52.7667 249.627 52.7533 249.04 52.74L248.86 50.12C249.367 50.1333 249.88 50.1533 250.4 50.18C250.92 50.1933 251.393 50.2067 251.82 50.22C252.247 50.2333 252.56 50.24 252.76 50.24C252.947 50.24 253.093 50.2267 253.2 50.2C253.307 50.1733 253.393 50.1133 253.46 50.02C253.527 49.9133 253.58 49.7467 253.62 49.52C253.673 49.28 253.727 48.9533 253.78 48.54H245.82V46.16H257.48C257.347 47.6933 257.2 48.9067 257.04 49.8C256.893 50.6933 256.693 51.36 256.44 51.8C256.187 52.24 255.86 52.5267 255.46 52.66C255.06 52.7933 254.553 52.86 253.94 52.86ZM246.38 45.58L246.1 43.36C248.633 43.2533 250.933 43.1067 253 42.92C255.067 42.72 256.773 42.5067 258.12 42.28L258.68 44.58C257.293 44.7933 255.54 44.9933 253.42 45.18C251.3 45.3533 248.953 45.4867 246.38 45.58ZM240.66 41.72V39.26H247.1V38.02H242.34V35.66H247.1V34.36H250.36V35.66H254.36V38.02H250.36V39.26H259.34V41.72H240.66ZM263.6 52.32L261.66 49.94L272.54 41.94V42.74H262.52V39.92H276.08V42.74L271 46.64L269.42 46.6C269.447 46 269.627 45.5467 269.96 45.24C270.307 44.92 270.78 44.76 271.38 44.76C272.02 44.76 272.493 44.88 272.8 45.12C273.107 45.3467 273.313 45.64 273.42 46C273.54 46.3467 273.633 46.7067 273.7 47.08C273.753 47.4133 273.827 47.7333 273.92 48.04C274.013 48.3333 274.173 48.5733 274.4 48.76C274.627 48.9467 274.967 49.04 275.42 49.04C275.62 49.04 275.907 49.0267 276.28 49C276.653 48.96 277.047 48.9133 277.46 48.86C277.887 48.7933 278.26 48.7333 278.58 48.68L278.86 51.5C278.407 51.6067 277.953 51.6933 277.5 51.76C277.06 51.8267 276.633 51.8733 276.22 51.9C275.82 51.94 275.453 51.96 275.12 51.96C274.24 51.96 273.533 51.8533 273 51.64C272.467 51.44 272.06 51.1733 271.78 50.84C271.5 50.5067 271.293 50.1533 271.16 49.78C271.04 49.4067 270.947 49.06 270.88 48.74C270.827 48.4733 270.767 48.2533 270.7 48.08C270.647 47.9067 270.573 47.7733 270.48 47.68C270.4 47.5867 270.273 47.54 270.1 47.54C270.02 47.54 269.933 47.56 269.84 47.6C269.76 47.6267 269.633 47.7 269.46 47.82C269.3 47.94 269.047 48.1267 268.7 48.38L263.6 52.32ZM275.66 38.58C274.673 38.58 273.533 38.56 272.24 38.52C270.96 38.4667 269.62 38.4 268.22 38.32C266.833 38.24 265.467 38.1467 264.12 38.04L264.46 35.14C265.833 35.26 267.187 35.3733 268.52 35.48C269.853 35.5733 271.127 35.6467 272.34 35.7C273.553 35.74 274.66 35.76 275.66 35.76V38.58ZM49.6 88.46C47.5733 88.46 45.9933 88.12 44.86 87.44C43.74 86.76 43.18 85.8133 43.18 84.6C43.18 83.56 43.6133 82.7533 44.48 82.18C45.36 81.5933 46.56 81.3 48.08 81.3C49.4533 81.3 50.48 81.5533 51.16 82.06C51.84 82.5533 52.18 83.3 52.18 84.3C52.18 84.66 52.14 85.04 52.06 85.44C51.98 85.84 51.8667 86.2267 51.72 86.6L48.98 86.32C49.1267 85.9467 49.24 85.62 49.32 85.34C49.4 85.0467 49.44 84.8067 49.44 84.62C49.44 83.94 48.9133 83.6 47.86 83.6C47.3133 83.6 46.8933 83.6867 46.6 83.86C46.3067 84.02 46.16 84.26 46.16 84.58C46.16 85.0333 46.4133 85.38 46.92 85.62C47.4267 85.86 48.18 85.98 49.18 85.98C51.1533 85.98 52.5933 85.7067 53.5 85.16C54.42 84.6133 54.88 83.7667 54.88 82.62C54.88 81.6067 54.5067 80.8733 53.76 80.42C53.0267 79.9533 51.82 79.72 50.14 79.72C49.18 79.72 48.34 79.8 47.62 79.96C46.9 80.12 46.2133 80.3667 45.56 80.7L43.08 82.04L41.8 79.56L52.2 74.24V74.66H43V71.94H57.12V74.66L46.86 80.02L45.2 78.56C45.6533 78.4133 46.1733 78.2733 46.76 78.14C47.3467 78.0067 47.9533 77.8867 48.58 77.78C49.2067 77.6733 49.8133 77.5933 50.4 77.54C50.9867 77.4733 51.5067 77.44 51.96 77.44C53.96 77.44 55.5 77.8733 56.58 78.74C57.66 79.5933 58.2 80.82 58.2 82.42C58.2 84.3533 57.4533 85.8467 55.96 86.9C54.4667 87.94 52.3467 88.46 49.6 88.46ZM71.46 85.04C72.1267 84.9467 72.7333 84.7533 73.28 84.46C73.8267 84.1667 74.2933 83.7933 74.68 83.34C75.08 82.8733 75.3867 82.34 75.6 81.74C75.8133 81.1267 75.92 80.4733 75.92 79.78C75.92 78.7667 75.6867 77.8933 75.22 77.16C74.7667 76.4133 74.1267 75.84 73.3 75.44C72.4867 75.04 71.5533 74.84 70.5 74.84C69.5933 74.84 68.74 75 67.94 75.32C67.1533 75.6267 66.46 76.0533 65.86 76.6C65.26 77.1467 64.7867 77.78 64.44 78.5C64.0933 79.22 63.92 79.9933 63.92 80.82C63.92 81.3533 64.0067 81.88 64.18 82.4C64.3533 82.9067 64.5733 83.3333 64.84 83.68C65.12 84.0133 65.4 84.18 65.68 84.18C66.0933 84.18 66.5 83.7333 66.9 82.84C67.3133 81.9333 67.6933 80.6333 68.04 78.94C68.4 77.2333 68.72 75.1933 69 72.82L72.16 73.16C71.8267 75.7733 71.46 77.9867 71.06 79.8C70.6733 81.6133 70.2333 83.08 69.74 84.2C69.2467 85.32 68.68 86.14 68.04 86.66C67.4 87.1667 66.6667 87.42 65.84 87.42C65.1333 87.42 64.48 87.26 63.88 86.94C63.28 86.6067 62.76 86.1467 62.32 85.56C61.88 84.96 61.54 84.26 61.3 83.46C61.06 82.6467 60.94 81.7667 60.94 80.82C60.94 79.5267 61.1733 78.34 61.64 77.26C62.1067 76.1667 62.7667 75.2267 63.62 74.44C64.4733 73.6533 65.4867 73.04 66.66 72.6C67.8333 72.16 69.12 71.94 70.52 71.94C72.1733 71.94 73.64 72.2533 74.92 72.88C76.2133 73.4933 77.2267 74.3867 77.96 75.56C78.6933 76.72 79.06 78.1267 79.06 79.78C79.06 80.86 78.9 81.8667 78.58 82.8C78.2733 83.72 77.8267 84.54 77.24 85.26C76.6533 85.9667 75.9467 86.5467 75.12 87C74.3067 87.44 73.3933 87.7267 72.38 87.86L71.46 85.04ZM80.72 87.48C81.2 86.1467 81.62 84.94 81.98 83.86C82.3533 82.7667 82.68 81.7333 82.96 80.76C83.2533 79.7733 83.5133 78.7867 83.74 77.8C83.98 76.8 84.2067 75.7333 84.42 74.6C84.6333 73.4533 84.86 72.1667 85.1 70.74L88.24 71.08C88.04 72.4267 87.8333 73.68 87.62 74.84C87.4067 75.9867 87.1733 77.0933 86.92 78.16C86.6667 79.2133 86.38 80.2733 86.06 81.34C85.7533 82.4067 85.4067 83.5133 85.02 84.66C84.6333 85.8067 84.1933 87.06 83.7 88.42L80.72 87.48ZM96.66 84.82C96.5667 84.0333 96.4333 83.1867 96.26 82.28C96.1 81.3733 95.9133 80.46 95.7 79.54C95.5 78.62 95.28 77.74 95.04 76.9L98.08 76.1C98.32 76.98 98.5467 77.8867 98.76 78.82C98.9733 79.74 99.1667 80.6667 99.34 81.6C99.5133 82.52 99.6533 83.4067 99.76 84.26L96.66 84.82ZM94.94 75.92C94.6067 75.2133 94.26 74.5733 93.9 74C93.5533 73.4133 93.1667 72.82 92.74 72.22L94.68 71.14C95.12 71.7133 95.5133 72.3067 95.86 72.92C96.2067 73.5333 96.5467 74.2067 96.88 74.94L94.94 75.92ZM97.86 74.84C97.54 74.12 97.2133 73.4667 96.88 72.88C96.56 72.28 96.1933 71.6867 95.78 71.1L97.7 70.1C98.1267 70.7 98.5 71.3067 98.82 71.92C99.1533 72.5333 99.48 73.2133 99.8 73.96L97.86 74.84ZM90.48 87.86C90.12 87.86 89.68 87.82 89.16 87.74C88.64 87.6733 88.1 87.5733 87.54 87.44C86.98 87.3067 86.4467 87.1533 85.94 86.98L86.64 84.32C87.04 84.4267 87.4267 84.5333 87.8 84.64C88.1733 84.7333 88.5133 84.8067 88.82 84.86C89.1267 84.9133 89.3667 84.94 89.54 84.94C89.9 84.94 90.18 84.7933 90.38 84.5C90.5933 84.2067 90.74 83.7 90.82 82.98C90.9133 82.2467 90.96 81.2333 90.96 79.94C90.96 79.26 90.9333 78.7133 90.88 78.3C90.8267 77.8733 90.7333 77.5467 90.6 77.32C90.4667 77.0933 90.2733 76.94 90.02 76.86C89.7667 76.78 89.4267 76.74 89 76.74H80.56V73.92H88.66C89.6733 73.92 90.5133 73.96 91.18 74.04C91.8467 74.12 92.38 74.28 92.78 74.52C93.18 74.7467 93.48 75.1 93.68 75.58C93.8933 76.0467 94.0333 76.6733 94.1 77.46C94.1667 78.2333 94.2 79.2 94.2 80.36C94.2 82.1733 94.0733 83.6333 93.82 84.74C93.58 85.8333 93.1867 86.6267 92.64 87.12C92.1067 87.6133 91.3867 87.86 90.48 87.86ZM108.36 88.94V83.74H101.1V81.14H108.36V80.3H108.34V78.26H111.66V77.12H108.34V75.16H111.66V74.06H108.34V80.3H105.32V71.74H114.68V80.3H111.64V81.14H118.9V83.74H111.64V88.94H108.36ZM101.54 88.72L100.36 86.18C102.147 85.7133 103.687 85.2133 104.98 84.68C106.287 84.1333 107.387 83.5667 108.28 82.98L110.16 84.12C109.173 84.9867 107.96 85.8133 106.52 86.6C105.08 87.3867 103.42 88.0933 101.54 88.72ZM101.22 80.54L100.34 78.04C101.127 77.7733 101.873 77.5067 102.58 77.24C103.287 76.96 103.953 76.68 104.58 76.4L105.48 78.82C104.84 79.1267 104.167 79.4267 103.46 79.72C102.767 80.0133 102.02 80.2867 101.22 80.54ZM118.46 88.72C116.58 88.0933 114.92 87.3867 113.48 86.6C112.04 85.8133 110.827 84.9867 109.84 84.12L111.72 82.98C112.613 83.5667 113.713 84.1333 115.02 84.68C116.327 85.2133 117.867 85.7133 119.64 86.18L118.46 88.72ZM103.76 76C103.333 75.6133 102.84 75.1867 102.28 74.72C101.72 74.24 101.107 73.7667 100.44 73.3L102.14 71.26C102.78 71.7267 103.387 72.2 103.96 72.68C104.533 73.16 105.033 73.5933 105.46 73.98L103.76 76ZM110.74 73.58L107.48 73.38C107.627 72.9 107.767 72.4067 107.9 71.9C108.047 71.3933 108.173 70.8467 108.28 70.26L111.54 70.44C111.433 71.0267 111.307 71.58 111.16 72.1C111.027 72.6067 110.887 73.1 110.74 73.58ZM118.62 80.54C117.953 80.22 117.267 79.92 116.56 79.64C115.853 79.3467 115.12 79.0733 114.36 78.82L115.42 76.4C116.22 76.6533 116.973 76.9133 117.68 77.18C118.387 77.4467 119.053 77.7333 119.68 78.04L118.62 80.54ZM116.24 75.92L114.46 73.98C115.02 73.5667 115.587 73.1267 116.16 72.66C116.733 72.18 117.273 71.7133 117.78 71.26L119.56 73.2C119.133 73.6267 118.633 74.0733 118.06 74.54C117.487 74.9933 116.88 75.4533 116.24 75.92ZM129.62 88.14C128.007 88.14 126.693 87.8933 125.68 87.4C124.667 86.92 123.92 86.1667 123.44 85.14C122.973 84.1 122.74 82.7667 122.74 81.14V71.6H126.06V81.14C126.06 82.54 126.333 83.5467 126.88 84.16C127.427 84.76 128.34 85.06 129.62 85.06C130.58 85.06 131.427 84.88 132.16 84.52C132.893 84.16 133.567 83.5667 134.18 82.74C134.807 81.9133 135.427 80.7933 136.04 79.38L138.96 80.64C138.4 82.0267 137.813 83.2 137.2 84.16C136.6 85.1067 135.933 85.8733 135.2 86.46C134.467 87.0467 133.64 87.4733 132.72 87.74C131.813 88.0067 130.78 88.14 129.62 88.14ZM154.72 89.1C153.933 88.5667 153.2 88.0733 152.52 87.62C151.853 87.18 151.193 86.76 150.54 86.36C149.9 85.9467 149.227 85.5267 148.52 85.1C147.813 84.6733 147.027 84.2 146.16 83.68C145.253 83.1333 144.52 82.68 143.96 82.32C143.413 81.96 142.993 81.6467 142.7 81.38C142.42 81.1 142.233 80.8267 142.14 80.56C142.047 80.28 142 79.96 142 79.6C142 79.2267 142.053 78.9 142.16 78.62C142.267 78.3267 142.467 78.0467 142.76 77.78C143.053 77.5 143.473 77.1933 144.02 76.86C144.58 76.5133 145.3 76.1 146.18 75.62C147.047 75.1533 147.953 74.6533 148.9 74.12C149.847 73.5733 150.78 73.0267 151.7 72.48C152.62 71.92 153.453 71.3933 154.2 70.9L155.96 73.54C155.507 73.82 154.987 74.1333 154.4 74.48C153.813 74.8133 153.2 75.16 152.56 75.52C151.933 75.88 151.313 76.2267 150.7 76.56C150.1 76.88 149.56 77.1733 149.08 77.44C148.613 77.6933 148.24 77.8933 147.96 78.04C147.373 78.3467 146.913 78.5933 146.58 78.78C146.26 78.9667 146.04 79.12 145.92 79.24C145.8 79.36 145.74 79.48 145.74 79.6C145.74 79.7333 145.78 79.8533 145.86 79.96C145.94 80.0533 146.127 80.1867 146.42 80.36C146.713 80.5333 147.167 80.8 147.78 81.16C148.087 81.32 148.5 81.5533 149.02 81.86C149.553 82.1533 150.147 82.4933 150.8 82.88C151.467 83.2667 152.14 83.6667 152.82 84.08C153.513 84.4933 154.18 84.9067 154.82 85.32C155.473 85.7333 156.053 86.1133 156.56 86.46L154.72 89.1ZM170.36 88.28C168.813 88.28 167.6 87.9067 166.72 87.16C165.853 86.4267 165.42 85.4067 165.42 84.1C165.42 82.78 165.86 81.7533 166.74 81.02C167.633 80.2867 168.867 79.92 170.44 79.92C171.067 79.92 171.707 80.0333 172.36 80.26C173.027 80.4733 173.713 80.8067 174.42 81.26C175.14 81.7 175.887 82.26 176.66 82.94C177.433 83.62 178.24 84.4267 179.08 85.36L177.14 87.5C176.073 86.4067 175.193 85.5267 174.5 84.86C173.807 84.1933 173.227 83.6867 172.76 83.34C172.307 82.9933 171.9 82.7667 171.54 82.66C171.193 82.54 170.827 82.48 170.44 82.48C169.76 82.48 169.26 82.6 168.94 82.84C168.633 83.08 168.48 83.4733 168.48 84.02C168.48 84.5667 168.633 84.9733 168.94 85.24C169.26 85.5067 169.733 85.64 170.36 85.64C171.053 85.64 171.567 85.4933 171.9 85.2C172.233 84.9067 172.4 84.4733 172.4 83.9V73.34C173.613 73.34 174.753 73.36 175.82 73.4C176.9 73.4267 177.953 73.4733 178.98 73.54L178.8 76.36C177.907 76.2933 176.953 76.2467 175.94 76.22C174.94 76.18 173.913 76.16 172.86 76.16L175.56 74.12V83.56C175.56 85.1467 175.127 86.3267 174.26 87.1C173.393 87.8867 172.093 88.28 170.36 88.28ZM160.78 85.1C161.313 83.5533 161.807 82.0067 162.26 80.46C162.713 78.9 163.133 77.3067 163.52 75.68C163.92 74.0533 164.287 72.3733 164.62 70.64L167.68 70.9C167.36 72.6867 167 74.4333 166.6 76.14C166.2 77.8467 165.767 79.52 165.3 81.16C164.833 82.7867 164.32 84.3867 163.76 85.96L160.78 85.1ZM160.66 76.16V73.34H170.94V76.16H160.66ZM185.84 84.68C187.813 84.68 189.393 84.5667 190.58 84.34C191.767 84.1 192.62 83.7267 193.14 83.22C193.673 82.7133 193.94 82.0467 193.94 81.22C193.94 80.34 193.66 79.7 193.1 79.3C192.553 78.9 191.673 78.7 190.46 78.7C189.927 78.7 189.34 78.7467 188.7 78.84C188.06 78.92 187.313 79.0467 186.46 79.22C185.62 79.38 184.62 79.6067 183.46 79.9L182.88 76.94C184.64 76.5533 186.153 76.2667 187.42 76.08C188.687 75.8933 189.767 75.8 190.66 75.8C192.767 75.8 194.367 76.24 195.46 77.12C196.553 78 197.1 79.28 197.1 80.96C197.1 83.12 196.167 84.7533 194.3 85.86C192.447 86.9667 189.693 87.52 186.04 87.52L185.84 84.68ZM201.58 87.84C202.113 86.0533 202.593 84.24 203.02 82.4C203.46 80.56 203.847 78.68 204.18 76.76C204.527 74.8267 204.833 72.8467 205.1 70.82L208.34 70.96C208.113 72.92 207.827 74.8867 207.48 76.86C207.147 78.82 206.76 80.7667 206.32 82.7C205.88 84.62 205.387 86.52 204.84 88.4L201.58 87.84ZM214.3 88.06C213.007 88.06 211.893 87.9067 210.96 87.6C210.04 87.3067 209.327 86.8867 208.82 86.34C208.313 85.78 208.06 85.1133 208.06 84.34C208.06 83.8067 208.22 83.2933 208.54 82.8C208.86 82.2933 209.353 81.78 210.02 81.26L212.78 82.42C212.353 82.7 212.027 82.98 211.8 83.26C211.573 83.5267 211.46 83.7733 211.46 84C211.46 84.24 211.573 84.4467 211.8 84.62C212.04 84.7933 212.373 84.9267 212.8 85.02C213.227 85.1133 213.727 85.16 214.3 85.16C214.913 85.16 215.527 85.1267 216.14 85.06C216.767 84.9933 217.44 84.8933 218.16 84.76L218.5 87.66C217.74 87.8067 217.033 87.9067 216.38 87.96C215.74 88.0267 215.047 88.06 214.3 88.06ZM201.3 75.94V73.14H215.7V75.94H201.3ZM208.98 77.58C210.567 77.4333 212.127 77.3267 213.66 77.26C215.207 77.18 216.747 77.14 218.28 77.14V79.96C216.773 79.96 215.26 80 213.74 80.08C212.233 80.1467 210.707 80.2533 209.16 80.4L208.98 77.58Z" fill="#282828"/>
<path opacity="0.6" d="M42.814 115.432H46.734C47.238 115.432 47.476 115.74 47.476 116.16C47.476 116.58 47.238 116.874 46.734 116.874H41.568C41.064 116.874 40.742 116.496 40.742 115.978C40.742 115.572 40.882 115.278 41.176 115.026C42.296 114.032 43.234 113.178 44.326 111.904C45.194 110.882 45.572 110.154 45.572 109.342C45.572 108.292 45.026 107.76 44.144 107.76C43.57 107.76 42.94 108.012 42.268 108.67C42.1 108.824 41.932 108.908 41.736 108.908C41.26 108.908 40.924 108.572 40.924 108.124C40.924 107.9 40.994 107.76 41.204 107.55C41.946 106.822 43.08 106.318 44.13 106.318C46.132 106.318 47.252 107.522 47.252 109.314C47.252 110.602 46.804 111.47 45.544 112.8C44.382 114.018 43.696 114.634 42.814 115.432ZM52.4152 106.318C54.5432 106.318 55.9572 107.83 55.9572 111.708C55.9572 115.586 54.5432 117.098 52.4152 117.098C50.2872 117.098 48.9012 115.586 48.9012 111.708C48.9012 107.83 50.2872 106.318 52.4152 106.318ZM52.4152 107.718C51.2532 107.718 50.5532 108.698 50.5532 111.708C50.5532 114.718 51.2532 115.698 52.4152 115.698C53.5912 115.698 54.3052 114.718 54.3052 111.708C54.3052 108.698 53.5912 107.718 52.4152 107.718ZM59.0903 117.7V111.092C58.8523 111.456 58.6003 111.806 58.3483 112.114C58.1663 112.338 57.9423 112.436 57.7323 112.436C57.3263 112.436 56.9483 112.1 56.9483 111.694C56.9483 111.526 57.0043 111.358 57.1443 111.176C58.2503 109.804 59.2723 107.69 59.8323 105.814C59.9443 105.45 60.2523 105.282 60.5743 105.282C60.9943 105.282 61.4143 105.548 61.4143 105.996C61.4143 106.066 61.4003 106.15 61.3723 106.234C61.0643 107.284 60.5603 108.46 59.9863 109.552C60.3223 109.594 60.6163 109.79 60.6163 110.154V117.7C60.6163 118.078 60.2383 118.274 59.8603 118.274C59.4683 118.274 59.0903 118.078 59.0903 117.7ZM65.2503 109.258L69.1003 108.922H69.1563C69.5343 108.922 69.7303 109.286 69.7303 109.65C69.7303 109.972 69.5763 110.28 69.2263 110.308L65.4323 110.644C65.6283 111.848 65.9223 112.954 66.3283 113.92C67.1123 115.782 67.7563 116.244 68.1763 116.244C68.3583 116.244 68.5263 116.062 68.6243 115.152C68.6663 114.718 68.9883 114.522 69.3243 114.522C69.7023 114.522 70.1083 114.788 70.1083 115.264V115.362C69.9123 117.308 69.1843 117.896 68.2463 117.896C67.0143 117.896 65.8243 116.72 64.8303 114.34C64.3963 113.29 64.0743 112.1 63.8643 110.77L61.8203 110.952H61.7643C61.3863 110.952 61.1903 110.588 61.1903 110.238C61.1903 109.916 61.3583 109.608 61.6943 109.58L63.6963 109.398C63.5843 108.306 63.5283 107.13 63.5283 105.898C63.5283 105.464 63.9203 105.254 64.3123 105.254C64.7043 105.254 65.0963 105.464 65.0963 105.898C65.0963 107.088 65.1383 108.208 65.2503 109.258ZM66.9023 106.192C67.2803 106.472 67.6303 106.766 67.9243 107.06C68.0923 107.242 68.1763 107.438 68.1763 107.606C68.1763 108.012 67.8123 108.362 67.4203 108.362C67.2523 108.362 67.0703 108.278 66.9163 108.11C66.6223 107.774 66.3143 107.48 65.9643 107.2C65.7963 107.06 65.7123 106.892 65.7123 106.724C65.7123 106.374 66.0483 106.024 66.4403 106.024C66.5943 106.024 66.7483 106.08 66.9023 106.192ZM71.3683 117.42L82.9043 105.156C83.0303 105.03 83.1703 104.932 83.2963 104.932C83.6603 104.932 83.9683 105.226 83.9683 105.506C83.9683 105.66 83.9123 105.8 83.7723 105.94L72.2363 118.204C72.1103 118.33 71.9703 118.428 71.8443 118.428C71.4803 118.428 71.1723 118.134 71.1723 117.854C71.1723 117.7 71.2283 117.56 71.3683 117.42ZM94.6223 111.512H88.6583C87.2863 111.512 86.7963 111.036 86.7963 110V107.284C86.7963 106.262 87.2863 105.786 88.6583 105.786H94.6223C96.0083 105.786 96.4983 106.262 96.4983 107.284V110C96.4983 111.274 95.7563 111.512 94.6223 111.512ZM88.8403 110.336H90.8143V109.216H88.2803V109.874C88.2803 110.21 88.3923 110.336 88.8403 110.336ZM88.2803 108.096H90.8143V106.962H88.8403C88.3783 106.962 88.2803 107.088 88.2803 107.41V108.096ZM92.2703 106.962V108.096H95.0143V107.424C95.0143 107.088 94.9163 106.962 94.4543 106.962H92.2703ZM95.0143 109.216H92.2703V110.336H94.4543C94.9163 110.336 95.0143 110.21 95.0143 109.874V109.216ZM91.9903 112.982L95.1823 112.968C96.4143 112.968 96.8483 113.346 96.8483 114.144C96.8483 114.788 96.7363 115.712 96.5403 116.496C96.2463 117.686 95.6023 118.092 94.3983 118.092C93.9923 118.092 93.6563 118.064 93.2783 118.008C92.8723 117.938 92.6903 117.63 92.6903 117.308C92.6903 116.958 92.9143 116.622 93.3483 116.622H93.4463C93.7543 116.664 93.9783 116.692 94.2723 116.692C94.7063 116.692 94.9303 116.58 95.0283 116.174C95.1683 115.614 95.2943 114.788 95.2943 114.48C95.2943 114.256 95.1823 114.2 94.8743 114.2L91.5563 114.228C90.6463 116.174 88.8543 117.504 86.4183 118.19C86.3343 118.218 86.2503 118.232 86.1803 118.232C85.7463 118.232 85.4803 117.868 85.4803 117.518C85.4803 117.238 85.6343 116.972 86.0123 116.86C87.8743 116.3 89.1483 115.502 89.9183 114.228L86.3203 114.256C85.9563 114.256 85.7603 113.948 85.7603 113.626C85.7603 113.318 85.9563 113.01 86.3203 113.01L90.4503 112.996C90.5203 112.758 90.5763 112.506 90.6183 112.254C90.6743 111.904 90.9963 111.736 91.3183 111.736C91.7103 111.736 92.1163 111.96 92.1163 112.366C92.1163 112.394 92.1163 112.45 92.1023 112.492C92.0743 112.66 92.0323 112.814 91.9903 112.982ZM107.18 116.356V113.584H105.052C104.702 113.584 104.534 113.234 104.534 112.898C104.534 112.548 104.702 112.212 105.052 112.212H107.18V109.874H105.57C105.402 110.252 105.22 110.616 105.038 110.952C104.856 111.288 104.562 111.428 104.296 111.428C103.932 111.428 103.596 111.176 103.596 110.784C103.596 110.644 103.638 110.49 103.736 110.322C104.282 109.384 104.716 108.236 104.996 106.976C105.08 106.598 105.388 106.416 105.682 106.416C106.046 106.416 106.41 106.668 106.41 107.088C106.41 107.144 106.41 107.186 106.396 107.242C106.312 107.676 106.2 108.11 106.06 108.53H107.18V105.87C107.18 105.45 107.558 105.24 107.936 105.24C108.314 105.24 108.692 105.45 108.692 105.87V108.53H111.254C111.618 108.53 111.8 108.866 111.8 109.202C111.8 109.538 111.618 109.874 111.254 109.874H108.692V112.212H110.75C111.1 112.212 111.282 112.548 111.282 112.898C111.282 113.234 111.1 113.584 110.75 113.584H108.692V116.356H111.548C111.898 116.356 112.08 116.692 112.08 117.042C112.08 117.378 111.898 117.728 111.548 117.728H103.834C103.498 117.728 103.316 117.378 103.316 117.042C103.316 116.692 103.498 116.356 103.834 116.356H107.18ZM102.294 105.772V117.616C102.294 118.036 101.916 118.246 101.538 118.246C101.146 118.246 100.768 118.036 100.768 117.616V105.772C100.768 105.352 101.146 105.156 101.538 105.156C101.916 105.156 102.294 105.352 102.294 105.772ZM99.4523 108.558C99.4943 108.236 99.7463 108.082 99.9983 108.082C100.292 108.082 100.572 108.278 100.572 108.628V108.698C100.516 109.328 100.362 110.168 100.18 110.77C100.082 111.078 99.8443 111.218 99.6063 111.218C99.3123 111.218 99.0323 111.008 99.0323 110.686C99.0323 110.63 99.0323 110.56 99.0603 110.49C99.2423 109.902 99.3823 109.104 99.4523 108.558ZM103.512 108.012C103.652 108.432 103.778 108.936 103.834 109.314V109.412C103.834 109.79 103.526 110.014 103.246 110.014C103.008 110.014 102.784 109.874 102.728 109.552C102.658 109.132 102.56 108.6 102.462 108.264C102.448 108.208 102.434 108.138 102.434 108.082C102.434 107.788 102.7 107.606 102.966 107.606C103.19 107.606 103.414 107.732 103.512 108.012Z" fill="#282828"/>
<path d="M257.177 188L239.177 146L208 146L257.177 188Z" fill="#69BD83"/>
</svg>
