<svg width="325" height="230" viewBox="0 0 325 230" fill="none" xmlns="http://www.w3.org/2000/svg">
<rect width="325" height="188" rx="80" fill="#FFF464"/>
<path d="M42.848 44.472V36.648H40.624V35.112H42.864V30.008H44.592V35.112H46.592V36.648H44.608V44.472H42.848ZM41.152 42.776L40.272 40.984C40.9227 40.12 41.456 39.24 41.872 38.344C42.2987 37.448 42.624 36.504 42.848 35.512L43.696 35.976C43.5893 36.8507 43.4187 37.704 43.184 38.536C42.9493 39.3573 42.656 40.1307 42.304 40.856C41.9627 41.5707 41.5787 42.2107 41.152 42.776ZM45.616 40.952C45.2533 40.1307 44.8853 39.3147 44.512 38.504C44.1493 37.6827 43.7707 36.8453 43.376 35.992L44.512 35.416C44.9067 36.1627 45.296 36.9147 45.68 37.672C46.064 38.4187 46.4427 39.176 46.816 39.944L45.616 40.952ZM41.376 34.776C41.2373 34.1467 41.088 33.512 40.928 32.872C40.7787 32.232 40.6293 31.6453 40.48 31.112L41.936 30.728C42.0853 31.2613 42.2347 31.848 42.384 32.488C42.5333 33.1173 42.6613 33.752 42.768 34.392L41.376 34.776ZM46.384 42.152L46.224 40.52L55.568 38.776L55.728 40.408L46.384 42.152ZM49.952 39.016C49.4933 38.504 48.9973 37.976 48.464 37.432C47.9307 36.8773 47.3653 36.3227 46.768 35.768L48.032 34.568C48.6293 35.112 49.2 35.656 49.744 36.2C50.288 36.744 50.784 37.272 51.232 37.784L49.952 39.016ZM46.064 34.792L44.656 34.344C44.848 33.768 45.0187 33.1547 45.168 32.504C45.328 31.8427 45.4507 31.224 45.536 30.648L47.04 30.872C46.9333 31.4907 46.7947 32.1467 46.624 32.84C46.4533 33.5227 46.2667 34.1733 46.064 34.792ZM52.32 44.472V30.008H54.192V44.472H52.32ZM50.832 34.952C50.4053 34.472 49.952 33.9867 49.472 33.496C49.0027 33.0053 48.496 32.5093 47.952 32.008L49.232 30.824C49.776 31.3147 50.288 31.8053 50.768 32.296C51.248 32.776 51.7013 33.2507 52.128 33.72L50.832 34.952ZM61.328 44.008V42.456H65.984V40.856H62.272V39.4H65.984V34.776H64.08V33.464H65.984V31.816H67.888V33.464H69.792V31.816H64.08V37.928H62.32V30.312H71.552V37.928H64.08V36.504H69.792V34.776H67.888V39.4H71.792V40.856H67.888V42.456H72.016V44.008H61.328ZM57.344 43.048L57.168 41.416C57.648 41.2987 58.1493 41.1707 58.672 41.032C59.2053 40.8827 59.7333 40.7227 60.256 40.552C60.7893 40.3707 61.3067 40.1893 61.808 40.008L61.856 41.592C61.376 41.784 60.8747 41.9707 60.352 42.152C59.8293 42.3333 59.312 42.4987 58.8 42.648C58.288 42.7973 57.8027 42.9307 57.344 43.048ZM58.608 41.368V37.096H57.408V35.448H58.608V32.488H57.248V30.808H61.824V32.488H60.432V35.448H61.728V37.096H60.432V41.368H58.608ZM83.152 43.752C82.2027 43.752 81.408 43.688 80.768 43.56C80.128 43.4427 79.6267 43.24 79.264 42.952C78.9013 42.6533 78.64 42.2533 78.48 41.752C78.3307 41.24 78.256 40.5947 78.256 39.816C78.256 39.5707 78.2613 39.1973 78.272 38.696C78.2827 38.184 78.2987 37.5867 78.32 36.904C78.3413 36.2213 78.3627 35.496 78.384 34.728C78.416 33.9493 78.448 33.1653 78.48 32.376C78.512 31.5867 78.544 30.8293 78.576 30.104L80.48 30.152C80.448 30.792 80.416 31.48 80.384 32.216C80.352 32.952 80.32 33.688 80.288 34.424C80.2667 35.16 80.2453 35.8587 80.224 36.52C80.2027 37.1813 80.1867 37.7733 80.176 38.296C80.1653 38.808 80.16 39.208 80.16 39.496C80.16 40.04 80.1973 40.4773 80.272 40.808C80.3467 41.1387 80.4907 41.3947 80.704 41.576C80.9173 41.7573 81.2213 41.88 81.616 41.944C82.0213 42.008 82.5333 42.04 83.152 42.04C83.9947 42.04 84.656 41.9867 85.136 41.88C85.6267 41.7627 85.968 41.576 86.16 41.32C86.3627 41.0533 86.464 40.696 86.464 40.248C86.464 40.056 86.4427 39.8267 86.4 39.56C86.3573 39.2933 86.3093 39.0693 86.256 38.888L88.112 38.488C88.208 38.872 88.272 39.2027 88.304 39.48C88.3467 39.7573 88.368 40.0347 88.368 40.312C88.368 41.112 88.1867 41.768 87.824 42.28C87.4613 42.792 86.896 43.1653 86.128 43.4C85.36 43.6347 84.368 43.752 83.152 43.752ZM74.288 37.832V36.216H86.976V37.832H74.288ZM74.608 33.656V32.04H86.656V33.656H74.608ZM95.024 43.976V42.328H99.248V35.576H94.736V33.88H99.248V30.136H101.216V33.88H105.184V35.576H101.216V42.328H104.816V43.976H95.024ZM91.936 44.472V33.8H93.792V44.472H91.936ZM90.768 39.144L90.112 36.936C90.5813 36.296 90.992 35.624 91.344 34.92C91.7067 34.2053 92.0213 33.4427 92.288 32.632C92.5653 31.8107 92.8 30.9147 92.992 29.944L94.752 30.264C94.5813 31.3093 94.3467 32.296 94.048 33.224C93.7493 34.1413 93.4027 34.9733 93.008 35.72L92.928 35.352C92.8213 35.6613 92.6827 35.992 92.512 36.344C92.352 36.6853 92.1707 37.032 91.968 37.384C91.776 37.7253 91.5733 38.0507 91.36 38.36C91.1467 38.6587 90.9493 38.92 90.768 39.144ZM113.104 44.408C112.901 44.408 112.624 44.4027 112.272 44.392C111.92 44.3813 111.403 44.36 110.72 44.328L110.688 42.856C111.232 42.8773 111.68 42.8987 112.032 42.92C112.395 42.9307 112.677 42.936 112.88 42.936C113.104 42.936 113.259 42.9307 113.344 42.92C113.429 42.8987 113.477 42.8613 113.488 42.808C113.509 42.744 113.52 42.6427 113.52 42.504V32.184H107.408V30.76H113.52V29.768H115.6V30.76H121.712V32.184H115.6V42.328C115.6 42.7973 115.573 43.1707 115.52 43.448C115.467 43.736 115.36 43.9493 115.2 44.088C115.04 44.2267 114.789 44.312 114.448 44.344C114.117 44.3867 113.669 44.408 113.104 44.408ZM119.008 42.856V42.088H107.856V40.808H119.008V40.04H107.248V38.648H119.008V37.912H107.856V36.6H120.88V38.648H121.872V40.04H120.88V42.856H119.008ZM108.432 35.992V32.792H120.688V35.992H110.32V34.856H118.8V34.024H110.32V35.992H108.432ZM133.968 40.216C133.733 40.216 133.477 40.2107 133.2 40.2C132.933 40.1787 132.661 40.1573 132.384 40.136V38.456C132.619 38.4667 132.848 38.4827 133.072 38.504C133.307 38.5147 133.52 38.52 133.712 38.52C134.747 38.52 135.493 38.3333 135.952 37.96C136.421 37.576 136.656 36.9733 136.656 36.152C136.656 34.7867 136.032 34.104 134.784 34.104C134.581 34.104 134.336 34.1307 134.048 34.184C133.771 34.2267 133.424 34.3013 133.008 34.408C132.603 34.5147 132.085 34.6747 131.456 34.888L124.048 37.304L123.488 35.608L130.912 33.192C131.541 32.9787 132.085 32.8133 132.544 32.696C133.013 32.568 133.435 32.4773 133.808 32.424C134.181 32.36 134.539 32.328 134.88 32.328C136.075 32.328 136.992 32.648 137.632 33.288C138.272 33.928 138.592 34.856 138.592 36.072C138.592 37.416 138.197 38.4453 137.408 39.16C136.629 39.864 135.483 40.216 133.968 40.216ZM129.184 44.184C128.821 42.7013 128.432 41.2187 128.016 39.736C127.611 38.2427 127.195 36.7813 126.768 35.352C126.352 33.912 125.931 32.5253 125.504 31.192L127.296 30.696C127.733 32.04 128.165 33.4373 128.592 34.888C129.019 36.328 129.435 37.8 129.84 39.304C130.256 40.7973 130.656 42.2907 131.04 43.784L129.184 44.184ZM132.128 37.32C131.904 36.4667 131.621 35.4747 131.28 34.344C130.949 33.2027 130.571 31.9653 130.144 30.632L131.952 30.152C132.187 30.8453 132.416 31.576 132.64 32.344C132.875 33.1013 133.099 33.864 133.312 34.632C133.536 35.4 133.733 36.1307 133.904 36.824L132.128 37.32ZM145.376 41.832L143.92 40.568C144.101 40.1733 144.256 39.7733 144.384 39.368C144.512 38.952 144.613 38.4613 144.688 37.896C144.763 37.32 144.816 36.6107 144.848 35.768C144.88 34.9253 144.896 33.8853 144.896 32.648H143.872V31.096H145.712V29.784H147.552V31.096H149.632V32.648H146.64C146.64 33.7893 146.624 34.776 146.592 35.608C146.571 36.4293 146.533 37.1493 146.48 37.768C146.427 38.376 146.352 38.9147 146.256 39.384C146.16 39.8427 146.037 40.264 145.888 40.648C145.749 41.032 145.579 41.4267 145.376 41.832ZM141.072 44.472L140.208 42.936C140.805 42.5413 141.349 42.1413 141.84 41.736C142.341 41.32 142.805 40.8773 143.232 40.408L144.256 41.688C143.84 42.1893 143.371 42.664 142.848 43.112C142.336 43.56 141.744 44.0133 141.072 44.472ZM142.096 41.592V37.544H140.432V35.944H143.904V41.592H142.096ZM150.256 44.216C149.147 44.216 148.187 44.184 147.376 44.12C146.565 44.056 145.877 43.9493 145.312 43.8C144.747 43.6613 144.277 43.4693 143.904 43.224C143.531 42.9787 143.221 42.68 142.976 42.328C142.741 41.976 142.539 41.56 142.368 41.08L143.904 40.968C144.053 41.2347 144.219 41.464 144.4 41.656C144.581 41.8373 144.816 41.992 145.104 42.12C145.403 42.248 145.771 42.3493 146.208 42.424C146.645 42.4987 147.195 42.552 147.856 42.584C148.517 42.616 149.317 42.632 150.256 42.632H155.216L155.104 44.216H150.256ZM147.968 41.992C147.819 41.992 147.584 41.976 147.264 41.944C146.955 41.9013 146.613 41.8587 146.24 41.816L146.176 40.264C146.4 40.3067 146.592 40.3387 146.752 40.36C146.912 40.3707 147.04 40.376 147.136 40.376C147.232 40.376 147.312 40.3333 147.376 40.248C147.451 40.152 147.504 39.9493 147.536 39.64C147.579 39.32 147.605 38.8347 147.616 38.184C147.637 37.5333 147.648 36.6533 147.648 35.544H145.76V33.96H149.424C149.424 35.24 149.413 36.3333 149.392 37.24C149.381 38.136 149.355 38.8773 149.312 39.464C149.28 40.0507 149.227 40.52 149.152 40.872C149.077 41.2133 148.987 41.464 148.88 41.624C148.773 41.7733 148.645 41.8747 148.496 41.928C148.347 41.9707 148.171 41.992 147.968 41.992ZM143.248 34.392C142.789 33.8907 142.331 33.4 141.872 32.92C141.424 32.4293 140.965 31.9547 140.496 31.496L141.776 30.376C142.235 30.8347 142.688 31.3093 143.136 31.8C143.595 32.28 144.043 32.776 144.48 33.288L143.248 34.392ZM152.064 41.896C151.872 41.896 151.611 41.8907 151.28 41.88C150.949 41.8587 150.581 41.8373 150.176 41.816L150.08 40.264C150.347 40.2853 150.608 40.3067 150.864 40.328C151.12 40.3387 151.317 40.344 151.456 40.344C151.584 40.344 151.675 40.3333 151.728 40.312C151.792 40.2907 151.829 40.2267 151.84 40.12C151.861 40.0133 151.872 39.832 151.872 39.576V38.472H149.808V36.888H151.872V35.816H153.696V36.888H155.104V38.472H153.696V39.752C153.696 40.2533 153.68 40.6533 153.648 40.952C153.627 41.24 153.568 41.4533 153.472 41.592C153.376 41.72 153.216 41.8053 152.992 41.848C152.768 41.88 152.459 41.896 152.064 41.896ZM153.088 37.352L151.936 36.328C152.288 35.976 152.608 35.6187 152.896 35.256C153.195 34.8933 153.477 34.4827 153.744 34.024L154.912 34.968C154.635 35.4373 154.352 35.864 154.064 36.248C153.776 36.6213 153.451 36.9893 153.088 37.352ZM150.256 34.968V33.448H154.912V34.968H150.256ZM150.096 34.152L148.672 33.208C149.131 32.7173 149.552 32.168 149.936 31.56C150.331 30.9413 150.661 30.296 150.928 29.624L152.608 30.008C152.309 30.7867 151.947 31.5333 151.52 32.248C151.104 32.952 150.629 33.5867 150.096 34.152ZM151.12 32.472V30.888H154.992V32.472H151.12ZM163.264 44.104C162.187 44.104 161.259 43.9013 160.48 43.496C159.701 43.1013 159.099 42.536 158.672 41.8C158.256 41.064 158.048 40.1893 158.048 39.176C158.048 38.3867 158.187 37.6133 158.464 36.856C158.741 36.0987 159.141 35.384 159.664 34.712C160.187 34.0293 160.816 33.416 161.552 32.872L161.888 33.224H157.2V31.608H163.392V33.32C162.699 33.7573 162.091 34.2907 161.568 34.92C161.056 35.5493 160.656 36.2267 160.368 36.952C160.091 37.6773 159.952 38.4133 159.952 39.16C159.952 40.216 160.24 41.032 160.816 41.608C161.403 42.184 162.219 42.472 163.264 42.472C164.416 42.472 165.312 42.1253 165.952 41.432C166.592 40.728 166.912 39.7307 166.912 38.44C166.912 37.8747 166.853 37.2667 166.736 36.616C166.629 35.9547 166.469 35.2667 166.256 34.552C166.043 33.8373 165.787 33.1173 165.488 32.392L166.8 31.288C167.248 31.7893 167.755 32.3067 168.32 32.84C168.885 33.3627 169.467 33.8747 170.064 34.376C170.672 34.8773 171.264 35.336 171.84 35.752L170.88 37.224C170.56 36.9893 170.219 36.7227 169.856 36.424C169.504 36.1253 169.125 35.7893 168.72 35.416C168.315 35.032 167.861 34.5947 167.36 34.104L167.52 33.768C167.797 34.3653 168.027 34.9627 168.208 35.56C168.389 36.1467 168.523 36.712 168.608 37.256C168.704 37.8 168.752 38.328 168.752 38.84C168.752 39.9173 168.528 40.8507 168.08 41.64C167.643 42.4293 167.013 43.0373 166.192 43.464C165.381 43.8907 164.405 44.104 163.264 44.104ZM168.608 33.544C168.523 32.9467 168.411 32.3867 168.272 31.864C168.133 31.3413 167.963 30.8133 167.76 30.28L169.264 29.88C169.456 30.424 169.621 30.968 169.76 31.512C169.909 32.0453 170.032 32.6267 170.128 33.256L168.608 33.544ZM170.912 33.368C170.827 32.7493 170.72 32.1787 170.592 31.656C170.475 31.1333 170.315 30.6053 170.112 30.072L171.6 29.72C171.803 30.2533 171.968 30.792 172.096 31.336C172.224 31.88 172.325 32.4667 172.4 33.096L170.912 33.368ZM181.136 43.864C179.141 43.864 177.627 43.5547 176.592 42.936C175.557 42.3067 175.04 41.3893 175.04 40.184C175.04 39.1707 175.419 38.248 176.176 37.416C176.933 36.5733 178.112 35.7947 179.712 35.08C181.323 34.3653 183.392 33.688 185.92 33.048L186.368 34.76C184.224 35.304 182.459 35.8587 181.072 36.424C179.696 36.9893 178.677 37.5707 178.016 38.168C177.365 38.7547 177.04 39.384 177.04 40.056C177.04 41.4427 178.443 42.136 181.248 42.136C181.707 42.136 182.187 42.1147 182.688 42.072C183.189 42.0293 183.749 41.9707 184.368 41.896C184.997 41.8107 185.712 41.704 186.512 41.576L186.736 43.304C185.723 43.4747 184.741 43.608 183.792 43.704C182.853 43.8107 181.968 43.864 181.136 43.864ZM178.096 36.712C177.787 35.6667 177.525 34.6427 177.312 33.64C177.099 32.6267 176.928 31.624 176.8 30.632L178.736 30.344C178.875 31.336 179.051 32.328 179.264 33.32C179.477 34.3013 179.733 35.2773 180.032 36.248L178.096 36.712ZM191.008 44.296V30.312H204.512V41.768C204.512 42.3227 204.485 42.7653 204.432 43.096C204.389 43.4267 204.293 43.672 204.144 43.832C203.995 43.992 203.771 44.0933 203.472 44.136C203.173 44.1893 202.773 44.216 202.272 44.216C202.005 44.216 201.653 44.2107 201.216 44.2C200.779 44.1893 200.235 44.1733 199.584 44.152L199.504 42.504C200.133 42.5253 200.635 42.5467 201.008 42.568C201.381 42.5787 201.653 42.584 201.824 42.584C202.08 42.584 202.261 42.5733 202.368 42.552C202.485 42.52 202.555 42.4507 202.576 42.344C202.608 42.2373 202.624 42.056 202.624 41.8V31.896H192.896V44.296H191.008ZM194.416 43.176V36.312H201.104V41.896H196.176V40.488H199.344V37.704H196.176V43.176H194.416ZM193.792 34.808V33.304H201.728V34.808H193.792ZM213.952 43.832C212.736 43.832 211.739 43.64 210.96 43.256C210.192 42.8827 209.621 42.3013 209.248 41.512C208.885 40.7227 208.704 39.7093 208.704 38.472V30.68H210.656V38.472C210.656 39.72 210.917 40.6267 211.44 41.192C211.963 41.7467 212.8 42.024 213.952 42.024C214.795 42.024 215.536 41.8693 216.176 41.56C216.827 41.2507 217.413 40.7493 217.936 40.056C218.469 39.352 218.981 38.4187 219.472 37.256L221.248 37.976C220.821 39.0427 220.363 39.9493 219.872 40.696C219.392 41.432 218.864 42.0347 218.288 42.504C217.723 42.9627 217.083 43.2987 216.368 43.512C215.653 43.7253 214.848 43.832 213.952 43.832ZM216.624 34.712C216.379 34.1573 216.112 33.6347 215.824 33.144C215.547 32.6533 215.227 32.1467 214.864 31.624L216.256 30.856C216.619 31.3787 216.944 31.896 217.232 32.408C217.52 32.9093 217.792 33.4427 218.048 34.008L216.624 34.712ZM219.056 33.8C218.821 33.2453 218.565 32.7173 218.288 32.216C218.021 31.7147 217.712 31.2027 217.36 30.68L218.752 29.96C219.104 30.4827 219.419 31 219.696 31.512C219.984 32.024 220.245 32.5733 220.48 33.16L219.056 33.8ZM233.472 43.752C232.181 43.752 231.056 43.5227 230.096 43.064C229.147 42.616 228.411 41.9813 227.888 41.16C227.365 40.328 227.104 39.352 227.104 38.232C227.104 37.3573 227.259 36.5467 227.568 35.8C227.888 35.0533 228.336 34.4027 228.912 33.848C229.499 33.2827 230.192 32.8507 230.992 32.552L231.152 33.048L223.536 33.224V31.512L237.024 31.192V32.904L234.992 32.952C234.139 32.9733 233.349 33.112 232.624 33.368C231.909 33.6133 231.291 33.96 230.768 34.408C230.256 34.856 229.856 35.3893 229.568 36.008C229.28 36.616 229.136 37.2933 229.136 38.04C229.136 38.8507 229.312 39.5547 229.664 40.152C230.016 40.7387 230.512 41.192 231.152 41.512C231.803 41.832 232.581 41.992 233.488 41.992C233.68 41.992 233.893 41.9867 234.128 41.976C234.373 41.9547 234.619 41.9333 234.864 41.912C235.12 41.88 235.344 41.848 235.536 41.816L235.744 43.576C235.52 43.608 235.275 43.6347 235.008 43.656C234.741 43.688 234.475 43.7093 234.208 43.72C233.941 43.7413 233.696 43.752 233.472 43.752ZM235.104 38.76C234.859 38.216 234.592 37.6987 234.304 37.208C234.027 36.7067 233.707 36.1947 233.344 35.672L234.736 34.904C235.099 35.4267 235.424 35.944 235.712 36.456C236 36.9573 236.272 37.4907 236.528 38.056L235.104 38.76ZM237.536 37.848C237.301 37.2933 237.045 36.7707 236.768 36.28C236.501 35.7787 236.192 35.2667 235.84 34.744L237.232 34.008C237.584 34.5413 237.899 35.064 238.176 35.576C238.464 36.088 238.725 36.632 238.96 37.208L237.536 37.848ZM249.44 44.392V40.232H245.824V38.776H249.44V37.72H251.28V38.776H255.2V40.232H251.28V44.392H249.44ZM241.312 43.688L239.968 43.448C240.107 42.7227 240.224 41.9867 240.32 41.24C240.427 40.4933 240.501 39.7467 240.544 39L241.888 39.112C241.845 39.88 241.771 40.648 241.664 41.416C241.568 42.184 241.451 42.9413 241.312 43.688ZM242.192 44.472V37.736H243.968V44.472H242.192ZM244.576 42.456C244.565 42.2213 244.539 41.9067 244.496 41.512C244.453 41.1067 244.405 40.6853 244.352 40.248C244.309 39.8 244.261 39.4 244.208 39.048L245.488 38.872C245.552 39.224 245.611 39.624 245.664 40.072C245.717 40.5093 245.765 40.9307 245.808 41.336C245.851 41.7413 245.877 42.0667 245.888 42.312L244.576 42.456ZM240.192 38.36L240.128 36.808L245.488 36.488V37.992L240.192 38.36ZM245.76 44.152L244.96 42.68C245.696 42.36 246.373 42.008 246.992 41.624C247.611 41.24 248.176 40.84 248.688 40.424C249.2 39.9973 249.637 39.56 250 39.112L251.168 39.608C250.741 40.1947 250.24 40.7707 249.664 41.336C249.099 41.8907 248.485 42.408 247.824 42.888C247.163 43.368 246.475 43.7893 245.76 44.152ZM242.032 36.344C241.851 36.0347 241.637 35.6987 241.392 35.336C241.147 34.9733 240.896 34.6053 240.64 34.232C240.395 33.8587 240.165 33.512 239.952 33.192L240.816 31.624C241.168 32.1253 241.525 32.664 241.888 33.24C242.261 33.816 242.587 34.328 242.864 34.776L242.032 36.344ZM242.272 37.992L241.056 37.16C241.664 36.2533 242.24 35.3413 242.784 34.424C243.339 33.496 243.861 32.5413 244.352 31.56L245.712 32.248C245.189 33.2507 244.645 34.2267 244.08 35.176C243.525 36.1147 242.923 37.0533 242.272 37.992ZM244.992 38.696C244.917 38.2693 244.827 37.8267 244.72 37.368C244.613 36.8987 244.501 36.44 244.384 35.992C244.267 35.5333 244.149 35.1173 244.032 34.744L245.312 34.392C245.429 34.776 245.547 35.2027 245.664 35.672C245.781 36.1307 245.893 36.5947 246 37.064C246.107 37.5333 246.197 37.9867 246.272 38.424L244.992 38.696ZM242.24 34.104L241.024 33.24C241.323 32.6853 241.595 32.1253 241.84 31.56C242.085 30.9947 242.32 30.424 242.544 29.848L244.016 30.424C243.749 31.0533 243.467 31.6773 243.168 32.296C242.869 32.904 242.56 33.5067 242.24 34.104ZM254.656 44.152C253.749 43.64 252.843 42.9627 251.936 42.12C251.029 41.2773 250.208 40.3333 249.472 39.288L250.576 38.84C250.96 39.32 251.408 39.7947 251.92 40.264C252.432 40.7333 252.987 41.176 253.584 41.592C254.192 41.9973 254.821 42.3653 255.472 42.696L254.656 44.152ZM246.016 38.072V34.344H250.16V38.072H247.552V36.728H248.672V35.72H247.552V38.072H246.016ZM250.688 38.072V34.344H254.912V38.072H252.112V36.728H253.328V35.72H252.112V38.072H250.688ZM246.528 33.864V30.184H254.272V33.864H248.256V32.536H252.464V31.672H248.256V33.864H246.528ZM259.728 42.04C261.787 42.04 263.445 41.864 264.704 41.512C265.973 41.16 266.891 40.5893 267.456 39.8C268.032 39 268.32 37.9707 268.32 36.712C268.32 35.432 268.048 34.4773 267.504 33.848C266.971 33.208 266.149 32.888 265.04 32.888C264.421 32.888 263.84 32.9893 263.296 33.192C262.763 33.3947 262.293 33.6827 261.888 34.056C261.483 34.4293 261.157 34.872 260.912 35.384C260.677 35.896 260.56 36.4613 260.56 37.08V39.176H258.704V30.76H260.56V34.168H259.84C260.224 33.5067 260.677 32.9467 261.2 32.488C261.733 32.0293 262.336 31.6827 263.008 31.448C263.691 31.2027 264.432 31.08 265.232 31.08C266.864 31.08 268.112 31.5653 268.976 32.536C269.851 33.496 270.288 34.888 270.288 36.712C270.288 38.3547 269.915 39.6987 269.168 40.744C268.432 41.7893 267.296 42.5573 265.76 43.048C264.224 43.5493 262.245 43.8 259.824 43.8L259.728 42.04ZM45.76 70.432L44.176 69.344C44.4 68.96 44.592 68.56 44.752 68.144C44.912 67.728 45.04 67.2693 45.136 66.768C45.232 66.2667 45.3013 65.712 45.344 65.104C45.3973 64.496 45.424 63.808 45.424 63.04V59.472H54.736V61.008H47.296V64.112C47.296 64.9653 47.232 65.7813 47.104 66.56C46.976 67.328 46.8 68.0373 46.576 68.688C46.3627 69.3387 46.0907 69.92 45.76 70.432ZM41.408 73.472L40.544 71.936C41.152 71.5413 41.7013 71.1413 42.192 70.736C42.6933 70.32 43.152 69.8773 43.568 69.408L44.624 70.688C44.1973 71.1893 43.7227 71.664 43.2 72.112C42.688 72.56 42.0907 73.0133 41.408 73.472ZM42.624 70.512V66.544H40.768V64.944H44.448V70.512H42.624ZM50.736 73.216C49.6373 73.216 48.6827 73.184 47.872 73.12C47.0613 73.056 46.3733 72.9493 45.808 72.8C45.2533 72.6613 44.7893 72.4693 44.416 72.224C44.0427 71.9787 43.7333 71.68 43.488 71.328C43.2533 70.976 43.0507 70.56 42.88 70.08L44.432 69.968C44.5813 70.224 44.752 70.448 44.944 70.64C45.136 70.832 45.3707 70.992 45.648 71.12C45.936 71.2373 46.304 71.3333 46.752 71.408C47.2 71.4827 47.7493 71.536 48.4 71.568C49.0613 71.6 49.8613 71.616 50.8 71.616H55.216L55.104 73.216H50.736ZM43.728 63.392C43.28 62.8907 42.8267 62.4 42.368 61.92C41.92 61.4293 41.4613 60.9547 40.992 60.496L42.272 59.376C42.7307 59.8347 43.184 60.3093 43.632 60.8C44.0907 61.28 44.5387 61.776 44.976 62.288L43.728 63.392ZM47.248 71.168L46.304 69.68C47.8933 69.1147 49.2107 68.2987 50.256 67.232C51.312 66.1547 52.0587 64.88 52.496 63.408L54.176 63.936C53.8773 64.8427 53.5147 65.664 53.088 66.4C52.672 67.136 52.1867 67.792 51.632 68.368C51.0773 68.944 50.4373 69.4613 49.712 69.92C48.9867 70.3787 48.1653 70.7947 47.248 71.168ZM54.288 71.168C52.6773 70.6027 51.2907 69.8027 50.128 68.768C48.976 67.7227 48.0853 66.4533 47.456 64.96L49.008 64.144C49.552 65.4347 50.336 66.5493 51.36 67.488C52.384 68.416 53.632 69.1467 55.104 69.68L54.288 71.168ZM46.864 63.936V62.448H54.176V63.936H46.864ZM60.704 71.328C61.664 71.2853 62.5227 71.1253 63.28 70.848C64.0373 70.56 64.6347 70.192 65.072 69.744C65.52 69.296 65.744 68.8053 65.744 68.272V67.904L66.544 68.112C66.4267 68.3253 66.2667 68.5227 66.064 68.704C65.8613 68.8853 65.6213 69.0453 65.344 69.184C65.0773 69.312 64.7787 69.4133 64.448 69.488C64.128 69.5627 63.7973 69.6 63.456 69.6C62.752 69.6 62.144 69.4667 61.632 69.2C61.12 68.9227 60.72 68.5387 60.432 68.048C60.1547 67.5573 60.016 66.9813 60.016 66.32C60.016 65.648 60.1653 65.0667 60.464 64.576C60.7627 64.0853 61.1787 63.7067 61.712 63.44C62.256 63.1627 62.8907 63.024 63.616 63.024C64.2133 63.024 64.7307 63.1253 65.168 63.328C65.6053 63.5307 66.0373 63.8347 66.464 64.24L65.328 64.56V58.912H67.248V66.176L67.104 65.344C67.3067 65.664 67.4453 65.9947 67.52 66.336C67.6053 66.6667 67.648 67.04 67.648 67.456C67.648 68.5333 67.3813 69.4773 66.848 70.288C66.3147 71.0987 65.552 71.7333 64.56 72.192C63.568 72.6613 62.3787 72.9333 60.992 73.008L60.704 71.328ZM63.776 68.032C64.0533 68.032 64.2987 67.9947 64.512 67.92C64.736 67.8347 64.928 67.7173 65.088 67.568C65.248 67.4187 65.3707 67.2373 65.456 67.024C65.5413 66.8107 65.584 66.576 65.584 66.32C65.584 65.776 65.4187 65.3493 65.088 65.04C64.768 64.7307 64.3307 64.576 63.776 64.576C63.232 64.576 62.7893 64.7307 62.448 65.04C62.1173 65.3493 61.952 65.776 61.952 66.32C61.952 66.832 62.1173 67.248 62.448 67.568C62.7787 67.8773 63.2213 68.032 63.776 68.032ZM57.584 62.304V60.768H71.696V62.304H57.584ZM82.048 72.656C80.896 72.656 80.0053 72.4107 79.376 71.92C78.7573 71.4293 78.448 70.736 78.448 69.84C78.448 68.944 78.7573 68.2667 79.376 67.808C80.0053 67.3387 80.896 67.104 82.048 67.104C82.592 67.104 83.0987 67.1627 83.568 67.28C84.0373 67.3973 84.512 67.5947 84.992 67.872C85.4827 68.1493 86.016 68.5387 86.592 69.04C87.1787 69.5307 87.8453 70.1493 88.592 70.896L87.424 72.064C86.752 71.392 86.16 70.832 85.648 70.384C85.136 69.936 84.672 69.584 84.256 69.328C83.8507 69.072 83.4613 68.8907 83.088 68.784C82.7253 68.6773 82.3467 68.624 81.952 68.624C80.8107 68.624 80.24 69.0293 80.24 69.84C80.24 70.6293 80.784 71.024 81.872 71.024C82.512 71.024 82.9653 70.8853 83.232 70.608C83.4987 70.32 83.632 69.8453 83.632 69.184V61.696H78.576V60.08H88.192V61.696H85.44V69.28C85.44 70.4213 85.1627 71.2693 84.608 71.824C84.064 72.3787 83.2107 72.656 82.048 72.656ZM78.576 65.28V63.696H88.192V65.28H78.576ZM75.504 72.88C75.248 71.7813 75.056 70.6987 74.928 69.632C74.8 68.5653 74.736 67.4347 74.736 66.24C74.736 65.056 74.8 63.936 74.928 62.88C75.056 61.8133 75.248 60.7307 75.504 59.632L77.376 59.872C77.12 60.9067 76.9333 61.9467 76.816 62.992C76.6987 64.0267 76.64 65.1093 76.64 66.24C76.64 67.3707 76.6987 68.4587 76.816 69.504C76.9333 70.5493 77.12 71.5787 77.376 72.592L75.504 72.88ZM97.52 73.024C95.5253 73.024 94.0107 72.7467 92.976 72.192C91.9413 71.648 91.424 70.7733 91.424 69.568C91.424 68.6187 91.792 67.7547 92.528 66.976C93.2747 66.1867 94.4267 65.4613 95.984 64.8C97.552 64.1387 99.5733 63.5093 102.048 62.912L102.496 64.608C100.416 65.12 98.704 65.6267 97.36 66.128C96.0267 66.6293 95.0347 67.152 94.384 67.696C93.744 68.2293 93.424 68.7947 93.424 69.392C93.424 70.0747 93.7707 70.5653 94.464 70.864C95.168 71.152 96.224 71.296 97.632 71.296C98.0907 71.296 98.5707 71.28 99.072 71.248C99.5733 71.2053 100.133 71.1467 100.752 71.072C101.381 70.9973 102.096 70.9013 102.896 70.784L103.136 72.496C102.112 72.6667 101.125 72.7947 100.176 72.88C99.2373 72.976 98.352 73.024 97.52 73.024ZM94.48 65.872C94.1707 64.8267 93.9093 63.8027 93.696 62.8C93.4827 61.7867 93.312 60.784 93.184 59.792L95.12 59.504C95.2587 60.496 95.4347 61.488 95.648 62.48C95.8613 63.4613 96.1173 64.4373 96.416 65.408L94.48 65.872ZM101.088 62.736C100.811 62.16 100.539 61.6427 100.272 61.184C100.005 60.7147 99.7067 60.2613 99.376 59.824L100.688 59.04C101.029 59.4987 101.333 59.9733 101.6 60.464C101.877 60.9547 102.155 61.488 102.432 62.064L101.088 62.736ZM103.376 61.984C103.131 61.3867 102.875 60.8587 102.608 60.4C102.352 59.9307 102.069 59.4773 101.76 59.04L103.056 58.32C103.397 58.7893 103.701 59.2693 103.968 59.76C104.235 60.2507 104.491 60.7893 104.736 61.376L103.376 61.984ZM117.568 73.328C117.312 73.328 116.944 73.3173 116.464 73.296C115.984 73.2853 115.413 73.2693 114.752 73.248L114.656 71.664C115.275 71.6853 115.808 71.7067 116.256 71.728C116.715 71.7387 117.045 71.744 117.248 71.744C117.557 71.744 117.781 71.7333 117.92 71.712C118.059 71.6907 118.144 71.616 118.176 71.488C118.208 71.36 118.224 71.1573 118.224 70.88V66.304H111.024V65.04H118.224V64.016H111.024V62.752H118.224V61.76H111.024V68.256H109.104V60.256H120.144V70.8C120.144 71.376 120.117 71.8347 120.064 72.176C120.021 72.5173 119.915 72.768 119.744 72.928C119.573 73.0987 119.312 73.2053 118.96 73.248C118.619 73.3013 118.155 73.328 117.568 73.328ZM107.472 69.248L107.408 67.632C109.883 67.5467 112.16 67.4453 114.24 67.328C116.331 67.2 118.096 67.0613 119.536 66.912L119.616 68.256C118.176 68.4587 116.411 68.6453 114.32 68.816C112.229 68.9867 109.947 69.1307 107.472 69.248ZM108.016 73.424L107.408 71.872C109.435 71.392 111.323 70.7947 113.072 70.08C114.821 69.3653 116.395 68.5653 117.792 67.68C119.2 66.7947 120.389 65.856 121.36 64.864L122.24 66.144C121.504 66.8693 120.635 67.584 119.632 68.288C118.629 68.9813 117.515 69.648 116.288 70.288C115.061 70.9173 113.749 71.4987 112.352 72.032C110.965 72.5653 109.52 73.0293 108.016 73.424ZM114.56 61.488L112.624 61.28C112.805 60.864 112.971 60.432 113.12 59.984C113.269 59.536 113.408 59.0667 113.536 58.576L115.488 58.768C115.36 59.2693 115.216 59.744 115.056 60.192C114.907 60.64 114.741 61.072 114.56 61.488ZM133.792 72.176C132.832 72.176 131.973 72.0427 131.216 71.776C130.469 71.5093 129.883 71.1413 129.456 70.672C129.04 70.192 128.832 69.648 128.832 69.04C128.832 67.952 129.541 66.832 130.96 65.68L132.336 66.72C131.771 67.1787 131.355 67.5787 131.088 67.92C130.832 68.2613 130.704 68.5867 130.704 68.896C130.704 69.216 130.832 69.4933 131.088 69.728C131.344 69.9627 131.701 70.144 132.16 70.272C132.619 70.4 133.163 70.464 133.792 70.464C134.325 70.464 134.923 70.4267 135.584 70.352C136.256 70.2667 136.933 70.1547 137.616 70.016L137.872 71.696C137.179 71.8453 136.48 71.9627 135.776 72.048C135.083 72.1333 134.421 72.176 133.792 72.176ZM129.568 62.496V60.768H137.776V62.496H129.568ZM125.712 72.88C125.435 71.7813 125.232 70.6987 125.104 69.632C124.976 68.5653 124.912 67.4347 124.912 66.24C124.912 65.056 124.976 63.936 125.104 62.88C125.232 61.8133 125.435 60.7307 125.712 59.632L127.616 59.872C127.36 60.9067 127.168 61.9467 127.04 62.992C126.923 64.0267 126.864 65.1093 126.864 66.24C126.864 67.3707 126.923 68.4587 127.04 69.504C127.168 70.5493 127.36 71.5787 127.616 72.592L125.712 72.88ZM143.856 70.368C145.947 70.368 147.648 70.2187 148.96 69.92C150.272 69.6107 151.232 69.1413 151.84 68.512C152.459 67.872 152.768 67.0453 152.768 66.032C152.768 64.9013 152.395 64.048 151.648 63.472C150.901 62.896 149.787 62.608 148.304 62.608C147.749 62.608 147.141 62.6507 146.48 62.736C145.819 62.8213 145.061 62.9547 144.208 63.136C143.365 63.3173 142.379 63.5573 141.248 63.856L140.848 61.952C142.555 61.536 144.021 61.2373 145.248 61.056C146.485 60.864 147.552 60.768 148.448 60.768C149.813 60.768 150.971 60.9653 151.92 61.36C152.869 61.744 153.589 62.3147 154.08 63.072C154.571 63.8293 154.816 64.7573 154.816 65.856C154.816 67.936 153.904 69.5093 152.08 70.576C150.256 71.6427 147.557 72.176 143.984 72.176L143.856 70.368ZM165.216 72.848C163.915 72.848 162.784 72.72 161.824 72.464C160.875 72.208 160.144 71.8507 159.632 71.392C159.12 70.9227 158.864 70.368 158.864 69.728C158.864 69.1733 159.051 68.656 159.424 68.176C159.797 67.696 160.32 67.3013 160.992 66.992L162.256 68.112C161.776 68.3467 161.429 68.5813 161.216 68.816C161.003 69.04 160.901 69.2907 160.912 69.568C160.923 69.92 161.088 70.2187 161.408 70.464C161.728 70.6987 162.197 70.88 162.816 71.008C163.445 71.136 164.203 71.2 165.088 71.2C165.867 71.2 166.683 71.1467 167.536 71.04C168.4 70.9333 169.205 70.7947 169.952 70.624L170.224 72.288C169.456 72.4693 168.64 72.608 167.776 72.704C166.912 72.8 166.059 72.848 165.216 72.848ZM158.128 66.144V64.576L170.832 64.256V65.824L158.128 66.144ZM166.768 69.456C166.416 68.6347 166.101 67.8027 165.824 66.96C165.547 66.1173 165.307 65.2693 165.104 64.416C164.912 63.552 164.752 62.672 164.624 61.776C164.496 60.8693 164.405 59.9467 164.352 59.008L166.256 58.896C166.309 59.8027 166.395 60.6827 166.512 61.536C166.64 62.3893 166.8 63.2267 166.992 64.048C167.184 64.8693 167.419 65.696 167.696 66.528C167.984 67.3493 168.315 68.1813 168.688 69.024L166.768 69.456ZM158.288 62.608V61.04L170.672 60.72V62.288L158.288 62.608ZM174.864 73.424L173.488 71.824C173.637 71.4933 173.765 71.152 173.872 70.8C173.989 70.448 174.091 70.0693 174.176 69.664C174.261 69.2587 174.325 68.8107 174.368 68.32C174.421 67.8293 174.459 67.2747 174.48 66.656C174.512 66.0267 174.528 65.3173 174.528 64.528V60.24H180.464V58.624H182.416V60.24H188.048V61.84H176.384V65.872C176.384 66.704 176.352 67.4827 176.288 68.208C176.224 68.9227 176.128 69.5947 176 70.224C175.883 70.8427 175.728 71.4187 175.536 71.952C175.344 72.4747 175.12 72.9653 174.864 73.424ZM177.584 72.48L175.936 71.776C176.213 71.0187 176.475 70.1333 176.72 69.12C176.976 68.096 177.195 66.9867 177.376 65.792L179.072 66.128C178.976 66.9067 178.848 67.6853 178.688 68.464C178.539 69.2427 178.368 69.9787 178.176 70.672C177.995 71.3547 177.797 71.9573 177.584 72.48ZM182.528 73.296C181.845 73.296 181.301 73.2747 180.896 73.232C180.501 73.2 180.208 73.12 180.016 72.992C179.835 72.8747 179.712 72.6933 179.648 72.448C179.595 72.2027 179.568 71.8667 179.568 71.44V64.496H181.504V71.024C181.504 71.1733 181.509 71.2907 181.52 71.376C181.531 71.4613 181.568 71.5253 181.632 71.568C181.707 71.6 181.819 71.6213 181.968 71.632C182.128 71.632 182.347 71.632 182.624 71.632C182.901 71.632 183.131 71.6267 183.312 71.616C183.504 71.5947 183.648 71.5413 183.744 71.456C183.851 71.36 183.931 71.216 183.984 71.024C184.037 70.8213 184.075 70.544 184.096 70.192C184.117 69.8293 184.133 69.3653 184.144 68.8L185.936 68.992C185.904 69.824 185.861 70.5067 185.808 71.04C185.765 71.5733 185.685 71.9893 185.568 72.288C185.451 72.5973 185.269 72.8213 185.024 72.96C184.789 73.1093 184.469 73.2 184.064 73.232C183.659 73.2747 183.147 73.296 182.528 73.296ZM186.944 72.288C186.731 71.1573 186.475 70.0533 186.176 68.976C185.877 67.888 185.547 66.8907 185.184 65.984L186.928 65.44C187.291 66.3573 187.627 67.36 187.936 68.448C188.245 69.536 188.512 70.6507 188.736 71.792L186.944 72.288ZM185.088 65.04C184.213 64.6773 183.301 64.3627 182.352 64.096C181.403 63.8187 180.363 63.5733 179.232 63.36L179.744 61.872C180.725 62.0107 181.701 62.2133 182.672 62.48C183.643 62.736 184.656 63.0773 185.712 63.504L185.088 65.04ZM191.728 73.552L190.176 72.288C190.475 71.8613 190.725 71.424 190.928 70.976C191.141 70.528 191.307 70.0373 191.424 69.504C191.552 68.9707 191.643 68.3573 191.696 67.664C191.76 66.9707 191.792 66.16 191.792 65.232V59.312H204.384V70.96C204.384 71.5253 204.357 71.9733 204.304 72.304C204.261 72.6347 204.16 72.88 204 73.04C203.851 73.2 203.621 73.3013 203.312 73.344C203.003 73.3973 202.581 73.424 202.048 73.424C201.845 73.424 201.568 73.4133 201.216 73.392C200.875 73.3813 200.443 73.3653 199.92 73.344L199.824 71.76C200.315 71.7813 200.715 71.8027 201.024 71.824C201.344 71.8453 201.573 71.856 201.712 71.856C201.957 71.856 202.133 71.84 202.24 71.808C202.357 71.776 202.432 71.7067 202.464 71.6C202.496 71.4827 202.512 71.3013 202.512 71.056V68.656H192.992V67.184H202.512V64.672H193.68V63.2H202.512V60.88H198.8V73.072H196.976V60.88H193.68V66.016C193.68 67.2427 193.611 68.304 193.472 69.2C193.344 70.0853 193.136 70.8747 192.848 71.568C192.56 72.2507 192.187 72.912 191.728 73.552ZM216.832 72.752C215.541 72.752 214.416 72.5227 213.456 72.064C212.507 71.616 211.771 70.9813 211.248 70.16C210.725 69.328 210.464 68.352 210.464 67.232C210.464 66.3573 210.619 65.5467 210.928 64.8C211.248 64.0533 211.696 63.4027 212.272 62.848C212.859 62.2827 213.552 61.8507 214.352 61.552L214.512 62.048L206.896 62.224V60.512L220.384 60.192V61.904L218.352 61.952C217.499 61.9733 216.709 62.112 215.984 62.368C215.269 62.6133 214.651 62.96 214.128 63.408C213.616 63.856 213.216 64.3893 212.928 65.008C212.64 65.616 212.496 66.2933 212.496 67.04C212.496 67.8507 212.672 68.5547 213.024 69.152C213.376 69.7387 213.872 70.192 214.512 70.512C215.163 70.832 215.941 70.992 216.848 70.992C217.04 70.992 217.253 70.9867 217.488 70.976C217.733 70.9547 217.979 70.9333 218.224 70.912C218.48 70.88 218.704 70.848 218.896 70.816L219.104 72.576C218.88 72.608 218.635 72.6347 218.368 72.656C218.101 72.688 217.835 72.7093 217.568 72.72C217.301 72.7413 217.056 72.752 216.832 72.752ZM218.464 67.76C218.219 67.216 217.952 66.6987 217.664 66.208C217.387 65.7067 217.067 65.1947 216.704 64.672L218.096 63.904C218.459 64.4267 218.784 64.944 219.072 65.456C219.36 65.9573 219.632 66.4907 219.888 67.056L218.464 67.76ZM220.896 66.848C220.661 66.2933 220.405 65.7707 220.128 65.28C219.861 64.7787 219.552 64.2667 219.2 63.744L220.592 63.008C220.944 63.5413 221.259 64.064 221.536 64.576C221.824 65.088 222.085 65.632 222.32 66.208L220.896 66.848ZM231.776 72.848C230.475 72.848 229.344 72.72 228.384 72.464C227.435 72.208 226.704 71.8507 226.192 71.392C225.68 70.9227 225.424 70.368 225.424 69.728C225.424 69.1733 225.611 68.656 225.984 68.176C226.357 67.696 226.88 67.3013 227.552 66.992L228.816 68.112C228.336 68.3467 227.989 68.5813 227.776 68.816C227.563 69.04 227.461 69.2907 227.472 69.568C227.483 69.92 227.648 70.2187 227.968 70.464C228.288 70.6987 228.757 70.88 229.376 71.008C230.005 71.136 230.763 71.2 231.648 71.2C232.427 71.2 233.243 71.1467 234.096 71.04C234.96 70.9333 235.765 70.7947 236.512 70.624L236.784 72.288C236.016 72.4693 235.2 72.608 234.336 72.704C233.472 72.8 232.619 72.848 231.776 72.848ZM224.688 66.144V64.576L237.392 64.256V65.824L224.688 66.144ZM233.328 69.456C232.976 68.6347 232.661 67.8027 232.384 66.96C232.107 66.1173 231.867 65.2693 231.664 64.416C231.472 63.552 231.312 62.672 231.184 61.776C231.056 60.8693 230.965 59.9467 230.912 59.008L232.816 58.896C232.869 59.8027 232.955 60.6827 233.072 61.536C233.2 62.3893 233.36 63.2267 233.552 64.048C233.744 64.8693 233.979 65.696 234.256 66.528C234.544 67.3493 234.875 68.1813 235.248 69.024L233.328 69.456ZM224.848 62.608V61.04L237.232 60.72V62.288L224.848 62.608ZM247.312 73.008C245.733 73.008 244.507 72.752 243.632 72.24C242.768 71.728 242.336 71.008 242.336 70.08C242.336 69.2907 242.661 68.6773 243.312 68.24C243.973 67.792 244.88 67.568 246.032 67.568C247.12 67.568 247.936 67.7707 248.48 68.176C249.024 68.5707 249.296 69.168 249.296 69.968C249.296 70.256 249.253 70.5653 249.168 70.896C249.093 71.2267 248.981 71.568 248.832 71.92L247.072 71.728C247.221 71.3653 247.328 71.056 247.392 70.8C247.467 70.544 247.504 70.32 247.504 70.128C247.504 69.4027 246.971 69.04 245.904 69.04C245.36 69.04 244.933 69.1307 244.624 69.312C244.325 69.4827 244.176 69.7333 244.176 70.064C244.176 70.512 244.437 70.8693 244.96 71.136C245.483 71.392 246.192 71.52 247.088 71.52C248.805 71.52 250.08 71.2693 250.912 70.768C251.755 70.256 252.176 69.4773 252.176 68.432C252.176 67.5467 251.845 66.896 251.184 66.48C250.533 66.064 249.493 65.856 248.064 65.856C247.243 65.856 246.517 65.9307 245.888 66.08C245.259 66.2187 244.677 66.4373 244.144 66.736L242.032 67.952L241.264 66.48L250.352 61.424V61.728H242.208V60.112H253.152V61.728L245.344 66.032L244.352 65.216C244.683 65.0987 245.051 64.992 245.456 64.896C245.872 64.7893 246.293 64.704 246.72 64.64C247.157 64.5653 247.579 64.5067 247.984 64.464C248.389 64.4107 248.757 64.384 249.088 64.384C250.709 64.384 251.952 64.7253 252.816 65.408C253.68 66.0907 254.112 67.0613 254.112 68.32C254.112 69.824 253.52 70.9813 252.336 71.792C251.163 72.6027 249.488 73.008 247.312 73.008ZM264.336 72.864C262.341 72.864 260.827 72.5547 259.792 71.936C258.757 71.3067 258.24 70.3893 258.24 69.184C258.24 68.1707 258.619 67.248 259.376 66.416C260.133 65.5733 261.312 64.7947 262.912 64.08C264.523 63.3653 266.592 62.688 269.12 62.048L269.568 63.76C267.424 64.304 265.659 64.8587 264.272 65.424C262.896 65.9893 261.877 66.5707 261.216 67.168C260.565 67.7547 260.24 68.384 260.24 69.056C260.24 70.4427 261.643 71.136 264.448 71.136C264.907 71.136 265.387 71.1147 265.888 71.072C266.389 71.0293 266.949 70.9707 267.568 70.896C268.197 70.8107 268.912 70.704 269.712 70.576L269.936 72.304C268.923 72.4747 267.941 72.608 266.992 72.704C266.053 72.8107 265.168 72.864 264.336 72.864ZM261.296 65.712C260.987 64.6667 260.725 63.6427 260.512 62.64C260.299 61.6267 260.128 60.624 260 59.632L261.936 59.344C262.075 60.336 262.251 61.328 262.464 62.32C262.677 63.3013 262.933 64.2773 263.232 65.248L261.296 65.712ZM47.024 97.048C47.024 96.9947 47.024 96.9467 47.024 96.904C47.024 96.8613 47.024 96.8187 47.024 96.776V95.512H42.448V94.104H47.024V93.08H42.288V91.608H47.024V90.264H48.976V91.608H53.712V93.08H48.976V94.104H53.552V95.512H48.976V96.776C48.976 96.8187 48.976 96.8613 48.976 96.904C48.976 96.9467 48.976 96.9947 48.976 97.048H47.024ZM41.552 102.328L40.912 100.664C41.9787 100.493 42.896 100.28 43.664 100.024C44.4427 99.7573 45.0827 99.4533 45.584 99.112C46.0853 98.7707 46.4533 98.408 46.688 98.024H49.296C49.5307 98.408 49.8987 98.7707 50.4 99.112C50.912 99.4533 51.552 99.7573 52.32 100.024C53.0987 100.28 54.0213 100.493 55.088 100.664L54.448 102.328C53.4773 102.157 52.5813 101.907 51.76 101.576C50.9493 101.245 50.2347 100.867 49.616 100.44C48.9973 100.003 48.4907 99.5493 48.096 99.08C47.7013 99.5493 47.184 100.003 46.544 100.44C45.904 100.867 45.1627 101.245 44.32 101.576C43.4773 101.907 42.5547 102.157 41.552 102.328ZM40.896 98.152V96.632H55.104V98.152H40.896ZM41.136 92.056V88.984H47.024V87.784H48.976V88.984H54.864V92.056H53.088V90.52H42.912V92.056H41.136ZM58.4 98.456L57.088 96.888C57.2267 96.5893 57.3493 96.2853 57.456 95.976C57.5733 95.656 57.6747 95.3093 57.76 94.936C57.8453 94.5627 57.9147 94.1627 57.968 93.736C58.0213 93.2987 58.0587 92.824 58.08 92.312C58.112 91.8 58.128 91.2347 58.128 90.616V88.888H71.488V90.392H59.92V91.976C59.92 92.616 59.8827 93.24 59.808 93.848C59.7333 94.456 59.6267 95.0373 59.488 95.592C59.36 96.1467 59.2 96.664 59.008 97.144C58.8267 97.624 58.624 98.0613 58.4 98.456ZM58.448 102.28L57.072 101.208C57.488 100.749 57.8613 100.253 58.192 99.72C58.5333 99.176 58.8107 98.616 59.024 98.04L60.56 98.728C60.336 99.3787 60.0427 100.013 59.68 100.632C59.328 101.24 58.9173 101.789 58.448 102.28ZM65.168 102.472C64.8053 102.472 64.4373 102.467 64.064 102.456C63.7013 102.445 63.3813 102.435 63.104 102.424C62.6773 102.403 62.336 102.36 62.08 102.296C61.824 102.243 61.6267 102.136 61.488 101.976C61.36 101.827 61.2747 101.608 61.232 101.32C61.2 101.032 61.184 100.653 61.184 100.184V97.992H63.104V99.928C63.104 100.227 63.1147 100.445 63.136 100.584C63.1573 100.712 63.2053 100.792 63.28 100.824C63.3653 100.856 63.504 100.883 63.696 100.904C63.8667 100.915 64.08 100.925 64.336 100.936C64.592 100.947 64.8587 100.952 65.136 100.952C65.36 100.952 65.6053 100.947 65.872 100.936C66.1493 100.925 66.384 100.915 66.576 100.904C66.8213 100.883 67.0187 100.851 67.168 100.808C67.3173 100.755 67.4293 100.675 67.504 100.568C67.5893 100.461 67.648 100.296 67.68 100.072C67.7227 99.848 67.7547 99.5387 67.776 99.144L69.568 99.432C69.5253 100.061 69.4667 100.568 69.392 100.952C69.328 101.325 69.216 101.608 69.056 101.8C68.9067 101.992 68.6827 102.131 68.384 102.216C68.096 102.301 67.7067 102.365 67.216 102.408C66.9387 102.429 66.6293 102.445 66.288 102.456C65.9573 102.467 65.584 102.472 65.168 102.472ZM66.144 100.264C65.76 99.9013 65.344 99.5547 64.896 99.224C64.4587 98.8827 64 98.5627 63.52 98.264L64.608 97.128C65.088 97.416 65.5467 97.7253 65.984 98.056C66.4213 98.3867 66.832 98.728 67.216 99.08L66.144 100.264ZM60.288 97.304V92.936H65.616V96.664H62.016V95.448H64V94.168H62.016V97.304H60.288ZM70.784 102.088C70.4853 101.469 70.1493 100.845 69.776 100.216C69.4027 99.5867 68.9973 98.9787 68.56 98.392L70.08 97.608C70.5173 98.2053 70.928 98.824 71.312 99.464C71.696 100.104 72.0427 100.739 72.352 101.368L70.784 102.088ZM60.208 92.328V91.016H65.728V92.328H60.208ZM65.536 96.984L64.592 95.64C65.6693 95.1067 66.6133 94.44 67.424 93.64C68.2347 92.8293 68.9493 91.848 69.568 90.696L70.944 91.464C70.3147 92.744 69.552 93.8427 68.656 94.76C67.7707 95.6667 66.7307 96.408 65.536 96.984ZM69.984 97.88C69.6107 97.88 69.2267 97.736 68.832 97.448C68.4373 97.16 68.0533 96.7333 67.68 96.168C67.3173 95.6027 66.9867 94.9147 66.688 94.104C66.3893 93.2827 66.1547 92.344 65.984 91.288C65.8133 90.232 65.728 89.064 65.728 87.784H67.408C67.408 88.9573 67.4773 89.9973 67.616 90.904C67.7653 91.8107 67.952 92.5947 68.176 93.256C68.4107 93.9067 68.64 94.4507 68.864 94.888C69.0987 95.3147 69.3067 95.6293 69.488 95.832C69.68 96.0347 69.8133 96.136 69.888 96.136C69.9733 96.136 70.0587 96.088 70.144 95.992C70.2293 95.8853 70.3147 95.6933 70.4 95.416C70.4853 95.1387 70.5707 94.744 70.656 94.232L72.08 94.664C71.9413 95.816 71.68 96.6427 71.296 97.144C70.9227 97.6347 70.4853 97.88 69.984 97.88ZM69.376 90.008C69.1947 89.6773 69.0027 89.3413 68.8 89C68.5973 88.6587 68.3947 88.3333 68.192 88.024L69.712 87.464C69.936 87.784 70.144 88.1147 70.336 88.456C70.5387 88.7973 70.7253 89.1387 70.896 89.48L69.376 90.008ZM76.912 102.392C76.3573 102.392 75.8667 102.275 75.44 102.04C75.024 101.805 74.6987 101.48 74.464 101.064C74.24 100.648 74.128 100.157 74.128 99.592C74.128 99.0373 74.24 98.552 74.464 98.136C74.6987 97.7093 75.024 97.384 75.44 97.16C75.8667 96.9253 76.3573 96.808 76.912 96.808C77.4773 96.808 77.968 96.9253 78.384 97.16C78.8 97.384 79.1253 97.7093 79.36 98.136C79.5947 98.552 79.712 99.0373 79.712 99.592C79.712 100.157 79.5947 100.648 79.36 101.064C79.1253 101.48 78.8 101.805 78.384 102.04C77.968 102.275 77.4773 102.392 76.912 102.392ZM76.928 100.888C77.312 100.888 77.6213 100.771 77.856 100.536C78.0907 100.301 78.208 99.9867 78.208 99.592C78.208 99.208 78.0907 98.8987 77.856 98.664C77.6213 98.4293 77.312 98.312 76.928 98.312C76.5333 98.312 76.2187 98.4293 75.984 98.664C75.7493 98.8987 75.632 99.208 75.632 99.592C75.632 99.9867 75.7493 100.301 75.984 100.536C76.2187 100.771 76.5333 100.888 76.928 100.888ZM98.08 101.608C96.832 101.608 95.7387 101.464 94.8 101.176C93.872 100.899 93.152 100.509 92.64 100.008C92.1387 99.496 91.888 98.8933 91.888 98.2C91.888 97.624 92.0693 97.0107 92.432 96.36C92.8053 95.6987 93.3707 94.968 94.128 94.168L95.776 95.032C95.1573 95.6507 94.688 96.2107 94.368 96.712C94.048 97.2133 93.888 97.6453 93.888 98.008C93.888 98.3813 94.0587 98.712 94.4 99C94.752 99.288 95.2427 99.512 95.872 99.672C96.5013 99.8213 97.2373 99.896 98.08 99.896C98.6133 99.896 99.2 99.864 99.84 99.8C100.48 99.736 101.109 99.6507 101.728 99.544C102.357 99.4267 102.907 99.2987 103.376 99.16L103.76 100.872C103.291 101.011 102.725 101.133 102.064 101.24C101.413 101.357 100.736 101.448 100.032 101.512C99.3387 101.576 98.688 101.608 98.08 101.608ZM92.688 91.064V89.352H103.312V91.064H92.688ZM115.92 99.832C116.485 99.768 117.003 99.608 117.472 99.352C117.952 99.0853 118.363 98.7493 118.704 98.344C119.056 97.928 119.328 97.4533 119.52 96.92C119.712 96.3867 119.808 95.8107 119.808 95.192C119.808 94.3173 119.605 93.5547 119.2 92.904C118.795 92.2427 118.229 91.736 117.504 91.384C116.789 91.032 115.957 90.856 115.008 90.856C114.197 90.856 113.445 90.9893 112.752 91.256C112.059 91.5227 111.445 91.896 110.912 92.376C110.389 92.8453 109.979 93.4 109.68 94.04C109.381 94.6693 109.232 95.3467 109.232 96.072C109.232 96.5947 109.317 97.096 109.488 97.576C109.659 98.056 109.872 98.4507 110.128 98.76C110.395 99.0587 110.672 99.208 110.96 99.208C111.376 99.208 111.776 98.8293 112.16 98.072C112.544 97.3147 112.891 96.2267 113.2 94.808C113.52 93.3787 113.787 91.6667 114 89.672L115.856 89.864C115.621 91.848 115.355 93.5493 115.056 94.968C114.757 96.3867 114.416 97.5493 114.032 98.456C113.648 99.3627 113.211 100.035 112.72 100.472C112.229 100.899 111.675 101.112 111.056 101.112C110.544 101.112 110.069 100.984 109.632 100.728C109.195 100.472 108.816 100.115 108.496 99.656C108.176 99.1973 107.925 98.664 107.744 98.056C107.563 97.4373 107.472 96.776 107.472 96.072C107.472 95.0693 107.659 94.1467 108.032 93.304C108.405 92.4507 108.928 91.7147 109.6 91.096C110.272 90.4773 111.067 89.9973 111.984 89.656C112.912 89.304 113.925 89.128 115.024 89.128C116.315 89.128 117.456 89.3733 118.448 89.864C119.451 90.3547 120.235 91.0533 120.8 91.96C121.365 92.8667 121.648 93.944 121.648 95.192C121.648 96.0347 121.52 96.8187 121.264 97.544C121.019 98.2693 120.667 98.9147 120.208 99.48C119.749 100.035 119.2 100.488 118.56 100.84C117.92 101.192 117.211 101.416 116.432 101.512L115.92 99.832ZM123.968 95.816V93.928H138.432V95.816H123.968ZM146.608 98.568C146.427 98.568 146.16 98.5573 145.808 98.536C145.456 98.5147 145.003 98.4933 144.448 98.472L144.368 96.872C144.859 96.8933 145.269 96.9147 145.6 96.936C145.931 96.9573 146.16 96.968 146.288 96.968C146.533 96.968 146.699 96.9573 146.784 96.936C146.88 96.904 146.933 96.8347 146.944 96.728C146.965 96.6107 146.976 96.424 146.976 96.168V93.672H140.688V92.088H142.96V88.536H144.848V92.088H146.976V87.848H148.944V89.176H154.064V90.68H148.944V92.088H154.992V93.672H148.944V96.088C148.944 96.6533 148.917 97.1067 148.864 97.448C148.821 97.7787 148.725 98.024 148.576 98.184C148.427 98.3333 148.192 98.4347 147.872 98.488C147.563 98.5413 147.141 98.568 146.608 98.568ZM142.032 98.952L140.64 97.88C141.195 97.2507 141.685 96.6 142.112 95.928C142.549 95.2453 142.923 94.5573 143.232 93.864L144.832 94.584C144.533 95.3413 144.144 96.0933 143.664 96.84C143.184 97.5867 142.64 98.2907 142.032 98.952ZM141.728 102.488L141.168 100.856C142.864 100.728 144.368 100.509 145.68 100.2C146.992 99.88 148.139 99.464 149.12 98.952C150.112 98.44 150.971 97.8267 151.696 97.112L152.848 98.344C151.717 99.4853 150.235 100.408 148.4 101.112C146.576 101.816 144.352 102.275 141.728 102.488ZM153.616 98.536C153.189 97.8747 152.731 97.2293 152.24 96.6C151.749 95.96 151.227 95.3413 150.672 94.744L152.112 93.768C152.688 94.3867 153.221 95.016 153.712 95.656C154.203 96.296 154.656 96.952 155.072 97.624L153.616 98.536ZM166.912 101.752C165.621 101.752 164.496 101.523 163.536 101.064C162.587 100.616 161.851 99.9813 161.328 99.16C160.805 98.328 160.544 97.352 160.544 96.232C160.544 95.3573 160.699 94.5467 161.008 93.8C161.328 93.0533 161.776 92.4027 162.352 91.848C162.939 91.2827 163.632 90.8507 164.432 90.552L164.592 91.048L156.976 91.224V89.512L170.464 89.192V90.904L168.432 90.952C167.579 90.9733 166.789 91.112 166.064 91.368C165.349 91.6133 164.731 91.96 164.208 92.408C163.696 92.856 163.296 93.3893 163.008 94.008C162.72 94.616 162.576 95.2933 162.576 96.04C162.576 96.8507 162.752 97.5547 163.104 98.152C163.456 98.7387 163.952 99.192 164.592 99.512C165.243 99.832 166.021 99.992 166.928 99.992C167.12 99.992 167.333 99.9867 167.568 99.976C167.813 99.9547 168.059 99.9333 168.304 99.912C168.56 99.88 168.784 99.848 168.976 99.816L169.184 101.576C168.96 101.608 168.715 101.635 168.448 101.656C168.181 101.688 167.915 101.709 167.648 101.72C167.381 101.741 167.136 101.752 166.912 101.752ZM168.544 96.76C168.299 96.216 168.032 95.6987 167.744 95.208C167.467 94.7067 167.147 94.1947 166.784 93.672L168.176 92.904C168.539 93.4267 168.864 93.944 169.152 94.456C169.44 94.9573 169.712 95.4907 169.968 96.056L168.544 96.76ZM170.976 95.848C170.741 95.2933 170.485 94.7707 170.208 94.28C169.941 93.7787 169.632 93.2667 169.28 92.744L170.672 92.008C171.024 92.5413 171.339 93.064 171.616 93.576C171.904 94.088 172.165 94.632 172.4 95.208L170.976 95.848ZM181.904 102.472V90.952H180.832V89.368H188.592V90.952H183.904V93.4H188.112V95H183.904V97.512H188.112V99.144H183.904V102.472H181.904ZM175.584 102.472V92.056H177.536V102.472H175.584ZM174.368 96.968L173.552 95.112C174.117 94.44 174.613 93.7413 175.04 93.016C175.467 92.28 175.835 91.496 176.144 90.664C176.453 89.8213 176.715 88.9147 176.928 87.944L178.72 88.328C178.528 89.352 178.267 90.3067 177.936 91.192C177.605 92.0773 177.211 92.888 176.752 93.624L176.688 93.144C176.571 93.4533 176.421 93.784 176.24 94.136C176.069 94.4773 175.877 94.824 175.664 95.176C175.461 95.5173 175.248 95.8427 175.024 96.152C174.8 96.4613 174.581 96.7333 174.368 96.968ZM179.264 95.32L177.744 94.168C178.384 93.1867 178.955 92.1627 179.456 91.096C179.968 90.0187 180.4 88.9147 180.752 87.784L182.576 88.152C182.203 89.4 181.733 90.6373 181.168 91.864C180.603 93.08 179.968 94.232 179.264 95.32ZM197.392 102.008C195.813 102.008 194.587 101.752 193.712 101.24C192.848 100.728 192.416 100.008 192.416 99.08C192.416 98.2907 192.741 97.6773 193.392 97.24C194.053 96.792 194.96 96.568 196.112 96.568C197.2 96.568 198.016 96.7707 198.56 97.176C199.104 97.5707 199.376 98.168 199.376 98.968C199.376 99.256 199.333 99.5653 199.248 99.896C199.173 100.227 199.061 100.568 198.912 100.92L197.152 100.728C197.301 100.365 197.408 100.056 197.472 99.8C197.547 99.544 197.584 99.32 197.584 99.128C197.584 98.4027 197.051 98.04 195.984 98.04C195.44 98.04 195.013 98.1307 194.704 98.312C194.405 98.4827 194.256 98.7333 194.256 99.064C194.256 99.512 194.517 99.8693 195.04 100.136C195.563 100.392 196.272 100.52 197.168 100.52C198.885 100.52 200.16 100.269 200.992 99.768C201.835 99.256 202.256 98.4773 202.256 97.432C202.256 96.5467 201.925 95.896 201.264 95.48C200.613 95.064 199.573 94.856 198.144 94.856C197.323 94.856 196.597 94.9307 195.968 95.08C195.339 95.2187 194.757 95.4373 194.224 95.736L192.112 96.952L191.344 95.48L200.432 90.424V90.728H192.288V89.112H203.232V90.728L195.424 95.032L194.432 94.216C194.763 94.0987 195.131 93.992 195.536 93.896C195.952 93.7893 196.373 93.704 196.8 93.64C197.237 93.5653 197.659 93.5067 198.064 93.464C198.469 93.4107 198.837 93.384 199.168 93.384C200.789 93.384 202.032 93.7253 202.896 94.408C203.76 95.0907 204.192 96.0613 204.192 97.32C204.192 98.824 203.6 99.9813 202.416 100.792C201.243 101.603 199.568 102.008 197.392 102.008ZM214.56 101.608C213.312 101.608 212.219 101.464 211.28 101.176C210.352 100.899 209.632 100.509 209.12 100.008C208.619 99.496 208.368 98.8933 208.368 98.2C208.368 97.624 208.549 97.0107 208.912 96.36C209.285 95.6987 209.851 94.968 210.608 94.168L212.256 95.032C211.637 95.6507 211.168 96.2107 210.848 96.712C210.528 97.2133 210.368 97.6453 210.368 98.008C210.368 98.3813 210.539 98.712 210.88 99C211.232 99.288 211.723 99.512 212.352 99.672C212.981 99.8213 213.717 99.896 214.56 99.896C215.093 99.896 215.68 99.864 216.32 99.8C216.96 99.736 217.589 99.6507 218.208 99.544C218.837 99.4267 219.387 99.2987 219.856 99.16L220.24 100.872C219.771 101.011 219.205 101.133 218.544 101.24C217.893 101.357 217.216 101.448 216.512 101.512C215.819 101.576 215.168 101.608 214.56 101.608ZM209.168 91.064V89.352H219.792V91.064H209.168ZM231.056 101.864C229.061 101.864 227.547 101.555 226.512 100.936C225.477 100.307 224.96 99.3893 224.96 98.184C224.96 97.1707 225.339 96.248 226.096 95.416C226.853 94.5733 228.032 93.7947 229.632 93.08C231.243 92.3653 233.312 91.688 235.84 91.048L236.288 92.76C234.144 93.304 232.379 93.8587 230.992 94.424C229.616 94.9893 228.597 95.5707 227.936 96.168C227.285 96.7547 226.96 97.384 226.96 98.056C226.96 99.4427 228.363 100.136 231.168 100.136C231.627 100.136 232.107 100.115 232.608 100.072C233.109 100.029 233.669 99.9707 234.288 99.896C234.917 99.8107 235.632 99.704 236.432 99.576L236.656 101.304C235.643 101.475 234.661 101.608 233.712 101.704C232.773 101.811 231.888 101.864 231.056 101.864ZM228.016 94.712C227.707 93.6667 227.445 92.6427 227.232 91.64C227.019 90.6267 226.848 89.624 226.72 88.632L228.656 88.344C228.795 89.336 228.971 90.328 229.184 91.32C229.397 92.3013 229.653 93.2773 229.952 94.248L228.016 94.712ZM240.528 101.352C240.923 100.339 241.275 99.4053 241.584 98.552C241.893 97.688 242.171 96.8613 242.416 96.072C242.672 95.2827 242.901 94.4827 243.104 93.672C243.317 92.8613 243.515 91.9973 243.696 91.08C243.877 90.1627 244.059 89.1493 244.24 88.04L246.096 88.248C245.925 89.3147 245.749 90.312 245.568 91.24C245.387 92.1573 245.184 93.0427 244.96 93.896C244.747 94.7387 244.507 95.5813 244.24 96.424C243.984 97.2667 243.691 98.136 243.36 99.032C243.04 99.928 242.677 100.888 242.272 101.912L240.528 101.352ZM253.488 99.256C253.392 98.616 253.264 97.9333 253.104 97.208C252.955 96.472 252.779 95.736 252.576 95C252.373 94.264 252.16 93.5547 251.936 92.872L253.712 92.344C253.936 93.048 254.149 93.7787 254.352 94.536C254.565 95.2827 254.752 96.0347 254.912 96.792C255.072 97.5387 255.205 98.2533 255.312 98.936L253.488 99.256ZM251.808 91.992C251.531 91.4053 251.259 90.8827 250.992 90.424C250.725 89.9653 250.427 89.512 250.096 89.064L251.424 88.296C251.765 88.7547 252.069 89.2293 252.336 89.72C252.613 90.2107 252.885 90.744 253.152 91.32L251.808 91.992ZM254.048 91.144C253.792 90.5467 253.536 90.0187 253.28 89.56C253.024 89.0907 252.741 88.6373 252.432 88.2L253.728 87.48C254.069 87.9493 254.368 88.4293 254.624 88.92C254.891 89.4107 255.147 89.9493 255.392 90.536L254.048 91.144ZM248.128 101.528C247.851 101.528 247.504 101.491 247.088 101.416C246.672 101.352 246.235 101.256 245.776 101.128C245.328 101.011 244.896 100.877 244.48 100.728L244.912 99.112C245.264 99.2187 245.611 99.3253 245.952 99.432C246.304 99.528 246.624 99.608 246.912 99.672C247.211 99.7253 247.44 99.752 247.6 99.752C247.941 99.752 248.224 99.5973 248.448 99.288C248.672 98.968 248.837 98.472 248.944 97.8C249.061 97.1173 249.12 96.2427 249.12 95.176C249.12 94.5573 249.099 94.0613 249.056 93.688C249.013 93.304 248.923 93.016 248.784 92.824C248.656 92.632 248.459 92.504 248.192 92.44C247.925 92.376 247.568 92.344 247.12 92.344H240.336V90.68H246.944C247.68 90.68 248.293 90.712 248.784 90.776C249.285 90.8293 249.68 90.9413 249.968 91.112C250.267 91.2827 250.491 91.544 250.64 91.896C250.8 92.2373 250.901 92.696 250.944 93.272C250.997 93.8373 251.024 94.5467 251.024 95.4C251.024 96.7867 250.923 97.9333 250.72 98.84C250.517 99.7467 250.197 100.424 249.76 100.872C249.333 101.309 248.789 101.528 248.128 101.528ZM257.168 101.352C257.563 100.339 257.915 99.4053 258.224 98.552C258.533 97.688 258.811 96.8613 259.056 96.072C259.312 95.2827 259.541 94.4827 259.744 93.672C259.957 92.8613 260.155 91.9973 260.336 91.08C260.517 90.1627 260.699 89.1493 260.88 88.04L262.736 88.248C262.565 89.3147 262.389 90.312 262.208 91.24C262.027 92.1573 261.824 93.0427 261.6 93.896C261.387 94.7387 261.147 95.5813 260.88 96.424C260.624 97.2667 260.331 98.136 260 99.032C259.68 99.928 259.317 100.888 258.912 101.912L257.168 101.352ZM270.128 99.256C270.032 98.616 269.904 97.9333 269.744 97.208C269.595 96.472 269.419 95.736 269.216 95C269.013 94.264 268.8 93.5547 268.576 92.872L270.352 92.344C270.576 93.048 270.789 93.7787 270.992 94.536C271.205 95.2827 271.392 96.0347 271.552 96.792C271.712 97.5387 271.845 98.2533 271.952 98.936L270.128 99.256ZM268.448 91.992C268.171 91.4053 267.899 90.8827 267.632 90.424C267.365 89.9653 267.067 89.512 266.736 89.064L268.064 88.296C268.405 88.7547 268.709 89.2293 268.976 89.72C269.253 90.2107 269.525 90.744 269.792 91.32L268.448 91.992ZM270.688 91.144C270.432 90.5467 270.176 90.0187 269.92 89.56C269.664 89.0907 269.381 88.6373 269.072 88.2L270.368 87.48C270.709 87.9493 271.008 88.4293 271.264 88.92C271.531 89.4107 271.787 89.9493 272.032 90.536L270.688 91.144ZM264.768 101.528C264.491 101.528 264.144 101.491 263.728 101.416C263.312 101.352 262.875 101.256 262.416 101.128C261.968 101.011 261.536 100.877 261.12 100.728L261.552 99.112C261.904 99.2187 262.251 99.3253 262.592 99.432C262.944 99.528 263.264 99.608 263.552 99.672C263.851 99.7253 264.08 99.752 264.24 99.752C264.581 99.752 264.864 99.5973 265.088 99.288C265.312 98.968 265.477 98.472 265.584 97.8C265.701 97.1173 265.76 96.2427 265.76 95.176C265.76 94.5573 265.739 94.0613 265.696 93.688C265.653 93.304 265.563 93.016 265.424 92.824C265.296 92.632 265.099 92.504 264.832 92.44C264.565 92.376 264.208 92.344 263.76 92.344H256.976V90.68H263.584C264.32 90.68 264.933 90.712 265.424 90.776C265.925 90.8293 266.32 90.9413 266.608 91.112C266.907 91.2827 267.131 91.544 267.28 91.896C267.44 92.2373 267.541 92.696 267.584 93.272C267.637 93.8373 267.664 94.5467 267.664 95.4C267.664 96.7867 267.563 97.9333 267.36 98.84C267.157 99.7467 266.837 100.424 266.4 100.872C265.973 101.309 265.429 101.528 264.768 101.528ZM47.024 131.472V127.056H41.008V125.472H47.024V124.64H46.256V123.216H49.744V122H46.256V120.608H49.744V119.472H46.256V124.64H44.4V117.968H51.6V124.64H48.976V125.472H54.992V127.056H48.976V131.472H47.024ZM41.168 131.264L40.464 129.696C41.9467 129.227 43.2213 128.725 44.288 128.192C45.3547 127.659 46.24 127.099 46.944 126.512L48.08 127.36C47.312 128.096 46.352 128.795 45.2 129.456C44.048 130.117 42.704 130.72 41.168 131.264ZM41.104 124.896L40.432 123.36C41.0613 123.115 41.6533 122.859 42.208 122.592C42.7733 122.325 43.2907 122.053 43.76 121.776L44.464 123.248C43.984 123.536 43.4613 123.819 42.896 124.096C42.3413 124.373 41.744 124.64 41.104 124.896ZM54.832 131.264C53.296 130.72 51.952 130.117 50.8 129.456C49.648 128.795 48.688 128.096 47.92 127.36L49.056 126.512C49.76 127.099 50.6453 127.659 51.712 128.192C52.7787 128.725 54.0533 129.227 55.536 129.696L54.832 131.264ZM43.2 121.088C42.848 120.768 42.4427 120.421 41.984 120.048C41.536 119.664 41.0507 119.285 40.528 118.912L41.632 117.584C42.144 117.957 42.6293 118.336 43.088 118.72C43.5467 119.104 43.952 119.461 44.304 119.792L43.2 121.088ZM48.288 119.12L46.336 118.976C46.4533 118.624 46.5653 118.261 46.672 117.888C46.7787 117.515 46.88 117.115 46.976 116.688L48.928 116.8C48.832 117.227 48.7307 117.632 48.624 118.016C48.5173 118.4 48.4053 118.768 48.288 119.12ZM54.784 124.88C54.2827 124.581 53.7547 124.299 53.2 124.032C52.6453 123.755 52.064 123.493 51.456 123.248L52.224 121.776C52.864 122.021 53.4613 122.277 54.016 122.544C54.5813 122.8 55.104 123.072 55.584 123.36L54.784 124.88ZM52.784 121.056L51.648 119.792C52.1173 119.451 52.5813 119.093 53.04 118.72C53.4987 118.336 53.9253 117.963 54.32 117.6L55.472 118.848C55.1093 119.189 54.6987 119.552 54.24 119.936C53.7813 120.309 53.296 120.683 52.784 121.056ZM64.352 130.832C63.136 130.832 62.1387 130.64 61.36 130.256C60.592 129.883 60.0213 129.301 59.648 128.512C59.2853 127.723 59.104 126.709 59.104 125.472V117.68H61.056V125.472C61.056 126.72 61.3173 127.627 61.84 128.192C62.3627 128.747 63.2 129.024 64.352 129.024C65.1947 129.024 65.936 128.869 66.576 128.56C67.2267 128.251 67.8133 127.749 68.336 127.056C68.8693 126.352 69.3813 125.419 69.872 124.256L71.648 124.976C71.2213 126.043 70.7627 126.949 70.272 127.696C69.792 128.432 69.264 129.035 68.688 129.504C68.1227 129.963 67.4827 130.299 66.768 130.512C66.0533 130.725 65.248 130.832 64.352 130.832ZM77.872 130.592C77.4027 130.592 76.9493 130.475 76.512 130.24C76.0747 130.005 75.68 129.691 75.328 129.296C74.976 128.901 74.6987 128.464 74.496 127.984C74.2933 127.493 74.192 126.997 74.192 126.496C74.192 125.696 74.4587 125.013 74.992 124.448C75.536 123.872 76.3093 123.435 77.312 123.136C78.3147 122.827 79.5093 122.672 80.896 122.672C82.3253 122.672 83.6853 122.864 84.976 123.248C86.2667 123.621 87.5413 124.203 88.8 124.992L88.128 126.608C87.3067 126.064 86.512 125.627 85.744 125.296C84.976 124.965 84.1973 124.725 83.408 124.576C82.6187 124.416 81.7813 124.336 80.896 124.336C79.3493 124.336 78.144 124.528 77.28 124.912C76.4267 125.285 76 125.813 76 126.496C76 126.731 76.048 126.976 76.144 127.232C76.24 127.488 76.3733 127.728 76.544 127.952C76.7147 128.165 76.8907 128.341 77.072 128.48C77.264 128.608 77.4507 128.672 77.632 128.672C77.984 128.672 78.304 128.459 78.592 128.032C78.88 127.595 79.1253 126.965 79.328 126.144C79.5307 125.323 79.6853 124.325 79.792 123.152C79.9093 121.968 79.968 120.635 79.968 119.152L80.432 119.696H74.848V118.08H81.92V118.24C81.92 120.267 81.8347 122.053 81.664 123.6C81.4933 125.136 81.2373 126.421 80.896 127.456C80.5547 128.491 80.128 129.275 79.616 129.808C79.1147 130.331 78.5333 130.592 77.872 130.592ZM82.48 129.52C82.8747 129.232 83.2053 128.949 83.472 128.672C83.7387 128.384 83.9573 128.048 84.128 127.664C84.2987 127.28 84.4267 126.816 84.512 126.272C84.5973 125.717 84.656 125.04 84.688 124.24C84.72 123.44 84.736 122.469 84.736 121.328V118.496H86.592V121.424C86.592 122.661 86.5707 123.733 86.528 124.64C86.4853 125.536 86.4053 126.304 86.288 126.944C86.1707 127.584 86.0053 128.133 85.792 128.592C85.5893 129.051 85.328 129.461 85.008 129.824C84.688 130.187 84.2933 130.544 83.824 130.896L82.48 129.52ZM100.512 130.176C99.552 130.176 98.6933 130.043 97.936 129.776C97.1893 129.509 96.6027 129.141 96.176 128.672C95.76 128.192 95.552 127.648 95.552 127.04C95.552 125.952 96.2613 124.832 97.68 123.68L99.056 124.72C98.4907 125.179 98.0747 125.579 97.808 125.92C97.552 126.261 97.424 126.587 97.424 126.896C97.424 127.216 97.552 127.493 97.808 127.728C98.064 127.963 98.4213 128.144 98.88 128.272C99.3387 128.4 99.8827 128.464 100.512 128.464C101.045 128.464 101.643 128.427 102.304 128.352C102.976 128.267 103.653 128.155 104.336 128.016L104.592 129.696C103.899 129.845 103.2 129.963 102.496 130.048C101.803 130.133 101.141 130.176 100.512 130.176ZM96.288 120.496V118.768H104.496V120.496H96.288ZM92.432 130.88C92.1547 129.781 91.952 128.699 91.824 127.632C91.696 126.565 91.632 125.435 91.632 124.24C91.632 123.056 91.696 121.936 91.824 120.88C91.952 119.813 92.1547 118.731 92.432 117.632L94.336 117.872C94.08 118.907 93.888 119.947 93.76 120.992C93.6427 122.027 93.584 123.109 93.584 124.24C93.584 125.371 93.6427 126.459 93.76 127.504C93.888 128.549 94.08 129.579 94.336 130.592L92.432 130.88ZM114.576 130.896C113.381 130.896 112.453 130.619 111.792 130.064C111.131 129.52 110.8 128.768 110.8 127.808C110.8 126.816 111.141 126.053 111.824 125.52C112.507 124.976 113.467 124.704 114.704 124.704C115.227 124.704 115.744 124.784 116.256 124.944C116.768 125.104 117.301 125.349 117.856 125.68C118.411 126.011 119.003 126.437 119.632 126.96C120.272 127.483 120.96 128.117 121.696 128.864L120.544 130.144C119.691 129.312 118.971 128.64 118.384 128.128C117.808 127.605 117.312 127.211 116.896 126.944C116.491 126.667 116.117 126.48 115.776 126.384C115.445 126.288 115.088 126.24 114.704 126.24C113.979 126.24 113.445 126.363 113.104 126.608C112.773 126.853 112.608 127.232 112.608 127.744C112.608 128.267 112.773 128.661 113.104 128.928C113.435 129.184 113.925 129.312 114.576 129.312C115.291 129.312 115.824 129.157 116.176 128.848C116.539 128.539 116.72 128.096 116.72 127.52V119.248C117.659 119.248 118.528 119.264 119.328 119.296C120.139 119.317 120.933 119.355 121.712 119.408L121.6 121.088C120.907 121.035 120.181 120.997 119.424 120.976C118.677 120.944 117.877 120.928 117.024 120.928L118.576 119.728V127.328C118.576 128.501 118.24 129.392 117.568 130C116.896 130.597 115.899 130.896 114.576 130.896ZM107.296 128.352C107.765 127.083 108.197 125.835 108.592 124.608C108.987 123.371 109.355 122.123 109.696 120.864C110.037 119.595 110.352 118.293 110.64 116.96L112.448 117.136C112.16 118.501 111.84 119.84 111.488 121.152C111.147 122.453 110.773 123.744 110.368 125.024C109.973 126.304 109.536 127.589 109.056 128.88L107.296 128.352ZM107.168 120.928V119.248H115.232V120.928H107.168ZM126.608 129.04C128.667 129.04 130.325 128.864 131.584 128.512C132.853 128.16 133.771 127.589 134.336 126.8C134.912 126 135.2 124.971 135.2 123.712C135.2 122.432 134.928 121.477 134.384 120.848C133.851 120.208 133.029 119.888 131.92 119.888C131.301 119.888 130.72 119.989 130.176 120.192C129.643 120.395 129.173 120.683 128.768 121.056C128.363 121.429 128.037 121.872 127.792 122.384C127.557 122.896 127.44 123.461 127.44 124.08V126.176H125.584V117.76H127.44V121.168H126.72C127.104 120.507 127.557 119.947 128.08 119.488C128.613 119.029 129.216 118.683 129.888 118.448C130.571 118.203 131.312 118.08 132.112 118.08C133.744 118.08 134.992 118.565 135.856 119.536C136.731 120.496 137.168 121.888 137.168 123.712C137.168 125.355 136.795 126.699 136.048 127.744C135.312 128.789 134.176 129.557 132.64 130.048C131.104 130.549 129.125 130.8 126.704 130.8L126.608 129.04ZM145.712 130.848C144.453 130.848 143.477 130.597 142.784 130.096C142.101 129.605 141.76 128.901 141.76 127.984C141.76 127.067 142.101 126.368 142.784 125.888C143.467 125.408 144.443 125.168 145.712 125.168C146.405 125.168 147.077 125.243 147.728 125.392C148.379 125.541 149.035 125.781 149.696 126.112C150.368 126.443 151.072 126.875 151.808 127.408C152.544 127.931 153.339 128.571 154.192 129.328L152.976 130.544C152.165 129.851 151.424 129.264 150.752 128.784C150.091 128.293 149.477 127.899 148.912 127.6C148.347 127.291 147.803 127.072 147.28 126.944C146.768 126.805 146.245 126.736 145.712 126.736C144.347 126.736 143.664 127.141 143.664 127.952C143.664 128.368 143.835 128.688 144.176 128.912C144.517 129.125 145.019 129.232 145.68 129.232C146.469 129.232 147.051 129.067 147.424 128.736C147.797 128.405 147.984 127.899 147.984 127.216V117.136H149.792V127.216C149.792 128.421 149.451 129.328 148.768 129.936C148.096 130.544 147.077 130.848 145.712 130.848ZM141.648 123.632V122.048H154.032V123.632H141.648ZM141.488 120.368V118.752H154.192V120.368H141.488ZM164.192 130.832C162.976 130.832 161.979 130.64 161.2 130.256C160.432 129.883 159.861 129.301 159.488 128.512C159.125 127.723 158.944 126.709 158.944 125.472V117.68H160.896V125.472C160.896 126.72 161.157 127.627 161.68 128.192C162.203 128.747 163.04 129.024 164.192 129.024C165.035 129.024 165.776 128.869 166.416 128.56C167.067 128.251 167.653 127.749 168.176 127.056C168.709 126.352 169.221 125.419 169.712 124.256L171.488 124.976C171.061 126.043 170.603 126.949 170.112 127.696C169.632 128.432 169.104 129.035 168.528 129.504C167.963 129.963 167.323 130.299 166.608 130.512C165.893 130.725 165.088 130.832 164.192 130.832ZM174.512 130.672C174.96 129.232 175.365 127.771 175.728 126.288C176.101 124.795 176.427 123.28 176.704 121.744C176.992 120.197 177.237 118.64 177.44 117.072L179.344 117.152C179.163 118.688 178.928 120.24 178.64 121.808C178.363 123.376 178.037 124.933 177.664 126.48C177.291 128.016 176.875 129.525 176.416 131.008L174.512 130.672ZM184.432 130.688C183.461 130.688 182.619 130.571 181.904 130.336C181.189 130.112 180.635 129.797 180.24 129.392C179.845 128.976 179.648 128.48 179.648 127.904C179.648 127.477 179.792 127.056 180.08 126.64C180.368 126.224 180.811 125.792 181.408 125.344L182.848 126.368C182.443 126.624 182.139 126.864 181.936 127.088C181.744 127.301 181.648 127.515 181.648 127.728C181.648 127.973 181.76 128.192 181.984 128.384C182.219 128.565 182.544 128.709 182.96 128.816C183.387 128.923 183.877 128.976 184.432 128.976C184.933 128.976 185.445 128.949 185.968 128.896C186.491 128.843 187.035 128.763 187.6 128.656L187.808 130.368C187.221 130.475 186.656 130.555 186.112 130.608C185.568 130.661 185.008 130.688 184.432 130.688ZM174.288 120.736V119.072H185.552V120.736H174.288ZM180.272 122.544C181.531 122.427 182.763 122.336 183.968 122.272C185.184 122.208 186.4 122.176 187.616 122.176V123.856C186.421 123.856 185.221 123.888 184.016 123.952C182.821 124.005 181.611 124.101 180.384 124.24L180.272 122.544Z" fill="#282828"/>
<path opacity="0.6" d="M49.016 153.68C49.016 151.09 50.122 148.808 52.432 146.946C52.558 146.834 52.712 146.778 52.852 146.778C53.118 146.778 53.37 147.016 53.37 147.282C53.37 147.464 53.3 147.59 53.16 147.716C51.144 149.438 50.304 151.384 50.304 153.68C50.304 155.976 51.144 157.922 53.16 159.644C53.3 159.77 53.37 159.896 53.37 160.078C53.37 160.344 53.118 160.582 52.852 160.582C52.712 160.582 52.558 160.526 52.432 160.414C50.122 158.552 49.016 156.27 49.016 153.68ZM56.772 150.404L56.59 152.588C57.024 152.35 57.444 152.238 57.864 152.238C60.02 152.238 61.546 153.442 61.546 155.57C61.546 157.698 59.978 159.098 57.892 159.098C56.744 159.098 55.708 158.762 54.994 158.188C54.756 157.992 54.686 157.81 54.686 157.558C54.686 157.138 55.022 156.83 55.484 156.83C55.61 156.83 55.736 156.872 55.904 156.998C56.632 157.53 57.178 157.698 57.864 157.698C59.04 157.698 59.866 156.858 59.866 155.626C59.866 154.352 59.082 153.61 57.864 153.61C57.43 153.61 56.996 153.75 56.66 153.96C56.352 154.142 56.226 154.226 55.96 154.226C55.47 154.226 55.05 153.932 55.05 153.4V153.316L55.344 149.606C55.4 148.948 55.918 148.542 56.66 148.542H60.468C60.888 148.542 61.14 148.85 61.14 149.27C61.14 149.69 60.888 149.998 60.468 149.998H57.234C56.926 149.998 56.8 150.11 56.772 150.404ZM66.4152 148.318C68.5432 148.318 69.9572 149.83 69.9572 153.708C69.9572 157.586 68.5432 159.098 66.4152 159.098C64.2872 159.098 62.9012 157.586 62.9012 153.708C62.9012 149.83 64.2872 148.318 66.4152 148.318ZM66.4152 149.718C65.2532 149.718 64.5532 150.698 64.5532 153.708C64.5532 156.718 65.2532 157.698 66.4152 157.698C67.5912 157.698 68.3052 156.718 68.3052 153.708C68.3052 150.698 67.5912 149.718 66.4152 149.718ZM73.0903 159.7V153.092C72.8523 153.456 72.6003 153.806 72.3483 154.114C72.1663 154.338 71.9423 154.436 71.7323 154.436C71.3263 154.436 70.9483 154.1 70.9483 153.694C70.9483 153.526 71.0043 153.358 71.1443 153.176C72.2503 151.804 73.2723 149.69 73.8323 147.814C73.9443 147.45 74.2523 147.282 74.5743 147.282C74.9943 147.282 75.4143 147.548 75.4143 147.996C75.4143 148.066 75.4003 148.15 75.3723 148.234C75.0643 149.284 74.5603 150.46 73.9863 151.552C74.3223 151.594 74.6163 151.79 74.6163 152.154V159.7C74.6163 160.078 74.2383 160.274 73.8603 160.274C73.4683 160.274 73.0903 160.078 73.0903 159.7ZM79.2503 151.258L83.1003 150.922H83.1563C83.5343 150.922 83.7303 151.286 83.7303 151.65C83.7303 151.972 83.5763 152.28 83.2263 152.308L79.4323 152.644C79.6283 153.848 79.9223 154.954 80.3283 155.92C81.1123 157.782 81.7563 158.244 82.1763 158.244C82.3583 158.244 82.5263 158.062 82.6243 157.152C82.6663 156.718 82.9883 156.522 83.3243 156.522C83.7023 156.522 84.1083 156.788 84.1083 157.264V157.362C83.9123 159.308 83.1843 159.896 82.2463 159.896C81.0143 159.896 79.8243 158.72 78.8303 156.34C78.3963 155.29 78.0743 154.1 77.8643 152.77L75.8203 152.952H75.7643C75.3863 152.952 75.1903 152.588 75.1903 152.238C75.1903 151.916 75.3583 151.608 75.6943 151.58L77.6963 151.398C77.5843 150.306 77.5283 149.13 77.5283 147.898C77.5283 147.464 77.9203 147.254 78.3123 147.254C78.7043 147.254 79.0963 147.464 79.0963 147.898C79.0963 149.088 79.1383 150.208 79.2503 151.258ZM80.9023 148.192C81.2803 148.472 81.6303 148.766 81.9243 149.06C82.0923 149.242 82.1763 149.438 82.1763 149.606C82.1763 150.012 81.8123 150.362 81.4203 150.362C81.2523 150.362 81.0703 150.278 80.9163 150.11C80.6223 149.774 80.3143 149.48 79.9643 149.2C79.7963 149.06 79.7123 148.892 79.7123 148.724C79.7123 148.374 80.0483 148.024 80.4403 148.024C80.5943 148.024 80.7483 148.08 80.9023 148.192ZM85.3683 159.42L96.9043 147.156C97.0303 147.03 97.1703 146.932 97.2963 146.932C97.6603 146.932 97.9683 147.226 97.9683 147.506C97.9683 147.66 97.9123 147.8 97.7723 147.94L86.2363 160.204C86.1103 160.33 85.9703 160.428 85.8443 160.428C85.4803 160.428 85.1723 160.134 85.1723 159.854C85.1723 159.7 85.2283 159.56 85.3683 159.42ZM111.408 151.874H109.378C109.238 152.42 109.028 153.12 108.776 153.722C108.412 154.59 107.95 155.388 107.39 156.116C108.524 156.69 109.644 157.334 110.652 158.048C110.918 158.23 111.03 158.482 111.03 158.72C111.03 159.14 110.666 159.546 110.218 159.546C110.05 159.546 109.868 159.49 109.686 159.364C108.636 158.594 107.474 157.88 106.312 157.278C104.744 158.664 102.784 159.462 100.572 159.882C100.502 159.896 100.446 159.896 100.376 159.896C99.9143 159.896 99.6483 159.546 99.6483 159.182C99.6483 158.874 99.8443 158.552 100.278 158.468C102.07 158.118 103.61 157.544 104.856 156.564C104.184 156.284 103.526 156.004 102.84 155.766L102.784 155.864C102.588 156.2 102.294 156.34 102.014 156.34C101.608 156.34 101.216 156.06 101.216 155.654C101.216 155.542 101.244 155.416 101.328 155.276C101.972 154.156 102.546 153.036 103.022 151.874H99.7323C99.3683 151.874 99.1723 151.538 99.1723 151.202C99.1723 150.866 99.3683 150.53 99.7323 150.53H103.54C103.862 149.62 104.142 148.668 104.422 147.646C104.52 147.296 104.842 147.128 105.164 147.128C105.57 147.128 105.976 147.366 105.976 147.786C105.976 147.842 105.962 147.898 105.948 147.968C105.71 148.85 105.458 149.704 105.164 150.53H111.408C111.786 150.53 111.982 150.866 111.982 151.202C111.982 151.538 111.786 151.874 111.408 151.874ZM107.726 151.874H104.674C104.296 152.784 103.904 153.68 103.47 154.562C104.324 154.828 105.164 155.122 105.976 155.472C106.83 154.436 107.404 153.176 107.726 151.874ZM121.18 158.356V155.584H119.052C118.702 155.584 118.534 155.234 118.534 154.898C118.534 154.548 118.702 154.212 119.052 154.212H121.18V151.874H119.57C119.402 152.252 119.22 152.616 119.038 152.952C118.856 153.288 118.562 153.428 118.296 153.428C117.932 153.428 117.596 153.176 117.596 152.784C117.596 152.644 117.638 152.49 117.736 152.322C118.282 151.384 118.716 150.236 118.996 148.976C119.08 148.598 119.388 148.416 119.682 148.416C120.046 148.416 120.41 148.668 120.41 149.088C120.41 149.144 120.41 149.186 120.396 149.242C120.312 149.676 120.2 150.11 120.06 150.53H121.18V147.87C121.18 147.45 121.558 147.24 121.936 147.24C122.314 147.24 122.692 147.45 122.692 147.87V150.53H125.254C125.618 150.53 125.8 150.866 125.8 151.202C125.8 151.538 125.618 151.874 125.254 151.874H122.692V154.212H124.75C125.1 154.212 125.282 154.548 125.282 154.898C125.282 155.234 125.1 155.584 124.75 155.584H122.692V158.356H125.548C125.898 158.356 126.08 158.692 126.08 159.042C126.08 159.378 125.898 159.728 125.548 159.728H117.834C117.498 159.728 117.316 159.378 117.316 159.042C117.316 158.692 117.498 158.356 117.834 158.356H121.18ZM116.294 147.772V159.616C116.294 160.036 115.916 160.246 115.538 160.246C115.146 160.246 114.768 160.036 114.768 159.616V147.772C114.768 147.352 115.146 147.156 115.538 147.156C115.916 147.156 116.294 147.352 116.294 147.772ZM113.452 150.558C113.494 150.236 113.746 150.082 113.998 150.082C114.292 150.082 114.572 150.278 114.572 150.628V150.698C114.516 151.328 114.362 152.168 114.18 152.77C114.082 153.078 113.844 153.218 113.606 153.218C113.312 153.218 113.032 153.008 113.032 152.686C113.032 152.63 113.032 152.56 113.06 152.49C113.242 151.902 113.382 151.104 113.452 150.558ZM117.512 150.012C117.652 150.432 117.778 150.936 117.834 151.314V151.412C117.834 151.79 117.526 152.014 117.246 152.014C117.008 152.014 116.784 151.874 116.728 151.552C116.658 151.132 116.56 150.6 116.462 150.264C116.448 150.208 116.434 150.138 116.434 150.082C116.434 149.788 116.7 149.606 116.966 149.606C117.19 149.606 117.414 149.732 117.512 150.012ZM131.554 153.68C131.554 156.27 130.448 158.552 128.138 160.414C128.012 160.526 127.858 160.582 127.718 160.582C127.452 160.582 127.2 160.344 127.2 160.078C127.2 159.896 127.27 159.77 127.41 159.644C129.426 157.922 130.266 155.976 130.266 153.68C130.266 151.384 129.426 149.438 127.41 147.716C127.27 147.59 127.2 147.464 127.2 147.282C127.2 147.016 127.452 146.778 127.718 146.778C127.858 146.778 128.012 146.834 128.138 146.946C130.448 148.808 131.554 151.09 131.554 153.68Z" fill="#282828"/>
<path d="M257.177 230L239.177 188L208 188L257.177 230Z" fill="#FFF464"/>
</svg>
