<svg width="290" height="215" viewBox="0 0 290 215" fill="none" xmlns="http://www.w3.org/2000/svg">
<rect width="290" height="161" rx="80" fill="#FFF464"/>
<path d="M48.016 45.896C46.8213 45.896 45.8933 45.6187 45.232 45.064C44.5707 44.52 44.24 43.768 44.24 42.808C44.24 41.816 44.5813 41.0533 45.264 40.52C45.9467 39.976 46.9067 39.704 48.144 39.704C48.6667 39.704 49.184 39.784 49.696 39.944C50.208 40.104 50.7413 40.3493 51.296 40.68C51.8507 41.0107 52.4427 41.4373 53.072 41.96C53.712 42.4827 54.4 43.1173 55.136 43.864L53.984 45.144C53.1307 44.312 52.4107 43.64 51.824 43.128C51.248 42.6053 50.752 42.2107 50.336 41.944C49.9307 41.6667 49.5573 41.48 49.216 41.384C48.8853 41.288 48.528 41.24 48.144 41.24C47.4187 41.24 46.8853 41.3627 46.544 41.608C46.2133 41.8533 46.048 42.232 46.048 42.744C46.048 43.2667 46.2133 43.6613 46.544 43.928C46.8747 44.184 47.3653 44.312 48.016 44.312C48.7307 44.312 49.264 44.1573 49.616 43.848C49.9787 43.5387 50.16 43.096 50.16 42.52V34.248C51.0987 34.248 51.968 34.264 52.768 34.296C53.5787 34.3173 54.3733 34.3547 55.152 34.408L55.04 36.088C54.3467 36.0347 53.6213 35.9973 52.864 35.976C52.1173 35.944 51.3173 35.928 50.464 35.928L52.016 34.728V42.328C52.016 43.5013 51.68 44.392 51.008 45C50.336 45.5973 49.3387 45.896 48.016 45.896ZM40.736 43.352C41.2053 42.0827 41.6373 40.8347 42.032 39.608C42.4267 38.3707 42.7947 37.1227 43.136 35.864C43.4773 34.5947 43.792 33.2933 44.08 31.96L45.888 32.136C45.6 33.5013 45.28 34.84 44.928 36.152C44.5867 37.4533 44.2133 38.744 43.808 40.024C43.4133 41.304 42.976 42.5893 42.496 43.88L40.736 43.352ZM40.608 35.928V34.248H48.672V35.928H40.608ZM65.216 45.88C64.096 45.88 63.1787 45.8213 62.464 45.704C61.7493 45.5973 61.1893 45.4 60.784 45.112C60.3893 44.824 60.112 44.424 59.952 43.912C59.8027 43.3893 59.728 42.7227 59.728 41.912V32.744H61.616V41.912C61.616 42.4133 61.6587 42.8133 61.744 43.112C61.84 43.4107 62.0107 43.64 62.256 43.8C62.5013 43.96 62.8587 44.0667 63.328 44.12C63.808 44.1733 64.4373 44.2 65.216 44.2C66.016 44.2 66.8693 44.1787 67.776 44.136C68.6827 44.0827 69.5627 44.008 70.416 43.912L70.56 45.592C69.6853 45.688 68.7787 45.7573 67.84 45.8C66.9013 45.8533 66.0267 45.88 65.216 45.88ZM56.928 37.304V35.688L72.032 35.368V36.984L56.928 37.304ZM67.472 41.912C67.1413 41.912 66.7627 41.8853 66.336 41.832C65.9093 41.768 65.472 41.6827 65.024 41.576C64.5867 41.4587 64.16 41.3307 63.744 41.192L64.192 39.528C64.7147 39.6773 65.1467 39.7947 65.488 39.88C65.8293 39.9547 66.112 40.008 66.336 40.04C66.56 40.072 66.768 40.088 66.96 40.088C67.1307 40.088 67.232 40.0507 67.264 39.976C67.3067 39.8907 67.328 39.6613 67.328 39.288V35.912H67.216V33.784H69.136V35.912H69.248V39.912C69.248 40.4133 69.1893 40.8133 69.072 41.112C68.9653 41.4 68.784 41.608 68.528 41.736C68.272 41.8533 67.92 41.912 67.472 41.912ZM68.784 34.68C68.688 34.168 68.5813 33.6827 68.464 33.224C68.3467 32.7653 68.2027 32.3067 68.032 31.848L69.536 31.48C69.7067 31.9387 69.8507 32.4027 69.968 32.872C70.096 33.3413 70.2027 33.848 70.288 34.392L68.784 34.68ZM71.008 34.504C70.9227 33.9813 70.8213 33.4907 70.704 33.032C70.5973 32.5733 70.464 32.1147 70.304 31.656L71.792 31.32C71.9627 31.7787 72.1013 32.248 72.208 32.728C72.3253 33.1973 72.4213 33.6987 72.496 34.232L71.008 34.504ZM81.44 45.608C80.192 45.608 79.0987 45.464 78.16 45.176C77.232 44.8987 76.512 44.5093 76 44.008C75.4987 43.496 75.248 42.8933 75.248 42.2C75.248 41.624 75.4293 41.0107 75.792 40.36C76.1653 39.6987 76.7307 38.968 77.488 38.168L79.136 39.032C78.5173 39.6507 78.048 40.2107 77.728 40.712C77.408 41.2133 77.248 41.6453 77.248 42.008C77.248 42.3813 77.4187 42.712 77.76 43C78.112 43.288 78.6027 43.512 79.232 43.672C79.8613 43.8213 80.5973 43.896 81.44 43.896C81.9733 43.896 82.56 43.864 83.2 43.8C83.84 43.736 84.4693 43.6507 85.088 43.544C85.7173 43.4267 86.2667 43.2987 86.736 43.16L87.12 44.872C86.6507 45.0107 86.0853 45.1333 85.424 45.24C84.7733 45.3573 84.096 45.448 83.392 45.512C82.6987 45.576 82.048 45.608 81.44 45.608ZM76.048 35.064V33.352H86.672V35.064H76.048ZM93.744 44.136C95.0453 44.0827 96.2133 43.9547 97.248 43.752C98.2827 43.5387 99.168 43.2613 99.904 42.92C100.64 42.5787 101.2 42.1893 101.584 41.752C101.968 41.304 102.16 40.808 102.16 40.264C102.16 39.656 101.888 39.2027 101.344 38.904C100.811 38.5947 99.9893 38.44 98.88 38.44C98.336 38.44 97.7333 38.4773 97.072 38.552C96.4107 38.616 95.648 38.728 94.784 38.888C93.92 39.048 92.9013 39.256 91.728 39.512L91.264 37.752C92.8213 37.4 94.24 37.1387 95.52 36.968C96.8 36.7867 97.9307 36.696 98.912 36.696C100.672 36.696 101.995 36.984 102.88 37.56C103.765 38.136 104.208 38.9947 104.208 40.136C104.208 40.9787 103.973 41.7467 103.504 42.44C103.045 43.1227 102.379 43.7147 101.504 44.216C100.629 44.7173 99.5733 45.112 98.336 45.4C97.1093 45.688 95.7227 45.8587 94.176 45.912L93.744 44.136ZM101.808 34.856C101.072 34.856 100.24 34.84 99.312 34.808C98.3947 34.7653 97.44 34.7067 96.448 34.632C95.4667 34.5467 94.512 34.456 93.584 34.36L93.824 32.504C94.6133 32.6107 95.472 32.7067 96.4 32.792C97.328 32.8773 98.2613 32.9413 99.2 32.984C100.139 33.0267 101.008 33.048 101.808 33.048V34.856ZM110.624 44.328C111.584 44.2853 112.443 44.1253 113.2 43.848C113.957 43.56 114.555 43.192 114.992 42.744C115.44 42.296 115.664 41.8053 115.664 41.272V40.904L116.464 41.112C116.347 41.3253 116.187 41.5227 115.984 41.704C115.781 41.8853 115.541 42.0453 115.264 42.184C114.997 42.312 114.699 42.4133 114.368 42.488C114.048 42.5627 113.717 42.6 113.376 42.6C112.672 42.6 112.064 42.4667 111.552 42.2C111.04 41.9227 110.64 41.5387 110.352 41.048C110.075 40.5573 109.936 39.9813 109.936 39.32C109.936 38.648 110.085 38.0667 110.384 37.576C110.683 37.0853 111.099 36.7067 111.632 36.44C112.176 36.1627 112.811 36.024 113.536 36.024C114.133 36.024 114.651 36.1253 115.088 36.328C115.525 36.5307 115.957 36.8347 116.384 37.24L115.248 37.56V31.912H117.168V39.176L117.024 38.344C117.227 38.664 117.365 38.9947 117.44 39.336C117.525 39.6667 117.568 40.04 117.568 40.456C117.568 41.5333 117.301 42.4773 116.768 43.288C116.235 44.0987 115.472 44.7333 114.48 45.192C113.488 45.6613 112.299 45.9333 110.912 46.008L110.624 44.328ZM113.696 41.032C113.973 41.032 114.219 40.9947 114.432 40.92C114.656 40.8347 114.848 40.7173 115.008 40.568C115.168 40.4187 115.291 40.2373 115.376 40.024C115.461 39.8107 115.504 39.576 115.504 39.32C115.504 38.776 115.339 38.3493 115.008 38.04C114.688 37.7307 114.251 37.576 113.696 37.576C113.152 37.576 112.709 37.7307 112.368 38.04C112.037 38.3493 111.872 38.776 111.872 39.32C111.872 39.832 112.037 40.248 112.368 40.568C112.699 40.8773 113.141 41.032 113.696 41.032ZM107.504 35.304V33.768H121.616V35.304H107.504ZM130.832 46.008C129.253 46.008 128.027 45.752 127.152 45.24C126.288 44.728 125.856 44.008 125.856 43.08C125.856 42.2907 126.181 41.6773 126.832 41.24C127.493 40.792 128.4 40.568 129.552 40.568C130.64 40.568 131.456 40.7707 132 41.176C132.544 41.5707 132.816 42.168 132.816 42.968C132.816 43.256 132.773 43.5653 132.688 43.896C132.613 44.2267 132.501 44.568 132.352 44.92L130.592 44.728C130.741 44.3653 130.848 44.056 130.912 43.8C130.987 43.544 131.024 43.32 131.024 43.128C131.024 42.4027 130.491 42.04 129.424 42.04C128.88 42.04 128.453 42.1307 128.144 42.312C127.845 42.4827 127.696 42.7333 127.696 43.064C127.696 43.512 127.957 43.8693 128.48 44.136C129.003 44.392 129.712 44.52 130.608 44.52C132.325 44.52 133.6 44.2693 134.432 43.768C135.275 43.256 135.696 42.4773 135.696 41.432C135.696 40.5467 135.365 39.896 134.704 39.48C134.053 39.064 133.013 38.856 131.584 38.856C130.763 38.856 130.037 38.9307 129.408 39.08C128.779 39.2187 128.197 39.4373 127.664 39.736L125.552 40.952L124.784 39.48L133.872 34.424V34.728H125.728V33.112H136.672V34.728L128.864 39.032L127.872 38.216C128.203 38.0987 128.571 37.992 128.976 37.896C129.392 37.7893 129.813 37.704 130.24 37.64C130.677 37.5653 131.099 37.5067 131.504 37.464C131.909 37.4107 132.277 37.384 132.608 37.384C134.229 37.384 135.472 37.7253 136.336 38.408C137.2 39.0907 137.632 40.0613 137.632 41.32C137.632 42.824 137.04 43.9813 135.856 44.792C134.683 45.6027 133.008 46.008 130.832 46.008ZM149.2 43.832C149.765 43.768 150.283 43.608 150.752 43.352C151.232 43.0853 151.643 42.7493 151.984 42.344C152.336 41.928 152.608 41.4533 152.8 40.92C152.992 40.3867 153.088 39.8107 153.088 39.192C153.088 38.3173 152.885 37.5547 152.48 36.904C152.075 36.2427 151.509 35.736 150.784 35.384C150.069 35.032 149.237 34.856 148.288 34.856C147.477 34.856 146.725 34.9893 146.032 35.256C145.339 35.5227 144.725 35.896 144.192 36.376C143.669 36.8453 143.259 37.4 142.96 38.04C142.661 38.6693 142.512 39.3467 142.512 40.072C142.512 40.5947 142.597 41.096 142.768 41.576C142.939 42.056 143.152 42.4507 143.408 42.76C143.675 43.0587 143.952 43.208 144.24 43.208C144.656 43.208 145.056 42.8293 145.44 42.072C145.824 41.3147 146.171 40.2267 146.48 38.808C146.8 37.3787 147.067 35.6667 147.28 33.672L149.136 33.864C148.901 35.848 148.635 37.5493 148.336 38.968C148.037 40.3867 147.696 41.5493 147.312 42.456C146.928 43.3627 146.491 44.0347 146 44.472C145.509 44.8987 144.955 45.112 144.336 45.112C143.824 45.112 143.349 44.984 142.912 44.728C142.475 44.472 142.096 44.1147 141.776 43.656C141.456 43.1973 141.205 42.664 141.024 42.056C140.843 41.4373 140.752 40.776 140.752 40.072C140.752 39.0693 140.939 38.1467 141.312 37.304C141.685 36.4507 142.208 35.7147 142.88 35.096C143.552 34.4773 144.347 33.9973 145.264 33.656C146.192 33.304 147.205 33.128 148.304 33.128C149.595 33.128 150.736 33.3733 151.728 33.864C152.731 34.3547 153.515 35.0533 154.08 35.96C154.645 36.8667 154.928 37.944 154.928 39.192C154.928 40.0347 154.8 40.8187 154.544 41.544C154.299 42.2693 153.947 42.9147 153.488 43.48C153.029 44.0347 152.48 44.488 151.84 44.84C151.2 45.192 150.491 45.416 149.712 45.512L149.2 43.832ZM164.944 45.368C164.677 45.368 164.336 45.3307 163.92 45.256C163.504 45.192 163.067 45.1013 162.608 44.984C162.149 44.856 161.717 44.7173 161.312 44.568L161.744 42.952C162.085 43.0587 162.427 43.1653 162.768 43.272C163.12 43.368 163.44 43.448 163.728 43.512C164.027 43.5653 164.261 43.592 164.432 43.592C164.773 43.592 165.056 43.4373 165.28 43.128C165.504 42.808 165.669 42.312 165.776 41.64C165.893 40.9573 165.952 40.0827 165.952 39.016C165.952 38.3973 165.925 37.9013 165.872 37.528C165.829 37.144 165.744 36.856 165.616 36.664C165.488 36.472 165.291 36.344 165.024 36.28C164.757 36.216 164.4 36.184 163.952 36.184H157.136V34.52H163.76C164.507 34.52 165.125 34.552 165.616 34.616C166.107 34.6693 166.501 34.7813 166.8 34.952C167.099 35.1227 167.323 35.384 167.472 35.736C167.632 36.0773 167.733 36.536 167.776 37.112C167.829 37.6773 167.856 38.3867 167.856 39.24C167.856 40.6267 167.749 41.7733 167.536 42.68C167.333 43.5867 167.019 44.264 166.592 44.712C166.165 45.1493 165.616 45.368 164.944 45.368ZM157.328 45.192C157.723 44.1787 158.075 43.2453 158.384 42.392C158.693 41.528 158.971 40.7013 159.216 39.912C159.472 39.1227 159.701 38.3227 159.904 37.512C160.117 36.7013 160.315 35.8373 160.496 34.92C160.677 34.0027 160.859 32.9893 161.04 31.88L162.896 32.088C162.725 33.1547 162.549 34.152 162.368 35.08C162.187 35.9973 161.984 36.8827 161.76 37.736C161.547 38.5787 161.307 39.4213 161.04 40.264C160.784 41.1067 160.491 41.976 160.16 42.872C159.84 43.768 159.477 44.728 159.072 45.752L157.328 45.192ZM170.352 42.248C170.256 41.608 170.128 40.9253 169.968 40.2C169.808 39.4747 169.627 38.744 169.424 38.008C169.221 37.272 169.008 36.5627 168.784 35.88C168.56 35.1867 168.331 34.552 168.096 33.976L169.888 33.464C170.133 34.0613 170.368 34.7067 170.592 35.4C170.816 36.0933 171.029 36.808 171.232 37.544C171.435 38.28 171.616 39.016 171.776 39.752C171.936 40.4773 172.069 41.1707 172.176 41.832L170.352 42.248ZM180.032 41.496C180.032 41.048 180.08 40.6267 180.176 40.232C180.272 39.8373 180.448 39.4587 180.704 39.096C180.96 38.7227 181.317 38.376 181.776 38.056C182.139 37.8 182.432 37.5653 182.656 37.352C182.88 37.1387 183.035 36.9307 183.12 36.728C183.216 36.5253 183.264 36.3227 183.264 36.12C183.264 35.704 183.077 35.4053 182.704 35.224C182.341 35.032 181.76 34.936 180.96 34.936C180.395 34.936 179.835 34.984 179.28 35.08C178.725 35.1653 178.144 35.3093 177.536 35.512L177.12 33.768C177.728 33.576 178.389 33.4267 179.104 33.32C179.819 33.2133 180.528 33.16 181.232 33.16C183.984 33.16 185.36 34.0507 185.36 35.832C185.36 36.2373 185.291 36.6107 185.152 36.952C185.024 37.2827 184.811 37.608 184.512 37.928C184.213 38.248 183.819 38.5787 183.328 38.92C183.008 39.144 182.752 39.3947 182.56 39.672C182.368 39.9493 182.235 40.2427 182.16 40.552C182.085 40.8613 182.037 41.176 182.016 41.496H180.032ZM179.888 45V42.824H182.16V45H179.888ZM194.368 46.168V44.152H198.768V43.032H195.232V41.16H198.768V36.952H197.44V35.432H198.768V34.088H201.264V35.432H202.608V34.088H197.44V40.088H195.296V32.152H204.8V40.088H197.44V38.328H202.608V36.952H201.264V41.16H204.992V43.032H201.264V44.152H205.168V46.168H194.368ZM190.48 45.208L190.256 43.064C190.736 42.9787 191.243 42.872 191.776 42.744C192.32 42.616 192.859 42.4773 193.392 42.328C193.936 42.1787 194.437 42.0293 194.896 41.88L194.912 43.96C194.475 44.12 193.995 44.28 193.472 44.44C192.949 44.6 192.427 44.7493 191.904 44.888C191.381 45.016 190.907 45.1227 190.48 45.208ZM191.456 43.24V39.368H190.496V37.224H191.456V34.888H190.336V32.68H194.912V34.888H193.824V37.224H194.816V39.368H193.824V43.24H191.456ZM208.336 46.536L206.688 44.344C206.912 43.9493 207.104 43.544 207.264 43.128C207.424 42.7013 207.552 42.2213 207.648 41.688C207.755 41.144 207.829 40.4987 207.872 39.752C207.915 39.0053 207.936 38.1093 207.936 37.064V32.28H221.232V36.936H210.192V35.208H218.736V34.232H210.352V38.904C210.352 39.8 210.315 40.6107 210.24 41.336C210.165 42.0507 210.048 42.7067 209.888 43.304C209.728 43.9013 209.52 44.4667 209.264 45C209.008 45.5227 208.699 46.0347 208.336 46.536ZM210.32 46.536V42.008H212.752V43.832H214.528V41.528H210.928V37.544H213.104V39.64H214.528V35.704H216.96V39.64H218.384V37.544H220.752V41.528H216.96V43.832H218.752V42.008H221.232V46.536H218.752V45.848H212.752V46.536H210.32ZM229.04 46.008C227.685 46.008 226.64 45.7413 225.904 45.208C225.179 44.6853 224.816 43.9333 224.816 42.952C224.816 41.9707 225.179 41.224 225.904 40.712C226.629 40.2 227.675 39.944 229.04 39.944C229.733 39.944 230.405 40.0187 231.056 40.168C231.707 40.3173 232.363 40.5573 233.024 40.888C233.685 41.2187 234.384 41.6507 235.12 42.184C235.856 42.7173 236.656 43.3733 237.52 44.152L235.872 45.8C235.061 45.0853 234.336 44.488 233.696 44.008C233.056 43.5173 232.469 43.128 231.936 42.84C231.413 42.5413 230.917 42.328 230.448 42.2C229.979 42.072 229.509 42.008 229.04 42.008C227.952 42.008 227.408 42.3067 227.408 42.904C227.408 43.2027 227.541 43.432 227.808 43.592C228.075 43.752 228.464 43.832 228.976 43.832C229.627 43.832 230.112 43.704 230.432 43.448C230.752 43.1813 230.912 42.7813 230.912 42.248V32.168H233.36V42.248C233.36 43.5067 232.997 44.4453 232.272 45.064C231.557 45.6933 230.48 46.008 229.04 46.008ZM224.72 39V36.872H237.36V39H224.72ZM224.56 35.768V33.592H237.52V35.768H224.56ZM50.512 74.88C49.168 74.88 48 74.6507 47.008 74.192C46.016 73.7333 45.248 73.088 44.704 72.256C44.16 71.424 43.888 70.4427 43.888 69.312C43.888 68.5227 44.016 67.7867 44.272 67.104C44.528 66.4213 44.896 65.8133 45.376 65.28C45.8667 64.7467 46.448 64.32 47.12 64L47.376 64.512L40.416 64.672V62.352L54.064 62.032V64.352L52.016 64.4C51.2693 64.4107 50.5707 64.528 49.92 64.752C49.2693 64.976 48.6987 65.2907 48.208 65.696C47.7173 66.1013 47.3387 66.5867 47.072 67.152C46.8053 67.7067 46.672 68.336 46.672 69.04C46.672 69.7653 46.8213 70.3893 47.12 70.912C47.4187 71.424 47.856 71.8187 48.432 72.096C49.0187 72.3627 49.7173 72.496 50.528 72.496C50.72 72.496 50.9333 72.4907 51.168 72.48C51.4027 72.4587 51.6427 72.4373 51.888 72.416C52.1333 72.384 52.3627 72.3467 52.576 72.304L52.864 74.688C52.608 74.72 52.3413 74.752 52.064 74.784C51.7867 74.816 51.5147 74.8373 51.248 74.848C50.9813 74.8693 50.736 74.88 50.512 74.88ZM51.648 70.048C51.392 69.4933 51.12 68.9653 50.832 68.464C50.544 67.9627 50.2133 67.4507 49.84 66.928L51.488 66.032C51.8613 66.5547 52.192 67.072 52.48 67.584C52.7787 68.096 53.0613 68.64 53.328 69.216L51.648 70.048ZM54.256 69.168C54.0107 68.6027 53.7493 68.0693 53.472 67.568C53.1947 67.056 52.88 66.5387 52.528 66.016L54.176 65.168C54.528 65.712 54.8427 66.24 55.12 66.752C55.408 67.264 55.6747 67.8133 55.92 68.4L54.256 69.168ZM57.328 69.744V68.336H63.328V67.92H58.112V66.752H63.328V60.64H65.952V66.752H71.168V67.92H65.952V68.336H71.952V69.744H57.328ZM58.56 75.552V70.16H70.72V75.552H68.176V75.008H61.104V73.728H68.176V73.232H61.104V72.016H68.176V71.536H61.104V75.552H58.56ZM58.592 66.352V65.248H68.192V64.816H57.232V63.232H68.192V62.8H58.592V61.472H70.672V63.232H72.048V64.816H70.672V66.352H58.592ZM81.776 74.528C81.4773 74.528 81.12 74.496 80.704 74.432C80.2987 74.3787 79.872 74.2987 79.424 74.192C78.976 74.0853 78.5493 73.9627 78.144 73.824L78.704 71.696C79.0133 71.7813 79.3173 71.8667 79.616 71.952C79.9147 72.0267 80.1867 72.0853 80.432 72.128C80.6773 72.1707 80.8747 72.192 81.024 72.192C81.3013 72.192 81.52 72.0747 81.68 71.84C81.8507 71.6053 81.9733 71.2 82.048 70.624C82.1227 70.0373 82.16 69.2267 82.16 68.192C82.16 67.648 82.1387 67.2107 82.096 66.88C82.0533 66.5387 81.9787 66.2773 81.872 66.096C81.7653 65.9147 81.6053 65.792 81.392 65.728C81.1893 65.664 80.9227 65.632 80.592 65.632H73.728V63.376H80.32C81.12 63.376 81.7867 63.408 82.32 63.472C82.8533 63.536 83.28 63.664 83.6 63.856C83.9307 64.0373 84.176 64.32 84.336 64.704C84.5067 65.0773 84.6133 65.5787 84.656 66.208C84.7093 66.8267 84.736 67.6 84.736 68.528C84.736 69.9787 84.64 71.1467 84.448 72.032C84.256 72.9067 83.9413 73.5413 83.504 73.936C83.0773 74.3307 82.5013 74.528 81.776 74.528ZM73.856 74.224C74.24 73.1573 74.576 72.192 74.864 71.328C75.1627 70.4533 75.424 69.6267 75.648 68.848C75.8827 68.0587 76.0907 67.2693 76.272 66.48C76.464 65.68 76.6453 64.8267 76.816 63.92C76.9867 63.0027 77.168 61.9733 77.36 60.832L79.872 61.104C79.712 62.1813 79.5467 63.184 79.376 64.112C79.2053 65.0293 79.0187 65.9147 78.816 66.768C78.6133 67.6107 78.384 68.4587 78.128 69.312C77.8827 70.1653 77.6053 71.0507 77.296 71.968C76.9867 72.8853 76.6347 73.888 76.24 74.976L73.856 74.224ZM86.64 71.28C86.5653 70.6507 86.4587 69.9787 86.32 69.264C86.192 68.5493 86.0427 67.8347 85.872 67.12C85.712 66.3947 85.536 65.696 85.344 65.024C85.1627 64.3413 84.976 63.7173 84.784 63.152L87.232 62.576C87.4347 63.1627 87.6267 63.7973 87.808 64.48C88 65.1627 88.176 65.8667 88.336 66.592C88.5067 67.3067 88.656 68.0213 88.784 68.736C88.912 69.4507 89.0187 70.1387 89.104 70.8L86.64 71.28ZM102.784 74.592C102.016 74.592 101.461 74.3947 101.12 74C100.779 73.5947 100.608 72.944 100.608 72.048V66.592C100.608 66.0373 100.544 65.632 100.416 65.376C100.299 65.1093 100.112 64.976 99.856 64.976C99.696 64.976 99.4987 65.0347 99.264 65.152C99.04 65.2693 98.7413 65.4773 98.368 65.776C97.9947 66.064 97.5147 66.4747 96.928 67.008C96.3413 67.5307 95.616 68.208 94.752 69.04H94.48C94.064 69.4667 93.6 69.9467 93.088 70.48C92.576 71.0027 92.0107 71.584 91.392 72.224L90.064 70.112C91.44 68.8107 92.6187 67.7173 93.6 66.832C94.592 65.936 95.4347 65.2053 96.128 64.64C96.8213 64.064 97.4133 63.6213 97.904 63.312C98.3947 63.0027 98.8267 62.7947 99.2 62.688C99.584 62.5707 99.9573 62.512 100.32 62.512C101.28 62.512 102 62.7947 102.48 63.36C102.96 63.9147 103.2 64.752 103.2 65.872V70.752C103.2 71.136 103.211 71.4293 103.232 71.632C103.253 71.824 103.285 71.952 103.328 72.016C103.381 72.08 103.456 72.112 103.552 72.112C103.723 72.112 103.957 72.0533 104.256 71.936C104.565 71.8187 104.923 71.6533 105.328 71.44L105.84 73.76C105.36 74.0267 104.859 74.2293 104.336 74.368C103.813 74.5173 103.296 74.592 102.784 74.592ZM93.664 75.152V65.648H90.272V63.472H93.664V61.328H96.192V75.152H93.664ZM117.712 74.72C116.368 74.72 115.2 74.496 114.208 74.048C113.216 73.6107 112.448 72.9867 111.904 72.176C111.36 71.3653 111.088 70.4107 111.088 69.312C111.088 68.544 111.216 67.8293 111.472 67.168C111.728 66.5067 112.096 65.92 112.576 65.408C113.067 64.8853 113.648 64.4693 114.32 64.16L114.576 64.672L107.616 64.832V62.512L121.264 62.192V64.512L119.216 64.56C118.48 64.5707 117.787 64.6827 117.136 64.896C116.485 65.1093 115.915 65.4133 115.424 65.808C114.933 66.192 114.549 66.656 114.272 67.2C114.005 67.744 113.872 68.3573 113.872 69.04C113.872 69.744 114.021 70.3413 114.32 70.832C114.619 71.312 115.056 71.6853 115.632 71.952C116.219 72.208 116.917 72.336 117.728 72.336C118.027 72.336 118.363 72.32 118.736 72.288C119.109 72.256 119.456 72.208 119.776 72.144L120.064 74.528C119.669 74.592 119.264 74.64 118.848 74.672C118.443 74.704 118.064 74.72 117.712 74.72ZM128.272 74.672C127.685 74.672 127.152 74.5067 126.672 74.176C126.192 73.8453 125.776 73.376 125.424 72.768C125.083 72.16 124.816 71.4347 124.624 70.592C124.443 69.7493 124.352 68.816 124.352 67.792C124.352 66.9813 124.421 66.1387 124.56 65.264C124.699 64.3893 124.912 63.4293 125.2 62.384L127.76 62.672C127.493 63.6107 127.296 64.4693 127.168 65.248C127.04 66.0267 126.976 66.7733 126.976 67.488C126.976 68.1173 127.013 68.6987 127.088 69.232C127.173 69.7653 127.285 70.2293 127.424 70.624C127.563 71.0187 127.723 71.328 127.904 71.552C128.096 71.7653 128.299 71.872 128.512 71.872C128.725 71.872 128.96 71.776 129.216 71.584C129.483 71.392 129.755 71.1307 130.032 70.8C130.32 70.4587 130.592 70.0747 130.848 69.648C131.104 69.2107 131.323 68.7573 131.504 68.288L133.824 69.504C133.547 70.24 133.2 70.9227 132.784 71.552C132.379 72.1813 131.925 72.7307 131.424 73.2C130.923 73.6693 130.405 74.032 129.872 74.288C129.339 74.544 128.805 74.672 128.272 74.672ZM135.856 73.088C135.856 71.872 135.776 70.6613 135.616 69.456C135.467 68.2507 135.243 67.0827 134.944 65.952C134.656 64.8213 134.299 63.7653 133.872 62.784L136.288 62.096C136.768 63.1093 137.168 64.208 137.488 65.392C137.819 66.5653 138.064 67.7973 138.224 69.088C138.395 70.3787 138.48 71.712 138.48 73.088H135.856ZM147.52 75.168C145.899 75.168 144.635 74.896 143.728 74.352C142.832 73.808 142.384 73.0507 142.384 72.08C142.384 71.248 142.731 70.6027 143.424 70.144C144.128 69.6747 145.088 69.44 146.304 69.44C147.403 69.44 148.224 69.6427 148.768 70.048C149.312 70.4427 149.584 71.04 149.584 71.84C149.584 72.128 149.552 72.432 149.488 72.752C149.424 73.072 149.333 73.3813 149.216 73.68L147.024 73.456C147.141 73.1573 147.232 72.896 147.296 72.672C147.36 72.4373 147.392 72.2453 147.392 72.096C147.392 71.552 146.971 71.28 146.128 71.28C145.691 71.28 145.355 71.3493 145.12 71.488C144.885 71.616 144.768 71.808 144.768 72.064C144.768 72.4267 144.971 72.704 145.376 72.896C145.781 73.088 146.384 73.184 147.184 73.184C148.763 73.184 149.915 72.9653 150.64 72.528C151.376 72.0907 151.744 71.4133 151.744 70.496C151.744 69.6853 151.445 69.0987 150.848 68.736C150.261 68.3627 149.296 68.176 147.952 68.176C147.184 68.176 146.512 68.24 145.936 68.368C145.36 68.496 144.811 68.6933 144.288 68.96L142.304 70.032L141.28 68.048L149.6 63.792V64.128H142.24V61.952H153.536V64.128L145.328 68.416L144 67.248C144.363 67.1307 144.779 67.0187 145.248 66.912C145.717 66.8053 146.203 66.7093 146.704 66.624C147.205 66.5387 147.691 66.4747 148.16 66.432C148.629 66.3787 149.045 66.352 149.408 66.352C151.008 66.352 152.24 66.6987 153.104 67.392C153.968 68.0747 154.4 69.056 154.4 70.336C154.4 71.8827 153.803 73.0773 152.608 73.92C151.413 74.752 149.717 75.168 147.52 75.168ZM160.576 69.408V66.928H168.56V66.512H164.016V65.792H168.56V65.376H164.016V64.672H168.56V64.24H164.016V66.928H161.472V63.376H171.104V66.928H172V69.408H169.84V68.032H162.736V69.408H160.576ZM157.888 75.552V65.136H160.128V75.552H157.888ZM160.896 73.264L160.208 71.568C161.253 71.28 162.181 70.9493 162.992 70.576C163.803 70.2027 164.501 69.792 165.088 69.344L166.112 70.352C165.696 70.7573 165.205 71.1467 164.64 71.52C164.075 71.8933 163.472 72.2293 162.832 72.528C162.192 72.8267 161.547 73.072 160.896 73.264ZM160.88 75.504L160.416 73.664C161.952 73.5787 163.248 73.44 164.304 73.248C165.371 73.056 166.256 72.816 166.96 72.528C167.664 72.24 168.251 71.9147 168.72 71.552L170.288 72.192C169.733 72.7253 169.008 73.2213 168.112 73.68C167.216 74.128 166.16 74.5067 164.944 74.816C163.739 75.136 162.384 75.3653 160.88 75.504ZM161.696 71.312L160.512 70.16C160.875 69.8613 161.211 69.5413 161.52 69.2C161.84 68.8587 162.112 68.5227 162.336 68.192L163.664 69.12C163.44 69.4933 163.152 69.8773 162.8 70.272C162.459 70.656 162.091 71.0027 161.696 71.312ZM157.088 70.608L156.56 67.376C156.944 66.7787 157.28 66.16 157.568 65.52C157.856 64.88 158.107 64.176 158.32 63.408C158.544 62.64 158.741 61.792 158.912 60.864L161.136 61.456C160.976 62.672 160.731 63.7973 160.4 64.832C160.08 65.8667 159.696 66.7733 159.248 67.552L159.152 66.416C159.067 66.7253 158.944 67.0773 158.784 67.472C158.624 67.8667 158.443 68.2613 158.24 68.656C158.048 69.0507 157.851 69.4187 157.648 69.76C157.445 70.1013 157.259 70.384 157.088 70.608ZM171.696 75.504C170.523 75.4293 169.381 75.2693 168.272 75.024C167.163 74.7787 166.144 74.4587 165.216 74.064C164.288 73.68 163.509 73.2533 162.88 72.784L163.952 71.824C164.549 72.1547 165.227 72.4427 165.984 72.688C166.752 72.9333 167.643 73.1307 168.656 73.28C169.68 73.4293 170.848 73.536 172.16 73.6L171.696 75.504ZM163.056 72.192V70.944H170.288V72.192H163.056ZM166.384 70.672C165.616 70.672 165.019 70.6667 164.592 70.656C164.165 70.6347 163.851 70.592 163.648 70.528C163.456 70.4533 163.339 70.3413 163.296 70.192C163.253 70.0427 163.232 69.8347 163.232 69.568V68.352H165.232V69.104C165.232 69.1787 165.237 69.2373 165.248 69.28C165.269 69.3227 165.312 69.3547 165.376 69.376C165.451 69.3867 165.563 69.3973 165.712 69.408C165.872 69.408 166.091 69.408 166.368 69.408C166.699 69.408 166.955 69.4027 167.136 69.392C167.317 69.3813 167.445 69.3547 167.52 69.312C167.605 69.2587 167.659 69.1733 167.68 69.056C167.701 68.9387 167.717 68.7733 167.728 68.56L169.632 68.688C169.611 69.1787 169.568 69.5573 169.504 69.824C169.451 70.0907 169.328 70.288 169.136 70.416C168.944 70.5333 168.629 70.608 168.192 70.64C167.765 70.6613 167.163 70.672 166.384 70.672ZM167.04 69.424C166.731 69.264 166.411 69.1147 166.08 68.976C165.749 68.8267 165.419 68.6933 165.088 68.576L165.904 67.28C166.267 67.3973 166.613 67.536 166.944 67.696C167.285 67.8453 167.589 67.9893 167.856 68.128L167.04 69.424ZM170.64 71.712C170.373 71.2533 170.085 70.7947 169.776 70.336C169.467 69.8773 169.141 69.4347 168.8 69.008L170.128 68.048C170.469 68.4747 170.795 68.912 171.104 69.36C171.413 69.808 171.701 70.2507 171.968 70.688L170.64 71.712ZM166.96 64.016L164.496 63.712C164.624 63.3707 164.741 63.0133 164.848 62.64C164.965 62.2667 165.067 61.8667 165.152 61.44L167.632 61.856C167.536 62.2827 167.435 62.6667 167.328 63.008C167.232 63.3387 167.109 63.6747 166.96 64.016ZM160.976 63.008V61.232H171.904V63.008H160.976ZM180.816 74.912C179.525 74.912 178.475 74.7147 177.664 74.32C176.853 73.936 176.256 73.3333 175.872 72.512C175.499 71.68 175.312 70.6133 175.312 69.312V61.68H177.968V69.312C177.968 70.432 178.187 71.2373 178.624 71.728C179.061 72.208 179.792 72.448 180.816 72.448C181.584 72.448 182.261 72.304 182.848 72.016C183.435 71.728 183.973 71.2533 184.464 70.592C184.965 69.9307 185.461 69.0347 185.952 67.904L188.288 68.912C187.84 70.0213 187.371 70.96 186.88 71.728C186.4 72.4853 185.867 73.0987 185.28 73.568C184.693 74.0373 184.032 74.3787 183.296 74.592C182.571 74.8053 181.744 74.912 180.816 74.912ZM194.832 74.672C194.245 74.672 193.712 74.5067 193.232 74.176C192.752 73.8453 192.336 73.376 191.984 72.768C191.643 72.16 191.376 71.4347 191.184 70.592C191.003 69.7493 190.912 68.816 190.912 67.792C190.912 66.9813 190.981 66.1387 191.12 65.264C191.259 64.3893 191.472 63.4293 191.76 62.384L194.32 62.672C194.053 63.6107 193.856 64.4693 193.728 65.248C193.6 66.0267 193.536 66.7733 193.536 67.488C193.536 68.1173 193.573 68.6987 193.648 69.232C193.733 69.7653 193.845 70.2293 193.984 70.624C194.123 71.0187 194.283 71.328 194.464 71.552C194.656 71.7653 194.859 71.872 195.072 71.872C195.285 71.872 195.52 71.776 195.776 71.584C196.043 71.392 196.315 71.1307 196.592 70.8C196.88 70.4587 197.152 70.0747 197.408 69.648C197.664 69.2107 197.883 68.7573 198.064 68.288L200.384 69.504C200.107 70.24 199.76 70.9227 199.344 71.552C198.939 72.1813 198.485 72.7307 197.984 73.2C197.483 73.6693 196.965 74.032 196.432 74.288C195.899 74.544 195.365 74.672 194.832 74.672ZM202.416 73.088C202.416 71.872 202.336 70.6613 202.176 69.456C202.027 68.2507 201.803 67.0827 201.504 65.952C201.216 64.8213 200.859 63.7653 200.432 62.784L202.848 62.096C203.328 63.1093 203.728 64.208 204.048 65.392C204.379 66.5653 204.624 67.7973 204.784 69.088C204.955 70.3787 205.04 71.712 205.04 73.088H202.416ZM208.976 72.752C210.491 72.5707 211.632 72.1387 212.4 71.456C213.168 70.7733 213.552 69.856 213.552 68.704V68.544H207.248V66.224H221.552V68.544H216.272V68.704C216.272 69.92 216.005 70.9867 215.472 71.904C214.939 72.8107 214.171 73.536 213.168 74.08C212.176 74.6347 210.981 74.9707 209.584 75.088L208.976 72.752ZM208.832 64.032V61.712H219.968V64.032H208.832ZM230.304 75.472L229.056 61.216L231.776 61.008L233.024 75.264L230.304 75.472ZM223.936 71.76L223.856 69.44L238.16 68.928L238.224 71.248L223.936 71.76ZM224.576 66.08L224.496 63.76L237.52 63.328L237.584 65.648L224.576 66.08ZM41.248 101.528C42.7307 100.845 44.08 100.067 45.296 99.192C46.512 98.3173 47.5893 97.3573 48.528 96.312C49.4667 95.256 50.256 94.1307 50.896 92.936L51.68 93.544H42.16V91.16H53.472V93.544C52.8 94.9627 51.9093 96.312 50.8 97.592C49.6907 98.872 48.4213 100.04 46.992 101.096C45.5733 102.141 44.048 103.016 42.416 103.72L41.248 101.528ZM52.976 103.768C52.3787 103.064 51.7813 102.429 51.184 101.864C50.5973 101.288 49.9893 100.76 49.36 100.28C48.7307 99.8 48.0587 99.3467 47.344 98.92L49.056 97.08C50.0907 97.688 51.0827 98.4027 52.032 99.224C52.992 100.035 53.92 100.957 54.816 101.992L52.976 103.768ZM70.88 100.04C69.2053 99.4747 67.5573 98.9627 65.936 98.504C64.3253 98.0453 62.8107 97.656 61.392 97.336L62.064 94.872C63.6107 95.2133 65.216 95.6187 66.88 96.088C68.544 96.5573 70.1493 97.0587 71.696 97.592L70.88 100.04ZM59.744 104.232V90.248H62.464V104.232H59.744ZM83.792 103.88C82.448 103.88 81.28 103.651 80.288 103.192C79.296 102.733 78.528 102.088 77.984 101.256C77.44 100.424 77.168 99.4427 77.168 98.312C77.168 97.5227 77.296 96.7867 77.552 96.104C77.808 95.4213 78.176 94.8133 78.656 94.28C79.1467 93.7467 79.728 93.32 80.4 93L80.656 93.512L73.696 93.672V91.352L87.344 91.032V93.352L85.296 93.4C84.5493 93.4107 83.8507 93.528 83.2 93.752C82.5493 93.976 81.9787 94.2907 81.488 94.696C80.9973 95.1013 80.6187 95.5867 80.352 96.152C80.0853 96.7067 79.952 97.336 79.952 98.04C79.952 98.7653 80.1013 99.3893 80.4 99.912C80.6987 100.424 81.136 100.819 81.712 101.096C82.2987 101.363 82.9973 101.496 83.808 101.496C84 101.496 84.2133 101.491 84.448 101.48C84.6827 101.459 84.9227 101.437 85.168 101.416C85.4133 101.384 85.6427 101.347 85.856 101.304L86.144 103.688C85.888 103.72 85.6213 103.752 85.344 103.784C85.0667 103.816 84.7947 103.837 84.528 103.848C84.2613 103.869 84.016 103.88 83.792 103.88ZM84.928 99.048C84.672 98.4933 84.4 97.9653 84.112 97.464C83.824 96.9627 83.4933 96.4507 83.12 95.928L84.768 95.032C85.1413 95.5547 85.472 96.072 85.76 96.584C86.0587 97.096 86.3413 97.64 86.608 98.216L84.928 99.048ZM87.536 98.168C87.2907 97.6027 87.0293 97.0693 86.752 96.568C86.4747 96.056 86.16 95.5387 85.808 95.016L87.456 94.168C87.808 94.712 88.1227 95.24 88.4 95.752C88.688 96.264 88.9547 96.8133 89.2 97.4L87.536 98.168ZM97.616 103.912C96.3253 103.912 95.2747 103.715 94.464 103.32C93.6533 102.936 93.056 102.333 92.672 101.512C92.2987 100.68 92.112 99.6133 92.112 98.312V90.68H94.768V98.312C94.768 99.432 94.9867 100.237 95.424 100.728C95.8613 101.208 96.592 101.448 97.616 101.448C98.384 101.448 99.0613 101.304 99.648 101.016C100.235 100.728 100.773 100.253 101.264 99.592C101.765 98.9307 102.261 98.0347 102.752 96.904L105.088 97.912C104.64 99.0213 104.171 99.96 103.68 100.728C103.2 101.485 102.667 102.099 102.08 102.568C101.493 103.037 100.832 103.379 100.096 103.592C99.3707 103.805 98.544 103.912 97.616 103.912ZM107.824 103.672C108.251 102.243 108.635 100.792 108.976 99.32C109.328 97.848 109.637 96.344 109.904 94.808C110.181 93.2613 110.427 91.6773 110.64 90.056L113.232 90.168C113.051 91.736 112.821 93.3093 112.544 94.888C112.277 96.456 111.968 98.0133 111.616 99.56C111.264 101.096 110.869 102.616 110.432 104.12L107.824 103.672ZM118 103.848C116.965 103.848 116.075 103.725 115.328 103.48C114.592 103.245 114.021 102.909 113.616 102.472C113.211 102.024 113.008 101.491 113.008 100.872C113.008 100.445 113.136 100.035 113.392 99.64C113.648 99.2347 114.043 98.824 114.576 98.408L116.784 99.336C116.443 99.56 116.181 99.784 116 100.008C115.819 100.221 115.728 100.419 115.728 100.6C115.728 100.792 115.819 100.957 116 101.096C116.192 101.235 116.459 101.341 116.8 101.416C117.141 101.491 117.541 101.528 118 101.528C118.491 101.528 118.981 101.501 119.472 101.448C119.973 101.395 120.512 101.315 121.088 101.208L121.36 103.528C120.752 103.645 120.187 103.725 119.664 103.768C119.152 103.821 118.597 103.848 118 103.848ZM107.6 94.152V91.912H119.12V94.152H107.6ZM113.744 95.464C115.013 95.3467 116.261 95.2613 117.488 95.208C118.725 95.144 119.957 95.112 121.184 95.112V97.368C119.979 97.368 118.768 97.4 117.552 97.464C116.347 97.5173 115.125 97.6027 113.888 97.72L113.744 95.464Z" fill="#282828"/>
<path opacity="0.6" d="M49.016 126.68C49.016 124.09 50.122 121.808 52.432 119.946C52.558 119.834 52.712 119.778 52.852 119.778C53.118 119.778 53.37 120.016 53.37 120.282C53.37 120.464 53.3 120.59 53.16 120.716C51.144 122.438 50.304 124.384 50.304 126.68C50.304 128.976 51.144 130.922 53.16 132.644C53.3 132.77 53.37 132.896 53.37 133.078C53.37 133.344 53.118 133.582 52.852 133.582C52.712 133.582 52.558 133.526 52.432 133.414C50.122 131.552 49.016 129.27 49.016 126.68ZM58.76 129.564H55.428C54.77 129.564 54.406 129.228 54.406 128.612C54.406 128.234 54.476 127.996 54.714 127.604L57.934 122.172C58.284 121.584 58.606 121.36 59.222 121.36C60.006 121.36 60.314 121.766 60.314 122.592V128.262H61.154C61.644 128.262 61.896 128.486 61.896 128.906C61.896 129.326 61.644 129.564 61.154 129.564H60.314V131.216C60.314 131.72 60.02 132 59.516 132C59.026 132 58.76 131.72 58.76 131.216V129.564ZM58.76 128.262V125.686C58.76 124.748 58.802 123.838 58.872 122.9H58.774C58.41 123.726 58.018 124.524 57.528 125.378L55.876 128.262H58.76ZM66.4152 121.318C68.5432 121.318 69.9572 122.83 69.9572 126.708C69.9572 130.586 68.5432 132.098 66.4152 132.098C64.2872 132.098 62.9012 130.586 62.9012 126.708C62.9012 122.83 64.2872 121.318 66.4152 121.318ZM66.4152 122.718C65.2532 122.718 64.5532 123.698 64.5532 126.708C64.5532 129.718 65.2532 130.698 66.4152 130.698C67.5912 130.698 68.3052 129.718 68.3052 126.708C68.3052 123.698 67.5912 122.718 66.4152 122.718ZM73.0903 132.7V126.092C72.8523 126.456 72.6003 126.806 72.3483 127.114C72.1663 127.338 71.9423 127.436 71.7323 127.436C71.3263 127.436 70.9483 127.1 70.9483 126.694C70.9483 126.526 71.0043 126.358 71.1443 126.176C72.2503 124.804 73.2723 122.69 73.8323 120.814C73.9443 120.45 74.2523 120.282 74.5743 120.282C74.9943 120.282 75.4143 120.548 75.4143 120.996C75.4143 121.066 75.4003 121.15 75.3723 121.234C75.0643 122.284 74.5603 123.46 73.9863 124.552C74.3223 124.594 74.6163 124.79 74.6163 125.154V132.7C74.6163 133.078 74.2383 133.274 73.8603 133.274C73.4683 133.274 73.0903 133.078 73.0903 132.7ZM79.2503 124.258L83.1003 123.922H83.1563C83.5343 123.922 83.7303 124.286 83.7303 124.65C83.7303 124.972 83.5763 125.28 83.2263 125.308L79.4323 125.644C79.6283 126.848 79.9223 127.954 80.3283 128.92C81.1123 130.782 81.7563 131.244 82.1763 131.244C82.3583 131.244 82.5263 131.062 82.6243 130.152C82.6663 129.718 82.9883 129.522 83.3243 129.522C83.7023 129.522 84.1083 129.788 84.1083 130.264V130.362C83.9123 132.308 83.1843 132.896 82.2463 132.896C81.0143 132.896 79.8243 131.72 78.8303 129.34C78.3963 128.29 78.0743 127.1 77.8643 125.77L75.8203 125.952H75.7643C75.3863 125.952 75.1903 125.588 75.1903 125.238C75.1903 124.916 75.3583 124.608 75.6943 124.58L77.6963 124.398C77.5843 123.306 77.5283 122.13 77.5283 120.898C77.5283 120.464 77.9203 120.254 78.3123 120.254C78.7043 120.254 79.0963 120.464 79.0963 120.898C79.0963 122.088 79.1383 123.208 79.2503 124.258ZM80.9023 121.192C81.2803 121.472 81.6303 121.766 81.9243 122.06C82.0923 122.242 82.1763 122.438 82.1763 122.606C82.1763 123.012 81.8123 123.362 81.4203 123.362C81.2523 123.362 81.0703 123.278 80.9163 123.11C80.6223 122.774 80.3143 122.48 79.9643 122.2C79.7963 122.06 79.7123 121.892 79.7123 121.724C79.7123 121.374 80.0483 121.024 80.4403 121.024C80.5943 121.024 80.7483 121.08 80.9023 121.192ZM85.3683 132.42L96.9043 120.156C97.0303 120.03 97.1703 119.932 97.2963 119.932C97.6603 119.932 97.9683 120.226 97.9683 120.506C97.9683 120.66 97.9123 120.8 97.7723 120.94L86.2363 133.204C86.1103 133.33 85.9703 133.428 85.8443 133.428C85.4803 133.428 85.1723 133.134 85.1723 132.854C85.1723 132.7 85.2283 132.56 85.3683 132.42ZM111.408 124.874H109.378C109.238 125.42 109.028 126.12 108.776 126.722C108.412 127.59 107.95 128.388 107.39 129.116C108.524 129.69 109.644 130.334 110.652 131.048C110.918 131.23 111.03 131.482 111.03 131.72C111.03 132.14 110.666 132.546 110.218 132.546C110.05 132.546 109.868 132.49 109.686 132.364C108.636 131.594 107.474 130.88 106.312 130.278C104.744 131.664 102.784 132.462 100.572 132.882C100.502 132.896 100.446 132.896 100.376 132.896C99.9143 132.896 99.6483 132.546 99.6483 132.182C99.6483 131.874 99.8443 131.552 100.278 131.468C102.07 131.118 103.61 130.544 104.856 129.564C104.184 129.284 103.526 129.004 102.84 128.766L102.784 128.864C102.588 129.2 102.294 129.34 102.014 129.34C101.608 129.34 101.216 129.06 101.216 128.654C101.216 128.542 101.244 128.416 101.328 128.276C101.972 127.156 102.546 126.036 103.022 124.874H99.7323C99.3683 124.874 99.1723 124.538 99.1723 124.202C99.1723 123.866 99.3683 123.53 99.7323 123.53H103.54C103.862 122.62 104.142 121.668 104.422 120.646C104.52 120.296 104.842 120.128 105.164 120.128C105.57 120.128 105.976 120.366 105.976 120.786C105.976 120.842 105.962 120.898 105.948 120.968C105.71 121.85 105.458 122.704 105.164 123.53H111.408C111.786 123.53 111.982 123.866 111.982 124.202C111.982 124.538 111.786 124.874 111.408 124.874ZM107.726 124.874H104.674C104.296 125.784 103.904 126.68 103.47 127.562C104.324 127.828 105.164 128.122 105.976 128.472C106.83 127.436 107.404 126.176 107.726 124.874ZM121.18 131.356V128.584H119.052C118.702 128.584 118.534 128.234 118.534 127.898C118.534 127.548 118.702 127.212 119.052 127.212H121.18V124.874H119.57C119.402 125.252 119.22 125.616 119.038 125.952C118.856 126.288 118.562 126.428 118.296 126.428C117.932 126.428 117.596 126.176 117.596 125.784C117.596 125.644 117.638 125.49 117.736 125.322C118.282 124.384 118.716 123.236 118.996 121.976C119.08 121.598 119.388 121.416 119.682 121.416C120.046 121.416 120.41 121.668 120.41 122.088C120.41 122.144 120.41 122.186 120.396 122.242C120.312 122.676 120.2 123.11 120.06 123.53H121.18V120.87C121.18 120.45 121.558 120.24 121.936 120.24C122.314 120.24 122.692 120.45 122.692 120.87V123.53H125.254C125.618 123.53 125.8 123.866 125.8 124.202C125.8 124.538 125.618 124.874 125.254 124.874H122.692V127.212H124.75C125.1 127.212 125.282 127.548 125.282 127.898C125.282 128.234 125.1 128.584 124.75 128.584H122.692V131.356H125.548C125.898 131.356 126.08 131.692 126.08 132.042C126.08 132.378 125.898 132.728 125.548 132.728H117.834C117.498 132.728 117.316 132.378 117.316 132.042C117.316 131.692 117.498 131.356 117.834 131.356H121.18ZM116.294 120.772V132.616C116.294 133.036 115.916 133.246 115.538 133.246C115.146 133.246 114.768 133.036 114.768 132.616V120.772C114.768 120.352 115.146 120.156 115.538 120.156C115.916 120.156 116.294 120.352 116.294 120.772ZM113.452 123.558C113.494 123.236 113.746 123.082 113.998 123.082C114.292 123.082 114.572 123.278 114.572 123.628V123.698C114.516 124.328 114.362 125.168 114.18 125.77C114.082 126.078 113.844 126.218 113.606 126.218C113.312 126.218 113.032 126.008 113.032 125.686C113.032 125.63 113.032 125.56 113.06 125.49C113.242 124.902 113.382 124.104 113.452 123.558ZM117.512 123.012C117.652 123.432 117.778 123.936 117.834 124.314V124.412C117.834 124.79 117.526 125.014 117.246 125.014C117.008 125.014 116.784 124.874 116.728 124.552C116.658 124.132 116.56 123.6 116.462 123.264C116.448 123.208 116.434 123.138 116.434 123.082C116.434 122.788 116.7 122.606 116.966 122.606C117.19 122.606 117.414 122.732 117.512 123.012ZM131.554 126.68C131.554 129.27 130.448 131.552 128.138 133.414C128.012 133.526 127.858 133.582 127.718 133.582C127.452 133.582 127.2 133.344 127.2 133.078C127.2 132.896 127.27 132.77 127.41 132.644C129.426 130.922 130.266 128.976 130.266 126.68C130.266 124.384 129.426 122.438 127.41 120.716C127.27 120.59 127.2 120.464 127.2 120.282C127.2 120.016 127.452 119.778 127.718 119.778C127.858 119.778 128.012 119.834 128.138 119.946C130.448 121.808 131.554 124.09 131.554 126.68Z" fill="#282828"/>
<path d="M61.0002 203L79.0001 161L110.177 161L61.0002 203Z" fill="#FFF464"/>
</svg>
