<svg width="223" height="75" viewBox="0 0 223 75" fill="none" xmlns="http://www.w3.org/2000/svg">
<path d="M58.0045 55.064H57.2845C57.4285 55.656 57.6205 56.248 57.8445 56.808C58.3885 56.424 58.9005 55.992 59.3645 55.544C59.5565 55.352 59.7645 55.272 59.9725 55.272C60.4045 55.272 60.7885 55.64 60.7885 56.056C60.7885 56.232 60.7085 56.424 60.5325 56.6C59.8925 57.192 59.2045 57.72 58.5485 58.152C59.1085 59.032 59.8125 59.768 60.6125 60.312C60.9485 60.552 61.0925 60.84 61.0925 61.112C61.0925 61.544 60.7405 61.912 60.2925 61.912C60.1005 61.912 59.8925 61.848 59.6845 61.704C57.7325 60.312 56.3245 57.912 55.7005 55.064H54.7085V59.848C55.1885 59.72 55.6685 59.592 56.1325 59.432C56.2285 59.4 56.3245 59.384 56.4045 59.384C56.8685 59.384 57.2045 59.784 57.2045 60.184C57.2045 60.44 57.0445 60.712 56.6765 60.856C55.3805 61.352 53.5885 61.848 52.1165 62.12C52.0525 62.136 52.0045 62.136 51.9565 62.136C51.4605 62.136 51.1565 61.688 51.1565 61.272C51.1565 60.936 51.3485 60.616 51.7645 60.536C52.1645 60.456 52.5965 60.376 53.0125 60.28V49.768C53.0125 48.6 53.5565 48.072 54.9165 48.072H57.9725C59.3485 48.072 59.8925 48.6 59.8925 49.768V53.4C59.8925 54.744 59.2525 55.064 58.0045 55.064ZM54.7085 53.624H57.7645C58.1005 53.624 58.1965 53.528 58.1965 53.24V52.248H54.7085V53.624ZM58.1965 50.872V49.928C58.1965 49.64 58.1005 49.544 57.7645 49.544H55.1565C54.8205 49.544 54.7085 49.64 54.7085 49.928V50.872H58.1965ZM48.6765 47.976H50.1645C51.3325 47.976 51.8925 48.456 51.8925 49.32C51.8925 49.528 51.8445 49.768 51.7805 50.04C51.4925 51.096 51.0765 52.184 50.6125 53.128C51.5405 54.04 52.0365 55.304 52.0365 56.52C52.0365 58.328 51.3005 59 50.0365 59C49.7805 59 49.6045 58.984 49.3805 58.952C48.9645 58.888 48.7725 58.52 48.7725 58.168C48.7725 57.768 49.0285 57.352 49.4605 57.352H49.5565C49.6685 57.368 49.7805 57.384 49.8605 57.384C50.1965 57.384 50.3405 57.208 50.3405 56.52C50.3405 55.768 50.0205 54.792 49.3005 54.008C49.0925 53.784 48.9965 53.56 48.9965 53.304C48.9965 53.08 49.0765 52.84 49.2045 52.552C49.5405 51.848 49.8765 50.856 50.1325 49.912C50.1485 49.832 50.1645 49.768 50.1645 49.72C50.1645 49.56 50.0685 49.512 49.8285 49.512H49.0925C48.8045 49.512 48.7245 49.608 48.7245 49.928V61.8C48.7245 62.216 48.2925 62.44 47.8605 62.44C47.4285 62.44 46.9965 62.216 46.9965 61.8V49.528C46.9965 48.456 47.4765 47.976 48.6765 47.976ZM71.3005 57.624V60.216C71.8925 60.28 72.5645 60.312 73.3325 60.312C74.3725 60.312 75.5885 60.248 76.6765 60.136H76.8045C77.3485 60.136 77.6205 60.536 77.6205 60.952C77.6205 61.32 77.3805 61.704 76.9005 61.752C75.7805 61.88 74.6445 61.912 73.3645 61.912C69.7325 61.912 67.8765 61.208 66.5325 59.208C66.0685 60.136 65.5085 61.016 64.8685 61.736C64.6445 61.992 64.3885 62.088 64.1325 62.088C63.6685 62.088 63.2525 61.736 63.2525 61.288C63.2525 61.112 63.3165 60.92 63.4765 60.728C64.6285 59.352 65.5405 57.64 65.9885 55.864C66.0845 55.464 66.4205 55.288 66.7725 55.288C67.2365 55.288 67.6845 55.576 67.6845 56.056C67.6845 56.104 67.6845 56.168 67.6685 56.232C67.5565 56.68 67.4125 57.128 67.2365 57.576C67.7805 58.552 68.4845 59.352 69.5405 59.784V54.072H65.9085C65.5085 54.072 65.3005 53.704 65.3005 53.336C65.3005 52.968 65.5085 52.6 65.9085 52.6H74.9165C75.3325 52.6 75.5245 52.968 75.5245 53.336C75.5245 53.704 75.3325 54.072 74.9165 54.072H71.3005V56.12H74.7565C75.1885 56.12 75.4125 56.488 75.4125 56.872C75.4125 57.24 75.1885 57.624 74.7565 57.624H71.3005ZM69.3965 49.272V48.12C69.3965 47.672 69.8445 47.448 70.2925 47.448C70.7245 47.448 71.1725 47.672 71.1725 48.12V49.272H75.0925C76.5965 49.272 77.1725 49.8 77.1725 50.92V52.024C77.1725 52.488 76.7245 52.712 76.2925 52.712C75.8445 52.712 75.3965 52.488 75.3965 52.024V51.192C75.3965 50.856 75.2525 50.712 74.8045 50.712H65.8605C65.4125 50.712 65.2685 50.856 65.2685 51.192V52.104C65.2685 52.568 64.8205 52.808 64.3885 52.808C63.9405 52.808 63.4925 52.568 63.4925 52.104V50.92C63.4925 49.8 64.0685 49.272 65.5725 49.272H69.3965ZM86.3005 59.348V44.032C85.4325 44.9 84.6205 45.684 83.6125 46.552C83.2205 46.888 82.8565 47.028 82.3805 47.028C81.4285 47.028 80.8125 46.412 80.8125 45.516C80.8125 44.956 80.9805 44.62 81.4565 44.228C82.9685 43.052 84.2285 42.016 85.6845 40.7C86.3285 40.112 86.8605 39.776 87.7565 39.776C88.9605 39.776 89.6045 40.56 89.6045 41.68V59.348C89.6045 60.44 88.9885 61 87.9245 61C86.8605 61 86.3005 60.44 86.3005 59.348ZM104.915 39.636C109.171 39.636 111.999 42.66 111.999 50.416C111.999 58.172 109.171 61.196 104.915 61.196C100.659 61.196 97.8868 58.172 97.8868 50.416C97.8868 42.66 100.659 39.636 104.915 39.636ZM104.915 42.436C102.591 42.436 101.191 44.396 101.191 50.416C101.191 56.436 102.591 58.396 104.915 58.396C107.267 58.396 108.695 56.436 108.695 50.416C108.695 44.396 107.267 42.436 104.915 42.436ZM122.605 39.636C126.861 39.636 129.689 42.66 129.689 50.416C129.689 58.172 126.861 61.196 122.605 61.196C118.349 61.196 115.577 58.172 115.577 50.416C115.577 42.66 118.349 39.636 122.605 39.636ZM122.605 42.436C120.281 42.436 118.881 44.396 118.881 50.416C118.881 56.436 120.281 58.396 122.605 58.396C124.957 58.396 126.385 56.436 126.385 50.416C126.385 44.396 124.957 42.436 122.605 42.436ZM138.787 52.376L143.843 51.48C144.019 51.448 144.179 51.432 144.339 51.432C145.299 51.432 145.891 51.992 145.891 52.808C145.891 53.128 145.795 53.496 145.603 53.88C145.027 55 144.179 56.136 143.267 56.92C143.043 57.112 142.803 57.192 142.595 57.192C142.099 57.192 141.699 56.792 141.699 56.344C141.699 56.104 141.811 55.832 142.083 55.608C142.787 55 143.395 54.248 143.795 53.512C143.827 53.432 143.859 53.384 143.859 53.336C143.859 53.256 143.795 53.208 143.683 53.208C143.651 53.208 143.603 53.224 143.555 53.224L138.787 54.072V58.424C138.787 59.368 138.995 59.608 140.419 59.608C141.971 59.608 143.251 59.496 144.595 59.256C144.659 59.24 144.723 59.24 144.787 59.24C145.299 59.24 145.587 59.656 145.587 60.104C145.587 60.488 145.347 60.888 144.819 60.984C143.395 61.24 142.099 61.32 140.579 61.32C137.587 61.32 136.931 60.536 136.931 58.728V54.408L134.147 54.904C134.083 54.92 134.035 54.92 133.971 54.92C133.459 54.92 133.171 54.472 133.171 54.04C133.171 53.688 133.379 53.32 133.843 53.24L136.931 52.696V48.808C136.931 48.264 137.395 48.008 137.859 48.008C138.323 48.008 138.787 48.264 138.787 48.808V52.376ZM153.251 52.568C153.667 53.224 154.099 54.024 154.371 54.76C154.403 54.856 154.419 54.952 154.419 55.048C154.419 55.512 153.955 55.832 153.507 55.832C153.203 55.832 152.915 55.688 152.771 55.336C152.483 54.632 152.115 53.88 151.747 53.272C151.667 53.144 151.635 53.016 151.635 52.888C151.635 52.472 152.067 52.152 152.515 52.152C152.787 52.152 153.075 52.28 153.251 52.568ZM156.419 51.816C156.819 52.488 157.203 53.256 157.443 53.992C157.475 54.088 157.491 54.184 157.491 54.264C157.491 54.728 157.043 55.032 156.611 55.032C156.307 55.032 156.003 54.872 155.875 54.504C155.603 53.784 155.267 53.08 154.915 52.472C154.835 52.344 154.803 52.216 154.803 52.104C154.803 51.688 155.219 51.4 155.667 51.4C155.955 51.4 156.243 51.512 156.419 51.816ZM160.067 52.456C160.179 52.056 160.499 51.896 160.851 51.896C161.299 51.896 161.779 52.184 161.779 52.664C161.779 52.728 161.763 52.792 161.747 52.872C160.739 56.648 158.195 60.008 155.123 61.672C154.963 61.752 154.819 61.8 154.675 61.8C154.211 61.8 153.859 61.384 153.859 60.952C153.859 60.664 154.003 60.376 154.355 60.184C157.219 58.568 159.123 55.928 160.067 52.456ZM173.283 48.824V53.32C173.443 53.032 173.731 52.824 174.067 52.824C174.211 52.824 174.339 52.856 174.483 52.92C175.475 53.368 176.867 54.184 177.875 54.968C178.195 55.208 178.323 55.512 178.323 55.8C178.323 56.312 177.923 56.744 177.411 56.744C177.203 56.744 176.963 56.68 176.739 56.504C175.811 55.8 174.451 54.968 173.747 54.584C173.523 54.456 173.379 54.312 173.283 54.136V61.032C173.283 61.592 172.819 61.864 172.339 61.864C171.875 61.864 171.395 61.592 171.395 61.032V48.824C171.395 48.264 171.875 47.976 172.339 47.976C172.819 47.976 173.283 48.264 173.283 48.824Z" fill="#E60012"/>
<path d="M38 62.5L1 25.5" stroke="black" stroke-width="2" stroke-linecap="round"/>
<path d="M185 62.5L222 25.5" stroke="black" stroke-width="2" stroke-linecap="round"/>
<g clip-path="url(#clip0_1382_10328)">
<path d="M136.707 24.0544C136.707 24.0927 136.703 24.1309 136.707 24.1564C136.707 24.1606 136.707 24.1691 136.707 24.1734L136.694 25.1378C136.694 25.1378 136.694 25.1463 136.694 25.1505C136.69 25.193 136.694 25.2355 136.694 25.278C136.694 25.3459 136.694 25.4182 136.673 25.4861C136.664 25.5116 136.647 25.5286 136.625 25.5456C136.556 25.5881 136.474 25.5966 136.417 25.5966C136.387 25.5966 136.353 25.5966 136.322 25.5966C136.288 25.5966 136.249 25.5923 136.219 25.5966L135.232 25.6093H135.228C135.12 25.6051 131.548 25.5923 130.107 25.5923C129.995 25.5923 129.891 25.5923 129.783 25.5923C129.714 25.5923 129.649 25.5923 129.584 25.5923C129.437 25.5923 129.329 25.5923 129.225 25.5839C129.169 25.5839 129.104 25.5839 129.039 25.5923C128.979 25.5923 128.918 25.6008 128.862 25.6008C128.754 25.6008 128.676 25.5839 128.615 25.5541C128.572 25.5244 128.473 25.4649 128.512 24.9763V23.2005C128.512 23.0688 128.512 22.7587 128.512 22.3763C128.512 21.4884 128.516 20.2734 128.52 20.0015C128.52 19.9803 128.52 19.8825 128.52 19.7551C128.52 19.2283 128.52 19.0329 128.525 18.9819V18.3149C128.525 18.2172 128.525 17.8646 128.525 17.512C128.525 17.1381 128.525 16.76 128.525 16.6963V16.4881C128.525 16.008 128.525 15.1074 128.538 14.8652C128.538 14.81 128.585 14.7633 128.641 14.7548C128.685 14.7505 128.823 14.742 129.563 14.742C130.168 14.742 130.951 14.7463 131.478 14.7505H131.686H132.59C132.824 14.7505 133.178 14.7505 133.533 14.7505C133.887 14.7505 134.242 14.7505 134.476 14.7505H134.489C134.878 14.7463 135.596 14.7335 136.028 14.7335C136.275 14.7335 136.34 14.7335 136.366 14.7378C136.426 14.742 136.474 14.793 136.478 14.8525C136.478 14.8822 136.478 14.912 136.482 14.9417C136.487 15.0054 136.491 15.0734 136.487 15.1626C136.487 15.2263 136.487 15.3198 136.487 15.4133C136.491 15.562 136.495 15.7149 136.487 15.8296C136.478 15.8891 136.487 15.9698 136.487 16.0505C136.495 16.1822 136.504 16.3309 136.461 16.4626C136.448 16.5008 136.422 16.5263 136.383 16.5391C136.335 16.5561 136.288 16.5603 136.249 16.5603C136.236 16.5603 136.219 16.5603 136.206 16.5603C136.18 16.5603 136.158 16.5603 136.132 16.5603C136.024 16.5731 135.574 16.5773 134.718 16.5773C134.259 16.5773 133.762 16.5773 133.347 16.5773C132.88 16.5773 132.521 16.5773 132.439 16.5773C132.33 16.5773 132.214 16.5773 132.106 16.5773C131.976 16.5773 131.842 16.5731 131.725 16.5773C131.63 16.5773 131.509 16.5816 131.349 16.5816C131.254 16.5816 131.154 16.5816 131.055 16.5816C130.925 16.5816 130.804 16.5816 130.7 16.5816C130.687 16.9724 130.696 18.1874 130.722 18.591C131.128 18.6123 132.893 18.6165 133.684 18.6208C134.082 18.6208 134.255 18.6208 134.285 18.6208C134.566 18.6335 134.856 18.6378 135.034 18.625H135.968C136.033 18.6335 136.084 18.6803 136.089 18.744C136.093 18.8035 136.093 18.8629 136.097 18.9182C136.097 18.9649 136.097 19.0116 136.102 19.0626C136.115 19.241 136.106 19.428 136.102 19.6234C136.102 19.7084 136.097 19.8018 136.097 19.8953C136.097 20.0057 136.097 20.2989 136.097 20.2989C136.097 20.3329 136.084 20.3626 136.063 20.3839C136.041 20.4093 136.007 20.4221 135.976 20.4221C135.976 20.4221 135.738 20.4221 135.682 20.4221H135.674C135.302 20.4221 134.086 20.4221 134.017 20.4306H134.009C133.905 20.4306 133.684 20.4263 133.464 20.4221C133.23 20.4221 132.996 20.4221 132.888 20.4136C132.724 20.4136 132.413 20.4136 132.132 20.4136C131.885 20.4136 131.6 20.4136 131.535 20.4136C131.392 20.4136 131.223 20.4178 131.059 20.4178C130.942 20.4178 130.825 20.4178 130.713 20.4178C130.717 20.7705 130.704 21.5182 130.7 21.8283V21.9005C130.7 21.9303 130.7 22.0067 130.7 22.1979C130.7 22.508 130.687 23.0306 130.7 23.1793C130.709 23.2515 130.7 23.3407 130.7 23.4257C130.7 23.5064 130.691 23.6126 130.7 23.6763C130.735 23.6763 130.769 23.6806 130.817 23.6806H130.912C130.938 23.6806 130.968 23.6806 130.998 23.6806C131.176 23.6806 131.647 23.6848 131.881 23.6848H131.997C132.426 23.6848 132.971 23.6891 133.52 23.6933C134.065 23.6933 134.614 23.6976 135.038 23.7018H136.167C136.167 23.7018 136.175 23.7018 136.18 23.7018C136.214 23.7018 136.257 23.7018 136.296 23.6976C136.335 23.6976 136.374 23.6933 136.413 23.6933C136.482 23.6933 136.539 23.7061 136.59 23.7273C136.725 23.7953 136.716 23.9482 136.707 24.0587V24.0544ZM105.776 25.4097C105.793 25.4437 105.789 25.4861 105.767 25.5201C105.746 25.5541 105.711 25.5754 105.672 25.5754C105.659 25.5754 105.33 25.5966 105.101 25.5881H104.215H104.193C104.137 25.5881 104.085 25.5881 104.033 25.5881C103.985 25.5881 103.933 25.5881 103.89 25.5881C103.786 25.5881 103.708 25.5881 103.639 25.5796C103.6 25.5796 103.566 25.5541 103.544 25.5244C103.488 25.4352 103.401 25.2482 103.289 24.9721C103.224 24.8064 103.155 24.628 103.086 24.441C102.978 24.1479 102.865 23.842 102.744 23.5744C102.58 23.5744 102.428 23.5829 102.281 23.5871C102.143 23.5914 102.004 23.5999 101.862 23.5999C101.637 23.5999 100.945 23.6169 100.677 23.6084C100.478 23.5999 100.257 23.6041 100.028 23.6084C99.8118 23.6084 99.5912 23.6084 99.3836 23.6084H98.6181L98.5878 23.6041C98.5446 23.6041 98.5057 23.6041 98.4711 23.6041C98.3889 23.7995 98.2851 24.0544 98.2678 24.1182C98.2202 24.2923 98.1424 24.475 98.0689 24.6535C98.0213 24.7682 97.978 24.8744 97.9391 24.9806C97.9218 25.0273 97.9045 25.0783 97.8872 25.1293C97.8396 25.2652 97.7921 25.4054 97.7229 25.5414C97.7013 25.5796 97.6623 25.6093 97.6148 25.6093C97.4937 25.6093 97.4072 25.6093 97.325 25.6093C97.2428 25.6093 97.1693 25.6093 97.0741 25.6093H96.9574C96.8233 25.6093 96.6849 25.6093 96.5422 25.6093C96.3822 25.6093 96.2178 25.6093 96.0621 25.6093H96.0492C95.9929 25.6051 95.9194 25.6051 95.8416 25.6008C95.7594 25.6008 95.6729 25.6008 95.5907 25.5923C95.5518 25.5923 95.5172 25.5669 95.4956 25.5371C95.4739 25.5031 95.4696 25.4649 95.4869 25.4267C95.5907 25.176 95.768 24.7342 95.8199 24.5812C95.8978 24.3603 95.9713 24.1522 96.0448 23.9525C96.0924 23.8165 96.1443 23.6848 96.1919 23.5446C96.2048 23.5022 96.2567 23.3747 96.3173 23.2175C96.4124 22.9796 96.5249 22.6865 96.5638 22.5633C96.646 22.2956 96.7498 22.0407 96.8493 21.7986C96.8709 21.7433 97.0698 21.2208 97.152 20.9999L97.1909 20.8979C97.2428 20.7662 97.2861 20.6303 97.3293 20.5028C97.3942 20.3031 97.4634 20.0992 97.5542 19.8868L97.6018 19.7763C97.6667 19.6319 97.7315 19.4832 97.7748 19.3515C97.8613 19.0796 97.9694 18.8162 98.0732 18.5571C98.1727 18.3106 98.2765 18.0515 98.3586 17.7966C98.6873 16.7897 99.0895 15.8041 99.509 14.793C99.5263 14.7505 99.5696 14.7208 99.6172 14.7208C99.6777 14.7208 99.7296 14.7208 99.7945 14.7208H99.9675C100.041 14.7208 100.132 14.7208 100.244 14.7208C100.655 14.7208 101.165 14.7208 101.555 14.7463C101.607 14.7463 101.65 14.7803 101.663 14.8312C101.728 15.0309 102.13 16.0463 102.346 16.5943C102.428 16.7982 102.485 16.9469 102.493 16.9682L102.523 17.0574C102.597 17.2571 102.675 17.4652 102.753 17.6734C102.792 17.7754 102.887 18.009 103.012 18.3276C103.445 19.411 104.245 21.4247 104.526 22.2744C104.548 22.3423 104.807 23.0306 104.915 23.2897C104.932 23.3322 105.006 23.5234 105.092 23.7486C105.166 23.9482 105.248 24.1606 105.296 24.2839C105.339 24.3773 105.551 24.9339 105.611 25.1123C105.642 25.2015 105.75 25.4437 105.75 25.4437L105.776 25.4097ZM102.074 21.7348C101.983 21.4714 101.901 21.242 101.819 21.0338C101.801 20.9914 101.793 20.9531 101.78 20.9191C101.771 20.8894 101.762 20.8639 101.754 20.8469L101.555 20.3329C101.447 20.0227 101.334 19.7211 101.222 19.4322C101.075 19.0371 100.919 18.6293 100.785 18.2129L100.577 17.5205C100.547 17.6224 100.512 17.7244 100.482 17.8178C100.443 17.941 100.404 18.0642 100.361 18.1917C100.3 18.3701 100.24 18.5571 100.184 18.7397C100.184 18.7397 100.184 18.7482 100.184 18.7525L100.024 19.1646C99.9934 19.241 99.9675 19.326 99.9372 19.4067C99.8896 19.5512 99.8377 19.6999 99.7772 19.8401C99.7642 19.8868 99.7253 19.993 99.6258 20.2649C99.5782 20.3923 99.5307 20.5155 99.5047 20.5963C99.4874 20.6472 99.4744 20.6982 99.4615 20.7535C99.4442 20.8172 99.4312 20.8852 99.4009 20.9574C99.3577 21.0678 99.3188 21.1783 99.2798 21.2972C99.2323 21.4332 99.1847 21.5776 99.1285 21.7178C99.1198 21.7391 99.1112 21.7561 99.1025 21.7773C99.0939 21.7986 99.0852 21.8198 99.0766 21.841C99.1674 21.8453 99.2669 21.8495 99.388 21.8495C99.4701 21.8495 99.5523 21.8495 99.6345 21.8495C99.721 21.8495 99.8118 21.8495 99.9026 21.8495H99.9588C100.037 21.8495 100.119 21.8495 100.201 21.8538C100.361 21.8538 100.534 21.8623 100.707 21.8538H101.114C101.291 21.8538 101.49 21.8495 101.68 21.8453C101.823 21.8453 101.97 21.8368 102.113 21.8368C102.104 21.8071 102.095 21.7773 102.082 21.7476L102.074 21.7348ZM188.731 24.662L188.459 24.1564C188.325 23.9227 188.182 23.6806 188.039 23.4469C187.931 23.2685 187.823 23.0858 187.719 22.9116C187.706 22.8861 187.676 22.8437 187.646 22.7884C187.537 22.6057 187.338 22.2701 187.291 22.1639C187.282 22.1384 187.252 22.0832 187.092 21.8155C186.967 21.6031 186.811 21.3355 186.724 21.174L186.681 21.0933C186.621 20.9829 186.564 20.8767 186.495 20.7705C186.417 20.609 185.98 19.8188 185.803 19.5214C185.76 19.4492 185.712 19.377 185.665 19.3005C185.539 19.1051 185.397 18.8884 185.336 18.6845C185.362 18.6548 185.401 18.6208 185.431 18.591C185.449 18.574 185.461 18.5613 185.479 18.5486C185.57 18.4593 185.647 18.3659 185.725 18.2767C185.79 18.2002 185.859 18.1195 185.929 18.043C185.993 17.975 186.05 17.9028 186.102 17.8348C186.136 17.7881 186.175 17.7414 186.214 17.6946C186.262 17.6394 186.313 17.5842 186.361 17.5332C186.443 17.444 186.525 17.3548 186.603 17.2571C186.651 17.1933 186.85 16.9767 187.044 16.7685C187.252 16.5433 187.464 16.3139 187.568 16.1907C187.719 16.0123 187.879 15.8381 188.052 15.6512C188.268 15.4133 188.498 15.1711 188.696 14.9162C188.727 14.8822 188.731 14.8312 188.709 14.7888C188.688 14.7463 188.649 14.7208 188.601 14.7208C188.489 14.7208 188.385 14.7208 188.29 14.7165C188.186 14.7165 188.095 14.7123 188.009 14.7123H186.763C186.543 14.7123 186.361 14.7123 186.192 14.7293C186.162 14.7293 186.132 14.7463 186.11 14.7718C186.067 14.8227 186.024 14.8737 185.976 14.9289C185.933 14.9842 185.881 15.0352 185.833 15.0904C185.794 15.1329 185.756 15.1754 185.717 15.2221C185.617 15.3368 185.509 15.4557 185.405 15.5662C185.263 15.7191 185.115 15.8763 184.986 16.0378L184.281 16.7982C184.281 16.7982 184.276 16.8025 184.272 16.811C184.164 16.9554 184.039 17.0871 183.905 17.2231C183.835 17.2953 183.766 17.3675 183.697 17.444C183.26 17.9283 182.849 18.3871 182.46 18.8077C182.456 18.6548 182.451 18.4721 182.447 18.3489V18.2767C182.447 18.2172 182.447 18.1492 182.447 18.077C182.447 17.958 182.447 17.8221 182.443 17.6946L182.43 15.8126C182.425 15.6639 182.425 15.5195 182.43 15.3793C182.43 15.1881 182.43 15.0054 182.412 14.844C182.408 14.7972 182.374 14.759 182.33 14.7463C182.252 14.7165 182.166 14.7165 182.101 14.7165C182.075 14.7165 182.049 14.7165 182.023 14.7165C181.976 14.7165 181.941 14.7165 181.88 14.7165C181.785 14.7165 181.621 14.7165 181.439 14.7165C181.119 14.7165 180.721 14.7165 180.574 14.708C180.566 14.708 180.553 14.708 180.544 14.708C180.531 14.708 180.501 14.708 180.479 14.708C180.44 14.708 180.397 14.708 180.362 14.7165C180.306 14.7293 180.267 14.776 180.267 14.8355C180.267 14.9374 180.267 15.0352 180.267 15.1371C180.267 15.3071 180.263 15.4855 180.267 15.6767V16.2035C180.241 16.4881 180.259 17.7456 180.263 17.8858C180.254 18.0303 180.254 18.1407 180.254 18.2809C180.254 18.3361 180.254 18.3956 180.254 18.4636C180.254 19.1221 180.25 19.7806 180.246 20.4391C180.228 20.5665 180.228 21.0508 180.237 21.7858C180.237 21.9048 180.237 21.994 180.237 22.0407V23.7953C180.237 23.8633 180.237 24.7087 180.25 25.0655C180.25 25.108 180.25 25.1718 180.25 25.244C180.25 25.3374 180.25 25.4352 180.254 25.4989C180.254 25.5626 180.311 25.6136 180.375 25.6136H181.677C181.751 25.6136 181.82 25.6136 181.889 25.6136H182.3C182.365 25.6136 182.417 25.5669 182.421 25.5074C182.434 25.3799 182.43 25.1888 182.421 24.9891C182.417 24.8106 182.408 24.6195 182.421 24.4963C182.421 24.4963 182.421 24.492 182.421 24.4878L182.438 21.9303C182.438 21.9303 182.46 21.9048 182.473 21.892C182.49 21.875 182.512 21.858 182.525 21.8368C182.598 21.7433 182.676 21.6584 182.754 21.5649C182.836 21.4757 182.918 21.3822 183.001 21.276C183.018 21.259 183.057 21.2165 183.122 21.1443C183.238 21.0126 183.559 20.6515 183.719 20.5071C183.818 20.66 183.9 20.8214 183.987 20.9914C184.073 21.1613 184.164 21.3355 184.268 21.5012C184.346 21.6201 184.411 21.7433 184.475 21.875C184.523 21.9642 184.571 22.0577 184.627 22.1512L184.744 22.3551C184.938 22.6907 185.141 23.0433 185.332 23.3789C185.461 23.6126 185.82 24.2796 185.872 24.3816C185.959 24.5388 186.054 24.7002 186.149 24.8531C186.192 24.9254 186.236 24.9933 186.279 25.0655C186.305 25.1123 186.331 25.1633 186.357 25.2142C186.422 25.3459 186.491 25.4819 186.612 25.5796C186.634 25.5966 186.659 25.6051 186.69 25.6051H188.472C188.498 25.6051 188.541 25.6051 188.588 25.6051C188.627 25.6051 188.671 25.6051 188.714 25.6051C188.844 25.6051 189.112 25.6051 189.129 25.4139C189.129 25.3927 189.129 25.3714 189.116 25.3502C188.986 25.091 188.844 24.8616 188.718 24.6662L188.731 24.662ZM199.388 21.7306C199.37 21.6796 199.357 21.6244 199.344 21.5691C199.331 21.5224 199.271 21.3015 199.232 21.225C198.683 19.9972 197.558 19.5384 196.148 19.0669C196.031 19.0286 195.919 18.9989 195.815 18.9776C195.72 18.9564 195.616 18.9309 195.508 18.8969C195.119 18.7695 194.617 18.6038 194.172 18.4169C193.934 18.3191 193.601 18.1365 193.445 17.9963C193.285 17.8518 193.229 17.7371 193.164 17.5332C193.108 17.359 193.229 17.0956 193.32 16.9597C193.588 16.5731 194.141 16.3564 194.782 16.3946C195.664 16.4456 196.421 16.8577 196.832 17.2273L196.922 17.308C197.052 17.4227 197.165 17.5205 197.299 17.6776C197.312 17.6904 197.32 17.7031 197.329 17.7159C197.368 17.7626 197.411 17.8178 197.519 17.9198C197.567 17.9623 197.636 17.9665 197.684 17.924C197.887 17.7541 198.099 17.5884 198.306 17.4312C198.432 17.3335 198.553 17.2401 198.674 17.1423C198.717 17.1084 198.786 17.0531 198.856 17.0022C198.933 16.9427 199.016 16.8789 199.068 16.8365C199.098 16.8152 199.115 16.777 199.111 16.743C199.111 16.6368 199.037 16.5476 198.99 16.4839C198.981 16.4711 198.972 16.4584 198.964 16.4499C198.843 16.2714 198.696 16.1142 198.549 15.9571L198.523 15.9273C198.523 15.9273 198.51 15.9146 198.501 15.9103C198.488 15.9018 198.462 15.8806 198.44 15.8593C198.406 15.8296 198.38 15.8084 198.363 15.7914C197.658 15.1329 196.97 14.8482 196.014 14.5806C195.66 14.4871 195.417 14.4616 195.006 14.4404L194.414 14.4234H194.401C194.176 14.4404 193.947 14.4616 193.713 14.4786C193.181 14.5593 192.619 14.759 192.277 14.9799C191.443 15.5365 190.647 16.6453 190.924 18.1025C190.932 18.1365 190.937 18.1705 190.941 18.2087C190.958 18.3234 190.98 18.4423 191.032 18.5613C191.278 19.1561 191.681 19.6319 192.26 20.0227C192.269 20.027 192.277 20.0355 192.286 20.0355C192.295 20.0355 192.316 20.0525 192.334 20.061C192.36 20.078 192.386 20.0907 192.412 20.0992C192.585 20.1969 192.736 20.2691 192.952 20.3499C192.974 20.3584 193.013 20.3711 193.043 20.3881C193.082 20.4051 193.121 20.4221 193.155 20.4306C193.735 20.6982 194.384 20.8937 195.015 21.0848C195.158 21.1273 195.301 21.1698 195.439 21.2123L195.482 21.225C196.183 21.4417 196.909 21.6669 197.126 22.3169C197.156 22.4103 197.156 22.525 197.156 22.6015C197.143 22.9923 196.957 23.1963 196.754 23.3874C196.356 23.7528 195.785 23.8293 195.374 23.8293C194.518 23.8293 193.553 23.4937 193.073 23.0391C192.883 22.8564 192.602 22.5845 192.472 22.3466C192.446 22.2956 192.368 22.1682 192.295 22.0492C192.239 21.96 192.182 21.8665 192.169 21.8368C192.152 21.8071 192.126 21.7858 192.096 21.7773C192.061 21.7688 192.027 21.7731 192.001 21.7901C191.94 21.824 191.858 21.8708 191.78 21.9133C191.689 21.96 191.611 22.0067 191.577 22.028C191.421 22.1299 191.261 22.2234 191.105 22.3126C190.945 22.4061 190.781 22.5038 190.621 22.6057C190.591 22.627 190.56 22.644 190.526 22.6652C190.409 22.7374 190.279 22.8182 190.189 22.9031C190.154 22.9329 190.141 22.9796 190.15 23.0263C190.193 23.1835 190.297 23.328 190.379 23.4427L190.405 23.4809C190.712 23.9142 190.976 24.2456 191.417 24.6407C191.447 24.6662 191.482 24.6917 191.516 24.7172C191.538 24.7299 191.555 24.7469 191.573 24.7597C191.629 24.8064 191.702 24.8531 191.754 24.8829C191.793 24.9041 191.828 24.9254 191.867 24.9508C191.918 24.9806 191.97 25.0146 192.027 25.0443C192.459 25.2822 192.87 25.4564 193.281 25.5754C193.917 25.758 194.669 25.86 195.391 25.86C196.157 25.86 196.853 25.7495 197.394 25.5371C198.181 25.2312 198.799 24.6705 199.137 23.9652C199.236 23.7571 199.31 23.5149 199.375 23.3025C199.413 23.1708 199.435 23.0603 199.461 22.9116C199.496 22.695 199.496 22.4231 199.496 22.3126C199.483 22.0662 199.431 21.8963 199.383 21.7306H199.388ZM165.61 19.8783C165.641 20.2394 165.623 20.4986 165.584 20.9744C165.567 21.1486 165.528 21.3695 165.511 21.4587C165.407 21.9855 165.23 22.5378 165.005 23.0178C164.616 23.8463 163.988 24.5345 163.093 25.1208C162.955 25.21 162.773 25.2907 162.721 25.312C162.432 25.4352 162.168 25.5244 161.696 25.6263C161.536 25.6646 161.355 25.6943 161.182 25.7198C161.121 25.7283 161.056 25.7368 160.996 25.7495C160.991 25.7495 160.983 25.7495 160.978 25.7495L160.611 25.758C160.49 25.7708 160.364 25.775 160.239 25.775C159.612 25.775 158.928 25.6348 158.15 25.3502C156.839 24.8701 155.866 23.9397 155.334 22.661C155.235 22.4273 155.17 22.1852 155.097 21.9303C155.066 21.8198 155.032 21.7051 154.997 21.5904C154.997 21.5861 154.997 21.5776 154.997 21.5734C154.988 21.5267 154.98 21.4757 154.967 21.4289C154.954 21.3737 154.945 21.3227 154.937 21.2633C154.88 20.9786 154.863 20.6982 154.872 20.2989L154.885 19.8316C154.867 19.5682 154.919 19.1093 154.975 18.8544L155.01 18.693C155.097 18.3064 155.183 17.9028 155.339 17.5502C155.975 16.0972 157.09 15.0352 158.409 14.6401C158.729 14.5423 159.054 14.4914 159.4 14.4319L159.568 14.4022C159.568 14.4022 159.577 14.4022 159.581 14.4022L160.235 14.3682H160.243C162.146 14.4276 163.608 15.1669 164.585 16.5646C164.806 16.8789 165.035 17.2188 165.182 17.5927C165.312 17.9071 165.416 18.2682 165.498 18.6633C165.498 18.6633 165.498 18.6718 165.498 18.676L165.524 18.9054C165.576 19.1178 165.589 19.36 165.597 19.5979C165.597 19.6914 165.606 19.7848 165.61 19.874V19.8783ZM162.414 17.1423C161.835 16.5306 161.043 16.2247 160.062 16.2417L159.729 16.2757C159.478 16.3182 159.227 16.4116 159.002 16.4881C158.924 16.5178 158.816 16.5731 158.742 16.6198C158.613 16.7048 158.509 16.7812 158.401 16.8662C158.042 17.1508 157.674 17.6437 157.51 18.0642C156.766 19.9633 157.116 22.1512 158.323 23.1453C158.358 23.175 158.401 23.2005 158.448 23.226C158.492 23.2515 158.531 23.277 158.574 23.3067C159.106 23.6933 159.841 23.9015 160.481 23.8335C161.8 23.6976 162.695 22.9754 163.145 21.6839C163.275 21.31 163.318 20.8512 163.353 20.4093C163.452 19.0456 163.119 17.8816 162.41 17.1339L162.414 17.1423ZM178.036 19.8783C178.062 20.2394 178.049 20.4986 178.005 20.9744C177.988 21.1486 177.949 21.3695 177.932 21.4587C177.828 21.9855 177.651 22.5378 177.426 23.0178C177.037 23.8463 176.41 24.5345 175.51 25.1208C175.372 25.21 175.19 25.2907 175.138 25.312C174.848 25.4352 174.584 25.5244 174.113 25.6263C173.953 25.6646 173.771 25.6943 173.598 25.7198C173.538 25.7283 173.473 25.7368 173.412 25.7495C173.408 25.7495 173.399 25.7495 173.395 25.7495L173.027 25.758C172.906 25.7708 172.781 25.775 172.656 25.775C172.028 25.775 171.345 25.6348 170.567 25.3502C169.256 24.8701 168.283 23.9397 167.751 22.661C167.652 22.4273 167.587 22.1852 167.518 21.9303C167.487 21.8155 167.453 21.7051 167.418 21.5904C167.418 21.5861 167.418 21.5776 167.414 21.5734C167.405 21.5267 167.396 21.4757 167.388 21.4289C167.375 21.3737 167.366 21.3185 167.358 21.2633C167.301 20.9786 167.284 20.6982 167.293 20.2989L167.306 19.8316C167.288 19.5682 167.34 19.1093 167.396 18.8544L167.431 18.693C167.518 18.3064 167.604 17.9028 167.76 17.5502C168.396 16.0972 169.511 15.0352 170.83 14.6401C171.15 14.5423 171.475 14.4914 171.821 14.4319L171.99 14.4022C171.99 14.4022 171.998 14.4022 172.002 14.4022L172.656 14.3682C172.656 14.3682 172.664 14.3682 172.669 14.3682C174.571 14.4276 176.033 15.1669 177.011 16.5646C177.231 16.8789 177.46 17.2188 177.612 17.5927C177.737 17.9071 177.845 18.2682 177.928 18.6633C177.928 18.6633 177.928 18.6718 177.928 18.676L177.953 18.9054C178.005 19.1178 178.018 19.36 178.027 19.5979C178.027 19.6914 178.036 19.7848 178.04 19.874L178.036 19.8783ZM174.84 17.1423C174.26 16.5306 173.469 16.2247 172.487 16.2417L172.158 16.2757C171.907 16.3224 171.652 16.4116 171.427 16.4923C171.349 16.5221 171.237 16.5773 171.168 16.624C171.038 16.709 170.934 16.7855 170.826 16.8705C170.467 17.1551 170.1 17.6479 169.935 18.0685C169.191 19.9675 169.542 22.1554 170.748 23.1495C170.783 23.1793 170.826 23.2048 170.869 23.2303C170.913 23.2557 170.952 23.2812 170.995 23.311C171.527 23.6976 172.262 23.9057 172.902 23.8378C174.221 23.7018 175.116 22.9796 175.566 21.6881C175.696 21.3142 175.739 20.8554 175.774 20.4136C175.873 19.0499 175.54 17.8858 174.831 17.1381L174.84 17.1423ZM126.111 17.0106C126.12 16.6453 126.133 16.2672 126.098 15.8976C126.09 15.7829 126.098 15.6639 126.098 15.5365C126.103 15.4005 126.111 15.2603 126.098 15.1244C126.098 15.0946 126.098 15.0649 126.098 15.0267C126.098 14.9417 126.103 14.8397 126.051 14.759C126.029 14.725 125.995 14.708 125.956 14.7038C125.865 14.6995 125.761 14.691 125.64 14.691C125.553 14.691 125.467 14.691 125.385 14.6953C125.095 14.7038 124.905 14.6953 124.658 14.6995C124.598 14.6995 124.546 14.6995 124.494 14.6995H124.299C124.226 14.6995 124.148 14.6995 124.066 14.6995C124.018 14.6995 124.001 14.6995 123.975 14.6995C123.914 14.708 123.867 14.759 123.867 14.8227C123.867 14.8907 123.867 14.9714 123.867 15.0649C123.867 15.1754 123.867 15.2986 123.867 15.3963L123.854 16.7388L123.841 19.874V20.078C123.828 20.4858 123.836 21.3015 123.841 21.4374C123.841 21.5267 123.836 21.6116 123.832 21.6966C123.828 21.8708 123.819 22.0492 123.806 22.2234C123.728 22.6312 123.616 22.9031 123.439 23.1071C123.14 23.4469 122.716 23.6551 122.059 23.7825C121.908 23.8123 121.735 23.8293 121.553 23.8293C121.501 23.8293 121.449 23.8293 121.397 23.825C121.22 23.8165 120.839 23.7698 120.688 23.7358C120.182 23.6211 119.52 23.3747 119.265 22.8394C119.127 22.5548 119.092 22.1427 119.079 21.7433C119.079 21.6201 119.079 21.4842 119.07 21.3567C119.066 21.2335 119.062 21.1018 119.062 20.9871C119.062 20.9786 119.062 20.9744 119.062 20.9659C119.049 20.8682 119.049 20.7577 119.053 20.6345C119.053 20.5878 119.053 20.541 119.053 20.4901C119.053 20.4646 119.053 20.4051 119.053 20.2309C119.053 19.976 119.053 19.5512 119.066 19.4535C119.079 19.3303 119.079 18.9691 119.075 18.5783C119.075 18.4678 119.075 18.3489 119.075 18.3234C119.075 18.3149 119.075 18.3106 119.075 18.3022C119.075 18.2002 119.075 17.8943 119.075 17.8433C119.075 17.8348 119.075 17.8306 119.075 17.8221C119.066 17.7371 119.066 17.6309 119.07 17.5162C119.07 17.376 119.075 17.2316 119.057 17.0999C119.057 17.0829 119.057 17.0531 119.057 17.0234C119.062 16.9767 119.066 16.9257 119.057 16.8705C119.057 16.8067 119.057 16.675 119.057 16.5391C119.057 16.3989 119.057 16.2587 119.057 16.1992C119.066 16.0505 119.066 15.9061 119.066 15.7701V15.6809C119.066 15.6087 119.062 14.9714 119.049 14.7972C119.044 14.7335 118.993 14.6868 118.928 14.6868C118.288 14.6825 117.643 14.6783 117.068 14.6783H116.951C116.917 14.6783 116.886 14.691 116.86 14.7165C116.839 14.7378 116.826 14.7718 116.826 14.8057C116.826 14.8482 116.834 14.9714 116.83 15.0224C116.817 15.2731 116.817 15.5025 116.83 15.6937V15.7106C116.826 16.6793 116.821 17.6437 116.817 18.6123V20.2946C116.817 20.5113 116.809 20.7237 116.804 20.9404V21.3992C116.809 21.4714 116.809 21.5437 116.809 21.6159C116.809 22.062 116.804 22.5208 116.895 22.9329C117.003 23.4257 117.142 23.7953 117.328 24.0969C117.985 25.1633 119.235 25.775 121.043 25.9237C121.125 25.9322 121.25 25.9322 121.376 25.9322C121.406 25.9322 121.436 25.9322 121.466 25.9322H121.479C121.825 25.928 122.219 25.9195 122.591 25.8557C122.643 25.8515 122.76 25.8345 122.872 25.8175C122.976 25.8005 123.08 25.7878 123.131 25.7835C123.136 25.7835 123.14 25.7835 123.144 25.7835L123.209 25.7665C123.577 25.6773 123.958 25.5839 124.269 25.4182C124.472 25.3332 124.611 25.2312 124.766 25.1165C124.965 24.9763 125.277 24.645 125.354 24.543C125.588 24.2329 125.718 23.9397 125.869 23.5531C125.947 23.362 125.999 23.1283 126.02 22.8904C126.02 22.8691 126.025 22.8394 126.029 22.8139C126.033 22.7799 126.038 22.7502 126.042 22.7205C126.072 22.5633 126.077 22.4188 126.081 22.2701C126.081 22.1979 126.081 22.1257 126.09 22.0535C126.107 21.8198 126.111 21.5861 126.107 21.4077C126.107 21.259 126.107 21.1316 126.107 21.0084C126.107 20.8342 126.111 20.6685 126.098 20.4816L126.111 20.0482C126.111 19.8316 126.111 19.4365 126.116 19.0499C126.12 18.5825 126.124 18.1789 126.116 18.0855C126.09 17.7329 126.098 17.3718 126.107 17.0191L126.111 17.0106ZM115.364 25.0358C115.373 24.9551 115.364 24.8659 115.364 24.7894C115.364 24.7342 115.364 24.6832 115.364 24.6407C115.373 24.5005 115.377 24.2923 115.368 24.1564C115.364 24.0459 115.364 23.961 115.368 23.8718C115.368 23.808 115.368 23.7401 115.368 23.6678C115.368 23.6041 115.312 23.5489 115.247 23.5489H115.057C114.754 23.5489 114.387 23.5404 114.127 23.5404H110.84C110.494 23.5404 110.148 23.5404 109.798 23.5319C109.763 23.5319 109.711 23.5276 109.638 23.5276C109.625 23.5276 109.612 23.5276 109.599 23.5276C109.599 23.2812 109.595 22.7587 109.586 22.6737C109.573 22.525 109.577 22.3806 109.577 22.2276C109.577 22.0959 109.577 21.96 109.577 21.8155C109.577 21.7348 109.577 21.327 109.577 20.6812C109.577 20.2776 109.577 19.8571 109.577 19.8231C109.599 19.5597 109.621 16.7727 109.603 16.5773C109.599 16.5263 109.603 16.4371 109.603 16.3606V16.2969C109.603 16.1525 109.595 15.8551 109.59 15.5662C109.582 15.2561 109.577 14.9374 109.577 14.861C109.577 14.793 109.521 14.742 109.456 14.742C108.907 14.7378 108.332 14.7293 107.774 14.725H107.584C107.584 14.725 107.549 14.725 107.536 14.7335C107.536 14.7335 107.532 14.7335 107.527 14.7335C107.506 14.7335 107.467 14.7378 107.432 14.759C107.393 14.776 107.372 14.8142 107.367 14.8525C107.341 15.1201 107.35 15.3963 107.363 15.6554C107.372 15.9146 107.38 16.161 107.359 16.3946C107.341 16.5433 107.363 17.3675 107.372 17.4695C107.372 17.512 107.372 17.6182 107.372 17.7754C107.367 18.4763 107.35 20.1162 107.372 20.541C107.359 20.7832 107.363 21.8793 107.363 21.9005C107.376 22.0237 107.367 22.1767 107.363 22.3211C107.354 22.474 107.346 22.6355 107.363 22.7757V24.8489C107.372 24.9593 107.376 25.4734 107.376 25.4734C107.376 25.5371 107.432 25.5923 107.497 25.5923C107.497 25.5923 107.856 25.5923 108.007 25.6008C108.137 25.6008 108.548 25.6051 108.803 25.6051C108.894 25.6051 108.968 25.6051 109.011 25.6051H114.741C114.741 25.6051 114.75 25.6008 114.754 25.6008C114.797 25.5966 114.871 25.5923 114.936 25.5923H115.04C115.126 25.5923 115.191 25.5923 115.239 25.5881C115.403 25.5669 115.39 25.3629 115.377 25.1463C115.377 25.1038 115.368 25.0528 115.373 25.0401L115.364 25.0358ZM153.25 22.2106C153.276 22.8139 153.159 23.4044 152.917 23.8675C152.592 24.5005 152.091 24.9763 151.472 25.2397C150.754 25.5499 149.561 25.5966 148.908 25.5966C148.696 25.5966 148.488 25.5923 148.285 25.5839C148.082 25.5839 147.571 25.5839 147.07 25.5839C146.607 25.5839 146.157 25.5839 145.962 25.5839C145.828 25.5839 145.712 25.5839 145.599 25.5839H145.128C144.985 25.5839 144.834 25.5839 144.648 25.5839H144.626C144.566 25.5839 144.475 25.5839 144.384 25.5839C144.284 25.5839 144.185 25.5796 144.116 25.5796H144.081C143.8 25.5881 143.523 25.5796 143.298 25.5711C143.233 25.5711 143.182 25.5159 143.182 25.4522C143.182 25.3247 143.182 24.8149 143.182 24.3221C143.182 23.9822 143.182 23.6508 143.182 23.4724C143.186 23.3747 143.19 23.1028 143.19 22.8819C143.19 22.7374 143.19 22.6057 143.19 22.5505V19.6744L143.186 17.1891C143.186 17.0149 143.186 16.3861 143.186 16.2417C143.19 16.127 143.186 16.0208 143.186 15.9061C143.186 15.7829 143.182 15.6554 143.186 15.5152C143.203 15.2773 143.203 15.0309 143.203 14.81V14.7845C143.203 14.725 143.251 14.6698 143.311 14.6656C143.372 14.6613 143.424 14.6613 143.493 14.6656C143.523 14.6656 143.558 14.6656 143.597 14.6656H144.669C144.959 14.6656 145.4 14.6656 145.854 14.6656C146.105 14.6656 146.654 14.6656 147.195 14.6656C147.71 14.6656 148.22 14.6656 148.462 14.6656C148.704 14.6571 149.007 14.6655 149.28 14.6698C149.522 14.6783 149.699 14.691 149.894 14.7165C150.759 14.827 151.442 15.1796 151.87 15.7319C152.112 16.042 152.277 16.4074 152.402 16.9172C152.45 17.0956 152.463 17.325 152.441 17.6309C152.424 17.8986 152.303 18.3361 152.182 18.5486C151.996 18.8714 151.732 19.1391 151.416 19.3218C151.416 19.3218 151.407 19.326 151.403 19.3303C151.369 19.3472 151.334 19.36 151.299 19.377C151.425 19.4365 151.55 19.5044 151.71 19.5979C152.104 19.8698 152.592 20.2522 152.895 20.8682C153.055 21.191 153.142 21.4374 153.22 21.977C153.22 21.977 153.22 21.9855 153.22 21.9897C153.22 22.0195 153.22 22.0577 153.224 22.1002C153.224 22.1427 153.228 22.1852 153.233 22.2191L153.25 22.2106ZM145.4 23.7528C145.4 23.7528 145.439 23.7528 145.456 23.7528C145.487 23.7528 145.513 23.7528 145.543 23.7528C145.56 23.7528 145.578 23.7528 145.595 23.7528C145.716 23.7528 146.097 23.7571 146.494 23.7655C146.927 23.7698 147.372 23.7783 147.511 23.7783C147.805 23.791 148.06 23.791 148.423 23.791H148.648C148.834 23.791 148.999 23.7868 149.163 23.7655C149.907 23.6806 150.395 23.4469 150.659 23.0518C150.776 22.8776 150.863 22.6397 150.914 22.3593C150.988 21.9727 150.876 21.6031 150.75 21.3865C150.59 21.1146 150.473 20.9829 150.24 20.8044C150.192 20.7747 150.158 20.7492 150.11 20.7322C150.002 20.6812 149.889 20.6388 149.799 20.609C149.647 20.5665 149.505 20.5283 149.332 20.5071C148.851 20.4561 148.116 20.4518 147.606 20.4518C147.299 20.4518 146.987 20.4518 146.693 20.4518C146.209 20.4518 145.768 20.4603 145.443 20.4518H145.387C145.383 20.6175 145.379 20.8639 145.379 20.9956C145.379 20.9999 145.379 21.0551 145.379 21.1401C145.383 21.5522 145.4 22.6482 145.396 22.9286V23.5871C145.4 23.6381 145.396 23.6933 145.396 23.7486L145.4 23.7528ZM150.097 17.2231C149.816 16.4881 149.154 16.4159 148.099 16.3819C148.06 16.3819 148.008 16.3819 147.961 16.3819H147.896C147.848 16.3819 147.805 16.3819 147.762 16.3819C147.355 16.3904 146.572 16.4031 145.984 16.4116C145.746 16.4116 145.543 16.4159 145.409 16.4201C145.409 16.4839 145.409 16.5391 145.409 16.5986C145.409 16.6963 145.409 16.7982 145.409 16.9299C145.405 17.1551 145.409 17.3633 145.409 17.6097C145.409 17.7414 145.413 17.8816 145.413 18.0472C145.413 18.1577 145.413 18.4423 145.413 18.608C145.452 18.608 145.5 18.608 145.539 18.608C145.647 18.608 146.014 18.6123 146.365 18.6165C146.564 18.6165 146.754 18.6165 146.897 18.6165C146.961 18.6165 147.16 18.6165 147.359 18.6165C147.558 18.6165 147.757 18.6165 147.826 18.6165C147.9 18.6165 147.969 18.6165 148.038 18.6165C148.644 18.6165 149.133 18.5655 149.418 18.4806C149.587 18.4296 149.734 18.3489 149.859 18.2342C149.885 18.2129 149.933 18.1705 149.954 18.1322L149.985 18.0855C150.045 17.992 150.106 17.8943 150.127 17.7966C150.162 17.6054 150.149 17.3548 150.097 17.2103V17.2231ZM96.5595 14.691C96.5379 14.6486 96.4946 14.6231 96.447 14.6231H94.1159C94.077 14.6231 94.0381 14.6401 94.0165 14.674C93.2034 15.8126 92.4682 17.0616 91.8324 18.3786C91.335 19.4067 90.8896 20.4986 90.5047 21.6201C90.1198 20.4943 89.6743 19.4067 89.1769 18.3786C88.5412 17.0616 87.806 15.8126 86.9929 14.674C86.9713 14.6443 86.9323 14.6231 86.8934 14.6231H84.5666C84.5191 14.6231 84.4758 14.6486 84.4542 14.691C84.4326 14.7335 84.4412 14.7845 84.4715 14.8185C85.1937 15.6979 86.2706 17.1848 87.2783 19.2665C88.446 21.6796 89.0818 23.9907 89.4105 25.4989C89.4235 25.5541 89.471 25.5966 89.5316 25.5966H91.4994C91.5556 25.5966 91.6075 25.5584 91.6205 25.4989C91.9449 23.9907 92.5806 21.6881 93.7526 19.2665C94.7517 17.1976 95.8329 15.7064 96.5595 14.8185C96.5898 14.7803 96.5941 14.7335 96.5768 14.691H96.5595Z" fill="black"/>
<path d="M74.2388 19.6782C74.2864 20.804 74.0702 21.9044 73.629 22.771C73.0322 23.9521 72.111 24.8357 70.9736 25.3328C69.6545 25.9106 67.4575 25.9955 66.2638 25.9955C65.8745 25.9955 65.494 25.987 65.122 25.97C64.7501 25.97 63.8073 25.97 62.8904 25.9658C62.0427 25.9658 61.2123 25.9615 60.8577 25.9615C60.6112 25.9615 60.3949 25.9615 60.1917 25.9615H59.3224C59.0629 25.9615 58.7818 25.9615 58.4401 25.9615H58.3969C58.2887 25.9615 58.1201 25.9573 57.9514 25.953C57.7741 25.9488 57.5881 25.9446 57.4627 25.9446H57.4021C56.8875 25.9573 56.3728 25.9531 55.9663 25.9318C55.8495 25.9233 55.7544 25.8298 55.7544 25.7109C55.7544 25.4687 55.7544 24.5214 55.7587 23.6037C55.7587 22.9664 55.763 22.3504 55.763 22.0191C55.7717 21.8406 55.776 21.3308 55.7803 20.9187C55.7803 20.6426 55.7803 20.4004 55.789 20.2985L55.776 14.9328V10.2893C55.7673 9.9622 55.7673 8.7854 55.776 8.522C55.789 8.30534 55.7846 8.10566 55.776 7.89749C55.7717 7.66383 55.7673 7.42593 55.7846 7.16253C55.8106 6.7207 55.8106 6.25762 55.8106 5.84978V5.80305C55.8106 5.68834 55.8971 5.59063 56.0139 5.57789C56.122 5.56939 56.2214 5.56939 56.3469 5.57789C56.4031 5.57789 56.468 5.57789 56.5372 5.58213H58.505C59.0413 5.58213 59.8457 5.58213 60.6847 5.58213C61.1475 5.58213 62.1552 5.58213 63.1456 5.58638C64.0927 5.58638 65.0312 5.58638 65.4723 5.59063C65.9221 5.57789 66.4714 5.59063 66.9687 5.60338C67.4099 5.61612 67.7386 5.63736 68.0975 5.6841C69.6848 5.89226 70.9433 6.55076 71.7304 7.57887C72.1716 8.15664 72.4743 8.83638 72.7078 9.78802C72.79 10.1236 72.816 10.5485 72.7814 11.122C72.7511 11.6191 72.5219 12.4347 72.3013 12.8341C71.964 13.4374 71.4796 13.9387 70.8957 14.2785C70.8871 14.2785 70.8784 14.287 70.8698 14.2913C70.8006 14.321 70.74 14.3508 70.6752 14.3805C70.9044 14.491 71.1379 14.6184 71.432 14.7968C72.1586 15.3024 73.0495 16.0161 73.6074 17.1632C73.9015 17.7622 74.0615 18.2253 74.1999 19.2321C74.1999 19.2406 74.1999 19.2491 74.1999 19.2534C74.1999 19.3086 74.2086 19.3808 74.2129 19.4573C74.2172 19.538 74.2215 19.6145 74.2259 19.674L74.2388 19.6782ZM59.8154 22.5671C59.85 22.5671 59.8846 22.5671 59.9192 22.5671C59.9711 22.5671 60.0273 22.5671 60.0792 22.5671C60.1095 22.5671 60.1441 22.5671 60.1744 22.5671C60.3993 22.5671 61.0999 22.5798 61.8222 22.5841C62.6179 22.5926 63.4353 22.6011 63.6862 22.6053C64.2311 22.6308 64.6939 22.6308 65.3599 22.6266H65.7751C66.1167 22.6266 66.4238 22.6181 66.7222 22.5798C68.0932 22.4184 68.9885 21.9808 69.4685 21.2501C69.6804 20.923 69.8448 20.4769 69.9399 19.9586C70.0697 19.2364 69.8664 18.5481 69.6329 18.1446C69.3344 17.6347 69.1269 17.3883 68.6944 17.0527C68.6079 16.9975 68.5387 16.9508 68.4608 16.9168C68.2576 16.8191 68.0586 16.7383 67.8899 16.6874C67.6088 16.6066 67.3493 16.5344 67.0336 16.5004C66.147 16.407 64.802 16.3942 63.8635 16.3942C63.3013 16.3942 62.7304 16.3985 62.1854 16.4027C61.2988 16.4112 60.4814 16.4155 59.8933 16.4027H59.8543C59.8327 16.4027 59.8111 16.4027 59.7895 16.4027C59.7808 16.7129 59.7765 17.1717 59.7765 17.4138C59.7765 17.4266 59.7765 17.5243 59.7765 17.6815C59.7851 18.4504 59.8154 20.4981 59.8068 21.0249V22.257C59.8154 22.3504 59.8111 22.4566 59.8068 22.5629L59.8154 22.5671ZM68.4478 10.37C67.9289 8.99782 66.7179 8.86187 64.7804 8.8024C64.7068 8.8024 64.616 8.8024 64.5252 8.8024H64.4084C64.3262 8.8024 64.2397 8.8024 64.1619 8.8024C63.4137 8.81939 61.9735 8.84063 60.8923 8.85762C60.4598 8.86612 60.0836 8.87037 59.8327 8.87462C59.8327 8.98932 59.8327 9.09978 59.8327 9.21024C59.8327 9.39292 59.8327 9.58834 59.8241 9.8305C59.8154 10.2468 59.8241 10.6419 59.8284 11.0965C59.8284 11.3429 59.837 11.6106 59.8414 11.9122C59.8414 12.1161 59.8457 12.6514 59.8457 12.9573C59.9192 12.9573 60.0014 12.9573 60.0792 12.9573C60.2825 12.9658 60.9529 12.97 61.5973 12.9743C61.9605 12.9743 62.3152 12.9743 62.5747 12.9828C62.6914 12.9828 63.0591 12.9828 63.4267 12.9785C63.7943 12.9785 64.1619 12.9785 64.283 12.9785C64.4128 12.9785 64.5425 12.9785 64.6722 12.9785C65.7837 12.9785 66.6833 12.8851 67.2066 12.7236C67.518 12.6259 67.7861 12.473 68.0197 12.2606C68.0673 12.2181 68.1538 12.1416 68.1927 12.0736L68.2446 11.9887C68.357 11.8145 68.4695 11.6318 68.5041 11.4534C68.5733 11.0965 68.5473 10.6292 68.4435 10.3615L68.4478 10.37ZM49.7731 5.64161C49.7341 5.56089 49.6563 5.51416 49.5698 5.51416H45.2882C45.2147 5.51416 45.1455 5.5524 45.1022 5.61187C43.6101 7.73606 42.2608 10.0642 41.0887 12.5282C40.1762 14.4485 39.3545 16.4792 38.6452 18.5821C37.9359 16.4792 37.1142 14.4485 36.2016 12.5282C35.0296 10.0642 33.6802 7.7403 32.1882 5.61187C32.1449 5.5524 32.0757 5.51416 32.0022 5.51416H27.7249C27.6384 5.51416 27.5605 5.56514 27.5216 5.64161C27.4827 5.72233 27.4957 5.81155 27.5519 5.87952C28.884 7.52364 30.8561 10.2978 32.7071 14.1808C34.8523 18.6883 36.02 22.9962 36.6211 25.8171C36.6428 25.9233 36.7336 25.9955 36.8417 25.9955H40.453C40.5611 25.9955 40.6519 25.9233 40.6735 25.8171C41.2747 23.0047 42.4381 18.7011 44.5876 14.1808C46.4256 10.3148 48.4064 7.53213 49.7471 5.87952C49.8033 5.81155 49.812 5.71808 49.7774 5.64161H49.7731Z" fill="#009098"/>
<path d="M35.5529 2.68497C36.2968 2.68497 36.8979 2.08595 36.8979 1.34248C36.8979 0.59902 36.2968 0 35.5529 0C34.809 0 34.2079 0.59902 34.2079 1.34248C34.2079 2.08595 34.809 2.68497 35.5529 2.68497Z" fill="#231815"/>
<path d="M41.7418 2.68497C42.4857 2.68497 43.0868 2.08595 43.0868 1.34248C43.0868 0.59902 42.4857 0 41.7418 0C40.9979 0 40.3968 0.59902 40.3968 1.34248C40.3968 2.08595 40.9979 2.68497 41.7418 2.68497Z" fill="#231815"/>
<path d="M60.2782 2.68497C61.022 2.68497 61.6232 2.08595 61.6232 1.34248C61.6232 0.59902 61.022 0 60.2782 0C59.5343 0 58.9331 0.59902 58.9331 1.34248C58.9331 2.08595 59.5343 2.68497 60.2782 2.68497Z" fill="#231815"/>
<path d="M66.4671 2.68497C67.2109 2.68497 67.8121 2.0817 67.8121 1.34248C67.8121 0.603268 67.2109 0 66.4671 0C65.7232 0 65.122 0.59902 65.122 1.34248C65.122 2.08595 65.7232 2.68497 66.4671 2.68497Z" fill="#231815"/>
</g>
<defs>
<clipPath id="clip0_1382_10328">
<rect width="172" height="26" fill="white" transform="translate(27.5)"/>
</clipPath>
</defs>
</svg>
