<svg width="248" height="285" viewBox="0 0 248 285" fill="none" xmlns="http://www.w3.org/2000/svg">
<g clip-path="url(#clip0_1377_1819)">
<path d="M171.35 259.095C163.587 281.647 132.292 291.334 101.458 280.705C70.6233 270.097 51.9166 243.206 59.68 220.655C67.4434 198.103 98.7383 188.438 129.573 199.046C160.407 209.653 179.114 236.544 171.328 259.095" fill="#E7372F"/>
<path d="M73.1241 227.602C66.7862 246.165 84.8131 250.219 91.0633 233.563C98.0592 214.913 79.4401 209.171 73.1241 227.602Z" fill="white"/>
<mask id="mask0_1377_1819" style="mask-type:luminance" maskUnits="userSpaceOnUse" x="71" y="216" width="22" height="29">
<path d="M91.0632 233.563C84.813 250.219 66.7861 246.165 73.124 227.602C75.7776 219.8 80.6462 216.337 84.8569 216.337C90.6027 216.337 95.0984 222.802 91.0632 233.563Z" fill="white"/>
</mask>
<g mask="url(#mask0_1377_1819)">
<path d="M68.5187 222.583C62.1807 241.146 80.2077 245.201 86.4579 228.545C93.4537 209.894 74.8347 204.152 68.5187 222.583Z" fill="#231815"/>
</g>
<path d="M79.2862 245.442C83.9574 245.442 89.4401 241.891 92.3788 234.046C94.835 227.471 94.506 221.619 91.4577 218.003C89.3962 215.548 86.3479 214.475 83.146 215.088C78.2555 216.009 74.1106 220.392 71.8079 227.142C68.4087 237.092 71.6763 243.25 76.4352 244.96C77.3344 245.288 78.2993 245.442 79.3082 245.442H79.2862ZM84.8566 217.74C86.5891 217.74 88.1681 218.463 89.3085 219.822C91.677 222.649 91.8524 227.471 89.7471 233.059C86.8084 240.883 81.1722 243.667 77.3783 242.308C73.9352 241.081 71.6982 236.193 74.4615 228.041C76.3914 222.364 79.8345 218.551 83.6504 217.828C84.0452 217.762 84.4618 217.718 84.8566 217.718V217.74Z" fill="#231815"/>
<path d="M123.827 245.047C117.489 263.61 135.516 267.665 141.766 251.008C148.762 232.358 130.143 226.616 123.827 245.047Z" fill="white"/>
<mask id="mask1_1377_1819" style="mask-type:luminance" maskUnits="userSpaceOnUse" x="122" y="233" width="22" height="29">
<path d="M141.767 251.008C135.516 267.664 117.49 263.61 123.849 245.047C126.503 237.245 131.372 233.782 135.582 233.782C141.328 233.782 145.824 240.247 141.767 251.008Z" fill="white"/>
</mask>
<g mask="url(#mask1_1377_1819)">
<path d="M119.332 240.905C112.994 259.468 131.021 263.522 137.271 246.866C144.267 228.215 125.648 222.473 119.332 240.905Z" fill="#231815"/>
</g>
<path d="M129.99 262.887C134.661 262.887 140.144 259.337 143.083 251.491C145.539 244.916 145.21 239.086 142.162 235.448C140.1 232.994 137.074 231.92 133.85 232.534C128.959 233.454 124.815 237.837 122.512 244.587C119.113 254.537 122.38 260.696 127.139 262.405C128.038 262.734 129.003 262.887 130.012 262.887H129.99ZM135.561 235.185C137.293 235.185 138.872 235.909 140.012 237.267C142.381 240.095 142.556 244.916 140.451 250.505C137.512 258.329 131.898 261.112 128.082 259.753C124.639 258.526 122.38 253.639 125.165 245.486C127.095 239.81 130.538 235.996 134.354 235.273C134.749 235.207 135.166 235.163 135.561 235.163V235.185Z" fill="#231815"/>
<path d="M79.2862 198.805L168.258 228.83L172.623 215.285C205.168 210.683 180.627 170.533 161.482 190.498C160.473 167.684 127.446 155.455 115.011 172.615C107.862 139.412 68.2113 157.405 83.4311 180.439L79.2862 198.783V198.805Z" fill="white"/>
<path d="M168.281 230.232C168.5 230.232 168.719 230.189 168.917 230.079C169.246 229.904 169.509 229.619 169.618 229.246L173.719 216.535C186.132 214.497 189.093 207.593 189.751 203.604C190.891 196.526 186.571 188.614 179.706 185.173C174.005 182.346 167.908 183.223 162.623 187.54C160.737 175.574 150.605 167.421 140.802 164.484C130.955 161.526 121.612 163.498 115.713 169.613C113.06 160.583 107.467 154.688 100.077 153.307C92.993 151.97 85.2735 155.17 81.3041 161.131C77.4662 166.873 77.7075 173.996 81.94 180.702L77.9268 198.476C77.7732 199.177 78.168 199.879 78.8478 200.12L167.842 230.145C167.996 230.189 168.149 230.21 168.303 230.21L168.281 230.232ZM172.93 186.357C175.189 186.357 177.119 187.036 178.456 187.693C184.18 190.543 187.93 197.336 186.987 203.144C186.066 208.864 180.891 212.678 172.469 213.883C171.943 213.949 171.504 214.321 171.329 214.847L167.403 227.033L80.9751 197.862L84.8349 180.746C84.9226 180.374 84.8349 179.979 84.6375 179.672C79.3084 171.607 81.7427 165.58 83.6506 162.687C87.006 157.647 93.5632 154.929 99.5722 156.069C103.651 156.836 110.888 160.057 113.674 172.922C113.783 173.47 114.222 173.886 114.77 173.996C115.318 174.106 115.867 173.886 116.196 173.448C122.095 165.317 132.358 164.879 140.012 167.18C149.64 170.073 159.574 178.423 160.122 190.564C160.144 191.134 160.495 191.616 161.022 191.814C161.548 192.011 162.14 191.879 162.535 191.463C166.307 187.54 169.947 186.357 172.952 186.357H172.93Z" fill="#231815"/>
<path d="M113.213 274.021C115.252 274.021 116.941 272.903 117.752 271.018C118.761 268.629 118.366 264.662 114.616 260.235C114.879 260.126 115.165 259.994 115.428 259.863C116.129 259.534 116.415 258.679 116.086 257.978C115.757 257.277 114.901 256.992 114.2 257.321C113.41 257.693 112.599 258.044 111.787 258.329C111.743 258.329 111.678 258.351 111.634 258.394C108.805 259.381 105.91 259.863 103.125 259.95C103.015 259.95 102.883 259.95 102.774 259.95C94.1989 260.06 86.6987 256.707 84.1547 253.463C83.6723 252.85 82.795 252.762 82.181 253.222C81.5669 253.704 81.4573 254.581 81.9397 255.195C85.0977 259.183 93.1463 262.69 102.028 262.734C104.923 269.747 109.024 273.933 113.103 273.999C113.125 273.999 113.169 273.999 113.191 273.999L113.213 274.021ZM111.809 261.287C115.362 265.079 115.844 268.257 115.165 269.9C114.814 270.755 114.134 271.193 113.213 271.193H113.169C111.085 271.15 107.818 268.848 105.055 262.602C107.313 262.405 109.572 261.989 111.809 261.265V261.287Z" fill="#231815"/>
</g>
<path d="M0.925903 41L40.9259 139" stroke="#282828" stroke-width="2"/>
<path d="M246.926 41L206.926 139" stroke="#282828" stroke-width="2"/>
<path d="M35.5759 63.01L35.5609 62.965C33.8959 63.325 32.9659 63.475 32.3809 63.55H32.2759C31.7959 63.55 31.5259 63.145 31.5259 62.74C31.5259 62.38 31.7359 62.02 32.1859 61.96C32.7409 61.9 33.6859 61.81 36.5809 61.195C36.6859 61.165 36.7909 61.165 36.8959 61.165C37.5259 61.165 37.9609 61.6 37.9609 62.125C37.9609 62.35 37.8709 62.59 37.6909 62.815C36.7159 64.03 35.3659 65.335 34.0159 66.28L34.0309 66.31C35.9209 65.89 37.6909 65.53 40.1809 65.02C40.2409 65.005 40.3009 65.005 40.3609 65.005C40.8859 65.005 41.1859 65.395 41.1859 65.785C41.1859 66.13 40.9759 66.46 40.4959 66.565C39.4759 66.79 38.5159 67.06 37.9309 67.36C36.3709 68.14 35.8459 69.295 35.8459 70.225C35.8459 71.26 36.5359 71.875 38.5609 71.95C39.1159 71.98 39.3859 72.37 39.3859 72.76C39.3859 73.18 39.0859 73.615 38.4859 73.6C35.7709 73.555 34.1659 72.31 34.1659 70.36C34.1659 69.37 34.4959 68.365 35.5459 67.45L35.5309 67.42C34.3009 67.705 33.1309 67.99 31.7809 68.32C31.2559 68.455 30.7609 68.59 30.2509 68.74C30.1459 68.77 30.0559 68.785 29.9659 68.785C29.4709 68.785 29.1409 68.365 29.1409 67.93C29.1409 67.615 29.3209 67.285 29.7559 67.135C30.5509 66.85 31.4059 66.445 32.0959 65.98C33.4309 65.08 34.6159 64.045 35.5759 63.01ZM46.8409 71.98C45.3109 71.98 44.0359 70.75 44.0359 68.41C44.0359 64.99 46.8709 62.185 50.9959 62.185C54.6559 62.185 56.7709 64.48 56.7709 67.465C56.7709 70.18 55.1659 72.175 52.5859 73C52.4659 73.045 52.3459 73.06 52.2409 73.06C51.7309 73.06 51.4009 72.64 51.4009 72.205C51.4009 71.875 51.5809 71.545 52.0309 71.38C54.1609 70.615 55.0159 69.325 55.0159 67.465C55.0159 65.5 53.6809 63.88 51.4009 63.715C51.2509 66.205 50.6359 68.455 49.7059 70.09C48.8809 71.545 47.9959 71.98 46.8409 71.98ZM49.6459 63.82C47.4109 64.255 45.7609 66.19 45.7609 68.41C45.7609 69.79 46.3009 70.3 46.8409 70.3C47.3059 70.3 47.7109 70.06 48.1459 69.295C48.9109 67.96 49.4659 66.025 49.6459 63.82ZM63.6409 66.79C63.3109 65.35 63.0859 63.565 63.0859 61.495C63.0859 60.955 63.5209 60.685 63.9559 60.685C64.3909 60.685 64.8259 60.955 64.8259 61.495C64.8259 63.175 64.9609 64.675 65.1709 65.89C66.0859 65.44 67.1059 65.035 68.1259 64.72C68.2159 64.69 68.3059 64.675 68.3959 64.675C68.8609 64.675 69.1759 65.095 69.1759 65.515C69.1759 65.83 69.0109 66.13 68.6209 66.25C67.2859 66.67 65.7859 67.285 64.6759 67.99C63.3859 68.83 62.9359 69.655 62.9359 70.42C62.9359 71.35 63.5509 71.83 65.9359 71.83C67.1359 71.83 68.2009 71.725 69.0409 71.56C69.1159 71.545 69.1759 71.545 69.2359 71.545C69.7609 71.545 70.0459 71.95 70.0459 72.37C70.0459 72.745 69.8359 73.105 69.3709 73.21C68.3509 73.42 67.1959 73.495 65.9209 73.495C62.7709 73.495 61.1959 72.535 61.1959 70.51C61.1959 69.28 61.7659 68.065 63.6409 66.79ZM82.0759 68.86L82.0909 68.83C81.7609 68.365 81.3709 67.78 80.9809 67.135C79.4959 67.39 78.0109 67.54 76.8709 67.63C76.6609 67.645 76.3909 67.66 76.3159 67.66C75.8509 67.66 75.5959 67.27 75.5959 66.895C75.5959 66.535 75.8209 66.175 76.2859 66.16C77.5909 66.1 78.9559 65.935 80.2909 65.74C80.0659 65.26 79.8559 64.78 79.6759 64.3C78.5659 64.48 77.7109 64.6 76.7659 64.66C76.7209 64.66 76.5859 64.675 76.4659 64.675C76.0309 64.675 75.7609 64.315 75.7609 63.91C75.7609 63.55 75.9709 63.205 76.4059 63.19C77.2159 63.145 78.1909 63.04 79.1659 62.89C79.0009 62.38 78.8509 61.87 78.7309 61.375C78.7159 61.315 78.7009 61.24 78.7009 61.18C78.7009 60.745 79.1209 60.52 79.5259 60.52C79.8709 60.52 80.2159 60.685 80.3059 61.075C80.4409 61.585 80.5909 62.11 80.7409 62.62C81.7459 62.44 82.6609 62.23 83.3359 62.02C83.4259 61.99 83.5159 61.975 83.6059 61.975C84.0559 61.975 84.3559 62.365 84.3559 62.74C84.3559 63.01 84.2059 63.28 83.8459 63.385C83.0959 63.61 82.1959 63.835 81.2209 64.03C81.4009 64.51 81.6109 64.99 81.8209 65.455C82.9009 65.245 83.8909 65.005 84.7159 64.75C84.8059 64.72 84.8809 64.705 84.9559 64.705C85.4059 64.705 85.7209 65.11 85.7209 65.5C85.7209 65.77 85.5559 66.055 85.1659 66.175C84.4159 66.415 83.5309 66.64 82.5559 66.835C83.0659 67.675 83.6659 68.53 84.2959 69.265C84.4609 69.46 84.5209 69.67 84.5209 69.88C84.5209 70.3 84.1909 70.675 83.6959 70.675C83.5759 70.675 83.4409 70.645 83.3059 70.6C82.2559 70.21 81.1309 70.015 80.0509 70.015C78.2059 70.015 77.6809 70.555 77.6809 71.185C77.6809 71.905 78.3259 72.4 80.5159 72.4C81.1309 72.4 81.3559 72.385 81.8059 72.355C81.8959 72.355 82.0309 72.34 82.0909 72.34C82.6309 72.34 82.8859 72.715 82.8859 73.105C82.8859 73.465 82.6309 73.825 82.1359 73.87C81.7159 73.915 81.1759 73.945 80.5309 73.945C77.3659 73.945 75.9559 72.955 75.9559 71.215C75.9559 69.67 77.2459 68.62 80.0359 68.62C80.8459 68.62 81.5509 68.71 82.0759 68.86ZM97.2859 69.715H96.3709C96.6859 70.105 97.0459 70.48 97.4359 70.81C98.3809 70.3 99.3709 69.64 100.091 69.025C100.271 68.875 100.466 68.8 100.646 68.8C101.066 68.8 101.426 69.16 101.426 69.535C101.426 69.745 101.321 69.97 101.081 70.15C100.421 70.645 99.5209 71.2 98.6359 71.65C99.4459 72.13 100.361 72.49 101.396 72.775C101.846 72.895 102.026 73.195 102.026 73.48C102.026 73.855 101.741 74.215 101.306 74.215C101.231 74.215 101.171 74.2 101.096 74.185C98.5309 73.555 96.1159 71.935 94.7059 69.715H93.1009V72.265C93.7909 72.16 94.4659 72.04 95.1409 71.89C95.2009 71.875 95.2459 71.875 95.3059 71.875C95.7109 71.875 95.9659 72.22 95.9659 72.565C95.9659 72.82 95.8159 73.075 95.4859 73.165C93.8509 73.585 91.8109 73.87 90.0709 74.02C90.0409 74.02 89.8609 74.035 89.7259 74.035C89.2759 74.035 89.0509 73.69 89.0509 73.345C89.0509 73.015 89.2609 72.655 89.6959 72.625C90.2209 72.58 90.8359 72.535 91.4809 72.46V65.995C91.4809 65.005 91.9759 64.48 93.3709 64.48H94.5559V63.52C94.5559 63.1 94.9609 62.905 95.3509 62.905C95.7559 62.905 96.1459 63.1 96.1459 63.52V64.48H97.2859C98.6809 64.48 99.1759 65.005 99.1759 65.995V68.2C99.1759 69.445 98.3809 69.715 97.2859 69.715ZM93.1009 68.485H97.0459C97.3609 68.485 97.5859 68.455 97.5859 68.095V67.66H93.1009V68.485ZM97.5859 66.52V66.1C97.5859 65.8 97.4959 65.71 97.0459 65.71H93.6409C93.1909 65.71 93.1009 65.8 93.1009 66.1V66.52H97.5859ZM96.2359 60.88C97.7209 62.275 99.8659 63.52 101.951 64.33C102.356 64.48 102.536 64.795 102.536 65.11C102.536 65.515 102.221 65.905 101.741 65.905C101.606 65.905 101.456 65.875 101.306 65.815C99.2209 64.945 96.9559 63.505 95.3209 61.93C93.6409 63.565 91.4659 65.05 89.3659 65.995C89.2609 66.04 89.1409 66.07 89.0359 66.07C88.6309 66.07 88.3009 65.695 88.3009 65.305C88.3009 65.035 88.4509 64.765 88.8109 64.6C91.0159 63.595 93.2359 62.035 94.8109 60.31C95.0059 60.1 95.2309 60.025 95.4709 60.025C95.8759 60.025 96.2659 60.31 96.2659 60.685C96.2659 60.745 96.2509 60.82 96.2359 60.88ZM112.316 64.33C112.211 64.21 112.166 64.09 112.166 63.985C112.166 63.685 112.466 63.415 112.796 63.415C112.931 63.415 113.081 63.46 113.216 63.58C113.621 63.94 114.071 64.42 114.386 64.885C114.491 65.02 114.521 65.155 114.521 65.29C114.521 65.62 114.236 65.89 113.921 65.89C113.741 65.89 113.561 65.8 113.426 65.605C113.066 65.11 112.661 64.675 112.316 64.33ZM113.816 63.145C113.696 63.025 113.651 62.905 113.651 62.785C113.651 62.485 113.936 62.23 114.281 62.23C114.431 62.23 114.581 62.29 114.731 62.41C115.121 62.74 115.571 63.205 115.886 63.64C116.006 63.79 116.051 63.94 116.051 64.09C116.051 64.42 115.766 64.66 115.451 64.66C115.271 64.66 115.076 64.585 114.926 64.39C114.581 63.955 114.161 63.505 113.816 63.145ZM104.546 67.465C105.701 66.535 106.856 65.635 107.771 64.975C108.176 64.69 108.581 64.54 108.986 64.54C109.406 64.54 109.811 64.705 110.201 65.05C111.851 66.52 114.506 68.395 116.696 69.58C117.086 69.79 117.251 70.12 117.251 70.435C117.251 70.915 116.861 71.38 116.336 71.38C116.156 71.38 115.976 71.32 115.781 71.215C113.531 69.925 110.846 67.9 109.361 66.49C109.211 66.34 109.061 66.265 108.926 66.265C108.791 66.265 108.671 66.325 108.521 66.445C107.801 67.015 106.631 67.93 105.626 68.785C105.416 68.95 105.206 69.025 105.011 69.025C104.546 69.025 104.156 68.62 104.156 68.17C104.156 67.93 104.276 67.675 104.546 67.465ZM121.736 65.32C121.121 65.41 120.506 65.5 119.891 65.5C119.396 65.5 119.141 65.125 119.141 64.72C119.141 64.315 119.396 63.925 119.906 63.895C120.506 63.865 121.226 63.775 122.036 63.64C122.171 62.815 122.231 62.155 122.321 61.33C122.366 60.865 122.756 60.64 123.146 60.64C123.566 60.64 123.986 60.91 123.986 61.39V61.48C123.911 62.2 123.836 62.74 123.746 63.31C124.166 63.22 124.601 63.115 125.036 63.01C125.111 62.995 125.186 62.98 125.261 62.98C125.726 62.98 126.011 63.37 126.011 63.775C126.011 64.09 125.831 64.405 125.426 64.51C124.736 64.705 124.076 64.87 123.476 65.005C122.936 67.945 122.216 70.72 121.376 72.895C121.196 73.345 120.821 73.555 120.461 73.555C120.041 73.555 119.636 73.255 119.636 72.79C119.636 72.655 119.666 72.52 119.726 72.37C120.551 70.33 121.211 67.945 121.736 65.32ZM124.751 70.465C124.751 69.955 125.171 69.67 125.591 69.67C125.936 69.67 126.266 69.865 126.311 70.3C126.416 71.26 126.956 71.53 128.591 71.53C129.356 71.53 130.001 71.47 130.601 71.38C130.646 71.365 130.721 71.365 130.766 71.365C131.276 71.365 131.561 71.8 131.561 72.205C131.561 72.565 131.336 72.925 130.871 73C130.226 73.105 129.476 73.165 128.621 73.165C126.521 73.165 125.591 72.625 125.111 71.86C124.871 71.485 124.751 70.885 124.751 70.465ZM126.251 65.56C127.421 65.32 128.906 65.155 130.106 65.155C130.646 65.155 130.916 65.56 130.916 65.965C130.916 66.355 130.661 66.73 130.151 66.73C128.951 66.73 127.556 66.91 126.491 67.12C126.431 67.135 126.356 67.135 126.311 67.135C125.846 67.135 125.561 66.76 125.561 66.355C125.561 66.01 125.771 65.665 126.251 65.56ZM134.606 62.95C134.651 62.47 135.071 62.23 135.476 62.23C135.926 62.23 136.361 62.5 136.361 63.025C136.361 63.235 136.301 63.97 136.301 64.435C136.301 69.685 137.366 71.065 137.996 71.065C138.356 71.065 138.686 70.825 138.971 69.7C139.091 69.25 139.406 69.055 139.736 69.055C140.171 69.055 140.591 69.37 140.591 69.865C140.591 69.955 140.591 70.03 140.561 70.12C140.006 72.13 139.046 72.865 138.041 72.865C135.866 72.865 134.546 70.18 134.546 64.48C134.546 63.79 134.576 63.34 134.606 62.95ZM143.876 64.015C145.136 65.185 146.291 67.06 146.786 68.59C146.831 68.71 146.846 68.815 146.846 68.905C146.846 69.4 146.426 69.7 146.006 69.7C145.691 69.7 145.361 69.535 145.211 69.13C144.671 67.75 143.696 66.175 142.616 65.05C142.436 64.87 142.361 64.675 142.361 64.495C142.361 64.075 142.766 63.73 143.216 63.73C143.426 63.73 143.666 63.82 143.876 64.015ZM158.381 69.13L158.441 71.485V73.75C158.441 74.185 158.051 74.395 157.646 74.395C157.256 74.395 156.851 74.185 156.851 73.75V71.485L156.911 69.115C155.981 70.375 154.556 71.785 153.116 72.775C152.921 72.91 152.741 72.955 152.576 72.955C152.156 72.955 151.856 72.61 151.856 72.235C151.856 71.995 151.976 71.74 152.246 71.56C153.746 70.555 155.186 69.16 156.296 67.51H154.076C153.671 67.51 153.476 67.15 153.476 66.79C153.476 66.43 153.671 66.07 154.076 66.07H156.851V64.33H154.751C154.346 64.33 154.151 63.97 154.151 63.61C154.151 63.25 154.346 62.89 154.751 62.89H156.851V60.91C156.851 60.475 157.256 60.25 157.646 60.25C158.051 60.25 158.441 60.475 158.441 60.91V62.89H160.781C161.186 62.89 161.396 63.25 161.396 63.61C161.396 63.97 161.186 64.33 160.781 64.33H158.441V66.07H161.711C162.116 66.07 162.326 66.43 162.326 66.79C162.326 67.15 162.116 67.51 161.711 67.51H158.831C159.716 68.845 160.856 70.105 162.086 71.125C162.356 71.35 162.476 71.62 162.476 71.86C162.476 72.28 162.131 72.625 161.696 72.625C161.471 72.625 161.231 72.535 160.991 72.31C160.031 71.365 159.086 70.24 158.381 69.13ZM151.601 70.255H150.311C149.306 70.255 148.871 69.805 148.871 68.875V62.77C148.871 61.825 149.306 61.375 150.311 61.375H151.601C152.606 61.375 153.041 61.825 153.041 62.77V68.875C153.041 69.865 152.561 70.255 151.601 70.255ZM150.671 68.815H151.241C151.466 68.815 151.556 68.71 151.556 68.455V63.19C151.556 62.92 151.466 62.815 151.241 62.815H150.671C150.446 62.815 150.356 62.92 150.356 63.19V68.455C150.356 68.68 150.446 68.815 150.671 68.815ZM168.056 65.89L168.086 65.92C168.476 65.77 168.911 65.665 169.376 65.665C170.411 65.665 171.086 65.98 171.476 67.09C172.646 66.595 173.906 66.145 175.226 65.74C175.331 65.71 175.436 65.695 175.526 65.695C176.021 65.695 176.306 66.1 176.306 66.505C176.306 66.82 176.126 67.15 175.706 67.27C174.401 67.66 173.066 68.11 171.806 68.62C171.881 69.175 171.911 69.835 171.941 70.615C171.956 71.125 171.521 71.395 171.086 71.395C170.696 71.395 170.306 71.17 170.291 70.705C170.276 70.135 170.246 69.655 170.216 69.25C168.656 70.045 168.296 70.72 168.296 71.275C168.296 71.86 168.836 72.205 170.561 72.205C171.506 72.205 172.496 72.115 173.471 71.95C173.531 71.935 173.591 71.935 173.636 71.935C174.146 71.935 174.446 72.34 174.446 72.76C174.446 73.12 174.206 73.48 173.696 73.57C172.721 73.75 171.611 73.81 170.621 73.81C167.786 73.81 166.586 72.865 166.586 71.395C166.586 70.195 167.291 69.04 169.961 67.705C169.766 67.15 169.451 67.03 168.911 67.03C168.356 67.03 167.261 67.435 165.836 68.575C165.656 68.71 165.476 68.77 165.296 68.77C164.861 68.77 164.486 68.395 164.486 67.975C164.486 67.75 164.591 67.525 164.831 67.315C165.776 66.49 166.631 65.515 167.366 64.39C166.781 64.435 166.241 64.45 165.746 64.465C165.206 64.48 164.921 64.075 164.921 63.685C164.921 63.31 165.191 62.92 165.746 62.92C166.451 62.92 167.291 62.875 168.161 62.815C168.416 62.215 168.641 61.63 168.821 61.075C168.941 60.7 169.256 60.535 169.586 60.535C170.006 60.535 170.411 60.805 170.411 61.225C170.411 61.3 170.411 61.375 170.381 61.45C170.246 61.87 170.096 62.26 169.931 62.635C170.711 62.56 171.461 62.455 172.106 62.335C172.166 62.32 172.226 62.32 172.286 62.32C172.751 62.32 173.006 62.68 173.006 63.04C173.006 63.37 172.796 63.715 172.346 63.79C171.401 63.955 170.276 64.12 169.166 64.225C168.791 64.84 168.416 65.41 168.056 65.89ZM188.141 73.885H182.726C181.211 73.885 180.536 73.27 180.536 72.115V64.135C180.536 62.98 181.211 62.335 182.726 62.335H184.091C184.286 61.825 184.451 61.3 184.601 60.775C184.721 60.355 185.081 60.175 185.426 60.175C185.861 60.175 186.281 60.445 186.281 60.925C186.281 61.015 186.266 61.105 186.236 61.21C186.116 61.6 185.966 61.975 185.816 62.335H188.141C189.656 62.335 190.331 62.98 190.331 64.135V72.115C190.331 73.51 189.386 73.885 188.141 73.885ZM182.906 72.385H187.961C188.531 72.385 188.681 72.145 188.681 71.74V70.345H182.186V71.74C182.186 72.22 182.441 72.385 182.906 72.385ZM182.186 67.045V68.905H188.681V67.045H182.186ZM188.681 65.605V64.465C188.681 64.06 188.531 63.805 187.961 63.805H182.906C182.336 63.805 182.186 64.06 182.186 64.465V65.605H188.681ZM202.391 67.81H199.901C199.436 70.825 198.011 72.835 195.296 74.095C195.131 74.17 194.981 74.2 194.846 74.2C194.396 74.2 194.066 73.84 194.066 73.45C194.066 73.18 194.231 72.88 194.621 72.685C196.781 71.635 197.891 70.105 198.281 67.81H196.796C196.361 67.81 196.151 67.45 196.151 67.105C196.151 66.745 196.361 66.4 196.796 66.4H202.646C204.071 66.4 204.626 66.865 204.626 67.975C204.626 69.745 204.431 71.2 204.116 72.325C203.741 73.615 203.081 74.08 201.926 74.08C201.341 74.08 200.876 74.035 200.501 73.975C200.021 73.885 199.811 73.54 199.811 73.195C199.811 72.79 200.081 72.4 200.591 72.4C200.651 72.4 200.711 72.4 200.786 72.415C201.086 72.475 201.431 72.505 201.791 72.505C202.181 72.505 202.391 72.385 202.511 71.935C202.781 70.93 202.961 69.595 202.961 68.275C202.961 67.93 202.811 67.81 202.391 67.81ZM197.426 61.165C197.576 60.82 197.891 60.67 198.191 60.67C198.626 60.67 199.046 60.955 199.046 61.405C199.046 61.51 199.016 61.615 198.971 61.735C198.131 63.715 196.706 65.725 194.966 67.285C194.756 67.48 194.516 67.555 194.321 67.555C193.871 67.555 193.496 67.18 193.496 66.745C193.496 66.535 193.601 66.295 193.826 66.085C195.431 64.645 196.631 62.965 197.426 61.165ZM203.081 61.09C203.891 62.74 205.496 64.555 206.996 65.65C207.311 65.89 207.446 66.16 207.446 66.43C207.446 66.895 207.041 67.3 206.561 67.3C206.381 67.3 206.186 67.24 206.006 67.09C204.221 65.665 202.496 63.61 201.611 61.645C201.551 61.525 201.536 61.405 201.536 61.3C201.536 60.88 201.911 60.595 202.316 60.595C202.616 60.595 202.916 60.745 203.081 61.09ZM216.206 64.015V63.985C214.406 64.225 212.021 64.585 209.861 64.9C209.801 64.915 209.756 64.915 209.711 64.915C209.171 64.915 208.871 64.48 208.871 64.06C208.871 63.67 209.111 63.31 209.651 63.235C212.771 62.845 216.641 62.41 219.761 62.125H219.851C220.376 62.125 220.661 62.515 220.661 62.92C220.661 63.28 220.436 63.64 219.971 63.73C219.446 63.82 218.876 64.015 218.321 64.33C215.981 65.665 215.486 67.225 215.486 68.65C215.486 70.315 216.641 71.335 218.741 71.59C219.296 71.665 219.551 72.07 219.551 72.475C219.551 72.925 219.266 73.36 218.666 73.36C218.561 73.36 218.246 73.345 217.991 73.3C215.261 72.79 213.746 70.93 213.746 68.695C213.746 67.12 214.511 65.35 216.206 64.015ZM218.561 66.745C218.456 66.625 218.411 66.505 218.411 66.4C218.411 66.1 218.711 65.83 219.041 65.83C219.176 65.83 219.326 65.875 219.461 65.995C219.866 66.355 220.316 66.835 220.631 67.3C220.736 67.435 220.766 67.57 220.766 67.705C220.766 68.035 220.481 68.305 220.166 68.305C219.986 68.305 219.806 68.215 219.671 68.02C219.311 67.525 218.906 67.09 218.561 66.745ZM220.061 65.56C219.941 65.44 219.896 65.32 219.896 65.2C219.896 64.9 220.181 64.645 220.526 64.645C220.676 64.645 220.826 64.705 220.976 64.825C221.366 65.155 221.816 65.62 222.131 66.055C222.251 66.205 222.296 66.355 222.296 66.505C222.296 66.835 222.011 67.075 221.696 67.075C221.516 67.075 221.321 67 221.171 66.805C220.826 66.37 220.406 65.92 220.061 65.56ZM59.3512 91.765H58.4212C58.0312 92.605 57.5812 93.385 57.1012 94.06C56.8912 94.36 56.6212 94.48 56.3662 94.48C55.9462 94.48 55.5862 94.165 55.5862 93.745C55.5862 93.58 55.6462 93.4 55.7662 93.22C56.7112 91.87 57.5512 90.025 58.0462 88.06C58.1512 87.655 58.4812 87.475 58.8262 87.475C59.2462 87.475 59.6662 87.73 59.6662 88.18C59.6662 88.255 59.6512 88.315 59.6362 88.39C59.4862 89.02 59.2762 89.665 59.0362 90.295H64.4962C64.9162 90.295 65.1262 90.67 65.1262 91.03C65.1262 91.405 64.9162 91.765 64.4962 91.765H60.9412V93.28H63.6412C64.0462 93.28 64.2562 93.64 64.2562 94C64.2562 94.36 64.0462 94.72 63.6412 94.72H60.9412V96.265H63.7012C64.1062 96.265 64.3162 96.625 64.3162 96.985C64.3162 97.345 64.1062 97.705 63.7012 97.705H60.9412V100.69C60.9412 101.125 60.5512 101.35 60.1462 101.35C59.7562 101.35 59.3512 101.125 59.3512 100.69V91.765ZM53.4262 100.75V93.67C53.1712 94.06 52.9012 94.435 52.6312 94.765C52.4362 95.005 52.1962 95.11 51.9712 95.11C51.5362 95.11 51.1312 94.75 51.1312 94.315C51.1312 94.135 51.1912 93.955 51.3412 93.76C52.5262 92.29 53.6212 90.025 54.2212 88.015C54.3412 87.625 54.6712 87.445 55.0162 87.445C55.4662 87.445 55.9162 87.73 55.9162 88.21C55.9162 88.285 55.9012 88.375 55.8712 88.465C55.5412 89.59 55.0012 90.85 54.3862 92.02C54.7462 92.065 55.0612 92.275 55.0612 92.665V100.75C55.0612 101.155 54.6562 101.365 54.2512 101.365C53.8312 101.365 53.4262 101.155 53.4262 100.75ZM71.1862 92.14L71.1562 92.755C73.2412 90.7 74.3962 89.905 75.4912 89.905C76.7962 89.905 77.3812 90.76 77.3812 91.915V92.125L77.0962 97.405V97.465C77.0962 97.78 77.2162 97.855 77.4712 97.855C77.7862 97.855 78.2212 97.705 78.9112 96.97C79.1212 96.745 79.3612 96.655 79.5862 96.655C80.0362 96.655 80.4262 97.03 80.4262 97.48C80.4262 97.675 80.3512 97.9 80.1562 98.11C79.1962 99.175 78.2512 99.595 77.3362 99.595C76.0612 99.595 75.3562 99.055 75.3562 97.735V97.525L75.6262 92.425V92.275C75.6262 91.825 75.4912 91.63 75.1462 91.63C74.5162 91.63 73.4212 92.485 71.1112 94.885L71.0962 99.955C71.0962 100.465 70.6912 100.72 70.2862 100.72C69.8812 100.72 69.4912 100.465 69.4912 99.955L69.5362 96.58L68.3962 98.335C68.2312 98.59 67.9912 98.71 67.7662 98.71C67.3462 98.71 66.9412 98.35 66.9412 97.93C66.9412 97.795 66.9862 97.645 67.0762 97.51C67.8112 96.46 68.6962 94.99 69.5812 93.31L69.6112 92.395L67.8262 92.725C67.7812 92.74 67.7362 92.74 67.6912 92.74C67.2562 92.74 67.0162 92.335 67.0162 91.96C67.0162 91.615 67.1962 91.285 67.6012 91.21L69.6262 90.865L69.6562 88.51C69.6562 88.045 70.0762 87.805 70.4662 87.805C70.8712 87.805 71.2762 88.045 71.2612 88.51L71.2162 90.64C71.5912 90.655 71.7262 90.91 71.7262 91.12C71.7262 91.39 71.6212 91.66 71.1862 92.14ZM87.4762 93.295L87.5062 93.34C88.1362 93.085 88.8112 92.965 89.4112 92.965C91.7512 92.965 93.2812 94.24 93.2812 96.325C93.2812 98.95 91.3912 100.63 88.4662 100.63C86.4112 100.63 85.1062 99.58 85.1062 98.245C85.1062 97.12 85.8562 96.325 87.1912 96.325C88.6312 96.325 89.6362 97.285 90.0712 98.785C91.0012 98.335 91.5262 97.465 91.5262 96.34C91.5262 95.275 90.6862 94.42 89.2462 94.42C87.7312 94.42 86.2612 94.945 84.4162 96.37C84.2062 96.535 83.9812 96.61 83.7862 96.61C83.3212 96.61 82.9462 96.22 82.9462 95.785C82.9462 95.545 83.0512 95.29 83.3212 95.08C85.0612 93.73 86.9962 91.735 88.3912 90.01C87.6562 90.13 86.6812 90.235 85.9312 90.295C85.8712 90.295 85.4812 90.34 85.2862 90.34C84.8062 90.34 84.5362 89.935 84.5362 89.53C84.5362 89.155 84.7762 88.78 85.2712 88.75C86.4862 88.69 88.0762 88.495 89.5162 88.27C89.5912 88.255 89.6512 88.255 89.7262 88.255C90.3412 88.255 90.7612 88.69 90.7612 89.2C90.7612 89.425 90.6712 89.665 90.4912 89.905C89.6062 91.045 88.4662 92.35 87.4762 93.295ZM88.3762 99.13H88.4962C88.2412 98.17 87.7912 97.66 87.1612 97.66C86.8462 97.66 86.6212 97.915 86.6212 98.245C86.6212 98.74 87.1912 99.13 88.3762 99.13ZM103.811 88.45V89.425C103.811 89.95 103.811 90.46 103.826 90.955C104.861 90.88 105.896 90.745 106.781 90.55C106.841 90.535 106.901 90.535 106.961 90.535C107.456 90.535 107.741 90.94 107.741 91.36C107.741 91.705 107.546 92.05 107.081 92.155C106.136 92.365 105.011 92.515 103.871 92.575C103.946 93.775 104.006 94.99 104.156 96.175C105.491 96.58 106.811 97.21 107.981 97.99C108.296 98.2 108.416 98.485 108.416 98.755C108.416 99.22 108.056 99.655 107.546 99.655C107.351 99.655 107.141 99.595 106.916 99.43C106.091 98.86 105.161 98.335 104.216 97.945C104.036 99.445 102.851 100.48 100.796 100.48C98.9212 100.48 97.6012 99.625 97.6012 98.095C97.6012 96.775 98.8162 95.665 100.841 95.665C101.351 95.665 101.876 95.71 102.416 95.785C102.236 94.03 102.086 91.96 102.086 89.38V88.45C102.086 87.97 102.521 87.745 102.956 87.745C103.376 87.745 103.811 87.97 103.811 88.45ZM100.796 98.905C101.786 98.905 102.521 98.335 102.521 97.42C101.951 97.285 101.381 97.21 100.841 97.21C99.8662 97.21 99.3862 97.57 99.3862 98.095C99.3862 98.635 99.8062 98.905 100.796 98.905ZM117.086 87.685C118.166 87.835 119.561 88.225 120.551 88.63C120.926 88.78 121.091 89.095 121.091 89.41C121.091 89.845 120.776 90.295 120.311 90.295C120.221 90.295 120.116 90.265 120.011 90.235C119.066 89.905 117.746 89.53 116.741 89.335C116.306 89.245 116.111 88.915 116.111 88.57C116.111 88.135 116.411 87.67 116.936 87.67C116.996 87.67 117.041 87.685 117.086 87.685ZM114.716 93.745C114.581 93.805 114.446 93.835 114.326 93.835C113.846 93.835 113.501 93.415 113.501 92.995C113.501 92.71 113.666 92.41 114.056 92.245C115.481 91.615 117.206 91.255 118.376 91.255C120.731 91.255 121.841 92.32 121.841 94.33C121.841 96.64 120.791 99.04 118.526 100.63C118.331 100.765 118.136 100.825 117.956 100.825C117.476 100.825 117.101 100.435 117.101 100C117.101 99.745 117.221 99.475 117.536 99.25C119.411 97.87 120.101 96.205 120.101 94.345C120.101 93.37 119.696 92.86 118.406 92.86C117.506 92.86 116.111 93.145 114.716 93.745ZM128.381 89.23C128.471 88.795 128.846 88.6 129.221 88.6C129.656 88.6 130.091 88.855 130.091 89.365C130.091 89.41 130.091 89.47 130.076 89.53C129.566 91.99 129.386 94.03 129.386 96.16C129.386 97.405 129.551 98.8 129.656 99.685C129.656 99.73 129.671 99.775 129.671 99.805C129.671 100.315 129.236 100.6 128.801 100.6C128.396 100.6 128.006 100.375 127.931 99.865C127.811 98.905 127.676 97.42 127.676 96.16C127.676 93.925 127.856 91.9 128.381 89.23ZM137.471 89.92H137.591C138.116 89.92 138.401 90.31 138.401 90.715C138.401 91.09 138.161 91.465 137.636 91.54C136.316 91.72 134.831 91.84 133.406 91.87C132.821 91.885 132.536 91.48 132.536 91.06C132.536 90.67 132.806 90.265 133.346 90.25C134.741 90.22 136.166 90.1 137.471 89.92ZM133.556 96.55C133.691 97.48 134.156 97.825 136.031 97.825C136.706 97.825 137.531 97.75 138.296 97.6C138.356 97.585 138.416 97.585 138.476 97.585C138.986 97.585 139.271 98.005 139.271 98.425C139.271 98.77 139.076 99.13 138.611 99.22C137.726 99.4 136.841 99.475 136.016 99.475C133.241 99.475 132.086 98.635 131.921 96.82V96.745C131.921 96.205 132.356 95.905 132.791 95.905C133.151 95.905 133.496 96.115 133.556 96.55ZM150.881 98.5C150.851 100.18 149.621 100.78 148.181 100.78C146.396 100.78 145.316 100 145.316 98.605C145.316 97.405 146.336 96.415 148.256 96.415C148.496 96.415 148.736 96.43 149.006 96.46C148.901 95.77 148.856 95.26 148.856 94.87C148.856 94.225 148.886 93.895 148.961 93.415C149.036 92.995 149.381 92.815 149.741 92.815C150.161 92.815 150.581 93.055 150.581 93.505C150.581 93.55 150.566 93.58 150.566 93.625C150.506 94.06 150.461 94.435 150.461 94.855C150.461 95.275 150.506 95.86 150.671 96.805C151.631 97.09 152.621 97.525 153.491 98.11C153.776 98.305 153.896 98.56 153.896 98.815C153.896 99.235 153.551 99.64 153.101 99.64C152.951 99.64 152.771 99.58 152.591 99.46C152.036 99.07 151.451 98.74 150.881 98.5ZM148.181 99.295C148.871 99.295 149.246 98.995 149.246 98.335C149.246 98.2 149.246 98.08 149.231 97.96C148.901 97.9 148.586 97.87 148.286 97.87C147.236 97.87 146.906 98.2 146.906 98.605C146.906 99.04 147.206 99.295 148.181 99.295ZM144.911 90.49C145.136 89.725 145.346 88.96 145.496 88.21C145.586 87.76 145.946 87.565 146.306 87.565C146.726 87.565 147.116 87.82 147.116 88.3C147.116 88.36 147.116 88.435 147.101 88.495C146.981 89.065 146.831 89.665 146.666 90.265C147.116 90.19 147.566 90.115 147.986 90.04C148.046 90.025 148.106 90.025 148.151 90.025C148.631 90.025 148.931 90.415 148.931 90.82C148.931 91.15 148.736 91.48 148.256 91.585C147.611 91.72 146.876 91.84 146.141 91.945C145.511 93.76 144.701 95.56 143.831 97C143.606 97.375 143.291 97.54 142.991 97.54C142.541 97.54 142.151 97.195 142.151 96.745C142.151 96.58 142.196 96.4 142.316 96.22C143.081 95.02 143.771 93.625 144.341 92.14C143.786 92.2 143.246 92.23 142.781 92.245C142.271 92.26 142.001 91.84 142.001 91.42C142.001 91.03 142.241 90.655 142.721 90.64C143.396 90.61 144.146 90.565 144.911 90.49ZM151.571 90.31C152.291 90.505 153.221 90.925 153.866 91.33C154.211 91.54 154.361 91.84 154.361 92.11C154.361 92.545 154.001 92.935 153.566 92.935C153.416 92.935 153.266 92.89 153.116 92.8C152.411 92.395 151.631 92.005 150.971 91.765C150.596 91.63 150.431 91.36 150.431 91.09C150.431 90.685 150.776 90.265 151.286 90.265C151.376 90.265 151.466 90.28 151.571 90.31ZM162.476 93.295L162.506 93.34C163.136 93.085 163.811 92.965 164.411 92.965C166.751 92.965 168.281 94.24 168.281 96.325C168.281 98.95 166.391 100.63 163.466 100.63C161.411 100.63 160.106 99.58 160.106 98.245C160.106 97.12 160.856 96.325 162.191 96.325C163.631 96.325 164.636 97.285 165.071 98.785C166.001 98.335 166.526 97.465 166.526 96.34C166.526 95.275 165.686 94.42 164.246 94.42C162.731 94.42 161.261 94.945 159.416 96.37C159.206 96.535 158.981 96.61 158.786 96.61C158.321 96.61 157.946 96.22 157.946 95.785C157.946 95.545 158.051 95.29 158.321 95.08C160.061 93.73 161.996 91.735 163.391 90.01C162.656 90.13 161.681 90.235 160.931 90.295C160.871 90.295 160.481 90.34 160.286 90.34C159.806 90.34 159.536 89.935 159.536 89.53C159.536 89.155 159.776 88.78 160.271 88.75C161.486 88.69 163.076 88.495 164.516 88.27C164.591 88.255 164.651 88.255 164.726 88.255C165.341 88.255 165.761 88.69 165.761 89.2C165.761 89.425 165.671 89.665 165.491 89.905C164.606 91.045 163.466 92.35 162.476 93.295ZM163.376 99.13H163.496C163.241 98.17 162.791 97.66 162.161 97.66C161.846 97.66 161.621 97.915 161.621 98.245C161.621 98.74 162.191 99.13 163.376 99.13ZM179.606 92.68C181.796 92.68 183.296 93.865 183.296 95.755C183.296 98.095 181.541 99.745 178.181 100.225C178.136 100.24 178.076 100.24 178.031 100.24C177.581 100.24 177.341 99.865 177.341 99.505C177.341 99.19 177.536 98.875 177.956 98.8C180.806 98.305 181.781 97.345 181.781 95.755C181.781 94.795 181.091 94.045 179.606 94.045C178.061 94.045 176.126 94.54 173.921 95.515C173.801 95.575 173.681 95.59 173.561 95.59C173.141 95.59 172.856 95.245 172.856 94.885C172.856 94.615 173.006 94.33 173.366 94.18C175.586 93.205 177.836 92.68 179.606 92.68ZM193.706 91.015V90.985C191.906 91.225 189.521 91.585 187.361 91.9C187.301 91.915 187.256 91.915 187.211 91.915C186.671 91.915 186.371 91.48 186.371 91.06C186.371 90.67 186.611 90.31 187.151 90.235C190.271 89.845 194.141 89.41 197.261 89.125H197.351C197.876 89.125 198.161 89.515 198.161 89.92C198.161 90.28 197.936 90.64 197.471 90.73C196.946 90.82 196.376 91.015 195.821 91.33C193.481 92.665 192.986 94.225 192.986 95.65C192.986 97.315 194.141 98.335 196.241 98.59C196.796 98.665 197.051 99.07 197.051 99.475C197.051 99.925 196.721 100.36 196.166 100.36C195.941 100.36 195.326 100.27 195.056 100.21C192.836 99.655 191.246 98.005 191.246 95.695C191.246 94.12 192.011 92.35 193.706 91.015ZM94.2859 114.685C95.3659 114.835 96.7609 115.225 97.7509 115.63C98.1259 115.78 98.2909 116.095 98.2909 116.41C98.2909 116.845 97.9759 117.295 97.5109 117.295C97.4209 117.295 97.3159 117.265 97.2109 117.235C96.2659 116.905 94.9459 116.53 93.9409 116.335C93.5059 116.245 93.3109 115.915 93.3109 115.57C93.3109 115.135 93.6109 114.67 94.1359 114.67C94.1959 114.67 94.2409 114.685 94.2859 114.685ZM91.9159 120.745C91.7809 120.805 91.6459 120.835 91.5259 120.835C91.0459 120.835 90.7009 120.415 90.7009 119.995C90.7009 119.71 90.8659 119.41 91.2559 119.245C92.6809 118.615 94.4059 118.255 95.5759 118.255C97.9309 118.255 99.0409 119.32 99.0409 121.33C99.0409 123.64 97.9909 126.04 95.7259 127.63C95.5309 127.765 95.3359 127.825 95.1559 127.825C94.6759 127.825 94.3009 127.435 94.3009 127C94.3009 126.745 94.4209 126.475 94.7359 126.25C96.6109 124.87 97.3009 123.205 97.3009 121.345C97.3009 120.37 96.8959 119.86 95.6059 119.86C94.7059 119.86 93.3109 120.145 91.9159 120.745ZM108.386 119.14L108.356 119.755C110.441 117.7 111.596 116.905 112.691 116.905C113.996 116.905 114.581 117.76 114.581 118.915V119.125L114.296 124.405V124.465C114.296 124.78 114.416 124.855 114.671 124.855C114.986 124.855 115.421 124.705 116.111 123.97C116.321 123.745 116.561 123.655 116.786 123.655C117.236 123.655 117.626 124.03 117.626 124.48C117.626 124.675 117.551 124.9 117.356 125.11C116.396 126.175 115.451 126.595 114.536 126.595C113.261 126.595 112.556 126.055 112.556 124.735V124.525L112.826 119.425V119.275C112.826 118.825 112.691 118.63 112.346 118.63C111.716 118.63 110.621 119.485 108.311 121.885L108.296 126.955C108.296 127.465 107.891 127.72 107.486 127.72C107.081 127.72 106.691 127.465 106.691 126.955L106.736 123.58L105.596 125.335C105.431 125.59 105.191 125.71 104.966 125.71C104.546 125.71 104.141 125.35 104.141 124.93C104.141 124.795 104.186 124.645 104.276 124.51C105.011 123.46 105.896 121.99 106.781 120.31L106.811 119.395L105.026 119.725C104.981 119.74 104.936 119.74 104.891 119.74C104.456 119.74 104.216 119.335 104.216 118.96C104.216 118.615 104.396 118.285 104.801 118.21L106.826 117.865L106.856 115.51C106.856 115.045 107.276 114.805 107.666 114.805C108.071 114.805 108.476 115.045 108.461 115.51L108.416 117.64C108.791 117.655 108.926 117.91 108.926 118.12C108.926 118.39 108.821 118.66 108.386 119.14ZM121.691 123.205C121.691 120.82 121.841 117.97 122.006 115.765C122.036 115.255 122.456 115.015 122.876 115.015C123.326 115.015 123.746 115.27 123.746 115.765C123.746 115.93 123.716 116.32 123.701 116.485C123.551 118.705 123.431 121 123.431 123.22C123.431 125.23 124.046 125.77 125.111 125.77C126.506 125.77 127.811 125.2 129.191 123.49C129.401 123.22 129.671 123.115 129.911 123.115C130.376 123.115 130.796 123.475 130.796 123.94C130.796 124.12 130.736 124.3 130.586 124.495C128.876 126.625 127.061 127.435 125.111 127.435C122.876 127.435 121.691 126.325 121.691 123.205ZM134.606 116.95C134.651 116.47 135.071 116.23 135.476 116.23C135.926 116.23 136.361 116.5 136.361 117.025C136.361 117.235 136.301 117.97 136.301 118.435C136.301 123.685 137.366 125.065 137.996 125.065C138.356 125.065 138.686 124.825 138.971 123.7C139.091 123.25 139.406 123.055 139.736 123.055C140.171 123.055 140.591 123.37 140.591 123.865C140.591 123.955 140.591 124.03 140.561 124.12C140.006 126.13 139.046 126.865 138.041 126.865C135.866 126.865 134.546 124.18 134.546 118.48C134.546 117.79 134.576 117.34 134.606 116.95ZM143.876 118.015C145.136 119.185 146.291 121.06 146.786 122.59C146.831 122.71 146.846 122.815 146.846 122.905C146.846 123.4 146.426 123.7 146.006 123.7C145.691 123.7 145.361 123.535 145.211 123.13C144.671 121.75 143.696 120.175 142.616 119.05C142.436 118.87 142.361 118.675 142.361 118.495C142.361 118.075 142.766 117.73 143.216 117.73C143.426 117.73 143.666 117.82 143.876 118.015ZM154.481 118C154.466 117.73 154.361 116.665 154.361 116.26C154.361 115.615 154.826 115.24 155.441 115.24C156.041 115.24 156.491 115.63 156.491 116.26C156.491 116.665 156.401 117.565 156.371 118C156.266 119.455 156.161 121.675 156.116 123.34C156.101 123.73 155.816 123.97 155.411 123.97C155.006 123.97 154.751 123.73 154.736 123.34C154.676 121.69 154.586 119.47 154.481 118ZM155.426 124.945C156.071 124.945 156.566 125.44 156.566 126.07C156.566 126.7 156.071 127.18 155.426 127.18C154.781 127.18 154.286 126.7 154.286 126.07C154.286 125.44 154.781 124.945 155.426 124.945Z" fill="black"/>
<defs>
<clipPath id="clip0_1377_1819">
<rect width="132" height="132" fill="white" transform="matrix(-1 0 0 1 189.926 153)"/>
</clipPath>
</defs>
</svg>
