<svg width="356" height="267" viewBox="0 0 356 267" fill="none" xmlns="http://www.w3.org/2000/svg">
<path d="M168.5 64L46.5 82.5L0 121.989L18.4935 243.798L174.532 267L320.169 220.596L356 141.711L306.5 64H168.5Z" fill="white"/>
<path d="M102.42 155.956L102.508 153.36C101.738 154.394 100.836 155.34 99.956 156.044C99.692 156.264 99.406 156.352 99.164 156.352C98.57 156.352 98.064 155.846 98.064 155.296C98.064 155.01 98.196 154.702 98.526 154.438C99.692 153.514 100.88 152.238 101.848 150.808H99.67C99.142 150.808 98.856 150.302 98.856 149.796C98.856 149.29 99.142 148.784 99.67 148.784H102.42V147.112H99.12C98.592 147.112 98.306 146.606 98.306 146.1C98.306 145.594 98.592 145.088 99.12 145.088H103.674C104.026 144.318 104.334 143.57 104.62 142.624C104.774 142.096 105.192 141.876 105.61 141.876C106.138 141.876 106.688 142.25 106.688 142.822C106.688 142.932 106.666 143.042 106.622 143.152C106.358 143.922 106.116 144.538 105.874 145.088H108.074C108.624 145.088 108.888 145.594 108.888 146.1C108.888 146.606 108.624 147.112 108.074 147.112H104.664V148.784H107.348C107.898 148.784 108.162 149.29 108.162 149.796C108.162 150.302 107.898 150.808 107.348 150.808H104.664V151.688C105.522 152.062 106.446 152.568 107.15 153.096C107.524 153.36 107.656 153.69 107.656 154.02C107.656 154.57 107.194 155.076 106.622 155.076C106.424 155.076 106.204 155.01 106.006 154.856C105.588 154.548 105.126 154.24 104.664 153.932V157.078C104.664 157.716 104.114 158.024 103.542 158.024C102.992 158.024 102.42 157.716 102.42 157.078V155.956ZM102.376 139.61V138.246C102.376 137.63 102.97 137.344 103.542 137.344C104.136 137.344 104.708 137.63 104.708 138.246V139.61H107.458C108.008 139.61 108.272 140.116 108.272 140.622C108.272 141.128 108.008 141.634 107.458 141.634H99.758C99.23 141.634 98.944 141.128 98.944 140.622C98.944 140.116 99.23 139.61 99.758 139.61H102.376ZM109.68 145.396V140.248C109.68 139.61 110.274 139.302 110.846 139.302C111.132 139.302 111.396 139.368 111.594 139.5C113.156 139.104 114.52 138.62 115.774 138.07C115.972 137.982 116.17 137.938 116.346 137.938C117.006 137.938 117.446 138.51 117.446 139.104C117.446 139.5 117.248 139.874 116.786 140.094C115.444 140.688 113.794 141.238 112.012 141.678V144.604H117.864C118.458 144.604 118.744 145.11 118.744 145.616C118.744 146.144 118.458 146.65 117.864 146.65H116.368V156.726C116.368 157.386 115.796 157.716 115.202 157.716C114.63 157.716 114.036 157.386 114.036 156.726V146.65H111.99C111.858 151.182 110.956 154.526 109.438 156.968C109.152 157.43 108.734 157.606 108.36 157.606C107.766 157.606 107.216 157.188 107.216 156.55C107.216 156.33 107.304 156.066 107.48 155.78C108.91 153.58 109.68 150.346 109.68 145.396ZM102.97 143.614C103.014 143.746 103.036 143.856 103.036 143.988C103.036 144.538 102.508 144.912 101.98 144.912C101.584 144.912 101.21 144.714 101.034 144.274C100.88 143.944 100.792 143.746 100.594 143.306C100.506 143.152 100.484 142.998 100.484 142.844C100.484 142.316 100.99 141.964 101.518 141.964C101.892 141.964 102.288 142.14 102.508 142.58C102.684 142.954 102.794 143.174 102.97 143.614ZM132.736 142.492H139.116C139.754 142.492 140.062 143.042 140.062 143.592C140.062 144.142 139.754 144.692 139.116 144.692H132.736V148.212H137.752C138.39 148.212 138.698 148.74 138.698 149.29C138.698 149.818 138.39 150.368 137.752 150.368H132.736V154.636H140.348C140.986 154.636 141.294 155.186 141.294 155.758C141.294 156.308 140.986 156.88 140.348 156.88H122.44C121.824 156.88 121.516 156.308 121.516 155.758C121.516 155.186 121.824 154.636 122.44 154.636H130.272V150.368H125.63C125.014 150.368 124.706 149.818 124.706 149.29C124.706 148.74 125.014 148.212 125.63 148.212H130.272V144.692H125.52C124.948 146.056 124.288 147.354 123.606 148.432C123.298 148.938 122.836 149.158 122.418 149.158C121.78 149.158 121.23 148.696 121.23 148.08C121.23 147.86 121.296 147.596 121.45 147.354C122.792 145.198 123.87 142.536 124.618 139.764C124.794 139.148 125.3 138.862 125.806 138.862C126.422 138.862 127.06 139.28 127.06 139.962C127.06 140.05 127.038 140.138 127.016 140.248C126.84 140.996 126.62 141.744 126.356 142.492H130.272V138.202C130.272 137.564 130.888 137.234 131.504 137.234C132.12 137.234 132.736 137.564 132.736 138.202V142.492ZM155.792 149.356V146.518H150.754C150.138 146.518 149.83 145.968 149.83 145.418C149.83 144.89 150.138 144.34 150.754 144.34H155.792V141.612C154.692 141.788 153.57 141.986 152.448 141.986C151.744 141.986 151.348 141.436 151.348 140.886C151.348 140.38 151.656 139.896 152.382 139.83C154.934 139.588 158.3 138.95 160.742 138.18C160.874 138.136 161.006 138.114 161.138 138.114C161.798 138.114 162.26 138.708 162.26 139.302C162.26 139.742 161.996 140.204 161.336 140.402C160.39 140.688 159.312 140.952 158.168 141.172V144.34H163.25C163.866 144.34 164.174 144.89 164.174 145.44C164.174 145.968 163.866 146.518 163.25 146.518H158.168V149.356H159.664C161.468 149.356 162.282 150.016 162.282 151.6V154.922C162.282 156.704 161.182 157.166 159.576 157.166H154.318C152.514 157.166 151.612 156.506 151.612 154.922V151.6C151.612 150.016 152.426 149.356 154.23 149.356H155.792ZM154.736 155.076H159.158C159.664 155.076 159.906 154.9 159.906 154.46V152.018C159.906 151.578 159.664 151.402 159.158 151.402H154.736C154.23 151.402 153.988 151.578 153.988 152.018V154.46C153.988 154.944 154.296 155.076 154.736 155.076ZM147.432 150.016C147.608 149.488 148.07 149.246 148.532 149.246C149.17 149.246 149.83 149.686 149.83 150.368C149.83 150.5 149.808 150.632 149.764 150.764C149.126 152.788 148.048 155.12 147.08 156.638C146.772 157.122 146.31 157.32 145.892 157.32C145.232 157.32 144.638 156.858 144.638 156.22C144.638 156 144.704 155.758 144.88 155.494C145.826 154.042 146.772 151.908 147.432 150.016ZM147.608 138.158C148.246 138.598 148.994 139.236 149.522 139.808C149.808 140.116 149.896 140.424 149.896 140.71C149.896 141.348 149.346 141.876 148.73 141.876C148.422 141.876 148.114 141.744 147.85 141.458C147.256 140.864 146.574 140.204 146.068 139.786C145.76 139.522 145.628 139.236 145.628 138.972C145.628 138.4 146.178 137.894 146.838 137.894C147.08 137.894 147.366 137.982 147.608 138.158ZM145.98 143.372C146.64 143.812 147.476 144.494 148.004 145.088C148.29 145.396 148.4 145.704 148.4 145.99C148.4 146.628 147.806 147.156 147.168 147.156C146.882 147.156 146.574 147.046 146.332 146.782C145.782 146.21 144.946 145.462 144.44 145.066C144.11 144.802 143.978 144.516 143.978 144.23C143.978 143.658 144.55 143.108 145.21 143.108C145.452 143.108 145.716 143.196 145.98 143.372ZM169.894 140.204C170.026 139.566 170.576 139.28 171.126 139.28C171.764 139.28 172.402 139.654 172.402 140.402C172.402 140.468 172.402 140.556 172.38 140.644C171.632 144.252 171.368 147.244 171.368 150.368C171.368 152.194 171.61 154.24 171.764 155.538C171.764 155.604 171.786 155.67 171.786 155.714C171.786 156.462 171.148 156.88 170.51 156.88C169.916 156.88 169.344 156.55 169.234 155.802C169.058 154.394 168.86 152.216 168.86 150.368C168.86 147.09 169.124 144.12 169.894 140.204ZM183.226 141.216H183.402C184.172 141.216 184.59 141.788 184.59 142.382C184.59 142.932 184.238 143.482 183.468 143.592C181.532 143.856 179.354 144.032 177.264 144.076C176.406 144.098 175.988 143.504 175.988 142.888C175.988 142.316 176.384 141.722 177.176 141.7C179.222 141.656 181.312 141.48 183.226 141.216ZM177.484 150.94C177.682 152.304 178.364 152.81 181.114 152.81C182.104 152.81 183.314 152.7 184.436 152.48C184.524 152.458 184.612 152.458 184.7 152.458C185.448 152.458 185.866 153.074 185.866 153.69C185.866 154.196 185.58 154.724 184.898 154.856C183.6 155.12 182.302 155.23 181.092 155.23C177.022 155.23 175.328 153.998 175.086 151.336V151.226C175.086 150.434 175.724 149.994 176.362 149.994C176.89 149.994 177.396 150.302 177.484 150.94ZM201.266 153.03H198.406C196.36 153.03 195.722 152.37 195.722 150.852V147.816C195.722 146.298 196.36 145.638 198.406 145.638H201.266C203.312 145.638 203.95 146.298 203.95 147.816V150.852C203.95 152.722 202.938 153.03 201.266 153.03ZM198.67 151.094H201.002C201.618 151.094 201.75 150.94 201.75 150.5V148.168C201.75 147.728 201.618 147.574 201.002 147.574H198.67C198.054 147.574 197.922 147.728 197.922 148.168V150.5C197.922 151.028 198.186 151.094 198.67 151.094ZM194.138 141.15H197.064C197.504 140.226 197.856 139.324 198.186 138.334C198.406 137.674 198.934 137.41 199.44 137.41C200.078 137.41 200.694 137.828 200.694 138.532C200.694 138.664 200.672 138.84 200.606 139.016C200.32 139.742 199.99 140.468 199.594 141.15H205.622C207.8 141.15 208.724 142.096 208.724 143.746V154.856C208.724 156.77 207.844 157.562 205.864 157.562C205.402 157.562 204.896 157.518 204.412 157.408C203.752 157.276 203.444 156.77 203.444 156.286C203.444 155.67 203.862 155.098 204.588 155.098C204.676 155.098 204.764 155.098 204.874 155.12C205.226 155.186 205.512 155.23 205.776 155.23C206.172 155.23 206.348 155.076 206.348 154.548V144.274C206.348 143.68 206.128 143.306 205.292 143.306H194.468C193.632 143.306 193.412 143.68 193.412 144.274V156.704C193.412 157.386 192.818 157.738 192.224 157.738C191.63 157.738 191.036 157.386 191.036 156.704V143.746C191.036 142.096 191.96 141.15 194.138 141.15ZM226.544 147.222V145.814C225.598 145.88 224.674 145.924 223.838 145.924C223.024 145.924 222.518 145.924 221.946 145.88C221.242 145.836 220.89 145.286 220.89 144.736C220.89 144.164 221.264 143.614 221.946 143.614C222.562 143.614 223.156 143.658 223.772 143.658C224.652 143.658 225.576 143.614 226.478 143.548C226.434 142.228 226.39 141.546 226.302 140.226C226.302 140.094 226.258 139.742 226.258 139.566C226.258 138.862 226.852 138.532 227.468 138.532C228.04 138.532 228.634 138.84 228.678 139.5C228.788 140.732 228.854 142.008 228.898 143.328C229.69 143.218 230.438 143.108 231.098 142.976C231.186 142.954 231.252 142.954 231.318 142.954C232.022 142.954 232.418 143.526 232.418 144.076C232.418 144.56 232.132 145.022 231.538 145.154C230.746 145.308 229.866 145.462 228.942 145.572C228.964 146.122 228.964 146.672 228.964 147.222C228.964 151.468 227.82 154.614 225.972 156.704C225.686 157.034 225.312 157.188 224.96 157.188C224.3 157.188 223.706 156.682 223.706 156.022C223.706 155.736 223.794 155.45 224.058 155.142C225.664 153.25 226.544 150.83 226.544 147.222ZM215.896 139.808C216.05 139.192 216.578 138.906 217.128 138.906C217.766 138.906 218.404 139.302 218.404 140.006C218.404 140.094 218.382 140.204 218.36 140.314C217.656 143.24 217.348 146.232 217.348 148.916C217.348 150.808 217.546 152.744 217.81 154.152C217.832 154.262 217.854 154.372 217.854 154.482C217.854 155.252 217.216 155.67 216.578 155.67C216.028 155.67 215.478 155.362 215.324 154.68C214.972 153.074 214.796 151.028 214.796 148.938C214.796 146.056 215.126 142.888 215.896 139.808ZM247.224 142.822V142.778C244.584 143.13 241.086 143.658 237.918 144.12C237.83 144.142 237.764 144.142 237.698 144.142C236.906 144.142 236.466 143.504 236.466 142.888C236.466 142.316 236.818 141.788 237.61 141.678C242.186 141.106 247.862 140.468 252.438 140.05H252.57C253.34 140.05 253.758 140.622 253.758 141.216C253.758 141.744 253.428 142.272 252.746 142.404C251.976 142.536 251.14 142.822 250.326 143.284C246.894 145.242 246.168 147.53 246.168 149.62C246.168 152.062 247.862 153.558 250.942 153.932C251.756 154.042 252.13 154.636 252.13 155.23C252.13 155.89 251.646 156.528 250.832 156.528C250.502 156.528 249.6 156.396 249.204 156.308C245.948 155.494 243.616 153.074 243.616 149.686C243.616 147.376 244.738 144.78 247.224 142.822ZM56.5039 194.79L56.5919 190.522C56.0419 191.754 55.3599 192.92 54.6999 193.712C54.3919 194.086 54.0399 194.24 53.7099 194.24C53.1599 194.24 52.6979 193.822 52.6979 193.272C52.6979 193.052 52.7859 192.788 52.9839 192.546C54.2159 191.028 55.2499 189.026 56.0419 186.87H53.7759C53.2259 186.87 52.9399 186.342 52.9399 185.836C52.9399 185.308 53.2259 184.802 53.7539 184.802H56.5039V178.224C56.5039 177.63 57.0759 177.344 57.6479 177.344C58.2199 177.344 58.7919 177.63 58.7919 178.224V184.802H60.9039C61.4539 184.802 61.7399 185.308 61.7399 185.836C61.7399 186.342 61.4539 186.87 60.9039 186.87H58.7919V187.794C59.9359 188.498 61.0359 189.4 61.4759 189.906C61.7399 190.214 61.8499 190.5 61.8499 190.786C61.8499 191.336 61.3879 191.776 60.8599 191.776C60.5739 191.776 60.2659 191.644 60.0019 191.358C59.6499 190.962 59.2319 190.566 58.7919 190.192V197.034C58.7919 197.694 58.2199 198.024 57.6479 198.024C57.0759 198.024 56.5039 197.694 56.5039 197.034V194.79ZM70.7159 189.158L72.2559 188.806C72.3439 188.784 72.4099 188.784 72.4979 188.784C73.1139 188.784 73.4879 189.378 73.4879 189.95C73.4879 190.39 73.2459 190.808 72.7179 190.94L70.7159 191.402V196.88C70.7159 197.562 70.1219 197.892 69.5279 197.892C68.9119 197.892 68.3179 197.562 68.3179 196.88V191.93L63.2139 193.096C63.1259 193.118 63.0599 193.118 62.9939 193.118C62.3779 193.118 61.9819 192.502 61.9819 191.93C61.9819 191.49 62.2019 191.05 62.7299 190.94L68.3179 189.686V178.466C68.3179 177.784 68.9119 177.454 69.5279 177.454C70.1219 177.454 70.7159 177.784 70.7159 178.466V189.158ZM59.8919 180.644C60.0019 180.226 60.3539 180.028 60.7279 180.028C61.2119 180.028 61.6959 180.358 61.6959 180.886C61.6959 180.952 61.6959 181.04 61.6739 181.128C61.4979 181.854 61.1679 182.778 60.8379 183.438C60.6619 183.768 60.3319 183.922 60.0239 183.922C59.5399 183.922 59.0779 183.614 59.0779 183.152C59.0779 183.042 59.0999 182.932 59.1659 182.8C59.4299 182.206 59.6939 181.436 59.8919 180.644ZM55.4259 180.71C55.7779 181.48 56.1079 182.272 56.1519 182.756C56.1739 182.822 56.1739 182.888 56.1739 182.954C56.1739 183.548 55.6679 183.922 55.1619 183.922C54.7659 183.922 54.3699 183.702 54.2599 183.196C54.1279 182.646 53.8859 181.81 53.6659 181.304C53.6219 181.172 53.5999 181.062 53.5999 180.952C53.5999 180.468 54.0619 180.182 54.5459 180.182C54.8979 180.182 55.2499 180.336 55.4259 180.71ZM65.3919 180.424C66.0079 180.864 66.6899 181.414 67.1959 181.986C67.4379 182.25 67.5479 182.536 67.5479 182.8C67.5479 183.416 66.9979 183.922 66.4039 183.922C66.1179 183.922 65.8099 183.812 65.5459 183.548C65.0179 183.042 64.4239 182.514 63.9399 182.096C63.6539 181.854 63.5219 181.546 63.5219 181.282C63.5219 180.71 64.0499 180.182 64.6879 180.182C64.9079 180.182 65.1499 180.248 65.3919 180.424ZM64.5559 185.022C65.2159 185.484 65.8539 185.99 66.4479 186.606C66.6899 186.87 66.7999 187.156 66.7999 187.42C66.7999 188.036 66.2499 188.564 65.6559 188.564C65.3699 188.564 65.0839 188.454 64.8199 188.19C64.3139 187.706 63.6319 187.09 63.1039 186.694C62.7959 186.452 62.6639 186.166 62.6639 185.88C62.6639 185.308 63.2139 184.78 63.8519 184.78C64.0719 184.78 64.3139 184.846 64.5559 185.022ZM88.3158 188.696H86.7098C84.7958 188.696 84.0038 187.926 84.0038 186.342V180.908C84.0038 179.324 84.7958 178.532 86.7098 178.532H92.3639C94.2779 178.532 95.0919 179.324 95.0919 180.908V186.342C95.0919 187.926 94.2779 188.696 92.3639 188.696H90.6698V190.742H94.0579C94.6079 190.742 94.8939 191.248 94.8939 191.776C94.8939 192.282 94.6079 192.81 94.0579 192.81H90.6698V195.186H95.4438C95.9939 195.186 96.2798 195.692 96.2798 196.22C96.2798 196.726 95.9939 197.254 95.4438 197.254H82.4638C81.9358 197.254 81.6498 196.726 81.6498 196.22C81.6498 195.692 81.9358 195.186 82.4638 195.186H88.3158V192.81H84.8838C84.3558 192.81 84.0698 192.282 84.0698 191.776C84.0698 191.248 84.3558 190.742 84.8838 190.742H88.3158V188.696ZM86.9519 186.716H88.3819V184.604H86.2479V186.144C86.2479 186.65 86.4898 186.716 86.9519 186.716ZM86.2479 182.668H88.3819V180.556H86.9519C86.4018 180.556 86.2479 180.666 86.2479 181.128V182.668ZM90.5818 180.556V182.668H92.8479V181.128C92.8479 180.666 92.7158 180.556 92.1439 180.556H90.5818ZM92.8479 184.604H90.5818V186.716H92.1439C92.7158 186.716 92.8479 186.606 92.8479 186.144V184.604ZM78.4378 191.842V186.936H77.0518C76.4798 186.936 76.1938 186.408 76.1938 185.88C76.1938 185.374 76.4798 184.846 77.0518 184.846H78.4378V181.194H76.7438C76.1718 181.194 75.8858 180.666 75.8858 180.138C75.8858 179.632 76.1718 179.104 76.7438 179.104H82.3318C82.9038 179.104 83.1898 179.632 83.1898 180.138C83.1898 180.666 82.9038 181.194 82.3318 181.194H80.7478V184.846H81.9798C82.5518 184.846 82.8378 185.374 82.8378 185.88C82.8378 186.408 82.5518 186.936 81.9798 186.936H80.7478V191.116C81.1438 190.962 81.5398 190.83 81.8918 190.676C82.0678 190.61 82.2218 190.588 82.3758 190.588C82.9918 190.588 83.3658 191.116 83.3658 191.644C83.3658 192.018 83.1898 192.392 82.7498 192.59C80.9458 193.404 78.7898 194.13 77.0738 194.526C76.9638 194.548 76.8538 194.57 76.7658 194.57C76.0838 194.57 75.6878 193.998 75.6878 193.426C75.6878 192.942 75.9518 192.502 76.5458 192.348C77.1398 192.216 77.7778 192.04 78.4378 191.842ZM105.432 185.572L105.476 185.616C106.048 185.396 106.686 185.242 107.368 185.242C108.886 185.242 109.876 185.704 110.448 187.332C112.164 186.606 114.012 185.946 115.948 185.352C116.102 185.308 116.256 185.286 116.388 185.286C117.114 185.286 117.532 185.88 117.532 186.474C117.532 186.936 117.268 187.42 116.652 187.596C114.738 188.168 112.78 188.828 110.932 189.576C111.042 190.39 111.086 191.358 111.13 192.502C111.152 193.25 110.514 193.646 109.876 193.646C109.304 193.646 108.732 193.316 108.71 192.634C108.688 191.798 108.644 191.094 108.6 190.5C106.312 191.666 105.784 192.656 105.784 193.47C105.784 194.328 106.576 194.834 109.106 194.834C110.492 194.834 111.944 194.702 113.374 194.46C113.462 194.438 113.55 194.438 113.616 194.438C114.364 194.438 114.804 195.032 114.804 195.648C114.804 196.176 114.452 196.704 113.704 196.836C112.274 197.1 110.646 197.188 109.194 197.188C105.036 197.188 103.276 195.802 103.276 193.646C103.276 191.886 104.31 190.192 108.226 188.234C107.94 187.42 107.478 187.244 106.686 187.244C105.872 187.244 104.266 187.838 102.176 189.51C101.912 189.708 101.648 189.796 101.384 189.796C100.746 189.796 100.196 189.246 100.196 188.63C100.196 188.3 100.35 187.97 100.702 187.662C102.088 186.452 103.342 185.022 104.42 183.372C103.562 183.438 102.77 183.46 102.044 183.482C101.252 183.504 100.834 182.91 100.834 182.338C100.834 181.788 101.23 181.216 102.044 181.216C103.078 181.216 104.31 181.15 105.586 181.062C105.96 180.182 106.29 179.324 106.554 178.51C106.73 177.96 107.192 177.718 107.676 177.718C108.292 177.718 108.886 178.114 108.886 178.73C108.886 178.84 108.886 178.95 108.842 179.06C108.644 179.676 108.424 180.248 108.182 180.798C109.326 180.688 110.426 180.534 111.372 180.358C111.46 180.336 111.548 180.336 111.636 180.336C112.318 180.336 112.692 180.864 112.692 181.392C112.692 181.876 112.384 182.382 111.724 182.492C110.338 182.734 108.688 182.976 107.06 183.13C106.51 184.032 105.96 184.868 105.432 185.572ZM132.888 178.598V180.776H134.296C135.572 180.776 136.782 180.798 137.904 180.82C138.652 180.842 139.026 181.414 139.026 182.008C139.026 182.58 138.652 183.13 137.904 183.13C137.046 183.108 136.1 183.086 135.11 183.086C134.406 183.086 133.68 183.108 132.932 183.108C132.932 183.878 132.954 184.648 132.998 185.418C134.45 185.33 135.858 185.22 137.134 185.066H137.31C138.08 185.066 138.476 185.616 138.476 186.188C138.476 186.716 138.124 187.266 137.398 187.354C136.056 187.53 134.604 187.64 133.13 187.728C133.174 188.696 133.262 189.664 133.35 190.632C135.22 191.116 137.09 191.93 138.872 193.03C139.4 193.36 139.62 193.8 139.62 194.218C139.62 194.9 139.048 195.516 138.322 195.516C138.08 195.516 137.838 195.45 137.574 195.274C136.232 194.394 134.868 193.668 133.504 193.162V193.316C133.504 195.692 131.436 196.836 128.884 196.836C126.09 196.836 124.374 195.494 124.374 193.448C124.374 191.534 125.958 190.06 129.104 190.06C129.698 190.06 130.27 190.104 130.886 190.17C130.82 189.378 130.732 188.586 130.71 187.816H129.456C128.136 187.816 126.794 187.772 126.024 187.684C125.298 187.596 124.968 187.046 124.968 186.518C124.968 185.946 125.364 185.352 126.068 185.352H126.222C127.036 185.44 128.136 185.506 129.39 185.506H130.578C130.534 184.714 130.512 183.944 130.49 183.152C128.62 183.196 126.794 183.262 125.254 183.328C124.506 183.35 124.11 182.756 124.11 182.162C124.11 181.59 124.462 181.04 125.21 180.996C126.75 180.93 128.576 180.842 130.446 180.82V178.598C130.446 177.938 131.062 177.608 131.678 177.608C132.272 177.608 132.888 177.938 132.888 178.598ZM128.884 194.57C130.358 194.57 131.084 193.888 131.084 192.964V192.48C130.402 192.348 129.764 192.282 129.104 192.282C127.388 192.282 126.882 192.81 126.882 193.47C126.882 194.064 127.454 194.57 128.884 194.57ZM158.562 193.8C158.518 196.264 156.714 197.144 154.602 197.144C151.984 197.144 150.4 196 150.4 193.954C150.4 192.194 151.896 190.742 154.712 190.742C155.064 190.742 155.416 190.764 155.812 190.808C155.658 189.796 155.592 189.048 155.592 188.476C155.592 187.53 155.636 187.046 155.746 186.342C155.856 185.726 156.362 185.462 156.89 185.462C157.506 185.462 158.122 185.814 158.122 186.474C158.122 186.54 158.1 186.584 158.1 186.65C158.012 187.288 157.946 187.838 157.946 188.454C157.946 189.07 158.012 189.928 158.254 191.314C159.662 191.732 161.114 192.37 162.39 193.228C162.808 193.514 162.984 193.888 162.984 194.262C162.984 194.878 162.478 195.472 161.818 195.472C161.598 195.472 161.334 195.384 161.07 195.208C160.256 194.636 159.398 194.152 158.562 193.8ZM154.602 194.966C155.614 194.966 156.164 194.526 156.164 193.558C156.164 193.36 156.164 193.184 156.142 193.008C155.658 192.92 155.196 192.876 154.756 192.876C153.216 192.876 152.732 193.36 152.732 193.954C152.732 194.592 153.172 194.966 154.602 194.966ZM149.806 182.052C150.136 180.93 150.444 179.808 150.664 178.708C150.796 178.048 151.324 177.762 151.852 177.762C152.468 177.762 153.04 178.136 153.04 178.84C153.04 178.928 153.04 179.038 153.018 179.126C152.842 179.962 152.622 180.842 152.38 181.722C153.04 181.612 153.7 181.502 154.316 181.392C154.404 181.37 154.492 181.37 154.558 181.37C155.262 181.37 155.702 181.942 155.702 182.536C155.702 183.02 155.416 183.504 154.712 183.658C153.766 183.856 152.688 184.032 151.61 184.186C150.686 186.848 149.498 189.488 148.222 191.6C147.892 192.15 147.43 192.392 146.99 192.392C146.33 192.392 145.758 191.886 145.758 191.226C145.758 190.984 145.824 190.72 146 190.456C147.122 188.696 148.134 186.65 148.97 184.472C148.156 184.56 147.364 184.604 146.682 184.626C145.934 184.648 145.538 184.032 145.538 183.416C145.538 182.844 145.89 182.294 146.594 182.272C147.584 182.228 148.684 182.162 149.806 182.052ZM159.574 181.788C160.63 182.074 161.994 182.69 162.94 183.284C163.446 183.592 163.666 184.032 163.666 184.428C163.666 185.066 163.138 185.638 162.5 185.638C162.28 185.638 162.06 185.572 161.84 185.44C160.806 184.846 159.662 184.274 158.694 183.922C158.144 183.724 157.902 183.328 157.902 182.932C157.902 182.338 158.408 181.722 159.156 181.722C159.288 181.722 159.42 181.744 159.574 181.788ZM174.996 187.156L175.04 187.178C175.678 186.782 176.338 186.606 177.042 186.606C179.066 186.606 180.166 187.816 180.32 191.248C180.43 193.646 180.958 193.976 181.794 193.976C182.784 193.976 183.62 193.118 184.39 191.116C184.61 190.544 185.094 190.28 185.578 190.28C186.238 190.28 186.898 190.764 186.898 191.468C186.898 191.622 186.854 191.798 186.788 191.996C185.644 195.032 183.994 196.462 181.618 196.462C179.33 196.462 177.922 195.23 177.768 191.468C177.68 189.29 177.35 188.828 176.448 188.828C175.282 188.828 174.094 189.906 173.016 192.15C172.532 193.162 171.894 194.504 171.41 195.56C171.168 196.066 170.706 196.308 170.244 196.308C169.584 196.308 168.924 195.846 168.924 195.142C168.924 194.988 168.968 194.834 169.034 194.658C170.97 189.994 173.764 184.032 176.294 179.346C176.536 178.884 176.976 178.686 177.416 178.686C178.12 178.686 178.802 179.17 178.802 179.83C178.802 180.006 178.758 180.182 178.67 180.358L174.996 187.156ZM200.476 182.822V182.778C197.836 183.13 194.338 183.658 191.17 184.12C191.082 184.142 191.016 184.142 190.95 184.142C190.158 184.142 189.718 183.504 189.718 182.888C189.718 182.316 190.07 181.788 190.862 181.678C195.438 181.106 201.114 180.468 205.69 180.05H205.822C206.592 180.05 207.01 180.622 207.01 181.216C207.01 181.744 206.68 182.272 205.998 182.404C205.228 182.536 204.392 182.822 203.578 183.284C200.146 185.242 199.42 187.53 199.42 189.62C199.42 192.062 201.114 193.558 204.194 193.932C205.008 194.042 205.382 194.636 205.382 195.23C205.382 195.89 204.964 196.528 204.084 196.528C203.93 196.528 203.468 196.506 203.094 196.44C199.09 195.692 196.868 192.964 196.868 189.686C196.868 187.376 197.99 184.78 200.476 182.822ZM203.93 186.826C203.776 186.65 203.71 186.474 203.71 186.32C203.71 185.88 204.15 185.484 204.634 185.484C204.832 185.484 205.052 185.55 205.25 185.726C205.844 186.254 206.504 186.958 206.966 187.64C207.12 187.838 207.164 188.036 207.164 188.234C207.164 188.718 206.746 189.114 206.284 189.114C206.02 189.114 205.756 188.982 205.558 188.696C205.03 187.97 204.436 187.332 203.93 186.826ZM206.13 185.088C205.954 184.912 205.888 184.736 205.888 184.56C205.888 184.12 206.306 183.746 206.812 183.746C207.032 183.746 207.252 183.834 207.472 184.01C208.044 184.494 208.704 185.176 209.166 185.814C209.342 186.034 209.408 186.254 209.408 186.474C209.408 186.958 208.99 187.31 208.528 187.31C208.264 187.31 207.978 187.2 207.758 186.914C207.252 186.276 206.636 185.616 206.13 185.088ZM216.778 179.566L220.43 179.016C220.65 178.972 220.87 178.972 221.09 178.972C222.454 178.972 223.224 179.742 223.224 180.908C223.224 181.084 223.224 181.26 223.18 181.458C222.894 183.064 222.476 184.692 222.014 186.232C223.466 186.43 224.896 186.826 226.304 187.288C226.524 186.254 226.656 185.132 226.722 183.944C226.744 183.262 227.338 182.91 227.954 182.91C228.592 182.91 229.23 183.306 229.23 184.076C229.23 185.33 228.966 186.87 228.636 188.256C229.736 188.762 230.814 189.356 231.87 190.038C232.31 190.324 232.486 190.742 232.486 191.138C232.486 191.82 231.958 192.458 231.254 192.458C231.012 192.458 230.748 192.392 230.484 192.216C229.604 191.644 228.746 191.138 227.888 190.698C227.052 192.942 225.842 194.856 224.368 196.308C224.016 196.66 223.642 196.814 223.29 196.814C222.608 196.814 222.058 196.22 222.058 195.582C222.058 195.296 222.168 194.988 222.432 194.724C223.796 193.36 224.896 191.666 225.622 189.642C224.214 189.07 222.784 188.652 221.288 188.41C220.848 189.576 220.386 190.654 219.924 191.556C218.802 193.778 217.658 194.482 216.074 194.482C214.248 194.482 212.906 193.294 212.906 191.028C212.906 188.278 215.392 186.012 219.066 186.012H219.572C220.012 184.604 220.43 183.13 220.606 181.744C220.606 181.678 220.628 181.612 220.628 181.568C220.628 181.37 220.496 181.348 220.188 181.392L217.108 181.898C217.02 181.92 216.932 181.92 216.866 181.92C216.162 181.92 215.744 181.326 215.744 180.732C215.744 180.204 216.074 179.676 216.778 179.566ZM216.096 192.084C216.734 192.084 217.086 191.886 217.68 190.786C218.076 190.038 218.45 189.158 218.802 188.234C216.514 188.256 215.304 189.554 215.304 190.94C215.304 191.732 215.656 192.084 216.096 192.084ZM239.68 184.736C238.778 184.868 237.876 185 236.974 185C236.248 185 235.874 184.45 235.874 183.856C235.874 183.262 236.248 182.69 236.996 182.646C237.876 182.602 238.932 182.47 240.12 182.272C240.318 181.062 240.406 180.094 240.538 178.884C240.604 178.202 241.176 177.872 241.748 177.872C242.364 177.872 242.98 178.268 242.98 178.972V179.104C242.87 180.16 242.76 180.952 242.628 181.788C243.244 181.656 243.882 181.502 244.52 181.348C244.63 181.326 244.74 181.304 244.85 181.304C245.532 181.304 245.95 181.876 245.95 182.47C245.95 182.932 245.686 183.394 245.092 183.548C244.08 183.834 243.112 184.076 242.232 184.274C241.44 188.586 240.384 192.656 239.152 195.846C238.888 196.506 238.338 196.814 237.81 196.814C237.194 196.814 236.6 196.374 236.6 195.692C236.6 195.494 236.644 195.296 236.732 195.076C237.942 192.084 238.91 188.586 239.68 184.736ZM244.102 192.282C244.102 191.534 244.718 191.116 245.334 191.116C245.84 191.116 246.324 191.402 246.39 192.04C246.544 193.448 247.336 193.844 249.734 193.844C250.856 193.844 251.802 193.756 252.682 193.624C252.748 193.602 252.858 193.602 252.924 193.602C253.672 193.602 254.09 194.24 254.09 194.834C254.09 195.362 253.76 195.89 253.078 196C252.132 196.154 251.032 196.242 249.778 196.242C246.698 196.242 245.334 195.45 244.63 194.328C244.278 193.778 244.102 192.898 244.102 192.282ZM246.302 185.088C248.018 184.736 250.196 184.494 251.956 184.494C252.748 184.494 253.144 185.088 253.144 185.682C253.144 186.254 252.77 186.804 252.022 186.804C250.262 186.804 248.216 187.068 246.654 187.376C246.566 187.398 246.456 187.398 246.39 187.398C245.708 187.398 245.29 186.848 245.29 186.254C245.29 185.748 245.598 185.242 246.302 185.088ZM259.436 181.26C259.502 180.556 260.118 180.204 260.712 180.204C261.372 180.204 262.01 180.6 262.01 181.37C262.01 181.678 261.922 182.756 261.922 183.438C261.922 191.138 263.484 193.162 264.408 193.162C264.936 193.162 265.42 192.81 265.838 191.16C266.014 190.5 266.476 190.214 266.96 190.214C267.598 190.214 268.214 190.676 268.214 191.402C268.214 191.534 268.214 191.644 268.17 191.776C267.356 194.724 265.948 195.802 264.474 195.802C261.284 195.802 259.348 191.864 259.348 183.504C259.348 182.492 259.392 181.832 259.436 181.26ZM273.032 182.822C274.88 184.538 276.574 187.288 277.3 189.532C277.366 189.708 277.388 189.862 277.388 189.994C277.388 190.72 276.772 191.16 276.156 191.16C275.694 191.16 275.21 190.918 274.99 190.324C274.198 188.3 272.768 185.99 271.184 184.34C270.92 184.076 270.81 183.79 270.81 183.526C270.81 182.91 271.404 182.404 272.064 182.404C272.372 182.404 272.724 182.536 273.032 182.822ZM289.466 182.8C289.444 182.404 289.29 180.842 289.29 180.248C289.29 179.302 289.972 178.752 290.874 178.752C291.754 178.752 292.414 179.324 292.414 180.248C292.414 180.842 292.282 182.162 292.238 182.8C292.084 184.934 291.93 188.19 291.864 190.632C291.842 191.204 291.424 191.556 290.83 191.556C290.236 191.556 289.862 191.204 289.84 190.632C289.752 188.212 289.62 184.956 289.466 182.8ZM290.852 192.986C291.798 192.986 292.524 193.712 292.524 194.636C292.524 195.56 291.798 196.264 290.852 196.264C289.906 196.264 289.18 195.56 289.18 194.636C289.18 193.712 289.906 192.986 290.852 192.986Z" fill="black"/>
<g clip-path="url(#clip0_1382_10706)">
<path d="M172.683 109C201.582 109 225.009 91.8259 225.009 70.6409C225.009 49.456 201.582 32.2822 172.683 32.2822C143.784 32.2822 120.357 49.456 120.357 70.6409C120.357 91.8259 143.784 109 172.683 109Z" fill="#E8382F"/>
<path d="M130.465 46.61L213.679 46.1081L213.432 33.4716C239.38 20.201 207.218 -6.43699 196.943 15.8773C189.515 -3.00267 158.32 -3.71595 152.844 14.2922C137.259 -11.518 109.246 15.0583 128.645 30.002L130.465 46.61Z" fill="white"/>
<path d="M130.465 47.8605C129.832 47.8605 129.296 47.385 129.226 46.751L127.459 30.6625C121.974 26.2331 119.715 20.3331 121.271 14.3979C122.879 8.25136 128.417 3.32003 134.746 2.39541C141.329 1.43556 147.719 4.76421 152.554 11.58C155.718 4.7466 162.979 0.387653 172.085 0.0266096C181.139 -0.34324 191.985 3.60182 197.022 13.0946C200.204 7.93435 205.065 5.42465 210.655 6.16435C217.406 7.05375 223.312 12.4606 224.385 18.7392C224.991 22.2792 224.508 28.9189 214.689 34.2289L214.927 46.0905C214.927 46.4251 214.804 46.751 214.575 46.9887C214.347 47.2265 214.021 47.3674 213.687 47.3674L130.474 47.8693L130.465 47.8605ZM136.961 4.73779C136.275 4.73779 135.651 4.79063 135.106 4.86988C129.735 5.6448 125.042 9.82763 123.679 15.0319C122.906 18.0084 122.607 23.7851 129.401 29.0158C129.674 29.2271 129.841 29.5265 129.876 29.87L131.572 45.3596L212.404 44.8753L212.176 33.5068C212.167 33.0313 212.43 32.591 212.852 32.3708C219.577 28.9365 222.794 24.243 221.924 19.1619C221.036 14.0016 215.938 9.37852 210.321 8.63883C207.262 8.23375 201.61 8.70927 198.059 16.4145C197.848 16.8724 197.382 17.1454 196.89 17.1366C196.389 17.1189 195.949 16.8107 195.765 16.344C191.809 6.29644 181.068 2.16645 172.173 2.51869C165.097 2.80048 156.615 6.14674 154.022 14.6709C153.881 15.1464 153.468 15.481 152.985 15.5427C152.492 15.6043 152.018 15.3754 151.763 14.9527C146.629 6.45495 140.811 4.73779 136.943 4.73779H136.961Z" fill="#231815"/>
<path d="M160.465 94.8139C156.711 94.8139 153.389 93.2817 151.473 90.6311C151.068 90.0763 151.191 89.2926 151.754 88.8875C152.308 88.4824 153.09 88.6057 153.494 89.1693C155.041 91.3003 157.863 92.4715 161.089 92.3042C166.002 92.04 170.679 88.8259 173.588 83.7272C173.931 83.1284 174.687 82.9171 175.284 83.2605C175.882 83.6039 176.093 84.3612 175.75 84.96C172.419 90.8072 166.987 94.4793 161.221 94.7963C160.966 94.8139 160.711 94.8139 160.465 94.8139Z" fill="#231815"/>
<path d="M120.356 71.8922C119.68 71.8922 119.126 71.3551 119.108 70.677C119.091 69.9901 119.636 69.4177 120.321 69.4001L222.152 66.9873H222.178C222.855 66.9873 223.409 67.5245 223.427 68.2025C223.444 68.8894 222.899 69.4618 222.214 69.4794L120.383 71.8922H120.356Z" fill="#231815"/>
<path d="M130.808 69.8667C130.878 83.7008 157.573 82.2655 158.267 69.7258C159.05 55.6891 130.729 56.1294 130.808 69.8667Z" fill="white"/>
<path d="M143.694 80.9444C143.509 80.9444 143.333 80.9444 143.149 80.9444C136.416 80.7771 129.595 77.29 129.56 69.8754C129.542 65.9303 131.634 62.584 135.449 60.4442C141.048 57.3181 149.469 57.3973 154.619 60.6203C157.986 62.7249 159.718 65.9831 159.507 69.7961C159.102 77.1139 151.156 80.9444 143.694 80.9444ZM132.047 69.8578C132.082 75.9867 138.077 78.3115 143.21 78.4436C151.842 78.6813 156.773 74.0758 157.019 69.6552C157.221 65.9919 155.112 63.8697 153.301 62.7337C148.853 59.9423 141.54 59.8982 136.662 62.6281C134.543 63.8081 132.03 66.0272 132.047 69.8578Z" fill="#231815"/>
<path d="M168.481 69.8667C168.56 83.7008 197.127 82.2655 197.874 69.7258C198.709 55.6891 168.402 56.1294 168.481 69.8667Z" fill="white"/>
<path d="M182.272 80.9442C182.053 80.9442 181.833 80.9442 181.604 80.9442C172.902 80.7064 167.259 76.3651 167.224 69.8839C167.198 66.0621 169.299 62.7775 173.131 60.6465C179.222 57.2474 188.707 57.3354 194.271 60.8402C197.611 62.9448 199.334 66.1326 199.114 69.8047C198.674 77.1312 190.236 80.953 182.272 80.953V80.9442ZM169.72 69.8575C169.756 75.9512 176.181 78.2936 181.675 78.4433C188.759 78.6282 196.283 75.3964 196.626 69.655C196.793 66.8459 195.554 64.5915 192.943 62.9448C188.153 59.9244 179.635 59.8716 174.344 62.8215C172.226 64.0015 169.703 66.1854 169.72 69.8663V69.8575Z" fill="#231815"/>
<path d="M109 55.7151C113.017 56.8775 114.054 60.576 114.678 65.7627C115.381 60.1269 116.99 56.5252 120.357 55.6094C116.577 54.676 115.505 52.7211 114.643 45.9141C113.5 52.3072 111.98 54.632 109 55.7151Z" fill="#FDD35C"/>
<path d="M165.914 62.6016C165.765 62.6016 165.607 62.5752 165.457 62.5135C164.816 62.2581 164.508 61.5361 164.763 60.8932L166.477 56.5695C166.732 55.9267 167.461 55.6185 168.094 55.8738C168.736 56.1292 169.044 56.8513 168.789 57.4941L167.075 61.8178C166.881 62.311 166.415 62.6016 165.914 62.6016Z" fill="#231815"/>
<path d="M161.159 62.9714C160.676 62.9714 160.21 62.6896 160.008 62.214L158.021 57.5205C157.749 56.8865 158.047 56.1556 158.68 55.8826C159.313 55.6184 160.043 55.909 160.315 56.543L162.302 61.2366C162.574 61.8706 162.275 62.6015 161.643 62.8745C161.484 62.9449 161.317 62.9714 161.159 62.9714Z" fill="#231815"/>
</g>
<defs>
<clipPath id="clip0_1382_10706">
<rect width="116" height="109" fill="white" transform="translate(109)"/>
</clipPath>
</defs>
</svg>
