<svg width="603" height="309" viewBox="0 0 603 309" fill="none" xmlns="http://www.w3.org/2000/svg">
<path d="M376.728 258.288L342.141 190.429L287.519 204.04L376.728 258.288Z" fill="white"/>
<rect y="141.457" width="585" height="146" rx="73" transform="rotate(-13.9932 0 141.457)" fill="white"/>
<path d="M221.96 140.502L223.299 145.346L224.467 150.034C224.692 150.935 223.993 151.571 223.154 151.779C222.347 151.981 221.4 151.755 221.176 150.854L220.007 146.166L218.909 141.229C217.634 144.317 215.411 147.971 212.941 150.763C212.607 151.143 212.258 151.329 211.916 151.414C211.047 151.631 210.248 151.071 210.054 150.295C209.931 149.798 210.048 149.208 210.514 148.697C213.1 145.842 215.361 142.212 216.808 138.224L212.213 139.369C211.374 139.578 210.785 138.933 210.599 138.188C210.413 137.443 210.631 136.597 211.47 136.388L217.214 134.957L216.316 131.355L211.969 132.438C211.131 132.647 210.542 132.002 210.356 131.257C210.17 130.512 210.388 129.666 211.227 129.457L215.574 128.374L214.552 124.275C214.328 123.375 215.05 122.7 215.857 122.499C216.696 122.29 217.619 122.555 217.844 123.455L218.865 127.554L223.709 126.347C224.547 126.138 225.168 126.775 225.353 127.52C225.539 128.265 225.29 129.119 224.452 129.327L219.608 130.535L220.505 134.136L227.274 132.45C228.113 132.241 228.733 132.877 228.919 133.623C229.105 134.368 228.856 135.221 228.017 135.43L222.055 136.916C224.576 139.223 227.586 141.243 230.658 142.72C231.333 143.047 231.721 143.544 231.845 144.04C232.061 144.91 231.525 145.802 230.625 146.026C230.159 146.142 229.616 146.08 229.003 145.738C226.528 144.277 223.992 142.436 221.96 140.502ZM208.505 146.328L205.835 146.993C203.755 147.512 202.622 146.805 202.142 144.88L198.993 132.242C198.505 130.286 199.174 129.13 201.254 128.611L203.924 127.946C206.005 127.428 207.137 128.135 207.625 130.091L210.774 142.728C211.285 144.778 210.492 145.833 208.505 146.328ZM205.837 143.827L207.017 143.533C207.483 143.417 207.615 143.153 207.484 142.625L204.768 131.726C204.628 131.167 204.388 130.997 203.922 131.113L202.742 131.407C202.276 131.523 202.144 131.786 202.284 132.345L205 143.244C205.116 143.71 205.372 143.943 205.837 143.827ZM242.184 141.728C239.017 142.517 235.743 140.628 234.536 135.785C232.772 128.705 237.194 121.436 245.732 119.308C253.309 117.42 258.871 121.08 260.411 127.259C261.811 132.879 259.518 137.837 254.603 140.875C254.378 141.03 254.137 141.123 253.92 141.178C252.864 141.441 251.964 140.741 251.74 139.841C251.569 139.158 251.772 138.382 252.618 137.808C256.633 135.126 257.737 132.015 256.778 128.164C255.764 124.097 252.165 121.432 247.36 122.266C248.334 127.498 248.222 132.473 247.14 136.337C246.183 139.775 244.575 141.132 242.184 141.728ZM243.781 123.389C239.379 125.443 236.962 130.299 238.107 134.895C238.819 137.751 240.2 138.528 241.318 138.25C242.28 138.01 242.995 137.304 243.501 135.496C244.395 132.338 244.546 128.046 243.781 123.389ZM291.851 116.984L279.369 120.094C279.469 120.234 279.539 120.381 279.578 120.537C279.64 120.785 279.593 121.127 279.422 121.499C279.057 122.283 278.598 123.089 278.101 123.873C278.69 124.122 279.288 124.401 279.846 124.658C280.67 123.331 281.385 121.966 282.023 120.554C282.256 120.034 282.652 119.771 283.056 119.67C283.863 119.469 284.763 119.904 284.956 120.68C285.034 120.991 284.995 121.363 284.769 121.782C284.054 123.148 283.37 124.374 282.632 125.514C284.231 125.049 285.854 124.546 287.43 123.989C287.197 123.849 286.972 123.74 286.747 123.631C286.305 123.444 286.095 123.134 286.018 122.823C285.855 122.171 286.353 121.388 287.16 121.187C287.502 121.101 287.866 121.109 288.27 121.273C289.922 121.949 292.133 123.146 293.522 124.086C293.918 124.35 294.135 124.692 294.22 125.034C294.421 125.841 293.869 126.671 293.062 126.872C292.658 126.973 292.177 126.895 291.704 126.584C291.301 126.289 290.827 125.978 290.354 125.667C287.785 126.604 285.231 127.472 282.669 128.308L284.379 135.17C284.595 136.039 283.904 136.706 283.066 136.915C282.259 137.116 281.304 136.86 281.087 135.99L279.424 129.314C276.031 130.391 272.639 131.335 269.425 132.202C268.463 132.442 267.757 131.859 267.579 131.145C267.401 130.431 267.696 129.632 268.659 129.392C271.578 128.664 274.729 127.813 277.873 126.931C276.267 126.177 274.879 125.632 273.474 125.158C272.9 124.971 272.582 124.622 272.481 124.218C272.311 123.535 272.801 122.72 273.608 122.519C273.888 122.449 274.182 122.442 274.539 122.551C274.826 122.644 275.152 122.761 275.478 122.877C275.867 122.187 276.224 121.504 276.543 120.798L266.141 123.39C265.334 123.592 264.768 123.04 264.605 122.388C264.443 121.736 264.684 120.983 265.491 120.782L276.607 118.012L276.267 116.646L269.28 118.387C268.504 118.58 267.977 118.052 267.814 117.4C267.66 116.779 267.877 116.065 268.654 115.872L275.64 114.131L275.315 112.827L266.093 115.125C265.317 115.318 264.751 114.767 264.596 114.146C264.433 113.494 264.682 112.772 265.459 112.579L274.681 110.281L274.386 109.101C274.17 108.231 274.869 107.595 275.707 107.386C276.546 107.177 277.5 107.434 277.717 108.304L278.003 109.453L288.156 106.922C288.964 106.721 289.491 107.249 289.654 107.901C289.808 108.522 289.598 109.267 288.791 109.468L278.637 111.999L278.962 113.303L286.539 111.415C287.315 111.221 287.873 111.742 288.028 112.363C288.191 113.015 287.942 113.736 287.165 113.93L279.589 115.818L279.93 117.184L291.201 114.375C292.008 114.174 292.574 114.726 292.737 115.378C292.899 116.03 292.658 116.782 291.851 116.984ZM274.664 131.787C274.89 131.5 275.177 131.329 275.487 131.252C276.295 131.051 277.171 131.525 277.357 132.27C277.45 132.642 277.372 133.124 276.999 133.612C275.904 135.039 274.21 136.847 272.479 138.234C272.23 138.428 271.997 138.552 271.78 138.606C270.879 138.831 270.034 138.217 269.848 137.472C269.724 136.975 269.88 136.409 270.455 135.936C271.938 134.742 273.499 133.198 274.664 131.787ZM288.187 128.219C289.692 128.701 291.741 129.246 293.588 129.643C294.387 129.807 294.798 130.265 294.929 130.793C295.131 131.6 294.664 132.508 293.764 132.732C293.515 132.794 293.22 132.802 292.871 132.724C290.986 132.303 288.572 131.619 286.85 130.927C286.338 130.724 286.051 130.367 285.958 129.995C285.772 129.249 286.278 128.365 287.147 128.148C287.458 128.071 287.791 128.087 288.187 128.219ZM307.408 111.787C307.443 117.22 306.895 122.699 305.658 127.13C305.432 127.945 304.85 128.387 304.229 128.541C303.329 128.766 302.366 128.346 302.134 127.414C302.065 127.135 302.073 126.77 302.174 126.382C303.271 122.448 303.826 117.792 303.899 113.058C302.665 113.53 301.477 114.057 300.359 114.599C300.242 114.661 300.087 114.7 299.963 114.731C299 114.971 298.279 114.326 298.078 113.519C297.9 112.805 298.157 111.982 299.073 111.556C300.579 110.851 302.233 110.208 303.832 109.612C303.732 107.625 303.563 105.622 303.309 103.674C303.185 102.649 303.845 101.99 304.653 101.789C305.522 101.572 306.531 101.915 306.778 102.908L306.833 103.126C307.064 104.849 307.218 106.657 307.302 108.45C307.915 108.264 308.474 108.125 308.971 108.001C312.945 107.011 314.854 108.448 316.068 113.323C316.796 116.242 317.135 118.927 317.079 120.953C316.976 124.771 315.896 126.393 312.76 127.174C312.014 127.36 311.223 127.491 310.609 127.545C309.515 127.653 308.856 126.993 308.67 126.247C308.453 125.378 308.803 124.4 309.828 124.145C309.89 124.13 309.991 124.137 310.084 124.114C310.69 124.029 311.171 123.975 311.823 123.813C312.91 123.542 313.383 123.061 313.455 121.098C313.542 119.196 313.218 116.705 312.583 114.159C311.887 111.364 311.173 110.75 309.683 111.122C309 111.292 308.231 111.516 307.408 111.787ZM318.754 103.321C321.174 104.696 323.811 107.073 325.385 108.891C325.664 109.217 325.819 109.574 325.897 109.884C326.167 110.971 325.476 111.902 324.544 112.134C323.923 112.289 323.186 112.11 322.543 111.38C320.868 109.423 318.626 107.442 316.54 106.082C316.105 105.795 315.849 105.43 315.764 105.088C315.547 104.219 316.247 103.319 317.178 103.087C317.675 102.963 318.218 103.025 318.754 103.321ZM338.598 93.3627C340.376 93.3485 342.634 93.5442 344.458 93.9802C345.335 94.1904 345.808 94.7651 345.97 95.4171C346.187 96.2866 345.744 97.2874 344.75 97.535C344.47 97.6047 344.144 97.6199 343.764 97.5498C341.972 97.238 339.822 96.9492 338.223 96.8859C337.354 96.8387 336.827 96.3106 336.672 95.6896C336.455 94.8202 336.937 93.7107 338.055 93.4321C338.21 93.3934 338.404 93.378 338.598 93.3627ZM338.051 109.032L338.121 109.048C339.97 106.41 343.224 104.247 346.298 103.481C351.173 102.266 354.85 104.186 355.724 107.695C356.916 112.477 353.824 116.875 346.557 119.609C346.464 119.632 346.379 119.687 346.285 119.71C345.199 119.981 344.361 119.266 344.152 118.428C343.959 117.651 344.293 116.744 345.318 116.356C351.226 114.125 352.765 111.302 352.099 108.631C351.697 107.017 350.052 105.843 347.071 106.586C343.78 107.406 340.472 110.012 338.622 113.705C338.319 114.341 337.783 114.705 337.224 114.844C336.293 115.077 335.222 114.618 334.943 113.5C334.912 113.376 334.881 113.252 334.882 113.12C334.619 110.745 334.351 106.491 334.191 102.013C334.153 101.066 334.829 100.469 335.574 100.283C336.475 100.059 337.476 100.37 337.708 101.302C337.731 101.395 337.762 101.519 337.754 101.62C337.884 104.655 337.944 107.146 338.051 109.032ZM365.106 109.875C364.485 109.634 364.183 109.215 364.074 108.78C363.866 107.942 364.386 106.987 365.349 106.747C365.69 106.662 366.094 106.694 366.521 106.818C368.523 107.441 371.432 108.925 373.301 110.339C373.829 110.735 374.108 111.193 374.216 111.628C374.464 112.622 373.811 113.576 372.849 113.816C372.321 113.947 371.708 113.869 371.134 113.419C369.272 112.036 366.906 110.614 365.106 109.875ZM101.521 203.89L102.597 208.206C103.777 207.78 104.879 207.307 105.889 206.858C106.036 206.788 106.16 206.757 106.284 206.726C107.247 206.486 107.922 207.076 108.115 207.853C108.293 208.567 108.044 209.42 107.159 209.839C106.01 210.389 104.721 210.908 103.425 211.396C104.121 214.059 104.849 216.713 105.786 219.283C107.656 219.51 109.666 220.031 111.691 220.879C112.389 221.166 112.777 221.663 112.909 222.191C113.125 223.06 112.612 224.046 111.681 224.278C111.308 224.371 110.866 224.316 110.385 224.106C109.159 223.554 107.933 223.134 106.8 222.823C107.101 225.485 105.795 227.789 101.945 228.749C98.4673 229.615 95.8604 228.418 95.164 225.624C94.5218 223.047 96.1224 220.603 100.159 219.597C100.811 219.435 101.51 219.326 102.247 219.242C101.496 217.021 100.869 214.77 100.273 212.511C98.961 212.937 97.6646 213.293 96.4537 213.595C95.8326 213.75 95.2737 213.889 94.7304 213.958C93.7446 214.105 93.0854 213.445 92.892 212.669C92.6985 211.892 93.0019 210.992 93.9955 210.745C94.5544 210.605 95.0978 210.536 95.6567 210.397C96.8676 210.095 98.133 209.747 99.4449 209.321L98.292 204.694C98.0521 203.732 98.7433 203.065 99.5506 202.864C100.358 202.662 101.281 202.927 101.521 203.89ZM101.179 225.675C102.762 225.28 103.632 224.272 103.176 222.308C102.315 222.292 101.538 222.353 100.886 222.516C98.7128 223.057 98.1999 223.911 98.4243 224.811C98.6642 225.774 99.6264 226.062 101.179 225.675ZM84.4281 207.951C84.4055 207.066 85.0579 206.508 85.8341 206.315C86.7346 206.09 87.7666 206.394 88.0142 207.387C88.0374 207.481 88.0684 207.605 88.0683 207.737C88.1502 212.3 88.6279 216.996 89.6183 220.971C90.4772 224.417 91.7011 227.608 92.5995 230.022C92.6228 230.115 92.677 230.201 92.7002 230.294C92.9401 231.257 92.1556 232.079 91.2862 232.295C90.4789 232.497 89.5943 232.255 89.1992 231.331C88.1222 228.863 86.9994 225.548 86.0708 221.822C85.034 217.661 84.5021 212.748 84.4281 207.951ZM122.879 214.825C121.649 209.888 120.489 203.912 119.694 199.262C119.493 198.191 120.238 197.477 121.108 197.261C122.039 197.029 123.04 197.34 123.295 198.364C123.396 198.768 123.496 199.436 123.55 199.785C124.385 204.458 125.352 209.395 126.489 213.959C127.526 218.12 129.077 218.92 131.282 218.371C134.17 217.651 136.577 215.798 138.552 211.547C138.847 210.879 139.352 210.523 139.849 210.399C140.811 210.159 141.866 210.688 142.106 211.65C142.199 212.023 142.168 212.426 141.958 212.907C139.517 218.199 136.178 220.812 132.141 221.817C127.514 222.97 124.489 221.284 122.879 214.825ZM131.047 200.885C130.768 200.691 130.613 200.465 130.558 200.248C130.404 199.627 130.885 198.913 131.568 198.743C131.848 198.674 132.182 198.689 132.523 198.868C133.547 199.404 134.726 200.166 135.618 200.966C135.905 201.191 136.037 201.455 136.106 201.735C136.277 202.418 135.826 203.124 135.174 203.286C134.801 203.379 134.382 203.286 134.002 202.952C133.002 202.113 131.939 201.421 131.047 200.885ZM133.541 197.658C133.23 197.472 133.075 197.246 133.013 196.998C132.859 196.377 133.317 195.702 134.031 195.524C134.342 195.447 134.683 195.494 135.056 195.665C136.033 196.147 137.204 196.877 138.081 197.615C138.407 197.864 138.577 198.151 138.655 198.461C138.825 199.144 138.359 199.788 137.707 199.951C137.334 200.044 136.892 199.989 136.481 199.663C135.542 198.94 134.44 198.225 133.541 197.658ZM161.869 207.055C162.404 207.746 162.963 208.398 163.521 209.051C163.754 209.322 163.885 209.586 163.955 209.866C164.187 210.797 163.519 211.689 162.681 211.898C162.153 212.03 161.555 211.882 161.051 211.315C160.687 210.911 160.315 210.476 159.966 210.003C158.645 211.981 157.333 212.802 155.811 213.182C153.203 213.832 151.116 212.604 150.342 209.499C149.623 206.611 150.208 202.871 152.989 199.209C152.051 197.431 151.23 195.591 150.548 193.783L150.502 193.596C150.262 192.634 151 191.889 151.838 191.68C152.583 191.495 153.398 191.72 153.716 192.597C154.211 193.925 154.808 195.26 155.436 196.588C157.059 195.161 158.883 194.014 160.948 193.301C160.856 192.005 160.725 190.686 160.532 189.25C160.432 188.318 161.1 187.69 161.876 187.497C162.715 187.288 163.755 187.622 164.002 188.616L164.049 188.802C164.195 190.052 164.303 191.278 164.364 192.45C169.704 191.779 173.885 194.398 175.1 199.273C176.431 204.613 174.433 208.904 169.712 211.795C169.479 211.919 169.278 212.035 169.06 212.089C167.942 212.368 167.035 211.638 166.811 210.737C166.64 210.054 166.881 209.302 167.728 208.728C171.214 206.441 172.443 203.826 171.537 200.193C170.802 197.244 168.134 195.138 164.393 195.609C164.219 199.544 163.51 203.447 161.869 207.055ZM159.706 204.065C160.492 201.66 160.882 199.122 160.977 196.592C159.44 197.305 158.089 198.235 156.869 199.43C157.753 200.99 158.668 202.543 159.706 204.065ZM157.911 207.316C156.771 205.654 155.663 203.985 154.632 202.23C153.319 204.503 153.053 206.614 153.456 208.228C153.796 209.594 154.455 209.991 155.107 209.828C155.977 209.612 156.847 208.999 157.911 207.316ZM194.754 185.504L194.739 185.441C191.136 186.867 186.385 188.842 182.076 190.609C181.96 190.671 181.867 190.694 181.774 190.717C180.656 190.996 179.81 190.25 179.594 189.38C179.392 188.573 179.704 187.704 180.783 187.27C187.04 184.854 194.827 181.957 201.138 179.757L201.324 179.711C202.411 179.44 203.202 180.1 203.411 180.939C203.597 181.684 203.317 182.545 202.401 182.971C201.36 183.429 200.281 184.126 199.295 185.065C195.139 189.035 194.92 192.52 195.655 195.47C196.514 198.916 199.431 200.432 203.909 199.876C205.097 199.745 205.834 200.452 206.042 201.29C206.275 202.222 205.816 203.293 204.667 203.579C204.201 203.695 202.882 203.826 202.292 203.841C197.41 203.837 193.268 201.242 192.076 196.46C191.264 193.2 191.934 189.141 194.754 185.504ZM221.499 196.35C218.331 197.14 215.058 195.251 213.851 190.407C212.086 183.328 216.508 176.059 225.047 173.931C232.623 172.043 238.185 175.703 239.725 181.882C241.125 187.502 238.832 192.46 233.917 195.498C233.692 195.653 233.451 195.746 233.234 195.8C232.178 196.064 231.278 195.364 231.054 194.464C230.884 193.781 231.086 193.005 231.933 192.431C235.947 189.749 237.051 186.637 236.092 182.787C235.078 178.72 231.479 176.055 226.674 176.889C227.648 182.121 227.536 187.096 226.454 190.96C225.497 194.398 223.889 195.755 221.499 196.35ZM223.096 178.012C218.694 180.065 216.276 184.922 217.421 189.518C218.133 192.374 219.514 193.151 220.632 192.873C221.595 192.633 222.309 191.927 222.815 190.119C223.71 186.961 223.861 182.669 223.096 178.012ZM260.649 160.508L267.977 158.682C268.754 158.488 269.359 158.931 269.537 159.645C269.722 160.39 269.318 161.019 268.604 161.197L262.239 162.783C261.338 163.007 260.958 163.597 261.182 164.497L266.072 184.121C266.25 184.835 265.745 185.456 265 185.642C264.286 185.82 263.487 185.524 263.309 184.81L258.248 164.503C257.73 162.423 258.569 161.026 260.649 160.508ZM284.228 181.147L282.851 175.092C282.508 177.024 281.955 178.91 281.303 180.26C280.999 180.896 280.557 181.237 280.091 181.353C279.315 181.547 278.516 181.119 278.322 180.343C278.245 180.033 278.276 179.629 278.47 179.218C279.675 176.642 280.431 173.453 280.79 170.131L277.592 170.928C276.816 171.122 276.226 170.477 276.048 169.763C275.863 169.018 276.088 168.203 276.834 168.017L280.715 167.05L278.401 157.766C278.192 156.928 278.899 156.323 279.706 156.122C280.514 155.92 281.422 156.123 281.63 156.961L283.944 166.245L286.925 165.502C287.701 165.309 288.283 165.923 288.469 166.668C288.646 167.382 288.429 168.228 287.652 168.421L284.671 169.164L284.996 170.468C286.859 171.059 288.728 171.946 289.527 172.505C290.008 172.847 290.264 173.212 290.365 173.615C290.558 174.392 290.061 175.175 289.316 175.361C288.912 175.462 288.431 175.384 287.958 175.073C287.322 174.638 286.592 174.226 285.84 173.853L288.246 183.509C288.478 184.441 287.787 185.108 286.98 185.309C286.173 185.51 285.249 185.246 285.017 184.314L284.228 181.147ZM302.305 168.199L304.355 167.161C304.472 167.099 304.565 167.076 304.689 167.045C305.558 166.828 306.295 167.535 306.496 168.342C306.651 168.963 306.457 169.638 305.758 170.01L303.095 171.367L305.021 179.098C305.261 180.061 304.539 180.735 303.701 180.944C302.831 181.161 301.877 180.904 301.637 179.941L299.896 172.955L293.102 176.396C292.986 176.458 292.893 176.481 292.8 176.504C291.93 176.721 291.155 175.991 290.953 175.184C290.799 174.563 290.954 173.864 291.661 173.523L299.107 169.788L295.16 153.952C294.921 152.99 295.643 152.315 296.512 152.098C297.351 151.889 298.305 152.146 298.545 153.109L302.305 168.199ZM284.034 159.99C284.042 159.361 284.47 158.958 284.997 158.826C285.681 158.656 286.48 158.952 286.665 159.697C286.689 159.79 286.72 159.914 286.719 160.046C286.726 161.133 286.586 162.553 286.352 163.601C286.22 164.128 285.808 164.462 285.373 164.57C284.69 164.74 283.93 164.468 283.767 163.816C283.729 163.661 283.721 163.498 283.768 163.288C283.931 162.357 284.033 161.177 284.034 159.99ZM277.754 161.654C278.522 162.617 279.266 163.619 279.498 164.286C279.553 164.372 279.576 164.465 279.599 164.558C279.808 165.396 279.225 166.102 278.511 166.28C277.952 166.419 277.316 166.248 276.983 165.573C276.603 164.843 275.967 163.748 275.479 163.111C275.37 162.94 275.301 162.793 275.262 162.638C275.092 161.955 275.643 161.388 276.326 161.218C276.823 161.094 277.374 161.188 277.754 161.654ZM291.719 157.745C292.744 158.149 293.9 158.686 294.815 159.315C295.249 159.602 295.505 159.967 295.598 160.34C295.815 161.209 295.216 162.117 294.378 162.326C293.974 162.427 293.501 162.38 293.035 162.1C292.112 161.571 291.088 161.035 290.258 160.615C289.769 160.374 289.475 159.986 289.382 159.614C289.181 158.806 289.74 157.875 290.641 157.651C290.951 157.574 291.316 157.582 291.719 157.745ZM292.157 164.528C293.251 164.948 294.329 165.438 295.384 166.099C295.819 166.386 296.074 166.751 296.167 167.124C296.384 167.993 295.793 168.932 294.955 169.141C294.551 169.241 294.109 169.187 293.644 168.907C292.759 168.402 291.58 167.772 290.695 167.399C290.176 167.166 289.889 166.809 289.788 166.405C289.587 165.598 290.177 164.659 291.078 164.435C291.388 164.357 291.753 164.365 292.157 164.528ZM326.983 161.357L324.717 161.922C322.015 162.595 320.627 161.787 320.069 159.551L318.158 151.882C317.601 149.646 318.44 148.25 321.142 147.577L329.122 145.588C331.823 144.915 333.251 145.746 333.808 147.982L335.719 155.651C336.276 157.887 335.398 159.26 332.697 159.933L330.306 160.529L331.025 163.417L335.807 162.225C336.583 162.032 337.165 162.645 337.351 163.391C337.529 164.105 337.311 164.95 336.534 165.144L331.753 166.336L332.588 169.689L339.326 168.01C340.103 167.816 340.684 168.43 340.87 169.175C341.048 169.889 340.83 170.735 340.054 170.929L321.734 175.494C320.989 175.68 320.399 175.035 320.221 174.321C320.036 173.576 320.261 172.761 321.007 172.575L329.266 170.517L328.43 167.163L323.586 168.371C322.841 168.556 322.252 167.912 322.074 167.198C321.888 166.452 322.114 165.638 322.859 165.452L327.703 164.245L326.983 161.357ZM324.362 159.042L326.38 158.539L325.637 155.558L322.625 156.309L323.167 158.483C323.345 159.197 323.71 159.205 324.362 159.042ZM321.944 153.577L324.956 152.826L324.213 149.845L322.195 150.348C321.419 150.542 321.24 150.751 321.403 151.403L321.944 153.577ZM327.318 149.071L328.061 152.052L331.26 151.255L330.718 149.082C330.555 148.43 330.33 148.321 329.523 148.522L327.318 149.071ZM331.94 153.988L328.742 154.785L329.485 157.766L331.69 157.216C332.497 157.015 332.645 156.813 332.482 156.161L331.94 153.988ZM314.148 169.272L312.423 162.347L310.466 162.835C309.659 163.036 309.07 162.391 308.884 161.646C308.706 160.932 308.924 160.086 309.731 159.885L311.688 159.398L310.403 154.243L308.012 154.839C307.205 155.04 306.616 154.396 306.43 153.65C306.252 152.936 306.47 152.09 307.277 151.889L315.164 149.924C315.971 149.723 316.561 150.367 316.739 151.081C316.924 151.827 316.706 152.672 315.899 152.874L313.663 153.431L314.948 158.585L316.687 158.152C317.494 157.951 318.083 158.595 318.261 159.309C318.447 160.055 318.229 160.9 317.422 161.102L315.683 161.535L317.153 167.434C317.658 167.078 318.17 166.752 318.613 166.411C318.838 166.256 319.048 166.171 319.265 166.117C320.135 165.9 320.848 166.514 321.034 167.259C321.165 167.787 321.049 168.376 320.497 168.811C318.237 170.594 315.45 172.377 313.167 173.539C313.02 173.609 312.872 173.679 312.748 173.71C311.785 173.95 311.025 173.282 310.824 172.474C310.654 171.791 310.872 171.077 311.656 170.651C312.448 170.256 313.286 169.783 314.148 169.272ZM350.668 164.161C347.501 164.95 344.227 163.062 343.02 158.218C341.256 151.139 345.677 143.87 354.216 141.742C361.793 139.854 367.355 143.513 368.894 149.693C370.295 155.313 368.002 160.27 363.087 163.309C362.861 163.464 362.621 163.557 362.403 163.611C361.348 163.874 360.448 163.175 360.224 162.275C360.053 161.591 360.256 160.815 361.102 160.242C365.117 157.559 366.221 154.448 365.262 150.598C364.248 146.53 360.649 143.865 355.844 144.7C356.818 149.932 356.706 154.907 355.624 158.771C354.667 162.208 353.059 163.565 350.668 164.161ZM352.265 145.823C347.863 147.876 345.446 152.733 346.591 157.328C347.303 160.185 348.684 160.962 349.802 160.683C350.764 160.444 351.479 159.738 351.984 157.93C352.879 154.772 353.03 150.48 352.265 145.823ZM386.34 131.428L387.106 134.502L389.093 134.007C390.894 133.558 392.609 133.164 394.201 132.8C395.264 132.568 395.993 133.244 396.202 134.082C396.403 134.889 396.069 135.797 395.013 136.06C393.794 136.331 392.452 136.633 391.054 136.981C390.061 137.228 389.044 137.515 387.988 137.778C388.259 138.865 388.561 139.944 388.894 141.015C390.912 140.38 392.861 139.73 394.607 139.064L394.856 139.002C395.942 138.731 396.695 139.368 396.896 140.175C397.082 140.92 396.778 141.82 395.785 142.2C393.953 142.92 391.942 143.586 389.892 144.229C390.295 145.58 390.76 146.915 391.224 148.25C394.034 148.276 396.959 148.767 399.861 149.692C400.723 149.973 401.188 150.516 401.335 151.106C401.575 152.069 400.984 153.139 399.96 153.395C399.618 153.48 399.253 153.472 398.819 153.316C396.615 152.546 394.435 152.001 392.332 151.767L392.386 151.984C393.221 155.338 390.705 157.68 387.103 158.577C383.16 159.56 380.266 158.269 379.546 155.382C378.873 152.68 380.59 150.043 385.03 148.936C385.869 148.727 386.692 148.588 387.584 148.465C387.212 147.37 386.81 146.283 386.508 145.204L384.738 145.645C382.875 146.11 380.965 146.52 379.848 146.666C378.792 146.797 378.133 146.137 377.947 145.392C377.746 144.585 378.096 143.607 379.09 143.359L379.307 143.305C380.487 143.143 382.062 142.849 383.832 142.408L385.509 141.99C385.168 140.888 384.867 139.809 384.557 138.699C381.933 139.419 379.379 140.154 377.229 140.789C376.181 141.083 375.413 140.384 375.204 139.546C375.003 138.738 375.306 137.838 376.347 137.513C378.497 136.878 381.043 136.112 383.675 135.423L382.893 132.287C382.661 131.356 383.414 130.673 384.284 130.456C385.122 130.248 386.108 130.497 386.34 131.428ZM386.306 155.379C388.387 154.861 389.171 153.643 388.846 152.339L388.676 151.655C387.667 151.709 386.743 151.84 385.812 152.072C383.39 152.676 382.862 153.599 383.094 154.531C383.303 155.369 384.288 155.882 386.306 155.379ZM427.922 143.854C428.727 147.347 426.49 149.224 423.509 149.966C419.814 150.887 417.176 149.83 416.457 146.942C415.838 144.458 417.438 141.882 421.413 140.892C421.91 140.768 422.414 140.675 422.989 140.598C422.415 139.224 422.059 138.192 421.858 137.384C421.525 136.049 421.417 135.351 421.325 134.318C421.263 133.41 421.885 132.86 422.63 132.674C423.499 132.457 424.492 132.737 424.725 133.669C424.748 133.762 424.732 133.832 424.755 133.925C424.856 134.856 424.956 135.656 425.173 136.525C425.389 137.395 425.784 138.582 426.613 140.454C428.747 140.548 431.021 140.938 433.124 141.7C433.814 141.957 434.194 142.423 434.326 142.951C434.543 143.82 434.037 144.836 433.106 145.069C432.795 145.146 432.392 145.115 431.957 144.959C430.607 144.438 429.226 144.057 427.922 143.854ZM422.743 146.892C424.172 146.536 424.793 145.722 424.453 144.356C424.383 144.076 424.321 143.828 424.228 143.587C423.514 143.633 422.847 143.734 422.226 143.888C420.052 144.43 419.539 145.283 419.748 146.122C419.973 147.022 420.725 147.395 422.743 146.892ZM411.432 130.353C411.503 128.653 411.543 126.961 411.467 125.331C411.421 124.353 412.066 123.764 412.811 123.578C413.68 123.362 414.619 123.688 414.867 124.682C414.898 124.806 414.937 124.961 414.936 125.093C414.982 126.335 414.981 127.654 414.949 128.982C415.842 128.594 416.735 128.207 417.565 127.835C417.682 127.773 417.806 127.742 417.899 127.719C418.893 127.471 419.715 128.124 419.924 128.962C420.094 129.645 419.861 130.429 418.921 130.894C417.656 131.506 416.196 132.134 414.729 132.73C414.361 136.812 413.613 140.956 412.555 144.386C412.283 145.278 411.716 145.782 411.095 145.937C410.163 146.169 409.178 145.656 408.946 144.724C408.861 144.383 408.861 143.987 409.016 143.553C409.981 140.674 410.69 137.43 411.104 134.062C409.986 134.473 408.883 134.813 407.928 135.084C406.88 135.378 406.105 134.648 405.888 133.779C405.687 132.972 405.99 132.072 406.976 131.793C408.358 131.383 409.887 130.903 411.432 130.353ZM425.126 126.544C426.717 126.577 428.859 126.966 430.403 127.472C431.225 127.729 431.69 128.272 431.83 128.831C432.054 129.732 431.51 130.725 430.61 130.949C430.299 131.027 429.965 131.011 429.608 130.902C427.94 130.427 426.124 130.022 424.634 129.866C423.788 129.78 423.308 129.306 423.168 128.747C422.959 127.909 423.457 126.861 424.513 126.598C424.699 126.552 424.893 126.537 425.126 126.544ZM457.359 115.082C457.118 114.911 456.994 114.678 456.94 114.461C456.785 113.84 457.275 113.157 457.958 112.987C458.268 112.91 458.641 112.949 458.998 113.19C459.983 113.835 461.092 114.712 461.899 115.567C462.116 115.776 462.24 116.009 462.302 116.258C462.48 116.972 461.99 117.655 461.338 117.817C460.934 117.918 460.508 117.793 460.112 117.397C459.22 116.465 458.204 115.696 457.359 115.082ZM460.139 112.081C459.899 111.91 459.744 111.685 459.69 111.467C459.535 110.846 460.04 110.226 460.692 110.063C461.034 109.978 461.437 110.009 461.825 110.243C462.764 110.833 463.857 111.649 464.656 112.472C464.92 112.736 465.083 112.992 465.144 113.241C465.322 113.955 464.856 114.599 464.204 114.761C463.801 114.862 463.312 114.753 462.885 114.365C462.024 113.557 460.993 112.726 460.139 112.081ZM444.353 122.973L444.306 122.919C442.986 123.578 441.286 124.298 439.687 124.895L439.47 124.949C438.352 125.227 437.584 124.528 437.367 123.659C437.182 122.914 437.462 122.052 438.463 121.704C441.165 120.767 444.192 119.55 446.545 118.404C446.692 118.334 446.817 118.303 446.941 118.272C448.028 118.001 448.951 118.662 449.175 119.562C449.299 120.059 449.205 120.61 448.832 121.098C445.111 126.016 444.805 130.611 445.672 134.088C446.639 137.969 449.098 139.368 451.986 138.649C456.271 137.581 458.292 133.648 456.659 127.096C455.808 123.68 454.622 120.777 453.196 118.362C453.126 118.214 453.057 118.067 453.026 117.943C452.778 116.949 453.524 116.104 454.455 115.872C455.107 115.709 455.868 115.849 456.395 116.51C458.706 119.297 462.204 122.218 465.113 123.835C465.726 124.177 466.075 124.65 466.199 125.147C466.439 126.11 465.778 127.165 464.847 127.397C464.35 127.521 463.799 127.427 463.225 126.977C461.154 125.415 459.556 123.9 458.44 122.596L458.385 122.642C459.098 124.18 459.656 125.755 460.058 127.37C462.008 135.195 459.008 140.625 452.922 142.142C448.234 143.31 443.803 141.413 442.209 135.017C441.358 131.601 441.649 127.341 444.353 122.973ZM485.739 118.068L487.14 123.161L487.813 125.862L492.191 124.771C492.936 124.585 493.495 125.238 493.68 125.983C493.866 126.728 493.679 127.566 492.934 127.752L488.556 128.843L489.724 133.531C489.941 134.401 489.211 135.044 488.373 135.253C487.534 135.462 486.587 135.237 486.371 134.367L485.202 129.679L481.104 130.7C480.359 130.886 479.769 130.241 479.584 129.496C479.398 128.751 479.616 127.905 480.361 127.719L484.46 126.698L483.786 123.996L482.711 119.153C481.257 123.637 478.467 128.455 475.026 132.248C474.738 132.55 474.397 132.767 474.086 132.844C473.217 133.061 472.348 132.486 472.147 131.679C472.031 131.213 472.155 130.654 472.621 130.142C476.14 126.397 478.891 121.424 480.525 116.202L471.893 118.353C471.054 118.562 470.457 117.886 470.272 117.141C470.078 116.365 470.296 115.519 471.135 115.31L481.009 112.849L479.662 107.446C479.445 106.577 480.183 105.964 481.022 105.756C481.86 105.547 482.799 105.741 483.016 106.611L484.362 112.014L494.64 109.452C495.478 109.243 496.098 109.88 496.292 110.657C496.478 111.402 496.236 112.286 495.398 112.495L486.145 114.801C490.325 118.607 495.12 121.04 499.659 122.316C500.513 122.565 500.978 123.109 501.125 123.699C501.349 124.599 500.821 125.654 499.827 125.902C499.486 125.987 499.121 125.979 498.694 125.855C493.93 124.338 489.345 121.556 485.739 118.068ZM515.285 128.646L507.958 130.472C507.181 130.665 506.576 130.222 506.398 129.508C506.213 128.763 506.617 128.135 507.331 127.957L513.696 126.37C514.597 126.146 514.977 125.556 514.753 124.656L509.863 105.032C509.685 104.318 510.19 103.697 510.935 103.512C511.649 103.334 512.448 103.629 512.626 104.343L517.687 124.65C518.205 126.731 517.366 128.127 515.285 128.646Z" fill="#E60012"/>
</svg>
