<svg width="267" height="242" viewBox="0 0 267 242" fill="none" xmlns="http://www.w3.org/2000/svg">
<circle cx="133.076" cy="120.924" r="120.924" transform="rotate(-90 133.076 120.924)" fill="#808080"/>
<path d="M133.076 -0.000340979C163.505 -0.000342309 192.815 11.4714 215.159 32.1264C237.504 52.7814 251.24 81.1012 253.627 111.436C256.014 141.771 246.878 171.891 228.04 195.787C209.201 219.683 182.047 235.599 151.993 240.359C121.938 245.119 91.1946 238.374 65.8941 221.468C40.5936 204.563 22.5964 178.741 15.493 149.153C8.38956 119.565 12.702 88.3865 27.5701 61.8376C42.4382 35.2887 66.7689 15.3211 95.7083 5.9181L133.076 120.924L133.076 -0.000340979Z" fill="#ED6D46"/>
<path d="M110.243 162.184C106.979 164.392 103.907 165.352 99.4913 165.352C84.8993 165.352 76.3553 156.232 76.3553 142.408C76.3553 129.256 86.0513 119.752 100.547 119.752C114.755 119.752 124.643 129.64 124.643 142.408C124.643 152.488 122.915 159.112 117.923 168.424C113.411 176.872 106.211 184.936 98.0513 191.464C96.9953 192.232 95.9393 192.712 94.7873 192.712C91.6193 192.712 89.3153 190.408 89.3153 187.816C89.3153 186.184 89.7953 184.84 91.0433 183.88C99.7793 177.352 106.211 170.536 110.243 162.184ZM100.547 128.776C92.4833 128.776 87.4913 134.536 87.4913 142.888C87.4913 151.432 92.5793 156.616 100.067 156.616C106.211 156.616 110.435 154.312 112.931 150.568C113.603 148.072 113.699 145.672 113.699 142.888C113.699 134.632 108.419 128.776 100.547 128.776ZM146.224 134.056L144.976 149.032C147.952 147.4 150.832 146.632 153.712 146.632C168.496 146.632 178.96 154.888 178.96 169.48C178.96 184.072 168.208 193.672 153.904 193.672C146.032 193.672 138.928 191.368 134.032 187.432C132.4 186.088 131.92 184.84 131.92 183.112C131.92 180.232 134.224 178.12 137.392 178.12C138.256 178.12 139.12 178.408 140.272 179.272C145.264 182.92 149.008 184.072 153.712 184.072C161.776 184.072 167.44 178.312 167.44 169.864C167.44 161.128 162.064 156.04 153.712 156.04C150.736 156.04 147.76 157 145.456 158.44C143.344 159.688 142.48 160.264 140.656 160.264C137.296 160.264 134.416 158.248 134.416 154.6L134.416 154.024L136.432 128.584C136.816 124.072 140.368 121.288 145.456 121.288L171.568 121.288C174.448 121.288 176.176 123.4 176.176 126.28C176.176 129.16 174.448 131.272 171.568 131.272L149.392 131.272C147.28 131.272 146.416 132.04 146.224 134.056Z" fill="white"/>
<path d="M192.534 189.368L208.15 167.032C208.374 166.712 208.694 166.584 209.078 166.584C209.782 166.584 210.358 167.16 210.358 167.736C210.358 167.992 210.294 168.216 210.134 168.44L194.518 190.776C194.326 191.032 193.974 191.224 193.59 191.224C192.918 191.224 192.31 190.744 192.31 190.104C192.31 189.848 192.374 189.592 192.534 189.368ZM194.454 166.584C197.686 166.584 199.798 168.952 199.798 173.176C199.798 177.4 197.654 179.928 194.454 179.928C191.222 179.928 189.078 177.432 189.078 173.208C189.078 168.984 191.222 166.584 194.454 166.584ZM194.454 169.112C192.822 169.112 192.086 170.552 192.086 173.24C192.086 175.928 192.758 177.4 194.422 177.4C196.054 177.4 196.79 175.832 196.79 173.144C196.79 170.456 196.086 169.112 194.454 169.112ZM208.246 177.88C211.478 177.88 213.59 180.248 213.59 184.472C213.59 188.696 211.446 191.224 208.246 191.224C205.014 191.224 202.87 188.728 202.87 184.504C202.87 180.28 205.014 177.88 208.246 177.88ZM208.246 180.408C206.614 180.408 205.878 181.848 205.878 184.536C205.878 187.224 206.55 188.696 208.214 188.696C209.878 188.696 210.582 187.128 210.582 184.44C210.582 181.752 209.878 180.408 208.246 180.408Z" fill="white"/>
<path d="M52.1812 192.6L52.1812 180.92C50.8692 181.016 49.5892 181.08 48.3732 181.144C47.4452 181.176 46.9972 180.408 46.9972 179.64C46.9972 178.872 47.4132 178.136 48.3092 178.136C48.8212 178.136 49.3652 178.104 49.9092 178.072C50.6132 177.144 51.2852 176.152 51.9572 175.16C50.7412 173.752 49.3972 172.344 48.2132 171.256C47.8612 170.936 47.7012 170.552 47.7012 170.2C47.7012 169.432 48.4052 168.728 49.2372 168.728C49.5572 168.728 49.9412 168.856 50.2612 169.144L50.3572 169.208C51.0612 167.992 51.7652 166.584 52.3732 165.176C52.6612 164.504 53.2692 164.216 53.8452 164.216C54.6772 164.216 55.5092 164.76 55.5092 165.624C55.5092 165.816 55.4772 166.008 55.3812 166.232C54.6132 168.024 53.5892 169.784 52.5652 171.416C52.9172 171.768 53.2692 172.152 53.5892 172.568C54.2612 171.416 54.9012 170.328 55.4132 169.336C55.7012 168.728 56.2132 168.504 56.7252 168.504C57.5572 168.504 58.4212 169.144 58.4212 169.976C58.4212 170.2 58.3572 170.456 58.1972 170.712C56.9172 172.984 55.1892 175.672 53.5572 177.88C54.4852 177.784 55.4132 177.72 56.3412 177.624C56.1812 177.368 56.0212 177.112 55.8932 176.888C55.7652 176.664 55.7012 176.44 55.7012 176.216C55.7012 175.544 56.3732 175 57.0772 175C57.5252 175 58.0052 175.192 58.3252 175.672C59.0932 176.76 59.9892 178.456 60.5332 179.896C60.5972 180.088 60.6292 180.248 60.6292 180.408C60.6292 181.24 59.8292 181.784 59.0612 181.784C58.5492 181.784 58.0692 181.528 57.8452 180.952C57.7812 180.728 57.6852 180.504 57.5892 180.312C56.8852 180.408 56.1492 180.504 55.4452 180.568L55.4452 192.6C55.4452 193.432 54.6452 193.88 53.8132 193.88C53.0132 193.88 52.1812 193.432 52.1812 192.6ZM65.9092 170.424L71.4452 170.424C74.2932 170.424 75.3812 171.608 75.3812 174.072C75.3812 179.928 74.9012 185.432 74.1972 188.984C73.5892 192.056 72.0852 193.144 69.5572 193.144C68.7572 193.144 67.9572 193.08 67.1892 192.92C66.1012 192.696 65.6212 191.928 65.6212 191.16C65.6212 190.264 66.2612 189.368 67.3812 189.368C67.4772 189.368 67.6052 189.368 67.7332 189.4C68.3412 189.528 68.8852 189.592 69.3332 189.592C70.1652 189.592 70.5492 189.304 70.7732 188.184C71.4132 184.856 71.8612 179.736 71.8612 174.52C71.8612 173.752 71.6052 173.528 70.7092 173.528L64.4692 173.528C63.9892 174.456 63.4772 175.352 62.9012 176.216C62.4532 176.888 61.8772 177.144 61.3012 177.144C60.4052 177.144 59.5732 176.44 59.5732 175.544C59.5732 175.192 59.6692 174.84 59.9252 174.488C61.6532 171.928 62.9972 168.792 63.8292 165.496C64.0532 164.6 64.7572 164.216 65.4932 164.216C66.3892 164.216 67.3492 164.856 67.3492 165.816C67.3492 165.976 67.3172 166.104 67.2852 166.264C66.9012 167.672 66.4532 169.048 65.9092 170.424ZM58.7412 183.128C59.2212 184.44 59.7012 186.04 59.9572 187.448C59.9892 187.576 59.9892 187.672 59.9892 187.8C59.9892 188.664 59.2532 189.144 58.5492 189.144C57.9412 189.144 57.3332 188.792 57.2052 188.088C56.9812 186.68 56.5652 185.048 56.1492 183.8C56.0852 183.64 56.0852 183.512 56.0852 183.384C56.0852 182.68 56.7572 182.232 57.4612 182.232C57.9732 182.232 58.5172 182.488 58.7412 183.128ZM48.7892 183.672C48.9172 182.968 49.5252 182.616 50.1332 182.616C50.8372 182.616 51.5412 183.064 51.5412 183.864L51.5412 184.056C51.2852 186.168 50.7092 188.344 50.0692 189.816C49.7812 190.488 49.2052 190.744 48.6612 190.744C47.9252 190.744 47.1892 190.264 47.1892 189.464C47.1892 189.272 47.2532 189.048 47.3492 188.824C47.9252 187.608 48.5012 185.528 48.7892 183.672ZM66.2932 178.136C67.1892 179.096 68.0532 180.152 68.7252 181.272C68.9492 181.624 69.0452 181.976 69.0452 182.328C69.0452 183.32 68.1812 184.088 67.2532 184.088C66.7092 184.088 66.1652 183.832 65.7492 183.16C65.0772 182.04 64.4052 181.08 63.6052 180.12C63.3172 179.768 63.1892 179.416 63.1892 179.064C63.1892 178.2 64.0212 177.528 64.9172 177.528C65.3972 177.528 65.8772 177.688 66.2932 178.136Z" fill="white"/>
<path d="M48.3906 49.397L52.4026 49.397C52.8276 49.397 53.0826 49.703 53.0826 50.094C53.0826 50.502 52.7936 50.774 52.4026 50.774L48.9176 50.774C48.4246 50.774 48.1526 51.029 48.1526 51.522L48.1526 62.266C48.1526 62.657 47.8126 62.912 47.4046 62.912C47.0136 62.912 46.6396 62.657 46.6396 62.266L46.6396 51.148C46.6396 50.009 47.2516 49.397 48.3906 49.397ZM63.8776 50.553L63.8776 52.236L64.9656 52.236C65.9516 52.236 66.8866 52.253 67.7536 52.27C68.3316 52.287 68.6206 52.729 68.6206 53.188C68.6206 53.63 68.3316 54.055 67.7536 54.055C67.0906 54.038 66.3596 54.021 65.5946 54.021C65.0506 54.021 64.4896 54.038 63.9116 54.038C63.9116 54.633 63.9286 55.228 63.9626 55.823C65.0846 55.755 66.1726 55.67 67.1586 55.551L67.2946 55.551C67.8896 55.551 68.1956 55.976 68.1956 56.418C68.1956 56.826 67.9236 57.251 67.3626 57.319C66.3256 57.455 65.2036 57.54 64.0646 57.608C64.0986 58.356 64.1666 59.104 64.2346 59.852C65.6796 60.226 67.1246 60.855 68.5016 61.705C68.9096 61.96 69.0796 62.3 69.0796 62.623C69.0796 63.15 68.6376 63.626 68.0766 63.626C67.8896 63.626 67.7026 63.575 67.4986 63.439C66.4616 62.759 65.4076 62.198 64.3536 61.807L64.3536 61.926C64.3536 63.762 62.7556 64.646 60.7836 64.646C58.6246 64.646 57.2986 63.609 57.2986 62.028C57.2986 60.549 58.5226 59.41 60.9536 59.41C61.4126 59.41 61.8546 59.444 62.3306 59.495C62.2796 58.883 62.2116 58.271 62.1946 57.676L61.2256 57.676C60.2056 57.676 59.1686 57.642 58.5736 57.574C58.0126 57.506 57.7576 57.081 57.7576 56.673C57.7576 56.231 58.0636 55.772 58.6076 55.772L58.7266 55.772C59.3556 55.84 60.2056 55.891 61.1746 55.891L62.0926 55.891C62.0586 55.279 62.0416 54.684 62.0246 54.072C60.5796 54.106 59.1686 54.157 57.9786 54.208C57.4006 54.225 57.0946 53.766 57.0946 53.307C57.0946 52.865 57.3666 52.44 57.9446 52.406C59.1346 52.355 60.5456 52.287 61.9906 52.27L61.9906 50.553C61.9906 50.043 62.4666 49.788 62.9426 49.788C63.4016 49.788 63.8776 50.043 63.8776 50.553ZM60.7836 62.895C61.9226 62.895 62.4836 62.368 62.4836 61.654L62.4836 61.28C61.9566 61.178 61.4636 61.127 60.9536 61.127C59.6276 61.127 59.2366 61.535 59.2366 62.045C59.2366 62.504 59.6786 62.895 60.7836 62.895ZM83.7166 62.3C83.6826 64.204 82.2886 64.884 80.6566 64.884C78.6336 64.884 77.4096 64 77.4096 62.419C77.4096 61.059 78.5656 59.937 80.7416 59.937C81.0136 59.937 81.2856 59.954 81.5916 59.988C81.4726 59.206 81.4216 58.628 81.4216 58.186C81.4216 57.455 81.4556 57.081 81.5406 56.537C81.6256 56.061 82.0166 55.857 82.4246 55.857C82.9006 55.857 83.3766 56.129 83.3766 56.639C83.3766 56.69 83.3596 56.724 83.3596 56.775C83.2916 57.268 83.2406 57.693 83.2406 58.169C83.2406 58.645 83.2916 59.308 83.4786 60.379C84.5666 60.702 85.6886 61.195 86.6746 61.858C86.9976 62.079 87.1336 62.368 87.1336 62.657C87.1336 63.133 86.7426 63.592 86.2326 63.592C86.0626 63.592 85.8586 63.524 85.6546 63.388C85.0256 62.946 84.3626 62.572 83.7166 62.3ZM80.6566 63.201C81.4386 63.201 81.8636 62.861 81.8636 62.113C81.8636 61.96 81.8636 61.824 81.8466 61.688C81.4726 61.62 81.1156 61.586 80.7756 61.586C79.5856 61.586 79.2116 61.96 79.2116 62.419C79.2116 62.912 79.5516 63.201 80.6566 63.201ZM76.9506 53.222C77.2056 52.355 77.4436 51.488 77.6136 50.638C77.7156 50.128 78.1236 49.907 78.5316 49.907C79.0076 49.907 79.4496 50.196 79.4496 50.74C79.4496 50.808 79.4496 50.893 79.4326 50.961C79.2966 51.607 79.1266 52.287 78.9396 52.967C79.4496 52.882 79.9596 52.797 80.4356 52.712C80.5036 52.695 80.5716 52.695 80.6226 52.695C81.1666 52.695 81.5066 53.137 81.5066 53.596C81.5066 53.97 81.2856 54.344 80.7416 54.463C80.0106 54.616 79.1776 54.752 78.3446 54.871C77.6306 56.928 76.7126 58.968 75.7266 60.6C75.4716 61.025 75.1146 61.212 74.7746 61.212C74.2646 61.212 73.8226 60.821 73.8226 60.311C73.8226 60.124 73.8736 59.92 74.0096 59.716C74.8766 58.356 75.6586 56.775 76.3046 55.092C75.6756 55.16 75.0636 55.194 74.5366 55.211C73.9586 55.228 73.6526 54.752 73.6526 54.276C73.6526 53.834 73.9246 53.409 74.4686 53.392C75.2336 53.358 76.0836 53.307 76.9506 53.222ZM84.4986 53.018C85.3146 53.239 86.3686 53.715 87.0996 54.174C87.4906 54.412 87.6606 54.752 87.6606 55.058C87.6606 55.551 87.2526 55.993 86.7596 55.993C86.5896 55.993 86.4196 55.942 86.2496 55.84C85.4506 55.381 84.5666 54.939 83.8186 54.667C83.3936 54.514 83.2066 54.208 83.2066 53.902C83.2066 53.443 83.5976 52.967 84.1756 52.967C84.2776 52.967 84.3796 52.984 84.4986 53.018ZM96.4156 57.166L96.4496 57.183C96.9426 56.877 97.4526 56.741 97.9966 56.741C99.5606 56.741 100.411 57.676 100.53 60.328C100.615 62.181 101.023 62.436 101.669 62.436C102.434 62.436 103.08 61.773 103.675 60.226C103.845 59.784 104.219 59.58 104.593 59.58C105.103 59.58 105.613 59.954 105.613 60.498C105.613 60.617 105.579 60.753 105.528 60.906C104.644 63.252 103.369 64.357 101.533 64.357C99.7646 64.357 98.6766 63.405 98.5576 60.498C98.4896 58.815 98.2346 58.458 97.5376 58.458C96.6366 58.458 95.7186 59.291 94.8856 61.025C94.5116 61.807 94.0186 62.844 93.6446 63.66C93.4576 64.051 93.1006 64.238 92.7436 64.238C92.2336 64.238 91.7236 63.881 91.7236 63.337C91.7236 63.218 91.7576 63.099 91.8086 62.963C93.3046 59.359 95.4636 54.752 97.4186 51.131C97.6056 50.774 97.9456 50.621 98.2856 50.621C98.8296 50.621 99.3566 50.995 99.3566 51.505C99.3566 51.641 99.3226 51.777 99.2546 51.913L96.4156 57.166ZM116.105 53.817L116.105 53.783C114.065 54.055 111.362 54.463 108.914 54.82C108.846 54.837 108.795 54.837 108.744 54.837C108.132 54.837 107.792 54.344 107.792 53.868C107.792 53.426 108.064 53.018 108.676 52.933C112.212 52.491 116.598 51.998 120.134 51.675L120.236 51.675C120.831 51.675 121.154 52.117 121.154 52.576C121.154 52.984 120.899 53.392 120.372 53.494C119.777 53.596 119.131 53.817 118.502 54.174C115.85 55.687 115.289 57.455 115.289 59.07C115.289 60.957 116.598 62.113 118.978 62.402C119.607 62.487 119.896 62.946 119.896 63.405C119.896 63.915 119.573 64.408 118.893 64.408C118.774 64.408 118.417 64.391 118.128 64.34C115.034 63.762 113.317 61.654 113.317 59.121C113.317 57.336 114.184 55.33 116.105 53.817ZM118.774 56.911C118.655 56.775 118.604 56.639 118.604 56.52C118.604 56.18 118.944 55.874 119.318 55.874C119.471 55.874 119.641 55.925 119.794 56.061C120.253 56.469 120.763 57.013 121.12 57.54C121.239 57.693 121.273 57.846 121.273 57.999C121.273 58.373 120.95 58.679 120.593 58.679C120.389 58.679 120.185 58.577 120.032 58.356C119.624 57.795 119.165 57.302 118.774 56.911ZM120.474 55.568C120.338 55.432 120.287 55.296 120.287 55.16C120.287 54.82 120.61 54.531 121.001 54.531C121.171 54.531 121.341 54.599 121.511 54.735C121.953 55.109 122.463 55.636 122.82 56.129C122.956 56.299 123.007 56.469 123.007 56.639C123.007 57.013 122.684 57.285 122.327 57.285C122.123 57.285 121.902 57.2 121.732 56.979C121.341 56.486 120.865 55.976 120.474 55.568ZM133.564 50.91L133.564 52.015C133.564 52.61 133.564 53.188 133.581 53.749C134.754 53.664 135.927 53.511 136.93 53.29C136.998 53.273 137.066 53.273 137.134 53.273C137.695 53.273 138.018 53.732 138.018 54.208C138.018 54.599 137.797 54.99 137.27 55.109C136.199 55.347 134.924 55.517 133.632 55.585C133.717 56.945 133.785 58.322 133.955 59.665C135.468 60.124 136.964 60.838 138.29 61.722C138.647 61.96 138.783 62.283 138.783 62.589C138.783 63.116 138.375 63.609 137.797 63.609C137.576 63.609 137.338 63.541 137.083 63.354C136.148 62.708 135.094 62.113 134.023 61.671C133.819 63.371 132.476 64.544 130.147 64.544C128.022 64.544 126.526 63.575 126.526 61.841C126.526 60.345 127.903 59.087 130.198 59.087C130.776 59.087 131.371 59.138 131.983 59.223C131.779 57.234 131.609 54.888 131.609 51.964L131.609 50.91C131.609 50.366 132.102 50.111 132.595 50.111C133.071 50.111 133.564 50.366 133.564 50.91ZM130.147 62.759C131.269 62.759 132.102 62.113 132.102 61.076C131.456 60.923 130.81 60.838 130.198 60.838C129.093 60.838 128.549 61.246 128.549 61.841C128.549 62.453 129.025 62.759 130.147 62.759ZM148.626 55.789C147.946 58.594 146.96 61.348 145.753 63.473C145.532 63.864 145.175 64.017 144.835 64.017C144.342 64.017 143.9 63.677 143.9 63.167C143.9 63.014 143.951 62.827 144.053 62.64C145.124 60.753 146.008 58.424 146.654 55.993C145.957 56.078 145.277 56.197 144.631 56.333C144.563 56.35 144.478 56.35 144.41 56.35C143.883 56.35 143.594 55.925 143.594 55.483C143.594 55.092 143.832 54.701 144.359 54.599C145.226 54.429 146.161 54.31 147.062 54.208C147.266 53.171 147.436 52.117 147.555 51.08C147.623 50.536 148.048 50.281 148.49 50.281C148.966 50.281 149.442 50.587 149.442 51.131L149.442 51.25C149.34 52.168 149.187 53.12 149 54.055C149.34 54.038 149.646 54.038 149.918 54.038C152.094 54.038 152.893 55.024 152.893 57.693C152.893 59.291 152.723 60.719 152.434 61.756C151.89 63.711 151.125 64.408 149.408 64.408C149 64.408 148.575 64.374 148.252 64.323C147.674 64.238 147.419 63.813 147.419 63.405C147.419 62.929 147.725 62.47 148.286 62.47C148.32 62.47 148.371 62.487 148.422 62.487C148.745 62.521 149 62.555 149.357 62.555C149.952 62.555 150.258 62.368 150.547 61.365C150.836 60.396 150.989 59.07 150.989 57.676C150.989 56.146 150.7 55.738 149.884 55.738C149.51 55.738 149.085 55.755 148.626 55.789ZM155.562 52.882C156.633 53.902 157.687 55.466 158.265 56.605C158.367 56.809 158.401 57.013 158.401 57.183C158.401 57.778 157.925 58.169 157.415 58.169C157.075 58.169 156.718 57.982 156.48 57.523C155.868 56.299 154.967 54.99 154.066 54.021C153.879 53.817 153.794 53.596 153.794 53.409C153.794 52.933 154.27 52.559 154.78 52.559C155.052 52.559 155.324 52.661 155.562 52.882ZM169.825 55.704C172.307 55.704 174.007 57.047 174.007 59.189C174.007 61.841 172.018 63.711 168.21 64.255C168.159 64.272 168.091 64.272 168.04 64.272C167.53 64.272 167.258 63.847 167.258 63.439C167.258 63.082 167.479 62.725 167.955 62.64C171.185 62.079 172.29 60.991 172.29 59.189C172.29 58.101 171.508 57.251 169.825 57.251C168.074 57.251 165.881 57.812 163.382 58.917C163.246 58.985 163.11 59.002 162.974 59.002C162.498 59.002 162.175 58.611 162.175 58.203C162.175 57.897 162.345 57.574 162.753 57.404C165.269 56.299 167.819 55.704 169.825 55.704ZM181.759 55.296C181.062 55.398 180.365 55.5 179.668 55.5C179.107 55.5 178.818 55.075 178.818 54.616C178.818 54.157 179.107 53.715 179.685 53.681C180.365 53.647 181.181 53.545 182.099 53.392C182.252 52.457 182.32 51.709 182.422 50.774C182.473 50.247 182.915 49.992 183.357 49.992C183.833 49.992 184.309 50.298 184.309 50.842L184.309 50.944C184.224 51.76 184.139 52.372 184.037 53.018C184.513 52.916 185.006 52.797 185.499 52.678C185.584 52.661 185.669 52.644 185.754 52.644C186.281 52.644 186.604 53.086 186.604 53.545C186.604 53.902 186.4 54.259 185.941 54.378C185.159 54.599 184.411 54.786 183.731 54.939C183.119 58.271 182.303 61.416 181.351 63.881C181.147 64.391 180.722 64.629 180.314 64.629C179.838 64.629 179.379 64.289 179.379 63.762C179.379 63.609 179.413 63.456 179.481 63.286C180.416 60.974 181.164 58.271 181.759 55.296ZM185.176 61.127C185.176 60.549 185.652 60.226 186.128 60.226C186.519 60.226 186.893 60.447 186.944 60.94C187.063 62.028 187.675 62.334 189.528 62.334C190.395 62.334 191.126 62.266 191.806 62.164C191.857 62.147 191.942 62.147 191.993 62.147C192.571 62.147 192.894 62.64 192.894 63.099C192.894 63.507 192.639 63.915 192.112 64C191.381 64.119 190.531 64.187 189.562 64.187C187.182 64.187 186.128 63.575 185.584 62.708C185.312 62.283 185.176 61.603 185.176 61.127ZM186.876 55.568C188.202 55.296 189.885 55.109 191.245 55.109C191.857 55.109 192.163 55.568 192.163 56.027C192.163 56.469 191.874 56.894 191.296 56.894C189.936 56.894 188.355 57.098 187.148 57.336C187.08 57.353 186.995 57.353 186.944 57.353C186.417 57.353 186.094 56.928 186.094 56.469C186.094 56.078 186.332 55.687 186.876 55.568ZM202.55 53.8C202.533 53.494 202.414 52.287 202.414 51.828C202.414 51.097 202.941 50.672 203.638 50.672C204.318 50.672 204.828 51.114 204.828 51.828C204.828 52.287 204.726 53.307 204.692 53.8C204.573 55.449 204.454 57.965 204.403 59.852C204.386 60.294 204.063 60.566 203.604 60.566C203.145 60.566 202.856 60.294 202.839 59.852C202.771 57.982 202.669 55.466 202.55 53.8ZM203.621 61.671C204.352 61.671 204.913 62.232 204.913 62.946C204.913 63.66 204.352 64.204 203.621 64.204C202.89 64.204 202.329 63.66 202.329 62.946C202.329 62.232 202.89 61.671 203.621 61.671ZM218.258 65.683L214.246 65.683C213.821 65.683 213.566 65.377 213.566 64.986C213.566 64.578 213.855 64.306 214.246 64.306L217.731 64.306C218.224 64.306 218.496 64.051 218.496 63.558L218.496 52.814C218.496 52.423 218.836 52.168 219.244 52.168C219.635 52.168 220.009 52.423 220.009 52.814L220.009 63.932C220.009 65.071 219.397 65.683 218.258 65.683ZM113.621 82.962C113.247 81.33 112.992 79.307 112.992 76.961C112.992 76.349 113.485 76.043 113.978 76.043C114.471 76.043 114.964 76.349 114.964 76.961C114.964 78.865 115.117 80.565 115.355 81.942C116.392 81.432 117.548 80.973 118.704 80.616C118.806 80.582 118.908 80.565 119.01 80.565C119.537 80.565 119.894 81.041 119.894 81.517C119.894 81.874 119.707 82.214 119.265 82.35C117.752 82.826 116.052 83.523 114.794 84.322C113.332 85.274 112.822 86.209 112.822 87.076C112.822 88.13 113.519 88.674 116.222 88.674C117.582 88.674 118.789 88.555 119.741 88.368C119.826 88.351 119.894 88.351 119.962 88.351C120.557 88.351 120.88 88.81 120.88 89.286C120.88 89.711 120.642 90.119 120.115 90.238C118.959 90.476 117.65 90.561 116.205 90.561C112.635 90.561 110.85 89.473 110.85 87.178C110.85 85.784 111.496 84.407 113.621 82.962ZM134.48 86.804L132.083 86.804C130.57 86.804 129.992 86.26 129.992 84.968L129.992 82.197C129.992 80.905 130.57 80.361 132.083 80.361L134.48 80.361C135.993 80.361 136.571 80.905 136.571 82.197L136.571 84.968C136.571 86.43 135.823 86.804 134.48 86.804ZM132.355 85.24L134.208 85.24C134.633 85.24 134.803 85.104 134.803 84.696L134.803 82.469C134.803 82.061 134.633 81.925 134.208 81.925L132.355 81.925C131.93 81.925 131.76 82.061 131.76 82.469L131.76 84.696C131.76 85.121 131.964 85.24 132.355 85.24ZM137.795 90.816L128.853 90.816C126.932 90.816 126.218 90 126.218 88.453L126.218 78.899C126.218 77.352 126.932 76.536 128.853 76.536L137.795 76.536C139.716 76.536 140.43 77.352 140.43 78.899L140.43 88.453C140.43 90.272 139.478 90.816 137.795 90.816ZM129.244 89.116L137.404 89.116C138.237 89.116 138.526 88.844 138.526 88.164L138.526 79.188C138.526 78.508 138.237 78.236 137.404 78.236L129.244 78.236C128.411 78.236 128.122 78.508 128.122 79.188L128.122 88.164C128.122 88.946 128.53 89.116 129.244 89.116ZM146.89 77.675L149.933 77.675C150.375 77.675 150.579 78.032 150.579 78.389C150.579 78.746 150.375 79.103 149.933 79.103L148.539 79.103C148.709 79.392 148.862 79.681 148.981 79.953C149.032 80.072 149.049 80.174 149.049 80.276C149.049 80.735 148.641 81.024 148.216 81.024C147.893 81.024 147.587 80.871 147.434 80.48C147.264 80.055 147.06 79.596 146.788 79.103L146.108 79.103C145.734 79.681 145.343 80.225 144.952 80.684C144.714 80.956 144.425 81.075 144.17 81.075C143.711 81.075 143.32 80.701 143.32 80.276C143.32 80.089 143.405 79.885 143.575 79.681C144.391 78.746 145.139 77.437 145.598 76.298C145.751 75.907 146.108 75.737 146.448 75.737C146.907 75.737 147.332 76.043 147.332 76.502C147.332 76.604 147.315 76.723 147.264 76.842C147.162 77.114 147.026 77.403 146.89 77.675ZM153.571 77.675L157.974 77.675C158.416 77.675 158.637 78.032 158.637 78.389C158.637 78.746 158.416 79.103 157.974 79.103L155.526 79.103C155.73 79.392 155.883 79.681 156.036 79.97C156.104 80.089 156.121 80.225 156.121 80.327C156.121 80.769 155.713 81.075 155.288 81.075C154.999 81.075 154.71 80.922 154.54 80.582C154.319 80.106 154.047 79.596 153.724 79.103L152.806 79.103C152.653 79.341 152.5 79.562 152.347 79.783C152.126 80.089 151.854 80.208 151.582 80.208L151.548 80.208C151.735 80.361 151.854 80.582 151.854 80.82C151.854 80.871 151.854 80.922 151.837 80.973C153.554 82.452 155.849 83.625 158.178 84.39C158.654 84.543 158.858 84.9 158.858 85.257C158.858 85.699 158.518 86.141 157.974 86.141C157.838 86.141 157.702 86.124 157.549 86.073C155.322 85.308 152.823 83.846 150.851 82.163C149.032 83.948 146.618 85.478 144.306 86.43C144.17 86.481 144.051 86.515 143.932 86.515C143.439 86.515 143.116 86.09 143.116 85.648C143.116 85.342 143.286 85.036 143.694 84.866C146.159 83.88 148.573 82.265 150.273 80.31C150.477 80.072 150.715 79.987 150.953 79.987L151.004 79.987C150.834 79.834 150.732 79.63 150.732 79.392C150.732 79.239 150.783 79.086 150.902 78.916C151.429 78.168 151.922 77.318 152.347 76.247C152.5 75.873 152.806 75.72 153.129 75.72C153.571 75.72 154.013 76.009 154.013 76.485C154.013 76.587 153.979 76.689 153.945 76.808C153.843 77.097 153.707 77.386 153.571 77.675ZM153.707 91.224L148.284 91.224C146.822 91.224 146.21 90.697 146.21 89.677L146.21 88.13C146.21 87.11 146.822 86.583 148.284 86.583L153.707 86.583C155.169 86.583 155.781 87.11 155.781 88.13L155.781 89.677C155.781 90.969 154.812 91.224 153.707 91.224ZM148.59 89.83L153.401 89.83C153.877 89.83 153.979 89.711 153.979 89.405L153.979 88.402C153.979 88.096 153.877 87.977 153.401 87.977L148.59 87.977C148.114 87.977 148.012 88.096 148.012 88.402L148.012 89.405C148.012 89.745 148.148 89.83 148.59 89.83ZM152.874 85.563L149.032 85.563C148.624 85.563 148.403 85.189 148.403 84.815C148.403 84.441 148.624 84.067 149.032 84.067L152.874 84.067C153.299 84.067 153.503 84.441 153.503 84.815C153.503 85.189 153.299 85.563 152.874 85.563Z" fill="white"/>
<path d="M217.406 126.2L221.196 129.98L220.956 130.22L217.166 126.44L213.396 130.22L213.156 129.98L216.926 126.2L213.176 122.45L213.416 122.21L217.166 125.96L220.916 122.21L221.156 122.45L217.406 126.2ZM217.156 122.79C217.646 122.79 218.056 123.2 218.056 123.69C218.056 124.18 217.646 124.59 217.156 124.59C216.666 124.59 216.256 124.18 216.256 123.69C216.256 123.2 216.666 122.79 217.156 122.79ZM214.646 125.3C215.136 125.3 215.546 125.71 215.546 126.2C215.546 126.69 215.136 127.1 214.646 127.1C214.156 127.1 213.746 126.69 213.746 126.2C213.746 125.71 214.156 125.3 214.646 125.3ZM219.666 125.3C220.156 125.3 220.566 125.71 220.566 126.2C220.566 126.69 220.156 127.1 219.666 127.1C219.176 127.1 218.766 126.69 218.766 126.2C218.766 125.71 219.176 125.3 219.666 125.3ZM217.156 127.81C217.646 127.81 218.056 128.22 218.056 128.71C218.056 129.2 217.646 129.61 217.156 129.61C216.666 129.61 216.256 129.2 216.256 128.71C216.256 128.22 216.666 127.81 217.156 127.81Z" fill="white"/>
</svg>
