<svg width="181" height="180" viewBox="0 0 181 180" fill="none" xmlns="http://www.w3.org/2000/svg">
<g clip-path="url(#clip0_1532_1932)">
<path d="M42.1951 132.561C52.0523 154.405 84.1963 161.251 114.012 147.859C143.828 134.468 160.012 105.89 150.176 84.0292C140.34 62.1685 108.175 55.3398 78.3589 68.7312C48.5222 82.1391 32.338 110.717 42.1951 132.561Z" fill="#E7372F"/>
<path d="M137.381 92.1984C145.441 110.205 127.815 115.87 120.027 99.7637C111.32 81.7553 129.383 74.3132 137.381 92.1984Z" fill="white"/>
<mask id="mask0_1532_1932" style="mask-type:luminance" maskUnits="userSpaceOnUse" x="117" y="81" width="23" height="29">
<path d="M120.045 99.7852C127.832 115.892 145.441 110.206 137.399 92.22C132.887 82.1294 125.16 80.0977 120.855 83.4894C117.537 86.1034 116.258 91.9546 120.045 99.7852Z" fill="white"/>
</mask>
<g mask="url(#mask0_1532_1932)">
<path d="M144.752 86.5637C152.812 104.571 135.186 110.235 127.398 94.1289C118.691 76.1205 136.755 68.6784 144.752 86.5637Z" fill="#231815"/>
</g>
<path d="M137.309 108.868C136.805 109.266 136.272 109.583 135.706 109.858C130.827 112.133 123.2 109.579 118.753 100.392C115.689 94.0397 115.484 88.1632 118.192 84.2561C120.026 81.6167 122.948 80.2704 126.226 80.5871C131.201 81.0689 135.76 85.0845 138.668 91.6281C142.459 100.069 140.837 106.089 137.309 108.868ZM121.717 84.5833C121.276 84.9307 120.863 85.3578 120.518 85.8691C118.409 88.895 118.695 93.7519 121.319 99.1558C124.965 106.722 130.872 108.993 134.54 107.298C137.885 105.754 139.664 100.668 136.133 92.7729C133.673 87.2743 129.892 83.7713 125.991 83.3991C124.371 83.243 122.909 83.6778 121.733 84.6043L121.717 84.5833Z" fill="#231815"/>
<path d="M88.3703 114.231C96.4298 132.238 78.8037 137.902 71.0162 121.796C62.3089 103.787 80.3726 96.3454 88.3703 114.231Z" fill="white"/>
<mask id="mask1_1532_1932" style="mask-type:luminance" maskUnits="userSpaceOnUse" x="68" y="103" width="23" height="29">
<path d="M70.9952 121.812C78.7827 137.918 96.4132 132.216 88.3492 114.247C83.8374 104.156 76.1106 102.125 71.8054 105.516C68.4872 108.13 67.2087 113.981 70.9952 121.812Z" fill="white"/>
</mask>
<g mask="url(#mask1_1532_1932)">
<path d="M95.7141 109.468C103.774 127.475 86.1475 133.14 78.36 117.033C69.6527 99.0248 87.7164 91.5827 95.7141 109.468Z" fill="#231815"/>
</g>
<path d="M88.2971 130.901C87.7931 131.298 87.2603 131.615 86.6944 131.89C81.8153 134.165 74.188 131.611 69.7415 122.425C66.6769 116.072 66.472 110.195 69.1799 106.288C71.0147 103.649 73.9361 102.303 77.2147 102.619C82.189 103.101 86.7269 107.133 89.6566 113.66C93.4476 122.102 91.8253 128.121 88.2971 130.901ZM72.684 106.632C72.243 106.979 71.8307 107.407 71.4848 107.918C69.3759 110.944 69.6625 115.801 72.286 121.205C75.9321 128.771 81.8394 131.042 85.507 129.346C88.8308 127.819 90.6311 122.717 87.0999 114.822C84.6401 109.323 80.8594 105.82 76.9585 105.448C75.338 105.292 73.8767 105.727 72.7006 106.653L72.684 106.632Z" fill="#231815"/>
<path d="M128.564 63.9412L42.4693 102.02L36.8486 88.88C3.92347 87.2212 24.7217 44.8429 45.6932 63.0822C44.5774 40.1508 76.4358 24.9456 90.4421 40.9968C94.5153 7.155 135.776 21.5547 122.711 45.9698L128.543 63.9577L128.564 63.9412Z" fill="white"/>
<path d="M129.443 65.0567C129.443 65.0567 129.254 65.2056 129.137 65.2296L43.0418 103.308C42.6815 103.456 42.3178 103.469 41.9553 103.312C41.6093 103.175 41.3185 102.892 41.187 102.552L35.9123 90.1973C23.3097 89.2778 19.7245 82.6531 18.7006 78.718C16.8895 71.7532 20.4781 63.434 27.0317 59.3968C32.4567 56.0441 38.6314 56.3648 44.3155 60.2103C45.1117 48.0872 54.4516 38.9896 63.9709 35.1745C73.5322 31.3263 83.0408 32.4659 89.4955 38.024C91.3099 28.7488 96.3489 22.3571 103.605 20.2912C110.546 18.3021 118.579 20.8088 123.103 26.4214C127.461 31.8235 127.879 38.9645 124.282 46.0627L129.933 63.4762C130.114 64.0506 129.909 64.6551 129.468 65.0025L129.443 65.0567ZM43.2041 100.145L126.826 63.161L121.383 46.4015C121.273 46.0452 121.3 45.6482 121.474 45.3068C126.042 36.7619 123.049 30.9325 120.872 28.2127C117.045 23.4842 110.247 21.3351 104.369 23.0324C100.366 24.1729 93.4333 28.0311 91.8701 41.1678C91.8039 41.7317 91.4082 42.1799 90.8931 42.3469C90.3614 42.4929 89.7689 42.3456 89.4162 41.9412C82.7823 34.3411 72.4735 34.8211 65.0322 37.8178C55.6931 41.5592 46.5234 50.8297 47.1102 63.0232C47.14 63.5796 46.8317 64.0954 46.3243 64.3587C45.817 64.6219 45.199 64.5288 44.7878 64.1364C37.5438 57.8356 31.4997 59.9705 28.5208 61.8055C23.0538 65.1914 19.9493 72.3105 21.4298 78.0349C22.8815 83.6795 28.3766 87.0258 36.9202 87.4589C37.4508 87.4844 37.946 87.8106 38.1517 88.3308L43.2207 100.166L43.2041 100.145Z" fill="#231815"/>
<path d="M118.784 121.86C118.238 122.29 117.658 122.678 117.063 123.045C111.433 126.354 104.028 126.286 97.2254 122.879C96.5422 122.53 96.2636 121.658 96.5896 120.992C96.9367 120.309 97.7911 120.011 98.4743 120.36C104.41 123.359 110.842 123.443 115.632 120.624C118.745 118.786 120.702 115.914 120.826 112.917C120.86 112.14 121.503 111.53 122.28 111.566C123.057 111.602 123.668 112.247 123.633 113.025C123.508 116.365 121.724 119.544 118.784 121.86Z" fill="#231815"/>
</g>
<defs>
<clipPath id="clip0_1532_1932">
<rect width="130.174" height="125.835" fill="white" transform="translate(0 80.5557) rotate(-38.2308)"/>
</clipPath>
</defs>
</svg>
