<svg width="206" height="206" viewBox="0 0 206 206" fill="none" xmlns="http://www.w3.org/2000/svg">
<circle cx="103" cy="103" r="103" fill="#69BD83"/>
<path d="M53.1802 84.7842H55.4602C58.7002 84.7842 60.4202 83.1042 60.4202 80.2642C60.4202 77.9442 58.5802 76.3042 55.6602 76.3042C53.9802 76.3042 52.2202 77.0642 50.7802 78.3042C50.2602 78.7842 49.8202 78.9042 49.3402 78.9042C48.1402 78.9042 47.1002 77.9042 47.1002 76.6642C47.1002 76.0642 47.2602 75.5842 47.7002 75.2242C49.6202 73.5442 52.7002 72.3042 55.6602 72.3042C61.5002 72.3042 65.1002 75.5042 65.1002 80.0642C65.1002 83.3442 63.5002 85.5442 60.3802 86.3842C63.9402 87.4642 66.1002 90.1042 66.1002 93.5042C66.1002 99.2242 61.7802 103.104 55.5402 103.104C52.2602 103.104 49.1802 102.184 47.1802 100.584C46.5402 100.064 46.3002 99.5042 46.3002 98.7442C46.3002 97.5842 47.1802 96.6642 48.4202 96.6642C48.8602 96.6642 49.2202 96.7442 49.5802 96.9842C51.5802 98.4642 53.5002 99.1042 55.5402 99.1042C59.0602 99.1042 61.3002 96.7842 61.3002 93.7042C61.3002 90.6642 59.2202 88.7442 55.7002 88.7442H53.1802C52.0202 88.7442 51.3002 87.9042 51.3002 86.7442C51.3002 85.5842 52.0202 84.7842 53.1802 84.7842Z" fill="white"/>
<path d="M117.895 79.5088L50.4327 138.538" stroke="white" stroke-width="4" stroke-linecap="round"/>
<path d="M112.191 132.04H102.671C100.791 132.04 99.751 131.08 99.751 129.32C99.751 128.24 99.951 127.56 100.631 126.44L109.831 110.92C110.831 109.24 111.751 108.6 113.511 108.6C115.751 108.6 116.631 109.76 116.631 112.12V128.32H119.031C120.431 128.32 121.151 128.96 121.151 130.16C121.151 131.36 120.431 132.04 119.031 132.04H116.631V136.76C116.631 138.2 115.791 139 114.351 139C112.951 139 112.191 138.2 112.191 136.76V132.04ZM112.191 128.32V120.96C112.191 118.28 112.311 115.68 112.511 113H112.231C111.191 115.36 110.071 117.64 108.671 120.08L103.951 128.32H112.191Z" fill="white"/>
<path d="M82.2436 172.304H81.4036C80.7796 172.304 80.4676 171.752 80.4676 171.2C80.4676 171.08 80.4916 170.96 80.5156 170.84C79.2916 171.824 77.9476 172.688 76.5796 173.384C76.3636 173.48 76.1476 173.528 75.9796 173.528C75.3316 173.528 74.8516 173 74.8516 172.424C74.8516 172.04 75.0676 171.632 75.5956 171.368C76.8196 170.744 77.9956 170 79.0276 169.184C78.5716 168.704 78.0916 168.296 77.8276 168.104C77.5156 167.864 77.3956 167.576 77.3956 167.264C77.3956 166.712 77.8756 166.184 78.4996 166.184C78.7396 166.184 78.9796 166.256 79.2436 166.448C79.6756 166.736 80.1316 167.144 80.6836 167.672C81.2836 167.072 81.7876 166.448 82.1956 165.824C82.2916 165.68 82.3396 165.56 82.3396 165.488C82.3396 165.344 82.1956 165.272 81.8596 165.272H78.0196C77.4196 165.272 77.1076 164.744 77.1076 164.216C77.1076 163.688 77.4196 163.16 78.0196 163.16H82.4596C84.1396 163.16 85.0276 163.904 85.0276 164.984C85.0276 165.512 84.8116 166.088 84.4036 166.712C83.5876 167.912 82.5796 169.064 81.4036 170.096H90.7876C91.4356 170.096 91.7476 170.648 91.7476 171.2C91.7476 171.752 91.4356 172.304 90.7876 172.304H89.7556V174.8H94.5316C95.1796 174.8 95.5156 175.352 95.5156 175.928C95.5156 176.48 95.1796 177.056 94.5316 177.056H89.7556V180.752C89.7556 181.328 89.9956 181.424 91.5556 181.424C93.3316 181.424 93.7156 181.256 93.8356 180.008C93.9076 179.336 94.4596 179.024 95.0356 179.024C95.6836 179.024 96.3556 179.408 96.3556 180.104C96.3556 180.752 96.1396 181.64 95.8276 182.144C95.1556 183.224 93.7396 183.584 91.2676 183.584C88.1236 183.584 87.2116 182.936 87.2116 181.208V177.056H84.3796C83.5156 180.128 81.3556 182.312 77.9476 183.824C77.7556 183.92 77.5636 183.944 77.3956 183.944C76.7236 183.944 76.2196 183.368 76.2196 182.768C76.2196 182.36 76.4356 181.952 76.9636 181.712C79.3876 180.56 80.9476 179.144 81.7156 177.056H77.4916C76.8676 177.056 76.5316 176.48 76.5316 175.928C76.5316 175.352 76.8676 174.8 77.4916 174.8H82.1956C82.2196 174.416 82.2436 174.008 82.2436 173.576V172.304ZM87.2116 174.8V172.304H84.7876V173.744C84.7876 174.104 84.7636 174.44 84.7396 174.8H87.2116ZM91.6516 167.024C92.3476 166.496 92.9476 165.896 93.5236 165.2C93.7876 164.888 94.0996 164.768 94.4116 164.768C95.0356 164.768 95.6116 165.272 95.6116 165.896C95.6116 166.136 95.5396 166.376 95.3236 166.616C94.7476 167.288 94.0756 167.888 93.3556 168.44C94.3876 169.232 95.5156 169.928 96.6196 170.48C97.2196 170.792 97.4596 171.248 97.4596 171.68C97.4596 172.304 96.9556 172.88 96.2356 172.88C96.0196 172.88 95.8036 172.832 95.5636 172.712C91.8196 170.84 87.9316 167.096 86.0356 163.472C85.9396 163.28 85.8916 163.112 85.8916 162.944C85.8916 162.32 86.4676 161.888 87.0916 161.888C87.4996 161.888 87.9316 162.08 88.2196 162.584C88.5316 163.16 88.8676 163.736 89.2516 164.288C89.7556 163.832 90.2356 163.352 90.6916 162.8C90.9556 162.488 91.2676 162.368 91.5796 162.368C92.2036 162.368 92.8036 162.872 92.8036 163.472C92.8036 163.712 92.7076 163.952 92.4916 164.192C91.9156 164.84 91.2916 165.416 90.5956 165.944C90.9316 166.328 91.2916 166.664 91.6516 167.024ZM110.708 167.408V166.016H102.692C102.068 166.016 101.732 165.464 101.732 164.936C101.732 164.384 102.068 163.856 102.692 163.856H110.708V162.656C110.708 161.96 111.38 161.624 112.028 161.624C112.7 161.624 113.348 161.96 113.348 162.656V163.856H121.604C122.252 163.856 122.588 164.384 122.588 164.936C122.588 165.464 122.252 166.016 121.604 166.016H113.348V167.408H119.108C119.756 167.408 120.092 167.936 120.092 168.488C120.092 169.016 119.756 169.568 119.108 169.568H105.332C104.708 169.568 104.372 169.016 104.372 168.488C104.372 167.936 104.708 167.408 105.332 167.408H110.708ZM107.972 175.208C108.068 174.512 108.692 174.176 109.316 174.176C109.988 174.176 110.636 174.536 110.636 175.232C110.636 175.304 110.612 175.352 110.612 175.424C110.06 179.504 107.204 182.36 103.148 183.68C102.98 183.728 102.812 183.752 102.668 183.752C101.924 183.752 101.444 183.152 101.444 182.528C101.444 182.072 101.708 181.592 102.332 181.376C105.86 180.152 107.54 178.16 107.972 175.208ZM113.276 180.92V175.208C113.276 174.512 113.924 174.152 114.572 174.152C115.196 174.152 115.844 174.512 115.844 175.208V180.512C115.844 181.064 116.084 181.232 117.74 181.232C119.636 181.232 120.092 181.016 120.26 179.624C120.332 178.952 120.908 178.616 121.508 178.616C122.132 178.616 122.78 179.024 122.78 179.744V179.888C122.492 182.624 121.292 183.392 117.668 183.392C114.02 183.392 113.276 182.744 113.276 180.92ZM104.9 170.888H119.204C121.556 170.888 122.396 171.608 122.396 173.456V175.016C122.396 175.736 121.748 176.12 121.076 176.12C120.428 176.12 119.756 175.736 119.756 175.016V173.84C119.756 173.264 119.612 173.048 118.868 173.048H105.26C104.516 173.048 104.348 173.264 104.348 173.84V175.136C104.348 175.856 103.7 176.24 103.028 176.24C102.38 176.24 101.708 175.856 101.708 175.136V173.48C101.708 171.632 102.548 170.888 104.9 170.888ZM127.916 166.592C127.892 166.28 127.82 165.32 127.82 165.056C127.82 164.048 128.588 163.472 129.548 163.472C130.484 163.472 131.228 164.072 131.228 165.056C131.228 165.608 131.132 166.568 131.108 166.952C130.892 170.048 130.748 172.088 130.628 176.048C130.604 176.648 130.148 177.032 129.5 177.032C128.852 177.032 128.444 176.648 128.42 176.048C128.3 172.088 128.18 169.904 127.916 166.592ZM129.524 178.424C130.556 178.424 131.348 179.216 131.348 180.224C131.348 181.232 130.556 182 129.524 182C128.492 182 127.7 181.232 127.7 180.224C127.7 179.216 128.492 178.424 129.524 178.424Z" fill="white"/>
<path d="M133.667 129.88C133.667 125.44 135.611 121.528 139.283 118.336C139.499 118.144 139.763 118.048 140.003 118.048C140.459 118.048 140.891 118.456 140.891 118.912C140.891 119.224 140.771 119.44 140.531 119.656C137.363 122.608 135.875 125.944 135.875 129.88C135.875 133.816 137.363 137.152 140.531 140.104C140.771 140.32 140.891 140.536 140.891 140.848C140.891 141.304 140.459 141.712 140.003 141.712C139.763 141.712 139.499 141.616 139.283 141.424C135.611 138.232 133.667 134.32 133.667 129.88ZM156.208 119.656V124.072C156.616 125.176 157.048 126.28 157.672 127.336C159.064 126.328 160.48 125.032 161.824 123.448C162.112 123.112 162.496 122.968 162.856 122.968C163.576 122.968 164.272 123.544 164.272 124.264C164.272 124.552 164.176 124.864 163.888 125.176C162.304 126.928 160.6 128.296 158.968 129.376C160.84 131.992 163.192 134.2 165.4 135.712C165.952 136.096 166.168 136.552 166.168 137.008C166.168 137.704 165.568 138.352 164.824 138.352C164.512 138.352 164.2 138.256 163.864 138.016C160.936 135.976 158.008 132.544 156.136 128.968L156.208 131.728V137.92C156.208 140.104 155.032 140.848 152.968 140.848C152.08 140.848 151.6 140.776 151.12 140.68C150.4 140.536 150.064 139.984 150.064 139.408C150.064 138.76 150.52 138.112 151.312 138.112C151.384 138.112 151.48 138.112 151.576 138.136C151.936 138.208 152.272 138.28 152.752 138.28C153.352 138.28 153.616 138.088 153.616 137.344V119.632C153.616 118.96 154.264 118.624 154.888 118.624C155.56 118.624 156.208 118.96 156.208 119.656ZM145.48 124.648H149.776C151.72 124.648 152.488 125.368 152.488 126.64C152.488 127.024 152.392 127.48 152.272 127.96C151.24 131.8 148.984 135.592 145.888 138.328C145.528 138.64 145.168 138.76 144.832 138.76C144.136 138.76 143.584 138.208 143.584 137.536C143.584 137.224 143.704 136.888 144.04 136.576C146.776 134.08 148.696 131.032 149.68 127.504C149.704 127.408 149.728 127.312 149.728 127.24C149.728 127.072 149.608 127 149.296 127H145.48C144.808 127 144.472 126.4 144.472 125.824C144.472 125.224 144.808 124.648 145.48 124.648ZM176.2 129.88C176.2 134.32 174.256 138.232 170.584 141.424C170.368 141.616 170.104 141.712 169.864 141.712C169.408 141.712 168.976 141.304 168.976 140.848C168.976 140.536 169.096 140.32 169.336 140.104C172.504 137.152 173.992 133.816 173.992 129.88C173.992 125.944 172.504 122.608 169.336 119.656C169.096 119.44 168.976 119.224 168.976 118.912C168.976 118.456 169.408 118.048 169.864 118.048C170.104 118.048 170.368 118.144 170.584 118.336C174.256 121.528 176.2 125.44 176.2 129.88Z" fill="white"/>
<path d="M65.4977 43.5864H72.2177C73.0817 43.5864 73.4897 44.1144 73.4897 44.8344C73.4897 45.5544 73.0817 46.0584 72.2177 46.0584H63.3617C62.4977 46.0584 61.9457 45.4104 61.9457 44.5224C61.9457 43.8264 62.1857 43.3224 62.6897 42.8904C64.6097 41.1864 66.2177 39.7224 68.0897 37.5384C69.5777 35.7864 70.2257 34.5384 70.2257 33.1464C70.2257 31.3464 69.2897 30.4344 67.7777 30.4344C66.7937 30.4344 65.7137 30.8664 64.5617 31.9944C64.2737 32.2584 63.9857 32.4024 63.6497 32.4024C62.8337 32.4024 62.2577 31.8264 62.2577 31.0584C62.2577 30.6744 62.3777 30.4344 62.7377 30.0744C64.0097 28.8264 65.9537 27.9624 67.7537 27.9624C71.1857 27.9624 73.1057 30.0264 73.1057 33.0984C73.1057 35.3064 72.3377 36.7944 70.1777 39.0744C68.1857 41.1624 67.0097 42.2184 65.4977 43.5864ZM82.9169 27.9624C86.5649 27.9624 88.9889 30.5544 88.9889 37.2024C88.9889 43.8504 86.5649 46.4424 82.9169 46.4424C79.2689 46.4424 76.8929 43.8504 76.8929 37.2024C76.8929 30.5544 79.2689 27.9624 82.9169 27.9624ZM82.9169 30.3624C80.9249 30.3624 79.7249 32.0424 79.7249 37.2024C79.7249 42.3624 80.9249 44.0424 82.9169 44.0424C84.9329 44.0424 86.1569 42.3624 86.1569 37.2024C86.1569 32.0424 84.9329 30.3624 82.9169 30.3624ZM95.824 43.5864H102.544C103.408 43.5864 103.816 44.1144 103.816 44.8344C103.816 45.5544 103.408 46.0584 102.544 46.0584H93.688C92.824 46.0584 92.272 45.4104 92.272 44.5224C92.272 43.8264 92.512 43.3224 93.016 42.8904C94.936 41.1864 96.544 39.7224 98.416 37.5384C99.904 35.7864 100.552 34.5384 100.552 33.1464C100.552 31.3464 99.616 30.4344 98.104 30.4344C97.12 30.4344 96.04 30.8664 94.888 31.9944C94.6 32.2584 94.312 32.4024 93.976 32.4024C93.16 32.4024 92.584 31.8264 92.584 31.0584C92.584 30.6744 92.704 30.4344 93.064 30.0744C94.336 28.8264 96.28 27.9624 98.08 27.9624C101.512 27.9624 103.432 30.0264 103.432 33.0984C103.432 35.3064 102.664 36.7944 100.504 39.0744C98.512 41.1624 97.336 42.2184 95.824 43.5864ZM111.539 35.4504C112.259 34.9944 112.811 34.8504 113.579 34.8504C116.963 34.8504 119.363 37.0344 119.363 40.5144C119.363 43.9224 116.891 46.4424 113.315 46.4424C109.739 46.4424 107.339 44.0424 107.339 40.3944C107.339 38.1864 107.867 36.6504 109.547 34.0104C110.915 31.8744 112.715 30.0264 114.755 28.2984C114.995 28.1064 115.307 27.9624 115.643 27.9624C116.459 27.9624 117.011 28.6104 117.011 29.3304C117.011 29.7144 116.843 30.0264 116.579 30.2184C114.491 31.8264 112.787 33.6024 111.539 35.4504ZM113.315 44.1624C115.331 44.1624 116.579 42.7464 116.579 40.5144C116.579 38.3544 115.331 37.0104 113.483 37.0104C112.163 37.0104 111.035 37.5864 110.387 38.5224C110.171 39.1224 110.075 39.6504 110.075 40.4424C110.075 42.7704 111.323 44.1624 113.315 44.1624ZM132.846 34.2984V31.6104H127.854C126.894 33.1224 125.838 34.5624 124.59 35.8584C124.254 36.1944 123.894 36.3384 123.558 36.3384C122.886 36.3384 122.31 35.7624 122.31 35.1144C122.31 34.7784 122.454 34.4184 122.79 34.0824C124.614 32.2584 126.318 29.4024 127.47 26.7144C127.734 26.1144 128.286 25.8504 128.838 25.8504C129.51 25.8504 130.158 26.2584 130.158 26.9544C130.158 27.1224 130.11 27.2904 130.038 27.4824C129.798 28.0584 129.51 28.6344 129.198 29.2344H142.686C143.382 29.2344 143.742 29.8344 143.742 30.4104C143.742 31.0104 143.382 31.6104 142.686 31.6104H135.438V34.2984H140.886C141.558 34.2984 141.894 34.8744 141.894 35.4504C141.894 36.0504 141.534 36.6504 140.886 36.6504H135.438V39.9624H143.406C144.102 39.9624 144.462 40.5624 144.462 41.1384C144.462 41.7384 144.102 42.3384 143.406 42.3384H135.438V47.4264C135.438 48.1704 134.79 48.5304 134.142 48.5304C133.494 48.5304 132.846 48.1704 132.846 47.4264V42.3384H123.318C122.622 42.3384 122.286 41.7384 122.286 41.1384C122.286 40.5624 122.622 39.9624 123.318 39.9624H126.39V37.0584C126.39 35.1384 127.182 34.2984 129.63 34.2984H132.846ZM132.846 36.6504H129.942C129.126 36.6504 128.934 36.8424 128.934 37.4424V39.9624H132.846V36.6504Z" fill="white"/>
</svg>
