<svg width="279" height="50" viewBox="0 0 279 50" fill="none" xmlns="http://www.w3.org/2000/svg">
<path d="M200.459 36.7996L195.707 36.7996C193.067 36.7996 192.083 35.8156 192.083 33.5836L192.083 30.5836C192.083 28.3516 193.067 27.3676 195.707 27.3676L200.459 27.3676L200.459 23.2636C200.459 22.5436 201.131 22.1836 201.803 22.1836C202.475 22.1836 203.147 22.5436 203.147 23.2636L203.147 27.3676L207.995 27.3676C210.635 27.3676 211.619 28.3516 211.619 30.5836L211.619 33.5836C211.619 35.8156 210.635 36.7996 207.995 36.7996L203.147 36.7996L203.147 43.9276C203.147 44.6476 202.475 45.0076 201.803 45.0076C201.131 45.0076 200.459 44.6476 200.459 43.9276L200.459 36.7996ZM196.019 34.4476L200.459 34.4476L200.459 29.7196L196.019 29.7196C194.939 29.7196 194.723 29.9596 194.723 30.8476L194.723 33.3196C194.723 34.2316 195.011 34.4476 196.019 34.4476ZM203.147 29.7196L203.147 34.4476L207.683 34.4476C208.763 34.4476 208.979 34.2076 208.979 33.3196L208.979 30.8476C208.979 29.9596 208.763 29.7196 207.683 29.7196L203.147 29.7196Z" fill="#282828"/>
<path d="M177.899 26.7921C179.003 32.8641 181.547 38.1201 187.043 41.2401C187.619 41.5521 187.859 42.0321 187.859 42.4881C187.859 43.2081 187.259 43.9041 186.467 43.9041C186.251 43.9041 185.987 43.8561 185.747 43.7121C181.763 41.5041 178.595 37.4001 177.011 32.3841C176.435 34.7121 175.451 36.7761 174.083 38.6241C172.547 40.6881 170.243 42.7041 168.059 43.9281C167.771 44.0961 167.483 44.1681 167.219 44.1681C166.451 44.1681 165.947 43.5201 165.947 42.8481C165.947 42.3921 166.163 41.9601 166.667 41.6721C168.587 40.5921 170.603 38.9601 172.019 37.0401C174.083 34.2321 175.211 30.6081 175.211 24.2721C175.211 23.5041 175.907 23.1201 176.603 23.1201C177.275 23.1201 177.971 23.5041 177.971 24.2721C177.971 25.1601 177.947 26.0001 177.899 26.7921Z" fill="#282828"/>
<path d="M146.055 1.08687e-08C154.567 1.74505e-08 160.223 6.048 160.223 21.56C160.223 37.072 154.567 43.12 146.055 43.12C137.543 43.12 131.999 37.072 131.999 21.56C131.999 6.048 137.543 4.28686e-09 146.055 1.08687e-08ZM146.055 5.59999C141.407 5.59999 138.607 9.52 138.607 21.56C138.607 33.6 141.407 37.52 146.055 37.52C150.759 37.52 153.615 33.6 153.615 21.56C153.615 9.52 150.759 5.59999 146.055 5.59999Z" fill="#E60012"/>
<path d="M105.242 8.34351L104.514 17.0795C106.25 16.1275 107.93 15.6795 109.61 15.6795C118.234 15.6795 124.338 20.4955 124.338 29.0075C124.338 37.5195 118.066 43.1195 109.722 43.1195C105.13 43.1195 100.986 41.7755 98.1299 39.4795C97.1779 38.6955 96.8979 37.9675 96.8979 36.9595C96.8979 35.2795 98.2419 34.0475 100.09 34.0475C100.594 34.0475 101.098 34.2155 101.77 34.7195C104.682 36.8475 106.866 37.5195 109.61 37.5195C114.314 37.5195 117.618 34.1595 117.618 29.2315C117.618 24.1355 114.482 21.1675 109.61 21.1675C107.874 21.1675 106.138 21.7275 104.794 22.5675C103.562 23.2955 103.058 23.6315 101.994 23.6315C100.034 23.6315 98.3539 22.4555 98.3539 20.3275L98.3539 19.9915L99.5299 5.1515C99.7539 2.5195 101.826 0.895508 104.794 0.895508L120.026 0.895508C121.706 0.895508 122.714 2.1275 122.714 3.8075C122.714 5.4875 121.706 6.71951 120.026 6.71951L107.09 6.71951C105.858 6.71951 105.354 7.1675 105.242 8.34351Z" fill="#E60012"/>
<path d="M73.4454 39.4243L73.4454 8.79227C71.7094 10.5283 70.0854 12.0963 68.0694 13.8323C67.2854 14.5043 66.5574 14.7843 65.6054 14.7843C63.7014 14.7843 62.4694 13.5523 62.4694 11.7603C62.4694 10.6403 62.8054 9.96827 63.7574 9.18427C66.7814 6.83227 69.3014 4.76027 72.2134 2.12827C73.5014 0.952271 74.5654 0.280273 76.3574 0.280273C78.7654 0.280273 80.0534 1.84827 80.0534 4.08827L80.0534 39.4243C80.0534 41.6083 78.8214 42.7283 76.6934 42.7283C74.5654 42.7283 73.4454 41.6083 73.4454 39.4243Z" fill="#E60012"/>
<path d="M0.569388 4.33098C1.3412 3.54084 2.60734 3.52599 3.39751 4.29778L46.3975 46.2978C47.1877 47.0696 47.2025 48.3357 46.4307 49.1259C45.6589 49.9161 44.3928 49.9309 43.6026 49.1591L0.602591 7.15911C-0.187557 6.3873 -0.202407 5.12116 0.569388 4.33098Z" fill="#282828"/>
<path d="M278.431 4.33098C277.659 3.54084 276.393 3.52599 275.603 4.29778L232.603 46.2978C231.812 47.0696 231.798 48.3357 232.569 49.1259C233.341 49.9161 234.607 49.9309 235.398 49.1591L278.398 7.15911C279.188 6.3873 279.203 5.12116 278.431 4.33098Z" fill="#282828"/>
</svg>
