<svg width="168" height="96" viewBox="0 0 168 96" fill="none" xmlns="http://www.w3.org/2000/svg">
<path d="M35.411 80.7745L2.31742 56.3591" stroke="#282828" stroke-width="2" stroke-linecap="round"/>
<path d="M37.1542 49.3584C36.3557 47.9999 35.5532 46.2567 34.8879 44.1513C34.7144 43.6021 35.07 43.1876 35.5125 43.0478C35.9549 42.908 36.4841 43.0428 36.6577 43.5921C37.1976 45.3008 37.817 46.783 38.4211 47.9513C39.2071 47.1996 40.1144 46.4598 41.0506 45.8116C41.1325 45.7522 41.2192 45.708 41.3107 45.6791C41.7837 45.5296 42.239 45.8556 42.374 46.2827C42.4753 46.6031 42.4039 46.9613 42.0458 47.2087C40.8229 48.0649 39.4949 49.1725 38.5925 50.2463C37.5505 51.5153 37.3579 52.499 37.6038 53.2771C37.9027 54.223 38.6825 54.5135 41.1082 53.747C42.3287 53.3613 43.3782 52.9123 44.1795 52.4745C44.251 52.4351 44.312 52.4158 44.3731 52.3965C44.907 52.2278 45.3271 52.5481 45.462 52.9753C45.5826 53.3567 45.4847 53.7904 45.0455 54.0466C44.0755 54.588 42.9249 55.0355 41.6281 55.4453C38.4242 56.4577 36.5138 55.9875 35.863 53.9278C35.4676 52.6768 35.6569 51.2579 37.1542 49.3584ZM39.689 43.255C39.5637 43.1772 39.4946 43.0648 39.4609 42.958C39.3645 42.6528 39.5876 42.2971 39.9233 42.191C40.0758 42.1428 40.2629 42.1508 40.4485 42.26C40.96 42.5514 41.5407 42.9552 41.9696 43.3566C42.0844 43.4546 42.1535 43.567 42.1921 43.689C42.3029 44.0399 42.0798 44.3957 41.7594 44.4969C41.5611 44.5596 41.3442 44.5107 41.1346 44.3252C40.6607 43.8876 40.1299 43.5352 39.689 43.255ZM40.984 41.6713C40.8587 41.5934 40.7743 41.4858 40.7406 41.379C40.6442 41.0739 40.877 40.7486 41.1974 40.6474C41.3652 40.5943 41.5676 40.5975 41.7683 40.7019C42.255 40.9676 42.826 41.3409 43.2501 41.7271C43.3898 41.8507 43.479 41.9735 43.5176 42.0956C43.6284 42.4465 43.4157 42.7822 43.0953 42.8834C42.897 42.9461 42.6496 42.9068 42.4248 42.7262C41.9702 42.3496 41.4297 41.9667 40.984 41.6713ZM53.0763 44.3608L53.1116 44.3664C53.4673 43.9519 53.8864 43.6853 54.3746 43.531C55.7782 43.0875 56.8062 43.6855 57.665 46.0318C58.2668 47.6706 58.7053 47.7838 59.285 47.6006C59.9715 47.3837 60.3633 46.6055 60.4585 45.0484C60.4858 44.6035 60.7636 44.3144 61.0992 44.2083C61.5569 44.0637 62.1206 44.2547 62.2749 44.7429C62.3087 44.8497 62.3167 44.9814 62.3143 45.1332C62.1863 47.4892 61.3554 48.8425 59.7077 49.3631C58.121 49.8645 56.8747 49.3187 55.9435 46.7436C55.4052 45.2525 55.0751 45.0044 54.4496 45.2021C53.641 45.4576 53.0534 46.4655 52.7975 48.2578C52.6837 49.0657 52.5353 50.1362 52.4311 50.9745C52.3741 51.3784 52.1068 51.6475 51.7864 51.7487C51.3287 51.8934 50.7698 51.7176 50.6155 51.2294C50.5817 51.1226 50.5785 51.0062 50.5857 50.8697C50.9062 47.2111 51.5374 42.4643 52.265 38.6603C52.3316 38.2869 52.5933 38.0531 52.8984 37.9567C53.3866 37.8025 53.9657 37.9887 54.1103 38.4463C54.1489 38.5684 54.1569 38.7001 54.1344 38.8414L53.0763 44.3608ZM74.869 42.5419C75.3785 44.2603 74.3203 45.2659 72.8556 45.7287C71.0401 46.3024 69.691 45.8561 69.2426 44.4373C68.857 43.2168 69.5762 41.882 71.529 41.265C71.7731 41.1878 72.0221 41.1259 72.3063 41.0697C71.9778 40.4016 71.7681 39.8974 71.6427 39.5007C71.4354 38.8447 71.3599 38.4994 71.2819 37.9871C71.2232 37.5358 71.5163 37.2418 71.8824 37.1261C72.3096 36.9912 72.8139 37.1003 72.9585 37.558C72.973 37.6037 72.9674 37.6391 72.9818 37.6848C73.0606 38.1466 73.1354 38.5424 73.2704 38.9696C73.4053 39.3968 73.6391 39.9773 74.1107 40.8855C75.1787 40.8668 76.3254 40.991 77.3983 41.3064C77.7508 41.4132 77.9549 41.634 78.0368 41.8933C78.1718 42.3205 77.9511 42.8433 77.4934 42.9879C77.3408 43.0361 77.1384 43.033 76.9168 42.9688C76.227 42.7505 75.5259 42.6028 74.869 42.5419ZM72.3784 44.2183C73.0802 43.9965 73.3652 43.5709 73.153 42.8996C73.1097 42.7623 73.0711 42.6402 73.0173 42.523C72.6623 42.568 72.3323 42.6388 72.0272 42.7352C70.9592 43.0726 70.7296 43.5143 70.8598 43.9263C70.9996 44.3687 71.3867 44.5317 72.3784 44.2183ZM66.2226 36.3137C66.2056 35.4633 66.1733 34.6178 66.0848 33.8067C66.0317 33.3201 66.3352 33.0061 66.7014 32.8904C67.1286 32.7554 67.6072 32.8894 67.7614 33.3776C67.7807 33.4386 67.8048 33.5149 67.8089 33.5808C67.87 34.1991 67.9103 34.8575 67.9353 35.5208C68.3689 35.2999 68.8025 35.079 69.2055 34.8677C69.2617 34.8332 69.3228 34.8139 69.3685 34.7995C69.8567 34.6452 70.2872 34.9454 70.4174 35.3574C70.5234 35.693 70.4312 36.0913 69.9767 36.3524C69.3641 36.697 68.6551 37.0553 67.9413 37.3983C67.8838 39.4468 67.6385 41.5379 67.2164 43.2821C67.1081 43.7358 66.8407 44.0049 66.5356 44.1013C66.0779 44.2459 65.5704 44.0204 65.4257 43.5627C65.3727 43.3949 65.3606 43.1973 65.4248 42.9757C65.8172 41.5093 66.0707 39.8687 66.1732 38.1751C65.6279 38.4145 65.0884 38.6186 64.6202 38.7833C64.1063 38.9625 63.6967 38.6221 63.5617 38.1949C63.4364 37.7982 63.56 37.3397 64.0434 37.1701C64.7203 36.9227 65.4686 36.6359 66.2226 36.3137ZM72.9386 33.9902C73.7336 33.9571 74.8145 34.0854 75.6007 34.29C76.0191 34.3927 76.268 34.6496 76.3548 34.9242C76.4946 35.3667 76.2538 35.8791 75.8114 36.0189C75.6588 36.0671 75.4918 36.0695 75.3103 36.0262C74.4631 35.8408 73.5444 35.6949 72.796 35.6629C72.3712 35.6461 72.1166 35.4245 72.0298 35.1499C71.8996 34.738 72.1156 34.1999 72.6343 34.036C72.7258 34.0071 72.8222 33.9934 72.9386 33.9902ZM83.6448 40.524L82.7706 37.5449C82.6592 38.5198 82.4417 39.4778 82.1576 40.1717C82.0259 40.4986 81.8156 40.6825 81.5867 40.7548C81.2053 40.8753 80.7933 40.6867 80.6728 40.3053C80.6246 40.1527 80.6278 39.9503 80.7121 39.7391C81.2338 38.4165 81.5121 36.8016 81.5889 35.1329L80.0175 35.6294C79.6361 35.7499 79.3221 35.4465 79.2112 35.0956C79.0955 34.7294 79.1829 34.3158 79.5491 34.2001L81.4561 33.5975L80.0147 29.0359C79.8845 28.6239 80.2185 28.3003 80.6152 28.1749C81.0119 28.0496 81.4712 28.1226 81.6014 28.5345L83.0428 33.0962L84.5074 32.6333C84.8888 32.5128 85.198 32.8011 85.3138 33.1672C85.4246 33.5181 85.342 33.9469 84.9606 34.0675L83.496 34.5303L83.6984 35.171C84.6461 35.4086 85.6065 35.793 86.0225 36.0475C86.2731 36.2032 86.4121 36.3775 86.4747 36.5758C86.5953 36.9572 86.3713 37.3636 86.0051 37.4793C85.8068 37.542 85.5643 37.5179 85.3185 37.3774C84.9877 37.1799 84.611 36.9969 84.2239 36.834L85.7232 41.5787C85.8679 42.0364 85.5435 42.3906 85.1468 42.516C84.7502 42.6413 84.2812 42.5378 84.1366 42.0801L83.6448 40.524ZM92.2663 33.504L93.2572 32.9224C93.3134 32.8879 93.3591 32.8734 93.4202 32.8541C93.8473 32.7192 94.2369 33.0491 94.3622 33.4458C94.4586 33.7509 94.3824 34.0938 94.0452 34.3011L92.7581 35.0602L93.9585 38.859C94.1079 39.332 93.7683 39.691 93.3564 39.8211C92.9292 39.9561 92.445 39.8574 92.2955 39.3845L91.2108 35.9518L87.9268 37.8788C87.8706 37.9134 87.8249 37.9278 87.7791 37.9423C87.3519 38.0773 86.9423 37.7369 86.817 37.3402C86.7205 37.0351 86.7767 36.6817 87.1187 36.4898L90.7191 34.3956L88.2604 26.6149C88.111 26.1419 88.4506 25.7829 88.8778 25.6479C89.2897 25.5177 89.7739 25.6164 89.9234 26.0894L92.2663 33.504ZM82.8945 29.9716C82.8792 29.6577 83.0799 29.4432 83.3392 29.3613C83.6749 29.2552 84.0828 29.378 84.1985 29.7442C84.213 29.7899 84.2323 29.8509 84.2363 29.9168C84.2733 30.4588 84.247 31.1719 84.1628 31.7019C84.113 31.9693 83.9179 32.1484 83.7043 32.2159C83.3687 32.322 82.9808 32.2096 82.8796 31.8893C82.8555 31.813 82.8466 31.7319 82.8635 31.6259C82.9164 31.1561 82.9307 30.5643 82.8945 29.9716ZM79.8119 30.9961C80.2247 31.4529 80.6271 31.9298 80.7637 32.2558C80.7934 32.2968 80.8079 32.3425 80.8223 32.3883C80.9525 32.8002 80.6836 33.1705 80.3327 33.2813C80.058 33.3681 79.7352 33.3023 79.5481 32.9755C79.336 32.6231 78.985 32.0963 78.7215 31.7937C78.6621 31.7118 78.6227 31.6403 78.5986 31.564C78.4926 31.2284 78.7503 30.9288 79.0859 30.8227C79.33 30.7456 79.6079 30.7753 79.8119 30.9961ZM86.6604 28.6139C87.184 28.784 87.7774 29.016 88.2537 29.3017C88.4794 29.4318 88.6183 29.606 88.6762 29.7891C88.8112 30.2163 88.5406 30.6877 88.1287 30.8179C87.9304 30.8805 87.6927 30.8717 87.4517 30.7465C86.9747 30.5113 86.4471 30.2753 86.0198 30.0915C85.7685 29.9864 85.6094 29.8017 85.5516 29.6186C85.4263 29.222 85.6767 28.7401 86.1191 28.6003C86.2717 28.5521 86.454 28.5448 86.6604 28.6139ZM87.0882 31.9856C87.6471 32.1614 88.2005 32.3725 88.7474 32.6695C88.973 32.7996 89.112 32.9738 89.1698 33.1569C89.3048 33.584 89.0391 34.0707 88.6272 34.2009C88.4289 34.2636 88.2064 34.2499 87.9655 34.1247C87.5085 33.9 86.9006 33.6222 86.4477 33.4633C86.181 33.363 86.0268 33.1936 85.9642 32.9952C85.8388 32.5986 86.1045 32.1119 86.547 31.9721C86.6995 31.9239 86.8818 31.9166 87.0882 31.9856ZM104.37 29.3269L103.257 29.6788C101.929 30.0982 101.211 29.7378 100.864 28.6394L99.6734 24.871C99.3263 23.7726 99.702 23.0498 101.029 22.6303L104.95 21.3914C106.277 20.972 107.016 21.3428 107.363 22.4413L108.553 26.2096C108.9 27.3081 108.505 28.0204 107.177 28.4399L106.003 28.8111L106.451 30.2299L108.801 29.4875C109.182 29.367 109.491 29.6552 109.607 30.0213C109.718 30.3722 109.635 30.8011 109.254 30.9216L106.904 31.664L107.425 33.3117L110.735 32.2656C111.117 32.1451 111.426 32.4333 111.542 32.7994C111.653 33.1503 111.57 33.5792 111.189 33.6997L102.187 36.544C101.821 36.6597 101.507 36.3562 101.396 36.0053C101.281 35.6392 101.368 35.2256 101.734 35.1099L105.792 33.8275L105.272 32.1799L102.892 32.9319C102.526 33.0476 102.212 32.7441 102.101 32.3932C101.985 32.0271 102.072 31.6135 102.439 31.4978L104.819 30.7457L104.37 29.3269ZM102.99 28.2527L103.982 27.9394L103.519 26.4747L102.039 26.9424L102.377 28.0103C102.488 28.3612 102.67 28.354 102.99 28.2527ZM101.615 25.5998L103.095 25.1322L102.632 23.6676L101.641 23.9809C101.259 24.1014 101.177 24.2115 101.278 24.5318L101.615 25.5998ZM104.158 23.1855L104.621 24.6501L106.192 24.1535L105.855 23.0856C105.753 22.7652 105.638 22.7178 105.241 22.8432L104.158 23.1855ZM106.616 25.4961L105.045 25.9926L105.508 27.4573L106.591 27.115C106.988 26.9896 107.055 26.8844 106.954 26.564L106.616 25.4961ZM98.2095 33.6732L97.1344 30.271L96.1733 30.5747C95.7766 30.7 95.4626 30.3965 95.3469 30.0304C95.236 29.6795 95.3186 29.2507 95.7153 29.1253L96.6764 28.8216L95.8762 26.289L94.7014 26.6602C94.3048 26.7856 93.9907 26.4821 93.875 26.116C93.7641 25.7651 93.8468 25.3362 94.2434 25.2109L98.1186 23.9864C98.5152 23.861 98.8293 24.1645 98.9402 24.5154C99.0559 24.8816 98.9732 25.3104 98.5766 25.4357L97.4781 25.7828L98.2784 28.3154L99.1327 28.0454C99.5294 27.9201 99.8434 28.2236 99.9543 28.5745C100.07 28.9406 99.9874 29.3695 99.5907 29.4948L98.7364 29.7648L99.6523 32.6635C99.8932 32.4699 100.139 32.2916 100.349 32.1077C100.457 32.0233 100.559 31.9743 100.666 31.9406C101.093 31.8056 101.468 32.0898 101.584 32.456C101.666 32.7153 101.625 33.0132 101.364 33.247C100.291 34.2068 98.955 35.1827 97.8517 35.8333C97.7803 35.8727 97.7088 35.9121 97.6478 35.9313C97.1748 36.0808 96.7749 35.7709 96.6495 35.3742C96.5435 35.0386 96.6301 34.6756 97.0083 34.4386C97.3913 34.2169 97.7952 33.9551 98.2095 33.6732ZM116.443 18.0953L116.738 20.2505L116.845 20.2168C117.44 20.0288 117.934 19.8392 118.392 19.644L118.469 19.6198C118.957 19.4656 119.326 19.7851 119.456 20.197C119.577 20.5784 119.474 20.9968 119.046 21.1824C118.588 21.3776 118.14 21.5528 117.377 21.7938L116.95 21.9288C117.085 22.6748 117.185 23.4151 117.304 24.1659L117.548 24.0888C118.357 23.8333 119.233 23.4726 119.881 23.1336C119.922 23.1039 119.983 23.0846 120.029 23.0701C120.502 22.9207 120.906 23.2458 121.032 23.6425C121.148 24.0086 121.06 24.4222 120.631 24.6584C119.947 25.0424 118.939 25.4617 118.054 25.7413L117.627 25.8763C117.75 26.4247 117.869 26.8567 117.985 27.2229C118.506 28.8706 119.371 29.2181 120.713 28.7939C122.391 28.2636 123.103 27.3842 122.626 25.8738C122.515 25.5229 122.304 25.1198 122.086 24.8027C122.047 24.7312 122.008 24.6597 121.984 24.5835C121.839 24.1258 122.179 23.7162 122.622 23.5764C123.003 23.4558 123.447 23.5336 123.729 23.9479C124.031 24.3727 124.257 24.8215 124.402 25.2792C125.226 27.8881 123.856 29.7136 121.293 30.5235C118.913 31.2756 117.109 30.5034 116.284 27.8945C116.14 27.4368 116.001 26.9438 115.874 26.3295C115.133 26.4798 114.509 26.5763 113.947 26.6029C113.466 26.6207 113.156 26.3324 113.045 25.9815C112.91 25.5544 113.07 25.0508 113.558 24.8966C113.65 24.8676 113.741 24.8387 113.843 24.8403C114.354 24.8129 114.902 24.7405 115.551 24.6192C115.416 23.8732 115.301 23.1376 115.197 22.382C114.587 22.5243 114.024 22.6015 113.518 22.6441C113.026 22.6819 112.722 22.409 112.621 22.0886C112.486 21.6614 112.666 21.1683 113.138 21.0189C113.199 20.9996 113.261 20.9803 113.326 20.9763C113.848 20.9288 114.376 20.846 114.975 20.7238L114.662 18.4064C114.599 17.9398 114.933 17.6162 115.329 17.4908C115.756 17.3558 116.261 17.465 116.41 17.9379C116.425 17.9837 116.439 18.0294 116.443 18.0953ZM47.6119 71.4082L47.4046 70.7521L44.0024 71.8272C43.6515 71.9381 43.372 71.6908 43.2756 71.3857C43.1792 71.0806 43.2658 70.7176 43.6167 70.6067L45.5848 69.9848L45.3775 69.3288L44.2333 69.6903C43.8976 69.7964 43.623 69.5644 43.5266 69.2592C43.435 68.9694 43.5264 68.6216 43.8621 68.5156L45.0063 68.154L44.8038 67.5133L43.1866 68.0243C42.8358 68.1351 42.5563 67.8879 42.4598 67.5827C42.3634 67.2776 42.4501 66.9146 42.801 66.8038L44.4182 66.2927L44.1964 65.5909C44.0662 65.179 44.3649 64.8497 44.7311 64.734C45.0972 64.6183 45.5309 64.7162 45.661 65.1281L45.8828 65.8299L47.3016 65.3816L47.0799 64.6798C46.9497 64.2679 47.2484 63.9386 47.6298 63.8181C47.9959 63.7024 48.4296 63.8002 48.5597 64.2122L48.7815 64.914L50.597 64.3403C50.9632 64.2246 51.2274 64.4767 51.3238 64.7818C51.4202 65.0869 51.3488 65.4451 50.9827 65.5608L49.1672 66.1345L49.3697 66.7752L50.5749 66.3944C50.9258 66.2835 51.1852 66.5204 51.2768 66.8102C51.3732 67.1154 51.297 67.4583 50.9461 67.5691L49.7409 67.95L49.9482 68.606L52.2977 67.8636C52.6638 67.7479 52.928 68 53.0245 68.3051C53.1209 68.6103 53.0495 68.9684 52.6833 69.0841L48.8692 70.2893L49.0765 70.9454L50.4191 70.5211C51.5175 70.174 52.156 70.4421 52.4693 71.4338L53.1732 73.6612L54.1496 73.3527C54.5005 73.2418 54.7599 73.4786 54.8515 73.7685C54.9431 74.0584 54.8669 74.4013 54.516 74.5122L53.5396 74.8207L53.8433 75.7819C54.1759 76.8346 53.8725 77.4674 52.713 77.8338C52.4079 77.9302 52.1895 77.9824 51.9205 78.0339C51.4893 78.103 51.1897 77.8453 51.0837 77.5097C50.968 77.1435 51.0859 76.7203 51.5436 76.5757C51.5894 76.5612 51.64 76.562 51.6857 76.5475C51.8279 76.5194 51.9395 76.5009 52.0768 76.4575C52.2599 76.3997 52.312 76.2993 52.2301 76.0399L51.9987 75.3076L47.8184 76.6285L48.4307 78.5661C48.5705 79.0086 48.2566 79.3427 47.8752 79.4632C47.4785 79.5885 47.0296 79.4955 46.8898 79.053L46.2775 77.1155L45.3774 77.3999C45.0418 77.506 44.7671 77.2739 44.6755 76.9841C44.5839 76.6942 44.6754 76.3465 45.011 76.2404L45.9111 75.956L45.2073 73.7285C44.8939 72.7369 45.2624 72.1506 46.3609 71.8035L47.6119 71.4082ZM50.2287 74.5917L51.6323 74.1481L51.4057 73.4311L50.0021 73.8746L50.2287 74.5917ZM48.7641 75.0545L48.5375 74.3374L47.2255 74.752L47.452 75.4691L48.7641 75.0545ZM49.6647 72.8067L51.0683 72.3631L50.9429 71.9665C50.8658 71.7224 50.7855 71.6806 50.4956 71.7722L49.4429 72.1049L49.6647 72.8067ZM48.2 73.2695L47.9783 72.5677L47.0171 72.8714C46.7273 72.963 46.6855 73.0433 46.7626 73.2874L46.888 73.6841L48.2 73.2695ZM48.4683 69.0736L48.261 68.4176L46.8421 68.866L47.0494 69.522L48.4683 69.0736ZM46.2684 67.0504L46.4709 67.6912L47.8898 67.2429L47.6873 66.6021L46.2684 67.0504ZM40.1575 71.4481L38.998 71.8145C38.6166 71.935 38.3026 71.6315 38.1869 71.2654C38.076 70.9145 38.1586 70.4856 38.5248 70.3699L39.8521 69.9505L38.9795 67.1891C38.8541 66.7924 39.1777 66.4888 39.5591 66.3683C39.9405 66.2478 40.3798 66.3103 40.5051 66.707L41.3777 69.4684L42.2016 69.2081C42.583 69.0876 42.897 69.3911 43.0079 69.742C43.1236 70.1081 43.041 70.5369 42.6596 70.6575L41.8357 70.9178L42.2214 72.1383C42.8751 72.4016 43.6276 72.8182 44.1825 73.2469C44.3576 73.3762 44.4516 73.5143 44.4998 73.6668C44.6155 74.033 44.3771 74.3936 44.0414 74.4996C43.8431 74.5623 43.6006 74.5383 43.391 74.3528C43.2063 74.193 42.991 74.0429 42.771 73.8775L44.6366 79.7818C44.7716 80.209 44.4625 80.5583 44.0811 80.6788C43.6997 80.7994 43.246 80.691 43.111 80.2639L42.4072 78.0364L41.4791 74.9402C41.4568 75.7191 41.3589 76.4715 41.2177 77.0867C41.1471 77.3942 40.9673 77.5685 40.7537 77.636C40.418 77.7421 40.0109 77.5687 39.8952 77.2026C39.8566 77.0805 39.859 76.9287 39.8919 76.7673C40.2337 75.3001 40.3482 73.4853 40.1575 71.4481ZM67.3353 69.8909L63.7653 71.019C62.4838 71.4239 61.8622 71.0498 61.5633 70.1039L61.1439 68.7766C60.845 67.8307 61.1387 67.1674 62.4203 66.7624L65.9903 65.6343C67.2718 65.2294 67.8934 65.6035 68.1923 66.5494L68.6117 67.8767C68.9781 69.0362 68.388 69.5582 67.3353 69.8909ZM63.6253 69.6201L66.6461 68.6656C66.9817 68.5595 67.0701 68.4142 66.9833 68.1396L66.7085 67.2699C66.6217 66.9953 66.4659 66.9271 66.1303 67.0332L63.1095 67.9877C62.7739 68.0937 62.6855 68.2391 62.7723 68.5137L63.0471 69.3833C63.1484 69.7037 63.3507 69.7069 63.6253 69.6201ZM59.24 69.1769L60.0595 71.7705C61.2987 72.4528 62.8284 72.3553 66.1086 71.3189C67.68 70.8223 68.9165 70.3812 70.0575 69.9032L70.1643 69.8695C70.6525 69.7152 71.022 70.0347 71.1473 70.4314C71.2679 70.8128 71.1644 71.2818 70.6705 71.4714C69.4284 71.9478 68.2376 72.3744 66.6204 72.8854C63.0504 74.0135 61.2532 74.0612 59.7426 73.2633C59.4223 74.0022 59.0161 74.7346 58.4325 75.4895C58.3032 75.6646 58.1394 75.7835 57.9716 75.8365C57.5292 75.9763 57.0425 75.7106 56.9123 75.2987C56.8304 75.0393 56.8857 74.7366 57.1234 74.4266C57.6348 73.7616 58.0859 73.0653 58.4367 72.3168L57.6702 69.891C57.5738 69.5859 57.4485 69.508 57.0518 69.6334L56.1517 69.9178C55.7093 70.0576 55.3599 69.7485 55.2394 69.3671C55.1189 68.9857 55.2272 68.532 55.6696 68.3922L56.9359 67.992C58.2327 67.5823 58.8591 67.9716 59.24 69.1769ZM63.472 61.0102L66.0198 60.2051C66.4165 60.0798 66.7209 60.3527 66.8317 60.7036C66.9378 61.0393 66.8504 61.4529 66.4537 61.5782L63.9059 62.3833L64.3012 63.6343L67.9627 62.4773C68.3594 62.352 68.6638 62.6249 68.7747 62.9758C68.8807 63.3115 68.7933 63.725 68.3966 63.8504L59.5936 66.632C59.197 66.7574 58.8878 66.4692 58.7817 66.1335C58.6708 65.7826 58.7631 65.3843 59.1598 65.259L62.7145 64.1357L62.3192 62.8847L60.5647 63.4391C60.5254 63.6864 60.466 63.9233 60.4066 64.1602C60.3152 64.5079 60.0944 64.7119 59.835 64.7939C59.4536 64.9144 58.9958 64.7402 58.8753 64.3588C58.8319 64.2215 58.8343 64.0697 58.8776 63.8883C59.0871 63.1173 59.2596 62.1232 59.2851 61.1419C59.3059 60.7829 59.5371 60.5588 59.827 60.4672C60.2237 60.3419 60.6822 60.4655 60.8124 60.8774C60.8413 60.9689 60.855 61.0653 60.8429 61.1866C60.8293 61.409 60.8157 61.6314 60.7868 61.8587L61.8853 61.5116L61.4321 60.0775C61.2972 59.6503 61.6263 59.3114 62.023 59.186C62.4197 59.0607 62.8838 59.1489 63.0188 59.5761L63.472 61.0102ZM55.3947 62.3712C56.0291 62.5734 56.6973 62.8825 57.2386 63.2148C57.4891 63.3706 57.6329 63.5601 57.6956 63.7584C57.845 64.2313 57.5384 64.7477 57.0807 64.8924C56.8518 64.9647 56.5587 64.9398 56.268 64.7632C55.6866 64.41 55.2095 64.1748 54.6514 63.9485C54.3799 63.8329 54.2056 63.653 54.143 63.4547C54.008 63.0275 54.2841 62.5208 54.7571 62.3713C54.9402 62.3135 55.153 62.2966 55.3947 62.3712ZM79.7336 55.3347L80.4037 57.4554C80.9795 57.2063 81.515 56.9364 82.0048 56.681C82.0763 56.6416 82.1373 56.6223 82.1983 56.603C82.6713 56.4536 83.0263 56.7273 83.1468 57.1088C83.2577 57.4597 83.1598 57.8933 82.731 58.1295C82.1746 58.4395 81.5475 58.7384 80.9156 59.0219C81.3454 60.3292 81.7905 61.6316 82.3376 62.885C83.2779 62.9402 84.297 63.1384 85.3338 63.4988C85.6911 63.6208 85.9 63.8568 85.9819 64.1162C86.1169 64.5433 85.8913 65.0509 85.4337 65.1955C85.2506 65.2534 85.0281 65.2398 84.7816 65.1499C84.1528 64.9123 83.528 64.7406 82.953 64.6202C83.1853 65.9395 82.605 67.1297 80.7132 67.7275C79.0045 68.2674 77.6665 67.7505 77.2327 66.3775C76.8325 65.1112 77.5558 63.8423 79.5391 63.2156C79.8595 63.1143 80.2048 63.0388 80.5702 62.9737C80.1267 61.8889 79.7443 60.7848 79.3771 59.6759C78.7355 59.929 78.0996 60.1467 77.5046 60.3347C77.1994 60.4311 76.9248 60.5179 76.6558 60.5693C76.1684 60.673 75.8191 60.3639 75.6985 59.9825C75.578 59.6011 75.7016 59.1426 76.1898 58.9883C76.4644 58.9015 76.7334 58.8501 77.008 58.7633C77.603 58.5753 78.2237 58.3624 78.8653 58.1093L78.147 55.8361C77.9975 55.3631 78.3219 55.0089 78.7185 54.8836C79.1152 54.7583 79.5842 54.8618 79.7336 55.3347ZM80.2359 66.2171C81.014 65.9712 81.417 65.4412 81.1285 64.4752C80.6981 64.4937 80.3127 64.5484 79.9923 64.6497C78.9244 64.9871 78.6948 65.4288 78.8346 65.8713C78.984 66.3442 79.4731 66.4582 80.2359 66.2171ZM71.3289 57.8898C71.2903 57.449 71.5986 57.1502 71.98 57.0297C72.4225 56.8899 72.9468 57.0094 73.1011 57.4977C73.1156 57.5434 73.1349 57.6044 73.1389 57.6703C73.3208 59.9452 73.7043 62.2739 74.3213 64.2267C74.8564 65.9202 75.5658 67.4747 76.0888 68.6518C76.1032 68.6976 76.133 68.7385 76.1474 68.7843C76.2969 69.2572 75.9308 69.6917 75.5036 69.8267C75.1069 69.9521 74.658 69.859 74.4323 69.4102C73.8186 68.2114 73.1558 66.5918 72.5773 64.761C71.9313 62.7167 71.5141 60.2812 71.3289 57.8898ZM89.0399 55.9513C89.8678 56.0756 90.7649 56.3124 91.5286 56.6583C91.8201 56.7843 91.9888 56.9995 92.0611 57.2284C92.2105 57.7013 91.9432 58.2892 91.455 58.4434C91.272 58.5013 91.0543 58.5029 90.8231 58.4082C90.1541 58.1498 89.1671 57.8408 88.5367 57.7044C88.1786 57.633 87.9746 57.4122 87.8974 57.1681C87.7576 56.7257 88.0145 56.1579 88.5485 55.9892C88.6858 55.9458 88.8632 55.9233 89.0399 55.9513ZM89.7812 51.9249C90.5786 52.0588 91.4909 52.2907 92.2546 52.6367C92.5461 52.7627 92.7148 52.9779 92.7871 53.2067C92.9365 53.6797 92.6644 54.2523 92.1762 54.4066C91.9931 54.4644 91.7755 54.466 91.5442 54.3713C90.8753 54.1129 89.8931 53.8192 89.2627 53.6828C88.9046 53.6114 88.7054 53.4058 88.6234 53.1465C88.4836 52.704 88.7509 52.1162 89.2849 51.9474C89.4222 51.9041 89.6045 51.8968 89.7812 51.9249ZM97.6607 53.4957C97.7529 53.0974 98.0147 52.8637 98.3198 52.7673C98.7775 52.6226 99.3412 52.8137 99.4955 53.3019C99.5437 53.4544 99.551 53.6367 99.5125 53.8335C98.6741 58.243 95.731 61.992 92.1058 64.3792C92.0086 64.4435 91.8914 64.4973 91.7999 64.5262C91.2659 64.695 90.8105 64.369 90.6707 63.9266C90.5598 63.5757 90.6577 63.142 91.0977 62.8352C94.5093 60.5155 96.8238 57.4853 97.6607 53.4957ZM104.534 48.2194C105.386 48.4706 106.422 48.8816 107.38 49.4178C107.641 49.5535 107.789 49.7582 107.862 49.9871C108.025 50.5058 107.722 51.1386 107.203 51.3025C106.974 51.3749 106.701 51.3605 106.42 51.2144C105.517 50.7448 104.597 50.3306 103.762 50.024C103.44 49.9076 103.256 49.6972 103.179 49.4531C103.03 48.9802 103.327 48.3827 103.861 48.2139C104.06 48.1513 104.277 48.1496 104.534 48.2194ZM113.324 47.573C113.401 47.1795 113.663 46.9458 113.953 46.8542C114.426 46.7047 114.989 46.8958 115.148 47.3992C115.197 47.5518 115.189 47.7389 115.15 47.9356C114.179 52.4544 111.588 56.3102 108.257 58.9398C108.124 59.0491 107.992 59.1077 107.87 59.1463C107.32 59.3198 106.805 58.9626 106.66 58.5049C106.554 58.1693 106.621 57.7958 107 57.5083C110.048 55.1019 112.525 51.4164 113.324 47.573ZM129.203 37.5549C130.119 37.2656 131.062 37.7561 131.352 38.6715C131.646 39.6021 131.155 40.5458 130.24 40.835C129.309 41.1291 128.366 40.6386 128.072 39.708C127.782 38.7926 128.273 37.8489 129.203 37.5549ZM129.444 38.3177C128.956 38.472 128.68 38.9787 128.834 39.4669C128.989 39.9551 129.511 40.2265 129.999 40.0722C130.487 39.9179 130.743 39.4007 130.589 38.9125C130.435 38.4243 129.933 38.1634 129.444 38.3177ZM119.332 43.9632L127.088 41.4282C128.685 40.9068 129.494 41.2888 129.817 42.311C129.899 42.5704 129.96 42.8699 129.985 43.2144C130.288 47.0953 128.617 51.0465 125.571 53.9387C125.417 54.0881 125.259 54.1716 125.106 54.2198C124.588 54.3837 124.086 54.0723 123.937 53.5993C123.845 53.3094 123.897 52.9408 124.215 52.622C127.033 49.8021 128.168 46.7584 128.099 43.7768C128.091 43.6452 128.077 43.5488 128.048 43.4573C127.957 43.1674 127.725 43.1233 127.282 43.2631L119.957 45.6783C119.378 45.8615 118.928 45.5002 118.788 45.0578C118.658 44.6458 118.798 44.1319 119.332 43.9632ZM136.017 40.4023L135.491 38.7393C135.328 38.2206 135.698 37.8013 136.156 37.6567C136.599 37.5169 137.123 37.6365 137.292 38.1704L137.836 39.8944C139.167 44.1052 138.874 46.9495 137.338 49.4151C137.172 49.6857 136.967 49.8343 136.738 49.9066C136.25 50.0609 135.708 49.7791 135.558 49.3062C135.481 49.0621 135.506 48.769 135.693 48.4582C136.993 46.2521 137.193 44.1248 136.017 40.4023ZM141.062 36.5597L143.718 44.966C143.79 45.1948 143.89 45.2976 144.042 45.2494C144.119 45.2253 144.211 45.1458 144.314 45.0462C145.096 44.2286 145.947 42.8858 146.367 41.5615C146.489 41.2042 146.725 40.9953 146.985 40.9134C147.442 40.7687 147.996 40.9798 148.145 41.4528C148.198 41.6206 148.195 41.823 148.131 42.0446C147.619 43.7166 146.667 45.326 145.449 46.5669C145.053 46.9604 144.649 47.2223 144.252 47.3477C143.322 47.6417 142.443 47.1978 142.086 46.0688L139.261 37.1286C139.097 36.6098 139.473 36.2059 139.916 36.0661C140.373 35.9214 140.898 36.041 141.062 36.5597Z" fill="black"/>
<path d="M154.221 3.5825L155.804 46.1354" stroke="#282828" stroke-width="2" stroke-linecap="round"/>
</svg>
