<svg width="108" height="15" viewBox="0 0 108 15" fill="none" xmlns="http://www.w3.org/2000/svg">
<path d="M15 7.5C15 11.6421 11.6421 15 7.5 15C3.35786 15 0 11.6421 0 7.5C0 3.35786 3.35786 0 7.5 0C11.6421 0 15 3.35786 15 7.5Z" fill="#69BD83"/>
<path d="M46 7.5C46 11.6421 42.6421 15 38.5 15C34.3579 15 31 11.6421 31 7.5C31 3.35786 34.3579 0 38.5 0C42.6421 0 46 3.35786 46 7.5Z" fill="#69BD83"/>
<path d="M77 7.5C77 11.6421 73.6421 15 69.5 15C65.3579 15 62 11.6421 62 7.5C62 3.35786 65.3579 0 69.5 0C73.6421 0 77 3.35786 77 7.5Z" fill="#69BD83"/>
<path d="M108 7.5C108 11.6421 104.642 15 100.5 15C96.3579 15 93 11.6421 93 7.5C93 3.35786 96.3579 0 100.5 0C104.642 0 108 3.35786 108 7.5Z" fill="#69BD83"/>
</svg>
