<svg width="198" height="100" viewBox="0 0 198 100" fill="none" xmlns="http://www.w3.org/2000/svg">
<path d="M34.2609 88.5519L1.16727 64.1364" stroke="#282828" stroke-width="2" stroke-linecap="round"/>
<path d="M38.4342 74.7263L37.56 71.7473C37.4485 72.7221 37.2311 73.6802 36.947 74.374C36.8153 74.7009 36.605 74.8848 36.3761 74.9571C35.9947 75.0777 35.5827 74.889 35.4622 74.5076C35.414 74.3551 35.4172 74.1527 35.5014 73.9415C36.0232 72.6188 36.3015 71.0039 36.3783 69.3352L34.8069 69.8318C34.4255 69.9523 34.1114 69.6488 34.0006 69.2979C33.8849 68.9318 33.9723 68.5182 34.3385 68.4025L36.2455 67.7999L34.8041 63.2382C34.6739 62.8263 35.0079 62.5026 35.4046 62.3773C35.8012 62.2519 36.2606 62.3249 36.3907 62.7368L37.8322 67.2985L39.2968 66.8357C39.6782 66.7152 39.9874 67.0034 40.1031 67.3696C40.214 67.7204 40.1314 68.1493 39.75 68.2698L38.2854 68.7326L38.4878 69.3734C39.4354 69.6109 40.3959 69.9954 40.8119 70.2498C41.0625 70.4056 41.2014 70.5798 41.2641 70.7781C41.3846 71.1596 41.1607 71.5659 40.7945 71.6816C40.5962 71.7443 40.3537 71.7203 40.1079 71.5798C39.777 71.3823 39.4004 71.1993 39.0133 71.0363L40.5126 75.7811C40.6572 76.2388 40.3329 76.593 39.9362 76.7183C39.5395 76.8436 39.0706 76.7401 38.9259 76.2825L38.4342 74.7263ZM47.0557 67.7063L48.0465 67.1248C48.1027 67.0902 48.1485 67.0758 48.2095 67.0565C48.6367 66.9215 49.0262 67.2515 49.1516 67.6481C49.248 67.9533 49.1718 68.2962 48.8345 68.5034L47.5474 69.2625L48.7479 73.0614C48.8973 73.5343 48.5577 73.8933 48.1458 74.0235C47.7186 74.1585 47.2343 74.0598 47.0849 73.5868L46.0002 70.1541L42.7162 72.0812C42.66 72.1157 42.6142 72.1302 42.5685 72.1446C42.1413 72.2796 41.7317 71.9392 41.6063 71.5426C41.5099 71.2374 41.5661 70.8841 41.9081 70.6921L45.5085 68.598L43.0498 60.8172C42.9004 60.3442 43.24 59.9852 43.6671 59.8502C44.0791 59.7201 44.5633 59.8188 44.7128 60.2917L47.0557 67.7063ZM37.6839 64.174C37.6685 63.86 37.8693 63.6456 38.1286 63.5636C38.4643 63.4576 38.8722 63.5803 38.9879 63.9465C39.0024 63.9923 39.0217 64.0533 39.0257 64.1191C39.0627 64.6612 39.0364 65.3742 38.9521 65.9043C38.9024 66.1717 38.7073 66.3508 38.4937 66.4183C38.1581 66.5243 37.7702 66.412 37.669 66.0916C37.6448 66.0153 37.636 65.9342 37.6528 65.8282C37.7058 65.3584 37.7201 64.7666 37.6839 64.174ZM34.6013 65.1984C35.0141 65.6552 35.4165 66.1322 35.5531 66.4582C35.5828 66.4991 35.5973 66.5449 35.6117 66.5906C35.7419 67.0026 35.4729 67.3728 35.122 67.4837C34.8474 67.5705 34.5246 67.5047 34.3374 67.1779C34.1254 66.8254 33.7744 66.2987 33.5109 65.996C33.4515 65.9141 33.4121 65.8426 33.388 65.7664C33.2819 65.4307 33.5397 65.1311 33.8753 65.0251C34.1194 64.9479 34.3973 64.9776 34.6013 65.1984ZM41.4498 62.8162C41.9734 62.9863 42.5668 63.2183 43.0431 63.5041C43.2687 63.6341 43.4077 63.8084 43.4655 63.9914C43.6005 64.4186 43.33 64.89 42.9181 65.0202C42.7197 65.0829 42.482 65.0741 42.2411 64.9489C41.7641 64.7137 41.2365 64.4777 40.8092 64.2939C40.5579 64.1887 40.3988 64.0041 40.341 63.821C40.2156 63.4243 40.4661 62.9425 40.9085 62.8026C41.0611 62.7544 41.2434 62.7472 41.4498 62.8162ZM41.8776 66.188C42.4365 66.3637 42.9898 66.5748 43.5367 66.8719C43.7624 67.0019 43.9014 67.1761 43.9592 67.3592C44.0942 67.7864 43.8285 68.2731 43.4166 68.4032C43.2182 68.4659 42.9958 68.4523 42.7549 68.3271C42.2979 68.1023 41.69 67.8246 41.237 67.6657C40.9704 67.5653 40.8162 67.3959 40.7535 67.1976C40.6282 66.8009 40.8939 66.3142 41.3363 66.1744C41.4889 66.1262 41.6712 66.119 41.8776 66.188ZM59.1596 63.5292L58.0459 63.8812C56.7186 64.3006 56.0006 63.9402 55.6535 62.8417L54.4628 59.0734C54.1157 57.9749 54.4913 57.2521 55.8186 56.8327L59.7396 55.5937C61.0669 55.1743 61.8049 55.5452 62.152 56.6436L63.3428 60.412C63.6899 61.5104 63.2941 62.2228 61.9668 62.6422L60.7921 63.0134L61.2404 64.4323L63.5899 63.6898C63.9713 63.5693 64.2805 63.8575 64.3962 64.2237C64.5071 64.5746 64.4245 65.0034 64.0431 65.1239L61.6936 65.8664L62.2142 67.5141L65.5249 66.4679C65.9063 66.3474 66.2155 66.6356 66.3312 67.0018C66.4421 67.3527 66.3595 67.7815 65.978 67.902L56.9767 70.7464C56.6106 70.8621 56.2966 70.5586 56.1857 70.2077C56.07 69.8415 56.1574 69.428 56.5236 69.3122L60.5818 68.0299L60.0611 66.3822L57.6811 67.1343C57.315 67.25 57.0009 66.9465 56.8901 66.5956C56.7744 66.2294 56.8618 65.8159 57.228 65.7001L59.608 64.9481L59.1596 63.5292ZM57.7798 62.4551L58.7715 62.1417L58.3087 60.6771L56.8288 61.1447L57.1663 62.2127C57.2772 62.5636 57.4595 62.5563 57.7798 62.4551ZM56.4046 59.8021L57.8845 59.3345L57.4217 57.8699L56.43 58.1833C56.0486 58.3038 55.9659 58.4138 56.0671 58.7342L56.4046 59.8021ZM58.9473 57.3878L59.4101 58.8524L60.9815 58.3559L60.6441 57.2879C60.5428 56.9675 60.4272 56.9202 60.0305 57.0455L58.9473 57.3878ZM61.4058 59.6984L59.8344 60.195L60.2972 61.6596L61.3804 61.3173C61.777 61.192 61.8445 61.0868 61.7432 60.7664L61.4058 59.6984ZM52.9989 67.8755L51.9238 64.4733L50.9627 64.777C50.566 64.9024 50.252 64.5989 50.1363 64.2327C50.0254 63.8818 50.108 63.453 50.5047 63.3277L51.4658 63.0239L50.6656 60.4914L49.4908 60.8626C49.0941 60.9879 48.7801 60.6844 48.6644 60.3183C48.5535 59.9674 48.6362 59.5386 49.0328 59.4132L52.908 58.1887C53.3046 58.0634 53.6187 58.3669 53.7295 58.7178C53.8452 59.0839 53.7626 59.5127 53.3659 59.6381L52.2675 59.9852L53.0678 62.5178L53.9221 62.2478C54.3188 62.1224 54.6328 62.4259 54.7437 62.7768C54.8594 63.143 54.7768 63.5718 54.3801 63.6971L53.5257 63.9671L54.4417 66.8658C54.6826 66.6723 54.9283 66.494 55.1386 66.31C55.2462 66.2257 55.3482 66.1767 55.455 66.1429C55.8822 66.008 56.2572 66.2922 56.3729 66.6583C56.4549 66.9177 56.4148 67.2156 56.153 67.4493C55.0804 68.4091 53.7443 69.385 52.6411 70.0357C52.5697 70.075 52.4982 70.1144 52.4372 70.1337C51.9642 70.2831 51.5643 69.9732 51.4389 69.5766C51.3329 69.2409 51.4195 68.8779 51.7977 68.641C52.1807 68.4193 52.5846 68.1574 52.9989 67.8755ZM71.0661 64.1968C69.5099 64.6885 67.8178 63.8473 67.0658 61.4672C65.9666 57.9888 67.9485 54.2247 72.1441 52.8989C75.8666 51.7226 78.7554 53.3771 79.7148 56.4131C80.5873 59.1746 79.5961 61.7195 77.2371 63.3878C77.1295 63.4721 77.0123 63.526 76.9055 63.5597C76.3868 63.7236 75.9162 63.4025 75.7763 62.9601C75.6703 62.6244 75.7473 62.2309 76.152 61.9185C78.0725 60.4558 78.5275 58.869 77.9297 56.9772C77.2982 54.9786 75.4197 53.76 73.0477 54.3249C73.6954 56.9057 73.793 59.3918 73.3726 61.3537C73.0011 63.0987 72.2408 63.8256 71.0661 64.1968ZM71.2965 54.9958C69.1631 56.1565 68.1067 58.6549 68.8202 60.9128C69.2638 62.3164 69.9769 62.6616 70.5261 62.4881C70.9991 62.3386 71.3339 61.9643 71.5304 61.0465C71.8795 59.4428 71.8221 57.2963 71.2965 54.9958ZM84.7704 46.711C84.8988 46.5865 84.9912 46.507 85.098 46.4732C85.3268 46.4009 85.4915 46.5502 85.5493 46.7333C85.5782 46.8249 85.5614 46.9309 85.4787 47.0409C84.9384 47.6143 84.7393 48.0464 84.9177 48.6109C84.9803 48.8092 85.0406 48.8405 85.2694 48.7682C85.8034 48.5995 86.4121 48.8266 86.6242 49.4979C86.8412 50.1844 86.4575 50.7755 85.7862 50.9877C85.0691 51.2142 84.2909 50.8225 83.9583 49.7698C83.5919 48.6103 84.0141 47.5037 84.7704 46.711ZM81.6123 47.7089C81.7255 47.5892 81.8178 47.5097 81.9246 47.476C82.1535 47.4037 82.3334 47.5482 82.3912 47.7312C82.4201 47.8228 82.4033 47.9288 82.3054 48.0436C81.7803 48.6123 81.566 49.0491 81.7443 49.6136C81.807 49.812 81.8672 49.8433 82.0961 49.771C82.6301 49.6022 83.2388 49.8294 83.4509 50.5007C83.6678 51.1872 83.2841 51.7783 82.6128 51.9904C81.8958 52.217 81.1176 51.8253 80.7849 50.7726C80.4186 49.6131 80.8407 48.5064 81.6123 47.7089ZM100.902 54.232C101.411 55.9504 100.353 56.9559 98.8884 57.4187C97.0729 57.9924 95.7238 57.5462 95.2754 56.1273C94.8897 54.9068 95.609 53.5721 97.5618 52.955C97.8059 52.8779 98.0548 52.816 98.3391 52.7597C98.0105 52.0917 97.8009 51.5874 97.6755 51.1908C97.4682 50.5347 97.3927 50.1894 97.3147 49.6771C97.256 49.2258 97.549 48.9319 97.9152 48.8162C98.3424 48.6812 98.8467 48.7903 98.9913 49.248C99.0058 49.2938 99.0002 49.3291 99.0146 49.3749C99.0934 49.8366 99.1682 50.2325 99.3031 50.6597C99.4381 51.0868 99.6719 51.6674 100.143 52.5755C101.211 52.5568 102.358 52.6811 103.431 52.9965C103.784 53.1032 103.988 53.324 104.07 53.5834C104.205 54.0106 103.984 54.5334 103.526 54.678C103.374 54.7262 103.171 54.723 102.95 54.6588C102.26 54.4405 101.559 54.2929 100.902 54.232ZM98.4111 55.9083C99.1129 55.6866 99.3979 55.2609 99.1858 54.5896C99.1424 54.4523 99.1039 54.3303 99.05 54.2131C98.6951 54.2581 98.3651 54.3288 98.06 54.4252C96.992 54.7627 96.7624 55.2044 96.8926 55.6163C97.0324 56.0588 97.4195 56.2217 98.4111 55.9083ZM92.2554 48.0038C92.2384 47.1534 92.2061 46.3078 92.1176 45.4968C92.0645 45.0102 92.368 44.6961 92.7341 44.5804C93.1613 44.4454 93.64 44.5795 93.7942 45.0677C93.8135 45.1287 93.8376 45.205 93.8416 45.2708C93.9028 45.8891 93.943 46.5476 93.9681 47.2109C94.4017 46.99 94.8352 46.7691 95.2383 46.5578C95.2945 46.5233 95.3555 46.504 95.4013 46.4895C95.8895 46.3352 96.32 46.6355 96.4502 47.0474C96.5562 47.3831 96.4639 47.7814 96.0095 48.0424C95.3968 48.387 94.6878 48.7453 93.974 49.0883C93.9166 51.1368 93.6712 53.2279 93.2492 54.9722C93.1409 55.4259 92.8735 55.695 92.5684 55.7914C92.1107 55.936 91.6031 55.7104 91.4585 55.2528C91.4055 55.0849 91.3934 54.8874 91.4576 54.6657C91.85 53.1994 92.1035 51.5588 92.2059 49.8652C91.6607 50.1046 91.1211 50.3086 90.653 50.4733C90.1391 50.6525 89.7295 50.3121 89.5945 49.8849C89.4692 49.4883 89.5928 49.0297 90.0761 48.8602C90.753 48.6127 91.5014 48.3259 92.2554 48.0038ZM98.9714 45.6802C99.7664 45.6471 100.847 45.7754 101.633 45.9801C102.052 46.0828 102.301 46.3397 102.388 46.6143C102.527 47.0567 102.287 47.5691 101.844 47.7089C101.692 47.7571 101.525 47.7596 101.343 47.7162C100.496 47.5309 99.5772 47.3849 98.8288 47.3529C98.404 47.3361 98.1494 47.1146 98.0626 46.8399C97.9324 46.428 98.1483 45.89 98.667 45.726C98.7586 45.6971 98.8549 45.6834 98.9714 45.6802ZM114.517 39.2243L115.312 41.7416L117.893 40.7751L117.954 40.7558C118.488 40.5871 118.908 40.9074 119.038 41.3194C119.158 41.7008 119.024 42.1794 118.515 42.3738C117.614 42.7088 116.718 43.0591 115.817 43.3941C116.101 44.3449 116.247 45.0202 116.31 45.5373C116.504 47.0534 116.048 47.7344 114.782 48.1345C114.385 48.2599 114.02 48.325 113.695 48.3604C113.239 48.4038 112.91 48.1052 112.799 47.7543C112.669 47.3424 112.798 46.8485 113.301 46.6894C113.347 46.6749 113.408 46.6556 113.459 46.6564C113.656 46.6444 113.88 46.6074 114.169 46.5158C114.52 46.4049 114.63 46.2194 114.58 45.7986C114.527 45.3626 114.413 44.8447 114.173 44.0312C112.844 44.5518 111.515 45.0724 110.191 45.6083L110.268 45.8524C110.741 47.3475 111.084 48.3801 111.502 49.4392C111.901 50.4879 112.665 50.7833 113.993 50.3639C115.488 49.8914 116.716 49.3692 117.798 48.7587C117.869 48.7194 117.941 48.68 118.017 48.6559C118.536 48.492 118.971 48.8075 119.106 49.2347C119.222 49.6008 119.098 50.0594 118.598 50.3349C117.429 50.9896 116.181 51.5013 114.503 52.0316C112.275 52.7355 110.697 52.4122 109.856 50.1775C109.453 49.1136 109.066 47.9943 108.574 46.4381L108.526 46.2855C107.721 46.6069 106.921 46.9435 106.122 47.2801L106.015 47.3139C105.679 47.4199 105.397 47.3244 105.213 47.1141C105.114 47.0113 105.04 46.8836 104.997 46.7463C104.866 46.3344 104.996 45.8405 105.5 45.6308C106.33 45.2846 107.165 44.9536 107.995 44.6073L107.229 42.1816C107.075 41.6934 107.425 41.3143 107.852 41.1793C108.279 41.0443 108.783 41.1534 108.938 41.6416L109.666 43.9453C110.99 43.4095 112.339 42.8993 113.668 42.3787L112.838 39.7546C112.674 39.2359 113.025 38.8568 113.436 38.7266C113.864 38.5917 114.353 38.7056 114.517 39.2243ZM114.898 38.785C114.823 38.7079 114.784 38.6365 114.76 38.5602C114.663 38.2551 114.911 37.925 115.217 37.8285C115.415 37.7659 115.642 37.7947 115.832 37.9698C116.265 38.3865 116.733 38.9099 117.069 39.3909C117.129 39.4728 117.153 39.5491 117.177 39.6253C117.293 39.9915 117.07 40.2967 116.765 40.3931C116.521 40.4702 116.249 40.4052 116.051 40.1491C115.724 39.6987 115.296 39.1961 114.898 38.785ZM116.395 37.5232C116.321 37.4461 116.281 37.3746 116.257 37.2984C116.166 37.0085 116.388 36.7033 116.693 36.6069C116.891 36.5442 117.134 36.5683 117.339 36.7385C117.753 37.0941 118.256 37.6232 118.573 38.0431C118.653 38.1355 118.697 38.2222 118.726 38.3137C118.842 38.6799 118.609 39.0051 118.319 39.0967C118.09 39.1691 117.823 39.1193 117.604 38.8528C117.267 38.4224 116.829 37.9399 116.395 37.5232ZM121.583 39.7097C121.455 39.8341 121.362 39.9137 121.256 39.9474C121.027 40.0197 120.862 39.8704 120.804 39.6873C120.775 39.5958 120.792 39.4898 120.875 39.3797C121.415 38.8063 121.614 38.3742 121.436 37.8097C121.373 37.6114 121.313 37.5801 121.084 37.6524C120.55 37.8211 119.941 37.594 119.729 36.9227C119.512 36.2362 119.896 35.6451 120.567 35.433C121.284 35.2064 122.063 35.5981 122.395 36.6508C122.762 37.8103 122.34 38.9169 121.583 39.7097ZM124.741 38.7117C124.628 38.8314 124.536 38.9109 124.429 38.9447C124.2 39.017 124.02 38.8725 123.962 38.6894C123.933 38.5978 123.95 38.4918 124.048 38.377C124.573 37.8084 124.788 37.3715 124.609 36.807C124.547 36.6087 124.486 36.5774 124.258 36.6497C123.724 36.8184 123.115 36.5913 122.903 35.92C122.686 35.2334 123.069 34.6423 123.741 34.4302C124.458 34.2036 125.236 34.5954 125.569 35.6481C125.935 36.8076 125.513 37.9142 124.741 38.7117ZM133.498 37.6563L133.538 37.6771C133.886 37.3992 134.295 37.1526 134.768 37.0032C135.821 36.6705 136.609 36.774 137.362 37.7776C138.393 36.8981 139.53 36.0355 140.742 35.1993C140.839 35.1351 140.941 35.0861 141.033 35.0571C141.536 34.898 141.956 35.2184 142.087 35.6303C142.188 35.9507 142.111 36.3442 141.722 36.6012C140.52 37.4173 139.307 38.304 138.189 39.2277C138.444 39.7681 138.687 40.4297 138.968 41.2134C139.147 41.7273 138.791 42.1418 138.349 42.2816C137.952 42.4069 137.483 42.3034 137.319 41.8353C137.12 41.2603 136.935 40.7818 136.775 40.3795C135.444 41.6895 135.294 42.4917 135.473 43.0562C135.661 43.6512 136.321 43.8285 138.075 43.2741C139.036 42.9704 140.014 42.5607 140.953 42.0795C141.009 42.045 141.07 42.0257 141.116 42.0112C141.635 41.8473 142.07 42.1628 142.205 42.59C142.321 42.9562 142.192 43.3995 141.703 43.6549C140.769 44.1513 139.659 44.5691 138.652 44.8873C135.769 45.7984 134.244 45.223 133.772 43.7278C133.386 42.5073 133.732 41.106 136.019 38.89C135.642 38.3882 135.283 38.3674 134.734 38.541C134.169 38.7193 133.186 39.4832 132.103 41.1007C131.963 41.2958 131.799 41.4147 131.616 41.4726C131.174 41.6124 130.672 41.3515 130.537 40.9243C130.465 40.6954 130.499 40.4328 130.676 40.1421C131.372 38.9993 131.928 37.7328 132.314 36.3524C131.733 36.5862 131.189 36.775 130.69 36.9493C130.146 37.1381 129.726 36.8178 129.601 36.4211C129.48 36.0397 129.629 35.5563 130.194 35.3779C130.911 35.1513 131.751 34.8356 132.616 34.495C132.683 33.8027 132.724 33.1354 132.728 32.5131C132.73 32.0931 132.997 31.824 133.333 31.718C133.76 31.583 134.259 31.7275 134.394 32.1546C134.418 32.2309 134.442 32.3072 134.436 32.3931C134.433 32.8637 134.406 33.3086 134.359 33.743C135.128 33.416 135.857 33.0682 136.475 32.7389C136.531 32.7043 136.592 32.685 136.653 32.6657C137.126 32.5163 137.501 32.8005 137.617 33.1666C137.723 33.5023 137.62 33.9207 137.186 34.1416C136.278 34.6131 135.187 35.1425 134.092 35.6061C133.908 36.3521 133.71 37.0524 133.498 37.6563ZM148.712 30.6841L149.185 30.5346C150.253 30.1972 150.851 30.4444 151.174 31.4666L153.57 39.049C153.884 40.0407 153.434 40.6358 152.503 40.9299C152.122 41.0504 151.919 41.0978 151.615 41.1437C151.168 41.2176 150.879 40.9398 150.773 40.6042C150.657 40.238 150.766 39.7843 151.177 39.6541C151.223 39.6397 151.259 39.6453 151.304 39.6308C151.512 39.5987 151.7 39.5561 151.899 39.4934C152.066 39.4404 152.123 39.3552 152.061 39.1569L151.342 36.8837L148.459 37.7949C148.781 39.1864 148.907 40.4889 148.788 41.6509C148.746 42.05 148.494 42.3142 148.204 42.4058C147.823 42.5263 147.375 42.3827 147.245 41.9708C147.211 41.864 147.203 41.7323 147.221 41.5757C147.415 40.172 147.161 38.2552 146.409 35.8752L145.575 33.2359C145.484 32.946 145.442 32.7075 145.471 32.4802C145.352 32.6352 145.199 32.734 145.046 32.7822C144.68 32.8979 144.227 32.739 144.111 32.3729C144.058 32.2051 144.061 32.0027 144.171 31.7666C144.585 30.8471 144.895 29.4907 145.042 28.2026C145.072 27.8742 145.288 27.6549 145.563 27.5682C145.944 27.4476 146.403 27.5712 146.523 27.9526C146.552 28.0442 146.561 28.1253 146.56 28.2265C146.551 28.4641 146.512 28.7115 146.487 28.954L147.327 28.6889C148.105 28.443 148.591 28.7593 148.745 29.2475C148.783 29.3695 148.807 29.4964 148.8 29.6329C148.795 29.9365 148.779 30.3107 148.712 30.6841ZM146.668 31.3301L147.171 31.171C147.232 30.8329 147.292 30.5454 147.287 30.262C147.292 30.2266 147.283 30.1961 147.278 30.1809C147.249 30.0893 147.158 30.0677 147.006 30.1159L146.197 30.3714C146.068 30.8653 145.919 31.3487 145.749 31.8217C146.006 31.5727 146.332 31.4362 146.668 31.3301ZM148.115 36.494L148.893 36.2482L148.459 34.8751L147.696 35.1161L147.841 35.5738C147.937 35.879 148.034 36.1841 148.115 36.494ZM150.953 35.5973L150.519 34.2243L149.71 34.4798L150.144 35.8529L150.953 35.5973ZM150.133 33.0037L149.82 32.0121C149.747 31.7832 149.682 31.7367 149.484 31.7993L148.92 31.9777L149.325 33.2593L150.133 33.0037ZM147.669 32.373L147.15 32.5369C146.952 32.5996 146.925 32.6751 146.997 32.9039L147.311 33.8956L148.074 33.6546L147.669 32.373ZM155.169 26.7979L153.964 27.1788C154.098 28.6635 153.684 30.1701 152.75 31.3547C152.621 31.5298 152.452 31.6334 152.299 31.6816C151.872 31.8166 151.446 31.5822 151.325 31.2008C151.253 30.9719 151.283 30.6941 151.51 30.4041C152.114 29.6596 152.437 28.7184 152.408 27.6705L151.111 28.0803C150.714 28.2056 150.405 27.9174 150.299 27.5817C150.188 27.2309 150.281 26.8325 150.677 26.7072L155.163 25.2898C156.276 24.9379 156.874 25.2357 157.11 25.9833C157.308 26.6088 157.387 27.3387 157.412 28.0526C157.441 29.1005 157.038 29.58 156.077 29.8837C155.803 29.9705 155.584 30.0228 155.219 30.0879C154.737 30.1562 154.422 29.9033 154.316 29.5677C154.205 29.2168 154.354 28.7839 154.796 28.6441C154.842 28.6297 154.893 28.6304 154.938 28.616C155.192 28.5694 155.334 28.5412 155.472 28.4978C155.685 28.4304 155.773 28.3356 155.787 28.0626C155.809 27.653 155.756 27.1664 155.669 26.8918C155.606 26.6934 155.52 26.687 155.169 26.7979ZM154.412 32.5244L155.098 32.3074L154.77 31.27C154.64 30.8581 154.969 30.5191 155.366 30.3938C155.763 30.2684 156.227 30.3567 156.357 30.7686L156.685 31.8061L158.409 31.2613C158.775 31.1456 159.064 31.4234 159.17 31.759C159.276 32.0947 159.199 32.4882 158.833 32.6039L157.109 33.1486L157.509 34.4149L159.706 33.7207C160.072 33.605 160.361 33.8828 160.472 34.2337C160.578 34.5693 160.506 34.9781 160.14 35.0938L157.943 35.788L158.782 38.4426C158.912 38.8545 158.583 39.1935 158.186 39.3188C157.789 39.4441 157.325 39.3559 157.195 38.944L156.356 36.2894L154.022 37.027C153.656 37.1427 153.347 36.8544 153.241 36.5188C153.13 36.1679 153.222 35.7696 153.588 35.6539L155.922 34.9163L155.522 33.65L154.317 34.0308C154.288 34.2581 154.254 34.4701 154.201 34.6717C154.129 35.0298 153.878 35.2435 153.619 35.3254C153.252 35.4411 152.84 35.3031 152.719 34.9217C152.676 34.7844 152.669 34.6021 152.722 34.4005C152.88 33.73 152.962 32.9824 152.925 32.1215C152.906 31.7417 153.163 31.4927 153.453 31.4011C153.803 31.2902 154.242 31.4034 154.367 31.8001C154.387 31.8611 154.391 31.9269 154.395 31.9928L154.412 32.5244ZM166.944 36.1822L165.373 36.6788C164.213 37.0452 163.687 36.708 163.388 35.7621L162.805 33.9161C162.506 32.9702 162.743 32.3919 163.902 32.0256L165.474 31.529C166.633 31.1626 167.159 31.4998 167.458 32.4457L168.041 34.2917C168.384 35.3749 167.981 35.8544 166.944 36.1822ZM165.244 35.2093L166.205 34.9056C166.449 34.8284 166.497 34.7128 166.415 34.4534L166.034 33.2482C165.952 32.9888 165.847 32.9214 165.602 32.9985L164.641 33.3022C164.397 33.3794 164.35 33.495 164.432 33.7544L164.813 34.9596C164.89 35.2037 164.985 35.2912 165.244 35.2093ZM173.037 28.1156L174.256 31.9755C174.334 32.2196 174.48 32.2573 174.831 32.1464C175.273 32.0066 175.412 31.862 175.264 30.9691C175.184 30.558 175.432 30.2785 175.752 30.1773C176.133 30.0567 176.592 30.1803 176.727 30.6075L176.751 30.6838C177.118 32.4809 176.744 33.1025 175.172 33.599C173.799 34.0329 173.189 33.9069 172.846 32.8237L171.511 28.5977L170.824 28.8146C171.471 31.446 171.057 33.6407 169.908 35.3128C169.773 35.5232 169.594 35.6469 169.411 35.7048C168.984 35.8398 168.522 35.5997 168.392 35.1878C168.319 34.959 168.36 34.661 168.567 34.3607C169.458 33.0388 169.821 31.4808 169.294 29.2815C168.263 29.5234 167.747 29.2167 167.428 28.2098L166.835 26.3332C166.498 25.2653 166.725 24.6566 168.19 24.1938L169.761 23.6972C169.949 22.6982 170.034 21.7988 170.046 20.7212C170.052 20.3164 170.324 20.0626 170.645 19.9614C171.072 19.8264 171.586 19.966 171.721 20.3932C171.745 20.4695 171.758 20.5659 171.757 20.667C171.728 21.5319 171.613 22.3904 171.47 23.1573C172.644 22.8366 173.274 22.973 173.655 24.1783L174.248 26.0548C174.629 27.2601 174.151 27.7131 173.037 28.1156ZM169.623 27.6673L172.125 26.8767C172.598 26.7273 172.681 26.5666 172.561 26.1852L172.166 24.9342C172.069 24.6291 171.904 24.5303 171.431 24.6798L168.929 25.4704C168.456 25.6199 168.377 25.7957 168.474 26.1009L168.869 27.3519C169.004 27.7791 169.226 27.7927 169.623 27.6673ZM165.351 26.0974L160.591 27.6015C160.195 27.7269 159.861 27.413 159.74 27.0316C159.62 26.6501 159.713 26.2012 160.109 26.0759L164.869 24.5718C165.281 24.4416 165.615 24.7555 165.736 25.1369C165.856 25.5184 165.763 25.9673 165.351 26.0974ZM163.931 24.0966L160.757 25.0993C160.376 25.2198 160.062 24.9164 159.951 24.5655C159.835 24.1993 159.923 23.7857 160.304 23.6652L163.477 22.6625C163.874 22.5371 164.183 22.8253 164.299 23.1915C164.41 23.5424 164.327 23.9712 163.931 24.0966ZM165.309 28.4599L162.136 29.4627C161.755 29.5832 161.441 29.2797 161.33 28.9288C161.214 28.5626 161.301 28.1491 161.683 28.0285L164.856 27.0258C165.253 26.9005 165.562 27.1887 165.678 27.5548C165.789 27.9057 165.706 28.3346 165.309 28.4599ZM165.984 30.5958L162.811 31.5986C162.429 31.7191 162.115 31.4156 162.005 31.0647C161.889 30.6985 161.976 30.285 162.358 30.1645L165.531 29.1617C165.928 29.0364 166.237 29.3246 166.353 29.6907C166.464 30.0416 166.381 30.4705 165.984 30.5958ZM167.503 21.4909C167.894 21.7703 168.318 22.1565 168.597 22.4543C168.696 22.5571 168.765 22.6695 168.799 22.7763C168.944 23.234 168.602 23.6942 168.175 23.8292C167.931 23.9063 167.648 23.8614 167.424 23.6302C167.146 23.3323 166.672 22.8947 166.372 22.637C166.237 22.5287 166.163 22.401 166.125 22.2789C166.004 21.8975 166.294 21.4871 166.706 21.357C166.95 21.2798 167.243 21.3047 167.503 21.4909Z" fill="black"/>
<path d="M185.339 1.00047L186.921 43.5533" stroke="#282828" stroke-width="2" stroke-linecap="round"/>
</svg>
