<svg width="96" height="97" viewBox="0 0 96 97" fill="none" xmlns="http://www.w3.org/2000/svg">
<g clip-path="url(#clip0_986_8608)">
<path d="M35.9104 85.5175C55.7457 91.4908 75.3799 84.5296 79.7646 69.9694C84.1493 55.4091 71.6242 38.7634 51.7889 32.7902C31.9536 26.8169 12.3194 33.778 7.93467 48.3383C3.54994 62.8985 16.0751 79.5442 35.9104 85.5175Z" fill="#E8382F"/>
<path d="M16.6357 52.405C13.059 64.3921 24.6017 66.5052 28.1579 55.7419C32.1345 43.6924 20.1848 40.5094 16.6357 52.405Z" fill="white"/>
<mask id="mask0_986_8608" style="mask-type:luminance" maskUnits="userSpaceOnUse" x="15" y="44" width="14" height="19">
<path d="M16.6357 52.405C13.059 64.3921 24.6017 66.5052 28.1579 55.7419C32.1345 43.6924 20.1848 40.5094 16.6357 52.405Z" fill="white"/>
</mask>
<g mask="url(#mask0_986_8608)">
<path d="M13.9754 46.0525C10.3987 58.0396 21.9415 60.1527 25.4976 49.3894C29.4742 37.3399 17.5245 34.1568 13.9754 46.0525Z" fill="#231815"/>
</g>
<path d="M16.6357 52.405C13.059 64.3921 24.6017 66.5052 28.1579 55.7419C32.1345 43.6924 20.1848 40.5094 16.6357 52.405Z" stroke="#231815" stroke-width="0.85" stroke-miterlimit="10"/>
<path d="M49.2538 62.2273C45.6771 74.2144 57.2199 76.3275 60.776 65.5642C64.7526 53.5147 52.803 50.3317 49.2538 62.2273Z" fill="white"/>
<mask id="mask1_986_8608" style="mask-type:luminance" maskUnits="userSpaceOnUse" x="48" y="54" width="14" height="19">
<path d="M49.2538 62.2273C45.6771 74.2144 57.2199 76.3275 60.776 65.5642C64.7526 53.5147 52.803 50.3317 49.2538 62.2273Z" fill="white"/>
</mask>
<g mask="url(#mask1_986_8608)">
<path d="M46.6745 56.4314C43.0978 68.4185 54.6406 70.5316 58.1967 59.7683C62.1733 47.7188 50.2236 44.5358 46.6745 56.4314Z" fill="#231815"/>
</g>
<path d="M49.2538 62.2273C45.6771 74.2144 57.2199 76.3275 60.776 65.5642C64.7526 53.5147 52.803 50.3317 49.2538 62.2273Z" stroke="#231815" stroke-width="0.85" stroke-miterlimit="10"/>
<path d="M20.8397 34.2077L75.7399 50.3749L79.5103 42.0363C100.065 38.2701 83.4971 13.3355 71.8311 26.5432C70.6364 12.0223 49.3771 5.08828 41.8982 16.3324C36.5445 -4.62682 11.813 7.83756 22.0437 22.1211L20.8595 34.1971L20.8397 34.2077Z" fill="white" stroke="#231815" stroke-width="0.85" stroke-linecap="round" stroke-linejoin="round"/>
<path d="M26.2226 69.4861C28.2155 76.7347 40.2121 78.3861 44.3364 71.0183" stroke="#231815" stroke-width="0.85" stroke-linecap="round" stroke-linejoin="round"/>
<path d="M42.4234 73.8492C43.3382 74.773 44.8306 74.9897 46.007 75.0448C49.1139 75.1826 49.3912 79.6541 44.9405 79.577C42.4339 79.5368 39.5436 76.5888 38.2409 75.7976" stroke="#231815" stroke-width="0.85" stroke-linecap="round" stroke-linejoin="round"/>
<path d="M21.8005 24.5244L18.4181 39.113L76.2777 55.357L79.5104 42.0363L21.8005 24.5244Z" fill="#FDD35C" stroke="#231815" stroke-width="0.85" stroke-linecap="round" stroke-linejoin="round"/>
<path d="M33.057 38.1525C32.8549 38.1083 32.6178 38.0701 32.4659 38.0244C32.2076 37.9466 31.9554 37.9039 31.8278 37.8322C31.5392 37.7453 31.3918 37.6843 31.1745 37.6355C31.006 37.5349 30.7188 37.4982 30.5806 37.4068C30.4425 37.3153 30.1478 37.1933 30.1131 37.0333C30.0099 36.9357 29.9449 36.7666 29.9558 36.6203C29.9742 36.5593 30.0247 36.3917 30.0052 36.2362C30.1012 36.0823 30.0743 35.8415 30.1566 35.7333C30.1403 35.5123 30.2318 35.3737 30.3127 35.2152C30.4225 35.0156 30.3999 34.9257 30.4687 34.6971C30.4644 34.5462 30.4983 34.3237 30.6247 34.1789C30.7268 34.0601 30.7667 33.8726 30.7808 33.6608C30.7751 33.4596 30.8817 33.3256 30.9368 33.1427C30.9873 32.9751 30.9572 32.7998 31.0928 32.6246C31.1525 32.4264 31.1984 32.2741 31.2489 32.1064C31.2764 32.015 31.2905 31.8032 31.4487 31.7178C31.566 31.6036 31.6833 31.4893 31.8733 31.4634C32.0574 31.4025 32.2322 31.3721 32.4449 31.4361C32.6258 31.4407 32.7929 31.491 33.0208 31.5597C33.2183 31.6191 33.4006 31.674 33.6589 31.7518C33.9157 31.7793 34.0857 31.9302 34.297 31.944C34.4595 32.0095 34.7178 32.0873 34.9061 32.1773C35.1202 32.2916 35.2432 32.3785 35.369 32.566C35.4418 32.6544 35.5037 32.8891 35.5263 32.979C35.5899 33.0979 35.5182 33.2259 35.4769 33.3631C35.4826 33.5642 35.4155 33.677 35.3209 33.8812C35.2796 34.0183 35.15 34.2286 35.1649 34.3993C35.1798 34.57 34.9742 34.7574 35.0088 34.9175C34.8824 35.0622 34.8591 35.3045 34.8528 35.4356C34.7932 35.6337 34.6925 35.8028 34.6968 35.9537C34.5947 36.0726 34.5594 36.2448 34.5408 36.4718C34.4263 36.6867 34.496 36.8406 34.3847 36.99C34.3661 37.217 34.2244 37.3572 34.2287 37.5081C34.1266 37.627 34.1415 37.7976 34.038 37.8662C33.9419 38.0201 33.7533 38.0963 33.6134 38.1206C33.4597 38.1907 33.2622 38.1312 33.057 38.1525ZM33.1503 35.4215C33.2707 35.2417 33.2329 35.1472 33.2834 34.9796C33.3339 34.812 33.366 34.7053 33.4165 34.5377C33.397 34.3822 33.5129 34.2176 33.5496 34.0957C33.641 33.9571 33.6368 33.8062 33.6827 33.6538C33.7119 33.4465 33.8002 33.3734 33.8157 33.2119C33.8783 33.1143 33.7797 33.0015 33.6263 32.9055C33.4486 32.8353 33.2055 32.7621 33.0642 32.7362C32.8529 32.7224 32.7678 32.7301 32.7219 32.8824C32.6015 33.0623 32.6255 33.2025 32.5888 33.3244C32.5429 33.4768 32.4165 33.6215 32.4557 33.7663C32.3399 33.9309 32.2894 34.0985 32.3226 34.2082C32.2509 34.3362 32.2309 34.513 32.1895 34.6502C32.1073 34.7584 32.1115 34.9092 32.0565 35.0921C31.9664 35.2811 32.0057 35.4259 31.9234 35.534C31.8319 35.6727 31.8757 35.8023 31.7903 35.976C31.6638 36.1207 31.7289 36.2899 31.6572 36.4179C31.6159 36.5551 31.6781 36.6237 31.8664 36.7136C32.0487 36.7685 32.1551 36.8005 32.4285 36.8829C32.5896 36.8982 32.6398 36.8967 32.7511 36.7473C32.8319 36.5888 32.8824 36.4212 32.8841 36.3054C32.8555 36.1804 32.9318 36.0372 33.0172 35.8635C33.0935 35.7202 33.1136 35.5434 33.1503 35.4215ZM42.9359 42.3242C42.8246 42.4735 42.6816 42.5634 42.5781 42.632C42.4502 42.7264 42.1432 42.7005 41.9655 42.6303C41.6373 42.5647 41.5736 42.4459 41.3475 42.2614C41.1486 42.1516 41.0821 41.9322 40.9517 41.7599C40.8683 41.6517 40.8213 41.5877 40.7121 41.4551C40.5588 41.359 40.5711 41.263 40.4923 41.1396C40.4241 41.0359 40.2965 40.9643 40.2725 40.824C40.2788 40.693 40.1102 40.5924 40.0678 40.5131C39.9251 40.4369 39.8858 40.2921 39.8678 40.1869C39.7328 40.0299 39.6766 39.9964 39.6572 39.8409C39.4889 39.5742 39.4038 39.5818 39.3399 39.629C39.2728 39.7418 39.271 39.8576 39.2251 40.01C39.1746 40.1776 39.1729 40.2935 39.1224 40.4611C39.0599 40.5586 39.0444 40.7202 39.0031 40.8573C38.9251 41.1164 38.7863 41.3571 38.7736 41.6193C38.6409 41.8951 38.5918 42.113 38.5396 42.3965C38.4344 42.5808 38.381 42.6479 38.1652 42.6494C37.9645 42.6554 37.7624 42.6112 37.5861 42.5913C37.448 42.4999 37.2611 42.4602 37.0713 42.32C36.9833 42.227 36.9031 42.0532 36.914 41.9069C37.0012 41.6174 37.0397 41.3796 37.1481 41.1297C37.2215 40.8859 37.2691 40.6177 37.3895 40.4379C37.4005 40.2916 37.4767 40.1483 37.5272 39.9807C37.6049 39.8878 37.631 39.746 37.6465 39.5845C37.7429 39.2645 37.775 39.1578 37.6779 39.0953C37.5351 39.0191 37.4712 39.0663 37.3221 39.1211C37.2172 39.1394 37.1183 39.1927 37.024 39.2308C36.8915 39.3405 36.6421 39.3984 36.5372 39.4166C36.3743 39.5172 36.2146 39.5522 36.0398 39.5826C35.8466 39.674 35.6657 39.6694 35.5272 39.7441C35.3781 39.7989 35.1333 39.8415 35.0086 39.8705C34.8033 39.8918 34.6511 40.0121 34.4748 39.9923C34.2332 39.9694 34.1219 40.1187 33.9258 40.1095C33.8026 40.1887 33.5807 40.1552 33.4408 40.1795C33.1899 40.1871 33.1398 40.1886 32.8921 40.1306C32.7204 40.0956 32.5671 39.9995 32.4215 39.8227C32.3472 39.684 32.2122 39.527 32.2991 39.4036C32.4135 39.1887 32.6357 39.0562 32.841 39.0349C32.9717 39.041 33.2667 38.9969 33.4507 38.9359C33.586 38.9268 33.8644 38.8278 34.0301 38.8279C34.1958 38.8279 34.3646 38.7624 34.5989 38.7C34.7313 38.5902 34.9136 38.6452 35.1266 38.5431C35.3425 38.5416 35.4947 38.4212 35.659 38.371C35.8749 38.3695 35.9603 38.1958 36.1808 38.1791C36.4196 38.1014 36.4591 38.0801 36.6721 37.978C36.7894 37.8637 37.0053 37.8622 37.232 37.7145C37.3903 37.6291 37.3768 37.5087 36.9818 37.3898C36.6932 37.3029 36.1872 37.1671 36.0141 37.0817C35.7209 37.0101 35.5643 36.9795 35.4368 36.9079C35.1785 36.8301 35.1923 36.7844 35.1029 36.6411C34.9541 36.5298 34.994 36.3424 35.0353 36.2052C35.0766 36.0681 35.1391 35.9706 35.238 35.9172C35.3765 35.8426 35.5224 35.8533 35.7443 35.8869C35.9782 35.9906 36.1697 36.015 36.4583 36.1019C36.671 36.166 36.9459 36.2986 37.142 36.3078C37.3759 36.4115 37.6448 36.5091 37.9928 36.564C38.286 36.6357 38.4199 36.5763 38.5661 36.4208C38.5982 36.3142 38.6561 36.2319 38.6854 36.0246C38.7267 35.8875 38.7938 35.7747 38.6299 35.6589C38.4493 35.4881 38.232 35.4393 38.0543 35.3692C37.7444 35.2426 37.477 35.1953 37.3099 35.145C37.1473 35.0794 36.9149 35.026 36.7477 34.9757C36.5396 34.8964 36.4061 34.7897 36.3425 34.6708C36.294 34.5565 36.2244 34.4026 36.2961 34.2746C36.3982 34.1557 36.4243 34.014 36.5536 33.9698C36.7132 33.9348 36.8623 33.88 37.0598 33.9395C37.3075 33.9974 37.3651 34.0813 37.6219 34.1087C37.7739 34.1545 38.0261 34.1972 38.3664 34.3329C38.5988 34.3863 38.8161 34.4351 39.0457 34.3879C39.21 34.3377 39.2757 34.1746 39.2728 34.074C39.3141 33.9369 39.3904 33.7936 39.4151 33.6016L39.5344 33.2054C39.5757 33.0682 39.6746 33.0149 39.8845 32.9784C39.994 32.9449 40.3512 32.9693 40.4833 33.0258C40.6748 33.0502 40.7748 33.2133 41.0087 33.3169C41.2031 33.442 41.1981 33.6233 41.1614 33.7452C41.1339 33.8367 41.1138 34.0134 41.0513 34.111C41.0541 34.2115 40.9277 34.3563 40.9136 34.5681C40.9469 34.6779 40.831 34.8424 40.9812 35.004C41.0918 35.1869 41.4762 35.2861 41.6175 35.312C41.9564 35.3974 42.1599 35.4919 42.4531 35.5636C42.6552 35.6079 42.8648 35.7374 43.076 35.7512C43.1976 35.7878 43.4389 35.9768 43.4813 36.0561C43.5615 36.2298 43.5736 36.2999 43.5429 36.4569C43.5108 36.5636 43.3797 36.7236 43.2702 36.7571C43.1529 36.8714 42.9053 36.8134 42.764 36.7875C42.5255 36.699 42.3128 36.635 42.1411 36.5999C41.9725 36.4993 41.5956 36.4855 41.3055 36.3483C41.067 36.2598 40.7844 36.2079 40.649 36.2171C40.459 36.2429 40.4011 36.3252 40.3887 36.4212C40.3566 36.5279 40.2591 36.6315 40.251 36.8784C40.2324 37.1055 40.3992 37.3219 40.7076 37.3982C41.1178 37.5217 41.3867 37.6193 41.6951 37.6956C41.9884 37.7672 42.1813 37.842 42.5155 37.9426C42.8391 38.0234 43.0335 38.1485 43.3511 38.1942C43.579 38.2629 43.6532 38.4016 43.7564 38.4991C43.8762 38.6515 43.8243 38.7689 43.818 38.8999C43.8162 39.0158 43.6958 39.1956 43.5453 39.2001C43.3263 39.2671 43.2365 39.29 43.039 39.2305C42.7412 39.174 42.5833 39.0932 42.2946 39.0063C42.1169 38.9362 41.8784 38.8477 41.5806 38.7913C41.3025 38.7242 41.1552 38.6632 40.7602 38.5442C40.4913 38.4466 40.2405 38.4542 40.3663 38.6417C40.4176 38.8566 40.5374 39.009 40.6405 39.1066C40.6388 39.2224 40.7724 39.3291 40.8724 39.4922C40.901 39.6172 41.065 39.733 41.124 39.8671C41.1481 40.0074 41.2862 40.0988 41.3908 40.2467C41.4834 40.3244 41.6442 40.5058 41.6774 40.6155C41.7411 40.7344 41.8867 40.9112 41.964 40.9844C42.1386 41.1201 42.2312 41.1978 42.2856 41.3472C42.3962 41.5301 42.5178 41.5667 42.6482 41.7389C42.8196 41.9401 42.9408 42.1428 42.872 42.3714L42.9359 42.3242Z" fill="#231815"/>
<path d="M65.285 48.5555C65.2588 48.6972 65.0854 48.7779 65.0123 48.8557C64.9438 48.9181 64.8127 49.0781 64.647 49.0781C64.428 49.1451 64.3641 49.1923 64.168 49.1831C63.9917 49.1633 63.7013 49.1922 63.5508 49.1967C63.3897 49.1815 63.0477 49.1616 62.9308 49.1097C62.6541 49.0929 62.5676 49.0502 62.2895 48.9831C62.0433 48.9754 61.8306 48.9114 61.6878 48.8352C61.4296 48.7574 61.0148 48.6491 60.6 48.5408C60.3887 48.527 60.2004 48.4371 60.0425 48.3563C59.8814 48.341 59.7478 48.2343 59.5792 48.1337C59.2542 48.0026 59.1436 47.8197 59.1241 47.6642C58.9739 47.5026 59.1247 47.332 59.1144 47.146C59.1148 46.9799 59.1059 46.8443 59.2415 46.6691C59.2114 46.4938 59.3121 46.3246 59.364 46.2073C59.4191 46.0244 59.4908 45.8964 59.508 45.6191C59.6086 45.4499 59.3065 45.2426 58.9009 45.1038C58.5667 45.0032 58.141 45.0412 58.0495 45.1799C57.8485 45.352 57.7253 45.4313 57.6292 45.5852C57.5028 45.7299 57.3325 45.7451 57.2608 45.8731C57.1375 45.9523 56.9687 46.0178 56.821 46.123C56.7373 46.1809 56.5684 46.2464 56.3494 46.3134C56.1456 46.385 56.0467 46.4383 55.8368 46.4748C55.6118 46.5068 55.4126 46.5631 55.2879 46.592C55.1328 46.6118 54.8424 46.6407 54.7177 46.6697C54.5626 46.6894 54.298 46.7427 54.1217 46.7229C53.927 46.764 53.6702 46.7365 53.5197 46.741C53.319 46.7471 53.1593 46.7821 52.9163 46.7089C52.6958 46.7256 52.5453 46.7302 52.287 46.6524C51.9832 46.5609 51.6702 46.4999 51.6203 46.3353C51.5507 46.1813 51.4125 46.0899 51.4524 45.9024C51.4131 45.7576 51.623 45.7211 51.7205 45.6175C51.8756 45.5977 52.0186 45.5078 52.2207 45.5521C52.4715 45.5445 52.745 45.6268 52.97 45.5949C53.2467 45.6117 53.4018 45.5919 53.613 45.6057C53.7787 45.6057 54.0356 45.6332 54.244 45.5464C54.4355 45.5708 54.5588 45.4916 54.8234 45.4383C55.0272 45.3667 55.2006 45.286 55.3709 45.2708C55.4303 45.2388 55.6401 45.2022 55.733 45.1139C55.8577 45.0849 55.911 45.0179 56.0541 44.928C56.0862 44.8213 56.2321 44.832 56.3784 44.6766C56.491 44.5776 56.1402 44.422 55.8653 44.2894C55.5798 44.1369 55.4035 44.1171 55.3049 44.0043C55.1986 43.9723 54.9982 43.8122 54.9802 43.707C54.8618 43.6049 54.8151 43.3748 54.7713 43.2452C54.6727 43.1324 54.7885 42.9679 54.804 42.8063C54.7983 42.6052 54.8866 42.532 54.9265 42.3446C54.9936 42.2318 54.9286 42.0626 55.0536 41.8676C55.0857 41.7609 55.1408 41.578 55.1806 41.3906C55.1976 41.2793 55.2117 41.0675 55.3031 40.9288C55.349 40.7765 55.325 40.6362 55.4302 40.4519C55.4503 40.2751 55.5082 40.1928 55.5573 39.9749C55.5364 39.7691 55.6505 39.7204 55.6797 39.5131C55.6709 39.3775 55.7867 39.2129 55.8022 39.0514C55.8573 38.8685 55.8576 38.7024 56.0205 38.6018C56.1515 38.4418 56.208 38.3093 56.4984 38.2804C56.6976 38.224 57.0838 38.2073 57.3604 38.2242C57.6264 38.2212 57.944 38.2669 58.2433 38.3737C58.6277 38.4728 58.9315 38.5643 59.3813 38.6665C59.7155 38.7672 60.1289 38.8252 60.5193 38.9594C60.9295 39.0829 61.3019 39.1119 61.6725 39.2568C62.0463 39.3361 62.3957 39.4413 62.8105 39.5496C63.1599 39.6549 63.4882 39.7205 63.7433 39.8638C63.9256 39.9187 64.0044 40.0421 64.1563 40.0879C64.3401 40.1931 64.3627 40.283 64.4963 40.3897C64.5355 40.5345 64.7359 40.6945 64.7052 40.8515C64.784 40.975 64.7745 41.1716 64.6678 41.3057C64.5915 41.4489 64.6078 41.6699 64.5453 41.7674C64.5602 41.9381 64.5129 42.0402 64.4228 42.2292C64.3176 42.4135 64.3706 42.5126 64.2958 42.7061C64.2361 42.9043 64.1598 43.0475 64.1687 43.1831C64.0712 43.2867 64.0586 43.5489 64.0462 43.6449C64.0321 43.8567 63.9544 43.9497 63.9192 44.1219C63.9097 44.3185 63.7712 44.3931 63.7921 44.5989C63.8207 44.7238 63.6516 44.9554 63.6696 45.0606C63.6587 45.2069 63.5125 45.3623 63.456 45.4949C63.4055 45.6625 63.1865 45.7295 62.9978 45.8057C62.8427 45.8255 62.7134 45.8697 62.5629 45.8742C62.3563 45.8452 62.1952 45.8299 61.9291 45.8329C61.5871 45.813 61.2282 45.9044 61.2357 45.9898C61.223 46.2519 61.1619 46.3997 61.11 46.517C61.0779 46.6237 61.0228 46.8066 61.0013 46.9331C60.9554 47.0855 60.8869 47.1479 60.8972 47.3339C60.7768 47.5137 60.9955 47.6128 61.3039 47.689C61.6138 47.8156 61.9572 47.8858 62.0575 47.8827C62.3158 47.9605 62.4479 48.0169 62.72 48.049C62.8871 48.0993 63.2245 48.1344 63.3796 48.1147C63.6198 48.0873 63.772 47.9669 63.7844 47.8709C63.8592 47.6774 64.0358 47.5311 64.2457 47.4946C64.4039 47.4092 64.6714 47.4565 64.8081 47.4977C65.1028 47.6197 65.2197 47.6715 65.3639 47.7981C65.4335 47.952 65.4622 48.077 65.4923 48.2522C65.3902 48.3711 65.3383 48.4884 65.3213 48.5997L65.285 48.5555ZM57.3911 39.6628C57.2979 39.9173 57.5894 40.1048 57.7703 40.1094C58.1381 40.1537 58.4176 40.2711 58.6151 40.3306C58.8885 40.4129 59.1196 40.416 59.3231 40.5106C59.5799 40.5381 59.7181 40.6295 60.0159 40.686C60.3138 40.7424 60.4018 40.8354 60.724 40.8659C60.8957 40.901 61.1402 41.0245 61.432 41.0459C61.6553 41.1298 62.0245 41.2243 62.4637 41.3067C62.7219 41.3845 62.8272 41.2001 62.8762 40.9822C63.0044 40.7216 62.5836 40.5783 62.2889 40.4563C61.9243 40.3465 61.5565 40.3022 61.2573 40.1955C60.9594 40.139 60.575 40.0399 60.2104 39.9301C59.9112 39.8234 59.5586 39.7837 59.1788 39.6693C58.7883 39.5351 58.4297 39.4603 58.1471 39.4085C57.8097 39.3733 57.4419 39.3291 57.3911 39.6628ZM56.8828 41.5708C56.8828 41.5708 56.8433 41.5921 56.8691 41.6165C56.9009 41.6759 57.1909 41.8132 57.3521 41.8284C57.6771 41.9596 57.893 41.9581 58.1968 42.0496C58.4809 42.1517 58.6982 42.2006 58.9048 42.2296C59.0766 42.2646 59.3606 42.3668 59.5977 42.405C59.8256 42.4736 59.9927 42.5239 60.3057 42.5849C60.5428 42.6231 60.7813 42.7115 61.0137 42.7649C61.2264 42.829 61.5151 42.9159 61.8783 42.9754C61.9694 43.0029 62.2157 43.0105 62.3298 42.9618C62.3831 42.8947 62.4262 42.6418 62.4766 42.4741C62.5271 42.3065 62.3296 42.247 62.0682 42.2348C61.6322 42.0869 61.4149 42.038 61.2036 42.0243C60.9118 42.0029 60.8041 41.9206 60.4956 41.8443C60.3147 41.8397 59.9759 41.7543 59.7876 41.6643C59.6053 41.6094 59.2908 41.4981 59.0947 41.4889C58.7757 41.3929 58.5842 41.3684 58.3867 41.309C58.1984 41.219 57.908 41.2479 57.5419 41.0878C57.4508 41.0604 57.1134 41.0252 57.0707 41.1121C56.888 41.2233 56.845 41.4763 56.8934 41.5906L56.8828 41.5708ZM62.0108 44.4613C62.0948 44.2373 61.875 43.9218 61.6287 43.9141C61.1698 43.8424 60.9419 43.7738 60.7642 43.7037C60.4572 43.6777 60.2597 43.6182 60.0562 43.5237C59.7583 43.4672 59.5548 43.3727 59.3481 43.3437C59.0655 43.2918 58.9076 43.211 58.6553 43.1683C58.3529 43.1271 58.1539 43.0173 57.9473 42.9883C57.6982 42.8801 57.3851 42.819 57.0159 42.7245C56.7577 42.6467 56.5277 42.86 56.4984 43.0673C56.4021 43.3873 56.7409 43.4727 57.0857 43.5932C57.3804 43.7152 57.7923 43.7229 58.1174 43.854C58.4456 43.9196 58.7996 44.0096 59.1491 44.1148C59.5045 44.2551 59.9041 44.3588 60.1959 44.3802C60.5789 44.429 60.8948 44.5906 61.2276 44.641C61.5222 44.763 61.8596 44.7981 61.9956 44.4568L62.0108 44.4613Z" fill="#231815"/>
<path d="M77.2797 51.2036L85.3353 52.5159L82.6579 59.2058L76.2777 55.3563L77.2797 51.2036Z" fill="#FDD35C" stroke="#231815" stroke-width="0.85" stroke-linecap="round" stroke-linejoin="round"/>
<path d="M36.6745 61.6305C32.5054 57.3167 28.6483 66.4935 35.5388 66.5573" stroke="#231815" stroke-width="0.85" stroke-linecap="round" stroke-linejoin="round"/>
</g>
<defs>
<clipPath id="clip0_986_8608">
<rect width="76" height="78" fill="white" transform="translate(22.4915) rotate(16.7593)"/>
</clipPath>
</defs>
</svg>
