<svg width="215" height="105" viewBox="0 0 215 105" fill="none" xmlns="http://www.w3.org/2000/svg">
<path d="M34.2609 93.7482L1.16727 69.3327" stroke="#282828" stroke-width="2" stroke-linecap="round"/>
<path d="M37.0043 71.8933L43.8087 69.7432C45.0292 69.3575 45.8082 69.6987 46.0637 70.5072C46.1505 70.7819 46.1754 71.1263 46.1442 71.5054C45.9967 72.844 45.5794 74.2847 44.9147 75.6861C46.2374 76.2078 47.6748 76.5087 49.2424 76.5839C49.7177 76.6015 50.0069 76.8793 50.1081 77.1996C50.2431 77.6268 50.0529 78.14 49.5494 78.2991C49.4274 78.3376 49.3005 78.361 49.164 78.3538C47.4246 78.2657 45.7206 77.8645 44.1377 77.1566C43.2386 78.6656 42.0881 80.0695 40.7609 81.1265C40.6533 81.2108 40.5361 81.2647 40.4293 81.2984C39.9716 81.443 39.5307 81.1629 39.4005 80.7509C39.3138 80.4763 39.3747 80.1383 39.7079 79.8652C40.8922 78.8869 41.903 77.6781 42.6873 76.39C41.8248 75.8906 41.0345 75.3014 40.3165 74.6222C39.7478 74.0971 39.2507 73.5327 38.7744 72.9281L37.4623 73.3427C38.3759 76.3932 38.5666 78.7492 38.0644 81.0893C37.9721 81.4876 37.7304 81.7317 37.4406 81.8233C36.9981 81.9631 36.4801 81.7577 36.3307 81.2847C36.2825 81.1322 36.2752 80.9499 36.3137 80.7531C36.7518 78.6347 36.5627 76.4963 35.5744 73.3687L34.7886 70.8819C34.3595 69.5241 34.8027 68.6961 36.4351 68.1803L45.2533 65.3938C45.6958 65.254 46.0299 65.5679 46.1504 65.9493C46.2757 66.346 46.1827 66.7949 45.7402 66.9347L37.2882 69.6055C36.5406 69.8417 36.4306 70.0778 36.6138 70.6575L37.0043 71.8933ZM43.9463 71.2938L40.4373 72.4026C41.2919 73.4078 42.295 74.299 43.4435 74.9597C43.9468 73.8442 44.2935 72.711 44.4266 71.6454C44.4386 71.5242 44.445 71.4382 44.4257 71.3772C44.3775 71.2246 44.2209 71.207 43.9463 71.2938ZM59.3936 69.7853L61.499 69.12C62.3229 68.8597 62.9918 69.1181 63.1799 69.7131C63.2715 70.003 63.2555 70.3772 63.0564 70.8093C62.8782 71.2012 62.6542 71.6075 62.3797 72.0131C63.2036 72.0716 64.1102 72.02 65.0995 71.8584C65.5764 71.7748 65.8961 72.043 66.0021 72.3786C66.1275 72.7753 65.9726 73.2941 65.4539 73.458C65.4081 73.4724 65.3423 73.4765 65.2965 73.4909C63.9266 73.7225 62.4747 73.6946 61.1939 73.4114C60.1501 74.4627 58.8446 75.429 57.5334 76.1118C57.4772 76.1463 57.4314 76.1608 57.3857 76.1753C56.9127 76.3247 56.5224 76.0453 56.4067 75.6792C56.3103 75.3741 56.4122 75.0063 56.8153 74.795C57.8406 74.2696 58.8073 73.6118 59.6078 72.9058C59.1252 72.7059 58.6481 72.4707 58.2281 72.1504C57.9222 72.6162 57.5915 73.0563 57.231 73.4555C57.1074 73.5952 56.9644 73.6739 56.8271 73.7173C56.4305 73.8427 56.0393 73.6139 55.9285 73.263C55.8562 73.0341 55.9059 72.7667 56.1275 72.5121C56.9311 71.6038 57.5549 70.5509 57.9506 69.5198C56.9701 69.7625 56.5148 69.4365 56.24 68.5669L55.6422 66.6751C55.3433 65.7292 55.666 65.1574 56.8255 64.791L59.892 63.822C61.0515 63.4556 61.6442 63.7382 61.9431 64.6841L62.5409 66.5759C62.8398 67.5218 62.5171 68.0936 61.3576 68.46L59.6183 69.0095C59.5534 69.2818 59.4635 69.5283 59.3936 69.7853ZM58.1326 68.2373L60.8025 67.3937C61.0771 67.3069 61.1189 67.2266 61.0514 67.013L60.926 66.6163L57.5849 67.6721L57.7102 68.0688C57.7777 68.2823 57.858 68.3241 58.1326 68.2373ZM60.5982 65.5789L60.4825 65.2127C60.415 64.9991 60.3347 64.9574 60.0601 65.0442L57.3902 65.8878C57.1156 65.9746 57.0738 66.0549 57.1413 66.2685L57.257 66.6346L60.5982 65.5789ZM61.2094 70.4868L59.2566 71.1039C59.728 71.3744 60.2307 71.5847 60.7648 71.7348C61.0281 71.3999 61.2561 71.0593 61.4335 70.718C61.4857 70.6176 61.5121 70.5422 61.4977 70.4964C61.4784 70.4354 61.3772 70.4338 61.2094 70.4868ZM54.1384 76.7316L52.3739 71.1477C52.2535 71.4039 52.113 71.6496 51.9878 71.8906C51.8473 72.1363 51.6731 72.2753 51.4748 72.3379C51.0628 72.4681 50.6011 72.2281 50.4757 71.8314C50.4082 71.6178 50.4274 71.3601 50.5784 71.0942C51.2286 69.9659 51.8057 68.3405 52.125 66.6958C52.1859 66.3577 52.4116 66.169 52.6709 66.087C53.0981 65.952 53.6016 66.1118 53.7414 66.5542C53.78 66.6762 53.8033 66.8031 53.7704 66.9645C53.6364 67.7619 53.3957 68.5931 53.1148 69.4034C53.3726 69.4226 53.6135 69.5479 53.7003 69.8225L55.725 76.2302C55.8552 76.6421 55.5212 76.9658 55.1245 77.0911C54.7279 77.2165 54.2685 77.1435 54.1384 76.7316ZM56.1787 62.7972L61.6252 61.0762C62.0219 60.9508 62.3311 61.239 62.442 61.5899C62.5481 61.9256 62.4606 62.3392 62.0639 62.4645L55.7935 64.4459C55.6443 64.9293 55.4597 65.4072 55.255 65.8746C55.1346 66.1307 54.9451 66.2745 54.7315 66.342C54.3196 66.4722 53.8265 66.2924 53.6963 65.8805C53.6433 65.7126 53.6569 65.4902 53.7669 65.2541C54.1706 64.3546 54.5237 63.1356 54.6111 62.0844C54.6423 61.7054 54.8888 61.4765 55.1787 61.3849C55.5906 61.2547 56.1046 61.3944 56.2395 61.8216C56.2685 61.9131 56.2821 62.0094 56.2701 62.1307C56.2517 62.3379 56.2228 62.5651 56.1787 62.7972ZM50.6042 63.317C50.6749 63.0094 50.8956 62.8054 51.1397 62.7283C51.5669 62.5933 52.0905 62.7634 52.2207 63.1754C52.2593 63.2974 52.2673 63.4291 52.2344 63.5905C51.9456 64.9067 51.3396 66.4406 50.6741 67.5738C50.544 67.7995 50.3698 67.9384 50.1867 67.9963C49.7595 68.1312 49.2729 67.8655 49.1427 67.4536C49.0752 67.24 49.0993 66.9975 49.2502 66.7317C49.7856 65.8242 50.3178 64.4814 50.6042 63.317ZM71.2169 63.4987C70.4185 62.1402 69.6159 60.397 68.9507 58.2916C68.7771 57.7423 69.1328 57.3279 69.5752 57.1881C70.0176 57.0483 70.5468 57.1831 70.7204 57.7323C71.2603 59.4411 71.8797 60.9233 72.4838 62.0916C73.2698 61.3398 74.1771 60.6001 75.1133 59.9519C75.1952 59.8924 75.2819 59.8483 75.3735 59.8193C75.8464 59.6699 76.3018 59.9958 76.4368 60.423C76.538 60.7434 76.4666 61.1015 76.1085 61.3489C74.8857 62.2052 73.5577 63.3128 72.6553 64.3866C71.6132 65.6555 71.4207 66.6393 71.6665 67.4174C71.9654 68.3633 72.7452 68.6538 75.171 67.8873C76.3915 67.5016 77.441 67.0525 78.2423 66.6147C78.3137 66.5754 78.3748 66.5561 78.4358 66.5368C78.9698 66.3681 79.3898 66.6884 79.5248 67.1156C79.6453 67.497 79.5474 67.9306 79.1082 68.1869C78.1383 68.7283 76.9876 69.1758 75.6908 69.5856C72.487 70.598 70.5765 70.1277 69.9257 68.0681C69.5304 66.8171 69.7196 65.3981 71.2169 63.4987ZM92.6567 59.3416L93.4746 61.7176L94.2026 64.0213C94.3424 64.4637 94.0132 64.8026 93.6013 64.9328C93.2046 65.0582 92.7252 64.9747 92.5854 64.5323L91.8574 62.2286L91.1568 59.7988C90.6158 61.3792 89.6196 63.2713 88.4732 64.741C88.3182 64.941 88.1496 65.0446 87.9818 65.0977C87.5546 65.2326 87.1386 64.9782 87.0181 64.5968C86.941 64.3527 86.981 64.0547 87.1978 63.7849C88.4005 62.2806 89.4167 60.3989 90.0154 58.364L87.7575 59.0775C87.3455 59.2076 87.0315 58.9042 86.9158 58.538C86.8001 58.1719 86.8827 57.743 87.2946 57.6129L90.1171 56.721L89.5579 54.9513L87.422 55.6262C87.01 55.7563 86.696 55.4529 86.5803 55.0867C86.4646 54.7205 86.5472 54.2917 86.9592 54.1616L89.0951 53.4866L88.4587 51.4728C88.3189 51.0303 88.6585 50.6713 89.0552 50.546C89.4671 50.4158 89.9361 50.5193 90.0759 50.9618L90.7122 52.9756L93.0922 52.2236C93.5042 52.0934 93.8335 52.3921 93.9492 52.7582C94.0649 53.1244 93.967 53.558 93.5551 53.6882L91.175 54.4402L91.7343 56.21L95.0602 55.159C95.4721 55.0289 95.8014 55.3275 95.9171 55.6937C96.0328 56.0598 95.9349 56.4935 95.523 56.6236L92.5937 57.5493C93.9229 58.6226 95.4874 59.5378 97.0662 60.1799C97.4132 60.322 97.622 60.558 97.6991 60.8021C97.8341 61.2293 97.5941 61.6911 97.1517 61.8309C96.9228 61.9032 96.6498 61.8888 96.3334 61.7371C95.0532 61.0845 93.7305 60.244 92.6567 59.3416ZM86.1224 62.6649L84.8103 63.0795C83.7881 63.4025 83.2011 63.0846 82.9022 62.1387L80.9401 55.9293C80.6363 54.9681 80.9342 54.3706 81.9563 54.0476L83.2684 53.633C84.2906 53.31 84.8776 53.6279 85.1814 54.5891L87.1435 60.7985C87.4616 61.8054 87.0988 62.3563 86.1224 62.6649ZM84.7137 61.4991L85.2934 61.3159C85.5223 61.2436 85.58 61.1079 85.4981 60.8485L83.806 55.4935C83.7192 55.2189 83.5939 55.1411 83.365 55.2134L82.7853 55.3966C82.5565 55.4689 82.4987 55.6046 82.5854 55.8792L84.2776 61.2342C84.3499 61.4631 84.4848 61.5714 84.7137 61.4991ZM106.437 55.6917L104.988 56.1497C105.119 58.7427 103.747 60.7705 101.203 62.2791C101.131 62.3184 101.06 62.3578 100.984 62.3819C100.511 62.5313 100.1 62.2415 99.9847 61.8754C99.8883 61.5702 99.9902 61.2024 100.384 60.9606C102.335 59.8072 103.293 58.38 103.356 56.6656C101.83 57.1477 101.067 56.7511 100.71 55.6221L98.9458 50.0383C98.5891 48.9093 98.976 48.1158 100.532 47.6241L105.185 46.1537C106.742 45.662 107.514 46.0891 107.871 47.218L109.635 52.8019C109.992 53.9309 109.591 54.6786 108.07 55.1759L108.856 57.6627C108.952 57.9678 109.154 58.0216 110.267 57.6697C111.64 57.2358 111.846 57.0366 111.697 56.1943C111.628 55.7631 111.932 55.449 112.298 55.3333C112.694 55.208 113.168 55.3267 113.308 55.7692L113.337 55.8607C113.67 57.551 113.142 58.2714 110.625 59.0669C108.214 59.8286 107.667 59.5821 107.329 58.5142L106.437 55.6917ZM103.175 55.2459L107.402 53.9105C107.783 53.79 108.129 53.6638 107.984 53.2061L107.739 52.428L102.048 54.2262L102.294 55.0043C102.405 55.3552 102.611 55.4242 103.175 55.2459ZM101.248 51.6937L101.628 52.8989L107.319 51.1007L106.938 49.8955L101.248 51.6937ZM106.519 48.5682L106.287 47.8359C106.177 47.485 105.97 47.4159 105.406 47.5943L101.18 48.9297C100.615 49.1081 100.486 49.2832 100.597 49.6341L100.828 50.3664L106.519 48.5682ZM118.337 47.7871C118.522 50.4972 118.418 53.2484 117.937 55.4977C117.85 55.9113 117.573 56.1498 117.268 56.2463C116.825 56.3861 116.332 56.2063 116.188 55.7486C116.144 55.6113 116.137 55.429 116.176 55.2322C116.602 53.2351 116.734 50.8942 116.625 48.5294C116.023 48.8033 115.447 49.1029 114.906 49.4082C114.849 49.4427 114.773 49.4668 114.712 49.4861C114.239 49.6356 113.859 49.3361 113.734 48.9394C113.623 48.5885 113.726 48.1702 114.17 47.9292C114.9 47.5307 115.705 47.1588 116.485 46.8117C116.374 45.8233 116.227 44.8291 116.04 43.8648C115.947 43.3573 116.256 43.0079 116.653 42.8826C117.08 42.7476 117.594 42.8872 117.748 43.3754L117.782 43.4822C117.951 44.335 118.083 45.2327 118.181 46.1249C118.481 46.0132 118.756 45.9264 119 45.8493C120.952 45.2322 121.949 45.8905 122.706 48.2857C123.159 49.7199 123.412 51.0496 123.446 52.0622C123.512 53.971 123.024 54.8134 121.483 55.3003C121.117 55.416 120.725 55.506 120.421 55.5519C119.878 55.6395 119.529 55.3304 119.413 54.9642C119.278 54.5371 119.423 54.0384 119.926 53.8793C119.957 53.8696 120.007 53.8704 120.053 53.856C120.353 53.7949 120.591 53.7531 120.911 53.6518C121.445 53.4831 121.667 53.2285 121.642 52.2464C121.626 51.2949 121.388 50.0615 120.992 48.8104C120.559 47.4374 120.183 47.1532 119.451 47.3846C119.116 47.4906 118.739 47.6264 118.337 47.7871ZM123.584 43.2595C124.835 43.8712 126.224 44.9759 127.066 45.8341C127.215 45.9883 127.304 46.1617 127.352 46.3143C127.521 46.8483 127.204 47.3342 126.747 47.4788C126.441 47.5752 126.068 47.5086 125.724 47.1642C124.828 46.2393 123.648 45.32 122.565 44.7059C122.339 44.5759 122.2 44.4016 122.147 44.2338C122.012 43.8066 122.333 43.336 122.791 43.1914C123.035 43.1143 123.308 43.1287 123.584 43.2595ZM124.019 40.0682C123.858 39.9848 123.774 39.8772 123.735 39.7551C123.639 39.45 123.847 39.099 124.198 38.9881C124.35 38.9399 124.522 38.9528 124.713 39.0266C125.216 39.2369 125.823 39.5652 126.283 39.9064C126.454 40.0204 126.548 40.1585 126.596 40.3111C126.702 40.6467 126.489 40.9824 126.169 41.0837C125.986 41.1415 125.763 41.1279 125.548 40.9778C125.057 40.6462 124.486 40.3235 124.019 40.0682ZM122.874 41.7556C122.729 41.6673 122.645 41.5597 122.611 41.4529C122.514 41.1478 122.733 40.7767 123.068 40.6707C123.206 40.6273 123.373 40.6248 123.549 40.7035C124.076 40.9395 124.688 41.2831 125.158 41.6548C125.308 41.7583 125.382 41.886 125.425 42.0233C125.532 42.359 125.328 42.7252 125.008 42.8264C124.825 42.8843 124.613 42.8506 124.413 42.6956C123.888 42.3079 123.336 41.9956 122.874 41.7556ZM136.989 41.3394L139.009 47.7319C139.496 49.2728 138.921 50.1088 137.594 50.5283C137.243 50.6391 136.841 50.7492 136.39 50.8079C135.873 50.8707 135.523 50.5616 135.398 50.1649C135.253 49.7072 135.414 49.1531 135.963 48.9795C136.009 48.9651 136.07 48.9458 136.136 48.9418C136.44 48.8959 136.628 48.8533 136.811 48.7955C137.147 48.6894 137.25 48.5392 137.11 48.0968L135.158 41.9179L130.734 43.316C130.245 43.4703 129.871 43.1355 129.746 42.7388C129.616 42.3269 129.734 41.8531 130.223 41.6988L134.647 40.3008L133.929 38.0276C133.765 37.5088 134.156 37.1 134.613 36.9554C135.071 36.8108 135.591 36.9151 135.75 37.4185L136.478 39.7223L140.841 38.3435C141.329 38.1892 141.699 38.5087 141.829 38.9207C141.954 39.3173 141.84 39.8064 141.352 39.9607L136.989 41.3394ZM139.654 34.641C140.57 34.3517 141.513 34.8422 141.803 35.7576C142.097 36.6882 141.606 37.6319 140.691 37.9211C139.76 38.2152 138.817 37.7247 138.523 36.7941C138.233 35.8787 138.724 34.9351 139.654 34.641ZM140.45 37.1583C140.938 37.004 141.194 36.4868 141.04 35.9986C140.886 35.5104 140.384 35.2495 139.895 35.4038C139.407 35.5581 139.131 36.0648 139.285 36.553C139.44 37.0412 139.962 37.3126 140.45 37.1583ZM140.947 42.2365C141.574 42.894 142.668 43.8069 143.47 44.3255C143.745 44.5069 143.914 44.7221 143.981 44.9357C144.14 45.4391 143.818 45.9604 143.346 46.1098C143.056 46.2014 142.692 46.1653 142.342 45.9068C141.496 45.3015 140.268 44.2297 139.537 43.4035C139.433 43.2855 139.359 43.1578 139.32 43.0358C139.166 42.5476 139.502 42.1227 139.944 41.9829C140.28 41.8769 140.648 41.9282 140.947 42.2365ZM132.342 45.0061C132.389 44.5716 132.656 44.3026 132.992 44.1965C133.434 44.0567 133.978 44.2373 134.137 44.7407C134.176 44.8628 134.199 44.9897 134.181 45.1463C134.074 46.5058 133.678 47.9063 133.041 49.131C132.884 49.4322 132.654 49.6057 132.425 49.678C131.937 49.8323 131.405 49.581 131.265 49.1386C131.192 48.9097 131.212 48.652 131.373 48.3661C131.9 47.3775 132.217 46.2034 132.342 45.0061ZM154.156 44.3717L152.054 37.7199C151.106 39.1269 150.054 40.416 149.004 41.5027C148.855 41.6673 148.682 41.7557 148.514 41.8087C148.026 41.963 147.544 41.6619 147.405 41.2195C147.308 40.9144 147.37 40.5257 147.714 40.1819C150.018 37.86 152.067 34.6283 153.153 31.5838C153.279 31.2417 153.515 31.0329 153.79 30.9461C154.263 30.7967 154.836 31.0182 154.991 31.5064C155.044 31.6742 155.045 31.8918 154.955 32.1384C154.426 33.5976 153.679 35.109 152.796 36.5626C153.218 36.463 153.686 36.617 153.84 37.1053L155.956 43.8028C156.125 44.3368 155.765 44.736 155.307 44.8806C154.865 45.0204 154.325 44.9057 154.156 44.3717ZM163.147 29.6002C163.999 29.8513 165.035 30.2623 165.993 30.7985C166.254 30.9342 166.402 31.1389 166.475 31.3678C166.638 31.8865 166.335 32.5193 165.816 32.6833C165.587 32.7556 165.314 32.7412 165.033 32.5951C164.13 32.1255 163.21 31.7113 162.375 31.4047C162.053 31.2883 161.869 31.0779 161.792 30.8338C161.643 30.3609 161.94 29.7634 162.474 29.5947C162.673 29.532 162.89 29.5303 163.147 29.6002ZM171.937 28.9537C172.014 28.5602 172.276 28.3265 172.566 28.2349C173.039 28.0855 173.602 28.2765 173.761 28.7799C173.81 28.9325 173.802 29.1196 173.763 29.3163C172.792 33.8351 170.201 37.6909 166.87 40.3206C166.737 40.4298 166.605 40.4884 166.483 40.527C165.933 40.7006 165.418 40.3433 165.273 39.8856C165.167 39.55 165.234 39.1766 165.613 38.889C168.661 36.4826 171.138 32.7971 171.937 28.9537ZM182.396 22.5445L183.751 26.8316C183.816 26.5088 184.028 26.2237 184.349 26.1224C184.486 26.079 184.618 26.071 184.774 26.0886C185.855 26.2169 187.428 26.5756 188.626 27.0194C189.003 27.1518 189.217 27.4031 189.304 27.6778C189.458 28.166 189.207 28.6984 188.718 28.8527C188.52 28.9153 188.272 28.9266 188.005 28.8263C186.908 28.4346 185.361 28.0511 184.574 27.897C184.322 27.8425 184.141 27.7486 183.996 27.6097L186.074 34.1852C186.243 34.7192 185.883 35.1183 185.425 35.263C184.982 35.4028 184.443 35.288 184.274 34.7541L180.596 23.1134C180.427 22.5794 180.798 22.1602 181.24 22.0204C181.698 21.8757 182.227 22.0106 182.396 22.5445Z" fill="black"/>
<path d="M201.525 1.00047L203.107 43.5533" stroke="#282828" stroke-width="2" stroke-linecap="round"/>
</svg>
