<svg width="421" height="324" viewBox="0 0 421 324" fill="none" xmlns="http://www.w3.org/2000/svg">
<rect y="29.0332" width="400" height="237" rx="80" transform="rotate(-4.16236 0 29.0332)" fill="#E18965"/>
<path d="M50.0414 77.1077C49.3632 77.157 48.7232 76.9964 48.1213 76.6258C47.5185 76.2418 46.9768 75.6864 46.4961 74.9593C46.0154 74.2323 45.6181 73.3655 45.3042 72.359C45.0027 71.3382 44.8083 70.2294 44.7212 69.0325C44.6506 68.0618 44.6559 67.032 44.737 65.9432C44.8306 64.8402 45.0066 63.6777 45.2653 62.4557L47.6194 62.5651C47.3939 63.6911 47.2377 64.7586 47.1507 65.7676C47.0637 66.7766 47.0521 67.7199 47.116 68.5976C47.1769 69.4353 47.301 70.2218 47.4882 70.9568C47.6754 71.6918 47.9023 72.3303 48.169 72.8724C48.449 73.4135 48.7469 73.833 49.0627 74.1309C49.3918 74.4278 49.7226 74.5641 50.055 74.5399C50.3742 74.5167 50.7103 74.3585 51.0633 74.0655C51.4286 73.7582 51.7938 73.3573 52.1589 72.8628C52.5239 72.3683 52.8576 71.8093 53.1598 71.1857C53.4753 70.5612 53.729 69.9144 53.9209 69.2453L56.1337 70.1672C55.867 71.0956 55.5163 71.9701 55.0813 72.7905C54.6464 73.6109 54.1515 74.3421 53.5966 74.984C53.0541 75.6117 52.4753 76.1084 51.8602 76.474C51.2461 76.8529 50.6398 77.0641 50.0414 77.1077ZM59.9141 74.4441C59.8038 72.9281 59.5875 71.4265 59.2654 69.9393C58.9566 68.4511 58.5524 67.03 58.0528 65.676C57.5665 64.3211 57.0086 63.085 56.3792 61.9677L58.5454 61.1483C59.2452 62.3139 59.8468 63.6003 60.3503 65.0075C60.8661 66.4004 61.288 67.8804 61.6159 69.4474C61.9562 71.0001 62.1868 72.6076 62.3078 74.2699L59.9141 74.4441ZM70.941 76.068C69.3719 76.1822 68.1323 75.9582 67.2225 75.3961C66.3269 74.8463 65.8375 73.9996 65.7542 72.856C65.671 71.7123 66.0331 70.8103 66.8407 70.15C67.6482 69.4896 68.8432 69.1019 70.4257 68.9867C71.2901 68.9238 72.1346 68.9559 72.9594 69.0831C73.7841 69.2102 74.6237 69.4499 75.4782 69.8021C76.346 70.1534 77.2629 70.6281 78.2288 71.2262C79.1938 71.8111 80.2426 72.5369 81.3752 73.4036L79.9695 75.0299C78.8959 74.2391 77.9185 73.575 77.0372 73.0375C76.1682 72.4858 75.3677 72.0494 74.6358 71.7284C73.9029 71.394 73.2049 71.1707 72.5417 71.0586C71.8908 70.9322 71.2329 70.8931 70.568 70.9415C68.8658 71.0654 68.0515 71.6327 68.125 72.6433C68.1628 73.162 68.4046 73.5454 68.8505 73.7937C69.2954 74.0287 69.93 74.1162 70.7545 74.0562C71.7386 73.9846 72.4483 73.7257 72.8838 73.2796C73.3192 72.8335 73.506 72.1849 73.444 71.3338L72.5295 58.767L74.7835 58.603L75.6981 71.1698C75.8074 72.6725 75.4641 73.8338 74.6682 74.6537C73.8856 75.4727 72.6432 75.9441 70.941 76.068ZM65.2197 67.4405L65.076 65.4657L80.5152 64.3421L80.6589 66.3169L65.2197 67.4405ZM64.7241 63.3858L64.5775 61.3711L80.4156 60.2185L80.5622 62.2331L64.7241 63.3858ZM94.3558 74.0431C92.9196 74.1476 91.7727 73.9103 90.9151 73.331C90.0698 72.7374 89.605 71.8622 89.5208 70.7053C89.4347 69.5217 89.7673 68.5818 90.5188 67.8854C91.2702 67.189 92.3707 66.7881 93.8202 66.6826C94.4452 66.6371 95.0561 66.6729 95.6528 66.7898C96.2486 66.8935 96.873 67.1155 97.5261 67.4556C98.1791 67.7958 98.916 68.2769 99.7366 68.899C100.57 69.5068 101.549 70.2911 102.675 71.2519L101.314 72.9352C100.3 72.0464 99.425 71.3213 98.689 70.7599C97.9653 70.1843 97.3315 69.7425 96.7877 69.4344C96.2439 69.1264 95.7345 68.9229 95.2594 68.8238C94.7966 68.7104 94.3258 68.6711 93.8471 68.706C92.3045 68.8182 91.5739 69.4329 91.6552 70.5499C91.7355 71.6537 92.5469 72.1494 94.0895 72.0372C94.9273 71.9762 95.5065 71.7602 95.8271 71.3893C96.16 71.0041 96.297 70.406 96.2379 69.5948L95.3408 57.2674L97.6547 57.099L98.5591 69.5261C98.6607 70.9224 98.3515 72.001 97.6315 72.762C96.9238 73.5086 95.8319 73.9357 94.3558 74.0431ZM89.013 62.9015L88.8664 60.8869L101.553 59.9636L101.699 61.9783L89.013 62.9015ZM86.1836 74.9988C85.7382 73.6543 85.3873 72.3229 85.131 71.0047C84.8746 69.6865 84.6922 68.2827 84.5838 66.7933C84.4764 65.3172 84.4546 63.9151 84.5184 62.5869C84.5812 61.2455 84.7289 59.8778 84.9617 58.4839L87.3373 58.6118C87.112 59.925 86.967 61.239 86.9022 62.5538C86.8498 63.8544 86.8749 65.2095 86.9775 66.6191C87.0801 68.0287 87.2519 69.3798 87.4931 70.6723C87.7475 71.964 88.0802 73.2298 88.4913 74.4699L86.1836 74.9988ZM109.038 73.8168C108.367 73.0502 107.654 72.3401 106.898 71.6866C106.141 71.0198 105.328 70.4105 104.459 69.8588L105.975 68.1041C106.846 68.6824 107.682 69.3234 108.482 70.0272C109.28 70.7177 110.031 71.4719 110.732 72.2899L109.038 73.8168ZM126.857 72.881L126.176 63.5257L123.583 63.7145L123.402 61.2211L126.075 61.0265L125.61 54.6434L128.263 54.4503L128.728 60.8335L131.042 60.6651L131.223 63.1585L128.969 63.3225L129.65 72.6778L126.857 72.881ZM124.812 71.2251L123.428 68.1975C124.154 67.1554 124.72 66.1049 125.124 65.0461C125.541 63.9864 125.828 62.876 125.984 61.7149L127.117 62.3945C127.133 63.543 127.042 64.6726 126.842 65.7834C126.654 66.8799 126.381 67.8958 126.021 68.831C125.675 69.7653 125.271 70.5633 124.812 71.2251ZM130.407 68.7525C129.908 67.7728 129.403 66.8002 128.891 65.8348C128.392 64.8551 127.856 63.8313 127.284 62.7633L128.874 61.7452C129.42 62.628 129.951 63.4984 130.468 64.3564C130.984 65.2012 131.509 66.0787 132.043 66.989L130.407 68.7525ZM124.278 60.8565C124.036 60.1121 123.78 59.3486 123.509 58.5662C123.239 57.7838 122.98 57.0741 122.733 56.437L124.714 55.5509C124.975 56.2003 125.227 56.9105 125.47 57.6816C125.726 58.4384 125.963 59.2099 126.18 59.9962L124.278 60.8565ZM131.68 69.9833L131.226 67.3293L142.48 64.3646L142.934 67.0186L131.68 69.9833ZM135.192 65.6169C134.56 65.0212 133.887 64.4017 133.172 63.7586C132.457 63.1155 131.701 62.4753 130.906 61.838L132.842 59.7721C133.636 60.3961 134.39 61.023 135.104 61.6528C135.831 62.2684 136.503 62.8811 137.123 63.4911L135.192 65.6169ZM130.403 60.4308L128.309 59.761C128.523 59.0369 128.708 58.2615 128.861 57.4348C129.015 56.6081 129.126 55.838 129.195 55.1245L131.424 55.4436C131.32 56.2265 131.174 57.0593 130.984 57.9421C130.806 58.8106 130.613 59.6402 130.403 60.4308ZM138.407 72.0405L137.08 53.8087L140.172 53.5837L141.498 71.8155L138.407 72.0405ZM135.604 60.2528C135.057 59.7178 134.469 59.1724 133.84 58.6165C133.212 58.0607 132.556 57.5001 131.873 56.9349L133.81 54.8889C134.491 55.4276 135.145 55.9682 135.773 56.5107C136.4 57.0533 136.987 57.5854 137.533 58.1071L135.604 60.2528ZM149.183 70.775L149 68.2616L154.486 67.8624L154.384 66.4661L149.976 66.7869L149.806 64.4531L154.214 64.1323L153.833 58.8861L152.177 59.0066L152.039 57.1116L153.695 56.9911L153.573 55.3156L156.684 55.0891L156.806 56.7647L158.482 56.6427L158.36 54.9672L151.917 55.4361L152.461 62.9163L149.789 63.1108L149.069 53.217L160.917 52.3547L161.637 62.2485L152.461 62.9163L152.302 60.7221L158.745 60.2532L158.62 58.5377L156.944 58.6597L157.326 63.9058L161.974 63.5676L162.144 65.9014L157.496 66.2396L157.598 67.6359L162.465 67.2817L162.648 69.7951L149.183 70.775ZM144.249 69.9309L143.775 67.2783C144.366 67.1283 144.988 66.9494 145.641 66.7414C146.308 66.5325 146.967 66.3107 147.618 66.0762C148.283 65.8406 148.894 65.609 149.452 65.3812L149.661 67.9729C149.13 68.212 148.547 68.4551 147.909 68.7019C147.272 68.9488 146.634 69.1824 145.995 69.4027C145.355 69.6097 144.773 69.7858 144.249 69.9309ZM145.287 67.3888L144.936 62.5616L143.739 62.6487L143.545 59.9757L144.741 59.8886L144.529 56.9763L143.133 57.078L142.933 54.3252L148.638 53.9101L148.838 56.6628L147.482 56.7615L147.694 59.6738L148.93 59.5838L149.125 62.2567L147.888 62.3467L148.239 67.174L145.287 67.3888ZM164.033 68.7117C164.415 67.347 164.746 66.1131 165.027 65.0098C165.32 63.8922 165.57 62.8379 165.779 61.8468C166 60.8415 166.188 59.8385 166.342 58.838C166.509 57.8232 166.658 56.7429 166.788 55.5971C166.918 54.438 167.05 53.1383 167.186 51.6979L170.342 51.8091C170.241 53.1668 170.126 54.4318 169.997 55.6042C169.867 56.7633 169.715 57.884 169.54 58.9663C169.364 60.0352 169.155 61.1132 168.913 62.2003C168.684 63.2864 168.419 64.4153 168.117 65.587C167.814 66.7587 167.466 68.0407 167.073 69.4329L164.033 68.7117ZM179.738 64.9017C179.587 64.1239 179.393 63.2892 179.154 62.3975C178.929 61.5048 178.676 60.6074 178.397 59.7053C178.131 58.8023 177.847 57.9406 177.547 57.1202L180.521 56.1017C180.824 56.9619 181.116 57.8498 181.396 58.7651C181.676 59.6672 181.936 60.5774 182.177 61.4957C182.416 62.4007 182.62 63.2749 182.789 64.1182L179.738 64.9017ZM177.376 56.1501C176.992 55.4694 176.6 54.8563 176.199 54.3106C175.811 53.7507 175.382 53.1869 174.913 52.6195L176.77 51.4015C177.25 51.9414 177.686 52.5046 178.076 53.0912C178.466 53.6777 178.854 54.3246 179.24 55.0318L177.376 56.1501ZM180.21 54.861C179.839 54.1661 179.465 53.5382 179.09 52.9773C178.728 52.4021 178.319 51.8369 177.864 51.2818L179.706 50.1451C180.175 50.7125 180.592 51.2905 180.956 51.879C181.332 52.4665 181.708 53.121 182.081 53.8425L180.21 54.861ZM173.794 68.3823C173.435 68.4084 172.994 68.4005 172.469 68.3584C171.946 68.3297 171.4 68.2691 170.832 68.1768C170.264 68.0845 169.72 67.9702 169.203 67.8341L169.708 65.1303C170.114 65.2077 170.508 65.286 170.888 65.3653C171.267 65.4313 171.611 65.4798 171.921 65.5107C172.231 65.5416 172.472 65.5508 172.645 65.5382C173.004 65.5121 173.273 65.3455 173.451 65.0384C173.642 64.7304 173.752 64.2144 173.779 63.4905C173.819 62.7523 173.792 61.7383 173.698 60.4483C173.649 59.7701 173.583 59.2268 173.5 58.8185C173.415 58.3968 173.299 58.0778 173.149 57.8614C173 57.645 172.796 57.5061 172.537 57.4447C172.279 57.3833 171.937 57.3681 171.511 57.399L163.094 58.0116L162.889 55.1991L170.967 54.6112C171.978 54.5376 172.819 54.5165 173.49 54.5479C174.16 54.5793 174.704 54.7002 175.12 54.9105C175.536 55.1076 175.86 55.4382 176.095 55.9024C176.341 56.3524 176.526 56.9672 176.65 57.747C176.773 58.5134 176.876 59.4751 176.96 60.6321C177.092 62.4406 177.072 63.906 176.899 65.0281C176.739 66.136 176.404 66.9557 175.895 67.4875C175.399 68.0182 174.699 68.3165 173.794 68.3823ZM191.706 68.1617L191.328 62.9754L184.087 63.5023L183.899 60.9092L191.14 60.3822L191.079 59.5444L191.059 59.5459L190.911 57.5113L194.222 57.2703L194.139 56.1333L190.828 56.3743L190.686 54.4195L193.997 54.1785L193.917 53.0814L190.606 53.3224L191.059 59.5459L188.047 59.7651L187.425 51.2277L196.761 50.5483L197.382 59.0857L194.35 59.3064L194.411 60.1442L201.652 59.6172L201.84 62.2103L194.6 62.7373L194.977 67.9236L191.706 68.1617ZM184.888 68.4372L183.526 65.9896C185.275 65.3945 186.774 64.784 188.025 64.1582C189.289 63.5182 190.345 62.8731 191.193 62.2232L193.151 63.2237C192.23 64.1597 191.08 65.0723 189.701 65.9614C188.322 66.8505 186.717 67.6758 184.888 68.4372ZM183.975 60.3021L182.916 57.8725C183.681 57.5495 184.406 57.2293 185.092 56.912C185.776 56.5815 186.421 56.2538 187.025 55.9291L188.099 58.2774C187.483 58.6297 186.833 58.9778 186.149 59.3216C185.479 59.6645 184.754 59.9913 183.975 60.3021ZM201.763 67.2091C199.843 66.7206 198.136 66.1363 196.642 65.4562C195.149 64.7761 193.879 64.0397 192.832 63.2469L194.624 61.9735C195.558 62.4938 196.696 62.9791 198.039 63.4295C199.381 63.8666 200.953 64.2535 202.756 64.5902L201.763 67.2091ZM186.179 55.5897C185.725 55.235 185.202 54.8453 184.61 54.4205C184.016 53.9824 183.37 53.5548 182.671 53.1378L184.219 50.9798C184.891 51.3987 185.53 51.8268 186.137 52.2639C186.744 52.701 187.274 53.0969 187.728 53.4516L186.179 55.5897ZM192.965 52.6694L189.699 52.7066C189.81 52.2172 189.914 51.715 190.01 51.2C190.12 50.684 190.206 50.1296 190.27 49.5367L193.535 49.4796C193.471 50.0725 193.385 50.6336 193.276 51.1628C193.18 51.6778 193.076 52.18 192.965 52.6694ZM201.329 59.0391C200.641 58.7683 199.934 58.519 199.209 58.291C198.483 58.0497 197.732 57.8303 196.955 57.6328L197.837 55.1423C198.653 55.3369 199.423 55.5415 200.148 55.7562C200.872 55.9709 201.557 56.2084 202.205 56.4688L201.329 59.0391ZM198.62 54.604L196.704 52.7984C197.232 52.3455 197.766 51.8655 198.303 51.3584C198.84 50.8381 199.345 50.3335 199.818 49.8446L201.734 51.6502C201.339 52.1067 200.873 52.5885 200.335 53.0956C199.796 53.5893 199.224 54.0921 198.62 54.604ZM212.852 65.8206C211.242 65.9377 209.915 65.7871 208.868 65.3686C207.823 64.9634 207.023 64.2662 206.47 63.2771C205.929 62.2737 205.6 60.9609 205.482 59.3385L204.789 49.8236L208.1 49.5827L208.793 59.0975C208.894 60.4938 209.24 61.478 209.83 62.05C210.419 62.6088 211.351 62.8417 212.628 62.7488C213.585 62.6791 214.417 62.4381 215.122 62.0258C215.827 61.6136 216.456 60.9729 217.008 60.1039C217.573 59.2339 218.11 58.0719 218.619 56.6178L221.623 57.6625C221.165 59.0862 220.665 60.299 220.123 61.301C219.593 62.2887 218.984 63.1017 218.295 63.7401C217.606 64.3784 216.813 64.864 215.914 65.1967C215.029 65.5285 214.009 65.7365 212.852 65.8206ZM229.506 64.3078C228.774 64.3611 228.094 64.2033 227.466 63.8347C226.838 63.466 226.276 62.9186 225.782 62.1925C225.302 61.4655 224.903 60.5854 224.588 59.5523C224.285 58.5182 224.087 57.3628 223.994 56.0862C223.921 55.0755 223.931 54.0187 224.024 52.9157C224.118 51.8126 224.297 50.5964 224.561 49.2671L227.779 49.3939C227.531 50.5883 227.363 51.6767 227.274 52.6591C227.185 53.6415 227.173 54.5781 227.238 55.4691C227.295 56.2537 227.395 56.9751 227.536 57.6332C227.691 58.2904 227.873 58.8587 228.081 59.3381C228.29 59.8176 228.517 60.1887 228.764 60.4515C229.023 60.7001 229.285 60.8147 229.551 60.7953C229.817 60.776 230.101 60.635 230.402 60.3724C230.717 60.1088 231.033 59.7583 231.349 59.3209C231.677 58.8693 231.981 58.3658 232.261 57.8107C232.541 57.2422 232.772 56.6572 232.956 56.0557L235.959 57.3612C235.68 58.3039 235.309 59.1864 234.848 60.0088C234.4 60.8301 233.884 61.5561 233.302 62.1867C232.719 62.8173 232.107 63.3164 231.466 63.6839C230.824 64.0515 230.171 64.2595 229.506 64.3078ZM238.817 61.645C238.707 60.129 238.497 58.6269 238.188 57.1387C237.893 55.6496 237.507 54.2138 237.033 52.8313C236.571 51.4478 236.03 50.1637 235.409 48.979L238.358 47.902C239.049 49.1218 239.647 50.4552 240.153 51.9023C240.672 53.3351 241.09 54.8488 241.406 56.4433C241.736 58.0369 241.963 59.6914 242.088 61.4069L238.817 61.645ZM247.894 64.0324C247.136 64.0876 246.46 63.9764 245.865 63.6989C245.27 63.4213 244.792 63.0083 244.431 62.4597C244.084 61.9234 243.884 61.2763 243.828 60.5183C243.773 59.7603 243.878 59.0842 244.142 58.4902C244.42 57.8951 244.833 57.4238 245.383 57.0764C245.931 56.7156 246.585 56.5076 247.343 56.4525C248.101 56.3973 248.77 56.509 249.352 56.7875C249.946 57.0517 250.424 57.4582 250.784 58.0068C251.145 58.5553 251.353 59.2086 251.408 59.9666C251.464 60.7246 251.352 61.3945 251.073 61.9763C250.796 62.5713 250.383 63.0492 249.834 63.41C249.299 63.7698 248.652 63.9773 247.894 64.0324ZM247.726 61.7185C248.178 61.6856 248.527 61.5265 248.774 61.2412C249.02 60.9426 249.126 60.5739 249.094 60.135C249.062 59.6829 248.902 59.3335 248.617 59.0869C248.332 58.8403 247.963 58.7335 247.511 58.7664C247.072 58.7983 246.723 58.9574 246.463 59.2437C246.216 59.529 246.109 59.8977 246.142 60.3499C246.174 60.7887 246.333 61.1381 246.62 61.398C246.918 61.6436 247.287 61.7505 247.726 61.7185ZM277.913 61.8277C277.541 61.8548 277.068 61.8759 276.494 61.8909C275.921 61.9192 275.228 61.9496 274.415 61.982L274.041 59.3222C274.828 59.2917 275.488 59.2704 276.022 59.2582C276.555 59.2328 276.921 59.2129 277.12 59.1984C277.373 59.18 277.558 59.1531 277.676 59.1178C277.794 59.0825 277.862 59.004 277.879 58.8824C277.897 58.7608 277.897 58.5737 277.879 58.321L277.054 46.991L269.155 47.5658L268.961 44.8929L281.308 43.9943L281.502 46.6672L280.146 46.7659L280.962 57.9763C281.023 58.8141 281.037 59.4748 281.006 59.9583C280.975 60.4552 280.862 60.8244 280.665 61.066C280.47 61.3208 280.149 61.498 279.701 61.5973C279.267 61.6958 278.671 61.7726 277.913 61.8277ZM265.57 62.7862L264.598 49.4215L267.63 49.2008L268.602 62.5655L265.57 62.7862ZM263.816 56.3164L262.552 52.9994C263.16 52.1664 263.673 51.3136 264.09 50.441C264.521 49.5674 264.868 48.6331 265.13 47.6382C265.405 46.6423 265.613 45.5509 265.754 44.3643L268.662 44.6539C268.529 46.1208 268.281 47.4891 267.918 48.7587C267.556 50.0284 267.091 51.1718 266.524 52.189L266.169 51.4528C266.088 51.8063 265.957 52.2102 265.776 52.6645C265.594 53.1055 265.394 53.5613 265.174 54.0318C264.953 54.4891 264.724 54.9202 264.486 55.3252C264.26 55.7159 264.037 56.0463 263.816 56.3164ZM269.532 59.0888L268.817 49.2548L275.998 48.7322L276.597 56.9704L272.109 57.2971L271.944 55.0231L273.899 54.8808L273.63 51.1906L271.675 51.3328L272.225 58.8928L269.532 59.0888ZM283.716 60.0017C284.098 58.6371 284.429 57.4031 284.71 56.2998C285.003 55.1823 285.254 54.128 285.462 53.1369C285.683 52.1315 285.871 51.1286 286.026 50.1281C286.192 49.1133 286.341 48.033 286.471 46.8871C286.601 45.728 286.734 44.4283 286.87 42.988L290.026 43.0992C289.924 44.4568 289.809 45.7218 289.68 46.8942C289.551 48.0534 289.399 49.1741 289.223 50.2563C289.047 51.3252 288.838 52.4033 288.596 53.4903C288.368 54.5764 288.103 55.7054 287.8 56.8771C287.498 58.0488 287.15 59.3307 286.756 60.723L283.716 60.0017ZM299.421 56.1918C299.271 55.414 299.076 54.5792 298.838 53.6875C298.612 52.7948 298.36 51.8975 298.08 50.9954C297.814 50.0923 297.531 49.2306 297.23 48.4102L300.204 47.3917C300.508 48.252 300.799 49.1398 301.08 50.0552C301.36 50.9573 301.62 51.8675 301.86 52.7857C302.1 53.6907 302.304 54.5649 302.472 55.4082L299.421 56.1918ZM297.06 47.4401C296.676 46.7595 296.284 46.1463 295.883 45.6006C295.495 45.0407 295.066 44.477 294.597 43.9095L296.453 42.6916C296.934 43.2315 297.369 43.7947 297.759 44.3812C298.15 44.9678 298.538 45.6147 298.923 46.3219L297.06 47.4401ZM299.893 46.151C299.522 45.4561 299.149 44.8282 298.774 44.2673C298.411 43.6921 298.002 43.127 297.547 42.5718L299.39 41.4351C299.859 42.0026 300.275 42.5805 300.639 43.169C301.016 43.7565 301.391 44.411 301.764 45.1325L299.893 46.151ZM293.478 59.6723C293.119 59.6984 292.677 59.6905 292.153 59.6484C291.629 59.6197 291.083 59.5592 290.515 59.4668C289.947 59.3745 289.404 59.2603 288.886 59.1242L289.391 56.4204C289.798 56.4977 290.191 56.576 290.571 56.6553C290.95 56.7213 291.295 56.7698 291.605 56.8007C291.914 56.8317 292.156 56.8408 292.329 56.8282C292.688 56.8021 292.956 56.6355 293.134 56.3284C293.326 56.0204 293.435 55.5044 293.463 54.7805C293.503 54.0423 293.476 53.0283 293.382 51.7384C293.332 51.0602 293.266 50.5169 293.183 50.1085C293.099 49.6868 292.982 49.3678 292.833 49.1514C292.683 48.935 292.479 48.7961 292.221 48.7347C291.962 48.6733 291.62 48.6581 291.195 48.6891L282.777 49.3017L282.572 46.4891L290.651 45.9012C291.662 45.8276 292.502 45.8066 293.173 45.838C293.844 45.8694 294.387 45.9902 294.804 46.2006C295.219 46.3976 295.544 46.7282 295.778 47.1924C296.025 47.6424 296.21 48.2572 296.334 49.037C296.456 49.8035 296.56 50.7652 296.644 51.9221C296.775 53.7306 296.755 55.196 296.583 56.3181C296.423 57.426 296.088 58.2458 295.579 58.7775C295.082 59.3082 294.382 59.6065 293.478 59.6723ZM311.389 59.4517L311.012 54.2654L303.771 54.7924L303.582 52.1992L310.823 51.6723L310.762 50.8345L310.742 50.8359L310.594 48.8013L313.905 48.5603L313.823 47.4233L310.511 47.6643L310.369 45.7095L313.68 45.4685L313.6 44.3714L310.289 44.6124L310.742 50.8359L307.73 51.0551L307.109 42.5177L316.444 41.8383L317.065 50.3758L314.033 50.5964L314.094 51.4342L321.335 50.9072L321.524 53.5004L314.283 54.0273L314.661 59.2136L311.389 59.4517ZM304.571 59.7273L303.21 57.2796C304.958 56.6845 306.458 56.0741 307.709 55.4483C308.972 54.8082 310.028 54.1632 310.877 53.5132L312.835 54.5137C311.913 55.4497 310.763 56.3623 309.384 57.2514C308.005 58.1405 306.401 58.9658 304.571 59.7273ZM303.658 51.5921L302.599 49.1626C303.364 48.8395 304.09 48.5193 304.775 48.2021C305.46 47.8715 306.104 47.5439 306.709 47.2191L307.782 49.5674C307.166 49.9197 306.516 50.2678 305.833 50.6117C305.163 50.9545 304.438 51.2814 303.658 51.5921ZM321.447 58.4992C319.526 58.0106 317.819 57.4263 316.326 56.7462C314.833 56.0662 313.562 55.3297 312.515 54.537L314.308 53.2635C315.241 53.7838 316.38 54.2691 317.722 54.7195C319.064 55.1566 320.637 55.5435 322.439 55.8802L321.447 58.4992ZM305.862 46.8797C305.408 46.525 304.885 46.1353 304.293 45.7105C303.7 45.2724 303.054 44.8448 302.355 44.4278L303.902 42.2698C304.575 42.6888 305.214 43.1168 305.821 43.5539C306.427 43.9911 306.957 44.387 307.411 44.7416L305.862 46.8797ZM312.648 43.9595L309.382 43.9966C309.494 43.5072 309.597 43.005 309.694 42.49C309.803 41.974 309.89 41.4196 309.954 40.8268L313.218 40.7697C313.154 41.3625 313.068 41.9236 312.96 42.4529C312.863 42.9679 312.759 43.4701 312.648 43.9595ZM321.012 50.3291C320.324 50.0584 319.618 49.809 318.893 49.581C318.166 49.3398 317.415 49.1204 316.639 48.9229L317.52 46.4323C318.337 46.6269 319.107 46.8316 319.831 47.0462C320.555 47.2609 321.241 47.4984 321.888 47.7588L321.012 50.3291ZM318.303 45.8941L316.387 44.0884C316.916 43.6355 317.449 43.1555 317.987 42.6485C318.524 42.1281 319.029 41.6235 319.501 41.1346L321.417 42.9403C321.023 43.3968 320.556 43.8786 320.018 44.3856C319.479 44.8794 318.908 45.3822 318.303 45.8941ZM332.535 57.1107C330.926 57.2278 329.598 57.0771 328.552 56.6586C327.506 56.2534 326.707 55.5563 326.154 54.5672C325.613 53.5638 325.283 52.2509 325.165 50.6285L324.473 41.1137L327.784 40.8727L328.476 50.3875C328.578 51.7838 328.924 52.768 329.513 53.3401C330.102 53.8988 331.035 54.1317 332.311 54.0388C333.269 53.9691 334.1 53.7281 334.806 53.3159C335.511 52.9036 336.139 52.2629 336.691 51.3939C337.256 50.524 337.793 49.3619 338.302 47.9078L341.306 48.9525C340.848 50.3762 340.348 51.589 339.806 52.591C339.276 53.5787 338.667 54.3918 337.978 55.0301C337.29 55.6684 336.496 56.154 335.598 56.4867C334.713 56.8185 333.692 57.0265 332.535 57.1107ZM52.5935 113.278C51.8621 113.331 51.1821 113.173 50.5537 112.805C49.9253 112.436 49.3641 111.889 48.8701 111.163C48.3894 110.435 47.9911 109.555 47.6753 108.522C47.3728 107.488 47.1751 106.333 47.0822 105.056C47.0086 104.046 47.0186 102.989 47.1121 101.886C47.2056 100.783 47.3845 99.5664 47.6487 98.2371L50.8664 98.3639C50.6191 99.5583 50.451 100.647 50.3621 101.629C50.2731 102.611 50.2611 103.548 50.3259 104.439C50.383 105.224 50.4823 105.945 50.6238 106.603C50.7786 107.26 50.9603 107.829 51.169 108.308C51.3777 108.788 51.6052 109.159 51.8516 109.422C52.1103 109.67 52.3727 109.785 52.6386 109.765C52.9046 109.746 53.1884 109.605 53.4902 109.342C53.8052 109.079 54.1206 108.728 54.4363 108.291C54.7644 107.839 55.0687 107.336 55.3491 106.781C55.6286 106.212 55.8601 105.627 56.0436 105.026L59.0463 106.331C58.7673 107.274 58.397 108.156 57.9355 108.979C57.4873 109.8 56.9719 110.526 56.3895 111.157C55.8071 111.787 55.195 112.286 54.5533 112.654C53.9117 113.021 53.2584 113.229 52.5935 113.278ZM61.9047 110.615C61.7944 109.099 61.5848 107.597 61.276 106.109C60.9805 104.62 60.5952 103.184 60.1203 101.801C59.6587 100.418 59.1174 99.1337 58.4964 97.949L61.446 96.872C62.1364 98.0918 62.7347 99.4252 63.2411 100.872C63.7598 102.305 64.1774 103.819 64.494 105.413C64.8239 107.007 65.0512 108.661 65.1761 110.377L61.9047 110.615ZM71.8127 108.711C73.7808 108.568 75.3484 108.34 76.5155 108.028C77.6816 107.702 78.5056 107.268 78.9874 106.725C79.4826 106.181 79.7002 105.496 79.6402 104.672C79.5763 103.794 79.2506 103.176 78.663 102.818C78.0888 102.459 77.1966 102.323 75.9864 102.411C75.4545 102.45 74.8728 102.539 74.2412 102.679C73.6087 102.805 72.8732 102.985 72.0347 103.22C71.2085 103.441 70.2276 103.739 69.092 104.116L68.2987 101.206C70.026 100.693 71.5145 100.297 72.7643 100.019C74.0141 99.7407 75.0844 99.5692 75.9754 99.5044C78.0765 99.3515 79.7042 99.6742 80.8586 100.473C82.0129 101.271 82.651 102.508 82.7729 104.183C82.9297 106.338 82.1174 108.034 80.336 109.274C78.5679 110.512 75.862 111.264 72.2183 111.529L71.8127 108.711ZM100.072 109.883C98.3967 110.005 96.9202 109.831 95.6428 109.363C94.3664 108.908 93.3524 108.199 92.6006 107.238C91.8488 106.277 91.4231 105.111 91.3234 103.742C91.2538 102.784 91.3485 101.881 91.6076 101.034C91.8668 100.186 92.2724 99.4213 92.8243 98.7394C93.3886 98.0433 94.0756 97.4719 94.8853 97.0253L95.251 97.6404L86.5884 98.4713L86.3779 95.579L103.364 93.9418L103.574 96.8341L101.025 97.0798C100.109 97.1598 99.2547 97.3624 98.4628 97.6874C97.671 98.0124 96.9871 98.4432 96.4112 98.9797C95.8344 99.503 95.3977 100.116 95.1013 100.82C94.8182 101.522 94.7076 102.299 94.7696 103.15C94.8335 104.028 95.0738 104.759 95.4907 105.343C95.9066 105.915 96.4857 106.34 97.228 106.621C97.9826 106.887 98.8652 106.983 99.8759 106.909C100.248 106.882 100.666 106.832 101.128 106.758C101.591 106.684 102.019 106.593 102.412 106.484L102.987 109.43C102.501 109.546 102 109.642 101.484 109.72C100.982 109.796 100.511 109.851 100.072 109.883ZM111.621 109.864C110.935 109.072 110.207 108.336 109.435 107.657C108.664 106.978 107.831 106.364 106.935 105.814L109.032 103.496C109.904 104.087 110.747 104.741 111.561 105.457C112.375 106.173 113.14 106.94 113.854 107.757L111.621 109.864ZM135.676 107.532C134.066 107.649 132.739 107.499 131.692 107.08C130.647 106.675 129.847 105.978 129.294 104.989C128.753 103.985 128.424 102.673 128.306 101.05L127.613 91.5353L130.924 91.2944L131.617 100.809C131.718 102.206 132.064 103.19 132.654 103.762C133.243 104.32 134.175 104.553 135.452 104.46C136.409 104.391 137.241 104.15 137.946 103.738C138.651 103.325 139.28 102.685 139.832 101.816C140.397 100.946 140.934 99.7836 141.443 98.3295L144.447 99.3742C143.989 100.798 143.489 102.011 142.947 103.013C142.417 104 141.808 104.813 141.119 105.452C140.43 106.09 139.637 106.576 138.738 106.908C137.853 107.24 136.833 107.448 135.676 107.532ZM160.779 106.668C159.956 106.193 159.189 105.754 158.477 105.352C157.781 104.961 157.092 104.59 156.411 104.239C155.743 103.873 155.041 103.503 154.305 103.129C153.569 102.754 152.75 102.339 151.848 101.884C150.904 101.404 150.14 101.005 149.555 100.687C148.984 100.367 148.542 100.085 148.23 99.8408C147.931 99.5818 147.725 99.3228 147.612 99.0636C147.499 98.7911 147.429 98.4753 147.403 98.1163C147.376 97.7439 147.405 97.4143 147.492 97.1273C147.577 96.827 147.756 96.5332 148.029 96.2459C148.301 95.9454 148.698 95.609 149.219 95.2369C149.752 94.8505 150.44 94.386 151.283 93.8434C152.114 93.315 152.982 92.7506 153.887 92.1499C154.792 91.536 155.683 90.923 156.561 90.311C157.438 89.6857 158.231 89.0999 158.939 88.5537L160.886 91.059C160.455 91.3712 159.959 91.7214 159.399 92.1098C158.838 92.4848 158.251 92.8751 157.639 93.2806C157.04 93.6851 156.447 94.0759 155.859 94.4528C155.284 94.8155 154.767 95.1473 154.308 95.4481C153.861 95.7346 153.503 95.9612 153.234 96.1278C152.671 96.4762 152.23 96.7556 151.911 96.966C151.606 97.1754 151.398 97.3443 151.287 97.4727C151.176 97.6011 151.124 97.7251 151.133 97.8448C151.143 97.9778 151.191 98.0946 151.279 98.1952C151.366 98.2824 151.561 98.4019 151.867 98.5535C152.172 98.705 152.643 98.9381 153.281 99.2526C153.599 99.39 154.028 99.5927 154.569 99.8608C155.122 100.115 155.738 100.411 156.418 100.749C157.111 101.086 157.811 101.436 158.52 101.799C159.241 102.161 159.936 102.525 160.604 102.891C161.286 103.256 161.892 103.592 162.423 103.901L160.779 106.668ZM171.907 104.715C171.242 104.764 170.599 104.663 169.98 104.414C169.36 104.165 168.793 103.812 168.278 103.355C167.776 102.883 167.369 102.345 167.058 101.739C166.746 101.134 166.566 100.485 166.515 99.7935C166.437 98.7163 166.709 97.7741 167.332 96.9667C167.969 96.1584 168.917 95.5012 170.177 94.9951C171.436 94.489 172.957 94.1711 174.739 94.0414C176.535 93.9107 178.26 94.0191 179.917 94.3665C181.586 94.7129 183.24 95.3077 184.879 96.151L183.961 98.965C182.902 98.3737 181.886 97.9129 180.913 97.5826C179.952 97.2381 178.986 97.0143 178.016 96.9111C177.059 96.7936 176.035 96.7746 174.944 96.8539C173.189 96.9817 171.841 97.287 170.9 97.7699C169.958 98.2395 169.514 98.84 169.567 99.5714C169.585 99.8108 169.642 100.047 169.739 100.281C169.85 100.513 169.992 100.724 170.166 100.911C170.34 101.099 170.518 101.253 170.701 101.374C170.883 101.481 171.066 101.528 171.253 101.514C171.625 101.487 171.94 101.23 172.199 100.743C172.457 100.243 172.653 99.534 172.786 98.6152C172.919 97.6831 172.982 96.5355 172.977 95.1723C172.984 93.8081 172.923 92.2351 172.794 90.4531L173.639 91.3141L166.856 91.8077L166.658 89.0749L175.993 88.3955L176.007 88.595C176.205 91.3078 176.269 93.6627 176.201 95.6596C176.145 97.6555 175.952 99.3139 175.62 100.635C175.288 101.942 174.812 102.933 174.192 103.606C173.573 104.28 172.811 104.649 171.907 104.715ZM176.874 102.429C177.326 102.035 177.7 101.66 177.995 101.304C178.289 100.935 178.52 100.524 178.687 100.071C178.854 99.6041 178.96 99.0415 179.006 98.3832C179.065 97.7238 179.073 96.9211 179.031 95.975C179.001 95.0146 178.936 93.8429 178.835 92.4599L178.567 88.7697L181.719 88.5403L182 92.4101C182.112 93.9527 182.176 95.2849 182.191 96.4068C182.219 97.5277 182.189 98.4991 182.102 99.3209C182.014 100.129 181.858 100.836 181.635 101.44C181.424 102.031 181.129 102.573 180.75 103.069C180.372 103.564 179.9 104.06 179.335 104.556L176.874 102.429ZM196.875 98.9677C196.768 97.4916 196.612 96.3533 196.406 95.5527C196.213 94.7379 195.932 94.1835 195.563 93.8895C195.194 93.5955 194.691 93.4718 194.052 93.5182C193.441 93.5627 192.866 93.7449 192.327 94.0648C191.803 94.3838 191.284 94.8761 190.771 95.5417C190.257 96.1941 189.718 97.0555 189.154 98.1259L186.391 96.803C186.997 95.7696 187.523 94.8156 187.967 93.941C188.411 93.0665 188.804 92.2157 189.145 91.3888C189.498 90.5476 189.809 89.6827 190.079 88.7941C190.362 87.9046 190.632 86.9358 190.89 85.8876L194.139 86.1725C193.837 87.3442 193.502 88.4381 193.135 89.4541C192.78 90.4558 192.39 91.4334 191.965 92.3867L191.527 92.1579C192.027 91.8675 192.572 91.6407 193.162 91.4775C193.751 91.3009 194.324 91.1923 194.883 91.1517C195.987 91.0714 196.897 91.2725 197.614 91.7551C198.344 92.2367 198.905 93.0515 199.296 94.1994C199.699 95.3331 199.969 96.8442 200.107 98.7325L196.875 98.9677ZM197.29 103.289C195.216 103.44 193.569 103.226 192.35 102.646C191.146 102.078 190.501 101.203 190.415 100.019C190.355 99.1949 190.583 98.3829 191.1 97.5832C191.616 96.7836 192.403 96.0179 193.459 95.2859C194.528 94.5397 195.841 93.8426 197.398 93.1945C198.968 92.5455 200.757 91.9541 202.763 91.4204L203.413 94.0201C201.867 94.4401 200.482 94.8818 199.259 95.3451C198.036 95.8085 196.994 96.2787 196.133 96.7557C195.285 97.2319 194.644 97.6996 194.21 98.159C193.775 98.6184 193.573 99.0609 193.604 99.4865C193.637 99.9386 193.955 100.263 194.558 100.46C195.16 100.657 196.02 100.714 197.137 100.633C197.895 100.578 198.769 100.461 199.758 100.282C200.76 100.089 201.905 99.8382 203.193 99.5306L203.788 102.194C203.105 102.364 202.368 102.525 201.577 102.676C200.799 102.826 200.033 102.956 199.279 103.064C198.538 103.171 197.875 103.246 197.29 103.289ZM186.109 90.7274L185.922 88.1542L201.979 86.9856L202.166 89.5588L186.109 90.7274ZM208.532 102.912L206.542 100.63C207.385 99.914 208.076 99.1218 208.614 98.2537C209.165 97.3714 209.55 96.4077 209.768 95.3624C209.998 94.3029 210.068 93.1481 209.977 91.8981L209.731 88.527L207.836 88.6649L207.648 86.0718L214.43 85.5782L214.619 88.1713L212.823 88.302L213.069 91.6731C213.149 92.7768 213.089 93.8841 212.889 94.9949C212.703 96.1047 212.399 97.1629 211.977 98.1694C211.556 99.176 211.047 100.089 210.452 100.907C209.87 101.725 209.23 102.393 208.532 102.912ZM214.334 101.347C213.689 100.378 213.031 99.4229 212.361 98.4824C211.691 97.5419 211.001 96.6028 210.291 95.6652L212.495 94.2615C213.257 95.182 213.971 96.0859 214.637 96.9732C215.304 97.8605 215.927 98.7175 216.509 99.5441L214.334 101.347ZM206.184 94.6205L205.99 91.9476L215.465 91.2581L215.659 93.931L206.184 94.6205ZM208.144 91.5101L205.575 90.6543C205.897 89.7486 206.178 88.7455 206.419 87.6451C206.673 86.5438 206.871 85.4131 207.014 84.253L209.717 84.4773C209.609 85.7419 209.418 86.979 209.145 88.1887C208.885 89.3841 208.551 90.4912 208.144 91.5101ZM216.33 102.044L215.105 85.2082L223.542 84.5942L224.768 101.43L221.756 101.649L221.679 100.592L219.165 100.775L218.977 98.1814L221.49 97.9985L220.725 87.4863L218.212 87.6692L219.242 101.832L216.33 102.044ZM241.826 99.4062C240.868 99.4759 240.159 99.2802 239.698 98.8191C239.235 98.3448 238.963 97.5491 238.882 96.432L238.387 89.63C238.337 88.9385 238.22 88.439 238.037 88.1314C237.867 87.8096 237.622 87.6603 237.303 87.6836C237.103 87.6981 236.863 87.7891 236.581 87.9567C236.312 88.1233 235.959 88.4097 235.52 88.8159C235.081 89.2088 234.52 89.7644 233.837 90.4825C233.153 91.1873 232.31 92.0976 231.308 93.2132L230.969 93.2379C230.489 93.8076 229.955 94.4481 229.365 95.1595C228.774 95.8575 228.122 96.6336 227.408 97.4876L225.561 94.975C227.159 93.2278 228.529 91.7578 229.672 90.565C230.827 89.358 231.812 88.3706 232.625 87.6029C233.437 86.8219 234.135 86.2163 234.718 85.7861C235.302 85.356 235.822 85.0575 236.278 84.8906C236.746 84.7095 237.206 84.6025 237.658 84.5696C238.855 84.4825 239.778 84.7696 240.428 85.4308C241.076 86.0788 241.452 87.1009 241.553 88.4972L241.996 94.5811C242.031 95.0599 242.071 95.4246 242.116 95.6753C242.16 95.9127 242.211 96.0694 242.27 96.1453C242.343 96.2203 242.439 96.2534 242.558 96.2447C242.771 96.2292 243.058 96.1348 243.42 95.9614C243.795 95.7871 244.225 95.5485 244.711 95.2458L245.56 98.0917C244.986 98.4677 244.379 98.7658 243.74 98.9861C243.102 99.2197 242.464 99.3597 241.826 99.4062ZM230.507 100.932L229.644 89.0831L225.416 89.3909L225.218 86.6781L229.447 86.3703L229.252 83.6974L232.404 83.468L233.658 100.702L230.507 100.932ZM255.362 99.143C253.341 99.2901 251.741 99.0657 250.561 98.4697C249.394 97.8728 248.767 96.9693 248.679 95.7591C248.604 94.7219 248.977 93.8859 249.8 93.2512C250.635 92.6022 251.811 92.2225 253.327 92.1122C254.696 92.0125 255.739 92.1907 256.454 92.6466C257.168 93.0893 257.561 93.8093 257.634 94.8067C257.66 95.1657 257.647 95.5476 257.597 95.9524C257.546 96.3571 257.461 96.751 257.342 97.134L254.589 97.0536C254.708 96.6706 254.797 96.3366 254.857 96.0515C254.915 95.7532 254.938 95.5109 254.924 95.3247C254.875 94.6465 254.325 94.3456 253.274 94.4221C252.729 94.4618 252.316 94.5787 252.036 94.7729C251.755 94.9537 251.627 95.2037 251.65 95.5229C251.683 95.975 251.961 96.3024 252.483 96.505C253.006 96.7076 253.766 96.7726 254.763 96.7C256.732 96.5568 258.148 96.1796 259.013 95.5686C259.89 94.9566 260.288 94.0788 260.205 92.9351C260.131 91.9245 259.705 91.2202 258.928 90.8222C258.163 90.41 256.942 90.2649 255.267 90.3868C254.309 90.4565 253.477 90.5973 252.771 90.8091C252.064 91.0209 251.397 91.3168 250.77 91.6967L248.394 93.2132L246.937 90.8326L256.923 84.7718L256.954 85.1907L247.778 85.8584L247.581 83.1456L261.663 82.1207L261.861 84.8336L252.017 90.9241L250.255 89.5885C250.697 89.4093 251.205 89.2319 251.781 89.0563C252.356 88.8808 252.953 88.7171 253.57 88.5652C254.187 88.4133 254.786 88.2895 255.368 88.1937C255.948 88.0846 256.464 88.0137 256.916 87.9807C258.911 87.8356 260.478 88.156 261.618 88.942C262.758 89.7147 263.385 90.8989 263.501 92.4947C263.642 94.4229 263.005 95.9665 261.592 97.1255C260.178 98.2711 258.102 98.9436 255.362 99.143ZM275.872 97.1491C274.276 97.2652 272.873 97.1802 271.662 96.894C270.452 96.621 269.498 96.1758 268.798 95.5584C268.111 94.9399 267.735 94.1785 267.669 93.2743C267.615 92.5296 267.789 91.7147 268.193 90.8298C268.596 89.9448 269.245 88.9417 270.139 87.8205L273.216 88.7597C272.489 89.6147 271.944 90.383 271.579 91.0646C271.213 91.7329 271.045 92.2732 271.075 92.6855C271.103 93.0711 271.301 93.3976 271.668 93.665C272.047 93.9182 272.575 94.1003 273.252 94.2115C273.94 94.3084 274.744 94.3235 275.661 94.2567C276.3 94.2103 277.001 94.1191 277.767 93.9832C278.546 93.8463 279.322 93.6762 280.096 93.4728C280.883 93.2684 281.596 93.0495 282.234 92.8159L283.063 95.6632C282.424 95.8835 281.684 96.0978 280.844 96.306C280.004 96.5275 279.148 96.7101 278.277 96.8538C277.418 96.9964 276.616 97.0949 275.872 97.1491ZM268.059 84.8637L267.849 81.9714L281.413 80.9842L281.624 83.8766L268.059 84.8637ZM295.643 96.0311C293.103 96.2159 291.145 95.944 289.768 95.2153C288.391 94.4867 287.646 93.3311 287.53 91.7486C287.434 90.4188 287.825 89.1805 288.704 88.0336C289.595 86.8725 291.019 85.773 292.976 84.7349C294.945 83.6825 297.496 82.6479 300.631 81.6311L301.579 84.4697C299.085 85.2796 297.037 86.0703 295.435 86.8419C293.846 87.5993 292.677 88.3461 291.929 89.0824C291.179 89.8053 290.831 90.5325 290.884 91.2639C290.99 92.7134 292.572 93.3269 295.63 93.1043C296.162 93.0656 296.706 93.0059 297.262 92.9254C297.83 92.8439 298.497 92.7219 299.26 92.5594C300.036 92.3826 300.976 92.1671 302.081 91.9129L302.69 94.7763C301.365 95.1134 300.121 95.3843 298.959 95.5892C297.799 95.8073 296.693 95.9546 295.643 96.0311ZM290.806 87.4395C290.338 86.1501 289.918 84.8705 289.544 83.6009C289.185 82.3304 288.888 81.102 288.655 79.9158L291.93 79.1762C292.163 80.3623 292.459 81.5774 292.816 82.8214C293.187 84.0511 293.602 85.2508 294.061 86.4206L290.806 87.4395ZM306.276 94.4551C306.658 93.0905 306.99 91.8565 307.27 90.7532C307.563 89.6357 307.814 88.5813 308.023 87.5903C308.244 86.5849 308.431 85.582 308.586 84.5814C308.753 83.5667 308.901 82.4864 309.032 81.3405C309.161 80.1814 309.294 78.8817 309.43 77.4414L312.586 77.5525C312.484 78.9102 312.369 80.1752 312.241 81.3476C312.111 82.5068 311.959 83.6274 311.784 84.7097C311.607 85.7786 311.398 86.8566 311.157 87.9437C310.928 89.0298 310.663 90.1587 310.36 91.3304C310.058 92.5022 309.71 93.7841 309.317 95.1763L306.276 94.4551ZM321.981 90.6452C321.831 89.8673 321.637 89.0326 321.398 88.1409C321.173 87.2482 320.92 86.3509 320.641 85.4488C320.374 84.5457 320.091 83.684 319.791 82.8636L322.765 81.8451C323.068 82.7053 323.36 83.5932 323.64 84.5086C323.92 85.4106 324.18 86.3208 324.42 87.2391C324.66 88.1441 324.864 89.0183 325.032 89.8616L321.981 90.6452ZM319.62 81.8935C319.236 81.2129 318.844 80.5997 318.443 80.054C318.055 79.4941 317.626 78.9304 317.157 78.3629L319.014 77.145C319.494 77.6848 319.929 78.2481 320.32 78.8346C320.71 79.4212 321.098 80.068 321.484 80.7752L319.62 81.8935ZM322.454 80.6044C322.082 79.9095 321.709 79.2816 321.334 78.7207C320.971 78.1455 320.563 77.5803 320.108 77.0252L321.95 75.8885C322.419 76.4559 322.836 77.0339 323.199 77.6224C323.576 78.2099 323.951 78.8644 324.325 79.5859L322.454 80.6044ZM316.038 94.1257C315.679 94.1518 315.237 94.1439 314.713 94.1018C314.19 94.0731 313.644 94.0125 313.075 93.9202C312.507 93.8279 311.964 93.7137 311.446 93.5776L311.951 90.8738C312.358 90.9511 312.751 91.0294 313.132 91.1087C313.511 91.1747 313.855 91.2232 314.165 91.2541C314.475 91.285 314.716 91.2942 314.889 91.2816C315.248 91.2555 315.516 91.0889 315.695 90.7818C315.886 90.4738 315.996 89.9578 316.023 89.2339C316.063 88.4957 316.036 87.4817 315.942 86.1918C315.893 85.5135 315.826 84.9703 315.743 84.5619C315.659 84.1402 315.542 83.8212 315.393 83.6048C315.243 83.3884 315.039 83.2495 314.781 83.1881C314.523 83.1267 314.181 83.1115 313.755 83.1425L305.337 83.7551L305.133 80.9425L313.211 80.3546C314.222 80.281 315.063 80.2599 315.733 80.2913C316.404 80.3227 316.948 80.4436 317.364 80.6539C317.779 80.851 318.104 81.1816 318.338 81.6458C318.585 82.0958 318.77 82.7106 318.894 83.4904C319.016 84.2568 319.12 85.2185 319.204 86.3755C319.336 88.184 319.315 89.6494 319.143 90.7715C318.983 91.8794 318.648 92.6992 318.139 93.2309C317.643 93.7616 316.942 94.0599 316.038 94.1257ZM333.949 93.9051L333.572 88.7188L326.331 89.2457L326.142 86.6526L333.383 86.1256L333.322 85.2879L333.302 85.2893L333.154 83.2547L336.466 83.0137L336.383 81.8767L333.072 82.1177L332.929 80.1629L336.241 79.9219L336.161 78.8248L332.849 79.0658L333.302 85.2893L330.29 85.5085L329.669 76.9711L339.004 76.2917L339.626 84.8291L336.594 85.0498L336.655 85.8876L343.895 85.3606L344.084 87.9538L336.843 88.4807L337.221 93.667L333.949 93.9051ZM327.131 94.1807L325.77 91.733C327.518 91.1379 329.018 90.5274 330.269 89.9016C331.533 89.2616 332.589 88.6166 333.437 87.9666L335.395 88.9671C334.474 89.9031 333.324 90.8157 331.944 91.7048C330.565 92.5939 328.961 93.4192 327.131 94.1807ZM326.219 86.0455L325.159 83.6159C325.925 83.2929 326.65 82.9727 327.335 82.6555C328.02 82.3249 328.665 81.9973 329.269 81.6725L330.342 84.0208C329.726 84.3731 329.077 84.7212 328.393 85.065C327.723 85.4079 326.998 85.7347 326.219 86.0455ZM344.007 92.9526C342.086 92.464 340.379 91.8797 338.886 91.1996C337.393 90.5195 336.123 89.7831 335.076 88.9904L336.868 87.7169C337.802 88.2372 338.94 88.7225 340.283 89.1729C341.625 89.61 343.197 89.9969 344.999 90.3336L344.007 92.9526ZM328.422 81.3331C327.969 80.9784 327.446 80.5887 326.853 80.1639C326.26 79.7258 325.614 79.2982 324.915 78.8812L326.463 76.7232C327.135 77.1422 327.774 77.5702 328.381 78.0073C328.987 78.4444 329.518 78.8403 329.971 79.195L328.422 81.3331ZM335.208 78.4128L331.942 78.45C332.054 77.9606 332.158 77.4584 332.254 76.9434C332.363 76.4274 332.45 75.873 332.514 75.2801L335.778 75.2231C335.714 75.8159 335.628 76.377 335.52 76.9063C335.424 77.4213 335.32 77.9235 335.208 78.4128ZM343.573 84.7825C342.885 84.5118 342.178 84.2624 341.453 84.0344C340.727 83.7932 339.975 83.5738 339.199 83.3763L340.081 80.8857C340.897 81.0803 341.667 81.2849 342.391 81.4996C343.115 81.7143 343.801 81.9518 344.448 82.2122L343.573 84.7825ZM340.864 80.3475L338.948 78.5418C339.476 78.0889 340.009 77.6089 340.547 77.1019C341.084 76.5815 341.589 76.0769 342.061 75.588L343.977 77.3937C343.583 77.8502 343.117 78.3319 342.579 78.839C342.04 79.3327 341.468 79.8356 340.864 80.3475ZM355.095 91.5641C353.486 91.6812 352.158 91.5305 351.112 91.112C350.066 90.7068 349.267 90.0097 348.714 89.0205C348.173 88.0172 347.843 86.7043 347.725 85.0819L347.033 75.5671L350.344 75.3261L351.037 84.8409C351.138 86.2372 351.484 87.2214 352.074 87.7934C352.662 88.3522 353.595 88.5851 354.872 88.4922C355.829 88.4225 356.661 88.1815 357.366 87.7693C358.071 87.357 358.7 86.7163 359.251 85.8473C359.816 84.9774 360.353 83.8153 360.863 82.3612L363.866 83.4059C363.408 84.8296 362.908 86.0424 362.366 87.0444C361.837 88.0321 361.227 88.8451 360.539 89.4835C359.85 90.1218 359.056 90.6074 358.158 90.9401C357.273 91.2719 356.252 91.4799 355.095 91.5641ZM55.2064 149.183C54.475 149.236 53.7951 149.078 53.1667 148.71C52.5383 148.341 51.9771 147.794 51.4831 147.068C51.0024 146.341 50.6041 145.46 50.2883 144.427C49.9858 143.393 49.7881 142.238 49.6952 140.961C49.6216 139.951 49.6316 138.894 49.7251 137.791C49.8186 136.688 49.9975 135.471 50.2617 134.142L53.4794 134.269C53.2321 135.463 53.064 136.552 52.9751 137.534C52.8861 138.517 52.8741 139.453 52.9389 140.344C52.996 141.129 53.0953 141.85 53.2368 142.508C53.3916 143.165 53.5733 143.734 53.782 144.213C53.9907 144.693 54.2182 145.064 54.4646 145.327C54.7233 145.575 54.9856 145.69 55.2516 145.67C55.5176 145.651 55.8014 145.51 56.1032 145.247C56.4182 144.984 56.7336 144.633 57.0493 144.196C57.3774 143.744 57.6817 143.241 57.9621 142.686C58.2416 142.117 58.4731 141.532 58.6566 140.931L61.6593 142.236C61.3803 143.179 61.01 144.061 60.5485 144.884C60.1003 145.705 59.5849 146.431 59.0025 147.062C58.4201 147.692 57.808 148.191 57.1663 148.559C56.5246 148.927 55.8714 149.135 55.2064 149.183ZM64.5177 146.52C64.4074 145.004 64.1978 143.502 63.889 142.014C63.5935 140.525 63.2082 139.089 62.7333 137.706C62.2717 136.323 61.7304 135.039 61.1094 133.854L64.059 132.777C64.7494 133.997 65.3477 135.33 65.8541 136.777C66.3728 138.21 66.7904 139.724 67.107 141.318C67.4369 142.912 67.6642 144.566 67.7891 146.282L64.5177 146.52ZM73.595 148.907C72.837 148.963 72.1604 148.851 71.5654 148.574C70.9703 148.296 70.4924 147.883 70.1317 147.335C69.7852 146.798 69.5843 146.151 69.5292 145.393C69.474 144.635 69.5785 143.959 69.8428 143.365C70.1203 142.77 70.5339 142.299 71.0834 141.951C71.632 141.591 72.2853 141.383 73.0433 141.328C73.8013 141.272 74.4712 141.384 75.0529 141.663C75.647 141.927 76.1244 142.333 76.4852 142.882C76.846 143.43 77.054 144.084 77.1091 144.842C77.1643 145.6 77.0526 146.27 76.7741 146.851C76.4966 147.446 76.0835 147.924 75.5349 148.285C74.9996 148.645 74.353 148.852 73.595 148.907ZM73.4266 146.594C73.8787 146.561 74.2281 146.402 74.4747 146.116C74.7203 145.818 74.8272 145.449 74.7952 145.01C74.7623 144.558 74.6032 144.209 74.3179 143.962C74.0326 143.715 73.6639 143.608 73.2117 143.641C72.7729 143.673 72.4235 143.832 72.1636 144.119C71.917 144.404 71.8101 144.773 71.843 145.225C71.875 145.664 72.0341 146.013 72.3204 146.273C72.619 146.519 72.9877 146.626 73.4266 146.594ZM91.1637 147.288L89.6538 145.553C90.4851 144.851 91.1751 144.045 91.7239 143.136C92.286 142.227 92.6874 141.221 92.9282 140.121C93.1823 139.02 93.2624 137.824 93.1685 136.534L92.8956 132.784L90.841 132.934L90.6958 130.939L97.4779 130.445L97.6231 132.44L95.2294 132.614L95.5023 136.364C95.5817 137.455 95.5266 138.535 95.3371 139.605C95.1609 140.674 94.8744 141.697 94.4777 142.675C94.081 143.653 93.6038 144.537 93.0463 145.326C92.4888 146.115 91.8613 146.769 91.1637 147.288ZM97.4184 145.61C96.7598 144.642 96.0735 143.662 95.3597 142.671C94.6592 141.679 93.9388 140.689 93.1984 139.7L94.921 138.572C95.7146 139.557 96.4602 140.526 97.1578 141.478C97.8687 142.429 98.5368 143.342 99.1621 144.219L97.4184 145.61ZM89.2002 138.768L89.0506 136.713L98.2463 136.044L98.3958 138.099L89.2002 138.768ZM90.7157 136.171L88.7441 135.533C89.1048 134.611 89.4245 133.585 89.7033 132.455C89.982 131.325 90.1918 130.167 90.3327 128.98L92.3906 129.151C92.2688 130.417 92.0647 131.655 91.7785 132.865C91.4913 134.063 91.1371 135.165 90.7157 136.171ZM99.4701 146.523L98.2682 130.007L106.367 129.417L107.569 145.934L105.275 146.101L105.191 144.944L101.62 145.204L101.475 143.209L105.045 142.949L104.222 131.639L100.652 131.899L101.704 146.36L99.4701 146.523ZM125.016 143.742C124.178 143.803 123.544 143.628 123.113 143.218C122.694 142.794 122.449 142.09 122.377 141.106L121.848 133.825C121.789 133.027 121.647 132.45 121.421 132.092C121.207 131.733 120.895 131.569 120.482 131.599C120.23 131.617 119.937 131.725 119.604 131.923C119.269 132.108 118.857 132.412 118.366 132.835C117.889 133.258 117.309 133.828 116.626 134.546C115.942 135.251 115.124 136.133 114.172 137.191L113.952 137.207C113.435 137.82 112.85 138.504 112.197 139.26C111.556 140.015 110.855 140.855 110.094 141.779L108.656 139.939C110.226 138.18 111.575 136.692 112.703 135.473C113.831 134.255 114.801 133.255 115.613 132.474C116.425 131.693 117.116 131.082 117.685 130.639C118.268 130.196 118.787 129.884 119.241 129.704C119.71 129.523 120.17 129.416 120.622 129.383C121.699 129.304 122.534 129.578 123.128 130.203C123.734 130.814 124.083 131.758 124.176 133.034L124.668 139.796C124.703 140.275 124.743 140.64 124.788 140.891C124.846 141.14 124.912 141.309 124.985 141.398C125.071 141.472 125.187 141.503 125.333 141.493C125.573 141.475 125.893 141.372 126.293 141.182C126.707 140.992 127.156 140.732 127.64 140.402L128.466 142.388C127.894 142.79 127.316 143.106 126.731 143.336C126.146 143.566 125.574 143.701 125.016 143.742ZM113.708 145.427L112.828 133.339L108.36 133.664L108.212 131.629L112.68 131.304L112.468 128.392L114.782 128.223L116.022 145.258L113.708 145.427ZM138.833 143.197C137.396 143.302 136.249 143.064 135.392 142.485C134.546 141.892 134.082 141.016 133.998 139.859C133.911 138.676 134.244 137.736 134.995 137.04C135.747 136.343 136.847 135.942 138.297 135.837C138.935 135.79 139.546 135.826 140.13 135.944C140.725 136.048 141.35 136.27 142.003 136.61C142.656 136.95 143.399 137.431 144.233 138.052C145.066 138.659 146.039 139.444 147.152 140.406L145.81 142.088C144.797 141.199 143.922 140.474 143.186 139.913C142.449 139.338 141.808 138.897 141.264 138.589C140.721 138.281 140.218 138.077 139.756 137.976C139.293 137.863 138.816 137.824 138.324 137.86C136.781 137.972 136.051 138.587 136.132 139.704C136.212 140.808 137.024 141.304 138.566 141.191C139.391 141.131 139.963 140.916 140.284 140.545C140.617 140.16 140.754 139.562 140.695 138.75L140.105 130.652L139.547 130.692L139.246 126.563L141.56 126.395L141.861 130.524L142.419 130.483L143.016 138.682C143.117 140.078 142.815 141.156 142.108 141.916C141.401 142.663 140.309 143.09 138.833 143.197ZM130.66 144.153C130.215 142.808 129.864 141.477 129.608 140.159C129.351 138.841 129.169 137.437 129.061 135.947C128.953 134.471 128.931 133.069 128.995 131.741C129.058 130.4 129.212 129.031 129.458 127.637L131.834 127.765C131.609 129.078 131.464 130.392 131.399 131.707C131.347 133.007 131.372 134.362 131.474 135.772C131.577 137.181 131.749 138.532 131.99 139.825C132.244 141.117 132.577 142.383 132.988 143.623L130.66 144.153ZM133.497 132.155L133.35 130.141L146.037 129.217L146.183 131.232L133.497 132.155ZM142.895 129.025C142.728 128.395 142.551 127.8 142.364 127.239C142.176 126.678 141.961 126.118 141.72 125.561L143.542 124.967C143.809 125.523 144.038 126.088 144.227 126.662C144.415 127.237 144.588 127.859 144.744 128.53L142.895 129.025ZM145.651 128.604C145.498 127.96 145.327 127.357 145.139 126.796C144.964 126.234 144.756 125.674 144.515 125.117L146.36 124.562C146.601 125.119 146.81 125.692 146.986 126.281C147.175 126.855 147.34 127.472 147.482 128.13L145.651 128.604ZM151.005 142.933L149.496 141.198C150.327 140.496 151.017 139.69 151.566 138.781C152.128 137.872 152.529 136.866 152.77 135.766C153.024 134.665 153.104 133.469 153.01 132.179L152.737 128.429L150.683 128.579L150.538 126.584L157.32 126.09L157.465 128.085L155.071 128.259L155.344 132.009C155.423 133.1 155.368 134.18 155.179 135.25C155.003 136.319 154.716 137.342 154.319 138.32C153.923 139.298 153.446 140.182 152.888 140.971C152.331 141.76 151.703 142.414 151.005 142.933ZM157.26 141.255C156.601 140.287 155.915 139.307 155.201 138.316C154.501 137.325 153.781 136.334 153.04 135.345L154.763 134.217C155.556 135.202 156.302 136.171 157 137.123C157.71 138.074 158.379 138.987 159.004 139.864L157.26 141.255ZM149.042 134.413L148.892 132.359L158.088 131.689L158.238 133.744L149.042 134.413ZM150.557 131.816L148.586 131.178C148.947 130.256 149.266 129.23 149.545 128.1C149.824 126.97 150.034 125.812 150.174 124.625L152.232 124.796C152.11 126.062 151.906 127.3 151.62 128.51C151.333 129.708 150.979 130.81 150.557 131.816ZM159.312 142.168L158.11 125.652L166.208 125.062L167.41 141.579L165.117 141.746L165.032 140.589L161.462 140.849L161.317 138.854L164.887 138.594L164.064 127.284L160.494 127.544L161.546 142.006L159.312 142.168ZM178.112 140.66C176.144 140.803 174.591 140.595 173.454 140.036C172.331 139.476 171.727 138.618 171.643 137.461C171.571 136.477 171.921 135.682 172.693 135.078C173.476 134.46 174.586 134.098 176.023 133.994C177.379 133.895 178.415 134.074 179.13 134.53C179.844 134.972 180.237 135.692 180.31 136.69C180.336 137.049 180.311 137.438 180.234 137.858C180.171 138.277 180.062 138.713 179.908 139.165L177.697 139.086C177.85 138.62 177.955 138.225 178.011 137.9C178.081 137.574 178.107 137.291 178.09 137.052C178.024 136.147 177.326 135.744 175.997 135.84C175.318 135.89 174.795 136.041 174.426 136.296C174.069 136.535 173.905 136.862 173.935 137.274C173.976 137.832 174.334 138.254 175.01 138.539C175.685 138.811 176.581 138.906 177.698 138.825C179.839 138.669 181.405 138.241 182.397 137.54C183.401 136.826 183.856 135.817 183.761 134.513C183.68 133.41 183.209 132.628 182.347 132.17C181.498 131.71 180.183 131.545 178.401 131.675C177.377 131.749 176.479 131.908 175.708 132.152C174.936 132.382 174.231 132.707 173.593 133.128L171.071 134.835L169.98 133.07L180.851 125.942L180.879 126.321L170.725 127.06L170.579 125.045L184.223 124.052L184.369 126.067L175.026 132.141L173.715 131.214C174.116 131.038 174.565 130.871 175.062 130.715C175.571 130.544 176.089 130.399 176.615 130.281C177.153 130.148 177.673 130.037 178.175 129.947C178.675 129.843 179.131 129.777 179.544 129.747C181.565 129.6 183.145 129.913 184.284 130.685C185.423 131.458 186.05 132.629 186.164 134.198C186.301 136.073 185.668 137.57 184.265 138.688C182.876 139.805 180.825 140.462 178.112 140.66ZM199.444 138.666C198.007 138.771 196.875 138.545 196.046 137.991C195.23 137.435 194.781 136.599 194.7 135.482C194.619 134.365 194.943 133.492 195.672 132.864C196.415 132.222 197.504 131.849 198.94 131.744C199.618 131.695 200.255 131.722 200.851 131.826C201.447 131.929 202.056 132.132 202.68 132.435C203.317 132.736 204.017 133.173 204.78 133.746C205.556 134.304 206.444 135.015 207.442 135.878L206.092 137.44C205.193 136.663 204.404 136.019 203.726 135.507C203.047 134.995 202.436 134.598 201.894 134.317C201.366 134.034 200.864 133.843 200.389 133.744C199.927 133.644 199.45 133.612 198.958 133.648C197.535 133.752 196.86 134.309 196.934 135.319C197.006 136.303 197.72 136.746 199.076 136.647C199.874 136.589 200.427 136.375 200.734 136.005C201.04 135.622 201.163 135.018 201.103 134.194L200.424 124.858L194.121 125.317L193.974 123.302L205.962 122.43L206.109 124.445L202.678 124.694L203.366 134.149C203.47 135.572 203.201 136.655 202.56 137.396C201.932 138.137 200.893 138.56 199.444 138.666ZM194.446 129.785L194.302 127.811L206.29 126.938L206.434 128.913L194.446 129.785ZM191.305 139.539C190.887 138.192 190.549 136.86 190.293 135.542C190.036 134.224 189.854 132.82 189.746 131.331C189.638 129.854 189.616 128.452 189.68 127.124C189.743 125.783 189.884 124.416 190.103 123.023L192.459 123.152C192.234 124.465 192.095 125.779 192.044 127.093C191.992 128.393 192.017 129.748 192.119 131.158C192.222 132.567 192.394 133.918 192.635 135.211C192.876 136.504 193.202 137.77 193.613 139.01L191.305 139.539ZM217.968 137.779C215.481 137.96 213.568 137.752 212.228 137.154C210.888 136.57 210.164 135.526 210.055 134.024C209.968 132.84 210.349 131.729 211.196 130.692C212.055 129.64 213.425 128.631 215.307 127.666C217.202 126.699 219.665 125.731 222.696 124.762L223.408 126.835C220.861 127.662 218.773 128.449 217.143 129.196C215.526 129.942 214.337 130.684 213.575 131.421C212.825 132.144 212.478 132.878 212.532 133.623C212.594 134.474 213.071 135.054 213.962 135.363C214.866 135.659 216.196 135.742 217.951 135.615C218.523 135.573 219.12 135.51 219.742 135.424C220.363 135.325 221.056 135.201 221.82 135.052C222.598 134.902 223.48 134.718 224.467 134.499L224.922 136.611C223.66 136.917 222.442 137.166 221.266 137.359C220.105 137.563 219.005 137.704 217.968 137.779ZM213.529 129.138C213.049 127.863 212.63 126.61 212.273 125.38C211.915 124.136 211.611 122.901 211.362 121.676L213.749 121.141C214.012 122.366 214.322 123.586 214.678 124.804C215.033 126.008 215.44 127.201 215.901 128.384L213.529 129.138ZM221.483 124.629C221.085 123.936 220.699 123.316 220.325 122.768C219.95 122.208 219.536 121.669 219.084 121.154L220.649 120.058C221.116 120.599 221.538 121.163 221.915 121.75C222.305 122.337 222.699 122.977 223.097 123.67L221.483 124.629ZM224.267 123.484C223.907 122.762 223.54 122.127 223.166 121.579C222.804 121.017 222.411 120.478 221.985 119.96L223.536 118.945C224.004 119.499 224.426 120.07 224.803 120.658C225.18 121.245 225.548 121.894 225.907 122.603L224.267 123.484ZM233.948 136.917C233.277 136.15 232.563 135.44 231.807 134.787C231.05 134.12 230.237 133.511 229.368 132.959L230.885 131.204C231.756 131.783 232.591 132.424 233.391 133.127C234.19 133.818 234.94 134.572 235.641 135.39L233.948 136.917ZM257.985 134.626C256.469 134.737 255.208 134.588 254.202 134.18C253.211 133.784 252.447 133.111 251.91 132.161C251.386 131.21 251.068 129.963 250.956 128.42L250.249 118.706L252.682 118.529L253.389 128.243C253.503 129.799 253.911 130.905 254.613 131.563C255.315 132.207 256.384 132.477 257.821 132.372C258.871 132.296 259.781 132.036 260.551 131.592C261.334 131.147 262.02 130.469 262.609 129.557C263.21 128.631 263.764 127.421 264.27 125.927L266.549 126.664C266.114 128.032 265.625 129.204 265.081 130.179C264.549 131.141 263.945 131.94 263.27 132.577C262.607 133.2 261.839 133.677 260.968 134.008C260.096 134.339 259.102 134.545 257.985 134.626ZM271.28 133.799L269.15 133.192L274.431 116.485L276.672 116.963L273.825 125.793L273.052 125.368C273.678 124.775 274.312 124.301 274.954 123.946C275.61 123.591 276.257 123.39 276.896 123.344C277.388 123.308 277.821 123.383 278.196 123.57C278.569 123.743 278.897 124.02 279.178 124.401C279.459 124.768 279.706 125.225 279.92 125.771C280.147 126.316 280.359 126.942 280.558 127.649C280.718 128.199 280.873 128.676 281.023 129.079C281.186 129.482 281.375 129.789 281.591 130.001C281.82 130.211 282.101 130.304 282.434 130.28C283.019 130.238 283.517 129.82 283.927 129.029C284.336 128.223 284.686 126.975 284.978 125.282L287.123 125.828C286.885 127.329 286.567 128.569 286.17 129.547C285.773 130.512 285.271 131.243 284.666 131.742C284.061 132.254 283.34 132.54 282.502 132.601C281.931 132.643 281.431 132.579 281.005 132.41C280.591 132.239 280.224 131.972 279.903 131.607C279.583 131.243 279.296 130.796 279.044 130.266C278.804 129.722 278.585 129.11 278.389 128.429C278.213 127.853 278.03 127.359 277.84 126.945C277.662 126.53 277.446 126.218 277.19 126.01C276.947 125.8 276.633 125.709 276.248 125.737C275.995 125.756 275.706 125.83 275.382 125.961C275.057 126.091 274.731 126.295 274.404 126.573C274.088 126.837 273.787 127.193 273.499 127.642C273.21 128.077 272.961 128.617 272.754 129.26L271.28 133.799ZM297.757 131.972C295.27 132.153 293.357 131.945 292.017 131.347C290.677 130.763 289.953 129.72 289.844 128.217C289.757 127.033 290.138 125.923 290.985 124.885C291.844 123.833 293.214 122.825 295.096 121.859C296.991 120.892 299.454 119.924 302.485 118.955L303.197 121.029C300.65 121.856 298.562 122.643 296.932 123.39C295.315 124.136 294.126 124.877 293.364 125.615C292.614 126.338 292.267 127.071 292.321 127.816C292.383 128.667 292.86 129.247 293.751 129.557C294.655 129.852 295.985 129.936 297.74 129.808C298.312 129.766 298.909 129.703 299.531 129.617C300.152 129.519 300.845 129.395 301.609 129.246C302.387 129.095 303.269 128.911 304.256 128.692L304.711 130.805C303.449 131.11 302.231 131.359 301.055 131.552C299.894 131.757 298.794 131.897 297.757 131.972ZM293.318 123.332C292.838 122.057 292.419 120.804 292.062 119.573C291.704 118.329 291.4 117.095 291.151 115.869L293.538 115.335C293.801 116.559 294.111 117.78 294.467 118.997C294.822 120.201 295.229 121.395 295.69 122.578L293.318 123.332ZM301.272 118.823C300.874 118.13 300.488 117.509 300.114 116.962C299.739 116.401 299.325 115.863 298.873 115.348L300.438 114.251C300.905 114.792 301.327 115.356 301.704 115.944C302.094 116.53 302.488 117.17 302.886 117.863L301.272 118.823ZM304.056 117.678C303.696 116.955 303.329 116.32 302.955 115.772C302.593 115.211 302.2 114.671 301.774 114.154L303.325 113.139C303.793 113.693 304.215 114.264 304.592 114.851C304.969 115.439 305.337 116.087 305.696 116.796L304.056 117.678ZM314.582 130.046C313.903 130.096 313.263 129.935 312.662 129.564C312.059 129.18 311.517 128.625 311.036 127.898C310.556 127.171 310.158 126.304 309.844 125.297C309.543 124.277 309.349 123.168 309.261 121.971C309.191 121 309.196 119.97 309.277 118.882C309.371 117.779 309.547 116.616 309.805 115.394L312.16 115.504C311.934 116.63 311.778 117.697 311.691 118.706C311.604 119.715 311.592 120.658 311.656 121.536C311.717 122.374 311.841 123.16 312.028 123.895C312.216 124.63 312.443 125.269 312.709 125.811C312.989 126.352 313.287 126.771 313.603 127.069C313.932 127.366 314.263 127.503 314.595 127.478C314.914 127.455 315.25 127.297 315.603 127.004C315.969 126.697 316.334 126.296 316.699 125.801C317.064 125.307 317.398 124.748 317.7 124.124C318.015 123.5 318.269 122.853 318.461 122.184L320.674 123.106C320.407 124.034 320.056 124.909 319.622 125.729C319.187 126.549 318.692 127.281 318.137 127.923C317.594 128.55 317.015 129.047 316.4 129.412C315.786 129.791 315.18 130.003 314.582 130.046ZM324.454 127.383C324.344 125.867 324.128 124.365 323.806 122.878C323.497 121.39 323.093 119.969 322.593 118.615C322.107 117.26 321.549 116.023 320.919 114.906L323.086 114.087C323.785 115.252 324.387 116.539 324.891 117.946C325.406 119.339 325.828 120.819 326.156 122.386C326.496 123.939 326.727 125.546 326.848 127.208L324.454 127.383ZM345.125 128.986C344.66 129.02 344.189 128.887 343.713 128.588C343.25 128.287 342.813 127.804 342.404 127.139C341.995 126.474 341.63 125.598 341.31 124.512C341.004 123.424 340.775 122.117 340.624 120.591L330.331 121.34L330.195 119.465L342.881 118.542L342.928 119.18C343.014 120.364 343.136 121.404 343.295 122.302C343.466 123.185 343.654 123.927 343.858 124.527C344.061 125.113 344.254 125.554 344.436 125.848C344.617 126.142 344.775 126.285 344.908 126.275C344.948 126.272 344.986 126.249 345.023 126.207C345.059 126.15 345.091 126.041 345.12 125.879C345.147 125.703 345.168 125.447 345.184 125.112C345.213 124.776 345.234 124.333 345.248 123.784C345.26 123.221 345.263 122.526 345.257 121.698L347.296 121.89C347.324 123.385 347.299 124.597 347.22 125.525C347.152 126.439 347.03 127.143 346.852 127.638C346.674 128.132 346.438 128.47 346.144 128.652C345.864 128.846 345.524 128.957 345.125 128.986ZM330.276 130.227L329.148 128.505C330.943 127.639 332.63 126.56 334.207 125.269C335.796 123.964 337.163 122.541 338.308 121L340.021 122.219C339.232 123.319 338.319 124.368 337.282 125.366C336.258 126.363 335.155 127.272 333.971 128.094C332.788 128.915 331.556 129.626 330.276 130.227ZM339.752 129.277C338.493 128.326 337.336 127.494 336.282 126.782C335.227 126.07 334.225 125.435 333.276 124.876C332.339 124.315 331.4 123.809 330.458 123.356L331.517 121.655C332.514 122.13 333.494 122.647 334.457 123.205C335.421 123.764 336.437 124.412 337.507 125.149C338.589 125.873 339.767 126.723 341.041 127.699L339.752 129.277ZM329.917 119.505L327.993 118.422C328.736 117.419 329.384 116.309 329.937 115.092C330.502 113.861 330.933 112.613 331.228 111.349L333.496 111.645C333.185 113.071 332.718 114.462 332.095 115.817C331.484 117.159 330.758 118.388 329.917 119.505ZM332.21 117.955L332.08 116.159L343.948 115.296L344.079 117.091L332.21 117.955ZM331.767 114.899L331.625 112.944L344.91 111.977L345.052 113.932L331.767 114.899ZM362.576 127.676C362.35 127.693 362.017 127.704 361.576 127.709C361.149 127.727 360.649 127.743 360.075 127.758L359.833 125.81C360.341 125.8 360.788 125.788 361.174 125.773C361.561 125.758 361.841 125.745 362.014 125.732C362.359 125.707 362.604 125.676 362.749 125.638C362.892 125.588 362.972 125.489 362.988 125.34C363.004 125.192 362.999 124.945 362.974 124.599L362.704 120.889L355.283 121.429L355.14 119.454L362.56 118.914L362.437 117.219L355.016 117.759L354.873 115.784L359.441 115.452L359.294 113.437L355.225 113.733L355.085 111.818L359.155 111.522L359.011 109.547L361.405 109.373L361.548 111.348L365.458 111.063L365.597 112.978L361.688 113.263L361.834 115.277L366.442 114.942L366.586 116.917L364.83 117.045L364.954 118.74L366.709 118.612L366.853 120.587L365.098 120.715L365.359 124.305C365.412 125.037 365.42 125.611 365.384 126.028C365.362 126.458 365.258 126.779 365.073 126.993C364.889 127.221 364.593 127.376 364.185 127.459C363.791 127.555 363.254 127.627 362.576 127.676ZM348.815 122.923L348.503 120.84C349.185 120.656 349.878 120.446 350.582 120.207C351.3 119.968 351.991 119.717 352.653 119.455C353.329 119.192 353.945 118.933 354.502 118.679L354.966 120.65C354.397 120.919 353.756 121.193 353.041 121.472C352.339 121.75 351.623 122.016 350.893 122.27C350.163 122.524 349.47 122.741 348.815 122.923ZM351.303 128.457C351.117 128.47 350.857 128.476 350.522 128.473C350.202 128.483 349.808 128.492 349.341 128.499L349.102 126.591C349.516 126.588 349.87 126.582 350.163 126.574C350.47 126.565 350.697 126.556 350.843 126.545C350.949 126.537 351.022 126.519 351.06 126.489C351.111 126.459 351.132 126.377 351.122 126.244C351.125 126.097 351.114 125.863 351.091 125.544L350.389 115.89L348.214 116.048L348.069 114.053L350.243 113.895L350.004 110.604L352.338 110.434L352.577 113.725L354.492 113.586L354.637 115.581L352.722 115.72L353.413 125.215C353.466 125.933 353.48 126.493 353.455 126.896C353.446 127.311 353.368 127.625 353.223 127.836C353.079 128.06 352.849 128.21 352.534 128.287C352.232 128.362 351.822 128.419 351.303 128.457ZM359.16 125.92C358.671 125.447 358.148 124.964 357.59 124.47C357.033 123.976 356.485 123.514 355.945 123.085L357.397 121.536C357.948 121.95 358.503 122.405 359.06 122.899C359.617 123.393 360.134 123.884 360.611 124.37L359.16 125.92ZM61.1321 184.867C60.5204 184.911 59.8602 184.933 59.1515 184.931C58.4429 184.929 57.7327 184.907 57.0212 184.865C56.3239 184.836 55.665 184.784 55.0446 184.708L55.1471 182.535C56.1447 182.65 57.1527 182.723 58.1711 182.756C59.2028 182.788 60.1376 182.774 60.9753 182.713C62.7307 182.585 64.0478 182.222 64.9267 181.623C65.8055 181.024 66.2087 180.226 66.1361 179.229C66.0742 178.378 65.7014 177.756 65.0179 177.365C64.3476 176.973 63.3941 176.822 62.1574 176.912C61.0936 176.989 60.096 177.242 59.1646 177.671C58.2466 178.098 57.2714 178.751 56.239 179.628L54.1249 178.96C54.408 178.258 54.6829 177.442 54.9495 176.514C55.2152 175.572 55.4652 174.598 55.6994 173.591C55.9327 172.572 56.1223 171.596 56.2683 170.662C56.4133 169.716 56.5011 168.901 56.5315 168.217L58.8954 168.185C58.8715 168.775 58.8074 169.455 58.7029 170.225C58.6118 170.993 58.4894 171.791 58.3357 172.618C58.1943 173.43 58.031 174.217 57.8458 174.979C57.6597 175.728 57.4744 176.397 57.2899 176.985L56.8434 176.636C57.7262 176.091 58.6243 175.665 59.5377 175.358C60.4512 175.05 61.3866 174.862 62.3441 174.792C63.5808 174.702 64.6521 174.818 65.5578 175.14C66.4768 175.461 67.1952 175.963 67.7129 176.648C68.2439 177.331 68.5457 178.171 68.6183 179.169C68.7383 180.817 68.1525 182.137 66.8609 183.127C65.5684 184.103 63.6588 184.683 61.1321 184.867ZM52.1549 173.107L52.0083 171.093L68.8438 169.868L68.9904 171.882L52.1549 173.107ZM72.4716 183.621C72.8717 182.321 73.2258 181.126 73.5341 180.034C73.8413 178.929 74.1121 177.873 74.3463 176.867C74.5938 175.859 74.8072 174.841 74.9863 173.812C75.1787 172.782 75.3463 171.687 75.4892 170.527C75.632 169.367 75.7661 168.087 75.8916 166.688L78.2243 166.779C78.1083 168.124 77.9794 169.383 77.8375 170.557C77.6947 171.717 77.5223 172.839 77.3205 173.923C77.131 174.993 76.9082 176.065 76.6522 177.14C76.4095 178.214 76.1227 179.324 75.7917 180.471C75.4741 181.617 75.1091 182.847 74.6966 184.16L72.4716 183.621ZM88.4387 179.832C88.2609 179.042 88.0394 178.203 87.7741 177.313C87.5212 176.409 87.235 175.508 86.9155 174.608C86.5961 173.709 86.2658 172.844 85.9246 172.013L88.0908 171.194C88.434 172.051 88.7662 172.943 89.0876 173.869C89.4213 174.78 89.7222 175.701 89.9904 176.631C90.2576 177.547 90.4887 178.426 90.6836 179.267L88.4387 179.832ZM85.6852 170.928C85.2862 170.222 84.8997 169.595 84.5256 169.047C84.1515 168.5 83.738 167.962 83.2852 167.433L84.8711 166.355C85.3383 166.896 85.7603 167.46 86.1373 168.048C86.5276 168.634 86.915 169.274 87.2998 169.968L85.6852 170.928ZM88.4008 169.668C88.0275 168.946 87.6604 168.311 87.2997 167.762C86.9379 167.201 86.5444 166.661 86.1191 166.144L87.6695 165.129C88.1376 165.683 88.5535 166.254 88.9172 166.843C89.2941 167.43 89.6622 168.078 90.0212 168.788L88.4008 169.668ZM81.9625 183.15C81.6167 183.176 81.1812 183.161 80.6558 183.105C80.1313 183.063 79.5774 182.983 78.9939 182.865C78.4248 182.76 77.8741 182.632 77.3419 182.484L77.7339 180.43C78.1824 180.531 78.6243 180.633 79.0595 180.735C79.507 180.823 79.9132 180.893 80.2781 180.947C80.6553 180.986 80.9436 180.999 81.1431 180.984C81.5686 180.953 81.907 180.735 82.1582 180.329C82.4084 179.91 82.5695 179.276 82.6416 178.429C82.7259 177.567 82.7197 176.471 82.6229 175.141C82.5668 174.37 82.4952 173.754 82.4081 173.292C82.3201 172.817 82.1809 172.466 81.9906 172.24C81.8136 172.012 81.556 171.87 81.2177 171.815C80.8795 171.759 80.4311 171.752 79.8726 171.792L71.4149 172.408L71.2639 170.333L79.5022 169.734C80.4197 169.667 81.1873 169.651 81.8048 169.686C82.4347 169.707 82.9369 169.811 83.3114 169.998C83.6992 170.184 84.0022 170.489 84.2203 170.914C84.4507 171.325 84.6187 171.888 84.7241 172.602C84.8419 173.302 84.9395 174.184 85.017 175.248C85.1428 176.977 85.1205 178.415 84.9501 179.564C84.7797 180.713 84.4422 181.586 83.9376 182.185C83.4453 182.768 82.787 183.09 81.9625 183.15ZM95.5724 183.343L94.8102 172.871L91.4791 173.113L91.3353 171.138L94.6665 170.896L94.3747 166.887L96.5889 166.725L96.8807 170.735L100.112 170.5L100.256 172.475L97.0244 172.71L97.7865 183.182L95.5724 183.343ZM92.9175 181.03L91.5171 179.146C92.3799 177.961 93.0841 176.706 93.6295 175.383C94.1749 174.06 94.5208 172.751 94.6673 171.457L96.0506 172.279C95.8393 174.153 95.4715 175.804 94.9472 177.232C94.4218 178.648 93.7453 179.913 92.9175 181.03ZM99.5562 178.842C98.9792 177.895 98.3823 176.949 97.7655 176.005C97.1477 175.047 96.5242 174.103 95.895 173.173L96.8521 171.72C97.62 172.72 98.3666 173.702 99.0918 174.665C99.8159 175.615 100.504 176.534 101.157 177.422L99.5562 178.842ZM91.5441 168.496L91.2296 166.654C92.0778 166.552 92.9435 166.416 93.8267 166.245C94.709 166.06 95.5903 165.862 96.4706 165.651C97.3633 165.426 98.2217 165.19 99.046 164.942L99.795 166.693C99.0638 166.933 98.2524 167.173 97.3607 167.411C96.468 167.637 95.534 167.845 94.5587 168.036C93.5824 168.214 92.5775 168.368 91.5441 168.496ZM101.624 182.462L100.422 165.945L109.079 165.315L110.281 181.831L107.968 182L107.883 180.843L103.834 181.138L103.689 179.143L107.738 178.848L106.915 167.538L102.866 167.833L103.918 182.295L101.624 182.462ZM121.186 180.396C120.468 180.448 119.688 180.472 118.845 180.466C118.017 180.473 117.206 180.452 116.414 180.403C115.635 180.352 114.928 180.283 114.293 180.196L114.362 178.106C115.143 178.182 115.929 178.245 116.722 178.295C117.527 178.343 118.298 178.374 119.035 178.387C119.77 178.387 120.437 178.365 121.035 178.322C122.923 178.184 124.333 177.801 125.263 177.172C126.193 176.543 126.618 175.683 126.539 174.592C126.473 173.688 126.084 173.028 125.372 172.612C124.659 172.182 123.664 172.014 122.388 172.107C121.523 172.17 120.659 172.333 119.796 172.597C118.933 172.86 118.123 173.206 117.365 173.636C116.608 174.065 115.942 174.555 115.367 175.105L113.202 174.841C113.313 173.977 113.409 173.182 113.489 172.454C113.569 171.713 113.632 171.02 113.679 170.375C113.725 169.716 113.758 169.079 113.78 168.462L116.107 168.473C116.081 169.211 116.036 169.976 115.974 170.769C115.923 171.548 115.847 172.336 115.744 173.132L115.365 172.598C116.05 172.094 116.767 171.667 117.517 171.319C118.267 170.957 119.041 170.666 119.84 170.448C120.653 170.228 121.499 170.086 122.376 170.022C124.411 169.874 125.983 170.168 127.093 170.902C128.202 171.637 128.814 172.796 128.93 174.378C129.06 176.174 128.474 177.58 127.171 178.597C125.867 179.601 123.872 180.201 121.186 180.396ZM126.028 166.468C124.779 166.572 123.581 166.653 122.436 166.709C121.289 166.753 120.141 166.769 118.99 166.76C117.853 166.749 116.667 166.708 115.432 166.638L115.521 164.546C116.661 164.596 117.812 164.626 118.976 164.635C120.139 164.631 121.294 164.613 122.442 164.583C123.588 164.54 124.733 164.477 125.877 164.394L126.028 166.468ZM137.669 179.016C136.991 179.066 136.351 178.905 135.749 178.534C135.147 178.15 134.605 177.595 134.124 176.868C133.643 176.141 133.246 175.274 132.932 174.267C132.631 173.247 132.436 172.138 132.349 170.941C132.279 169.97 132.284 168.94 132.365 167.852C132.459 166.749 132.635 165.586 132.893 164.364L135.247 164.474C135.022 165.6 134.866 166.667 134.779 167.676C134.692 168.685 134.68 169.628 134.744 170.506C134.805 171.344 134.929 172.13 135.116 172.865C135.303 173.6 135.53 174.239 135.797 174.781C136.077 175.322 136.375 175.741 136.691 176.039C137.02 176.336 137.351 176.473 137.683 176.448C138.002 176.425 138.338 176.267 138.691 175.974C139.057 175.667 139.422 175.266 139.787 174.771C140.152 174.277 140.486 173.718 140.788 173.094C141.103 172.47 141.357 171.823 141.549 171.154L143.762 172.076C143.495 173.004 143.144 173.879 142.709 174.699C142.274 175.519 141.779 176.251 141.225 176.893C140.682 177.52 140.103 178.017 139.488 178.382C138.874 178.761 138.268 178.973 137.669 179.016ZM147.542 176.353C147.432 174.837 147.215 173.335 146.893 171.848C146.585 170.36 146.18 168.939 145.681 167.585C145.194 166.23 144.637 164.993 144.007 163.876L146.173 163.057C146.873 164.222 147.475 165.509 147.978 166.916C148.494 168.309 148.916 169.789 149.244 171.356C149.584 172.909 149.815 174.516 149.936 176.178L147.542 176.353ZM164.245 177.443C162.636 177.56 161.212 177.376 159.974 176.892C158.75 176.419 157.775 175.695 157.048 174.718C156.321 173.728 155.907 172.535 155.805 171.139C155.726 170.049 155.845 169.024 156.163 168.065C156.494 167.105 156.994 166.253 157.662 165.509C158.342 164.751 159.167 164.15 160.137 163.705L160.382 164.309L150.903 165.219L150.747 163.085L167.534 161.462L167.689 163.597L165.16 163.841C164.098 163.945 163.127 164.189 162.246 164.574C161.377 164.945 160.637 165.433 160.026 166.039C159.429 166.644 158.978 167.345 158.676 168.143C158.372 168.927 158.254 169.784 158.321 170.715C158.395 171.726 158.678 172.588 159.171 173.3C159.663 174 160.323 174.52 161.15 174.861C161.99 175.201 162.975 175.33 164.106 175.247C164.345 175.23 164.61 175.204 164.902 175.169C165.206 175.121 165.51 175.072 165.814 175.023C166.13 174.96 166.406 174.899 166.643 174.842L167.062 177.018C166.785 177.078 166.482 177.133 166.151 177.184C165.822 177.248 165.491 177.299 165.16 177.336C164.829 177.387 164.525 177.423 164.245 177.443ZM165.827 171.071C165.472 170.416 165.092 169.795 164.689 169.209C164.298 168.609 163.852 168 163.353 167.381L165.018 166.298C165.518 166.916 165.97 167.532 166.376 168.144C166.78 168.743 167.168 169.383 167.538 170.065L165.827 171.071ZM168.776 169.714C168.433 169.044 168.067 168.415 167.676 167.829C167.299 167.228 166.866 166.618 166.38 165.998L168.049 164.954C168.536 165.587 168.976 166.21 169.368 166.823C169.773 167.435 170.149 168.09 170.493 168.787L168.776 169.714ZM177.564 176.113C176.886 176.162 176.246 176.002 175.644 175.631C175.041 175.247 174.499 174.692 174.019 173.965C173.538 173.237 173.141 172.371 172.827 171.364C172.525 170.343 172.331 169.235 172.244 168.038C172.173 167.067 172.178 166.037 172.259 164.948C172.353 163.845 172.529 162.683 172.788 161.461L175.142 161.57C174.916 162.696 174.76 163.764 174.673 164.773C174.586 165.782 174.575 166.725 174.638 167.603C174.699 168.441 174.823 169.227 175.011 169.962C175.198 170.697 175.425 171.336 175.691 171.878C175.972 172.419 176.269 172.838 176.585 173.136C176.914 173.433 177.245 173.569 177.577 173.545C177.897 173.522 178.233 173.364 178.586 173.071C178.951 172.763 179.316 172.362 179.681 171.868C180.046 171.373 180.38 170.814 180.682 170.191C180.998 169.566 181.251 168.92 181.443 168.251L183.656 169.172C183.389 170.101 183.039 170.975 182.604 171.796C182.169 172.616 181.674 173.347 181.119 173.989C180.577 174.617 179.998 175.114 179.383 175.479C178.769 175.858 178.162 176.069 177.564 176.113ZM187.437 173.449C187.326 171.933 187.11 170.432 186.788 168.944C186.479 167.456 186.075 166.035 185.575 164.681C185.089 163.326 184.531 162.09 183.902 160.973L186.068 160.154C186.768 161.319 187.369 162.606 187.873 164.013C188.389 165.406 188.81 166.886 189.138 168.453C189.479 170.005 189.709 171.613 189.83 173.275L187.437 173.449ZM205.868 175.417C204.872 174.781 203.963 174.218 203.138 173.73C202.315 173.255 201.541 172.817 200.817 172.415C200.092 172.014 199.383 171.637 198.689 171.287C197.994 170.923 197.272 170.548 196.522 170.161C195.744 169.763 195.119 169.434 194.645 169.175C194.184 168.901 193.819 168.66 193.55 168.452C193.294 168.244 193.111 168.03 193.002 167.81C192.905 167.577 192.845 167.307 192.823 167.001C192.8 166.682 192.826 166.399 192.901 166.153C192.989 165.893 193.152 165.64 193.388 165.396C193.623 165.138 193.963 164.846 194.407 164.52C194.851 164.193 195.424 163.797 196.125 163.332C196.852 162.851 197.648 162.312 198.514 161.714C199.38 161.117 200.282 160.476 201.222 159.793C202.161 159.109 203.091 158.387 204.012 157.624L205.549 159.458C204.993 159.899 204.404 160.35 203.782 160.809C203.16 161.256 202.543 161.695 201.933 162.127C201.322 162.546 200.736 162.943 200.175 163.318C199.626 163.679 199.129 164.009 198.683 164.309C198.236 164.595 197.872 164.829 197.591 165.01C197.042 165.371 196.615 165.656 196.309 165.865C196.017 166.074 195.809 166.249 195.686 166.392C195.575 166.52 195.525 166.658 195.536 166.804C195.546 166.95 195.595 167.074 195.683 167.174C195.784 167.274 195.98 167.4 196.272 167.552C196.564 167.705 197.008 167.927 197.604 168.217C197.935 168.367 198.358 168.57 198.871 168.827C199.398 169.083 199.994 169.38 200.661 169.72C201.326 170.045 202.021 170.409 202.745 170.811C203.482 171.199 204.228 171.612 204.981 172.052C205.748 172.478 206.488 172.912 207.202 173.354L205.868 175.417Z" fill="#282828"/>
<path opacity="0.6" d="M56.0066 218.869C55.738 215.178 57.1171 211.809 59.976 208.934C60.1439 208.762 60.3575 208.666 60.557 208.651C60.936 208.624 61.3197 208.937 61.3473 209.316C61.3661 209.575 61.2795 209.762 61.0931 209.956C58.6386 212.601 57.6036 215.464 57.8417 218.735C58.0798 222.006 59.5183 224.689 62.3299 226.951C62.5424 227.116 62.6552 227.288 62.6741 227.548C62.7017 227.926 62.3673 228.292 61.9883 228.319C61.7888 228.334 61.5636 228.27 61.3725 228.123C58.1275 225.693 56.2751 222.559 56.0066 218.869ZM73.5555 220.78L73.4452 219.264L70.0541 219.511C69.5355 219.548 69.2428 219.108 69.2109 218.67C69.1775 218.211 69.4048 217.753 69.9235 217.715L79.4184 217.024C79.937 216.987 80.2297 217.427 80.2616 217.865C80.295 218.324 80.0676 218.782 79.549 218.82L75.5995 219.107L75.7098 220.623L81.2751 220.218C81.7937 220.18 82.0864 220.62 82.1183 221.059C82.1517 221.518 81.9243 221.976 81.4057 222.013L75.8404 222.418L76.1017 226.009C76.1424 226.567 75.6256 226.906 75.087 226.945C74.5484 226.984 73.9881 226.724 73.9474 226.166L73.6861 222.575L69.1382 222.906C68.6195 222.944 68.3268 222.504 68.2949 222.065C68.2615 221.606 68.4889 221.149 69.0075 221.111L73.5555 220.78ZM71.5041 211.605L71.3226 209.111C71.2805 208.533 71.7988 208.214 72.3374 208.175C72.876 208.136 73.4348 208.376 73.4769 208.954L73.6584 211.448L77.0095 211.204C77.5681 211.163 77.6805 211.055 77.6544 210.696L77.5644 209.459C77.5223 208.881 78.0405 208.562 78.599 208.521C79.1376 208.482 79.6965 208.722 79.7386 209.301L79.8547 210.897C79.9535 212.253 79.35 212.778 77.4749 212.915L68.1396 213.594C66.2446 213.732 65.5914 213.298 65.4927 211.942L65.3766 210.346C65.3345 209.768 65.8527 209.449 66.3913 209.41C66.9299 209.371 67.4888 209.611 67.5309 210.189L67.6209 211.426C67.647 211.785 67.774 211.876 68.3524 211.834L71.5041 211.605ZM67.7295 214.847L80.7152 213.902C81.2338 213.864 81.5265 214.304 81.5599 214.763C81.5933 215.222 81.3673 215.699 80.8487 215.737L68.1822 216.659C67.6237 216.7 67.4757 216.871 67.5106 217.35L67.602 218.606C67.8314 221.758 67.3176 224.342 66.3627 226.377C66.1383 226.874 65.7339 227.104 65.335 227.133C64.7565 227.175 64.1874 226.796 64.1439 226.197C64.1308 226.018 64.1761 225.814 64.2798 225.586C65.1509 223.778 65.6038 221.459 65.402 218.686L65.2946 217.21C65.1857 215.714 65.8345 214.985 67.7295 214.847ZM98.1315 223.964L88.7164 224.65C86.4424 224.815 85.4152 223.927 85.2846 222.132L84.55 212.039C84.4194 210.244 85.3072 209.216 87.5812 209.051L96.9963 208.366C99.2702 208.2 100.297 209.088 100.428 210.883L101.163 220.977C101.318 223.111 100.086 223.822 98.1315 223.964ZM91.7331 217.331L87.1652 217.664L87.4555 221.653C87.5122 222.431 87.873 222.706 88.8106 222.637L92.1019 222.398L91.7331 217.331ZM93.8874 217.175L94.2562 222.241L97.7469 221.987C98.7243 221.916 99.0032 221.615 98.9452 220.817L98.6548 216.828L93.8874 217.175ZM93.4113 210.632L93.7437 215.2L98.5111 214.853L98.2571 211.362C98.199 210.564 97.8795 210.307 96.9021 210.378L93.4113 210.632ZM91.257 210.789L87.9657 211.028C86.9883 211.099 86.7094 211.4 86.7675 212.198L87.0215 215.689L91.5894 215.357L91.257 210.789ZM111.778 208.132L120.136 207.524C120.695 207.483 121.007 207.922 121.042 208.4C121.076 208.859 120.831 209.358 120.273 209.399L116.343 209.685C117.787 211.064 119.57 212.137 121.424 212.824C121.939 213.008 122.187 213.391 122.215 213.769C122.254 214.308 121.892 214.836 121.313 214.878C121.153 214.89 120.971 214.863 120.764 214.777C118.285 213.775 115.87 212.005 114.029 209.853L110.698 210.096C109.172 212.553 107.103 214.709 104.931 216.271C104.74 216.405 104.544 216.459 104.364 216.472C103.806 216.513 103.373 216.083 103.337 215.585C103.314 215.265 103.45 214.935 103.832 214.666C105.489 213.463 106.986 211.99 108.205 210.277L104.614 210.539C104.056 210.579 103.741 210.121 103.708 209.662C103.673 209.183 103.919 208.704 104.478 208.663L109.444 208.302C109.831 207.552 110.195 206.763 110.496 205.939C110.665 205.506 111.031 205.299 111.39 205.273C111.908 205.235 112.455 205.576 112.495 206.135C112.505 206.274 112.496 206.416 112.427 206.581C112.244 207.096 112.023 207.633 111.778 208.132ZM113.998 217.696L114.299 221.825C114.412 223.381 113.74 224.072 112.085 224.192C111.506 224.234 111.065 224.226 110.681 224.194C110.056 224.139 109.744 223.721 109.712 223.282C109.676 222.783 109.997 222.239 110.616 222.194C110.676 222.189 110.755 222.183 110.817 222.199C111.117 222.197 111.4 222.217 111.639 222.199C112.018 222.172 112.11 222.065 112.084 221.706L111.804 217.856L105.68 218.302C105.142 218.341 104.851 217.921 104.817 217.462C104.785 217.023 105.013 216.565 105.551 216.526L120.133 215.465C120.691 215.424 120.982 215.844 121.014 216.283C121.048 216.742 120.82 217.2 120.262 217.24L113.998 217.696ZM117.64 218.414C118.495 219.134 119.529 219.841 120.638 220.482C121.077 220.73 121.261 221.058 121.286 221.397C121.325 221.936 120.884 222.489 120.286 222.533C120.067 222.549 119.801 222.488 119.55 222.346C118.313 221.593 117.082 220.66 116.198 219.822C115.962 219.599 115.844 219.367 115.827 219.127C115.789 218.609 116.238 218.155 116.796 218.114C117.055 218.095 117.362 218.173 117.64 218.414ZM108.226 219.119C108.445 218.822 108.736 218.681 109.015 218.66C109.554 218.621 110.104 219.022 110.144 219.561C110.158 219.76 110.096 220.006 109.912 220.24C109.111 221.361 107.896 222.572 106.639 223.486C106.43 223.641 106.233 223.696 106.034 223.71C105.455 223.752 104.962 223.307 104.925 222.808C104.902 222.489 105.057 222.137 105.439 221.869C106.446 221.113 107.44 220.159 108.226 219.119ZM115.618 214.33L109.754 214.757C109.235 214.794 108.924 214.376 108.891 213.917C108.859 213.478 109.106 213.019 109.625 212.981L115.489 212.554C116.028 212.515 116.319 212.935 116.351 213.374C116.384 213.833 116.157 214.291 115.618 214.33ZM140.876 217.244L134.433 217.713C136.061 218.858 138.362 219.613 141.139 219.752C141.823 219.782 142.176 220.218 142.208 220.657C142.245 221.175 141.903 221.701 141.204 221.752C141.145 221.757 141.063 221.742 141.004 221.747C137.642 221.57 134.835 220.471 132.698 218.662C131.452 220.838 129.092 222.293 125.679 223.063C125.6 223.088 125.54 223.093 125.481 223.097C124.862 223.142 124.487 222.668 124.452 222.189C124.422 221.77 124.65 221.333 125.222 221.191C128.079 220.502 129.832 219.512 130.763 217.98L125.238 218.382C124.719 218.42 124.426 217.98 124.395 217.541C124.361 217.082 124.589 216.625 125.107 216.587L131.47 216.124C131.528 215.819 131.565 215.495 131.603 215.192C131.644 214.647 132.103 214.353 132.582 214.318C133.121 214.279 133.683 214.559 133.725 215.138C133.729 215.198 133.733 215.257 133.718 215.319C133.694 215.541 133.67 215.763 133.625 215.967L140.746 215.449C141.264 215.411 141.556 215.831 141.589 216.29C141.621 216.729 141.395 217.206 140.876 217.244ZM133.359 208.186L133.442 209.323L138.289 208.97C138.788 208.934 139.078 209.334 139.109 209.773C139.14 210.192 138.913 210.649 138.414 210.686L133.567 211.038L133.657 212.275L140.798 211.755C141.297 211.719 141.588 212.139 141.62 212.578C141.652 213.017 141.424 213.474 140.926 213.511L124.609 214.698C124.11 214.734 123.839 214.313 123.807 213.874C123.775 213.435 123.982 212.979 124.481 212.943L131.562 212.428L131.472 211.191L126.745 211.535C126.246 211.571 125.975 211.15 125.944 210.731C125.912 210.292 126.121 209.856 126.62 209.819L131.347 209.475L131.265 208.338L125.161 208.783C124.662 208.819 124.391 208.397 124.36 207.979C124.328 207.54 124.537 207.103 125.036 207.067L129.285 206.758C129.201 206.704 129.114 206.61 129.026 206.516C128.762 206.194 128.478 205.874 128.197 205.594C128.045 205.424 127.952 205.251 127.939 205.071C127.904 204.592 128.374 204.157 128.892 204.119C129.151 204.101 129.418 204.181 129.653 204.385C129.952 204.624 130.323 205.038 130.608 205.378C130.761 205.548 130.815 205.744 130.827 205.904C130.849 206.203 130.708 206.474 130.482 206.671L133.115 206.479C133.521 205.728 133.812 205.045 134.081 204.323C134.247 203.85 134.631 203.622 135.01 203.594C135.529 203.556 136.032 203.86 136.07 204.379C136.08 204.519 136.052 204.681 135.984 204.847C135.762 205.384 135.516 205.863 135.269 206.322L139.777 205.994C140.296 205.957 140.565 206.358 140.597 206.797C140.628 207.216 140.42 207.672 139.902 207.71L133.359 208.186ZM155.041 212.664L155.058 212.623C154.065 211.652 153.286 210.586 152.49 209.3C150.305 209.86 147.378 210.414 146.321 210.491C145.642 210.541 145.243 210.008 145.204 209.47C145.169 208.991 145.432 208.47 146.088 208.403C147.758 208.201 149.657 207.842 151.471 207.409C150.996 206.401 150.562 205.39 150.208 204.393C150.182 204.315 150.157 204.236 150.151 204.156C150.107 203.558 150.678 203.136 151.257 203.093C151.696 203.061 152.15 203.249 152.329 203.777C152.663 204.776 153.062 205.85 153.556 206.856C155.049 206.427 156.417 205.946 157.487 205.488C157.622 205.418 157.78 205.386 157.9 205.377C158.538 205.331 159.016 205.837 159.056 206.376C159.085 206.775 158.874 207.191 158.31 207.433C157.279 207.869 155.989 208.324 154.594 208.726C155.434 210.069 156.579 211.469 158.192 212.976C158.451 213.218 158.572 213.51 158.592 213.789C158.636 214.388 158.216 214.96 157.578 215.006C157.458 215.015 157.316 214.985 157.173 214.955C155.598 214.528 154.106 214.416 152.51 214.533C150.097 214.708 149.333 215.506 149.412 216.603C149.495 217.74 150.448 218.433 153.42 218.216C154.238 218.157 154.873 218.07 155.507 217.964L155.647 217.954C156.345 217.903 156.743 218.416 156.782 218.954C156.817 219.433 156.553 219.933 155.881 220.063C155.228 220.19 154.493 220.284 153.615 220.348C149.546 220.644 147.28 219.265 147.097 216.751C146.94 214.597 148.48 212.881 152.35 212.599C153.427 212.521 154.232 212.562 155.041 212.664ZM170.276 210.111L170.318 210.128C170.87 209.727 171.457 209.524 172.095 209.478C173.93 209.344 175.007 210.369 175.373 213.47C175.631 215.637 176.132 215.902 176.89 215.847C177.788 215.781 178.489 214.948 179.055 213.082C179.217 212.549 179.638 212.278 180.077 212.246C180.675 212.202 181.306 212.597 181.352 213.236C181.362 213.375 181.334 213.538 181.287 213.722C180.45 216.55 179.049 217.955 176.894 218.112C174.82 218.263 173.462 217.239 173.074 213.838C172.851 211.869 172.521 211.472 171.703 211.532C170.646 211.609 169.64 212.664 168.811 214.77C168.438 215.72 167.949 216.978 167.579 217.968C167.393 218.443 166.99 218.693 166.572 218.723C165.973 218.767 165.344 218.391 165.298 217.753C165.288 217.613 165.317 217.471 165.366 217.307C166.813 212.95 168.953 207.36 170.938 202.944C171.127 202.51 171.513 202.301 171.912 202.272C172.55 202.226 173.2 202.619 173.244 203.218C173.255 203.377 173.227 203.54 173.159 203.705L170.276 210.111ZM184.328 217.752L199.493 199.082C199.659 198.889 199.849 198.735 200.028 198.722C200.547 198.684 201.016 199.071 201.045 199.47C201.061 199.689 200.996 199.895 200.811 200.109L185.646 218.779C185.479 218.971 185.29 219.125 185.111 219.139C184.592 219.176 184.123 218.789 184.094 218.39C184.078 218.171 184.143 217.966 184.328 217.752ZM213.767 203.999L212.531 204.089C212.093 205.243 211.57 206.324 210.997 207.268C210.747 207.688 210.4 207.873 210.061 207.898C209.502 207.939 208.993 207.555 208.952 206.996C208.936 206.777 208.999 206.531 209.141 206.28C210.267 204.394 211.205 201.859 211.673 199.198C211.774 198.649 212.195 198.378 212.654 198.344C213.212 198.304 213.796 198.602 213.839 199.201C213.846 199.3 213.832 199.382 213.82 199.483C213.681 200.335 213.464 201.213 213.206 202.074L220.467 201.546C221.025 201.505 221.341 201.984 221.376 202.462C221.412 202.961 221.168 203.46 220.609 203.501L215.882 203.845L216.028 205.859L219.619 205.598C220.157 205.559 220.471 206.017 220.506 206.496C220.541 206.975 220.297 207.474 219.758 207.513L216.168 207.774L216.317 209.829L219.987 209.562C220.526 209.523 220.84 209.981 220.875 210.46C220.91 210.938 220.665 211.438 220.127 211.477L216.457 211.744L216.745 215.713C216.788 216.292 216.291 216.629 215.752 216.668C215.233 216.706 214.673 216.446 214.631 215.867L213.767 203.999ZM206.758 216.52L206.072 207.105C205.771 207.649 205.448 208.173 205.121 208.638C204.885 208.976 204.576 209.139 204.277 209.161C203.698 209.203 203.125 208.764 203.083 208.185C203.066 207.946 203.128 207.701 203.309 207.427C204.742 205.357 205.979 202.239 206.582 199.508C206.704 198.978 207.126 198.707 207.584 198.673C208.183 198.63 208.809 198.965 208.855 199.604C208.863 199.703 208.851 199.824 208.82 199.947C208.49 201.475 207.894 203.203 207.189 204.818C207.673 204.843 208.112 205.092 208.149 205.611L208.932 216.362C208.971 216.901 208.453 217.219 207.914 217.258C207.356 217.299 206.797 217.059 206.758 216.52ZM230.805 198.668L230.72 197.491C230.679 196.932 231.199 196.634 231.757 196.593C232.296 196.554 232.853 196.774 232.894 197.333L232.98 198.51L237.966 198.147C239.802 198.013 240.485 198.585 240.579 199.882L240.672 201.158C240.713 201.717 240.194 202.035 239.636 202.076C239.097 202.115 238.519 201.876 238.478 201.318L238.41 200.38C238.382 200.001 238.211 199.853 237.712 199.89L226.422 200.711C225.923 200.748 225.775 200.919 225.803 201.298L225.877 202.315C225.916 202.854 225.398 203.172 224.839 203.213C224.301 203.252 223.722 203.013 223.683 202.475L223.584 201.118C223.49 199.822 224.083 199.157 225.918 199.024L230.805 198.668ZM233.298 203.439L232.879 203.47C232.448 203.882 232.015 204.275 231.56 204.629C233.892 206.364 235.079 208.624 235.253 211.018C235.478 214.109 234.515 215.202 232.66 215.337C232.062 215.381 231.7 215.367 231.194 215.304C230.607 215.226 230.337 214.824 230.306 214.406C230.271 213.927 230.593 213.382 231.191 213.339C231.251 213.334 231.331 213.328 231.392 213.344C231.736 213.379 232.117 213.391 232.476 213.365C232.955 213.33 233.305 212.904 233.177 211.149C233.159 210.889 233.121 210.651 233.084 210.413C230.892 212.257 228.104 213.904 225.389 214.904C225.273 214.952 225.154 214.981 225.055 214.988C224.476 215.03 224.102 214.576 224.069 214.118C224.041 213.739 224.233 213.344 224.702 213.169C227.592 212.097 230.265 210.538 232.467 208.553C232.326 208.263 232.146 207.995 231.964 207.708C230.012 209.253 227.661 210.567 225.381 211.475C225.264 211.524 225.146 211.553 225.046 211.56C224.487 211.601 224.095 211.168 224.06 210.689C224.035 210.35 224.207 209.957 224.676 209.782C226.764 208.988 229.024 207.801 230.826 206.387C230.589 206.163 230.332 205.941 230.077 205.739C228.585 206.73 226.978 207.529 225.359 208.148C225.222 208.198 225.104 208.227 224.984 208.236C224.386 208.279 223.995 207.866 223.962 207.408C223.935 207.049 224.127 206.654 224.636 206.476C226.588 205.753 228.487 204.832 230.007 203.679L227.334 203.874C226.815 203.911 226.524 203.491 226.494 203.072C226.462 202.634 226.691 202.196 227.209 202.158L237.103 201.438C237.642 201.399 237.951 201.797 237.983 202.236C238.014 202.655 237.766 203.114 237.228 203.154L235.153 203.304C235.522 204.24 235.969 205.15 236.511 205.973C237.329 205.372 238.085 204.735 238.794 204.002C238.998 203.787 239.252 203.688 239.491 203.671C240.03 203.631 240.562 204.054 240.6 204.573C240.619 204.832 240.499 205.121 240.217 205.382C239.389 206.124 238.5 206.851 237.563 207.481C238.668 208.884 239.954 210.034 241.383 210.932C241.783 211.184 241.968 211.532 241.992 211.851C242.031 212.389 241.608 212.921 241.01 212.965C240.751 212.984 240.444 212.906 240.128 212.688C239.451 212.216 238.835 211.739 238.232 211.162C236.01 209.017 234.311 206.334 233.298 203.439ZM249.339 204.799C249.608 208.489 248.229 211.858 245.37 214.733C245.202 214.906 244.988 215.001 244.789 215.016C244.41 215.044 244.026 214.731 243.998 214.352C243.98 214.092 244.066 213.906 244.253 213.711C246.707 211.066 247.742 208.204 247.504 204.932C247.266 201.661 245.827 198.978 243.016 196.716C242.803 196.551 242.691 196.379 242.672 196.12C242.644 195.741 242.978 195.376 243.357 195.348C243.557 195.334 243.782 195.397 243.973 195.544C247.218 197.975 249.071 201.109 249.339 204.799Z" fill="#282828"/>
<path d="M81.09 302.87L95.9939 259.674L127.089 257.411L81.09 302.87Z" fill="#E18965"/>
</svg>
