<svg width="472" height="340" viewBox="0 0 472 340" fill="none" xmlns="http://www.w3.org/2000/svg">
<rect x="30.3552" width="443.537" height="165" rx="80" transform="rotate(5.90614 30.3552 0)" fill="#54B6CB"/>
<path d="M68.0177 57.1188L68.9829 47.7886L66.3967 47.5211L66.654 45.0344L69.3197 45.3101L69.9783 38.9441L72.6242 39.2178L71.9656 45.5838L74.2733 45.8226L74.016 48.3093L71.768 48.0767L70.8028 57.407L68.0177 57.1188ZM66.2931 55.1308L65.4603 51.908C66.3576 51.0089 67.0978 50.0734 67.6809 49.1016C68.2772 48.1312 68.7538 47.088 69.1105 45.9721L70.1066 46.8392C69.9223 47.9729 69.6346 49.0691 69.2436 50.1279C68.8672 51.1747 68.4202 52.1271 67.9025 52.985C67.398 53.8444 66.8616 54.5596 66.2931 55.1308ZM72.2345 53.6745C71.9144 52.6226 71.5869 51.5767 71.2522 50.5367C70.932 49.4849 70.5836 48.3832 70.2067 47.2316L71.9505 46.5072C72.3333 47.4717 72.7042 48.4216 73.0632 49.3568C73.4236 50.2788 73.7872 51.2346 74.1539 52.2243L72.2345 53.6745ZM67.58 44.8286C67.4726 44.0534 67.3539 43.2569 67.224 42.4392C67.0941 41.6215 66.9633 40.8775 66.8316 40.207L68.9369 39.6809C69.0805 40.3659 69.2047 41.1093 69.3094 41.911C69.4288 42.7008 69.5269 43.5018 69.6037 44.3141L67.58 44.8286ZM73.2724 55.1089L73.2896 52.4163L84.8891 51.4649L84.8719 54.1574L73.2724 55.1089ZM77.494 51.4237C76.9763 50.7267 76.4216 49.9991 75.8298 49.2409C75.238 48.4826 74.6065 47.7203 73.9351 46.9538L76.2016 45.258C76.8744 46.0112 77.5073 46.7603 78.1005 47.5053C78.7082 48.2384 79.2637 48.9594 79.7667 49.6682L77.494 51.4237ZM73.6854 45.4803L71.7406 44.4547C72.0786 43.7792 72.3955 43.0479 72.6914 42.2609C72.9873 41.4738 73.2313 40.735 73.4233 40.0444L75.5623 40.7483C75.3235 41.501 75.0336 42.2954 74.6924 43.1314C74.3659 43.9555 74.0302 44.7385 73.6854 45.4803ZM79.5362 58.3104L81.4172 40.1274L84.5008 40.4464L82.6198 58.6294L79.5362 58.3104ZM78.8372 46.2143C78.3922 45.5918 77.9088 44.952 77.387 44.2949C76.8652 43.6377 76.3176 42.9711 75.7441 42.2952L78.0085 40.6193C78.5848 41.2687 79.1345 41.9154 79.6577 42.5593C80.1808 43.2032 80.6656 43.8298 81.112 44.4389L78.8372 46.2143ZM90.3681 58.9484L90.6274 56.4418L96.0982 57.0077L96.2423 55.6151L91.8457 55.1603L92.0865 52.8327L96.483 53.2876L97.0243 48.0555L95.3731 47.8847L95.5686 45.9947L97.2198 46.1656L97.3927 44.4945L100.496 44.8155L100.323 46.4866L101.994 46.6595L102.167 44.9884L95.7415 44.3237L94.9697 51.7839L92.304 51.5081L93.3247 41.6407L105.142 42.8632L104.121 52.7305L94.9697 51.7839L95.1961 49.5955L101.622 50.2603L101.799 48.5494L100.128 48.3765L99.5865 53.6086L104.222 54.0881L103.981 56.4157L99.3457 55.9362L99.2016 57.3287L104.056 57.8309L103.796 60.3375L90.3681 58.9484ZM85.6574 57.2547L85.6546 54.5601C86.2624 54.5157 86.9061 54.4483 87.5857 54.3577C88.2786 54.2685 88.9661 54.1654 89.6485 54.0483C90.3441 53.9326 90.9866 53.8114 91.5761 53.6847L91.3285 56.273C90.7641 56.4157 90.1467 56.5529 89.4763 56.6846C88.8059 56.8163 88.1368 56.9348 87.4691 57.0399C86.8027 57.1319 86.1988 57.2034 85.6574 57.2547ZM87.124 54.9333L87.6221 50.1189L86.4284 49.9955L86.7042 47.3297L87.8978 47.4532L88.1983 44.5487L86.8057 44.4046L87.0897 41.6593L92.7794 42.2478L92.4954 44.9932L91.1426 44.8533L90.8421 47.7578L92.0755 47.8853L91.7998 50.5511L90.5663 50.4235L90.0683 55.2378L87.124 54.9333ZM115.472 60.9824C113.96 60.8259 112.816 60.3524 112.04 59.5617C111.264 58.7709 110.94 57.7522 111.069 56.5056C111.2 55.2456 111.718 54.314 112.625 53.7108C113.547 53.0957 114.77 52.867 116.295 53.0248C116.919 53.0893 117.501 53.2299 118.041 53.4467C118.595 53.6649 119.163 54.0051 119.745 54.4675C120.329 54.9166 120.982 55.5337 121.705 56.319C122.428 57.1042 123.276 58.1035 124.25 59.3168L122.06 61.2417C121.208 60.1482 120.476 59.2548 119.864 58.5615C119.267 57.8563 118.741 57.3059 118.286 56.9103C117.844 56.5161 117.431 56.2321 117.047 56.0583C116.663 55.8845 116.259 55.7757 115.834 55.7318C114.667 55.611 114.04 55.9684 113.954 56.804C113.868 57.6395 114.408 58.1176 115.575 58.2384C116.212 58.3042 116.676 58.2249 116.967 58.0003C117.271 57.7772 117.453 57.3804 117.512 56.8101L118.798 44.3765L121.922 44.6996L120.619 57.2924C120.479 58.6452 119.961 59.6371 119.065 60.2682C118.182 60.9007 116.984 61.1388 115.472 60.9824ZM112.069 49.3705L112.351 46.6451L125.063 47.9601L124.781 50.6856L112.069 49.3705ZM106.891 60.356C106.699 58.969 106.594 57.5908 106.575 56.2216C106.555 54.8523 106.623 53.425 106.776 51.9396C106.93 50.4542 107.156 49.0499 107.453 47.7269C107.753 46.3906 108.138 45.0632 108.609 43.7447L111.735 44.43C111.313 45.6598 110.954 46.9295 110.658 48.2393C110.376 49.5372 110.163 50.8825 110.019 52.275C109.875 53.6676 109.807 55.0346 109.816 56.3759C109.839 57.7054 109.932 59.0152 110.093 60.3053L106.891 60.356ZM131.5 61.7356L131.757 59.2488L125.033 58.5532L125.329 55.6885L133.002 47.2131L136.384 47.5629L135.435 56.734L137.763 56.9748L137.466 59.8395L135.139 59.5987L134.882 62.0854L131.5 61.7356ZM128.597 56.1674L132.178 56.5378L132.678 51.7036L132.638 51.6995L128.601 56.1276L128.597 56.1674ZM142.638 60.2538C145.184 60.5172 147.243 60.5694 148.814 60.4102C150.386 60.2511 151.553 59.8557 152.315 59.2241C153.091 58.5939 153.537 57.7085 153.655 56.568C153.784 55.3213 153.488 54.3657 152.766 53.7012C152.057 53.0381 150.873 52.6207 149.216 52.4492C148.552 52.3806 147.811 52.3575 146.991 52.38C146.171 52.4024 145.219 52.4648 144.137 52.5672C143.054 52.6697 141.763 52.8311 140.266 53.0515L139.981 49.7848C142.233 49.5219 144.147 49.3579 145.722 49.293C147.312 49.2162 148.663 49.2354 149.777 49.3506C151.528 49.5317 152.975 49.9294 154.118 50.5435C155.261 51.1577 156.088 51.9738 156.599 52.9919C157.112 53.9966 157.296 55.1953 157.152 56.5878C156.873 59.2801 155.502 61.1959 153.039 62.3351C150.59 63.4624 147.097 63.7915 142.561 63.3223L142.638 60.2538ZM169.068 63.6515C169.741 63.6273 170.364 63.4974 170.938 63.2619C171.512 63.0264 172.015 62.703 172.446 62.2919C172.892 61.8689 173.252 61.3699 173.526 60.795C173.801 60.2069 173.975 59.568 174.046 58.8784C174.15 57.8704 174.008 56.9777 173.619 56.2003C173.245 55.4109 172.667 54.7748 171.886 54.2918C171.119 53.8103 170.211 53.5153 169.163 53.4069C168.261 53.3136 167.396 53.3849 166.567 53.6209C165.753 53.845 165.02 54.1981 164.366 54.6801C163.713 55.1621 163.177 55.7434 162.759 56.4239C162.34 57.1044 162.088 57.8558 162.003 58.6781C161.948 59.2086 161.98 59.7414 162.099 60.2764C162.219 60.7983 162.394 61.2453 162.623 61.6176C162.868 61.9779 163.129 62.1725 163.407 62.2013C163.819 62.2439 164.269 61.8414 164.759 60.994C165.263 60.1347 165.775 58.8807 166.294 57.232C166.828 55.5714 167.356 53.5752 167.879 51.2433L170.987 51.9066C170.387 54.4718 169.794 56.6356 169.21 58.3982C168.638 60.1621 168.05 61.5757 167.444 62.639C166.838 63.7023 166.19 64.4596 165.5 64.911C164.811 65.3491 164.056 65.5257 163.233 65.4406C162.53 65.3679 161.897 65.1415 161.333 64.7615C160.771 64.3682 160.301 63.8571 159.923 63.2283C159.547 62.5862 159.281 61.8549 159.125 61.0345C158.97 60.2007 158.941 59.3131 159.038 58.3714C159.171 57.085 159.526 55.9286 160.101 54.9024C160.678 53.8628 161.431 52.9958 162.361 52.3011C163.29 51.6064 164.361 51.1006 165.574 50.7836C166.786 50.4667 168.089 50.3803 169.481 50.5243C171.126 50.6945 172.552 51.1571 173.761 51.9121C174.985 52.6553 175.901 53.6481 176.509 54.8907C177.119 56.12 177.339 57.5569 177.169 59.2015C177.058 60.2758 176.795 61.2606 176.381 62.1561C175.981 63.0396 175.453 63.8093 174.795 64.4651C174.139 65.1077 173.376 65.6119 172.507 65.9777C171.653 66.3317 170.715 66.5229 169.693 66.5512L169.068 63.6515ZM178.536 67.3655L178.829 64.5406L185.851 65.267L186.905 55.0814L180.479 54.4167L180.771 51.5917L196.965 53.2669L196.673 56.0919L190.247 55.4271L189.193 65.6128L196.216 66.3393L195.924 69.1642L178.536 67.3655ZM203.73 70.6754L203.989 68.1688L208.923 68.6792L209.046 67.4856L205.306 67.0987L205.526 64.97L209.266 65.3569L209.384 64.223L205.246 63.7949L205.488 61.4474L217.186 62.6575L216.943 65.005L212.547 64.5502L212.429 65.6841L216.408 66.0957L216.188 68.2244L212.209 67.8128L212.086 69.0064L216.721 69.4859L216.462 71.9925L203.73 70.6754ZM198.745 68.129L197.892 65.1052C198.79 63.938 199.513 62.7796 200.061 61.6299C200.609 60.4802 201.009 59.3286 201.263 58.1752L201.886 59.7276C201.449 61.8807 200.967 63.6271 200.44 64.9666C199.927 66.2942 199.362 67.3484 198.745 68.129ZM199.681 70.7392L200.772 60.1955L198.882 60L199.15 57.4138L201.04 57.6093L201.379 54.3268L204.164 54.6149L203.825 57.8974L205.735 58.095L205.467 60.6812L203.557 60.4836L202.467 71.0273L199.681 70.7392ZM203.898 66.1287C203.55 65.0873 203.194 64.0586 202.83 63.0424C202.468 62.0129 202.078 60.9874 201.661 59.9657L203.024 58.84C203.54 59.9389 204.021 60.9874 204.468 61.9852C204.915 62.9699 205.333 63.9246 205.72 64.8493L203.898 66.1287ZM199.699 55.8017L199.689 53.3678C200.732 53.3952 201.794 53.3644 202.875 53.2752C203.957 53.186 204.943 53.0534 205.832 52.8773L206.228 55.2707C205.496 55.4765 204.569 55.6286 203.446 55.7269C202.337 55.8266 201.088 55.8515 199.699 55.8017ZM205.943 60.5495L206.666 53.5667L217.468 54.6842L216.746 61.6669L208.967 60.8623L209.196 58.6541L213.89 59.1397L214.125 56.8718L209.43 56.3862L208.967 60.8623L205.943 60.5495ZM230.106 73.0421C228.435 72.8692 227.012 72.4339 225.838 71.736C224.663 71.0381 223.791 70.1369 223.222 69.0325C222.653 67.928 222.441 66.6729 222.586 65.267C222.688 64.2856 222.941 63.387 223.348 62.5711C223.754 61.7552 224.289 61.0466 224.955 60.4452C225.634 59.8452 226.411 59.3894 227.288 59.078L227.54 59.7475L218.866 59.0513L219.164 56.1666L236.175 57.5242L235.877 60.4088L233.324 60.2051C232.394 60.1223 231.51 60.1783 230.673 60.3732C229.835 60.568 229.085 60.8858 228.423 61.3267C227.76 61.7676 227.227 62.3223 226.823 62.9909C226.42 63.6463 226.173 64.4116 226.083 65.2869C225.989 66.1888 226.095 66.9839 226.399 67.6721C226.704 68.3472 227.197 68.8941 227.878 69.313C228.573 69.7201 229.425 69.9757 230.433 70.08C230.671 70.1047 230.937 70.1255 231.23 70.1424C231.525 70.1461 231.826 70.1504 232.134 70.1554C232.443 70.1472 232.733 70.1303 233.004 70.1047L233.055 73.1059C232.733 73.1128 232.397 73.1183 232.048 73.1224C231.699 73.1265 231.358 73.118 231.025 73.097C230.691 73.0892 230.385 73.0709 230.106 73.0421ZM232.14 67.1803C231.893 66.4577 231.623 65.7662 231.329 65.1058C231.036 64.4455 230.69 63.7663 230.293 63.0684L232.458 62.1664C232.855 62.8642 233.199 63.55 233.491 64.2236C233.797 64.8987 234.078 65.6114 234.336 66.3619L232.14 67.1803ZM235.496 66.4216C235.264 65.6871 235.007 64.9904 234.727 64.3314C234.448 63.6591 234.123 62.9754 233.753 62.2802L235.911 61.4378C236.279 62.1595 236.602 62.8565 236.881 63.5287C237.173 64.2024 237.434 64.9197 237.664 65.6807L235.496 66.4216ZM239.34 74.9423L237.527 71.8595C237.817 71.3934 238.07 70.9505 238.288 70.5307C238.507 70.0976 238.694 69.6478 238.85 69.1813C239.018 68.7162 239.165 68.202 239.291 67.6385C239.416 67.0751 239.531 66.4168 239.636 65.6636C239.741 64.9103 239.844 64.0364 239.947 63.0417L240.431 58.3666L257.301 60.1118L257.033 62.698L243.187 61.2656L242.73 65.6821C242.584 67.1012 242.366 68.3588 242.079 69.455C241.806 70.5394 241.443 71.5206 240.99 72.3986C240.551 73.2781 240 74.126 239.34 74.9423ZM244.741 71.902C244.463 71.8732 244.105 71.8295 243.669 71.771C243.246 71.7138 242.752 71.6292 242.187 71.5171L242.102 69.0352C242.469 69.1134 242.824 69.1836 243.166 69.2458C243.509 69.2947 243.767 69.3281 243.94 69.346C244.059 69.3583 244.16 69.3553 244.242 69.3371C244.325 69.3188 244.392 69.252 244.444 69.1367C244.511 69.0096 244.57 68.8214 244.623 68.5722C244.69 68.311 244.748 67.9484 244.796 67.4842C244.857 67.0214 244.926 66.4252 245.001 65.6958L241.917 65.3768L242.166 62.9697L247.896 63.5624C247.726 65.2069 247.573 66.5583 247.436 67.6166C247.3 68.6748 247.147 69.5102 246.976 70.1225C246.82 70.723 246.641 71.1602 246.438 71.4341C246.25 71.6962 246.019 71.8533 245.746 71.9054C245.474 71.9443 245.139 71.9431 244.741 71.902ZM245.001 75.0253L244.192 72.3479C245.594 72.0104 246.893 71.4476 248.087 70.6596C249.282 69.8584 250.338 68.855 251.253 67.6495C252.183 66.4321 252.919 65.0203 253.461 63.4142L256.032 64.4041C255.397 66.2686 254.529 67.9214 253.428 69.3624C252.341 70.8049 251.084 72.0085 249.657 72.9735C248.231 73.9252 246.679 74.6091 245.001 75.0253ZM253.463 76.2224C252.906 76.1648 252.338 75.8849 251.76 75.3827C251.182 74.8806 250.641 74.1477 250.138 73.1841C249.636 72.2073 249.213 70.9773 248.871 69.4941C248.541 68.0124 248.334 66.2617 248.248 64.2422C248.176 62.2107 248.275 59.8953 248.544 57.2958L251.469 57.5983C251.256 59.654 251.165 61.5012 251.197 63.1398C251.242 64.7798 251.356 66.2057 251.539 67.4176C251.735 68.6309 251.958 69.646 252.209 70.4628C252.461 71.2663 252.7 71.8675 252.927 72.2662C253.167 72.6664 253.34 72.872 253.446 72.883C253.526 72.8912 253.616 72.8 253.716 72.6092C253.829 72.4199 253.958 72.0847 254.101 71.6036C254.245 71.1225 254.402 70.4484 254.572 69.5813L256.886 70.9265C256.73 71.9157 256.522 72.7588 256.262 73.4558C256.017 74.1408 255.739 74.6951 255.427 75.1186C255.128 75.5435 254.809 75.8389 254.47 76.0049C254.13 76.1842 253.794 76.2567 253.463 76.2224ZM254.103 61.289C253.811 60.7361 253.5 60.1877 253.167 59.644C252.835 59.1002 252.499 58.5896 252.159 58.1121L254.604 57.42C254.956 57.8988 255.292 58.4094 255.611 58.9518C255.944 59.4955 256.256 60.0439 256.547 60.5968L254.103 61.289ZM261.26 73.3494C263.713 73.6032 265.703 73.6081 267.23 73.3638C268.77 73.121 269.924 72.5903 270.692 71.7716C271.462 70.9398 271.921 69.801 272.071 68.3554C272.215 66.9628 272.029 65.9114 271.513 65.2012C270.998 64.4777 270.124 64.0521 268.89 63.9246C268.227 63.856 267.586 63.8969 266.967 64.0473C266.35 64.1845 265.789 64.4214 265.285 64.758C264.781 65.0946 264.369 65.5145 264.049 66.0175C263.729 66.5206 263.535 67.1037 263.466 67.7668L263.186 70.4724L260.063 70.1493L261.149 59.6453L264.273 59.9684L263.875 63.8079L262.682 63.6845C263.333 62.961 264.01 62.3808 264.712 61.9441C265.415 61.4941 266.164 61.1895 266.958 61.0303C267.753 60.8579 268.615 60.8197 269.543 60.9158C271.678 61.1367 273.24 61.9148 274.228 63.2502C275.23 64.5737 275.612 66.3893 275.373 68.697C275.158 70.7792 274.511 72.4348 273.432 73.6636C272.353 74.8925 270.799 75.7237 268.771 76.1572C266.742 76.5908 264.189 76.6484 261.112 76.3301L261.26 73.3494ZM279.317 65.3651L279.593 62.6994L286.615 63.4258L286.848 61.1778L290.111 61.5153L289.878 63.7633L296.901 64.4898L296.625 67.1556L279.317 65.3651ZM277.586 78.2152L277.87 75.4698L295.973 77.3426L295.689 80.088L277.586 78.2152ZM282.603 75.1954C282.475 73.8417 282.309 72.464 282.106 71.0623C281.916 69.662 281.701 68.306 281.461 66.9944L284.617 66.6171C284.853 67.9552 285.065 69.3444 285.251 70.7845C285.452 72.2127 285.615 73.617 285.74 74.9972L282.603 75.1954ZM289.823 78.0938L287.054 76.6813C287.911 75.3894 288.718 73.938 289.475 72.3273C290.231 70.7166 290.894 69.0359 291.464 67.2852L294.643 68.2374C294.038 70.0649 293.327 71.8277 292.507 73.5257C291.688 75.2238 290.794 76.7465 289.823 78.0938ZM302.772 77.121C304.735 77.3241 306.318 77.3739 307.522 77.2706C308.727 77.154 309.614 76.8704 310.184 76.4199C310.766 75.9708 311.1 75.3352 311.185 74.5129C311.276 73.6375 311.063 72.9721 310.547 72.5166C310.044 72.0625 309.19 71.773 307.983 71.6482C307.452 71.5933 306.864 71.5793 306.218 71.6063C305.573 71.62 304.817 71.6692 303.951 71.7538C303.099 71.8265 302.081 71.9491 300.897 72.1215L300.624 69.1175C302.415 68.914 303.949 68.7846 305.229 68.7293C306.508 68.6739 307.592 68.6922 308.48 68.7841C310.576 69.0009 312.122 69.6032 313.119 70.591C314.116 71.5789 314.528 72.9083 314.355 74.5794C314.133 76.728 313.036 78.2566 311.066 79.1653C309.108 80.0754 306.313 80.3425 302.679 79.9665L302.772 77.121ZM330.392 83.2154C328.72 83.0425 327.297 82.6138 326.121 81.9292C324.944 81.2578 324.069 80.3832 323.497 79.3052C322.925 78.2273 322.71 77.0053 322.851 75.6393C322.95 74.6844 323.201 73.8122 323.604 73.0229C324.008 72.2335 324.541 71.5514 325.203 70.9766C325.881 70.3898 326.657 69.9474 327.532 69.6492L327.785 70.3187L319.11 69.6224L319.409 66.7378L336.419 68.0954L336.121 70.98L333.568 70.7763C332.652 70.6949 331.775 70.7449 330.939 70.9265C330.103 71.1081 329.354 71.4126 328.693 71.8402C328.034 72.2546 327.496 72.7821 327.082 73.4228C326.68 74.0649 326.435 74.8104 326.348 75.6592C326.257 76.5345 326.366 77.2964 326.674 77.9449C326.984 78.5801 327.479 79.1006 328.161 79.5062C328.858 79.9 329.71 80.149 330.718 80.2533C331.089 80.2917 331.509 80.315 331.978 80.3233C332.446 80.3315 332.883 80.3164 333.289 80.278L333.341 83.2792C332.842 83.308 332.332 83.3156 331.81 83.3018C331.302 83.2895 330.829 83.2607 330.392 83.2154ZM342.732 84.4317C342.002 84.3562 341.361 84.082 340.806 83.6092C340.252 83.1363 339.795 82.4992 339.436 81.698C339.089 80.8981 338.851 79.962 338.721 78.8895C338.604 77.8185 338.611 76.6463 338.743 75.3731C338.847 74.3652 339.042 73.3263 339.327 72.2566C339.612 71.1869 340 70.0208 340.493 68.7581L343.639 69.4454C343.186 70.5782 342.831 71.6205 342.571 72.5722C342.312 73.5239 342.136 74.444 342.045 75.3326C341.964 76.1151 341.935 76.8427 341.959 77.5155C341.997 78.1896 342.077 78.7809 342.198 79.2895C342.32 79.798 342.479 80.2032 342.676 80.505C342.887 80.795 343.125 80.9537 343.39 80.9811C343.656 81.0086 343.96 80.9194 344.303 80.7136C344.659 80.5092 345.031 80.2192 345.418 79.8437C345.82 79.4564 346.208 79.0139 346.581 78.5163C346.956 78.0055 347.286 77.47 347.572 76.9097L350.3 78.7201C349.86 79.5995 349.341 80.4037 348.743 81.1327C348.158 81.8631 347.524 82.4878 346.84 83.0069C346.157 83.5259 345.467 83.9103 344.771 84.16C344.075 84.4097 343.395 84.5003 342.732 84.4317ZM352.365 83.4377C352.522 81.9257 352.578 80.4101 352.534 78.8909C352.503 77.373 352.375 75.892 352.149 74.4477C351.937 73.0048 351.628 71.6459 351.224 70.3708L354.316 69.8262C354.783 71.1478 355.139 72.5653 355.384 74.0786C355.645 75.5801 355.791 77.1434 355.824 78.7688C355.87 80.3955 355.805 82.0643 355.628 83.7752L352.365 83.4377ZM365.805 87.4418C363.789 87.2333 362.252 86.7325 361.195 85.9395C360.151 85.1478 359.691 84.1486 359.816 82.9417C359.923 81.9072 360.437 81.1494 361.358 80.6683C362.294 80.1753 363.518 80.007 365.029 80.1634C366.395 80.3047 367.391 80.6624 368.015 81.2363C368.641 81.797 368.902 82.5747 368.799 83.5694C368.762 83.9275 368.683 84.3013 368.562 84.691C368.442 85.0806 368.289 85.4536 368.105 85.8098L365.408 85.2494C365.592 84.8931 365.739 84.5798 365.847 84.3096C365.957 84.026 366.021 83.7914 366.041 83.6057C366.111 82.9293 365.622 82.537 364.574 82.4286C364.03 82.3723 363.603 82.4153 363.294 82.5575C362.986 82.6865 362.815 82.9101 362.782 83.2284C362.735 83.6794 362.952 84.0503 363.431 84.3411C363.91 84.632 364.647 84.8289 365.642 84.9318C367.605 85.1348 369.065 85.0111 370.023 84.5606C370.995 84.1115 371.54 83.3167 371.658 82.1761C371.762 81.1682 371.466 80.4003 370.77 79.8726C370.088 79.3329 368.912 78.9766 367.241 78.8038C366.286 78.705 365.442 78.6981 364.71 78.7832C363.977 78.8683 363.269 79.043 362.585 79.3073L359.98 80.385L358.962 77.7864L369.854 73.5648L369.811 73.9826L360.66 73.0359L360.94 70.3304L374.985 71.7833L374.705 74.4889L363.948 78.7647L362.447 77.1416C362.913 77.0424 363.444 76.9566 364.042 76.8844C364.639 76.8121 365.255 76.7552 365.889 76.7135C366.523 76.6719 367.135 76.6548 367.724 76.6621C368.314 76.6562 368.835 76.6765 369.286 76.7232C371.275 76.929 372.763 77.5184 373.748 78.4916C374.734 79.4516 375.145 80.7273 374.98 82.3188C374.782 84.2419 373.885 85.6505 372.291 86.5445C370.699 87.4253 368.537 87.7244 365.805 87.4418ZM386.155 89.165C383.675 88.9085 381.832 88.329 380.625 87.4267C379.419 86.5111 378.894 85.304 379.049 83.8054C379.179 82.5454 379.769 81.4469 380.818 80.5098C381.868 79.5595 383.433 78.7429 385.515 78.0602C387.609 77.3787 390.269 76.8027 393.495 76.3321L393.832 78.5184C391.096 78.919 388.83 79.3816 387.033 79.9062C385.249 80.4321 383.908 81.0239 383.009 81.6815C382.124 82.3273 381.639 83.0679 381.552 83.9035C381.374 85.6276 383.029 86.6701 386.517 87.0309C387.087 87.0899 387.687 87.1251 388.316 87.1365C388.944 87.148 389.648 87.1471 390.427 87.1338C391.22 87.1086 392.123 87.0679 393.134 87.0117L393.19 89.189C391.908 89.2709 390.671 89.3105 389.478 89.3077C388.297 89.3196 387.19 89.272 386.155 89.165ZM383.295 79.8815C383.045 78.542 382.852 77.2351 382.716 75.961C382.581 74.6736 382.498 73.405 382.466 72.1551L384.91 72.046C384.955 73.2973 385.046 74.5534 385.184 75.8142C385.323 77.0618 385.516 78.3083 385.762 79.5536L383.295 79.8815ZM398.361 90.9102L397.177 88.938C398.118 88.3919 398.939 87.7194 399.638 86.9205C400.35 86.1229 400.921 85.2034 401.351 84.1621C401.793 83.1221 402.081 81.9589 402.214 80.6724L402.601 76.9324L400.552 76.7204L400.758 74.731L407.522 75.4307L407.316 77.4201L404.929 77.1732L404.542 80.9132C404.43 82.0007 404.186 83.0547 403.813 84.075C403.452 85.0966 402.991 86.0543 402.43 86.9479C401.868 87.8415 401.244 88.6281 400.557 89.3077C399.87 89.9873 399.138 90.5215 398.361 90.9102ZM404.812 90.3511C404.333 89.2828 403.829 88.1985 403.299 87.0981C402.783 85.9992 402.246 84.8981 401.69 83.7951L403.584 82.9856C404.193 84.0942 404.758 85.178 405.278 86.2372C405.812 87.2978 406.31 88.3144 406.772 89.2871L404.812 90.3511ZM397.917 82.1782L398.129 80.1291L407.3 81.0778L407.088 83.1269L397.917 82.1782ZM399.863 79.8863L398.033 78.9128C398.55 78.0682 399.044 77.1139 399.516 76.0502C399.988 74.9864 400.397 73.8827 400.743 72.7389L402.739 73.2671C402.398 74.4918 401.981 75.6752 401.487 76.8171C400.995 77.9458 400.454 78.9689 399.863 79.8863ZM406.673 91.6092L408.377 75.1371L416.454 75.9727L414.75 92.4448L412.462 92.2081L412.581 91.0543L409.02 90.6859L409.226 88.6965L412.787 89.0649L413.954 77.7851L410.393 77.4167L408.901 91.8397L406.673 91.6092ZM65.5516 89.8991C68.1112 90.1639 70.1962 90.1584 71.8065 89.8826C73.43 89.6082 74.644 89.0167 75.4484 88.1079C76.2675 87.1873 76.758 85.9445 76.9199 84.3796C77.0845 82.7881 76.8691 81.5661 76.2737 80.7136C75.6928 79.8493 74.7128 79.3457 73.3335 79.203C72.5643 79.1235 71.8284 79.1747 71.1259 79.3567C70.4368 79.5401 69.8162 79.8378 69.2642 80.2499C68.7122 80.6619 68.2507 81.1705 67.8798 81.7755C67.5222 82.3819 67.3036 83.0698 67.224 83.839L66.9544 86.4451L64.6467 86.2064L65.7292 75.7422L68.0369 75.9809L67.5986 80.2183L66.7033 80.1257C67.2659 79.3528 67.9015 78.7148 68.6104 78.2118C69.3325 77.7101 70.1265 77.3566 70.9922 77.1512C71.8725 76.934 72.8101 76.8768 73.8048 76.9797C75.8339 77.1897 77.3232 77.9536 78.2726 79.2716C79.2367 80.5778 79.6014 82.3648 79.3668 84.6327C79.1555 86.6751 78.5185 88.2982 77.4556 89.5019C76.406 90.7069 74.8948 91.5157 72.9219 91.9282C70.9476 92.354 68.4551 92.4112 65.4445 92.0997L65.5516 89.8991ZM86.3928 94.8499C85.8664 93.9778 85.2881 93.1539 84.6579 92.3783C84.029 91.5894 83.335 90.8473 82.5759 90.1522L84.3759 88.6897C85.1324 89.4113 85.8428 90.1886 86.5073 91.0214C87.1732 91.8409 87.7798 92.7146 88.3273 93.6425L86.3928 94.8499ZM103.197 96.6486L104.977 79.4404L120.096 81.0045L118.316 98.2126L115.929 97.9657L116.03 96.9909L105.685 95.9207L105.883 94.0109L116.227 95.0811L116.522 92.2363L106.177 91.1661L106.374 89.2563L116.719 90.3264L117.013 87.4816L106.669 86.4115L106.868 84.4818L117.213 85.5519L117.505 82.727L107.161 81.6569L105.584 96.8955L103.197 96.6486ZM131.349 98.3745C131.017 98.3402 130.598 98.2499 130.09 98.1036C129.581 97.9705 129.049 97.8015 128.494 97.5966C127.94 97.3785 127.42 97.1505 126.936 96.9127L127.681 94.959C128.091 95.1355 128.502 95.312 128.913 95.4886C129.338 95.6532 129.726 95.7938 130.076 95.9104C130.44 96.0152 130.728 96.0785 130.941 96.1005C131.365 96.1444 131.736 95.9884 132.055 95.6326C132.374 95.2635 132.644 94.6681 132.863 93.8463C133.096 93.0126 133.282 91.9326 133.419 90.6063C133.499 89.8371 133.529 89.217 133.511 88.7459C133.507 88.263 133.438 87.8939 133.304 87.6387C133.169 87.3835 132.94 87.199 132.617 87.0851C132.294 86.9712 131.854 86.8855 131.297 86.8279L122.822 85.9512L123.036 83.8822L131.272 84.7342C132.2 84.8303 132.965 84.9496 133.567 85.0923C134.17 85.2217 134.647 85.4118 134.996 85.6624C135.346 85.913 135.59 86.2667 135.731 86.7236C135.886 87.1686 135.953 87.7519 135.932 88.4736C135.925 89.1834 135.867 90.0687 135.758 91.1297C135.579 92.8539 135.299 94.2659 134.917 95.3658C134.549 96.467 134.07 97.2687 133.482 97.7709C132.895 98.2597 132.184 98.461 131.349 98.3745ZM121.902 97.1761C122.523 95.9669 123.081 94.8517 123.575 93.8305C124.071 92.796 124.522 91.8038 124.928 90.854C125.348 89.9055 125.736 88.9403 126.093 87.9584C126.462 86.9779 126.819 85.929 127.162 84.8117C127.506 83.6945 127.861 82.4579 128.229 81.1019L130.51 81.5992C130.161 82.9035 129.814 84.1209 129.469 85.2515C129.126 86.3687 128.76 87.4434 128.371 88.4756C127.998 89.4959 127.591 90.5128 127.151 91.5263C126.724 92.5411 126.248 93.5842 125.721 94.6558C125.208 95.7287 124.634 96.8756 123.998 98.0967L121.902 97.1761ZM138.474 95.1908C138.437 94.3827 138.366 93.5175 138.26 92.595C138.154 91.6726 138.023 90.7408 137.866 89.7996C137.708 88.8584 137.534 87.949 137.344 87.0714C137.154 86.1805 136.951 85.3619 136.733 84.6155L139.027 84.2094C139.255 84.9837 139.464 85.8163 139.653 86.7071C139.843 87.598 140.016 88.514 140.173 89.4552C140.331 90.3964 140.461 91.3349 140.566 92.2706C140.671 93.193 140.748 94.0722 140.796 94.9082L138.474 95.1908ZM150.515 100.659C149.799 100.585 149.027 100.471 148.198 100.319C147.381 100.181 146.587 100.018 145.816 99.8309C145.057 99.6452 144.373 99.4538 143.764 99.2567L144.197 97.2104C144.952 97.4226 145.716 97.6222 146.487 97.8093C147.272 97.9977 148.026 98.1628 148.748 98.3046C149.472 98.4331 150.133 98.5282 150.729 98.5899C152.613 98.7848 154.067 98.6537 155.093 98.1969C156.119 97.74 156.688 96.9678 156.8 95.8803C156.894 94.9784 156.626 94.2604 155.998 93.7262C155.371 93.1788 154.421 92.8392 153.148 92.7075C152.285 92.6184 151.406 92.628 150.511 92.7363C149.615 92.8447 148.756 93.0441 147.935 93.3345C147.114 93.6249 146.373 93.9906 145.711 94.4314L143.625 93.7935C143.885 92.9625 144.119 92.1958 144.326 91.4933C144.534 90.7776 144.717 90.1062 144.876 89.4792C145.036 88.839 145.181 88.2172 145.31 87.614L147.599 88.0318C147.444 88.753 147.267 89.4987 147.066 90.2688C146.881 91.0271 146.668 91.7892 146.428 92.5552L146.147 91.9632C146.91 91.5864 147.691 91.2919 148.49 91.0797C149.291 90.8542 150.104 90.7037 150.93 90.6283C151.768 90.5542 152.626 90.5624 153.501 90.653C155.53 90.8629 157.027 91.4266 157.991 92.344C158.955 93.2614 159.355 94.5092 159.192 96.0874C159.007 97.8779 158.184 99.16 156.723 99.9338C155.264 100.694 153.194 100.936 150.515 100.659ZM157.718 87.7917C156.47 87.676 155.277 87.5459 154.139 87.4014C153.002 87.2436 151.869 87.0593 150.738 86.8485C149.62 86.639 148.459 86.3916 147.256 86.1062L147.708 84.0619C148.822 84.3112 149.951 84.5419 151.095 84.7541C152.241 84.9531 153.381 85.138 154.516 85.3091C155.653 85.4669 156.791 85.6047 157.932 85.7227L157.718 87.7917ZM165.419 100.029C167.344 100.215 169.003 100.246 170.396 100.122C171.804 99.9859 172.975 99.6848 173.908 99.2183C174.842 98.7386 175.561 98.0757 176.064 97.2296C176.567 96.3835 176.882 95.3504 177.008 94.1303L177.282 91.4844L166.181 90.336L165.674 95.2299L163.307 94.985L164.029 88.0023L170.654 88.6876L170.967 85.6637L173.314 85.9066L173.002 88.9304L179.905 89.6446L179.415 94.3793C179.204 96.4217 178.563 98.078 177.493 99.348C176.425 100.605 174.901 101.472 172.921 101.951C170.955 102.432 168.511 102.541 165.589 102.279L165.419 100.029ZM182.276 104.045L183.852 88.8063L200.125 90.4897L198.549 105.728L196.142 105.479L196.286 104.087L184.847 102.903L184.703 104.296L182.276 104.045ZM185.067 100.775L196.506 101.958L197.498 92.3693L186.059 91.186L185.067 100.775ZM215.438 107.677L215.582 106.284L202.532 104.934L202.752 102.805L215.802 104.155L216.835 94.1687L203.785 92.8187L204.005 90.69L219.522 92.2952L217.905 107.932L215.438 107.677ZM233.215 109.395C231.611 109.229 230.241 108.799 229.106 108.105C227.984 107.426 227.15 106.542 226.606 105.454C226.063 104.352 225.864 103.105 226.008 101.713C226.12 100.625 226.417 99.637 226.897 98.7484C227.391 97.8612 228.032 97.1098 228.82 96.4942C229.622 95.8668 230.539 95.4188 231.572 95.1504L231.708 95.7876L222.216 95.0269L222.436 92.8982L239.247 94.2352L239.027 96.3639L236.494 96.1622C235.431 96.079 234.431 96.1499 233.497 96.3749C232.577 96.588 231.763 96.9394 231.055 97.4292C230.361 97.9204 229.795 98.5321 229.357 99.2643C228.921 99.9832 228.655 100.807 228.559 101.735C228.455 102.743 228.583 103.641 228.944 104.429C229.306 105.204 229.864 105.831 230.619 106.311C231.387 106.793 232.334 107.092 233.462 107.209C233.7 107.233 233.966 107.254 234.26 107.271C234.567 107.276 234.875 107.281 235.183 107.286C235.505 107.279 235.788 107.268 236.031 107.253L236.063 109.468C235.78 109.479 235.472 109.481 235.138 109.473C234.802 109.479 234.468 109.471 234.135 109.45C233.8 109.442 233.494 109.424 233.215 109.395ZM235.887 103.398C235.652 102.69 235.387 102.013 235.092 101.365C234.811 100.706 234.479 100.029 234.096 99.3322L235.925 98.5563C236.309 99.2528 236.647 99.9379 236.939 100.612C237.233 101.272 237.502 101.97 237.748 102.706L235.887 103.398ZM239.028 102.577C238.807 101.857 238.556 101.174 238.275 100.529C238.008 99.8709 237.689 99.1945 237.318 98.4994L239.144 97.7633C239.513 98.4717 239.837 99.1621 240.116 99.8343C240.408 100.508 240.663 101.218 240.881 101.964L239.028 102.577ZM249.717 111.203C248.205 111.046 246.99 110.679 246.071 110.102C245.164 109.539 244.529 108.742 244.167 107.713C243.817 106.685 243.722 105.402 243.881 103.863L244.884 94.1749L247.311 94.4259L246.308 104.114C246.148 105.666 246.356 106.827 246.933 107.597C247.512 108.354 248.517 108.806 249.95 108.955C250.997 109.063 251.939 108.966 252.775 108.664C253.623 108.363 254.417 107.815 255.156 107.02C255.91 106.213 256.667 105.119 257.426 103.736L259.542 104.86C258.874 106.131 258.187 107.2 257.481 108.065C256.79 108.918 256.056 109.6 255.279 110.109C254.517 110.607 253.678 110.942 252.762 111.116C251.846 111.289 250.831 111.318 249.717 111.203ZM261.773 112.249C262.516 110.516 263.208 108.751 263.849 106.954C264.505 105.146 265.105 103.304 265.647 101.43C266.204 99.5439 266.71 97.6391 267.163 95.7156L269.52 96.06C269.097 97.9465 268.606 99.846 268.046 101.759C267.5 103.672 266.895 105.567 266.232 107.442C265.57 109.304 264.859 111.127 264.098 112.911L261.773 112.249ZM274.106 113.545C272.899 113.42 271.866 113.165 271.008 112.782C270.148 112.411 269.499 111.949 269.06 111.394C268.623 110.826 268.441 110.184 268.515 109.468C268.57 108.937 268.803 108.432 269.215 107.952C269.627 107.472 270.233 106.991 271.033 106.511L272.692 107.97C272.155 108.236 271.746 108.495 271.465 108.747C271.199 108.988 271.052 109.241 271.025 109.506C270.993 109.811 271.104 110.097 271.358 110.365C271.627 110.621 272.013 110.842 272.516 111.028C273.033 111.215 273.636 111.345 274.326 111.416C274.949 111.48 275.589 111.513 276.246 111.514C276.903 111.515 277.589 111.485 278.306 111.426L278.344 113.581C277.601 113.638 276.888 113.665 276.205 113.661C275.521 113.658 274.822 113.619 274.106 113.545ZM262.773 99.8659L262.987 97.7969L276.992 99.2457L276.778 101.315L262.773 99.8659ZM269.981 102.884C271.561 102.9 273.104 102.945 274.611 103.021C276.131 103.098 277.647 103.214 279.159 103.371L278.943 105.459C277.458 105.306 275.962 105.191 274.455 105.116C272.962 105.028 271.445 104.992 269.902 105.007L269.981 102.884Z" fill="#282828"/>
<path opacity="0.6" d="M59.7199 125.086C60.1007 121.405 62.0475 118.329 65.365 115.998C65.5605 115.858 65.7876 115.801 65.9865 115.821C66.3645 115.861 66.6876 116.236 66.6485 116.614C66.6217 116.872 66.5037 117.041 66.2863 117.2C63.4072 119.375 61.8877 122.013 61.5502 125.275C61.2127 128.538 62.16 131.431 64.5329 134.149C64.7133 134.349 64.7942 134.538 64.7675 134.797C64.7284 135.175 64.3353 135.476 63.9573 135.437C63.7584 135.416 63.5478 135.314 63.3852 135.136C60.6152 132.176 59.3392 128.766 59.7199 125.086ZM77.9466 124.639L77.0843 132.974C76.8764 134.984 75.8015 135.657 74.0707 135.478C73.6132 135.43 73.098 135.357 72.5512 135.2C71.927 135.015 71.68 134.486 71.7335 133.969C71.7953 133.372 72.2549 132.817 72.9711 132.891C73.0307 132.897 73.1103 132.905 73.1878 132.933C73.5596 133.032 73.7963 133.077 74.035 133.101C74.4727 133.147 74.6662 133.026 74.7258 132.449L75.5593 124.392L69.7901 123.795C69.1535 123.729 68.8908 123.159 68.9443 122.642C68.9998 122.105 69.3716 121.621 70.0083 121.686L75.7775 122.283L76.0841 119.319C76.1541 118.643 76.8058 118.368 77.4026 118.43C77.9994 118.492 78.5434 118.87 78.4755 119.526L78.1647 122.53L83.8544 123.119C84.491 123.185 84.7558 123.735 84.7002 124.272C84.6467 124.789 84.2728 125.293 83.6362 125.228L77.9466 124.639ZM84.3346 118.283C85.5282 118.406 86.3665 119.438 86.243 120.631C86.1175 121.845 85.0857 122.683 83.8921 122.56C82.6786 122.434 81.8403 121.402 81.9658 120.189C82.0893 118.995 83.121 118.157 84.3346 118.283ZM83.995 121.565C84.6316 121.631 85.1824 121.165 85.2483 120.528C85.3142 119.892 84.8683 119.343 84.2317 119.277C83.5951 119.211 83.0264 119.655 82.9605 120.292C82.8947 120.928 83.3584 121.499 83.995 121.565ZM82.0399 127.636C82.4323 128.702 83.2329 130.293 83.8941 131.286C84.1198 131.631 84.2063 131.962 84.1775 132.24C84.1096 132.897 83.4812 133.335 82.8645 133.271C82.4865 133.232 82.0872 133.009 81.8142 132.539C81.1454 131.424 80.27 129.584 79.8427 128.273C79.7816 128.086 79.7603 127.903 79.7768 127.744C79.8427 127.107 80.4388 126.787 81.0157 126.846C81.4534 126.892 81.8506 127.134 82.0399 127.636ZM70.7937 126.533C71.064 126.058 71.5044 125.883 71.9421 125.928C72.519 125.988 73.0527 126.465 72.9848 127.122C72.9683 127.281 72.932 127.438 72.8339 127.609C72.0347 129.114 70.8836 130.523 69.5445 131.611C69.2152 131.879 68.8647 131.963 68.5663 131.932C67.9297 131.867 67.444 131.314 67.5037 130.737C67.5346 130.438 67.6848 130.152 68.012 129.905C69.1075 129.033 70.0549 127.844 70.7937 126.533ZM92.4931 125.52C92.9259 126.39 93.3602 127.44 93.6037 128.39C93.6312 128.513 93.6387 128.635 93.6264 128.754C93.5667 129.331 92.9486 129.669 92.3916 129.612C92.0136 129.573 91.674 129.357 91.5402 128.9C91.2727 127.988 90.9119 127.006 90.5325 126.202C90.4495 126.033 90.4262 125.87 90.4427 125.71C90.4962 125.193 91.0745 124.851 91.6315 124.909C91.9697 124.944 92.3113 125.14 92.4931 125.52ZM96.5288 124.993C96.9397 125.88 97.3184 126.884 97.5221 127.83C97.5496 127.954 97.5571 128.075 97.5468 128.175C97.4871 128.751 96.891 129.072 96.3539 129.016C95.9759 128.977 95.6185 128.739 95.5067 128.265C95.2611 127.335 94.9339 126.416 94.5744 125.615C94.4914 125.446 94.4681 125.282 94.4825 125.143C94.536 124.626 95.0903 124.321 95.6473 124.379C96.0054 124.416 96.3491 124.592 96.5288 124.993ZM100.982 126.258C101.173 125.775 101.591 125.617 102.029 125.662C102.586 125.72 103.146 126.14 103.084 126.737C103.076 126.816 103.048 126.894 103.018 126.991C101.279 131.557 97.6833 135.407 93.6497 137.081C93.4404 137.16 93.2552 137.201 93.0762 137.182C92.4993 137.123 92.1151 136.56 92.1707 136.023C92.2077 135.665 92.4238 135.325 92.8862 135.132C96.655 133.491 99.3619 130.453 100.982 126.258ZM116.668 123.517L116.089 129.108C116.325 128.77 116.71 128.548 117.128 128.592C117.307 128.61 117.462 128.666 117.633 128.765C118.809 129.449 120.434 130.643 121.587 131.747C121.954 132.087 122.074 132.481 122.037 132.839C121.971 133.476 121.418 133.962 120.781 133.896C120.523 133.869 120.233 133.759 119.977 133.511C118.913 132.516 117.33 131.307 116.504 130.739C116.242 130.551 116.081 130.353 115.984 130.122L115.097 138.696C115.025 139.393 114.413 139.671 113.817 139.609C113.24 139.55 112.678 139.15 112.75 138.454L114.32 123.275C114.392 122.578 115.026 122.282 115.603 122.342C116.2 122.403 116.74 122.821 116.668 123.517ZM119.942 125.686C119.819 125.512 119.776 125.347 119.79 125.208C119.831 124.81 120.266 124.493 120.704 124.538C120.883 124.557 121.076 124.637 121.238 124.815C121.726 125.348 122.257 126.046 122.611 126.706C122.732 126.899 122.753 127.082 122.734 127.262C122.689 127.699 122.274 128.018 121.856 127.975C121.618 127.95 121.391 127.806 121.239 127.529C120.829 126.823 120.352 126.191 119.942 125.686ZM122.094 124.32C121.951 124.144 121.908 123.979 121.924 123.82C121.965 123.422 122.378 123.123 122.836 123.17C123.035 123.191 123.226 123.291 123.408 123.471C123.88 123.962 124.413 124.64 124.771 125.26C124.91 125.476 124.949 125.681 124.928 125.88C124.883 126.318 124.472 126.597 124.054 126.554C123.816 126.529 123.567 126.403 123.395 126.123C122.997 125.499 122.502 124.845 122.094 124.32ZM134.655 128.454L134.416 125.132C134.402 125.07 134.41 124.991 134.416 124.931C134.48 124.314 135.112 124.038 135.689 124.098C136.186 124.149 136.657 124.459 136.697 125.046L136.938 128.349L141.506 128.118C141.568 128.104 141.627 128.11 141.687 128.116C142.344 128.184 142.642 128.798 142.586 129.335C142.541 129.773 142.237 130.184 141.672 130.206L137.084 130.435L137.291 133.291L143.221 132.92C143.283 132.906 143.362 132.914 143.422 132.92C144.059 132.986 144.359 133.58 144.303 134.117C144.258 134.555 143.954 134.966 143.387 135.008L137.437 135.378L137.837 140.848C137.85 140.909 137.842 140.989 137.836 141.049C137.772 141.665 137.158 141.964 136.581 141.904C136.084 141.853 135.613 141.543 135.576 140.935L135.17 135.525L129.24 135.897C129.179 135.911 129.119 135.904 129.059 135.898C128.423 135.832 128.124 135.218 128.18 134.681C128.225 134.244 128.529 133.833 129.096 133.791L135.026 133.419L134.821 130.543L130.293 130.778C130.231 130.792 130.171 130.785 130.112 130.779C129.495 130.715 129.197 130.102 129.252 129.564C129.299 129.107 129.583 128.694 130.169 128.674L134.655 128.454ZM155.347 134.073L160.482 133.8C160.685 133.781 160.884 133.802 161.083 133.822C162.217 133.94 162.871 134.611 162.775 135.546C162.738 135.904 162.597 136.291 162.335 136.686C161.641 137.761 160.686 138.828 159.66 139.607C159.375 139.839 159.066 139.907 158.807 139.88C158.25 139.823 157.82 139.316 157.876 138.779C157.901 138.54 158.049 138.274 158.332 138.062C159.116 137.479 159.769 136.803 160.307 136.074C160.377 135.981 160.403 135.924 160.409 135.864C160.42 135.764 160.346 135.696 160.187 135.68C160.147 135.676 160.085 135.69 160.026 135.683L155.515 135.941L156.153 143.386C156.166 143.448 156.16 143.507 156.154 143.567C156.096 144.124 155.546 144.389 155.029 144.335C154.591 144.29 154.198 144.008 154.15 143.5L153.493 136.053L150.095 136.245C150.034 136.258 149.974 136.252 149.914 136.246C149.337 136.186 149.07 135.656 149.12 135.179C149.163 134.761 149.443 134.388 149.968 134.362L153.324 134.186L153.025 130.857C153.014 130.776 153.02 130.716 153.026 130.656C153.084 130.099 153.61 129.872 154.127 129.926C154.584 129.973 155.017 130.259 155.063 130.787L155.347 134.073ZM171.422 130.086L179.354 130.766L179.474 130.779C180.946 130.931 181.632 131.685 181.525 132.72C181.492 133.038 181.375 133.388 181.195 133.772C180.407 135.359 179.286 136.872 177.978 138.244C179.698 139.689 181.578 141.733 182.821 143.511C183.049 143.836 183.136 144.166 183.107 144.445C183.039 145.101 182.367 145.575 181.71 145.507C181.392 145.474 181.048 145.298 180.805 144.931C179.725 143.311 178.083 141.311 176.394 139.749C174.249 141.639 171.762 143.131 169.399 144.012C169.189 144.091 168.986 144.11 168.807 144.092C168.131 144.022 167.713 143.395 167.773 142.818C167.814 142.421 168.052 142.063 168.554 141.874C172.908 140.213 176.739 137.191 178.71 133.494C178.782 133.381 178.814 133.264 178.823 133.184C178.841 133.005 178.69 132.909 178.352 132.874L171.216 132.277C170.557 132.229 170.277 131.637 170.332 131.1C170.39 130.543 170.784 130.04 171.422 130.086ZM196.181 133.512L200.283 133.896C201.937 134.047 202.704 134.79 202.581 135.984C202.548 136.302 202.451 136.654 202.293 137.02C200.423 141.491 195.975 145.615 191.311 147.546C191.08 147.642 190.835 147.677 190.636 147.657C190 147.591 189.598 147.006 189.657 146.43C189.698 146.032 189.939 145.654 190.485 145.429C192.482 144.59 194.402 143.321 196.047 141.803C195.256 140.896 194.542 140.219 193.931 139.714C193.6 139.418 193.491 139.105 193.524 138.787C193.58 138.25 194.111 137.782 194.728 137.846C194.946 137.868 195.179 137.953 195.401 138.137C196.126 138.714 196.86 139.393 197.599 140.214C198.606 139.031 199.442 137.75 200.016 136.483C200.066 136.387 200.096 136.29 200.104 136.21C200.127 135.991 199.978 135.876 199.6 135.836L194.742 135.374C193.571 136.781 192.253 138.052 190.992 138.967C190.687 139.197 190.358 139.264 190.08 139.235C189.463 139.171 189.015 138.642 189.075 138.065C189.106 137.767 189.28 137.443 189.649 137.18C191.672 135.7 193.834 133.269 195.119 130.949C195.394 130.435 195.874 130.263 196.311 130.309C196.888 130.368 197.404 130.824 197.34 131.441C197.326 131.58 197.29 131.737 197.192 131.908C196.895 132.44 196.559 132.968 196.181 133.512ZM208.657 139.448L223.179 140.95C223.895 141.024 224.196 141.618 224.136 142.195C224.078 142.752 223.661 143.292 222.945 143.218L208.422 141.715C207.706 141.641 207.407 141.027 207.465 140.47C207.525 139.893 207.94 139.373 208.657 139.448ZM235.915 141.262C237.029 141.377 237.849 142.387 237.734 143.501C237.619 144.615 236.609 145.436 235.495 145.32C234.381 145.205 233.56 144.195 233.676 143.081C233.791 141.967 234.801 141.147 235.915 141.262ZM257.521 137.264C259.236 139.734 261.884 142.119 264.529 143.76C265.02 144.072 265.196 144.512 265.154 144.91C265.095 145.487 264.623 145.961 263.967 145.893C263.748 145.87 263.533 145.808 263.289 145.642C260.69 143.946 258.038 141.399 256.182 138.734C253.816 141.003 250.81 143.044 247.799 144.361C247.587 144.46 247.404 144.481 247.225 144.463C246.648 144.403 246.244 143.839 246.3 143.301C246.335 142.963 246.551 142.624 247.015 142.41C250.242 140.955 253.259 138.814 255.572 136.278C255.865 135.967 256.24 135.845 256.598 135.882C257.175 135.941 257.671 136.395 257.613 136.952C257.603 137.051 257.573 137.149 257.521 137.264ZM262.493 149.058L254.616 148.243C253.895 149.375 253.119 150.461 252.288 151.501C254.093 151.547 255.898 151.593 257.693 151.537C257.445 151.21 257.176 150.901 256.942 150.635C256.726 150.392 256.651 150.143 256.673 149.924C256.725 149.427 257.248 149.038 257.825 149.098C258.083 149.125 258.332 149.251 258.57 149.477C259.645 150.553 260.818 152.042 261.576 153.266C261.766 153.567 261.836 153.856 261.812 154.095C261.752 154.672 261.191 155.036 260.634 154.978C260.276 154.941 259.915 154.743 259.658 154.314C259.47 153.993 259.244 153.648 259.016 153.323C255.517 153.524 252.681 153.532 248.958 153.368C248.819 153.354 248.337 153.344 248.138 153.324C247.482 153.256 247.197 152.704 247.249 152.206C247.3 151.709 247.668 151.264 248.368 151.297L249.747 151.379C250.624 150.283 251.482 149.186 252.208 147.994L248.11 147.57C247.533 147.511 247.286 146.982 247.336 146.505C247.387 146.008 247.735 145.561 248.312 145.621L262.695 147.109C263.292 147.17 263.521 147.677 263.47 148.174C263.42 148.651 263.09 149.12 262.493 149.058ZM252.723 142.438L258.989 143.086C259.586 143.148 259.815 143.654 259.764 144.151C259.714 144.629 259.385 145.097 258.788 145.036L252.521 144.387C251.944 144.328 251.697 143.799 251.747 143.322C251.798 142.825 252.146 142.378 252.723 142.438ZM270.878 148.86L270.197 155.445C270.14 156.002 269.594 156.227 269.076 156.173C268.539 156.118 268.051 155.786 268.108 155.229L268.759 148.942C268.262 149.273 267.769 149.564 267.279 149.835C267.044 149.971 266.799 150.006 266.6 149.986C266.063 149.93 265.694 149.41 265.746 148.912C265.779 148.594 265.971 148.292 266.354 148.09C268.411 147.057 270.393 145.191 271.388 143.544C271.438 143.449 271.464 143.391 271.47 143.332C271.485 143.192 271.372 143.12 271.133 143.096L267.592 142.729C267.094 142.678 266.905 142.176 266.954 141.698C267.002 141.241 267.29 140.788 267.787 140.839L269.578 141.025L269.862 138.279C269.919 137.722 270.463 137.517 271 137.573C271.518 137.626 272.008 137.938 271.951 138.495L271.667 141.241L272.243 141.3C273.377 141.418 273.961 142.001 273.866 142.916C273.833 143.234 273.714 143.604 273.492 144.003C272.947 144.992 272.162 145.977 271.243 146.887C272.038 147.371 272.877 148.001 273.407 148.518C273.718 148.812 273.827 149.125 273.798 149.403C273.744 149.921 273.262 150.313 272.764 150.262C272.545 150.239 272.335 150.137 272.134 149.935C271.769 149.576 271.345 149.21 270.878 148.86ZM277.124 153.99L277.79 147.544L274.926 147.248C274.349 147.188 274.104 146.64 274.155 146.143C274.209 145.626 274.559 145.159 275.136 145.219L278 145.515L278.603 139.686C278.671 139.03 279.261 138.769 279.818 138.827C280.375 138.884 280.899 139.26 280.831 139.917L280.228 145.746L283.451 146.079C284.048 146.141 284.275 146.667 284.222 147.184C284.17 147.682 283.838 148.17 283.241 148.108L280.019 147.775L279.352 154.22L283.191 154.618C283.788 154.679 284.015 155.205 283.962 155.723C283.91 156.22 283.578 156.709 282.981 156.647L272.816 155.595C272.239 155.535 271.994 154.987 272.045 154.49C272.099 153.973 272.449 153.506 273.026 153.566L277.124 153.99ZM299.541 145.652L292.12 144.885C290.509 144.718 289.948 144.117 290.067 142.963L290.19 141.77C290.312 140.596 290.982 140.142 292.594 140.309L300.014 141.077C301.645 141.246 302.189 141.824 302.067 142.998L301.944 144.192C301.793 145.644 300.794 145.782 299.541 145.652ZM292.736 143.4L299.261 144.075C299.739 144.125 299.873 143.998 299.903 143.699L299.969 143.063C300.002 142.744 299.895 142.613 299.418 142.563L292.893 141.888C292.415 141.839 292.264 141.944 292.231 142.262L292.165 142.899C292.124 143.297 292.398 143.365 292.736 143.4ZM299.15 155.846L290.436 154.945C288.606 154.755 287.975 154.047 288.117 152.674L288.655 147.482C288.797 146.109 289.559 145.545 291.389 145.734L300.102 146.635C301.933 146.825 302.543 147.531 302.401 148.904L301.864 154.096C301.691 155.767 300.642 156.001 299.15 155.846ZM290.915 153.426L298.992 154.262C299.668 154.332 299.778 154.242 299.821 153.825L299.883 153.228L290.254 152.232L290.193 152.829C290.137 153.366 290.457 153.379 290.915 153.426ZM290.514 149.725L290.402 150.799L300.031 151.795L300.142 150.721L290.514 149.725ZM300.29 149.289L300.346 148.752C300.389 148.334 300.3 148.224 299.624 148.154L291.547 147.319C290.87 147.249 290.761 147.338 290.717 147.756L290.662 148.293L300.29 149.289ZM291.134 155.198C291.343 155.119 291.546 155.1 291.725 155.118C292.322 155.18 292.712 155.683 292.663 156.16C292.63 156.479 292.418 156.778 291.958 156.952C290.517 157.467 288.565 157.868 286.857 158.053C286.776 158.065 286.676 158.054 286.597 158.046C286 157.984 285.691 157.47 285.742 156.973C285.784 156.575 286.085 156.184 286.675 156.124C288.24 155.964 289.863 155.629 291.134 155.198ZM298.198 155.909C299.167 156.451 300.805 157.143 302.441 157.654C303.006 157.834 303.221 158.278 303.176 158.716C303.124 159.213 302.715 159.673 302.118 159.612C302.018 159.601 301.941 159.573 301.843 159.543C300.072 158.978 298.246 158.166 297.094 157.443C296.697 157.201 296.553 156.844 296.584 156.546C296.633 156.068 297.096 155.674 297.673 155.734C297.832 155.75 298.007 155.808 298.198 155.909ZM312.216 151.206C311.836 154.887 309.889 157.963 306.571 160.294C306.376 160.434 306.149 160.491 305.95 160.47C305.572 160.431 305.249 160.056 305.288 159.678C305.315 159.42 305.433 159.251 305.65 159.092C308.529 156.917 310.049 154.279 310.386 151.017C310.724 147.754 309.776 144.861 307.403 142.143C307.223 141.943 307.142 141.754 307.169 141.495C307.208 141.117 307.601 140.816 307.979 140.855C308.178 140.876 308.389 140.978 308.551 141.156C311.321 144.116 312.597 147.526 312.216 151.206Z" fill="#282828"/>
<path d="M69.7315 212.178L91.9576 172.253L122.969 175.461L69.7315 212.178Z" fill="#54B6CB"/>
</svg>
