<svg width="345" height="257" viewBox="0 0 345 257" fill="none" xmlns="http://www.w3.org/2000/svg">
<rect y="59.9375" width="310.152" height="182" rx="80" transform="rotate(-11.1426 0 59.9375)" fill="#FFF464"/>
<path d="M66.7149 100.285C65.7566 99.8352 64.8157 99.2324 63.8922 98.4766C62.9818 97.7182 62.1254 96.8541 61.3228 95.8843C60.5203 94.9144 59.8133 93.8782 59.2021 92.7755C58.5908 91.6728 58.1038 90.5457 57.7411 89.3941L60.3063 88.0327C60.692 89.37 61.2453 90.6268 61.9662 91.803C62.6976 92.9635 63.5784 94.0199 64.6085 94.9721C65.6491 95.9087 66.8143 96.7188 68.104 97.4024L66.7149 100.285ZM51.5389 103.132L49.9605 101.017C51.7232 100.031 53.2441 99.0247 54.5231 97.9982C55.7996 96.9585 56.8355 95.9391 57.6307 94.94L59.1369 96.274C58.3831 97.4145 57.3665 98.5661 56.087 99.7286C54.8076 100.891 53.2915 102.025 51.5389 103.132ZM50.8358 99.4583L49.3864 97.4811C51.0337 96.5995 52.4536 95.7015 53.6461 94.7871C54.8359 93.8597 55.7957 92.9368 56.5253 92.0185L58.0832 93.0978C57.3507 94.139 56.3774 95.2004 55.1636 96.282C53.9497 97.3637 52.5071 98.4224 50.8358 99.4583ZM59.3908 102.013C59.0245 102.085 58.585 102.165 58.0722 102.252C57.5594 102.34 56.9067 102.441 56.1141 102.557L55.5486 100.1C56.1555 100.007 56.6382 99.9394 56.9965 99.896C57.3654 99.8369 57.6545 99.7867 57.8638 99.7455C57.9946 99.7197 58.0914 99.6939 58.1543 99.6679C58.2276 99.6263 58.2709 99.5702 58.2842 99.4996C58.3106 99.4265 58.3161 99.3167 58.3009 99.1702C58.283 99.0106 58.2496 98.8066 58.2007 98.558C58.0306 97.6946 57.757 96.9263 57.3798 96.2532C57.0026 95.5801 56.4657 94.9588 55.7692 94.3893C55.0858 93.8173 54.1944 93.259 53.0952 92.7145L54.9995 90.6883C56.099 91.1648 57.083 91.7796 57.9515 92.5326C58.8201 93.2856 59.5367 94.1297 60.1014 95.0649C60.6636 95.9869 61.0438 96.9516 61.2422 97.9589C61.4226 98.8747 61.4727 99.6122 61.3927 100.172C61.3257 100.728 61.1218 101.142 60.7811 101.413C60.456 101.695 59.9926 101.895 59.3908 102.013ZM50.2617 95.9226L48.8277 94.0239C50.4723 93.1972 51.8894 92.3541 53.0791 91.4946C54.2793 90.6195 55.2506 89.7555 55.9931 88.9026L57.4892 89.6679C56.741 90.6986 55.7639 91.7404 54.558 92.7933C53.352 93.8462 51.9199 94.8893 50.2617 95.9226ZM50.0417 92.0113L49.5779 89.6566L63.5102 86.9124L63.974 89.2672L50.0417 92.0113ZM63.245 95.8114L61.0297 94.189C61.5099 93.5915 61.959 92.9391 62.3768 92.2317C62.8077 91.5217 63.2271 90.7529 63.6348 89.9251L66.1067 90.9875C65.7093 91.8675 65.2714 92.7148 64.7931 93.5292C64.3253 94.328 63.8093 95.0888 63.245 95.8114ZM48.0158 91.3504L47.1461 86.9352L54.3282 85.5206L54.0267 83.99L57.2449 83.3562L57.5463 84.8868L64.7283 83.4722L65.598 87.8873L62.5564 88.4864L62.1429 86.3868L50.6438 88.6517L51.0573 90.7513L48.0158 91.3504ZM78.2515 98.6244L76.4818 96.16C77.4693 95.5849 78.2439 94.9636 78.8054 94.2958C79.3644 93.6149 79.7248 92.8577 79.8867 92.024C80.0592 91.1746 80.0398 90.2136 79.8285 89.1409L79.612 88.042L77.9245 88.3744L77.422 85.8234L85.1535 84.3006L85.6559 86.8516L82.7321 87.4275L82.9485 88.5264C83.1341 89.4683 83.143 90.4449 82.9753 91.4564C82.8181 92.4522 82.5185 93.4149 82.0765 94.3446C81.6345 95.2742 81.0855 96.1093 80.4296 96.85C79.7763 97.6038 79.0503 98.1953 78.2515 98.6244ZM71.552 100.005L69.0429 98.2367C69.2094 97.6331 69.3199 96.9863 69.3742 96.2961C69.439 95.5903 69.4414 94.7744 69.3813 93.8486C69.3318 92.9071 69.2056 91.7836 69.0028 90.4782C68.8132 89.1702 68.5392 87.607 68.1811 85.7886L71.0068 85.232C71.4139 87.299 71.7251 89.0858 71.9403 90.5927C72.153 92.0864 72.2734 93.3876 72.3016 94.4964C72.3271 95.5922 72.2772 96.5804 72.1517 97.4613C72.0237 98.3291 71.8238 99.177 71.552 100.005ZM75.2619 98.8667C75.1442 98.8899 74.9389 98.9168 74.6459 98.9473C74.3686 98.9883 74.0626 99.0214 73.7278 99.0466C73.4087 99.0823 73.1288 99.1102 72.8882 99.1304L72.2804 96.3556C72.5157 96.3772 72.7288 96.3896 72.9197 96.3927C73.108 96.3828 73.2545 96.3676 73.3591 96.3469C73.4507 96.3289 73.524 96.2873 73.5791 96.2221C73.6473 96.1543 73.687 96.0106 73.6981 95.791C73.7092 95.5713 73.684 95.2366 73.6225 94.7866C73.5585 94.3236 73.4505 93.7062 73.2985 92.9343C73.157 92.1468 72.9664 91.1448 72.7268 89.9282L70.0776 90.4499L69.5597 87.8205L74.9561 86.7576C75.3245 88.6283 75.6258 90.2269 75.8599 91.5533C76.107 92.8772 76.2895 93.976 76.4072 94.8497C76.5224 95.7103 76.5766 96.3995 76.5698 96.9172C76.5762 97.4324 76.5241 97.8231 76.4135 98.0895C76.3159 98.3534 76.1677 98.532 75.9687 98.6256C75.7853 98.7297 75.5497 98.81 75.2619 98.8667ZM87.1211 96.8774C86.35 96.7575 85.5873 96.4729 84.8329 96.0235C84.0811 95.5873 83.3846 95.0178 82.7434 94.3151C82.1022 93.6125 81.5449 92.8185 81.0716 91.9333C80.6087 91.0324 80.2794 90.0849 80.0836 89.0906L82.9485 88.5264C83.1701 89.6514 83.4747 90.5767 83.8622 91.3021C84.2602 92.0119 84.7789 92.5756 85.4183 92.9933C86.0552 93.3978 86.8636 93.7074 87.8436 93.9221L87.1211 96.8774ZM67.0798 86.8209L66.5619 84.1914L68.8578 83.7392L68.4288 81.561L71.4311 80.9697L71.8601 83.1478L74.6073 82.6067L75.1252 85.2362L67.0798 86.8209ZM76.816 93.1996L76.2981 90.5701L86.404 88.5796L86.9219 91.2091L76.816 93.1996ZM77.562 90.26L75.0747 89.1192C75.5474 88.4145 75.9811 87.6496 76.3757 86.8245C76.7835 85.9967 77.1337 85.1532 77.4265 84.2937L80.168 84.3449C79.8773 85.4213 79.5055 86.4662 79.0528 87.4795C78.6001 88.4927 78.1031 89.4196 77.562 90.26ZM76.5437 87.0564L73.7582 85.9539C74.3362 85.0247 74.8451 84.0208 75.2849 82.9421C75.7247 81.8634 76.0731 80.7688 76.33 79.6582L79.189 79.7882C78.9759 81.1211 78.6427 82.3962 78.1894 83.6135C77.7492 84.8281 77.2006 85.9757 76.5437 87.0564ZM76.4661 84.0752L75.9637 81.5242L84.6763 79.8081L85.1787 82.3591L76.4661 84.0752ZM101.521 92.3696C100.344 92.6015 99.2574 92.6388 98.2616 92.4816C97.2763 92.3088 96.4614 91.9665 95.817 91.4547C95.1857 90.9403 94.7928 90.2907 94.6382 89.5058C94.365 88.1191 94.9201 86.5217 96.3035 84.7136L98.9514 85.9451C98.4447 86.6157 98.0967 87.1599 97.9072 87.5777C97.7151 87.9824 97.6487 88.3352 97.708 88.6361C97.7698 88.9501 97.9404 89.1951 98.2197 89.3711C98.4964 89.534 98.8687 89.6306 99.3367 89.6607C99.8047 89.6908 100.346 89.6453 100.961 89.5242C101.563 89.4057 102.267 89.2195 103.073 88.9656C103.876 88.6986 104.701 88.4003 105.546 88.0707L106.527 90.7721C105.674 91.1305 104.819 91.4483 103.963 91.7256C103.107 92.0029 102.293 92.2175 101.521 92.3696ZM94.0998 81.8046L93.5393 78.9593L103.626 76.9727L104.186 79.818L94.0998 81.8046ZM91.4369 95.0897C90.8471 93.8197 90.3422 92.533 89.9224 91.2296C89.5026 89.9262 89.1484 88.5418 88.8598 87.0767C88.5712 85.6115 88.3753 84.2028 88.272 82.8506C88.1662 81.4853 88.1454 80.1033 88.2096 78.7045L91.4581 78.4316C91.402 79.7336 91.4243 81.0542 91.525 82.3933C91.6362 83.7168 91.8271 85.0653 92.0976 86.4389C92.3682 87.8125 92.7042 89.1393 93.1058 90.4191C93.5179 91.6833 93.9967 92.9072 94.5424 94.0907L91.4369 95.0897ZM110.273 92.0931L108.672 89.6566C109.949 89.2419 111.028 88.8188 111.908 88.3873C112.785 87.9428 113.487 87.5055 114.014 87.0756C114.538 86.6326 114.9 86.1943 115.1 85.7609C115.3 85.3274 115.358 84.8948 115.273 84.4631L114.952 82.8344L107.534 84.2953L107.105 82.1172L114.523 80.6562L114.353 79.7928L108.505 80.9446L108.103 78.9038L113.951 77.752L113.785 76.9082L106.956 78.2532L106.469 75.7808L123.345 72.4568L123.832 74.9293L117.003 76.2744L117.169 77.1181L123.017 75.9664L123.419 78.0071L117.571 79.1589L117.741 80.0223L125.158 78.5614L125.587 80.7395L118.17 82.2005L118.526 84.0058C118.642 84.5945 118.534 85.2544 118.202 85.9856C117.884 86.7143 117.364 87.4554 116.642 88.209C115.918 88.9495 115.018 89.6568 113.942 90.3309C112.88 91.0155 111.658 91.6029 110.273 92.0931ZM108.282 87.5727L107.806 85.159L125.663 81.6419L126.139 84.0555L108.282 87.5727ZM126.011 88.9933C124.622 89.0494 123.326 88.9581 122.124 88.7192C120.925 88.4934 119.869 88.1713 118.958 87.7529C118.046 87.3345 117.305 86.8486 116.734 86.2951C116.176 85.7392 115.838 85.1603 115.72 84.5585L118.491 83.8292C118.573 84.2478 118.784 84.6276 119.123 84.9685C119.472 85.2938 119.967 85.5633 120.607 85.7769C121.258 85.975 122.073 86.1133 123.053 86.192C124.044 86.255 125.216 86.2349 126.568 86.1317L126.011 88.9933ZM111.447 76.7367C111.091 76.2362 110.715 75.7461 110.322 75.2664C109.939 74.7711 109.556 74.3097 109.173 73.8824L112.027 72.8513C112.411 73.2787 112.794 73.74 113.177 74.2353C113.57 74.715 113.945 75.2051 114.302 75.7056L111.447 76.7367ZM119.163 75.1353L116.068 75.3577C116.292 74.77 116.489 74.1809 116.658 73.5905C116.837 72.9843 116.983 72.4121 117.094 71.8738L120.186 71.6317C120.064 72.1858 119.913 72.7658 119.733 73.3719C119.564 73.9624 119.374 74.5502 119.163 75.1353ZM139.526 86.6167L137.841 78.061L133.661 78.8843L133.159 76.3333L137.338 75.51L136.894 73.2534L133.087 74.0032L132.585 71.4522L136.391 70.7024L135.916 68.2888L138.958 67.6897L139.433 70.1033L143.515 69.2994L144.017 71.8504L139.935 72.6543L140.38 74.911L144.756 74.0491L145.258 76.6L140.882 77.462L142.568 86.0176L139.526 86.6167ZM128.913 87.6878L125.705 71.4008L132.318 70.0982L135.317 85.3257L131.589 86.06L131.086 83.509L132.185 83.2926L130.206 73.2456L129.107 73.4621L131.798 87.1197L128.913 87.6878ZM136.204 86.4148L133.636 84.6579C134.483 83.2274 135.178 81.8265 135.724 80.4553C136.269 79.0841 136.69 77.7034 136.987 76.3131L139.148 76.4175C138.965 78.2474 138.637 79.9631 138.164 81.5646C137.689 83.1531 137.035 84.7698 136.204 86.4148ZM145.447 84.5943C144.08 83.3823 142.889 82.1289 141.873 80.8341C140.854 79.5263 139.92 78.0593 139.069 76.4329L141.108 75.5014C141.808 76.573 142.608 77.5977 143.507 78.5757C144.417 79.538 145.452 80.4824 146.613 81.4089L145.447 84.5943ZM156.876 82.1802C155.293 82.4919 153.957 82.5037 152.867 82.2155C151.78 81.9404 150.902 81.3456 150.232 80.431C149.574 79.5008 149.087 78.2377 148.773 76.6417L146.929 67.2815L150.186 66.6399L152.03 76.0001C152.301 77.3737 152.763 78.3086 153.418 78.8047C154.071 79.2877 155.025 79.4056 156.28 79.1582C157.222 78.9727 158.018 78.6325 158.668 78.1375C159.318 77.6426 159.864 76.9303 160.306 76.0007C160.761 75.0685 161.153 73.8498 161.482 72.3446L164.59 73.0166C164.309 74.4853 163.96 75.7499 163.544 76.8103C163.138 77.8551 162.632 78.7362 162.026 79.4535C161.42 80.1708 160.691 80.7492 159.84 81.1886C159.002 81.6255 158.014 81.956 156.876 82.1802ZM181.688 78.2714C180.813 77.9002 179.998 77.5579 179.244 77.2445C178.504 76.9416 177.776 76.6571 177.057 76.3909C176.35 76.109 175.608 75.8271 174.832 75.545C174.056 75.263 173.193 74.9506 172.242 74.6079C171.247 74.2467 170.44 73.9436 169.821 73.6986C169.215 73.4511 168.742 73.2248 168.403 73.0199C168.074 72.7993 167.838 72.5671 167.695 72.3235C167.549 72.0669 167.442 71.7619 167.372 71.4087C167.3 71.0424 167.289 70.7116 167.34 70.4162C167.388 70.1078 167.53 69.7945 167.766 69.4761C168 69.1447 168.352 68.7627 168.824 68.33C169.307 67.8816 169.933 67.3369 170.704 66.6959C171.464 66.0706 172.257 65.4048 173.083 64.6986C173.906 63.9792 174.716 63.2625 175.513 62.5484C176.308 61.8211 177.023 61.1434 177.661 60.515L179.898 62.7651C179.507 63.1275 179.057 63.5354 178.549 63.9889C178.038 64.4293 177.503 64.888 176.944 65.3649C176.399 65.8392 175.858 66.2991 175.32 66.7447C174.794 67.1746 174.321 67.5668 173.901 67.9212C173.492 68.2599 173.165 68.5283 172.918 68.7263C172.402 69.1406 171.998 69.4715 171.707 69.7191C171.429 69.964 171.243 70.157 171.149 70.2979C171.054 70.4389 171.018 70.5682 171.041 70.6859C171.067 70.8168 171.13 70.9268 171.229 71.016C171.325 71.0921 171.534 71.1868 171.856 71.3002C172.177 71.4136 172.673 71.5876 173.344 71.8223C173.676 71.92 174.127 72.0691 174.696 72.2695C175.276 72.4542 175.924 72.6731 176.64 72.9262C177.369 73.1768 178.107 73.4391 178.854 73.7133C179.614 73.9848 180.348 74.2615 181.056 74.5434C181.777 74.8227 182.419 75.0834 182.983 75.3256L181.688 78.2714ZM189.484 74.9014L187.045 62.5193L192.441 61.4564L192.128 59.8669L195.032 59.2949L195.345 60.8844L200.585 59.8524L202.154 67.8193L191.734 69.8717L191.324 67.7916L198.624 66.3538L198.427 65.3531L191.127 66.7909L190.76 64.9267L198.06 63.4889L197.874 62.547L190.575 63.9848L192.604 74.2868L189.484 74.9014ZM188.027 76.7171L187.285 74.2949C188.829 73.9228 190.429 73.4921 192.086 73.0027C193.756 72.5108 195.393 71.9913 196.997 71.4442L197.724 73.788C196.125 74.3612 194.491 74.9003 192.824 75.4054C191.17 75.9078 189.571 76.3451 188.027 76.7171ZM204.33 73.5876C202.871 73.5624 201.466 73.3635 200.115 72.9909C198.777 72.6157 197.538 72.0851 196.397 71.3993C195.267 70.6978 194.289 69.8713 193.463 68.9197L195.785 67.4634C196.411 68.1556 197.153 68.75 198.012 69.2467C198.884 69.7409 199.913 70.1361 201.099 70.4325C202.296 70.7131 203.693 70.9068 205.29 71.0134L204.33 73.5876ZM200.631 72.2981L198.529 70.7348C199.19 70.0883 199.808 69.4298 200.382 68.7595C200.954 68.076 201.504 67.3834 202.032 66.6815L204.295 68.0296C203.216 69.5195 201.995 70.9424 200.631 72.2981ZM185.379 64.8247L184.198 62.3462C185.586 61.5292 186.834 60.7262 187.943 59.9371C189.051 59.148 190.122 58.3052 191.155 57.4087L195.001 56.6512C196.297 57.089 197.607 57.4629 198.932 57.7727C200.257 58.0825 201.716 58.3522 203.311 58.5817L203.157 61.323C201.372 61.0902 199.671 60.7663 198.053 60.351C196.449 59.9332 194.912 59.441 193.441 58.8745C192.295 59.9563 191.053 60.996 189.714 61.9936C188.388 62.9887 186.943 63.9323 185.379 64.8247ZM223.176 68.2651C221.981 67.4406 220.902 66.6882 219.939 66.0082C218.989 65.3255 218.106 64.6705 217.29 64.0432C216.486 63.4133 215.685 62.7964 214.887 62.1927C214.339 61.757 213.902 61.4354 213.575 61.2279C213.247 61.0073 212.987 60.8614 212.796 60.7902C212.616 60.7034 212.447 60.6754 212.29 60.7064C212.147 60.7347 212.008 60.8232 211.874 60.9719C211.74 61.1205 211.588 61.3816 211.417 61.755C211.243 62.1153 211.019 62.6351 210.745 63.3141C210.458 64.0638 210.134 64.8682 209.773 65.7275C209.41 66.5736 208.965 67.5581 208.439 68.681L205.596 67.0802C206.151 65.9653 206.638 64.9521 207.056 64.0408C207.472 63.1163 207.835 62.2701 208.146 61.5023C208.56 60.4967 208.924 59.7251 209.239 59.1874C209.568 58.647 209.918 58.2519 210.29 58.002C210.66 57.7389 211.113 57.5546 211.649 57.4489C212.054 57.3691 212.415 57.3387 212.732 57.358C213.059 57.3615 213.392 57.4318 213.731 57.5688C214.068 57.6927 214.456 57.9017 214.894 58.1958C215.33 58.4769 215.867 58.8537 216.503 59.3262C217.99 60.4602 219.42 61.5103 220.793 62.4766C222.165 63.4429 223.549 64.3936 224.942 65.3285L223.176 68.2651ZM217.883 58.2595C217.433 57.628 216.971 57.0461 216.5 56.5139C216.025 55.9686 215.496 55.4206 214.912 54.8697L216.717 53.3727C217.301 53.9236 217.831 54.4782 218.308 55.0365C218.798 55.5923 219.275 56.1847 219.739 56.8136L217.883 58.2595ZM220.869 56.5502C220.432 55.9161 219.982 55.3251 219.521 54.7773C219.057 54.2163 218.545 53.6513 217.984 53.0823L219.805 51.6638C220.365 52.2328 220.879 52.8044 221.345 53.3784C221.822 53.9368 222.282 54.5461 222.724 55.2063L220.869 56.5502ZM239.56 65.6497C237.912 65.9744 236.425 65.9818 235.1 65.672C233.778 65.3752 232.685 64.7955 231.822 63.9327C230.959 63.0698 230.395 61.9647 230.13 60.6173C229.944 59.6754 229.928 58.7679 230.083 57.895C230.237 57.0221 230.546 56.2137 231.011 55.4698C231.487 54.7103 232.099 54.0596 232.849 53.5179L233.286 54.084L224.789 55.9615L224.229 53.1162L240.89 49.4269L241.45 52.2722L238.95 52.8258C238.05 53.0167 237.227 53.3215 236.48 53.7403C235.734 54.1591 235.107 54.6698 234.601 55.2724C234.092 55.8619 233.733 56.5237 233.524 57.2579C233.329 57.9895 233.313 58.7739 233.478 59.6111C233.648 60.4746 233.976 61.1711 234.461 61.7007C234.943 62.2172 235.569 62.5695 236.34 62.7574C237.122 62.9296 238.009 62.9178 239.004 62.722C239.37 62.6499 239.778 62.5491 240.228 62.4196C240.678 62.2902 241.092 62.1476 241.469 61.9918L242.398 64.8461C241.929 65.0199 241.444 65.1767 240.941 65.3164C240.452 65.4536 239.992 65.5647 239.56 65.6497ZM257.691 62.2824C256.448 62.5272 255.399 62.6522 254.544 62.6576C253.705 62.6734 253.012 62.538 252.466 62.2514C251.936 61.9753 251.51 61.5361 251.188 60.9337C250.865 60.3313 250.607 59.5396 250.414 58.5584C250.355 58.2575 250.271 57.7984 250.163 57.181C250.053 56.5504 249.928 55.814 249.789 54.9716C249.65 54.1292 249.5 53.2279 249.338 52.2678C249.189 51.3051 249.038 50.3293 248.884 49.3404C248.73 48.3515 248.585 47.4084 248.449 46.5111L251.639 45.9438C251.75 46.7103 251.873 47.5422 252.009 48.4395C252.142 49.3237 252.277 50.2145 252.413 51.1118C252.559 51.9935 252.699 52.8424 252.833 53.6586C252.966 54.4749 253.09 55.2048 253.203 55.8484C253.316 56.492 253.409 56.9969 253.481 57.3632C253.599 57.965 253.726 58.436 253.861 58.7764C254.009 59.1141 254.206 59.354 254.451 59.4959C254.697 59.6378 255.035 59.7002 255.467 59.6832C255.896 59.6531 256.45 59.571 257.13 59.437C257.994 59.267 258.659 59.0885 259.125 58.9016C259.604 58.7121 259.926 58.4855 260.091 58.2219C260.257 57.9583 260.301 57.6302 260.224 57.2378C260.183 57.0285 260.096 56.7602 259.963 56.4329C259.828 56.0926 259.708 55.8242 259.601 55.6278L262.57 54.35C262.812 54.8867 262.995 55.3331 263.119 55.6891C263.241 56.032 263.335 56.3735 263.402 56.7136C263.593 57.6817 263.516 58.5326 263.171 59.2664C262.824 59.9871 262.196 60.5932 261.287 61.0848C260.381 61.5894 259.182 61.9886 257.691 62.2824ZM245.228 57.3783L244.699 54.69L260.456 51.5864L260.985 54.2747L245.228 57.3783ZM244.627 52.2579L244.098 49.5696L259.07 46.6206L259.6 49.3089L244.627 52.2579ZM66.0167 136.584C65.2448 136.736 64.4142 136.866 63.5248 136.973C62.6511 137.091 61.805 137.176 60.9863 137.229C60.1677 137.281 59.4643 137.297 58.876 137.277L58.6057 134.456C59.4059 134.448 60.2219 134.417 61.0535 134.362C61.8852 134.307 62.6791 134.232 63.4351 134.137C64.191 134.043 64.8699 133.936 65.4717 133.818C67.1069 133.495 68.2876 133.039 69.0136 132.447C69.7502 131.84 70.0309 131.092 69.8557 130.202C69.7114 129.47 69.3219 128.976 68.6872 128.72C68.063 128.449 67.2081 128.42 66.1222 128.634C65.3504 128.786 64.5835 129.032 63.8216 129.373C63.0702 129.697 62.3669 130.094 61.7118 130.563C61.0672 131.016 60.4879 131.524 59.9737 132.087L57.0163 132.079C57.0216 131.14 57.0149 130.312 56.9961 129.596C56.9878 128.864 56.9636 128.189 56.9235 127.572C56.8966 126.952 56.8578 126.341 56.8073 125.74L59.958 125.384C60.0188 126.038 60.0679 126.701 60.1051 127.373C60.1398 128.032 60.1587 128.715 60.1619 129.421L59.6339 128.913C60.2579 128.356 60.8907 127.878 61.5326 127.479C62.1744 127.081 62.8434 126.752 63.5398 126.493C64.2335 126.22 64.9794 126.005 65.7774 125.848C67.8967 125.431 69.5595 125.525 70.7658 126.13C71.9852 126.732 72.7559 127.851 73.078 129.486C73.4413 131.331 73.0329 132.845 71.8527 134.028C70.6831 135.196 68.7377 136.048 66.0167 136.584ZM69.388 122.446C68.1111 122.725 66.8683 122.97 65.6596 123.181C64.464 123.389 63.2685 123.563 62.0731 123.704C60.8751 123.831 59.638 123.932 58.3617 124.007L58.1542 121.194C59.2893 121.092 60.4677 120.969 61.6893 120.824C62.9109 120.678 64.122 120.514 65.3228 120.332C66.5341 120.134 67.7088 119.923 68.8469 119.699L69.388 122.446ZM79.4691 134.302L77.1057 132.341L86.2346 122.39L86.3892 123.175L76.5581 125.111L76.0131 122.344L89.3175 119.724L89.8625 122.49L85.6319 127.299L84.074 127.565C83.9842 126.971 84.0732 126.491 84.341 126.126C84.6193 125.745 85.0528 125.497 85.6415 125.381C86.2694 125.257 86.757 125.283 87.1043 125.459C87.449 125.623 87.7084 125.87 87.8826 126.203C88.0674 126.52 88.2285 126.855 88.3661 127.209C88.4828 127.525 88.6166 127.825 88.7675 128.108C88.9157 128.378 89.1191 128.582 89.3775 128.722C89.636 128.861 89.9876 128.887 90.4324 128.799C90.6287 128.761 90.9073 128.692 91.2685 128.594C91.627 128.482 92.004 128.361 92.3992 128.228C92.8049 128.081 93.1596 127.95 93.4633 127.835L94.283 130.548C93.8588 130.74 93.4308 130.913 92.9989 131.066C92.58 131.216 92.1704 131.345 91.77 131.451C91.3853 131.567 91.0294 131.658 90.7024 131.722C89.839 131.892 89.125 131.924 88.5605 131.818C87.9986 131.725 87.548 131.542 87.2089 131.269C86.8698 130.996 86.5987 130.689 86.3957 130.349C86.2059 130.005 86.0473 129.683 85.92 129.382C85.8162 129.131 85.7148 128.927 85.6159 128.769C85.5301 128.61 85.4323 128.493 85.3227 128.42C85.2262 128.343 85.0929 128.322 84.9228 128.356C84.8443 128.371 84.7632 128.407 84.6793 128.465C84.606 128.506 84.4959 128.603 84.349 128.754C84.2152 128.903 84.0027 129.135 83.7116 129.45L79.4691 134.302ZM88.6465 118.49C87.6784 118.681 86.556 118.881 85.2794 119.092C84.0132 119.287 82.6856 119.481 81.2965 119.673C79.9205 119.862 78.5616 120.035 77.2197 120.19L76.9928 117.279C78.3635 117.132 79.7132 116.981 81.042 116.828C82.3682 116.662 83.6317 116.488 84.8325 116.306C86.0307 116.111 87.1204 115.916 88.1015 115.723L88.6465 118.49ZM109.156 128.026C107.508 128.351 106.021 128.358 104.696 128.049C103.374 127.752 102.281 127.172 101.418 126.309C100.555 125.446 99.9911 124.341 99.7257 122.994C99.5402 122.052 99.5245 121.145 99.6787 120.272C99.833 119.399 100.143 118.59 100.608 117.846C101.083 117.087 101.696 116.436 102.445 115.895L102.883 116.461L94.3853 118.338L93.8249 115.493L110.486 111.803L111.046 114.649L108.546 115.202C107.646 115.393 106.823 115.698 106.076 116.117C105.33 116.536 104.704 117.046 104.197 117.649C103.688 118.238 103.329 118.9 103.121 119.634C102.925 120.366 102.909 121.151 103.074 121.988C103.244 122.851 103.572 123.548 104.057 124.077C104.539 124.594 105.166 124.946 105.936 125.134C106.718 125.306 107.606 125.294 108.6 125.099C108.966 125.026 109.374 124.926 109.824 124.796C110.275 124.667 110.688 124.524 111.065 124.368L111.994 127.223C111.526 127.397 111.04 127.553 110.538 127.693C110.048 127.83 109.588 127.941 109.156 128.026ZM120.617 126.605C119.84 125.902 119.027 125.26 118.179 124.679C117.331 124.099 116.429 123.59 115.473 123.154L117.273 120.598C118.211 121.079 119.127 121.625 120.022 122.237C120.917 122.849 121.769 123.517 122.578 124.241L120.617 126.605ZM134.21 111.269L133.847 109.424L140.244 108.164L140.135 107.615L132.895 109.041L132.458 106.824L139.699 105.397L139.471 104.24L142.846 103.575L143.074 104.733L150.315 103.306L150.751 105.524L143.511 106.95L143.619 107.499L150.016 106.239L150.379 108.084L134.21 111.269ZM137.28 123.547L136.249 118.307L151.162 115.37L152.194 120.609L148.917 121.255L148.786 120.588L140.426 122.234L140.063 120.39L148.422 118.743L148.279 118.017L139.92 119.664L140.558 122.901L137.28 123.547ZM139.073 116.711C138.871 116.303 138.65 115.871 138.41 115.415C138.171 114.959 137.932 114.538 137.692 114.15L140.677 112.849C140.917 113.236 141.152 113.638 141.384 114.055C141.612 114.458 141.823 114.872 142.015 115.296L139.073 116.711ZM134.488 118.165L134.036 115.869L152.285 112.275L152.737 114.571L134.488 118.165ZM136.043 114.781L135.402 111.523L149.373 108.771L150.015 112.029L139.34 114.131L139.089 112.856L146.467 111.403L146.328 110.696L138.949 112.149L139.34 114.131L136.043 114.781ZM147.594 115.054L144.438 114.554C144.575 114.147 144.696 113.729 144.802 113.3C144.918 112.856 145.009 112.417 145.073 111.983L148.265 112.149C148.182 112.627 148.083 113.123 147.966 113.635C147.86 114.131 147.736 114.604 147.594 115.054ZM157.866 118.982L154.899 118.507L157.958 101.128L161.068 101.392L159.445 110.232L158.325 109.821C158.957 109.167 159.574 108.644 160.177 108.254C160.79 107.848 161.384 107.588 161.96 107.474C162.431 107.382 162.861 107.392 163.25 107.506C163.639 107.619 164.001 107.833 164.335 108.148C164.668 108.463 164.99 108.889 165.3 109.426C165.62 109.947 165.942 110.583 166.267 111.335C166.467 111.798 166.651 112.183 166.821 112.49C167.003 112.794 167.181 113.01 167.356 113.138C167.541 113.251 167.745 113.286 167.968 113.242C168.399 113.157 168.721 112.754 168.932 112.033C169.143 111.312 169.277 110.164 169.334 108.59L172.283 108.968C172.265 110.534 172.12 111.833 171.848 112.865C171.586 113.882 171.172 114.677 170.605 115.25C170.052 115.821 169.324 116.196 168.421 116.374C167.846 116.487 167.324 116.495 166.856 116.396C166.391 116.311 165.959 116.118 165.56 115.816C165.173 115.512 164.807 115.101 164.461 114.585C164.115 114.069 163.777 113.456 163.447 112.747C163.226 112.246 163.011 111.847 162.803 111.548C162.605 111.234 162.393 111.018 162.165 110.899C161.951 110.778 161.707 110.745 161.432 110.799C161.249 110.835 161.023 110.927 160.753 111.076C160.481 111.211 160.211 111.427 159.943 111.724C159.673 112.009 159.423 112.397 159.194 112.891C158.965 113.385 158.782 114.005 158.644 114.753L157.866 118.982ZM186.902 112.917C185.253 113.242 183.765 113.243 182.438 112.92C181.111 112.597 180.013 111.991 179.145 111.102C178.277 110.213 177.706 109.075 177.433 107.688C177.242 106.72 177.221 105.787 177.37 104.888C177.519 103.989 177.824 103.154 178.284 102.384C178.757 101.611 179.367 100.948 180.113 100.393L180.551 100.959L172.054 102.836L171.493 99.991L188.154 96.3017L188.715 99.147L186.215 99.7006C185.301 99.8941 184.473 100.207 183.729 100.639C182.985 101.071 182.361 101.594 181.857 102.21C181.354 102.826 181.006 103.512 180.816 104.27C180.623 105.015 180.611 105.819 180.781 106.682C180.957 107.572 181.291 108.301 181.783 108.87C182.273 109.426 182.905 109.804 183.678 110.005C184.462 110.19 185.351 110.185 186.345 109.989C186.581 109.943 186.841 109.885 187.126 109.815C187.409 109.732 187.698 109.648 187.994 109.563C188.287 109.464 188.559 109.363 188.811 109.259L189.74 112.113C189.434 112.214 189.114 112.318 188.782 112.424C188.45 112.531 188.121 112.622 187.797 112.7C187.475 112.791 187.176 112.863 186.902 112.917ZM187.128 106.716C186.68 106.098 186.219 105.516 185.744 104.971C185.27 104.426 184.741 103.878 184.157 103.327L185.961 101.83C186.545 102.381 187.076 102.935 187.553 103.494C188.043 104.049 188.521 104.648 188.987 105.29L187.128 106.716ZM190.114 105.007C189.676 104.373 189.227 103.782 188.766 103.234C188.302 102.673 187.791 102.115 187.233 101.559L189.049 100.121C189.612 100.703 190.126 101.274 190.59 101.835C191.067 102.394 191.526 103.003 191.969 103.663L190.114 105.007ZM205.779 109.199C204.536 109.444 203.487 109.569 202.632 109.574C201.793 109.59 201.1 109.455 200.555 109.168C200.025 108.892 199.598 108.453 199.276 107.85C198.953 107.248 198.695 106.456 198.502 105.475C198.443 105.174 198.359 104.715 198.251 104.097C198.141 103.467 198.016 102.73 197.877 101.888C197.738 101.046 197.588 100.144 197.426 99.1843C197.277 98.2215 197.126 97.2457 196.972 96.2569C196.818 95.268 196.673 94.3249 196.537 93.4276L199.727 92.8603C199.838 93.6268 199.961 94.4587 200.097 95.356C200.23 96.2402 200.365 97.131 200.501 98.0283C200.647 98.9099 200.787 99.7589 200.921 100.575C201.054 101.391 201.178 102.121 201.291 102.765C201.404 103.408 201.497 103.913 201.569 104.28C201.688 104.881 201.814 105.353 201.949 105.693C202.097 106.031 202.294 106.27 202.539 106.412C202.785 106.554 203.123 106.617 203.555 106.6C203.984 106.57 204.538 106.487 205.219 106.354C206.082 106.183 206.747 106.005 207.213 105.818C207.692 105.629 208.014 105.402 208.18 105.138C208.345 104.875 208.389 104.547 208.312 104.154C208.271 103.945 208.184 103.677 208.051 103.349C207.916 103.009 207.796 102.741 207.689 102.544L210.658 101.266C210.9 101.803 211.083 102.25 211.207 102.606C211.329 102.948 211.423 103.29 211.49 103.63C211.681 104.598 211.604 105.449 211.259 106.183C210.912 106.904 210.284 107.51 209.375 108.001C208.469 108.506 207.27 108.905 205.779 109.199ZM193.316 104.295L192.787 101.606L208.544 98.5029L209.074 101.191L193.316 104.295ZM192.715 99.1744L192.186 96.4861L207.158 93.537L207.688 96.2254L192.715 99.1744ZM223.001 105.664C222.229 105.816 221.398 105.946 220.509 106.053C219.635 106.171 218.789 106.256 217.97 106.308C217.152 106.361 216.448 106.377 215.86 106.357L215.59 103.536C216.39 103.528 217.206 103.496 218.037 103.441C218.869 103.386 219.663 103.311 220.419 103.217C221.175 103.122 221.854 103.016 222.456 102.897C224.091 102.575 225.271 102.118 225.998 101.527C226.734 100.92 227.015 100.171 226.84 99.2819C226.695 98.5493 226.306 98.0553 225.671 97.7998C225.047 97.5286 224.192 97.5 223.106 97.7138C222.334 97.8659 221.567 98.112 220.805 98.4524C220.054 98.777 219.351 99.1738 218.696 99.6425C218.051 100.096 217.472 100.604 216.958 101.167L214 101.159C214.006 100.22 213.999 99.3922 213.98 98.6756C213.972 97.9434 213.947 97.2687 213.907 96.6515C213.88 96.0317 213.842 95.421 213.791 94.8194L216.942 94.4638C217.003 95.1177 217.052 95.7808 217.089 96.4529C217.124 97.1119 217.143 97.7945 217.146 98.5005L216.618 97.993C217.242 97.4352 217.875 96.9572 218.516 96.559C219.158 96.1608 219.827 95.832 220.524 95.5725C221.217 95.3 221.963 95.0852 222.761 94.928C224.881 94.5106 226.543 94.6043 227.75 95.2093C228.969 95.8116 229.74 96.9304 230.062 98.5657C230.425 100.41 230.017 101.924 228.837 103.108C227.667 104.276 225.722 105.128 223.001 105.664ZM226.372 91.5261C225.095 91.8048 223.852 92.0495 222.644 92.2604C221.448 92.4688 220.252 92.6431 219.057 92.7834C217.859 92.9106 216.622 93.0116 215.346 93.0864L215.138 90.2734C216.273 90.1721 217.452 90.0488 218.673 89.9033C219.895 89.7578 221.106 89.594 222.307 89.4118C223.518 89.214 224.693 89.003 225.831 88.7789L226.372 91.5261ZM236.453 103.381L234.09 101.421L243.219 91.4694L243.373 92.2543L233.542 94.1907L232.997 91.4238L246.301 88.8033L246.846 91.5702L242.616 96.3784L241.058 96.6445C240.968 96.0506 241.057 95.5711 241.325 95.2058C241.603 94.8248 242.037 94.5763 242.625 94.4604C243.253 94.3367 243.741 94.363 244.088 94.5392C244.433 94.7023 244.692 94.9502 244.867 95.2828C245.051 95.5997 245.212 95.9349 245.35 96.2883C245.467 96.6051 245.6 96.9049 245.751 97.1877C245.9 97.4575 246.103 97.662 246.361 97.8014C246.62 97.9407 246.972 97.9666 247.416 97.879C247.613 97.8403 247.891 97.7718 248.252 97.6735C248.611 97.5621 248.988 97.4403 249.383 97.3081C249.789 97.1603 250.143 97.0293 250.447 96.9151L251.267 99.6278C250.843 99.8201 250.415 99.9927 249.983 100.146C249.564 100.296 249.154 100.424 248.754 100.53C248.369 100.647 248.013 100.737 247.686 100.802C246.823 100.972 246.109 101.004 245.544 100.898C244.982 100.804 244.532 100.621 244.193 100.348C243.854 100.076 243.583 99.7688 243.38 99.4283C243.19 99.0852 243.031 98.7631 242.904 98.462C242.8 98.2107 242.699 98.0064 242.6 97.8492C242.514 97.6895 242.416 97.5728 242.307 97.4993C242.21 97.4232 242.077 97.4018 241.907 97.4353C241.828 97.4508 241.747 97.4872 241.663 97.5445C241.59 97.5861 241.48 97.6825 241.333 97.8337C241.199 97.9824 240.987 98.2145 240.695 98.5301L236.453 103.381ZM245.63 87.5698C244.662 87.7604 243.54 87.9611 242.263 88.1718C240.997 88.3669 239.669 88.5604 238.28 88.7525C236.904 88.9419 235.545 89.1145 234.204 89.2701L233.977 86.359C235.347 86.2114 236.697 86.061 238.026 85.908C239.352 85.7419 240.616 85.5678 241.816 85.3857C243.015 85.1904 244.104 84.9962 245.085 84.8029L245.63 87.5698ZM254.001 99.4358C254.179 97.5797 254.3 95.7078 254.363 93.82C254.439 91.9297 254.455 90.0104 254.411 88.0622C254.378 86.0983 254.296 84.0963 254.166 82.0564L257.372 81.5676C257.528 83.5344 257.627 85.5194 257.668 87.5226C257.72 89.51 257.717 91.4947 257.659 93.4766C257.598 95.4455 257.481 97.405 257.308 99.3552L254.001 99.4358ZM266.524 97.1934C265.255 97.4434 264.133 97.5081 263.158 97.3876C262.199 97.2776 261.418 97.0033 260.815 96.5649C260.21 96.1134 259.832 95.5082 259.683 94.7495C259.58 94.2262 259.637 93.6916 259.856 93.1457C260.072 92.5868 260.457 91.9878 261.011 91.3488L263.943 91.9535C263.578 92.3107 263.312 92.6485 263.144 92.9671C262.973 93.2725 262.909 93.5364 262.953 93.7588C262.999 93.9943 263.15 94.1752 263.406 94.3014C263.675 94.4251 264.028 94.4915 264.465 94.5006C264.901 94.5098 265.401 94.4589 265.964 94.3481C266.565 94.2296 267.161 94.0784 267.75 93.8944C268.352 93.7079 268.993 93.4797 269.674 93.2097L270.568 95.9893C269.85 96.2801 269.176 96.5148 268.545 96.6934C267.93 96.8825 267.257 97.0492 266.524 97.1934ZM251.427 87.8142L250.886 85.067L265.014 82.2841L265.555 85.0314L251.427 87.8142ZM259.279 87.9391C260.807 87.4886 262.317 87.0824 263.809 86.7207C265.311 86.3433 266.814 86.0065 268.319 85.7102L268.864 88.477C267.385 88.7682 265.908 89.0999 264.432 89.4721C262.967 89.8287 261.49 90.2284 260.001 90.6712L259.279 87.9391ZM74.2133 169.195C74.8911 168.98 75.487 168.659 76.0007 168.232C76.525 167.789 76.9475 167.277 77.2682 166.698C77.5994 166.102 77.8184 165.455 77.925 164.754C78.0316 164.054 78.0102 163.324 77.8608 162.565C77.6495 161.493 77.2167 160.606 76.5624 159.906C75.9055 159.193 75.0898 158.708 74.1152 158.452C73.1537 158.192 72.0908 158.178 70.9265 158.407C69.9322 158.603 69.0422 158.948 68.2562 159.442C67.4703 159.937 66.8083 160.543 66.2702 161.261C65.7425 161.962 65.3728 162.742 65.1611 163.599C64.9469 164.443 64.9274 165.31 65.1026 166.199C65.2288 166.84 65.4546 167.435 65.7798 167.982C66.1051 168.529 66.4621 168.962 66.8508 169.28C67.25 169.581 67.6262 169.698 67.9794 169.628C68.4896 169.528 68.8887 168.966 69.1767 167.945C69.4647 166.923 69.627 165.505 69.6637 163.691C69.7109 161.86 69.6244 159.696 69.4042 157.198L71.7268 156.985C71.9183 159.475 72.0022 161.626 71.9786 163.438C71.955 165.251 71.8173 166.759 71.5654 167.964C71.3134 169.168 70.9394 170.098 70.4433 170.753C69.9446 171.395 69.3158 171.79 68.5571 171.94C67.9291 172.064 67.3161 172.021 66.7179 171.813C66.1197 171.605 65.5689 171.258 65.0657 170.773C64.5624 170.287 64.1262 169.694 63.7569 168.992C63.385 168.277 63.1141 167.488 62.944 166.624C62.7018 165.395 62.7079 164.218 62.9622 163.094C63.2139 161.958 63.6772 160.929 64.3519 160.008C65.0266 159.087 65.8852 158.306 66.9278 157.666C67.9809 157.01 69.1812 156.549 70.5287 156.284C72.1116 155.972 73.5706 155.997 74.9058 156.359C76.254 156.719 77.3843 157.386 78.2967 158.362C79.209 159.337 79.816 160.59 80.1174 162.121C80.321 163.154 80.3534 164.147 80.2146 165.098C80.089 166.047 79.8131 166.923 79.3872 167.728C78.9586 168.519 78.3944 169.207 77.6945 169.794C76.9947 170.38 76.1788 170.826 75.247 171.132L74.2133 169.195ZM83.764 169.25C84.0032 167.912 84.2095 166.683 84.3827 165.561C84.5534 164.427 84.6938 163.346 84.804 162.319C84.9273 161.289 85.0153 160.252 85.0681 159.209C85.1339 158.163 85.1672 157.056 85.168 155.887C85.1688 154.718 85.1464 153.432 85.1008 152.027L87.4273 151.834C87.4757 153.184 87.5008 154.449 87.5025 155.631C87.5017 156.8 87.467 157.935 87.3985 159.036C87.3404 160.121 87.2496 161.212 87.1261 162.31C87.0157 163.405 86.8659 164.542 86.6768 165.721C86.5008 166.897 86.2879 168.162 86.0382 169.516L83.764 169.25ZM99.1523 163.549C98.8799 162.787 98.5581 161.981 98.1866 161.13C97.8257 160.264 97.432 159.403 97.0057 158.55C96.5793 157.696 96.1463 156.878 95.7067 156.095L97.7573 155.018C98.2021 155.827 98.6402 156.672 99.0717 157.552C99.5138 158.416 99.9243 159.293 100.304 160.183C100.68 161.06 101.016 161.905 101.312 162.716L99.1523 163.549ZM95.3371 155.046C94.8553 154.394 94.3955 153.818 93.9576 153.32C93.5198 152.822 93.044 152.338 92.5302 151.869L93.9734 150.606C94.5028 151.086 94.9903 151.595 95.4359 152.132C95.8945 152.667 96.357 153.255 96.8231 153.897L95.3371 155.046ZM97.8795 153.465C97.4213 152.794 96.9797 152.209 96.555 151.708C96.1276 151.194 95.6715 150.706 95.1864 150.245L96.602 149.049C97.134 149.542 97.6162 150.058 98.0487 150.598C98.4943 151.136 98.9384 151.734 99.381 152.395L97.8795 153.465ZM93.1274 167.63C92.7873 167.697 92.3531 167.735 91.8249 167.744C91.2992 167.766 90.7397 167.754 90.1462 167.708C89.5684 167.672 89.0064 167.613 88.4601 167.531L88.5996 165.444C89.0571 165.49 89.508 165.537 89.9524 165.585C90.4073 165.618 90.8191 165.639 91.1877 165.648C91.5669 165.641 91.8546 165.618 92.0508 165.58C92.4695 165.497 92.7788 165.239 92.9788 164.806C93.1762 164.359 93.2592 163.711 93.2276 162.861C93.2066 161.996 93.0673 160.909 92.8096 159.6C92.6602 158.842 92.5142 158.239 92.3717 157.791C92.2266 157.33 92.0458 156.999 91.8294 156.797C91.626 156.593 91.3531 156.483 91.0106 156.469C90.6681 156.455 90.2221 156.502 89.6726 156.61L81.3525 158.249L80.9505 156.208L89.0548 154.612C89.9575 154.434 90.7174 154.325 91.3347 154.285C91.9624 154.23 92.4735 154.272 92.8679 154.411C93.2755 154.549 93.6133 154.815 93.8815 155.211C94.1602 155.591 94.3952 156.129 94.5867 156.825C94.7887 157.505 94.9927 158.369 95.1989 159.415C95.5338 161.116 95.6866 162.547 95.657 163.708C95.6275 164.869 95.3986 165.777 94.9705 166.432C94.5529 167.071 93.9385 167.471 93.1274 167.63ZM117.249 163.939C116.922 164.004 116.489 164.082 115.95 164.175C115.411 164.267 114.74 164.379 113.937 164.51L113.421 162.512C114.198 162.386 114.844 162.286 115.359 162.212C115.872 162.125 116.233 162.06 116.443 162.019C116.756 161.957 116.976 161.9 117.102 161.848C117.225 161.783 117.293 161.682 117.307 161.543C117.318 161.391 117.292 161.159 117.23 160.845L114.896 148.992L106.203 150.705L105.809 148.703L118.191 146.264L118.585 148.266L117.192 148.54L119.522 160.373C119.656 161.053 119.731 161.602 119.745 162.021C119.773 162.437 119.714 162.761 119.57 162.993C119.425 163.225 119.162 163.406 118.78 163.536C118.413 163.676 117.903 163.811 117.249 163.939ZM105.149 166.465L102.621 153.632L104.917 153.18L107.445 166.013L105.149 166.465ZM102.458 159.84L100.973 157.789C101.47 156.862 101.881 155.911 102.205 154.937C102.527 153.949 102.766 152.917 102.921 151.84C103.086 150.748 103.169 149.583 103.17 148.346L105.437 148.266C105.462 149.634 105.392 150.932 105.226 152.161C105.073 153.387 104.829 154.529 104.494 155.587L104.164 154.633C104.121 155.035 104.037 155.473 103.913 155.946C103.786 156.406 103.647 156.875 103.497 157.353C103.344 157.818 103.18 158.264 103.006 158.693C102.833 159.121 102.65 159.504 102.458 159.84ZM108.377 162.364L106.483 152.749L113.705 151.327L115.289 159.372L110.266 160.361L109.918 158.595L112.822 158.023L111.937 153.53L109.033 154.102L110.575 161.931L108.377 162.364ZM128.036 161.162C126.466 161.472 125.19 161.376 124.208 160.877C123.229 160.39 122.618 159.532 122.376 158.302C122.131 157.059 122.364 156.035 123.075 155.229C123.784 154.41 124.936 153.843 126.532 153.529C127.395 153.359 128.272 153.288 129.161 153.317C130.06 153.33 131.022 153.453 132.046 153.686C133.071 153.92 134.193 154.269 135.413 154.736C136.643 155.186 138.014 155.766 139.526 156.474L138.434 158.381C136.687 157.515 135.128 156.844 133.757 156.366C132.396 155.873 131.158 155.56 130.045 155.426C128.931 155.292 127.89 155.32 126.922 155.511C126.02 155.689 125.376 155.972 124.99 156.36C124.602 156.736 124.47 157.238 124.593 157.865C124.836 159.095 125.814 159.541 127.527 159.204C128.495 159.013 129.163 158.678 129.531 158.198C129.896 157.704 129.994 157.033 129.827 156.182L127.384 143.781L129.719 143.321L130.342 146.48L137.288 145.112L137.678 147.094L130.732 148.462L132.162 155.722C132.461 157.24 132.277 158.445 131.61 159.337C130.941 160.217 129.749 160.825 128.036 161.162ZM145.456 155.428C147.981 154.931 149.972 154.314 151.431 153.578C152.903 152.84 153.89 151.918 154.392 150.814C154.906 149.694 155.01 148.362 154.706 146.818C154.397 145.248 153.833 144.143 153.014 143.503C152.205 142.846 151.12 142.652 149.76 142.92C149.001 143.07 148.312 143.334 147.694 143.714C147.089 144.092 146.583 144.558 146.176 145.114C145.769 145.67 145.477 146.292 145.3 146.979C145.136 147.663 145.128 148.385 145.278 149.144L145.784 151.714L143.508 152.163L141.475 141.841L143.751 141.393L144.574 145.572L143.691 145.746C144.003 144.842 144.423 144.046 144.954 143.357C145.497 142.666 146.152 142.095 146.92 141.645C147.698 141.179 148.577 140.85 149.558 140.657C151.56 140.262 153.208 140.556 154.502 141.538C155.807 142.504 156.679 144.105 157.12 146.343C157.517 148.357 157.383 150.096 156.72 151.558C156.07 153.018 154.862 154.234 153.097 155.207C151.334 156.193 148.968 156.978 145.999 157.563L145.456 155.428ZM162.79 155.051L161.457 153.357C162.042 152.603 162.531 151.806 162.923 150.968C163.315 150.13 163.608 149.237 163.802 148.288C163.995 147.339 164.087 146.322 164.077 145.237C164.078 144.136 163.965 142.942 163.739 141.655L159.382 142.513L158.996 140.551L165.295 139.31L165.473 140.213C165.805 141.9 165.995 143.453 166.043 144.87C166.089 146.275 165.999 147.577 165.773 148.776C165.545 149.963 165.179 151.074 164.677 152.111C164.185 153.132 163.556 154.112 162.79 155.051ZM167.442 152.178C166.673 151.446 165.952 150.82 165.278 150.3C164.605 149.781 163.946 149.333 163.302 148.957C162.667 148.566 162.004 148.234 161.312 147.963L161.581 145.912C162.27 146.171 162.966 146.496 163.669 146.887C164.384 147.276 165.116 147.75 165.865 148.31C166.624 148.853 167.408 149.487 168.217 150.211L167.442 152.178ZM162.441 149.555L160.589 148.228C160.739 147.192 160.834 146.121 160.873 145.012C160.926 143.901 160.919 142.693 160.853 141.388C160.799 140.08 160.683 138.629 160.505 137.033L162.623 136.717C162.916 139.378 163.047 141.798 163.014 143.979C162.979 146.147 162.788 148.005 162.441 149.555ZM168.688 153.95L167.675 148.809L178.684 146.641L179.697 151.782L177.361 152.242L177.211 151.477L170.872 152.725L170.544 151.057L176.882 149.809L176.693 148.847L170.355 150.096L171.023 153.49L168.688 153.95ZM170.108 147.188C169.908 146.793 169.684 146.382 169.437 145.955C169.187 145.515 168.937 145.109 168.688 144.737L170.742 143.782C170.992 144.154 171.238 144.54 171.48 144.941C171.719 145.329 171.94 145.727 172.143 146.135L170.108 147.188ZM166.853 148.36L166.478 146.456L179.194 143.952L179.569 145.855L166.853 148.36ZM175.881 146.072L173.694 145.626C173.834 145.232 173.95 144.821 174.043 144.395C174.133 143.956 174.203 143.521 174.254 143.09L176.486 143.242C176.442 143.712 176.368 144.196 176.262 144.692C176.156 145.189 176.029 145.649 175.881 146.072ZM167.293 145.317L166.621 141.903L177.217 139.816L177.89 143.23L169.648 144.853L169.397 143.578L175.264 142.422L175.09 141.539L169.223 142.695L169.648 144.853L167.293 145.317ZM166.207 141.352L165.874 139.665L170.25 138.803L170.127 138.175L165.103 139.164L164.74 137.32L169.763 136.33L169.508 135.035L171.922 134.56L172.177 135.855L177.2 134.866L177.564 136.71L172.54 137.7L172.664 138.327L177.354 137.404L177.686 139.091L166.207 141.352ZM190.413 148.856C188.922 149.15 187.652 149.155 186.604 148.872C185.572 148.6 184.732 148.025 184.084 147.147C183.448 146.266 182.981 145.067 182.682 143.55L180.8 133.994L183.194 133.522L185.076 143.078C185.377 144.609 185.917 145.658 186.695 146.225C187.47 146.779 188.564 146.917 189.976 146.638C191.01 146.435 191.882 146.066 192.592 145.532C193.315 144.996 193.914 144.239 194.387 143.262C194.871 142.27 195.274 141.002 195.595 139.457L197.947 139.911C197.681 141.323 197.337 142.545 196.916 143.58C196.505 144.598 196.003 145.465 195.41 146.18C194.828 146.879 194.124 147.446 193.299 147.88C192.474 148.314 191.512 148.639 190.413 148.856ZM210.846 144.24C210.519 144.305 210.092 144.341 209.563 144.35C209.038 144.372 208.479 144.367 207.889 144.333C207.295 144.287 206.732 144.222 206.199 144.136L206.338 142.05C206.782 142.098 207.227 142.147 207.671 142.195C208.126 142.228 208.538 142.249 208.907 142.258C209.286 142.251 209.58 142.227 209.789 142.186C210.208 142.103 210.517 141.845 210.717 141.412C210.915 140.965 210.998 140.317 210.966 139.467C210.945 138.601 210.806 137.515 210.548 136.206C210.399 135.448 210.246 134.846 210.091 134.401C209.945 133.94 209.771 133.607 209.568 133.403C209.365 133.198 209.092 133.089 208.749 133.075C208.407 133.061 207.961 133.108 207.411 133.216L199.052 134.863L198.65 132.822L206.774 131.222C207.689 131.041 208.456 130.931 209.073 130.891C209.688 130.838 210.199 130.88 210.606 131.017C211.014 131.154 211.352 131.421 211.62 131.816C211.899 132.196 212.134 132.734 212.325 133.431C212.527 134.111 212.731 134.975 212.937 136.021C213.272 137.722 213.419 139.154 213.376 140.317C213.346 141.478 213.124 142.385 212.709 143.037C212.291 143.677 211.67 144.078 210.846 144.24ZM201.463 145.864C201.702 144.526 201.909 143.296 202.082 142.175C202.253 141.041 202.393 139.96 202.503 138.932C202.627 137.902 202.715 136.866 202.767 135.823C202.833 134.777 202.866 133.67 202.867 132.501C202.868 131.332 202.846 130.045 202.8 128.641L205.127 128.448C205.175 129.797 205.2 131.063 205.202 132.245C205.201 133.414 205.166 134.548 205.098 135.649C205.04 136.734 204.949 137.826 204.825 138.923C204.715 140.019 204.565 141.156 204.376 142.335C204.2 143.511 203.987 144.776 203.737 146.13L201.463 145.864ZM216.725 139.107C216.453 138.346 216.131 137.539 215.76 136.688C215.388 135.837 214.989 134.985 214.563 134.131C214.136 133.278 213.703 132.459 213.264 131.676C212.822 130.88 212.387 130.157 211.96 129.507L214.034 128.446C214.479 129.12 214.923 129.854 215.365 130.651C215.808 131.447 216.242 132.272 216.668 133.126C217.094 133.979 217.495 134.838 217.869 135.702C218.24 136.553 218.571 137.371 218.862 138.156L216.725 139.107ZM225.531 139.004C227.507 138.614 229.083 138.168 230.261 137.664C231.45 137.145 232.276 136.54 232.738 135.851C233.2 135.162 233.342 134.367 233.165 133.464C232.966 132.457 232.484 131.77 231.719 131.404C230.967 131.036 229.918 130.985 228.57 131.25C228.034 131.356 227.454 131.517 226.831 131.735C226.205 131.94 225.491 132.21 224.687 132.545C223.896 132.877 222.98 133.296 221.938 133.8L221.05 131.671C222.634 130.952 224.016 130.38 225.197 129.958C226.375 129.522 227.402 129.218 228.278 129.045C230.28 128.651 231.902 128.78 233.145 129.432C234.388 130.084 235.168 131.214 235.484 132.824C235.886 134.864 235.294 136.585 233.708 137.984C232.135 139.381 229.596 140.425 226.09 141.115L225.531 139.004ZM241.492 138.591C241.694 136.717 241.838 134.827 241.925 132.921C242.022 130.999 242.055 129.063 242.024 127.112C242.004 125.146 241.928 123.176 241.798 121.204L244.153 120.843C244.301 122.77 244.388 124.73 244.414 126.723C244.452 128.713 244.43 130.702 244.345 132.689C244.259 134.663 244.113 136.614 243.909 138.543L241.492 138.591ZM253.662 136.215C252.472 136.449 251.41 136.509 250.477 136.394C249.546 136.291 248.79 136.04 248.208 135.638C247.624 135.223 247.262 134.662 247.123 133.956C247.02 133.433 247.094 132.881 247.347 132.301C247.6 131.721 248.038 131.085 248.663 130.391L250.676 131.299C250.241 131.711 249.926 132.079 249.732 132.402C249.548 132.71 249.481 132.995 249.533 133.257C249.592 133.558 249.782 133.799 250.104 133.98C250.435 134.146 250.869 134.244 251.405 134.274C251.954 134.302 252.569 134.249 253.249 134.115C253.864 133.994 254.485 133.837 255.113 133.646C255.742 133.454 256.389 133.225 257.057 132.957L257.726 135.007C257.032 135.279 256.358 135.514 255.704 135.711C255.049 135.907 254.369 136.075 253.662 136.215ZM238.817 126.459L238.415 124.419L252.23 121.698L252.632 123.738L238.817 126.459ZM246.593 127.231C248.109 126.783 249.598 126.375 251.06 126.005C252.536 125.633 254.02 125.3 255.511 125.006L255.917 127.066C254.452 127.355 252.988 127.684 251.525 128.054C250.073 128.408 248.611 128.818 247.14 129.284L246.593 127.231ZM267.19 128.209L264.862 118.252L267.766 117.68L269.408 127.773L267.19 128.209ZM267.762 132.561L267.237 129.892L270.003 129.347L270.529 132.016L267.762 132.561Z" fill="#282828"/>
<path opacity="0.6" d="M76.6314 195.361C76.1309 192.82 76.775 190.367 78.6817 188.094C78.7836 187.96 78.9239 187.875 79.0613 187.848C79.3223 187.797 79.6155 187.982 79.6669 188.243C79.7021 188.421 79.6577 188.558 79.5447 188.709C77.8995 190.788 77.4514 192.86 77.8951 195.112C78.3388 197.365 79.5391 199.112 81.8498 200.412C82.0116 200.509 82.1046 200.619 82.1398 200.797C82.1912 201.058 81.9899 201.34 81.7289 201.392C81.5916 201.419 81.4296 201.394 81.2844 201.308C78.6581 199.928 77.1319 197.902 76.6314 195.361ZM84.2689 192.844L85.0518 192.69C86.1645 192.471 86.6415 191.777 86.4494 190.802C86.2925 190.005 85.5497 189.567 84.547 189.764C83.97 189.878 83.4171 190.258 83.0064 190.781C82.8603 190.981 82.7173 191.052 82.5525 191.084C82.1404 191.166 81.7156 190.893 81.6318 190.467C81.5912 190.261 81.6137 190.085 81.7404 189.932C82.2861 189.225 83.2599 188.591 84.2764 188.391C86.2819 187.995 87.7346 188.851 88.043 190.417C88.2648 191.543 87.8642 192.407 86.8496 192.906C88.1452 193.036 89.0655 193.797 89.2954 194.964C89.6823 196.929 88.4613 198.553 86.3184 198.975C85.1921 199.197 84.0722 199.09 83.2772 198.675C83.0222 198.54 82.9019 198.364 82.8505 198.103C82.772 197.705 83.012 197.329 83.4378 197.245C83.5889 197.216 83.718 197.219 83.8578 197.277C84.6447 197.65 85.3474 197.74 86.0479 197.602C87.2567 197.364 87.869 196.416 87.6606 195.358C87.455 194.314 86.6109 193.795 85.4021 194.033L84.5367 194.204C84.1384 194.282 83.8343 194.042 83.7559 193.644C83.6774 193.246 83.8705 192.922 84.2689 192.844ZM92.6664 186.738C94.7542 186.327 96.4338 187.537 97.1832 191.342C97.9326 195.147 96.8375 196.904 94.7496 197.315C92.6617 197.726 91.0097 196.51 90.2602 192.705C89.5108 188.901 90.5785 187.149 92.6664 186.738ZM92.9369 188.112C91.7968 188.336 91.2994 189.433 91.8811 192.386C92.4628 195.339 93.339 196.166 94.4791 195.941C95.6329 195.714 96.144 194.614 95.5624 191.661C94.9807 188.708 94.0907 187.884 92.9369 188.112ZM101.415 196.615L100.138 190.132C99.9751 190.535 99.7955 190.927 99.6078 191.278C99.4725 191.533 99.2716 191.673 99.0656 191.713C98.6672 191.792 98.2314 191.535 98.153 191.137C98.1205 190.972 98.143 190.796 98.2452 190.59C99.0652 189.031 99.6594 186.759 99.8463 184.81C99.8858 184.431 100.156 184.207 100.471 184.145C100.884 184.064 101.347 184.243 101.434 184.683C101.447 184.752 101.45 184.837 101.438 184.925C101.339 186.014 101.072 187.266 100.72 188.448C101.058 188.424 101.384 188.56 101.454 188.917L102.913 196.321C102.986 196.691 102.653 196.957 102.282 197.03C101.897 197.106 101.488 196.986 101.415 196.615ZM105.828 187.142L109.54 186.068L109.595 186.058C109.966 185.985 110.229 186.304 110.299 186.661C110.361 186.977 110.27 187.309 109.932 187.404L106.274 188.467C106.699 189.61 107.201 190.639 107.786 191.508C108.915 193.183 109.637 193.512 110.049 193.431C110.227 193.396 110.357 193.185 110.277 192.273C110.234 191.839 110.513 191.585 110.842 191.52C111.213 191.447 111.663 191.629 111.755 192.096L111.774 192.192C111.958 194.139 111.357 194.857 110.437 195.038C109.228 195.276 107.833 194.353 106.398 192.21C105.769 191.263 105.223 190.158 104.76 188.893L102.79 189.467L102.735 189.478C102.364 189.551 102.101 189.232 102.034 188.888C101.971 188.572 102.077 188.238 102.401 188.145L104.33 187.58C104.009 186.53 103.727 185.387 103.489 184.178C103.405 183.752 103.749 183.471 104.134 183.395C104.518 183.319 104.943 183.449 105.027 183.875C105.257 185.043 105.515 186.134 105.828 187.142ZM106.856 183.815C107.281 184.016 107.681 184.237 108.027 184.469C108.227 184.615 108.347 184.791 108.379 184.956C108.458 185.354 108.168 185.768 107.784 185.844C107.619 185.876 107.424 185.829 107.24 185.694C106.887 185.421 106.528 185.192 106.131 184.985C105.939 184.88 105.824 184.731 105.791 184.567C105.724 184.223 105.986 183.815 106.37 183.739C106.521 183.709 106.683 183.735 106.856 183.815ZM113.408 193.968L122.356 179.706C122.455 179.558 122.574 179.435 122.698 179.41C123.055 179.34 123.414 179.569 123.468 179.844C123.498 179.995 123.47 180.143 123.359 180.307L114.411 194.569C114.312 194.717 114.193 194.841 114.07 194.865C113.712 194.935 113.353 194.706 113.299 194.432C113.27 194.281 113.297 194.132 113.408 193.968ZM135.082 183.677L129.23 184.83C127.884 185.095 127.311 184.723 127.111 183.706L126.586 181.042C126.389 180.039 126.777 179.477 128.123 179.212L133.975 178.059C135.335 177.792 135.908 178.164 136.105 179.167L136.63 181.831C136.876 183.081 136.194 183.458 135.082 183.677ZM129.181 183.641L131.118 183.26L130.902 182.161L128.415 182.65L128.543 183.296C128.608 183.626 128.742 183.728 129.181 183.641ZM128.199 181.551L130.685 181.062L130.466 179.949L128.529 180.331C128.076 180.42 128.004 180.562 128.066 180.878L128.199 181.551ZM131.895 179.668L132.114 180.78L134.806 180.25L134.676 179.591C134.611 179.261 134.491 179.156 134.037 179.246L131.895 179.668ZM135.023 181.349L132.33 181.879L132.547 182.978L134.69 182.556C135.143 182.467 135.215 182.324 135.15 181.995L135.023 181.349ZM132.783 185.628L135.912 184.998C137.121 184.76 137.62 185.047 137.774 185.83C137.899 186.462 137.967 187.39 137.927 188.197C137.868 189.421 137.315 189.944 136.133 190.177C135.735 190.255 135.4 190.293 135.018 190.311C134.606 190.321 134.368 190.053 134.306 189.738C134.238 189.394 134.393 189.021 134.819 188.937L134.915 188.918C135.226 188.9 135.451 188.884 135.739 188.827C136.165 188.744 136.363 188.59 136.381 188.173C136.41 187.597 136.374 186.762 136.315 186.46C136.271 186.24 136.151 186.207 135.848 186.266L132.598 186.935C132.082 189.02 130.58 190.671 128.323 191.815C128.246 191.859 128.166 191.889 128.097 191.902C127.672 191.986 127.34 191.68 127.273 191.337C127.219 191.062 127.318 190.771 127.667 190.589C129.386 189.679 130.482 188.65 130.991 187.251L127.466 187.974C127.109 188.044 126.857 187.78 126.795 187.464C126.736 187.162 126.868 186.822 127.226 186.752L131.275 185.94C131.298 185.693 131.304 185.435 131.296 185.179C131.284 184.825 131.567 184.598 131.883 184.536C132.268 184.46 132.709 184.601 132.788 185C132.793 185.027 132.804 185.082 132.799 185.126C132.804 185.296 132.792 185.455 132.783 185.628ZM148.339 186.003L147.803 183.284L145.715 183.695C145.372 183.762 145.14 183.451 145.075 183.122C145.007 182.778 145.107 182.416 145.45 182.349L147.538 181.937L147.086 179.643L145.507 179.955C145.415 180.358 145.307 180.75 145.193 181.115C145.079 181.48 144.818 181.674 144.557 181.726C144.2 181.796 143.822 181.614 143.746 181.229C143.719 181.092 143.73 180.932 143.794 180.749C144.148 179.723 144.352 178.513 144.383 177.222C144.393 176.835 144.66 176.597 144.948 176.54C145.305 176.47 145.711 176.647 145.792 177.059C145.803 177.114 145.811 177.155 145.808 177.213C145.81 177.655 145.784 178.102 145.728 178.541L146.827 178.325L146.313 175.715C146.231 175.303 146.562 175.024 146.933 174.951C147.303 174.878 147.715 175.011 147.796 175.423L148.31 178.033L150.824 177.538C151.181 177.467 151.424 177.762 151.489 178.091C151.554 178.421 151.441 178.786 151.084 178.856L148.57 179.351L149.022 181.645L151.041 181.247C151.384 181.18 151.628 181.474 151.695 181.818C151.76 182.147 151.649 182.526 151.306 182.594L149.287 182.991L149.823 185.711L152.625 185.159C152.968 185.092 153.212 185.386 153.279 185.729C153.344 186.059 153.233 186.438 152.89 186.505L145.321 187.996C144.992 188.061 144.745 187.753 144.68 187.423C144.613 187.08 144.726 186.715 145.056 186.65L148.339 186.003ZM141.5 176.563L143.789 188.184C143.87 188.596 143.539 188.875 143.169 188.948C142.784 189.024 142.373 188.891 142.291 188.479L140.003 176.858C139.921 176.446 140.254 176.18 140.639 176.105C141.01 176.032 141.419 176.151 141.5 176.563ZM139.25 179.846C139.229 179.522 139.446 179.322 139.693 179.273C139.982 179.216 140.294 179.355 140.362 179.698L140.376 179.767C140.442 180.396 140.454 181.25 140.391 181.875C140.355 182.196 140.148 182.38 139.915 182.426C139.626 182.483 139.311 182.331 139.249 182.015C139.238 181.96 139.225 181.891 139.238 181.817C139.303 181.205 139.287 180.395 139.25 179.846ZM143.128 178.525C143.346 178.91 143.567 179.381 143.695 179.741L143.714 179.837C143.787 180.208 143.528 180.487 143.254 180.541C143.02 180.587 142.773 180.493 142.656 180.188C142.506 179.789 142.307 179.286 142.146 178.976C142.122 178.923 142.094 178.857 142.084 178.802C142.027 178.514 142.253 178.284 142.513 178.233C142.733 178.189 142.977 178.27 143.128 178.525ZM157.614 179.411C158.114 181.952 157.47 184.405 155.564 186.678C155.462 186.812 155.321 186.897 155.184 186.924C154.923 186.975 154.63 186.79 154.578 186.529C154.543 186.351 154.587 186.214 154.7 186.063C156.346 183.984 156.794 181.912 156.35 179.66C155.906 177.407 154.706 175.66 152.395 174.36C152.234 174.263 152.141 174.153 152.105 173.975C152.054 173.714 152.255 173.431 152.516 173.38C152.654 173.353 152.816 173.378 152.961 173.464C155.587 174.844 157.113 176.869 157.614 179.411Z" fill="#282828"/>
<path d="M281.049 232.884L255.272 195.154L224.683 201.179L281.049 232.884Z" fill="#FFF464"/>
</svg>
