<svg width="369" height="332" viewBox="0 0 369 332" fill="none" xmlns="http://www.w3.org/2000/svg">
<rect x="33.4203" width="337.49" height="201" rx="80" transform="rotate(6.50495 33.4203 0)" fill="#69BD83"/>
<path d="M77.4333 57.1138C75.8833 56.9371 74.5458 56.6034 73.4208 56.1128C72.3076 55.6369 71.4685 55.0514 70.9036 54.3563C70.3535 53.6494 70.1275 52.8654 70.2257 52.0044C70.3073 51.289 70.6193 50.5529 71.1619 49.7962C71.7192 49.0277 72.5248 48.2003 73.5787 47.314L75.5031 48.6204C74.6471 49.3012 73.9849 49.9302 73.5165 50.5075C73.0481 51.0848 72.7882 51.5987 72.7368 52.0491C72.6839 52.5128 72.8491 52.9476 73.2322 53.3536C73.6286 53.7612 74.2063 54.1089 74.9652 54.3967C75.7257 54.6713 76.6292 54.8682 77.6757 54.9876C78.3381 55.0631 79.0712 55.1064 79.8751 55.1176C80.6791 55.1287 81.4727 55.1119 82.2562 55.067C83.0544 55.0104 83.7548 54.9292 84.3573 54.8235L84.5918 57.0041C83.9893 57.1098 83.2698 57.1821 82.4333 57.2209C81.6086 57.2745 80.7546 57.2912 79.8712 57.271C79.001 57.2523 78.1884 57.1999 77.4333 57.1138ZM72.2298 43.2551L72.4723 41.1288L85.6668 42.6333L85.4243 44.7595L72.2298 43.2551ZM99.0464 57.3438C99.7575 57.3444 100.423 57.2189 101.042 56.9674C101.676 56.7042 102.233 56.3451 102.715 55.89C103.211 55.4232 103.616 54.8722 103.93 54.237C104.244 53.6018 104.445 52.9001 104.532 52.1317C104.656 51.0454 104.512 50.0695 104.101 49.204C103.691 48.3253 103.061 47.616 102.21 47.0761C101.372 46.5377 100.364 46.2013 99.1848 46.0669C98.178 45.9521 97.2252 46.0112 96.3263 46.2442C95.4275 46.4772 94.6129 46.854 93.8825 47.3746C93.1669 47.8835 92.5784 48.5142 92.1168 49.2667C91.6567 50.0061 91.3754 50.8261 91.2726 51.727C91.1986 52.3761 91.2336 53.0108 91.3776 53.6311C91.5216 54.2514 91.7306 54.7718 92.0048 55.1922C92.2937 55.6009 92.617 55.8256 92.9746 55.8664C93.4913 55.9253 94.0417 55.5117 94.6259 54.6255C95.21 53.7393 95.7946 52.4371 96.3797 50.719C96.9795 48.9892 97.5532 46.9007 98.1006 44.4537L100.378 44.9549C99.8061 47.3857 99.2339 49.461 98.6621 51.1806C98.0903 52.9002 97.5017 54.2958 96.8964 55.3675C96.2911 56.4392 95.6528 57.2118 94.9815 57.6855C94.3117 58.1459 93.5926 58.3323 92.8242 58.2447C92.1884 58.1722 91.617 57.946 91.1101 57.5661C90.6032 57.1863 90.1835 56.6888 89.851 56.0739C89.5186 55.4589 89.2828 54.7611 89.1437 53.9803C89.0061 53.1862 88.9871 52.352 89.0868 51.4777C89.2288 50.2325 89.5913 49.113 90.1743 48.1193C90.7588 47.1124 91.5121 46.2723 92.4343 45.5991C93.3565 44.9259 94.4115 44.4423 95.5991 44.1483C96.8015 43.8425 98.0849 43.7675 99.4494 43.923C101.052 44.1058 102.435 44.5721 103.598 45.322C104.773 46.0734 105.648 47.0521 106.222 48.2582C106.796 49.4643 106.994 50.8423 106.817 52.3923C106.698 53.4388 106.428 54.3944 106.007 55.259C105.6 56.1251 105.071 56.8767 104.422 57.5139C103.774 58.1378 103.027 58.623 102.182 58.9695C101.338 59.3161 100.425 59.4938 99.4443 59.5028L99.0464 57.3438ZM115.64 62.7585L116.011 59.4996L111.878 59.0283L112.105 57.0412L116.238 57.5125L117.149 49.5243L109.478 48.6497L109.712 46.6029L117.382 47.4775L117.733 44.3975L120.118 44.6694L119.767 47.7494L127.437 48.624L127.204 50.6707L119.533 49.7961L118.622 57.7844L122.756 58.2557L122.529 60.2428L118.396 59.7715L118.024 63.0304L115.64 62.7585ZM108.685 59.4896L107.665 57.32C109.603 55.9709 111.306 54.5748 112.772 53.1316C114.24 51.6752 115.433 50.2143 116.351 48.7489L117.985 49.9618C117.158 51.2095 116.242 52.4135 115.238 53.5738C114.235 54.7209 113.179 55.7949 112.072 56.796C110.978 57.7985 109.849 58.6964 108.685 59.4896ZM125.536 61.411C124.594 60.3776 123.696 59.2486 122.842 58.024C121.989 56.7994 121.203 55.5154 120.484 54.172C119.779 52.8168 119.158 51.4376 118.62 50.0343L120.485 49.2202C121.063 50.8563 121.897 52.5483 122.986 54.2962C124.089 56.0325 125.434 57.776 127.019 59.5269L125.536 61.411ZM138.811 60.4486C138.986 58.9119 139.031 57.6892 138.947 56.7805C138.878 55.86 138.653 55.1835 138.273 54.751C137.906 54.32 137.358 54.063 136.629 53.9799C135.994 53.9074 135.36 53.9895 134.729 54.2262C134.112 54.4644 133.466 54.8874 132.793 55.495C132.135 56.0909 131.391 56.9053 130.562 57.938L128.741 56.6031C129.52 55.6586 130.21 54.7845 130.812 53.9808C131.427 53.1786 131.986 52.3903 132.491 51.6158C133.01 50.8295 133.491 50.0255 133.933 49.2037C134.391 48.3701 134.843 47.4622 135.29 46.4799L137.592 47.1248C137.041 48.31 136.474 49.3994 135.891 50.3931C135.31 51.3736 134.682 52.3421 134.01 53.2987L133.509 52.9196C134.135 52.6151 134.789 52.4079 135.473 52.298C136.171 52.1763 136.858 52.154 137.533 52.231C138.633 52.3564 139.484 52.7218 140.086 53.3272C140.701 53.9342 141.094 54.8445 141.264 56.0583C141.436 57.2588 141.413 58.8129 141.195 60.7205L138.811 60.4486ZM138.152 64.4598C136.112 64.2272 134.551 63.7339 133.469 62.9798C132.386 62.239 131.908 61.3189 132.033 60.2193C132.121 59.451 132.498 58.7291 133.166 58.0537C133.835 57.365 134.757 56.7522 135.932 56.2152C137.12 55.6797 138.521 55.2222 140.134 54.8425C141.761 54.4643 143.578 54.1817 145.585 53.9946L145.721 55.9828C144.052 56.1414 142.537 56.3645 141.176 56.6522C139.828 56.9413 138.656 57.2773 137.659 57.6602C136.677 58.0314 135.906 58.44 135.345 58.886C134.785 59.332 134.477 59.7935 134.423 60.2704C134.359 60.8268 134.667 61.3047 135.346 61.7042C136.04 62.092 137.056 62.3622 138.394 62.5147C139.215 62.6084 140.135 62.6596 141.154 62.6684C142.175 62.664 143.28 62.6223 144.47 62.5432L144.561 64.5666C143.872 64.6088 143.144 64.6332 142.379 64.6398C141.613 64.6465 140.863 64.6347 140.128 64.6047C139.407 64.5761 138.748 64.5278 138.152 64.4598ZM129.574 49.8339L129.789 47.9461L145.626 49.7519L145.411 51.6397L129.574 49.8339ZM153.699 63.6962L154.924 52.9458L166.47 54.2623L165.513 62.6479C165.453 63.1778 165.385 63.5995 165.309 63.9129C165.233 64.2263 165.114 64.4475 164.951 64.5767C164.802 64.7073 164.58 64.7758 164.284 64.7823C163.988 64.7889 163.581 64.7627 163.065 64.7037C162.906 64.6856 162.667 64.6584 162.349 64.6222C162.033 64.5727 161.716 64.5232 161.4 64.4737L161.48 62.7114C161.863 62.7685 162.179 62.818 162.43 62.8599C162.681 62.8886 162.84 62.9067 162.906 62.9143C163.012 62.9264 163.086 62.9281 163.127 62.9193C163.169 62.9106 163.194 62.8665 163.203 62.787C163.227 62.6958 163.249 62.5575 163.27 62.372L163.372 61.4778L156.258 60.6667L156.437 59.0968L163.551 59.908L163.703 58.5766L156.589 57.7655L156.77 56.1758L163.884 56.9869L164.034 55.6754L161.47 55.3831L160.446 64.3649L158.32 64.1225L159.344 55.1407L156.92 54.8643L155.884 63.9454L153.699 63.6962ZM148.39 66.2915L147.535 64.2615C148.346 63.8575 149.085 63.4385 149.751 63.0046C150.433 62.5589 151.072 62.0748 151.668 61.5524L152.779 63.2894C152.191 63.8531 151.541 64.3761 150.828 64.8585C150.116 65.3409 149.303 65.8186 148.39 66.2915ZM150.3 62.7853L150.862 57.8572L148.596 57.5989L148.823 55.6118L153.374 56.1307L152.585 63.0458L150.3 62.7853ZM160.031 67.2968C158.654 67.1397 157.466 66.964 156.468 66.7697C155.47 66.5754 154.631 66.3455 153.95 66.08C153.281 65.8293 152.732 65.5251 152.303 65.1675C151.874 64.81 151.532 64.3952 151.277 63.9233C151.036 63.4529 150.843 62.9076 150.699 62.2873L152.642 62.368C152.777 62.7188 152.95 63.027 153.161 63.2927C153.374 63.5451 153.65 63.7711 153.989 63.9709C154.329 64.1706 154.765 64.3478 155.297 64.5025C155.843 64.6587 156.525 64.8035 157.341 64.9369C158.158 65.0703 159.143 65.2027 160.295 65.3341L165.84 65.9662L165.476 67.9176L160.031 67.2968ZM152.699 54.1012C152.214 53.4151 151.72 52.7415 151.219 52.0804C150.718 51.4061 150.209 50.7509 149.691 50.1148L151.44 48.905C151.944 49.5396 152.44 50.1934 152.927 50.8662C153.429 51.5273 153.915 52.2067 154.386 52.9045L152.699 54.1012ZM159.555 54.7018C159.019 54.2246 158.495 53.7623 157.982 53.3146C157.47 52.867 156.968 52.4408 156.477 52.0359L158.044 51.0068C158.535 51.4116 159.036 51.8379 159.549 52.2855C160.063 52.7199 160.581 53.1749 161.104 53.6505L159.555 54.7018ZM154.773 51.0968L154.986 49.2289L166.889 50.5861L166.676 52.454L154.773 51.0968ZM161.174 54.6247L159.868 53.3686C160.564 53.1527 161.22 52.9257 161.838 52.6874C162.456 52.4492 163.04 52.2072 163.592 51.9614C164.145 51.7024 164.65 51.4447 165.109 51.1883L166.676 52.454C166.373 52.6342 165.919 52.8508 165.313 53.1038C164.721 53.3583 164.06 53.6251 163.33 53.9043C162.615 54.1717 161.896 54.4118 161.174 54.6247ZM176.201 68.6574C174.691 68.4852 173.48 68.1056 172.567 67.5184C171.666 66.946 171.04 66.1432 170.688 65.11C170.349 64.0783 170.267 62.7941 170.443 61.2574L171.546 51.5801L173.97 51.8565L172.867 61.5338C172.69 63.0838 172.886 64.2468 173.455 65.023C174.026 65.7858 175.027 66.2489 176.457 66.412C177.504 66.5313 178.447 66.4442 179.285 66.1507C180.137 65.8586 180.937 65.3191 181.684 64.532C182.446 63.7332 183.214 62.6465 183.988 61.2721L186.092 62.4178C185.411 63.6821 184.713 64.7432 183.998 65.601C183.297 66.4471 182.556 67.1208 181.775 67.6222C181.007 68.1117 180.165 68.4384 179.247 68.6021C178.329 68.7659 177.314 68.7843 176.201 68.6574ZM200.28 71.101C198.677 70.9182 197.31 70.4873 196.18 69.8082C195.063 69.1306 194.236 68.258 193.7 67.1904C193.166 66.1096 192.976 64.8936 193.13 63.5423C193.251 62.4825 193.554 61.5307 194.039 60.687C194.539 59.8314 195.186 59.1067 195.978 58.5126C196.785 57.9068 197.706 57.4817 198.74 57.2373L198.869 57.876L189.385 57.0161L189.628 54.8898L206.424 56.4025L206.182 58.5287L203.651 58.3005C202.615 58.2092 201.637 58.2587 200.716 58.4489C199.808 58.6407 198.992 58.9704 198.268 59.438C197.544 59.9056 196.954 60.4892 196.498 61.1888C196.057 61.8766 195.785 62.6775 195.681 63.5916C195.569 64.5719 195.691 65.4447 196.046 66.2099C196.404 66.9619 196.958 67.5686 197.711 68.0302C198.477 68.4933 199.423 68.789 200.549 68.9174C200.92 68.9597 201.346 68.9882 201.827 69.0028C202.322 69.0189 202.752 69.0143 203.117 68.9888L203.126 71.2041C202.695 71.222 202.218 71.2214 201.697 71.2022C201.189 71.1846 200.717 71.1508 200.28 71.101ZM211.769 73.2565C211.252 72.3789 210.682 71.549 210.06 70.7669C209.44 69.9714 208.754 69.2222 208.002 68.5192L209.817 67.0755C210.566 67.8051 211.268 68.5897 211.924 69.4294C212.581 70.2558 213.179 71.1358 213.716 72.0694L211.769 73.2565ZM229.454 75.6353L230.516 66.3157L227.933 66.0211L228.216 63.5372L230.879 63.8408L231.604 57.482L234.247 57.7834L233.522 64.1422L235.827 64.405L235.544 66.8889L233.298 66.6329L232.236 75.9525L229.454 75.6353ZM227.75 73.6293L226.951 70.398C227.858 69.5083 228.607 68.5806 229.201 67.615C229.807 66.6508 230.295 65.6127 230.663 64.5006L231.65 65.378C231.454 66.5098 231.155 67.6029 230.753 68.6575C230.365 69.7003 229.908 70.648 229.382 71.5005C228.868 72.3545 228.324 73.0641 227.75 73.6293ZM233.706 72.2351C233.397 71.18 233.081 70.1307 232.757 69.0873C232.448 68.0322 232.111 66.9269 231.746 65.7714L233.497 65.0653C233.87 66.0338 234.231 66.9875 234.58 67.9264C234.931 68.8521 235.284 69.8116 235.641 70.8051L233.706 72.2351ZM229.144 63.3411C229.045 62.5648 228.935 61.7672 228.813 60.9482C228.692 60.1292 228.569 59.3838 228.444 58.712L230.555 58.2078C230.692 58.8944 230.808 59.639 230.904 60.4418C231.015 61.2328 231.105 62.0348 231.173 62.8478L229.144 63.3411ZM234.729 73.6803L234.774 70.9881L246.383 70.1579L246.338 72.8501L234.729 73.6803ZM238.989 70.0395C238.479 69.3371 237.932 68.6038 237.348 67.8394C236.764 67.075 236.14 66.3061 235.477 65.5326L237.761 63.8606C238.426 64.6208 239.051 65.3765 239.636 66.1276C240.236 66.867 240.784 67.5938 241.28 68.3079L238.989 70.0395ZM235.243 64.0566L233.309 63.0107C233.654 62.3388 233.978 61.6109 234.282 60.827C234.586 60.043 234.838 59.3068 235.037 58.6183L237.169 59.3444C236.922 60.0947 236.624 60.886 236.274 61.7184C235.939 62.539 235.595 63.3184 235.243 64.0566ZM240.959 76.9471L243.03 58.7848L246.11 59.136L244.039 77.2983L240.959 76.9471ZM240.387 64.8444C239.948 64.2173 239.471 63.5725 238.957 62.9099C238.442 62.2473 237.901 61.5751 237.335 60.8932L239.616 59.241C240.186 59.8964 240.729 60.5488 241.245 61.1982C241.762 61.8475 242.24 62.4791 242.68 63.0929L240.387 64.8444ZM251.784 77.6983L252.069 75.1945L257.534 75.8176L257.692 74.4266L253.301 73.9259L253.566 71.6009L257.958 72.1017L258.553 66.8755L256.904 66.6875L257.119 64.7997L258.769 64.9878L258.959 63.3186L262.059 63.6721L261.869 65.3412L263.538 65.5316L263.728 63.8624L257.31 63.1305L256.46 70.5822L253.797 70.2786L254.921 60.4225L266.725 61.7684L265.601 71.6245L256.46 70.5822L256.709 68.3964L263.128 69.1283L263.323 67.4193L261.653 67.229L261.057 72.4551L265.687 72.9831L265.422 75.308L260.792 74.7801L260.634 76.1711L265.482 76.7239L265.197 79.2277L251.784 77.6983ZM247.091 75.9554L247.116 73.261C247.725 73.223 248.369 73.1622 249.049 73.0788C249.743 72.9969 250.432 72.9009 251.115 72.791C251.812 72.6826 252.456 72.5681 253.047 72.4476L252.772 75.0331C252.206 75.1699 251.587 75.3006 250.916 75.4253C250.244 75.55 249.574 75.6615 248.905 75.7597C248.238 75.8446 247.633 75.9099 247.091 75.9554ZM248.582 73.6495L249.13 68.8406L247.938 68.7047L248.241 66.0419L249.434 66.1779L249.765 63.2767L248.374 63.1181L248.686 60.3759L254.369 61.0239L254.057 63.7661L252.705 63.612L252.375 66.5132L253.607 66.6537L253.303 69.3165L252.071 69.176L251.523 73.9848L248.582 73.6495ZM266.758 78.4194C267.386 77.149 267.94 75.9977 268.42 74.9655C268.915 73.9215 269.357 72.9318 269.745 71.9964C270.149 71.0494 270.519 70.0985 270.856 69.1439C271.207 68.1775 271.553 67.1434 271.894 66.0415C272.236 64.9264 272.607 63.6737 273.007 62.2834L276.088 62.9769C275.737 64.2923 275.389 65.5141 275.046 66.6425C274.704 67.7576 274.347 68.8307 273.974 69.8618C273.603 70.8796 273.198 71.9003 272.76 72.9239C272.334 73.949 271.864 75.0092 271.35 76.1047C270.836 77.2002 270.257 78.3956 269.613 79.691L266.758 78.4194ZM282.897 77.5824C282.894 76.7902 282.857 75.9339 282.787 75.0134C282.731 74.0944 282.649 73.1658 282.542 72.2276C282.447 71.2909 282.328 70.3916 282.185 69.5298L285.296 69.0794C285.435 69.9809 285.557 70.9074 285.663 71.8589C285.771 72.7971 285.858 73.7397 285.925 74.6867C285.993 75.6204 286.031 76.5172 286.041 77.3772L282.897 77.5824ZM282.197 68.5448C281.945 67.8049 281.673 67.1298 281.381 66.5193C281.103 65.8972 280.786 65.2639 280.43 64.6194L282.48 63.7661C282.852 64.3856 283.176 65.0197 283.45 65.6683C283.725 66.317 283.987 67.0245 284.235 67.7909L282.197 68.5448ZM285.22 67.8026C284.984 67.0509 284.733 66.3648 284.468 65.7441C284.218 65.1118 283.921 64.4807 283.577 63.851L285.598 63.0749C285.954 63.7194 286.256 64.3645 286.505 65.0101C286.766 65.6573 287.014 66.3699 287.247 67.148L285.22 67.8026ZM276.413 79.9027C276.055 79.8619 275.622 79.7723 275.115 79.6339C274.606 79.5087 274.08 79.3482 273.539 79.1523C272.998 78.9564 272.485 78.7436 272.001 78.514L272.998 75.9504C273.384 76.1017 273.756 76.2515 274.115 76.3998C274.475 76.5348 274.804 76.6462 275.103 76.7339C275.402 76.8216 275.637 76.8753 275.809 76.895C276.167 76.9357 276.462 76.8217 276.694 76.553C276.939 76.2857 277.142 75.7989 277.303 75.0926C277.479 74.3746 277.64 73.373 277.787 72.088C277.864 71.4124 277.899 70.8662 277.893 70.4495C277.888 70.0196 277.833 69.6844 277.726 69.4441C277.619 69.2038 277.444 69.0295 277.202 68.9214C276.959 68.8132 276.626 68.7349 276.202 68.6866L267.816 67.7304L268.136 64.9286L276.184 65.8462C277.19 65.961 278.02 66.0959 278.674 66.2509C279.327 66.4059 279.839 66.6253 280.209 66.9091C280.581 67.1796 280.839 67.5647 280.983 68.0642C281.142 68.5521 281.21 69.1906 281.187 69.9797C281.166 70.7556 281.09 71.7198 280.958 72.8724C280.753 74.674 280.462 76.1103 280.085 77.1811C279.722 78.2402 279.242 78.9839 278.642 79.4121C278.057 79.8419 277.313 80.0054 276.413 79.9027ZM77.3335 94.8857C76.6138 94.2534 75.9419 93.6735 75.3176 93.1461C74.7066 92.6201 74.0999 92.1148 73.4976 91.6301C72.9086 91.147 72.2879 90.6468 71.6356 90.1295C70.9849 89.5991 70.265 89.0272 69.4761 88.4138C68.6255 87.7532 67.9423 87.2123 67.4267 86.7912C66.9259 86.3584 66.5522 85.987 66.3057 85.677C66.0593 85.3671 65.8989 85.067 65.8246 84.7767C65.7636 84.488 65.7535 84.1647 65.7943 83.8071C65.8381 83.4229 65.9289 83.0977 66.0666 82.8316C66.2058 82.5523 66.437 82.2901 66.7601 82.0451C67.0848 81.7869 67.5383 81.5166 68.1208 81.2341C68.7164 80.9531 69.486 80.6181 70.4295 80.2291C71.3317 79.8489 72.2841 79.4408 73.2866 79.0049C74.2891 78.569 75.2791 78.125 76.2566 77.6728C77.2489 77.2089 78.138 76.7668 78.924 76.3465L80.3736 79.1689C79.9032 79.4105 79.3495 79.6761 78.7126 79.9658C78.0905 80.2438 77.4403 80.532 76.7621 80.8304C76.0987 81.1171 75.45 81.3921 74.8161 81.6553C74.1822 81.9185 73.6117 82.1554 73.1046 82.366C72.5975 82.5765 72.1958 82.7454 71.8995 82.8727C71.2818 83.1109 70.8027 83.3113 70.4621 83.4737C70.123 83.6229 69.8797 83.7562 69.7321 83.8736C69.5993 83.9792 69.5261 84.0917 69.5125 84.2109C69.4974 84.3434 69.5235 84.4671 69.5909 84.5822C69.6583 84.6972 69.8272 84.8641 70.0975 85.0828C70.3693 85.2882 70.7954 85.6119 71.3757 86.0538C71.649 86.246 72.0325 86.5313 72.5261 86.9097C73.0213 87.2748 73.5708 87.6931 74.1746 88.1645C74.7799 88.6227 75.3955 89.1089 76.0212 89.6231C76.6618 90.1256 77.2758 90.625 77.8634 91.1214C78.4657 91.6061 78.9981 92.056 79.4607 92.4711L77.3335 94.8857ZM77.2241 86.8415C76.9847 86.1163 76.7209 85.4287 76.4327 84.7785C76.146 84.1151 75.8079 83.4324 75.4182 82.7304L77.5918 81.851C77.9815 82.553 78.3189 83.2423 78.6041 83.919C78.904 84.5839 79.1788 85.2929 79.4284 86.0461L77.2241 86.8415ZM80.5877 86.1179C80.3616 85.3943 80.1118 84.7015 79.8384 84.0396C79.5664 83.3644 79.2496 82.6708 78.888 81.9585L81.0526 81.1586C81.4142 81.8708 81.7302 82.5711 82.0007 83.2595C82.2858 83.9362 82.54 84.6496 82.7631 85.3997L80.5877 86.1179ZM89.2431 91.5937C91.2037 91.8172 92.7864 91.8836 93.9911 91.7929C95.1973 91.6888 96.0875 91.4146 96.6615 90.9701C97.2488 90.5271 97.5893 89.8949 97.6829 89.0736C97.7826 88.1993 97.5769 87.5317 97.0659 87.0708C96.568 86.6114 95.7164 86.313 94.5108 86.1756C93.9809 86.1152 93.3928 86.0951 92.7463 86.1153C92.1014 86.1223 91.3452 86.1635 90.4777 86.2391C89.625 86.3029 88.6057 86.4148 87.42 86.5748L87.179 83.5682C88.9715 83.3834 90.5076 83.27 91.7872 83.228C93.0669 83.1861 94.1505 83.2157 95.0381 83.3169C97.1312 83.5556 98.671 84.174 99.6576 85.1722C100.644 86.1704 101.042 87.5041 100.852 89.1733C100.607 91.3194 99.495 92.8364 97.515 93.7245C95.5482 94.6141 92.7499 94.8519 89.1201 94.4381L89.2431 91.5937ZM112.84 97.9076C110.309 97.6191 108.435 96.9894 107.218 96.0185C106 95.0476 105.481 93.7739 105.66 92.1975C105.811 90.8727 106.425 89.7282 107.501 88.7639C108.592 87.7879 110.195 86.9709 112.31 86.3129C114.439 85.6432 117.139 85.0988 120.407 84.6797L120.814 87.6449C118.212 87.979 116.053 88.377 114.337 88.8388C112.635 89.2889 111.348 89.8064 110.476 90.3914C109.606 90.9631 109.129 91.6133 109.046 92.3419C108.881 93.7859 110.322 94.6816 113.369 95.029C113.899 95.0894 114.445 95.1315 115.005 95.1552C115.58 95.1804 116.257 95.1838 117.037 95.1655C117.833 95.1354 118.796 95.0976 119.929 95.0523L119.998 97.979C118.633 98.0648 117.36 98.1009 116.181 98.0872C115 98.0868 113.886 98.0269 112.84 97.9076ZM109.677 88.5692C109.456 87.2154 109.279 85.8801 109.148 84.5634C109.029 83.2482 108.965 81.9861 108.955 80.7772L112.311 80.6566C112.32 81.8655 112.386 83.1143 112.508 84.403C112.644 85.68 112.829 86.9358 113.064 88.1703L109.677 88.5692ZM136.162 101.151C135.805 101.11 135.329 101.042 134.736 100.948C134.155 100.868 133.455 100.768 132.637 100.648L132.743 98.1238C133.469 98.2334 134.102 98.3324 134.642 98.4208C135.197 98.4975 135.607 98.551 135.872 98.5812C136.243 98.6235 136.509 98.6404 136.671 98.6321C136.833 98.6237 136.934 98.5614 136.974 98.4452C137.028 98.3305 137.07 98.1341 137.102 97.8559L137.741 92.2522L129.772 91.3436L129.981 89.5154L137.949 90.424L138.056 89.4901L130.087 88.5815L130.293 86.7732L138.262 87.6818L138.366 86.7677L130.398 85.8591L129.507 93.6685L126.348 93.3083L127.494 83.2534L141.802 84.8848L140.313 97.9402C140.216 98.788 140.1 99.4525 139.965 99.9336C139.843 100.416 139.643 100.756 139.366 100.952C139.1 101.164 138.712 101.274 138.201 101.282C137.703 101.293 137.024 101.249 136.162 101.151ZM124.281 94.6628L124.476 92.0683C127.598 92.3437 130.478 92.5714 133.114 92.7513C135.766 92.9194 138.001 93.0333 139.819 93.093L139.68 95.1908C137.85 95.2371 135.605 95.2159 132.944 95.1273C130.298 95.0269 127.411 94.8721 124.281 94.6628ZM124.551 99.8871L123.83 97.2081C126.529 96.9523 129.049 96.5149 131.387 95.8958C133.727 95.2635 135.835 94.4907 137.71 93.5773C139.601 92.6521 141.192 91.6393 142.485 90.5387L143.38 92.9354C142.419 93.7115 141.267 94.4592 139.923 95.1783C138.593 95.8989 137.114 96.569 135.487 97.1886C133.86 97.8083 132.121 98.3481 130.27 98.808C128.432 99.2695 126.526 99.6292 124.551 99.8871ZM134.739 86.0925L131.532 85.445C131.807 84.9127 132.066 84.3517 132.308 83.762C132.563 83.1738 132.795 82.5494 133.004 81.8889L136.212 82.5364C135.989 83.1954 135.75 83.819 135.495 84.4073C135.253 84.997 135.001 85.5587 134.739 86.0925ZM156.004 99.9709L156.801 92.9762L153.086 92.5525L153.38 89.9692L162.64 91.0251L162.346 93.6084L159.961 93.3365L159.163 100.331L156.004 99.9709ZM144.506 102.303L143.354 99.696C144.148 99.3169 144.892 98.9185 145.583 98.5009C146.288 98.0847 146.972 97.6192 147.635 97.1043L149.135 99.3084C148.466 99.8763 147.756 100.393 147.006 100.857C146.266 101.337 145.433 101.819 144.506 102.303ZM145.793 98.6053L146.316 94.015L144.369 93.793L144.663 91.2097L149.611 91.7739L148.793 98.9474L145.793 98.6053ZM156.643 103.365C155.027 103.181 153.647 102.983 152.504 102.772C151.374 102.563 150.429 102.314 149.67 102.027C148.925 101.74 148.319 101.403 147.853 101.014C147.399 100.64 147.054 100.198 146.817 99.6883C146.581 99.1649 146.408 98.568 146.296 97.8978L148.866 98.1304C148.994 98.4268 149.152 98.6864 149.341 98.9092C149.531 99.1321 149.79 99.3294 150.119 99.5012C150.462 99.6744 150.913 99.8333 151.474 99.9777C152.049 100.11 152.779 100.241 153.664 100.368C154.562 100.498 155.66 100.636 156.958 100.784L161.946 101.353L161.492 103.918L156.643 103.365ZM151.144 99.3363L148.853 97.364C149.261 96.8469 149.621 96.2773 149.934 95.6554C150.259 95.035 150.553 94.2834 150.815 93.4007C151.076 92.518 151.319 91.4519 151.542 90.2025C151.765 88.953 151.977 87.4407 152.18 85.6656L155.101 85.9986C154.87 88.0255 154.626 89.7556 154.368 91.189C154.111 92.6224 153.825 93.8378 153.51 94.8352C153.208 95.8342 152.862 96.6872 152.473 97.3943C152.097 98.1029 151.654 98.7502 151.144 99.3363ZM148.575 90.2668C148.078 89.566 147.567 88.8703 147.042 88.1797C146.518 87.4758 145.998 86.7992 145.482 86.1499L147.781 84.5199C148.285 85.1677 148.791 85.8428 149.302 86.5452C149.814 87.2343 150.305 87.9277 150.776 88.6255L148.575 90.2668ZM151.876 88.3283L152.18 85.6656C153.452 85.8106 154.709 85.907 155.951 85.9547C157.209 85.9907 158.376 85.9896 159.454 85.9515C160.547 85.9017 161.456 85.8108 162.183 85.6789L162.643 88.3482C161.836 88.4843 160.846 88.5794 159.672 88.6334C158.513 88.6757 157.265 88.6744 155.928 88.6293C154.591 88.5842 153.241 88.4839 151.876 88.3283ZM172.811 104.746C171.274 104.57 170.111 104.062 169.321 103.221C168.543 102.394 168.228 101.331 168.376 100.033C168.526 98.7215 169.08 97.7512 170.037 97.1223C171.008 96.4949 172.275 96.2703 173.838 96.4486C174.46 96.5196 175.083 96.7047 175.707 97.0039C176.345 97.2914 176.99 97.7004 177.64 98.2308C178.306 98.7496 178.984 99.3906 179.676 100.154C180.367 100.917 181.077 101.81 181.806 102.832L179.636 104.739C178.7 103.532 177.925 102.558 177.312 101.817C176.699 101.076 176.18 100.507 175.755 100.109C175.344 99.7136 174.966 99.4423 174.62 99.2956C174.289 99.1371 173.932 99.0359 173.548 98.9921C172.872 98.9151 172.362 98.9776 172.017 99.1798C171.685 99.3836 171.488 99.757 171.426 100.3C171.364 100.843 171.47 101.265 171.745 101.564C172.032 101.866 172.488 102.052 173.11 102.123C173.799 102.201 174.326 102.114 174.69 101.86C175.055 101.606 175.269 101.195 175.334 100.625L176.531 90.133C177.736 90.2704 178.866 90.4195 179.922 90.58C180.992 90.7289 182.033 90.8946 183.046 91.0771L182.547 93.8586C181.667 93.6912 180.725 93.5368 179.721 93.3955C178.732 93.2425 177.715 93.1063 176.668 92.9869L179.582 91.266L178.512 100.645C178.333 102.222 177.768 103.345 176.82 104.015C175.87 104.699 174.533 104.942 172.811 104.746ZM163.653 100.501C164.358 99.0246 165.024 97.5437 165.649 96.0584C166.276 94.5598 166.874 93.0243 167.443 91.4519C168.024 89.881 168.579 88.2534 169.107 86.569L172.117 87.174C171.597 88.9129 171.041 90.6075 170.451 92.2579C169.86 93.9082 169.24 95.5217 168.59 97.0983C167.942 98.6616 167.251 100.193 166.516 101.693L163.653 100.501ZM164.547 91.6048L164.866 88.803L175.08 89.9676L174.76 92.7694L164.547 91.6048ZM194.71 107.061C193.451 106.918 192.414 106.719 191.597 106.465C190.793 106.226 190.174 105.887 189.741 105.448C189.319 105.024 189.046 104.477 188.921 103.805C188.797 103.133 188.791 102.3 188.904 101.307C188.939 101.002 188.999 100.539 189.083 99.918C189.169 99.2836 189.273 98.5441 189.396 97.6992C189.519 96.8544 189.649 95.95 189.786 94.9859C189.936 94.0234 190.088 93.0476 190.241 92.0586C190.394 91.0696 190.541 90.1269 190.684 89.2306L193.896 89.6573C193.769 90.4211 193.634 91.2511 193.492 92.1474C193.351 93.0305 193.209 93.9202 193.066 94.8165C192.939 95.701 192.815 96.5525 192.695 97.3708C192.574 98.1891 192.471 98.9221 192.384 99.5697C192.296 100.217 192.231 100.727 192.189 101.098C192.12 101.707 192.098 102.194 192.123 102.559C192.162 102.926 192.277 103.214 192.467 103.424C192.658 103.634 192.962 103.796 193.378 103.91C193.796 104.012 194.349 104.102 195.038 104.18C195.913 104.28 196.6 104.311 197.101 104.274C197.615 104.239 197.991 104.121 198.228 103.92C198.466 103.719 198.607 103.42 198.653 103.022C198.677 102.81 198.676 102.528 198.649 102.176C198.623 101.811 198.589 101.519 198.547 101.299L201.764 100.981C201.831 101.566 201.871 102.047 201.881 102.424C201.894 102.788 201.88 103.142 201.841 103.486C201.729 104.467 201.398 105.254 200.847 105.849C200.297 106.43 199.515 106.818 198.5 107.011C197.483 107.217 196.22 107.234 194.71 107.061ZM184.32 98.6101L184.631 95.8877L200.587 97.7071L200.277 100.429L184.32 98.6101ZM185.3 93.5485L185.61 90.8261L200.772 92.5549L200.462 95.2773L185.3 93.5485ZM214.014 106.183C214.687 106.166 215.311 106.042 215.888 105.813C216.464 105.583 216.97 105.265 217.405 104.858C217.856 104.44 218.221 103.945 218.501 103.373C218.782 102.788 218.962 102.151 219.041 101.462C219.156 100.455 219.023 99.5609 218.642 98.7794C218.276 97.9862 217.705 97.3441 216.929 96.853C216.167 96.3634 215.262 96.059 214.215 95.9396C213.314 95.8369 212.449 95.8992 211.617 96.1265C210.801 96.3421 210.064 96.6875 209.406 97.1626C208.748 97.6378 208.206 98.2135 207.78 98.8895C207.354 99.5656 207.094 100.314 207 101.136C206.94 101.666 206.966 102.199 207.08 102.735C207.194 103.258 207.365 103.707 207.59 104.082C207.831 104.444 208.09 104.642 208.368 104.673C208.779 104.72 209.234 104.323 209.732 103.48C210.246 102.626 210.77 101.378 211.307 99.7346C211.858 98.0797 212.407 96.089 212.954 93.7627L216.055 94.4585C215.428 97.0173 214.813 99.1748 214.21 100.931C213.62 102.689 213.017 104.096 212.4 105.153C211.783 106.21 211.127 106.961 210.432 107.405C209.739 107.836 208.981 108.004 208.16 107.911C207.458 107.831 206.827 107.598 206.267 107.212C205.709 106.813 205.244 106.297 204.874 105.664C204.504 105.018 204.246 104.284 204.098 103.462C203.952 102.627 203.932 101.739 204.039 100.798C204.186 99.5131 204.552 98.3605 205.138 97.3403C205.726 96.3069 206.488 95.4477 207.425 94.7628C208.362 94.0779 209.438 93.5833 210.654 93.279C211.869 92.9748 213.173 92.902 214.564 93.0606C216.206 93.2479 217.628 93.7254 218.829 94.493C220.044 95.2489 220.95 96.2513 221.546 97.5001C222.143 98.7358 222.348 100.175 222.161 101.818C222.038 102.891 221.765 103.873 221.342 104.764C220.933 105.643 220.396 106.407 219.731 107.056C219.069 107.692 218.301 108.188 217.428 108.545C216.57 108.89 215.63 109.071 214.608 109.089L214.014 106.183ZM235.481 111.046C234.289 110.91 233.242 110.616 232.34 110.165C231.454 109.701 230.781 109.128 230.322 108.445C229.877 107.763 229.699 107.025 229.79 106.23C229.95 104.826 230.963 103.472 232.829 102.169L234.979 104.145C234.293 104.63 233.797 105.043 233.489 105.384C233.184 105.711 233.013 106.028 232.979 106.332C232.943 106.65 233.031 106.935 233.244 107.188C233.458 107.427 233.783 107.632 234.22 107.802C234.657 107.973 235.187 108.094 235.809 108.165C236.419 108.234 237.146 108.27 237.991 108.273C238.838 108.262 239.714 108.227 240.62 108.17L240.735 111.041C239.813 111.124 238.902 111.168 238.003 111.173C237.103 111.177 236.262 111.135 235.481 111.046ZM231.611 98.7284L231.94 95.847L242.154 97.0117L241.825 99.893L231.611 98.7284ZM225.046 110.581C224.869 109.192 224.778 107.813 224.773 106.443C224.768 105.074 224.851 103.647 225.02 102.164C225.189 100.68 225.429 99.2782 225.741 97.9583C226.054 96.6252 226.453 95.3019 226.938 93.9884L230.117 94.7132C229.668 95.937 229.289 97.2022 228.979 98.5088C228.684 99.8037 228.457 101.147 228.299 102.538C228.14 103.929 228.058 105.295 228.053 106.636C228.062 107.966 228.147 109.277 228.309 110.57L225.046 110.581ZM252.296 113.809C250.759 113.634 249.596 113.125 248.806 112.284C248.028 111.457 247.713 110.394 247.861 109.096C248.011 107.785 248.564 106.814 249.522 106.185C250.493 105.558 251.759 105.333 253.323 105.512C253.945 105.583 254.568 105.768 255.192 106.067C255.83 106.355 256.474 106.763 257.125 107.294C257.791 107.813 258.469 108.454 259.161 109.217C259.852 109.98 260.562 110.873 261.291 111.895L259.121 113.802C258.185 112.595 257.41 111.621 256.797 110.88C256.184 110.139 255.665 109.57 255.24 109.173C254.829 108.777 254.451 108.505 254.105 108.359C253.774 108.2 253.417 108.099 253.033 108.055C252.357 107.978 251.847 108.041 251.502 108.243C251.17 108.447 250.973 108.82 250.911 109.363C250.849 109.906 250.955 110.328 251.23 110.628C251.517 110.929 251.973 111.115 252.595 111.186C253.284 111.264 253.811 111.177 254.175 110.923C254.54 110.669 254.754 110.258 254.819 109.688L256.016 99.1961C257.221 99.3336 258.351 99.4826 259.407 99.6432C260.477 99.792 261.518 99.9577 262.53 100.14L262.032 102.922C261.152 102.754 260.21 102.6 259.206 102.459C258.217 102.306 257.2 102.169 256.153 102.05L259.067 100.329L257.997 109.708C257.818 111.285 257.253 112.408 256.305 113.078C255.354 113.762 254.018 114.005 252.296 113.809ZM243.138 109.564C243.843 108.088 244.509 106.607 245.134 105.122C245.761 103.623 246.359 102.087 246.928 100.515C247.509 98.9442 248.064 97.3165 248.591 95.6321L251.602 96.2371C251.082 97.976 250.526 99.6706 249.936 101.321C249.345 102.971 248.725 104.585 248.075 106.161C247.427 107.725 246.736 109.256 246.001 110.756L243.138 109.564ZM244.032 100.668L244.351 97.8661L254.565 99.0307L254.245 101.833L244.032 100.668ZM266.356 112.312C268.807 112.591 270.797 112.617 272.326 112.389C273.868 112.162 275.028 111.643 275.805 110.833C276.583 110.009 277.054 108.875 277.219 107.431C277.378 106.04 277.203 104.987 276.694 104.271C276.186 103.543 275.317 103.108 274.085 102.967C273.422 102.892 272.781 102.926 272.161 103.07C271.542 103.201 270.979 103.432 270.471 103.763C269.964 104.094 269.547 104.51 269.222 105.01C268.897 105.509 268.696 106.09 268.621 106.753L268.312 109.455L265.193 109.1L266.389 98.6075L269.509 98.9632L269.071 102.798L267.879 102.662C268.538 101.946 269.221 101.373 269.927 100.943C270.635 100.501 271.387 100.204 272.182 100.053C272.98 99.8891 273.842 99.8599 274.769 99.9656C276.902 100.209 278.455 101.003 279.429 102.349C280.418 103.683 280.781 105.502 280.518 107.807C280.281 109.887 279.616 111.536 278.525 112.753C277.433 113.971 275.871 114.786 273.837 115.198C271.804 115.61 269.251 115.641 266.178 115.291L266.356 112.312ZM289.199 117.996C287.517 117.805 286.256 117.325 285.418 116.559C284.591 115.807 284.247 114.822 284.386 113.603C284.525 112.384 285.081 111.508 286.054 110.975C287.028 110.442 288.362 110.272 290.058 110.465C290.919 110.563 291.743 110.751 292.53 111.029C293.317 111.307 294.098 111.698 294.872 112.202C295.647 112.706 296.453 113.342 297.292 114.108C298.13 114.875 299.031 115.803 299.994 116.892L297.714 118.706C296.808 117.703 295.992 116.859 295.265 116.172C294.54 115.472 293.866 114.905 293.245 114.472C292.638 114.027 292.052 113.692 291.487 113.467C290.922 113.241 290.349 113.095 289.766 113.029C288.414 112.875 287.697 113.169 287.612 113.91C287.57 114.281 287.703 114.585 288.011 114.821C288.32 115.058 288.792 115.212 289.428 115.285C290.236 115.377 290.857 115.287 291.291 115.014C291.726 114.728 291.981 114.254 292.057 113.592L293.484 101.073L296.524 101.42L295.097 113.939C294.919 115.502 294.335 116.616 293.347 117.282C292.37 117.962 290.988 118.2 289.199 117.996ZM284.826 108.681L285.128 106.038L300.826 107.828L300.525 110.471L284.826 108.681ZM285.085 104.644L285.394 101.942L301.489 103.777L301.181 106.48L285.085 104.644ZM68.6572 128.962C67.0542 128.779 65.7773 128.385 64.8264 127.781C63.8739 127.189 63.2174 126.356 62.8568 125.281C62.511 124.195 62.4302 122.844 62.6145 121.228L63.6952 111.749L66.9939 112.125L65.9131 121.604C65.7545 122.995 65.912 124.026 66.3857 124.697C66.8609 125.355 67.7343 125.757 69.0061 125.902C69.9599 126.011 70.8215 125.928 71.5909 125.653C72.3603 125.379 73.0965 124.865 73.7996 124.113C74.5158 123.363 75.2587 122.321 76.0282 120.986L78.7867 122.568C78.0732 123.883 77.3574 124.982 76.6392 125.866C75.9359 126.739 75.1866 127.425 74.3916 127.925C73.5965 128.425 72.7268 128.755 71.7825 128.916C70.8515 129.078 69.8097 129.094 68.6572 128.962ZM80.5741 130.019C81.3065 128.304 81.9888 126.557 82.6212 124.777C83.2668 122.999 83.8639 121.175 84.4126 119.305C84.9761 117.423 85.5051 115.491 85.9997 113.507L89.2029 114.013C88.7557 115.935 88.2481 117.857 87.6801 119.778C87.1268 121.688 86.5221 123.578 85.8659 125.449C85.2113 127.307 84.5058 129.139 83.7497 130.945L80.5741 130.019ZM93.1873 131.679C91.9023 131.532 90.8135 131.254 89.9209 130.843C89.0401 130.447 88.3789 129.949 87.9375 129.349C87.4975 128.735 87.3213 128.044 87.4089 127.276C87.4694 126.746 87.6865 126.254 88.0603 125.8C88.4357 125.333 88.984 124.879 89.7052 124.437L92.3161 125.903C91.8604 126.133 91.5041 126.374 91.2472 126.626C90.9918 126.866 90.8512 127.098 90.8256 127.323C90.7984 127.561 90.8876 127.78 91.0931 127.978C91.312 128.177 91.628 128.347 92.0414 128.488C92.4547 128.629 92.9462 128.732 93.5159 128.797C94.1253 128.867 94.7384 128.903 95.3554 128.906C95.9855 128.911 96.6659 128.888 97.3963 128.837L97.4056 131.757C96.6339 131.817 95.9204 131.836 95.2653 131.815C94.6218 131.809 93.9292 131.763 93.1873 131.679ZM81.6441 118.164L81.9613 115.382L96.2686 117.013L95.9514 119.795L81.6441 118.164ZM89.0888 120.663C90.6819 120.697 92.244 120.768 93.775 120.876C95.3207 120.971 96.8554 121.106 98.3788 121.28L98.0593 124.082C96.5624 123.911 95.0543 123.779 93.535 123.687C92.0305 123.582 90.5015 123.515 88.9482 123.486L89.0888 120.663Z" fill="#282828"/>
<path opacity="0.6" d="M68.1282 162.377C68.5474 158.701 70.4865 155.641 74.0666 153.372C74.2636 153.233 74.4912 153.179 74.6899 153.202C75.0675 153.245 75.3867 153.623 75.3436 154.001C75.3142 154.259 75.1944 154.427 74.9753 154.583C71.8352 156.701 70.3279 159.327 69.9564 162.586C69.5848 165.845 70.4621 168.743 73.0449 171.513C73.2232 171.715 73.3021 171.905 73.2727 172.163C73.2296 172.541 72.8334 172.838 72.4559 172.795C72.2572 172.772 72.0477 172.668 71.8869 172.488C68.9095 169.471 67.709 166.053 68.1282 162.377ZM78.5892 168.965L84.1532 169.599C84.8686 169.681 85.1565 170.156 85.0886 170.753C85.0206 171.349 84.6352 171.727 83.9198 171.646L76.5873 170.81C75.872 170.728 75.4761 170.14 75.5599 169.404C75.6256 168.828 75.8719 168.434 76.33 168.123C78.0806 166.894 79.5502 165.833 81.3063 164.202C82.7037 162.892 83.3581 161.92 83.4895 160.767C83.6594 159.277 82.9706 158.433 81.7187 158.291C80.9039 158.198 79.969 158.453 78.9086 159.279C78.6453 159.47 78.3932 159.562 78.115 159.53C77.4394 159.453 77.0169 158.922 77.0894 158.286C77.1256 157.968 77.2476 157.781 77.5797 157.517C78.7507 156.603 80.4418 156.072 81.9322 156.242C84.7738 156.566 86.1686 158.456 85.8786 160.999C85.6701 162.827 84.8938 163.987 82.8901 165.671C81.0437 167.212 79.9703 167.975 78.5892 168.965ZM93.6919 157.582C96.7123 157.927 98.4746 160.302 97.847 165.806C97.2194 171.31 94.9677 173.228 91.9473 172.883C88.9268 172.539 87.2043 170.169 87.8319 164.664C88.4595 159.16 90.6715 157.238 93.6919 157.582ZM93.4653 159.57C91.816 159.382 90.6638 160.659 90.1767 164.932C89.6896 169.204 90.5245 170.708 92.1738 170.896C93.843 171.087 95.0151 169.811 95.5022 165.539C95.9893 161.266 95.1345 159.76 93.4653 159.57ZM101.324 174.818L102.394 165.439C101.997 165.917 101.583 166.373 101.175 166.769C100.881 167.058 100.547 167.161 100.249 167.127C99.6725 167.061 99.1904 166.523 99.2561 165.947C99.2833 165.708 99.39 165.479 99.6181 165.243C101.41 163.475 103.203 160.64 104.301 158.067C104.519 157.569 104.983 157.38 105.44 157.432C106.037 157.5 106.59 157.946 106.517 158.582C106.506 158.681 106.472 158.798 106.419 158.913C105.812 160.353 104.906 161.941 103.915 163.398C104.385 163.512 104.771 163.838 104.712 164.354L103.49 175.065C103.429 175.602 102.861 175.819 102.324 175.757C101.768 175.694 101.263 175.355 101.324 174.818ZM111.434 163.833L116.953 163.979L117.032 163.988C117.569 164.049 117.788 164.597 117.729 165.114C117.677 165.571 117.409 165.983 116.907 165.967L111.468 165.829C111.551 167.57 111.79 169.187 112.21 170.624C113.021 173.394 113.86 174.154 114.456 174.222C114.715 174.251 114.983 174.02 115.269 172.745C115.399 172.135 115.888 171.909 116.365 171.964C116.901 172.025 117.434 172.468 117.357 173.144L117.341 173.283C116.748 176.013 115.62 176.73 114.288 176.578C112.54 176.379 111.041 174.517 110.015 170.978C109.569 169.417 109.305 167.676 109.222 165.754L106.291 165.682L106.212 165.673C105.675 165.612 105.456 165.063 105.513 164.567C105.565 164.11 105.853 163.7 106.335 163.714L109.206 163.78C109.223 162.212 109.334 160.534 109.534 158.785C109.604 158.169 110.194 157.934 110.751 157.998C111.307 158.061 111.829 158.423 111.759 159.039C111.567 160.728 111.445 162.324 111.434 163.833ZM114.275 159.748C114.766 160.207 115.215 160.681 115.585 161.146C115.794 161.431 115.882 161.723 115.854 161.961C115.789 162.538 115.215 162.976 114.659 162.912C114.421 162.885 114.176 162.736 113.984 162.473C113.622 161.948 113.232 161.481 112.78 161.027C112.565 160.801 112.473 160.549 112.5 160.311C112.556 159.814 113.09 159.372 113.646 159.435C113.865 159.46 114.075 159.564 114.275 159.748ZM118.797 176.408L137.155 160.868C137.355 160.709 137.569 160.593 137.748 160.613C138.265 160.672 138.654 161.139 138.609 161.537C138.584 161.755 138.482 161.945 138.261 162.121L119.902 177.661C119.703 177.819 119.488 177.936 119.309 177.916C118.793 177.857 118.403 177.389 118.448 176.992C118.473 176.773 118.575 176.584 118.797 176.408ZM156.979 169.912L154.097 169.583C153.81 170.335 153.399 171.295 152.944 172.109C152.287 173.282 151.502 174.34 150.589 175.282C152.106 176.28 153.591 177.376 154.906 178.552C155.254 178.854 155.373 179.23 155.334 179.567C155.266 180.164 154.684 180.681 154.048 180.608C153.809 180.581 153.56 180.472 153.322 180.264C151.956 179.001 150.423 177.8 148.871 176.757C146.421 178.471 143.51 179.286 140.302 179.524C140.201 179.533 140.121 179.524 140.022 179.512C139.366 179.438 139.045 178.898 139.104 178.381C139.154 177.944 139.484 177.519 140.114 177.47C142.714 177.263 144.993 176.697 146.92 175.508C146.011 175.002 145.123 174.498 144.187 174.049L144.092 174.179C143.76 174.624 143.32 174.775 142.922 174.73C142.346 174.664 141.835 174.204 141.901 173.627C141.919 173.468 141.979 173.294 142.121 173.109C143.216 171.623 144.212 170.127 145.076 168.554L140.406 168.022C139.889 167.963 139.665 167.454 139.72 166.977C139.774 166.5 140.107 166.055 140.623 166.114L146.028 166.731C146.633 165.491 147.184 164.185 147.747 162.78C147.943 162.299 148.427 162.113 148.884 162.165C149.46 162.23 149.998 162.634 149.93 163.23C149.921 163.309 149.892 163.387 149.861 163.484C149.38 164.697 148.884 165.869 148.333 166.993L157.196 168.004C157.733 168.065 157.956 168.574 157.902 169.051C157.848 169.527 157.515 169.973 156.979 169.912ZM151.752 169.316L147.42 168.822C146.737 170.052 146.035 171.26 145.277 172.442C146.446 172.958 147.59 173.511 148.686 174.139C150.066 172.807 151.085 171.112 151.752 169.316ZM169.8 180.693L170.248 176.759L167.228 176.415C166.731 176.358 166.549 175.834 166.604 175.357C166.66 174.86 166.953 174.41 167.45 174.467L170.47 174.812L170.849 171.493L168.563 171.232C168.264 171.742 167.947 172.229 167.634 172.676C167.321 173.124 166.881 173.275 166.504 173.232C165.987 173.173 165.551 172.761 165.614 172.205C165.637 172.006 165.722 171.794 165.888 171.572C166.815 170.329 167.616 168.769 168.218 167.026C168.398 166.503 168.865 166.295 169.282 166.342C169.799 166.401 170.275 166.818 170.207 167.414C170.198 167.494 170.191 167.553 170.162 167.63C169.972 168.233 169.743 168.831 169.476 169.404L171.066 169.585L171.497 165.81C171.565 165.214 172.135 164.977 172.672 165.038C173.208 165.099 173.711 165.458 173.643 166.055L173.212 169.83L176.849 170.245C177.365 170.304 177.569 170.81 177.515 171.287C177.461 171.764 177.148 172.211 176.631 172.152L172.995 171.738L172.616 175.056L175.537 175.389C176.034 175.446 176.238 175.952 176.182 176.449C176.127 176.926 175.812 177.393 175.315 177.337L172.394 177.004L171.946 180.938L175.999 181.4C176.496 181.457 176.7 181.963 176.644 182.46C176.589 182.937 176.274 183.404 175.777 183.348L164.828 182.099C164.351 182.045 164.15 181.519 164.204 181.042C164.261 180.545 164.573 180.098 165.05 180.152L169.8 180.693ZM164.577 164.88L162.661 181.691C162.593 182.287 162.022 182.524 161.486 182.463C160.929 182.399 160.427 182.04 160.495 181.444L162.412 164.633C162.479 164.037 163.048 163.82 163.604 163.883C164.141 163.944 164.645 164.284 164.577 164.88ZM160.093 168.374C160.204 167.924 160.587 167.746 160.945 167.787C161.362 167.835 161.728 168.158 161.671 168.655L161.66 168.754C161.478 169.64 161.124 170.807 160.768 171.632C160.579 172.053 160.219 172.213 159.881 172.175C159.464 172.127 159.1 171.784 159.152 171.327C159.161 171.247 159.173 171.148 159.224 171.053C159.577 170.248 159.905 169.138 160.093 168.374ZM165.944 168.257C166.074 168.875 166.172 169.611 166.19 170.157L166.174 170.296C166.113 170.832 165.64 171.1 165.242 171.055C164.904 171.017 164.609 170.782 164.582 170.315C164.55 169.708 164.497 168.937 164.413 168.444C164.402 168.363 164.393 168.261 164.402 168.181C164.45 167.764 164.857 167.549 165.234 167.592C165.552 167.628 165.85 167.843 165.944 168.257ZM185.281 175.735C184.862 179.412 182.923 182.472 179.343 184.741C179.146 184.879 178.918 184.934 178.719 184.911C178.342 184.868 178.022 184.489 178.066 184.112C178.095 183.854 178.215 183.686 178.434 183.53C181.574 181.412 183.081 178.786 183.453 175.527C183.824 172.268 182.947 169.37 180.364 166.6C180.186 166.398 180.107 166.208 180.136 165.95C180.18 165.572 180.576 165.275 180.953 165.318C181.152 165.341 181.362 165.445 181.522 165.624C184.5 168.641 185.7 172.059 185.281 175.735Z" fill="#282828"/>
<path d="M66.4985 248.346L89.1406 208.656L120.117 212.188L66.4985 248.346Z" fill="#69BD83"/>
</svg>
