<svg width="331" height="200" viewBox="0 0 331 200" fill="none" xmlns="http://www.w3.org/2000/svg">
<g clip-path="url(#clip0_1425_1148)">
<path d="M200.757 182.304C195.64 197.168 175.014 203.552 154.691 196.547C134.369 189.556 122.039 171.832 127.156 156.969C132.273 142.105 152.899 135.735 173.222 142.726C193.544 149.717 205.874 167.441 200.743 182.304" fill="#E7372F"/>
<path d="M136.017 161.547C131.84 173.782 143.721 176.454 147.84 165.476C152.451 153.184 140.18 149.399 136.017 161.547Z" fill="white"/>
<mask id="mask0_1425_1148" style="mask-type:luminance" maskUnits="userSpaceOnUse" x="135" y="154" width="14" height="19">
<path d="M147.84 165.476C143.721 176.454 131.84 173.782 136.017 161.547C137.766 156.405 140.975 154.123 143.75 154.123C147.537 154.123 150.5 158.384 147.84 165.476Z" fill="white"/>
</mask>
<g mask="url(#mask0_1425_1148)">
<path d="M132.982 158.24C128.804 170.474 140.686 173.147 144.805 162.169C149.416 149.876 137.144 146.092 132.982 158.24Z" fill="#231815"/>
</g>
<path d="M140.078 173.305C143.157 173.305 146.771 170.965 148.707 165.794C150.326 161.461 150.11 157.604 148.1 155.221C146.742 153.603 144.733 152.895 142.622 153.299C139.399 153.906 136.667 156.795 135.149 161.244C132.909 167.802 135.063 171.861 138.199 172.988C138.792 173.204 139.428 173.305 140.093 173.305H140.078ZM143.75 155.047C144.892 155.047 145.932 155.524 146.684 156.42C148.245 158.283 148.361 161.461 146.973 165.144C145.036 170.301 141.321 172.135 138.821 171.24C136.551 170.431 135.077 167.21 136.898 161.836C138.17 158.095 140.44 155.582 142.955 155.105C143.215 155.062 143.49 155.033 143.75 155.033V155.047Z" fill="#231815"/>
<path d="M169.435 173.045C165.258 185.28 177.139 187.952 181.258 176.974C185.869 164.682 173.598 160.897 169.435 173.045Z" fill="white"/>
<mask id="mask1_1425_1148" style="mask-type:luminance" maskUnits="userSpaceOnUse" x="168" y="165" width="15" height="19">
<path d="M181.259 176.974C177.139 187.952 165.258 185.28 169.45 173.045C171.199 167.903 174.407 165.621 177.183 165.621C180.97 165.621 183.933 169.882 181.259 176.974Z" fill="white"/>
</mask>
<g mask="url(#mask1_1425_1148)">
<path d="M166.472 170.315C162.295 182.55 174.176 185.222 178.296 174.244C182.907 161.952 170.635 158.167 166.472 170.315Z" fill="#231815"/>
</g>
<path d="M173.497 184.803C176.576 184.803 180.189 182.463 182.126 177.292C183.745 172.959 183.528 169.117 181.519 166.719C180.16 165.101 178.166 164.393 176.041 164.798C172.818 165.404 170.086 168.293 168.568 172.742C166.328 179.3 168.481 183.359 171.618 184.486C172.211 184.702 172.847 184.803 173.511 184.803H173.497ZM177.168 166.545C178.31 166.545 179.351 167.022 180.103 167.918C181.664 169.781 181.779 172.959 180.392 176.642C178.455 181.799 174.755 183.633 172.239 182.738C169.97 181.929 168.481 178.708 170.317 173.334C171.589 169.593 173.858 167.08 176.373 166.603C176.634 166.56 176.908 166.531 177.168 166.531V166.545Z" fill="#231815"/>
<path d="M140.078 142.567L198.719 162.356L201.596 153.429C223.046 150.396 206.871 123.934 194.253 137.093C193.588 122.056 171.82 113.996 163.624 125.306C158.912 103.422 132.779 115.281 142.81 130.463L140.078 142.553V142.567Z" fill="white"/>
<path d="M198.734 163.281C198.878 163.281 199.023 163.252 199.153 163.18C199.37 163.064 199.543 162.877 199.615 162.631L202.318 154.253C210.499 152.91 212.451 148.36 212.884 145.731C213.636 141.065 210.789 135.851 206.264 133.583C202.506 131.72 198.488 132.297 195.005 135.143C193.761 127.256 187.084 121.883 180.623 119.947C174.133 117.997 167.975 119.297 164.087 123.327C162.338 117.376 158.652 113.49 153.781 112.58C149.112 111.699 144.024 113.808 141.408 117.737C138.879 121.522 139.038 126.216 141.827 130.636L139.182 142.351C139.081 142.813 139.341 143.275 139.789 143.434L198.445 163.223C198.546 163.252 198.647 163.267 198.748 163.267L198.734 163.281ZM201.798 134.363C203.287 134.363 204.559 134.811 205.44 135.244C209.213 137.122 211.685 141.6 211.063 145.427C210.456 149.198 207.045 151.711 201.494 152.505C201.148 152.549 200.858 152.794 200.743 153.141L198.156 161.172L141.191 141.946L143.735 130.665C143.793 130.419 143.735 130.159 143.605 129.957C140.093 124.642 141.697 120.669 142.955 118.763C145.166 115.44 149.488 113.649 153.449 114.4C156.137 114.906 160.907 117.029 162.743 125.508C162.815 125.869 163.104 126.144 163.465 126.216C163.827 126.288 164.188 126.144 164.405 125.855C168.293 120.496 175.058 120.207 180.102 121.724C186.448 123.631 192.995 129.134 193.357 137.136C193.371 137.512 193.602 137.83 193.949 137.96C194.296 138.09 194.687 138.003 194.947 137.728C197.433 135.143 199.832 134.363 201.812 134.363H201.798Z" fill="#231815"/>
<path d="M162.439 192.141C163.783 192.141 164.896 191.405 165.431 190.162C166.096 188.588 165.836 185.974 163.364 183.056C163.537 182.984 163.725 182.897 163.899 182.81C164.361 182.594 164.549 182.03 164.332 181.568C164.116 181.106 163.552 180.918 163.089 181.135C162.569 181.38 162.034 181.611 161.499 181.799C161.47 181.799 161.427 181.814 161.398 181.842C159.534 182.492 157.626 182.81 155.79 182.868C155.718 182.868 155.631 182.868 155.559 182.868C149.907 182.94 144.964 180.73 143.287 178.592C142.969 178.188 142.391 178.13 141.986 178.433C141.581 178.751 141.509 179.329 141.827 179.733C143.909 182.362 149.213 184.674 155.067 184.702C156.975 189.325 159.678 192.084 162.367 192.127C162.381 192.127 162.41 192.127 162.424 192.127L162.439 192.141ZM161.514 183.749C163.855 186.248 164.173 188.342 163.725 189.426C163.494 189.989 163.046 190.278 162.439 190.278H162.41C161.037 190.249 158.883 188.732 157.062 184.616C158.551 184.486 160.04 184.211 161.514 183.735V183.749Z" fill="#231815"/>
</g>
<path d="M43 0.377869L83 98.3779" stroke="#282828" stroke-width="2"/>
<path d="M289 0.377869L249 98.3779" stroke="#282828" stroke-width="2"/>
<path d="M77.65 22.3879L77.635 22.3429C75.97 22.7029 75.04 22.8529 74.455 22.9279H74.35C73.87 22.9279 73.6 22.5229 73.6 22.1179C73.6 21.7579 73.81 21.3979 74.26 21.3379C74.815 21.2779 75.76 21.1879 78.655 20.5729C78.76 20.5429 78.865 20.5429 78.97 20.5429C79.6 20.5429 80.035 20.9779 80.035 21.5029C80.035 21.7279 79.945 21.9679 79.765 22.1929C78.79 23.4079 77.44 24.7129 76.09 25.6579L76.105 25.6879C77.995 25.2679 79.765 24.9079 82.255 24.3979C82.315 24.3829 82.375 24.3829 82.435 24.3829C82.96 24.3829 83.26 24.7729 83.26 25.1629C83.26 25.5079 83.05 25.8379 82.57 25.9429C81.55 26.1679 80.59 26.4379 80.005 26.7379C78.445 27.5179 77.92 28.6729 77.92 29.6029C77.92 30.6379 78.61 31.2529 80.635 31.3279C81.19 31.3579 81.46 31.7479 81.46 32.1379C81.46 32.5579 81.16 32.9929 80.56 32.9779C77.845 32.9329 76.24 31.6879 76.24 29.7379C76.24 28.7479 76.57 27.7429 77.62 26.8279L77.605 26.7979C76.375 27.0829 75.205 27.3679 73.855 27.6979C73.33 27.8329 72.835 27.9679 72.325 28.1179C72.22 28.1479 72.13 28.1629 72.04 28.1629C71.545 28.1629 71.215 27.7429 71.215 27.3079C71.215 26.9929 71.395 26.6629 71.83 26.5129C72.625 26.2279 73.48 25.8229 74.17 25.3579C75.505 24.4579 76.69 23.4229 77.65 22.3879ZM88.915 31.3579C87.385 31.3579 86.11 30.1279 86.11 27.7879C86.11 24.3679 88.945 21.5629 93.07 21.5629C96.73 21.5629 98.845 23.8579 98.845 26.8429C98.845 29.5579 97.24 31.5529 94.66 32.3779C94.54 32.4229 94.42 32.4379 94.315 32.4379C93.805 32.4379 93.475 32.0179 93.475 31.5829C93.475 31.2529 93.655 30.9229 94.105 30.7579C96.235 29.9929 97.09 28.7029 97.09 26.8429C97.09 24.8779 95.755 23.2579 93.475 23.0929C93.325 25.5829 92.71 27.8329 91.78 29.4679C90.955 30.9229 90.07 31.3579 88.915 31.3579ZM91.72 23.1979C89.485 23.6329 87.835 25.5679 87.835 27.7879C87.835 29.1679 88.375 29.6779 88.915 29.6779C89.38 29.6779 89.785 29.4379 90.22 28.6729C90.985 27.3379 91.54 25.4029 91.72 23.1979ZM105.715 26.1679C105.385 24.7279 105.16 22.9429 105.16 20.8729C105.16 20.3329 105.595 20.0629 106.03 20.0629C106.465 20.0629 106.9 20.3329 106.9 20.8729C106.9 22.5529 107.035 24.0529 107.245 25.2679C108.16 24.8179 109.18 24.4129 110.2 24.0979C110.29 24.0679 110.38 24.0529 110.47 24.0529C110.935 24.0529 111.25 24.4729 111.25 24.8929C111.25 25.2079 111.085 25.5079 110.695 25.6279C109.36 26.0479 107.86 26.6629 106.75 27.3679C105.46 28.2079 105.01 29.0329 105.01 29.7979C105.01 30.7279 105.625 31.2079 108.01 31.2079C109.21 31.2079 110.275 31.1029 111.115 30.9379C111.19 30.9229 111.25 30.9229 111.31 30.9229C111.835 30.9229 112.12 31.3279 112.12 31.7479C112.12 32.1229 111.91 32.4829 111.445 32.5879C110.425 32.7979 109.27 32.8729 107.995 32.8729C104.845 32.8729 103.27 31.9129 103.27 29.8879C103.27 28.6579 103.84 27.4429 105.715 26.1679ZM124.15 28.2379L124.165 28.2079C123.835 27.7429 123.445 27.1579 123.055 26.5129C121.57 26.7679 120.085 26.9179 118.945 27.0079C118.735 27.0229 118.465 27.0379 118.39 27.0379C117.925 27.0379 117.67 26.6479 117.67 26.2729C117.67 25.9129 117.895 25.5529 118.36 25.5379C119.665 25.4779 121.03 25.3129 122.365 25.1179C122.14 24.6379 121.93 24.1579 121.75 23.6779C120.64 23.8579 119.785 23.9779 118.84 24.0379C118.795 24.0379 118.66 24.0529 118.54 24.0529C118.105 24.0529 117.835 23.6929 117.835 23.2879C117.835 22.9279 118.045 22.5829 118.48 22.5679C119.29 22.5229 120.265 22.4179 121.24 22.2679C121.075 21.7579 120.925 21.2479 120.805 20.7529C120.79 20.6929 120.775 20.6179 120.775 20.5579C120.775 20.1229 121.195 19.8979 121.6 19.8979C121.945 19.8979 122.29 20.0629 122.38 20.4529C122.515 20.9629 122.665 21.4879 122.815 21.9979C123.82 21.8179 124.735 21.6079 125.41 21.3979C125.5 21.3679 125.59 21.3529 125.68 21.3529C126.13 21.3529 126.43 21.7429 126.43 22.1179C126.43 22.3879 126.28 22.6579 125.92 22.7629C125.17 22.9879 124.27 23.2129 123.295 23.4079C123.475 23.8879 123.685 24.3679 123.895 24.8329C124.975 24.6229 125.965 24.3829 126.79 24.1279C126.88 24.0979 126.955 24.0829 127.03 24.0829C127.48 24.0829 127.795 24.4879 127.795 24.8779C127.795 25.1479 127.63 25.4329 127.24 25.5529C126.49 25.7929 125.605 26.0179 124.63 26.2129C125.14 27.0529 125.74 27.9079 126.37 28.6429C126.535 28.8379 126.595 29.0479 126.595 29.2579C126.595 29.6779 126.265 30.0529 125.77 30.0529C125.65 30.0529 125.515 30.0229 125.38 29.9779C124.33 29.5879 123.205 29.3929 122.125 29.3929C120.28 29.3929 119.755 29.9329 119.755 30.5629C119.755 31.2829 120.4 31.7779 122.59 31.7779C123.205 31.7779 123.43 31.7629 123.88 31.7329C123.97 31.7329 124.105 31.7179 124.165 31.7179C124.705 31.7179 124.96 32.0929 124.96 32.4829C124.96 32.8429 124.705 33.2029 124.21 33.2479C123.79 33.2929 123.25 33.3229 122.605 33.3229C119.44 33.3229 118.03 32.3329 118.03 30.5929C118.03 29.0479 119.32 27.9979 122.11 27.9979C122.92 27.9979 123.625 28.0879 124.15 28.2379ZM139.36 29.0929H138.445C138.76 29.4829 139.12 29.8579 139.51 30.1879C140.455 29.6779 141.445 29.0179 142.165 28.4029C142.345 28.2529 142.54 28.1779 142.72 28.1779C143.14 28.1779 143.5 28.5379 143.5 28.9129C143.5 29.1229 143.395 29.3479 143.155 29.5279C142.495 30.0229 141.595 30.5779 140.71 31.0279C141.52 31.5079 142.435 31.8679 143.47 32.1529C143.92 32.2729 144.1 32.5729 144.1 32.8579C144.1 33.2329 143.815 33.5929 143.38 33.5929C143.305 33.5929 143.245 33.5779 143.17 33.5629C140.605 32.9329 138.19 31.3129 136.78 29.0929H135.175V31.6429C135.865 31.5379 136.54 31.4179 137.215 31.2679C137.275 31.2529 137.32 31.2529 137.38 31.2529C137.785 31.2529 138.04 31.5979 138.04 31.9429C138.04 32.1979 137.89 32.4529 137.56 32.5429C135.925 32.9629 133.885 33.2479 132.145 33.3979C132.115 33.3979 131.935 33.4129 131.8 33.4129C131.35 33.4129 131.125 33.0679 131.125 32.7229C131.125 32.3929 131.335 32.0329 131.77 32.0029C132.295 31.9579 132.91 31.9129 133.555 31.8379V25.3729C133.555 24.3829 134.05 23.8579 135.445 23.8579H136.63V22.8979C136.63 22.4779 137.035 22.2829 137.425 22.2829C137.83 22.2829 138.22 22.4779 138.22 22.8979V23.8579H139.36C140.755 23.8579 141.25 24.3829 141.25 25.3729V27.5779C141.25 28.8229 140.455 29.0929 139.36 29.0929ZM135.175 27.8629H139.12C139.435 27.8629 139.66 27.8329 139.66 27.4729V27.0379H135.175V27.8629ZM139.66 25.8979V25.4779C139.66 25.1779 139.57 25.0879 139.12 25.0879H135.715C135.265 25.0879 135.175 25.1779 135.175 25.4779V25.8979H139.66ZM138.31 20.2579C139.795 21.6529 141.94 22.8979 144.025 23.7079C144.43 23.8579 144.61 24.1729 144.61 24.4879C144.61 24.8929 144.295 25.2829 143.815 25.2829C143.68 25.2829 143.53 25.2529 143.38 25.1929C141.295 24.3229 139.03 22.8829 137.395 21.3079C135.715 22.9429 133.54 24.4279 131.44 25.3729C131.335 25.4179 131.215 25.4479 131.11 25.4479C130.705 25.4479 130.375 25.0729 130.375 24.6829C130.375 24.4129 130.525 24.1429 130.885 23.9779C133.09 22.9729 135.31 21.4129 136.885 19.6879C137.08 19.4779 137.305 19.4029 137.545 19.4029C137.95 19.4029 138.34 19.6879 138.34 20.0629C138.34 20.1229 138.325 20.1979 138.31 20.2579ZM154.39 23.7079C154.285 23.5879 154.24 23.4679 154.24 23.3629C154.24 23.0629 154.54 22.7929 154.87 22.7929C155.005 22.7929 155.155 22.8379 155.29 22.9579C155.695 23.3179 156.145 23.7979 156.46 24.2629C156.565 24.3979 156.595 24.5329 156.595 24.6679C156.595 24.9979 156.31 25.2679 155.995 25.2679C155.815 25.2679 155.635 25.1779 155.5 24.9829C155.14 24.4879 154.735 24.0529 154.39 23.7079ZM155.89 22.5229C155.77 22.4029 155.725 22.2829 155.725 22.1629C155.725 21.8629 156.01 21.6079 156.355 21.6079C156.505 21.6079 156.655 21.6679 156.805 21.7879C157.195 22.1179 157.645 22.5829 157.96 23.0179C158.08 23.1679 158.125 23.3179 158.125 23.4679C158.125 23.7979 157.84 24.0379 157.525 24.0379C157.345 24.0379 157.15 23.9629 157 23.7679C156.655 23.3329 156.235 22.8829 155.89 22.5229ZM146.62 26.8429C147.775 25.9129 148.93 25.0129 149.845 24.3529C150.25 24.0679 150.655 23.9179 151.06 23.9179C151.48 23.9179 151.885 24.0829 152.275 24.4279C153.925 25.8979 156.58 27.7729 158.77 28.9579C159.16 29.1679 159.325 29.4979 159.325 29.8129C159.325 30.2929 158.935 30.7579 158.41 30.7579C158.23 30.7579 158.05 30.6979 157.855 30.5929C155.605 29.3029 152.92 27.2779 151.435 25.8679C151.285 25.7179 151.135 25.6429 151 25.6429C150.865 25.6429 150.745 25.7029 150.595 25.8229C149.875 26.3929 148.705 27.3079 147.7 28.1629C147.49 28.3279 147.28 28.4029 147.085 28.4029C146.62 28.4029 146.23 27.9979 146.23 27.5479C146.23 27.3079 146.35 27.0529 146.62 26.8429ZM163.81 24.6979C163.195 24.7879 162.58 24.8779 161.965 24.8779C161.47 24.8779 161.215 24.5029 161.215 24.0979C161.215 23.6929 161.47 23.3029 161.98 23.2729C162.58 23.2429 163.3 23.1529 164.11 23.0179C164.245 22.1929 164.305 21.5329 164.395 20.7079C164.44 20.2429 164.83 20.0179 165.22 20.0179C165.64 20.0179 166.06 20.2879 166.06 20.7679V20.8579C165.985 21.5779 165.91 22.1179 165.82 22.6879C166.24 22.5979 166.675 22.4929 167.11 22.3879C167.185 22.3729 167.26 22.3579 167.335 22.3579C167.8 22.3579 168.085 22.7479 168.085 23.1529C168.085 23.4679 167.905 23.7829 167.5 23.8879C166.81 24.0829 166.15 24.2479 165.55 24.3829C165.01 27.3229 164.29 30.0979 163.45 32.2729C163.27 32.7229 162.895 32.9329 162.535 32.9329C162.115 32.9329 161.71 32.6329 161.71 32.1679C161.71 32.0329 161.74 31.8979 161.8 31.7479C162.625 29.7079 163.285 27.3229 163.81 24.6979ZM166.825 29.8429C166.825 29.3329 167.245 29.0479 167.665 29.0479C168.01 29.0479 168.34 29.2429 168.385 29.6779C168.49 30.6379 169.03 30.9079 170.665 30.9079C171.43 30.9079 172.075 30.8479 172.675 30.7579C172.72 30.7429 172.795 30.7429 172.84 30.7429C173.35 30.7429 173.635 31.1779 173.635 31.5829C173.635 31.9429 173.41 32.3029 172.945 32.3779C172.3 32.4829 171.55 32.5429 170.695 32.5429C168.595 32.5429 167.665 32.0029 167.185 31.2379C166.945 30.8629 166.825 30.2629 166.825 29.8429ZM168.325 24.9379C169.495 24.6979 170.98 24.5329 172.18 24.5329C172.72 24.5329 172.99 24.9379 172.99 25.3429C172.99 25.7329 172.735 26.1079 172.225 26.1079C171.025 26.1079 169.63 26.2879 168.565 26.4979C168.505 26.5129 168.43 26.5129 168.385 26.5129C167.92 26.5129 167.635 26.1379 167.635 25.7329C167.635 25.3879 167.845 25.0429 168.325 24.9379ZM176.68 22.3279C176.725 21.8479 177.145 21.6079 177.55 21.6079C178 21.6079 178.435 21.8779 178.435 22.4029C178.435 22.6129 178.375 23.3479 178.375 23.8129C178.375 29.0629 179.44 30.4429 180.07 30.4429C180.43 30.4429 180.76 30.2029 181.045 29.0779C181.165 28.6279 181.48 28.4329 181.81 28.4329C182.245 28.4329 182.665 28.7479 182.665 29.2429C182.665 29.3329 182.665 29.4079 182.635 29.4979C182.08 31.5079 181.12 32.2429 180.115 32.2429C177.94 32.2429 176.62 29.5579 176.62 23.8579C176.62 23.1679 176.65 22.7179 176.68 22.3279ZM185.95 23.3929C187.21 24.5629 188.365 26.4379 188.86 27.9679C188.905 28.0879 188.92 28.1929 188.92 28.2829C188.92 28.7779 188.5 29.0779 188.08 29.0779C187.765 29.0779 187.435 28.9129 187.285 28.5079C186.745 27.1279 185.77 25.5529 184.69 24.4279C184.51 24.2479 184.435 24.0529 184.435 23.8729C184.435 23.4529 184.84 23.1079 185.29 23.1079C185.5 23.1079 185.74 23.1979 185.95 23.3929ZM200.455 28.5079L200.515 30.8629V33.1279C200.515 33.5629 200.125 33.7729 199.72 33.7729C199.33 33.7729 198.925 33.5629 198.925 33.1279V30.8629L198.985 28.4929C198.055 29.7529 196.63 31.1629 195.19 32.1529C194.995 32.2879 194.815 32.3329 194.65 32.3329C194.23 32.3329 193.93 31.9879 193.93 31.6129C193.93 31.3729 194.05 31.1179 194.32 30.9379C195.82 29.9329 197.26 28.5379 198.37 26.8879H196.15C195.745 26.8879 195.55 26.5279 195.55 26.1679C195.55 25.8079 195.745 25.4479 196.15 25.4479H198.925V23.7079H196.825C196.42 23.7079 196.225 23.3479 196.225 22.9879C196.225 22.6279 196.42 22.2679 196.825 22.2679H198.925V20.2879C198.925 19.8529 199.33 19.6279 199.72 19.6279C200.125 19.6279 200.515 19.8529 200.515 20.2879V22.2679H202.855C203.26 22.2679 203.47 22.6279 203.47 22.9879C203.47 23.3479 203.26 23.7079 202.855 23.7079H200.515V25.4479H203.785C204.19 25.4479 204.4 25.8079 204.4 26.1679C204.4 26.5279 204.19 26.8879 203.785 26.8879H200.905C201.79 28.2229 202.93 29.4829 204.16 30.5029C204.43 30.7279 204.55 30.9979 204.55 31.2379C204.55 31.6579 204.205 32.0029 203.77 32.0029C203.545 32.0029 203.305 31.9129 203.065 31.6879C202.105 30.7429 201.16 29.6179 200.455 28.5079ZM193.675 29.6329H192.385C191.38 29.6329 190.945 29.1829 190.945 28.2529V22.1479C190.945 21.2029 191.38 20.7529 192.385 20.7529H193.675C194.68 20.7529 195.115 21.2029 195.115 22.1479V28.2529C195.115 29.2429 194.635 29.6329 193.675 29.6329ZM192.745 28.1929H193.315C193.54 28.1929 193.63 28.0879 193.63 27.8329V22.5679C193.63 22.2979 193.54 22.1929 193.315 22.1929H192.745C192.52 22.1929 192.43 22.2979 192.43 22.5679V27.8329C192.43 28.0579 192.52 28.1929 192.745 28.1929ZM210.13 25.2679L210.16 25.2979C210.55 25.1479 210.985 25.0429 211.45 25.0429C212.485 25.0429 213.16 25.3579 213.55 26.4679C214.72 25.9729 215.98 25.5229 217.3 25.1179C217.405 25.0879 217.51 25.0729 217.6 25.0729C218.095 25.0729 218.38 25.4779 218.38 25.8829C218.38 26.1979 218.2 26.5279 217.78 26.6479C216.475 27.0379 215.14 27.4879 213.88 27.9979C213.955 28.5529 213.985 29.2129 214.015 29.9929C214.03 30.5029 213.595 30.7729 213.16 30.7729C212.77 30.7729 212.38 30.5479 212.365 30.0829C212.35 29.5129 212.32 29.0329 212.29 28.6279C210.73 29.4229 210.37 30.0979 210.37 30.6529C210.37 31.2379 210.91 31.5829 212.635 31.5829C213.58 31.5829 214.57 31.4929 215.545 31.3279C215.605 31.3129 215.665 31.3129 215.71 31.3129C216.22 31.3129 216.52 31.7179 216.52 32.1379C216.52 32.4979 216.28 32.8579 215.77 32.9479C214.795 33.1279 213.685 33.1879 212.695 33.1879C209.86 33.1879 208.66 32.2429 208.66 30.7729C208.66 29.5729 209.365 28.4179 212.035 27.0829C211.84 26.5279 211.525 26.4079 210.985 26.4079C210.43 26.4079 209.335 26.8129 207.91 27.9529C207.73 28.0879 207.55 28.1479 207.37 28.1479C206.935 28.1479 206.56 27.7729 206.56 27.3529C206.56 27.1279 206.665 26.9029 206.905 26.6929C207.85 25.8679 208.705 24.8929 209.44 23.7679C208.855 23.8129 208.315 23.8279 207.82 23.8429C207.28 23.8579 206.995 23.4529 206.995 23.0629C206.995 22.6879 207.265 22.2979 207.82 22.2979C208.525 22.2979 209.365 22.2529 210.235 22.1929C210.49 21.5929 210.715 21.0079 210.895 20.4529C211.015 20.0779 211.33 19.9129 211.66 19.9129C212.08 19.9129 212.485 20.1829 212.485 20.6029C212.485 20.6779 212.485 20.7529 212.455 20.8279C212.32 21.2479 212.17 21.6379 212.005 22.0129C212.785 21.9379 213.535 21.8329 214.18 21.7129C214.24 21.6979 214.3 21.6979 214.36 21.6979C214.825 21.6979 215.08 22.0579 215.08 22.4179C215.08 22.7479 214.87 23.0929 214.42 23.1679C213.475 23.3329 212.35 23.4979 211.24 23.6029C210.865 24.2179 210.49 24.7879 210.13 25.2679ZM230.215 33.2629H224.8C223.285 33.2629 222.61 32.6479 222.61 31.4929V23.5129C222.61 22.3579 223.285 21.7129 224.8 21.7129H226.165C226.36 21.2029 226.525 20.6779 226.675 20.1529C226.795 19.7329 227.155 19.5529 227.5 19.5529C227.935 19.5529 228.355 19.8229 228.355 20.3029C228.355 20.3929 228.34 20.4829 228.31 20.5879C228.19 20.9779 228.04 21.3529 227.89 21.7129H230.215C231.73 21.7129 232.405 22.3579 232.405 23.5129V31.4929C232.405 32.8879 231.46 33.2629 230.215 33.2629ZM224.98 31.7629H230.035C230.605 31.7629 230.755 31.5229 230.755 31.1179V29.7229H224.26V31.1179C224.26 31.5979 224.515 31.7629 224.98 31.7629ZM224.26 26.4229V28.2829H230.755V26.4229H224.26ZM230.755 24.9829V23.8429C230.755 23.4379 230.605 23.1829 230.035 23.1829H224.98C224.41 23.1829 224.26 23.4379 224.26 23.8429V24.9829H230.755ZM244.465 27.1879H241.975C241.51 30.2029 240.085 32.2129 237.37 33.4729C237.205 33.5479 237.055 33.5779 236.92 33.5779C236.47 33.5779 236.14 33.2179 236.14 32.8279C236.14 32.5579 236.305 32.2579 236.695 32.0629C238.855 31.0129 239.965 29.4829 240.355 27.1879H238.87C238.435 27.1879 238.225 26.8279 238.225 26.4829C238.225 26.1229 238.435 25.7779 238.87 25.7779H244.72C246.145 25.7779 246.7 26.2429 246.7 27.3529C246.7 29.1229 246.505 30.5779 246.19 31.7029C245.815 32.9929 245.155 33.4579 244 33.4579C243.415 33.4579 242.95 33.4129 242.575 33.3529C242.095 33.2629 241.885 32.9179 241.885 32.5729C241.885 32.1679 242.155 31.7779 242.665 31.7779C242.725 31.7779 242.785 31.7779 242.86 31.7929C243.16 31.8529 243.505 31.8829 243.865 31.8829C244.255 31.8829 244.465 31.7629 244.585 31.3129C244.855 30.3079 245.035 28.9729 245.035 27.6529C245.035 27.3079 244.885 27.1879 244.465 27.1879ZM239.5 20.5429C239.65 20.1979 239.965 20.0479 240.265 20.0479C240.7 20.0479 241.12 20.3329 241.12 20.7829C241.12 20.8879 241.09 20.9929 241.045 21.1129C240.205 23.0929 238.78 25.1029 237.04 26.6629C236.83 26.8579 236.59 26.9329 236.395 26.9329C235.945 26.9329 235.57 26.5579 235.57 26.1229C235.57 25.9129 235.675 25.6729 235.9 25.4629C237.505 24.0229 238.705 22.3429 239.5 20.5429ZM245.155 20.4679C245.965 22.1179 247.57 23.9329 249.07 25.0279C249.385 25.2679 249.52 25.5379 249.52 25.8079C249.52 26.2729 249.115 26.6779 248.635 26.6779C248.455 26.6779 248.26 26.6179 248.08 26.4679C246.295 25.0429 244.57 22.9879 243.685 21.0229C243.625 20.9029 243.61 20.7829 243.61 20.6779C243.61 20.2579 243.985 19.9729 244.39 19.9729C244.69 19.9729 244.99 20.1229 245.155 20.4679ZM258.28 23.3929V23.3629C256.48 23.6029 254.095 23.9629 251.935 24.2779C251.875 24.2929 251.83 24.2929 251.785 24.2929C251.245 24.2929 250.945 23.8579 250.945 23.4379C250.945 23.0479 251.185 22.6879 251.725 22.6129C254.845 22.2229 258.715 21.7879 261.835 21.5029H261.925C262.45 21.5029 262.735 21.8929 262.735 22.2979C262.735 22.6579 262.51 23.0179 262.045 23.1079C261.52 23.1979 260.95 23.3929 260.395 23.7079C258.055 25.0429 257.56 26.6029 257.56 28.0279C257.56 29.6929 258.715 30.7129 260.815 30.9679C261.37 31.0429 261.625 31.4479 261.625 31.8529C261.625 32.3029 261.34 32.7379 260.74 32.7379C260.635 32.7379 260.32 32.7229 260.065 32.6779C257.335 32.1679 255.82 30.3079 255.82 28.0729C255.82 26.4979 256.585 24.7279 258.28 23.3929ZM260.635 26.1229C260.53 26.0029 260.485 25.8829 260.485 25.7779C260.485 25.4779 260.785 25.2079 261.115 25.2079C261.25 25.2079 261.4 25.2529 261.535 25.3729C261.94 25.7329 262.39 26.2129 262.705 26.6779C262.81 26.8129 262.84 26.9479 262.84 27.0829C262.84 27.4129 262.555 27.6829 262.24 27.6829C262.06 27.6829 261.88 27.5929 261.745 27.3979C261.385 26.9029 260.98 26.4679 260.635 26.1229ZM262.135 24.9379C262.015 24.8179 261.97 24.6979 261.97 24.5779C261.97 24.2779 262.255 24.0229 262.6 24.0229C262.75 24.0229 262.9 24.0829 263.05 24.2029C263.44 24.5329 263.89 24.9979 264.205 25.4329C264.325 25.5829 264.37 25.7329 264.37 25.8829C264.37 26.2129 264.085 26.4529 263.77 26.4529C263.59 26.4529 263.395 26.3779 263.245 26.1829C262.9 25.7479 262.48 25.2979 262.135 24.9379ZM101.425 51.1429H100.495C100.105 51.9829 99.6553 52.7629 99.1753 53.4379C98.9653 53.7379 98.6953 53.8579 98.4403 53.8579C98.0203 53.8579 97.6603 53.5429 97.6603 53.1229C97.6603 52.9579 97.7203 52.7779 97.8403 52.5979C98.7853 51.2479 99.6253 49.4029 100.12 47.4379C100.225 47.0329 100.555 46.8529 100.9 46.8529C101.32 46.8529 101.74 47.1079 101.74 47.5579C101.74 47.6329 101.725 47.6929 101.71 47.7679C101.56 48.3979 101.35 49.0429 101.11 49.6729H106.57C106.99 49.6729 107.2 50.0479 107.2 50.4079C107.2 50.7829 106.99 51.1429 106.57 51.1429H103.015V52.6579H105.715C106.12 52.6579 106.33 53.0179 106.33 53.3779C106.33 53.7379 106.12 54.0979 105.715 54.0979H103.015V55.6429H105.775C106.18 55.6429 106.39 56.0029 106.39 56.3629C106.39 56.7229 106.18 57.0829 105.775 57.0829H103.015V60.0679C103.015 60.5029 102.625 60.7279 102.22 60.7279C101.83 60.7279 101.425 60.5029 101.425 60.0679V51.1429ZM95.5003 60.1279V53.0479C95.2453 53.4379 94.9753 53.8129 94.7053 54.1429C94.5103 54.3829 94.2703 54.4879 94.0453 54.4879C93.6103 54.4879 93.2053 54.1279 93.2053 53.6929C93.2053 53.5129 93.2653 53.3329 93.4153 53.1379C94.6003 51.6679 95.6953 49.4029 96.2953 47.3929C96.4153 47.0029 96.7453 46.8229 97.0903 46.8229C97.5403 46.8229 97.9903 47.1079 97.9903 47.5879C97.9903 47.6629 97.9753 47.7529 97.9453 47.8429C97.6153 48.9679 97.0753 50.2279 96.4603 51.3979C96.8203 51.4429 97.1353 51.6529 97.1353 52.0429V60.1279C97.1353 60.5329 96.7303 60.7429 96.3253 60.7429C95.9053 60.7429 95.5003 60.5329 95.5003 60.1279ZM113.26 51.5179L113.23 52.1329C115.315 50.0779 116.47 49.2829 117.565 49.2829C118.87 49.2829 119.455 50.1379 119.455 51.2929V51.5029L119.17 56.7829V56.8429C119.17 57.1579 119.29 57.2329 119.545 57.2329C119.86 57.2329 120.295 57.0829 120.985 56.3479C121.195 56.1229 121.435 56.0329 121.66 56.0329C122.11 56.0329 122.5 56.4079 122.5 56.8579C122.5 57.0529 122.425 57.2779 122.23 57.4879C121.27 58.5529 120.325 58.9729 119.41 58.9729C118.135 58.9729 117.43 58.4329 117.43 57.1129V56.9029L117.7 51.8029V51.6529C117.7 51.2029 117.565 51.0079 117.22 51.0079C116.59 51.0079 115.495 51.8629 113.185 54.2629L113.17 59.3329C113.17 59.8429 112.765 60.0979 112.36 60.0979C111.955 60.0979 111.565 59.8429 111.565 59.3329L111.61 55.9579L110.47 57.7129C110.305 57.9679 110.065 58.0879 109.84 58.0879C109.42 58.0879 109.015 57.7279 109.015 57.3079C109.015 57.1729 109.06 57.0229 109.15 56.8879C109.885 55.8379 110.77 54.3679 111.655 52.6879L111.685 51.7729L109.9 52.1029C109.855 52.1179 109.81 52.1179 109.765 52.1179C109.33 52.1179 109.09 51.7129 109.09 51.3379C109.09 50.9929 109.27 50.6629 109.675 50.5879L111.7 50.2429L111.73 47.8879C111.73 47.4229 112.15 47.1829 112.54 47.1829C112.945 47.1829 113.35 47.4229 113.335 47.8879L113.29 50.0179C113.665 50.0329 113.8 50.2879 113.8 50.4979C113.8 50.7679 113.695 51.0379 113.26 51.5179ZM129.55 52.6729L129.58 52.7179C130.21 52.4629 130.885 52.3429 131.485 52.3429C133.825 52.3429 135.355 53.6179 135.355 55.7029C135.355 58.3279 133.465 60.0079 130.54 60.0079C128.485 60.0079 127.18 58.9579 127.18 57.6229C127.18 56.4979 127.93 55.7029 129.265 55.7029C130.705 55.7029 131.71 56.6629 132.145 58.1629C133.075 57.7129 133.6 56.8429 133.6 55.7179C133.6 54.6529 132.76 53.7979 131.32 53.7979C129.805 53.7979 128.335 54.3229 126.49 55.7479C126.28 55.9129 126.055 55.9879 125.86 55.9879C125.395 55.9879 125.02 55.5979 125.02 55.1629C125.02 54.9229 125.125 54.6679 125.395 54.4579C127.135 53.1079 129.07 51.1129 130.465 49.3879C129.73 49.5079 128.755 49.6129 128.005 49.6729C127.945 49.6729 127.555 49.7179 127.36 49.7179C126.88 49.7179 126.61 49.3129 126.61 48.9079C126.61 48.5329 126.85 48.1579 127.345 48.1279C128.56 48.0679 130.15 47.8729 131.59 47.6479C131.665 47.6329 131.725 47.6329 131.8 47.6329C132.415 47.6329 132.835 48.0679 132.835 48.5779C132.835 48.8029 132.745 49.0429 132.565 49.2829C131.68 50.4229 130.54 51.7279 129.55 52.6729ZM130.45 58.5079H130.57C130.315 57.5479 129.865 57.0379 129.235 57.0379C128.92 57.0379 128.695 57.2929 128.695 57.6229C128.695 58.1179 129.265 58.5079 130.45 58.5079ZM145.885 47.8279V48.8029C145.885 49.3279 145.885 49.8379 145.9 50.3329C146.935 50.2579 147.97 50.1229 148.855 49.9279C148.915 49.9129 148.975 49.9129 149.035 49.9129C149.53 49.9129 149.815 50.3179 149.815 50.7379C149.815 51.0829 149.62 51.4279 149.155 51.5329C148.21 51.7429 147.085 51.8929 145.945 51.9529C146.02 53.1529 146.08 54.3679 146.23 55.5529C147.565 55.9579 148.885 56.5879 150.055 57.3679C150.37 57.5779 150.49 57.8629 150.49 58.1329C150.49 58.5979 150.13 59.0329 149.62 59.0329C149.425 59.0329 149.215 58.9729 148.99 58.8079C148.165 58.2379 147.235 57.7129 146.29 57.3229C146.11 58.8229 144.925 59.8579 142.87 59.8579C140.995 59.8579 139.675 59.0029 139.675 57.4729C139.675 56.1529 140.89 55.0429 142.915 55.0429C143.425 55.0429 143.95 55.0879 144.49 55.1629C144.31 53.4079 144.16 51.3379 144.16 48.7579V47.8279C144.16 47.3479 144.595 47.1229 145.03 47.1229C145.45 47.1229 145.885 47.3479 145.885 47.8279ZM142.87 58.2829C143.86 58.2829 144.595 57.7129 144.595 56.7979C144.025 56.6629 143.455 56.5879 142.915 56.5879C141.94 56.5879 141.46 56.9479 141.46 57.4729C141.46 58.0129 141.88 58.2829 142.87 58.2829ZM159.16 47.0629C160.24 47.2129 161.635 47.6029 162.625 48.0079C163 48.1579 163.165 48.4729 163.165 48.7879C163.165 49.2229 162.85 49.6729 162.385 49.6729C162.295 49.6729 162.19 49.6429 162.085 49.6129C161.14 49.2829 159.82 48.9079 158.815 48.7129C158.38 48.6229 158.185 48.2929 158.185 47.9479C158.185 47.5129 158.485 47.0479 159.01 47.0479C159.07 47.0479 159.115 47.0629 159.16 47.0629ZM156.79 53.1229C156.655 53.1829 156.52 53.2129 156.4 53.2129C155.92 53.2129 155.575 52.7929 155.575 52.3729C155.575 52.0879 155.74 51.7879 156.13 51.6229C157.555 50.9929 159.28 50.6329 160.45 50.6329C162.805 50.6329 163.915 51.6979 163.915 53.7079C163.915 56.0179 162.865 58.4179 160.6 60.0079C160.405 60.1429 160.21 60.2029 160.03 60.2029C159.55 60.2029 159.175 59.8129 159.175 59.3779C159.175 59.1229 159.295 58.8529 159.61 58.6279C161.485 57.2479 162.175 55.5829 162.175 53.7229C162.175 52.7479 161.77 52.2379 160.48 52.2379C159.58 52.2379 158.185 52.5229 156.79 53.1229ZM170.455 48.6079C170.545 48.1729 170.92 47.9779 171.295 47.9779C171.73 47.9779 172.165 48.2329 172.165 48.7429C172.165 48.7879 172.165 48.8479 172.15 48.9079C171.64 51.3679 171.46 53.4079 171.46 55.5379C171.46 56.7829 171.625 58.1779 171.73 59.0629C171.73 59.1079 171.745 59.1529 171.745 59.1829C171.745 59.6929 171.31 59.9779 170.875 59.9779C170.47 59.9779 170.08 59.7529 170.005 59.2429C169.885 58.2829 169.75 56.7979 169.75 55.5379C169.75 53.3029 169.93 51.2779 170.455 48.6079ZM179.545 49.2979H179.665C180.19 49.2979 180.475 49.6879 180.475 50.0929C180.475 50.4679 180.235 50.8429 179.71 50.9179C178.39 51.0979 176.905 51.2179 175.48 51.2479C174.895 51.2629 174.61 50.8579 174.61 50.4379C174.61 50.0479 174.88 49.6429 175.42 49.6279C176.815 49.5979 178.24 49.4779 179.545 49.2979ZM175.63 55.9279C175.765 56.8579 176.23 57.2029 178.105 57.2029C178.78 57.2029 179.605 57.1279 180.37 56.9779C180.43 56.9629 180.49 56.9629 180.55 56.9629C181.06 56.9629 181.345 57.3829 181.345 57.8029C181.345 58.1479 181.15 58.5079 180.685 58.5979C179.8 58.7779 178.915 58.8529 178.09 58.8529C175.315 58.8529 174.16 58.0129 173.995 56.1979V56.1229C173.995 55.5829 174.43 55.2829 174.865 55.2829C175.225 55.2829 175.57 55.4929 175.63 55.9279ZM192.955 57.8779C192.925 59.5579 191.695 60.1579 190.255 60.1579C188.47 60.1579 187.39 59.3779 187.39 57.9829C187.39 56.7829 188.41 55.7929 190.33 55.7929C190.57 55.7929 190.81 55.8079 191.08 55.8379C190.975 55.1479 190.93 54.6379 190.93 54.2479C190.93 53.6029 190.96 53.2729 191.035 52.7929C191.11 52.3729 191.455 52.1929 191.815 52.1929C192.235 52.1929 192.655 52.4329 192.655 52.8829C192.655 52.9279 192.64 52.9579 192.64 53.0029C192.58 53.4379 192.535 53.8129 192.535 54.2329C192.535 54.6529 192.58 55.2379 192.745 56.1829C193.705 56.4679 194.695 56.9029 195.565 57.4879C195.85 57.6829 195.97 57.9379 195.97 58.1929C195.97 58.6129 195.625 59.0179 195.175 59.0179C195.025 59.0179 194.845 58.9579 194.665 58.8379C194.11 58.4479 193.525 58.1179 192.955 57.8779ZM190.255 58.6729C190.945 58.6729 191.32 58.3729 191.32 57.7129C191.32 57.5779 191.32 57.4579 191.305 57.3379C190.975 57.2779 190.66 57.2479 190.36 57.2479C189.31 57.2479 188.98 57.5779 188.98 57.9829C188.98 58.4179 189.28 58.6729 190.255 58.6729ZM186.985 49.8679C187.21 49.1029 187.42 48.3379 187.57 47.5879C187.66 47.1379 188.02 46.9429 188.38 46.9429C188.8 46.9429 189.19 47.1979 189.19 47.6779C189.19 47.7379 189.19 47.8129 189.175 47.8729C189.055 48.4429 188.905 49.0429 188.74 49.6429C189.19 49.5679 189.64 49.4929 190.06 49.4179C190.12 49.4029 190.18 49.4029 190.225 49.4029C190.705 49.4029 191.005 49.7929 191.005 50.1979C191.005 50.5279 190.81 50.8579 190.33 50.9629C189.685 51.0979 188.95 51.2179 188.215 51.3229C187.585 53.1379 186.775 54.9379 185.905 56.3779C185.68 56.7529 185.365 56.9179 185.065 56.9179C184.615 56.9179 184.225 56.5729 184.225 56.1229C184.225 55.9579 184.27 55.7779 184.39 55.5979C185.155 54.3979 185.845 53.0029 186.415 51.5179C185.86 51.5779 185.32 51.6079 184.855 51.6229C184.345 51.6379 184.075 51.2179 184.075 50.7979C184.075 50.4079 184.315 50.0329 184.795 50.0179C185.47 49.9879 186.22 49.9429 186.985 49.8679ZM193.645 49.6879C194.365 49.8829 195.295 50.3029 195.94 50.7079C196.285 50.9179 196.435 51.2179 196.435 51.4879C196.435 51.9229 196.075 52.3129 195.64 52.3129C195.49 52.3129 195.34 52.2679 195.19 52.1779C194.485 51.7729 193.705 51.3829 193.045 51.1429C192.67 51.0079 192.505 50.7379 192.505 50.4679C192.505 50.0629 192.85 49.6429 193.36 49.6429C193.45 49.6429 193.54 49.6579 193.645 49.6879ZM204.55 52.6729L204.58 52.7179C205.21 52.4629 205.885 52.3429 206.485 52.3429C208.825 52.3429 210.355 53.6179 210.355 55.7029C210.355 58.3279 208.465 60.0079 205.54 60.0079C203.485 60.0079 202.18 58.9579 202.18 57.6229C202.18 56.4979 202.93 55.7029 204.265 55.7029C205.705 55.7029 206.71 56.6629 207.145 58.1629C208.075 57.7129 208.6 56.8429 208.6 55.7179C208.6 54.6529 207.76 53.7979 206.32 53.7979C204.805 53.7979 203.335 54.3229 201.49 55.7479C201.28 55.9129 201.055 55.9879 200.86 55.9879C200.395 55.9879 200.02 55.5979 200.02 55.1629C200.02 54.9229 200.125 54.6679 200.395 54.4579C202.135 53.1079 204.07 51.1129 205.465 49.3879C204.73 49.5079 203.755 49.6129 203.005 49.6729C202.945 49.6729 202.555 49.7179 202.36 49.7179C201.88 49.7179 201.61 49.3129 201.61 48.9079C201.61 48.5329 201.85 48.1579 202.345 48.1279C203.56 48.0679 205.15 47.8729 206.59 47.6479C206.665 47.6329 206.725 47.6329 206.8 47.6329C207.415 47.6329 207.835 48.0679 207.835 48.5779C207.835 48.8029 207.745 49.0429 207.565 49.2829C206.68 50.4229 205.54 51.7279 204.55 52.6729ZM205.45 58.5079H205.57C205.315 57.5479 204.865 57.0379 204.235 57.0379C203.92 57.0379 203.695 57.2929 203.695 57.6229C203.695 58.1179 204.265 58.5079 205.45 58.5079ZM221.68 52.0579C223.87 52.0579 225.37 53.2429 225.37 55.1329C225.37 57.4729 223.615 59.1229 220.255 59.6029C220.21 59.6179 220.15 59.6179 220.105 59.6179C219.655 59.6179 219.415 59.2429 219.415 58.8829C219.415 58.5679 219.61 58.2529 220.03 58.1779C222.88 57.6829 223.855 56.7229 223.855 55.1329C223.855 54.1729 223.165 53.4229 221.68 53.4229C220.135 53.4229 218.2 53.9179 215.995 54.8929C215.875 54.9529 215.755 54.9679 215.635 54.9679C215.215 54.9679 214.93 54.6229 214.93 54.2629C214.93 53.9929 215.08 53.7079 215.44 53.5579C217.66 52.5829 219.91 52.0579 221.68 52.0579ZM235.78 50.3929V50.3629C233.98 50.6029 231.595 50.9629 229.435 51.2779C229.375 51.2929 229.33 51.2929 229.285 51.2929C228.745 51.2929 228.445 50.8579 228.445 50.4379C228.445 50.0479 228.685 49.6879 229.225 49.6129C232.345 49.2229 236.215 48.7879 239.335 48.5029H239.425C239.95 48.5029 240.235 48.8929 240.235 49.2979C240.235 49.6579 240.01 50.0179 239.545 50.1079C239.02 50.1979 238.45 50.3929 237.895 50.7079C235.555 52.0429 235.06 53.6029 235.06 55.0279C235.06 56.6929 236.215 57.7129 238.315 57.9679C238.87 58.0429 239.125 58.4479 239.125 58.8529C239.125 59.3029 238.795 59.7379 238.24 59.7379C238.015 59.7379 237.4 59.6479 237.13 59.5879C234.91 59.0329 233.32 57.3829 233.32 55.0729C233.32 53.4979 234.085 51.7279 235.78 50.3929ZM136.36 74.0629C137.44 74.2129 138.835 74.6029 139.825 75.0079C140.2 75.1579 140.365 75.4729 140.365 75.7879C140.365 76.2229 140.05 76.6729 139.585 76.6729C139.495 76.6729 139.39 76.6429 139.285 76.6129C138.34 76.2829 137.02 75.9079 136.015 75.7129C135.58 75.6229 135.385 75.2929 135.385 74.9479C135.385 74.5129 135.685 74.0479 136.21 74.0479C136.27 74.0479 136.315 74.0629 136.36 74.0629ZM133.99 80.1229C133.855 80.1829 133.72 80.2129 133.6 80.2129C133.12 80.2129 132.775 79.7929 132.775 79.3729C132.775 79.0879 132.94 78.7879 133.33 78.6229C134.755 77.9929 136.48 77.6329 137.65 77.6329C140.005 77.6329 141.115 78.6979 141.115 80.7079C141.115 83.0179 140.065 85.4179 137.8 87.0079C137.605 87.1429 137.41 87.2029 137.23 87.2029C136.75 87.2029 136.375 86.8129 136.375 86.3779C136.375 86.1229 136.495 85.8529 136.81 85.6279C138.685 84.2479 139.375 82.5829 139.375 80.7229C139.375 79.7479 138.97 79.2379 137.68 79.2379C136.78 79.2379 135.385 79.5229 133.99 80.1229ZM150.46 78.5179L150.43 79.1329C152.515 77.0779 153.67 76.2829 154.765 76.2829C156.07 76.2829 156.655 77.1379 156.655 78.2929V78.5029L156.37 83.7829V83.8429C156.37 84.1579 156.49 84.2329 156.745 84.2329C157.06 84.2329 157.495 84.0829 158.185 83.3479C158.395 83.1229 158.635 83.0329 158.86 83.0329C159.31 83.0329 159.7 83.4079 159.7 83.8579C159.7 84.0529 159.625 84.2779 159.43 84.4879C158.47 85.5529 157.525 85.9729 156.61 85.9729C155.335 85.9729 154.63 85.4329 154.63 84.1129V83.9029L154.9 78.8029V78.6529C154.9 78.2029 154.765 78.0079 154.42 78.0079C153.79 78.0079 152.695 78.8629 150.385 81.2629L150.37 86.3329C150.37 86.8429 149.965 87.0979 149.56 87.0979C149.155 87.0979 148.765 86.8429 148.765 86.3329L148.81 82.9579L147.67 84.7129C147.505 84.9679 147.265 85.0879 147.04 85.0879C146.62 85.0879 146.215 84.7279 146.215 84.3079C146.215 84.1729 146.26 84.0229 146.35 83.8879C147.085 82.8379 147.97 81.3679 148.855 79.6879L148.885 78.7729L147.1 79.1029C147.055 79.1179 147.01 79.1179 146.965 79.1179C146.53 79.1179 146.29 78.7129 146.29 78.3379C146.29 77.9929 146.47 77.6629 146.875 77.5879L148.9 77.2429L148.93 74.8879C148.93 74.4229 149.35 74.1829 149.74 74.1829C150.145 74.1829 150.55 74.4229 150.535 74.8879L150.49 77.0179C150.865 77.0329 151 77.2879 151 77.4979C151 77.7679 150.895 78.0379 150.46 78.5179ZM163.765 82.5829C163.765 80.1979 163.915 77.3479 164.08 75.1429C164.11 74.6329 164.53 74.3929 164.95 74.3929C165.4 74.3929 165.82 74.6479 165.82 75.1429C165.82 75.3079 165.79 75.6979 165.775 75.8629C165.625 78.0829 165.505 80.3779 165.505 82.5979C165.505 84.6079 166.12 85.1479 167.185 85.1479C168.58 85.1479 169.885 84.5779 171.265 82.8679C171.475 82.5979 171.745 82.4929 171.985 82.4929C172.45 82.4929 172.87 82.8529 172.87 83.3179C172.87 83.4979 172.81 83.6779 172.66 83.8729C170.95 86.0029 169.135 86.8129 167.185 86.8129C164.95 86.8129 163.765 85.7029 163.765 82.5829ZM176.68 76.3279C176.725 75.8479 177.145 75.6079 177.55 75.6079C178 75.6079 178.435 75.8779 178.435 76.4029C178.435 76.6129 178.375 77.3479 178.375 77.8129C178.375 83.0629 179.44 84.4429 180.07 84.4429C180.43 84.4429 180.76 84.2029 181.045 83.0779C181.165 82.6279 181.48 82.4329 181.81 82.4329C182.245 82.4329 182.665 82.7479 182.665 83.2429C182.665 83.3329 182.665 83.4079 182.635 83.4979C182.08 85.5079 181.12 86.2429 180.115 86.2429C177.94 86.2429 176.62 83.5579 176.62 77.8579C176.62 77.1679 176.65 76.7179 176.68 76.3279ZM185.95 77.3929C187.21 78.5629 188.365 80.4379 188.86 81.9679C188.905 82.0879 188.92 82.1929 188.92 82.2829C188.92 82.7779 188.5 83.0779 188.08 83.0779C187.765 83.0779 187.435 82.9129 187.285 82.5079C186.745 81.1279 185.77 79.5529 184.69 78.4279C184.51 78.2479 184.435 78.0529 184.435 77.8729C184.435 77.4529 184.84 77.1079 185.29 77.1079C185.5 77.1079 185.74 77.1979 185.95 77.3929ZM196.555 77.3779C196.54 77.1079 196.435 76.0429 196.435 75.6379C196.435 74.9929 196.9 74.6179 197.515 74.6179C198.115 74.6179 198.565 75.0079 198.565 75.6379C198.565 76.0429 198.475 76.9429 198.445 77.3779C198.34 78.8329 198.235 81.0529 198.19 82.7179C198.175 83.1079 197.89 83.3479 197.485 83.3479C197.08 83.3479 196.825 83.1079 196.81 82.7179C196.75 81.0679 196.66 78.8479 196.555 77.3779ZM197.5 84.3229C198.145 84.3229 198.64 84.8179 198.64 85.4479C198.64 86.0779 198.145 86.5579 197.5 86.5579C196.855 86.5579 196.36 86.0779 196.36 85.4479C196.36 84.8179 196.855 84.3229 197.5 84.3229Z" fill="black"/>
<defs>
<clipPath id="clip0_1425_1148">
<rect width="87" height="87" fill="white" transform="matrix(-1 0 0 1 213 112.378)"/>
</clipPath>
</defs>
</svg>
