<svg width="206" height="175" viewBox="0 0 206 175" fill="none" xmlns="http://www.w3.org/2000/svg">
<path d="M100.578 14.2202L30.3066 47.3121L0 91.4346L10.6573 161.629L100.578 175L184.504 148.259L205.153 102.799L184.504 47.3121L100.578 14.2202Z" fill="white"/>
<path d="M47.76 104.799L47.824 102.911C47.264 103.663 46.608 104.351 45.968 104.863C45.776 105.023 45.568 105.087 45.392 105.087C44.96 105.087 44.592 104.719 44.592 104.319C44.592 104.111 44.688 103.887 44.928 103.695C45.776 103.023 46.64 102.095 47.344 101.055H45.76C45.376 101.055 45.168 100.687 45.168 100.319C45.168 99.9506 45.376 99.5826 45.76 99.5826H47.76V98.3666H45.36C44.976 98.3666 44.768 97.9986 44.768 97.6306C44.768 97.2626 44.976 96.8946 45.36 96.8946H48.672C48.928 96.3346 49.152 95.7906 49.36 95.1026C49.472 94.7186 49.776 94.5586 50.08 94.5586C50.464 94.5586 50.864 94.8306 50.864 95.2466C50.864 95.3266 50.848 95.4066 50.816 95.4866C50.624 96.0466 50.448 96.4946 50.272 96.8946H51.872C52.272 96.8946 52.464 97.2626 52.464 97.6306C52.464 97.9986 52.272 98.3666 51.872 98.3666H49.392V99.5826H51.344C51.744 99.5826 51.936 99.9506 51.936 100.319C51.936 100.687 51.744 101.055 51.344 101.055H49.392V101.695C50.016 101.967 50.688 102.335 51.2 102.719C51.472 102.911 51.568 103.151 51.568 103.391C51.568 103.791 51.232 104.159 50.816 104.159C50.672 104.159 50.512 104.111 50.368 103.999C50.064 103.775 49.728 103.551 49.392 103.327V105.615C49.392 106.079 48.992 106.303 48.576 106.303C48.176 106.303 47.76 106.079 47.76 105.615V104.799ZM47.728 92.9106V91.9186C47.728 91.4706 48.16 91.2626 48.576 91.2626C49.008 91.2626 49.424 91.4706 49.424 91.9186V92.9106H51.424C51.824 92.9106 52.016 93.2786 52.016 93.6466C52.016 94.0146 51.824 94.3826 51.424 94.3826H45.824C45.44 94.3826 45.232 94.0146 45.232 93.6466C45.232 93.2786 45.44 92.9106 45.824 92.9106H47.728ZM53.04 97.1186V93.3746C53.04 92.9106 53.472 92.6866 53.888 92.6866C54.096 92.6866 54.288 92.7346 54.432 92.8306C55.568 92.5426 56.56 92.1906 57.472 91.7906C57.616 91.7266 57.76 91.6946 57.888 91.6946C58.368 91.6946 58.688 92.1106 58.688 92.5426C58.688 92.8306 58.544 93.1026 58.208 93.2626C57.232 93.6946 56.032 94.0946 54.736 94.4146V96.5426H58.992C59.424 96.5426 59.632 96.9106 59.632 97.2786C59.632 97.6626 59.424 98.0306 58.992 98.0306H57.904V105.359C57.904 105.839 57.488 106.079 57.056 106.079C56.64 106.079 56.208 105.839 56.208 105.359V98.0306H54.72C54.624 101.327 53.968 103.759 52.864 105.535C52.656 105.871 52.352 105.999 52.08 105.999C51.648 105.999 51.248 105.695 51.248 105.231C51.248 105.071 51.312 104.879 51.44 104.671C52.48 103.071 53.04 100.719 53.04 97.1186ZM48.16 95.8226C48.192 95.9186 48.208 95.9986 48.208 96.0946C48.208 96.4946 47.824 96.7666 47.44 96.7666C47.152 96.7666 46.88 96.6226 46.752 96.3026C46.64 96.0626 46.576 95.9186 46.432 95.5986C46.368 95.4866 46.352 95.3746 46.352 95.2626C46.352 94.8786 46.72 94.6226 47.104 94.6226C47.376 94.6226 47.664 94.7506 47.824 95.0706C47.952 95.3426 48.032 95.5026 48.16 95.8226ZM69.808 95.0066H74.448C74.912 95.0066 75.136 95.4066 75.136 95.8066C75.136 96.2066 74.912 96.6066 74.448 96.6066H69.808V99.1666H73.456C73.92 99.1666 74.144 99.5506 74.144 99.9506C74.144 100.335 73.92 100.735 73.456 100.735H69.808V103.839H75.344C75.808 103.839 76.032 104.239 76.032 104.655C76.032 105.055 75.808 105.471 75.344 105.471H62.32C61.872 105.471 61.648 105.055 61.648 104.655C61.648 104.239 61.872 103.839 62.32 103.839H68.016V100.735H64.64C64.192 100.735 63.968 100.335 63.968 99.9506C63.968 99.5506 64.192 99.1666 64.64 99.1666H68.016V96.6066H64.56C64.144 97.5986 63.664 98.5426 63.168 99.3266C62.944 99.6946 62.608 99.8546 62.304 99.8546C61.84 99.8546 61.44 99.5186 61.44 99.0706C61.44 98.9106 61.488 98.7186 61.6 98.5426C62.576 96.9746 63.36 95.0386 63.904 93.0226C64.032 92.5746 64.4 92.3666 64.768 92.3666C65.216 92.3666 65.68 92.6706 65.68 93.1666C65.68 93.2306 65.664 93.2946 65.648 93.3746C65.52 93.9186 65.36 94.4626 65.168 95.0066H68.016V91.8866C68.016 91.4226 68.464 91.1826 68.912 91.1826C69.36 91.1826 69.808 91.4226 69.808 91.8866V95.0066ZM86.576 99.9986V97.9346H82.912C82.464 97.9346 82.24 97.5346 82.24 97.1346C82.24 96.7506 82.464 96.3506 82.912 96.3506H86.576V94.3666C85.776 94.4946 84.96 94.6386 84.144 94.6386C83.632 94.6386 83.344 94.2386 83.344 93.8386C83.344 93.4706 83.568 93.1186 84.096 93.0706C85.952 92.8946 88.4 92.4306 90.176 91.8706C90.272 91.8386 90.368 91.8226 90.464 91.8226C90.944 91.8226 91.28 92.2546 91.28 92.6866C91.28 93.0066 91.088 93.3426 90.608 93.4866C89.92 93.6946 89.136 93.8866 88.304 94.0466V96.3506H92C92.448 96.3506 92.672 96.7506 92.672 97.1506C92.672 97.5346 92.448 97.9346 92 97.9346H88.304V99.9986H89.392C90.704 99.9986 91.296 100.479 91.296 101.631V104.047C91.296 105.343 90.496 105.679 89.328 105.679H85.504C84.192 105.679 83.536 105.199 83.536 104.047V101.631C83.536 100.479 84.128 99.9986 85.44 99.9986H86.576ZM85.808 104.159H89.024C89.392 104.159 89.568 104.031 89.568 103.711V101.935C89.568 101.615 89.392 101.487 89.024 101.487H85.808C85.44 101.487 85.264 101.615 85.264 101.935V103.711C85.264 104.063 85.488 104.159 85.808 104.159ZM80.496 100.479C80.624 100.095 80.96 99.9186 81.296 99.9186C81.76 99.9186 82.24 100.239 82.24 100.735C82.24 100.831 82.224 100.927 82.192 101.023C81.728 102.495 80.944 104.191 80.24 105.295C80.016 105.647 79.68 105.791 79.376 105.791C78.896 105.791 78.464 105.455 78.464 104.991C78.464 104.831 78.512 104.655 78.64 104.463C79.328 103.407 80.016 101.855 80.496 100.479ZM80.624 91.8546C81.088 92.1746 81.632 92.6386 82.016 93.0546C82.224 93.2786 82.288 93.5026 82.288 93.7106C82.288 94.1746 81.888 94.5586 81.44 94.5586C81.216 94.5586 80.992 94.4626 80.8 94.2546C80.368 93.8226 79.872 93.3426 79.504 93.0386C79.28 92.8466 79.184 92.6386 79.184 92.4466C79.184 92.0306 79.584 91.6626 80.064 91.6626C80.24 91.6626 80.448 91.7266 80.624 91.8546ZM79.44 95.6466C79.92 95.9666 80.528 96.4626 80.912 96.8946C81.12 97.1186 81.2 97.3426 81.2 97.5506C81.2 98.0146 80.768 98.3986 80.304 98.3986C80.096 98.3986 79.872 98.3186 79.696 98.1266C79.296 97.7106 78.688 97.1666 78.32 96.8786C78.08 96.6866 77.984 96.4786 77.984 96.2706C77.984 95.8546 78.4 95.4546 78.88 95.4546C79.056 95.4546 79.248 95.5186 79.44 95.6466ZM96.832 93.3426C96.928 92.8786 97.328 92.6706 97.728 92.6706C98.192 92.6706 98.656 92.9426 98.656 93.4866C98.656 93.5346 98.656 93.5986 98.64 93.6626C98.096 96.2866 97.904 98.4626 97.904 100.735C97.904 102.063 98.08 103.551 98.192 104.495C98.192 104.543 98.208 104.591 98.208 104.623C98.208 105.167 97.744 105.471 97.28 105.471C96.848 105.471 96.432 105.231 96.352 104.687C96.224 103.663 96.08 102.079 96.08 100.735C96.08 98.3506 96.272 96.1906 96.832 93.3426ZM106.528 94.0786H106.656C107.216 94.0786 107.52 94.4946 107.52 94.9266C107.52 95.3266 107.264 95.7266 106.704 95.8066C105.296 95.9986 103.712 96.1266 102.192 96.1586C101.568 96.1746 101.264 95.7426 101.264 95.2946C101.264 94.8786 101.552 94.4466 102.128 94.4306C103.616 94.3986 105.136 94.2706 106.528 94.0786ZM102.352 101.151C102.496 102.143 102.992 102.511 104.992 102.511C105.712 102.511 106.592 102.431 107.408 102.271C107.472 102.255 107.536 102.255 107.6 102.255C108.144 102.255 108.448 102.703 108.448 103.151C108.448 103.519 108.24 103.903 107.744 103.999C106.8 104.191 105.856 104.271 104.976 104.271C102.016 104.271 100.784 103.375 100.608 101.439V101.359C100.608 100.783 101.072 100.463 101.536 100.463C101.92 100.463 102.288 100.687 102.352 101.151ZM119.648 102.671H117.568C116.08 102.671 115.616 102.191 115.616 101.087V98.8786C115.616 97.7746 116.08 97.2946 117.568 97.2946H119.648C121.136 97.2946 121.6 97.7746 121.6 98.8786V101.087C121.6 102.447 120.864 102.671 119.648 102.671ZM117.76 101.263H119.456C119.904 101.263 120 101.151 120 100.831V99.1346C120 98.8146 119.904 98.7026 119.456 98.7026H117.76C117.312 98.7026 117.216 98.8146 117.216 99.1346V100.831C117.216 101.215 117.408 101.263 117.76 101.263ZM114.464 94.0306H116.592C116.912 93.3586 117.168 92.7026 117.408 91.9826C117.568 91.5026 117.952 91.3106 118.32 91.3106C118.784 91.3106 119.232 91.6146 119.232 92.1266C119.232 92.2226 119.216 92.3506 119.168 92.4786C118.96 93.0066 118.72 93.5346 118.432 94.0306H122.816C124.4 94.0306 125.072 94.7186 125.072 95.9186V103.999C125.072 105.391 124.432 105.967 122.992 105.967C122.656 105.967 122.288 105.935 121.936 105.855C121.456 105.759 121.232 105.391 121.232 105.039C121.232 104.591 121.536 104.175 122.064 104.175C122.128 104.175 122.192 104.175 122.272 104.191C122.528 104.239 122.736 104.271 122.928 104.271C123.216 104.271 123.344 104.159 123.344 103.775V96.3026C123.344 95.8706 123.184 95.5986 122.576 95.5986H114.704C114.096 95.5986 113.936 95.8706 113.936 96.3026V105.343C113.936 105.839 113.504 106.095 113.072 106.095C112.64 106.095 112.208 105.839 112.208 105.343V95.9186C112.208 94.7186 112.88 94.0306 114.464 94.0306ZM138.032 98.4466V97.4226C137.344 97.4706 136.672 97.5026 136.064 97.5026C135.472 97.5026 135.104 97.5026 134.688 97.4706C134.176 97.4386 133.92 97.0386 133.92 96.6386C133.92 96.2226 134.192 95.8226 134.688 95.8226C135.136 95.8226 135.568 95.8546 136.016 95.8546C136.656 95.8546 137.328 95.8226 137.984 95.7746C137.952 94.8146 137.92 94.3186 137.856 93.3586C137.856 93.2626 137.824 93.0066 137.824 92.8786C137.824 92.3666 138.256 92.1266 138.704 92.1266C139.12 92.1266 139.552 92.3506 139.584 92.8306C139.664 93.7266 139.712 94.6546 139.744 95.6146C140.32 95.5346 140.864 95.4546 141.344 95.3586C141.408 95.3426 141.456 95.3426 141.504 95.3426C142.016 95.3426 142.304 95.7586 142.304 96.1586C142.304 96.5106 142.096 96.8466 141.664 96.9426C141.088 97.0546 140.448 97.1666 139.776 97.2466C139.792 97.6466 139.792 98.0466 139.792 98.4466C139.792 101.535 138.96 103.823 137.616 105.343C137.408 105.583 137.136 105.695 136.88 105.695C136.4 105.695 135.968 105.327 135.968 104.847C135.968 104.639 136.032 104.431 136.224 104.207C137.392 102.831 138.032 101.071 138.032 98.4466ZM130.288 93.0546C130.4 92.6066 130.784 92.3986 131.184 92.3986C131.648 92.3986 132.112 92.6866 132.112 93.1986C132.112 93.2626 132.096 93.3426 132.08 93.4226C131.568 95.5506 131.344 97.7266 131.344 99.6786C131.344 101.055 131.488 102.463 131.68 103.487C131.696 103.567 131.712 103.647 131.712 103.727C131.712 104.287 131.248 104.591 130.784 104.591C130.384 104.591 129.984 104.367 129.872 103.871C129.616 102.703 129.488 101.215 129.488 99.6946C129.488 97.5986 129.728 95.2946 130.288 93.0546ZM153.072 95.2466V95.2146C151.152 95.4706 148.608 95.8546 146.304 96.1906C146.24 96.2066 146.192 96.2066 146.144 96.2066C145.568 96.2066 145.248 95.7426 145.248 95.2946C145.248 94.8786 145.504 94.4946 146.08 94.4146C149.408 93.9986 153.536 93.5346 156.864 93.2306H156.96C157.52 93.2306 157.824 93.6466 157.824 94.0786C157.824 94.4626 157.584 94.8466 157.088 94.9426C156.528 95.0386 155.92 95.2466 155.328 95.5826C152.832 97.0066 152.304 98.6706 152.304 100.191C152.304 101.967 153.536 103.055 155.776 103.327C156.368 103.407 156.64 103.839 156.64 104.271C156.64 104.751 156.288 105.215 155.696 105.215C155.456 105.215 154.8 105.119 154.512 105.055C152.144 104.463 150.448 102.703 150.448 100.239C150.448 98.5586 151.264 96.6706 153.072 95.2466ZM47.6464 127.951L47.7104 124.847C47.3104 125.743 46.8144 126.591 46.3344 127.167C46.1104 127.439 45.8544 127.551 45.6144 127.551C45.2144 127.551 44.8784 127.247 44.8784 126.847C44.8784 126.687 44.9424 126.495 45.0864 126.319C45.9824 125.215 46.7344 123.759 47.3104 122.191H45.6624C45.2624 122.191 45.0544 121.807 45.0544 121.439C45.0544 121.055 45.2624 120.687 45.6464 120.687H47.6464V115.903C47.6464 115.471 48.0624 115.263 48.4784 115.263C48.8944 115.263 49.3104 115.471 49.3104 115.903V120.687H50.8464C51.2464 120.687 51.4544 121.055 51.4544 121.439C51.4544 121.807 51.2464 122.191 50.8464 122.191H49.3104V122.863C50.1424 123.375 50.9424 124.031 51.2624 124.399C51.4544 124.623 51.5344 124.831 51.5344 125.039C51.5344 125.439 51.1984 125.759 50.8144 125.759C50.6064 125.759 50.3824 125.663 50.1904 125.455C49.9344 125.167 49.6304 124.879 49.3104 124.607V129.583C49.3104 130.063 48.8944 130.303 48.4784 130.303C48.0624 130.303 47.6464 130.063 47.6464 129.583V127.951ZM57.9824 123.855L59.1024 123.599C59.1664 123.583 59.2144 123.583 59.2784 123.583C59.7264 123.583 59.9984 124.015 59.9984 124.431C59.9984 124.751 59.8224 125.055 59.4384 125.151L57.9824 125.487V129.471C57.9824 129.967 57.5504 130.207 57.1184 130.207C56.6704 130.207 56.2384 129.967 56.2384 129.471V125.871L52.5264 126.719C52.4624 126.735 52.4144 126.735 52.3664 126.735C51.9184 126.735 51.6304 126.287 51.6304 125.871C51.6304 125.551 51.7904 125.231 52.1744 125.151L56.2384 124.239V116.079C56.2384 115.583 56.6704 115.343 57.1184 115.343C57.5504 115.343 57.9824 115.583 57.9824 116.079V123.855ZM50.1104 117.663C50.1904 117.359 50.4464 117.215 50.7184 117.215C51.0704 117.215 51.4224 117.455 51.4224 117.839C51.4224 117.887 51.4224 117.951 51.4064 118.015C51.2784 118.543 51.0384 119.215 50.7984 119.695C50.6704 119.935 50.4304 120.047 50.2064 120.047C49.8544 120.047 49.5184 119.823 49.5184 119.487C49.5184 119.407 49.5344 119.327 49.5824 119.231C49.7744 118.799 49.9664 118.239 50.1104 117.663ZM46.8624 117.711C47.1184 118.271 47.3584 118.847 47.3904 119.199C47.4064 119.247 47.4064 119.295 47.4064 119.343C47.4064 119.775 47.0384 120.047 46.6704 120.047C46.3824 120.047 46.0944 119.887 46.0144 119.519C45.9184 119.119 45.7424 118.511 45.5824 118.143C45.5504 118.047 45.5344 117.967 45.5344 117.887C45.5344 117.535 45.8704 117.327 46.2224 117.327C46.4784 117.327 46.7344 117.439 46.8624 117.711ZM54.1104 117.503C54.5584 117.823 55.0544 118.223 55.4224 118.639C55.5984 118.831 55.6784 119.039 55.6784 119.231C55.6784 119.679 55.2784 120.047 54.8464 120.047C54.6384 120.047 54.4144 119.967 54.2224 119.775C53.8384 119.407 53.4064 119.023 53.0544 118.719C52.8464 118.543 52.7504 118.319 52.7504 118.127C52.7504 117.711 53.1344 117.327 53.5984 117.327C53.7584 117.327 53.9344 117.375 54.1104 117.503ZM53.5024 120.847C53.9824 121.183 54.4464 121.551 54.8784 121.999C55.0544 122.191 55.1344 122.399 55.1344 122.591C55.1344 123.039 54.7344 123.423 54.3024 123.423C54.0944 123.423 53.8864 123.343 53.6944 123.151C53.3264 122.799 52.8304 122.351 52.4464 122.063C52.2224 121.887 52.1264 121.679 52.1264 121.471C52.1264 121.055 52.5264 120.671 52.9904 120.671C53.1504 120.671 53.3264 120.719 53.5024 120.847ZM70.7824 123.519H69.6144C68.2224 123.519 67.6464 122.959 67.6464 121.807V117.855C67.6464 116.703 68.2224 116.127 69.6144 116.127H73.7264C75.1184 116.127 75.7104 116.703 75.7104 117.855V121.807C75.7104 122.959 75.1184 123.519 73.7264 123.519H72.4944V125.007H74.9584C75.3584 125.007 75.5664 125.375 75.5664 125.759C75.5664 126.127 75.3584 126.511 74.9584 126.511H72.4944V128.239H75.9664C76.3664 128.239 76.5744 128.607 76.5744 128.991C76.5744 129.359 76.3664 129.743 75.9664 129.743H66.5264C66.1424 129.743 65.9344 129.359 65.9344 128.991C65.9344 128.607 66.1424 128.239 66.5264 128.239H70.7824V126.511H68.2864C67.9024 126.511 67.6944 126.127 67.6944 125.759C67.6944 125.375 67.9024 125.007 68.2864 125.007H70.7824V123.519ZM69.7904 122.079H70.8304V120.543H69.2784V121.663C69.2784 122.031 69.4544 122.079 69.7904 122.079ZM69.2784 119.135H70.8304V117.599H69.7904C69.3904 117.599 69.2784 117.679 69.2784 118.015V119.135ZM72.4304 117.599V119.135H74.0784V118.015C74.0784 117.679 73.9824 117.599 73.5664 117.599H72.4304ZM74.0784 120.543H72.4304V122.079H73.5664C73.9824 122.079 74.0784 121.999 74.0784 121.663V120.543ZM63.5984 125.807V122.239H62.5904C62.1744 122.239 61.9664 121.855 61.9664 121.471C61.9664 121.103 62.1744 120.719 62.5904 120.719H63.5984V118.063H62.3664C61.9504 118.063 61.7424 117.679 61.7424 117.295C61.7424 116.927 61.9504 116.543 62.3664 116.543H66.4304C66.8464 116.543 67.0544 116.927 67.0544 117.295C67.0544 117.679 66.8464 118.063 66.4304 118.063H65.2784V120.719H66.1744C66.5904 120.719 66.7984 121.103 66.7984 121.471C66.7984 121.855 66.5904 122.239 66.1744 122.239H65.2784V125.279C65.5664 125.167 65.8544 125.071 66.1104 124.959C66.2384 124.911 66.3504 124.895 66.4624 124.895C66.9104 124.895 67.1824 125.279 67.1824 125.663C67.1824 125.935 67.0544 126.207 66.7344 126.351C65.4224 126.943 63.8544 127.471 62.6064 127.759C62.5264 127.775 62.4464 127.791 62.3824 127.791C61.8864 127.791 61.5984 127.375 61.5984 126.959C61.5984 126.607 61.7904 126.287 62.2224 126.175C62.6544 126.079 63.1184 125.951 63.5984 125.807ZM83.2304 121.247L83.2624 121.279C83.6784 121.119 84.1424 121.007 84.6384 121.007C85.7424 121.007 86.4624 121.343 86.8784 122.527C88.1264 121.999 89.4704 121.519 90.8784 121.087C90.9904 121.055 91.1024 121.039 91.1984 121.039C91.7264 121.039 92.0304 121.471 92.0304 121.903C92.0304 122.239 91.8384 122.591 91.3904 122.719C89.9984 123.135 88.5744 123.615 87.2304 124.159C87.3104 124.751 87.3424 125.455 87.3744 126.287C87.3904 126.831 86.9264 127.119 86.4624 127.119C86.0464 127.119 85.6304 126.879 85.6144 126.383C85.5984 125.775 85.5664 125.263 85.5344 124.831C83.8704 125.679 83.4864 126.399 83.4864 126.991C83.4864 127.615 84.0624 127.983 85.9024 127.983C86.9104 127.983 87.9664 127.887 89.0064 127.711C89.0704 127.695 89.1344 127.695 89.1824 127.695C89.7264 127.695 90.0464 128.127 90.0464 128.575C90.0464 128.959 89.7904 129.343 89.2464 129.439C88.2064 129.631 87.0224 129.695 85.9664 129.695C82.9424 129.695 81.6624 128.687 81.6624 127.119C81.6624 125.839 82.4144 124.607 85.2624 123.183C85.0544 122.591 84.7184 122.463 84.1424 122.463C83.5504 122.463 82.3824 122.895 80.8624 124.111C80.6704 124.255 80.4784 124.319 80.2864 124.319C79.8224 124.319 79.4224 123.919 79.4224 123.471C79.4224 123.231 79.5344 122.991 79.7904 122.767C80.7984 121.887 81.7104 120.847 82.4944 119.647C81.8704 119.695 81.2944 119.711 80.7664 119.727C80.1904 119.743 79.8864 119.311 79.8864 118.895C79.8864 118.495 80.1744 118.079 80.7664 118.079C81.5184 118.079 82.4144 118.031 83.3424 117.967C83.6144 117.327 83.8544 116.703 84.0464 116.111C84.1744 115.711 84.5104 115.535 84.8624 115.535C85.3104 115.535 85.7424 115.823 85.7424 116.271C85.7424 116.351 85.7424 116.431 85.7104 116.511C85.5664 116.959 85.4064 117.375 85.2304 117.775C86.0624 117.695 86.8624 117.583 87.5504 117.455C87.6144 117.439 87.6784 117.439 87.7424 117.439C88.2384 117.439 88.5104 117.823 88.5104 118.207C88.5104 118.559 88.2864 118.927 87.8064 119.007C86.7984 119.183 85.5984 119.359 84.4144 119.471C84.0144 120.127 83.6144 120.735 83.2304 121.247ZM103.198 116.175V117.759H104.222C105.15 117.759 106.03 117.775 106.846 117.791C107.39 117.807 107.662 118.223 107.662 118.655C107.662 119.071 107.39 119.471 106.846 119.471C106.222 119.455 105.534 119.439 104.814 119.439C104.302 119.439 103.774 119.455 103.23 119.455C103.23 120.015 103.246 120.575 103.278 121.135C104.334 121.071 105.358 120.991 106.286 120.879H106.414C106.974 120.879 107.262 121.279 107.262 121.695C107.262 122.079 107.006 122.479 106.478 122.543C105.502 122.671 104.446 122.751 103.374 122.815C103.406 123.519 103.47 124.223 103.534 124.927C104.894 125.279 106.254 125.871 107.55 126.671C107.934 126.911 108.094 127.231 108.094 127.535C108.094 128.031 107.678 128.479 107.15 128.479C106.974 128.479 106.798 128.431 106.606 128.303C105.63 127.663 104.638 127.135 103.646 126.767V126.879C103.646 128.607 102.142 129.439 100.286 129.439C98.2544 129.439 97.0064 128.463 97.0064 126.975C97.0064 125.583 98.1584 124.511 100.446 124.511C100.878 124.511 101.294 124.543 101.742 124.591C101.694 124.015 101.63 123.439 101.614 122.879H100.702C99.7424 122.879 98.7664 122.847 98.2064 122.783C97.6784 122.719 97.4384 122.319 97.4384 121.935C97.4384 121.519 97.7264 121.087 98.2384 121.087H98.3504C98.9424 121.151 99.7424 121.199 100.654 121.199H101.518C101.486 120.623 101.47 120.063 101.454 119.487C100.094 119.519 98.7664 119.567 97.6464 119.615C97.1024 119.631 96.8144 119.199 96.8144 118.767C96.8144 118.351 97.0704 117.951 97.6144 117.919C98.7344 117.871 100.062 117.807 101.422 117.791V116.175C101.422 115.695 101.87 115.455 102.318 115.455C102.75 115.455 103.198 115.695 103.198 116.175ZM100.286 127.791C101.358 127.791 101.886 127.295 101.886 126.623V126.271C101.39 126.175 100.926 126.127 100.446 126.127C99.1984 126.127 98.8304 126.511 98.8304 126.991C98.8304 127.423 99.2464 127.791 100.286 127.791ZM121.87 127.231C121.838 129.023 120.526 129.663 118.99 129.663C117.086 129.663 115.934 128.831 115.934 127.343C115.934 126.063 117.022 125.007 119.07 125.007C119.326 125.007 119.582 125.023 119.87 125.055C119.758 124.319 119.71 123.775 119.71 123.359C119.71 122.671 119.742 122.319 119.822 121.807C119.902 121.359 120.27 121.167 120.654 121.167C121.102 121.167 121.55 121.423 121.55 121.903C121.55 121.951 121.534 121.983 121.534 122.031C121.47 122.495 121.422 122.895 121.422 123.343C121.422 123.791 121.47 124.415 121.646 125.423C122.67 125.727 123.726 126.191 124.654 126.815C124.958 127.023 125.086 127.295 125.086 127.567C125.086 128.015 124.718 128.447 124.238 128.447C124.078 128.447 123.886 128.383 123.694 128.255C123.102 127.839 122.478 127.487 121.87 127.231ZM118.99 128.079C119.726 128.079 120.126 127.759 120.126 127.055C120.126 126.911 120.126 126.783 120.11 126.655C119.758 126.591 119.422 126.559 119.102 126.559C117.982 126.559 117.63 126.911 117.63 127.343C117.63 127.807 117.95 128.079 118.99 128.079ZM115.502 118.687C115.742 117.871 115.966 117.055 116.126 116.255C116.222 115.775 116.606 115.567 116.99 115.567C117.438 115.567 117.854 115.839 117.854 116.351C117.854 116.415 117.854 116.495 117.838 116.559C117.71 117.167 117.55 117.807 117.374 118.447C117.854 118.367 118.334 118.287 118.782 118.207C118.846 118.191 118.91 118.191 118.958 118.191C119.47 118.191 119.79 118.607 119.79 119.039C119.79 119.391 119.582 119.743 119.07 119.855C118.382 119.999 117.598 120.127 116.814 120.239C116.142 122.175 115.278 124.095 114.35 125.631C114.11 126.031 113.774 126.207 113.454 126.207C112.974 126.207 112.558 125.839 112.558 125.359C112.558 125.183 112.606 124.991 112.734 124.799C113.55 123.519 114.286 122.031 114.894 120.447C114.302 120.511 113.726 120.543 113.23 120.559C112.686 120.575 112.398 120.127 112.398 119.679C112.398 119.263 112.654 118.863 113.166 118.847C113.886 118.815 114.686 118.767 115.502 118.687ZM122.606 118.495C123.374 118.703 124.366 119.151 125.054 119.583C125.422 119.807 125.582 120.127 125.582 120.415C125.582 120.879 125.198 121.295 124.734 121.295C124.574 121.295 124.414 121.247 124.254 121.151C123.502 120.719 122.67 120.303 121.966 120.047C121.566 119.903 121.39 119.615 121.39 119.327C121.39 118.895 121.758 118.447 122.302 118.447C122.398 118.447 122.494 118.463 122.606 118.495ZM133.822 122.399L133.854 122.415C134.318 122.127 134.798 121.999 135.31 121.999C136.782 121.999 137.582 122.879 137.694 125.375C137.774 127.119 138.158 127.359 138.766 127.359C139.486 127.359 140.094 126.735 140.654 125.279C140.814 124.863 141.166 124.671 141.518 124.671C141.998 124.671 142.478 125.023 142.478 125.535C142.478 125.647 142.446 125.775 142.398 125.919C141.566 128.127 140.366 129.167 138.638 129.167C136.974 129.167 135.95 128.271 135.838 125.535C135.774 123.951 135.534 123.615 134.878 123.615C134.03 123.615 133.166 124.399 132.382 126.031C132.03 126.767 131.566 127.743 131.214 128.511C131.038 128.879 130.702 129.055 130.366 129.055C129.886 129.055 129.406 128.719 129.406 128.207C129.406 128.095 129.438 127.983 129.486 127.855C130.894 124.463 132.926 120.127 134.766 116.719C134.942 116.383 135.262 116.239 135.582 116.239C136.094 116.239 136.59 116.591 136.59 117.071C136.59 117.199 136.558 117.327 136.494 117.455L133.822 122.399ZM152.354 119.247V119.215C150.434 119.471 147.89 119.855 145.586 120.191C145.522 120.207 145.474 120.207 145.426 120.207C144.85 120.207 144.53 119.743 144.53 119.295C144.53 118.879 144.786 118.495 145.362 118.415C148.69 117.999 152.818 117.535 156.146 117.231H156.242C156.802 117.231 157.106 117.647 157.106 118.079C157.106 118.463 156.866 118.847 156.37 118.943C155.81 119.039 155.202 119.247 154.61 119.583C152.114 121.007 151.586 122.671 151.586 124.191C151.586 125.967 152.818 127.055 155.058 127.327C155.65 127.407 155.922 127.839 155.922 128.271C155.922 128.751 155.618 129.215 154.978 129.215C154.866 129.215 154.53 129.199 154.258 129.151C151.346 128.607 149.73 126.623 149.73 124.239C149.73 122.559 150.546 120.671 152.354 119.247ZM154.866 122.159C154.754 122.031 154.706 121.903 154.706 121.791C154.706 121.471 155.026 121.183 155.378 121.183C155.522 121.183 155.682 121.231 155.826 121.359C156.258 121.743 156.738 122.255 157.074 122.751C157.186 122.895 157.218 123.039 157.218 123.183C157.218 123.535 156.914 123.823 156.578 123.823C156.386 123.823 156.194 123.727 156.05 123.519C155.666 122.991 155.234 122.527 154.866 122.159ZM156.466 120.895C156.338 120.767 156.29 120.639 156.29 120.511C156.29 120.191 156.594 119.919 156.962 119.919C157.122 119.919 157.282 119.983 157.442 120.111C157.858 120.463 158.338 120.959 158.674 121.423C158.802 121.583 158.85 121.743 158.85 121.903C158.85 122.255 158.546 122.511 158.21 122.511C158.018 122.511 157.81 122.431 157.65 122.223C157.282 121.759 156.834 121.279 156.466 120.895ZM73.088 140.879L75.744 140.479C75.904 140.447 76.064 140.447 76.224 140.447C77.216 140.447 77.776 141.007 77.776 141.855C77.776 141.983 77.776 142.111 77.744 142.255C77.536 143.423 77.232 144.607 76.896 145.727C77.952 145.871 78.992 146.159 80.016 146.495C80.176 145.743 80.272 144.927 80.32 144.063C80.336 143.567 80.768 143.311 81.216 143.311C81.68 143.311 82.144 143.599 82.144 144.159C82.144 145.071 81.952 146.191 81.712 147.199C82.512 147.567 83.296 147.999 84.064 148.495C84.384 148.703 84.512 149.007 84.512 149.295C84.512 149.791 84.128 150.255 83.616 150.255C83.44 150.255 83.248 150.207 83.056 150.079C82.416 149.663 81.792 149.295 81.168 148.975C80.56 150.607 79.68 151.999 78.608 153.055C78.352 153.311 78.08 153.423 77.824 153.423C77.328 153.423 76.928 152.991 76.928 152.527C76.928 152.319 77.008 152.095 77.2 151.903C78.192 150.911 78.992 149.679 79.52 148.207C78.496 147.791 77.456 147.487 76.368 147.311C76.048 148.159 75.712 148.943 75.376 149.599C74.56 151.215 73.728 151.727 72.576 151.727C71.248 151.727 70.272 150.863 70.272 149.215C70.272 147.215 72.08 145.567 74.752 145.567H75.12C75.44 144.543 75.744 143.471 75.872 142.463C75.872 142.415 75.888 142.367 75.888 142.335C75.888 142.191 75.792 142.175 75.568 142.207L73.328 142.575C73.264 142.591 73.2 142.591 73.152 142.591C72.64 142.591 72.336 142.159 72.336 141.727C72.336 141.343 72.576 140.959 73.088 140.879ZM72.592 149.983C73.056 149.983 73.312 149.839 73.744 149.039C74.032 148.495 74.304 147.855 74.56 147.183C72.896 147.199 72.016 148.143 72.016 149.151C72.016 149.727 72.272 149.983 72.592 149.983ZM89.744 144.639C89.088 144.735 88.432 144.831 87.776 144.831C87.248 144.831 86.976 144.431 86.976 143.999C86.976 143.567 87.248 143.151 87.792 143.119C88.432 143.087 89.2 142.991 90.064 142.847C90.208 141.967 90.272 141.263 90.368 140.383C90.416 139.887 90.832 139.647 91.248 139.647C91.696 139.647 92.144 139.935 92.144 140.447V140.543C92.064 141.311 91.984 141.887 91.888 142.495C92.336 142.399 92.8 142.287 93.264 142.175C93.344 142.159 93.424 142.143 93.504 142.143C94 142.143 94.304 142.559 94.304 142.991C94.304 143.327 94.112 143.663 93.68 143.775C92.944 143.983 92.24 144.159 91.6 144.303C91.024 147.439 90.256 150.399 89.36 152.719C89.168 153.199 88.768 153.423 88.384 153.423C87.936 153.423 87.504 153.103 87.504 152.607C87.504 152.463 87.536 152.319 87.6 152.159C88.48 149.983 89.184 147.439 89.744 144.639ZM92.96 150.127C92.96 149.583 93.408 149.279 93.856 149.279C94.224 149.279 94.576 149.487 94.624 149.951C94.736 150.975 95.312 151.263 97.056 151.263C97.872 151.263 98.56 151.199 99.2 151.103C99.248 151.087 99.328 151.087 99.376 151.087C99.92 151.087 100.224 151.551 100.224 151.983C100.224 152.367 99.984 152.751 99.488 152.831C98.8 152.943 98 153.007 97.088 153.007C94.848 153.007 93.856 152.431 93.344 151.615C93.088 151.215 92.96 150.575 92.96 150.127ZM94.56 144.895C95.808 144.639 97.392 144.463 98.672 144.463C99.248 144.463 99.536 144.895 99.536 145.327C99.536 145.743 99.264 146.143 98.72 146.143C97.44 146.143 95.952 146.335 94.816 146.559C94.752 146.575 94.672 146.575 94.624 146.575C94.128 146.575 93.824 146.175 93.824 145.743C93.824 145.375 94.048 145.007 94.56 144.895ZM104.112 142.111C104.16 141.599 104.608 141.343 105.04 141.343C105.52 141.343 105.984 141.631 105.984 142.191C105.984 142.415 105.92 143.199 105.92 143.695C105.92 149.295 107.056 150.767 107.728 150.767C108.112 150.767 108.464 150.511 108.768 149.311C108.896 148.831 109.232 148.623 109.584 148.623C110.048 148.623 110.496 148.959 110.496 149.487C110.496 149.583 110.496 149.663 110.464 149.759C109.872 151.903 108.848 152.687 107.776 152.687C105.456 152.687 104.048 149.823 104.048 143.743C104.048 143.007 104.08 142.527 104.112 142.111ZM114 143.247C115.344 144.495 116.576 146.495 117.104 148.127C117.152 148.255 117.168 148.367 117.168 148.463C117.168 148.991 116.72 149.311 116.272 149.311C115.936 149.311 115.584 149.135 115.424 148.703C114.848 147.231 113.808 145.551 112.656 144.351C112.464 144.159 112.384 143.951 112.384 143.759C112.384 143.311 112.816 142.943 113.296 142.943C113.52 142.943 113.776 143.039 114 143.247ZM125.952 143.231C125.936 142.943 125.824 141.807 125.824 141.375C125.824 140.687 126.32 140.287 126.976 140.287C127.616 140.287 128.096 140.703 128.096 141.375C128.096 141.807 128 142.767 127.968 143.231C127.856 144.783 127.744 147.151 127.696 148.927C127.68 149.343 127.376 149.599 126.944 149.599C126.512 149.599 126.24 149.343 126.224 148.927C126.16 147.167 126.064 144.799 125.952 143.231ZM126.96 150.639C127.648 150.639 128.176 151.167 128.176 151.839C128.176 152.511 127.648 153.023 126.96 153.023C126.272 153.023 125.744 152.511 125.744 151.839C125.744 151.167 126.272 150.639 126.96 150.639Z" fill="black"/>
<g clip-path="url(#clip0_1386_3461)">
<path d="M99.017 77C119.446 77 136.006 64.8681 136.006 49.9026C136.006 34.9371 119.446 22.8052 99.017 22.8052C78.5884 22.8052 62.0278 34.9371 62.0278 49.9026C62.0278 64.8681 78.5884 77 99.017 77Z" fill="#E8382F"/>
<path d="M69.1733 32.9261L127.997 32.5715L127.823 23.6448C146.165 14.2702 123.43 -4.54747 116.166 11.2158C110.916 -2.12139 88.864 -2.62527 84.993 10.0961C73.9764 -8.13682 54.1739 10.6373 67.8871 21.1938L69.1733 32.9261Z" fill="white"/>
<path d="M69.1734 33.8096C68.726 33.8096 68.347 33.4737 68.2972 33.0258L67.0483 21.6605C63.1711 18.5315 61.5742 14.3636 62.674 10.1709C63.8111 5.82883 67.7256 2.34523 72.1993 1.69205C76.8533 1.014 81.3705 3.36543 84.788 8.18026C87.0248 3.35298 92.1572 0.27373 98.5944 0.0186811C104.994 -0.242589 112.662 2.54429 116.222 9.25022C118.472 5.60488 121.908 3.83198 125.859 4.35452C130.631 4.98281 134.807 8.80233 135.565 13.2377C135.994 15.7384 135.652 20.4288 128.711 24.1799L128.879 32.5592C128.879 32.7956 128.792 33.0258 128.631 33.1938C128.469 33.3617 128.239 33.4612 128.003 33.4612L69.1796 33.8158L69.1734 33.8096ZM73.7652 3.34676C73.2805 3.34676 72.8393 3.38409 72.4541 3.44007C68.6576 3.9875 65.3396 6.94234 64.3765 10.6188C63.8297 12.7214 63.6185 16.8022 68.4215 20.4973C68.6141 20.6466 68.7322 20.8581 68.7571 21.1007L69.9563 32.0429L127.096 31.7008L126.934 23.6698C126.928 23.3339 127.115 23.0229 127.413 22.8674C132.166 20.4413 134.44 17.1256 133.825 13.5363C133.198 9.89095 129.594 6.62508 125.623 6.10254C123.461 5.81639 119.466 6.15231 116.955 11.5954C116.806 11.9189 116.477 12.1117 116.129 12.1055C115.775 12.0931 115.464 11.8754 115.334 11.5457C112.538 4.44783 104.945 1.53031 98.6566 1.77914C93.6547 1.97821 87.6586 4.34208 85.8256 10.3637C85.7262 10.6996 85.4342 10.936 85.0924 10.9796C84.7445 11.0231 84.4089 10.8614 84.2287 10.5628C80.6 4.5598 76.4867 3.34676 73.7527 3.34676H73.7652Z" fill="#231815"/>
<path d="M90.3802 66.9782C87.727 66.9782 85.3783 65.8958 84.0237 64.0233C83.7379 63.6314 83.8249 63.0778 84.2226 62.7916C84.614 62.5055 85.167 62.5926 85.4529 62.9907C86.5464 64.4961 88.541 65.3235 90.8213 65.2053C94.2947 65.0187 97.6003 62.7481 99.657 59.1463C99.8993 58.7233 100.434 58.574 100.856 58.8166C101.279 59.0592 101.428 59.5942 101.186 60.0172C98.8306 64.1478 94.9906 66.7418 90.9145 66.9657C90.7344 66.9782 90.5542 66.9782 90.3802 66.9782Z" fill="#231815"/>
<path d="M62.0279 50.7857C61.5494 50.7857 61.158 50.4063 61.1456 49.9273C61.1331 49.4421 61.5184 49.0377 62.003 49.0253L133.987 47.3208H134.005C134.484 47.3208 134.875 47.7003 134.888 48.1793C134.9 48.6645 134.515 49.0688 134.03 49.0813L62.0465 50.7857H62.0279Z" fill="#231815"/>
<path d="M69.4159 49.3554C69.4656 59.1281 88.3361 58.1142 88.827 49.2559C89.38 39.34 69.36 39.6511 69.4159 49.3554Z" fill="white"/>
<path d="M78.5249 57.1808C78.3944 57.1808 78.2701 57.1808 78.1396 57.1808C73.3801 57.0626 68.5584 54.5992 68.5335 49.3614C68.5211 46.5745 69.9999 44.2106 72.6966 42.699C76.6546 40.4907 82.6072 40.5466 86.2483 42.8234C88.6281 44.3102 89.8522 46.6118 89.703 49.3054C89.4172 54.4748 83.8002 57.1808 78.5249 57.1808ZM70.292 49.349C70.3168 53.6786 74.5544 55.3208 78.1831 55.4142C84.2848 55.5821 87.7706 52.3287 87.9446 49.2059C88.0875 46.6181 86.5963 45.1189 85.3163 44.3164C82.1722 42.3444 77.0026 42.3133 73.5541 44.2418C72.0566 45.0753 70.2795 46.6429 70.292 49.349Z" fill="#231815"/>
<path d="M96.047 49.3554C96.1029 59.1281 116.297 58.1142 116.825 49.2559C117.415 39.34 95.9911 39.6511 96.047 49.3554Z" fill="white"/>
<path d="M105.796 57.181C105.641 57.181 105.485 57.181 105.324 57.181C99.1723 57.0131 95.1832 53.9463 95.1584 49.3678C95.1397 46.668 96.6248 44.3477 99.3339 42.8423C103.64 40.4411 110.344 40.5033 114.277 42.9791C116.639 44.4659 117.856 46.7178 117.701 49.3118C117.39 54.4875 111.425 57.1872 105.796 57.1872V57.181ZM96.923 49.3491C96.9479 53.6539 101.49 55.3086 105.373 55.4143C110.382 55.545 115.7 53.262 115.943 49.2061C116.061 47.2217 115.185 45.6292 113.339 44.4659C109.953 42.3322 103.932 42.2949 100.191 44.3788C98.6939 45.2124 96.9106 46.7551 96.923 49.3554V49.3491Z" fill="#231815"/>
<path d="M54 39.3582C56.8396 40.1794 57.5728 42.7921 58.0139 46.4561C58.511 42.4748 59.6481 39.9305 62.0279 39.2836C59.3561 38.6242 58.598 37.2432 57.9891 32.4346C57.1813 36.9508 56.1064 38.5931 54 39.3582Z" fill="#FDD35C"/>
<path d="M94.2327 44.2232C94.1271 44.2232 94.0152 44.2045 93.9096 44.161C93.456 43.9806 93.2385 43.4705 93.4187 43.0164L94.6304 39.962C94.8106 39.5079 95.3263 39.2902 95.7737 39.4706C96.2272 39.651 96.4447 40.1611 96.2645 40.6152L95.0529 43.6695C94.9162 44.0179 94.5869 44.2232 94.2327 44.2232Z" fill="#231815"/>
<path d="M90.8711 44.4842C90.5294 44.4842 90.2001 44.2851 90.0572 43.9492L88.6529 40.6336C88.4603 40.1857 88.6715 39.6694 89.1189 39.4765C89.5663 39.2899 90.082 39.4952 90.2746 39.9431L91.6789 43.2587C91.8715 43.7066 91.6603 44.2229 91.2129 44.4158C91.101 44.4655 90.983 44.4842 90.8711 44.4842Z" fill="#231815"/>
</g>
<defs>
<clipPath id="clip0_1386_3461">
<rect width="82" height="77" fill="white" transform="translate(54)"/>
</clipPath>
</defs>
</svg>
