<svg width="322" height="278" viewBox="0 0 322 278" fill="none" xmlns="http://www.w3.org/2000/svg">
<path d="M200.809 203.101L182.391 166.967L153.306 174.215L200.809 203.101Z" fill="white"/>
<rect x="8.65698" y="117.441" width="259.622" height="98" rx="49" transform="rotate(-13.9932 8.65698 117.441)" fill="white"/>
<path d="M106.708 133.067L107.378 135.489L107.962 137.834C108.074 138.284 107.725 138.602 107.306 138.706C106.902 138.807 106.429 138.694 106.316 138.244L105.732 135.899L105.183 133.431C104.545 134.975 103.434 136.802 102.199 138.198C102.032 138.388 101.857 138.481 101.687 138.523C101.252 138.632 100.852 138.352 100.756 137.964C100.694 137.716 100.752 137.421 100.985 137.165C102.279 135.738 103.409 133.922 104.132 131.928L101.835 132.501C101.416 132.605 101.121 132.283 101.028 131.911C100.935 131.538 101.044 131.115 101.463 131.011L104.335 130.295L103.887 128.494L101.713 129.036C101.294 129.14 100.999 128.818 100.906 128.445C100.814 128.072 100.923 127.65 101.342 127.545L103.515 127.003L103.005 124.954C102.892 124.504 103.253 124.167 103.657 124.066C104.076 123.962 104.538 124.094 104.65 124.544L105.161 126.593L107.583 125.99C108.002 125.885 108.312 126.204 108.405 126.576C108.498 126.949 108.373 127.376 107.954 127.48L105.532 128.084L105.981 129.885L109.366 129.041C109.785 128.937 110.095 129.255 110.188 129.628C110.281 130 110.156 130.427 109.737 130.532L106.756 131.275C108.017 132.428 109.521 133.438 111.058 134.177C111.395 134.34 111.589 134.588 111.651 134.837C111.759 135.271 111.491 135.717 111.041 135.83C110.808 135.888 110.536 135.856 110.23 135.685C108.993 134.955 107.724 134.034 106.708 133.067ZM99.9811 135.98L98.6459 136.313C97.6057 136.572 97.0394 136.219 96.7995 135.256L95.2249 128.938C94.9811 127.959 95.3153 127.381 96.3555 127.122L97.6907 126.79C98.7308 126.53 99.2971 126.884 99.5409 127.862L101.116 134.181C101.371 135.205 100.975 135.733 99.9811 135.98ZM98.6471 134.73L99.237 134.583C99.4699 134.525 99.536 134.393 99.4702 134.129L98.1122 128.68C98.0426 128.4 97.9223 128.315 97.6895 128.373L97.0995 128.52C96.8666 128.578 96.8006 128.71 96.8702 128.989L98.2282 134.439C98.2862 134.671 98.4142 134.788 98.6471 134.73ZM116.821 133.68C115.237 134.075 113.6 133.131 112.997 130.709C112.114 127.169 114.325 123.535 118.595 122.471C122.383 121.527 125.164 123.356 125.934 126.446C126.634 129.256 125.487 131.735 123.03 133.254C122.917 133.332 122.797 133.378 122.688 133.405C122.16 133.537 121.71 133.187 121.598 132.737C121.513 132.395 121.614 132.007 122.038 131.721C124.045 130.379 124.597 128.824 124.117 126.899C123.61 124.865 121.811 123.532 119.408 123.95C119.895 126.566 119.839 129.053 119.298 130.985C118.82 132.704 118.016 133.382 116.821 133.68ZM117.619 124.511C115.418 125.538 114.209 127.966 114.782 130.264C115.138 131.692 115.828 132.081 116.387 131.941C116.869 131.822 117.226 131.469 117.479 130.565C117.926 128.986 118.002 126.84 117.619 124.511ZM141.654 121.308L135.413 122.864C135.463 122.933 135.498 123.007 135.517 123.085C135.548 123.209 135.525 123.38 135.439 123.566C135.257 123.958 135.027 124.361 134.779 124.753C135.074 124.877 135.372 125.017 135.652 125.146C136.063 124.482 136.421 123.8 136.74 123.094C136.856 122.834 137.054 122.702 137.256 122.652C137.66 122.551 138.11 122.769 138.207 123.157C138.245 123.312 138.226 123.498 138.113 123.708C137.755 124.39 137.414 125.003 137.044 125.573C137.844 125.341 138.655 125.09 139.443 124.811C139.327 124.741 139.214 124.686 139.102 124.632C138.881 124.539 138.776 124.383 138.737 124.228C138.656 123.902 138.905 123.51 139.308 123.41C139.479 123.367 139.662 123.371 139.863 123.453C140.69 123.791 141.795 124.39 142.489 124.86C142.687 124.992 142.796 125.163 142.838 125.333C142.939 125.737 142.663 126.152 142.259 126.253C142.058 126.303 141.817 126.264 141.58 126.108C141.379 125.961 141.142 125.805 140.906 125.65C139.621 126.119 138.344 126.552 137.063 126.97L137.918 130.402C138.026 130.836 137.681 131.17 137.261 131.274C136.858 131.375 136.38 131.246 136.272 130.812L135.44 127.474C133.744 128.012 132.048 128.484 130.441 128.917C129.96 129.037 129.607 128.746 129.518 128.389C129.429 128.032 129.577 127.632 130.058 127.512C131.517 127.149 133.093 126.723 134.665 126.282C133.862 125.905 133.168 125.633 132.466 125.395C132.178 125.302 132.019 125.127 131.969 124.925C131.884 124.584 132.129 124.177 132.532 124.076C132.672 124.041 132.82 124.037 132.998 124.092C133.142 124.139 133.305 124.197 133.468 124.255C133.662 123.91 133.841 123.569 134 123.216L128.799 124.512C128.395 124.612 128.112 124.337 128.031 124.011C127.95 123.685 128.07 123.308 128.474 123.208L134.032 121.823L133.862 121.139L130.369 122.01C129.981 122.107 129.717 121.843 129.636 121.517C129.558 121.206 129.667 120.849 130.055 120.752L133.548 119.882L133.386 119.23L128.775 120.379C128.387 120.476 128.104 120.2 128.026 119.889C127.945 119.563 128.07 119.203 128.458 119.106L133.069 117.957L132.922 117.367C132.813 116.932 133.163 116.614 133.582 116.51C134.001 116.405 134.478 116.534 134.587 116.968L134.73 117.543L139.807 116.278C140.21 116.177 140.474 116.441 140.555 116.767C140.633 117.078 140.528 117.45 140.124 117.551L135.047 118.816L135.21 119.468L138.998 118.524C139.386 118.427 139.665 118.687 139.742 118.998C139.824 119.324 139.699 119.685 139.311 119.781L135.523 120.725L135.693 121.409L141.329 120.004C141.733 119.904 142.016 120.179 142.097 120.505C142.178 120.831 142.058 121.208 141.654 121.308ZM133.061 128.71C133.173 128.566 133.317 128.481 133.472 128.442C133.876 128.342 134.314 128.579 134.407 128.951C134.453 129.138 134.414 129.378 134.228 129.623C133.68 130.336 132.834 131.24 131.968 131.934C131.844 132.031 131.727 132.093 131.618 132.12C131.168 132.232 130.745 131.925 130.653 131.552C130.591 131.304 130.668 131.021 130.956 130.784C131.697 130.187 132.478 129.416 133.061 128.71ZM139.822 126.926C140.575 127.167 141.599 127.44 142.522 127.638C142.922 127.72 143.127 127.949 143.193 128.213C143.294 128.617 143.061 129.07 142.61 129.183C142.486 129.214 142.339 129.217 142.164 129.178C141.221 128.968 140.015 128.626 139.153 128.28C138.897 128.179 138.754 128 138.708 127.814C138.615 127.441 138.867 126.999 139.302 126.891C139.457 126.852 139.624 126.86 139.822 126.926ZM149.432 118.71C149.45 121.427 149.176 124.166 148.557 126.381C148.445 126.789 148.153 127.01 147.843 127.087C147.393 127.199 146.912 126.989 146.796 126.524C146.761 126.384 146.765 126.202 146.815 126.008C147.364 124.041 147.641 121.712 147.678 119.345C147.061 119.582 146.467 119.845 145.908 120.116C145.85 120.147 145.772 120.167 145.71 120.182C145.229 120.302 144.868 119.98 144.767 119.576C144.678 119.219 144.807 118.808 145.265 118.595C146.018 118.242 146.845 117.921 147.644 117.622C147.595 116.629 147.51 115.628 147.383 114.653C147.321 114.141 147.651 113.812 148.055 113.711C148.489 113.603 148.994 113.774 149.118 114.271L149.145 114.379C149.26 115.241 149.337 116.145 149.379 117.042C149.686 116.949 149.966 116.879 150.214 116.817C152.201 116.322 153.155 117.041 153.763 119.478C154.126 120.937 154.296 122.28 154.268 123.293C154.216 125.202 153.676 126.013 152.108 126.404C151.736 126.496 151.34 126.562 151.033 126.589C150.486 126.643 150.156 126.313 150.063 125.94C149.955 125.506 150.13 125.017 150.642 124.889C150.674 124.881 150.724 124.885 150.771 124.874C151.073 124.831 151.314 124.804 151.64 124.723C152.183 124.587 152.42 124.347 152.456 123.365C152.499 122.415 152.337 121.169 152.02 119.896C151.672 118.498 151.315 118.192 150.57 118.377C150.228 118.462 149.844 118.575 149.432 118.71ZM155.105 114.477C156.315 115.165 157.634 116.353 158.421 117.262C158.561 117.425 158.638 117.603 158.677 117.759C158.812 118.302 158.466 118.767 158.001 118.884C157.69 118.961 157.322 118.871 157 118.506C156.162 117.528 155.042 116.537 153.998 115.858C153.781 115.714 153.653 115.531 153.611 115.361C153.502 114.926 153.852 114.476 154.318 114.36C154.566 114.298 154.838 114.329 155.105 114.477ZM165.028 109.498C165.916 109.491 167.045 109.589 167.957 109.807C168.396 109.912 168.632 110.199 168.713 110.525C168.822 110.96 168.6 111.46 168.103 111.584C167.964 111.619 167.801 111.626 167.611 111.591C166.714 111.436 165.639 111.291 164.84 111.259C164.405 111.236 164.142 110.972 164.064 110.661C163.956 110.227 164.197 109.672 164.756 109.533C164.834 109.513 164.931 109.506 165.028 109.498ZM164.754 117.333L164.789 117.34C165.714 116.022 167.34 114.94 168.877 114.557C171.315 113.95 173.153 114.91 173.591 116.664C174.186 119.055 172.64 121.254 169.007 122.621C168.96 122.633 168.918 122.66 168.871 122.671C168.328 122.807 167.909 122.449 167.805 122.03C167.708 121.642 167.875 121.188 168.387 120.995C171.341 119.879 172.111 118.467 171.778 117.132C171.577 116.325 170.755 115.738 169.264 116.11C167.618 116.52 165.964 117.822 165.039 119.669C164.888 119.987 164.62 120.169 164.34 120.239C163.875 120.355 163.339 120.125 163.2 119.567C163.185 119.504 163.169 119.442 163.169 119.376C163.038 118.189 162.904 116.062 162.824 113.823C162.805 113.35 163.143 113.051 163.516 112.958C163.966 112.846 164.466 113.002 164.582 113.467C164.594 113.514 164.609 113.576 164.605 113.626C164.67 115.144 164.7 116.389 164.754 117.333ZM178.281 117.754C177.971 117.633 177.82 117.424 177.766 117.206C177.661 116.787 177.922 116.31 178.403 116.19C178.574 116.148 178.775 116.163 178.989 116.226C179.99 116.537 181.444 117.279 182.379 117.986C182.643 118.184 182.782 118.413 182.837 118.631C182.96 119.127 182.634 119.604 182.153 119.724C181.889 119.79 181.582 119.751 181.295 119.526C180.364 118.834 179.181 118.123 178.281 117.754ZM46.489 164.761L47.0268 166.919C47.6168 166.706 48.168 166.47 48.6727 166.245C48.7464 166.21 48.8085 166.195 48.8706 166.179C49.3519 166.06 49.6893 166.355 49.786 166.743C49.875 167.1 49.7505 167.527 49.308 167.736C48.7334 168.011 48.0891 168.27 47.4408 168.514C47.7891 169.846 48.1529 171.173 48.6215 172.458C49.5566 172.571 50.5615 172.832 51.574 173.256C51.9231 173.4 52.117 173.648 52.1827 173.912C52.2911 174.347 52.0346 174.839 51.5688 174.955C51.3825 175.002 51.1613 174.975 50.9208 174.87C50.3079 174.594 49.6949 174.384 49.1285 174.228C49.2788 175.559 48.626 176.711 46.7009 177.191C44.9621 177.624 43.6587 177.026 43.3105 175.628C42.9893 174.34 43.7896 173.118 45.8079 172.615C46.134 172.534 46.4832 172.48 46.8519 172.437C46.4763 171.327 46.1629 170.202 45.8649 169.072C45.2089 169.285 44.5607 169.463 43.9553 169.614C43.6448 169.691 43.3653 169.761 43.0936 169.796C42.6008 169.869 42.2712 169.539 42.1744 169.151C42.0777 168.763 42.2294 168.313 42.7262 168.189C43.0056 168.119 43.2773 168.084 43.5568 168.015C44.1622 167.864 44.7949 167.69 45.4509 167.477L44.8744 165.164C44.7545 164.682 45.1001 164.349 45.5038 164.248C45.9074 164.148 46.3691 164.28 46.489 164.761ZM46.3179 175.654C47.1097 175.457 47.5447 174.952 47.3164 173.97C46.8857 173.962 46.4976 173.993 46.1716 174.074C45.0848 174.345 44.8284 174.772 44.9406 175.222C45.0605 175.703 45.5416 175.847 46.3179 175.654ZM37.9425 166.792C37.9312 166.35 38.2574 166.071 38.6455 165.974C39.0957 165.862 39.6117 166.013 39.7355 166.51C39.7471 166.557 39.7626 166.619 39.7626 166.685C39.8035 168.967 40.0424 171.315 40.5376 173.302C40.967 175.025 41.579 176.62 42.0282 177.828C42.0398 177.874 42.0669 177.917 42.0786 177.964C42.1985 178.445 41.8062 178.856 41.3715 178.964C40.9679 179.065 40.5256 178.944 40.328 178.482C39.7896 177.248 39.2281 175.59 38.7638 173.727C38.2454 171.647 37.9795 169.19 37.9425 166.792ZM57.1681 170.229C56.553 167.761 55.9731 164.772 55.5752 162.448C55.4747 161.912 55.8475 161.555 56.2822 161.447C56.748 161.331 57.2484 161.486 57.3761 161.999C57.4264 162.201 57.4766 162.534 57.5036 162.709C57.921 165.045 58.4042 167.514 58.9729 169.796C59.4914 171.876 60.2672 172.277 61.3695 172.002C62.8133 171.642 64.017 170.716 65.0042 168.59C65.152 168.256 65.4043 168.078 65.6527 168.016C66.134 167.896 66.6616 168.16 66.7815 168.642C66.8279 168.828 66.8123 169.03 66.7073 169.27C65.4868 171.916 63.8172 173.222 61.7989 173.725C59.4857 174.302 57.9729 173.458 57.1681 170.229ZM61.2519 163.259C61.1122 163.162 61.0347 163.049 61.0076 162.941C60.9302 162.63 61.1711 162.273 61.5127 162.188C61.6524 162.153 61.8192 162.161 61.9899 162.251C62.502 162.519 63.0915 162.899 63.5375 163.299C63.681 163.412 63.7469 163.544 63.7817 163.684C63.8668 164.025 63.6415 164.378 63.3154 164.46C63.1291 164.506 62.9196 164.459 62.7296 164.292C62.2293 163.873 61.6979 163.527 61.2519 163.259ZM62.4987 161.646C62.3436 161.552 62.2661 161.44 62.2351 161.315C62.1577 161.005 62.3869 160.668 62.744 160.579C62.8993 160.54 63.07 160.563 63.2562 160.649C63.745 160.89 64.3307 161.255 64.7689 161.624C64.9318 161.748 65.017 161.892 65.0557 162.047C65.1408 162.389 64.9078 162.711 64.5817 162.792C64.3954 162.838 64.1743 162.811 63.9687 162.648C63.4994 162.287 62.9487 161.929 62.4987 161.646ZM76.6632 166.344C76.9307 166.689 77.2098 167.016 77.489 167.342C77.6053 167.478 77.6712 167.61 77.706 167.749C77.8221 168.215 77.488 168.661 77.0688 168.766C76.8049 168.831 76.5061 168.758 76.2541 168.474C76.0719 168.272 75.8858 168.055 75.7113 167.818C75.0509 168.807 74.3948 169.218 73.634 169.407C72.3299 169.732 71.2865 169.118 70.8996 167.566C70.5398 166.122 70.8322 164.252 72.2229 162.421C71.754 161.532 71.3433 160.612 71.0025 159.708L70.9793 159.615C70.8594 159.133 71.2283 158.761 71.6475 158.657C72.0201 158.564 72.4275 158.677 72.5862 159.115C72.8341 159.779 73.1324 160.447 73.4462 161.11C74.2578 160.397 75.1702 159.823 76.2027 159.467C76.1566 158.819 76.0911 158.159 75.9946 157.441C75.9445 156.976 76.2785 156.662 76.6666 156.565C77.0858 156.46 77.6057 156.628 77.7295 157.124L77.7527 157.218C77.826 157.842 77.8798 158.456 77.9104 159.042C80.5805 158.706 82.6712 160.015 83.2786 162.453C83.944 165.123 82.9451 167.268 80.5846 168.714C80.4682 168.776 80.3672 168.834 80.2586 168.861C79.6997 169.001 79.2459 168.635 79.1337 168.185C79.0486 167.844 79.1692 167.467 79.5924 167.18C81.3356 166.037 81.9497 164.73 81.4971 162.913C81.1295 161.438 79.7954 160.386 77.9248 160.621C77.8379 162.588 77.4833 164.54 76.6632 166.344ZM75.5816 164.849C75.9745 163.646 76.1694 162.378 76.217 161.113C75.4483 161.469 74.7728 161.934 74.1631 162.531C74.6049 163.312 75.0622 164.088 75.5816 164.849ZM74.684 166.474C74.1142 165.643 73.5599 164.809 73.0444 163.931C72.3877 165.068 72.255 166.123 72.4562 166.931C72.6264 167.614 72.9561 167.812 73.2822 167.731C73.7169 167.622 74.1517 167.316 74.684 166.474ZM93.1055 155.568L93.0977 155.537C91.2966 156.25 88.921 157.238 86.7666 158.121C86.7084 158.152 86.6618 158.163 86.6152 158.175C86.0563 158.314 85.6336 157.941 85.5253 157.507C85.4247 157.103 85.5802 156.669 86.1198 156.452C89.2484 155.243 93.1417 153.795 96.2975 152.695L96.3906 152.672C96.934 152.537 97.3296 152.867 97.434 153.286C97.5269 153.658 97.3869 154.089 96.9288 154.302C96.4086 154.531 95.869 154.88 95.3758 155.349C93.2982 157.334 93.1882 159.076 93.5558 160.551C93.9852 162.275 95.4437 163.032 97.683 162.755C98.2768 162.689 98.6452 163.043 98.7497 163.462C98.8657 163.927 98.6364 164.463 98.0619 164.606C97.8291 164.664 97.1693 164.729 96.8744 164.737C94.4335 164.735 92.3623 163.438 91.7665 161.047C91.3602 159.416 91.6955 157.387 93.1055 155.568ZM106.478 160.992C104.894 161.386 103.257 160.442 102.654 158.02C101.772 154.48 103.982 150.846 108.252 149.782C112.04 148.838 114.821 150.668 115.591 153.757C116.291 156.567 115.145 159.046 112.687 160.566C112.574 160.643 112.454 160.69 112.345 160.717C111.818 160.848 111.368 160.499 111.255 160.048C111.17 159.707 111.271 159.319 111.695 159.032C113.702 157.691 114.254 156.135 113.774 154.21C113.268 152.176 111.468 150.844 109.066 151.261C109.553 153.877 109.496 156.364 108.956 158.297C108.477 160.015 107.673 160.694 106.478 160.992ZM107.276 151.823C105.075 152.849 103.867 155.278 104.439 157.575C104.795 159.004 105.486 159.392 106.044 159.253C106.526 159.133 106.883 158.78 107.136 157.876C107.583 156.297 107.659 154.151 107.276 151.823ZM126.053 143.07L129.717 142.157C130.105 142.061 130.408 142.282 130.497 142.639C130.59 143.012 130.388 143.326 130.03 143.415L126.848 144.208C126.398 144.32 126.207 144.615 126.319 145.065L128.765 154.877C128.854 155.234 128.601 155.544 128.228 155.637C127.871 155.726 127.472 155.579 127.383 155.221L124.853 145.068C124.593 144.028 125.013 143.33 126.053 143.07ZM137.842 153.39L137.154 150.363C136.982 151.329 136.706 152.271 136.38 152.946C136.228 153.265 136.007 153.435 135.774 153.493C135.386 153.59 134.986 153.376 134.89 152.988C134.851 152.833 134.867 152.631 134.964 152.425C135.566 151.138 135.944 149.543 136.124 147.882L134.524 148.281C134.136 148.377 133.842 148.055 133.753 147.698C133.66 147.325 133.773 146.918 134.145 146.825L136.086 146.342L134.929 141.699C134.825 141.28 135.178 140.978 135.582 140.877C135.985 140.777 136.439 140.878 136.544 141.297L137.7 145.939L139.191 145.568C139.579 145.471 139.87 145.778 139.963 146.15C140.052 146.507 139.943 146.93 139.555 147.027L138.064 147.399L138.227 148.051C139.158 148.346 140.093 148.789 140.492 149.069C140.733 149.24 140.861 149.422 140.911 149.624C141.008 150.012 140.759 150.404 140.386 150.497C140.184 150.547 139.944 150.508 139.707 150.353C139.389 150.135 139.025 149.929 138.648 149.743L139.852 154.571C139.968 155.037 139.622 155.37 139.218 155.471C138.815 155.572 138.353 155.439 138.237 154.974L137.842 153.39ZM146.881 146.916L147.906 146.397C147.964 146.366 148.011 146.354 148.073 146.339C148.508 146.231 148.876 146.584 148.977 146.988C149.054 147.298 148.957 147.636 148.607 147.822L147.276 148.5L148.239 152.366C148.359 152.847 147.998 153.184 147.579 153.289C147.144 153.397 146.667 153.269 146.547 152.787L145.676 149.294L142.28 151.014C142.221 151.046 142.175 151.057 142.128 151.069C141.694 151.177 141.306 150.812 141.205 150.408C141.128 150.098 141.206 149.749 141.559 149.578L145.282 147.711L143.309 139.793C143.189 139.311 143.55 138.974 143.985 138.866C144.404 138.761 144.881 138.89 145.001 139.371L146.881 146.916ZM137.746 142.811C137.75 142.497 137.963 142.295 138.227 142.23C138.569 142.145 138.968 142.292 139.061 142.665C139.073 142.712 139.088 142.774 139.088 142.84C139.092 143.383 139.021 144.093 138.904 144.617C138.838 144.881 138.632 145.047 138.415 145.101C138.074 145.187 137.693 145.05 137.612 144.724C137.593 144.647 137.589 144.565 137.612 144.461C137.694 143.995 137.745 143.405 137.746 142.811ZM134.606 143.643C134.989 144.125 135.361 144.626 135.478 144.96C135.505 145.002 135.516 145.049 135.528 145.095C135.632 145.515 135.341 145.868 134.984 145.957C134.705 146.026 134.386 145.941 134.22 145.603C134.03 145.238 133.712 144.69 133.468 144.372C133.414 144.287 133.379 144.213 133.359 144.135C133.274 143.794 133.55 143.511 133.892 143.426C134.14 143.364 134.416 143.41 134.606 143.643ZM141.588 141.689C142.1 141.891 142.678 142.159 143.136 142.474C143.353 142.618 143.481 142.8 143.527 142.987C143.636 143.421 143.337 143.875 142.917 143.98C142.716 144.03 142.479 144.006 142.246 143.866C141.785 143.602 141.273 143.334 140.857 143.124C140.613 143.004 140.466 142.81 140.419 142.623C140.319 142.22 140.599 141.754 141.049 141.642C141.204 141.603 141.386 141.607 141.588 141.689ZM141.807 145.081C142.354 145.291 142.893 145.536 143.42 145.866C143.638 146.01 143.766 146.192 143.812 146.378C143.92 146.813 143.625 147.282 143.206 147.387C143.004 147.437 142.783 147.41 142.55 147.27C142.108 147.017 141.518 146.703 141.076 146.516C140.816 146.399 140.673 146.221 140.622 146.019C140.522 145.615 140.817 145.146 141.267 145.034C141.423 144.995 141.605 144.999 141.807 145.081ZM159.22 143.495L158.087 143.777C156.736 144.114 156.042 143.71 155.763 142.592L154.808 138.757C154.529 137.64 154.949 136.941 156.299 136.605L160.289 135.611C161.64 135.274 162.354 135.69 162.632 136.807L163.588 140.642C163.866 141.76 163.427 142.447 162.077 142.783L160.881 143.081L161.241 144.525L163.632 143.929C164.02 143.832 164.311 144.139 164.404 144.512C164.493 144.869 164.384 145.292 163.996 145.388L161.605 145.984L162.023 147.661L165.392 146.821C165.78 146.725 166.071 147.031 166.163 147.404C166.252 147.761 166.143 148.184 165.755 148.281L156.595 150.563C156.223 150.656 155.928 150.334 155.839 149.977C155.746 149.604 155.859 149.197 156.232 149.104L160.361 148.075L159.944 146.398L157.522 147.002C157.149 147.095 156.854 146.772 156.765 146.415C156.673 146.043 156.785 145.635 157.158 145.542L159.58 144.939L159.22 143.495ZM157.909 142.338L158.918 142.086L158.547 140.596L157.041 140.971L157.312 142.058C157.401 142.415 157.583 142.419 157.909 142.338ZM156.701 139.605L158.207 139.23L157.835 137.739L156.826 137.991C156.438 138.087 156.349 138.192 156.43 138.518L156.701 139.605ZM159.388 137.352L159.759 138.843L161.358 138.444L161.087 137.357C161.006 137.031 160.894 136.977 160.49 137.078L159.388 137.352ZM161.699 139.81L160.1 140.209L160.471 141.699L161.573 141.425C161.977 141.324 162.051 141.223 161.969 140.897L161.699 139.81ZM152.803 147.452L151.94 143.99L150.962 144.234C150.558 144.334 150.263 144.012 150.17 143.64C150.081 143.282 150.19 142.86 150.594 142.759L151.572 142.515L150.93 139.938L149.735 140.236C149.331 140.337 149.036 140.014 148.943 139.642C148.854 139.285 148.963 138.862 149.367 138.761L153.31 137.778C153.714 137.678 154.009 138 154.098 138.357C154.191 138.73 154.082 139.153 153.678 139.253L152.56 139.532L153.202 142.109L154.072 141.892C154.475 141.792 154.77 142.114 154.859 142.471C154.952 142.844 154.843 143.267 154.439 143.367L153.57 143.584L154.305 146.534C154.557 146.355 154.814 146.193 155.035 146.022C155.148 145.944 155.252 145.902 155.361 145.875C155.796 145.766 156.152 146.073 156.245 146.446C156.311 146.71 156.253 147.005 155.977 147.222C154.847 148.114 153.453 149.005 152.312 149.586C152.238 149.621 152.164 149.656 152.102 149.671C151.621 149.791 151.241 149.457 151.14 149.054C151.055 148.712 151.164 148.355 151.556 148.142C151.952 147.944 152.372 147.708 152.803 147.452ZM171.063 144.897C169.479 145.292 167.842 144.347 167.239 141.926C166.356 138.386 168.567 134.751 172.837 133.687C176.625 132.743 179.406 134.573 180.176 137.663C180.876 140.473 179.729 142.952 177.272 144.471C177.159 144.549 177.039 144.595 176.93 144.622C176.402 144.754 175.952 144.404 175.84 143.954C175.755 143.612 175.856 143.224 176.279 142.937C178.287 141.596 178.839 140.041 178.359 138.115C177.852 136.082 176.053 134.749 173.65 135.167C174.137 137.782 174.081 140.27 173.54 142.202C173.062 143.921 172.258 144.599 171.063 144.897ZM171.861 135.728C169.66 136.755 168.451 139.183 169.024 141.481C169.38 142.909 170.07 143.298 170.629 143.158C171.11 143.038 171.468 142.685 171.721 141.781C172.168 140.202 172.243 138.056 171.861 135.728ZM188.898 128.531L189.281 130.068L190.275 129.82C191.175 129.596 192.033 129.398 192.829 129.216C193.361 129.1 193.725 129.438 193.829 129.858C193.93 130.261 193.763 130.715 193.235 130.847C192.626 130.982 191.954 131.133 191.256 131.307C190.759 131.431 190.25 131.574 189.722 131.705C189.858 132.249 190.009 132.788 190.175 133.324C191.184 133.007 192.159 132.681 193.032 132.348L193.156 132.317C193.7 132.182 194.076 132.5 194.176 132.904C194.269 133.277 194.118 133.727 193.621 133.916C192.705 134.277 191.699 134.61 190.675 134.931C190.876 135.606 191.108 136.274 191.341 136.942C192.745 136.954 194.208 137.2 195.659 137.663C196.09 137.803 196.322 138.075 196.396 138.37C196.516 138.851 196.221 139.386 195.708 139.514C195.537 139.556 195.355 139.552 195.138 139.475C194.036 139.09 192.946 138.817 191.894 138.7L191.921 138.809C192.339 140.485 191.081 141.656 189.28 142.105C187.308 142.596 185.861 141.951 185.502 140.507C185.165 139.157 186.024 137.838 188.244 137.285C188.663 137.18 189.074 137.111 189.521 137.049C189.335 136.502 189.133 135.958 188.982 135.419L188.097 135.639C187.166 135.871 186.211 136.076 185.652 136.15C185.124 136.215 184.795 135.885 184.702 135.512C184.601 135.109 184.776 134.62 185.273 134.496L185.382 134.469C185.972 134.388 186.76 134.241 187.645 134.021L188.483 133.812C188.313 133.261 188.162 132.721 188.007 132.166C186.695 132.526 185.418 132.894 184.343 133.211C183.819 133.358 183.435 133.009 183.33 132.589C183.23 132.186 183.382 131.736 183.902 131.573C184.977 131.256 186.25 130.872 187.566 130.528L187.175 128.96C187.059 128.494 187.436 128.153 187.87 128.045C188.289 127.94 188.782 128.065 188.898 128.531ZM188.882 140.506C189.922 140.247 190.314 139.638 190.152 138.986L190.066 138.644C189.562 138.671 189.1 138.737 188.634 138.853C187.423 139.154 187.159 139.616 187.275 140.082C187.38 140.501 187.872 140.757 188.882 140.506ZM209.69 134.743C210.092 136.49 208.974 137.428 207.483 137.8C205.636 138.26 204.317 137.731 203.957 136.287C203.647 135.045 204.448 133.758 206.435 133.263C206.683 133.201 206.936 133.154 207.223 133.116C206.936 132.429 206.758 131.912 206.657 131.509C206.491 130.841 206.437 130.492 206.391 129.976C206.36 129.522 206.671 129.246 207.043 129.153C207.478 129.045 207.975 129.185 208.091 129.651C208.102 129.698 208.095 129.732 208.106 129.779C208.156 130.245 208.206 130.644 208.315 131.079C208.423 131.514 208.621 132.108 209.035 133.043C210.102 133.091 211.239 133.286 212.29 133.667C212.636 133.795 212.826 134.028 212.891 134.292C213 134.727 212.747 135.235 212.281 135.351C212.126 135.389 211.924 135.374 211.707 135.296C211.032 135.036 210.341 134.845 209.69 134.743ZM207.1 136.263C207.814 136.085 208.125 135.677 207.955 134.994C207.92 134.855 207.889 134.73 207.843 134.61C207.486 134.633 207.152 134.683 206.841 134.761C205.754 135.032 205.498 135.458 205.603 135.877C205.715 136.328 206.091 136.514 207.1 136.263ZM201.445 127.993C201.48 127.143 201.5 126.297 201.462 125.482C201.439 124.993 201.761 124.698 202.134 124.606C202.569 124.497 203.038 124.661 203.162 125.157C203.177 125.22 203.197 125.297 203.197 125.363C203.22 125.984 203.219 126.644 203.203 127.307C203.649 127.114 204.096 126.92 204.511 126.734C204.569 126.703 204.632 126.687 204.678 126.676C205.175 126.552 205.586 126.878 205.69 127.298C205.776 127.639 205.659 128.031 205.189 128.263C204.556 128.569 203.827 128.883 203.093 129.182C202.909 131.223 202.535 133.295 202.006 135.009C201.87 135.455 201.586 135.708 201.276 135.785C200.81 135.901 200.317 135.644 200.201 135.179C200.159 135.008 200.159 134.81 200.237 134.593C200.719 133.153 201.073 131.532 201.28 129.848C200.721 130.053 200.17 130.223 199.693 130.359C199.169 130.506 198.781 130.141 198.673 129.706C198.572 129.302 198.724 128.852 199.217 128.713C199.907 128.508 200.672 128.268 201.445 127.993ZM208.291 126.089C209.087 126.105 210.158 126.3 210.93 126.552C211.341 126.681 211.574 126.953 211.643 127.232C211.755 127.682 211.483 128.179 211.033 128.291C210.878 128.33 210.711 128.322 210.533 128.267C209.699 128.03 208.791 127.828 208.046 127.749C207.623 127.706 207.382 127.47 207.313 127.19C207.208 126.771 207.457 126.247 207.985 126.116C208.078 126.092 208.175 126.085 208.291 126.089ZM224.408 120.358C224.288 120.272 224.226 120.156 224.198 120.047C224.121 119.736 224.366 119.395 224.707 119.31C224.863 119.271 225.049 119.291 225.227 119.411C225.72 119.734 226.274 120.173 226.678 120.6C226.786 120.705 226.848 120.821 226.879 120.945C226.968 121.302 226.723 121.644 226.397 121.725C226.196 121.775 225.982 121.713 225.784 121.515C225.339 121.049 224.831 120.664 224.408 120.358ZM225.798 118.857C225.678 118.771 225.6 118.659 225.573 118.55C225.496 118.24 225.748 117.929 226.074 117.848C226.245 117.806 226.447 117.821 226.641 117.938C227.11 118.233 227.657 118.641 228.056 119.053C228.188 119.185 228.27 119.313 228.301 119.437C228.39 119.794 228.157 120.116 227.831 120.197C227.629 120.247 227.384 120.193 227.171 119.999C226.741 119.595 226.225 119.179 225.798 118.857ZM217.905 124.303L217.882 124.276C217.222 124.605 216.372 124.966 215.572 125.264L215.463 125.291C214.904 125.43 214.52 125.081 214.412 124.646C214.319 124.273 214.459 123.843 214.96 123.668C216.311 123.2 217.825 122.592 219.001 122.018C219.075 121.983 219.137 121.968 219.199 121.952C219.742 121.817 220.204 122.147 220.316 122.597C220.378 122.846 220.331 123.121 220.145 123.366C218.284 125.825 218.131 128.122 218.564 129.861C219.048 131.801 220.277 132.501 221.721 132.141C223.864 131.607 224.874 129.64 224.058 126.364C223.632 124.657 223.04 123.205 222.327 121.998C222.292 121.924 222.257 121.85 222.241 121.788C222.118 121.291 222.49 120.868 222.956 120.752C223.282 120.671 223.662 120.741 223.926 121.071C225.081 122.465 226.83 123.926 228.285 124.734C228.591 124.905 228.766 125.142 228.828 125.39C228.948 125.871 228.618 126.399 228.152 126.515C227.903 126.577 227.628 126.53 227.341 126.305C226.305 125.524 225.507 124.767 224.948 124.114L224.921 124.138C225.277 124.906 225.556 125.694 225.757 126.502C226.732 130.414 225.232 133.129 222.19 133.887C219.845 134.472 217.63 133.523 216.833 130.325C216.408 128.617 216.553 126.487 217.905 124.303ZM238.598 121.851L239.298 124.397L239.635 125.747L241.824 125.202C242.197 125.109 242.476 125.435 242.569 125.808C242.661 126.181 242.568 126.6 242.195 126.692L240.006 127.238L240.591 129.582C240.699 130.017 240.334 130.339 239.915 130.443C239.496 130.548 239.022 130.435 238.914 130L238.33 127.656L236.28 128.166C235.908 128.259 235.613 127.937 235.52 127.564C235.427 127.192 235.536 126.769 235.909 126.676L237.958 126.165L237.622 124.815L237.084 122.393C236.357 124.635 234.962 127.044 233.241 128.94C233.098 129.092 232.927 129.2 232.771 129.239C232.337 129.347 231.902 129.06 231.802 128.656C231.744 128.423 231.806 128.144 232.039 127.888C233.798 126.015 235.174 123.528 235.991 120.917L231.675 121.993C231.256 122.097 230.957 121.76 230.864 121.387C230.768 120.999 230.877 120.576 231.296 120.471L236.233 119.241L235.56 116.54C235.451 116.105 235.82 115.799 236.239 115.694C236.658 115.59 237.128 115.687 237.236 116.122L237.909 118.823L243.048 117.543C243.467 117.438 243.778 117.757 243.874 118.145C243.967 118.517 243.847 118.96 243.427 119.064L238.801 120.217C240.891 122.12 243.288 123.337 245.558 123.975C245.985 124.099 246.217 124.371 246.291 124.666C246.403 125.116 246.139 125.644 245.642 125.768C245.471 125.81 245.289 125.806 245.076 125.744C242.693 124.985 240.401 123.594 238.598 121.851ZM253.371 127.139L249.707 128.052C249.319 128.149 249.017 127.928 248.928 127.571C248.835 127.198 249.037 126.884 249.394 126.795L252.576 126.002C253.027 125.889 253.217 125.595 253.105 125.144L250.66 115.333C250.571 114.975 250.823 114.665 251.196 114.572C251.553 114.483 251.952 114.631 252.041 114.988L254.572 125.142C254.831 126.182 254.411 126.88 253.371 127.139Z" fill="#E60012"/>
</svg>
