<svg width="130" height="128" viewBox="0 0 130 128" fill="none" xmlns="http://www.w3.org/2000/svg">
<ellipse cx="64.5843" cy="63.9656" rx="63.9655" ry="64.5841" transform="rotate(-90 64.5843 63.9656)" fill="#808080"/>
<path d="M64.5843 0.000111645C80.8359 0.000110941 96.4901 6.06837 108.424 16.9943C120.358 27.9202 127.694 42.9006 128.969 58.947C130.244 74.9933 125.365 90.9259 115.303 103.566C105.242 116.207 90.739 124.626 74.6875 127.144C58.636 129.662 42.216 126.093 28.7033 117.151C15.1906 108.209 5.57856 94.5493 1.7847 78.8981C-2.00915 63.2469 0.294095 46.7544 8.23497 32.7107C16.1758 18.6671 29.1706 8.10473 44.6267 3.1308L64.5843 63.9656L64.5843 0.000111645Z" fill="#ED6D46"/>
<path d="M56.3764 86.1307C55.0164 87.0507 53.7364 87.4507 51.8964 87.4507C45.8164 87.4507 42.2564 83.6507 42.2564 77.8907C42.2564 72.4107 46.2964 68.4507 52.3364 68.4507C58.2564 68.4507 62.3764 72.5707 62.3764 77.8907C62.3764 82.0907 61.6564 84.8507 59.5764 88.7307C57.6964 92.2507 54.6964 95.6107 51.2964 98.3307C50.8564 98.6507 50.4164 98.8507 49.9364 98.8507C48.6164 98.8507 47.6564 97.8907 47.6564 96.8107C47.6564 96.1307 47.8564 95.5707 48.3764 95.1707C52.0164 92.4507 54.6964 89.6107 56.3764 86.1307ZM52.3364 72.2107C48.9764 72.2107 46.8964 74.6107 46.8964 78.0907C46.8964 81.6507 49.0164 83.8107 52.1364 83.8107C54.6964 83.8107 56.4564 82.8507 57.4964 81.2907C57.7764 80.2507 57.8164 79.2507 57.8164 78.0907C57.8164 74.6507 55.6164 72.2107 52.3364 72.2107ZM73.7682 74.4107L73.2482 80.6507C74.4882 79.9707 75.6882 79.6507 76.8883 79.6507C83.0482 79.6507 87.4083 83.0907 87.4083 89.1707C87.4083 95.2507 82.9283 99.2507 76.9683 99.2507C73.6882 99.2507 70.7282 98.2907 68.6882 96.6507C68.0082 96.0907 67.8082 95.5707 67.8082 94.8507C67.8082 93.6507 68.7682 92.7707 70.0882 92.7707C70.4482 92.7707 70.8082 92.8907 71.2882 93.2507C73.3682 94.7707 74.9282 95.2507 76.8883 95.2507C80.2482 95.2507 82.6083 92.8507 82.6083 89.3307C82.6083 85.6907 80.3682 83.5707 76.8883 83.5707C75.6482 83.5707 74.4083 83.9707 73.4482 84.5707C72.5682 85.0907 72.2082 85.3307 71.4482 85.3307C70.0482 85.3307 68.8482 84.4907 68.8482 82.9707L68.8482 82.7307L69.6882 72.1307C69.8482 70.2507 71.3282 69.0907 73.4482 69.0907L84.3282 69.0907C85.5282 69.0907 86.2483 69.9707 86.2483 71.1707C86.2483 72.3707 85.5282 73.2507 84.3282 73.2507L75.0882 73.2507C74.2082 73.2507 73.8482 73.5707 73.7682 74.4107Z" fill="white"/>
<path d="M93.5815 96.1246L104.318 80.7686C104.472 80.5486 104.692 80.4606 104.956 80.4606C105.44 80.4606 105.836 80.8566 105.836 81.2526C105.836 81.4286 105.792 81.5826 105.682 81.7366L94.9455 97.0926C94.8135 97.2686 94.5715 97.4006 94.3075 97.4006C93.8455 97.4006 93.4275 97.0706 93.4275 96.6306C93.4275 96.4546 93.4715 96.2786 93.5815 96.1246ZM94.9015 80.4606C97.1235 80.4606 98.5755 82.0886 98.5755 84.9926C98.5755 87.8966 97.1015 89.6346 94.9015 89.6346C92.6795 89.6346 91.2055 87.9186 91.2055 85.0146C91.2055 82.1106 92.6795 80.4606 94.9015 80.4606ZM94.9015 82.1986C93.7795 82.1986 93.2735 83.1886 93.2735 85.0366C93.2735 86.8846 93.7355 87.8966 94.8795 87.8966C96.0015 87.8966 96.5075 86.8186 96.5075 84.9706C96.5075 83.1226 96.0235 82.1986 94.9015 82.1986ZM104.384 88.2266C106.606 88.2266 108.058 89.8546 108.058 92.7586C108.058 95.6626 106.584 97.4006 104.384 97.4006C102.162 97.4006 100.688 95.6846 100.688 92.7806C100.688 89.8766 102.162 88.2266 104.384 88.2266ZM104.384 89.9646C103.262 89.9646 102.756 90.9546 102.756 92.8026C102.756 94.6506 103.218 95.6626 104.362 95.6626C105.506 95.6626 105.99 94.5846 105.99 92.7366C105.99 90.8886 105.506 89.9646 104.384 89.9646Z" fill="white"/>
<path d="M23.9129 98.3466L23.9129 90.3166C23.0109 90.3826 22.1309 90.4266 21.2949 90.4706C20.6569 90.4926 20.3489 89.9646 20.3489 89.4366C20.3489 88.9086 20.6349 88.4026 21.2509 88.4026C21.6029 88.4026 21.9769 88.3806 22.3509 88.3586C22.8349 87.7206 23.2969 87.0386 23.7589 86.3566C22.9229 85.3886 21.9989 84.4206 21.1849 83.6726C20.9429 83.4526 20.8329 83.1886 20.8329 82.9466C20.8329 82.4186 21.3169 81.9346 21.8889 81.9346C22.1089 81.9346 22.3729 82.0226 22.5929 82.2206L22.6589 82.2646C23.1429 81.4286 23.6269 80.4606 24.0449 79.4926C24.2429 79.0306 24.6609 78.8326 25.0569 78.8326C25.6289 78.8326 26.2009 79.2066 26.2009 79.8006C26.2009 79.9326 26.1789 80.0646 26.1129 80.2186C25.5849 81.4506 24.8809 82.6606 24.1769 83.7826C24.4189 84.0246 24.6609 84.2886 24.8809 84.5746C25.3429 83.7826 25.7829 83.0346 26.1349 82.3526C26.3329 81.9346 26.6849 81.7806 27.0369 81.7806C27.6089 81.7806 28.2029 82.2206 28.2029 82.7926C28.2029 82.9466 28.1589 83.1226 28.0489 83.2986C27.1689 84.8606 25.9809 86.7086 24.8589 88.2266C25.4969 88.1606 26.1349 88.1166 26.7729 88.0506C26.6629 87.8746 26.5529 87.6986 26.4649 87.5446C26.3769 87.3906 26.3329 87.2366 26.3329 87.0826C26.3329 86.6206 26.7949 86.2466 27.2789 86.2466C27.5869 86.2466 27.9169 86.3786 28.1369 86.7086C28.6649 87.4566 29.2809 88.6226 29.6549 89.6126C29.6989 89.7446 29.7209 89.8546 29.7209 89.9646C29.7209 90.5366 29.1709 90.9106 28.6429 90.9106C28.2909 90.9106 27.9609 90.7346 27.8069 90.3386C27.7629 90.1846 27.6969 90.0306 27.6309 89.8986C27.1469 89.9646 26.6409 90.0306 26.1569 90.0746L26.1569 98.3466C26.1569 98.9186 25.6069 99.2266 25.0349 99.2266C24.4849 99.2266 23.9129 98.9186 23.9129 98.3466ZM33.3509 83.1006L37.1569 83.1006C39.1149 83.1006 39.8629 83.9146 39.8629 85.6086C39.8629 89.6346 39.5329 93.4186 39.0489 95.8606C38.6309 97.9726 37.5969 98.7206 35.8589 98.7206C35.3089 98.7206 34.7589 98.6766 34.2309 98.5666C33.4829 98.4126 33.1529 97.8846 33.1529 97.3566C33.1529 96.7406 33.5929 96.1246 34.3629 96.1246C34.4289 96.1246 34.5169 96.1246 34.6049 96.1466C35.0229 96.2346 35.3969 96.2786 35.7049 96.2786C36.2769 96.2786 36.5409 96.0806 36.6949 95.3106C37.1349 93.0226 37.4429 89.5026 37.4429 85.9166C37.4429 85.3886 37.2669 85.2346 36.6509 85.2346L32.3609 85.2346C32.0309 85.8726 31.6789 86.4886 31.2829 87.0826C30.9749 87.5446 30.5789 87.7206 30.1829 87.7206C29.5669 87.7206 28.9949 87.2366 28.9949 86.6206C28.9949 86.3786 29.0609 86.1366 29.2369 85.8946C30.4249 84.1346 31.3489 81.9786 31.9209 79.7126C32.0749 79.0966 32.5589 78.8326 33.0649 78.8326C33.6809 78.8326 34.3409 79.2726 34.3409 79.9326C34.3409 80.0426 34.3189 80.1306 34.2969 80.2406C34.0329 81.2086 33.7249 82.1546 33.3509 83.1006ZM28.4229 91.8346C28.7529 92.7366 29.0829 93.8366 29.2589 94.8046C29.2809 94.8926 29.2809 94.9586 29.2809 95.0466C29.2809 95.6406 28.7749 95.9706 28.2909 95.9706C27.8729 95.9706 27.4549 95.7286 27.3669 95.2446C27.2129 94.2766 26.9269 93.1546 26.6409 92.2966C26.5969 92.1866 26.5969 92.0986 26.5969 92.0106C26.5969 91.5266 27.0589 91.2186 27.5429 91.2186C27.8949 91.2186 28.2689 91.3946 28.4229 91.8346ZM21.5809 92.2086C21.6689 91.7246 22.0869 91.4826 22.5049 91.4826C22.9889 91.4826 23.4729 91.7906 23.4729 92.3406L23.4729 92.4726C23.2969 93.9246 22.9009 95.4206 22.4609 96.4326C22.2629 96.8946 21.8669 97.0706 21.4929 97.0706C20.9869 97.0706 20.4809 96.7406 20.4809 96.1906C20.4809 96.0586 20.5249 95.9046 20.5909 95.7506C20.9869 94.9146 21.3829 93.4846 21.5809 92.2086ZM33.6149 88.4026C34.2309 89.0626 34.8249 89.7886 35.2869 90.5586C35.4409 90.8006 35.5069 91.0426 35.5069 91.2846C35.5069 91.9666 34.9129 92.4946 34.2749 92.4946C33.9009 92.4946 33.5269 92.3186 33.2409 91.8566C32.7789 91.0866 32.3169 90.4266 31.7669 89.7666C31.5689 89.5246 31.4809 89.2826 31.4809 89.0406C31.4809 88.4466 32.0529 87.9846 32.6689 87.9846C32.9989 87.9846 33.3289 88.0946 33.6149 88.4026Z" fill="white"/>
<path d="M14.7905 36.2772L17.1505 36.2772C17.4005 36.2772 17.5505 36.4572 17.5505 36.6872C17.5505 36.9272 17.3805 37.0872 17.1505 37.0872L15.1005 37.0872C14.8105 37.0872 14.6505 37.2372 14.6505 37.5272L14.6505 43.8472C14.6505 44.0772 14.4505 44.2272 14.2105 44.2272C13.9805 44.2272 13.7605 44.0772 13.7605 43.8472L13.7605 37.3072C13.7605 36.6372 14.1205 36.2772 14.7905 36.2772ZM23.9005 36.9572L23.9005 37.9472L24.5405 37.9472C25.1205 37.9472 25.6705 37.9572 26.1805 37.9672C26.5205 37.9772 26.6905 38.2372 26.6905 38.5072C26.6905 38.7672 26.5205 39.0172 26.1805 39.0172C25.7905 39.0072 25.3605 38.9972 24.9105 38.9972C24.5905 38.9972 24.2605 39.0072 23.9205 39.0072C23.9205 39.3572 23.9305 39.7072 23.9505 40.0572C24.6105 40.0172 25.2505 39.9672 25.8305 39.8972L25.9105 39.8972C26.2605 39.8972 26.4405 40.1472 26.4405 40.4072C26.4405 40.6472 26.2805 40.8972 25.9505 40.9372C25.3405 41.0172 24.6805 41.0672 24.0105 41.1072C24.0305 41.5472 24.0705 41.9872 24.1105 42.4272C24.9605 42.6472 25.8105 43.0172 26.6205 43.5172C26.8605 43.6672 26.9605 43.8672 26.9605 44.0572C26.9605 44.3672 26.7005 44.6472 26.3705 44.6472C26.2605 44.6472 26.1505 44.6172 26.0305 44.5372C25.4205 44.1372 24.8005 43.8072 24.1805 43.5772L24.1805 43.6472C24.1805 44.7272 23.2405 45.2472 22.0805 45.2472C20.8105 45.2472 20.0305 44.6372 20.0305 43.7072C20.0305 42.8372 20.7505 42.1672 22.1805 42.1672C22.4505 42.1672 22.7105 42.1872 22.9905 42.2172C22.9605 41.8572 22.9205 41.4972 22.9105 41.1472L22.3405 41.1472C21.7405 41.1472 21.1305 41.1272 20.7805 41.0872C20.4505 41.0472 20.3005 40.7972 20.3005 40.5572C20.3005 40.2972 20.4805 40.0272 20.8005 40.0272L20.8705 40.0272C21.2405 40.0672 21.7405 40.0972 22.3105 40.0972L22.8505 40.0972C22.8305 39.7372 22.8205 39.3872 22.8105 39.0272C21.9605 39.0472 21.1305 39.0772 20.4305 39.1072C20.0905 39.1172 19.9105 38.8472 19.9105 38.5772C19.9105 38.3172 20.0705 38.0672 20.4105 38.0472C21.1105 38.0172 21.9405 37.9772 22.7905 37.9672L22.7905 36.9572C22.7905 36.6572 23.0705 36.5072 23.3505 36.5072C23.6205 36.5072 23.9005 36.6572 23.9005 36.9572ZM22.0805 44.2172C22.7505 44.2172 23.0805 43.9072 23.0805 43.4872L23.0805 43.2672C22.7705 43.2072 22.4805 43.1772 22.1805 43.1772C21.4005 43.1772 21.1705 43.4172 21.1705 43.7172C21.1705 43.9872 21.4305 44.2172 22.0805 44.2172ZM35.5705 43.8672C35.5505 44.9872 34.7305 45.3872 33.7705 45.3872C32.5805 45.3872 31.8605 44.8672 31.8605 43.9372C31.8605 43.1372 32.5405 42.4772 33.8205 42.4772C33.9805 42.4772 34.1405 42.4872 34.3205 42.5072C34.2505 42.0472 34.2205 41.7072 34.2205 41.4472C34.2205 41.0172 34.2405 40.7972 34.2905 40.4772C34.3405 40.1972 34.5705 40.0772 34.8105 40.0772C35.0905 40.0772 35.3705 40.2372 35.3705 40.5372C35.3705 40.5672 35.3605 40.5872 35.3605 40.6172C35.3205 40.9072 35.2905 41.1572 35.2905 41.4372C35.2905 41.7172 35.3205 42.1072 35.4305 42.7372C36.0705 42.9272 36.7305 43.2172 37.3105 43.6072C37.5005 43.7372 37.5805 43.9072 37.5805 44.0772C37.5805 44.3572 37.3505 44.6272 37.0505 44.6272C36.9505 44.6272 36.8305 44.5872 36.7105 44.5072C36.3405 44.2472 35.9505 44.0272 35.5705 43.8672ZM33.7705 44.3972C34.2305 44.3972 34.4805 44.1972 34.4805 43.7572C34.4805 43.6672 34.4805 43.5872 34.4705 43.5072C34.2505 43.4672 34.0405 43.4472 33.8405 43.4472C33.1405 43.4472 32.9205 43.6672 32.9205 43.9372C32.9205 44.2272 33.1205 44.3972 33.7705 44.3972ZM31.5905 38.5272C31.7405 38.0172 31.8805 37.5072 31.9805 37.0072C32.0405 36.7072 32.2805 36.5772 32.5205 36.5772C32.8005 36.5772 33.0605 36.7472 33.0605 37.0672C33.0605 37.1072 33.0605 37.1572 33.0505 37.1972C32.9705 37.5772 32.8705 37.9772 32.7605 38.3772C33.0605 38.3272 33.3605 38.2772 33.6405 38.2272C33.6805 38.2172 33.7205 38.2172 33.7505 38.2172C34.0705 38.2172 34.2705 38.4772 34.2705 38.7472C34.2705 38.9672 34.1405 39.1872 33.8205 39.2572C33.3905 39.3472 32.9005 39.4272 32.4105 39.4972C31.9905 40.7072 31.4505 41.9072 30.8705 42.8672C30.7205 43.1172 30.5105 43.2272 30.3105 43.2272C30.0105 43.2272 29.7505 42.9972 29.7505 42.6972C29.7505 42.5872 29.7805 42.4672 29.8605 42.3472C30.3705 41.5472 30.8305 40.6172 31.2105 39.6272C30.8405 39.6672 30.4805 39.6872 30.1705 39.6972C29.8305 39.7072 29.6505 39.4272 29.6505 39.1472C29.6505 38.8872 29.8105 38.6372 30.1305 38.6272C30.5805 38.6072 31.0805 38.5772 31.5905 38.5272ZM36.0305 38.4072C36.5105 38.5372 37.1305 38.8172 37.5605 39.0872C37.7905 39.2272 37.8905 39.4272 37.8905 39.6072C37.8905 39.8972 37.6505 40.1572 37.3605 40.1572C37.2605 40.1572 37.1605 40.1272 37.0605 40.0672C36.5905 39.7972 36.0705 39.5372 35.6305 39.3772C35.3805 39.2872 35.2705 39.1072 35.2705 38.9272C35.2705 38.6572 35.5005 38.3772 35.8405 38.3772C35.9005 38.3772 35.9605 38.3872 36.0305 38.4072ZM43.0405 40.8472L43.0605 40.8572C43.3505 40.6772 43.6505 40.5972 43.9705 40.5972C44.8905 40.5972 45.3905 41.1472 45.4605 42.7072C45.5105 43.7972 45.7505 43.9472 46.1305 43.9472C46.5805 43.9472 46.9605 43.5572 47.3105 42.6472C47.4105 42.3872 47.6305 42.2672 47.8505 42.2672C48.1505 42.2672 48.4505 42.4872 48.4505 42.8072C48.4505 42.8772 48.4305 42.9572 48.4005 43.0472C47.8805 44.4272 47.1305 45.0772 46.0505 45.0772C45.0105 45.0772 44.3705 44.5172 44.3005 42.8072C44.2605 41.8172 44.1105 41.6072 43.7005 41.6072C43.1705 41.6072 42.6305 42.0972 42.1405 43.1172C41.9205 43.5772 41.6305 44.1872 41.4105 44.6672C41.3005 44.8972 41.0905 45.0072 40.8805 45.0072C40.5805 45.0072 40.2805 44.7972 40.2805 44.4772C40.2805 44.4072 40.3005 44.3372 40.3305 44.2572C41.2105 42.1372 42.4805 39.4272 43.6305 37.2972C43.7405 37.0872 43.9405 36.9972 44.1405 36.9972C44.4605 36.9972 44.7705 37.2172 44.7705 37.5172C44.7705 37.5972 44.7505 37.6772 44.7105 37.7572L43.0405 40.8472ZM54.6224 38.8772L54.6224 38.8572C53.4224 39.0172 51.8324 39.2572 50.3924 39.4672C50.3524 39.4772 50.3224 39.4772 50.2924 39.4772C49.9324 39.4772 49.7324 39.1872 49.7324 38.9072C49.7324 38.6472 49.8924 38.4072 50.2524 38.3572C52.3324 38.0972 54.9124 37.8072 56.9924 37.6172L57.0524 37.6172C57.4024 37.6172 57.5924 37.8772 57.5924 38.1472C57.5924 38.3872 57.4424 38.6272 57.1324 38.6872C56.7824 38.7472 56.4024 38.8772 56.0324 39.0872C54.4724 39.9772 54.1424 41.0172 54.1424 41.9672C54.1424 43.0772 54.9124 43.7572 56.3124 43.9272C56.6824 43.9772 56.8524 44.2472 56.8524 44.5172C56.8524 44.8172 56.6624 45.1072 56.2624 45.1072C56.1924 45.1072 55.9824 45.0972 55.8124 45.0672C53.9924 44.7272 52.9824 43.4872 52.9824 41.9972C52.9824 40.9472 53.4924 39.7672 54.6224 38.8772ZM56.1924 40.6972C56.1224 40.6172 56.0924 40.5372 56.0924 40.4672C56.0924 40.2672 56.2924 40.0872 56.5124 40.0872C56.6024 40.0872 56.7024 40.1172 56.7924 40.1972C57.0624 40.4372 57.3624 40.7572 57.5724 41.0672C57.6424 41.1572 57.6624 41.2472 57.6624 41.3372C57.6624 41.5572 57.4724 41.7372 57.2624 41.7372C57.1424 41.7372 57.0224 41.6772 56.9324 41.5472C56.6924 41.2172 56.4224 40.9272 56.1924 40.6972ZM57.1924 39.9072C57.1124 39.8272 57.0824 39.7472 57.0824 39.6672C57.0824 39.4672 57.2724 39.2972 57.5024 39.2972C57.6024 39.2972 57.7024 39.3372 57.8024 39.4172C58.0624 39.6372 58.3624 39.9472 58.5724 40.2372C58.6524 40.3372 58.6824 40.4372 58.6824 40.5372C58.6824 40.7572 58.4924 40.9172 58.2824 40.9172C58.1624 40.9172 58.0324 40.8672 57.9324 40.7372C57.7024 40.4472 57.4224 40.1472 57.1924 39.9072ZM64.8924 37.1672L64.8924 37.8172C64.8924 38.1672 64.8924 38.5072 64.9024 38.8372C65.5924 38.7872 66.2824 38.6972 66.8724 38.5672C66.9124 38.5572 66.9524 38.5572 66.9924 38.5572C67.3224 38.5572 67.5124 38.8272 67.5124 39.1072C67.5124 39.3372 67.3824 39.5672 67.0724 39.6372C66.4424 39.7772 65.6924 39.8772 64.9324 39.9172C64.9824 40.7172 65.0224 41.5272 65.1224 42.3172C66.0124 42.5872 66.8924 43.0072 67.6724 43.5272C67.8824 43.6672 67.9624 43.8572 67.9624 44.0372C67.9624 44.3472 67.7224 44.6372 67.3824 44.6372C67.2524 44.6372 67.1124 44.5972 66.9624 44.4872C66.4124 44.1072 65.7924 43.7572 65.1624 43.4972C65.0424 44.4972 64.2524 45.1872 62.8824 45.1872C61.6324 45.1872 60.7524 44.6172 60.7524 43.5972C60.7524 42.7172 61.5624 41.9772 62.9124 41.9772C63.2524 41.9772 63.6024 42.0072 63.9624 42.0572C63.8424 40.8872 63.7424 39.5072 63.7424 37.7872L63.7424 37.1672C63.7424 36.8472 64.0324 36.6972 64.3224 36.6972C64.6024 36.6972 64.8924 36.8472 64.8924 37.1672ZM62.8824 44.1372C63.5424 44.1372 64.0324 43.7572 64.0324 43.1472C63.6524 43.0572 63.2724 43.0072 62.9124 43.0072C62.2624 43.0072 61.9424 43.2472 61.9424 43.5972C61.9424 43.9572 62.2224 44.1372 62.8824 44.1372ZM73.7524 40.0372C73.3524 41.6872 72.7724 43.3072 72.0624 44.5572C71.9324 44.7872 71.7224 44.8772 71.5224 44.8772C71.2324 44.8772 70.9724 44.6772 70.9724 44.3772C70.9724 44.2872 71.0024 44.1772 71.0624 44.0672C71.6924 42.9572 72.2124 41.5872 72.5924 40.1572C72.1824 40.2072 71.7824 40.2772 71.4024 40.3572C71.3624 40.3672 71.3124 40.3672 71.2724 40.3672C70.9624 40.3672 70.7924 40.1172 70.7924 39.8572C70.7924 39.6272 70.9324 39.3972 71.2424 39.3372C71.7524 39.2372 72.3024 39.1672 72.8324 39.1072C72.9524 38.4972 73.0524 37.8772 73.1224 37.2672C73.1624 36.9472 73.4124 36.7972 73.6724 36.7972C73.9524 36.7972 74.2324 36.9772 74.2324 37.2972L74.2324 37.3672C74.1724 37.9072 74.0824 38.4672 73.9724 39.0172C74.1724 39.0072 74.3524 39.0072 74.5124 39.0072C75.7924 39.0072 76.2624 39.5872 76.2624 41.1572C76.2624 42.0972 76.1624 42.9372 75.9924 43.5472C75.6724 44.6972 75.2224 45.1072 74.2124 45.1072C73.9724 45.1072 73.7224 45.0872 73.5324 45.0572C73.1924 45.0072 73.0424 44.7572 73.0424 44.5172C73.0424 44.2372 73.2224 43.9672 73.5524 43.9672C73.5724 43.9672 73.6024 43.9772 73.6324 43.9772C73.8224 43.9972 73.9724 44.0172 74.1824 44.0172C74.5324 44.0172 74.7124 43.9072 74.8824 43.3172C75.0524 42.7472 75.1424 41.9672 75.1424 41.1472C75.1424 40.2472 74.9724 40.0072 74.4924 40.0072C74.2724 40.0072 74.0224 40.0172 73.7524 40.0372ZM77.8324 38.3272C78.4624 38.9272 79.0824 39.8472 79.4224 40.5172C79.4824 40.6372 79.5024 40.7572 79.5024 40.8572C79.5024 41.2072 79.2224 41.4372 78.9224 41.4372C78.7224 41.4372 78.5124 41.3272 78.3724 41.0572C78.0124 40.3372 77.4824 39.5672 76.9524 38.9972C76.8424 38.8772 76.7924 38.7472 76.7924 38.6372C76.7924 38.3572 77.0724 38.1372 77.3724 38.1372C77.5324 38.1372 77.6924 38.1972 77.8324 38.3272ZM86.2224 39.9872C87.6824 39.9872 88.6824 40.7772 88.6824 42.0372C88.6824 43.5972 87.5124 44.6972 85.2724 45.0172C85.2424 45.0272 85.2024 45.0272 85.1724 45.0272C84.8724 45.0272 84.7124 44.7772 84.7124 44.5372C84.7124 44.3272 84.8424 44.1172 85.1224 44.0672C87.0224 43.7372 87.6724 43.0972 87.6724 42.0372C87.6724 41.3972 87.2124 40.8972 86.2224 40.8972C85.1924 40.8972 83.9024 41.2272 82.4324 41.8772C82.3524 41.9172 82.2724 41.9272 82.1924 41.9272C81.9124 41.9272 81.7224 41.6972 81.7224 41.4572C81.7224 41.2772 81.8224 41.0872 82.0624 40.9872C83.5424 40.3372 85.0424 39.9872 86.2224 39.9872ZM93.2424 39.7472C92.8324 39.8072 92.4224 39.8672 92.0124 39.8672C91.6824 39.8672 91.5124 39.6172 91.5124 39.3472C91.5124 39.0772 91.6824 38.8172 92.0224 38.7972C92.4224 38.7772 92.9024 38.7172 93.4424 38.6272C93.5324 38.0772 93.5724 37.6372 93.6324 37.0872C93.6624 36.7772 93.9224 36.6272 94.1824 36.6272C94.4624 36.6272 94.7424 36.8072 94.7424 37.1272L94.7424 37.1872C94.6924 37.6672 94.6424 38.0272 94.5824 38.4072C94.8624 38.3472 95.1524 38.2772 95.4424 38.2072C95.4924 38.1972 95.5424 38.1872 95.5924 38.1872C95.9024 38.1872 96.0924 38.4472 96.0924 38.7172C96.0924 38.9272 95.9724 39.1372 95.7024 39.2072C95.2424 39.3372 94.8024 39.4472 94.4024 39.5372C94.0424 41.4972 93.5624 43.3472 93.0024 44.7972C92.8824 45.0972 92.6324 45.2372 92.3924 45.2372C92.1124 45.2372 91.8424 45.0372 91.8424 44.7272C91.8424 44.6372 91.8624 44.5472 91.9024 44.4472C92.4524 43.0872 92.8924 41.4972 93.2424 39.7472ZM95.2524 43.1772C95.2524 42.8372 95.5324 42.6472 95.8124 42.6472C96.0424 42.6472 96.2624 42.7772 96.2924 43.0672C96.3624 43.7072 96.7224 43.8872 97.8124 43.8872C98.3224 43.8872 98.7524 43.8472 99.1524 43.7872C99.1824 43.7772 99.2324 43.7772 99.2624 43.7772C99.6024 43.7772 99.7924 44.0672 99.7924 44.3372C99.7924 44.5772 99.6424 44.8172 99.3324 44.8672C98.9024 44.9372 98.4024 44.9772 97.8324 44.9772C96.4324 44.9772 95.8124 44.6172 95.4924 44.1072C95.3324 43.8572 95.2524 43.4572 95.2524 43.1772ZM96.2524 39.9072C97.0324 39.7472 98.0224 39.6372 98.8224 39.6372C99.1824 39.6372 99.3624 39.9072 99.3624 40.1772C99.3624 40.4372 99.1924 40.6872 98.8524 40.6872C98.0524 40.6872 97.1224 40.8072 96.4124 40.9472C96.3724 40.9572 96.3224 40.9572 96.2924 40.9572C95.9824 40.9572 95.7924 40.7072 95.7924 40.4372C95.7924 40.2072 95.9324 39.9772 96.2524 39.9072ZM105.472 38.8672C105.462 38.6872 105.392 37.9772 105.392 37.7072C105.392 37.2772 105.702 37.0272 106.112 37.0272C106.512 37.0272 106.812 37.2872 106.812 37.7072C106.812 37.9772 106.752 38.5772 106.732 38.8672C106.662 39.8372 106.592 41.3172 106.562 42.4272C106.552 42.6872 106.362 42.8472 106.092 42.8472C105.822 42.8472 105.652 42.6872 105.642 42.4272C105.602 41.3272 105.542 39.8472 105.472 38.8672ZM106.102 43.4972C106.532 43.4972 106.862 43.8272 106.862 44.2472C106.862 44.6672 106.532 44.9872 106.102 44.9872C105.672 44.9872 105.342 44.6672 105.342 44.2472C105.342 43.8272 105.672 43.4972 106.102 43.4972ZM114.712 45.8572L112.352 45.8572C112.102 45.8572 111.952 45.6772 111.952 45.4472C111.952 45.2072 112.122 45.0472 112.352 45.0472L114.402 45.0472C114.692 45.0472 114.852 44.8972 114.852 44.6072L114.852 38.2872C114.852 38.0572 115.052 37.9072 115.292 37.9072C115.522 37.9072 115.742 38.0572 115.742 38.2872L115.742 44.8272C115.742 45.4972 115.382 45.8572 114.712 45.8572ZM53.1615 55.7272C52.9415 54.7672 52.7915 53.5772 52.7915 52.1972C52.7915 51.8372 53.0815 51.6572 53.3715 51.6572C53.6615 51.6572 53.9515 51.8372 53.9515 52.1972C53.9515 53.3172 54.0415 54.3172 54.1815 55.1272C54.7915 54.8272 55.4715 54.5572 56.1515 54.3472C56.2115 54.3272 56.2715 54.3172 56.3315 54.3172C56.6415 54.3172 56.8515 54.5972 56.8515 54.8772C56.8515 55.0872 56.7415 55.2872 56.4815 55.3672C55.5915 55.6472 54.5915 56.0572 53.8515 56.5272C52.9915 57.0872 52.6915 57.6372 52.6915 58.1472C52.6915 58.7672 53.1015 59.0872 54.6915 59.0872C55.4915 59.0872 56.2015 59.0172 56.7615 58.9072C56.8115 58.8972 56.8515 58.8972 56.8915 58.8972C57.2415 58.8972 57.4315 59.1672 57.4315 59.4472C57.4315 59.6972 57.2915 59.9372 56.9815 60.0072C56.3015 60.1472 55.5315 60.1972 54.6815 60.1972C52.5815 60.1972 51.5315 59.5572 51.5315 58.2072C51.5315 57.3872 51.9115 56.5772 53.1615 55.7272ZM65.4315 57.9872L64.0215 57.9872C63.1315 57.9872 62.7915 57.6672 62.7915 56.9072L62.7915 55.2772C62.7915 54.5172 63.1315 54.1972 64.0215 54.1972L65.4315 54.1972C66.3215 54.1972 66.6615 54.5172 66.6615 55.2772L66.6615 56.9072C66.6615 57.7672 66.2215 57.9872 65.4315 57.9872ZM64.1815 57.0672L65.2715 57.0672C65.5215 57.0672 65.6215 56.9872 65.6215 56.7472L65.6215 55.4372C65.6215 55.1972 65.5215 55.1172 65.2715 55.1172L64.1815 55.1172C63.9315 55.1172 63.8315 55.1972 63.8315 55.4372L63.8315 56.7472C63.8315 56.9972 63.9515 57.0672 64.1815 57.0672ZM67.3815 60.3472L62.1215 60.3472C60.9915 60.3472 60.5715 59.8672 60.5715 58.9572L60.5715 53.3372C60.5715 52.4272 60.9915 51.9472 62.1215 51.9472L67.3815 51.9472C68.5115 51.9472 68.9315 52.4272 68.9315 53.3372L68.9315 58.9572C68.9315 60.0272 68.3715 60.3472 67.3815 60.3472ZM62.3515 59.3472L67.1515 59.3472C67.6415 59.3472 67.8115 59.1872 67.8115 58.7872L67.8115 53.5072C67.8115 53.1072 67.6415 52.9472 67.1515 52.9472L62.3515 52.9472C61.8615 52.9472 61.6915 53.1072 61.6915 53.5072L61.6915 58.7872C61.6915 59.2472 61.9315 59.3472 62.3515 59.3472ZM72.7315 52.6172L74.5215 52.6172C74.7815 52.6172 74.9015 52.8272 74.9015 53.0372C74.9015 53.2472 74.7815 53.4572 74.5215 53.4572L73.7015 53.4572C73.8015 53.6272 73.8915 53.7972 73.9615 53.9572C73.9915 54.0272 74.0015 54.0872 74.0015 54.1472C74.0015 54.4172 73.7615 54.5872 73.5115 54.5872C73.3215 54.5872 73.1415 54.4972 73.0515 54.2672C72.9515 54.0172 72.8315 53.7472 72.6715 53.4572L72.2715 53.4572C72.0515 53.7972 71.8215 54.1172 71.5915 54.3872C71.4515 54.5472 71.2815 54.6172 71.1315 54.6172C70.8615 54.6172 70.6315 54.3972 70.6315 54.1472C70.6315 54.0372 70.6815 53.9172 70.7815 53.7972C71.2615 53.2472 71.7015 52.4772 71.9715 51.8072C72.0615 51.5772 72.2715 51.4772 72.4715 51.4772C72.7415 51.4772 72.9915 51.6572 72.9915 51.9272C72.9915 51.9872 72.9815 52.0572 72.9515 52.1272C72.8915 52.2872 72.8115 52.4572 72.7315 52.6172ZM76.6615 52.6172L79.2515 52.6172C79.5115 52.6172 79.6415 52.8272 79.6415 53.0372C79.6415 53.2472 79.5115 53.4572 79.2515 53.4572L77.8115 53.4572C77.9315 53.6272 78.0215 53.7972 78.1115 53.9672C78.1515 54.0372 78.1615 54.1172 78.1615 54.1772C78.1615 54.4372 77.9215 54.6172 77.6715 54.6172C77.5015 54.6172 77.3315 54.5272 77.2315 54.3272C77.1015 54.0472 76.9415 53.7472 76.7515 53.4572L76.2115 53.4572C76.1215 53.5972 76.0315 53.7272 75.9415 53.8572C75.8115 54.0372 75.6515 54.1072 75.4915 54.1072L75.4715 54.1072C75.5815 54.1972 75.6515 54.3272 75.6515 54.4672C75.6515 54.4972 75.6515 54.5272 75.6415 54.5572C76.6515 55.4272 78.0015 56.1172 79.3715 56.5672C79.6515 56.6572 79.7715 56.8672 79.7715 57.0772C79.7715 57.3372 79.5715 57.5972 79.2515 57.5972C79.1715 57.5972 79.0915 57.5872 79.0015 57.5572C77.6915 57.1072 76.2215 56.2472 75.0615 55.2572C73.9915 56.3072 72.5715 57.2072 71.2115 57.7672C71.1315 57.7972 71.0615 57.8172 70.9915 57.8172C70.7015 57.8172 70.5115 57.5672 70.5115 57.3072C70.5115 57.1272 70.6115 56.9472 70.8515 56.8472C72.3015 56.2672 73.7215 55.3172 74.7215 54.1672C74.8415 54.0272 74.9815 53.9772 75.1215 53.9772L75.1515 53.9772C75.0515 53.8872 74.9915 53.7672 74.9915 53.6272C74.9915 53.5372 75.0215 53.4472 75.0915 53.3472C75.4015 52.9072 75.6915 52.4072 75.9415 51.7772C76.0315 51.5572 76.2115 51.4672 76.4015 51.4672C76.6615 51.4672 76.9215 51.6372 76.9215 51.9172C76.9215 51.9772 76.9015 52.0372 76.8815 52.1072C76.8215 52.2772 76.7415 52.4472 76.6615 52.6172ZM76.7415 60.5872L73.5515 60.5872C72.6915 60.5872 72.3315 60.2772 72.3315 59.6772L72.3315 58.7672C72.3315 58.1672 72.6915 57.8572 73.5515 57.8572L76.7415 57.8572C77.6015 57.8572 77.9615 58.1672 77.9615 58.7672L77.9615 59.6772C77.9615 60.4372 77.3915 60.5872 76.7415 60.5872ZM73.7315 59.7672L76.5615 59.7672C76.8415 59.7672 76.9015 59.6972 76.9015 59.5172L76.9015 58.9272C76.9015 58.7472 76.8415 58.6772 76.5615 58.6772L73.7315 58.6772C73.4515 58.6772 73.3915 58.7472 73.3915 58.9272L73.3915 59.5172C73.3915 59.7172 73.4715 59.7672 73.7315 59.7672ZM76.2515 57.2572L73.9915 57.2572C73.7515 57.2572 73.6215 57.0372 73.6215 56.8172C73.6215 56.5972 73.7515 56.3772 73.9915 56.3772L76.2515 56.3772C76.5015 56.3772 76.6215 56.5972 76.6215 56.8172C76.6215 57.0372 76.5015 57.2572 76.2515 57.2572Z" fill="white"/>
<path d="M105.608 78.7942L107.882 81.0622L107.738 81.2062L105.464 78.9382L103.202 81.2062L103.058 81.0622L105.32 78.7942L103.07 76.5442L103.214 76.4002L105.464 78.6502L107.714 76.4002L107.858 76.5442L105.608 78.7942ZM105.458 76.7482C105.752 76.7482 105.998 76.9942 105.998 77.2882C105.998 77.5822 105.752 77.8282 105.458 77.8282C105.164 77.8282 104.918 77.5822 104.918 77.2882C104.918 76.9942 105.164 76.7482 105.458 76.7482ZM103.952 78.2542C104.246 78.2542 104.492 78.5002 104.492 78.7942C104.492 79.0882 104.246 79.3342 103.952 79.3342C103.658 79.3342 103.412 79.0882 103.412 78.7942C103.412 78.5002 103.658 78.2542 103.952 78.2542ZM106.964 78.2542C107.258 78.2542 107.504 78.5002 107.504 78.7942C107.504 79.0882 107.258 79.3342 106.964 79.3342C106.67 79.3342 106.424 79.0882 106.424 78.7942C106.424 78.5002 106.67 78.2542 106.964 78.2542ZM105.458 79.7602C105.752 79.7602 105.998 80.0062 105.998 80.3002C105.998 80.5942 105.752 80.8402 105.458 80.8402C105.164 80.8402 104.918 80.5942 104.918 80.3002C104.918 80.0062 105.164 79.7602 105.458 79.7602Z" fill="white"/>
</svg>
