<svg width="65" height="65" viewBox="0 0 65 65" fill="none" xmlns="http://www.w3.org/2000/svg">
<g clip-path="url(#clip0_1534_3547)">
<path d="M15.1635 47.6376C18.7058 55.4876 30.2573 57.9475 40.972 53.1352C51.6867 48.3228 57.5028 38.0529 53.968 30.1969C50.4332 22.3409 38.8742 19.8869 28.1595 24.6993C17.4372 29.5176 11.6212 39.7875 15.1635 47.6376Z" fill="#E7372F"/>
<path d="M49.3701 33.1329C52.2664 39.604 45.9322 41.6397 43.1336 35.8516C40.0046 29.38 46.496 26.7056 49.3701 33.1329Z" fill="white"/>
<mask id="mask0_1534_3547" style="mask-type:luminance" maskUnits="userSpaceOnUse" x="42" y="29" width="9" height="11">
<path d="M43.1398 35.8593C45.9384 41.6474 52.2666 39.6042 49.3762 33.1406C47.7549 29.5144 44.9781 28.7843 43.431 30.0032C42.2385 30.9426 41.7791 33.0453 43.1398 35.8593Z" fill="white"/>
</mask>
<g mask="url(#mask0_1534_3547)">
<path d="M52.019 31.108C54.9153 37.5791 48.5811 39.6148 45.7826 33.8267C42.6535 27.3551 49.1449 24.6807 52.019 31.108Z" fill="#231815"/>
</g>
<path d="M49.3441 39.1235C49.163 39.2662 48.9715 39.3803 48.7681 39.4792C47.0148 40.2966 44.2738 39.379 42.6758 36.0775C41.5745 33.7946 41.5009 31.6828 42.474 30.2787C43.1334 29.3302 44.1833 28.8464 45.3615 28.9602C47.149 29.1333 48.7874 30.5764 49.8327 32.928C51.195 35.9614 50.612 38.1247 49.3441 39.1235ZM43.7408 30.3963C43.5824 30.5211 43.4342 30.6746 43.3099 30.8584C42.552 31.9458 42.655 33.6912 43.5978 35.6331C44.9081 38.3521 47.031 39.1683 48.349 38.559C49.551 38.0044 50.1904 36.1767 48.9214 33.3394C48.0374 31.3633 46.6788 30.1045 45.2769 29.9707C44.6946 29.9146 44.1694 30.0709 43.7468 30.4038L43.7408 30.3963Z" fill="#231815"/>
<path d="M31.7573 41.0504C34.6536 47.5215 28.3194 49.5572 25.5209 43.7691C22.3918 37.2975 28.8832 34.6231 31.7573 41.0504Z" fill="white"/>
<mask id="mask1_1534_3547" style="mask-type:luminance" maskUnits="userSpaceOnUse" x="24" y="37" width="9" height="11">
<path d="M25.5131 43.775C28.3117 49.5631 34.6475 47.5139 31.7496 41.0563C30.1282 37.4301 27.3515 36.7 25.8043 37.9188C24.6119 38.8582 24.1524 40.9609 25.5131 43.775Z" fill="white"/>
</mask>
<g mask="url(#mask1_1534_3547)">
<path d="M34.3962 39.339C37.2925 45.8101 30.9583 47.8458 28.1598 42.0577C25.0307 35.5861 31.5221 32.9117 34.3962 39.339Z" fill="#231815"/>
</g>
<path d="M31.7308 47.041C31.5497 47.1837 31.3582 47.2978 31.1548 47.3967C29.4015 48.2141 26.6605 47.2964 25.0626 43.995C23.9613 41.7121 23.8876 39.6003 24.8608 38.1962C25.5201 37.2477 26.57 36.7639 27.7482 36.8777C29.5358 37.0508 31.1665 38.4998 32.2194 40.8454C33.5817 43.8789 32.9987 46.0422 31.7308 47.041ZM26.12 38.3197C25.9615 38.4446 25.8134 38.5981 25.689 38.7818C24.9312 39.8692 25.0342 41.6146 25.977 43.5566C27.2873 46.2755 29.4101 47.0917 30.7281 46.4824C31.9226 45.9337 32.5696 44.1001 31.3006 41.2628C30.4166 39.2868 29.058 38.0279 27.6561 37.8941C27.0737 37.8381 26.5486 37.9943 26.126 38.3273L26.12 38.3197Z" fill="#231815"/>
<path d="M46.2014 22.9782L15.2619 36.6624L13.242 31.9404C1.40986 31.3443 8.88401 16.115 16.4205 22.6695C16.0195 14.4288 27.4683 8.96457 32.5017 14.7328C33.9654 2.57123 48.7931 7.746 44.098 16.5199L46.1938 22.9842L46.2014 22.9782Z" fill="white"/>
<path d="M46.5172 23.3789C46.5172 23.3789 46.4492 23.4324 46.4071 23.4411L15.4677 37.1253C15.3382 37.1782 15.2075 37.1831 15.0772 37.1264C14.9528 37.0773 14.8484 36.9757 14.8011 36.8536L12.9055 32.4136C8.37662 32.0831 7.08821 29.7024 6.72027 28.2883C6.06942 25.7854 7.35904 22.7958 9.71416 21.345C11.6637 20.1401 13.8827 20.2553 15.9254 21.6373C16.2115 17.2807 19.5679 14.0113 22.9888 12.6403C26.4248 11.2574 29.8419 11.6669 32.1615 13.6643C32.8135 10.3311 34.6244 8.03416 37.2318 7.29175C39.7264 6.57692 42.6132 7.47776 44.2388 9.49472C45.8049 11.436 45.9552 14.0023 44.6624 16.5531L46.6935 22.8109C46.7583 23.0173 46.6848 23.2346 46.5263 23.3594L46.5172 23.3789ZM15.526 35.9883L45.5769 22.6976L43.6208 16.6749C43.5811 16.5468 43.591 16.4042 43.6534 16.2815C45.2949 13.2107 44.2195 11.1159 43.4373 10.1385C42.0619 8.4392 39.6188 7.66689 37.5064 8.27682C36.068 8.68668 33.5766 10.0732 33.0149 14.7941C32.991 14.9967 32.8488 15.1578 32.6637 15.2178C32.4727 15.2703 32.2597 15.2173 32.133 15.072C29.749 12.3408 26.0444 12.5133 23.3702 13.5902C20.0141 14.9347 16.7188 18.2662 16.9297 22.6482C16.9404 22.8481 16.8296 23.0335 16.6473 23.1281C16.4649 23.2227 16.2429 23.1892 16.0951 23.0482C13.4918 20.7839 11.3198 21.5511 10.2493 22.2106C8.28465 23.4273 7.16899 25.9857 7.70103 28.0428C8.22275 30.0713 10.1975 31.2739 13.2678 31.4295C13.4584 31.4386 13.6364 31.5559 13.7103 31.7428L15.5319 35.9958L15.526 35.9883Z" fill="#231815"/>
<path d="M42.6867 43.7923C42.4905 43.9469 42.2824 44.0863 42.0683 44.2182C40.0452 45.4074 37.3841 45.383 34.9394 44.1584C34.6939 44.0331 34.5938 43.7197 34.711 43.4803C34.8357 43.2349 35.1427 43.1279 35.3882 43.2532C37.5215 44.3309 39.8326 44.3613 41.5542 43.3483C42.6727 42.6877 43.3762 41.6555 43.4206 40.5785C43.4329 40.2991 43.6641 40.0802 43.9433 40.0931C44.2226 40.1061 44.4419 40.3378 44.4296 40.6172C44.3844 41.8174 43.7433 42.9599 42.6867 43.7923Z" fill="#231815"/>
</g>
<defs>
<clipPath id="clip0_1534_3547">
<rect width="46.78" height="45.2206" fill="white" transform="translate(0 28.9487) rotate(-38.2308)"/>
</clipPath>
</defs>
</svg>
