<svg width="104" height="104" viewBox="0 0 104 104" fill="none" xmlns="http://www.w3.org/2000/svg">
<circle cx="52" cy="52" r="52" fill="#69BD83"/>
<path d="M25.5365 45.3689H26.9045C28.8485 45.3689 29.8805 44.3609 29.8805 42.6569C29.8805 41.2649 28.7765 40.2809 27.0245 40.2809C26.0165 40.2809 24.9605 40.7369 24.0965 41.4809C23.7845 41.7689 23.5205 41.8409 23.2325 41.8409C22.5125 41.8409 21.8885 41.2409 21.8885 40.4969C21.8885 40.1369 21.9845 39.8489 22.2485 39.6329C23.4005 38.6249 25.2485 37.8809 27.0245 37.8809C30.5285 37.8809 32.6885 39.8009 32.6885 42.5369C32.6885 44.5049 31.7285 45.8249 29.8565 46.3289C31.9925 46.9769 33.2885 48.5609 33.2885 50.6009C33.2885 54.0329 30.6965 56.3609 26.9525 56.3609C24.9845 56.3609 23.1365 55.8089 21.9365 54.8489C21.5525 54.5369 21.4085 54.2009 21.4085 53.7449C21.4085 53.0489 21.9365 52.4969 22.6805 52.4969C22.9445 52.4969 23.1605 52.5449 23.3765 52.6889C24.5765 53.5769 25.7285 53.9609 26.9525 53.9609C29.0645 53.9609 30.4085 52.5689 30.4085 50.7209C30.4085 48.8969 29.1605 47.7449 27.0485 47.7449H25.5365C24.8405 47.7449 24.4085 47.2409 24.4085 46.5449C24.4085 45.8489 24.8405 45.3689 25.5365 45.3689Z" fill="white"/>
<path d="M59.5197 40.1406L25.4612 69.9418" stroke="white" stroke-width="2" stroke-linecap="round"/>
<path d="M54.3014 70.2805H48.5894C47.4614 70.2805 46.8374 69.7045 46.8374 68.6485C46.8374 68.0005 46.9574 67.5925 47.3654 66.9205L52.8854 57.6085C53.4854 56.6005 54.0374 56.2165 55.0934 56.2165C56.4374 56.2165 56.9654 56.9125 56.9654 58.3285V68.0485H58.4054C59.2454 68.0485 59.6774 68.4325 59.6774 69.1525C59.6774 69.8725 59.2454 70.2805 58.4054 70.2805H56.9654V73.1125C56.9654 73.9765 56.4614 74.4565 55.5974 74.4565C54.7574 74.4565 54.3014 73.9765 54.3014 73.1125V70.2805ZM54.3014 68.0485V63.6325C54.3014 62.0245 54.3734 60.4645 54.4934 58.8565H54.3254C53.7014 60.2725 53.0294 61.6405 52.1894 63.1045L49.3574 68.0485H54.3014Z" fill="white"/>
<path d="M39.7075 88.5964H39.2175C38.8535 88.5964 38.6715 88.2744 38.6715 87.9524C38.6715 87.8824 38.6855 87.8124 38.6995 87.7424C37.9855 88.3164 37.2015 88.8204 36.4035 89.2264C36.2775 89.2824 36.1515 89.3104 36.0535 89.3104C35.6755 89.3104 35.3955 89.0024 35.3955 88.6664C35.3955 88.4424 35.5215 88.2044 35.8295 88.0504C36.5435 87.6864 37.2295 87.2524 37.8315 86.7764C37.5655 86.4964 37.2855 86.2584 37.1315 86.1464C36.9495 86.0064 36.8795 85.8384 36.8795 85.6564C36.8795 85.3344 37.1595 85.0264 37.5235 85.0264C37.6635 85.0264 37.8035 85.0684 37.9575 85.1804C38.2095 85.3484 38.4755 85.5864 38.7975 85.8944C39.1475 85.5444 39.4415 85.1804 39.6795 84.8164C39.7355 84.7324 39.7635 84.6624 39.7635 84.6204C39.7635 84.5364 39.6795 84.4944 39.4835 84.4944H37.2435C36.8935 84.4944 36.7115 84.1864 36.7115 83.8784C36.7115 83.5704 36.8935 83.2624 37.2435 83.2624H39.8335C40.8135 83.2624 41.3315 83.6964 41.3315 84.3264C41.3315 84.6344 41.2055 84.9704 40.9675 85.3344C40.4915 86.0344 39.9035 86.7064 39.2175 87.3084H44.6915C45.0695 87.3084 45.2515 87.6304 45.2515 87.9524C45.2515 88.2744 45.0695 88.5964 44.6915 88.5964H44.0895V90.0524H46.8755C47.2535 90.0524 47.4495 90.3744 47.4495 90.7104C47.4495 91.0324 47.2535 91.3684 46.8755 91.3684H44.0895V93.5244C44.0895 93.8604 44.2295 93.9164 45.1395 93.9164C46.1755 93.9164 46.3995 93.8184 46.4695 93.0904C46.5115 92.6984 46.8335 92.5164 47.1695 92.5164C47.5475 92.5164 47.9395 92.7404 47.9395 93.1464C47.9395 93.5244 47.8135 94.0424 47.6315 94.3364C47.2395 94.9664 46.4135 95.1764 44.9715 95.1764C43.1375 95.1764 42.6055 94.7984 42.6055 93.7904V91.3684H40.9535C40.4495 93.1604 39.1895 94.4344 37.2015 95.3164C37.0895 95.3724 36.9775 95.3864 36.8795 95.3864C36.4875 95.3864 36.1935 95.0504 36.1935 94.7004C36.1935 94.4624 36.3195 94.2244 36.6275 94.0844C38.0415 93.4124 38.9515 92.5864 39.3995 91.3684H36.9355C36.5715 91.3684 36.3755 91.0324 36.3755 90.7104C36.3755 90.3744 36.5715 90.0524 36.9355 90.0524H39.6795C39.6935 89.8284 39.7075 89.5904 39.7075 89.3384V88.5964ZM42.6055 90.0524V88.5964H41.1915V89.4364C41.1915 89.6464 41.1775 89.8424 41.1635 90.0524H42.6055ZM45.1955 85.5164C45.6015 85.2084 45.9515 84.8584 46.2875 84.4524C46.4415 84.2704 46.6235 84.2004 46.8055 84.2004C47.1695 84.2004 47.5055 84.4944 47.5055 84.8584C47.5055 84.9984 47.4635 85.1384 47.3375 85.2784C47.0015 85.6704 46.6095 86.0204 46.1895 86.3424C46.7915 86.8044 47.4495 87.2104 48.0935 87.5324C48.4435 87.7144 48.5835 87.9804 48.5835 88.2324C48.5835 88.5964 48.2895 88.9324 47.8695 88.9324C47.7435 88.9324 47.6175 88.9044 47.4775 88.8344C45.2935 87.7424 43.0255 85.5584 41.9195 83.4444C41.8635 83.3324 41.8355 83.2344 41.8355 83.1364C41.8355 82.7724 42.1715 82.5204 42.5355 82.5204C42.7735 82.5204 43.0255 82.6324 43.1935 82.9264C43.3755 83.2624 43.5715 83.5984 43.7955 83.9204C44.0895 83.6544 44.3695 83.3744 44.6355 83.0524C44.7895 82.8704 44.9715 82.8004 45.1535 82.8004C45.5175 82.8004 45.8675 83.0944 45.8675 83.4444C45.8675 83.5844 45.8115 83.7244 45.6855 83.8644C45.3495 84.2424 44.9855 84.5784 44.5795 84.8864C44.7755 85.1104 44.9855 85.3064 45.1955 85.5164ZM56.3115 85.7404V84.9284H51.6355C51.2715 84.9284 51.0755 84.6064 51.0755 84.2984C51.0755 83.9764 51.2715 83.6684 51.6355 83.6684H56.3115V82.9684C56.3115 82.5624 56.7035 82.3664 57.0815 82.3664C57.4735 82.3664 57.8515 82.5624 57.8515 82.9684V83.6684H62.6675C63.0455 83.6684 63.2415 83.9764 63.2415 84.2984C63.2415 84.6064 63.0455 84.9284 62.6675 84.9284H57.8515V85.7404H61.2115C61.5895 85.7404 61.7855 86.0484 61.7855 86.3704C61.7855 86.6784 61.5895 87.0004 61.2115 87.0004H53.1755C52.8115 87.0004 52.6155 86.6784 52.6155 86.3704C52.6155 86.0484 52.8115 85.7404 53.1755 85.7404H56.3115ZM54.7155 90.2904C54.7715 89.8844 55.1355 89.6884 55.4995 89.6884C55.8915 89.6884 56.2695 89.8984 56.2695 90.3044C56.2695 90.3464 56.2555 90.3744 56.2555 90.4164C55.9335 92.7964 54.2675 94.4624 51.9015 95.2324C51.8035 95.2604 51.7055 95.2744 51.6215 95.2744C51.1875 95.2744 50.9075 94.9244 50.9075 94.5604C50.9075 94.2944 51.0615 94.0144 51.4255 93.8884C53.4835 93.1744 54.4635 92.0124 54.7155 90.2904ZM57.8095 93.6224V90.2904C57.8095 89.8844 58.1875 89.6744 58.5655 89.6744C58.9295 89.6744 59.3075 89.8844 59.3075 90.2904V93.3844C59.3075 93.7064 59.4475 93.8044 60.4135 93.8044C61.5195 93.8044 61.7855 93.6784 61.8835 92.8664C61.9255 92.4744 62.2615 92.2784 62.6115 92.2784C62.9755 92.2784 63.3535 92.5164 63.3535 92.9364V93.0204C63.1855 94.6164 62.4855 95.0644 60.3715 95.0644C58.2435 95.0644 57.8095 94.6864 57.8095 93.6224ZM52.9235 87.7704H61.2675C62.6395 87.7704 63.1295 88.1904 63.1295 89.2684V90.1784C63.1295 90.5984 62.7515 90.8224 62.3595 90.8224C61.9815 90.8224 61.5895 90.5984 61.5895 90.1784V89.4924C61.5895 89.1564 61.5055 89.0304 61.0715 89.0304H53.1335C52.6995 89.0304 52.6015 89.1564 52.6015 89.4924V90.2484C52.6015 90.6684 52.2235 90.8924 51.8315 90.8924C51.4535 90.8924 51.0615 90.6684 51.0615 90.2484V89.2824C51.0615 88.2044 51.5515 87.7704 52.9235 87.7704ZM66.3495 85.2644C66.3355 85.0824 66.2935 84.5224 66.2935 84.3684C66.2935 83.7804 66.7415 83.4444 67.3015 83.4444C67.8475 83.4444 68.2815 83.7944 68.2815 84.3684C68.2815 84.6904 68.2255 85.2504 68.2115 85.4744C68.0855 87.2804 68.0015 88.4704 67.9315 90.7804C67.9175 91.1304 67.6515 91.3544 67.2735 91.3544C66.8955 91.3544 66.6575 91.1304 66.6435 90.7804C66.5735 88.4704 66.5035 87.1964 66.3495 85.2644ZM67.2875 92.1664C67.8895 92.1664 68.3515 92.6284 68.3515 93.2164C68.3515 93.8044 67.8895 94.2524 67.2875 94.2524C66.6855 94.2524 66.2235 93.8044 66.2235 93.2164C66.2235 92.6284 66.6855 92.1664 67.2875 92.1664Z" fill="white"/>
<path d="M65.8974 66.68C65.8974 64.09 67.0314 61.808 69.1734 59.946C69.2994 59.834 69.4534 59.778 69.5934 59.778C69.8594 59.778 70.1114 60.016 70.1114 60.282C70.1114 60.464 70.0414 60.59 69.9014 60.716C68.0534 62.438 67.1854 64.384 67.1854 66.68C67.1854 68.976 68.0534 70.922 69.9014 72.644C70.0414 72.77 70.1114 72.896 70.1114 73.078C70.1114 73.344 69.8594 73.582 69.5934 73.582C69.4534 73.582 69.2994 73.526 69.1734 73.414C67.0314 71.552 65.8974 69.27 65.8974 66.68ZM79.0462 60.716V63.292C79.2842 63.936 79.5362 64.58 79.9002 65.196C80.7122 64.608 81.5382 63.852 82.3222 62.928C82.4902 62.732 82.7142 62.648 82.9242 62.648C83.3442 62.648 83.7502 62.984 83.7502 63.404C83.7502 63.572 83.6942 63.754 83.5262 63.936C82.6022 64.958 81.6082 65.756 80.6562 66.386C81.7482 67.912 83.1202 69.2 84.4082 70.082C84.7302 70.306 84.8562 70.572 84.8562 70.838C84.8562 71.244 84.5062 71.622 84.0722 71.622C83.8902 71.622 83.7082 71.566 83.5122 71.426C81.8042 70.236 80.0962 68.234 79.0042 66.148L79.0462 67.758V71.37C79.0462 72.644 78.3602 73.078 77.1562 73.078C76.6382 73.078 76.3582 73.036 76.0782 72.98C75.6582 72.896 75.4622 72.574 75.4622 72.238C75.4622 71.86 75.7282 71.482 76.1902 71.482C76.2322 71.482 76.2882 71.482 76.3442 71.496C76.5542 71.538 76.7502 71.58 77.0302 71.58C77.3802 71.58 77.5342 71.468 77.5342 71.034V60.702C77.5342 60.31 77.9122 60.114 78.2762 60.114C78.6682 60.114 79.0462 60.31 79.0462 60.716ZM72.7882 63.628H75.2942C76.4282 63.628 76.8762 64.048 76.8762 64.79C76.8762 65.014 76.8202 65.28 76.7502 65.56C76.1482 67.8 74.8322 70.012 73.0262 71.608C72.8162 71.79 72.6062 71.86 72.4102 71.86C72.0042 71.86 71.6822 71.538 71.6822 71.146C71.6822 70.964 71.7522 70.768 71.9482 70.586C73.5442 69.13 74.6642 67.352 75.2382 65.294C75.2522 65.238 75.2662 65.182 75.2662 65.14C75.2662 65.042 75.1962 65 75.0142 65H72.7882C72.3962 65 72.2002 64.65 72.2002 64.314C72.2002 63.964 72.3962 63.628 72.7882 63.628ZM90.7082 66.68C90.7082 69.27 89.5742 71.552 87.4322 73.414C87.3062 73.526 87.1522 73.582 87.0122 73.582C86.7462 73.582 86.4942 73.344 86.4942 73.078C86.4942 72.896 86.5642 72.77 86.7042 72.644C88.5522 70.922 89.4202 68.976 89.4202 66.68C89.4202 64.384 88.5522 62.438 86.7042 60.716C86.5642 60.59 86.4942 60.464 86.4942 60.282C86.4942 60.016 86.7462 59.778 87.0122 59.778C87.1522 59.778 87.3062 59.834 87.4322 59.946C89.5742 61.808 90.7082 64.09 90.7082 66.68Z" fill="white"/>
<path d="M30.1237 24.163H34.0437C34.5477 24.163 34.7857 24.471 34.7857 24.891C34.7857 25.311 34.5477 25.605 34.0437 25.605H28.8777C28.3737 25.605 28.0517 25.227 28.0517 24.709C28.0517 24.303 28.1917 24.009 28.4857 23.757C29.6057 22.763 30.5437 21.909 31.6357 20.635C32.5037 19.613 32.8817 18.885 32.8817 18.073C32.8817 17.023 32.3357 16.491 31.4537 16.491C30.8797 16.491 30.2497 16.743 29.5777 17.401C29.4097 17.555 29.2417 17.639 29.0457 17.639C28.5697 17.639 28.2337 17.303 28.2337 16.855C28.2337 16.631 28.3037 16.491 28.5137 16.281C29.2557 15.553 30.3897 15.049 31.4397 15.049C33.4417 15.049 34.5617 16.253 34.5617 18.045C34.5617 19.333 34.1137 20.201 32.8537 21.531C31.6917 22.749 31.0057 23.365 30.1237 24.163ZM40.2849 15.049C42.4129 15.049 43.8269 16.561 43.8269 20.439C43.8269 24.317 42.4129 25.829 40.2849 25.829C38.1569 25.829 36.7709 24.317 36.7709 20.439C36.7709 16.561 38.1569 15.049 40.2849 15.049ZM40.2849 16.449C39.1229 16.449 38.4229 17.429 38.4229 20.439C38.4229 23.449 39.1229 24.429 40.2849 24.429C41.4609 24.429 42.1749 23.449 42.1749 20.439C42.1749 17.429 41.4609 16.449 40.2849 16.449ZM47.8141 24.163H51.7341C52.2381 24.163 52.4761 24.471 52.4761 24.891C52.4761 25.311 52.2381 25.605 51.7341 25.605H46.5681C46.0641 25.605 45.7421 25.227 45.7421 24.709C45.7421 24.303 45.8821 24.009 46.1761 23.757C47.2961 22.763 48.2341 21.909 49.3261 20.635C50.1941 19.613 50.5721 18.885 50.5721 18.073C50.5721 17.023 50.0261 16.491 49.1441 16.491C48.5701 16.491 47.9401 16.743 47.2681 17.401C47.1001 17.555 46.9321 17.639 46.7361 17.639C46.2601 17.639 45.9241 17.303 45.9241 16.855C45.9241 16.631 45.9941 16.491 46.2041 16.281C46.9461 15.553 48.0801 15.049 49.1301 15.049C51.1321 15.049 52.2521 16.253 52.2521 18.045C52.2521 19.333 51.8041 20.201 50.5441 21.531C49.3821 22.749 48.6961 23.365 47.8141 24.163ZM56.9812 19.417C57.4012 19.151 57.7232 19.067 58.1712 19.067C60.1452 19.067 61.5452 20.341 61.5452 22.371C61.5452 24.359 60.1032 25.829 58.0172 25.829C55.9312 25.829 54.5312 24.429 54.5312 22.301C54.5312 21.013 54.8392 20.117 55.8192 18.577C56.6172 17.331 57.6672 16.253 58.8572 15.245C58.9972 15.133 59.1792 15.049 59.3752 15.049C59.8512 15.049 60.1732 15.427 60.1732 15.847C60.1732 16.071 60.0752 16.253 59.9212 16.365C58.7032 17.303 57.7092 18.339 56.9812 19.417ZM58.0172 24.499C59.1932 24.499 59.9212 23.673 59.9212 22.371C59.9212 21.111 59.1932 20.327 58.1152 20.327C57.3452 20.327 56.6872 20.663 56.3092 21.209C56.1832 21.559 56.1272 21.867 56.1272 22.329C56.1272 23.687 56.8552 24.499 58.0172 24.499ZM69.4104 18.745V17.177H66.4984C65.9384 18.059 65.3224 18.899 64.5944 19.655C64.3984 19.851 64.1884 19.935 63.9924 19.935C63.6004 19.935 63.2644 19.599 63.2644 19.221C63.2644 19.025 63.3484 18.815 63.5444 18.619C64.6084 17.555 65.6024 15.889 66.2744 14.321C66.4284 13.971 66.7504 13.817 67.0724 13.817C67.4644 13.817 67.8424 14.055 67.8424 14.461C67.8424 14.559 67.8144 14.657 67.7724 14.769C67.6324 15.105 67.4644 15.441 67.2824 15.791H75.1504C75.5564 15.791 75.7664 16.141 75.7664 16.477C75.7664 16.827 75.5564 17.177 75.1504 17.177H70.9224V18.745H74.1004C74.4924 18.745 74.6884 19.081 74.6884 19.417C74.6884 19.767 74.4784 20.117 74.1004 20.117H70.9224V22.049H75.5704C75.9764 22.049 76.1864 22.399 76.1864 22.735C76.1864 23.085 75.9764 23.435 75.5704 23.435H70.9224V26.403C70.9224 26.837 70.5444 27.047 70.1664 27.047C69.7884 27.047 69.4104 26.837 69.4104 26.403V23.435H63.8524C63.4464 23.435 63.2504 23.085 63.2504 22.735C63.2504 22.399 63.4464 22.049 63.8524 22.049H65.6444V20.355C65.6444 19.235 66.1064 18.745 67.5344 18.745H69.4104ZM69.4104 20.117H67.7164C67.2404 20.117 67.1284 20.229 67.1284 20.579V22.049H69.4104V20.117Z" fill="white"/>
</svg>
