<svg width="115" height="21" viewBox="0 0 115 21" fill="none" xmlns="http://www.w3.org/2000/svg">
<path d="M82.6265 15.1686L80.6678 15.1686C79.5797 15.1686 79.1741 14.763 79.1741 13.843L79.1741 12.6064C79.1741 11.6864 79.5797 11.2808 80.6678 11.2808L82.6265 11.2808L82.6265 9.5892C82.6265 9.29243 82.9035 9.14404 83.1805 9.14404C83.4575 9.14404 83.7345 9.29243 83.7345 9.5892L83.7345 11.2808L85.7328 11.2808C86.821 11.2808 87.2266 11.6864 87.2266 12.6064L87.2266 13.843C87.2266 14.763 86.821 15.1686 85.7328 15.1686L83.7345 15.1686L83.7345 18.1066C83.7345 18.4034 83.4575 18.5518 83.1805 18.5518C82.9035 18.5518 82.6265 18.4034 82.6265 18.1066L82.6265 15.1686ZM80.7964 14.1991L82.6265 14.1991L82.6265 12.2503L80.7964 12.2503C80.3513 12.2503 80.2623 12.3492 80.2623 12.7152L80.2623 13.7342C80.2623 14.1101 80.381 14.1991 80.7964 14.1991ZM83.7345 12.2503L83.7345 14.1991L85.6042 14.1991C86.0493 14.1991 86.1384 14.1002 86.1384 13.7342L86.1384 12.7152C86.1384 12.3492 86.0493 12.2503 85.6042 12.2503L83.7345 12.2503Z" fill="#282828"/>
<path d="M73.3276 11.0433C73.7826 13.5461 74.8312 15.7126 77.0966 16.9986C77.334 17.1272 77.433 17.3251 77.433 17.513C77.433 17.8098 77.1856 18.0967 76.8592 18.0967C76.7702 18.0967 76.6613 18.0769 76.5624 18.0175C74.9203 17.1074 73.6145 15.4158 72.9616 13.3483C72.7241 14.3078 72.3185 15.1586 71.7547 15.9203C71.1216 16.7711 70.1719 17.602 69.2717 18.1066C69.153 18.1758 69.0342 18.2055 68.9254 18.2055C68.6089 18.2055 68.4011 17.9384 68.4011 17.6614C68.4011 17.4734 68.4902 17.2954 68.6979 17.1767C69.4893 16.7315 70.3203 16.0588 70.9039 15.2674C71.7547 14.11 72.2196 12.6162 72.2196 10.0046C72.2196 9.68806 72.5065 9.52979 72.7934 9.52979C73.0704 9.52979 73.3573 9.68806 73.3573 10.0046C73.3573 10.3706 73.3474 10.7169 73.3276 11.0433Z" fill="#282828"/>
<path d="M60.2017 4.47993e-09C63.7102 7.19288e-09 66.0415 2.4929 66.0415 8.88674C66.0415 15.2806 63.7102 17.7735 60.2017 17.7735C56.6931 17.7735 54.408 15.2806 54.408 8.88674C54.408 2.4929 56.6931 1.76698e-09 60.2017 4.47993e-09ZM60.2017 2.30824C58.2858 2.30824 57.1317 3.92401 57.1317 8.88674C57.1317 13.8495 58.2858 15.4652 60.2017 15.4652C62.1406 15.4652 63.3178 13.8495 63.3178 8.88674C63.3178 3.92401 62.1406 2.30824 60.2017 2.30824Z" fill="#E60012"/>
<path d="M43.3792 3.43959L43.0792 7.04045C43.7947 6.64805 44.4872 6.46339 45.1797 6.46339C48.7343 6.46339 51.2503 8.44848 51.2503 11.957C51.2503 15.4655 48.6651 17.7738 45.2258 17.7738C43.3331 17.7738 41.625 17.2198 40.4478 16.2734C40.0554 15.9503 39.9399 15.6502 39.9399 15.2347C39.9399 14.5422 40.4939 14.0344 41.2556 14.0344C41.4634 14.0344 41.6711 14.1037 41.9481 14.3114C43.1484 15.1886 44.0486 15.4655 45.1797 15.4655C47.1186 15.4655 48.4804 14.0806 48.4804 12.0493C48.4804 9.94884 47.1878 8.72547 45.1797 8.72547C44.4641 8.72547 43.7485 8.95629 43.1946 9.30253C42.6867 9.6026 42.479 9.7411 42.0404 9.7411C41.2326 9.7411 40.5401 9.25637 40.5401 8.37923L40.5401 8.24074L41.0248 2.12389C41.1171 1.03902 41.9712 0.369629 43.1946 0.369629L49.473 0.369629C50.1655 0.369629 50.5809 0.877441 50.5809 1.56991C50.5809 2.26239 50.1655 2.7702 49.473 2.7702L44.1409 2.7702C43.6331 2.7702 43.4254 2.95486 43.3792 3.43959Z" fill="#E60012"/>
<path d="M30.2732 16.2499L30.2732 3.62377C29.5576 4.33932 28.8882 4.98563 28.0573 5.70118C27.7341 5.97817 27.434 6.09359 27.0416 6.09359C26.2568 6.09359 25.749 5.58577 25.749 4.84713C25.749 4.38548 25.8875 4.1085 26.2799 3.78534C27.5264 2.81588 28.5651 1.96183 29.7654 0.876955C30.2963 0.392223 30.7348 0.115234 31.4735 0.115234C32.466 0.115234 32.9969 0.761543 32.9969 1.68484L32.9969 16.2499C32.9969 17.1501 32.4891 17.6117 31.612 17.6117C30.7348 17.6117 30.2732 17.1501 30.2732 16.2499Z" fill="#E60012"/>
<path d="M0.234644 1.78495C0.552773 1.45926 1.07466 1.45314 1.40036 1.77126L19.1244 19.0831C19.4501 19.4012 19.4562 19.9231 19.1381 20.2488C18.8199 20.5745 18.298 20.5806 17.9723 20.2625L0.248329 2.95067C-0.0773589 2.63254 -0.0834798 2.11065 0.234644 1.78495Z" fill="#282828"/>
<path d="M114.765 1.78495C114.447 1.45926 113.925 1.45314 113.6 1.77126L95.8756 19.0831C95.5499 19.4012 95.5438 19.9231 95.8619 20.2488C96.1801 20.5745 96.702 20.5806 97.0277 20.2625L114.752 2.95067C115.077 2.63254 115.083 2.11065 114.765 1.78495Z" fill="#282828"/>
</svg>
