<svg width="151" height="49" viewBox="0 0 151 49" fill="none" xmlns="http://www.w3.org/2000/svg">
<path d="M1.00024 3.76294L12.5002 44.7629" stroke="#282828" stroke-width="2" stroke-linecap="round"/>
<path d="M23.763 11.5638C23.418 10.0262 23.1868 8.1211 23.1969 5.91312C23.1995 5.33713 23.6648 5.05125 24.1288 5.05337C24.5928 5.0555 25.0555 5.34562 25.0528 5.92161C25.0446 7.71359 25.1813 9.31423 25.3994 10.6112C26.3776 10.1357 27.4675 9.7087 28.5571 9.37768C28.6532 9.34612 28.7493 9.33056 28.8453 9.331C29.3413 9.33327 29.6752 9.7828 29.6732 10.2308C29.6716 10.5668 29.4942 10.886 29.0776 11.0121C27.6516 11.4536 26.0486 12.1022 24.8611 12.8488C23.4811 13.7385 22.997 14.6163 22.9933 15.4323C22.9888 16.4243 23.6424 16.9393 26.1864 16.9509C27.4664 16.9568 28.6029 16.85 29.4997 16.6781C29.5797 16.6624 29.6437 16.6627 29.7077 16.663C30.2677 16.6656 30.5698 17.099 30.5677 17.547C30.5659 17.947 30.3401 18.3299 29.8436 18.4397C28.7546 18.6587 27.5222 18.733 26.1623 18.7268C22.8023 18.7114 21.127 17.6798 21.1369 15.5198C21.1429 14.2078 21.7568 12.9146 23.763 11.5638ZM28.0421 6.52729C27.9466 6.41485 27.9152 6.28671 27.9157 6.17471C27.9172 5.85471 28.2384 5.58418 28.5904 5.58579C28.7504 5.58652 28.9261 5.65133 29.0694 5.81199C29.4674 6.24581 29.8968 6.80778 30.1825 7.32109C30.2619 7.44946 30.2933 7.5776 30.2927 7.7056C30.291 8.0736 29.9698 8.34413 29.6338 8.34259C29.4258 8.34164 29.2343 8.22877 29.0914 7.98811C28.774 7.42665 28.3763 6.92883 28.0421 6.52729ZM29.7592 5.41514C29.6637 5.3027 29.6163 5.17448 29.6168 5.06248C29.6183 4.74249 29.9394 4.50395 30.2754 4.50549C30.4514 4.50629 30.6431 4.57117 30.8023 4.7319C31.1845 5.13366 31.6141 5.66363 31.8998 6.16094C31.9951 6.32138 32.0424 6.46559 32.0418 6.59359C32.0401 6.96159 31.735 7.2162 31.399 7.21466C31.191 7.21371 30.9675 7.10068 30.8086 6.85995C30.4909 6.3625 30.0933 5.83267 29.7592 5.41514ZM40.4507 11.6721L40.4826 11.6883C40.9479 11.4024 41.4285 11.2766 41.9405 11.2789C43.4125 11.2857 44.2084 12.1693 44.309 14.6658C44.381 16.4101 44.7639 16.6519 45.3719 16.6547C46.0919 16.658 46.7028 16.0368 47.2694 14.5833C47.4313 14.1681 47.7842 13.9777 48.1362 13.9793C48.6162 13.9815 49.0946 14.3357 49.0922 14.8477C49.0917 14.9597 49.0591 15.0875 49.0105 15.2313C48.1684 17.4355 46.9637 18.47 45.2357 18.4621C43.5717 18.4545 42.5518 17.5538 42.4523 14.8173C42.3956 13.233 42.1571 12.8959 41.5011 12.8929C40.6531 12.8891 39.7855 13.6691 38.9941 15.2975C38.6387 16.0319 38.1703 17.0057 37.8147 17.7721C37.6371 18.1393 37.3003 18.3138 36.9643 18.3122C36.4843 18.31 36.0058 17.9718 36.0082 17.4599C36.0087 17.3479 36.0412 17.236 36.0898 17.1082C37.5133 13.7227 39.5651 9.39604 41.4207 5.9965C41.5982 5.6613 41.9189 5.51877 42.2388 5.52023C42.7508 5.52258 43.2452 5.87684 43.243 6.35684C43.2424 6.48484 43.2099 6.61269 43.1453 6.74039L40.4507 11.6721ZM61.7564 16.6016C61.7162 18.3935 60.4012 19.0275 58.8653 19.0204C56.9613 19.0117 55.8131 18.1745 55.8199 16.6865C55.8258 15.4065 56.9186 14.3555 58.9666 14.3649C59.2226 14.366 59.4785 14.3832 59.7663 14.4165C59.6577 13.68 59.6122 13.1358 59.6141 12.7198C59.6172 12.0318 59.6508 11.68 59.7332 11.1683C59.8152 10.7207 60.1841 10.5304 60.5681 10.5321C61.0161 10.5342 61.4629 10.7922 61.4607 11.2722C61.4605 11.3202 61.4444 11.3522 61.4441 11.4002C61.378 11.8639 61.3282 12.2636 61.3261 12.7116C61.3241 13.1596 61.3692 13.7838 61.5406 14.7926C62.5632 15.1013 63.6171 15.5701 64.5422 16.1984C64.8453 16.4078 64.972 16.6804 64.9708 16.9524C64.9687 17.4004 64.5988 17.8307 64.1188 17.8285C63.9588 17.8277 63.7671 17.7629 63.5756 17.634C62.9856 17.2153 62.3632 16.8604 61.7564 16.6016ZM58.8725 17.4365C59.6085 17.4398 60.01 17.1217 60.0132 16.4177C60.0138 16.2737 60.0144 16.1457 59.999 16.0176C59.6473 15.952 59.3115 15.9185 58.9915 15.917C57.8715 15.9119 57.5179 16.2623 57.5159 16.6942C57.5138 17.1582 57.8325 17.4317 58.8725 17.4365ZM55.4275 8.0286C55.6712 7.21371 55.899 6.39874 56.0626 5.59948C56.1608 5.11993 56.5458 4.91368 56.9298 4.91544C57.3778 4.91749 57.7925 5.19139 57.7902 5.70339C57.7899 5.76739 57.7895 5.84738 57.7732 5.91131C57.6424 6.51872 57.4795 7.15798 57.3006 7.79717C57.7809 7.71936 58.2613 7.64156 58.7097 7.56361C58.7737 7.54791 58.8377 7.5482 58.8857 7.54842C59.3977 7.55076 59.7158 7.96822 59.7139 8.40022C59.7122 8.75221 59.5026 9.10326 58.9901 9.21291C58.3015 9.35376 57.5169 9.47818 56.7324 9.58659C56.0515 11.5195 55.1788 13.4355 54.2438 14.9673C54.0019 15.3662 53.6651 15.5406 53.3451 15.5392C52.8651 15.537 52.4508 15.1671 52.453 14.6871C52.4538 14.5111 52.5027 14.3193 52.6316 14.1279C53.4534 12.8516 54.1962 11.367 54.8115 9.7858C54.2192 9.84709 53.643 9.87646 53.147 9.89019C52.6029 9.9037 52.317 9.45438 52.319 9.00639C52.3209 8.59039 52.5787 8.19157 53.0908 8.17791C53.8109 8.14921 54.6112 8.10487 55.4275 8.0286ZM62.5323 7.8691C63.2994 8.08062 64.2893 8.53315 64.9753 8.96829C65.3423 9.19398 65.5008 9.5147 65.4995 9.8027C65.4974 10.2667 65.1115 10.6809 64.6475 10.6788C64.4875 10.6781 64.3277 10.6293 64.1681 10.5326C63.4181 10.0972 62.588 9.67738 61.8852 9.41816C61.4859 9.27233 61.3112 8.98353 61.3125 8.69553C61.3145 8.26354 61.6845 7.81723 62.2285 7.81971C62.3245 7.82015 62.4205 7.83659 62.5323 7.8691ZM70.729 17.3627L70.8072 14.259C70.4031 15.1532 69.9032 15.9989 69.4206 16.5727C69.1953 16.8437 68.9388 16.9545 68.6988 16.9534C68.2988 16.9516 67.9642 16.646 67.966 16.2461C67.9668 16.0861 68.0317 15.8943 68.1765 15.719C69.0775 14.6191 69.8362 13.1666 70.4193 11.6012L68.7713 11.5937C68.3713 11.5919 68.1651 11.2069 68.1668 10.8389C68.1685 10.4549 68.3782 10.0879 68.7622 10.0896L70.7622 10.0988L70.7841 5.31483C70.7861 4.88284 71.203 4.67674 71.619 4.67864C72.035 4.68055 72.45 4.89045 72.4481 5.32244L72.4262 10.1064L73.9622 10.1134C74.3622 10.1153 74.5685 10.4842 74.5667 10.8682C74.565 11.2362 74.3553 11.6192 73.9553 11.6174L72.4193 11.6104L72.4162 12.2824C73.2459 12.7982 74.0429 13.4578 74.3612 13.8273C74.5521 14.0522 74.6312 14.2605 74.6302 14.4685C74.6284 14.8685 74.291 15.187 73.907 15.1852C73.699 15.1843 73.4754 15.0872 73.2844 14.8784C73.0297 14.5892 72.727 14.2998 72.4082 14.0264L72.3855 19.0023C72.3833 19.4823 71.9662 19.7204 71.5502 19.7185C71.1342 19.7166 70.7193 19.4747 70.7215 18.9947L70.729 17.3627ZM81.0836 13.314L82.2048 13.0632C82.2688 13.0475 82.3168 13.0477 82.3808 13.048C82.8288 13.05 83.0988 13.4833 83.0969 13.8993C83.0955 14.2193 82.9181 14.5224 82.5337 14.6167L81.0761 14.946L81.0579 18.93C81.0556 19.426 80.6225 19.664 80.1905 19.662C79.7425 19.66 79.3117 19.418 79.3139 18.922L79.3304 15.322L75.6145 16.153C75.5505 16.1688 75.5025 16.1685 75.4545 16.1683C75.0065 16.1663 74.7205 15.7169 74.7224 15.301C74.7239 14.981 74.8854 14.6617 75.2697 14.5835L79.3379 13.6901L79.3752 5.53014C79.3775 5.03414 79.8106 4.79612 80.2585 4.79817C80.6905 4.80015 81.1214 5.04212 81.1192 5.53812L81.0836 13.314ZM73.24 7.08609C73.3214 6.78246 73.5781 6.63963 73.8501 6.64087C74.202 6.64248 74.5529 6.88409 74.5512 7.26809C74.551 7.31609 74.5507 7.38009 74.5344 7.44401C74.404 7.97142 74.1609 8.64232 73.9187 9.12121C73.7896 9.36062 73.5491 9.47152 73.3251 9.4705C72.9731 9.46889 72.6381 9.24335 72.6397 8.90736C72.64 8.82736 72.6564 8.74743 72.7048 8.65165C72.8988 8.22054 73.0934 7.66142 73.24 7.08609ZM69.9918 7.11922C70.2453 7.68039 70.4826 8.25748 70.513 8.60962C70.5288 8.6577 70.5286 8.7057 70.5283 8.7537C70.5264 9.18569 70.1571 9.45601 69.7891 9.45432C69.5011 9.453 69.2139 9.29169 69.1356 8.92333C69.0414 8.52289 68.8682 7.91409 68.7099 7.54536C68.6783 7.44922 68.6627 7.36915 68.663 7.28915C68.6646 6.93715 69.0016 6.73069 69.3536 6.7323C69.6096 6.73347 69.8651 6.84664 69.9918 7.11922ZM77.2407 6.94439C77.6872 7.26643 78.1814 7.6687 78.5475 8.08638C78.7226 8.27918 78.8017 8.48755 78.8008 8.67954C78.7987 9.12754 78.397 9.49371 77.965 9.49173C77.7571 9.49078 77.5334 9.40975 77.3423 9.21688C76.96 8.84712 76.5298 8.46115 76.1791 8.15554C75.972 7.97859 75.877 7.75416 75.8779 7.56216C75.8798 7.14616 76.2655 6.76392 76.7295 6.76605C76.8895 6.76678 77.0653 6.81558 77.2407 6.94439ZM76.6174 10.2856C77.0959 10.6238 77.5582 10.9939 77.9881 11.4439C78.1632 11.6367 78.2423 11.845 78.2414 12.037C78.2394 12.485 77.8376 12.8672 77.4056 12.8652C77.1976 12.8643 76.99 12.7833 76.7989 12.5904C76.4325 12.2367 75.9385 11.7865 75.5559 11.4967C75.3327 11.3197 75.2376 11.1113 75.2386 10.9033C75.2405 10.4873 75.6422 10.1051 76.1062 10.1072C76.2662 10.108 76.442 10.1568 76.6174 10.2856ZM93.885 13.0366L92.717 13.0313C91.325 13.0249 90.7516 12.4623 90.7569 11.3103L90.7749 7.35831C90.7802 6.20633 91.3588 5.63297 92.7508 5.63934L96.8628 5.65815C98.2548 5.66452 98.8441 6.24322 98.8389 7.39521L98.8208 11.3472C98.8155 12.4992 98.221 13.0564 96.829 13.0501L95.597 13.0444L95.5902 14.5324L98.0541 14.5437C98.4541 14.5455 98.6605 14.9145 98.6587 15.2985C98.657 15.6665 98.4473 16.0495 98.0473 16.0477L95.5833 16.0364L95.5754 17.7644L99.0473 17.7803C99.4473 17.7821 99.6537 18.151 99.6519 18.535C99.6502 18.903 99.4405 19.2861 99.0405 19.2843L89.6006 19.2411C89.2166 19.2393 89.0103 18.8544 89.012 18.4864C89.0138 18.1024 89.2235 17.7353 89.6074 17.7371L93.8634 17.7566L93.8713 16.0286L91.3753 16.0172C90.9913 16.0154 90.7851 15.6304 90.7868 15.2625C90.7885 14.8785 90.9982 14.5114 91.3822 14.5132L93.8782 14.5246L93.885 13.0366ZM92.8996 11.5921L93.9396 11.5968L93.9466 10.0609L92.3946 10.0538L92.3895 11.1737C92.3878 11.5417 92.5636 11.5905 92.8996 11.5921ZM92.4011 8.64577L93.9531 8.65287L93.9601 7.11688L92.9201 7.11213C92.5201 7.1103 92.4077 7.18978 92.4062 7.52578L92.4011 8.64577ZM95.5601 7.1242L95.553 8.66019L97.201 8.66773L97.2061 7.54774C97.2077 7.21174 97.112 7.1313 96.6961 7.1294L95.5601 7.1242ZM97.1946 10.0757L95.5466 10.0682L95.5396 11.6042L96.6756 11.6094C97.0916 11.6113 97.1879 11.5317 97.1895 11.1957L97.1946 10.0757ZM86.6906 15.2917L86.7069 11.7237L85.6989 11.7191C85.2829 11.7172 85.0767 11.3323 85.0785 10.9483C85.0801 10.5803 85.2899 10.1972 85.7059 10.1992L86.7139 10.2038L86.726 7.54779L85.494 7.54215C85.0781 7.54025 84.8718 7.1553 84.8736 6.77131C84.8753 6.40331 85.085 6.02027 85.501 6.02217L89.565 6.04076C89.981 6.04267 90.1872 6.42761 90.1855 6.79561C90.1838 7.17961 89.974 7.56265 89.558 7.56075L88.406 7.55548L88.3939 10.2114L89.2899 10.2155C89.7059 10.2175 89.9121 10.6024 89.9104 10.9704C89.9087 11.3544 89.6989 11.7374 89.2829 11.7355L88.3869 11.7314L88.373 14.7714C88.6615 14.6607 88.9499 14.566 89.2065 14.4552C89.3347 14.4078 89.4467 14.3923 89.5587 14.3928C90.0067 14.3949 90.277 14.7801 90.2752 15.1641C90.274 15.4361 90.1447 15.7075 89.8241 15.8501C88.5094 16.436 86.939 16.9569 85.6897 17.2392C85.6096 17.2548 85.5295 17.2704 85.4655 17.2701C84.9695 17.2679 84.6835 16.8505 84.6854 16.4345C84.687 16.0826 84.8804 15.7634 85.3129 15.6534C85.7454 15.5594 86.21 15.4335 86.6906 15.2917ZM108.813 6.03283L108.435 8.17512L108.547 8.17563C109.171 8.17849 109.7 8.1489 110.196 8.10317L110.276 8.10354C110.788 8.10588 111.042 8.52305 111.04 8.95505C111.038 9.35504 110.812 9.72201 110.348 9.76789C109.852 9.81362 109.372 9.84342 108.572 9.83976L108.124 9.83771C108.024 10.5893 107.893 11.3247 107.778 12.0762L108.034 12.0773C108.882 12.0812 109.826 12.0055 110.546 11.8808C110.595 11.865 110.659 11.8653 110.707 11.8656C111.203 11.8678 111.489 12.3011 111.487 12.7171C111.485 13.1011 111.275 13.4682 110.795 13.562C110.026 13.7185 108.938 13.8095 108.01 13.8052L107.562 13.8032C107.511 14.363 107.493 14.8109 107.491 15.1949C107.483 16.9229 108.201 17.5181 109.609 17.5246C111.369 17.5326 112.315 16.913 112.323 15.329C112.324 14.961 112.246 14.5126 112.136 14.1441C112.12 14.064 112.105 13.984 112.105 13.904C112.107 13.424 112.557 13.138 113.021 13.1402C113.421 13.142 113.82 13.3518 113.962 13.8325C114.119 14.3292 114.197 14.8256 114.195 15.3055C114.182 18.0415 112.32 19.361 109.632 19.3487C107.136 19.3373 105.654 18.0505 105.667 15.3145C105.669 14.8345 105.687 14.3226 105.754 13.6989C105.002 13.6155 104.379 13.5166 103.836 13.3701C103.372 13.24 103.166 12.8711 103.168 12.5031C103.17 12.0551 103.476 11.6245 103.988 11.6268C104.084 11.6272 104.18 11.6277 104.275 11.6601C104.771 11.7904 105.314 11.8889 105.97 11.9719C106.069 11.2203 106.185 10.4848 106.316 9.73344C105.692 9.68259 105.133 9.58403 104.637 9.46976C104.158 9.35556 103.952 9.00262 103.953 8.66662C103.955 8.21862 104.277 7.80409 104.773 7.80636C104.837 7.80665 104.901 7.80695 104.965 7.82324C105.476 7.93758 106.004 8.02 106.612 8.08678L107.022 5.78463C107.104 5.321 107.521 5.11491 107.937 5.11681C108.385 5.11886 108.832 5.37691 108.83 5.8729C108.83 5.9209 108.829 5.9689 108.813 6.03283ZM26.9804 35.7547L26.9835 35.0667L23.4155 35.0504C23.0476 35.0487 22.857 34.7279 22.8585 34.4079C22.8599 34.0879 23.0534 33.7688 23.4214 33.7704L25.4854 33.7799L25.4885 33.0919L24.2885 33.0864C23.9365 33.0848 23.7459 32.7799 23.7474 32.4599C23.7488 32.1559 23.9422 31.8528 24.2942 31.8544L25.4942 31.8599L25.4972 31.1879L23.8013 31.1801C23.4333 31.1785 23.2427 30.8576 23.2442 30.5376C23.2457 30.2176 23.4391 29.8985 23.8071 29.9002L25.5031 29.9079L25.5065 29.1719C25.5084 28.7399 25.8935 28.5177 26.2775 28.5194C26.6615 28.5212 27.0444 28.747 27.0424 29.179L27.0391 29.9149L28.5271 29.9218L28.5304 29.1858C28.5324 28.7538 28.9174 28.5315 29.3174 28.5334C29.7014 28.5351 30.0844 28.7609 30.0824 29.1929L30.079 29.9289L31.983 29.9376C32.367 29.9393 32.5416 30.2601 32.5401 30.5801C32.5386 30.9001 32.3612 31.2193 31.9772 31.2176L30.0732 31.2088L30.0701 31.8808L31.3341 31.8866C31.7021 31.8883 31.8767 32.1931 31.8753 32.4971C31.8739 32.8171 31.6965 33.1203 31.3285 33.1186L30.0645 33.1128L30.0613 33.8008L32.5253 33.8121C32.9093 33.8138 33.0838 34.1346 33.0824 34.4546C33.0809 34.7746 32.9034 35.0938 32.5195 35.0921L28.5195 35.0738L28.5163 35.7618L29.9243 35.7682C31.0763 35.7735 31.6023 36.2239 31.5975 37.2639L31.5868 39.5999L32.6108 39.6045C32.9788 39.6062 33.1534 39.911 33.152 40.215C33.1506 40.519 32.9732 40.8222 32.6052 40.8205L31.5813 40.8158L31.5766 41.8238C31.5716 42.9278 31.0893 43.4376 29.8733 43.4321C29.5533 43.4306 29.3293 43.4136 29.0575 43.3803C28.6258 43.3143 28.4193 42.9774 28.4209 42.6254C28.4227 42.2414 28.6644 41.8745 29.1444 41.8767C29.1924 41.8769 29.2403 41.8931 29.2883 41.8934C29.4322 41.91 29.5442 41.9265 29.6882 41.9272C29.8801 41.9281 29.9605 41.8484 29.9618 41.5764L29.9653 40.8085L25.5813 40.7884L25.572 42.8204C25.5699 43.2844 25.1689 43.5065 24.7689 43.5047C24.3529 43.5028 23.9539 43.277 23.956 42.813L23.9653 40.781L23.0213 40.7767C22.6693 40.7751 22.4787 40.4702 22.4801 40.1662C22.4815 39.8622 22.6749 39.5591 23.0269 39.5607L23.9709 39.565L23.9816 37.229C23.9863 36.189 24.5164 35.7435 25.6684 35.7487L26.9804 35.7547ZM28.4989 39.5857L29.9708 39.5925L29.9743 38.8405L28.5023 38.8337L28.4989 39.5857ZM26.9629 39.5787L26.9663 38.8267L25.5903 38.8204L25.5869 39.5724L26.9629 39.5787ZM28.5074 37.7137L29.9794 37.7205L29.9813 37.3045C29.9825 37.0485 29.9188 36.9842 29.6148 36.9828L28.5108 36.9778L28.5074 37.7137ZM26.9714 37.7067L26.9748 36.9707L25.9668 36.9661C25.6628 36.9647 25.5985 37.0284 25.5973 37.2844L25.5954 37.7004L26.9714 37.7067ZM28.5094 33.7937L28.5125 33.1057L27.0245 33.0989L27.0214 33.7869L28.5094 33.7937ZM27.0332 31.1949L27.0302 31.8669L28.5181 31.8737L28.5212 31.2017L27.0332 31.1949ZM19.8705 33.5142L18.6546 33.5086C18.2546 33.5068 18.0483 33.1218 18.0501 32.7379C18.0518 32.3699 18.2615 31.9868 18.6455 31.9886L20.0375 31.9949L20.0507 29.099C20.0526 28.683 20.4535 28.4928 20.8535 28.4946C21.2535 28.4965 21.6526 28.6903 21.6507 29.1063L21.6375 32.0023L22.5015 32.0062C22.9015 32.008 23.1077 32.393 23.106 32.761C23.1043 33.145 22.8945 33.528 22.4945 33.5262L21.6305 33.5222L21.6247 34.8022C22.1666 35.2527 22.7557 35.8794 23.1531 36.4572C23.2803 36.6338 23.3276 36.794 23.3268 36.954C23.3251 37.338 22.9878 37.6085 22.6358 37.6069C22.4278 37.6059 22.2043 37.5089 22.0614 37.2683C21.9343 37.0597 21.7753 36.8509 21.6163 36.6262L21.588 42.8181C21.5859 43.2661 21.1848 43.5043 20.7849 43.5025C20.3849 43.5006 19.986 43.2588 19.988 42.8108L19.9987 40.4748L20.0615 37.2431C19.8021 37.9779 19.479 38.6645 19.1565 39.207C18.9952 39.4782 18.7707 39.5892 18.5467 39.5882C18.1947 39.5866 17.8601 39.2971 17.8618 38.9131C17.8624 38.7851 17.9111 38.6413 17.9917 38.4976C18.7656 37.2052 19.4294 35.5122 19.8705 33.5142ZM46.2236 40.3388L42.4796 40.3217C41.1356 40.3156 40.6581 39.7694 40.6627 38.7774L40.669 37.3854C40.6736 36.3934 41.1561 35.8516 42.5001 35.8577L46.244 35.8749C47.588 35.881 48.0655 36.4272 48.061 37.4192L48.0546 38.8112C48.049 40.0272 47.3276 40.3439 46.2236 40.3388ZM42.7739 38.947L45.9419 38.9615C46.2939 38.9631 46.4224 38.8517 46.4237 38.5637L46.4279 37.6517C46.4292 37.3637 46.3017 37.2512 45.9497 37.2495L42.7818 37.2351C42.4298 37.2334 42.3012 37.3449 42.2999 37.6329L42.2958 38.5448C42.2942 38.8808 42.4859 38.9457 42.7739 38.947ZM38.7339 37.1845L38.7215 39.9045C39.6928 40.933 41.1791 41.3078 44.6191 41.3235C46.2671 41.331 47.5793 41.289 48.8118 41.1827L48.9238 41.1832C49.4358 41.1855 49.6898 41.6027 49.6879 42.0187C49.6861 42.4187 49.4442 42.8336 48.9161 42.8632C47.5877 42.9371 46.3235 42.9793 44.6275 42.9716C40.8836 42.9544 39.1579 42.4505 37.9634 41.229C37.4327 41.8346 36.822 42.4078 36.0355 42.9482C35.859 43.0754 35.6667 43.1386 35.4907 43.1378C35.0267 43.1356 34.6445 42.7339 34.6465 42.3019C34.6477 42.0299 34.793 41.7585 35.114 41.536C35.8042 41.0592 36.4466 40.5341 37.0094 39.9287L37.021 37.3847C37.0225 37.0647 36.927 36.9523 36.511 36.9504L35.567 36.946C35.103 36.9439 34.8648 36.5428 34.8667 36.1428C34.8685 35.7428 35.1103 35.3439 35.5743 35.3461L36.9023 35.3521C38.2623 35.3584 38.7397 35.9205 38.7339 37.1845ZM45.2597 30.7023L47.9316 30.7145C48.3476 30.7164 48.554 31.0694 48.5523 31.4374C48.5507 31.7894 48.341 32.1564 47.9251 32.1545L45.2531 32.1423L45.2471 33.4543L49.087 33.4719C49.503 33.4738 49.7094 33.8267 49.7077 34.1947C49.7061 34.5467 49.4964 34.9137 49.0805 34.9118L39.8485 34.8696C39.4326 34.8677 39.2262 34.4988 39.2278 34.1468C39.2295 33.7788 39.4391 33.4277 39.8551 33.4296L43.5831 33.4467L43.5891 32.1347L41.7491 32.1263C41.6361 32.3498 41.5071 32.5572 41.3782 32.7646C41.1848 33.0677 40.9122 33.1945 40.6402 33.1932C40.2402 33.1914 39.8576 32.8856 39.8595 32.4856C39.8601 32.3416 39.9088 32.1979 40.0055 32.0383C40.4406 31.3683 40.9087 30.4744 41.2329 29.5479C41.3624 29.2125 41.6511 29.0698 41.9551 29.0712C42.3711 29.0731 42.7699 29.3309 42.7679 29.7629C42.7675 29.8589 42.7511 29.9548 42.7026 30.0666C42.6216 30.2742 42.5406 30.4819 42.4437 30.6894L43.5957 30.6947L43.6026 29.1907C43.6046 28.7427 44.0216 28.5206 44.4376 28.5225C44.8536 28.5244 45.2686 28.7503 45.2666 29.1983L45.2597 30.7023ZM37.153 29.5292C37.6952 29.9157 38.2369 30.4142 38.6507 30.8961C38.8417 31.121 38.9207 31.3453 38.9197 31.5533C38.9174 32.0493 38.4676 32.4473 37.9876 32.4451C37.7476 32.444 37.4761 32.3307 37.2533 32.0737C36.8077 31.5597 36.4253 31.1899 35.9631 30.8038C35.74 30.6108 35.629 30.3863 35.63 30.1783C35.632 29.7303 36.0498 29.3322 36.5458 29.3344C36.7378 29.3353 36.9456 29.3843 37.153 29.5292ZM62.4778 30.2691L62.4677 32.4931C63.0919 32.4319 63.6844 32.3386 64.2288 32.2451C64.3089 32.2295 64.3729 32.2298 64.4369 32.2301C64.9329 32.2323 65.1872 32.6015 65.1854 33.0015C65.1837 33.3695 64.9579 33.7525 64.4775 33.8463C63.8529 33.9714 63.1645 34.0643 62.4761 34.1411C62.4858 35.5172 62.5115 36.8933 62.6493 38.254C63.5278 38.594 64.4375 39.0941 65.3145 39.7542C65.6174 39.9796 65.7441 40.2681 65.7429 40.5401C65.7408 40.9881 65.3709 41.4024 64.8909 41.4002C64.6989 41.3994 64.4913 41.3184 64.284 41.1575C63.7579 40.7391 63.2156 40.3846 62.7049 40.0942C62.5228 41.4214 61.6064 42.3772 59.6224 42.3682C57.8305 42.36 56.7146 41.4588 56.7212 40.0189C56.7272 38.6909 57.8038 37.7038 59.8837 37.7133C60.2197 37.7148 60.5716 37.7484 60.9394 37.7981C60.8487 36.6297 60.8221 35.4616 60.8114 34.2935C60.1232 34.3384 59.4511 34.3513 58.8271 34.3484C58.5071 34.347 58.2191 34.3456 57.9473 34.3124C57.4515 34.2621 57.2133 33.861 57.2152 33.461C57.217 33.061 57.4748 32.6622 57.9868 32.6646C58.2748 32.6659 58.5467 32.6991 58.8347 32.7004C59.4587 32.7033 60.1147 32.6903 60.8029 32.6455L60.8138 30.2615C60.8161 29.7655 61.2332 29.5274 61.6492 29.5293C62.0652 29.5312 62.4801 29.7731 62.4778 30.2691ZM59.6297 40.7842C60.4457 40.7879 60.9914 40.4064 61.012 39.3985C60.5966 39.2846 60.2129 39.2188 59.8769 39.2173C58.7569 39.2122 58.4033 39.5625 58.4011 40.0265C58.3989 40.5225 58.8297 40.7805 59.6297 40.7842ZM53.6944 30.1329C53.7923 29.7013 54.1772 29.5111 54.5772 29.5129C55.0412 29.5151 55.504 29.7892 55.5016 30.3012C55.5014 30.3492 55.5011 30.4132 55.4848 30.4771C54.9626 32.6987 54.616 35.0332 54.6066 37.0811C54.5985 38.8571 54.7987 40.5541 54.9368 41.8347C54.9366 41.8827 54.9524 41.9308 54.9522 41.9788C54.9499 42.4748 54.4685 42.7766 54.0205 42.7745C53.6045 42.7726 53.2056 42.5468 53.1278 42.0504C52.9099 40.7214 52.7739 38.9768 52.7827 37.0568C52.7925 34.9128 53.1397 32.4664 53.6944 30.1329ZM71.1502 33.7008C71.9005 34.0722 72.6823 34.5718 73.3037 35.1347C73.5427 35.3438 73.6376 35.6002 73.6365 35.8402C73.6342 36.3362 73.2 36.8142 72.688 36.8119C72.496 36.811 72.2883 36.746 72.097 36.5852C71.5391 36.1346 70.6938 35.5387 70.1353 35.2162C69.8161 35.0387 69.6893 34.7661 69.6905 34.5101C69.6926 34.0461 70.1107 33.584 70.6707 33.5866C70.8147 33.5873 70.9906 33.6201 71.1502 33.7008ZM73.0867 30.0936C73.8051 30.4649 74.6028 30.9646 75.2242 31.5274C75.4633 31.7365 75.5581 31.993 75.557 32.2329C75.5547 32.7289 75.1206 33.191 74.6086 33.1886C74.4166 33.1877 74.2089 33.1228 74.0176 32.9619C73.4597 32.5114 72.6143 31.9315 72.0558 31.6089C71.7366 31.4315 71.6098 31.1749 71.611 30.9029C71.6131 30.4389 72.0473 29.9609 72.6073 29.9634C72.7513 29.9641 72.9271 30.0129 73.0867 30.0936ZM80.109 33.9978C80.3186 33.6467 80.6392 33.5042 80.9592 33.5057C81.4392 33.5079 81.9176 33.8621 81.9153 34.3741C81.9145 34.5341 81.8657 34.7098 81.7689 34.8854C79.6229 38.8276 75.6746 41.4976 71.4932 42.6625C71.3811 42.694 71.253 42.7094 71.157 42.7089C70.597 42.7064 70.2631 42.2568 70.2652 41.7928C70.2669 41.4248 70.4926 41.0419 71.0054 40.8842C74.9627 39.7183 78.0927 37.5406 80.109 33.9978ZM88.2664 31.0751C89.0001 31.5744 89.8609 32.2824 90.6092 33.0858C90.8163 33.2948 90.8952 33.5351 90.8941 33.7751C90.8916 34.3191 90.4093 34.8289 89.8653 34.8264C89.6253 34.8253 89.3697 34.7282 89.1467 34.5031C88.43 33.7799 87.6811 33.1044 86.9796 32.5572C86.7086 32.348 86.5977 32.0915 86.5989 31.8355C86.6012 31.3395 87.0674 30.8616 87.6274 30.8642C87.8354 30.8651 88.0431 30.9301 88.2664 31.0751ZM96.833 33.1463C97.0266 32.7952 97.3473 32.6526 97.6513 32.654C98.1473 32.6563 98.6257 33.0105 98.6232 33.5385C98.6225 33.6985 98.5577 33.8742 98.4609 34.0498C96.1546 38.0552 92.5093 40.9346 88.5345 42.4204C88.3742 42.4837 88.2301 42.499 88.1021 42.4985C87.5262 42.4958 87.1444 41.9981 87.1466 41.5181C87.1482 41.1661 87.3258 40.8309 87.7745 40.6729C91.4128 39.3136 94.8974 36.5615 96.833 33.1463ZM115.015 28.4614C115.975 28.4658 116.723 29.2213 116.719 30.1812C116.714 31.1572 115.959 31.9058 114.999 31.9014C114.023 31.8969 113.274 31.1415 113.279 30.1655C113.283 29.2055 114.039 28.457 115.015 28.4614ZM115.011 29.2614C114.499 29.2591 114.081 29.6572 114.079 30.1692C114.076 30.6812 114.491 31.0991 115.003 31.1014C115.515 31.1037 115.916 30.6896 115.919 30.1776C115.921 29.6656 115.523 29.2638 115.011 29.2614ZM103.656 31.5455L111.817 31.5028C113.497 31.4945 114.15 32.1055 114.145 33.1775C114.144 33.4495 114.11 33.7534 114.029 34.089C113.132 37.8769 110.333 41.1281 106.548 42.9509C106.356 43.046 106.18 43.0772 106.02 43.0764C105.476 43.0739 105.094 42.6242 105.096 42.1282C105.097 41.8242 105.259 41.4889 105.66 41.2828C109.204 39.459 111.216 36.9081 112.061 34.048C112.094 33.9201 112.11 33.8242 112.111 33.7282C112.112 33.4242 111.904 33.3113 111.44 33.3091L103.728 33.3698C103.12 33.3671 102.802 32.8856 102.804 32.4216C102.806 31.9896 103.096 31.5429 103.656 31.5455ZM120.632 33.2552L120.64 31.5112C120.642 30.9672 121.123 30.6814 121.603 30.6836C122.067 30.6857 122.53 30.9598 122.528 31.5198L122.519 33.3278C122.499 37.7438 121.351 40.3625 119.135 42.2404C118.894 42.4473 118.653 42.5262 118.413 42.5251C117.901 42.5228 117.471 42.0888 117.473 41.5928C117.475 41.3368 117.588 41.0653 117.861 40.8266C119.773 39.1233 120.614 37.1591 120.632 33.2552ZM126.609 31.1385L126.569 39.9544C126.568 40.1944 126.631 40.3227 126.791 40.3234C126.871 40.3238 126.984 40.2763 127.112 40.2129C128.106 39.6734 129.327 38.655 130.132 37.5227C130.358 37.2197 130.646 37.093 130.918 37.0943C131.398 37.0965 131.86 37.4666 131.858 37.9626C131.857 38.1386 131.793 38.3303 131.664 38.5217C130.665 39.9572 129.267 41.1988 127.728 42.0077C127.231 42.2615 126.766 42.3873 126.35 42.3854C125.374 42.381 124.673 41.6898 124.679 40.5058L124.721 31.1299C124.724 30.5859 125.205 30.3161 125.669 30.3182C126.149 30.3204 126.612 30.5945 126.609 31.1385Z" fill="black"/>
<path d="M149.219 3.76294L137.719 44.7629" stroke="#282828" stroke-width="2" stroke-linecap="round"/>
</svg>
