<svg width="185" height="43" viewBox="0 0 185 43" fill="none" xmlns="http://www.w3.org/2000/svg">
<path d="M1.00024 1.00024L12.5002 42.0002" stroke="#282828" stroke-width="2" stroke-linecap="round"/>
<path d="M20.6997 26.2937L20.7779 23.1901C20.3739 24.0842 19.874 24.9299 19.3913 25.5037C19.1661 25.7747 18.9096 25.8855 18.6696 25.8844C18.2696 25.8826 17.935 25.5771 17.9368 25.1771C17.9376 25.0171 18.0024 24.8254 18.1472 24.65C19.0483 23.5502 19.8069 22.0976 20.3901 20.5323L18.7421 20.5247C18.3421 20.5229 18.1359 20.1379 18.1376 19.7699C18.1393 19.386 18.349 19.0189 18.733 19.0207L20.733 19.0298L20.7549 14.2459C20.7568 13.8139 21.1738 13.6078 21.5898 13.6097C22.0058 13.6116 22.4208 13.8215 22.4189 14.2535L22.397 19.0374L23.9329 19.0445C24.3329 19.0463 24.5393 19.4152 24.5375 19.7992C24.5358 20.1672 24.3261 20.5503 23.9261 20.5484L22.3901 20.5414L22.387 21.2134C23.2167 21.7292 24.0136 22.3889 24.332 22.7583C24.5229 22.9832 24.602 23.1916 24.601 23.3996C24.5992 23.7996 24.2617 24.118 23.8777 24.1163C23.6697 24.1153 23.4462 24.0183 23.2551 23.8094C23.0005 23.5202 22.6978 23.2308 22.379 22.9574L22.3563 27.9333C22.3541 28.4133 21.937 28.6514 21.521 28.6495C21.105 28.6476 20.6901 28.4057 20.6923 27.9257L20.6997 26.2937ZM31.0544 22.2451L32.1755 21.9942C32.2396 21.9785 32.2876 21.9787 32.3516 21.979C32.7996 21.9811 33.0696 22.4143 33.0677 22.8303C33.0663 23.1503 32.8889 23.4535 32.5044 23.5477L31.0469 23.8771L31.0287 27.861C31.0264 28.357 30.5933 28.595 30.1613 28.5931C29.7133 28.591 29.2824 28.349 29.2847 27.853L29.3012 24.2531L25.5853 25.0841C25.5213 25.0998 25.4733 25.0996 25.4253 25.0993C24.9773 25.0973 24.6913 24.648 24.6932 24.232C24.6947 23.912 24.8561 23.5927 25.2405 23.5145L29.3086 22.6211L29.346 14.4612C29.3482 13.9652 29.7813 13.7272 30.2293 13.7292C30.6613 13.7312 31.0922 13.9732 31.09 14.4692L31.0544 22.2451ZM23.2108 16.0171C23.2922 15.7135 23.5488 15.5707 23.8208 15.5719C24.1728 15.5735 24.5237 15.8151 24.522 16.1991C24.5218 16.2471 24.5215 16.3111 24.5052 16.375C24.3748 16.9025 24.1317 17.5733 23.8895 18.0522C23.7604 18.2917 23.5199 18.4026 23.2959 18.4015C22.9439 18.3999 22.6089 18.1744 22.6105 17.8384C22.6108 17.7584 22.6272 17.6785 22.6756 17.5827C22.8696 17.1516 23.0642 16.5925 23.2108 16.0171ZM19.9626 16.0503C20.216 16.6114 20.4534 17.1885 20.4838 17.5407C20.4996 17.5887 20.4994 17.6367 20.4991 17.6847C20.4972 18.1167 20.1279 18.387 19.7599 18.3854C19.4719 18.384 19.1847 18.2227 19.1063 17.8544C19.0122 17.4539 18.839 16.8451 18.6806 16.4764C18.6491 16.3803 18.6334 16.3002 18.6338 16.2202C18.6354 15.8682 18.9724 15.6617 19.3244 15.6633C19.5804 15.6645 19.8359 15.7777 19.9626 16.0503ZM27.2115 15.8754C27.658 16.1975 28.1522 16.5997 28.5183 17.0174C28.6934 17.2102 28.7724 17.4186 28.7716 17.6106C28.7695 18.0586 28.3678 18.4247 27.9358 18.4228C27.7278 18.4218 27.5042 18.3408 27.3131 18.1479C26.9308 17.7782 26.5005 17.3922 26.1499 17.0866C25.9427 16.9096 25.8478 16.6852 25.8486 16.4932C25.8505 16.0772 26.2363 15.695 26.7003 15.6971C26.8603 15.6978 27.0361 15.7466 27.2115 15.8754ZM26.5882 19.2166C27.0666 19.5548 27.529 19.9249 27.9589 20.3749C28.134 20.5677 28.2131 20.7761 28.2122 20.9681C28.2101 21.416 27.8084 21.7982 27.3764 21.7962C27.1684 21.7953 26.9608 21.7143 26.7696 21.5215C26.4033 21.1678 25.9093 20.7175 25.5266 20.4278C25.3034 20.2507 25.2084 20.0423 25.2093 19.8343C25.2113 19.4183 25.613 19.0361 26.077 19.0383C26.237 19.039 26.4128 19.0878 26.5882 19.2166ZM43.8558 21.9676L42.6878 21.9623C41.2958 21.9559 40.7224 21.3933 40.7276 20.2413L40.7457 16.2893C40.751 15.1374 41.3296 14.564 42.7216 14.5704L46.8336 14.5892C48.2256 14.5955 48.8149 15.1743 48.8096 16.3262L48.7916 20.2782C48.7863 21.4302 48.1917 21.9875 46.7998 21.9811L45.5678 21.9755L45.561 23.4635L48.0249 23.4747C48.4249 23.4766 48.6312 23.8455 48.6295 24.2295C48.6278 24.5975 48.418 24.9805 48.0181 24.9787L45.5541 24.9674L45.5462 26.6954L49.0181 26.7113C49.4181 26.7131 49.6244 27.0821 49.6227 27.4661C49.621 27.8341 49.4112 28.2171 49.0113 28.2153L39.5714 28.1721C39.1874 28.1703 38.9811 27.7854 38.9828 27.4174C38.9846 27.0334 39.1942 26.6664 39.5782 26.6681L43.8342 26.6876L43.8421 24.9596L41.3461 24.9482C40.9621 24.9464 40.7559 24.5615 40.7576 24.1935C40.7593 23.8095 40.969 23.4424 41.353 23.4442L43.849 23.4556L43.8558 21.9676ZM42.8704 20.5231L43.9104 20.5279L43.9174 18.9919L42.3654 18.9848L42.3603 20.1048C42.3586 20.4728 42.5344 20.5216 42.8704 20.5231ZM42.3719 17.5768L43.9238 17.5839L43.9309 16.0479L42.8909 16.0432C42.4909 16.0413 42.3785 16.1208 42.377 16.4568L42.3719 17.5768ZM45.5308 16.0552L45.5238 17.5912L47.1718 17.5988L47.1769 16.4788C47.1785 16.1428 47.0828 16.0623 46.6668 16.0604L45.5308 16.0552ZM47.1654 19.0067L45.5174 18.9992L45.5104 20.5352L46.6463 20.5404C47.0623 20.5423 47.1587 20.4627 47.1602 20.1267L47.1654 19.0067ZM36.6614 24.2227L36.6777 20.6548L35.6697 20.6502C35.2537 20.6483 35.0475 20.2633 35.0492 19.8793C35.0509 19.5113 35.2607 19.1283 35.6767 19.1302L36.6847 19.1348L36.6968 16.4788L35.4648 16.4732C35.0488 16.4713 34.8426 16.0863 34.8444 15.7023C34.846 15.3343 35.0558 14.9513 35.4718 14.9532L39.5357 14.9718C39.9517 14.9737 40.158 15.3586 40.1563 15.7266C40.1545 16.1106 39.9448 16.4937 39.5288 16.4918L38.3768 16.4865L38.3646 19.1425L39.2606 19.1466C39.6766 19.1485 39.8829 19.5334 39.8812 19.9014C39.8794 20.2854 39.6697 20.6685 39.2537 20.6666L38.3577 20.6625L38.3438 23.7024C38.6323 23.5918 38.9207 23.4971 39.1772 23.3862C39.3055 23.3388 39.4175 23.3233 39.5295 23.3239C39.9775 23.3259 40.2478 23.7111 40.246 24.0951C40.2448 24.3671 40.1155 24.6386 39.7949 24.7811C38.4802 25.3671 36.9098 25.8879 35.6605 26.1702C35.5804 26.1858 35.5003 26.2015 35.4363 26.2012C34.9403 26.1989 34.6542 25.7816 34.6561 25.3656C34.6577 25.0136 34.8512 24.6945 35.2837 24.5844C35.7162 24.4904 36.1807 24.3645 36.6614 24.2227ZM54.9883 26.2426C53.3564 26.2351 52.0024 24.9169 52.0138 22.421C52.0305 18.773 55.0681 15.7949 59.4681 15.815C63.3721 15.8329 65.6168 18.2912 65.6023 21.4751C65.589 24.3711 63.8673 26.4912 61.1113 27.3586C60.9831 27.4061 60.855 27.4215 60.743 27.421C60.199 27.4185 59.8491 26.9689 59.8512 26.5049C59.8528 26.1529 60.0464 25.8017 60.5272 25.6279C62.8029 24.8224 63.7212 23.4505 63.7303 21.4666C63.7399 19.3706 62.3238 17.6361 59.8926 17.449C59.7205 20.1042 59.0535 22.5012 58.0535 24.2406C57.1664 25.7886 56.2203 26.2482 54.9883 26.2426ZM58.0201 17.5524C55.634 18.0055 53.8646 20.0614 53.8538 22.4294C53.847 23.9014 54.4205 24.448 54.9965 24.4506C55.4925 24.4529 55.9257 24.1989 56.3934 23.385C57.2159 21.9648 57.8174 19.9035 58.0201 17.5524ZM73.3815 13.7826C73.5419 13.7034 73.6541 13.6559 73.7661 13.6564C74.0061 13.6575 74.1172 13.85 74.1164 14.042C74.1159 14.138 74.0675 14.2338 73.9551 14.3133C73.2654 14.6941 72.9438 15.0446 72.941 15.6366C72.9401 15.8446 72.9879 15.8929 73.2279 15.894C73.7879 15.8965 74.298 16.2989 74.2948 17.0028C74.2915 17.7228 73.7455 18.1683 73.0415 18.1651C72.2895 18.1617 71.6683 17.5508 71.6733 16.4468C71.6789 15.2309 72.4191 14.3062 73.3815 13.7826ZM70.0696 13.7675C70.2139 13.6881 70.3262 13.6407 70.4382 13.6412C70.6782 13.6423 70.8053 13.8348 70.8044 14.0268C70.804 14.1228 70.7555 14.2186 70.6271 14.298C69.9534 14.679 69.6158 15.0294 69.6131 15.6214C69.6121 15.8294 69.6599 15.8776 69.8999 15.8787C70.4599 15.8813 70.9701 16.2836 70.9668 16.9876C70.9636 17.7076 70.4175 18.1531 69.7135 18.1499C68.9615 18.1465 68.3403 17.5356 68.3454 16.4316C68.3509 15.2156 69.0912 14.291 70.0696 13.7675ZM86.442 25.8745C86.4018 27.6663 85.0869 28.3003 83.5509 28.2933C81.6469 28.2846 80.4987 27.4473 80.5055 25.9594C80.5114 24.6794 81.6042 23.6284 83.6522 23.6377C83.9082 23.6389 84.1641 23.6561 84.452 23.6894C84.3433 22.9529 84.2978 22.4087 84.2997 21.9927C84.3029 21.3047 84.3365 20.9528 84.4188 20.4412C84.5009 19.9936 84.8697 19.8033 85.2537 19.805C85.7017 19.8071 86.1486 20.0651 86.1464 20.5451C86.1461 20.5931 86.13 20.625 86.1298 20.673C86.0637 21.1367 86.0138 21.5365 86.0118 21.9845C86.0097 22.4325 86.0549 23.0567 86.2263 24.0655C87.2489 24.3742 88.3027 24.843 89.2279 25.4713C89.5309 25.6806 89.6577 25.9532 89.6564 26.2252C89.6544 26.6732 89.2844 27.1035 88.8044 27.1013C88.6444 27.1006 88.4527 27.0357 88.2613 26.9068C87.6712 26.4881 87.0488 26.1333 86.442 25.8745ZM83.5581 26.7093C84.2941 26.7127 84.6956 26.3945 84.6988 25.6905C84.6995 25.5465 84.7 25.4185 84.6846 25.2905C84.3329 25.2249 83.9971 25.1913 83.6771 25.1899C82.5571 25.1847 82.2035 25.5351 82.2015 25.9671C82.1994 26.4311 82.5181 26.7046 83.5581 26.7093ZM80.1131 17.3015C80.3569 16.4866 80.5846 15.6716 80.7483 14.8723C80.8465 14.3928 81.2314 14.1866 81.6154 14.1883C82.0634 14.1904 82.4781 14.4643 82.4758 14.9763C82.4755 15.0403 82.4751 15.1203 82.4588 15.1842C82.3281 15.7916 82.1651 16.4308 81.9862 17.07C82.4666 16.9922 82.9469 16.9144 83.3953 16.8365C83.4594 16.8208 83.5234 16.8211 83.5714 16.8213C84.0834 16.8236 84.4015 17.2411 84.3995 17.6731C84.3979 18.0251 84.1883 18.3761 83.6758 18.4858C82.9871 18.6266 82.2025 18.751 81.418 18.8595C80.7372 20.7924 79.8644 22.7084 78.9294 24.2401C78.6876 24.639 78.3507 24.8135 78.0308 24.812C77.5508 24.8098 77.1364 24.4399 77.1386 23.9599C77.1394 23.7839 77.1883 23.5922 77.3172 23.4007C78.139 22.1245 78.8818 20.6399 79.4971 19.0587C78.9048 19.12 78.3287 19.1493 77.8326 19.1631C77.2885 19.1766 77.0026 18.7273 77.0046 18.2793C77.0065 17.8633 77.2644 17.4644 77.7764 17.4508C78.4966 17.4221 79.2968 17.3777 80.1131 17.3015ZM87.2179 17.142C87.985 17.3535 88.9749 17.806 89.6609 18.2412C90.0279 18.4668 90.1864 18.7876 90.1851 19.0756C90.183 19.5396 89.7971 19.9538 89.3331 19.9517C89.1731 19.9509 89.0133 19.9022 88.8538 19.8055C88.1038 19.37 87.2737 18.9502 86.5708 18.691C86.1715 18.5452 85.9968 18.2564 85.9981 17.9684C86.0001 17.5364 86.3702 17.0901 86.9142 17.0926C87.0102 17.093 87.1061 17.1095 87.2179 17.142ZM103.992 15.7467L103.98 18.3867L106.733 18.2553L106.797 18.2556C107.357 18.2581 107.659 18.6915 107.657 19.1235C107.655 19.5235 107.381 19.9383 106.837 19.9678C105.877 20.0114 104.917 20.071 103.957 20.1146C103.936 21.1065 103.869 21.7942 103.77 22.3058C103.492 23.8085 102.849 24.3176 101.521 24.3115C101.105 24.3096 100.738 24.2599 100.418 24.1944C99.9703 24.0964 99.748 23.7114 99.7497 23.3434C99.7517 22.9114 100.026 22.4806 100.554 22.483C100.602 22.4833 100.666 22.4836 100.714 22.4998C100.905 22.5487 101.129 22.5817 101.433 22.5831C101.801 22.5847 101.962 22.4415 102.044 22.0259C102.126 21.5942 102.176 21.0664 102.196 20.2185C100.772 20.308 99.3472 20.3975 97.9227 20.503L97.9215 20.759C97.9143 22.327 97.9253 23.415 98.0001 24.5514C98.059 25.6717 98.6967 26.1866 100.089 26.193C101.657 26.2001 102.985 26.0782 104.202 25.8278C104.282 25.8121 104.363 25.7965 104.443 25.7969C104.987 25.7994 105.305 26.2328 105.302 26.6808C105.301 27.0648 105.043 27.4636 104.482 27.5731C103.169 27.8391 101.825 27.9449 100.065 27.9369C97.7287 27.9262 96.3243 27.1357 96.2072 24.7512C96.1484 23.6149 96.1218 22.4308 96.1293 20.7988L96.13 20.6388C95.2657 20.6988 94.4014 20.7749 93.537 20.8509L93.425 20.8504C93.073 20.8488 92.8338 20.6717 92.723 20.4152C92.6596 20.2869 92.6283 20.1428 92.6289 19.9988C92.6309 19.5668 92.9049 19.136 93.4491 19.0905C94.3454 19.0146 95.2417 18.9547 96.1381 18.8788L96.1497 16.3348C96.1521 15.8228 96.6012 15.5689 97.0492 15.5709C97.4972 15.573 97.944 15.831 97.9417 16.343L97.9306 18.759C99.3551 18.6535 100.795 18.5801 102.22 18.4906L102.233 15.7387C102.235 15.1947 102.684 14.9407 103.116 14.9427C103.564 14.9447 103.995 15.2027 103.992 15.7467ZM104.49 15.445C104.442 15.3488 104.427 15.2687 104.427 15.1887C104.429 14.8687 104.766 14.6302 105.086 14.6317C105.294 14.6326 105.501 14.7296 105.628 14.9542C105.914 15.4835 106.199 16.1248 106.372 16.6856C106.404 16.7817 106.403 16.8617 106.403 16.9417C106.401 17.3257 106.096 17.5483 105.776 17.5469C105.52 17.5457 105.281 17.4006 105.17 17.0961C104.997 16.5673 104.744 15.9581 104.49 15.445ZM106.301 14.7013C106.254 14.605 106.238 14.525 106.238 14.445C106.24 14.141 106.545 13.9184 106.865 13.9198C107.073 13.9208 107.296 14.0178 107.439 14.2425C107.725 14.7078 108.042 15.3652 108.216 15.862C108.263 15.9742 108.279 16.0703 108.279 16.1663C108.277 16.5503 107.956 16.7888 107.652 16.7875C107.412 16.7864 107.172 16.6573 107.046 16.3367C106.856 15.8238 106.587 15.2306 106.301 14.7013ZM110.573 18.3688C110.412 18.4481 110.3 18.4956 110.188 18.4951C109.948 18.494 109.837 18.3015 109.838 18.1095C109.838 18.0135 109.887 17.9177 109.999 17.8382C110.689 17.4574 111.01 17.1068 111.013 16.5148C111.014 16.3068 110.966 16.2586 110.726 16.2575C110.166 16.255 109.656 15.8526 109.659 15.1486C109.663 14.4286 110.209 13.9831 110.913 13.9863C111.665 13.9898 112.286 14.6006 112.281 15.7046C112.275 16.9206 111.535 17.8452 110.573 18.3688ZM113.885 18.384C113.74 18.4633 113.628 18.5108 113.516 18.5103C113.276 18.5092 113.149 18.3166 113.15 18.1246C113.15 18.0286 113.199 17.9328 113.327 17.8534C114.001 17.4725 114.338 17.1221 114.341 16.5301C114.342 16.3221 114.294 16.2738 114.054 16.2727C113.494 16.2702 112.984 15.8678 112.987 15.1638C112.991 14.4439 113.537 13.9984 114.241 14.0016C114.993 14.005 115.614 14.6159 115.609 15.7198C115.603 16.9358 114.863 17.8605 113.885 18.384ZM122.545 20.0556L122.576 20.0878C122.993 19.9297 123.458 19.8198 123.954 19.8221C125.058 19.8271 125.776 20.1664 126.187 21.3523C127.437 20.83 128.783 20.3562 130.193 19.9306C130.305 19.8991 130.417 19.8836 130.513 19.8841C131.041 19.8865 131.343 20.3199 131.342 20.7519C131.34 21.0879 131.146 21.439 130.698 21.5649C129.304 21.9746 127.878 22.4481 126.531 22.9859C126.609 23.5783 126.637 24.2824 126.666 25.1145C126.679 25.6586 126.214 25.9445 125.75 25.9424C125.334 25.9404 124.919 25.6985 124.905 25.2025C124.892 24.5944 124.862 24.0823 124.832 23.6501C123.164 24.4905 122.777 25.2087 122.774 25.8007C122.771 26.4247 123.346 26.7954 125.186 26.8038C126.194 26.8084 127.25 26.7172 128.291 26.546C128.355 26.5303 128.419 26.5306 128.467 26.5308C129.011 26.5333 129.329 26.9667 129.327 27.4147C129.325 27.7987 129.067 28.1816 128.523 28.2751C127.482 28.4623 126.298 28.5209 125.242 28.5161C122.218 28.5022 120.943 27.4884 120.95 25.9204C120.956 24.6404 121.713 23.4119 124.568 22.0009C124.362 21.408 124.027 21.2784 123.451 21.2758C122.859 21.2731 121.689 21.6997 120.164 22.9088C119.971 23.0519 119.779 23.115 119.587 23.1141C119.123 23.112 118.724 22.7102 118.726 22.2622C118.728 22.0222 118.841 21.7827 119.098 21.5599C120.11 20.6845 121.026 19.6487 121.816 18.4523C121.192 18.4974 120.616 18.5108 120.088 18.5244C119.512 18.5377 119.209 18.1043 119.211 17.6884C119.213 17.2884 119.503 16.8737 120.095 16.8764C120.847 16.8798 121.743 16.8359 122.672 16.7762C122.947 16.1374 123.189 15.5145 123.384 14.9234C123.514 14.524 123.851 14.3495 124.203 14.3512C124.651 14.3532 125.081 14.6432 125.079 15.0912C125.079 15.1712 125.079 15.2512 125.046 15.331C124.9 15.7784 124.738 16.1936 124.56 16.5928C125.393 16.5166 126.193 16.4083 126.882 16.2834C126.946 16.2677 127.01 16.268 127.074 16.2683C127.57 16.2706 127.84 16.6558 127.838 17.0398C127.837 17.3918 127.611 17.7588 127.131 17.8366C126.122 18.008 124.921 18.1785 123.737 18.2851C123.334 18.9392 122.931 19.5454 122.545 20.0556ZM139.162 18.0676L139.658 18.0699C140.778 18.075 141.272 18.4933 141.267 19.5653L141.231 27.5172C141.226 28.5572 140.616 28.9864 139.64 28.9819C139.24 28.9801 139.032 28.9632 138.728 28.9138C138.281 28.8477 138.09 28.4948 138.092 28.1428C138.094 27.7588 138.335 27.3599 138.767 27.3619C138.815 27.3621 138.847 27.3783 138.895 27.3785C139.103 27.4115 139.295 27.4283 139.503 27.4293C139.679 27.4301 139.759 27.3665 139.76 27.1585L139.771 24.7745L136.747 24.7607C136.629 26.1841 136.351 27.4629 135.882 28.5327C135.72 28.9 135.399 29.0745 135.095 29.0731C134.695 29.0713 134.313 28.7976 134.315 28.3656C134.315 28.2536 134.348 28.1257 134.412 27.982C135.026 26.7048 135.371 24.8024 135.382 22.3064L135.395 19.5384C135.396 19.2344 135.43 18.9946 135.527 18.787C135.366 18.8983 135.19 18.9455 135.03 18.9447C134.646 18.943 134.263 18.6532 134.265 18.2692C134.266 18.0932 134.331 17.9015 134.507 17.7103C135.183 16.9614 135.892 15.7646 136.426 14.5831C136.555 14.2797 136.828 14.1369 137.116 14.1382C137.516 14.1401 137.915 14.3979 137.913 14.7979C137.912 14.8939 137.896 14.9738 137.864 15.0697C137.783 15.2933 137.67 15.5168 137.573 15.7403L138.452 15.7444C139.268 15.7481 139.634 16.1978 139.632 16.7098C139.632 16.8378 139.615 16.9657 139.566 17.0935C139.469 17.381 139.339 17.7324 139.162 18.0676ZM137.018 18.0578L137.546 18.0602C137.707 17.757 137.852 17.5016 137.934 17.23C137.95 17.1981 137.95 17.1661 137.95 17.1501C137.95 17.0541 137.871 17.0057 137.711 17.005L136.863 17.0011C136.589 17.4319 136.299 17.8465 135.993 18.2451C136.314 18.0866 136.666 18.0562 137.018 18.0578ZM136.817 23.417L137.633 23.4207L137.64 21.9807L136.84 21.9771L136.838 22.457C136.836 22.777 136.835 23.097 136.817 23.417ZM139.793 23.4306L139.8 21.9906L138.952 21.9867L138.945 23.4267L139.793 23.4306ZM139.806 20.7106L139.811 19.6706C139.812 19.4306 139.764 19.3664 139.556 19.3654L138.964 19.3627L138.958 20.7067L139.806 20.7106ZM137.652 19.3567L137.108 19.3542C136.9 19.3533 136.852 19.4171 136.851 19.6571L136.846 20.6971L137.646 20.7007L137.652 19.3567ZM146.498 16.3412L145.234 16.3354C144.907 17.7899 144.053 19.098 142.801 19.9403C142.625 20.0675 142.433 20.1146 142.273 20.1139C141.825 20.1118 141.49 19.7583 141.492 19.3583C141.493 19.1183 141.606 18.8628 141.911 18.6562C142.714 18.1319 143.309 17.3346 143.602 16.3279L142.242 16.3217C141.826 16.3198 141.62 15.9509 141.621 15.5989C141.623 15.2309 141.832 14.8798 142.248 14.8817L146.952 14.9032C148.12 14.9086 148.598 15.3748 148.595 16.1588C148.592 16.8148 148.444 17.5341 148.249 18.2212C147.957 19.2279 147.427 19.5615 146.419 19.5569C146.131 19.5555 145.907 19.5385 145.539 19.4888C145.06 19.4066 144.837 19.0696 144.839 18.7176C144.841 18.3496 145.114 17.9829 145.578 17.985C145.626 17.9852 145.674 18.0014 145.722 18.0016C145.978 18.0348 146.122 18.0515 146.266 18.0521C146.49 18.0532 146.602 17.9897 146.699 17.7341C146.845 17.3508 146.943 16.8712 146.945 16.5832C146.946 16.3752 146.866 16.3429 146.498 16.3412ZM144.026 21.5619L144.746 21.5652L144.751 20.4772C144.753 20.0452 145.17 19.8231 145.586 19.825C146.002 19.8269 146.417 20.0528 146.415 20.4848L146.41 21.5728L148.218 21.5811C148.602 21.5829 148.792 21.9357 148.791 22.2877C148.789 22.6397 148.595 22.9908 148.211 22.9891L146.403 22.9808L146.397 24.3088L148.701 24.3193C149.085 24.3211 149.276 24.674 149.274 25.042C149.272 25.394 149.079 25.7611 148.695 25.7593L146.391 25.7488L146.378 28.5328C146.376 28.9648 145.959 29.1868 145.543 29.1849C145.127 29.183 144.712 28.9571 144.714 28.5251L144.727 25.7412L142.279 25.73C141.895 25.7282 141.689 25.3593 141.69 25.0073C141.692 24.6393 141.901 24.2882 142.285 24.29L144.733 24.3012L144.739 22.9732L143.476 22.9674C143.379 23.175 143.282 23.3665 143.169 23.542C142.991 23.8612 142.687 23.9878 142.415 23.9866C142.031 23.9848 141.68 23.7272 141.682 23.3272C141.682 23.1832 141.731 23.0074 141.844 22.832C142.199 22.2416 142.506 21.555 142.734 20.724C142.831 20.3564 143.152 20.1979 143.456 20.1993C143.824 20.201 144.207 20.4427 144.205 20.8587C144.205 20.9227 144.189 20.9867 144.172 21.0506L144.026 21.5619ZM154.841 28.8755L153.193 28.8679C151.977 28.8624 151.579 28.3805 151.583 27.3886L151.592 25.4526C151.597 24.4606 151.999 23.9824 153.215 23.988L154.863 23.9955C156.079 24.0011 156.477 24.4829 156.472 25.4749L156.463 27.4109C156.458 28.5469 155.929 28.8805 154.841 28.8755ZM153.519 27.4294L154.527 27.434C154.783 27.4352 154.864 27.3396 154.865 27.0676L154.871 25.8036C154.872 25.5316 154.792 25.4352 154.536 25.434L153.528 25.4294C153.272 25.4283 153.192 25.5239 153.191 25.7959L153.185 27.0599C153.184 27.3159 153.247 27.4282 153.519 27.4294ZM163.107 23.0572L163.089 27.1052C163.088 27.3612 163.215 27.4418 163.583 27.4435C164.047 27.4456 164.224 27.3504 164.356 26.455C164.406 26.0392 164.727 25.8487 165.063 25.8502C165.463 25.852 165.861 26.1099 165.859 26.5579L165.859 26.6379C165.659 28.461 165.112 28.9385 163.464 28.9309C162.024 28.9243 161.482 28.6179 161.487 27.4819L161.507 23.0499L160.787 23.0466C160.599 25.7498 159.534 27.7129 157.928 28.9536C157.736 29.1127 157.527 29.1758 157.335 29.1749C156.887 29.1728 156.521 28.8032 156.523 28.3712C156.524 28.1312 156.653 27.8598 156.942 27.6371C158.195 26.6508 159.017 25.2785 159.187 23.0233C158.132 22.9385 157.734 22.4886 157.739 21.4327L157.748 19.4647C157.753 18.3447 158.155 17.8345 159.691 17.8416L161.339 17.8491C161.823 16.9553 162.179 16.1249 162.52 15.1025C162.649 14.7191 162.986 14.5606 163.322 14.5621C163.77 14.5642 164.217 14.8542 164.215 15.3022C164.214 15.3822 164.198 15.4781 164.166 15.574C163.874 16.3887 163.502 17.171 163.131 17.8573C164.347 17.9109 164.905 18.2334 164.9 19.4974L164.891 21.4654C164.885 22.7294 164.291 23.0147 163.107 23.0572ZM159.994 21.587L162.618 21.599C163.114 21.6013 163.243 21.4738 163.244 21.0738L163.25 19.7619C163.252 19.4419 163.124 19.2973 162.628 19.295L160.005 19.283C159.509 19.2807 159.38 19.4241 159.378 19.7441L159.372 21.0561C159.37 21.5041 159.578 21.5851 159.994 21.587ZM156.407 18.7865L151.415 18.7637C150.999 18.7618 150.777 18.3608 150.778 17.9608C150.78 17.5608 151.006 17.1618 151.422 17.1637L156.414 17.1866C156.846 17.1885 157.068 17.5896 157.066 17.9895C157.065 18.3895 156.839 18.7885 156.407 18.7865ZM155.665 16.4471L152.337 16.4319C151.937 16.4301 151.731 16.0451 151.733 15.6771C151.735 15.2931 151.944 14.9261 152.344 14.9279L155.672 14.9431C156.088 14.945 156.295 15.314 156.293 15.698C156.291 16.066 156.081 16.449 155.665 16.4471ZM155.645 21.0231L152.317 21.0078C151.917 21.006 151.71 20.6211 151.712 20.2531C151.714 19.8691 151.923 19.502 152.323 19.5039L155.651 19.5191C156.067 19.521 156.274 19.8899 156.272 20.2739C156.27 20.6419 156.061 21.025 155.645 21.0231ZM155.634 23.2631L152.306 23.2478C151.906 23.246 151.7 22.861 151.702 22.4931C151.704 22.1091 151.913 21.742 152.313 21.7438L155.641 21.7591C156.057 21.761 156.263 22.1299 156.262 22.5139C156.26 22.8819 156.05 23.265 155.634 23.2631ZM159.864 15.0583C160.15 15.4436 160.436 15.9409 160.61 16.3097C160.674 16.438 160.705 16.5662 160.704 16.6782C160.702 17.1582 160.237 17.492 159.789 17.49C159.533 17.4888 159.277 17.3597 159.135 17.071C158.96 16.7022 158.643 16.1407 158.436 15.8038C158.341 15.6594 158.31 15.5152 158.31 15.3872C158.312 14.9872 158.714 14.685 159.146 14.687C159.402 14.6882 159.673 14.8014 159.864 15.0583Z" fill="black"/>
<path d="M183.109 1.00024L171.609 42.0002" stroke="#282828" stroke-width="2" stroke-linecap="round"/>
</svg>
