<svg width="202" height="43" viewBox="0 0 202 43" fill="none" xmlns="http://www.w3.org/2000/svg">
<path d="M1.00024 1.00024L12.5002 42.0002" stroke="#282828" stroke-width="2" stroke-linecap="round"/>
<path d="M21.7926 18.2118L28.9285 18.2445C30.2085 18.2503 30.8459 18.8133 30.842 19.6613C30.8407 19.9492 30.7592 20.2849 30.6136 20.6362C30.0639 21.8657 29.2262 23.1099 28.165 24.2411C29.2649 25.1421 30.5416 25.8679 32.0111 26.4187C32.4584 26.5807 32.6488 26.9336 32.6472 27.2696C32.6452 27.7176 32.3072 28.148 31.7792 28.1456C31.6512 28.145 31.5233 28.1285 31.3955 28.0799C29.7663 27.4644 28.2664 26.5615 26.9757 25.4036C25.6584 26.5656 24.1339 27.5506 22.5471 28.1514C22.4189 28.1988 22.2908 28.2142 22.1788 28.2137C21.6988 28.2115 21.3646 27.81 21.3666 27.378C21.3679 27.09 21.5293 26.7867 21.9301 26.6286C23.3567 26.0591 24.6885 25.2172 25.8291 24.2304C25.1604 23.4913 24.5881 22.6887 24.1121 21.8225C23.7311 21.1487 23.4303 20.4594 23.1616 19.7381L21.7856 19.7318C21.723 22.9156 21.1845 25.2171 19.991 27.2917C19.7814 27.6427 19.4767 27.8013 19.1727 27.7999C18.7087 27.7978 18.2783 27.4439 18.2806 26.9479C18.2813 26.7879 18.3301 26.6121 18.4269 26.4365C19.4915 24.5534 19.9651 22.4595 19.9801 19.1796L19.992 16.5716C19.9986 15.1476 20.6736 14.4947 22.3855 14.5025L31.6334 14.5448C32.0974 14.5469 32.3196 14.948 32.3178 15.348C32.3159 15.764 32.09 16.1629 31.626 16.1608L22.7621 16.1202C21.9781 16.1167 21.8013 16.3079 21.7985 16.9158L21.7926 18.2118ZM28.5855 19.7629L24.9056 19.7461C25.412 20.9644 26.0947 22.1196 26.9862 23.0996C27.8064 22.1914 28.4829 21.2185 28.9353 20.2445C28.9838 20.1328 29.0162 20.0529 29.0165 19.9889C29.0172 19.8289 28.8735 19.7642 28.5855 19.7629ZM43.7547 23.0484L45.9626 23.0585C46.8266 23.0624 47.3846 23.513 47.3817 24.137C47.3803 24.441 47.2507 24.7924 46.9291 25.1429C46.6396 25.4616 46.3022 25.78 45.9168 26.0823C46.6834 26.3898 47.5624 26.6178 48.5537 26.7664C49.0334 26.8326 49.2558 27.1856 49.2542 27.5376C49.2523 27.9536 48.9462 28.4002 48.4022 28.3977C48.3542 28.3975 48.2903 28.3812 48.2423 28.381C46.8672 28.1827 45.4933 27.7124 44.3604 27.0512C43.0452 27.7332 41.5068 28.2541 40.0497 28.5035C39.9856 28.5192 39.9376 28.519 39.8896 28.5187C39.3936 28.5165 39.1074 28.1312 39.1091 27.7472C39.1106 27.4272 39.32 27.1081 39.7684 27.0302C40.9053 26.8434 42.0268 26.5125 43.0048 26.085C42.6063 25.7471 42.224 25.3774 41.922 24.944C41.4884 25.294 41.0389 25.612 40.5737 25.8818C40.4132 25.9771 40.2531 26.0084 40.1091 26.0077C39.6931 26.0058 39.3906 25.6684 39.3923 25.3004C39.3934 25.0604 39.5225 24.821 39.8113 24.6463C40.8542 24.0271 41.7699 23.2153 42.4618 22.3544C41.4541 22.2858 41.1202 21.8363 41.1243 20.9243L41.1334 18.9403C41.138 17.9483 41.62 17.5025 42.836 17.5081L46.052 17.5228C47.268 17.5284 47.7459 17.9786 47.7414 18.9706L47.7323 20.9545C47.7277 21.9465 47.2457 22.3923 46.0297 22.3868L44.2057 22.3784C44.0606 22.6178 43.8997 22.825 43.7547 23.0484ZM43.0272 21.189L45.8271 21.2018C46.1151 21.2031 46.1794 21.1394 46.1804 20.9154L46.1823 20.4994L42.6784 20.4834L42.6765 20.8994C42.6755 21.1234 42.7392 21.1877 43.0272 21.189ZM46.1873 19.4115L46.1891 19.0275C46.1901 18.8035 46.1264 18.7392 45.8384 18.7379L43.0384 18.725C42.7504 18.7237 42.6861 18.7874 42.6851 19.0114L42.6834 19.3954L46.1873 19.4115ZM45.2691 24.2713L43.2211 24.2619C43.5873 24.6636 44.0017 25.0175 44.4643 25.3236C44.8174 25.0852 45.1385 24.8307 45.4118 24.56C45.4921 24.4803 45.5404 24.4166 45.5406 24.3686C45.5409 24.3046 45.4451 24.2721 45.2691 24.2713ZM36.6277 28.0558L36.6545 22.1999C36.4615 22.407 36.2526 22.598 36.0598 22.7892C35.8509 22.9802 35.6425 23.0593 35.4345 23.0583C35.0025 23.0563 34.6362 22.6866 34.6381 22.2706C34.6391 22.0467 34.7362 21.8071 34.9612 21.6001C35.9252 20.7245 36.9715 19.3533 37.7782 17.885C37.9396 17.5817 38.2121 17.4709 38.4841 17.4722C38.9321 17.4742 39.3627 17.7802 39.3606 18.2442C39.36 18.3722 39.3434 18.5001 39.2628 18.6438C38.8915 19.3621 38.4082 20.0799 37.893 20.7655C38.1326 20.8626 38.3237 21.0555 38.3224 21.3435L38.2917 28.0634C38.2897 28.4954 37.8727 28.7015 37.4567 28.6996C37.0407 28.6977 36.6257 28.4878 36.6277 28.0558ZM42.8296 15.4121L48.5415 15.4382C48.9575 15.4401 49.1638 15.809 49.1622 16.177C49.1605 16.529 48.9509 16.8961 48.5349 16.8942L41.9589 16.8641C41.669 17.2788 41.3472 17.6773 41.0095 18.0598C40.8165 18.2669 40.5921 18.3458 40.3681 18.3448C39.9361 18.3428 39.5216 18.0209 39.5236 17.589C39.5244 17.413 39.6053 17.2053 39.7822 17.0141C40.4416 16.2811 41.1504 15.2284 41.5549 14.2542C41.7005 13.9029 42.0051 13.7603 42.3091 13.7617C42.7411 13.7636 43.1878 14.0537 43.1858 14.5017C43.1853 14.5977 43.1689 14.6936 43.1204 14.8054C43.0395 14.997 42.9425 15.2046 42.8296 15.4121ZM37.3631 14.203C37.5243 13.9318 37.7969 13.805 38.0529 13.8062C38.5009 13.8082 38.9474 14.1303 38.9454 14.5623C38.9448 14.6903 38.9123 14.8181 38.8316 14.9618C38.1543 16.1267 37.1084 17.4019 36.1284 18.2774C35.9356 18.4525 35.7272 18.5316 35.5352 18.5307C35.0872 18.5287 34.7051 18.1269 34.7071 17.6949C34.7081 17.4709 34.8051 17.2474 35.0301 17.0404C35.8173 16.34 36.7344 15.2242 37.3631 14.203ZM56.9336 20.6766C56.5887 19.139 56.3574 17.234 56.3675 15.026C56.3701 14.45 56.8354 14.1641 57.2994 14.1662C57.7634 14.1684 58.2261 14.4585 58.2235 15.0345C58.2153 16.8265 58.352 18.4271 58.57 19.7241C59.5482 19.2486 60.6382 18.8216 61.7277 18.4905C61.8238 18.459 61.9199 18.4434 62.0159 18.4439C62.5119 18.4461 62.8459 18.8957 62.8438 19.3437C62.8423 19.6797 62.6648 19.9988 62.2482 20.1249C60.8222 20.5664 59.2192 21.2151 58.0318 21.9617C56.6517 22.8514 56.1677 23.7292 56.1639 24.5452C56.1594 25.5371 56.8131 26.0521 59.357 26.0638C60.637 26.0696 61.7735 25.9628 62.6703 25.7909C62.7504 25.7753 62.8144 25.7756 62.8784 25.7759C63.4384 25.7784 63.7404 26.2118 63.7383 26.6598C63.7365 27.0598 63.5108 27.4428 63.0143 27.5525C61.9252 27.7715 60.6929 27.8459 59.3329 27.8397C55.9729 27.8243 54.2976 26.7926 54.3075 24.6327C54.3135 23.3207 54.9274 22.0275 56.9336 20.6766ZM78.618 23.2719L78.6705 25.7841L78.6595 28.2001C78.6573 28.6641 78.2403 28.8862 77.8083 28.8842C77.3923 28.8823 76.9613 28.6563 76.9635 28.1924L76.9745 25.7764L77.0501 23.2487C76.0519 24.5881 74.5251 26.0852 72.9843 27.1341C72.7756 27.2772 72.5834 27.3243 72.4074 27.3235C71.9594 27.3215 71.6411 26.952 71.6429 26.552C71.6441 26.296 71.7733 26.0246 72.0622 25.8339C73.6671 24.7692 75.2099 23.2883 76.4019 21.5337L74.034 21.5229C73.602 21.5209 73.3957 21.136 73.3975 20.752C73.3992 20.368 73.609 19.9849 74.041 19.9869L77.0009 20.0004L77.0094 18.1445L74.7695 18.1342C74.3375 18.1322 74.1312 17.7473 74.133 17.3633C74.1347 16.9793 74.3445 16.5963 74.7765 16.5982L77.0165 16.6085L77.0261 14.4965C77.0283 14.0325 77.4613 13.7945 77.8773 13.7964C78.3093 13.7984 78.7242 14.0403 78.7221 14.5043L78.7125 16.6162L81.2084 16.6277C81.6404 16.6296 81.8627 17.0147 81.8609 17.3986C81.8591 17.7826 81.6334 18.1656 81.2014 18.1636L78.7054 18.1522L78.6969 20.0082L82.1849 20.0242C82.6169 20.0261 82.8391 20.4112 82.8374 20.7952C82.8356 21.1791 82.6099 21.5621 82.1779 21.5601L79.1059 21.5461C80.0434 22.9744 81.2532 24.3239 82.5602 25.4179C82.8471 25.6592 82.9738 25.9478 82.9726 26.2038C82.9706 26.6518 82.6009 27.0181 82.1369 27.016C81.8969 27.0149 81.6414 26.9177 81.3865 26.6766C80.3671 25.6639 79.3646 24.4593 78.618 23.2719ZM71.3806 24.4388L70.0046 24.4325C68.9326 24.4276 68.4708 23.9455 68.4753 22.9535L68.5051 16.4415C68.5098 15.4335 68.9759 14.9557 70.0479 14.9606L71.4239 14.9669C72.4959 14.9718 72.9577 15.4539 72.9531 16.4619L72.9233 22.9738C72.9185 24.0298 72.4046 24.4435 71.3806 24.4388ZM70.3956 22.8983L71.0036 22.901C71.2436 22.9021 71.3401 22.7906 71.3414 22.5186L71.3671 16.9026C71.3684 16.6146 71.2729 16.5022 71.0329 16.5011L70.4249 16.4983C70.1849 16.4972 70.0884 16.6088 70.0871 16.8968L70.0614 22.5127C70.0603 22.7527 70.1556 22.8972 70.3956 22.8983ZM92.8548 24.009L91.3348 24.0021C90.6673 26.511 88.7404 28.0222 85.8573 28.6811C85.7773 28.6967 85.6972 28.7123 85.6172 28.712C85.1212 28.7097 84.819 28.3083 84.8208 27.9243C84.8222 27.6043 85.0317 27.2853 85.4802 27.1753C87.6905 26.6734 89.0394 25.6076 89.6228 23.9942C88.0228 23.9869 87.4176 23.3761 87.423 22.1921L87.4498 16.3362C87.4552 15.1522 88.0662 14.515 89.6981 14.5225L94.5781 14.5448C96.2101 14.5523 96.8151 15.195 96.8097 16.379L96.7829 22.235C96.7775 23.419 96.1668 24.0082 94.5668 24.0168L94.5548 26.6248C94.5534 26.9448 94.7288 27.0576 95.8968 27.063C97.3368 27.0696 97.5934 26.9427 97.7093 26.0952C97.7753 25.6635 98.1602 25.4573 98.5442 25.4591C98.9602 25.461 99.375 25.7189 99.3729 26.1829L99.3725 26.2789C99.1726 27.99 98.4502 28.5147 95.8102 28.5026C93.2823 28.491 92.8361 28.089 92.8412 26.969L92.8548 24.009ZM89.8852 22.5874L94.3172 22.6077C94.7172 22.6095 95.0853 22.5952 95.0875 22.1152L95.0912 21.2992L89.1233 21.2719L89.1195 22.0879C89.1178 22.4559 89.2933 22.5847 89.8852 22.5874ZM89.1354 18.6159L89.1296 19.8799L95.0976 19.9072L95.1033 18.6432L89.1354 18.6159ZM95.1097 17.2513L95.1132 16.4833C95.1149 16.1153 94.9395 15.9865 94.3475 15.9838L89.9156 15.9635C89.3236 15.9608 89.147 16.088 89.1453 16.456L89.1418 17.224L95.1097 17.2513ZM106.601 20.1199C105.949 22.7569 105.009 25.3446 103.864 27.3394C103.654 27.7065 103.317 27.8489 102.997 27.8475C102.533 27.8453 102.119 27.5234 102.121 27.0434C102.122 26.8994 102.17 26.7237 102.267 26.5481C103.283 24.7767 104.125 22.5886 104.744 20.3034C104.087 20.3804 103.447 20.4894 102.838 20.6147C102.774 20.6304 102.694 20.63 102.63 20.6297C102.134 20.6274 101.864 20.2262 101.866 19.8102C101.868 19.4422 102.093 19.0752 102.59 18.9815C103.407 18.8252 104.287 18.7173 105.136 18.6251C105.332 17.65 105.497 16.6588 105.613 15.6833C105.679 15.1716 106.08 14.9334 106.496 14.9353C106.944 14.9374 107.391 15.2274 107.389 15.7394L107.388 15.8514C107.288 16.715 107.14 17.6103 106.96 18.4895C107.28 18.475 107.568 18.4763 107.824 18.4774C109.872 18.4868 110.62 19.4182 110.608 21.9302C110.602 23.4342 110.435 24.7775 110.159 25.7522C109.639 27.5898 108.916 28.2425 107.3 28.2351C106.916 28.2334 106.516 28.1996 106.212 28.1502C105.668 28.0677 105.43 27.6666 105.432 27.2826C105.434 26.8346 105.724 26.4039 106.252 26.4063C106.284 26.4065 106.332 26.4227 106.38 26.4229C106.684 26.4563 106.924 26.4894 107.26 26.4909C107.82 26.4935 108.108 26.3188 108.385 25.3761C108.661 24.4653 108.811 23.218 108.817 21.906C108.823 20.466 108.553 20.0808 107.785 20.0773C107.433 20.0757 107.033 20.0898 106.601 20.1199ZM112.981 17.413C113.985 18.3776 114.97 19.8542 115.509 20.9286C115.604 21.1211 115.635 21.3132 115.635 21.4732C115.632 22.0332 115.182 22.3992 114.702 22.397C114.382 22.3955 114.047 22.218 113.825 21.7849C113.254 20.6303 112.412 19.3944 111.568 18.4786C111.393 18.2858 111.314 18.0774 111.315 17.9014C111.317 17.4534 111.767 17.1035 112.247 17.1057C112.503 17.1068 112.758 17.204 112.981 17.413ZM114.37 14.5074C114.243 14.3788 114.196 14.2506 114.196 14.1226C114.198 13.8026 114.503 13.5319 114.871 13.5336C115.031 13.5344 115.191 13.5991 115.35 13.7278C115.764 14.0817 116.242 14.5799 116.576 15.0454C116.703 15.206 116.751 15.3663 116.75 15.5262C116.748 15.8782 116.443 16.1329 116.107 16.1313C115.915 16.1304 115.707 16.0495 115.548 15.8408C115.183 15.3751 114.737 14.893 114.37 14.5074ZM112.765 15.764C112.653 15.6355 112.606 15.5073 112.606 15.3953C112.608 15.0753 112.929 14.7888 113.281 14.7904C113.425 14.791 113.585 14.8398 113.728 14.9684C114.159 15.3544 114.636 15.8686 114.97 16.3661C115.081 16.5106 115.113 16.6548 115.112 16.7988C115.11 17.1508 114.805 17.4374 114.469 17.4358C114.277 17.435 114.086 17.3381 113.942 17.1294C113.561 16.5997 113.131 16.1337 112.765 15.764ZM126.331 19.6821L126.3 26.3861C126.293 28.002 125.49 28.6224 124.098 28.616C123.73 28.6143 123.314 28.5964 122.866 28.5144C122.355 28.416 122.117 28.0149 122.119 27.5989C122.121 27.1189 122.443 26.6404 123.019 26.643C123.067 26.6433 123.131 26.6436 123.195 26.6599C123.499 26.7092 123.691 26.7261 123.883 26.727C124.235 26.7286 124.379 26.6173 124.381 26.1533L124.411 19.6733L119.771 19.6521C119.259 19.6498 119.005 19.2166 119.007 18.8006C119.009 18.3686 119.267 17.9538 119.779 17.9561L124.419 17.9774L124.43 15.5934C124.432 15.0494 124.929 14.7797 125.409 14.7819C125.889 14.7841 126.352 15.0422 126.35 15.5702L126.339 17.9861L130.915 18.0071C131.427 18.0094 131.681 18.4266 131.679 18.8586C131.677 19.2746 131.419 19.7054 130.907 19.7031L126.331 19.6821ZM130.916 14.119C131.876 14.1234 132.625 14.8789 132.621 15.8389C132.616 16.8149 131.861 17.5634 130.901 17.559C129.925 17.5545 129.176 16.7991 129.181 15.8231C129.185 14.8631 129.94 14.1146 130.916 14.119ZM130.904 16.759C131.416 16.7614 131.818 16.3472 131.821 15.8352C131.823 15.3232 131.425 14.9214 130.913 14.919C130.401 14.9167 129.983 15.3148 129.981 15.8268C129.978 16.3388 130.392 16.7567 130.904 16.759ZM129.826 21.7461C130.222 22.564 130.984 23.7675 131.589 24.5062C131.796 24.7632 131.891 25.0196 131.89 25.2436C131.887 25.7716 131.421 26.1695 130.925 26.1672C130.621 26.1658 130.286 26.0203 130.032 25.6671C129.411 24.8323 128.57 23.4364 128.126 22.4264C128.063 22.2821 128.032 22.1379 128.032 22.0099C128.035 21.4979 128.484 21.196 128.948 21.1981C129.3 21.1997 129.635 21.3613 129.826 21.7461ZM120.785 21.7528C120.963 21.3536 121.3 21.1791 121.652 21.1807C122.116 21.1829 122.578 21.521 122.576 22.049C122.575 22.177 122.559 22.3049 122.494 22.4486C121.976 23.7102 121.171 24.9226 120.19 25.8941C119.949 26.133 119.677 26.2278 119.437 26.2267C118.925 26.2243 118.495 25.8223 118.497 25.3583C118.498 25.1183 118.595 24.8788 118.836 24.6559C119.64 23.8756 120.3 22.8546 120.785 21.7528ZM141.75 27.8168L141.782 20.8408C140.449 21.8907 139.053 22.7964 137.722 23.5103C137.529 23.6214 137.337 23.6525 137.161 23.6517C136.649 23.6494 136.283 23.2157 136.285 22.7517C136.286 22.4317 136.464 22.0805 136.897 21.8585C139.8 20.3518 142.739 17.9012 144.703 15.3341C144.928 15.0472 145.217 14.9205 145.505 14.9218C146.001 14.9241 146.479 15.3103 146.477 15.8223C146.476 15.9983 146.411 16.206 146.25 16.4132C145.3 17.6409 144.127 18.8515 142.842 19.9657C143.274 19.9996 143.672 20.2895 143.67 20.8015L143.638 27.8254C143.635 28.3854 143.17 28.6553 142.69 28.6531C142.226 28.6509 141.747 28.3768 141.75 27.8168ZM154.826 16.5005C155.559 16.9998 156.42 17.7078 157.169 18.5112C157.376 18.7202 157.455 18.9605 157.453 19.2005C157.451 19.7445 156.969 20.2543 156.425 20.2518C156.185 20.2507 155.929 20.1535 155.706 19.9285C154.989 19.2052 154.24 18.5298 153.539 17.9826C153.268 17.7733 153.157 17.5168 153.158 17.2608C153.161 16.7648 153.627 16.287 154.187 16.2895C154.395 16.2905 154.602 16.3554 154.826 16.5005ZM163.392 18.5717C163.586 18.2206 163.907 18.078 164.211 18.0794C164.707 18.0817 165.185 18.4359 165.183 18.9639C165.182 19.1239 165.117 19.2996 165.02 19.4751C162.714 23.4806 159.069 26.36 155.094 27.8458C154.934 27.9091 154.79 27.9244 154.662 27.9238C154.086 27.9212 153.704 27.4234 153.706 26.9434C153.708 26.5915 153.885 26.2563 154.334 26.0983C157.972 24.7389 161.457 21.9869 163.392 18.5717ZM175.31 15.6662L175.289 20.1621C175.451 19.8749 175.739 19.6682 176.075 19.6697C176.219 19.6704 176.347 19.703 176.491 19.7676C177.481 20.2202 178.869 21.0425 179.874 21.8311C180.193 22.0726 180.319 22.3772 180.318 22.6652C180.315 23.1772 179.914 23.6073 179.402 23.605C179.194 23.604 178.954 23.5389 178.731 23.3619C177.806 22.6537 176.45 21.8155 175.747 21.4282C175.524 21.2992 175.381 21.1546 175.285 20.9781L175.254 27.874C175.251 28.434 174.786 28.7039 174.306 28.7017C173.842 28.6996 173.363 28.4254 173.366 27.8654L173.422 15.6575C173.424 15.0975 173.906 14.8117 174.37 14.8139C174.85 14.8161 175.312 15.1062 175.31 15.6662Z" fill="black"/>
<path d="M200.108 1.00024L188.608 42.0002" stroke="#282828" stroke-width="2" stroke-linecap="round"/>
</svg>
