<svg width="261" height="179" viewBox="0 0 261 179" fill="none" xmlns="http://www.w3.org/2000/svg">
<rect width="261" height="152" rx="76" fill="#69BD83"/>
<path d="M47.14 43.532C46.048 43.532 45.0913 43.406 44.27 43.154C43.458 42.9113 42.828 42.5707 42.38 42.132C41.9413 41.684 41.722 41.1567 41.722 40.55C41.722 40.046 41.8807 39.5093 42.198 38.94C42.5247 38.3613 43.0193 37.722 43.682 37.022L45.124 37.778C44.5827 38.3193 44.172 38.8093 43.892 39.248C43.612 39.6867 43.472 40.0647 43.472 40.382C43.472 40.7087 43.6213 40.998 43.92 41.25C44.228 41.502 44.6573 41.698 45.208 41.838C45.7587 41.9687 46.4027 42.034 47.14 42.034C47.6067 42.034 48.12 42.006 48.68 41.95C49.24 41.894 49.7907 41.8193 50.332 41.726C50.8827 41.6233 51.3633 41.5113 51.774 41.39L52.11 42.888C51.6993 43.0093 51.2047 43.1167 50.626 43.21C50.0567 43.3127 49.464 43.392 48.848 43.448C48.2413 43.504 47.672 43.532 47.14 43.532ZM42.422 34.306V32.808H51.718V34.306H42.422ZM62.19 41.978C62.6847 41.922 63.1373 41.782 63.548 41.558C63.968 41.3247 64.3273 41.0307 64.626 40.676C64.934 40.312 65.172 39.8967 65.34 39.43C65.508 38.9633 65.592 38.4593 65.592 37.918C65.592 37.1527 65.4147 36.4853 65.06 35.916C64.7053 35.3373 64.2107 34.894 63.576 34.586C62.9507 34.278 62.2227 34.124 61.392 34.124C60.6827 34.124 60.0247 34.2407 59.418 34.474C58.8113 34.7073 58.2747 35.034 57.808 35.454C57.3507 35.8647 56.9913 36.35 56.73 36.91C56.4687 37.4607 56.338 38.0533 56.338 38.688C56.338 39.1453 56.4127 39.584 56.562 40.004C56.7113 40.424 56.898 40.7693 57.122 41.04C57.3553 41.3013 57.598 41.432 57.85 41.432C58.214 41.432 58.564 41.1007 58.9 40.438C59.236 39.7753 59.5393 38.8233 59.81 37.582C60.09 36.3313 60.3233 34.8333 60.51 33.088L62.134 33.256C61.9287 34.992 61.6953 36.4807 61.434 37.722C61.1727 38.9633 60.874 39.9807 60.538 40.774C60.202 41.5673 59.8193 42.1553 59.39 42.538C58.9607 42.9113 58.4753 43.098 57.934 43.098C57.486 43.098 57.0707 42.986 56.688 42.762C56.3053 42.538 55.974 42.2253 55.694 41.824C55.414 41.4227 55.1947 40.956 55.036 40.424C54.8773 39.8827 54.798 39.304 54.798 38.688C54.798 37.8107 54.9613 37.0033 55.288 36.266C55.6147 35.5193 56.072 34.8753 56.66 34.334C57.248 33.7927 57.9433 33.3727 58.746 33.074C59.558 32.766 60.4447 32.612 61.406 32.612C62.5353 32.612 63.534 32.8267 64.402 33.256C65.2793 33.6853 65.9653 34.2967 66.46 35.09C66.9547 35.8833 67.202 36.826 67.202 37.918C67.202 38.6553 67.09 39.3413 66.866 39.976C66.6513 40.6107 66.3433 41.1753 65.942 41.67C65.5407 42.1553 65.06 42.552 64.5 42.86C63.94 43.168 63.3193 43.364 62.638 43.448L62.19 41.978ZM74.16 44.428V42.132H71.248V40.732H74.16V35.104H68.756V33.662H74.16V31.492H75.84V33.662H81.244V35.104H75.84V40.732H78.752V42.132H75.84V44.428H74.16ZM69.064 42.706L68.182 41.278C69.4233 40.186 70.4967 39.08 71.402 37.96C72.3073 36.8307 73.0213 35.72 73.544 34.628L74.776 35.342C74.3 36.2753 73.7587 37.1853 73.152 38.072C72.5453 38.9493 71.8967 39.78 71.206 40.564C70.5247 41.348 69.8107 42.062 69.064 42.706ZM80.936 42.706C80.1987 42.062 79.4847 41.348 78.794 40.564C78.1033 39.78 77.4547 38.9493 76.848 38.072C76.2507 37.1853 75.7093 36.2753 75.224 35.342L76.456 34.628C76.988 35.72 77.702 36.8307 78.598 37.96C79.5033 39.08 80.5767 40.186 81.818 41.278L80.936 42.706ZM90.092 40.984C90.092 39.9013 90.0267 39.0473 89.896 38.422C89.7747 37.7873 89.5647 37.3347 89.266 37.064C88.9767 36.7933 88.5753 36.658 88.062 36.658C87.614 36.658 87.18 36.7653 86.76 36.98C86.3493 37.1947 85.934 37.54 85.514 38.016C85.1033 38.4827 84.6507 39.108 84.156 39.892L82.784 39.108C83.2507 38.3893 83.6613 37.7267 84.016 37.12C84.38 36.5133 84.7067 35.9207 84.996 35.342C85.2947 34.754 85.5653 34.1567 85.808 33.55C86.06 32.934 86.3027 32.2667 86.536 31.548L88.188 31.814C87.8987 32.682 87.5907 33.4847 87.264 34.222C86.9373 34.95 86.578 35.6733 86.186 36.392L85.808 36.168C86.2187 35.9067 86.6573 35.7107 87.124 35.58C87.6 35.44 88.076 35.37 88.552 35.37C89.3267 35.37 89.9473 35.5567 90.414 35.93C90.89 36.3033 91.2353 36.9053 91.45 37.736C91.6647 38.5573 91.772 39.64 91.772 40.984H90.092ZM89.952 43.826C88.5147 43.826 87.39 43.6067 86.578 43.168C85.766 42.7387 85.36 42.1367 85.36 41.362C85.36 40.8207 85.5653 40.2887 85.976 39.766C86.3867 39.234 86.9793 38.7347 87.754 38.268C88.538 37.8013 89.476 37.372 90.568 36.98C91.6693 36.588 92.9107 36.2473 94.292 35.958L94.544 37.33C93.396 37.5727 92.36 37.848 91.436 38.156C90.5213 38.464 89.7327 38.7907 89.07 39.136C88.4167 39.472 87.9127 39.8173 87.558 40.172C87.2033 40.5267 87.026 40.872 87.026 41.208C87.026 41.6 87.278 41.908 87.782 42.132C88.2953 42.3467 89.0233 42.454 89.966 42.454C90.5447 42.454 91.1887 42.4167 91.898 42.342C92.6073 42.258 93.3727 42.1413 94.194 41.992L94.418 43.392C93.942 43.476 93.438 43.5507 92.906 43.616C92.374 43.6813 91.8513 43.7327 91.338 43.77C90.834 43.8073 90.372 43.826 89.952 43.826ZM82.826 34.334V33.004H93.984V34.334H82.826ZM100.704 42.062V34.488H108.838V40.396C108.838 40.7693 108.824 41.068 108.796 41.292C108.768 41.516 108.703 41.6793 108.6 41.782C108.507 41.8847 108.357 41.95 108.152 41.978C107.947 42.006 107.662 42.02 107.298 42.02C107.186 42.02 107.018 42.02 106.794 42.02C106.57 42.0107 106.346 42.0013 106.122 41.992L106.038 40.76C106.309 40.7693 106.533 40.7787 106.71 40.788C106.887 40.788 106.999 40.788 107.046 40.788C107.121 40.788 107.172 40.7833 107.2 40.774C107.228 40.7647 107.242 40.732 107.242 40.676C107.251 40.6107 107.256 40.5127 107.256 40.382V39.752H102.244V38.646H107.256V37.708H102.244V36.588H107.256V35.664H105.45V41.992H103.952V35.664H102.244V42.062H100.704ZM97.218 44.288L96.462 42.944C96.994 42.5987 97.4747 42.2487 97.904 41.894C98.3427 41.53 98.7487 41.1427 99.122 40.732L100.032 41.852C99.668 42.2907 99.2573 42.706 98.8 43.098C98.3427 43.49 97.8153 43.8867 97.218 44.288ZM98.268 41.698V38.226H96.672V36.826H99.878V41.698H98.268ZM105.394 44.064C104.423 44.064 103.583 44.036 102.874 43.98C102.165 43.924 101.563 43.8307 101.068 43.7C100.583 43.5787 100.177 43.4107 99.85 43.196C99.5233 42.9813 99.2527 42.72 99.038 42.412C98.8327 42.104 98.6553 41.74 98.506 41.32L99.864 41.222C99.9853 41.4553 100.13 41.656 100.298 41.824C100.466 41.9827 100.676 42.118 100.928 42.23C101.18 42.342 101.497 42.4307 101.88 42.496C102.272 42.5613 102.757 42.608 103.336 42.636C103.915 42.664 104.61 42.678 105.422 42.678H109.328L109.23 44.064H105.394ZM99.248 35.468C98.856 35.0293 98.4593 34.6 98.058 34.18C97.6567 33.7507 97.2507 33.3353 96.84 32.934L97.96 31.954C98.3613 32.3553 98.758 32.7707 99.15 33.2C99.5513 33.62 99.9433 34.054 100.326 34.502L99.248 35.468ZM104.064 35.342C103.653 35.0527 103.252 34.7727 102.86 34.502C102.468 34.2313 102.085 33.9747 101.712 33.732L102.72 32.892C103.093 33.1347 103.476 33.3913 103.868 33.662C104.26 33.9233 104.657 34.1987 105.058 34.488L104.064 35.342ZM100.452 33.214V31.898H108.838V33.214H100.452ZM105.184 35.16L104.176 34.39C104.643 34.1847 105.081 33.9747 105.492 33.76C105.903 33.5453 106.29 33.3307 106.654 33.116C107.018 32.892 107.349 32.6727 107.648 32.458L108.838 33.214C108.642 33.3633 108.343 33.55 107.942 33.774C107.55 33.998 107.111 34.236 106.626 34.488C106.15 34.7307 105.669 34.9547 105.184 35.16ZM116.748 43.728C115.684 43.728 114.811 43.56 114.13 43.224C113.458 42.8973 112.959 42.3887 112.632 41.698C112.315 41.0073 112.156 40.1207 112.156 39.038V32.22H113.864V39.038C113.864 40.13 114.093 40.9233 114.55 41.418C115.007 41.9033 115.74 42.146 116.748 42.146C117.485 42.146 118.134 42.0107 118.694 41.74C119.263 41.4693 119.777 41.0307 120.234 40.424C120.701 39.808 121.149 38.9913 121.578 37.974L123.132 38.604C122.759 39.5373 122.357 40.3307 121.928 40.984C121.508 41.628 121.046 42.1553 120.542 42.566C120.047 42.9673 119.487 43.2613 118.862 43.448C118.237 43.6347 117.532 43.728 116.748 43.728ZM133.688 43.518C132.559 43.518 131.574 43.3267 130.734 42.944C129.903 42.5613 129.259 42.02 128.802 41.32C128.345 40.6107 128.116 39.78 128.116 38.828C128.116 38.0813 128.251 37.3953 128.522 36.77C128.802 36.1353 129.194 35.58 129.698 35.104C130.211 34.6187 130.818 34.25 131.518 33.998L131.658 34.432L124.994 34.586V33.088L136.796 32.808V34.306L135.018 34.348C134.29 34.3667 133.613 34.4787 132.988 34.684C132.372 34.8893 131.831 35.1833 131.364 35.566C130.897 35.9487 130.533 36.4013 130.272 36.924C130.02 37.4373 129.894 38.016 129.894 38.66C129.894 39.3507 130.048 39.948 130.356 40.452C130.664 40.9467 131.098 41.3247 131.658 41.586C132.227 41.8473 132.909 41.978 133.702 41.978C133.963 41.978 134.262 41.964 134.598 41.936C134.943 41.908 135.242 41.8707 135.494 41.824L135.676 43.364C135.377 43.4107 135.046 43.448 134.682 43.476C134.327 43.504 133.996 43.518 133.688 43.518ZM141.85 44.106C141.421 43.5367 140.959 43.0047 140.464 42.51C139.969 42.006 139.433 41.5393 138.854 41.11L140.002 39.962C140.581 40.41 141.131 40.9 141.654 41.432C142.177 41.9547 142.662 42.5193 143.11 43.126L141.85 44.106ZM154.492 44.288V37.442H152.546V36.098H154.506V31.632H156.018V36.098H157.768V37.442H156.032V44.288H154.492ZM153.008 42.804L152.238 41.236C152.807 40.48 153.274 39.71 153.638 38.926C154.011 38.142 154.296 37.316 154.492 36.448L155.234 36.854C155.141 37.6193 154.991 38.366 154.786 39.094C154.581 39.8127 154.324 40.4893 154.016 41.124C153.717 41.7493 153.381 42.3093 153.008 42.804ZM156.914 41.208C156.597 40.4893 156.275 39.7753 155.948 39.066C155.631 38.3473 155.299 37.6147 154.954 36.868L155.948 36.364C156.293 37.0173 156.634 37.6753 156.97 38.338C157.306 38.9913 157.637 39.654 157.964 40.326L156.914 41.208ZM153.204 35.804C153.083 35.2533 152.952 34.698 152.812 34.138C152.681 33.578 152.551 33.0647 152.42 32.598L153.694 32.262C153.825 32.7287 153.955 33.242 154.086 33.802C154.217 34.3527 154.329 34.908 154.422 35.468L153.204 35.804ZM157.586 42.258L157.446 40.83L165.622 39.304L165.762 40.732L157.586 42.258ZM160.708 39.514C160.307 39.066 159.873 38.604 159.406 38.128C158.939 37.6427 158.445 37.1573 157.922 36.672L159.028 35.622C159.551 36.098 160.05 36.574 160.526 37.05C161.002 37.526 161.436 37.988 161.828 38.436L160.708 39.514ZM157.306 35.818L156.074 35.426C156.242 34.922 156.391 34.3853 156.522 33.816C156.662 33.2373 156.769 32.696 156.844 32.192L158.16 32.388C158.067 32.9293 157.945 33.5033 157.796 34.11C157.647 34.7073 157.483 35.2767 157.306 35.818ZM162.78 44.288V31.632H164.418V44.288H162.78ZM161.478 35.958C161.105 35.538 160.708 35.1133 160.288 34.684C159.877 34.2547 159.434 33.8207 158.958 33.382L160.078 32.346C160.554 32.7753 161.002 33.2047 161.422 33.634C161.842 34.054 162.239 34.4693 162.612 34.88L161.478 35.958ZM170.102 43.882V42.524H174.176V41.124H170.928V39.85H174.176V35.804H172.51V34.656H174.176V33.214H175.842V34.656H177.508V33.214H172.51V38.562H170.97V31.898H179.048V38.562H172.51V37.316H177.508V35.804H175.842V39.85H179.258V41.124H175.842V42.524H179.454V43.882H170.102ZM166.616 43.042L166.462 41.614C166.882 41.5113 167.321 41.3993 167.778 41.278C168.245 41.1473 168.707 41.0073 169.164 40.858C169.631 40.6993 170.083 40.5407 170.522 40.382L170.564 41.768C170.144 41.936 169.705 42.0993 169.248 42.258C168.791 42.4167 168.338 42.5613 167.89 42.692C167.442 42.8227 167.017 42.9393 166.616 43.042ZM167.722 41.572V37.834H166.672V36.392H167.722V33.802H166.532V32.332H170.536V33.802H169.318V36.392H170.452V37.834H169.318V41.572H167.722ZM180.742 43.308C181.087 42.4213 181.395 41.6047 181.666 40.858C181.937 40.102 182.179 39.3787 182.394 38.688C182.618 37.9973 182.819 37.2973 182.996 36.588C183.183 35.8787 183.355 35.1227 183.514 34.32C183.673 33.5173 183.831 32.6307 183.99 31.66L185.614 31.842C185.465 32.7753 185.311 33.648 185.152 34.46C184.993 35.2627 184.816 36.0373 184.62 36.784C184.433 37.5213 184.223 38.2587 183.99 38.996C183.766 39.7333 183.509 40.494 183.22 41.278C182.94 42.062 182.623 42.902 182.268 43.798L180.742 43.308ZM192.082 41.474C191.998 40.914 191.886 40.3167 191.746 39.682C191.615 39.038 191.461 38.394 191.284 37.75C191.107 37.106 190.92 36.4853 190.724 35.888L192.278 35.426C192.474 36.042 192.661 36.6813 192.838 37.344C193.025 37.9973 193.188 38.6553 193.328 39.318C193.468 39.9713 193.585 40.5967 193.678 41.194L192.082 41.474ZM190.612 35.118C190.369 34.6047 190.131 34.1473 189.898 33.746C189.665 33.3447 189.403 32.948 189.114 32.556L190.276 31.884C190.575 32.2853 190.841 32.7007 191.074 33.13C191.317 33.5593 191.555 34.026 191.788 34.53L190.612 35.118ZM192.572 34.376C192.348 33.8533 192.124 33.3913 191.9 32.99C191.676 32.5793 191.429 32.1827 191.158 31.8L192.292 31.17C192.591 31.5807 192.852 32.0007 193.076 32.43C193.309 32.8593 193.533 33.3307 193.748 33.844L192.572 34.376ZM187.392 43.462C187.149 43.462 186.846 43.4293 186.482 43.364C186.118 43.308 185.735 43.224 185.334 43.112C184.942 43.0093 184.564 42.8927 184.2 42.762L184.578 41.348C184.886 41.4413 185.189 41.5347 185.488 41.628C185.796 41.712 186.076 41.782 186.328 41.838C186.589 41.8847 186.79 41.908 186.93 41.908C187.229 41.908 187.476 41.7727 187.672 41.502C187.868 41.222 188.013 40.788 188.106 40.2C188.209 39.6027 188.26 38.8373 188.26 37.904C188.26 37.3627 188.241 36.9287 188.204 36.602C188.167 36.266 188.087 36.014 187.966 35.846C187.854 35.678 187.681 35.566 187.448 35.51C187.215 35.454 186.902 35.426 186.51 35.426H180.574V33.97H186.356C187 33.97 187.537 33.998 187.966 34.054C188.405 34.1007 188.75 34.1987 189.002 34.348C189.263 34.4973 189.459 34.726 189.59 35.034C189.73 35.3327 189.819 35.734 189.856 36.238C189.903 36.7327 189.926 37.3533 189.926 38.1C189.926 39.3133 189.837 40.3167 189.66 41.11C189.483 41.9033 189.203 42.496 188.82 42.888C188.447 43.2707 187.971 43.462 187.392 43.462ZM49.912 69.498C49.2493 68.994 48.6427 68.546 48.092 68.154C47.5413 67.7713 47.0233 67.4213 46.538 67.104C46.0527 66.7773 45.5767 66.4647 45.11 66.166C44.6433 65.8673 44.158 65.564 43.654 65.256C43.1407 64.9293 42.7253 64.6633 42.408 64.458C42.0907 64.2433 41.848 64.0567 41.68 63.898C41.512 63.73 41.3953 63.562 41.33 63.394C41.2647 63.226 41.232 63.0347 41.232 62.82C41.232 62.5867 41.2647 62.386 41.33 62.218C41.4047 62.0407 41.5307 61.868 41.708 61.7C41.8853 61.5227 42.1373 61.3313 42.464 61.126C42.7907 60.9207 43.2107 60.6687 43.724 60.37C44.2653 60.0713 44.8487 59.7307 45.474 59.348C46.1087 58.9653 46.7713 58.5547 47.462 58.116C48.1527 57.668 48.8387 57.1967 49.52 56.702L50.514 58.06C50.094 58.3493 49.6553 58.6433 49.198 58.942C48.7407 59.2313 48.288 59.5113 47.84 59.782C47.4013 60.0527 46.9767 60.3093 46.566 60.552C46.1553 60.7853 45.7867 60.9953 45.46 61.182C45.1333 61.3593 44.8673 61.5087 44.662 61.63C44.2607 61.854 43.948 62.036 43.724 62.176C43.5093 62.316 43.36 62.4327 43.276 62.526C43.192 62.61 43.15 62.7033 43.15 62.806C43.15 62.9087 43.178 63.002 43.234 63.086C43.29 63.1607 43.416 63.2633 43.612 63.394C43.808 63.5153 44.1067 63.6973 44.508 63.94C44.732 64.0613 45.0167 64.2293 45.362 64.444C45.7167 64.6493 46.118 64.892 46.566 65.172C47.014 65.4427 47.4807 65.7413 47.966 66.068C48.4607 66.3853 48.96 66.7213 49.464 67.076C49.9773 67.4213 50.472 67.7713 50.948 68.126L49.912 69.498ZM49.506 63.632C49.282 63.156 49.0487 62.7033 48.806 62.274C48.5633 61.8353 48.2833 61.3873 47.966 60.93L49.184 60.258C49.5013 60.7153 49.7813 61.168 50.024 61.616C50.276 62.0547 50.5187 62.5213 50.752 63.016L49.506 63.632ZM51.634 62.848C51.4287 62.3533 51.2047 61.8913 50.962 61.462C50.7287 61.0233 50.458 60.5753 50.15 60.118L51.368 59.474C51.676 59.9407 51.9513 60.398 52.194 60.846C52.446 61.294 52.6747 61.77 52.88 62.274L51.634 62.848ZM58.2 66.712C59.6093 66.712 60.7527 66.6187 61.63 66.432C62.5167 66.236 63.1653 65.9327 63.576 65.522C63.9867 65.1113 64.192 64.584 64.192 63.94C64.192 63.2213 63.954 62.6847 63.478 62.33C63.0113 61.9753 62.2973 61.798 61.336 61.798C60.9533 61.798 60.5333 61.8307 60.076 61.896C59.6187 61.952 59.0913 62.0407 58.494 62.162C57.906 62.2833 57.22 62.4467 56.436 62.652L56.114 61.07C57.2993 60.79 58.326 60.5847 59.194 60.454C60.062 60.314 60.8087 60.244 61.434 60.244C62.862 60.244 63.9587 60.552 64.724 61.168C65.4893 61.784 65.872 62.666 65.872 63.814C65.872 65.27 65.2327 66.3713 63.954 67.118C62.6847 67.8647 60.7993 68.238 58.298 68.238L58.2 66.712ZM75.014 68.756C73.2687 68.756 71.9433 68.4853 71.038 67.944C70.1327 67.3933 69.68 66.5907 69.68 65.536C69.68 64.6493 70.0113 63.842 70.674 63.114C71.3367 62.3767 72.368 61.6953 73.768 61.07C75.1773 60.4447 76.988 59.852 79.2 59.292L79.592 60.79C77.716 61.266 76.1713 61.7513 74.958 62.246C73.754 62.7407 72.8627 63.2493 72.284 63.772C71.7147 64.2853 71.43 64.836 71.43 65.424C71.43 66.6373 72.6573 67.244 75.112 67.244C75.5133 67.244 75.9333 67.2253 76.372 67.188C76.8107 67.1507 77.3007 67.0993 77.842 67.034C78.3927 66.9593 79.018 66.866 79.718 66.754L79.914 68.266C79.0273 68.4153 78.1687 68.532 77.338 68.616C76.5167 68.7093 75.742 68.756 75.014 68.756ZM72.354 62.498C72.0833 61.5833 71.8547 60.6873 71.668 59.81C71.4813 58.9233 71.332 58.046 71.22 57.178L72.914 56.926C73.0353 57.794 73.1893 58.662 73.376 59.53C73.5627 60.3887 73.7867 61.2427 74.048 62.092L72.354 62.498ZM91.632 69.162C91.408 69.162 91.086 69.1527 90.666 69.134C90.246 69.1247 89.7467 69.1107 89.168 69.092L89.084 67.706C89.6253 67.7247 90.092 67.7433 90.484 67.762C90.8853 67.7713 91.1747 67.776 91.352 67.776C91.6227 67.776 91.8187 67.7667 91.94 67.748C92.0613 67.7293 92.136 67.664 92.164 67.552C92.192 67.44 92.206 67.2627 92.206 67.02V63.016H85.906V61.91H92.206V61.014H85.906V59.908H92.206V59.04H85.906V64.724H84.226V57.724H93.886V66.95C93.886 67.454 93.8627 67.8553 93.816 68.154C93.7787 68.4527 93.6853 68.672 93.536 68.812C93.3867 68.9613 93.158 69.0547 92.85 69.092C92.5513 69.1387 92.1453 69.162 91.632 69.162ZM82.798 65.592L82.742 64.178C84.9073 64.1033 86.9 64.0147 88.72 63.912C90.5493 63.8 92.094 63.6787 93.354 63.548L93.424 64.724C92.164 64.9013 90.6193 65.0647 88.79 65.214C86.9607 65.3633 84.9633 65.4893 82.798 65.592ZM83.274 69.246L82.742 67.888C84.5153 67.468 86.1673 66.9453 87.698 66.32C89.2287 65.6947 90.6053 64.9947 91.828 64.22C93.06 63.4453 94.1007 62.624 94.95 61.756L95.72 62.876C95.076 63.5107 94.3153 64.136 93.438 64.752C92.5607 65.3587 91.5853 65.942 90.512 66.502C89.4387 67.0527 88.2907 67.5613 87.068 68.028C85.8547 68.4947 84.59 68.9007 83.274 69.246ZM89 58.802L87.306 58.62C87.4647 58.256 87.6093 57.878 87.74 57.486C87.8707 57.094 87.992 56.6833 88.104 56.254L89.812 56.422C89.7 56.8607 89.574 57.276 89.434 57.668C89.3033 58.06 89.1587 58.438 89 58.802ZM105.422 67.062V61.672H102.342V60.272H108.978V61.672H107.088V67.062H105.422ZM97.232 69.288L96.476 67.944C97.008 67.5987 97.4887 67.2487 97.918 66.894C98.3567 66.53 98.758 66.1427 99.122 65.732L100.046 66.852C99.6727 67.2907 99.2573 67.706 98.8 68.098C98.352 68.49 97.8293 68.8867 97.232 69.288ZM98.296 66.698V63.226H96.672V61.826H99.906V66.698H98.296ZM105.394 69.064C104.433 69.064 103.597 69.036 102.888 68.98C102.179 68.924 101.577 68.8307 101.082 68.7C100.597 68.5787 100.191 68.4107 99.864 68.196C99.5373 67.9813 99.2667 67.72 99.052 67.412C98.8467 67.104 98.6693 66.74 98.52 66.32L99.892 66.222C100.023 66.446 100.167 66.642 100.326 66.81C100.494 66.978 100.704 67.118 100.956 67.23C101.208 67.3327 101.525 67.4167 101.908 67.482C102.3 67.5473 102.785 67.594 103.364 67.622C103.943 67.65 104.643 67.664 105.464 67.664H109.314L109.216 69.064H105.394ZM101.362 66.81L100.032 65.928C100.275 65.5267 100.489 65.0973 100.676 64.64C100.863 64.1733 101.017 63.6227 101.138 62.988C101.259 62.3533 101.348 61.588 101.404 60.692C101.469 59.7867 101.502 58.6993 101.502 57.43H103.056C103.056 58.7927 103.023 59.9687 102.958 60.958C102.902 61.938 102.809 62.7827 102.678 63.492C102.547 64.192 102.37 64.8033 102.146 65.326C101.931 65.8487 101.67 66.3433 101.362 66.81ZM99.29 60.468C98.898 60.0293 98.5013 59.6 98.1 59.18C97.6987 58.7507 97.2927 58.3353 96.882 57.934L98.016 56.954C98.4173 57.3553 98.814 57.7707 99.206 58.2C99.598 58.62 99.9853 59.054 100.368 59.502L99.29 60.468ZM101.502 58.858V57.43C102.342 57.43 103.177 57.3973 104.008 57.332C104.839 57.2667 105.623 57.1733 106.36 57.052C107.097 56.9213 107.737 56.7813 108.278 56.632L108.684 58.018C108.096 58.186 107.41 58.3353 106.626 58.466C105.851 58.5873 105.025 58.6853 104.148 58.76C103.28 58.8253 102.398 58.858 101.502 58.858ZM117.014 68.784C115.969 68.784 115.157 68.5413 114.578 68.056C113.999 67.58 113.71 66.922 113.71 66.082C113.71 65.214 114.009 64.5467 114.606 64.08C115.203 63.604 116.043 63.366 117.126 63.366C117.583 63.366 118.036 63.436 118.484 63.576C118.932 63.716 119.399 63.9307 119.884 64.22C120.369 64.5093 120.887 64.8827 121.438 65.34C121.998 65.7973 122.6 66.3527 123.244 67.006L122.236 68.126C121.489 67.398 120.859 66.81 120.346 66.362C119.842 65.9047 119.408 65.5593 119.044 65.326C118.689 65.0833 118.363 64.92 118.064 64.836C117.775 64.752 117.462 64.71 117.126 64.71C116.491 64.71 116.025 64.8173 115.726 65.032C115.437 65.2467 115.292 65.578 115.292 66.026C115.292 66.4833 115.437 66.8287 115.726 67.062C116.015 67.286 116.445 67.398 117.014 67.398C117.639 67.398 118.106 67.2627 118.414 66.992C118.731 66.7213 118.89 66.334 118.89 65.83V58.592C119.711 58.592 120.472 58.606 121.172 58.634C121.881 58.6527 122.577 58.6853 123.258 58.732L123.16 60.202C122.553 60.1553 121.919 60.1227 121.256 60.104C120.603 60.076 119.903 60.062 119.156 60.062L120.514 59.012V65.662C120.514 66.6887 120.22 67.468 119.632 68C119.044 68.5227 118.171 68.784 117.014 68.784ZM110.644 66.558C111.055 65.4473 111.433 64.3553 111.778 63.282C112.123 62.1993 112.445 61.1073 112.744 60.006C113.043 58.8953 113.318 57.7567 113.57 56.59L115.152 56.744C114.9 57.9387 114.62 59.11 114.312 60.258C114.013 61.3967 113.687 62.526 113.332 63.646C112.987 64.766 112.604 65.8907 112.184 67.02L110.644 66.558ZM110.532 60.062V58.592H117.588V60.062H110.532ZM132.638 68.658C131.807 68.658 131.112 68.602 130.552 68.49C129.992 68.3873 129.553 68.21 129.236 67.958C128.919 67.6967 128.69 67.3467 128.55 66.908C128.419 66.46 128.354 65.8953 128.354 65.214C128.354 64.9993 128.359 64.6727 128.368 64.234C128.377 63.786 128.391 63.2633 128.41 62.666C128.429 62.0687 128.447 61.434 128.466 60.762C128.494 60.0807 128.522 59.3947 128.55 58.704C128.578 58.0133 128.606 57.3507 128.634 56.716L130.3 56.758C130.272 57.318 130.244 57.92 130.216 58.564C130.188 59.208 130.16 59.852 130.132 60.496C130.113 61.14 130.095 61.7513 130.076 62.33C130.057 62.9087 130.043 63.4267 130.034 63.884C130.025 64.332 130.02 64.682 130.02 64.934C130.02 65.41 130.053 65.7927 130.118 66.082C130.183 66.3713 130.309 66.5953 130.496 66.754C130.683 66.9127 130.949 67.02 131.294 67.076C131.649 67.132 132.097 67.16 132.638 67.16C133.375 67.16 133.954 67.1133 134.374 67.02C134.803 66.9173 135.102 66.754 135.27 66.53C135.447 66.2967 135.536 65.984 135.536 65.592C135.536 65.424 135.517 65.2233 135.48 64.99C135.443 64.7567 135.401 64.5607 135.354 64.402L136.978 64.052C137.062 64.388 137.118 64.6773 137.146 64.92C137.183 65.1627 137.202 65.4053 137.202 65.648C137.202 66.348 137.043 66.922 136.726 67.37C136.409 67.818 135.914 68.1447 135.242 68.35C134.57 68.5553 133.702 68.658 132.638 68.658ZM124.882 63.478V62.064H135.984V63.478H124.882ZM125.162 59.824V58.41H135.704V59.824H125.162ZM146.19 66.978C146.685 66.922 147.137 66.782 147.548 66.558C147.968 66.3247 148.327 66.0307 148.626 65.676C148.934 65.312 149.172 64.8967 149.34 64.43C149.508 63.9633 149.592 63.4593 149.592 62.918C149.592 62.1527 149.415 61.4853 149.06 60.916C148.705 60.3373 148.211 59.894 147.576 59.586C146.951 59.278 146.223 59.124 145.392 59.124C144.683 59.124 144.025 59.2407 143.418 59.474C142.811 59.7073 142.275 60.034 141.808 60.454C141.351 60.8647 140.991 61.35 140.73 61.91C140.469 62.4607 140.338 63.0533 140.338 63.688C140.338 64.1453 140.413 64.584 140.562 65.004C140.711 65.424 140.898 65.7693 141.122 66.04C141.355 66.3013 141.598 66.432 141.85 66.432C142.214 66.432 142.564 66.1007 142.9 65.438C143.236 64.7753 143.539 63.8233 143.81 62.582C144.09 61.3313 144.323 59.8333 144.51 58.088L146.134 58.256C145.929 59.992 145.695 61.4807 145.434 62.722C145.173 63.9633 144.874 64.9807 144.538 65.774C144.202 66.5673 143.819 67.1553 143.39 67.538C142.961 67.9113 142.475 68.098 141.934 68.098C141.486 68.098 141.071 67.986 140.688 67.762C140.305 67.538 139.974 67.2253 139.694 66.824C139.414 66.4227 139.195 65.956 139.036 65.424C138.877 64.8827 138.798 64.304 138.798 63.688C138.798 62.8107 138.961 62.0033 139.288 61.266C139.615 60.5193 140.072 59.8753 140.66 59.334C141.248 58.7927 141.943 58.3727 142.746 58.074C143.558 57.766 144.445 57.612 145.406 57.612C146.535 57.612 147.534 57.8267 148.402 58.256C149.279 58.6853 149.965 59.2967 150.46 60.09C150.955 60.8833 151.202 61.826 151.202 62.918C151.202 63.6553 151.09 64.3413 150.866 64.976C150.651 65.6107 150.343 66.1753 149.942 66.67C149.541 67.1553 149.06 67.552 148.5 67.86C147.94 68.168 147.319 68.364 146.638 68.448L146.19 66.978ZM161.268 68.154C160.428 68.154 159.677 68.0373 159.014 67.804C158.361 67.5707 157.847 67.2487 157.474 66.838C157.11 66.418 156.928 65.942 156.928 65.41C156.928 64.458 157.549 63.478 158.79 62.47L159.994 63.38C159.499 63.7813 159.135 64.1313 158.902 64.43C158.678 64.7287 158.566 65.0133 158.566 65.284C158.566 65.564 158.678 65.8067 158.902 66.012C159.126 66.2173 159.439 66.376 159.84 66.488C160.241 66.6 160.717 66.656 161.268 66.656C161.735 66.656 162.257 66.6233 162.836 66.558C163.424 66.4833 164.017 66.3853 164.614 66.264L164.838 67.734C164.231 67.8647 163.62 67.9673 163.004 68.042C162.397 68.1167 161.819 68.154 161.268 68.154ZM157.572 59.684V58.172H164.754V59.684H157.572ZM154.198 68.77C153.955 67.8087 153.778 66.8613 153.666 65.928C153.554 64.9947 153.498 64.0053 153.498 62.96C153.498 61.924 153.554 60.944 153.666 60.02C153.778 59.0867 153.955 58.1393 154.198 57.178L155.864 57.388C155.64 58.2933 155.472 59.2033 155.36 60.118C155.257 61.0233 155.206 61.9707 155.206 62.96C155.206 63.9493 155.257 64.9013 155.36 65.816C155.472 66.7307 155.64 67.6313 155.864 68.518L154.198 68.77ZM173.014 68.784C171.969 68.784 171.157 68.5413 170.578 68.056C169.999 67.58 169.71 66.922 169.71 66.082C169.71 65.214 170.009 64.5467 170.606 64.08C171.203 63.604 172.043 63.366 173.126 63.366C173.583 63.366 174.036 63.436 174.484 63.576C174.932 63.716 175.399 63.9307 175.884 64.22C176.369 64.5093 176.887 64.8827 177.438 65.34C177.998 65.7973 178.6 66.3527 179.244 67.006L178.236 68.126C177.489 67.398 176.859 66.81 176.346 66.362C175.842 65.9047 175.408 65.5593 175.044 65.326C174.689 65.0833 174.363 64.92 174.064 64.836C173.775 64.752 173.462 64.71 173.126 64.71C172.491 64.71 172.025 64.8173 171.726 65.032C171.437 65.2467 171.292 65.578 171.292 66.026C171.292 66.4833 171.437 66.8287 171.726 67.062C172.015 67.286 172.445 67.398 173.014 67.398C173.639 67.398 174.106 67.2627 174.414 66.992C174.731 66.7213 174.89 66.334 174.89 65.83V58.592C175.711 58.592 176.472 58.606 177.172 58.634C177.881 58.6527 178.577 58.6853 179.258 58.732L179.16 60.202C178.553 60.1553 177.919 60.1227 177.256 60.104C176.603 60.076 175.903 60.062 175.156 60.062L176.514 59.012V65.662C176.514 66.6887 176.22 67.468 175.632 68C175.044 68.5227 174.171 68.784 173.014 68.784ZM166.644 66.558C167.055 65.4473 167.433 64.3553 167.778 63.282C168.123 62.1993 168.445 61.1073 168.744 60.006C169.043 58.8953 169.318 57.7567 169.57 56.59L171.152 56.744C170.9 57.9387 170.62 59.11 170.312 60.258C170.013 61.3967 169.687 62.526 169.332 63.646C168.987 64.766 168.604 65.8907 168.184 67.02L166.644 66.558ZM166.532 60.062V58.592H173.588V60.062H166.532ZM182.982 67.16C184.783 67.16 186.235 67.006 187.336 66.698C188.447 66.39 189.249 65.8907 189.744 65.2C190.248 64.5 190.5 63.5993 190.5 62.498C190.5 61.378 190.262 60.5427 189.786 59.992C189.319 59.432 188.601 59.152 187.63 59.152C187.089 59.152 186.58 59.2407 186.104 59.418C185.637 59.5953 185.227 59.8473 184.872 60.174C184.517 60.5007 184.233 60.888 184.018 61.336C183.813 61.784 183.71 62.2787 183.71 62.82V64.654H182.086V57.29H183.71V60.272H183.08C183.416 59.6933 183.813 59.2033 184.27 58.802C184.737 58.4007 185.264 58.0973 185.852 57.892C186.449 57.6773 187.098 57.57 187.798 57.57C189.226 57.57 190.318 57.9947 191.074 58.844C191.839 59.684 192.222 60.902 192.222 62.498C192.222 63.9353 191.895 65.1113 191.242 66.026C190.598 66.9407 189.604 67.6127 188.26 68.042C186.916 68.4807 185.185 68.7 183.066 68.7L182.982 67.16ZM199.138 68.742C198.037 68.742 197.183 68.5227 196.576 68.084C195.979 67.6547 195.68 67.0387 195.68 66.236C195.68 65.4333 195.979 64.822 196.576 64.402C197.173 63.982 198.027 63.772 199.138 63.772C199.745 63.772 200.333 63.8373 200.902 63.968C201.471 64.0987 202.045 64.3087 202.624 64.598C203.212 64.8873 203.828 65.2653 204.472 65.732C205.116 66.1893 205.811 66.7493 206.558 67.412L205.494 68.476C204.785 67.8693 204.136 67.356 203.548 66.936C202.969 66.5067 202.433 66.1613 201.938 65.9C201.443 65.6293 200.967 65.438 200.51 65.326C200.062 65.2047 199.605 65.144 199.138 65.144C197.943 65.144 197.346 65.4987 197.346 66.208C197.346 66.572 197.495 66.852 197.794 67.048C198.093 67.2347 198.531 67.328 199.11 67.328C199.801 67.328 200.309 67.1833 200.636 66.894C200.963 66.6047 201.126 66.1613 201.126 65.564V56.744H202.708V65.564C202.708 66.6187 202.409 67.412 201.812 67.944C201.224 68.476 200.333 68.742 199.138 68.742ZM195.582 62.428V61.042H206.418V62.428H195.582ZM195.442 59.572V58.158H206.558V59.572H195.442ZM46.748 93.728C45.684 93.728 44.8113 93.56 44.13 93.224C43.458 92.8973 42.9587 92.3887 42.632 91.698C42.3147 91.0073 42.156 90.1207 42.156 89.038V82.22H43.864V89.038C43.864 90.13 44.0927 90.9233 44.55 91.418C45.0073 91.9033 45.74 92.146 46.748 92.146C47.4853 92.146 48.134 92.0107 48.694 91.74C49.2633 91.4693 49.7767 91.0307 50.234 90.424C50.7007 89.808 51.1487 88.9913 51.578 87.974L53.132 88.604C52.7587 89.5373 52.3573 90.3307 51.928 90.984C51.508 91.628 51.046 92.1553 50.542 92.566C50.0473 92.9673 49.4873 93.2613 48.862 93.448C48.2367 93.6347 47.532 93.728 46.748 93.728ZM55.218 93.588C55.61 92.328 55.9647 91.0493 56.282 89.752C56.6087 88.4453 56.8933 87.12 57.136 85.776C57.388 84.4227 57.6027 83.06 57.78 81.688L59.446 81.758C59.2873 83.102 59.082 84.46 58.83 85.832C58.5873 87.204 58.3027 88.5667 57.976 89.92C57.6493 91.264 57.2853 92.5847 56.884 93.882L55.218 93.588ZM63.898 93.602C63.0487 93.602 62.3113 93.4993 61.686 93.294C61.0607 93.098 60.5753 92.8227 60.23 92.468C59.8847 92.104 59.712 91.67 59.712 91.166C59.712 90.7927 59.838 90.424 60.09 90.06C60.342 89.696 60.7293 89.318 61.252 88.926L62.512 89.822C62.1573 90.046 61.8913 90.256 61.714 90.452C61.546 90.6387 61.462 90.8253 61.462 91.012C61.462 91.2267 61.56 91.418 61.756 91.586C61.9613 91.7447 62.246 91.8707 62.61 91.964C62.9833 92.0573 63.4127 92.104 63.898 92.104C64.3367 92.104 64.7847 92.0807 65.242 92.034C65.6993 91.9873 66.1753 91.9173 66.67 91.824L66.852 93.322C66.3387 93.4153 65.844 93.4853 65.368 93.532C64.892 93.5787 64.402 93.602 63.898 93.602ZM55.022 84.894V83.438H64.878V84.894H55.022ZM60.258 86.476C61.3593 86.3733 62.4373 86.294 63.492 86.238C64.556 86.182 65.62 86.154 66.684 86.154V87.624C65.6387 87.624 64.5887 87.652 63.534 87.708C62.4887 87.7547 61.4293 87.8387 60.356 87.96L60.258 86.476Z" fill="#282828"/>
<path opacity="0.6" d="M47.728 116.44C47.728 114.22 48.676 112.264 50.656 110.668C50.764 110.572 50.896 110.524 51.016 110.524C51.244 110.524 51.46 110.728 51.46 110.956C51.46 111.112 51.4 111.22 51.28 111.328C49.552 112.804 48.832 114.472 48.832 116.44C48.832 118.408 49.552 120.076 51.28 121.552C51.4 121.66 51.46 121.768 51.46 121.924C51.46 122.152 51.244 122.356 51.016 122.356C50.896 122.356 50.764 122.308 50.656 122.212C48.676 120.616 47.728 118.66 47.728 116.44ZM54.412 119.656H57.772C58.204 119.656 58.408 119.92 58.408 120.28C58.408 120.64 58.204 120.892 57.772 120.892H53.344C52.912 120.892 52.636 120.568 52.636 120.124C52.636 119.776 52.756 119.524 53.008 119.308C53.968 118.456 54.772 117.724 55.708 116.632C56.452 115.756 56.776 115.132 56.776 114.436C56.776 113.536 56.308 113.08 55.552 113.08C55.06 113.08 54.52 113.296 53.944 113.86C53.8 113.992 53.656 114.064 53.488 114.064C53.08 114.064 52.792 113.776 52.792 113.392C52.792 113.2 52.852 113.08 53.032 112.9C53.668 112.276 54.64 111.844 55.54 111.844C57.256 111.844 58.216 112.876 58.216 114.412C58.216 115.516 57.832 116.26 56.752 117.4C55.756 118.444 55.168 118.972 54.412 119.656ZM62.6416 111.844C64.4656 111.844 65.6776 113.14 65.6776 116.464C65.6776 119.788 64.4656 121.084 62.6416 121.084C60.8176 121.084 59.6296 119.788 59.6296 116.464C59.6296 113.14 60.8176 111.844 62.6416 111.844ZM62.6416 113.044C61.6456 113.044 61.0456 113.884 61.0456 116.464C61.0456 119.044 61.6456 119.884 62.6416 119.884C63.6496 119.884 64.2616 119.044 64.2616 116.464C64.2616 113.884 63.6496 113.044 62.6416 113.044ZM68.3631 121.6V115.936C68.1591 116.248 67.9431 116.548 67.7271 116.812C67.5711 117.004 67.3791 117.088 67.1991 117.088C66.8511 117.088 66.5271 116.8 66.5271 116.452C66.5271 116.308 66.5751 116.164 66.6951 116.008C67.6431 114.832 68.5191 113.02 68.9991 111.412C69.0951 111.1 69.3591 110.956 69.6351 110.956C69.9951 110.956 70.3551 111.184 70.3551 111.568C70.3551 111.628 70.3431 111.7 70.3191 111.772C70.0551 112.672 69.6231 113.68 69.1311 114.616C69.4191 114.652 69.6711 114.82 69.6711 115.132V121.6C69.6711 121.924 69.3471 122.092 69.0231 122.092C68.6871 122.092 68.3631 121.924 68.3631 121.6ZM73.6431 114.364L76.9431 114.076H76.9911C77.3151 114.076 77.4831 114.388 77.4831 114.7C77.4831 114.976 77.3511 115.24 77.0511 115.264L73.7991 115.552C73.9671 116.584 74.2191 117.532 74.5671 118.36C75.2391 119.956 75.7911 120.352 76.1511 120.352C76.3071 120.352 76.4511 120.196 76.5351 119.416C76.5711 119.044 76.8471 118.876 77.1351 118.876C77.4591 118.876 77.8071 119.104 77.8071 119.512V119.596C77.6391 121.264 77.0151 121.768 76.2111 121.768C75.1551 121.768 74.1351 120.76 73.2831 118.72C72.9111 117.82 72.6351 116.8 72.4551 115.66L70.7031 115.816H70.6551C70.3311 115.816 70.1631 115.504 70.1631 115.204C70.1631 114.928 70.3071 114.664 70.5951 114.64L72.3111 114.484C72.2151 113.548 72.1671 112.54 72.1671 111.484C72.1671 111.112 72.5031 110.932 72.8391 110.932C73.1751 110.932 73.5111 111.112 73.5111 111.484C73.5111 112.504 73.5471 113.464 73.6431 114.364ZM75.0591 111.736C75.3831 111.976 75.6831 112.228 75.9351 112.48C76.0791 112.636 76.1511 112.804 76.1511 112.948C76.1511 113.296 75.8391 113.596 75.5031 113.596C75.3591 113.596 75.2031 113.524 75.0711 113.38C74.8191 113.092 74.5551 112.84 74.2551 112.6C74.1111 112.48 74.0391 112.336 74.0391 112.192C74.0391 111.892 74.3271 111.592 74.6631 111.592C74.7951 111.592 74.9271 111.64 75.0591 111.736ZM78.8871 121.36L88.7751 110.848C88.8831 110.74 89.0031 110.656 89.1111 110.656C89.4231 110.656 89.6871 110.908 89.6871 111.148C89.6871 111.28 89.6391 111.4 89.5191 111.52L79.6311 122.032C79.5231 122.14 79.4031 122.224 79.2951 122.224C78.9831 122.224 78.7191 121.972 78.7191 121.732C78.7191 121.6 78.7671 121.48 78.8871 121.36ZM101.207 114.892H99.4671C99.3471 115.36 99.1671 115.96 98.9511 116.476C98.6391 117.22 98.2431 117.904 97.7631 118.528C98.7351 119.02 99.6951 119.572 100.559 120.184C100.787 120.34 100.883 120.556 100.883 120.76C100.883 121.12 100.571 121.468 100.187 121.468C100.043 121.468 99.8871 121.42 99.7311 121.312C98.8311 120.652 97.8351 120.04 96.8391 119.524C95.4951 120.712 93.8151 121.396 91.9191 121.756C91.8591 121.768 91.8111 121.768 91.7511 121.768C91.3551 121.768 91.1271 121.468 91.1271 121.156C91.1271 120.892 91.2951 120.616 91.6671 120.544C93.2031 120.244 94.5231 119.752 95.5911 118.912C95.0151 118.672 94.4511 118.432 93.8631 118.228L93.8151 118.312C93.6471 118.6 93.3951 118.72 93.1551 118.72C92.8071 118.72 92.4711 118.48 92.4711 118.132C92.4711 118.036 92.4951 117.928 92.5671 117.808C93.1191 116.848 93.6111 115.888 94.0191 114.892H91.1991C90.8871 114.892 90.7191 114.604 90.7191 114.316C90.7191 114.028 90.8871 113.74 91.1991 113.74H94.4631C94.7391 112.96 94.9791 112.144 95.2191 111.268C95.3031 110.968 95.5791 110.824 95.8551 110.824C96.2031 110.824 96.5511 111.028 96.5511 111.388C96.5511 111.436 96.5391 111.484 96.5271 111.544C96.3231 112.3 96.1071 113.032 95.8551 113.74H101.207C101.531 113.74 101.699 114.028 101.699 114.316C101.699 114.604 101.531 114.892 101.207 114.892ZM98.0511 114.892H95.4351C95.1111 115.672 94.7751 116.44 94.4031 117.196C95.1351 117.424 95.8551 117.676 96.5511 117.976C97.2831 117.088 97.7751 116.008 98.0511 114.892ZM109.583 120.448V118.072H107.759C107.459 118.072 107.315 117.772 107.315 117.484C107.315 117.184 107.459 116.896 107.759 116.896H109.583V114.892H108.203C108.059 115.216 107.903 115.528 107.747 115.816C107.591 116.104 107.339 116.224 107.111 116.224C106.799 116.224 106.511 116.008 106.511 115.672C106.511 115.552 106.547 115.42 106.631 115.276C107.099 114.472 107.471 113.488 107.711 112.408C107.783 112.084 108.047 111.928 108.299 111.928C108.611 111.928 108.923 112.144 108.923 112.504C108.923 112.552 108.923 112.588 108.911 112.636C108.839 113.008 108.743 113.38 108.623 113.74H109.583V111.46C109.583 111.1 109.907 110.92 110.231 110.92C110.555 110.92 110.879 111.1 110.879 111.46V113.74H113.075C113.387 113.74 113.543 114.028 113.543 114.316C113.543 114.604 113.387 114.892 113.075 114.892H110.879V116.896H112.643C112.943 116.896 113.099 117.184 113.099 117.484C113.099 117.772 112.943 118.072 112.643 118.072H110.879V120.448H113.327C113.627 120.448 113.783 120.736 113.783 121.036C113.783 121.324 113.627 121.624 113.327 121.624H106.715C106.427 121.624 106.271 121.324 106.271 121.036C106.271 120.736 106.427 120.448 106.715 120.448H109.583ZM105.395 111.376V121.528C105.395 121.888 105.071 122.068 104.747 122.068C104.411 122.068 104.087 121.888 104.087 121.528V111.376C104.087 111.016 104.411 110.848 104.747 110.848C105.071 110.848 105.395 111.016 105.395 111.376ZM102.959 113.764C102.995 113.488 103.211 113.356 103.427 113.356C103.679 113.356 103.919 113.524 103.919 113.824V113.884C103.871 114.424 103.739 115.144 103.583 115.66C103.499 115.924 103.295 116.044 103.091 116.044C102.839 116.044 102.599 115.864 102.599 115.588C102.599 115.54 102.599 115.48 102.623 115.42C102.779 114.916 102.899 114.232 102.959 113.764ZM106.439 113.296C106.559 113.656 106.667 114.088 106.715 114.412V114.496C106.715 114.82 106.451 115.012 106.211 115.012C106.007 115.012 105.815 114.892 105.767 114.616C105.707 114.256 105.623 113.8 105.539 113.512C105.527 113.464 105.515 113.404 105.515 113.356C105.515 113.104 105.743 112.948 105.971 112.948C106.163 112.948 106.355 113.056 106.439 113.296ZM118.475 116.44C118.475 118.66 117.527 120.616 115.547 122.212C115.439 122.308 115.307 122.356 115.187 122.356C114.959 122.356 114.743 122.152 114.743 121.924C114.743 121.768 114.803 121.66 114.923 121.552C116.651 120.076 117.371 118.408 117.371 116.44C117.371 114.472 116.651 112.804 114.923 111.328C114.803 111.22 114.743 111.112 114.743 110.956C114.743 110.728 114.959 110.524 115.187 110.524C115.307 110.524 115.439 110.572 115.547 110.668C117.527 112.264 118.475 114.22 118.475 116.44Z" fill="#282828"/>
<path d="M61 179L72.7127 152L93 152L61 179Z" fill="#69BD83"/>
</svg>
