<svg width="290" height="214" viewBox="0 0 290 214" fill="none" xmlns="http://www.w3.org/2000/svg">
<rect x="-1" y="49.8589" width="258" height="164" rx="80" transform="rotate(-11.1426 -1 49.8589)" fill="#FFF464"/>
<path d="M61.0428 84.5144C60.2636 84.146 59.4994 83.6606 58.7501 83.058C58.0114 82.4534 57.3167 81.7694 56.6663 81.006C56.0138 80.2322 55.4326 79.4063 54.9226 78.5283C54.4211 77.6378 54.02 76.7329 53.7193 75.8137L55.4666 74.9151C55.8023 76.0122 56.2835 77.0481 56.9104 78.0226C57.5351 78.9867 58.2773 79.8571 59.1369 80.6336C60.007 81.408 60.9694 82.0719 62.0242 82.6251L61.0428 84.5144ZM48.7919 86.8948L47.7356 85.4232C49.1625 84.6094 50.3961 83.7794 51.4361 82.9331C52.4846 82.0743 53.328 81.2233 53.9664 80.38L55.0337 81.3276C54.4118 82.2546 53.5796 83.1904 52.5371 84.135C51.4947 85.0796 50.2463 85.9995 48.7919 86.8948ZM48.2672 83.8997L47.2796 82.5287C48.5934 81.8025 49.7262 81.0684 50.6781 80.3265C51.6384 79.572 52.4136 78.8159 53.0036 78.0583L54.0744 78.8584C53.4904 79.7019 52.7118 80.551 51.7387 81.4058C50.776 82.2586 49.6188 83.0899 48.2672 83.8997ZM55.1706 85.9972C54.8776 86.0549 54.526 86.1187 54.1158 86.1886C53.716 86.2565 53.2148 86.3335 52.612 86.4196L52.2279 84.7177C52.7469 84.6481 53.1487 84.5907 53.4334 84.5455C53.7285 84.4983 53.9597 84.4582 54.1272 84.4252C54.2423 84.4025 54.3355 84.3787 54.4067 84.3538C54.4758 84.3185 54.5189 84.2611 54.5358 84.1816C54.5612 84.0897 54.5637 83.9641 54.5432 83.8051C54.5332 83.644 54.5004 83.4222 54.4447 83.1396C54.3025 82.4175 54.0774 81.7714 53.7695 81.2015C53.4595 80.6212 53.0353 80.0959 52.497 79.6258C51.9586 79.1556 51.2738 78.7143 50.4424 78.3018L51.7361 76.9218C52.5613 77.3029 53.3046 77.7925 53.966 78.3906C54.6273 78.9887 55.1777 79.6576 55.6169 80.3974C56.0561 81.1371 56.3561 81.9151 56.5169 82.7314C56.6653 83.485 56.7127 84.0844 56.6591 84.5298C56.6055 84.9753 56.454 85.3095 56.2044 85.5326C55.9548 85.7557 55.6102 85.9106 55.1706 85.9972ZM47.7924 80.9927L46.8172 79.6845C48.1288 79.0022 49.2636 78.3057 50.2217 77.5952C51.1902 76.8826 51.9684 76.1694 52.5562 75.4557L53.568 76.0392C52.9715 76.8742 52.1961 77.7118 51.2418 78.5521C50.2855 79.3819 49.1357 80.1954 47.7924 80.9927ZM47.6355 77.7947L47.317 76.1778L58.4628 73.9825L58.7813 75.5994L47.6355 77.7947ZM57.8717 80.8338L56.4097 79.7031C56.8232 79.2085 57.2138 78.6804 57.5816 78.1187C57.9577 77.5446 58.3151 76.9306 58.6538 76.2768L60.3022 77.0284C59.9633 77.7366 59.59 78.4081 59.1823 79.0428C58.7851 79.6755 58.3482 80.2725 57.8717 80.8338ZM46.1368 77.3887L45.4874 74.092L51.3586 72.9356L51.1051 71.6484L53.2401 71.2278L53.4936 72.5151L59.3648 71.3587L60.0141 74.6554L57.9733 75.0573L57.6394 73.3619L47.8436 75.2913L48.1775 76.9867L46.1368 77.3887ZM69.9452 83.348L68.7702 81.6878C69.6021 81.2195 70.2615 80.7037 70.7485 80.1403C71.2334 79.5665 71.5542 78.9325 71.7111 78.2384C71.8658 77.5339 71.8597 76.7578 71.6928 75.9101L71.4423 74.6385L69.9353 74.9354L69.5951 73.2085L75.7332 71.9995L76.0733 73.7264L73.5459 74.2242L73.7963 75.4958C73.9406 76.2283 73.9478 76.9825 73.818 77.7582C73.686 78.5235 73.4412 79.2675 73.0835 79.9902C72.7237 80.7025 72.2752 81.3508 71.7379 81.9349C71.2007 82.5191 70.6031 82.9901 69.9452 83.348ZM64.6862 84.3838L62.9575 83.2241C63.1075 82.7162 63.2127 82.1736 63.2729 81.5964C63.3332 81.0192 63.3414 80.3436 63.2977 79.5694C63.2644 78.7932 63.1698 77.8715 63.0139 76.8041C62.8581 75.7368 62.6338 74.4601 62.3411 72.974L64.2877 72.5906C64.6134 74.2441 64.8571 75.6747 65.0188 76.8822C65.1785 78.0792 65.2696 79.1212 65.2921 80.0083C65.3146 80.8953 65.2694 81.687 65.1565 82.3833C65.0541 83.0775 64.8973 83.7443 64.6862 84.3838ZM67.7075 83.4952C67.6133 83.5138 67.449 83.5353 67.2146 83.5597C66.9928 83.5925 66.7532 83.618 66.4958 83.636C66.251 83.6625 66.0323 83.6838 65.8398 83.7L65.4217 81.8255C65.6413 81.8366 65.8379 81.8413 66.0116 81.8398C66.1936 81.8257 66.337 81.8083 66.4416 81.7877C66.5253 81.7712 66.5935 81.7306 66.6459 81.6659C66.6984 81.6012 66.727 81.4705 66.7318 81.2739C66.747 81.0752 66.7259 80.775 66.6685 80.3732C66.6216 79.9693 66.5364 79.4262 66.4129 78.7439C66.2998 78.0595 66.1402 77.194 65.9341 76.1474L63.7363 76.5803L63.3869 74.8064L67.4685 74.0025C67.755 75.4572 67.9888 76.6994 68.1699 77.7292C68.351 78.7589 68.4823 79.6191 68.564 80.3097C68.6541 80.9877 68.7006 81.5276 68.7036 81.9292C68.7066 82.3309 68.6691 82.6372 68.5911 82.8483C68.5131 83.0593 68.3955 83.2075 68.2384 83.2928C68.0938 83.3865 67.9168 83.454 67.7075 83.4952ZM77.449 81.87C76.8092 81.7677 76.1886 81.5421 75.5871 81.1931C74.9961 80.842 74.442 80.4021 73.9248 79.8735C73.4159 79.3323 72.9805 78.7222 72.6185 78.0434C72.2565 77.3646 72.0002 76.6432 71.8497 75.8792L73.7963 75.4958C73.9674 76.3644 74.2195 77.0921 74.5525 77.6788C74.8855 78.2655 75.3265 78.7385 75.8756 79.0978C76.4332 79.4446 77.1102 79.7081 77.9067 79.8882L77.449 81.87ZM61.2876 73.7522L60.9382 71.9783L62.9319 71.5856L62.5639 69.7175L64.5733 69.3217L64.9413 71.1898L67.2176 70.7415L67.567 72.5154L61.2876 73.7522ZM68.9229 78.8202L68.5735 77.0463L76.7367 75.4384L77.0861 77.2124L68.9229 78.8202ZM69.5005 76.6191L67.8053 75.7952C68.2253 75.2232 68.6026 74.5999 68.9372 73.9252C69.2823 73.2484 69.5688 72.5505 69.7968 71.8316L71.6761 71.9344C71.431 72.7871 71.121 73.6146 70.7463 74.4168C70.3716 75.219 69.9563 75.9531 69.5005 76.6191ZM68.4439 74.1528L66.5696 73.4131C67.032 72.6697 67.4371 71.8561 67.7848 70.9722C68.1326 70.0884 68.3977 69.199 68.5802 68.3042L70.5035 68.382C70.3499 69.4233 70.098 70.4351 69.7478 71.4173C69.4061 72.3869 68.9715 73.2988 68.4439 74.1528ZM68.7056 71.5899L68.3654 69.8631L75.3669 68.4841L75.707 70.2109L68.7056 71.5899ZM88.8092 78.279C87.8568 78.4665 86.9886 78.5017 86.2045 78.3843C85.4183 78.2565 84.7695 77.9984 84.2581 77.6099C83.7447 77.2109 83.4282 76.7079 83.3086 76.1009C83.0963 75.0229 83.5675 73.7723 84.7222 72.349L86.4676 73.1794C86.0204 73.724 85.7084 74.1823 85.5316 74.5541C85.3527 74.9155 85.2921 75.2427 85.3499 75.5358C85.4055 75.8183 85.5701 76.0468 85.8436 76.2213C86.1151 76.3852 86.4715 76.4835 86.9128 76.5162C87.3541 76.5489 87.8626 76.5085 88.4382 76.3952C88.951 76.2941 89.5246 76.1431 90.159 75.942C90.7914 75.7305 91.4396 75.4887 92.1035 75.2166L92.7509 77.0134C92.0891 77.2959 91.421 77.5471 90.7468 77.7669C90.0725 77.9866 89.4267 78.1573 88.8092 78.279ZM82.8253 69.6731L82.4543 67.7893L90.5075 66.2031L90.8786 68.0869L82.8253 69.6731ZM80.9141 80.5026C80.4297 79.4783 80.0216 78.4552 79.6899 77.4333C79.3561 76.4011 79.0738 75.2988 78.8429 74.1267C78.6141 72.965 78.4594 71.8485 78.3789 70.7772C78.2963 69.6955 78.2848 68.5888 78.3446 67.4573L80.4977 67.2941C80.4465 68.3587 80.4601 69.4215 80.5386 70.4823C80.6255 71.5306 80.7771 72.6042 80.9936 73.7031C81.21 74.802 81.4778 75.8581 81.797 76.8715C82.1267 77.8829 82.515 78.861 82.962 79.8057L80.9141 80.5026ZM95.8292 78.0704L94.7672 76.4042C95.7745 76.0536 96.6269 75.69 97.3246 75.3134C98.0328 74.9348 98.5977 74.5463 99.0194 74.148C99.4515 73.7476 99.7486 73.352 99.9108 72.9613C100.084 72.5685 100.134 72.189 100.062 71.8227L99.8081 70.5354L93.7328 71.732L93.436 70.225L99.5113 69.0284L99.3319 68.1179L94.5125 69.0671L94.2219 67.5915L99.0413 66.6422L98.865 65.7474L93.2607 66.8513L92.9329 65.1872L106.277 62.559L106.604 64.2231L101 65.3269L101.176 66.2217L105.996 65.2725L106.286 66.7481L101.467 67.6974L101.646 68.6079L107.722 67.4113L108.018 68.9183L101.943 70.1149L102.218 71.5121C102.315 72.004 102.237 72.5466 101.984 73.1399C101.74 73.7208 101.336 74.3168 100.771 74.9281C100.215 75.5269 99.5178 76.0991 98.6794 76.6447C97.8516 77.1883 96.9015 77.6635 95.8292 78.0704ZM94.3215 74.3068L93.9999 72.6742L108.128 69.8914L108.45 71.524L94.3215 74.3068ZM108.482 75.5782C107.388 75.598 106.365 75.5114 105.414 75.3182C104.475 75.1335 103.64 74.8685 102.909 74.5233C102.186 74.1656 101.602 73.7643 101.156 73.3195C100.718 72.8622 100.449 72.3824 100.35 71.88L102.197 71.4022C102.269 71.7685 102.454 72.1016 102.752 72.4017C103.061 72.6996 103.486 72.9529 104.027 73.1616C104.579 73.3682 105.249 73.5135 106.037 73.5974C106.836 73.6792 107.768 73.6913 108.833 73.6338L108.482 75.5782ZM97.0576 65.761C96.7763 65.3815 96.4803 65.0104 96.1697 64.6476C95.8695 64.2827 95.5682 63.9398 95.2658 63.6189L97.132 62.8273C97.4449 63.1462 97.7472 63.4943 98.039 63.8717C98.3391 64.2366 98.6299 64.6087 98.9112 64.9882L97.0576 65.761ZM102.715 64.5977L100.666 64.6262C100.831 64.1916 100.983 63.7485 101.122 63.2971C101.27 62.8331 101.395 62.39 101.496 61.9677L103.558 61.9204C103.467 62.3406 103.347 62.7827 103.199 63.2466C103.06 63.6981 102.899 64.1484 102.715 64.5977ZM119.442 73.6804L118.06 66.6633L114.606 67.3435L114.266 65.6167L117.72 64.9364L117.305 62.8328L114.119 63.4605L113.778 61.7337L116.965 61.106L116.579 59.1437L118.62 58.7418L119.006 60.7041L122.413 60.0331L122.753 61.7599L119.346 62.4309L119.761 64.5345L123.403 63.8171L123.743 65.5439L120.101 66.2613L121.483 73.2785L119.442 73.6804ZM110.873 74.5528L108.338 61.6802L113.251 60.7124L115.613 72.7059L112.662 73.2872L112.322 71.5604L113.452 71.3378L111.78 62.845L110.649 63.0676L112.835 74.1663L110.873 74.5528ZM116.371 73.4863L114.626 72.3296C115.364 71.1624 115.971 70.021 116.447 68.9053C116.921 67.7791 117.274 66.6495 117.508 65.5163L119.02 65.5772C118.836 67.0159 118.532 68.3695 118.108 69.6381C117.683 70.9067 117.104 72.1894 116.371 73.4863ZM124.094 71.9651C122.976 71.033 121.995 70.0574 121.153 69.0382C120.321 68.0171 119.558 66.8737 118.863 65.6081L120.255 64.9752C120.846 65.8806 121.521 66.7372 122.278 67.5448C123.043 68.3398 123.919 69.1185 124.907 69.8807L124.094 71.9651ZM133.149 70.1653C131.946 70.4023 130.919 70.4087 130.071 70.1845C129.224 69.9708 128.54 69.5075 128.02 68.7947C127.499 68.0819 127.116 67.1029 126.87 65.8574L125.377 58.2751L127.527 57.8515L129.021 65.4338C129.254 66.6165 129.664 67.4272 130.25 67.8661C130.845 68.2925 131.682 68.3996 132.759 68.1873C133.576 68.0265 134.259 67.7398 134.808 67.3272C135.355 66.9041 135.814 66.3082 136.184 65.5395C136.563 64.7582 136.883 63.7603 137.144 62.5456L139.248 62.9628C139.027 64.1044 138.749 65.0941 138.414 65.932C138.088 66.7573 137.686 67.4506 137.209 68.012C136.733 68.5733 136.16 69.0287 135.489 69.3782C134.829 69.7256 134.049 69.988 133.149 70.1653ZM152.977 67.01C152.177 66.6457 151.445 66.3225 150.78 66.0402C150.116 65.758 149.484 65.502 148.884 65.2722C148.282 65.032 147.683 64.8022 147.085 64.5829C146.485 64.3531 145.851 64.1138 145.182 63.865C144.48 63.612 143.911 63.398 143.474 63.2231C143.048 63.0461 142.717 62.883 142.481 62.7338C142.243 62.5741 142.069 62.4073 141.958 62.2333C141.848 62.0594 141.767 61.8416 141.715 61.58C141.664 61.3183 141.655 61.0809 141.689 60.8676C141.732 60.6418 141.839 60.4141 142.011 60.1845C142.181 59.9444 142.436 59.6659 142.776 59.3489C143.114 59.0214 143.563 58.6232 144.123 58.1542C144.672 57.6872 145.267 57.1732 145.906 56.6124C146.546 56.0515 147.197 55.4667 147.86 54.8577C148.531 54.2363 149.17 53.6158 149.777 52.9963L151.304 54.4567C150.941 54.8218 150.538 55.2055 150.095 55.6079C149.663 56.0083 149.225 56.4045 148.78 56.7965C148.333 57.178 147.906 57.5449 147.497 57.8973C147.088 58.2496 146.716 58.5676 146.38 58.8511C146.053 59.1221 145.791 59.3368 145.594 59.4952C145.183 59.8371 144.866 60.106 144.644 60.302C144.432 60.4959 144.284 60.6555 144.2 60.7808C144.124 60.8935 144.097 61.0022 144.117 61.1069C144.138 61.2115 144.189 61.3048 144.27 61.3866C144.36 61.4559 144.528 61.5369 144.775 61.6297C145.019 61.712 145.404 61.8428 145.928 62.0221C146.196 62.1108 146.551 62.2311 146.994 62.383C147.448 62.5328 147.955 62.71 148.518 62.9146C149.078 63.1087 149.664 63.3248 150.276 63.563C150.899 63.7991 151.518 64.0467 152.135 64.3058C152.759 64.5524 153.346 64.8009 153.896 65.0515L152.977 67.01ZM159.42 64.4526L157.435 54.3742L161.768 53.5208L161.502 52.1708L163.48 51.7812L163.746 53.1312L167.953 52.3026L169.181 58.5348L160.766 60.1922L160.482 58.7479L166.808 57.5018L166.604 56.4657L160.278 57.7118L160.015 56.3775L166.341 55.1314L166.15 54.1581L159.823 55.4042L161.524 64.0383L159.42 64.4526ZM158.083 65.776L157.598 64.1429C158.85 63.8202 160.127 63.46 161.429 63.0621C162.732 62.6643 164.033 62.234 165.334 61.7713L165.825 63.3542C164.526 63.8274 163.227 64.2681 161.927 64.6764C160.627 65.0847 159.345 65.4513 158.083 65.776ZM171.216 63.2382C170.026 63.2117 168.878 63.041 167.772 62.7261C166.668 62.4216 165.659 61.9898 164.745 61.4307C163.83 60.8716 163.049 60.2156 162.4 59.4627L163.931 58.4599C164.448 59.0429 165.075 59.55 165.813 59.981C166.56 60.4099 167.432 60.7493 168.427 60.999C169.422 61.2488 170.552 61.4121 171.817 61.489L171.216 63.2382ZM167.743 61.998L166.381 60.8801C166.945 60.3776 167.478 59.854 167.98 59.3095C168.492 58.7629 168.978 58.1943 169.438 57.6036L170.916 58.5681C169.981 59.785 168.924 60.9283 167.743 61.998ZM155.986 56.2088L155.166 54.5276C156.304 53.8469 157.325 53.1784 158.228 52.5221C159.13 51.8553 160.001 51.1455 160.842 50.3928L163.417 49.8857C164.48 50.2633 165.556 50.5896 166.643 50.8647C167.738 51.1273 168.936 51.3589 170.237 51.5593L170.115 53.426C168.691 53.2063 167.337 52.9294 166.054 52.5951C164.781 52.2588 163.555 51.8588 162.377 51.3951C161.462 52.2711 160.474 53.107 159.413 53.9031C158.363 54.697 157.221 55.4656 155.986 56.2088ZM186.369 58.8674C185.425 58.2162 184.568 57.6185 183.798 57.0745C183.026 56.52 182.301 55.9886 181.625 55.4804C180.949 54.9722 180.278 54.4629 179.612 53.9526C179.161 53.5957 178.798 53.3248 178.522 53.1399C178.257 52.9529 178.043 52.832 177.88 52.7771C177.715 52.7118 177.564 52.6925 177.428 52.7193C177.303 52.7441 177.181 52.8169 177.064 52.9379C176.957 53.0569 176.83 53.272 176.685 53.5832C176.538 53.884 176.347 54.3238 176.113 54.9026C175.873 55.5044 175.595 56.1625 175.279 56.877C174.972 57.579 174.594 58.3927 174.146 59.3181L172.275 58.2677C172.745 57.3382 173.146 56.5037 173.478 55.7641C173.819 55.012 174.125 54.3267 174.394 53.7083C174.721 52.9374 175.005 52.3378 175.247 51.9097C175.489 51.4815 175.744 51.1758 176.012 50.9925C176.289 50.7967 176.621 50.6606 177.008 50.5844C177.301 50.5266 177.568 50.5013 177.808 50.5083C178.049 50.5152 178.3 50.5745 178.561 50.6862C178.82 50.7873 179.119 50.9514 179.457 51.1783C179.793 51.3947 180.205 51.694 180.694 52.0762C181.879 52.9625 183.023 53.8026 184.125 54.5965C185.236 55.378 186.373 56.1542 187.536 56.9254L186.369 58.8674ZM182.039 51.2078C181.693 50.7215 181.332 50.2654 180.954 49.8397C180.575 49.4034 180.157 48.964 179.7 48.5212L181.002 47.4331C181.459 47.8758 181.878 48.3205 182.26 48.7672C182.639 49.2034 183.01 49.6794 183.373 50.195L182.039 51.2078ZM184.315 49.8463C183.977 49.3475 183.624 48.8789 183.255 48.4406C182.886 48.0023 182.484 47.5598 182.048 47.1129L183.328 46.078C183.787 46.5312 184.202 46.9822 184.573 47.4309C184.955 47.8776 185.316 48.3609 185.658 48.8807L184.315 49.8463ZM199.23 56.9376C197.954 57.189 196.797 57.194 195.76 56.9525C194.723 56.711 193.865 56.2441 193.185 55.5518C192.515 54.8574 192.074 53.9712 191.862 52.8933C191.705 52.0979 191.706 51.326 191.862 50.5775C192.019 49.8291 192.313 49.1407 192.744 48.5123C193.183 47.8713 193.741 47.3374 194.418 46.9106L194.702 47.3601L187.481 48.9456L187.109 47.0618L200.344 44.1289L200.715 46.0127L198.731 46.4525C197.94 46.6301 197.226 46.901 196.592 47.2652C195.965 47.6169 195.437 48.0526 195.006 48.5722C194.584 49.0793 194.288 49.6433 194.116 50.2641C193.945 50.8849 193.929 51.5459 194.067 52.247C194.213 52.9901 194.501 53.5966 194.931 54.0664C195.371 54.5342 195.922 54.8496 196.585 55.0126C197.256 55.1631 198.02 55.1538 198.878 54.9848C199.171 54.9271 199.503 54.8454 199.874 54.7398C200.244 54.6342 200.566 54.5274 200.838 54.4194L201.454 56.3039C201.121 56.4347 200.753 56.556 200.351 56.6678C199.96 56.7776 199.586 56.8675 199.23 56.9376ZM213.782 54.2344C212.83 54.422 212.022 54.5159 211.359 54.516C210.698 54.5266 210.156 54.4215 209.732 54.2006C209.318 53.9777 208.983 53.6305 208.727 53.159C208.482 52.6856 208.283 52.0616 208.13 51.2871C208.083 51.0464 208.016 50.6791 207.93 50.1852C207.843 49.6912 207.744 49.1073 207.633 48.4334C207.522 47.7594 207.402 47.0384 207.273 46.2703C207.154 45.5001 207.033 44.7247 206.912 43.9441C206.789 43.153 206.673 42.3985 206.564 41.6807L208.661 41.3165C208.754 41.9506 208.854 42.6266 208.963 43.3445C209.072 44.0623 209.182 44.7854 209.292 45.5137C209.414 46.24 209.528 46.9296 209.635 47.5826C209.742 48.2356 209.84 48.8195 209.931 49.3344C210.019 49.8388 210.092 50.2375 210.15 50.5305C210.249 51.0329 210.361 51.4349 210.486 51.7365C210.621 52.036 210.799 52.2509 211.02 52.3813C211.252 52.5096 211.557 52.569 211.936 52.5597C212.323 52.5378 212.815 52.4681 213.411 52.3506C214.186 52.1981 214.789 52.0304 215.22 51.8476C215.65 51.6543 215.931 51.425 216.063 51.1597C216.206 50.8923 216.24 50.565 216.163 50.1778C216.126 49.9894 216.061 49.7686 215.968 49.5152C215.872 49.2513 215.782 49.0408 215.696 48.8837L217.648 48.0264C217.822 48.416 217.957 48.7428 218.053 49.0066C218.148 49.2705 218.223 49.5385 218.276 49.8106C218.433 50.606 218.378 51.2909 218.11 51.8654C217.843 52.4399 217.35 52.9175 216.631 53.2982C215.915 53.6894 214.965 54.0015 213.782 54.2344ZM203.888 50.1985L203.539 48.4245L216.05 45.9602L216.4 47.7341L203.888 50.1985ZM203.398 46.055L203.049 44.2811L214.932 41.9404L215.282 43.7144L203.398 46.055ZM60.4472 113.863C59.8716 113.976 59.2437 114.073 58.5636 114.152C57.8835 114.232 57.2212 114.292 56.5768 114.332C55.9429 114.369 55.3811 114.388 54.8916 114.386L54.7025 112.516C55.3406 112.499 55.9819 112.47 56.6263 112.43C57.2707 112.39 57.8911 112.339 58.4875 112.276C59.0818 112.202 59.6145 112.119 60.0854 112.026C61.5087 111.746 62.5413 111.33 63.183 110.78C63.8331 110.217 64.0799 109.538 63.9232 108.742C63.7913 108.073 63.4401 107.615 62.8698 107.368C62.3078 107.109 61.5454 107.075 60.5826 107.264C59.9232 107.394 59.2741 107.603 58.6352 107.892C57.9943 108.171 57.3982 108.511 56.8468 108.913C56.2955 109.315 55.8225 109.756 55.4278 110.236L53.4667 110.215C53.4687 109.508 53.4664 108.862 53.4598 108.276C53.4531 107.69 53.438 107.144 53.4144 106.638C53.3887 106.121 53.3546 105.617 53.3121 105.125L55.3681 104.883C55.425 105.448 55.4693 106.032 55.501 106.634C55.5307 107.226 55.5457 107.827 55.546 108.436L55.1611 108.055C55.6583 107.598 56.1772 107.197 56.7179 106.851C57.2691 106.504 57.8421 106.211 58.4369 105.975C59.0421 105.736 59.6797 105.55 60.3495 105.418C61.9821 105.097 63.2757 105.179 64.2303 105.665C65.1828 106.141 65.7838 107.012 66.0332 108.278C66.3156 109.712 65.989 110.896 65.0532 111.83C64.128 112.763 62.5926 113.44 60.4472 113.863ZM63.0161 102.398C62.0134 102.607 61.0496 102.791 60.1245 102.951C59.1973 103.101 58.2713 103.229 57.3463 103.336C56.4214 103.442 55.4599 103.528 54.4619 103.594L54.3199 101.714C55.2405 101.641 56.1686 101.551 57.104 101.443C58.0373 101.324 58.9686 101.195 59.8978 101.055C60.8354 100.903 61.7543 100.739 62.6543 100.561L63.0161 102.398ZM71.0805 112.046L69.5185 110.739L76.9926 102.238L77.1291 102.766L68.9346 104.38L68.5728 102.543L79.0122 100.487L79.374 102.324L75.9325 106.377L74.9154 106.512C74.8705 106.119 74.9436 105.8 75.1347 105.556C75.3363 105.31 75.6359 105.147 76.0336 105.069C76.5359 104.97 76.926 104.991 77.2038 105.132C77.4921 105.271 77.7122 105.478 77.8641 105.752C78.016 106.026 78.149 106.316 78.2632 106.619C78.3837 106.9 78.5116 107.163 78.6469 107.408C78.7821 107.653 78.9657 107.84 79.1975 107.968C79.4273 108.086 79.741 108.106 80.1387 108.027C80.3061 107.994 80.5343 107.939 80.8232 107.86C81.1101 107.771 81.4116 107.673 81.7278 107.568C82.0419 107.451 82.3142 107.343 82.5446 107.244L83.0947 109.043C82.7847 109.18 82.4622 109.309 82.1271 109.429C81.8046 109.558 81.4832 109.665 81.1629 109.75C80.8551 109.843 80.5704 109.916 80.3087 109.967C79.6599 110.095 79.1201 110.114 78.6894 110.025C78.2692 109.934 77.9235 109.779 77.6521 109.561C77.3913 109.34 77.1849 109.093 77.033 108.818C76.879 108.533 76.7449 108.266 76.6306 108.017C76.5434 107.795 76.4519 107.607 76.3561 107.451C76.2687 107.284 76.1634 107.163 76.0402 107.09C75.9254 107.004 75.7738 106.979 75.5854 107.016C75.5122 107.031 75.4378 107.067 75.3623 107.125C75.2848 107.173 75.182 107.259 75.0541 107.382C74.9366 107.503 74.7729 107.693 74.5629 107.951L71.0805 112.046ZM78.3945 99.255C77.6201 99.4076 76.7431 99.564 75.7636 99.7243C74.7821 99.8741 73.7556 100.017 72.6841 100.151C71.6127 100.286 70.5549 100.408 69.5107 100.516L69.3751 98.5854C70.4444 98.4944 71.4896 98.3918 72.5107 98.2777C73.5403 98.151 74.525 98.0168 75.4647 97.8752C76.4043 97.7336 77.2614 97.5866 78.0359 97.434L78.3945 99.255ZM94.9461 107.035C93.6693 107.287 92.5124 107.292 91.4755 107.05C90.4386 106.809 89.5802 106.342 88.9003 105.649C88.2308 104.955 87.7899 104.069 87.5776 102.991C87.4209 102.195 87.4211 101.424 87.5781 100.675C87.7351 99.9266 88.0289 99.2382 88.4596 98.6098C88.8987 97.9688 89.4567 97.4349 90.1336 97.0081L90.4178 97.4576L83.1961 99.0431L82.8251 97.1593L96.0598 94.2264L96.4308 96.1102L94.4464 96.55C93.6551 96.7276 92.942 96.9985 92.3071 97.3627C91.6806 97.7144 91.1522 98.1501 90.7218 98.6697C90.2999 99.1768 90.0032 99.7408 89.832 100.362C89.6607 100.982 89.6442 101.643 89.7823 102.345C89.9286 103.088 90.2166 103.694 90.6461 104.164C91.0862 104.632 91.6375 104.947 92.3002 105.11C92.9712 105.261 93.7359 105.251 94.594 105.082C94.8871 105.025 95.2189 104.943 95.5895 104.837C95.96 104.732 96.2815 104.625 96.5537 104.517L97.1695 106.401C96.8365 106.532 96.469 106.654 96.0671 106.765C95.6756 106.875 95.3019 106.965 94.9461 107.035ZM104.209 105.879C103.59 105.327 102.948 104.828 102.284 104.383C101.618 103.927 100.907 103.518 100.151 103.156L101.317 101.459C102.064 101.833 102.79 102.261 103.494 102.742C104.208 103.221 104.883 103.752 105.519 104.333L104.209 105.879ZM115.178 93.5103L114.903 92.1132L120.099 91.0897L120.003 90.603L114.069 91.7718L113.76 90.202L119.694 89.0332L119.496 88.0285L121.756 87.5833L121.954 88.588L127.888 87.4192L128.197 88.989L122.263 90.1578L122.359 90.6444L127.555 89.621L127.831 91.0181L115.178 93.5103ZM117.669 103.424L116.855 99.2952L128.472 97.0071L129.285 101.136L127.088 101.569L126.976 101.003L119.755 102.426L119.483 101.044L126.704 99.622L126.562 98.8999L119.341 100.322L119.866 102.991L117.669 103.424ZM119.222 97.8995C119.05 97.5747 118.86 97.2478 118.654 96.9188C118.458 96.5877 118.255 96.2744 118.045 95.9788L120.002 95.0714C120.225 95.3754 120.434 95.6877 120.627 96.0083C120.831 96.3269 121.025 96.6475 121.208 96.9702L119.222 97.8995ZM115.356 99.1339L115.037 97.517L129.48 94.6723L129.798 96.2892L115.356 99.1339ZM116.675 96.4768L116.147 93.7924L127.041 91.6465L127.57 94.331L118.873 96.044L118.672 95.0236L125.171 93.7435L125.041 93.0841L118.542 94.3642L118.873 96.044L116.675 96.4768ZM125.489 96.6814L123.388 96.3615C123.52 96.0418 123.639 95.7085 123.745 95.3616C123.849 95.0042 123.936 94.6498 124.009 94.2986L126.136 94.4178C126.059 94.8025 125.967 95.1902 125.859 95.5811C125.751 95.972 125.628 96.3388 125.489 96.6814ZM133.698 99.7774L131.731 99.4798L134.273 85.6398L136.315 85.8246L134.951 93.0566L134.208 92.7626C134.668 92.2263 135.138 91.7967 135.618 91.4739C136.106 91.1385 136.596 90.9224 137.088 90.8255C137.475 90.7493 137.826 90.7618 138.139 90.8631C138.45 90.954 138.737 91.1368 138.997 91.4116C139.256 91.6759 139.502 92.0135 139.735 92.4242C139.968 92.8348 140.205 93.3209 140.446 93.8822C140.625 94.2927 140.791 94.6405 140.945 94.9254C141.097 95.1999 141.263 95.4065 141.442 95.545C141.62 95.6732 141.829 95.7135 142.069 95.6661C142.488 95.5837 142.808 95.2216 143.03 94.5801C143.251 93.9385 143.388 92.9494 143.44 91.6128L145.397 91.8633C145.377 93.0849 145.253 94.1096 145.024 94.9373C144.804 95.7525 144.478 96.3875 144.046 96.8423C143.614 97.2971 143.052 97.5925 142.361 97.7285C141.911 97.8172 141.503 97.816 141.138 97.725C140.784 97.6424 140.457 97.473 140.157 97.2169C139.867 96.9588 139.591 96.6327 139.328 96.2386C139.074 95.832 138.829 95.3586 138.592 94.8181C138.399 94.3887 138.214 94.0336 138.04 93.7528C137.863 93.4615 137.675 93.2539 137.477 93.1299C137.276 92.9954 137.035 92.956 136.752 93.0116C136.564 93.0487 136.352 93.1339 136.117 93.2671C135.891 93.3878 135.667 93.5733 135.444 93.8237C135.22 94.0636 135.01 94.3768 134.814 94.7632C134.629 95.1476 134.486 95.6105 134.386 96.152L133.698 99.7774ZM157.143 94.9476C155.866 95.1991 154.707 95.1936 153.666 94.9312C152.627 94.6792 151.765 94.1966 151.081 93.4834C150.408 92.7681 149.962 91.8557 149.743 90.7464C149.582 89.9301 149.578 89.1372 149.731 88.3678C149.882 87.588 150.172 86.8786 150.6 86.2398C151.037 85.5884 151.593 85.044 152.268 84.6067L152.553 85.0562L145.331 86.6417L144.96 84.7579L158.194 81.825L158.565 83.7088L156.581 84.1486C155.769 84.3303 155.046 84.6085 154.414 84.9832C153.781 85.3579 153.255 85.8093 152.837 86.3373C152.428 86.8528 152.14 87.4314 151.973 88.0731C151.816 88.7128 151.808 89.3885 151.948 90.1001C152.1 90.8746 152.394 91.5072 152.827 91.998C153.269 92.4762 153.824 92.8073 154.491 92.9913C155.166 93.1627 155.932 93.1639 156.791 92.9948C156.979 92.9577 157.187 92.9113 157.415 92.8555C157.652 92.7871 157.889 92.7188 158.125 92.6504C158.36 92.5716 158.568 92.498 158.75 92.4295L159.366 94.314C159.144 94.4012 158.899 94.4821 158.631 94.5566C158.376 94.6395 158.118 94.712 157.859 94.774C157.611 94.8444 157.373 94.9023 157.143 94.9476ZM157.631 89.8124C157.284 89.3156 156.921 88.8543 156.543 88.4285C156.166 88.0028 155.749 87.5685 155.292 87.1258L156.594 86.0376C157.051 86.4803 157.47 86.925 157.852 87.3717C158.231 87.808 158.601 88.2787 158.962 88.7839L157.631 89.8124ZM159.907 88.4509C159.57 87.952 159.217 87.4835 158.848 87.0452C158.479 86.6069 158.075 86.1591 157.637 85.7018L158.92 84.6826C159.377 85.1253 159.792 85.5763 160.165 86.0355C160.547 86.4822 160.908 86.9654 161.25 87.4852L159.907 88.4509ZM172.292 91.9638C171.339 92.1514 170.531 92.2453 169.868 92.2454C169.207 92.2561 168.665 92.1509 168.241 91.93C167.827 91.7071 167.492 91.3599 167.236 90.8885C166.991 90.415 166.792 89.791 166.639 89.0165C166.592 88.7758 166.525 88.4085 166.439 87.9146C166.352 87.4206 166.254 86.8367 166.143 86.1628C166.032 85.4888 165.911 84.7678 165.782 83.9997C165.663 83.2295 165.543 82.4541 165.421 81.6735C165.298 80.8824 165.182 80.1279 165.073 79.4101L167.171 79.0459C167.263 79.6801 167.363 80.356 167.472 81.0739C167.581 81.7917 167.691 82.5148 167.802 83.2431C167.923 83.9694 168.037 84.659 168.144 85.312C168.251 85.965 168.349 86.5489 168.44 87.0638C168.528 87.5682 168.602 87.9669 168.659 88.2599C168.758 88.7623 168.87 89.1643 168.995 89.4659C169.13 89.7654 169.308 89.9803 169.529 90.1107C169.761 90.239 170.066 90.2984 170.445 90.2891C170.832 90.2672 171.324 90.1975 171.92 90.08C172.695 89.9275 173.298 89.7598 173.729 89.577C174.159 89.3837 174.44 89.1544 174.572 88.8891C174.715 88.6217 174.749 88.2945 174.672 87.9072C174.635 87.7189 174.57 87.498 174.477 87.2446C174.381 86.9807 174.291 86.7702 174.206 86.6131L176.157 85.7558C176.331 86.1455 176.466 86.4722 176.562 86.736C176.657 86.9999 176.732 87.2679 176.785 87.54C176.942 88.3354 176.887 89.0203 176.619 89.5948C176.352 90.1693 175.859 90.6469 175.14 91.0276C174.424 91.4188 173.474 91.7309 172.292 91.9638ZM162.397 87.9279L162.048 86.1539L174.559 83.6896L174.909 85.4635L162.397 87.9279ZM161.907 83.7844L161.558 82.0105L173.441 79.6699L173.791 81.4438L161.907 83.7844ZM186.034 89.1265C185.459 89.2399 184.831 89.3364 184.151 89.416C183.471 89.4956 182.808 89.5554 182.164 89.5953C181.53 89.6332 180.968 89.6514 180.479 89.65L180.29 87.7793C180.928 87.7623 181.569 87.7339 182.213 87.6939C182.858 87.654 183.478 87.6024 184.075 87.5393C184.669 87.4657 185.202 87.3826 185.673 87.2898C187.096 87.0095 188.128 86.5941 188.77 86.0437C189.42 85.4808 189.667 84.8016 189.51 84.0063C189.378 83.3365 189.027 82.8784 188.457 82.6319C187.895 82.373 187.132 82.3383 186.17 82.528C185.51 82.6578 184.861 82.8672 184.222 83.1561C183.581 83.4346 182.985 83.7749 182.434 84.177C181.883 84.5791 181.41 85.0202 181.015 85.5002L179.054 85.4788C179.056 84.7717 179.054 84.1253 179.047 83.5395C179.04 82.9538 179.025 82.4077 179.001 81.9014C178.976 81.3847 178.942 80.8804 178.899 80.3887L180.955 80.1468C181.012 80.7118 181.056 81.2956 181.088 81.8981C181.118 82.4902 181.133 83.0906 181.133 83.6994L180.748 83.3186C181.245 82.8619 181.764 82.4607 182.305 82.115C182.856 81.7673 183.429 81.4751 184.024 81.2383C184.629 80.9995 185.267 80.8142 185.937 80.6822C187.569 80.3607 188.863 80.4429 189.817 80.9289C190.77 81.4045 191.371 82.2754 191.62 83.5417C191.903 84.9755 191.576 86.1596 190.64 87.0941C189.715 88.0265 188.18 88.7039 186.034 89.1265ZM188.603 77.662C187.601 77.8703 186.637 78.0547 185.712 78.2152C184.784 78.3652 183.858 78.4932 182.933 78.5993C182.008 78.7054 181.047 78.7915 180.049 78.8576L179.907 76.9776C180.828 76.905 181.756 76.8146 182.691 76.7065C183.624 76.5879 184.556 76.4588 185.485 76.3193C186.423 76.1672 187.341 76.0025 188.241 75.8253L188.603 77.662ZM196.668 87.3094L195.106 86.0026L202.58 77.502L202.716 78.0295L194.522 79.6436L194.16 77.8068L204.599 75.7507L204.961 77.5874L201.52 81.6409L200.503 81.776C200.458 81.3825 200.531 81.0637 200.722 80.8195C200.923 80.5733 201.223 80.411 201.621 80.3327C202.123 80.2337 202.513 80.2547 202.791 80.3957C203.079 80.5346 203.299 80.7413 203.451 81.0158C203.603 81.2903 203.736 81.5793 203.85 81.883C203.971 82.1637 204.099 82.4266 204.234 82.6717C204.369 82.9169 204.553 83.1036 204.785 83.2319C205.014 83.3497 205.328 83.3694 205.726 83.2911C205.893 83.2581 206.121 83.2023 206.41 83.1237C206.697 83.0345 206.999 82.9371 207.315 82.8313C207.629 82.7151 207.901 82.6071 208.132 82.5074L208.682 84.307C208.372 84.4442 208.049 84.5729 207.714 84.6933C207.392 84.822 207.07 84.9288 206.75 85.0137C206.442 85.1069 206.157 85.1793 205.896 85.2308C205.247 85.3586 204.707 85.378 204.277 85.2888C203.856 85.1977 203.511 85.0429 203.239 84.8245C202.978 84.6041 202.772 84.3567 202.62 84.0822C202.466 83.7972 202.332 83.5301 202.218 83.2809C202.13 83.0589 202.039 82.8703 201.943 82.7152C201.856 82.5476 201.751 82.427 201.627 82.3535C201.513 82.2674 201.361 82.2429 201.173 82.28C201.099 82.2944 201.025 82.3308 200.949 82.3891C200.872 82.437 200.769 82.5225 200.641 82.6455C200.524 82.7665 200.36 82.9564 200.15 83.2152L196.668 87.3094ZM203.982 74.5188C203.207 74.6713 202.33 74.8278 201.351 74.9881C200.369 75.1379 199.343 75.2803 198.271 75.4152C197.2 75.5502 196.142 75.6716 195.098 75.7794L194.962 73.8492C196.031 73.7582 197.077 73.6556 198.098 73.5414C199.127 73.4147 200.112 73.2806 201.052 73.139C201.991 72.9974 202.849 72.8503 203.623 72.6978L203.982 74.5188ZM210.995 84.2102C211.146 82.7128 211.251 81.208 211.312 79.6957C211.382 78.1709 211.404 76.6282 211.379 75.0676C211.363 73.4944 211.299 71.9033 211.189 70.2943L213.296 69.9773C213.427 71.5278 213.503 73.1 213.523 74.6941C213.554 76.2862 213.536 77.877 213.469 79.4667C213.412 81.0543 213.308 82.624 213.157 84.1757L210.995 84.2102ZM220.822 82.3562C219.848 82.5479 218.983 82.5987 218.226 82.5086C217.469 82.4186 216.856 82.2023 216.386 81.86C215.916 81.5176 215.625 81.0587 215.512 80.483C215.429 80.0644 215.48 79.6305 215.663 79.1813C215.855 78.7195 216.191 78.2184 216.671 77.678L218.546 78.3362C218.214 78.6406 217.976 78.9213 217.831 79.1782C217.686 79.4351 217.632 79.6577 217.669 79.8461C217.712 80.0659 217.855 80.2389 218.098 80.3651C218.34 80.4913 218.665 80.5686 219.073 80.597C219.479 80.6149 219.938 80.5734 220.451 80.4724C220.943 80.3755 221.434 80.2514 221.927 80.1001C222.419 79.9489 222.932 79.7663 223.466 79.5524L224.072 81.3898C223.507 81.6099 222.962 81.7987 222.439 81.9561C221.926 82.1115 221.387 82.2449 220.822 82.3562ZM208.867 74.6492L208.505 72.8125L219.651 70.6171L220.013 72.4538L208.867 74.6492ZM215.116 75.0816C216.331 74.7337 217.528 74.4109 218.709 74.1131C219.9 73.8132 221.092 73.5458 222.285 73.3108L222.647 75.1475C221.475 75.3784 220.304 75.6417 219.133 75.9374C217.961 76.2227 216.78 76.5477 215.591 76.9124L215.116 75.0816ZM67.0181 140.104C67.55 139.934 68.0172 139.684 68.4198 139.355C68.8308 139.013 69.1604 138.616 69.4086 138.165C69.6652 137.701 69.8329 137.201 69.9119 136.663C69.9909 136.126 69.9726 135.564 69.8572 134.978C69.6902 134.131 69.3523 133.436 68.8435 132.895C68.3346 132.354 67.7071 131.983 66.9609 131.782C66.2146 131.581 65.3915 131.569 64.4915 131.746C63.7275 131.897 63.0416 132.168 62.4338 132.559C61.8239 132.94 61.3079 133.412 60.8858 133.973C60.4721 134.522 60.1837 135.128 60.0207 135.791C59.8557 136.443 59.8401 137.109 59.9741 137.789C60.0689 138.271 60.2391 138.721 60.4848 139.14C60.7304 139.559 61.0024 139.891 61.3008 140.137C61.5972 140.372 61.8762 140.464 62.1378 140.413C62.5251 140.336 62.8203 139.903 63.0234 139.113C63.2349 138.31 63.3574 137.193 63.3909 135.763C63.4223 134.321 63.352 132.612 63.1799 130.635L65.264 130.453C65.4129 132.478 65.4747 134.227 65.4495 135.7C65.4327 137.16 65.3183 138.373 65.1063 139.339C64.9027 140.292 64.5961 141.026 64.1867 141.542C63.7878 142.055 63.2795 142.373 62.6621 142.494C62.1388 142.598 61.6326 142.567 61.1436 142.402C60.6525 142.227 60.1952 141.948 59.7717 141.563C59.3565 141.167 58.995 140.684 58.6871 140.114C58.3875 139.531 58.1677 138.884 58.0275 138.173C57.8317 137.178 57.8345 136.227 58.0358 135.317C58.2477 134.406 58.6235 133.582 59.1633 132.845C59.7115 132.095 60.4026 131.465 61.2367 130.952C62.0812 130.438 63.0477 130.074 64.1361 129.859C65.4129 129.608 66.5906 129.626 67.6692 129.914C68.7562 130.189 69.6709 130.721 70.4133 131.509C71.1557 132.298 71.6506 133.32 71.898 134.576C72.0629 135.414 72.0909 136.218 71.9819 136.99C71.8709 137.751 71.6398 138.454 71.2886 139.099C70.9457 139.732 70.4891 140.284 69.9188 140.755C69.3589 141.224 68.7062 141.581 67.9607 141.826L67.0181 140.104ZM74.6552 140.295C74.8445 139.214 75.0022 138.221 75.1283 137.316C75.2648 136.408 75.3729 135.55 75.4527 134.74C75.5409 133.919 75.6071 133.096 75.6513 132.272C75.6935 131.437 75.7149 130.552 75.7156 129.617C75.7162 128.682 75.6973 127.648 75.6587 126.514L77.7459 126.347C77.7846 127.427 77.8046 128.439 77.8061 129.385C77.8054 130.32 77.7829 131.227 77.7385 132.105C77.7025 132.971 77.6403 133.842 77.552 134.718C77.4637 135.595 77.3501 136.508 77.2114 137.46C77.0726 138.411 76.9044 139.434 76.7066 140.527L74.6552 140.295ZM86.903 135.747C86.6851 135.137 86.4329 134.491 86.1462 133.808C85.8699 133.124 85.5665 132.439 85.2359 131.754C84.9053 131.069 84.5746 130.411 84.2438 129.78L86.0822 128.847C86.4255 129.486 86.7645 130.159 87.0993 130.865C87.4424 131.558 87.7594 132.257 88.0502 132.96C88.341 133.664 88.5995 134.342 88.8256 134.993L86.903 135.747ZM83.9544 128.973C83.5709 128.461 83.2041 128.006 82.8538 127.608C82.5015 127.199 82.1198 126.806 81.7088 126.431L82.9199 125.377C83.3539 125.759 83.7492 126.165 84.1056 126.595C84.4726 127.023 84.8425 127.493 85.2155 128.007L83.9544 128.973ZM86.0197 127.702C85.6656 127.174 85.3124 126.705 84.96 126.296C84.6181 125.885 84.2469 125.491 83.8464 125.113L85.0511 124.109C85.4767 124.504 85.8688 124.921 86.2273 125.361C86.5838 125.791 86.938 126.265 87.29 126.783L86.0197 127.702ZM82.2368 139.047C81.9542 139.102 81.6016 139.134 81.179 139.141C80.769 139.156 80.3276 139.151 79.8549 139.124C79.3927 139.096 78.9441 139.054 78.5091 138.998L78.6307 137.131C78.9757 137.172 79.3197 137.208 79.6627 137.238C80.0036 137.258 80.3153 137.267 80.5977 137.266C80.8801 137.265 81.0998 137.248 81.2568 137.218C81.5708 137.156 81.7994 136.964 81.9426 136.642C82.0857 136.32 82.1426 135.836 82.1131 135.19C82.092 134.531 81.9805 133.688 81.7785 132.663C81.663 132.077 81.5493 131.61 81.4374 131.262C81.3254 130.915 81.1881 130.659 81.0254 130.496C80.8732 130.33 80.6653 130.24 80.4018 130.227C80.1487 130.212 79.8233 130.243 79.4256 130.321L72.7852 131.629L72.4265 129.808L78.8629 128.541C79.6059 128.394 80.2296 128.304 80.7338 128.27C81.2465 128.223 81.6721 128.259 82.0106 128.377C82.3492 128.495 82.6257 128.713 82.8402 129.029C83.0653 129.344 83.2564 129.79 83.4137 130.368C83.5794 130.933 83.7468 131.645 83.9158 132.503C84.1879 133.884 84.3111 135.034 84.2854 135.952C84.2702 136.869 84.0903 137.584 83.7457 138.097C83.4095 138.598 82.9066 138.915 82.2368 139.047ZM101.499 136.084C101.238 136.136 100.886 136.2 100.445 136.276C100.013 136.35 99.4713 136.44 98.8183 136.547L98.3716 134.776C98.9932 134.675 99.5101 134.595 99.9224 134.536C100.333 134.466 100.621 134.414 100.789 134.381C101.019 134.336 101.179 134.294 101.269 134.254C101.368 134.202 101.424 134.126 101.436 134.026C101.447 133.915 101.43 133.744 101.385 133.514L99.551 124.205L92.8477 125.525L92.4983 123.751L102.326 121.816L102.675 123.59L101.592 123.803L103.413 133.049C103.528 133.635 103.594 134.106 103.61 134.462C103.625 134.818 103.571 135.095 103.447 135.293C103.323 135.491 103.103 135.643 102.787 135.749C102.483 135.863 102.054 135.975 101.499 136.084ZM91.8133 138.074L89.7787 127.744L91.8038 127.345L93.8383 137.675L91.8133 138.074ZM89.7166 132.893L88.4733 130.969C88.8709 130.228 89.1952 129.473 89.4464 128.706C89.7081 127.937 89.9018 127.127 90.0277 126.276C90.1536 125.425 90.2128 124.511 90.2052 123.534L92.1979 123.468C92.226 124.604 92.1706 125.675 92.0317 126.681C91.8907 127.676 91.6757 128.599 91.3866 129.449L91.0874 128.758C91.0509 129.07 90.9829 129.415 90.8835 129.793C90.7925 130.159 90.6816 130.534 90.5508 130.919C90.4283 131.291 90.2924 131.649 90.1428 131.994C90.0038 132.336 89.8617 132.636 89.7166 132.893ZM94.4587 134.78L92.9436 127.088L98.6892 125.956L99.9569 132.393L96.0951 133.153L95.7921 131.615L97.8486 131.21L97.19 127.866L95.1335 128.271L96.3425 134.409L94.4587 134.78ZM110.242 133.857C108.944 134.112 107.891 134.037 107.083 133.631C106.285 133.223 105.787 132.516 105.589 131.512C105.387 130.486 105.579 129.638 106.164 128.969C106.75 128.299 107.697 127.835 109.005 127.577C109.696 127.441 110.402 127.384 111.123 127.405C111.843 127.415 112.608 127.52 113.419 127.719C114.239 127.905 115.137 128.185 116.112 128.558C117.099 128.929 118.193 129.404 119.394 129.983L118.425 131.69C117.059 130.992 115.832 130.445 114.743 130.051C113.665 129.655 112.686 129.402 111.805 129.293C110.935 129.181 110.118 129.201 109.354 129.351C108.664 129.487 108.172 129.698 107.881 129.984C107.589 130.27 107.49 130.648 107.583 131.119C107.76 132.019 108.492 132.342 109.779 132.089C110.512 131.945 111.012 131.694 111.278 131.337C111.555 130.978 111.632 130.484 111.509 129.857L109.548 119.904L111.652 119.489L112.137 121.954L117.569 120.884L117.918 122.658L112.487 123.728L113.612 129.442C113.853 130.667 113.697 131.638 113.142 132.356C112.601 133.082 111.634 133.583 110.242 133.857ZM124.04 129.068C126.039 128.674 127.613 128.19 128.761 127.616C129.909 127.042 130.686 126.324 131.092 125.461C131.499 124.598 131.583 123.565 131.346 122.362C131.109 121.158 130.676 120.314 130.048 119.829C129.43 119.342 128.598 119.201 127.552 119.407C126.976 119.521 126.45 119.722 125.975 120.011C125.507 120.288 125.109 120.638 124.779 121.062C124.46 121.484 124.233 121.958 124.097 122.485C123.97 122.999 123.963 123.544 124.077 124.12L124.488 126.207L122.447 126.609L120.818 118.336L122.859 117.934L123.499 121.184L122.714 121.339C122.984 120.611 123.333 119.983 123.761 119.453C124.198 118.91 124.719 118.465 125.324 118.117C125.93 117.77 126.61 117.522 127.363 117.373C129.006 117.05 130.351 117.28 131.396 118.063C132.44 118.836 133.14 120.127 133.497 121.938C133.814 123.55 133.709 124.946 133.18 126.126C132.652 127.307 131.672 128.293 130.241 129.086C128.82 129.877 126.917 130.507 124.531 130.977L124.04 129.068ZM138.058 128.949L136.888 127.483C137.355 126.869 137.741 126.239 138.049 125.591C138.354 124.933 138.587 124.24 138.748 123.513C138.907 122.775 138.984 121.977 138.978 121.119C138.972 120.262 138.89 119.321 138.732 118.298L135.247 118.984L134.907 117.257L140.024 116.249L140.173 117.003C140.445 118.384 140.601 119.647 140.642 120.792C140.691 121.923 140.624 122.964 140.441 123.913C140.269 124.86 139.982 125.749 139.58 126.578C139.176 127.397 138.669 128.187 138.058 128.949ZM141.695 126.634C141.069 126.051 140.482 125.552 139.933 125.139C139.382 124.714 138.848 124.352 138.332 124.051C137.817 123.751 137.287 123.491 136.744 123.272L136.95 121.503C137.51 121.697 138.076 121.949 138.648 122.261C139.231 122.57 139.827 122.947 140.437 123.392C141.055 123.825 141.692 124.33 142.349 124.907L141.695 126.634ZM137.744 124.624L136.15 123.405C136.264 122.6 136.337 121.759 136.371 120.883C136.405 120.006 136.391 119.052 136.329 118.021C136.265 116.979 136.156 115.815 136 114.531L137.85 114.232C138.101 116.389 138.215 118.351 138.193 120.116C138.169 121.871 138.019 123.374 137.744 124.624ZM142.66 128.059L141.847 123.93L150.748 122.177L151.561 126.305L149.473 126.717L149.362 126.151L144.637 127.082L144.365 125.701L149.09 124.77L148.948 124.048L144.223 124.979L144.748 127.647L142.66 128.059ZM143.721 122.68C143.571 122.362 143.402 122.026 143.212 121.671C143.031 121.305 142.846 120.972 142.657 120.672L144.479 119.824C144.671 120.134 144.858 120.45 145.041 120.773C145.222 121.085 145.389 121.406 145.541 121.735L143.721 122.68ZM141.274 123.586L140.955 121.969L151.097 119.972L151.415 121.589L141.274 123.586ZM148.606 121.734L146.653 121.336C146.754 121.023 146.836 120.697 146.9 120.358C146.962 120.009 147.013 119.662 147.054 119.317L149.04 119.464C149.005 119.84 148.951 120.226 148.876 120.621C148.802 121.016 148.712 121.387 148.606 121.734ZM141.557 121.133L141.028 118.449L149.568 116.767L150.097 119.451L143.661 120.719L143.46 119.698L147.808 118.842L147.678 118.183L143.33 119.039L143.661 120.719L141.557 121.133ZM140.766 118.027L140.491 116.63L143.866 115.966L143.77 115.479L139.861 116.249L139.552 114.679L143.461 113.909L143.263 112.904L145.414 112.481L145.612 113.485L149.505 112.719L149.814 114.288L145.921 115.055L146.017 115.542L149.643 114.828L149.918 116.225L140.766 118.027ZM160.056 123.98C158.853 124.217 157.826 124.223 156.978 123.999C156.131 123.785 155.447 123.322 154.926 122.609C154.406 121.897 154.022 120.917 153.777 119.672L152.284 112.09L154.434 111.666L155.928 119.248C156.161 120.431 156.571 121.242 157.157 121.681C157.752 122.107 158.588 122.214 159.666 122.002C160.483 121.841 161.166 121.554 161.715 121.142C162.262 120.719 162.721 120.123 163.091 119.354C163.47 118.573 163.79 117.575 164.051 116.36L166.155 116.777C165.934 117.919 165.656 118.909 165.321 119.747C164.995 120.572 164.593 121.265 164.116 121.827C163.64 122.388 163.066 122.843 162.396 123.193C161.736 123.54 160.956 123.803 160.056 123.98ZM176.443 120.328C176.171 120.382 175.824 120.412 175.401 120.419C174.981 120.437 174.534 120.432 174.061 120.406C173.599 120.377 173.151 120.335 172.716 120.28L172.837 118.413C173.193 118.452 173.542 118.486 173.885 118.516C174.226 118.536 174.538 118.546 174.82 118.544C175.102 118.543 175.317 118.528 175.463 118.499C175.788 118.435 176.022 118.242 176.165 117.921C176.308 117.599 176.365 117.115 176.335 116.468C176.304 115.811 176.187 114.97 175.985 113.944C175.87 113.358 175.756 112.892 175.644 112.544C175.532 112.196 175.395 111.941 175.232 111.777C175.08 111.611 174.877 111.521 174.624 111.505C174.371 111.49 174.04 111.523 173.632 111.603L166.945 112.92L166.586 111.099L173.069 109.822C173.823 109.674 174.452 109.582 174.956 109.548C175.469 109.502 175.889 109.539 176.217 109.659C176.556 109.777 176.832 109.994 177.047 110.311C177.272 110.625 177.468 111.07 177.636 111.646C177.802 112.211 177.969 112.923 178.138 113.781C178.41 115.163 178.533 116.313 178.508 117.231C178.482 118.149 178.297 118.865 177.952 119.379C177.616 119.88 177.113 120.196 176.443 120.328ZM168.815 121.586C169.004 120.505 169.162 119.512 169.288 118.607C169.424 117.699 169.532 116.841 169.612 116.031C169.7 115.209 169.766 114.386 169.811 113.562C169.853 112.728 169.874 111.843 169.875 110.908C169.876 109.973 169.857 108.938 169.818 107.804L171.905 107.638C171.944 108.717 171.964 109.73 171.965 110.676C171.965 111.611 171.942 112.517 171.898 113.396C171.862 114.262 171.8 115.133 171.711 116.009C171.623 116.885 171.51 117.799 171.371 118.751C171.232 119.702 171.064 120.725 170.866 121.818L168.815 121.586ZM180.946 116.196C180.74 115.595 180.495 114.959 180.211 114.286C179.924 113.603 179.615 112.92 179.285 112.234C178.954 111.549 178.618 110.893 178.277 110.264C177.936 109.636 177.601 109.066 177.272 108.554L179.144 107.631C179.49 108.172 179.835 108.761 180.178 109.4C180.521 110.04 180.853 110.703 181.173 111.39C181.502 112.064 181.809 112.743 182.096 113.426C182.393 114.106 182.652 114.757 182.872 115.377L180.946 116.196ZM188.107 115.96C189.677 115.651 190.924 115.302 191.847 114.913C192.769 114.514 193.406 114.052 193.759 113.526C194.123 112.997 194.236 112.388 194.1 111.697C193.948 110.923 193.589 110.401 193.025 110.131C192.461 109.862 191.656 109.83 190.609 110.037C190.191 110.119 189.731 110.242 189.231 110.406C188.741 110.568 188.174 110.783 187.531 111.05C186.899 111.316 186.16 111.652 185.316 112.058L184.54 110.188C185.827 109.598 186.942 109.134 187.886 108.795C188.831 108.457 189.654 108.219 190.355 108.081C191.977 107.761 193.285 107.862 194.279 108.384C195.284 108.904 195.914 109.813 196.17 111.11C196.495 112.764 196.02 114.157 194.742 115.289C193.476 116.419 191.429 117.262 188.604 117.819L188.107 115.96ZM200.901 115.756C201.051 114.258 201.157 112.753 201.218 111.241C201.287 109.716 201.31 108.174 201.285 106.613C201.269 105.04 201.205 103.449 201.095 101.84L203.201 101.523C203.333 103.073 203.409 104.645 203.429 106.24C203.46 107.832 203.442 109.422 203.375 111.012C203.318 112.6 203.214 114.169 203.063 115.721L200.901 115.756ZM210.728 113.902C209.754 114.093 208.889 114.144 208.132 114.054C207.375 113.964 206.762 113.748 206.292 113.405C205.822 113.063 205.531 112.604 205.418 112.028C205.335 111.61 205.385 111.176 205.569 110.727C205.76 110.265 206.097 109.764 206.577 109.223L208.452 109.882C208.12 110.186 207.882 110.467 207.737 110.724C207.592 110.98 207.538 111.203 207.575 111.391C207.618 111.611 207.761 111.784 208.003 111.91C208.246 112.037 208.571 112.114 208.979 112.142C209.384 112.16 209.844 112.119 210.357 112.018C210.848 111.921 211.34 111.797 211.832 111.645C212.324 111.494 212.838 111.312 213.372 111.098L213.978 112.935C213.413 113.155 212.868 113.344 212.345 113.501C211.832 113.657 211.293 113.79 210.728 113.902ZM198.773 106.195L198.411 104.358L209.557 102.162L209.919 103.999L198.773 106.195ZM205.022 106.627C206.237 106.279 207.434 105.956 208.615 105.658C209.806 105.359 210.998 105.091 212.191 104.856L212.553 106.693C211.381 106.924 210.21 107.187 209.039 107.483C207.867 107.768 206.686 108.093 205.497 108.458L205.022 106.627ZM221.337 107.409L219.455 99.5116L222.061 98.9984L223.315 107.019L221.337 107.409ZM221.807 110.953L221.364 108.708L223.782 108.232L224.224 110.477L221.807 110.953Z" fill="#282828"/>
<path opacity="0.6" d="M70.6495 166.654C70.2204 164.476 70.7726 162.374 72.4068 160.425C72.4942 160.31 72.6145 160.237 72.7322 160.214C72.9559 160.17 73.2073 160.329 73.2513 160.552C73.2815 160.705 73.2435 160.823 73.1466 160.952C71.7364 162.734 71.3523 164.51 71.7326 166.441C72.113 168.372 73.1417 169.869 75.1224 170.983C75.261 171.066 75.3408 171.161 75.3709 171.314C75.415 171.537 75.2425 171.779 75.0188 171.823C74.901 171.846 74.7622 171.825 74.6377 171.752C72.3866 170.568 71.0785 168.832 70.6495 166.654ZM77.1959 164.496L77.867 164.364C78.8207 164.176 79.2295 163.582 79.0649 162.746C78.9304 162.063 78.2937 161.687 77.4342 161.857C76.9397 161.954 76.4657 162.28 76.1138 162.728C75.9885 162.9 75.866 162.96 75.7247 162.988C75.3715 163.058 75.0074 162.824 74.9355 162.459C74.9007 162.282 74.92 162.132 75.0286 162C75.4964 161.394 76.331 160.851 77.2023 160.679C78.9213 160.341 80.1664 161.074 80.4308 162.416C80.621 163.381 80.2776 164.122 79.4079 164.55C80.5184 164.661 81.3072 165.313 81.5043 166.314C81.836 167.998 80.7893 169.39 78.9526 169.752C77.9872 169.942 77.0273 169.85 76.3458 169.495C76.1273 169.379 76.0242 169.228 75.9801 169.004C75.9129 168.663 76.1185 168.341 76.4835 168.269C76.613 168.244 76.7237 168.246 76.8435 168.296C77.518 168.616 78.1203 168.693 78.7207 168.575C79.7568 168.371 80.2817 167.558 80.1031 166.651C79.9268 165.756 79.2033 165.312 78.1672 165.516L77.4255 165.662C77.084 165.729 76.8234 165.524 76.7561 165.182C76.6889 164.841 76.8544 164.564 77.1959 164.496ZM84.3937 159.263C86.1833 158.91 87.6229 159.948 88.2653 163.209C88.9077 166.47 87.969 167.976 86.1794 168.329C84.3897 168.681 82.9737 167.639 82.3313 164.378C81.6889 161.116 82.6041 159.615 84.3937 159.263ZM84.6256 160.44C83.6484 160.633 83.222 161.573 83.7206 164.104C84.2192 166.635 84.9702 167.344 85.9474 167.151C86.9364 166.956 87.3746 166.014 86.876 163.483C86.3774 160.951 85.6146 160.245 84.6256 160.44ZM91.8928 167.729L90.7982 162.172C90.6583 162.517 90.5044 162.854 90.3435 163.154C90.2275 163.373 90.0554 163.492 89.8788 163.527C89.5373 163.594 89.1638 163.374 89.0965 163.033C89.0687 162.892 89.088 162.741 89.1756 162.565C89.8784 161.228 90.3877 159.281 90.5479 157.61C90.5818 157.286 90.813 157.093 91.0838 157.04C91.437 156.97 91.8343 157.125 91.9085 157.501C91.9201 157.56 91.9223 157.633 91.9126 157.708C91.8275 158.642 91.5985 159.715 91.2966 160.728C91.5862 160.708 91.8659 160.824 91.9262 161.13L93.1761 167.476C93.2387 167.794 92.9533 168.022 92.6354 168.084C92.3057 168.149 91.9554 168.047 91.8928 167.729ZM95.6749 159.609L98.857 158.689L98.9041 158.68C99.222 158.617 99.4471 158.891 99.5074 159.197C99.5608 159.468 99.4823 159.752 99.1926 159.834L96.0575 160.745C96.4218 161.725 96.8522 162.606 97.3537 163.351C98.3215 164.787 98.9396 165.069 99.2928 165C99.4458 164.969 99.557 164.789 99.4887 164.007C99.4521 163.635 99.6904 163.417 99.973 163.361C100.291 163.299 100.676 163.455 100.755 163.855L100.771 163.938C100.929 165.607 100.414 166.222 99.6253 166.377C98.5892 166.581 97.3936 165.79 96.1635 163.953C95.6245 163.141 95.1566 162.194 94.7597 161.11L93.0709 161.602L93.0238 161.611C92.7059 161.674 92.4808 161.4 92.4228 161.106C92.3695 160.835 92.4597 160.548 92.7377 160.469L94.3912 159.984C94.1161 159.085 93.8742 158.105 93.6701 157.069C93.5982 156.704 93.8931 156.462 94.2228 156.397C94.5525 156.332 94.9169 156.444 94.9888 156.809C95.1859 157.81 95.4068 158.745 95.6749 159.609ZM96.5563 156.757C96.9206 156.93 97.2636 157.119 97.5596 157.318C97.731 157.443 97.8341 157.594 97.862 157.735C97.9292 158.077 97.6811 158.431 97.3514 158.496C97.2101 158.524 97.0431 158.484 96.8858 158.368C96.5829 158.134 96.2752 157.938 95.9344 157.76C95.77 157.67 95.6715 157.543 95.6437 157.402C95.5857 157.107 95.8103 156.757 96.14 156.692C96.2695 156.667 96.4083 156.688 96.5563 156.757ZM102.172 165.46L109.842 153.235C109.927 153.108 110.029 153.003 110.135 152.982C110.441 152.922 110.749 153.118 110.795 153.353C110.82 153.483 110.797 153.61 110.702 153.751L103.032 165.975C102.947 166.102 102.845 166.208 102.739 166.229C102.433 166.289 102.125 166.093 102.079 165.857C102.054 165.728 102.077 165.601 102.172 165.46ZM120.75 156.639L115.734 157.627C114.58 157.855 114.089 157.535 113.918 156.664L113.468 154.38C113.298 153.521 113.632 153.039 114.786 152.812L119.801 151.824C120.967 151.594 121.458 151.914 121.627 152.773L122.077 155.057C122.288 156.129 121.703 156.452 120.75 156.639ZM115.692 156.608L117.352 156.281L117.167 155.339L115.036 155.759L115.145 156.312C115.2 156.595 115.316 156.682 115.692 156.608ZM114.85 154.817L116.981 154.397L116.793 153.444L115.133 153.771C114.745 153.847 114.683 153.969 114.737 154.24L114.85 154.817ZM118.018 153.203L118.206 154.156L120.513 153.702L120.402 153.137C120.347 152.854 120.243 152.764 119.855 152.841L118.018 153.203ZM120.699 154.644L118.391 155.098L118.577 156.04L120.414 155.678C120.802 155.602 120.864 155.48 120.808 155.197L120.699 154.644ZM118.78 158.312L121.462 157.771C122.498 157.567 122.925 157.813 123.058 158.484C123.164 159.026 123.223 159.821 123.188 160.513C123.138 161.563 122.664 162.011 121.651 162.21C121.31 162.277 121.023 162.31 120.695 162.325C120.342 162.333 120.138 162.105 120.085 161.834C120.027 161.539 120.16 161.22 120.525 161.148L120.607 161.132C120.873 161.116 121.066 161.102 121.313 161.054C121.678 160.982 121.848 160.851 121.863 160.493C121.888 159.999 121.857 159.283 121.806 159.024C121.769 158.836 121.666 158.807 121.407 158.858L118.621 159.431C118.178 161.219 116.891 162.634 114.956 163.614C114.89 163.652 114.822 163.678 114.763 163.689C114.398 163.761 114.114 163.499 114.056 163.205C114.01 162.969 114.095 162.72 114.395 162.563C115.868 161.784 116.807 160.902 117.244 159.703L114.222 160.322C113.916 160.383 113.7 160.156 113.647 159.885C113.596 159.626 113.71 159.335 114.016 159.274L117.487 158.579C117.506 158.367 117.512 158.146 117.505 157.927C117.494 157.623 117.737 157.428 118.008 157.375C118.338 157.31 118.716 157.431 118.784 157.773C118.788 157.796 118.798 157.843 118.793 157.881C118.797 158.027 118.787 158.163 118.78 158.312ZM132.113 158.633L131.654 156.302L129.864 156.654C129.57 156.712 129.371 156.446 129.315 156.163C129.257 155.869 129.343 155.558 129.637 155.5L131.427 155.148L131.039 153.182L129.685 153.448C129.607 153.794 129.514 154.13 129.417 154.443C129.319 154.756 129.095 154.922 128.871 154.966C128.565 155.027 128.241 154.87 128.176 154.541C128.153 154.423 128.163 154.287 128.217 154.129C128.521 153.25 128.696 152.212 128.723 151.106C128.731 150.775 128.96 150.57 129.207 150.522C129.513 150.461 129.861 150.613 129.93 150.966C129.94 151.013 129.947 151.049 129.944 151.098C129.945 151.477 129.923 151.861 129.875 152.237L130.817 152.051L130.376 149.814C130.307 149.461 130.59 149.222 130.908 149.159C131.225 149.097 131.578 149.211 131.648 149.564L132.088 151.801L134.243 151.377C134.549 151.316 134.758 151.569 134.813 151.851C134.869 152.134 134.772 152.447 134.466 152.507L132.311 152.931L132.698 154.898L134.429 154.557C134.723 154.499 134.932 154.751 134.99 155.045C135.046 155.328 134.951 155.652 134.656 155.71L132.926 156.051L133.385 158.383L135.787 157.909C136.081 157.852 136.29 158.104 136.348 158.398C136.403 158.681 136.308 159.005 136.014 159.063L129.526 160.341C129.244 160.397 129.033 160.133 128.977 159.85C128.919 159.556 129.017 159.243 129.299 159.187L132.113 158.633ZM126.251 150.541L128.213 160.502C128.282 160.855 127.999 161.094 127.681 161.157C127.352 161.222 126.999 161.108 126.929 160.755L124.968 150.794C124.898 150.441 125.183 150.213 125.513 150.149C125.831 150.086 126.181 150.188 126.251 150.541ZM124.322 153.355C124.304 153.077 124.491 152.906 124.703 152.864C124.95 152.816 125.218 152.934 125.276 153.228L125.287 153.287C125.345 153.826 125.354 154.558 125.301 155.095C125.27 155.37 125.093 155.527 124.892 155.567C124.645 155.615 124.375 155.485 124.322 155.214C124.312 155.167 124.301 155.108 124.313 155.045C124.368 154.52 124.354 153.826 124.322 153.355ZM127.646 152.223C127.834 152.553 128.023 152.956 128.133 153.265L128.149 153.347C128.212 153.665 127.99 153.905 127.754 153.951C127.554 153.991 127.342 153.91 127.242 153.648C127.114 153.307 126.943 152.876 126.805 152.609C126.784 152.565 126.761 152.508 126.751 152.461C126.703 152.214 126.896 152.016 127.12 151.972C127.308 151.935 127.517 152.004 127.646 152.223ZM140.063 152.982C140.492 155.16 139.94 157.263 138.306 159.211C138.218 159.326 138.098 159.399 137.98 159.422C137.757 159.466 137.505 159.308 137.461 159.084C137.431 158.931 137.469 158.813 137.566 158.684C138.976 156.902 139.36 155.126 138.98 153.196C138.599 151.265 137.571 149.767 135.59 148.653C135.451 148.57 135.372 148.476 135.342 148.323C135.297 148.099 135.47 147.857 135.694 147.813C135.811 147.79 135.95 147.812 136.075 147.885C138.326 149.068 139.634 150.804 140.063 152.982Z" fill="#282828"/>
<path d="M228.216 199.381L211.507 175.153L191.602 179.074L228.216 199.381Z" fill="#FFF464"/>
</svg>
