<svg width="292" height="228" viewBox="0 0 292 228" fill="none" xmlns="http://www.w3.org/2000/svg">
<rect y="65.7964" width="254.218" height="152" rx="76" transform="rotate(-15 0 65.7964)" fill="#54B6CB"/>
<path d="M52.5066 97.5775L50.7348 90.9647L48.8551 91.4684L48.5072 90.1702L50.4004 89.6629L49.2445 85.3491L50.705 84.9577L51.8609 89.2716L53.5513 88.8186L53.8991 90.1168L52.2223 90.5661L53.9942 97.1789L52.5066 97.5775ZM50.6891 96.5281L49.5395 95.2128C49.8938 94.3352 50.1453 93.4707 50.294 92.6192C50.4517 91.7653 50.5128 90.8938 50.4775 90.0046L51.2993 90.2047C51.4072 90.9681 51.4562 91.728 51.4463 92.4843C51.434 93.2317 51.3612 93.9517 51.228 94.6445C51.1013 95.3258 50.9217 95.9537 50.6891 96.5281ZM54.049 93.9755C53.5564 93.3635 53.0606 92.7572 52.5615 92.1566C52.069 91.5445 51.5593 90.9226 51.0325 90.2907L51.8621 89.5466C52.3648 90.0883 52.8642 90.6357 53.3602 91.1888C53.8539 91.733 54.3454 92.2873 54.8349 92.8518L54.049 93.9755ZM49.0667 89.7159C48.807 89.2154 48.537 88.7128 48.2569 88.2081C47.9857 87.701 47.7266 87.239 47.4796 86.8221L48.6233 86.1678C48.8703 86.5847 49.1293 87.0467 49.4005 87.5538C49.6692 88.0519 49.9212 88.5593 50.1562 89.0761L49.0667 89.7159ZM54.9698 94.8158L54.465 93.4727L61.9674 89.8826L62.4723 91.2257L54.9698 94.8158ZM57.2752 91.3573C56.7716 91.0284 56.2328 90.6945 55.6589 90.3555C55.0825 90.0075 54.4791 89.6667 53.8486 89.3332L54.6452 88.0327C55.2732 88.3572 55.8787 88.6878 56.4617 89.0244C57.0447 89.361 57.5835 89.6949 58.0781 90.0262L57.2752 91.3573ZM53.0326 88.6677L51.7411 88.608C51.7729 88.0777 51.7783 87.5206 51.7571 86.9369C51.7426 86.3417 51.7061 85.791 51.6478 85.2849L52.9697 85.1336C53.0197 85.6806 53.051 86.2665 53.0638 86.8911C53.0742 87.5068 53.0637 88.099 53.0326 88.6677ZM60.5122 95.4324L57.2366 83.2076L58.8188 82.7837L62.0944 95.0084L60.5122 95.4324ZM57.0986 87.7232C56.6293 87.4141 56.1363 87.1066 55.6194 86.8006C55.1117 86.4922 54.5711 86.1877 53.9978 85.8872L54.8115 84.5966C55.3824 84.8881 55.9262 85.1869 56.443 85.4929C56.9574 85.7899 57.4481 86.0884 57.915 86.3884L57.0986 87.7232ZM67.4797 93.1451L67.1282 91.8334L71.0634 90.779L70.701 89.4267L67.5637 90.2673L67.234 89.0367L70.3713 88.1961L69.3241 84.2879L67.7149 84.7191L67.4177 83.6103L69.027 83.1791L68.6538 81.7862L70.263 81.355L70.6362 82.7479L72.2454 82.3167L71.8722 80.9238L67.0445 82.2174L68.4287 87.3832L66.9412 87.7817L65.2164 81.3448L73.0191 79.2541L74.7439 85.691L68.4287 87.3832L68.1062 86.1796L72.9339 84.886L72.5426 83.4256L70.9333 83.8568L71.9805 87.7649L75.2801 86.8808L75.6099 88.1114L72.3103 88.9955L72.6726 90.3478L76.1615 89.4129L76.513 90.7247L67.4797 93.1451ZM63.895 93.236L63.3767 91.8965C63.7558 91.6886 64.1505 91.4669 64.5609 91.2314C64.9778 90.9844 65.3879 90.7296 65.791 90.4669C66.2007 90.1929 66.5968 89.9225 66.9795 89.6557L67.3788 90.9836C67.0166 91.2546 66.6351 91.5259 66.2344 91.7975C65.8338 92.0691 65.434 92.326 65.035 92.5682C64.6361 92.8103 64.2561 93.033 63.895 93.236ZM64.5829 91.5298L63.6154 87.9192L62.6012 88.191L62.228 86.7981L63.2422 86.5263L62.5719 84.0246L61.4224 84.3326L61.0419 82.9127L64.9095 81.8764L65.29 83.2963L64.1135 83.6115L64.7838 86.1133L65.8792 85.8198L66.2524 87.2126L65.157 87.5061L66.1245 91.1168L64.5829 91.5298ZM84.2756 88.2678C83.302 88.5287 82.4822 88.5165 81.8163 88.2311C81.157 87.9343 80.7223 87.3937 80.5122 86.6094C80.2972 85.807 80.4022 85.117 80.8271 84.5393C81.2521 83.9616 81.9559 83.5412 82.9386 83.2778C83.3623 83.1643 83.787 83.1085 84.2126 83.1104C84.6359 83.1033 85.0944 83.1737 85.5882 83.3216C86.0819 83.4695 86.6519 83.7033 87.298 84.0229C87.9506 84.3312 88.7273 84.7415 89.6279 85.2538L88.9135 86.5903C88.0995 86.1127 87.4025 85.7294 86.8226 85.4403C86.2493 85.1397 85.7554 84.9194 85.341 84.7792C84.9266 84.639 84.5496 84.5661 84.2099 84.5605C83.8768 84.5435 83.548 84.5784 83.2234 84.6654C82.1776 84.9456 81.7562 85.4644 81.9591 86.2217C82.1596 86.9699 82.7827 87.204 83.8285 86.9237C84.3965 86.7716 84.7663 86.5469 84.9379 86.2497C85.116 85.941 85.1315 85.5117 84.9841 84.9618L82.7448 76.6046L84.3135 76.1843L86.5709 84.6091C86.8245 85.5557 86.7539 86.338 86.3591 86.9559C85.9708 87.5624 85.2763 87.9997 84.2756 88.2678ZM79.1359 81.311L78.77 79.9452L87.3706 77.6407L87.7366 79.0065L79.1359 81.311ZM78.7829 90.0005C78.2997 89.1347 77.8832 88.2656 77.5335 87.393C77.1837 86.5205 76.8736 85.5793 76.603 84.5696C76.3349 83.5689 76.1353 82.6078 76.0044 81.6863C75.871 80.7558 75.7926 79.7961 75.7692 78.8071L77.4192 78.5824C77.4372 79.5148 77.5104 80.4373 77.639 81.3498C77.7741 82.2508 77.9697 83.1792 78.2258 84.1348C78.4818 85.0904 78.7778 85.9967 79.1137 86.8536C79.4586 87.7081 79.854 88.5346 80.2999 89.3331L78.7829 90.0005ZM95.4062 84.7491L94.9243 82.9506L89.9884 84.2731L89.5862 82.7721L92.7611 74.8774L94.4514 74.4244L96.2124 80.9966L97.9299 80.5364L98.3321 82.0375L96.6146 82.4976L97.0966 84.2962L95.4062 84.7491ZM91.5002 82.2882L94.5564 81.4693L93.4838 77.4665L93.4568 77.4738L91.4929 82.2612L91.5002 82.2882ZM102.049 81.4907C103.816 81.0173 105.22 80.5058 106.262 79.9562C107.301 79.3976 108.006 78.7836 108.377 78.114C108.755 77.4329 108.829 76.6642 108.6 75.8077C108.344 74.8521 107.835 74.2154 107.073 73.8977C106.312 73.58 105.304 73.589 104.051 73.9248C103.583 74.0504 103.078 74.2241 102.539 74.446C101.999 74.6679 101.389 74.9521 100.709 75.2986C100.038 75.6427 99.2583 76.069 98.3703 76.5775L97.601 75.0589C98.9493 74.3208 100.121 73.7362 101.117 73.3051C102.119 72.8626 102.999 72.5399 103.756 72.337C104.91 72.0278 105.933 71.9325 106.825 72.0511C107.714 72.1606 108.452 72.4799 109.038 73.0089C109.624 73.5378 110.042 74.2666 110.291 75.1952C110.762 76.9532 110.347 78.4895 109.047 79.8041C107.747 81.1187 105.587 82.1806 102.567 82.9898L102.049 81.4907ZM120.194 77.0492C120.657 76.8671 121.058 76.6147 121.397 76.292C121.742 75.9579 122.013 75.581 122.21 75.1611C122.413 74.7298 122.536 74.267 122.577 73.7727C122.619 73.2785 122.569 72.7699 122.429 72.247C122.231 71.5078 121.887 70.9091 121.397 70.4509C120.905 69.9838 120.312 69.6836 119.62 69.5503C118.936 69.4147 118.193 69.4544 117.39 69.6693C116.705 69.8529 116.1 70.1359 115.574 70.5183C115.049 70.9007 114.615 71.3552 114.273 71.8816C113.937 72.3967 113.716 72.9585 113.608 73.567C113.498 74.1666 113.526 74.7729 113.69 75.3859C113.808 75.8277 113.994 76.232 114.247 76.5991C114.5 76.9661 114.77 77.2514 115.056 77.4548C115.349 77.6469 115.617 77.7103 115.861 77.6451C116.212 77.5509 116.465 77.1402 116.618 76.4132C116.771 75.6861 116.817 74.6881 116.757 73.419C116.704 72.1385 116.542 70.6311 116.27 68.8969L117.883 68.6389C118.133 70.3689 118.293 71.8672 118.362 73.1339C118.431 74.4006 118.406 75.4605 118.287 76.3138C118.167 77.1671 117.95 77.8341 117.634 78.3148C117.316 78.7865 116.896 79.0925 116.373 79.2326C115.94 79.3485 115.51 79.3478 115.082 79.2305C114.655 79.1132 114.254 78.8969 113.88 78.5817C113.505 78.2665 113.173 77.8725 112.882 77.3997C112.588 76.9179 112.362 76.3795 112.202 75.7845C111.975 74.937 111.924 74.1149 112.049 73.3182C112.171 72.5124 112.446 71.772 112.874 71.0969C113.302 70.4219 113.865 69.8362 114.563 69.34C115.267 68.8323 116.084 68.4541 117.013 68.2052C118.103 67.913 119.124 67.8618 120.073 68.0519C121.032 68.2395 121.853 68.6525 122.536 69.2907C123.219 69.929 123.702 70.7755 123.984 71.8303C124.175 72.5425 124.245 73.2342 124.193 73.9052C124.149 74.5738 123.998 75.1989 123.738 75.7806C123.476 76.3533 123.115 76.8608 122.654 77.3033C122.192 77.7457 121.644 78.0957 121.007 78.3532L120.194 77.0492ZM127.092 76.6649L126.7 75.2044L131.69 73.8673L129.661 66.2945L125.077 67.5228L124.685 66.0624L135.558 63.1491L135.949 64.6096L131.365 65.8379L133.394 73.4108L138.384 72.0737L138.775 73.5342L127.092 76.6649ZM144.271 72.569L143.912 71.2302L147.536 70.2591L147.217 69.0691L144.432 69.8155L144.113 68.6255L146.899 67.8791L146.601 66.7702L143.518 67.5964L143.181 66.3387L151.092 64.219L151.429 65.4766L148.224 66.3354L148.521 67.4443L151.429 66.6652L151.748 67.8552L148.84 68.6343L149.159 69.8243L152.567 68.9112L152.926 70.25L144.271 72.569ZM140.418 71.8765L139.254 70.5071C139.545 69.4631 139.727 68.4865 139.803 67.5774C139.876 66.6592 139.845 65.7881 139.711 64.964L140.559 65.6934C140.759 67.0892 140.841 68.2798 140.806 69.2653C140.77 70.2507 140.641 71.1211 140.418 71.8765ZM141.942 73.6134L139.938 66.1352L138.478 66.5265L138.115 65.1742L139.576 64.7829L138.952 62.4569L140.44 62.0584L141.063 64.3843L142.51 63.9966L142.873 65.3489L141.426 65.7366L143.429 73.2148L141.942 73.6134ZM143.173 69.2832C142.738 68.7426 142.289 68.2011 141.825 67.6588C141.367 67.105 140.889 66.5471 140.391 65.9849L140.983 65.0581C141.547 65.6508 142.08 66.2135 142.58 66.7462C143.089 67.2764 143.569 67.7857 144.019 68.2739L143.173 69.2832ZM137.979 63.7468L137.503 62.5119C138.172 62.2652 138.835 61.9812 139.493 61.66C140.16 61.3363 140.78 61.001 141.354 60.654L142.045 61.7733C141.555 62.1075 140.959 62.4458 140.259 62.7881C139.567 63.1281 138.807 63.4476 137.979 63.7468ZM143.286 65.4846L142.057 60.9003L149.265 58.969L150.493 63.5533L144.868 65.0606L144.542 63.8436L148.599 62.7565L148.055 60.7281L143.998 61.8151L144.868 65.0606L143.286 65.4846ZM162.104 67.5588C161.013 67.8511 160.01 67.9121 159.095 67.7418C158.191 67.5782 157.425 67.2085 156.797 66.6326C156.167 66.0478 155.725 65.2821 155.472 64.3355C155.273 63.5962 155.221 62.876 155.313 62.1749C155.414 61.4714 155.646 60.82 156.007 60.2207C156.375 59.6101 156.863 59.0879 157.471 58.6543L157.719 59.0373L151.322 60.9108L150.934 59.4639L162.261 56.1388L162.649 57.5858L160.943 58.0865C160.226 58.2978 159.59 58.5938 159.035 58.9744C158.487 59.3436 158.043 59.7767 157.702 60.2737C157.371 60.7683 157.154 61.3097 157.05 61.8978C156.945 62.4769 156.976 63.082 157.145 63.713C157.329 64.3982 157.637 64.9534 158.07 65.3785C158.5 65.7946 159.022 66.0654 159.636 66.191C160.258 66.3141 160.952 66.273 161.719 66.0676C161.881 66.0241 162.06 65.9713 162.256 65.9092C162.459 65.8356 162.661 65.762 162.864 65.6884C163.073 65.6034 163.255 65.5256 163.41 65.4551L163.984 66.8955C163.802 66.9733 163.601 67.0514 163.38 67.1298C163.162 67.2172 162.942 67.2956 162.719 67.365C162.498 67.4435 162.293 67.508 162.104 67.5588ZM162.353 62.97C162.022 62.5658 161.679 62.1889 161.325 61.8395C160.977 61.4786 160.591 61.1183 160.166 60.7587L161.168 59.7943C161.593 60.1539 161.985 60.5175 162.345 60.885C162.702 61.2435 163.052 61.6327 163.397 62.0525L162.353 62.97ZM164.202 61.6484C163.878 61.2328 163.543 60.849 163.197 60.4971C162.858 60.1338 162.481 59.7711 162.065 59.4091L163.075 58.4718C163.493 58.8428 163.878 59.2133 164.228 59.5832C164.587 59.9508 164.931 60.3514 165.26 60.785L164.202 61.6484ZM168.477 66.4599L166.96 65.3444C167.035 64.9764 167.093 64.6132 167.132 64.2548C167.171 63.8964 167.183 63.5261 167.168 63.1437C167.161 62.7589 167.129 62.352 167.072 61.9228C167.015 61.4936 166.926 61.0151 166.804 60.4874C166.691 59.9573 166.548 59.3721 166.377 58.7321L165.525 55.5542L176.655 52.572L177.013 53.9108L167.453 56.4726L168.246 59.4341C168.505 60.3988 168.685 61.2878 168.787 62.1011C168.889 62.9144 168.914 63.6758 168.863 64.3853C168.811 65.0948 168.683 65.7863 168.477 66.4599ZM171.411 63.0214C171.239 63.0673 170.989 63.1247 170.66 63.1936C170.33 63.2626 169.958 63.3334 169.542 63.406L169.029 62.1378C169.327 62.0965 169.609 62.0499 169.875 61.9979C170.148 61.9344 170.343 61.887 170.46 61.8556C170.587 61.8218 170.688 61.785 170.764 61.7452C170.838 61.6964 170.884 61.6164 170.903 61.5051C170.921 61.3939 170.911 61.2277 170.871 61.0065C170.84 60.7829 170.777 60.476 170.682 60.0859C170.587 59.6959 170.46 59.2033 170.301 58.6083L167.691 59.3076L167.35 58.0365L171.42 56.9458C171.713 58.0367 171.945 58.9406 172.118 59.6577C172.288 60.3657 172.396 60.931 172.442 61.3536C172.485 61.7672 172.478 62.0831 172.421 62.3014C172.361 62.5107 172.243 62.6678 172.069 62.7726C171.9 62.866 171.681 62.9489 171.411 63.0214ZM172.269 65.1974L171.218 64.0876C172.106 63.4727 172.856 62.7356 173.466 61.8763C174.086 61.0147 174.545 60.0413 174.843 58.9564C175.151 57.869 175.282 56.6794 175.235 55.3874L176.777 55.409C176.832 56.805 176.682 58.1206 176.327 59.3559C175.979 60.5798 175.46 61.69 174.77 62.6864C174.087 63.6714 173.254 64.5084 172.269 65.1974ZM178.34 63.7301C178.015 63.817 177.611 63.7661 177.125 63.5773C176.649 63.3861 176.121 63.0395 175.542 62.5376C174.972 62.0333 174.387 61.3447 173.786 60.4718C173.185 59.599 172.597 58.5244 172.023 57.2481C171.458 55.9694 170.944 54.4646 170.48 52.7337L172.008 52.3242C172.404 53.8027 172.837 55.0927 173.306 56.1942C173.782 57.2842 174.254 58.2011 174.724 58.9448C175.194 59.6886 175.63 60.2868 176.031 60.7397C176.44 61.1811 176.786 61.499 177.07 61.6935C177.351 61.8789 177.537 61.9595 177.627 61.9354C177.699 61.9161 177.751 61.8393 177.783 61.7052C177.821 61.5597 177.833 61.315 177.818 60.9711C177.801 60.6182 177.739 60.1178 177.633 59.4698L179.168 59.624C179.29 60.2966 179.354 60.8785 179.36 61.3697C179.375 61.8584 179.34 62.2688 179.255 62.6008C179.17 62.9328 179.045 63.1884 178.881 63.3678C178.719 63.5561 178.538 63.6769 178.34 63.7301ZM175.293 53.6036C174.885 53.4135 174.46 53.2327 174.017 53.0613C173.584 52.8875 173.168 52.7382 172.767 52.6137L173.474 51.4675C173.893 51.5873 174.316 51.7398 174.742 51.925C175.175 52.0989 175.6 52.2796 176.018 52.4673L175.293 53.6036ZM182.825 60.4556C184.565 59.9894 185.927 59.465 186.911 58.8824C187.905 58.2975 188.551 57.6074 188.85 56.8122C189.155 56.0056 189.166 55.0704 188.881 54.0066C188.591 52.9248 188.145 52.1795 187.542 51.7708C186.947 51.3507 186.18 51.2662 185.242 51.5175C184.72 51.6576 184.251 51.8749 183.837 52.1694C183.432 52.4614 183.101 52.8111 182.843 53.2185C182.585 53.6258 182.41 54.0736 182.319 54.5619C182.236 55.0478 182.265 55.5522 182.405 56.075L182.88 57.8466L181.311 58.2669L179.405 51.1538L180.974 50.7335L181.746 53.6139L181.137 53.7769C181.312 53.131 181.568 52.555 181.906 52.049C182.253 51.5406 182.684 51.1111 183.199 50.7606C183.72 50.3986 184.319 50.1271 184.995 49.9459C186.375 49.5763 187.539 49.7039 188.489 50.3286C189.446 50.9419 190.131 52.0193 190.544 53.561C190.916 54.9493 190.905 56.1698 190.51 57.2224C190.125 58.2726 189.339 59.1789 188.152 59.9415C186.967 60.7131 185.352 61.373 183.305 61.9214L182.825 60.4556ZM55.0389 112.708L54.6693 111.328L59.6187 110.002L59.1911 108.406L60.8409 107.964L61.2685 109.56L66.2179 108.234L66.5875 109.613L55.0389 112.708ZM57.1635 121.719L56.7831 120.299L68.8726 117.059L69.2531 118.479L57.1635 121.719ZM59.9556 118.724C59.5078 117.81 59.026 116.896 58.5103 115.981C58.0012 115.054 57.487 114.163 56.9677 113.307L58.4521 112.518C58.9828 113.38 59.5006 114.285 60.0055 115.232C60.5171 116.168 60.998 117.097 61.4482 118.02L59.9556 118.724ZM64.8554 118.89L63.2256 118.703C63.4605 117.597 63.619 116.385 63.701 115.068C63.783 113.751 63.7808 112.409 63.6944 111.041L65.4077 110.944C65.4924 112.342 65.4874 113.729 65.3929 115.108C65.3049 116.474 65.1258 117.735 64.8554 118.89ZM73.4832 115.172C74.8445 114.807 75.9247 114.421 76.7238 114.014C77.5295 113.595 78.0776 113.134 78.368 112.631C78.6584 112.128 78.7202 111.566 78.5535 110.943C78.3675 110.249 77.9987 109.792 77.4472 109.573C76.9046 109.351 76.169 109.365 75.2405 109.614C74.8708 109.713 74.4736 109.853 74.0488 110.034C73.6215 110.207 73.1351 110.429 72.5895 110.701C72.053 110.97 71.4326 111.305 70.7285 111.707L70.008 110.262C71.0805 109.685 72.019 109.221 72.8236 108.87C73.6258 108.51 74.3289 108.249 74.9329 108.087C76.3123 107.718 77.4513 107.731 78.35 108.128C79.2487 108.525 79.8466 109.278 80.1437 110.387C80.5205 111.793 80.188 113.023 79.1462 114.075C78.1133 115.125 76.3889 115.973 73.9728 116.62L73.4832 115.172ZM92.7746 111.872C91.6837 112.165 90.6831 112.235 89.7726 112.083C88.8712 111.928 88.1091 111.572 87.4862 111.014C86.8608 110.447 86.4249 109.704 86.1786 108.784C85.9853 108.063 85.9385 107.366 86.0381 106.691C86.1443 106.006 86.3792 105.368 86.7428 104.778C87.113 104.176 87.6036 103.663 88.2145 103.238L88.4621 103.621L82.065 105.495L81.6773 104.048L93.0047 100.723L93.3924 102.17L91.6859 102.671C90.9875 102.877 90.3629 103.16 89.812 103.521C89.2701 103.878 88.8233 104.302 88.4716 104.793C88.1199 105.283 87.8854 105.815 87.7683 106.387C87.6577 106.948 87.6858 107.54 87.8525 108.162C88.0312 108.829 88.3346 109.366 88.7625 109.773C89.1881 110.171 89.7051 110.424 90.3137 110.532C90.9313 110.637 91.6232 110.587 92.3895 110.381C92.6419 110.314 92.9268 110.223 93.2441 110.109C93.5704 109.992 93.8492 109.879 94.0806 109.769L94.655 111.209C94.3785 111.332 94.0682 111.453 93.7238 111.575C93.3885 111.693 93.0721 111.793 92.7746 111.872ZM101.252 109.485C100.792 109.608 100.331 109.582 99.868 109.406C99.4031 109.222 98.9575 108.911 98.5313 108.475C98.1051 108.038 97.7179 107.495 97.3696 106.844C97.0279 106.182 96.7484 105.445 96.531 104.634C96.3546 103.975 96.2227 103.267 96.1352 102.508C96.0544 101.737 96.0224 100.914 96.0394 100.04L97.6723 99.8056C97.6655 100.609 97.6985 101.364 97.7715 102.069C97.8445 102.774 97.9607 103.424 98.1202 104.019C98.2723 104.587 98.4612 105.112 98.6866 105.592C98.912 106.073 99.1521 106.482 99.4068 106.82C99.6705 107.155 99.9306 107.404 100.187 107.567C100.452 107.728 100.698 107.778 100.923 107.718C101.139 107.66 101.35 107.507 101.554 107.259C101.764 107 101.963 106.676 102.149 106.288C102.335 105.9 102.49 105.472 102.616 105.003C102.751 104.532 102.84 104.054 102.884 103.569L104.527 103.912C104.465 104.585 104.339 105.232 104.148 105.854C103.957 106.475 103.713 107.043 103.416 107.557C103.126 108.06 102.793 108.478 102.419 108.81C102.046 109.151 101.657 109.376 101.252 109.485ZM107.689 106.354C107.413 105.327 107.067 104.323 106.65 103.343C106.241 102.36 105.777 101.436 105.255 100.571C104.742 99.7037 104.196 98.9273 103.616 98.242L104.998 97.3935C105.632 98.1028 106.215 98.908 106.746 99.8092C107.284 100.699 107.769 101.661 108.201 102.695C108.639 103.718 109.009 104.793 109.311 105.92L107.689 106.354ZM117.007 105.756C115.673 106.114 114.578 106.175 113.723 105.94C112.877 105.703 112.349 105.193 112.139 104.408C111.96 103.741 112.096 103.149 112.547 102.632C113.004 102.104 113.72 101.709 114.693 101.448C115.613 101.202 116.349 101.188 116.9 101.408C117.449 101.618 117.814 102.061 117.996 102.737C118.061 102.981 118.095 103.252 118.098 103.551C118.109 103.847 118.092 104.161 118.046 104.492L116.515 104.729C116.559 104.388 116.579 104.103 116.575 103.872C116.58 103.639 116.561 103.441 116.517 103.279C116.353 102.665 115.82 102.48 114.919 102.721C114.459 102.845 114.119 103.018 113.898 103.241C113.685 103.453 113.615 103.699 113.69 103.978C113.791 104.357 114.093 104.6 114.595 104.707C115.095 104.805 115.724 104.752 116.481 104.549C117.932 104.16 118.953 103.66 119.543 103.048C120.139 102.424 120.319 101.671 120.082 100.787C119.881 100.039 119.455 99.5637 118.801 99.3619C118.157 99.1577 117.231 99.2174 116.023 99.5411C115.329 99.7271 114.733 99.9545 114.235 100.223C113.734 100.483 113.292 100.799 112.909 101.173L111.4 102.679L110.417 101.608L116.953 95.2771L117.022 95.534L110.139 97.3784L109.773 96.0125L119.023 93.5341L119.389 94.8999L113.764 100.306L112.741 99.8408C112.994 99.6668 113.281 99.4933 113.601 99.3203C113.929 99.136 114.266 98.9684 114.612 98.8177C114.965 98.6556 115.307 98.5106 115.64 98.3827C115.971 98.2458 116.276 98.14 116.555 98.0651C117.926 97.6979 119.053 97.705 119.938 98.0863C120.823 98.4676 121.408 99.1901 121.693 100.254C122.033 101.525 121.795 102.637 120.978 103.591C120.17 104.542 118.846 105.263 117.007 105.756ZM130.822 101.924C129.136 102.376 127.786 102.457 126.771 102.169C125.754 101.871 125.109 101.213 124.837 100.194C124.607 99.3378 124.718 98.4722 125.17 97.5975C125.619 96.7138 126.439 95.7888 127.629 94.8224C128.829 93.8536 130.424 92.8125 132.416 91.6991L133.182 93.0446C131.494 93.9899 130.127 94.8585 129.083 95.6503C128.048 96.4398 127.319 97.1618 126.895 97.8164C126.478 98.4596 126.346 99.0652 126.498 99.6332C126.812 100.805 128.154 101.073 130.525 100.438C130.913 100.334 131.314 100.208 131.728 100.058C132.142 99.9084 132.602 99.732 133.108 99.5288C133.621 99.3141 134.201 99.0621 134.848 98.7727L135.428 100.183C134.611 100.556 133.811 100.891 133.031 101.187C132.262 101.49 131.525 101.736 130.822 101.924ZM126.633 96.5677C126.135 95.7543 125.682 94.948 125.275 94.1489C124.865 93.3407 124.494 92.5319 124.161 91.7225L125.732 91.0406C126.074 91.8477 126.447 92.6462 126.852 93.4363C127.255 94.2174 127.692 94.9844 128.164 95.7371L126.633 96.5677ZM139.239 100.017L137.973 99.0224C138.452 98.4303 138.82 97.7856 139.078 97.0885C139.345 96.389 139.488 95.6451 139.509 94.8569C139.539 94.0662 139.436 93.2337 139.202 92.3592L138.521 89.8169L137.128 90.1901L136.766 88.8378L141.364 87.6058L141.726 88.9581L140.103 89.3929L140.784 91.9353C140.982 92.6745 141.087 93.4244 141.097 94.1849C141.117 94.943 141.055 95.6844 140.911 96.409C140.766 97.1337 140.555 97.804 140.275 98.42C139.996 99.0359 139.651 99.5681 139.239 100.017ZM143.319 98.0394C142.738 97.4605 142.138 96.8774 141.516 96.2902C140.904 95.7005 140.279 95.1145 139.639 94.5321L140.675 93.5298C141.351 94.1026 141.991 94.6702 142.596 95.2329C143.209 95.793 143.789 96.3334 144.334 96.854L143.319 98.0394ZM136.768 94.4174L136.395 93.0245L142.629 91.3541L143.002 92.7469L136.768 94.4174ZM137.468 92.4325L136.029 92.253C136.155 91.5717 136.24 90.8242 136.283 90.0108C136.326 89.1973 136.318 88.3733 136.258 87.5389L137.696 87.3857C137.778 88.2718 137.801 89.1498 137.764 90.0198C137.724 90.8808 137.625 91.685 137.468 92.4325ZM144.849 98.3973L141.849 87.2003L147.339 85.7292L150.34 96.9262L148.785 97.3429L148.574 96.5586L146.154 97.2072L145.791 95.8549L148.212 95.2063L146.158 87.5388L143.737 88.1874L146.364 97.9915L144.849 98.3973ZM153.56 94.179C155.3 93.7128 156.662 93.1884 157.646 92.6059C158.64 92.0209 159.286 91.3308 159.585 90.5357C159.89 89.7291 159.901 88.7939 159.616 87.7301C159.326 86.6482 158.88 85.903 158.277 85.4943C157.682 85.0741 156.915 84.9897 155.977 85.2409C155.454 85.381 154.986 85.5983 154.572 85.8928C154.167 86.1849 153.836 86.5346 153.578 86.9419C153.32 87.3492 153.145 87.797 153.054 88.2853C152.971 88.7712 153 89.2756 153.14 89.7985L153.615 91.57L152.046 91.9903L150.14 84.8772L151.709 84.4569L152.481 87.3373L151.872 87.5004C152.047 86.8545 152.303 86.2785 152.641 85.7725C152.988 85.264 153.419 84.8345 153.934 84.484C154.455 84.1221 155.054 83.8505 155.73 83.6693C157.11 83.2997 158.274 83.4273 159.224 84.052C160.181 84.6653 160.866 85.7428 161.279 87.2844C161.651 88.6727 161.64 89.8932 161.245 90.9458C160.86 91.996 160.074 92.9024 158.887 93.6649C157.702 94.4365 156.087 95.0965 154.04 95.6448L153.56 94.179ZM168.425 92.2106C167.863 91.7718 167.279 91.3775 166.674 91.0277C166.065 90.6689 165.426 90.357 164.756 90.0921L165.568 88.6861C166.243 88.9691 166.901 89.2998 167.544 89.6784C168.184 90.048 168.799 90.4678 169.389 90.9379L168.425 92.2106ZM179.863 89.1893L176.729 77.492L187.006 74.7381L190.141 86.4355L188.518 86.8703L188.34 86.2077L181.308 88.0919L180.961 86.7937L187.992 84.9095L187.474 82.9757L180.442 84.8599L180.095 83.5617L187.126 81.6775L186.608 79.7437L179.576 81.6279L179.225 80.3162L186.257 78.432L185.742 76.5117L178.71 78.3959L181.486 88.7545L179.863 89.1893ZM198.703 83.286C198.478 83.3464 198.181 83.3922 197.812 83.4233C197.446 83.4634 197.056 83.4858 196.642 83.4905C196.225 83.4862 195.829 83.4668 195.452 83.4324L195.452 81.9687C195.764 81.9816 196.077 81.9944 196.389 82.0073C196.709 82.0087 196.997 82.0039 197.255 81.9927C197.52 81.9702 197.724 81.9396 197.868 81.9009C198.157 81.8236 198.361 81.6289 198.48 81.3167C198.597 80.9955 198.624 80.5389 198.562 79.9467C198.507 79.3432 198.358 78.5907 198.117 77.6891C197.977 77.1662 197.842 76.7531 197.712 76.4496C197.589 76.1347 197.452 75.9106 197.3 75.7773C197.148 75.6441 196.953 75.5806 196.713 75.5869C196.473 75.5932 196.164 75.647 195.785 75.7485L190.024 77.2921L189.647 75.8857L195.246 74.3856C195.877 74.2165 196.407 74.1034 196.836 74.0464C197.263 73.9804 197.622 73.9856 197.913 74.0622C198.204 74.1389 198.453 74.309 198.659 74.5727C198.871 74.8249 199.061 75.1896 199.227 75.6668C199.4 76.1325 199.583 76.726 199.777 77.4473C200.091 78.6192 200.26 79.6125 200.285 80.4272C200.319 81.2394 200.207 81.8831 199.948 82.3584C199.686 82.8246 199.271 83.1338 198.703 83.286ZM192.226 84.862C192.331 83.9162 192.417 83.0476 192.485 82.2564C192.551 81.4561 192.598 80.6946 192.626 79.9719C192.664 79.2468 192.677 78.5187 192.664 77.7876C192.661 77.0542 192.632 76.2792 192.578 75.4628C192.523 74.6465 192.447 73.7489 192.349 72.7703L193.965 72.5258C194.062 73.4659 194.139 74.3487 194.196 75.1741C194.251 75.9905 194.28 76.7847 194.284 77.5566C194.294 78.3172 194.282 79.0837 194.248 79.8563C194.222 80.6265 194.171 81.4277 194.095 82.2599C194.027 83.0896 193.938 83.9831 193.827 84.9404L192.226 84.862ZM202.567 79.4243C202.341 78.9051 202.079 78.3571 201.779 77.7803C201.48 77.2035 201.161 76.627 200.823 76.0509C200.485 75.4747 200.144 74.9235 199.8 74.3973C199.454 73.862 199.116 73.3775 198.787 72.9438L200.186 72.1053C200.529 72.5546 200.873 73.0469 201.219 73.5821C201.566 74.1174 201.908 74.6731 202.246 75.2493C202.584 75.8254 202.904 76.4064 203.206 76.9922C203.505 77.569 203.775 78.1248 204.015 78.6596L202.567 79.4243ZM211.807 79.9922C211.32 80.1227 210.787 80.2414 210.207 80.3485C209.638 80.4623 209.078 80.5543 208.527 80.6247C207.985 80.6927 207.49 80.7384 207.042 80.7618L206.814 79.3155C207.361 79.2656 207.91 79.2054 208.461 79.135C209.022 79.0622 209.556 78.9819 210.064 78.8941C210.569 78.7973 211.025 78.6945 211.43 78.5858C212.711 78.2428 213.629 77.7938 214.186 77.2388C214.742 76.6838 214.922 76.0367 214.724 75.2975C214.559 74.6844 214.205 74.2817 213.661 74.0894C213.114 73.888 212.408 73.9033 211.542 74.1352C210.956 74.2922 210.384 74.5181 209.825 74.8127C209.266 75.1074 208.755 75.4522 208.291 75.8472C207.826 76.2421 207.433 76.6664 207.11 77.1201L205.587 77.2239C205.549 76.6155 205.511 76.0558 205.47 75.5448C205.428 75.0248 205.38 74.54 205.327 74.0903C205.272 73.6317 205.211 73.189 205.145 72.7622L206.746 72.4636C206.825 72.9739 206.895 73.5059 206.957 74.0595C207.024 74.6018 207.076 75.1533 207.11 75.7142L206.779 75.3971C207.183 74.9602 207.621 74.5725 208.09 74.234C208.558 73.8866 209.052 73.5851 209.573 73.3295C210.103 73.0716 210.665 72.8629 211.26 72.7035C212.64 72.3339 213.759 72.3286 214.619 72.6877C215.478 73.0468 216.052 73.7628 216.339 74.8356C216.665 76.0527 216.447 77.0966 215.685 77.9675C214.921 78.8293 213.628 79.5043 211.807 79.9922ZM213.303 69.7791C212.458 70.0152 211.645 70.2281 210.865 70.4178C210.083 70.5985 209.295 70.7612 208.503 70.9058C207.72 71.048 206.899 71.1762 206.041 71.2902L205.826 69.8404C206.616 69.7252 207.412 69.5941 208.214 69.447C209.012 69.291 209.804 69.1271 210.589 68.9554C211.372 68.7747 212.151 68.5805 212.926 68.3727L213.303 69.7791ZM65.5908 143.487C66.8956 143.128 67.9882 142.734 68.8684 142.305C69.7553 141.864 70.4455 141.375 70.9391 140.837C71.4302 140.29 71.7346 139.677 71.8522 138.998C71.9698 138.319 71.9175 137.565 71.6953 136.735L71.2134 134.937L63.6676 136.959L64.5589 140.285L62.9497 140.717L61.6779 135.97L66.181 134.763L65.6302 132.708L67.2259 132.28L67.7767 134.336L72.4692 133.078L73.3316 136.297C73.7036 137.685 73.6984 138.928 73.3162 140.026C72.9315 141.115 72.1517 142.063 70.9767 142.87C69.8107 143.676 68.2396 144.357 66.2635 144.916L65.5908 143.487ZM77.6165 141.903L74.8409 131.544L85.9027 128.58L88.6783 138.939L87.042 139.377L86.7884 138.431L79.0127 140.514L79.2663 141.461L77.6165 141.903ZM78.625 139.067L86.4007 136.984L84.6541 130.466L76.8784 132.549L78.625 139.067ZM100.209 135.994L99.9554 135.048L91.0843 137.425L90.6966 135.978L99.5677 133.601L97.7487 126.812L88.8776 129.189L88.4899 127.742L99.0378 124.916L101.886 135.545L100.209 135.994ZM112.263 132.677C111.172 132.97 110.169 133.031 109.254 132.86C108.35 132.697 107.585 132.327 106.957 131.751C106.327 131.166 105.885 130.401 105.631 129.454C105.433 128.715 105.38 127.995 105.472 127.293C105.574 126.59 105.805 125.939 106.166 125.339C106.534 124.729 107.022 124.206 107.631 123.773L107.878 124.156L101.481 126.029L101.094 124.582L112.421 121.257L112.809 122.704L111.102 123.205C110.386 123.416 109.75 123.712 109.195 124.093C108.646 124.462 108.202 124.895 107.862 125.392C107.531 125.887 107.313 126.428 107.21 127.016C107.104 127.595 107.136 128.2 107.305 128.832C107.489 129.517 107.797 130.072 108.23 130.497C108.66 130.913 109.182 131.184 109.795 131.309C110.418 131.433 111.112 131.391 111.878 131.186C112.041 131.143 112.22 131.09 112.416 131.028C112.618 130.954 112.821 130.881 113.023 130.807C113.232 130.722 113.414 130.644 113.569 130.574L114.144 132.014C113.962 132.092 113.76 132.17 113.54 132.248C113.322 132.336 113.101 132.414 112.878 132.484C112.658 132.562 112.453 132.627 112.263 132.677ZM112.512 128.089C112.182 127.684 111.839 127.307 111.485 126.958C111.137 126.597 110.75 126.237 110.325 125.877L111.328 124.913C111.753 125.272 112.145 125.636 112.504 126.004C112.861 126.362 113.212 126.751 113.556 127.171L112.512 128.089ZM114.361 126.767C114.037 126.351 113.702 125.968 113.357 125.616C113.018 125.252 112.641 124.89 112.225 124.528L113.235 123.59C113.653 123.961 114.037 124.332 114.387 124.702C114.747 125.069 115.091 125.47 115.42 125.904L114.361 126.767ZM123.505 129.737C122.478 130.013 121.591 130.076 120.846 129.928C120.113 129.787 119.499 129.424 119.004 128.842C118.519 128.257 118.136 127.442 117.856 126.396L116.091 119.81L117.741 119.368L119.506 125.954C119.789 127.008 120.215 127.716 120.785 128.075C121.352 128.425 122.122 128.47 123.096 128.209C123.808 128.018 124.4 127.72 124.871 127.314C125.351 126.905 125.733 126.348 126.018 125.644C126.309 124.928 126.53 124.023 126.682 122.929L128.346 123.136C128.227 124.134 128.044 125.004 127.799 125.746C127.56 126.477 127.25 127.106 126.869 127.633C126.496 128.149 126.031 128.578 125.475 128.92C124.919 129.262 124.263 129.535 123.505 129.737ZM131.651 127.41C131.703 126.091 131.715 124.765 131.686 123.429C131.663 122.083 131.595 120.729 131.481 119.368C131.375 117.995 131.229 116.624 131.045 115.252L132.673 114.889C132.867 116.228 133.02 117.593 133.132 118.983C133.253 120.371 133.331 121.761 133.365 123.153C133.398 124.536 133.388 125.906 133.336 127.263L131.651 127.41ZM140.038 125.177C139.218 125.397 138.479 125.488 137.822 125.452C137.167 125.425 136.627 125.284 136.202 125.031C135.774 124.769 135.495 124.394 135.365 123.907C135.268 123.547 135.294 123.158 135.444 122.741C135.593 122.324 135.869 121.859 136.272 121.345L137.721 121.885C137.437 122.193 137.234 122.464 137.114 122.7C137 122.923 136.967 123.125 137.015 123.306C137.071 123.513 137.215 123.673 137.448 123.784C137.687 123.884 137.995 123.932 138.37 123.928C138.755 123.922 139.182 123.856 139.651 123.73C140.075 123.616 140.501 123.478 140.931 123.315C141.361 123.151 141.802 122.96 142.256 122.742L142.819 124.142C142.348 124.365 141.888 124.561 141.44 124.729C140.993 124.897 140.525 125.047 140.038 125.177ZM129.211 119.063L128.834 117.657L138.354 115.106L138.731 116.512L129.211 119.063ZM134.678 119.236C135.715 118.852 136.736 118.496 137.74 118.169C138.754 117.84 139.774 117.537 140.802 117.262L141.182 118.682C140.173 118.952 139.166 119.251 138.161 119.578C137.164 119.894 136.162 120.249 135.157 120.644L134.678 119.236Z" fill="#282828"/>
<path opacity="0.6" d="M69.9794 167.593C69.4048 165.449 69.8374 163.308 71.1978 161.291C71.2773 161.17 71.3924 161.09 71.5083 161.059C71.7285 161 71.9899 161.141 72.0489 161.361C72.0893 161.512 72.0593 161.632 71.9714 161.767C70.8233 163.603 70.5364 165.406 71.0458 167.307C71.5551 169.208 72.7055 170.627 74.6175 171.643C74.7614 171.716 74.8473 171.805 74.8877 171.955C74.9467 172.176 74.7908 172.428 74.5706 172.487C74.4547 172.519 74.3148 172.506 74.1856 172.442C71.9991 171.375 70.554 169.737 69.9794 167.593ZM80.0997 163.44L81.4011 168.297C81.7148 169.468 81.2563 170.075 80.2479 170.345C79.9813 170.417 79.6768 170.486 79.3368 170.515C78.9472 170.545 78.6957 170.301 78.6149 170C78.5218 169.652 78.6604 169.242 79.0777 169.131C79.1125 169.121 79.1588 169.109 79.2083 169.108C79.4379 169.084 79.5801 169.058 79.7191 169.021C79.9742 168.953 80.0567 168.843 79.9667 168.507L78.7088 163.813L75.3474 164.714C74.9765 164.813 74.7071 164.55 74.6264 164.248C74.5425 163.935 74.6472 163.584 75.0182 163.485L78.3796 162.584L77.9168 160.857C77.8112 160.463 78.1177 160.17 78.4655 160.077C78.8132 159.983 79.199 160.079 79.3015 160.461L79.7705 162.212L83.0856 161.323C83.4565 161.224 83.7227 161.476 83.8066 161.788C83.8873 162.09 83.7857 162.453 83.4148 162.552L80.0997 163.44ZM82.3193 158.51C83.0147 158.323 83.7055 158.722 83.8918 159.418C84.0813 160.125 83.6825 160.815 82.987 161.002C82.28 161.191 81.5892 160.792 81.3998 160.085C81.2134 159.39 81.6122 158.699 82.3193 158.51ZM82.8317 160.422C83.2026 160.323 83.4117 159.944 83.3123 159.573C83.2129 159.202 82.8455 158.99 82.4746 159.089C82.1036 159.189 81.8799 159.559 81.9793 159.93C82.0787 160.301 82.4608 160.522 82.8317 160.422ZM83.0357 164.244C83.4839 164.757 84.2732 165.477 84.8566 165.893C85.0569 166.038 85.1762 166.204 85.2196 166.367C85.3221 166.749 85.0636 167.129 84.7043 167.225C84.4841 167.284 84.2127 167.245 83.9589 167.04C83.3454 166.558 82.4608 165.715 81.9406 165.071C81.8663 164.979 81.8152 164.881 81.7903 164.789C81.6909 164.418 81.9565 164.11 82.2926 164.02C82.5476 163.952 82.8221 164.003 83.0357 164.244ZM76.4961 166.033C76.5459 165.709 76.7552 165.517 77.0102 165.448C77.3463 165.358 77.7477 165.512 77.8502 165.894C77.875 165.987 77.8883 166.083 77.8699 166.199C77.7443 167.214 77.4008 168.251 76.8832 169.147C76.7559 169.368 76.5775 169.49 76.4036 169.537C76.0327 169.636 75.6421 169.43 75.5521 169.094C75.5055 168.92 75.5284 168.727 75.6588 168.519C76.0862 167.795 76.3626 166.926 76.4961 166.033ZM88.4418 160.82C88.8705 161.214 89.3387 161.71 89.6787 162.19C89.7205 162.254 89.7507 162.32 89.7693 162.39C89.8594 162.726 89.5854 163.048 89.2608 163.135C89.0406 163.194 88.804 163.145 88.6314 162.918C88.2861 162.464 87.8735 161.991 87.4889 161.622C87.4061 161.545 87.358 161.458 87.3332 161.365C87.2524 161.064 87.5033 160.748 87.8278 160.661C88.0249 160.609 88.2584 160.645 88.4418 160.82ZM90.5908 159.66C91.0111 160.069 91.4383 160.551 91.7551 161.038C91.7969 161.101 91.8271 161.167 91.8426 161.225C91.9327 161.562 91.6672 161.869 91.3542 161.953C91.134 162.012 90.8827 161.955 90.7185 161.713C90.3817 161.244 90.0016 160.799 89.6286 160.427C89.5458 160.35 89.4978 160.264 89.4761 160.182C89.3953 159.881 89.6408 159.592 89.9653 159.505C90.174 159.449 90.4043 159.474 90.5908 159.66ZM93.3579 159.416C93.3613 159.104 93.5621 158.926 93.8171 158.858C94.1417 158.771 94.5453 158.886 94.6385 159.234C94.6509 159.28 94.6517 159.33 94.6557 159.391C94.6584 162.322 93.4676 165.25 91.5652 167.052C91.4648 167.141 91.3698 167.204 91.2655 167.231C90.9293 167.322 90.5936 167.088 90.5097 166.776C90.4538 166.567 90.5022 166.33 90.7199 166.123C92.4811 164.396 93.3479 162.114 93.3579 159.416ZM101.563 154.521L102.435 157.778C102.495 157.539 102.664 157.332 102.907 157.267C103.011 157.239 103.11 157.237 103.227 157.256C104.033 157.388 105.2 157.709 106.082 158.081C106.36 158.193 106.512 158.388 106.568 158.597C106.667 158.968 106.461 159.358 106.091 159.458C105.94 159.498 105.754 159.498 105.557 159.414C104.748 159.084 103.601 158.746 103.017 158.604C102.83 158.555 102.698 158.478 102.594 158.369L103.932 163.365C104.041 163.771 103.758 164.058 103.41 164.151C103.074 164.241 102.673 164.137 102.565 163.732L100.195 154.888C100.086 154.482 100.378 154.18 100.714 154.09C101.062 153.997 101.454 154.116 101.563 154.521ZM103.862 155.036C103.756 154.965 103.697 154.881 103.675 154.8C103.613 154.568 103.789 154.298 104.044 154.229C104.148 154.201 104.273 154.205 104.402 154.27C104.79 154.464 105.237 154.742 105.577 155.036C105.686 155.118 105.737 155.217 105.765 155.321C105.833 155.576 105.669 155.844 105.425 155.909C105.286 155.946 105.129 155.914 104.984 155.791C104.603 155.483 104.2 155.231 103.862 155.036ZM104.776 153.809C104.658 153.741 104.599 153.658 104.574 153.565C104.512 153.333 104.679 153.077 104.946 153.006C105.062 152.975 105.19 152.99 105.331 153.052C105.7 153.226 106.144 153.492 106.478 153.763C106.602 153.854 106.668 153.961 106.699 154.077C106.767 154.332 106.596 154.576 106.353 154.642C106.214 154.679 106.048 154.661 105.891 154.542C105.535 154.277 105.117 154.016 104.776 153.809ZM112.702 153.437L111.856 151.626C111.835 151.595 111.823 151.548 111.814 151.514C111.717 151.154 112.012 150.864 112.348 150.774C112.638 150.696 112.968 150.769 113.116 151.09L113.959 152.889L116.47 151.782C116.501 151.761 116.536 151.751 116.571 151.742C116.953 151.64 117.252 151.92 117.336 152.233C117.404 152.488 117.322 152.783 117.01 152.917L114.487 154.027L115.215 155.584L118.459 154.106C118.491 154.085 118.537 154.073 118.572 154.063C118.943 153.964 119.238 154.233 119.322 154.546C119.39 154.801 119.308 155.096 118.999 155.241L115.743 156.722L117.138 159.702C117.159 159.734 117.172 159.781 117.181 159.815C117.277 160.175 116.997 160.473 116.661 160.563C116.371 160.641 116.041 160.568 115.89 160.236L114.504 157.29L111.26 158.768C111.229 158.789 111.194 158.798 111.159 158.808C110.788 158.907 110.489 158.627 110.406 158.314C110.337 158.059 110.42 157.763 110.729 157.618L113.973 156.14L113.242 154.572L110.754 155.674C110.722 155.694 110.688 155.704 110.653 155.713C110.294 155.809 109.995 155.529 109.911 155.216C109.84 154.95 109.91 154.657 110.234 154.521L112.702 153.437ZM125.502 152.157L128.322 150.904C128.432 150.85 128.548 150.819 128.664 150.788C129.325 150.611 129.835 150.847 129.981 151.391C130.037 151.6 130.041 151.847 129.979 152.125C129.82 152.876 129.513 153.678 129.105 154.334C128.995 154.526 128.836 154.63 128.685 154.67C128.361 154.757 128.011 154.565 127.927 154.252C127.89 154.113 127.916 153.932 128.03 153.753C128.344 153.259 128.566 152.74 128.711 152.216C128.73 152.149 128.733 152.111 128.723 152.076C128.708 152.018 128.652 151.996 128.559 152.021C128.536 152.027 128.505 152.048 128.47 152.057L125.997 153.167L127.948 157.204C127.969 157.235 127.978 157.27 127.988 157.305C128.074 157.629 127.823 157.896 127.521 157.976C127.266 158.045 126.986 157.971 126.85 157.697L124.887 153.663L123.024 154.498C122.992 154.519 122.957 154.528 122.923 154.537C122.587 154.627 122.323 154.387 122.249 154.109C122.184 153.866 122.261 153.597 122.55 153.47L124.393 152.653L123.513 150.851C123.489 150.808 123.479 150.773 123.47 150.738C123.383 150.414 123.629 150.174 123.931 150.093C124.197 150.022 124.501 150.089 124.64 150.375L125.502 152.157ZM133.659 146.48L138.251 145.163L138.32 145.144C139.178 144.914 139.724 145.19 139.886 145.793C139.935 145.979 139.945 146.2 139.926 146.453C139.824 147.512 139.519 148.6 139.08 149.649C140.354 150.09 141.845 150.834 142.923 151.564C143.12 151.697 143.239 151.864 143.283 152.026C143.385 152.409 143.11 152.818 142.727 152.921C142.542 152.97 142.311 152.945 142.096 152.791C141.145 152.115 139.796 151.346 138.515 150.832C137.717 152.35 136.642 153.719 135.506 154.719C135.406 154.808 135.296 154.862 135.192 154.89C134.798 154.996 134.43 154.734 134.34 154.398C134.277 154.166 134.334 153.915 134.575 153.701C136.66 151.838 138.161 149.324 138.474 146.83C138.49 146.751 138.483 146.678 138.47 146.632C138.442 146.528 138.337 146.506 138.14 146.559L134.012 147.752C133.633 147.866 133.349 147.594 133.265 147.281C133.178 146.957 133.291 146.591 133.659 146.48ZM148.27 143.099L150.652 142.436C151.61 142.167 152.2 142.419 152.386 143.114C152.436 143.3 152.457 143.518 152.446 143.757C152.356 146.663 150.746 149.927 148.545 152.008C148.436 152.111 148.306 152.183 148.19 152.214C147.82 152.314 147.469 152.072 147.379 151.736C147.317 151.504 147.371 151.242 147.629 150.998C148.568 150.101 149.373 148.978 149.97 147.775C149.333 147.436 148.787 147.209 148.337 147.057C148.088 146.962 147.96 146.81 147.91 146.625C147.826 146.312 148.024 145.936 148.383 145.839C148.511 145.805 148.659 145.803 148.823 145.858C149.353 146.027 149.909 146.25 150.5 146.552C150.811 145.673 151.005 144.777 151.055 143.943C151.063 143.879 151.059 143.818 151.047 143.772C151.012 143.644 150.904 143.611 150.684 143.67L147.862 144.451C147.507 145.49 147.04 146.485 146.53 147.268C146.408 147.462 146.238 147.57 146.075 147.613C145.716 147.709 145.352 147.509 145.262 147.173C145.215 146.999 145.243 146.78 145.394 146.553C146.211 145.291 146.902 143.466 147.126 141.89C147.17 141.543 147.402 141.344 147.657 141.276C147.993 141.186 148.38 141.331 148.476 141.69C148.498 141.771 148.511 141.867 148.493 141.984C148.441 142.345 148.365 142.713 148.27 143.099ZM156.533 143.755L164.995 141.488C165.412 141.376 165.708 141.645 165.798 141.981C165.885 142.305 165.766 142.697 165.349 142.809L156.887 145.076C156.47 145.188 156.171 144.908 156.084 144.583C155.994 144.247 156.116 143.867 156.533 143.755ZM172.2 138.936C172.849 138.762 173.525 139.152 173.699 139.801C173.873 140.451 173.483 141.127 172.833 141.301C172.184 141.474 171.508 141.084 171.334 140.435C171.16 139.786 171.551 139.11 172.2 138.936ZM183.454 132.069C184.944 133.086 186.939 133.856 188.773 134.209C189.115 134.279 189.308 134.489 189.37 134.72C189.46 135.057 189.297 135.423 188.915 135.526C188.787 135.56 188.653 135.571 188.481 135.53C186.661 135.136 184.629 134.276 183.019 133.18C182.178 134.958 180.93 136.746 179.524 138.129C179.427 138.229 179.329 138.28 179.225 138.308C178.889 138.398 178.541 138.169 178.457 137.856C178.405 137.659 178.453 137.422 178.668 137.203C180.165 135.696 181.397 133.85 182.151 131.934C182.248 131.696 182.432 131.548 182.641 131.492C182.977 131.402 183.352 131.55 183.439 131.874C183.455 131.932 183.459 131.993 183.454 132.069ZM188.766 137.615L184.176 138.845C184.015 139.634 183.813 140.409 183.569 141.169C184.591 140.809 185.612 140.448 186.607 140.033C186.398 139.902 186.18 139.787 185.992 139.688C185.819 139.598 185.724 139.474 185.69 139.346C185.612 139.057 185.822 138.727 186.158 138.637C186.309 138.597 186.475 138.614 186.657 138.69C187.49 139.063 188.466 139.646 189.153 140.17C189.324 140.298 189.425 140.445 189.463 140.584C189.553 140.92 189.317 141.244 188.992 141.331C188.783 141.387 188.538 141.354 188.302 141.168C188.128 141.029 187.928 140.884 187.731 140.75C185.812 141.612 184.224 142.224 182.103 142.929C182.022 142.951 181.75 143.048 181.634 143.079C181.251 143.182 180.973 142.933 180.896 142.644C180.818 142.354 180.929 142.026 181.328 141.894L182.119 141.645C182.376 140.843 182.622 140.044 182.774 139.221L180.386 139.861C180.05 139.951 179.798 139.708 179.724 139.429C179.646 139.14 179.746 138.815 180.082 138.725L188.462 136.479C188.81 136.386 189.047 136.621 189.124 136.911C189.199 137.189 189.114 137.522 188.766 137.615ZM181.873 135.996L185.524 135.018C185.871 134.925 186.108 135.159 186.186 135.449C186.26 135.727 186.176 136.061 185.828 136.154L182.177 137.132C181.841 137.222 181.589 136.979 181.515 136.701C181.437 136.411 181.536 136.086 181.873 135.996ZM193.424 135.709L194.452 139.545C194.539 139.87 194.281 140.113 193.979 140.194C193.667 140.278 193.322 140.196 193.235 139.872L192.253 136.209C192.046 136.5 191.832 136.769 191.615 137.026C191.512 137.153 191.383 137.225 191.267 137.256C190.954 137.34 190.636 137.127 190.558 136.837C190.508 136.652 190.551 136.441 190.723 136.246C191.655 135.226 192.366 133.756 192.571 132.62C192.579 132.556 192.581 132.518 192.572 132.483C192.55 132.402 192.471 132.386 192.332 132.423L190.269 132.976C189.979 133.054 189.766 132.813 189.691 132.535C189.62 132.268 189.684 131.953 189.974 131.875L191.017 131.596L190.589 129.996C190.502 129.671 190.763 129.44 191.076 129.356C191.377 129.275 191.719 129.345 191.806 129.67L192.234 131.269L192.57 131.179C193.231 131.002 193.683 131.204 193.826 131.738C193.875 131.923 193.888 132.156 193.849 132.427C193.755 133.098 193.526 133.818 193.206 134.525C193.755 134.626 194.36 134.799 194.768 134.976C195.005 135.074 195.133 135.226 195.177 135.388C195.257 135.69 195.071 136.013 194.781 136.091C194.653 136.125 194.513 136.113 194.358 136.042C194.076 135.919 193.76 135.805 193.424 135.709ZM198.023 137.247L197.016 133.491L195.347 133.939C195.011 134.029 194.756 133.774 194.679 133.484C194.598 133.183 194.694 132.846 195.03 132.756L196.699 132.309L195.789 128.913C195.687 128.53 195.962 128.258 196.286 128.171C196.611 128.084 196.985 128.183 197.088 128.565L197.998 131.961L199.875 131.458C200.223 131.365 200.463 131.611 200.544 131.913C200.621 132.202 200.54 132.547 200.192 132.64L198.314 133.144L199.321 136.899L201.558 136.3C201.906 136.207 202.146 136.453 202.226 136.754C202.304 137.044 202.222 137.389 201.875 137.482L195.952 139.069C195.615 139.159 195.361 138.904 195.283 138.615C195.202 138.313 195.299 137.977 195.635 137.887L198.023 137.247ZM208.802 127.774L204.479 128.933C203.54 129.184 203.097 128.968 202.916 128.295L202.73 127.6C202.547 126.916 202.825 126.518 203.764 126.267L208.088 125.108C209.038 124.854 209.467 125.062 209.65 125.746L209.836 126.441C210.063 127.287 209.532 127.579 208.802 127.774ZM204.506 127.969L208.308 126.95C208.586 126.876 208.634 126.776 208.587 126.602L208.488 126.231C208.438 126.046 208.35 125.995 208.072 126.069L204.27 127.088C203.992 127.162 203.929 127.254 203.979 127.439L204.078 127.81C204.141 128.042 204.309 128.022 204.506 127.969ZM210.766 133.572L205.689 134.932C204.622 135.218 204.117 134.956 203.903 134.156L203.092 131.13C202.878 130.331 203.184 129.851 204.251 129.565L209.328 128.205C210.394 127.919 210.887 128.185 211.102 128.984L211.912 132.01C212.173 132.983 211.635 133.339 210.766 133.572ZM205.632 133.978L210.338 132.717C210.732 132.612 210.774 132.538 210.709 132.295L210.616 131.947L205.006 133.45L205.099 133.798C205.183 134.111 205.365 134.05 205.632 133.978ZM204.614 131.99L204.782 132.616L210.392 131.112L210.225 130.487L204.614 131.99ZM210.001 129.652L209.917 129.339C209.852 129.096 209.778 129.053 209.384 129.159L204.678 130.42C204.284 130.525 204.242 130.599 204.307 130.842L204.391 131.155L210.001 129.652ZM206.134 134.924C206.234 134.835 206.344 134.781 206.448 134.753C206.796 134.66 207.122 134.858 207.197 135.137C207.247 135.322 207.192 135.535 206.971 135.731C206.274 136.328 205.266 136.971 204.348 137.44C204.305 137.464 204.247 137.48 204.201 137.492C203.853 137.586 203.57 137.363 203.492 137.073C203.43 136.842 203.515 136.558 203.833 136.398C204.676 135.974 205.514 135.439 206.134 134.924ZM210.246 133.81C210.905 133.907 211.971 133.944 212.998 133.88C213.352 133.86 213.568 134.063 213.637 134.318C213.714 134.608 213.583 134.953 213.235 135.047C213.177 135.062 213.128 135.063 213.067 135.067C211.953 135.129 210.756 135.065 209.955 134.907C209.681 134.856 209.524 134.687 209.477 134.513C209.403 134.235 209.578 133.915 209.914 133.825C210.007 133.8 210.117 133.795 210.246 133.81ZM217.096 128.173C217.671 130.318 217.238 132.459 215.878 134.475C215.798 134.596 215.683 134.677 215.567 134.708C215.347 134.767 215.085 134.625 215.026 134.405C214.986 134.255 215.016 134.135 215.104 133.999C216.252 132.164 216.539 130.36 216.03 128.459C215.52 126.558 214.37 125.139 212.458 124.124C212.314 124.05 212.228 123.962 212.188 123.811C212.129 123.591 212.285 123.338 212.505 123.279C212.621 123.248 212.761 123.26 212.89 123.325C215.076 124.391 216.521 126.029 217.096 128.173Z" fill="#282828"/>
<path d="M231.997 188.948L213.695 165.899L194.099 171.15L231.997 188.948Z" fill="#54B6CB"/>
</svg>
