<svg width="273" height="248" viewBox="0 0 273 248" fill="none" xmlns="http://www.w3.org/2000/svg">
<rect y="18.7834" width="258.787" height="202" rx="80" transform="rotate(-4.16236 0 18.7834)" fill="#E18965"/>
<path d="M47.5272 58.8455C47.0524 58.8801 46.6044 58.7676 46.1831 58.5082C45.7612 58.2394 45.382 57.8506 45.0455 57.3417C44.709 56.8328 44.4309 56.226 44.2111 55.5214C44.0001 54.8069 43.864 54.0307 43.8031 53.1929C43.7536 52.5134 43.7573 51.7925 43.8141 51.0304C43.8796 50.2583 44.0029 49.4445 44.1839 48.5891L45.8318 48.6657C45.6739 49.4539 45.5646 50.2012 45.5037 50.9075C45.4428 51.6137 45.4347 52.2741 45.4794 52.8884C45.5221 53.4749 45.6089 54.0254 45.7399 54.5399C45.871 55.0544 46.0298 55.5014 46.2165 55.8808C46.4125 56.2596 46.6211 56.5532 46.8421 56.7617C47.0725 56.9696 47.304 57.065 47.5367 57.0481C47.7601 57.0318 47.9954 56.9211 48.2425 56.716C48.4982 56.5009 48.7539 56.2202 49.0094 55.8741C49.265 55.528 49.4985 55.1367 49.71 54.7001C49.9309 54.263 50.1085 53.8102 50.2429 53.3419L51.7918 53.9872C51.6051 54.6371 51.3596 55.2492 51.0551 55.8235C50.7507 56.3978 50.4042 56.9096 50.0158 57.359C49.6361 57.7984 49.2309 58.146 48.8003 58.4019C48.3704 58.6672 47.9461 58.815 47.5272 58.8455ZM54.4381 56.981C54.3608 55.9198 54.2095 54.8687 53.984 53.8276C53.7678 52.7859 53.4849 51.7912 53.1351 50.8434C52.7947 49.8949 52.4042 49.0296 51.9636 48.2476L53.48 47.674C53.9699 48.4899 54.391 49.3904 54.7434 50.3754C55.1045 51.3504 55.3998 52.3864 55.6293 53.4833C55.8675 54.5702 56.029 55.6955 56.1136 56.859L54.4381 56.981ZM62.1569 58.1177C61.0585 58.1977 60.1908 58.0409 59.5539 57.6474C58.927 57.2626 58.5844 56.6699 58.5262 55.8693C58.4679 55.0688 58.7214 54.4374 59.2867 53.9751C59.852 53.5129 60.6885 53.2415 61.7962 53.1608C62.4013 53.1168 62.9925 53.1393 63.5698 53.2283C64.1471 53.3173 64.7348 53.4851 65.333 53.7316C65.9404 53.9775 66.5822 54.3098 67.2584 54.7285C67.9339 55.1379 68.668 55.6459 69.4608 56.2527L68.4769 57.3911C67.7254 56.8375 67.0411 56.3726 66.4242 55.9964C65.8159 55.6102 65.2556 55.3047 64.7433 55.08C64.2303 54.8459 63.7416 54.6897 63.2774 54.6112C62.8217 54.5227 62.3612 54.4953 61.8958 54.5292C60.7043 54.6159 60.1342 55.013 60.1857 55.7205C60.2122 56.0835 60.3814 56.3519 60.6935 56.5257C61.0049 56.6902 61.4492 56.7515 62.0264 56.7095C62.7152 56.6594 63.212 56.4782 63.5168 56.1659C63.8217 55.8536 63.9524 55.3996 63.909 54.8038L63.2688 46.0071L64.8467 45.8923L65.4868 54.689C65.5634 55.7409 65.3231 56.5538 64.766 57.1277C64.2181 57.701 63.3484 58.031 62.1569 58.1177ZM58.152 52.0785L58.0514 50.6961L68.8588 49.9096L68.9594 51.292L58.152 52.0785ZM57.8051 49.2402L57.7025 47.8299L68.7891 47.0231L68.8918 48.4333L57.8051 49.2402ZM78.5473 56.7003C77.5419 56.7735 76.7391 56.6073 76.1387 56.2018C75.547 55.7864 75.2217 55.1737 75.1628 54.3638C75.1025 53.5353 75.3353 52.8774 75.8613 52.3899C76.3873 51.9024 77.1577 51.6218 78.1723 51.548C78.6098 51.5161 79.0374 51.5411 79.4552 51.623C79.8722 51.6956 80.3093 51.851 80.7664 52.0891C81.2236 52.3272 81.7394 52.664 82.3139 53.0994C82.8969 53.5249 83.5826 54.0739 84.3708 54.7465L83.4178 55.9248C82.7081 55.3026 82.0957 54.7951 81.5805 54.4021C81.0739 53.9991 80.6303 53.6899 80.2496 53.4743C79.869 53.2587 79.5123 53.1162 79.1798 53.0468C78.8558 52.9674 78.5263 52.9399 78.1912 52.9643C77.1114 53.0429 76.5999 53.4732 76.6568 54.2551C76.713 55.0277 77.2811 55.3747 78.3609 55.2962C78.9473 55.2535 79.3528 55.1023 79.5772 54.8427C79.8102 54.573 79.9061 54.1543 79.8647 53.5865L79.2368 44.9573L80.8565 44.8394L81.4895 53.5384C81.5607 54.5158 81.3442 55.2709 80.8402 55.8035C80.3449 56.3262 79.5806 56.6251 78.5473 56.7003ZM74.8073 48.9012L74.7047 47.4909L83.5852 46.8447L83.6878 48.2549L74.8073 48.9012ZM72.8268 57.3693C72.5149 56.4281 72.2693 55.4962 72.0899 54.5734C71.9104 53.6507 71.7828 52.668 71.7069 51.6254C71.6317 50.5922 71.6164 49.6107 71.6611 48.681C71.705 47.742 71.8085 46.7846 71.9714 45.8089L73.6343 45.8984C73.4766 46.8176 73.3751 47.7374 73.3298 48.6578C73.2931 49.5682 73.3106 50.5168 73.3825 51.5035C73.4543 52.4902 73.5746 53.436 73.7433 54.3408C73.9214 55.2449 74.1544 56.131 74.4421 56.9991L72.8268 57.3693ZM88.8249 56.5419C88.3554 56.0053 87.856 55.5082 87.3267 55.0507C86.7968 54.584 86.2276 54.1575 85.6193 53.7713L86.681 52.543C87.2906 52.9478 87.8754 53.3965 88.4353 53.8892C88.9945 54.3726 89.5196 54.9005 90.0104 55.4731L88.8249 56.5419ZM101.447 55.8059L100.95 48.9779L99.009 49.1192L98.9114 47.7787L100.866 47.6364L100.542 43.1822L102.05 43.0725L102.374 47.5267L104.12 47.3997L104.217 48.7401L102.486 48.8661L102.983 55.6941L101.447 55.8059ZM99.859 54.4335L98.9772 52.9255C99.4901 52.1302 99.8997 51.3283 100.206 50.52C100.521 49.711 100.745 48.8665 100.878 47.9865L101.647 48.3376C101.61 49.1077 101.515 49.8632 101.363 50.6042C101.21 51.3359 101.003 52.0294 100.742 52.6847C100.49 53.3301 100.195 53.913 99.859 54.4335ZM103.639 52.5582C103.27 51.8644 102.897 51.1757 102.52 50.4919C102.151 49.7982 101.768 49.0915 101.369 48.3719L102.324 47.7971C102.716 48.4236 103.103 49.0552 103.486 49.6917C103.869 50.3189 104.247 50.9558 104.622 51.6023L103.639 52.5582ZM99.5464 47.4377C99.3854 46.8973 99.2148 46.3529 99.0345 45.8046C98.8635 45.2555 98.6959 44.753 98.5317 44.2971L99.778 43.8695C99.9422 44.3254 100.11 44.8279 100.281 45.377C100.451 45.9167 100.603 46.4625 100.737 47.0142L99.5464 47.4377ZM104.385 53.5566L104.142 52.1426L112.186 50.0272L112.429 51.4412L104.385 53.5566ZM107.3 50.5933C106.867 50.1756 106.401 49.7463 105.901 49.3054C105.4 48.8552 104.871 48.4071 104.315 47.961L105.342 46.8335C105.898 47.2703 106.43 47.7088 106.939 48.149C107.449 48.5892 107.915 49.0185 108.339 49.4368L107.3 50.5933ZM103.639 47.1539L102.381 46.8524C102.512 46.3375 102.622 45.7914 102.711 45.2141C102.809 44.6268 102.877 44.0791 102.915 43.571L104.241 43.671C104.188 44.2177 104.108 44.799 104.003 45.4149C103.898 46.0215 103.776 46.6012 103.639 47.1539ZM109.713 55.2043L108.794 42.5817L110.428 42.4628L111.347 55.0854L109.713 55.2043ZM107.81 46.9908C107.407 46.599 106.98 46.2042 106.53 45.8065C106.09 45.4081 105.616 45.0074 105.109 44.6045L106.151 43.4899C106.657 43.8836 107.135 44.2792 107.585 44.677C108.035 45.0654 108.46 45.4508 108.862 45.8333L107.81 46.9908ZM116.986 54.2679L116.888 52.9135L120.951 52.6178L120.849 51.2215L117.61 51.4572L117.517 50.1866L120.757 49.9508L120.463 45.9155L118.801 46.0364L118.718 44.8915L120.38 44.7705L120.275 43.3323L121.937 43.2114L122.041 44.6496L123.703 44.5287L123.598 43.0905L118.613 43.4533L119.002 48.7872L117.466 48.8989L116.982 42.2525L125.039 41.6662L125.522 48.3126L119.002 48.7872L118.911 47.5444L123.896 47.1817L123.786 45.6737L122.125 45.7946L122.418 49.8299L125.825 49.582L125.918 50.8526L122.511 51.1006L122.612 52.4969L126.215 52.2347L126.313 53.5891L116.986 54.2679ZM113.448 53.6831L113.191 52.2701C113.603 52.1372 114.032 51.9937 114.479 51.8395C114.935 51.6753 115.386 51.5021 115.831 51.32C116.285 51.1278 116.725 50.9367 117.151 50.7467L117.293 52.1259C116.887 52.324 116.461 52.5187 116.016 52.7102C115.572 52.9016 115.131 53.0788 114.694 53.2416C114.256 53.4044 113.841 53.5516 113.448 53.6831ZM114.445 52.1367L114.173 48.4086L113.126 48.4848L113.022 47.0466L114.069 46.9704L113.881 44.3872L112.694 44.4736L112.587 43.0075L116.581 42.7169L116.687 44.183L115.473 44.2714L115.661 46.8546L116.792 46.7723L116.896 48.2105L115.765 48.2928L116.037 52.0209L114.445 52.1367ZM127.556 52.9231C127.836 52.0137 128.084 51.1769 128.3 50.4125C128.515 49.6389 128.705 48.8998 128.869 48.1954C129.042 47.4903 129.191 46.7776 129.317 46.0573C129.451 45.3362 129.569 44.5697 129.669 43.7576C129.769 42.9456 129.863 42.0497 129.95 41.0701L131.583 41.1338C131.502 42.0755 131.412 42.957 131.313 43.7784C131.213 44.5904 131.092 45.3759 130.951 46.1349C130.818 46.8838 130.662 47.6344 130.483 48.3868C130.313 49.1384 130.112 49.9157 129.881 50.7186C129.658 51.5209 129.403 52.3817 129.114 53.3011L127.556 52.9231ZM138.733 50.2709C138.609 49.7185 138.454 49.1308 138.268 48.508C138.091 47.8752 137.891 47.2441 137.667 46.6146C137.444 45.9852 137.212 45.3797 136.973 44.7982L138.49 44.2246C138.73 44.8248 138.963 45.4489 139.188 46.0969C139.421 46.735 139.632 47.3794 139.82 48.0301C140.007 48.6716 140.168 49.2868 140.305 49.8758L138.733 50.2709ZM136.806 44.0383C136.527 43.544 136.256 43.1051 135.994 42.7218C135.732 42.3384 135.443 41.9618 135.126 41.5918L136.236 40.8373C136.563 41.2159 136.859 41.6108 137.122 42.0221C137.396 42.4326 137.667 42.8808 137.936 43.3665L136.806 44.0383ZM138.707 43.156C138.446 42.651 138.189 42.2065 137.936 41.8225C137.683 41.4291 137.407 41.0515 137.11 40.6895L138.195 39.9788C138.523 40.3667 138.814 40.7666 139.068 41.1786C139.332 41.5899 139.59 42.0437 139.841 42.5401L138.707 43.156ZM134.2 52.5941C133.958 52.6117 133.653 52.6011 133.285 52.5624C132.918 52.5329 132.53 52.4769 132.122 52.3944C131.724 52.3204 131.338 52.2315 130.966 52.1276L131.24 50.6899C131.554 50.7606 131.863 50.8317 132.168 50.9031C132.481 50.9645 132.766 51.014 133.021 51.0516C133.285 51.0791 133.487 51.0878 133.626 51.0777C133.924 51.056 134.161 50.9031 134.337 50.6189C134.512 50.3254 134.625 49.8821 134.675 49.2888C134.734 48.6856 134.73 47.9186 134.662 46.9877C134.623 46.4478 134.573 46.0163 134.512 45.6932C134.45 45.3608 134.353 45.1152 134.22 44.9565C134.096 44.797 133.915 44.6979 133.679 44.659C133.442 44.62 133.128 44.6148 132.737 44.6433L126.817 45.0741L126.711 43.622L132.478 43.2023C133.12 43.1555 133.657 43.1445 134.09 43.1692C134.531 43.1839 134.882 43.2566 135.144 43.3872C135.416 43.5172 135.628 43.731 135.781 44.0287C135.942 44.3165 136.059 44.7103 136.133 45.2103C136.216 45.7002 136.284 46.3176 136.338 47.0623C136.426 48.2724 136.411 49.2795 136.291 50.0836C136.172 50.8877 135.936 51.4992 135.583 51.9179C135.238 52.3267 134.777 52.552 134.2 52.5941ZM146.98 52.4921L146.7 48.6383L141.45 49.0204L141.349 47.6381L146.599 47.256L146.546 46.5299L145.876 46.5787L145.786 45.336L148.83 45.1145L148.752 44.0533L145.709 44.2748L145.62 43.06L148.664 42.8385L148.592 41.8471L145.548 42.0686L145.876 46.5787L144.256 46.6966L143.833 40.874L150.116 40.4167L150.54 46.2393L148.25 46.4059L148.303 47.132L153.553 46.7499L153.653 48.1323L148.403 48.5144L148.684 52.3682L146.98 52.4921ZM141.857 52.6825L141.143 51.3589C142.407 50.8551 143.487 50.3367 144.384 49.8035C145.281 49.2703 146.018 48.7254 146.596 48.1687L147.641 48.8366C147.017 49.5276 146.224 50.1983 145.261 50.8486C144.297 51.4989 143.163 52.1102 141.857 52.6825ZM141.396 47.1293L140.712 45.8315C141.246 45.5775 141.746 45.3165 142.213 45.0485C142.69 44.7799 143.124 44.5097 143.516 44.2378L144.224 45.4777C143.823 45.7595 143.385 46.0394 142.909 46.3173C142.443 46.5946 141.939 46.8652 141.396 47.1293ZM153.781 51.8147C152.406 51.4375 151.195 50.997 150.148 50.493C149.1 49.989 148.218 49.4403 147.501 48.8467L148.439 48.0345C149.09 48.5018 149.898 48.9343 150.863 49.332C151.828 49.7297 152.972 50.0862 154.296 50.4016L153.781 51.8147ZM142.984 43.673C142.656 43.4161 142.28 43.1393 141.856 42.8426C141.441 42.5359 140.993 42.2363 140.514 41.9437L141.393 40.7146C141.863 41.0079 142.311 41.3076 142.736 41.6136C143.16 41.9195 143.537 42.2056 143.865 42.4719L142.984 43.673ZM147.299 41.6324L145.586 41.6307C145.666 41.316 145.741 40.9924 145.81 40.6599C145.88 40.3273 145.943 39.9718 146 39.5933L147.71 39.5671C147.653 39.9455 147.591 40.3057 147.522 40.6476C147.453 40.9895 147.379 41.3177 147.299 41.6324ZM153.334 46.2465C152.877 46.0177 152.399 45.8046 151.898 45.6071C151.396 45.4003 150.872 45.2091 150.326 45.0337L150.903 43.7003C151.477 43.8737 152.014 44.0592 152.515 44.2567C153.025 44.4442 153.498 44.6484 153.935 44.8692L153.334 46.2465ZM151.346 43.0364L150.274 42.0054C150.662 41.6777 151.044 41.3364 151.421 40.9815C151.796 40.6173 152.145 40.2644 152.466 39.9228L153.551 40.9387C153.256 41.2597 152.921 41.6022 152.545 41.9665C152.168 42.3214 151.769 42.678 151.346 43.0364ZM161.503 50.8738C160.442 50.951 159.559 50.8468 158.856 50.5611C158.162 50.2841 157.627 49.813 157.251 49.1479C156.884 48.4821 156.661 47.6093 156.583 46.5294L156.088 39.7294L157.792 39.6055L158.286 46.4055C158.366 47.4946 158.651 48.2692 159.143 48.7294C159.635 49.1803 160.383 49.3691 161.388 49.2959C162.124 49.2424 162.761 49.0604 163.3 48.7498C163.848 48.4385 164.328 47.9637 164.74 47.3255C165.161 46.6772 165.548 45.8302 165.903 44.7844L167.498 45.2999C167.194 46.2579 166.851 47.0783 166.47 47.761C166.098 48.4338 165.676 48.9933 165.203 49.4395C164.739 49.8756 164.201 50.2095 163.591 50.4411C162.981 50.6726 162.285 50.8169 161.503 50.8738ZM173.195 49.7001C172.72 49.7346 172.272 49.6222 171.851 49.3627C171.429 49.094 171.05 48.7051 170.713 48.1962C170.377 47.6873 170.099 47.0806 169.879 46.376C169.668 45.6614 169.532 44.8852 169.471 44.0475C169.421 43.3679 169.425 42.6471 169.482 41.8849C169.547 41.1128 169.671 40.2991 169.852 39.4437L171.499 39.5203C171.342 40.3085 171.232 41.0557 171.171 41.762C171.11 42.4683 171.102 43.1286 171.147 43.743C171.19 44.3294 171.277 44.8799 171.408 45.3944C171.539 45.9089 171.697 46.3559 171.884 46.7354C172.08 47.1141 172.289 47.4078 172.51 47.6163C172.74 47.8241 172.972 47.9196 173.204 47.9026C173.428 47.8864 173.663 47.7757 173.91 47.5705C174.166 47.3554 174.422 47.0748 174.677 46.7286C174.933 46.3825 175.166 45.9912 175.378 45.5547C175.599 45.1175 175.776 44.6647 175.911 44.1964L177.459 44.8417C177.273 45.4916 177.027 46.1037 176.723 46.678C176.418 47.2523 176.072 47.7641 175.683 48.2135C175.304 48.6529 174.899 49.0005 174.468 49.2565C174.038 49.5217 173.614 49.6696 173.195 49.7001ZM180.106 47.8355C180.028 46.7743 179.877 45.7232 179.652 44.6822C179.435 43.6404 179.153 42.6457 178.803 41.6979C178.462 40.7494 178.072 39.8842 177.631 39.1021L179.148 38.5285C179.638 39.3444 180.059 40.2449 180.411 41.2299C180.772 42.205 181.067 43.2409 181.297 44.3378C181.535 45.4247 181.697 46.55 181.781 47.7136L180.106 47.8355ZM185.904 49.5893C185.42 49.6245 184.985 49.5533 184.597 49.3756C184.219 49.1972 183.915 48.9339 183.684 48.5858C183.462 48.237 183.333 47.8159 183.297 47.3225C183.262 46.8385 183.329 46.4078 183.498 46.0306C183.675 45.6433 183.939 45.3387 184.287 45.1168C184.645 44.8849 185.066 44.7514 185.55 44.7162C186.043 44.6803 186.479 44.7515 186.857 44.9299C187.234 45.0989 187.538 45.3622 187.77 45.7196C188.002 46.0678 188.135 46.4839 188.17 46.9679C188.206 47.4613 188.135 47.8969 187.956 48.2749C187.778 48.6528 187.515 48.9574 187.167 49.1886C186.818 49.4198 186.398 49.5534 185.904 49.5893ZM185.823 48.2757C186.158 48.2513 186.42 48.1293 186.61 47.9096C186.8 47.6899 186.883 47.4078 186.857 47.0634C186.833 46.7283 186.711 46.4658 186.491 46.2759C186.272 46.086 185.994 46.0033 185.659 46.0277C185.315 46.0527 185.048 46.1751 184.858 46.3948C184.668 46.6145 184.585 46.8919 184.609 47.227C184.634 47.5714 184.757 47.8386 184.977 48.0285C185.196 48.2184 185.478 48.3008 185.823 48.2757ZM207.126 48.0168C206.893 48.0337 206.586 48.0514 206.204 48.0699C205.821 48.0883 205.345 48.1089 204.776 48.1316L204.588 46.6995C205.138 46.6782 205.596 46.6636 205.96 46.6558C206.324 46.6387 206.58 46.6247 206.729 46.6139C206.953 46.5976 207.11 46.5768 207.202 46.5514C207.293 46.5167 207.349 46.4518 207.37 46.3567C207.391 46.2522 207.393 46.0883 207.377 45.8649L206.763 37.4312L200.577 37.8814L200.474 36.4572L209.284 35.816L209.388 37.2402L208.397 37.3123L209.009 45.7321C209.045 46.2161 209.049 46.6041 209.024 46.8961C209.008 47.1874 208.939 47.4076 208.819 47.5567C208.699 47.7058 208.501 47.8091 208.224 47.8667C207.958 47.9329 207.592 47.9829 207.126 48.0168ZM198.504 48.7425L197.84 39.6107L199.473 39.4918L200.138 48.6236L198.504 48.7425ZM197.198 43.9106L196.341 42.3587C196.765 41.757 197.131 41.1314 197.44 40.482C197.747 39.8232 198.001 39.1263 198.2 38.3913C198.408 37.6462 198.565 36.8441 198.671 35.9848L200.253 36.1223C200.154 37.0747 199.994 37.9706 199.775 38.8101C199.564 39.6489 199.298 40.4216 198.975 41.1283L198.826 40.4372C198.762 40.7133 198.667 41.0103 198.54 41.3283C198.413 41.6371 198.277 41.9511 198.131 42.2705C197.985 42.5806 197.834 42.877 197.677 43.1598C197.519 43.4427 197.36 43.6929 197.198 43.9106ZM201.096 46.1676L200.598 39.3257L205.737 38.9517L206.153 44.6766L202.579 44.9367L202.487 43.6801L204.554 43.5297L204.321 40.3321L202.254 40.4825L202.66 46.0538L201.096 46.1676ZM45.5925 83.9542C45.8726 83.0448 46.1205 82.2079 46.3363 81.4436C46.5513 80.6699 46.7409 79.9309 46.9048 79.2264C47.0781 78.5213 47.2274 77.8086 47.3528 77.0883C47.4875 76.3673 47.6049 75.6007 47.7048 74.7887C47.8048 73.9766 47.8987 73.0808 47.9865 72.1011L49.6194 72.1648C49.5382 73.1065 49.448 73.988 49.3487 74.8094C49.2487 75.6215 49.1281 76.407 48.9868 77.1659C48.8541 77.9148 48.6982 78.6655 48.519 79.4178C48.3491 80.1694 48.1483 80.9467 47.9166 81.7497C47.6943 82.5519 47.4388 83.4127 47.1501 84.3321L45.5925 83.9542ZM56.7695 81.3019C56.6451 80.7495 56.49 80.1619 56.3043 79.539C56.1273 78.9062 55.9269 78.2751 55.7033 77.6457C55.4797 77.0162 55.2485 76.4107 55.0096 75.8292L56.526 75.2556C56.7662 75.8558 56.9988 76.4799 57.2237 77.1279C57.4573 77.766 57.668 78.4104 57.8557 79.0612C58.0428 79.7026 58.2045 80.3178 58.341 80.9068L56.7695 81.3019ZM54.842 75.0694C54.5628 74.575 54.2922 74.1362 54.0303 73.7528C53.7685 73.3695 53.4791 72.9928 53.162 72.6229L54.2722 71.8683C54.5992 72.2469 54.8946 72.6418 55.1585 73.0531C55.4317 73.4637 55.703 73.9118 55.9723 74.3976L54.842 75.0694ZM56.743 74.1871C56.4817 73.682 56.2247 73.2375 55.9722 72.8535C55.719 72.4602 55.4435 72.0825 55.1458 71.7205L56.231 71.0099C56.5587 71.3978 56.8499 71.7977 57.1044 72.2096C57.3683 72.6209 57.6259 73.0747 57.8773 73.5711L56.743 74.1871ZM52.2362 83.6251C51.9941 83.6427 51.6892 83.6321 51.3215 83.5934C50.9543 83.564 50.5666 83.508 50.1582 83.4254C49.7598 83.3514 49.3743 83.2625 49.0018 83.1586L49.2761 81.7209C49.5901 81.7916 49.8994 81.8627 50.2041 81.9341C50.5174 81.9955 50.8017 82.045 51.0571 82.0826C51.3211 82.1102 51.523 82.1189 51.6626 82.1087C51.9605 82.087 52.1973 81.9341 52.3732 81.6499C52.5483 81.3564 52.6611 80.9131 52.7115 80.3199C52.7706 79.7167 52.7662 78.9496 52.6985 78.0187C52.6592 77.4788 52.609 77.0473 52.5481 76.7242C52.4865 76.3918 52.3891 76.1463 52.2559 75.9875C52.132 75.8281 51.9516 75.7289 51.7148 75.69C51.4781 75.6511 51.1642 75.6458 50.7732 75.6743L44.8529 76.1052L44.7472 74.653L50.5139 74.2333C51.1562 74.1866 51.6935 74.1755 52.1258 74.2002C52.5667 74.2149 52.9182 74.2876 53.1804 74.4183C53.4519 74.5482 53.664 74.7621 53.8166 75.0598C53.9779 75.3475 54.0955 75.7413 54.1693 76.2413C54.2518 76.7313 54.3201 77.3486 54.3743 78.0933C54.4624 79.3034 54.4468 80.3106 54.3275 81.1147C54.2082 81.9188 53.9719 82.5302 53.6187 82.949C53.2742 83.3577 52.8133 83.5831 52.2362 83.6251ZM65.0165 83.5232L64.736 79.6694L59.4859 80.0515L59.3853 78.6691L64.6354 78.287L64.5826 77.561L63.9123 77.6097L63.8219 76.367L66.8659 76.1455L66.7886 75.0843L63.7447 75.3058L63.6563 74.091L66.7002 73.8695L66.6281 72.8781L63.5841 73.0997L63.9123 77.6097L62.2926 77.7276L61.8689 71.905L68.1523 71.4477L68.576 77.2703L66.2861 77.437L66.3389 78.1631L71.589 77.781L71.6896 79.1633L66.4395 79.5454L66.72 83.3992L65.0165 83.5232ZM59.8928 83.7136L59.1788 82.3899C60.4429 81.8862 61.5235 81.3677 62.4205 80.8345C63.3175 80.3013 64.0545 79.7564 64.6317 79.1997L65.6769 79.8676C65.0534 80.5587 64.26 81.2294 63.2967 81.8797C62.3333 82.53 61.1987 83.1413 59.8928 83.7136ZM59.4325 78.1603L58.7485 76.8626C59.2821 76.6085 59.7825 76.3475 60.2496 76.0795C60.726 75.8109 61.1602 75.5407 61.5522 75.2689L62.2601 76.5087C61.8595 76.7906 61.4213 77.0704 60.9456 77.3484C60.4791 77.6256 59.9748 77.8963 59.4325 78.1603ZM71.8172 82.8458C70.4422 82.4686 69.2311 82.028 68.1837 81.524C67.1364 81.02 66.2542 80.4713 65.5373 79.8778L66.4748 79.0656C67.1264 79.5328 67.9346 79.9653 68.8993 80.363C69.8641 80.7607 71.0083 81.1173 72.332 81.4327L71.8172 82.8458ZM61.0198 74.704C60.6923 74.4471 60.3166 74.1703 59.8926 73.8736C59.4772 73.567 59.0296 73.2673 58.5498 72.9747L59.4289 71.7457C59.8994 72.039 60.347 72.3386 60.7717 72.6446C61.1963 72.9506 61.5728 73.2367 61.901 73.5029L61.0198 74.704ZM65.3351 72.6634L63.6224 72.6617C63.7025 72.3471 63.7772 72.0235 63.8466 71.6909C63.9159 71.3583 63.979 71.0028 64.0357 70.6244L65.7463 70.5981C65.6896 70.9766 65.6269 71.3367 65.5582 71.6786C65.4895 72.0205 65.4151 72.3488 65.3351 72.6634ZM71.3699 77.2776C70.9134 77.0488 70.4347 76.8356 69.9337 76.6381C69.432 76.4313 68.9081 76.2402 68.3619 76.0647L68.9387 74.7313C69.5128 74.9048 70.0503 75.0902 70.5513 75.2877C71.0609 75.4752 71.5343 75.6794 71.9715 75.9003L71.3699 77.2776ZM69.3817 74.0674L68.31 73.0365C68.6979 72.7088 69.0801 72.3675 69.4567 72.0125C69.8326 71.6483 70.1812 71.2954 70.5026 70.9538L71.5872 71.9698C71.2924 72.2907 70.9571 72.6333 70.5812 72.9975C70.2046 73.3525 69.8048 73.7091 69.3817 74.0674ZM79.5393 81.9048C78.4781 81.982 77.5956 81.8778 76.8916 81.5922C76.1977 81.3151 75.6628 80.844 75.2868 80.1789C74.9202 79.5131 74.6976 78.6403 74.619 77.5605L74.1241 70.7605L75.8276 70.6365L76.3225 77.4365C76.4018 78.5256 76.6874 79.3003 77.1794 79.7604C77.6708 80.2113 78.4191 80.4001 79.4245 80.327C80.1599 80.2735 80.797 80.0914 81.3359 79.7808C81.8841 79.4695 82.3642 78.9948 82.7763 78.3565C83.197 77.7082 83.5846 76.8612 83.9389 75.8154L85.5346 76.3309C85.23 77.2889 84.8873 78.1093 84.5065 78.7921C84.1343 79.4648 83.7118 80.0243 83.239 80.4705C82.7747 80.9067 82.2376 81.2405 81.6274 81.4721C81.0173 81.7037 80.3212 81.8479 79.5393 81.9048ZM91.231 80.7311C90.7562 80.7656 90.3082 80.6532 89.8869 80.3938C89.465 80.125 89.0858 79.7362 88.7493 79.2273C88.4128 78.7183 88.1347 78.1116 87.9149 77.407C87.7039 76.6924 87.5678 75.9163 87.5069 75.0785C87.4574 74.399 87.4611 73.6781 87.5179 72.916C87.5834 72.1439 87.7066 71.3301 87.8877 70.4747L89.5356 70.5513C89.3777 71.3395 89.2684 72.0867 89.2075 72.793C89.1466 73.4993 89.1385 74.1596 89.1832 74.774C89.2259 75.3605 89.3127 75.9109 89.4437 76.4255C89.5748 76.94 89.7336 77.387 89.9203 77.7664C90.1163 78.1452 90.3249 78.4388 90.5459 78.6473C90.7763 78.8551 91.0078 78.9506 91.2405 78.9337C91.4639 78.9174 91.6992 78.8067 91.9463 78.6016C92.202 78.3864 92.4576 78.1058 92.7132 77.7597C92.9687 77.4135 93.2023 77.0222 93.4138 76.5857C93.6347 76.1485 93.8123 75.6958 93.9467 75.2275L95.4956 75.8727C95.3089 76.5227 95.0634 77.1348 94.7589 77.7091C94.4545 78.2833 94.108 78.7952 93.7196 79.2445C93.3399 79.6839 92.9347 80.0316 92.5041 80.2875C92.0742 80.5527 91.6499 80.7006 91.231 80.7311ZM98.1419 78.8666C98.0646 77.8054 97.9133 76.7542 97.6878 75.7132C97.4716 74.6715 97.1887 73.6767 96.8389 72.7289C96.4985 71.7805 96.108 70.9152 95.6674 70.1331L97.1838 69.5595C97.6736 70.3755 98.0948 71.276 98.4472 72.261C98.8083 73.236 99.1036 74.272 99.3331 75.3689C99.5713 76.4558 99.7327 77.581 99.8174 78.7446L98.1419 78.8666ZM104.778 78.0467C106.183 77.9444 107.317 77.7684 108.178 77.5185C109.049 77.2587 109.674 76.9091 110.053 76.4697C110.433 76.0303 110.6 75.4894 110.553 74.8471C110.501 74.1304 110.224 73.6124 109.724 73.2932C109.233 72.9733 108.508 72.8483 107.549 72.9181C107.167 72.9459 106.751 73.0089 106.299 73.1073C105.847 73.1963 105.328 73.323 104.741 73.4874C104.163 73.6511 103.491 73.8638 102.724 74.1255L102.288 72.571C103.45 72.2057 104.459 71.9264 105.315 71.7331C106.171 71.5305 106.91 71.4065 107.534 71.3611C108.958 71.2574 110.074 71.485 110.882 72.0438C111.69 72.6027 112.136 73.4546 112.219 74.5995C112.325 76.0517 111.767 77.1965 110.546 78.034C109.334 78.8709 107.481 79.38 104.986 79.5616L104.778 78.0467ZM124.346 78.4335C123.219 78.5154 122.223 78.3961 121.358 78.0754C120.501 77.754 119.82 77.2609 119.313 76.5959C118.805 75.9216 118.517 75.1098 118.448 74.1603C118.394 73.4156 118.479 72.7216 118.703 72.0782C118.937 71.4249 119.287 70.8426 119.755 70.3313C120.232 69.81 120.81 69.3982 121.49 69.0961L121.661 69.5188L115.026 70.1561L114.917 68.662L126.668 67.5261L126.777 69.0202L125.006 69.1911C124.282 69.2626 123.615 69.4234 123.006 69.6736C122.407 69.9231 121.888 70.2556 121.45 70.6711C121.013 71.0867 120.683 71.5646 120.46 72.1048C120.246 72.6351 120.162 73.2214 120.209 73.8637C120.259 74.5525 120.456 75.1371 120.8 75.6174C121.143 76.0884 121.603 76.4339 122.181 76.6539C122.767 76.8732 123.456 76.9541 124.248 76.8965C124.508 76.8776 124.805 76.8419 125.138 76.7896C125.481 76.7366 125.776 76.6777 126.024 76.6129L126.317 78.1356C126.023 78.2038 125.695 78.2651 125.334 78.3194C124.982 78.3731 124.653 78.4111 124.346 78.4335ZM132.529 78.4275C132.059 77.8908 131.56 77.3938 131.031 76.9363C130.501 76.4695 129.931 76.0431 129.323 75.6569L130.385 74.4286C130.994 74.8334 131.579 75.2821 132.139 75.7748C132.698 76.2581 133.223 76.7861 133.714 77.3586L132.529 78.4275ZM149.355 76.824C148.293 76.9012 147.411 76.797 146.707 76.5113C146.013 76.2343 145.478 75.7632 145.102 75.0981C144.736 74.4323 144.513 73.5595 144.434 72.4797L143.94 65.6796L145.643 65.5557L146.138 72.3557C146.217 73.4448 146.503 74.2195 146.995 74.6796C147.486 75.1305 148.235 75.3193 149.24 75.2462C149.975 75.1926 150.612 75.0106 151.151 74.7C151.699 74.3887 152.18 73.9139 152.592 73.2757C153.012 72.6274 153.4 71.7804 153.754 70.7346L155.35 71.2501C155.045 72.2081 154.703 73.0285 154.322 73.7112C153.95 74.384 153.527 74.9435 153.054 75.3897C152.59 75.8259 152.053 76.1597 151.443 76.3913C150.833 76.6229 150.137 76.7671 149.355 76.824ZM166.896 76.1791C166.199 75.7338 165.562 75.3403 164.985 74.9986C164.409 74.6663 163.867 74.3594 163.36 74.0782C162.853 73.7969 162.357 73.5336 161.871 73.2882C161.385 73.0335 160.879 72.7708 160.354 72.5002C159.81 72.2217 159.372 71.9915 159.04 71.8098C158.718 71.618 158.462 71.4494 158.274 71.3041C158.094 71.158 157.967 71.0082 157.89 70.8547C157.822 70.6912 157.78 70.5024 157.764 70.2883C157.748 70.0649 157.767 69.8671 157.82 69.6948C157.881 69.5125 157.995 69.3358 158.16 69.1647C158.325 68.9842 158.562 68.7798 158.873 68.5513C159.184 68.3228 159.585 68.0456 160.076 67.7198C160.585 67.3833 161.142 67.0058 161.748 66.5874C162.354 66.169 162.986 65.7206 163.644 65.2423C164.301 64.764 164.952 64.258 165.597 63.7245L166.673 65.0078C166.283 65.3169 165.871 65.6323 165.436 65.9541C165 66.2665 164.569 66.574 164.142 66.8765C163.714 67.1696 163.304 67.4475 162.911 67.71C162.527 67.9625 162.179 68.1937 161.867 68.4036C161.554 68.6042 161.299 68.7678 161.102 68.8944C160.718 69.1469 160.419 69.3465 160.205 69.4931C160.001 69.639 159.855 69.7619 159.769 69.8617C159.691 69.9516 159.656 70.0477 159.663 70.1501C159.671 70.2525 159.705 70.3389 159.767 70.4093C159.837 70.4791 159.975 70.5673 160.179 70.6741C160.383 70.7809 160.694 70.9361 161.111 71.1397C161.343 71.2444 161.639 71.3867 161.998 71.5664C162.367 71.7454 162.785 71.9537 163.251 72.1911C163.717 72.4193 164.203 72.674 164.71 72.9552C165.226 73.2265 165.748 73.5161 166.276 73.8239C166.812 74.1218 167.33 74.4256 167.83 74.7355L166.896 76.1791ZM174.543 74.7804C174.133 74.8102 173.73 74.7366 173.334 74.5596C172.937 74.3825 172.573 74.133 172.24 73.8109C171.908 73.4889 171.638 73.1248 171.431 72.7188C171.223 72.3035 171.103 71.8771 171.071 71.4395C171.02 70.7414 171.21 70.1287 171.639 69.6015C172.077 69.0642 172.724 68.6335 173.581 68.3091C174.436 67.9755 175.469 67.7647 176.679 67.6766C177.926 67.5858 179.125 67.667 180.276 67.9201C181.426 68.164 182.575 68.5903 183.724 69.1993L183.24 70.6522C182.489 70.2296 181.767 69.8984 181.076 69.6586C180.385 69.4188 179.69 69.2589 178.992 69.1787C178.293 69.0892 177.557 69.0725 176.784 69.1288C175.435 69.227 174.395 69.4711 173.665 69.8611C172.944 70.2411 172.606 70.729 172.649 71.3247C172.664 71.5295 172.721 71.7406 172.821 71.9579C172.921 72.1752 173.053 72.3762 173.216 72.5608C173.379 72.7361 173.543 72.8786 173.711 72.9881C173.886 73.0876 174.053 73.1316 174.211 73.12C174.519 73.0977 174.784 72.8912 175.009 72.5006C175.232 72.1006 175.406 71.5358 175.531 70.8062C175.656 70.0765 175.727 69.1963 175.746 68.1656C175.773 67.1249 175.74 65.9576 175.645 64.6637L176.085 65.1089L171.212 65.4636L171.109 64.0533L177.281 63.6042L177.291 63.7438C177.42 65.5124 177.459 67.0771 177.408 68.4377C177.357 69.789 177.215 70.9269 176.983 71.8516C176.75 72.7762 176.428 73.4875 176.015 73.9854C175.611 74.4734 175.12 74.7384 174.543 74.7804ZM178.496 73.5522C178.822 73.2758 179.093 73.0081 179.308 72.7491C179.522 72.4809 179.692 72.1738 179.816 71.8278C179.941 71.4819 180.023 71.0688 180.063 70.5886C180.102 70.0992 180.111 69.5043 180.088 68.8041C180.065 68.104 180.017 67.2558 179.945 66.2598L179.765 63.7884L181.384 63.6705L181.57 66.2257C181.649 67.3055 181.698 68.2424 181.719 69.0364C181.738 69.821 181.717 70.4963 181.656 71.0623C181.594 71.6283 181.485 72.1182 181.327 72.532C181.18 72.9451 180.978 73.3201 180.722 73.6569C180.465 73.9938 180.144 74.3307 179.756 74.6677L178.496 73.5522ZM192.385 70.9412C192.307 69.8614 192.179 69.0144 192.004 68.4002C191.837 67.776 191.594 67.3398 191.277 67.0915C190.969 66.8425 190.559 66.7367 190.047 66.7739C189.6 66.8065 189.175 66.945 188.771 67.1896C188.377 67.4335 187.988 67.8081 187.604 68.3133C187.228 68.8085 186.822 69.4651 186.386 70.2829L184.96 69.6006C185.374 68.8499 185.735 68.1592 186.045 67.5284C186.364 66.8969 186.647 66.2821 186.893 65.684C187.148 65.0758 187.375 64.4604 187.573 63.8377C187.78 63.2051 187.973 62.5219 188.154 61.7882L189.821 61.9336C189.595 62.8203 189.346 63.6432 189.074 64.4023C188.801 65.1521 188.495 65.8996 188.156 66.6448L187.763 66.4488C188.154 66.1584 188.577 65.9311 189.033 65.7669C189.497 65.5927 189.967 65.4883 190.442 65.4538C191.214 65.3975 191.847 65.5387 192.34 65.8771C192.841 66.2149 193.229 66.7903 193.504 67.6032C193.778 68.4068 193.963 69.4788 194.061 70.8192L192.385 70.9412ZM192.452 73.7859C191.018 73.8902 189.881 73.7531 189.039 73.3745C188.198 73.0052 187.749 72.4343 187.693 71.6617C187.654 71.1217 187.82 70.5762 188.192 70.0252C188.563 69.4647 189.117 68.9237 189.856 68.4021C190.604 67.8797 191.509 67.3834 192.569 66.9132C193.639 66.4423 194.853 66.0124 196.209 65.6236L196.56 66.9737C195.433 67.299 194.42 67.6488 193.52 68.0231C192.63 68.3967 191.868 68.7797 191.232 69.1722C190.605 69.5548 190.127 69.9358 189.799 70.3153C189.471 70.6947 189.319 71.052 189.344 71.3871C189.372 71.7781 189.646 72.067 190.165 72.2538C190.692 72.4307 191.426 72.4849 192.366 72.4165C192.943 72.3745 193.583 72.2905 194.285 72.1645C194.986 72.0293 195.741 71.8573 196.55 71.6488L196.875 73.0288C196.406 73.1472 195.909 73.2582 195.383 73.362C194.857 73.4658 194.339 73.5549 193.83 73.6294C193.33 73.7032 192.871 73.7554 192.452 73.7859ZM184.656 64.8361L184.559 63.5096L195.688 62.6997L195.784 64.0262L184.656 64.8361ZM200.137 73.4933L199.08 72.2788C199.662 71.7873 200.145 71.2234 200.529 70.5872C200.922 69.9502 201.203 69.2467 201.372 68.4764C201.55 67.7055 201.606 66.8685 201.54 65.9656L201.349 63.3405L199.911 63.4452L199.809 62.0489L204.557 61.7034L204.658 63.0997L202.983 63.2216L203.174 65.8467C203.229 66.61 203.191 67.3661 203.058 68.1151C202.935 68.8633 202.734 69.5798 202.457 70.2644C202.179 70.949 201.845 71.5676 201.455 72.12C201.064 72.6725 200.625 73.1302 200.137 73.4933ZM204.515 72.3184C204.054 71.6407 203.574 70.9551 203.074 70.2616C202.584 69.5673 202.079 68.8741 201.561 68.1819L202.767 67.3923C203.322 68.0818 203.844 68.7597 204.333 69.426C204.83 70.0916 205.298 70.7314 205.736 71.3452L204.515 72.3184ZM198.762 67.5293L198.658 66.0911L205.095 65.6227L205.199 67.0609L198.762 67.5293ZM199.823 65.7115L198.443 65.2645C198.696 64.6191 198.919 63.901 199.115 63.1101C199.31 62.3192 199.457 61.5084 199.555 60.6777L200.996 60.7975C200.91 61.6833 200.768 62.55 200.567 63.3974C200.366 64.2355 200.118 65.0069 199.823 65.7115ZM205.951 72.9578L205.11 61.3964L210.779 60.9838L211.62 72.5453L210.015 72.6621L209.956 71.8523L207.456 72.0342L207.355 70.6379L209.854 70.456L209.278 62.5389L206.778 62.7208L207.515 72.844L205.951 72.9578ZM58.0909 108.139C57.5044 108.181 57.0604 108.059 56.7588 107.773C56.4658 107.476 56.2942 106.983 56.2441 106.294L55.8732 101.197C55.8326 100.639 55.7329 100.234 55.5743 99.9839C55.4251 99.7328 55.2061 99.6177 54.9176 99.6387C54.7407 99.6516 54.5356 99.7273 54.3024 99.8659C54.0685 99.9953 53.7799 100.208 53.4365 100.504C53.1024 100.8 52.6963 101.199 52.2182 101.702C51.7394 102.195 51.1667 102.813 50.5001 103.554L50.3465 103.565C49.9846 103.994 49.575 104.473 49.1175 105.002C48.6694 105.53 48.1788 106.118 47.6456 106.765L46.6395 105.477C47.7384 104.246 48.6826 103.204 49.4721 102.351C50.2616 101.498 50.9406 100.798 51.5091 100.252C52.0775 99.705 52.5611 99.2768 52.9596 98.967C53.3675 98.6566 53.7306 98.4384 54.049 98.3122C54.3766 98.1855 54.6987 98.1106 55.0152 98.0875C55.7692 98.0326 56.354 98.224 56.7695 98.6617C57.1937 99.0894 57.4383 99.75 57.5033 100.644L57.8478 105.377C57.8722 105.712 57.9001 105.968 57.9316 106.143C57.9724 106.318 58.0185 106.436 58.0697 106.498C58.1297 106.55 58.2108 106.572 58.3132 106.565C58.4808 106.552 58.7048 106.48 58.9852 106.347C59.275 106.214 59.5892 106.032 59.9281 105.801L60.5065 107.191C60.1059 107.473 59.7009 107.694 59.2914 107.855C58.882 108.016 58.4819 108.11 58.0909 108.139ZM50.1756 109.318L49.5598 100.857L46.4321 101.084L46.3285 99.6602L49.4562 99.4326L49.3078 97.394L50.9275 97.2761L51.7953 109.201L50.1756 109.318ZM67.3322 108.014C65.9545 108.114 64.8677 107.968 64.0719 107.577C63.2854 107.185 62.8626 106.584 62.8037 105.774C62.7536 105.086 62.9985 104.53 63.5386 104.107C64.0873 103.674 64.8643 103.421 65.8696 103.348C66.8191 103.278 67.5441 103.403 68.0446 103.723C68.5444 104.033 68.8197 104.537 68.8705 105.235C68.8888 105.486 68.8712 105.759 68.8178 106.053C68.7736 106.346 68.6975 106.651 68.5896 106.968L67.0414 106.912C67.1487 106.586 67.2222 106.309 67.2618 106.082C67.3107 105.854 67.329 105.656 67.3168 105.488C67.2708 104.855 66.7823 104.573 65.8514 104.64C65.3767 104.675 65.0101 104.781 64.7517 104.959C64.5018 105.127 64.3874 105.355 64.4084 105.644C64.4369 106.035 64.6877 106.33 65.1607 106.529C65.6331 106.72 66.2603 106.786 67.0422 106.729C68.5409 106.62 69.6374 106.321 70.3316 105.83C71.0345 105.33 71.3527 104.624 71.2863 103.711C71.2301 102.939 70.9002 102.392 70.2967 102.071C69.7024 101.749 68.7816 101.634 67.5342 101.724C66.8175 101.777 66.1892 101.888 65.6495 102.058C65.1091 102.219 64.6156 102.447 64.1692 102.741L62.4033 103.937L61.6395 102.701L69.2495 97.7114L69.2688 97.9767L62.1616 98.4939L62.0589 97.0836L71.6097 96.3886L71.7123 97.7988L65.1717 102.051L64.2541 101.402C64.5353 101.278 64.8496 101.162 65.1973 101.052C65.5535 100.933 65.9158 100.832 66.2841 100.749C66.661 100.656 67.025 100.578 67.376 100.515C67.7263 100.442 68.0458 100.396 68.3344 100.375C69.7493 100.272 70.8554 100.491 71.6528 101.032C72.4502 101.573 72.8888 102.392 72.9688 103.491C73.0643 104.803 72.6211 105.851 71.6394 106.633C70.6669 107.415 69.2312 107.876 67.3322 108.014ZM81.7306 106.615C80.6415 106.694 79.6782 106.638 78.8408 106.446C78.0133 106.263 77.3602 105.969 76.8816 105.564C76.4115 105.149 76.1545 104.639 76.1105 104.034C76.0739 103.531 76.1932 102.985 76.4684 102.394C76.7522 101.793 77.1991 101.119 77.8092 100.373L79.3023 101.022C78.8017 101.602 78.4277 102.12 78.1803 102.578C77.9328 103.036 77.8206 103.423 77.8437 103.739C77.8674 104.065 78.0373 104.343 78.3535 104.573C78.679 104.802 79.1214 104.966 79.6808 105.066C80.2395 105.156 80.8865 105.174 81.6219 105.121C82.0873 105.087 82.5973 105.022 83.1517 104.925C83.7062 104.829 84.25 104.714 84.7831 104.582C85.3249 104.44 85.7962 104.293 86.1969 104.142L86.6408 105.612C86.24 105.763 85.7544 105.906 85.1841 106.041C84.6237 106.184 84.0383 106.307 83.428 106.407C82.827 106.507 82.2612 106.576 81.7306 106.615ZM76.3554 97.7557L76.2467 96.2617L85.5182 95.5869L85.6269 97.081L76.3554 97.7557ZM95.5843 105.831C93.8436 105.958 92.5021 105.784 91.5598 105.31C90.6169 104.827 90.1072 104.059 90.0306 103.007C89.9663 102.123 90.2382 101.293 90.8462 100.519C91.4536 99.7357 92.4328 98.9813 93.7837 98.256C95.1439 97.5301 96.9068 96.8075 99.0723 96.0884L99.572 97.554C97.7355 98.165 96.2302 98.7611 95.0559 99.3426C93.891 99.9233 93.0389 100.495 92.4997 101.059C91.9692 101.612 91.7252 102.182 91.7679 102.768C91.856 103.978 93.1241 104.494 95.5723 104.316C95.9726 104.287 96.3901 104.238 96.8249 104.169C97.2597 104.1 97.7447 104.013 98.2799 103.909C98.8236 103.794 99.4406 103.656 100.131 103.493L100.436 104.987C99.5623 105.2 98.7144 105.379 97.892 105.523C97.0796 105.676 96.3104 105.778 95.5843 105.831ZM92.4771 99.7829C92.1407 98.8903 91.8476 98.0132 91.5978 97.1518C91.3473 96.281 91.1346 95.4168 90.9599 94.5592L92.6312 94.1849C92.8152 95.0418 93.0318 95.8964 93.281 96.7485C93.5295 97.5914 93.8149 98.4269 94.1372 99.255L92.4771 99.7829ZM103.259 104.824C103.539 103.914 103.787 103.077 104.003 102.313C104.218 101.539 104.408 100.8 104.572 100.096C104.745 99.3908 104.894 98.678 105.02 97.9577C105.154 97.2367 105.272 96.4702 105.372 95.6581C105.472 94.846 105.566 93.9502 105.653 92.9706L107.286 93.0342C107.205 93.9759 107.115 94.8574 107.016 95.6788C106.916 96.4909 106.795 97.2764 106.654 98.0353C106.521 98.7842 106.365 99.5349 106.186 100.287C106.016 101.039 105.815 101.816 105.584 102.619C105.361 103.421 105.106 104.282 104.817 105.202L103.259 104.824ZM114.436 102.171C114.312 101.619 114.157 101.031 113.971 100.408C113.794 99.7756 113.594 99.1445 113.37 98.5151C113.147 97.8856 112.915 97.2802 112.677 96.6986L114.193 96.1251C114.433 96.7252 114.666 97.3493 114.891 97.9973C115.124 98.6354 115.335 99.2798 115.523 99.9306C115.71 100.572 115.871 101.187 116.008 101.776L114.436 102.171ZM112.509 95.9388C112.23 95.4444 111.959 95.0056 111.697 94.6222C111.435 94.2389 111.146 93.8622 110.829 93.4923L111.939 92.7377C112.266 93.1163 112.562 93.5112 112.825 93.9225C113.099 94.3331 113.37 94.7812 113.639 95.267L112.509 95.9388ZM114.41 95.0565C114.149 94.5515 113.892 94.1069 113.639 93.7229C113.386 93.3296 113.11 92.9519 112.813 92.5899L113.898 91.8793C114.226 92.2672 114.517 92.6671 114.771 93.079C115.035 93.4903 115.293 93.9441 115.544 94.4405L114.41 95.0565ZM109.903 104.494C109.661 104.512 109.356 104.502 108.988 104.463C108.621 104.433 108.233 104.377 107.825 104.295C107.427 104.221 107.041 104.132 106.669 104.028L106.943 102.59C107.257 102.661 107.566 102.732 107.871 102.804C108.184 102.865 108.469 102.914 108.724 102.952C108.988 102.98 109.19 102.988 109.329 102.978C109.627 102.956 109.864 102.804 110.04 102.519C110.215 102.226 110.328 101.782 110.378 101.189C110.437 100.586 110.433 99.819 110.365 98.8882C110.326 98.3482 110.276 97.9167 110.215 97.5937C110.153 97.2612 110.056 97.0157 109.923 96.8569C109.799 96.6975 109.618 96.5983 109.382 96.5594C109.145 96.5205 108.831 96.5153 108.44 96.5437L102.52 96.9746L102.414 95.5224L108.181 95.1027C108.823 95.056 109.36 95.045 109.793 95.0696C110.234 95.0844 110.585 95.157 110.847 95.2877C111.119 95.4176 111.331 95.6315 111.484 95.9292C111.645 96.2169 111.762 96.6107 111.836 97.1107C111.919 97.6007 111.987 98.218 112.041 98.9627C112.129 100.173 112.114 101.18 111.994 101.984C111.875 102.788 111.639 103.4 111.286 103.818C110.941 104.227 110.48 104.452 109.903 104.494ZM122.683 104.393L122.403 100.539L117.153 100.921L117.052 99.5385L122.302 99.1564L122.249 98.4304L121.579 98.4791L121.489 97.2364L124.533 97.0149L124.456 95.9537L121.412 96.1752L121.323 94.9604L124.367 94.7389L124.295 93.7475L121.251 93.9691L121.579 98.4791L119.96 98.597L119.536 92.7744L125.819 92.3171L126.243 98.1397L123.953 98.3064L124.006 99.0325L129.256 98.6504L129.356 100.033L124.106 100.415L124.387 104.269L122.683 104.393ZM117.56 104.583L116.846 103.259C118.11 102.756 119.19 102.237 120.087 101.704C120.984 101.171 121.721 100.626 122.299 100.069L123.344 100.737C122.72 101.428 121.927 102.099 120.964 102.749C120 103.399 118.866 104.011 117.56 104.583ZM117.099 99.0297L116.415 97.732C116.949 97.4779 117.449 97.2169 117.916 96.949C118.393 96.6803 118.827 96.4101 119.219 96.1383L119.927 97.3782C119.526 97.66 119.088 97.9399 118.612 98.2178C118.146 98.495 117.642 98.7657 117.099 99.0297ZM129.484 103.715C128.109 103.338 126.898 102.897 125.851 102.393C124.803 101.889 123.921 101.341 123.204 100.747L124.142 99.935C124.793 100.402 125.601 100.835 126.566 101.232C127.531 101.63 128.675 101.987 129.999 102.302L129.484 103.715ZM118.687 95.5734C118.359 95.3165 117.983 95.0397 117.559 94.743C117.144 94.4364 116.696 94.1368 116.217 93.8441L117.096 92.6151C117.566 92.9084 118.014 93.208 118.439 93.514C118.863 93.82 119.24 94.1061 119.568 94.3723L118.687 95.5734ZM123.002 93.5328L121.289 93.5311C121.369 93.2165 121.444 92.8929 121.513 92.5603C121.583 92.2277 121.646 91.8722 121.703 91.4938L123.413 91.4675C123.356 91.846 123.294 92.2061 123.225 92.548C123.156 92.8899 123.082 93.2182 123.002 93.5328ZM129.037 98.147C128.58 97.9182 128.102 97.705 127.601 97.5075C127.099 97.3007 126.575 97.1096 126.029 96.9341L126.606 95.6007C127.18 95.7742 127.717 95.9596 128.218 96.1571C128.728 96.3446 129.201 96.5488 129.638 96.7697L129.037 98.147ZM127.049 94.9368L125.977 93.9059C126.365 93.5782 126.747 93.2369 127.124 92.8819C127.499 92.5177 127.848 92.1648 128.169 91.8232L129.254 92.8392C128.959 93.1601 128.624 93.5027 128.248 93.8669C127.871 94.2219 127.472 94.5785 127.049 94.9368ZM137.206 102.774C136.145 102.851 135.262 102.747 134.559 102.462C133.865 102.185 133.33 101.713 132.954 101.048C132.587 100.383 132.364 99.5097 132.286 98.4299L131.791 91.6299L133.495 91.5059L133.989 98.3059C134.069 99.395 134.354 100.17 134.846 100.63C135.338 101.081 136.086 101.27 137.091 101.196C137.827 101.143 138.464 100.961 139.003 100.65C139.551 100.339 140.031 99.8642 140.443 99.2259C140.864 98.5777 141.251 97.7306 141.606 96.6848L143.201 97.2004C142.897 98.1583 142.554 98.9787 142.173 99.6615C141.801 100.334 141.379 100.894 140.906 101.34C140.442 101.776 139.904 102.11 139.294 102.342C138.684 102.573 137.988 102.717 137.206 102.774ZM148.898 101.601C148.423 101.635 147.975 101.523 147.554 101.263C147.132 100.994 146.753 100.606 146.416 100.097C146.08 99.5877 145.802 98.981 145.582 98.2764C145.371 97.5619 145.235 96.7857 145.174 95.9479C145.124 95.2684 145.128 94.5475 145.185 93.7854C145.25 93.0133 145.374 92.1995 145.555 91.3441L147.202 91.4207C147.045 92.2089 146.935 92.9562 146.874 93.6624C146.813 94.3687 146.805 95.029 146.85 95.6434C146.893 96.2299 146.98 96.7804 147.111 97.2949C147.242 97.8094 147.4 98.2564 147.587 98.6358C147.783 99.0146 147.992 99.3082 148.213 99.5167C148.443 99.7246 148.675 99.82 148.907 99.8031C149.131 99.7868 149.366 99.6761 149.613 99.471C149.869 99.2558 150.125 98.9752 150.38 98.6291C150.636 98.2829 150.869 97.8916 151.081 97.4551C151.302 97.0179 151.479 96.5652 151.614 96.0969L153.162 96.7421C152.976 97.3921 152.73 98.0042 152.426 98.5785C152.121 99.1527 151.775 99.6646 151.386 100.114C151.007 100.553 150.602 100.901 150.171 101.157C149.741 101.422 149.317 101.57 148.898 101.601ZM155.809 99.736C155.731 98.6748 155.58 97.6237 155.355 96.5826C155.138 95.5409 154.856 94.5461 154.506 93.5983C154.165 92.6499 153.775 91.7846 153.334 91.0025L154.851 90.429C155.341 91.2449 155.762 92.1454 156.114 93.1304C156.475 94.1054 156.77 95.1414 157 96.2383C157.238 97.3252 157.4 98.4504 157.484 99.614L155.809 99.736ZM161.607 101.49C161.123 101.525 160.688 101.454 160.3 101.276C159.922 101.098 159.618 100.834 159.387 100.486C159.165 100.137 159.036 99.7164 159 99.223C158.965 98.7389 159.032 98.3083 159.201 97.931C159.378 97.5438 159.642 97.2392 159.99 97.0173C160.348 96.7854 160.769 96.6518 161.253 96.6166C161.746 96.5807 162.182 96.6519 162.56 96.8303C162.937 96.9994 163.241 97.2626 163.473 97.6201C163.705 97.9682 163.838 98.3843 163.873 98.8683C163.909 99.3617 163.838 99.7974 163.659 100.175C163.481 100.553 163.218 100.858 162.87 101.089C162.521 101.32 162.101 101.454 161.607 101.49ZM161.526 100.176C161.861 100.152 162.123 100.03 162.313 99.81C162.503 99.5903 162.586 99.3083 162.56 98.9639C162.536 98.6288 162.414 98.3663 162.194 98.1764C161.975 97.9865 161.697 97.9037 161.362 97.9281C161.018 97.9532 160.751 98.0756 160.561 98.2953C160.371 98.515 160.288 98.7924 160.312 99.1275C160.338 99.4719 160.46 99.739 160.68 99.9289C160.899 100.119 161.181 100.201 161.526 100.176ZM174.025 100.46L172.968 99.2452C173.55 98.7536 174.033 98.1898 174.417 97.5535C174.811 96.9166 175.092 96.213 175.26 95.4428C175.438 94.6718 175.494 93.8349 175.429 92.9319L175.238 90.3069L173.799 90.4116L173.698 89.0152L178.445 88.6698L178.547 90.0661L176.871 90.188L177.062 92.8131C177.118 93.5764 177.079 94.3325 176.947 95.0814C176.823 95.8297 176.623 96.5461 176.345 97.2308C176.067 97.9154 175.733 98.5339 175.343 99.0864C174.953 99.6388 174.514 100.097 174.025 100.46ZM178.404 99.2848C177.943 98.6071 177.462 97.9215 176.962 97.2279C176.472 96.5337 175.968 95.8405 175.45 95.1483L176.655 94.3587C177.211 95.0482 177.733 95.7261 178.221 96.3924C178.719 97.058 179.186 97.6978 179.624 98.3116L178.404 99.2848ZM172.651 94.4957L172.546 93.0575L178.983 92.5891L179.088 94.0272L172.651 94.4957ZM173.712 92.6779L172.332 92.2309C172.584 91.5855 172.808 90.8674 173.003 90.0765C173.198 89.2856 173.345 88.4748 173.444 87.6441L174.884 87.7638C174.799 88.6497 174.656 89.5164 174.456 90.3638C174.255 91.2019 174.007 91.9733 173.712 92.6779ZM179.84 99.9242L178.998 88.3628L184.667 87.9502L185.509 99.5117L183.903 99.6285L183.844 98.8187L181.345 99.0005L181.243 97.6042L183.742 97.4223L183.166 89.5053L180.667 89.6872L181.404 99.8104L179.84 99.9242ZM197.722 97.9772C197.135 98.0198 196.691 97.8978 196.39 97.6109C196.097 97.314 195.925 96.8212 195.875 96.1323L195.504 91.0358C195.463 90.4773 195.364 90.0728 195.205 89.8223C195.056 89.5712 194.837 89.4561 194.548 89.4771C194.371 89.4899 194.166 89.5657 193.933 89.7043C193.699 89.8336 193.411 90.0465 193.067 90.3429C192.733 90.6386 192.327 91.0377 191.849 91.5404C191.37 92.0338 190.797 92.651 190.131 93.392L189.977 93.4032C189.615 93.8319 189.206 94.3109 188.748 94.8402C188.3 95.3688 187.809 95.9566 187.276 96.6037L186.27 95.3153C187.369 94.0843 188.313 93.0424 189.103 92.1895C189.892 91.3366 190.571 90.6368 191.14 90.0901C191.708 89.5434 192.192 89.1152 192.59 88.8054C192.998 88.495 193.361 88.2767 193.68 88.1506C194.007 88.0238 194.329 87.9489 194.646 87.9259C195.4 87.871 195.985 88.0624 196.4 88.5001C196.824 88.9277 197.069 89.5884 197.134 90.482L197.479 95.2155C197.503 95.5506 197.531 95.8059 197.562 95.9815C197.603 96.1563 197.649 96.2746 197.7 96.3364C197.76 96.3882 197.842 96.4103 197.944 96.4029C198.111 96.3907 198.335 96.3182 198.616 96.1855C198.906 96.0521 199.22 95.8702 199.559 95.6397L200.137 97.0293C199.737 97.3112 199.332 97.5325 198.922 97.6933C198.513 97.8541 198.113 97.9487 197.722 97.9772ZM189.806 99.1568L189.191 90.6952L186.063 90.9228L185.959 89.4986L189.087 89.2709L188.939 87.2323L190.558 87.1144L191.426 99.0389L189.806 99.1568ZM207.393 97.5961C206.388 97.6693 205.585 97.5031 204.985 97.0977C204.393 96.6822 204.068 96.0695 204.009 95.2596C203.949 94.4312 204.182 93.7732 204.708 93.2857C205.234 92.7983 206.004 92.5176 207.019 92.4438C207.465 92.4113 207.893 92.4363 208.301 92.5189C208.718 92.5914 209.155 92.7468 209.613 92.9849C210.07 93.223 210.59 93.5595 211.174 93.9942C211.757 94.4197 212.438 94.9691 213.217 95.6423L212.278 96.8196C211.568 96.1974 210.956 95.6899 210.441 95.2969C209.925 94.8946 209.476 94.5857 209.096 94.3701C208.715 94.1545 208.363 94.0116 208.04 93.9416C207.716 93.8622 207.382 93.8351 207.037 93.8601C205.958 93.9387 205.446 94.369 205.503 95.1509C205.559 95.9235 206.127 96.2706 207.207 96.192C207.784 96.15 208.185 95.9992 208.409 95.7395C208.642 95.4699 208.738 95.0512 208.697 94.4833L208.284 88.8143L207.893 88.8428L207.683 85.9524L209.303 85.8345L209.513 88.7249L209.904 88.6964L210.322 94.4353C210.393 95.4127 210.181 96.1674 209.686 96.6994C209.191 97.222 208.427 97.521 207.393 97.5961ZM201.673 98.2651C201.361 97.3239 201.116 96.392 200.936 95.4692C200.757 94.5465 200.629 93.5638 200.553 92.5213C200.478 91.488 200.463 90.5065 200.507 89.5768C200.551 88.6378 200.659 87.6801 200.832 86.7037L202.494 86.7932C202.337 87.7124 202.235 88.6322 202.19 89.5526C202.153 90.463 202.171 91.4116 202.243 92.3983C202.314 93.385 202.435 94.3308 202.604 95.2356C202.782 96.1397 203.015 97.0258 203.302 97.8939L201.673 98.2651ZM203.659 89.8668L203.556 88.4566L212.436 87.8103L212.539 89.2206L203.659 89.8668ZM210.237 87.6756C210.121 87.2349 209.997 86.8181 209.865 86.4253C209.734 86.0325 209.584 85.641 209.415 85.2509L210.69 84.8352C210.877 85.224 211.037 85.6194 211.169 86.0216C211.302 86.4237 211.422 86.8594 211.531 87.3287L210.237 87.6756ZM212.167 87.3808C212.059 86.93 211.939 86.5083 211.808 86.1155C211.686 85.722 211.54 85.3302 211.371 84.94L212.663 84.5513C212.831 84.9414 212.977 85.3425 213.101 85.7546C213.233 86.1568 213.349 86.5882 213.448 87.0489L212.167 87.3808ZM50.1722 134.539L49.1153 133.325C49.6971 132.833 50.1802 132.269 50.5643 131.633C50.9578 130.996 51.2388 130.293 51.4073 129.522C51.5852 128.751 51.6413 127.914 51.5755 127.011L51.3845 124.386L49.9463 124.491L49.8447 123.095L54.5921 122.749L54.6937 124.146L53.0182 124.268L53.2092 126.893C53.2648 127.656 53.2262 128.412 53.0936 129.161C52.9702 129.909 52.7697 130.626 52.492 131.31C52.2143 131.995 51.8803 132.613 51.49 133.166C51.0998 133.718 50.6605 134.176 50.1722 134.539ZM54.5505 133.364C54.0894 132.687 53.6091 132.001 53.1094 131.307C52.6191 130.613 52.1147 129.92 51.5965 129.228L52.8023 128.438C53.3578 129.128 53.8798 129.806 54.3681 130.472C54.8657 131.138 55.3334 131.777 55.7711 132.391L54.5505 133.364ZM48.7977 128.575L48.693 127.137L55.13 126.669L55.2347 128.107L48.7977 128.575ZM49.8586 126.757L48.4785 126.31C48.731 125.665 48.9548 124.947 49.1499 124.156C49.345 123.365 49.4919 122.554 49.5905 121.724L51.031 121.843C50.9457 122.729 50.8029 123.596 50.6026 124.443C50.4015 125.281 50.1535 126.053 49.8586 126.757ZM55.9867 134.004L55.1453 122.442L60.8143 122.03L61.6557 133.591L60.0499 133.708L59.991 132.898L57.4916 133.08L57.39 131.684L59.8894 131.502L59.3132 123.585L56.8138 123.767L57.5506 133.89L55.9867 134.004ZM69.1468 132.948C67.7691 133.048 66.6823 132.903 65.8865 132.511C65.1 132.119 64.6772 131.518 64.6183 130.709C64.5682 130.02 64.8131 129.464 65.3532 129.041C65.9019 128.608 66.6789 128.355 67.6842 128.282C68.6337 128.213 69.3587 128.338 69.8592 128.657C70.359 128.967 70.6343 129.471 70.6851 130.169C70.7034 130.42 70.6858 130.693 70.6323 130.987C70.5882 131.28 70.5121 131.585 70.4042 131.902L68.856 131.846C68.9633 131.52 69.0368 131.243 69.0763 131.016C69.1252 130.788 69.1436 130.59 69.1314 130.422C69.0853 129.789 68.5969 129.507 67.666 129.574C67.1913 129.609 66.8247 129.715 66.5662 129.893C66.3164 130.061 66.202 130.289 66.223 130.578C66.2515 130.969 66.5022 131.264 66.9753 131.463C67.4477 131.654 68.0748 131.72 68.8568 131.663C70.3555 131.554 71.4519 131.255 72.1462 130.764C72.8491 130.264 73.1673 129.558 73.1009 128.645C73.0447 127.873 72.7148 127.326 72.1112 127.005C71.517 126.683 70.5962 126.568 69.3488 126.659C68.632 126.711 68.0038 126.822 67.464 126.992C66.9236 127.153 66.4302 127.381 65.9837 127.675L64.2178 128.871L63.4541 127.635L71.064 122.645L71.0833 122.911L63.9761 123.428L63.8735 122.018L73.4243 121.323L73.5269 122.733L66.9863 126.985L66.0687 126.336C66.3498 126.212 66.6642 126.096 67.0118 125.986C67.3681 125.867 67.7304 125.766 68.0987 125.683C68.4756 125.59 68.8396 125.512 69.1906 125.449C69.5409 125.377 69.8604 125.33 70.1489 125.309C71.5639 125.206 72.67 125.425 73.4674 125.966C74.2647 126.507 74.7034 127.326 74.7833 128.425C74.8788 129.737 74.4357 130.785 73.4539 131.567C72.4815 132.349 71.0457 132.81 69.1468 132.948ZM84.0789 131.552C83.0735 131.625 82.2807 131.468 81.7003 131.08C81.1292 130.691 80.8152 130.105 80.7583 129.323C80.7014 128.541 80.9283 127.931 81.4391 127.491C81.9585 127.042 82.7209 126.78 83.7262 126.707C84.201 126.673 84.6469 126.692 85.0639 126.764C85.481 126.837 85.9077 126.979 86.3442 127.19C86.79 127.401 87.2802 127.707 87.8147 128.108C88.3579 128.499 88.9789 128.997 89.678 129.601L88.7329 130.694C88.1037 130.15 87.5515 129.699 87.0763 129.341C86.601 128.982 86.1737 128.705 85.7944 128.508C85.4244 128.31 85.0731 128.177 84.7405 128.107C84.4173 128.037 84.0834 128.015 83.739 128.04C82.743 128.112 82.2707 128.502 82.3222 129.21C82.3723 129.898 82.8721 130.208 83.8216 130.139C84.3801 130.099 84.7669 129.949 84.9821 129.69C85.1965 129.422 85.2827 128.999 85.2407 128.422L84.7651 121.887L80.3528 122.208L80.2502 120.798L88.642 120.187L88.7446 121.597L86.343 121.772L86.8246 128.391C86.8971 129.387 86.7089 130.144 86.2601 130.664C85.8206 131.182 85.0935 131.478 84.0789 131.552ZM80.5804 125.336L80.4798 123.953L88.8716 123.343L88.9722 124.725L80.5804 125.336ZM78.3822 132.163C78.089 131.221 77.8527 130.288 77.6732 129.365C77.4938 128.443 77.3661 127.46 77.2902 126.417C77.2151 125.384 77.1998 124.403 77.2444 123.473C77.2884 122.534 77.3872 121.577 77.5408 120.602L79.1897 120.692C79.032 121.612 78.9352 122.531 78.8992 123.451C78.8625 124.361 78.88 125.31 78.9519 126.297C79.0237 127.283 79.144 128.229 79.3127 129.134C79.4815 130.039 79.7098 130.925 79.9976 131.793L78.3822 132.163ZM97.046 130.931C95.3053 131.058 93.9658 130.912 93.0276 130.494C92.0901 130.085 91.5831 129.354 91.5066 128.303C91.4463 127.474 91.7126 126.697 92.3054 125.97C92.9069 125.234 93.8662 124.528 95.1832 123.852C96.5096 123.175 98.2336 122.498 100.355 121.819L100.854 123.271C99.0713 123.85 97.6095 124.401 96.4684 124.924C95.3366 125.446 94.5041 125.965 93.9709 126.481C93.4462 126.987 93.2028 127.501 93.2408 128.022C93.2841 128.618 93.6178 129.024 94.2419 129.241C94.8745 129.447 95.8052 129.506 97.034 129.416C97.4343 129.387 97.8521 129.343 98.2876 129.283C98.7224 129.214 99.2074 129.127 99.7426 129.023C100.287 128.918 100.905 128.788 101.595 128.635L101.914 130.114C101.031 130.328 100.178 130.502 99.3547 130.637C98.5417 130.78 97.7721 130.879 97.046 130.931ZM93.9388 124.883C93.6024 123.99 93.3093 123.113 93.0595 122.252C92.809 121.381 92.5963 120.517 92.4216 119.659L94.0929 119.285C94.2769 120.142 94.4935 120.996 94.7427 121.849C94.9912 122.692 95.2766 123.527 95.5988 124.355L93.9388 124.883ZM99.5064 121.727C99.2278 121.242 98.9575 120.807 98.6957 120.424C98.4332 120.031 98.1437 119.655 97.8274 119.294L98.9226 118.527C99.2496 118.905 99.545 119.3 99.8089 119.711C100.082 120.122 100.358 120.57 100.637 121.055L99.5064 121.727ZM101.455 120.925C101.203 120.419 100.946 119.975 100.685 119.591C100.431 119.198 100.156 118.82 99.8581 118.458L100.943 117.748C101.271 118.136 101.567 118.535 101.831 118.947C102.095 119.358 102.352 119.812 102.604 120.308L101.455 120.925ZM108.232 130.328C107.762 129.791 107.263 129.294 106.734 128.837C106.204 128.37 105.634 127.944 105.026 127.557L106.088 126.329C106.697 126.734 107.282 127.183 107.842 127.675C108.401 128.159 108.926 128.687 109.417 129.259L108.232 130.328ZM125.058 128.724C123.996 128.802 123.114 128.697 122.41 128.412C121.716 128.135 121.181 127.664 120.805 126.999C120.439 126.333 120.216 125.46 120.137 124.38L119.643 117.58L121.346 117.456L121.841 124.256C121.92 125.345 122.206 126.12 122.698 126.58C123.189 127.031 123.938 127.22 124.943 127.147C125.678 127.093 126.315 126.911 126.854 126.6C127.402 126.289 127.883 125.814 128.295 125.176C128.715 124.528 129.103 123.681 129.457 122.635L131.053 123.151C130.748 124.109 130.406 124.929 130.025 125.612C129.653 126.284 129.23 126.844 128.757 127.29C128.293 127.726 127.756 128.06 127.146 128.292C126.536 128.523 125.84 128.668 125.058 128.724ZM134.364 128.145L132.873 127.72L136.57 116.025L138.139 116.36L136.146 122.541L135.605 122.244C136.043 121.828 136.487 121.496 136.936 121.249C137.396 121 137.849 120.859 138.295 120.827C138.64 120.802 138.943 120.854 139.205 120.985C139.467 121.106 139.696 121.3 139.893 121.567C140.09 121.824 140.263 122.143 140.412 122.526C140.571 122.907 140.72 123.345 140.859 123.841C140.971 124.226 141.08 124.559 141.184 124.842C141.298 125.123 141.431 125.338 141.582 125.486C141.743 125.634 141.939 125.699 142.172 125.682C142.582 125.652 142.93 125.36 143.217 124.806C143.504 124.242 143.749 123.368 143.953 122.184L145.454 122.566C145.288 123.617 145.065 124.484 144.788 125.169C144.509 125.844 144.158 126.356 143.734 126.705C143.311 127.064 142.807 127.264 142.22 127.307C141.82 127.336 141.47 127.291 141.172 127.173C140.882 127.053 140.625 126.866 140.401 126.611C140.176 126.356 139.976 126.043 139.799 125.672C139.631 125.292 139.478 124.863 139.34 124.386C139.218 123.983 139.089 123.637 138.956 123.347C138.832 123.057 138.68 122.839 138.501 122.693C138.332 122.546 138.112 122.482 137.842 122.502C137.665 122.515 137.463 122.567 137.236 122.659C137.008 122.75 136.78 122.893 136.551 123.087C136.33 123.272 136.119 123.521 135.917 123.835C135.715 124.14 135.541 124.518 135.396 124.968L134.364 128.145ZM152.898 126.867C151.158 126.993 149.818 126.848 148.88 126.429C147.942 126.02 147.435 125.29 147.359 124.238C147.299 123.409 147.565 122.632 148.158 121.906C148.759 121.17 149.718 120.463 151.036 119.787C152.362 119.111 154.086 118.433 156.208 117.755L156.706 119.206C154.924 119.785 153.462 120.336 152.321 120.859C151.189 121.381 150.356 121.9 149.823 122.416C149.298 122.922 149.055 123.436 149.093 123.957C149.136 124.553 149.47 124.959 150.094 125.176C150.727 125.382 151.658 125.441 152.886 125.352C153.287 125.323 153.704 125.278 154.14 125.218C154.575 125.149 155.06 125.062 155.595 124.958C156.139 124.853 156.757 124.724 157.448 124.571L157.766 126.049C156.883 126.263 156.03 126.438 155.207 126.572C154.394 126.716 153.624 126.814 152.898 126.867ZM149.791 120.818C149.455 119.926 149.162 119.049 148.912 118.187C148.661 117.316 148.449 116.452 148.274 115.595L149.945 115.22C150.129 116.077 150.346 116.932 150.595 117.784C150.843 118.627 151.129 119.462 151.451 120.29L149.791 120.818ZM155.359 117.662C155.08 117.177 154.81 116.743 154.548 116.359C154.285 115.967 153.996 115.59 153.68 115.229L154.775 114.462C155.102 114.84 155.397 115.235 155.661 115.647C155.934 116.057 156.21 116.505 156.489 116.99L155.359 117.662ZM157.308 116.86C157.056 116.355 156.799 115.91 156.537 115.527C156.284 115.133 156.008 114.756 155.71 114.394L156.796 113.683C157.123 114.071 157.419 114.471 157.683 114.882C157.947 115.293 158.205 115.747 158.456 116.243L157.308 116.86ZM164.675 125.518C164.201 125.553 163.753 125.441 163.331 125.181C162.909 124.912 162.53 124.523 162.194 124.015C161.857 123.506 161.579 122.899 161.359 122.194C161.148 121.48 161.012 120.704 160.951 119.866C160.902 119.186 160.906 118.465 160.962 117.703C161.028 116.931 161.151 116.117 161.332 115.262L162.98 115.339C162.822 116.127 162.713 116.874 162.652 117.58C162.591 118.287 162.583 118.947 162.628 119.561C162.67 120.148 162.757 120.698 162.888 121.213C163.019 121.727 163.178 122.174 163.365 122.554C163.561 122.932 163.769 123.226 163.99 123.435C164.221 123.642 164.452 123.738 164.685 123.721C164.908 123.705 165.144 123.594 165.391 123.389C165.647 123.174 165.902 122.893 166.158 122.547C166.413 122.201 166.647 121.81 166.858 121.373C167.079 120.936 167.257 120.483 167.391 120.015L168.94 120.66C168.753 121.31 168.508 121.922 168.203 122.496C167.899 123.071 167.553 123.582 167.164 124.032C166.784 124.471 166.379 124.819 165.949 125.075C165.519 125.34 165.094 125.488 164.675 125.518ZM171.586 123.654C171.509 122.593 171.358 121.542 171.132 120.501C170.916 119.459 170.633 118.464 170.283 117.516C169.943 116.568 169.553 115.703 169.112 114.92L170.628 114.347C171.118 115.163 171.539 116.063 171.892 117.048C172.253 118.023 172.548 119.059 172.778 120.156C173.016 121.243 173.177 122.368 173.262 123.532L171.586 123.654ZM186.056 124.777C185.73 124.8 185.401 124.707 185.067 124.498C184.743 124.287 184.438 123.949 184.151 123.483C183.865 123.018 183.609 122.405 183.386 121.644C183.171 120.883 183.011 119.968 182.905 118.9L175.7 119.424L175.605 118.112L184.485 117.465L184.518 117.912C184.578 118.741 184.664 119.469 184.775 120.097C184.895 120.715 185.026 121.235 185.169 121.655C185.311 122.065 185.446 122.374 185.573 122.58C185.701 122.786 185.811 122.885 185.904 122.879C185.932 122.877 185.959 122.861 185.985 122.831C186.01 122.791 186.032 122.715 186.052 122.601C186.071 122.478 186.086 122.299 186.097 122.064C186.118 121.829 186.132 121.519 186.142 121.135C186.151 120.741 186.153 120.254 186.148 119.674L187.575 119.809C187.596 120.856 187.578 121.704 187.522 122.354C187.475 122.994 187.389 123.486 187.265 123.832C187.14 124.178 186.975 124.415 186.769 124.542C186.573 124.678 186.335 124.756 186.056 124.777ZM175.662 125.645L174.872 124.439C176.129 123.833 177.309 123.078 178.413 122.174C179.526 121.261 180.483 120.265 181.284 119.186L182.483 120.039C181.931 120.81 181.291 121.544 180.566 122.242C179.849 122.94 179.077 123.577 178.248 124.152C177.42 124.727 176.557 125.225 175.662 125.645ZM182.295 124.98C181.414 124.314 180.604 123.732 179.866 123.234C179.128 122.735 178.426 122.29 177.761 121.899C177.106 121.507 176.448 121.152 175.789 120.835L176.53 119.644C177.228 119.977 177.914 120.339 178.589 120.73C179.263 121.121 179.974 121.574 180.723 122.091C181.48 122.597 182.305 123.192 183.197 123.876L182.295 124.98ZM175.41 118.14L174.064 117.382C174.583 116.679 175.037 115.902 175.424 115.051C175.82 114.189 176.121 113.315 176.328 112.43L177.915 112.637C177.698 113.636 177.371 114.609 176.935 115.558C176.507 116.497 175.999 117.358 175.41 118.14ZM177.016 117.054L176.924 115.798L185.232 115.193L185.324 116.45L177.016 117.054ZM176.706 114.915L176.606 113.547L185.905 112.87L186.005 114.238L176.706 114.915ZM198.272 123.86C198.113 123.871 197.88 123.879 197.572 123.882C197.273 123.895 196.923 123.906 196.521 123.917L196.352 122.553C196.707 122.546 197.02 122.538 197.29 122.527C197.561 122.517 197.757 122.507 197.878 122.499C198.12 122.481 198.291 122.459 198.392 122.433C198.493 122.398 198.549 122.328 198.56 122.224C198.571 122.121 198.568 121.948 198.55 121.706L198.361 119.108L193.167 119.486L193.066 118.104L198.26 117.726L198.174 116.539L192.98 116.917L192.879 115.535L196.077 115.302L195.974 113.892L193.126 114.099L193.028 112.759L195.877 112.552L195.776 111.169L197.452 111.047L197.552 112.43L200.289 112.23L200.386 113.571L197.65 113.77L197.752 115.18L200.978 114.946L201.078 116.328L199.85 116.417L199.936 117.604L201.165 117.515L201.265 118.897L200.037 118.987L200.22 121.5C200.257 122.012 200.263 122.414 200.237 122.706C200.222 123.006 200.149 123.232 200.02 123.381C199.891 123.54 199.683 123.649 199.398 123.707C199.122 123.774 198.746 123.825 198.272 123.86ZM188.639 120.532L188.42 119.074C188.898 118.946 189.383 118.798 189.876 118.631C190.379 118.464 190.862 118.288 191.326 118.104C191.799 117.92 192.23 117.739 192.62 117.561L192.945 118.941C192.547 119.129 192.097 119.321 191.597 119.517C191.106 119.711 190.605 119.898 190.093 120.075C189.582 120.253 189.097 120.405 188.639 120.532ZM190.381 124.406C190.25 124.415 190.068 124.419 189.834 124.417C189.61 124.424 189.334 124.43 189.007 124.435L188.84 123.1C189.13 123.098 189.377 123.094 189.583 123.088C189.798 123.082 189.956 123.075 190.059 123.068C190.133 123.062 190.184 123.049 190.21 123.028C190.246 123.007 190.261 122.95 190.254 122.857C190.256 122.754 190.248 122.591 190.232 122.367L189.74 115.609L188.218 115.72L188.117 114.323L189.639 114.213L189.471 111.909L191.105 111.79L191.272 114.094L192.613 113.996L192.714 115.393L191.374 115.49L191.858 122.137C191.894 122.639 191.904 123.031 191.887 123.313C191.88 123.604 191.826 123.823 191.725 123.971C191.624 124.128 191.463 124.233 191.242 124.287C191.031 124.34 190.744 124.379 190.381 124.406ZM195.88 122.63C195.538 122.299 195.172 121.961 194.782 121.615C194.391 121.269 194.008 120.946 193.63 120.646L194.646 119.561C195.032 119.851 195.42 120.169 195.81 120.515C196.201 120.861 196.562 121.205 196.896 121.545L195.88 122.63ZM208.841 122.501C208.413 122.532 207.951 122.547 207.455 122.546C206.958 122.544 206.461 122.529 205.963 122.5C205.475 122.479 205.014 122.442 204.58 122.39L204.651 120.869C205.35 120.949 206.055 121 206.768 121.023C207.49 121.046 208.145 121.035 208.731 120.993C209.96 120.903 210.882 120.649 211.497 120.23C212.112 119.811 212.395 119.252 212.344 118.554C212.3 117.958 212.039 117.523 211.561 117.249C211.092 116.975 210.424 116.869 209.559 116.932C208.814 116.986 208.116 117.163 207.464 117.463C206.821 117.763 206.138 118.22 205.416 118.834L203.936 118.366C204.134 117.874 204.326 117.303 204.513 116.653C204.699 115.994 204.874 115.312 205.038 114.608C205.201 113.894 205.334 113.211 205.436 112.558C205.538 111.895 205.599 111.325 205.62 110.846L207.275 110.824C207.259 111.237 207.214 111.712 207.141 112.251C207.077 112.789 206.991 113.348 206.883 113.926C206.784 114.495 206.67 115.046 206.541 115.579C206.41 116.104 206.281 116.572 206.151 116.983L205.839 116.739C206.457 116.358 207.085 116.059 207.725 115.844C208.364 115.629 209.019 115.497 209.689 115.449C210.555 115.386 211.305 115.467 211.939 115.692C212.582 115.917 213.085 116.268 213.447 116.747C213.819 117.226 214.03 117.814 214.081 118.512C214.165 119.666 213.755 120.59 212.851 121.282C211.946 121.966 210.61 122.372 208.841 122.501ZM202.557 114.269L202.454 112.859L214.239 112.001L214.342 113.412L202.557 114.269ZM51.0363 158.756C51.3163 157.847 51.5642 157.01 51.78 156.246C51.9951 155.472 52.1846 154.733 52.3486 154.029C52.5218 153.324 52.6712 152.611 52.7966 151.89C52.9312 151.169 53.0486 150.403 53.1486 149.591C53.2486 148.779 53.3424 147.883 53.4302 146.903L55.0632 146.967C54.982 147.909 54.8917 148.79 54.7924 149.612C54.6924 150.424 54.5718 151.209 54.4305 151.968C54.2978 152.717 54.1419 153.468 53.9627 154.22C53.7928 154.972 53.592 155.749 53.3604 156.552C53.138 157.354 52.8825 158.215 52.5938 159.134L51.0363 158.756ZM62.2132 156.104C62.0888 155.552 61.9337 154.964 61.748 154.341C61.571 153.708 61.3706 153.077 61.147 152.448C60.9234 151.818 60.6922 151.213 60.4534 150.631L61.9697 150.058C62.2099 150.658 62.4425 151.282 62.6675 151.93C62.9011 152.568 63.1117 153.213 63.2995 153.863C63.4865 154.505 63.6483 155.12 63.7847 155.709L62.2132 156.104ZM60.2858 149.872C60.0065 149.377 59.7359 148.938 59.4741 148.555C59.2122 148.172 58.9228 147.795 58.6058 147.425L59.7159 146.67C60.0429 147.049 60.3384 147.444 60.6023 147.855C60.8754 148.266 61.1467 148.714 61.416 149.2L60.2858 149.872ZM62.1867 148.989C61.9254 148.484 61.6685 148.04 61.4159 147.656C61.1627 147.262 60.8872 146.885 60.5895 146.523L61.6748 145.812C62.0025 146.2 62.2936 146.6 62.5482 147.012C62.812 147.423 63.0697 147.877 63.321 148.373L62.1867 148.989ZM57.6799 158.427C57.4379 158.445 57.133 158.434 56.7652 158.396C56.3981 158.366 56.0103 158.31 55.6019 158.228C55.2035 158.154 54.818 158.065 54.4455 157.961L54.7199 156.523C55.0338 156.594 55.3431 156.665 55.6478 156.736C55.9611 156.798 56.2454 156.847 56.5008 156.885C56.7649 156.912 56.9667 156.921 57.1063 156.911C57.4042 156.889 57.6411 156.736 57.8169 156.452C57.9921 156.159 58.1048 155.715 58.1552 155.122C58.2143 154.519 58.2099 153.752 58.1422 152.821C58.1029 152.281 58.0528 151.85 57.9918 151.526C57.9302 151.194 57.8328 150.948 57.6996 150.79C57.5757 150.63 57.3953 150.531 57.1586 150.492C56.9218 150.453 56.6079 150.448 56.2169 150.476L50.2966 150.907L50.1909 149.455L55.9577 149.035C56.6 148.989 57.1373 148.978 57.5695 149.002C58.0104 149.017 58.362 149.09 58.6241 149.22C58.8956 149.35 59.1077 149.564 59.2604 149.862C59.4217 150.15 59.5392 150.544 59.6131 151.043C59.6955 151.533 59.7638 152.151 59.818 152.895C59.9061 154.106 59.8905 155.113 59.7712 155.917C59.6519 156.721 59.4157 157.332 59.0625 157.751C58.7179 158.16 58.257 158.385 57.6799 158.427ZM67.2068 158.562L66.6733 151.232L64.3415 151.401L64.2409 150.019L66.5727 149.849L66.3685 147.043L67.9184 146.93L68.1226 149.736L70.3846 149.572L70.4852 150.954L68.2232 151.119L68.7567 158.449L67.2068 158.562ZM65.3484 156.943L64.3681 155.624C64.9721 154.794 65.465 153.916 65.8468 152.99C66.2286 152.064 66.4707 151.148 66.5733 150.242L67.5416 150.817C67.3937 152.129 67.1362 153.285 66.7692 154.285C66.4014 155.275 65.9278 156.161 65.3484 156.943ZM69.9955 155.411C69.5916 154.748 69.1738 154.086 68.742 153.425C68.3095 152.755 67.8731 152.094 67.4327 151.443L68.1026 150.426C68.6402 151.126 69.1628 151.813 69.6704 152.487C70.1773 153.152 70.6593 153.796 71.1163 154.417L69.9955 155.411ZM64.387 148.169L64.1669 146.88C64.7606 146.809 65.3666 146.713 65.9849 146.593C66.6024 146.464 67.2193 146.326 67.8356 146.178C68.4604 146.02 69.0614 145.855 69.6383 145.682L70.1626 146.907C69.6508 147.075 69.0828 147.243 68.4586 147.41C67.8338 147.568 67.18 147.713 66.4972 147.847C65.8138 147.972 65.1104 148.079 64.387 148.169ZM71.4432 157.945L70.6018 146.384L76.6618 145.943L77.5032 157.504L75.8835 157.622L75.8245 156.812L72.99 157.018L72.8884 155.622L75.7229 155.416L75.1467 147.499L72.3122 147.705L73.0489 157.828L71.4432 157.945ZM85.1364 156.499C84.6337 156.536 84.0875 156.552 83.4976 156.548C82.9178 156.553 82.3505 156.538 81.7959 156.504C81.2506 156.469 80.7558 156.42 80.3115 156.359L80.3594 154.896C80.9061 154.95 81.4567 154.994 82.0114 155.028C82.5753 155.062 83.115 155.084 83.6303 155.093C84.145 155.093 84.6118 155.078 85.0307 155.047C86.3525 154.951 87.339 154.683 87.9901 154.242C88.6412 153.802 88.9389 153.2 88.8834 152.437C88.8373 151.804 88.5651 151.342 88.0666 151.05C87.5675 150.75 86.8711 150.632 85.9774 150.697C85.3724 150.741 84.7677 150.855 84.1635 151.04C83.5593 151.224 82.9921 151.466 82.4618 151.767C81.9316 152.068 81.4652 152.41 81.0628 152.795L79.5474 152.611C79.625 152.006 79.6921 151.449 79.7486 150.94C79.8045 150.421 79.8487 149.936 79.8813 149.484C79.9133 149.023 79.937 148.577 79.9524 148.146L81.5812 148.153C81.5626 148.669 81.5314 149.205 81.4876 149.76C81.4524 150.306 81.399 150.857 81.3272 151.414L81.0614 151.041C81.5411 150.688 82.0434 150.389 82.5684 150.145C83.0927 149.892 83.6347 149.688 84.1944 149.535C84.7634 149.382 85.3551 149.282 85.9695 149.238C87.3937 149.134 88.4942 149.339 89.2709 149.854C90.0476 150.368 90.4763 151.179 90.5569 152.287C90.6484 153.543 90.2381 154.528 89.326 155.24C88.4133 155.943 87.0167 156.362 85.1364 156.499ZM88.5257 146.75C87.6513 146.823 86.8132 146.879 86.0113 146.919C85.2087 146.949 84.4048 146.961 83.5995 146.954C82.8035 146.946 81.9732 146.918 81.1087 146.868L81.1706 145.404C81.9686 145.439 82.7749 145.46 83.5895 145.466C84.4034 145.463 85.212 145.451 86.0153 145.43C86.8179 145.4 87.6194 145.356 88.42 145.297L88.5257 146.75ZM96.6747 155.533C96.1999 155.568 95.7519 155.455 95.3307 155.196C94.9087 154.927 94.5295 154.538 94.193 154.029C93.8565 153.521 93.5784 152.914 93.3587 152.209C93.1476 151.495 93.0116 150.718 92.9506 149.881C92.9011 149.201 92.9048 148.48 92.9617 147.718C93.0271 146.946 93.1504 146.132 93.3314 145.277L94.9793 145.353C94.8215 146.142 94.7121 146.889 94.6512 147.595C94.5903 148.301 94.5822 148.962 94.6269 149.576C94.6696 150.163 94.7564 150.713 94.8875 151.228C95.0185 151.742 95.1773 152.189 95.364 152.569C95.5601 152.947 95.7686 153.241 95.9896 153.449C96.22 153.657 96.4515 153.753 96.6843 153.736C96.9077 153.72 97.1429 153.609 97.39 153.404C97.6457 153.189 97.9014 152.908 98.1569 152.562C98.4125 152.216 98.646 151.824 98.8576 151.388C99.0784 150.951 99.256 150.498 99.3904 150.03L100.939 150.675C100.753 151.325 100.507 151.937 100.203 152.511C99.8982 153.086 99.5518 153.597 99.1634 154.047C98.7836 154.486 98.3784 154.834 97.9479 155.09C97.518 155.355 97.0936 155.503 96.6747 155.533ZM103.586 153.669C103.508 152.608 103.357 151.556 103.132 150.515C102.915 149.474 102.632 148.479 102.283 147.531C101.942 146.583 101.552 145.717 101.111 144.935L102.628 144.362C103.117 145.178 103.539 146.078 103.891 147.063C104.252 148.038 104.547 149.074 104.777 150.171C105.015 151.258 105.176 152.383 105.261 153.547L103.586 153.669ZM115.278 154.432C114.151 154.514 113.155 154.385 112.288 154.046C111.431 153.715 110.748 153.208 110.24 152.525C109.731 151.832 109.441 150.997 109.37 150.019C109.314 149.256 109.398 148.539 109.62 147.867C109.852 147.195 110.202 146.599 110.669 146.079C111.145 145.548 111.723 145.127 112.402 144.815L112.573 145.238L105.938 145.875L105.829 144.381L117.58 143.245L117.689 144.74L115.918 144.91C115.175 144.983 114.495 145.154 113.878 145.424C113.27 145.683 112.752 146.025 112.325 146.449C111.906 146.873 111.591 147.364 111.379 147.922C111.166 148.471 111.084 149.071 111.131 149.723C111.183 150.43 111.381 151.033 111.726 151.532C112.07 152.022 112.532 152.386 113.111 152.625C113.699 152.863 114.389 152.953 115.18 152.895C115.348 152.883 115.533 152.865 115.738 152.841C115.95 152.806 116.163 152.772 116.376 152.738C116.597 152.694 116.791 152.652 116.956 152.611L117.249 154.134C117.056 154.176 116.844 154.215 116.612 154.251C116.382 154.296 116.15 154.331 115.918 154.357C115.687 154.393 115.473 154.418 115.278 154.432ZM116.385 149.972C116.136 149.513 115.871 149.078 115.588 148.668C115.314 148.248 115.003 147.822 114.653 147.389L115.819 146.63C116.169 147.063 116.485 147.494 116.769 147.923C117.052 148.342 117.324 148.79 117.583 149.267L116.385 149.972ZM118.449 149.022C118.209 148.552 117.953 148.113 117.68 147.702C117.415 147.281 117.113 146.854 116.772 146.42L117.94 145.69C118.281 146.133 118.589 146.569 118.864 146.998C119.148 147.427 119.41 147.885 119.652 148.373L118.449 149.022ZM124.601 153.501C124.126 153.535 123.678 153.423 123.257 153.164C122.835 152.895 122.456 152.506 122.119 151.997C121.783 151.488 121.505 150.881 121.285 150.177C121.074 149.462 120.938 148.686 120.877 147.848C120.827 147.169 120.831 146.448 120.888 145.686C120.953 144.914 121.077 144.1 121.258 143.245L122.905 143.321C122.748 144.109 122.638 144.857 122.577 145.563C122.516 146.269 122.508 146.929 122.553 147.544C122.596 148.13 122.683 148.681 122.814 149.195C122.945 149.71 123.103 150.157 123.29 150.536C123.486 150.915 123.695 151.209 123.916 151.417C124.146 151.625 124.378 151.72 124.61 151.704C124.834 151.687 125.069 151.577 125.316 151.371C125.572 151.156 125.828 150.876 126.083 150.53C126.339 150.183 126.572 149.792 126.784 149.356C127.005 148.918 127.182 148.466 127.317 147.997L128.865 148.643C128.679 149.293 128.433 149.905 128.129 150.479C127.824 151.053 127.478 151.565 127.09 152.014C126.71 152.454 126.305 152.801 125.874 153.057C125.444 153.323 125.02 153.47 124.601 153.501ZM131.512 151.636C131.435 150.575 131.283 149.524 131.058 148.483C130.841 147.441 130.559 146.447 130.209 145.499C129.868 144.55 129.478 143.685 129.037 142.903L130.554 142.329C131.044 143.145 131.465 144.046 131.817 145.031C132.178 146.006 132.473 147.042 132.703 148.139C132.941 149.226 133.103 150.351 133.187 151.514L131.512 151.636ZM144.414 153.014C143.717 152.568 143.08 152.175 142.503 151.833C141.927 151.501 141.385 151.194 140.878 150.913C140.371 150.631 139.874 150.368 139.389 150.123C138.902 149.868 138.396 149.605 137.871 149.335C137.327 149.056 136.889 148.826 136.558 148.644C136.235 148.453 135.98 148.284 135.791 148.139C135.612 147.993 135.484 147.843 135.408 147.689C135.339 147.526 135.298 147.337 135.282 147.123C135.266 146.899 135.284 146.702 135.337 146.529C135.399 146.347 135.512 146.17 135.678 145.999C135.842 145.819 136.08 145.614 136.391 145.386C136.702 145.157 137.103 144.88 137.594 144.554C138.103 144.218 138.66 143.84 139.266 143.422C139.872 143.004 140.504 142.555 141.161 142.077C141.819 141.598 142.47 141.093 143.114 140.559L144.19 141.842C143.801 142.151 143.389 142.467 142.954 142.789C142.518 143.101 142.086 143.409 141.659 143.711C141.231 144.004 140.821 144.282 140.429 144.545C140.044 144.797 139.696 145.028 139.384 145.238C139.071 145.439 138.816 145.602 138.62 145.729C138.236 145.981 137.937 146.181 137.723 146.328C137.518 146.473 137.373 146.596 137.286 146.696C137.209 146.786 137.174 146.882 137.181 146.985C137.189 147.087 137.223 147.173 137.284 147.244C137.355 147.314 137.492 147.402 137.696 147.509C137.901 147.615 138.211 147.771 138.629 147.974C138.861 148.079 139.157 148.221 139.516 148.401C139.885 148.58 140.302 148.788 140.769 149.026C141.234 149.254 141.721 149.508 142.228 149.79C142.744 150.061 143.265 150.351 143.793 150.658C144.33 150.956 144.848 151.26 145.347 151.57L144.414 153.014Z" fill="#282828"/>
<path opacity="0.6" d="M53.2199 181.79C53.0588 179.576 53.8862 177.555 55.6016 175.83C55.7023 175.726 55.8305 175.669 55.9502 175.66C56.1775 175.644 56.4078 175.831 56.4243 176.059C56.4357 176.214 56.3837 176.326 56.2718 176.443C54.7991 178.03 54.1782 179.748 54.321 181.71C54.4638 183.673 55.3269 185.283 57.0139 186.64C57.1414 186.739 57.2091 186.842 57.2204 186.998C57.237 187.225 57.0364 187.444 56.809 187.461C56.6893 187.47 56.5541 187.431 56.4395 187.343C54.4925 185.885 53.381 184.005 53.2199 181.79ZM63.7493 182.937L63.6831 182.028L61.6484 182.176C61.3373 182.198 61.1616 181.934 61.1425 181.671C61.1225 181.396 61.2589 181.121 61.5701 181.099L67.267 180.684C67.5782 180.661 67.7538 180.925 67.7729 181.189C67.793 181.464 67.6566 181.738 67.3454 181.761L64.9756 181.934L65.0418 182.843L68.381 182.6C68.6922 182.578 68.8678 182.841 68.887 183.105C68.907 183.38 68.7706 183.655 68.4594 183.677L65.1202 183.92L65.277 186.075C65.3014 186.41 64.9913 186.613 64.6682 186.636C64.345 186.66 64.0088 186.504 63.9844 186.169L63.8276 184.014L61.0989 184.213C60.7877 184.236 60.6121 183.972 60.5929 183.708C60.5729 183.433 60.7093 183.158 61.0205 183.136L63.7493 182.937ZM62.5184 177.432L62.4096 175.936C62.3843 175.589 62.6952 175.398 63.0184 175.374C63.3415 175.351 63.6769 175.495 63.7021 175.842L63.811 177.338L65.8217 177.192C66.1568 177.167 66.2243 177.102 66.2086 176.887L66.1546 176.145C66.1293 175.798 66.4403 175.607 66.7754 175.582C67.0985 175.559 67.4339 175.703 67.4591 176.05L67.5288 177.007C67.588 177.821 67.226 178.136 66.1009 178.218L60.4997 178.626C59.3628 178.708 58.9708 178.448 58.9116 177.634L58.8419 176.677C58.8167 176.33 59.1276 176.139 59.4508 176.115C59.7739 176.092 60.1092 176.236 60.1345 176.583L60.1885 177.325C60.2042 177.54 60.2803 177.595 60.6274 177.57L62.5184 177.432ZM60.2537 179.378L68.0451 178.811C68.3562 178.788 68.5319 179.052 68.5519 179.327C68.5719 179.602 68.4364 179.889 68.1252 179.912L60.5253 180.465C60.1902 180.489 60.1014 180.592 60.1223 180.879L60.1772 181.633C60.3148 183.524 60.0065 185.075 59.4336 186.295C59.2989 186.594 59.0563 186.732 58.8169 186.749C58.4699 186.775 58.1284 186.547 58.1023 186.188C58.0945 186.08 58.1216 185.958 58.1839 185.821C58.7065 184.736 58.9782 183.345 58.8572 181.681L58.7927 180.795C58.7274 179.898 59.1167 179.46 60.2537 179.378ZM78.4948 184.848L72.8458 185.259C71.4814 185.358 70.8651 184.826 70.7867 183.749L70.346 177.693C70.2676 176.615 70.8003 175.999 72.1647 175.9L77.8137 175.489C79.1781 175.389 79.7944 175.922 79.8728 176.999L80.3135 183.055C80.4067 184.336 79.6677 184.763 78.4948 184.848ZM74.6558 180.868L71.9151 181.068L72.0893 183.461C72.1233 183.928 72.3398 184.093 72.9023 184.052L74.8771 183.908L74.6558 180.868ZM75.9484 180.774L76.1697 183.814L78.2641 183.662C78.8506 183.619 79.0179 183.438 78.9831 182.96L78.8089 180.566L75.9484 180.774ZM75.6627 176.848L75.8622 179.589L78.7226 179.381L78.5702 177.287C78.5354 176.808 78.3437 176.653 77.7572 176.696L75.6627 176.848ZM74.3702 176.943L72.3954 177.086C71.8089 177.129 71.6416 177.31 71.6764 177.788L71.8289 179.883L74.5696 179.683L74.3702 176.943ZM86.6829 175.349L91.6977 174.984C92.0328 174.959 92.2204 175.222 92.2413 175.51C92.2613 175.785 92.1147 176.084 91.7796 176.109L89.4218 176.28C90.2881 177.108 91.3577 177.752 92.4706 178.164C92.7793 178.274 92.9284 178.504 92.945 178.731C92.9685 179.054 92.7509 179.371 92.4038 179.396C92.3081 179.403 92.1986 179.387 92.0746 179.336C90.587 178.734 89.1381 177.673 88.0335 176.381L86.0348 176.527C85.1193 178.001 83.878 179.295 82.5745 180.232C82.4601 180.312 82.3421 180.345 82.2344 180.353C81.8993 180.377 81.6399 180.119 81.6181 179.82C81.6042 179.629 81.686 179.43 81.9149 179.269C82.9091 178.547 83.8074 177.663 84.5387 176.636L82.3844 176.792C82.0493 176.817 81.8608 176.542 81.8408 176.267C81.8199 175.979 81.9674 175.692 82.3025 175.667L85.2826 175.451C85.5146 175.001 85.7328 174.527 85.9134 174.033C86.0148 173.773 86.2344 173.649 86.4498 173.633C86.761 173.61 87.0887 173.815 87.1131 174.15C87.1192 174.234 87.1133 174.319 87.0724 174.418C86.9625 174.727 86.8296 175.049 86.6829 175.349ZM88.015 181.087L88.1953 183.565C88.2632 184.498 87.8602 184.912 86.8668 184.985C86.5198 185.01 86.2547 185.005 86.0247 184.986C85.6493 184.953 85.4626 184.702 85.4435 184.439C85.4217 184.139 85.6145 183.813 85.9855 183.786C86.0214 183.783 86.0693 183.779 86.106 183.789C86.2864 183.788 86.4557 183.799 86.5993 183.789C86.8267 183.772 86.8822 183.708 86.8666 183.493L86.6985 181.183L83.0242 181.45C82.701 181.474 82.5263 181.222 82.5062 180.947C82.4871 180.683 82.6235 180.409 82.9467 180.385L91.6955 179.748C92.0306 179.724 92.2054 179.976 92.2245 180.239C92.2446 180.515 92.1081 180.789 91.773 180.814L88.015 181.087ZM90.2 181.518C90.7127 181.95 91.3331 182.374 91.9988 182.758C92.2623 182.908 92.3729 183.104 92.3877 183.308C92.4112 183.631 92.1466 183.963 91.7875 183.989C91.6559 183.999 91.4968 183.962 91.3462 183.877C90.6035 183.425 89.8649 182.866 89.335 182.363C89.1929 182.229 89.1226 182.089 89.1122 181.946C89.0895 181.635 89.3585 181.362 89.6936 181.338C89.8492 181.327 90.0331 181.373 90.2 181.518ZM84.5518 181.941C84.6832 181.763 84.8575 181.678 85.0251 181.666C85.3482 181.642 85.6786 181.883 85.7021 182.206C85.7108 182.326 85.6734 182.473 85.5633 182.613C85.0828 183.286 84.3537 184.013 83.5995 184.561C83.4739 184.654 83.356 184.687 83.2363 184.695C82.8892 184.721 82.593 184.454 82.5712 184.154C82.5573 183.963 82.6502 183.752 82.8791 183.59C83.4838 183.137 84.0798 182.565 84.5518 181.941ZM88.9869 179.067L85.4682 179.323C85.1571 179.346 84.9703 179.095 84.9503 178.82C84.9311 178.556 85.0795 178.281 85.3907 178.258L88.9094 178.002C89.2326 177.979 89.4073 178.23 89.4265 178.494C89.4465 178.769 89.3101 179.044 88.9869 179.067ZM104.142 180.816L100.276 181.097C101.252 181.784 102.633 182.237 104.299 182.32C104.71 182.339 104.921 182.6 104.941 182.863C104.963 183.174 104.758 183.49 104.339 183.521C104.303 183.523 104.254 183.515 104.218 183.517C102.201 183.412 100.517 182.752 99.2346 181.666C98.4874 182.972 97.071 183.845 95.0232 184.307C94.9762 184.322 94.9403 184.325 94.9044 184.328C94.5333 184.355 94.3081 184.07 94.2872 183.783C94.2689 183.532 94.4062 183.269 94.7489 183.184C96.4634 182.77 97.5151 182.176 98.0739 181.257L94.7586 181.499C94.4475 181.521 94.2718 181.257 94.2527 180.994C94.2326 180.719 94.3691 180.444 94.6802 180.422L98.4982 180.144C98.533 179.961 98.5549 179.767 98.5778 179.584C98.6021 179.258 98.878 179.081 99.1653 179.06C99.4884 179.037 99.8255 179.205 99.8508 179.552C99.8534 179.588 99.856 179.624 99.8466 179.661C99.8323 179.794 99.8179 179.927 99.7907 180.05L104.063 179.739C104.375 179.716 104.549 179.968 104.569 180.243C104.589 180.507 104.453 180.793 104.142 180.816ZM99.6314 175.381L99.6811 176.063L102.589 175.851C102.889 175.83 103.062 176.07 103.082 176.333C103.1 176.584 102.964 176.859 102.664 176.881L99.756 177.092L99.81 177.834L104.095 177.523C104.394 177.501 104.569 177.753 104.588 178.016C104.607 178.279 104.471 178.554 104.171 178.576L94.3812 179.288C94.082 179.31 93.9192 179.057 93.9 178.794C93.8809 178.531 94.0053 178.257 94.3046 178.235L98.5533 177.926L98.4993 177.184L95.6628 177.39C95.3636 177.412 95.2008 177.159 95.1825 176.908C95.1634 176.645 95.2887 176.383 95.5879 176.361L98.4244 176.155L98.3748 175.472L94.7124 175.739C94.4132 175.761 94.2505 175.508 94.2322 175.256C94.213 174.993 94.3383 174.731 94.6375 174.71L97.1868 174.524C97.1363 174.492 97.0841 174.435 97.0319 174.379C96.8734 174.186 96.703 173.994 96.5344 173.826C96.4428 173.724 96.3871 173.62 96.3792 173.512C96.3583 173.225 96.6401 172.964 96.9513 172.941C97.1069 172.93 97.2668 172.978 97.408 173.1C97.5869 173.244 97.8095 173.492 97.9808 173.696C98.0724 173.798 98.1051 173.916 98.112 174.012C98.1251 174.191 98.0407 174.354 97.9049 174.472L99.4847 174.357C99.7286 173.906 99.9034 173.496 100.064 173.063C100.164 172.779 100.395 172.642 100.622 172.626C100.933 172.603 101.235 172.786 101.258 173.097C101.264 173.181 101.247 173.278 101.206 173.377C101.073 173.7 100.926 173.987 100.777 174.263L103.482 174.066C103.793 174.043 103.955 174.284 103.974 174.547C103.993 174.799 103.868 175.073 103.557 175.095L99.6314 175.381ZM112.641 178.068L112.651 178.043C112.055 177.461 111.587 176.821 111.11 176.049C109.799 176.386 108.043 176.718 107.408 176.764C107.001 176.794 106.762 176.474 106.738 176.151C106.717 175.864 106.875 175.552 107.269 175.511C108.271 175.39 109.41 175.175 110.498 174.915C110.214 174.31 109.953 173.703 109.741 173.105C109.725 173.058 109.71 173.011 109.707 172.963C109.68 172.604 110.023 172.351 110.37 172.325C110.633 172.306 110.906 172.419 111.013 172.736C111.213 173.335 111.453 173.979 111.75 174.583C112.645 174.326 113.466 174.037 114.108 173.762C114.189 173.72 114.284 173.701 114.356 173.696C114.739 173.668 115.026 173.972 115.049 174.295C115.067 174.534 114.941 174.784 114.602 174.929C113.983 175.191 113.209 175.464 112.373 175.705C112.876 176.511 113.563 177.351 114.531 178.255C114.686 178.4 114.759 178.575 114.771 178.743C114.798 179.102 114.546 179.445 114.163 179.473C114.091 179.478 114.005 179.46 113.92 179.442C112.975 179.186 112.08 179.119 111.122 179.189C109.674 179.294 109.215 179.773 109.263 180.431C109.313 181.113 109.885 181.529 111.668 181.399C112.159 181.363 112.54 181.312 112.92 181.248L113.004 181.242C113.423 181.211 113.662 181.519 113.685 181.842C113.706 182.129 113.548 182.429 113.144 182.507C112.753 182.583 112.312 182.64 111.785 182.678C109.344 182.856 107.984 182.028 107.874 180.52C107.78 179.228 108.704 178.198 111.026 178.029C111.672 177.982 112.155 178.007 112.641 178.068ZM121.782 176.536L121.807 176.546C122.138 176.306 122.49 176.184 122.873 176.156C123.974 176.076 124.62 176.691 124.84 178.552C124.995 179.852 125.295 180.01 125.75 179.977C126.289 179.938 126.709 179.438 127.049 178.319C127.146 177.999 127.399 177.836 127.662 177.817C128.021 177.791 128.399 178.028 128.427 178.411C128.433 178.495 128.416 178.592 128.388 178.702C127.886 180.399 127.045 181.243 125.753 181.337C124.508 181.427 123.693 180.813 123.46 178.772C123.326 177.591 123.129 177.353 122.638 177.388C122.004 177.434 121.4 178.068 120.902 179.331C120.679 179.901 120.385 180.656 120.164 181.25C120.052 181.535 119.81 181.685 119.559 181.703C119.2 181.729 118.822 181.504 118.795 181.121C118.789 181.037 118.806 180.952 118.835 180.853C119.704 178.24 120.988 174.885 122.179 172.236C122.292 171.975 122.524 171.85 122.763 171.833C123.146 171.805 123.536 172.041 123.562 172.4C123.569 172.496 123.552 172.593 123.511 172.693L121.782 176.536ZM130.213 181.12L139.312 169.918C139.411 169.803 139.525 169.71 139.633 169.702C139.944 169.68 140.226 169.912 140.243 170.151C140.253 170.283 140.213 170.406 140.102 170.535L131.004 181.737C130.904 181.852 130.79 181.945 130.682 181.952C130.371 181.975 130.09 181.743 130.072 181.504C130.063 181.372 130.102 181.249 130.213 181.12ZM147.876 172.868L147.134 172.922C146.872 173.615 146.558 174.264 146.214 174.83C146.064 175.082 145.856 175.193 145.652 175.208C145.317 175.232 145.012 175.002 144.987 174.667C144.978 174.535 145.015 174.388 145.1 174.238C145.776 173.106 146.339 171.585 146.62 169.988C146.68 169.659 146.933 169.496 147.208 169.476C147.543 169.452 147.893 169.631 147.92 169.99C147.924 170.05 147.915 170.098 147.908 170.159C147.825 170.67 147.695 171.197 147.54 171.714L151.896 171.397C152.231 171.372 152.421 171.659 152.441 171.947C152.463 172.246 152.317 172.545 151.981 172.57L149.145 172.776L149.233 173.985L151.387 173.828C151.71 173.805 151.899 174.08 151.92 174.367C151.941 174.654 151.794 174.954 151.471 174.977L149.317 175.134L149.406 176.367L151.608 176.206C151.932 176.183 152.12 176.458 152.141 176.745C152.162 177.032 152.015 177.332 151.692 177.355L149.49 177.516L149.663 179.897C149.688 180.244 149.39 180.447 149.067 180.47C148.756 180.493 148.42 180.337 148.395 179.99L147.876 172.868ZM143.671 180.382L143.259 174.733C143.079 175.059 142.885 175.373 142.689 175.652C142.547 175.855 142.362 175.953 142.182 175.966C141.835 175.991 141.491 175.728 141.466 175.38C141.455 175.237 141.493 175.09 141.601 174.925C142.461 173.684 143.203 171.813 143.565 170.174C143.639 169.856 143.891 169.693 144.167 169.673C144.526 169.647 144.901 169.848 144.929 170.231C144.934 170.291 144.927 170.364 144.908 170.438C144.71 171.354 144.352 172.391 143.93 173.36C144.219 173.375 144.483 173.525 144.506 173.836L144.975 180.287C144.999 180.61 144.688 180.801 144.365 180.824C144.029 180.849 143.694 180.705 143.671 180.382ZM158.099 169.67L158.048 168.964C158.023 168.629 158.335 168.45 158.67 168.425C158.993 168.402 159.328 168.534 159.352 168.869L159.404 169.575L162.396 169.357C163.497 169.277 163.907 169.62 163.963 170.398L164.019 171.164C164.044 171.499 163.733 171.69 163.398 171.715C163.074 171.738 162.727 171.595 162.703 171.26L162.662 170.698C162.645 170.47 162.542 170.381 162.243 170.403L155.469 170.896C155.17 170.918 155.081 171.021 155.098 171.248L155.142 171.858C155.166 172.182 154.855 172.373 154.52 172.397C154.196 172.421 153.849 172.277 153.826 171.954L153.766 171.14C153.71 170.362 154.066 169.964 155.167 169.883L158.099 169.67ZM159.595 172.533L159.344 172.551C159.085 172.799 158.825 173.034 158.552 173.247C159.951 174.288 160.663 175.644 160.768 177.08C160.903 178.935 160.325 179.591 159.212 179.672C158.853 179.698 158.636 179.69 158.332 179.651C157.98 179.605 157.818 179.364 157.8 179.113C157.779 178.825 157.972 178.499 158.331 178.472C158.367 178.47 158.414 178.466 158.451 178.476C158.657 178.497 158.886 178.504 159.102 178.489C159.389 178.468 159.599 178.212 159.522 177.159C159.511 177.003 159.489 176.86 159.466 176.717C158.151 177.824 156.478 178.812 154.85 179.412C154.78 179.441 154.709 179.458 154.649 179.462C154.302 179.488 154.077 179.215 154.057 178.94C154.041 178.712 154.156 178.475 154.437 178.371C156.171 177.727 157.775 176.792 159.096 175.601C159.011 175.427 158.903 175.266 158.795 175.094C157.623 176.021 156.212 176.81 154.844 177.355C154.774 177.384 154.703 177.401 154.643 177.405C154.308 177.43 154.073 177.17 154.052 176.883C154.037 176.679 154.14 176.443 154.421 176.339C155.674 175.862 157.03 175.15 158.111 174.301C157.969 174.167 157.815 174.034 157.662 173.913C156.767 174.508 155.803 174.987 154.831 175.358C154.749 175.388 154.678 175.405 154.607 175.411C154.248 175.437 154.013 175.189 153.993 174.914C153.977 174.698 154.092 174.462 154.397 174.355C155.569 173.921 156.708 173.369 157.62 172.677L156.016 172.793C155.705 172.816 155.53 172.564 155.512 172.313C155.493 172.049 155.63 171.787 155.941 171.764L161.878 171.332C162.201 171.309 162.387 171.548 162.406 171.811C162.424 172.062 162.276 172.338 161.953 172.361L160.708 172.452C160.929 173.013 161.198 173.559 161.522 174.053C162.013 173.693 162.467 173.311 162.892 172.871C163.015 172.741 163.167 172.682 163.311 172.672C163.634 172.648 163.953 172.902 163.976 173.213C163.987 173.368 163.916 173.542 163.746 173.699C163.249 174.144 162.716 174.58 162.154 174.958C162.817 175.8 163.589 176.49 164.446 177.029C164.686 177.18 164.797 177.388 164.811 177.58C164.834 177.903 164.581 178.222 164.222 178.248C164.066 178.26 163.882 178.213 163.692 178.082C163.287 177.799 162.917 177.513 162.555 177.166C161.222 175.88 160.203 174.27 159.595 172.533ZM169.219 173.349C169.381 175.563 168.553 177.584 166.838 179.309C166.737 179.413 166.609 179.47 166.489 179.479C166.262 179.496 166.032 179.308 166.015 179.08C166.004 178.925 166.056 178.813 166.168 178.696C167.64 177.109 168.261 175.392 168.118 173.429C167.976 171.466 167.112 169.856 165.425 168.499C165.298 168.4 165.23 168.297 165.219 168.141C165.202 167.914 165.403 167.695 165.63 167.678C165.75 167.669 165.885 167.708 166 167.796C167.947 169.254 169.058 171.134 169.219 173.349Z" fill="#282828"/>
<path d="M77.4606 242.752L87.1827 214.973L107.416 213.5L77.4606 242.752Z" fill="#E18965"/>
</svg>
