<svg xmlns="http://www.w3.org/2000/svg" viewBox="0 0 40 29.28" width="40px" height="29.28px"><defs><style>.cls-1{fill:url(#名称未設定グラデーション_14);}</style><linearGradient id="名称未設定グラデーション_14" y1="10.76" x2="29.98" y2="10.76" gradientUnits="userSpaceOnUse"><stop offset="0" stop-color="#d92c6b"/><stop offset="1" stop-color="#ec6e1e"/></linearGradient></defs><g id="レイヤー_2" data-name="レイヤー 2"><g id="レイヤー_1-2" data-name="レイヤー 1"><g id="icon_category_01"><path class="cls-1" d="M12.66,29.16a25.47,25.47,0,0,0,3.16.12c1.5,0,3.35,0,5.27-.07l2.31,0c6.21,0,10.78-1.46,13.58-4.32a11.15,11.15,0,0,0,3-8.38V11.89a10.17,10.17,0,0,0-1.18-4.77A12,12,0,0,0,35.7,3.35,15.58,15.58,0,0,0,25.85,0a16.1,16.1,0,0,0-6.41,1.29A14.3,14.3,0,0,0,18,2c-1.69,1-3.09,1.2-5.89,1.53s-5.81.89-8.26,2.83A9.53,9.53,0,0,0,0,13.78H0v4.27C0,21.21,2.7,27.61,12.66,29.16Zm22.89-5.7c-2.41,2.47-6.5,3.72-12.15,3.72l-2.35,0c-2.64.05-7.06.14-8.08,0C4.29,25.84,2.48,20.78,2.1,18.82c2.54,2.88,8.12,5.85,20.33,5.85,8.74,0,13.13-2.69,15.33-5.38A8.48,8.48,0,0,1,35.55,23.46ZM2,13.78A7.54,7.54,0,0,1,5.06,7.94C7.12,6.31,9.88,5.8,12.31,5.52c2.75-.31,4.57-.59,6.64-1.77a12.41,12.41,0,0,1,1.27-.62A14.23,14.23,0,0,1,25.85,2a13.58,13.58,0,0,1,8.59,2.9A10.15,10.15,0,0,1,37,8a8.21,8.21,0,0,1,1,3.85v2c0,.39-.32,8.73-15.56,8.73C2.58,22.67,2,14.69,2,13.78Z"/><path class="cls-1" d="M19.64,20.78A1.56,1.56,0,0,0,21,20a2.32,2.32,0,0,0,.31-1.27c0-2.91-4.1-11.64-7.88-11.64-3.08,0-8.9,1.37-8.9,6.56l0,.21C6,20.78,15.92,20.78,19.64,20.78ZM13.43,9.12c.5,0,1.55.69,2.89,2.62,1.95,2.81,3,6,3,7-3.47,0-11.6-.16-12.78-5.21C6.64,9.17,13.36,9.12,13.43,9.12Z"/><path class="cls-1" d="M21.59,12.43c.26.66.48,1.4.69,2.12.6,2.05,1.22,4.18,3,4.46a8,8,0,0,0,1.27.1c5.35,0,8.19-5.36,8.23-5.42a5.52,5.52,0,0,0,0-5.16A7,7,0,0,0,33,6.35a9.89,9.89,0,0,0-6.25-2.09l-.75,0c-3.17-.12-6.64-.09-7.57,1.78-.78,1.55.24,2.61,1.14,3.54A8.59,8.59,0,0,1,21.59,12.43ZM20.23,6.92c.12-.23.76-.72,4.13-.72l1.59,0,.82,0a7.85,7.85,0,0,1,5,1.64,4.83,4.83,0,0,1,1.3,1.55h0a3.49,3.49,0,0,1,0,3.32c0,.05-2.73,5-7.42,4.26-.57-.09-1.07-1.8-1.43-3-.22-.76-.45-1.55-.75-2.3A10.36,10.36,0,0,0,21,8.18C20.13,7.25,20.13,7.13,20.23,6.92Z"/></g></g></g></svg>