<svg xmlns="http://www.w3.org/2000/svg" viewBox="0 0 37.3 32.63"><defs><style>.cls-1{fill:url(#名称未設定グラデーション_14);}</style><linearGradient id="名称未設定グラデーション_14" y1="10.76" x2="29.98" y2="10.76" gradientUnits="userSpaceOnUse"><stop offset="0" stop-color="#d92c6b"/><stop offset="1" stop-color="#ec6e1e"/></linearGradient></defs><g id="レイヤー_2" data-name="レイヤー 2"><g id="レイヤー_1-2" data-name="レイヤー 1"><g id="icon_category_014"><path class="cls-1" d="M37.24,15.6a3.68,3.68,0,0,0-.93-1.88L32.8,9.92a1,1,0,0,0-1.47,1.36l3.52,3.8a1.59,1.59,0,0,1,.3.46c-3.71,1.4-28,1.34-32.16-.08l.07,0L16.39,10a1,1,0,0,0-.76-1.85L2.31,13.56A3.7,3.7,0,0,0,0,17V28.92a3.71,3.71,0,0,0,3.71,3.71H33.6a3.71,3.71,0,0,0,3.7-3.71V16.24c0-.07,0-.13,0-.19A1.12,1.12,0,0,0,37.24,15.6ZM2,23.06c3.82,1,12.42,1.19,18.25,1.19,3.35,0,5.77-.06,5.85-.07a46.19,46.19,0,0,0,9.2-.93v2C32.12,26.78,5.79,26.71,2,25.19Zm18.35-4.49c3.36,0,5.82-.07,5.9-.07a44.85,44.85,0,0,0,9-.93v3.58C32.13,22.67,5.79,22.6,2,21.08v-4C5.12,18.35,14.23,18.57,20.35,18.57ZM33.6,30.63H3.71A1.72,1.72,0,0,1,2,28.92V27.17c3.81,1,12.41,1.19,18.24,1.19,3.36,0,5.8-.06,5.88-.07a46,46,0,0,0,9.18-.93v1.56A1.71,1.71,0,0,1,33.6,30.63Z"/><path class="cls-1" d="M21.43,1.14c-1.26,1.26-4.86,8-2.57,10.76,1.21,1.45,3.51,2,5.38,2h.31a6.12,6.12,0,0,0,4.84-2C31.5,9,28,2.35,26.78,1.14A3.71,3.71,0,0,0,21.43,1.14Zm3.94,1.42c1.14,1.14,3.51,6.61,2.41,8.11a4.44,4.44,0,0,1-3.3,1.19c-1.76.05-3.43-.46-4.09-1.24-1.14-1.36,1.29-6.91,2.45-8.06a1.69,1.69,0,0,1,2.53,0Z"/></g></g></g></svg>