<svg xmlns="http://www.w3.org/2000/svg" viewBox="0 0 31.6 40" width="31.6px" height="40px"><defs><style>.cls-1{fill:url(#名称未設定グラデーション_14);}</style><linearGradient id="名称未設定グラデーション_14" y1="10.76" x2="29.98" y2="10.76" gradientUnits="userSpaceOnUse"><stop offset="0" stop-color="#d92c6b"/><stop offset="1" stop-color="#ec6e1e"/></linearGradient></defs><g id="レイヤー_2" data-name="レイヤー 2"><g id="レイヤー_1-2" data-name="レイヤー 1"><path id="icon_category_03" class="cls-1" d="M1.15,39.38l.16.11A2.48,2.48,0,0,0,2.62,40a3.45,3.45,0,0,0,1.71-.75c.41-.26,1-.62,1.77-1.08C9.5,36.2,17.69,27.07,22,20.4a4.84,4.84,0,0,0,.69-3.63A5.93,5.93,0,0,0,21.17,14l7.77-.17h.12a3.26,3.26,0,0,0,2.08-1.22,2.64,2.64,0,0,0,.4-2.13,2.69,2.69,0,0,0-1.19-1.82A3.21,3.21,0,0,0,28,8.3a.35.35,0,0,0-.11,0l-5.78,2.24L27.2,5.09a.39.39,0,0,0,.08-.1,3.53,3.53,0,0,0,.63-2.53A2.91,2.91,0,0,0,26.53.53,2.92,2.92,0,0,0,24.21.08a3.52,3.52,0,0,0-2.06,1.6l-.06.11-2.9,6.83-.3-6s0-.09,0-.13a3.28,3.28,0,0,0-1.27-2A2.7,2.7,0,0,0,15.43.1a2.68,2.68,0,0,0-1.8,1.24,3.29,3.29,0,0,0-.25,2.39.76.76,0,0,0,0,.11l3,7.1c-3-1-5.19.13-6.29,1.82C5.82,19.43.8,30.6.38,34.49c-.09.91-.19,1.57-.26,2C-.11,38.06-.12,38.57,1.15,39.38ZM28.49,10.23a1.28,1.28,0,0,1,.8.09.75.75,0,0,1,.29.52c.07.38,0,.53-.07.58a1.17,1.17,0,0,1-.69.39l-4.69.11ZM23.9,2.64A1.56,1.56,0,0,1,24.69,2a.93.93,0,0,1,.76.19c.43.28.48.52.49.61a1.52,1.52,0,0,1-.25,1L21.54,8.21Zm-8.54-.29c0-.05.13-.21.52-.3h0c.39-.09.55,0,.6.05a1.19,1.19,0,0,1,.41.67l.24,4.68L15.29,3.13A1.28,1.28,0,0,1,15.36,2.35ZM2.1,36.83c.07-.5.17-1.18.27-2.13.19-1.81,1.69-5.85,3.74-10.27l2.24,1.45a1.08,1.08,0,0,0,.54.15,1,1,0,0,0,.85-.46,1,1,0,0,0-.31-1.38L7,22.61c1-2,2-4,3.12-5.89L13.8,19.1a1,1,0,0,0,.54.16,1,1,0,0,0,.84-.46,1,1,0,0,0-.3-1.38L11.11,15l.73-1.15c.67-1,2.33-2.38,6,0,1.65,1.06,2.65,2.21,2.89,3.34a2.83,2.83,0,0,1-.42,2.11c-.91,1.4-2,2.87-3.09,4.34l-3.12-2a1,1,0,1,0-1.08,1.68l3,1.9c-2.11,2.65-4.37,5.2-6.36,7.23L7.44,31a1,1,0,0,0-1.08,1.69L8.2,33.89a19.69,19.69,0,0,1-3.1,2.55c-.83.48-1.42.85-1.84,1.12l-.64.4-.23-.15-.17-.11L2,37.56A7.23,7.23,0,0,1,2.1,36.83Z"/></g></g></svg>