<svg xmlns="http://www.w3.org/2000/svg" viewBox="0 0 40.02 33.4"><defs><style>.cls-1{fill:url(#名称未設定グラデーション_14);}</style><linearGradient id="名称未設定グラデーション_14" y1="10.76" x2="29.98" y2="10.76" gradientUnits="userSpaceOnUse"><stop offset="0" stop-color="#d92c6b"/><stop offset="1" stop-color="#ec6e1e"/></linearGradient></defs><g id="レイヤー_2" data-name="レイヤー 2"><g id="レイヤー_1-2" data-name="レイヤー 1"><g id="icon_category_09"><path class="cls-1" d="M24.22,25.71a1,1,0,0,0,.55-.16c.35-.23,8.61-5.66,10.51-10.47a1,1,0,1,0-1.86-.74c-1.67,4.22-9.67,9.49-9.75,9.54a1,1,0,0,0-.29,1.38A1,1,0,0,0,24.22,25.71Z"/><path class="cls-1" d="M25.67,12.39c3-1.9,6.72-2.06,9.71-2.19.73,0,1.39-.07,2-.12a17.65,17.65,0,0,1-1.28,12.7C33.24,28.08,27.49,31,19,31.4a1,1,0,0,0-.95,1.05,1,1,0,0,0,1,.95h.05c11.51-.57,16.55-5.58,18.75-9.68,3.35-6.22,2.08-13.41,1-15.22a1,1,0,0,0-1-.48c-.69.1-1.56.13-2.57.18-3,.13-7.24.31-10.69,2.5a1,1,0,1,0,1.07,1.69Z"/><path class="cls-1" d="M16,33.4h0a1,1,0,0,0,.35-.07.9.9,0,0,0,.26-.17l.06,0h0a1,1,0,0,0,.26-.47,2,2,0,0,0,.05-.24h0a.8.8,0,0,0,0-.15.87.87,0,0,0,0-.22.88.88,0,0,0-.14-.23s0-.07-.06-.09a23.27,23.27,0,0,1-5.55-18,1,1,0,0,0-.86-1.12,1,1,0,0,0-1.12.85A24.63,24.63,0,0,0,13.57,31C8.87,29.43,3.2,24.15,2.24,19.87,1.14,14.8,4,9,6.34,4.4c.4-.81.79-1.58,1.14-2.31C10.55,2.75,19.21,7,20.87,14.64c.62,2.83-1.8,12-4.14,14.27a1,1,0,0,0,1.4,1.43c2.85-2.79,5.45-12.68,4.7-16.12C20.87,5.2,10.24.12,6.92,0A1,1,0,0,0,6,.59c-.41.9-.9,1.88-1.42,2.91C2.1,8.42-1,14.53.29,20.29,1.62,26.3,10.14,33.4,16,33.4Z"/></g></g></g></svg>