<svg xmlns="http://www.w3.org/2000/svg" viewBox="0 0 40.01 30.15" width="40.01px" height="30.15px"><defs><style>.cls-1{fill:url(#名称未設定グラデーション_14);}</style><linearGradient id="名称未設定グラデーション_14" y1="10.76" x2="29.98" y2="10.76" gradientUnits="userSpaceOnUse"><stop offset="0" stop-color="#d92c6b"/><stop offset="1" stop-color="#ec6e1e"/></linearGradient></defs><g id="レイヤー_2" data-name="レイヤー 2"><g id="レイヤー_1-2" data-name="レイヤー 1"><g id="icon_category_02"><path class="cls-1" d="M38.26,15.74l1.48-6.41a1.44,1.44,0,0,0-.47-1.54,1.37,1.37,0,0,0-1.71,0l-5.79,4.32a13.1,13.1,0,0,1-1.62-1.28,23.23,23.23,0,0,0-4.72-3.35,2.22,2.22,0,0,0,1.27-1,2.36,2.36,0,0,0,.17-1.91A.94.94,0,0,0,26.53,4l-5-3.83a1,1,0,0,0-1.31.08L15.29,5.17C6.59,5.59,0,12.83,0,15.76S4.76,26.1,15.45,26.29l2.81,2.79a2.25,2.25,0,0,0,1.31,1,1.2,1.2,0,0,0,.32.06c.51,0,1.31-.55,4.63-3.83a1,1,0,0,0,.14-1.26l-.27-.42c4.68-1.43,6.16-3.42,7.07-4.65.13-.17.28-.37.4-.51l5.88,4.31a1.41,1.41,0,0,0,2.2-1.54ZM32.54,17.5a1,1,0,0,0-.71-.18,3,3,0,0,0-2,1.47c-.89,1.2-2.24,3-7.3,4.28a1,1,0,0,0-.69.61,1,1,0,0,0,.1.91l.57.88c-1,1-2.05,1.94-2.65,2.44a.57.57,0,0,0-.12-.15l-3.2-3.18a1,1,0,0,0-.7-.29C6.32,24.29,2,17.74,2,15.76,2,14,7.84,7.34,15.74,7.16a1,1,0,0,0,.68-.29L21,2.33l4,3a.14.14,0,0,1,0,.06.22.22,0,0,1-.15.12.79.79,0,0,0-.22.06l-2.27.89a1,1,0,0,0,.08,1.88,17.48,17.48,0,0,1,6.44,3.94c1.19,1,2,1.76,3,1.87a1,1,0,0,0,.72-.19l4.9-3.66-1.2,5.19a1.11,1.11,0,0,0,0,.48l1.35,5.21Z"/><path class="cls-1" d="M9.12,12.29a1.55,1.55,0,1,0,1.54,1.55A1.55,1.55,0,0,0,9.12,12.29Z"/><path class="cls-1" d="M13.84,11.1a1,1,0,0,0-.07,1.41c.1.11,2.45,2.79-.07,6.32a1,1,0,0,0,.23,1.39,1,1,0,0,0,.58.19,1,1,0,0,0,.81-.42,6.93,6.93,0,0,0-.08-8.83A1,1,0,0,0,13.84,11.1Z"/></g></g></g></svg>