<svg xmlns="http://www.w3.org/2000/svg" viewBox="0 0 40 34.81"><defs><style>.cls-1{fill:url(#名称未設定グラデーション_14);}</style><linearGradient id="名称未設定グラデーション_14" y1="10.76" x2="29.98" y2="10.76" gradientUnits="userSpaceOnUse"><stop offset="0" stop-color="#d92c6b"/><stop offset="1" stop-color="#ec6e1e"/></linearGradient></defs><g id="レイヤー_2" data-name="レイヤー 2"><g id="レイヤー_1-2" data-name="レイヤー 1"><path id="icon_category_011" class="cls-1" d="M36.49,14.28a11.8,11.8,0,0,0,.9-4.91,9.75,9.75,0,0,0-2.53-6.3l-5.05,5a9.88,9.88,0,0,0-3-5.38A10.21,10.21,0,0,0,20,0h-.87V9.81a7.12,7.12,0,0,0-1.84-3.37,6.79,6.79,0,0,0-2.66-1.23c-1.1-.31-1.7-.52-2.12-1.39C11.29,1.29,9.47.05,6.93.05A5.1,5.1,0,0,0,1.74,5,6.72,6.72,0,0,0,2.81,8.58a3.7,3.7,0,0,1,.67,1.89A2.58,2.58,0,0,1,3,12c-.5.89-1.18,2.09-1.29,5.42H0v.87a20.49,20.49,0,0,0,2.27,10,14.67,14.67,0,0,0,8,6.49H29.7a14.73,14.73,0,0,0,8-6.49,20.6,20.6,0,0,0,2.26-10v-.87H38.2A5.19,5.19,0,0,0,36.49,14.28Zm-2-8.41a6.68,6.68,0,0,1,1.14,3.59A10.94,10.94,0,0,1,35,13.35,5.1,5.1,0,0,0,33,13a5.23,5.23,0,0,0-5.16,4.44H23.46a3.59,3.59,0,0,0,0-.47Zm1.92,11.55H29.65a3.48,3.48,0,0,1,6.78,0ZM20.87,6.17c2.06.26,3.27,1.55,3.61,4.24h1.6c-.29-3.45-2.25-5.63-5.21-6V1.8A8.63,8.63,0,0,1,25.59,4a8.1,8.1,0,0,1,2.66,5.66L23.13,14.8a7.39,7.39,0,0,0-.59-1.63,4.93,4.93,0,0,0-1.67-1.83ZM4.52,12.85a4.27,4.27,0,0,0,.7-2.39,5.3,5.3,0,0,0-.89-2.74A5,5,0,0,1,3.48,5,3.18,3.18,0,0,1,6.93,1.8c1.85,0,3.08.86,4,2.78a4.34,4.34,0,0,0,3.22,2.31,5.21,5.21,0,0,1,2,.9A3.87,3.87,0,0,1,17.4,9.7a4.85,4.85,0,0,0,2.12,2.83A3.7,3.7,0,0,1,21,14a8.23,8.23,0,0,1,.73,3.43H14.62a14.18,14.18,0,0,0-.79-3.09c-.26-1.48.91-3.86,1.77-4.67l-.74-.9a8.38,8.38,0,0,0-2.17,3.13A23.33,23.33,0,0,0,8,5.66l-.9.69A25.09,25.09,0,0,1,12,14.13a11.43,11.43,0,0,0-5-.81v1.17c2.21.1,5.24.58,5.89,2.93H3.45C3.55,14.57,4.08,13.62,4.52,12.85ZM36.21,27.48a11.77,11.77,0,0,1-6.78,5.59H10.57a11.73,11.73,0,0,1-6.78-5.59,18.37,18.37,0,0,1-2-8.32h36.5A18.37,18.37,0,0,1,36.21,27.48Z"/></g></g></svg>