<svg xmlns="http://www.w3.org/2000/svg" viewBox="0 0 40 36.51"><defs><style>.cls-1{fill:url(#名称未設定グラデーション_14);}</style><linearGradient id="名称未設定グラデーション_14" y1="10.76" x2="29.98" y2="10.76" gradientUnits="userSpaceOnUse"><stop offset="0" stop-color="#d92c6b"/><stop offset="1" stop-color="#ec6e1e"/></linearGradient></defs><g id="レイヤー_2" data-name="レイヤー 2"><g id="レイヤー_1-2" data-name="レイヤー 1"><g id="icon_category_010"><path class="cls-1" d="M38.53,27.81a1,1,0,0,0-.92-.61h-.8A9.25,9.25,0,0,0,37.74,21a6.19,6.19,0,0,0-3.12-4.45,1,1,0,1,0-.91,1.78,4.22,4.22,0,0,1,2.07,3.07,7,7,0,0,1-1.27,5.65.33.33,0,0,0-.07.13H6.11a.93.93,0,0,0-.22-.27A10.55,10.55,0,0,1,17.35,9.36a1,1,0,0,0,1.35-.43,1,1,0,0,0-.43-1.35A12.56,12.56,0,0,0,0,18.75,12.49,12.49,0,0,0,3.29,27.2H2.45a1,1,0,0,0-.92.61L.33,30.73a1,1,0,0,0,.09.94,1,1,0,0,0,.83.44h1.4c.6,2.59,3.36,4.2,3.49,4.27a1,1,0,0,0,.5.13H33.43a1,1,0,0,0,.49-.13c.13-.07,2.89-1.68,3.5-4.27h1.39a1,1,0,0,0,.83-.44,1,1,0,0,0,.09-.94ZM3.12,29.2H36.94l.37.91H2.75Zm30,5.31H6.92a6.13,6.13,0,0,1-2.19-2.4h30.6A6.05,6.05,0,0,1,33.14,34.51Z"/><path class="cls-1" d="M38.54,3.36a3.32,3.32,0,0,0-2.1-.59A3.38,3.38,0,1,0,29.79,4a3.24,3.24,0,0,0,.54,1.28,1.69,1.69,0,0,0-.9-.1,2.89,2.89,0,0,0-1.62,1.08,2.38,2.38,0,0,1-1,.77,18,18,0,0,1-3.43.56H23.3a7.89,7.89,0,0,0,1.43,15.65,7.66,7.66,0,0,0,1.42-.13,7.89,7.89,0,0,0,6.41-8.7c1.87-2.25,2.74-3.83,2.58-4.72A2,2,0,0,0,35,9.27l.09-.11a3.33,3.33,0,0,0,2.15.32A3.39,3.39,0,0,0,39.4,8.07a3.4,3.4,0,0,0-.86-4.71Zm-7.8,10.11a1,1,0,0,0-.22.83,5.89,5.89,0,0,1-.95,4.41,5.82,5.82,0,0,1-3.78,2.44A5.89,5.89,0,0,1,23.61,9.58a18.84,18.84,0,0,0,3.89-.66A4.32,4.32,0,0,0,29.3,7.6a2.76,2.76,0,0,1,.42-.42A11.45,11.45,0,0,1,33.15,10,16.48,16.48,0,0,1,30.74,13.47Zm7-6.54a1.38,1.38,0,0,1-2.13.19,1,1,0,0,0-.74-.3,1,1,0,0,0-.72.35l-.45.51c-.31-.3-.63-.59-.93-.84s-.38-.3-.56-.44l.32-.34a1,1,0,0,0,.26-.8,1,1,0,0,0-.45-.72,1.38,1.38,0,0,1-.61-.91,1.39,1.39,0,0,1,.23-1A1.36,1.36,0,0,1,32.87,2a1.39,1.39,0,0,1,1,.23,1.37,1.37,0,0,1,.58.89,1.3,1.3,0,0,1-.06.67,1,1,0,0,0,.33,1.09A1,1,0,0,0,35.9,5a1.24,1.24,0,0,1,.47-.18A1.38,1.38,0,0,1,38,5.9,1.44,1.44,0,0,1,37.76,6.93Z"/></g></g></g></svg>