<svg xmlns="http://www.w3.org/2000/svg" viewBox="0 0 38.02 37.31"><defs><style>.cls-1{fill:url(#名称未設定グラデーション_14);}</style><linearGradient id="名称未設定グラデーション_14" y1="10.76" x2="29.98" y2="10.76" gradientUnits="userSpaceOnUse"><stop offset="0" stop-color="#d92c6b"/><stop offset="1" stop-color="#ec6e1e"/></linearGradient></defs><g id="レイヤー_2" data-name="レイヤー 2"><g id="レイヤー_1-2" data-name="レイヤー 1"><g id="icon_category_013"><path class="cls-1" d="M37,17.14H36.4a1.57,1.57,0,0,0,0-.23,9.24,9.24,0,0,0-.39-2.58A6.07,6.07,0,0,0,35,11a5.67,5.67,0,0,0-1.78-1.7A5.88,5.88,0,0,0,31,6.36a5.72,5.72,0,0,0-4.18-3.62A5.52,5.52,0,0,0,22,.9,5.54,5.54,0,0,0,15.8,1a5.59,5.59,0,0,0-5,2.46A5.77,5.77,0,0,0,6.5,7.16a5.92,5.92,0,0,0-2.14,3.61,5.71,5.71,0,0,0-1.22,1.66,9.29,9.29,0,0,0-1.55,4.71H1a1,1,0,0,0-.77.36,1,1,0,0,0-.21.82A19.67,19.67,0,0,0,11.67,32.87v1.85a2.29,2.29,0,0,0,2,2.24,42,42,0,0,0,5.38.35A42,42,0,0,0,24.39,37a2.29,2.29,0,0,0,2-2.24V32.87A19.67,19.67,0,0,0,38,18.32a1,1,0,0,0-.21-.82A1,1,0,0,0,37,17.14ZM4.73,13.64a1,1,0,0,0,.16-.24,3.75,3.75,0,0,1,1-1.36,1,1,0,0,0,.36-.65A3.89,3.89,0,0,1,7.92,8.6a1,1,0,0,0,.38-.53,3.74,3.74,0,0,1,3.17-2.68,1,1,0,0,0,.79-.51A3.59,3.59,0,0,1,15.93,3a1,1,0,0,0,.8-.22,3.49,3.49,0,0,1,4.41-.08,1,1,0,0,0,.83.2,3.52,3.52,0,0,1,3.51,1.33,1,1,0,0,0,.67.39A3.71,3.71,0,0,1,29.2,7.31a1.06,1.06,0,0,0,.46.58,3.88,3.88,0,0,1,1.78,2.32,1,1,0,0,0,.51.63,3.73,3.73,0,0,1,1.41,1.24,4.09,4.09,0,0,1,.69,2.29v.1a1.12,1.12,0,0,0,.09.44,6.61,6.61,0,0,1,.31,2,.86.86,0,0,0,.05.23H3.6A7.22,7.22,0,0,1,4.73,13.64ZM25,31.26a1,1,0,0,0-.65.94v2.52a.33.33,0,0,1-.22.26,39.44,39.44,0,0,1-10.24,0,.3.3,0,0,1-.22-.25V32.2a1,1,0,0,0-.65-.94A17.68,17.68,0,0,1,2.24,19.14H35.78A17.68,17.68,0,0,1,25,31.26Z"/><path class="cls-1" d="M13.6,8.05a3.15,3.15,0,0,0-.44,0,3.1,3.1,0,0,0-3.1,3.09,1,1,0,0,0,2,0A1.09,1.09,0,0,1,13.16,10a1,1,0,0,1,.38.07,1,1,0,0,0,1.13-.3,1.51,1.51,0,0,1,2.17-.07,1,1,0,0,0,1.42,0,1,1,0,0,0,0-1.41A3.56,3.56,0,0,0,13.6,8.05Z"/><path class="cls-1" d="M29.24,12.15a3,3,0,0,0-2.15-.48,3.15,3.15,0,0,0-.29-.22,3.24,3.24,0,0,0-2.58-.37,2.87,2.87,0,0,0-1.89,1.49,1,1,0,0,0,1.78.9.94.94,0,0,1,.63-.46,1.24,1.24,0,0,1,1,.11,1.33,1.33,0,0,1,.27.26,1,1,0,0,0,1.18.33,1.06,1.06,0,0,1,1,.11,1.59,1.59,0,0,1,.66,1,1,1,0,0,0,1,.79l.21,0a1,1,0,0,0,.77-1.2A3.59,3.59,0,0,0,29.24,12.15Z"/></g></g></g></svg>