<svg xmlns="http://www.w3.org/2000/svg" viewBox="0 0 39.99 34.07"><defs><style>.cls-1{fill:url(#名称未設定グラデーション_14);}</style><linearGradient id="名称未設定グラデーション_14" y1="10.76" x2="29.98" y2="10.76" gradientUnits="userSpaceOnUse"><stop offset="0" stop-color="#d92c6b"/><stop offset="1" stop-color="#ec6e1e"/></linearGradient></defs><g id="レイヤー_2" data-name="レイヤー 2"><g id="レイヤー_1-2" data-name="レイヤー 1"><path id="icon_category_05" class="cls-1" d="M26.93,3.71A8.08,8.08,0,0,0,20,0a8.08,8.08,0,0,0-6.94,3.71l-12,19.1A7,7,0,0,0,.9,30,8.09,8.09,0,0,0,8,34.07H32A8.12,8.12,0,0,0,39.1,30a7,7,0,0,0-.21-7.2ZM13.34,32.07v-13a.38.38,0,0,1,.38-.38H26.27a.38.38,0,0,1,.38.38v13Zm24-3a6.11,6.11,0,0,1-5.4,3h-3.3v-13a2.39,2.39,0,0,0-2.38-2.38H13.72a2.39,2.39,0,0,0-2.38,2.38v13H8a6.09,6.09,0,0,1-5.39-3,5,5,0,0,1,.15-5.17l12-19.1A6.09,6.09,0,0,1,20,2a6.11,6.11,0,0,1,5.24,2.77l12,19.1A5,5,0,0,1,37.35,29Z"/></g></g></svg>