<svg xmlns="http://www.w3.org/2000/svg" viewBox="0 0 34.79 36"><defs><style>.cls-1{fill:url(#名称未設定グラデーション_14);}</style><linearGradient id="名称未設定グラデーション_14" y1="10.76" x2="29.98" y2="10.76" gradientUnits="userSpaceOnUse"><stop offset="0" stop-color="#d92c6b"/><stop offset="1" stop-color="#ec6e1e"/></linearGradient></defs><g id="レイヤー_2" data-name="レイヤー 2"><g id="レイヤー_1-2" data-name="レイヤー 1"><path id="icon_category_06" class="cls-1" d="M5.63,36H29a3.16,3.16,0,0,0,3-3.28V12.45c1.79-1.3,2.74-2.84,2.74-4.48,0-4.47-7.29-8-16.6-8h-3.6V.05C6.15.46,0,3.67,0,7.82a5.85,5.85,0,0,0,2.63,4.62V32.72A3.15,3.15,0,0,0,5.63,36ZM29.92,4.53c1.83,1,2.87,2.27,2.87,3.44,0,1.34-1.25,2.43-2.29,3.11l-.45.3V32.72A1.19,1.19,0,0,1,29,34h-1V12.07c.89-.71,2.74-2.49,2.74-4.89A4.65,4.65,0,0,0,29.92,4.53ZM2,7.82C2,5.1,7.45,2.2,15.65,2,28.43,2.24,28.8,6.66,28.8,7.18c0,2-2.27,3.54-2.29,3.55l-.45.3V34H5.63a1.18,1.18,0,0,1-1-1.28V11.38l-.46-.3A4.13,4.13,0,0,1,2,7.82Z"/></g></g></svg>