<svg xmlns="http://www.w3.org/2000/svg" viewBox="0 0 40 33.96"><defs><style>.cls-1{fill:url(#名称未設定グラデーション_14);}</style><linearGradient id="名称未設定グラデーション_14" y1="10.76" x2="29.98" y2="10.76" gradientUnits="userSpaceOnUse"><stop offset="0" stop-color="#d92c6b"/><stop offset="1" stop-color="#ec6e1e"/></linearGradient></defs><g id="レイヤー_2" data-name="レイヤー 2"><g id="レイヤー_1-2" data-name="レイヤー 1"><g id="icon_category_012"><path class="cls-1" d="M15.82,11.72l-4-1.62a1,1,0,0,0-1.2.36L8.54,13.52a1,1,0,0,0-.13.85A1,1,0,0,0,9,15l4,1.62a1,1,0,0,0,.37.07,1,1,0,0,0,.83-.43l2.1-3.06a1,1,0,0,0,.13-.85A1,1,0,0,0,15.82,11.72ZM13,14.47l-2.08-.84.94-1.38,2.08.85Z"/><path class="cls-1" d="M21.65,7.36a1,1,0,0,0-1.22-.11L17.15,9.33a1,1,0,0,0-.46.76,1,1,0,0,0,.32.82l2.72,2.52a1,1,0,0,0,.68.27.94.94,0,0,0,.53-.16l3.28-2.09a1,1,0,0,0,.46-.75,1,1,0,0,0-.31-.82Zm-1.13,4.08-1.2-1.11,1.53-1,1.21,1.11Z"/><path class="cls-1" d="M34.44,3.15A31.63,31.63,0,0,0,20,0,31.63,31.63,0,0,0,5.56,3.15C2,5,0,7.46,0,9.83v.6A20.54,20.54,0,0,0,12.43,29.36v1.95a2.33,2.33,0,0,0,2,2.29A43.29,43.29,0,0,0,20,34a43.17,43.17,0,0,0,5.57-.36,2.33,2.33,0,0,0,2-2.29V29.36A20.54,20.54,0,0,0,40,10.43v-.6C40,7.46,38,5,34.44,3.15ZM28.57,14.92,26.7,13.78l1.4-1.36L30,13.56Zm3.54-2.4-3.63-2.21a1,1,0,0,0-1.22.13l-2.88,2.8a1,1,0,0,0-.3.83,1,1,0,0,0,.48.74l3.25,2a34.73,34.73,0,0,1-7.81.87A29.55,29.55,0,0,1,6.5,14.75,13.75,13.75,0,0,1,4.28,13.3,8.69,8.69,0,0,1,8,9.63,24,24,0,0,1,20,6.75,24,24,0,0,1,32,9.63a8.69,8.69,0,0,1,3.73,3.67,13.75,13.75,0,0,1-2.22,1.45,21.62,21.62,0,0,1-3.31,1.38l2.1-2a1,1,0,0,0-.18-1.58ZM6.5,4.92A29.58,29.58,0,0,1,20,2,29.58,29.58,0,0,1,33.5,4.92C36.28,6.39,38,8.27,38,9.83a3.44,3.44,0,0,1-.8,2A11.5,11.5,0,0,0,33,7.9,26.17,26.17,0,0,0,20,4.75,26.17,26.17,0,0,0,7,7.9,11.5,11.5,0,0,0,2.8,11.82,3.85,3.85,0,0,1,2,10.25a2,2,0,0,1,0-.42C2,8.27,3.72,6.39,6.5,4.92ZM26.22,27.75l-.65.24v3.32a.37.37,0,0,1-.26.31,41,41,0,0,1-10.62,0,.37.37,0,0,1-.26-.31V28l-.65-.24A18.42,18.42,0,0,1,2.42,14.35a15.74,15.74,0,0,0,3.14,2.17A31.63,31.63,0,0,0,20,19.67a31.63,31.63,0,0,0,14.44-3.15,15.19,15.19,0,0,0,3.13-2.16A18.39,18.39,0,0,1,26.22,27.75Z"/></g></g></g></svg>