<svg xmlns="http://www.w3.org/2000/svg" viewBox="0 0 39.98 38.12" width="39.98px" height="38.12px"><defs><style>.cls-1{fill:url(#名称未設定グラデーション_14);}</style><linearGradient id="名称未設定グラデーション_14" y1="10.76" x2="29.98" y2="10.76" gradientUnits="userSpaceOnUse"><stop offset="0" stop-color="#d92c6b"/><stop offset="1" stop-color="#ec6e1e"/></linearGradient></defs><g id="レイヤー_2" data-name="レイヤー 2"><g id="レイヤー_1-2" data-name="レイヤー 1"><g id="icon_category_04"><path class="cls-1" d="M15,38.12A21.09,21.09,0,0,1,7.47,36.8c-3.11-1.18-5.3-3.07-6.15-5.32-2.67-7-1.29-12,4.2-15.29A17.84,17.84,0,0,0,12.81,8.8C14.6,5.88,16.44,2.86,22,.72a10.21,10.21,0,0,1,7.88.15c3.54,1.57,6.4,5.17,8.51,10.7C43.44,24.81,36,29.88,24,36.1h0A20,20,0,0,1,15,38.12ZM25.79,2a8.53,8.53,0,0,0-3.08.58C17.79,4.48,16.28,7,14.52,9.84a19.75,19.75,0,0,1-8,8.08C1.9,20.71.86,24.68,3.18,30.77c.66,1.7,2.43,3.18,5,4.17a19.59,19.59,0,0,0,14.86-.61h0c12.41-6.45,17.79-10.72,13.46-22-1.92-5-4.43-8.24-7.46-9.58A7.9,7.9,0,0,0,25.79,2Z"/><path class="cls-1" d="M26.48,11.45A9.69,9.69,0,0,0,19,11.27a9.91,9.91,0,0,0-5.65,12.78,9.85,9.85,0,0,0,9.18,6.34A9.86,9.86,0,0,0,31.68,17,9.76,9.76,0,0,0,26.48,11.45ZM25.31,27.86a7.79,7.79,0,0,1-10.12-4.53,7.91,7.91,0,0,1,4.5-10.2,7.83,7.83,0,0,1,10.13,4.53A7.92,7.92,0,0,1,25.31,27.86Z"/><path class="cls-1" d="M27.61,19a1,1,0,0,0-.89,1.09A4.29,4.29,0,0,1,24,24.49a1,1,0,0,0-.57,1.29,1,1,0,0,0,.93.64.89.89,0,0,0,.36-.07,6.28,6.28,0,0,0,4-6.5A1,1,0,0,0,27.61,19Z"/></g></g></g></svg>