<svg xmlns="http://www.w3.org/2000/svg" viewBox="0 0 40 37.45"><defs><style>.cls-1{fill:url(#名称未設定グラデーション_14);}</style><linearGradient id="名称未設定グラデーション_14" y1="10.76" x2="29.98" y2="10.76" gradientUnits="userSpaceOnUse"><stop offset="0" stop-color="#d92c6b"/><stop offset="1" stop-color="#ec6e1e"/></linearGradient></defs><g id="レイヤー_2" data-name="レイヤー 2"><g id="レイヤー_1-2" data-name="レイヤー 1"><path id="icon_category_07" class="cls-1" d="M37,15.66H18.39V8.49L35.52,3.62A1,1,0,1,0,35,1.69L13.41,7.83V6.18L28.25,2A1,1,0,0,0,28.94.73,1,1,0,0,0,27.7,0l-21.17,6a1,1,0,0,0,.28,2,1.07,1.07,0,0,0,.25,0v7.67H2.82A3,3,0,0,0,0,18.9a3.75,3.75,0,0,0,.71,2.25A2.9,2.9,0,0,0,3.06,22.3c.16,0,.58.42.81.85l.06.09c.54.81,5.36,8,6.21,9A4.83,4.83,0,0,0,13,34v2.43a1,1,0,0,0,1,1H26a1,1,0,0,0,1-1V34a4.9,4.9,0,0,0,2.68-1.76c.84-1,5.66-8.18,6.21-9a.41.41,0,0,0,0-.09c.24-.43.66-.85.81-.85a3.12,3.12,0,0,0,2.46-1.1A3.55,3.55,0,0,0,40,18.92,3.07,3.07,0,0,0,37,15.66ZM13.48,9.85a.84.84,0,0,0,.27,0l2.64-.75v6.6h-3V9.84ZM9.06,7.42l2.35-.67v8.91H9.06Zm5.94,28V34.16H25v1.29ZM37.68,19.92a1.13,1.13,0,0,1-.93.38c-1.43,0-2.35,1.51-2.55,1.86-2.12,3.17-5.46,8.09-6.05,8.77A2.88,2.88,0,0,1,26,32.13H13.92a2.92,2.92,0,0,1-2.26-1.21c-.58-.68-3.92-5.6-6-8.77-.19-.35-1.11-1.86-2.55-1.86a.87.87,0,0,1-.75-.36,1.73,1.73,0,0,1-.31-1s0-1.24.82-1.24H37c1,0,1,1.13,1,1.26A1.62,1.62,0,0,1,37.68,19.92Z"/></g></g></svg>