<svg xmlns="http://www.w3.org/2000/svg" viewBox="0 0 38.78 40"><defs><style>.cls-1{fill:url(#名称未設定グラデーション_14);}</style><linearGradient id="名称未設定グラデーション_14" y1="10.76" x2="29.98" y2="10.76" gradientUnits="userSpaceOnUse"><stop offset="0" stop-color="#d92c6b"/><stop offset="1" stop-color="#ec6e1e"/></linearGradient></defs><g id="レイヤー_2" data-name="レイヤー 2"><g id="レイヤー_1-2" data-name="レイヤー 1"><g id="icon_category_08"><path class="cls-1" d="M29.24,27c-2.51,3.53-6.62,6.5-10,7.23a1,1,0,0,0,.22,2l.21,0c3.86-.84,8.36-4.07,11.18-8a1,1,0,0,0-.23-1.39A1,1,0,0,0,29.24,27Z"/><path class="cls-1" d="M37.55,14.44l0,0-.28-.19c-.45-.43-.8-2.61-.74-4.72a8.28,8.28,0,0,0-3-9.27,1,1,0,0,0-1.4.18,1,1,0,0,0,.17,1.4A6.32,6.32,0,0,1,34.54,9c-.7,2-2.27,3.37-3.91,3.37h0l-.11,0a3.57,3.57,0,0,0-2.13.8,5.09,5.09,0,0,0-2.19,4.54C26,19.41,24,34,2.8,34H2.39A2.44,2.44,0,0,0,.07,35.77,2,2,0,0,0,1,38c1.57.92,3.36,2,13.3,2,6.34,0,13.11-3.06,18.09-8.19,4.23-4.35,6.49-9.51,6.34-14.56a4.8,4.8,0,0,0-1.09-2.67Zm-2.73-.94h-.15a2.73,2.73,0,0,1-1-.11h0a7,7,0,0,0,1-.83C34.69,12.88,34.75,13.2,34.82,13.5ZM31,30.42C26.45,35.1,20.07,38,14.34,38c-9.4,0-11-.94-12.34-1.69A.45.45,0,0,1,2.38,36h.44C25.74,36,28,19.78,28.17,17.83a3.2,3.2,0,0,1,1.34-3l.14-.1c.77-.6,1.33-.37,2.43.15.3.14.6.28.9.39a4.66,4.66,0,0,0,1.73.24,2,2,0,0,1,1.29.27l.26.19a2.68,2.68,0,0,1,.51,1.38C36.9,21.81,34.85,26.45,31,30.42Z"/></g></g></g></svg>