<svg width="151" height="151" viewBox="0 0 151 151" fill="none" xmlns="http://www.w3.org/2000/svg">
<mask id="mask0_873_12245" style="mask-type:luminance" maskUnits="userSpaceOnUse" x="0" y="0" width="151" height="151">
<path d="M150.994 55.2676L55.2676 0L0 95.7263L95.7263 150.994L150.994 55.2676Z" fill="white"/>
</mask>
<g mask="url(#mask0_873_12245)">
<path d="M111.86 113.984C101.52 131.893 73.2792 134.965 48.8038 120.835C24.3285 106.704 12.8543 80.7354 23.2089 62.8008C33.5634 44.8662 61.7897 41.819 86.2651 55.9498C110.74 70.0806 122.2 96.074 111.86 113.984Z" fill="#E7372F"/>
<path d="M44.7502 48.1231L110.107 85.3233L120.213 76.8837C148.673 78.3401 134.434 40.07 114.831 53.9321C117.759 34.3112 91.68 18.4542 78.26 31.0171C77.6528 1.58426 42.7614 12.4229 51.8792 34.5628L44.7502 48.1231Z" fill="white"/>
<path d="M44.288 48.9243C43.863 48.6789 43.7007 48.1517 43.9356 47.687L50.8874 34.4914C48.2297 27.7208 49.2913 21.2633 53.7818 16.7187C57.9701 12.4666 64.3191 10.9961 69.5486 13.0815C72.8835 14.4066 78.3448 18.2267 79.1247 29.1159C85.0973 24.66 93.4425 24.4087 101.416 28.6119C109.289 32.7574 116.6 41.5143 115.974 52.1253C121.228 49.0884 126.649 49.2833 131.038 52.651C136.204 56.6347 138.544 63.9555 136.416 69.6635C135.212 72.9038 131.552 78.2614 120.531 77.8351L110.698 86.0323C110.4 86.2603 109.995 86.3266 109.645 86.1246L44.288 48.9243ZM70.3071 15.5205C69.8321 15.2463 69.3426 14.997 68.8493 14.8123C64.3027 12.9877 58.778 14.3004 55.0863 18.0388C51.0635 22.1197 50.1908 28.0193 52.7546 34.202C52.8429 34.4531 52.8379 34.7504 52.708 34.9755L45.9872 47.7709L110.019 84.2062L119.647 76.1908C119.837 76.034 120.049 75.9561 120.267 75.9821C127.786 76.3542 132.901 73.9042 134.707 69.0438C136.517 64.1189 134.427 57.5764 129.913 54.1364C127.465 52.2562 122.309 49.813 115.378 54.7162C115.08 54.9442 114.693 54.921 114.354 54.7584C114.029 54.5708 113.87 54.2119 113.918 53.8396C115.5 43.2469 108.326 34.3689 100.513 30.2917C94.2933 27.0344 85.3324 25.6962 78.876 31.7405C78.6027 31.9829 78.2228 32.0637 77.8833 31.9011C77.5544 31.7779 77.3161 31.4402 77.3249 31.0784C77.1848 23.5269 74.6927 18.0859 70.2926 15.5455L70.3071 15.5205Z" fill="#231815"/>
<path d="M40.6279 102.607C38.6529 101.467 37.1883 99.1539 37.693 96.1435C38.0317 94.1712 39.2848 92.6935 41.1424 92.1318C43.1867 91.4778 45.5834 92.061 47.0696 93.5861C47.9357 94.4531 49.2514 96.4467 48.1906 99.6696C47.1299 102.893 44.3862 103.776 42.104 103.226C41.6068 103.106 41.0885 102.906 40.6135 102.632L40.6279 102.607ZM45.0108 94.2652C44.0358 93.7022 42.7903 93.5501 41.7109 93.8608C40.5238 94.2426 39.7567 95.1671 39.5251 96.4342C39.0687 99.0723 40.7144 100.956 42.5638 101.39C43.966 101.733 45.712 101.307 46.4423 99.0604C47.0127 97.322 46.7903 95.8595 45.7781 94.8415C45.5464 94.6077 45.2858 94.4239 44.9858 94.2507L45.0108 94.2652Z" fill="#231815"/>
<path d="M37.519 81.2022L33.2689 78.7484C29.0689 76.3235 27.6329 70.9587 30.059 66.7564C32.4852 62.5542 37.8493 61.1154 42.0493 63.5403L46.2994 65.994C50.4995 68.4189 51.9355 73.7838 49.5093 77.986C47.0831 82.1883 41.719 83.6271 37.519 81.2022Z" fill="#BAE2F8"/>
<path d="M37.0568 82.0022L32.8068 79.5485C28.1817 76.8782 26.5873 70.9216 29.259 66.2941C31.9307 61.6667 37.8864 60.0692 42.5115 62.7395L46.7615 65.1932C51.3866 67.8635 52.981 73.8201 50.3093 78.4475C47.6376 83.075 41.6819 84.6725 37.0568 82.0022ZM41.5872 64.3403C37.8372 62.1752 33.0253 63.4659 30.859 67.2179C28.6928 70.9699 29.981 75.7825 33.731 77.9476L37.9811 80.4014C41.7311 82.5665 46.5431 81.2758 48.7093 77.5238C50.8755 73.7718 49.5873 68.9592 45.8373 66.7941L41.5872 64.3403Z" fill="#231815"/>
<path d="M66.2201 97.7725L61.9701 95.3187C57.77 92.8938 56.334 87.529 58.7602 83.3267C61.1864 79.1245 66.5505 77.6857 70.7505 80.1106L75.0006 82.5643C79.2006 84.9893 80.6366 90.3541 78.2105 94.5563C75.7843 98.7586 70.4202 100.197 66.2201 97.7725Z" fill="#BAE2F8"/>
<path d="M65.758 98.5725L61.508 96.1188C56.8829 93.4485 55.2885 87.4919 57.9602 82.8645C60.6319 78.237 66.5876 76.6395 71.2126 79.3098L75.4627 81.7635C80.0878 84.4338 81.6821 90.3904 79.0105 95.0178C76.3388 99.6453 70.3831 101.243 65.758 98.5725ZM70.2884 80.9106C66.5383 78.7455 61.7264 80.0362 59.5602 83.7882C57.394 87.5402 58.6822 92.3528 62.4322 94.5179L66.6823 96.9717C70.4323 99.1368 75.2442 97.8461 77.4105 94.0941C79.5767 90.3421 78.2885 85.5295 74.5384 83.3644L70.2884 80.9106Z" fill="#231815"/>
<path d="M58.2978 84.1269L49.0477 78.7864C48.5976 78.5266 48.4498 77.9743 48.7098 77.5241C48.9697 77.0738 49.5219 76.9257 49.9719 77.1855L59.222 82.5261C59.672 82.7859 59.8199 83.3382 59.5599 83.7884C59.3 84.2386 58.7478 84.3868 58.2978 84.1269Z" fill="#231815"/>
<path d="M111.398 114.785L77.7478 95.3567C77.2978 95.0969 77.15 94.5446 77.41 94.0944C77.6699 93.6441 78.2221 93.496 78.6721 93.7558L112.323 113.184C112.773 113.444 112.92 113.996 112.66 114.446C112.401 114.896 111.848 115.045 111.398 114.785Z" fill="#231815"/>
<path d="M29.597 67.5567L22.7469 63.6018C22.2969 63.342 22.149 62.7897 22.409 62.3395C22.6689 61.8892 23.2211 61.7411 23.6711 62.0009L30.4962 65.9414C30.9462 66.2012 31.0941 66.7535 30.8341 67.2037C30.5742 67.654 30.022 67.8021 29.572 67.5423L29.597 67.5567Z" fill="#231815"/>
<path d="M82.512 83.6987C84.985 87.0942 83.8809 90.3922 82.8146 93.2784C85.7487 90.7368 89.35 88.7138 93.52 89.9207C89.9148 86.6386 90.3217 83.1048 91.5079 79.0872C86.662 84.5938 85.2764 83.7605 82.512 83.6987Z" fill="#FCD25B"/>
<path d="M48.2238 68.8384C48.0988 68.7662 47.9882 68.669 47.9066 68.5218L39.7745 55.3556C39.5151 54.939 39.6539 54.3521 40.0705 54.0924C40.4872 53.8326 41.0738 53.9712 41.3333 54.3879L49.4653 67.5541C49.7248 67.9707 49.5859 68.5576 49.1693 68.8173C48.8605 69.0058 48.4988 68.9972 48.2238 68.8384Z" fill="#231815"/>
<path d="M65.1187 79.7601C64.8687 79.6157 64.6909 79.3463 64.6458 79.0202C64.6125 78.5006 64.9868 78.0831 65.5063 78.0495L79.8172 77.107C80.3117 77.0589 80.7539 77.4477 80.7873 77.9672C80.8207 78.4868 80.4463 78.9043 79.9269 78.9379L65.6409 79.8948C65.4581 79.9227 65.2687 79.8467 65.1187 79.7601Z" fill="#231815"/>
</g>
</svg>
