<svg width="510" height="49" viewBox="0 0 510 49" fill="none" xmlns="http://www.w3.org/2000/svg">
<path d="M0.439453 0.238281L26.4395 48.2383" stroke="black"/>
<path d="M37.0035 22.1863L36.7695 24.9943C37.3275 24.6883 37.8675 24.5443 38.4075 24.5443C41.1795 24.5443 43.1415 26.0923 43.1415 28.8283C43.1415 31.5643 41.1255 33.3643 38.4435 33.3643C36.9675 33.3643 35.6355 32.9323 34.7175 32.1943C34.4115 31.9423 34.3215 31.7083 34.3215 31.3843C34.3215 30.8443 34.7535 30.4483 35.3475 30.4483C35.5095 30.4483 35.6715 30.5023 35.8875 30.6643C36.8235 31.3483 37.5255 31.5643 38.4075 31.5643C39.9195 31.5643 40.9815 30.4843 40.9815 28.9003C40.9815 27.2623 39.9735 26.3083 38.4075 26.3083C37.8495 26.3083 37.2915 26.4883 36.8595 26.7583C36.4635 26.9923 36.3015 27.1003 35.9595 27.1003C35.3295 27.1003 34.7895 26.7223 34.7895 26.0383V25.9303L35.1675 21.1603C35.2395 20.3143 35.9055 19.7923 36.8595 19.7923H41.7555C42.2955 19.7923 42.6195 20.1883 42.6195 20.7283C42.6195 21.2683 42.2955 21.6643 41.7555 21.6643H37.5975C37.2015 21.6643 37.0395 21.8083 37.0035 22.1863ZM50.1218 19.5043C52.8578 19.5043 54.6758 21.4483 54.6758 26.4343C54.6758 31.4203 52.8578 33.3643 50.1218 33.3643C47.3858 33.3643 45.6038 31.4203 45.6038 26.4343C45.6038 21.4483 47.3858 19.5043 50.1218 19.5043ZM50.1218 21.3043C48.6278 21.3043 47.7278 22.5643 47.7278 26.4343C47.7278 30.3043 48.6278 31.5643 50.1218 31.5643C51.6338 31.5643 52.5518 30.3043 52.5518 26.4343C52.5518 22.5643 51.6338 21.3043 50.1218 21.3043ZM65.9221 21.2863C66.7501 25.8403 68.6581 29.7823 72.7801 32.1223C73.2121 32.3563 73.3921 32.7163 73.3921 33.0583C73.3921 33.5983 72.9421 34.1203 72.3481 34.1203C72.1861 34.1203 71.9881 34.0843 71.8081 33.9763C68.8201 32.3203 66.4441 29.2423 65.2561 25.4803C64.8241 27.2263 64.0861 28.7743 63.0601 30.1603C61.9081 31.7083 60.1801 33.2203 58.5421 34.1383C58.3261 34.2643 58.1101 34.3183 57.9121 34.3183C57.3361 34.3183 56.9581 33.8323 56.9581 33.3283C56.9581 32.9863 57.1201 32.6623 57.4981 32.4463C58.9381 31.6363 60.4501 30.4123 61.5121 28.9723C63.0601 26.8663 63.9061 24.1483 63.9061 19.3963C63.9061 18.8203 64.4281 18.5323 64.9501 18.5323C65.4541 18.5323 65.9761 18.8203 65.9761 19.3963C65.9761 20.0623 65.9581 20.6923 65.9221 21.2863ZM82.8421 28.7923H79.2781C77.2981 28.7923 76.5601 28.0543 76.5601 26.3803V24.1303C76.5601 22.4563 77.2981 21.7183 79.2781 21.7183H82.8421V18.6403C82.8421 18.1003 83.3461 17.8303 83.8501 17.8303C84.3541 17.8303 84.8581 18.1003 84.8581 18.6403V21.7183H88.4941C90.4741 21.7183 91.2121 22.4563 91.2121 24.1303V26.3803C91.2121 28.0543 90.4741 28.7923 88.4941 28.7923H84.8581V34.1383C84.8581 34.6783 84.3541 34.9483 83.8501 34.9483C83.3461 34.9483 82.8421 34.6783 82.8421 34.1383V28.7923ZM79.5121 27.0283H82.8421V23.4823H79.5121C78.7021 23.4823 78.5401 23.6623 78.5401 24.3283V26.1823C78.5401 26.8663 78.7561 27.0283 79.5121 27.0283ZM84.8581 23.4823V27.0283H88.2601C89.0701 27.0283 89.2321 26.8483 89.2321 26.1823V24.3283C89.2321 23.6623 89.0701 23.4823 88.2601 23.4823H84.8581ZM184.387 24.9043C183.667 27.8743 182.623 30.7903 181.345 33.0403C181.111 33.4543 180.733 33.6163 180.373 33.6163C179.851 33.6163 179.383 33.2563 179.383 32.7163C179.383 32.5543 179.437 32.3563 179.545 32.1583C180.679 30.1603 181.615 27.6943 182.299 25.1203C181.561 25.2103 180.841 25.3363 180.157 25.4803C180.085 25.4983 179.995 25.4983 179.923 25.4983C179.365 25.4983 179.059 25.0483 179.059 24.5803C179.059 24.1663 179.311 23.7523 179.869 23.6443C180.787 23.4643 181.777 23.3383 182.731 23.2303C182.947 22.1323 183.127 21.0163 183.253 19.9183C183.325 19.3423 183.775 19.0723 184.243 19.0723C184.747 19.0723 185.251 19.3963 185.251 19.9723V20.0983C185.143 21.0703 184.981 22.0783 184.783 23.0683C185.143 23.0503 185.467 23.0503 185.755 23.0503C188.059 23.0503 188.905 24.0943 188.905 26.9203C188.905 28.6123 188.725 30.1243 188.419 31.2223C187.843 33.2923 187.033 34.0303 185.215 34.0303C184.783 34.0303 184.333 33.9943 183.991 33.9403C183.379 33.8503 183.109 33.4003 183.109 32.9683C183.109 32.4643 183.433 31.9783 184.027 31.9783C184.063 31.9783 184.117 31.9963 184.171 31.9963C184.513 32.0323 184.783 32.0683 185.161 32.0683C185.791 32.0683 186.115 31.8703 186.421 30.8083C186.727 29.7823 186.889 28.3783 186.889 26.9023C186.889 25.2823 186.583 24.8503 185.719 24.8503C185.323 24.8503 184.873 24.8683 184.387 24.9043ZM191.551 21.8263C192.685 22.9063 193.801 24.5623 194.413 25.7683C194.521 25.9843 194.557 26.2003 194.557 26.3803C194.557 27.0103 194.053 27.4243 193.513 27.4243C193.153 27.4243 192.775 27.2263 192.523 26.7403C191.875 25.4443 190.921 24.0583 189.967 23.0323C189.769 22.8163 189.679 22.5823 189.679 22.3843C189.679 21.8803 190.183 21.4843 190.723 21.4843C191.011 21.4843 191.299 21.5923 191.551 21.8263ZM193.099 18.5503C192.955 18.4063 192.901 18.2623 192.901 18.1183C192.901 17.7583 193.243 17.4523 193.657 17.4523C193.837 17.4523 194.017 17.5243 194.197 17.6683C194.665 18.0643 195.205 18.6223 195.583 19.1443C195.727 19.3243 195.781 19.5043 195.781 19.6843C195.781 20.0803 195.439 20.3683 195.061 20.3683C194.845 20.3683 194.611 20.2783 194.431 20.0443C194.017 19.5223 193.513 18.9823 193.099 18.5503ZM191.299 19.9723C191.173 19.8283 191.119 19.6843 191.119 19.5583C191.119 19.1983 191.479 18.8743 191.875 18.8743C192.037 18.8743 192.217 18.9283 192.379 19.0723C192.865 19.5043 193.405 20.0803 193.783 20.6383C193.909 20.8003 193.945 20.9623 193.945 21.1243C193.945 21.5203 193.603 21.8443 193.225 21.8443C193.009 21.8443 192.793 21.7363 192.631 21.5023C192.199 20.9083 191.713 20.3863 191.299 19.9723ZM208.759 17.7763H213.007C213.457 17.7763 213.727 18.1003 213.727 18.5143C213.727 18.9463 213.421 19.2343 213.007 19.2343H209.317C208.795 19.2343 208.507 19.5043 208.507 20.0263V31.4023C208.507 31.8163 208.147 32.0863 207.715 32.0863C207.301 32.0863 206.905 31.8163 206.905 31.4023V19.6303C206.905 18.4243 207.553 17.7763 208.759 17.7763ZM225.157 19.0003V20.7823H226.309C227.353 20.7823 228.343 20.8003 229.261 20.8183C229.873 20.8363 230.179 21.3043 230.179 21.7903C230.179 22.2583 229.873 22.7083 229.261 22.7083C228.559 22.6903 227.785 22.6723 226.975 22.6723C226.399 22.6723 225.805 22.6903 225.193 22.6903C225.193 23.3203 225.211 23.9503 225.247 24.5803C226.435 24.5083 227.587 24.4183 228.631 24.2923H228.775C229.405 24.2923 229.729 24.7423 229.729 25.2103C229.729 25.6423 229.441 26.0923 228.847 26.1643C227.749 26.3083 226.561 26.3983 225.355 26.4703C225.391 27.2623 225.463 28.0543 225.535 28.8463C227.065 29.2423 228.595 29.9083 230.053 30.8083C230.485 31.0783 230.665 31.4383 230.665 31.7803C230.665 32.3383 230.197 32.8423 229.603 32.8423C229.405 32.8423 229.207 32.7883 228.991 32.6443C227.893 31.9243 226.777 31.3303 225.661 30.9163V31.0423C225.661 32.9863 223.969 33.9223 221.881 33.9223C219.595 33.9223 218.191 32.8243 218.191 31.1503C218.191 29.5843 219.487 28.3783 222.061 28.3783C222.547 28.3783 223.015 28.4143 223.519 28.4683C223.465 27.8203 223.393 27.1723 223.375 26.5423H222.349C221.269 26.5423 220.171 26.5063 219.541 26.4343C218.947 26.3623 218.677 25.9123 218.677 25.4803C218.677 25.0123 219.001 24.5263 219.577 24.5263H219.703C220.369 24.5983 221.269 24.6523 222.295 24.6523H223.267C223.231 24.0043 223.213 23.3743 223.195 22.7263C221.665 22.7623 220.171 22.8163 218.911 22.8703C218.299 22.8883 217.975 22.4023 217.975 21.9163C217.975 21.4483 218.263 20.9983 218.875 20.9623C220.135 20.9083 221.629 20.8363 223.159 20.8183V19.0003C223.159 18.4603 223.663 18.1903 224.167 18.1903C224.653 18.1903 225.157 18.4603 225.157 19.0003ZM221.881 32.0683C223.087 32.0683 223.681 31.5103 223.681 30.7543V30.3583C223.123 30.2503 222.601 30.1963 222.061 30.1963C220.657 30.1963 220.243 30.6283 220.243 31.1683C220.243 31.6543 220.711 32.0683 221.881 32.0683ZM246.163 31.4383C246.127 33.4543 244.651 34.1743 242.923 34.1743C240.781 34.1743 239.485 33.2383 239.485 31.5643C239.485 30.1243 240.709 28.9363 243.013 28.9363C243.301 28.9363 243.589 28.9543 243.913 28.9903C243.787 28.1623 243.733 27.5503 243.733 27.0823C243.733 26.3083 243.769 25.9123 243.859 25.3363C243.949 24.8323 244.363 24.6163 244.795 24.6163C245.299 24.6163 245.803 24.9043 245.803 25.4443C245.803 25.4983 245.785 25.5343 245.785 25.5883C245.713 26.1103 245.659 26.5603 245.659 27.0643C245.659 27.5683 245.713 28.2703 245.911 29.4043C247.063 29.7463 248.251 30.2683 249.295 30.9703C249.637 31.2043 249.781 31.5103 249.781 31.8163C249.781 32.3203 249.367 32.8063 248.827 32.8063C248.647 32.8063 248.431 32.7343 248.215 32.5903C247.549 32.1223 246.847 31.7263 246.163 31.4383ZM242.923 32.3923C243.751 32.3923 244.201 32.0323 244.201 31.2403C244.201 31.0783 244.201 30.9343 244.183 30.7903C243.787 30.7183 243.409 30.6823 243.049 30.6823C241.789 30.6823 241.393 31.0783 241.393 31.5643C241.393 32.0863 241.753 32.3923 242.923 32.3923ZM238.999 21.8263C239.269 20.9083 239.521 19.9903 239.701 19.0903C239.809 18.5503 240.241 18.3163 240.673 18.3163C241.177 18.3163 241.645 18.6223 241.645 19.1983C241.645 19.2703 241.645 19.3603 241.627 19.4323C241.483 20.1163 241.303 20.8363 241.105 21.5563C241.645 21.4663 242.185 21.3763 242.689 21.2863C242.761 21.2683 242.833 21.2683 242.887 21.2683C243.463 21.2683 243.823 21.7363 243.823 22.2223C243.823 22.6183 243.589 23.0143 243.013 23.1403C242.239 23.3023 241.357 23.4463 240.475 23.5723C239.719 25.7503 238.747 27.9103 237.703 29.6383C237.433 30.0883 237.055 30.2863 236.695 30.2863C236.155 30.2863 235.687 29.8723 235.687 29.3323C235.687 29.1343 235.741 28.9183 235.885 28.7023C236.803 27.2623 237.631 25.5883 238.315 23.8063C237.649 23.8783 237.001 23.9143 236.443 23.9323C235.831 23.9503 235.507 23.4463 235.507 22.9423C235.507 22.4743 235.795 22.0243 236.371 22.0063C237.181 21.9703 238.081 21.9163 238.999 21.8263ZM246.991 21.6103C247.855 21.8443 248.971 22.3483 249.745 22.8343C250.159 23.0863 250.339 23.4463 250.339 23.7703C250.339 24.2923 249.907 24.7603 249.385 24.7603C249.205 24.7603 249.025 24.7063 248.845 24.5983C247.999 24.1123 247.063 23.6443 246.271 23.3563C245.821 23.1943 245.623 22.8703 245.623 22.5463C245.623 22.0603 246.037 21.5563 246.649 21.5563C246.757 21.5563 246.865 21.5743 246.991 21.6103ZM259.609 26.0023L259.645 26.0203C260.167 25.6963 260.707 25.5523 261.283 25.5523C262.939 25.5523 263.839 26.5423 263.965 29.3503C264.055 31.3123 264.487 31.5823 265.171 31.5823C265.981 31.5823 266.665 30.8803 267.295 29.2423C267.475 28.7743 267.871 28.5583 268.267 28.5583C268.807 28.5583 269.347 28.9543 269.347 29.5303C269.347 29.6563 269.311 29.8003 269.257 29.9623C268.321 32.4463 266.971 33.6163 265.027 33.6163C263.155 33.6163 262.003 32.6083 261.877 29.5303C261.805 27.7483 261.535 27.3703 260.797 27.3703C259.843 27.3703 258.871 28.2523 257.989 30.0883C257.593 30.9163 257.071 32.0143 256.675 32.8783C256.477 33.2923 256.099 33.4903 255.721 33.4903C255.181 33.4903 254.641 33.1123 254.641 32.5363C254.641 32.4103 254.677 32.2843 254.731 32.1403C256.315 28.3243 258.601 23.4463 260.671 19.6123C260.869 19.2343 261.229 19.0723 261.589 19.0723C262.165 19.0723 262.723 19.4683 262.723 20.0083C262.723 20.1523 262.687 20.2963 262.615 20.4403L259.609 26.0023ZM280.456 22.4563V22.4203C278.296 22.7083 275.434 23.1403 272.842 23.5183C272.77 23.5363 272.716 23.5363 272.662 23.5363C272.014 23.5363 271.654 23.0143 271.654 22.5103C271.654 22.0423 271.942 21.6103 272.59 21.5203C276.334 21.0523 280.978 20.5303 284.722 20.1883H284.83C285.46 20.1883 285.802 20.6563 285.802 21.1423C285.802 21.5743 285.532 22.0063 284.974 22.1143C284.344 22.2223 283.66 22.4563 282.994 22.8343C280.186 24.4363 279.592 26.3083 279.592 28.0183C279.592 30.0163 280.978 31.2403 283.498 31.5463C284.164 31.6363 284.47 32.1223 284.47 32.6083C284.47 33.1483 284.128 33.6703 283.408 33.6703C283.282 33.6703 282.904 33.6523 282.598 33.5983C279.322 32.9863 277.504 30.7543 277.504 28.0723C277.504 26.1823 278.422 24.0583 280.456 22.4563ZM283.282 25.7323C283.156 25.5883 283.102 25.4443 283.102 25.3183C283.102 24.9583 283.462 24.6343 283.858 24.6343C284.02 24.6343 284.2 24.6883 284.362 24.8323C284.848 25.2643 285.388 25.8403 285.766 26.3983C285.892 26.5603 285.928 26.7223 285.928 26.8843C285.928 27.2803 285.586 27.6043 285.208 27.6043C284.992 27.6043 284.776 27.4963 284.614 27.2623C284.182 26.6683 283.696 26.1463 283.282 25.7323ZM285.082 24.3103C284.938 24.1663 284.884 24.0223 284.884 23.8783C284.884 23.5183 285.226 23.2123 285.64 23.2123C285.82 23.2123 286 23.2843 286.18 23.4283C286.648 23.8243 287.188 24.3823 287.566 24.9043C287.71 25.0843 287.764 25.2643 287.764 25.4443C287.764 25.8403 287.422 26.1283 287.044 26.1283C286.828 26.1283 286.594 26.0383 286.414 25.8043C286 25.2823 285.496 24.7423 285.082 24.3103ZM298.942 19.3783V20.5483C298.942 21.1783 298.942 21.7903 298.96 22.3843C300.202 22.2943 301.444 22.1323 302.506 21.8983C302.578 21.8803 302.65 21.8803 302.722 21.8803C303.316 21.8803 303.658 22.3663 303.658 22.8703C303.658 23.2843 303.424 23.6983 302.866 23.8243C301.732 24.0763 300.382 24.2563 299.014 24.3283C299.104 25.7683 299.176 27.2263 299.356 28.6483C300.958 29.1343 302.542 29.8903 303.946 30.8263C304.324 31.0783 304.468 31.4203 304.468 31.7443C304.468 32.3023 304.036 32.8243 303.424 32.8243C303.19 32.8243 302.938 32.7523 302.668 32.5543C301.678 31.8703 300.562 31.2403 299.428 30.7723C299.212 32.5723 297.79 33.8143 295.324 33.8143C293.074 33.8143 291.49 32.7883 291.49 30.9523C291.49 29.3683 292.948 28.0363 295.378 28.0363C295.99 28.0363 296.62 28.0903 297.268 28.1803C297.052 26.0743 296.872 23.5903 296.872 20.4943V19.3783C296.872 18.8023 297.394 18.5323 297.916 18.5323C298.42 18.5323 298.942 18.8023 298.942 19.3783ZM295.324 31.9243C296.512 31.9243 297.394 31.2403 297.394 30.1423C296.71 29.9803 296.026 29.8903 295.378 29.8903C294.208 29.8903 293.632 30.3223 293.632 30.9523C293.632 31.6003 294.136 31.9243 295.324 31.9243ZM314.89 24.5443C314.17 27.5143 313.126 30.4303 311.848 32.6803C311.614 33.0943 311.236 33.2563 310.876 33.2563C310.354 33.2563 309.886 32.8963 309.886 32.3563C309.886 32.1943 309.94 31.9963 310.048 31.7983C311.182 29.8003 312.118 27.3343 312.802 24.7603C312.064 24.8503 311.344 24.9763 310.66 25.1203C310.588 25.1383 310.498 25.1383 310.426 25.1383C309.868 25.1383 309.562 24.6883 309.562 24.2203C309.562 23.8063 309.814 23.3923 310.372 23.2843C311.29 23.1043 312.28 22.9783 313.234 22.8703C313.45 21.7723 313.63 20.6563 313.756 19.5583C313.828 18.9823 314.278 18.7123 314.746 18.7123C315.25 18.7123 315.754 19.0363 315.754 19.6123V19.7383C315.646 20.7103 315.484 21.7183 315.286 22.7083C315.646 22.6903 315.97 22.6903 316.258 22.6903C318.562 22.6903 319.408 23.7343 319.408 26.5603C319.408 28.2523 319.228 29.7643 318.922 30.8623C318.346 32.9323 317.536 33.6703 315.718 33.6703C315.286 33.6703 314.836 33.6343 314.494 33.5803C313.882 33.4903 313.612 33.0403 313.612 32.6083C313.612 32.1043 313.936 31.6183 314.53 31.6183C314.566 31.6183 314.62 31.6363 314.674 31.6363C315.016 31.6723 315.286 31.7083 315.664 31.7083C316.294 31.7083 316.618 31.5103 316.924 30.4483C317.23 29.4223 317.392 28.0183 317.392 26.5423C317.392 24.9223 317.086 24.4903 316.222 24.4903C315.826 24.4903 315.376 24.5083 314.89 24.5443ZM322.234 21.4663C323.368 22.5463 324.484 24.2023 325.096 25.4083C325.204 25.6243 325.24 25.8403 325.24 26.0203C325.24 26.6503 324.736 27.0643 324.196 27.0643C323.836 27.0643 323.458 26.8663 323.206 26.3803C322.558 25.0843 321.604 23.6983 320.65 22.6723C320.452 22.4563 320.362 22.2223 320.362 22.0243C320.362 21.5203 320.866 21.1243 321.406 21.1243C321.694 21.1243 321.982 21.2323 322.234 21.4663ZM337.336 24.4543C339.964 24.4543 341.764 25.8763 341.764 28.1443C341.764 30.9523 339.658 32.9323 335.626 33.5083C335.572 33.5263 335.5 33.5263 335.446 33.5263C334.906 33.5263 334.618 33.0763 334.618 32.6443C334.618 32.2663 334.852 31.8883 335.356 31.7983C338.776 31.2043 339.946 30.0523 339.946 28.1443C339.946 26.9923 339.118 26.0923 337.336 26.0923C335.482 26.0923 333.16 26.6863 330.514 27.8563C330.37 27.9283 330.226 27.9463 330.082 27.9463C329.578 27.9463 329.236 27.5323 329.236 27.1003C329.236 26.7763 329.416 26.4343 329.848 26.2543C332.512 25.0843 335.212 24.4543 337.336 24.4543ZM349.972 24.0223C349.234 24.1303 348.496 24.2383 347.758 24.2383C347.164 24.2383 346.858 23.7883 346.858 23.3023C346.858 22.8163 347.164 22.3483 347.776 22.3123C348.496 22.2763 349.36 22.1683 350.332 22.0063C350.494 21.0163 350.566 20.2243 350.674 19.2343C350.728 18.6763 351.196 18.4063 351.664 18.4063C352.168 18.4063 352.672 18.7303 352.672 19.3063V19.4143C352.582 20.2783 352.492 20.9263 352.384 21.6103C352.888 21.5023 353.41 21.3763 353.932 21.2503C354.022 21.2323 354.112 21.2143 354.202 21.2143C354.76 21.2143 355.102 21.6823 355.102 22.1683C355.102 22.5463 354.886 22.9243 354.4 23.0503C353.572 23.2843 352.78 23.4823 352.06 23.6443C351.412 27.1723 350.548 30.5023 349.54 33.1123C349.324 33.6523 348.874 33.9043 348.442 33.9043C347.938 33.9043 347.452 33.5443 347.452 32.9863C347.452 32.8243 347.488 32.6623 347.56 32.4823C348.55 30.0343 349.342 27.1723 349.972 24.0223ZM353.59 30.1963C353.59 29.5843 354.094 29.2423 354.598 29.2423C355.012 29.2423 355.408 29.4763 355.462 29.9983C355.588 31.1503 356.236 31.4743 358.198 31.4743C359.116 31.4743 359.89 31.4023 360.61 31.2943C360.664 31.2763 360.754 31.2763 360.808 31.2763C361.42 31.2763 361.762 31.7983 361.762 32.2843C361.762 32.7163 361.492 33.1483 360.934 33.2383C360.16 33.3643 359.26 33.4363 358.234 33.4363C355.714 33.4363 354.598 32.7883 354.022 31.8703C353.734 31.4203 353.59 30.7003 353.59 30.1963ZM355.39 24.3103C356.794 24.0223 358.576 23.8243 360.016 23.8243C360.664 23.8243 360.988 24.3103 360.988 24.7963C360.988 25.2643 360.682 25.7143 360.07 25.7143C358.63 25.7143 356.956 25.9303 355.678 26.1823C355.606 26.2003 355.516 26.2003 355.462 26.2003C354.904 26.2003 354.562 25.7503 354.562 25.2643C354.562 24.8503 354.814 24.4363 355.39 24.3103ZM371.986 22.4383C371.968 22.1143 371.842 20.8363 371.842 20.3503C371.842 19.5763 372.4 19.1263 373.138 19.1263C373.858 19.1263 374.398 19.5943 374.398 20.3503C374.398 20.8363 374.29 21.9163 374.254 22.4383C374.128 24.1843 374.002 26.8483 373.948 28.8463C373.93 29.3143 373.588 29.6023 373.102 29.6023C372.616 29.6023 372.31 29.3143 372.292 28.8463C372.22 26.8663 372.112 24.2023 371.986 22.4383ZM373.12 30.7723C373.894 30.7723 374.488 31.3663 374.488 32.1223C374.488 32.8783 373.894 33.4543 373.12 33.4543C372.346 33.4543 371.752 32.8783 371.752 32.1223C371.752 31.3663 372.346 30.7723 373.12 30.7723ZM388.618 35.0203H384.37C383.92 35.0203 383.65 34.6963 383.65 34.2823C383.65 33.8503 383.956 33.5623 384.37 33.5623H388.06C388.582 33.5623 388.87 33.2923 388.87 32.7703V21.3943C388.87 20.9803 389.23 20.7103 389.662 20.7103C390.076 20.7103 390.472 20.9803 390.472 21.3943V33.1663C390.472 34.3723 389.824 35.0203 388.618 35.0203ZM408.418 25.7863C408.022 24.0583 407.752 21.9163 407.752 19.4323C407.752 18.7843 408.274 18.4603 408.796 18.4603C409.318 18.4603 409.84 18.7843 409.84 19.4323C409.84 21.4483 410.002 23.2483 410.254 24.7063C411.352 24.1663 412.576 23.6803 413.8 23.3023C413.908 23.2663 414.016 23.2483 414.124 23.2483C414.682 23.2483 415.06 23.7523 415.06 24.2563C415.06 24.6343 414.862 24.9943 414.394 25.1383C412.792 25.6423 410.992 26.3803 409.66 27.2263C408.112 28.2343 407.572 29.2243 407.572 30.1423C407.572 31.2583 408.31 31.8343 411.172 31.8343C412.612 31.8343 413.89 31.7083 414.898 31.5103C414.988 31.4923 415.06 31.4923 415.132 31.4923C415.762 31.4923 416.104 31.9783 416.104 32.4823C416.104 32.9323 415.852 33.3643 415.294 33.4903C414.07 33.7423 412.684 33.8323 411.154 33.8323C407.374 33.8323 405.484 32.6803 405.484 30.2503C405.484 28.7743 406.168 27.3163 408.418 25.7863ZM424.924 20.1883H428.146C428.614 20.1883 428.83 20.5663 428.83 20.9443C428.83 21.3223 428.614 21.7003 428.146 21.7003H426.67C426.85 22.0063 427.012 22.3123 427.138 22.6003C427.192 22.7263 427.21 22.8343 427.21 22.9423C427.21 23.4283 426.778 23.7343 426.328 23.7343C425.986 23.7343 425.662 23.5723 425.5 23.1583C425.32 22.7083 425.104 22.2223 424.816 21.7003H424.096C423.7 22.3123 423.286 22.8883 422.872 23.3743C422.62 23.6623 422.314 23.7883 422.044 23.7883C421.558 23.7883 421.144 23.3923 421.144 22.9423C421.144 22.7443 421.234 22.5283 421.414 22.3123C422.278 21.3223 423.07 19.9363 423.556 18.7303C423.718 18.3163 424.096 18.1363 424.456 18.1363C424.942 18.1363 425.392 18.4603 425.392 18.9463C425.392 19.0543 425.374 19.1803 425.32 19.3063C425.212 19.5943 425.068 19.9003 424.924 20.1883ZM431.998 20.1883H436.66C437.128 20.1883 437.362 20.5663 437.362 20.9443C437.362 21.3223 437.128 21.7003 436.66 21.7003H434.068C434.284 22.0063 434.446 22.3123 434.608 22.6183C434.68 22.7443 434.698 22.8883 434.698 22.9963C434.698 23.4643 434.266 23.7883 433.816 23.7883C433.51 23.7883 433.204 23.6263 433.024 23.2663C432.79 22.7623 432.502 22.2223 432.16 21.7003H431.188C431.026 21.9523 430.864 22.1863 430.702 22.4203C430.468 22.7443 430.18 22.8703 429.892 22.8703H429.856C430.054 23.0323 430.18 23.2663 430.18 23.5183C430.18 23.5723 430.18 23.6263 430.162 23.6803C431.98 25.2463 434.41 26.4883 436.876 27.2983C437.38 27.4603 437.596 27.8383 437.596 28.2163C437.596 28.6843 437.236 29.1523 436.66 29.1523C436.516 29.1523 436.372 29.1343 436.21 29.0803C433.852 28.2703 431.206 26.7223 429.118 24.9403C427.192 26.8303 424.636 28.4503 422.188 29.4583C422.044 29.5123 421.918 29.5483 421.792 29.5483C421.27 29.5483 420.928 29.0983 420.928 28.6303C420.928 28.3063 421.108 27.9823 421.54 27.8023C424.15 26.7583 426.706 25.0483 428.506 22.9783C428.722 22.7263 428.974 22.6363 429.226 22.6363H429.28C429.1 22.4743 428.992 22.2583 428.992 22.0063C428.992 21.8443 429.046 21.6823 429.172 21.5023C429.73 20.7103 430.252 19.8103 430.702 18.6763C430.864 18.2803 431.188 18.1183 431.53 18.1183C431.998 18.1183 432.466 18.4243 432.466 18.9283C432.466 19.0363 432.43 19.1443 432.394 19.2703C432.286 19.5763 432.142 19.8823 431.998 20.1883ZM432.142 34.5343H426.4C424.852 34.5343 424.204 33.9763 424.204 32.8963V31.2583C424.204 30.1783 424.852 29.6203 426.4 29.6203H432.142C433.69 29.6203 434.338 30.1783 434.338 31.2583V32.8963C434.338 34.2643 433.312 34.5343 432.142 34.5343ZM426.724 33.0583H431.818C432.322 33.0583 432.43 32.9323 432.43 32.6083V31.5463C432.43 31.2223 432.322 31.0963 431.818 31.0963H426.724C426.22 31.0963 426.112 31.2223 426.112 31.5463V32.6083C426.112 32.9683 426.256 33.0583 426.724 33.0583ZM431.26 28.5403H427.192C426.76 28.5403 426.526 28.1443 426.526 27.7483C426.526 27.3523 426.76 26.9563 427.192 26.9563H431.26C431.71 26.9563 431.926 27.3523 431.926 27.7483C431.926 28.1443 431.71 28.5403 431.26 28.5403ZM446.02 18.6223C447.208 18.7663 448.684 19.1263 449.746 19.4863C450.25 19.6663 450.484 20.0443 450.484 20.4223C450.484 20.9263 450.106 21.4123 449.548 21.4123C449.422 21.4123 449.296 21.3943 449.152 21.3403C448.108 20.9983 446.758 20.6743 445.678 20.4943C445.084 20.4043 444.832 20.0083 444.832 19.5943C444.832 19.1083 445.21 18.6043 445.84 18.6043C445.894 18.6043 445.966 18.6043 446.02 18.6223ZM443.032 23.2303L449.35 22.2763C449.44 22.2583 449.53 22.2583 449.62 22.2583C450.448 22.2583 450.952 22.8523 450.952 23.4823C450.952 23.7883 450.844 24.0943 450.592 24.3643L447.586 27.4423L447.622 27.4963C447.91 27.4063 448.18 27.3523 448.432 27.3523C449.602 27.3523 450.304 28.0723 450.376 29.6383L450.394 30.0163C450.448 31.1503 450.664 31.4923 451.564 31.4923C452.482 31.4923 453.508 31.3303 454.462 31.1323C454.57 31.1143 454.66 31.0963 454.768 31.0963C455.38 31.0963 455.722 31.6003 455.722 32.1043C455.722 32.5363 455.488 32.9503 454.984 33.0583C453.76 33.3283 452.608 33.4363 451.6 33.4363C449.512 33.4363 448.504 32.5903 448.414 30.3223L448.396 29.9083C448.36 29.2423 448.126 28.9723 447.73 28.9723C447.19 28.9723 446.56 29.2063 445.768 29.8363C445.12 30.3583 444.112 31.3843 442.654 32.9863C442.402 33.2563 442.132 33.3643 441.844 33.3643C441.304 33.3643 440.836 32.9323 440.836 32.4103C440.836 32.1583 440.926 31.8883 441.178 31.6363L448.054 24.3823L448.036 24.3283L443.338 25.1563C443.266 25.1743 443.194 25.1743 443.14 25.1743C442.546 25.1743 442.186 24.6703 442.186 24.1843C442.186 23.7523 442.438 23.3203 443.032 23.2303ZM462.292 24.0223C461.554 24.1303 460.816 24.2383 460.078 24.2383C459.484 24.2383 459.178 23.7883 459.178 23.3023C459.178 22.8163 459.484 22.3483 460.096 22.3123C460.816 22.2763 461.68 22.1683 462.652 22.0063C462.814 21.0163 462.886 20.2243 462.994 19.2343C463.048 18.6763 463.516 18.4063 463.984 18.4063C464.488 18.4063 464.992 18.7303 464.992 19.3063V19.4143C464.902 20.2783 464.812 20.9263 464.704 21.6103C465.208 21.5023 465.73 21.3763 466.252 21.2503C466.342 21.2323 466.432 21.2143 466.522 21.2143C467.08 21.2143 467.422 21.6823 467.422 22.1683C467.422 22.5463 467.206 22.9243 466.72 23.0503C465.892 23.2843 465.1 23.4823 464.38 23.6443C463.732 27.1723 462.868 30.5023 461.86 33.1123C461.644 33.6523 461.194 33.9043 460.762 33.9043C460.258 33.9043 459.772 33.5443 459.772 32.9863C459.772 32.8243 459.808 32.6623 459.88 32.4823C460.87 30.0343 461.662 27.1723 462.292 24.0223ZM465.91 30.1963C465.91 29.5843 466.414 29.2423 466.918 29.2423C467.332 29.2423 467.728 29.4763 467.782 29.9983C467.908 31.1503 468.556 31.4743 470.518 31.4743C471.436 31.4743 472.21 31.4023 472.93 31.2943C472.984 31.2763 473.074 31.2763 473.128 31.2763C473.74 31.2763 474.082 31.7983 474.082 32.2843C474.082 32.7163 473.812 33.1483 473.254 33.2383C472.48 33.3643 471.58 33.4363 470.554 33.4363C468.034 33.4363 466.918 32.7883 466.342 31.8703C466.054 31.4203 465.91 30.7003 465.91 30.1963ZM467.71 24.3103C469.114 24.0223 470.896 23.8243 472.336 23.8243C472.984 23.8243 473.308 24.3103 473.308 24.7963C473.308 25.2643 473.002 25.7143 472.39 25.7143C470.95 25.7143 469.276 25.9303 467.998 26.1823C467.926 26.2003 467.836 26.2003 467.782 26.2003C467.224 26.2003 466.882 25.7503 466.882 25.2643C466.882 24.8503 467.134 24.4363 467.71 24.3103Z" fill="#282828"/>
<path d="M103.844 34.4383V25.6783C102.86 25.7503 101.9 25.7983 100.988 25.8463C100.292 25.8703 99.9559 25.2943 99.9559 24.7183C99.9559 24.1423 100.268 23.5903 100.94 23.5903C101.324 23.5903 101.732 23.5663 102.14 23.5423C102.668 22.8463 103.172 22.1023 103.676 21.3583C102.764 20.3023 101.756 19.2463 100.868 18.4303C100.604 18.1903 100.484 17.9023 100.484 17.6383C100.484 17.0623 101.012 16.5343 101.636 16.5343C101.876 16.5343 102.164 16.6303 102.404 16.8463L102.476 16.8943C103.004 15.9823 103.532 14.9263 103.988 13.8703C104.204 13.3663 104.66 13.1503 105.092 13.1503C105.716 13.1503 106.34 13.5583 106.34 14.2063C106.34 14.3503 106.316 14.4943 106.244 14.6623C105.668 16.0063 104.9 17.3263 104.132 18.5503C104.396 18.8143 104.66 19.1023 104.9 19.4143C105.404 18.5503 105.884 17.7343 106.268 16.9903C106.484 16.5343 106.868 16.3663 107.252 16.3663C107.876 16.3663 108.524 16.8463 108.524 17.4703C108.524 17.6383 108.476 17.8303 108.356 18.0223C107.396 19.7263 106.1 21.7423 104.876 23.3983C105.572 23.3263 106.268 23.2783 106.964 23.2063C106.844 23.0143 106.724 22.8223 106.628 22.6543C106.532 22.4863 106.484 22.3183 106.484 22.1503C106.484 21.6463 106.988 21.2383 107.516 21.2383C107.852 21.2383 108.212 21.3823 108.452 21.7423C109.028 22.5583 109.7 23.8303 110.108 24.9103C110.156 25.0543 110.18 25.1743 110.18 25.2943C110.18 25.9183 109.58 26.3263 109.004 26.3263C108.62 26.3263 108.26 26.1343 108.092 25.7023C108.044 25.5343 107.972 25.3663 107.9 25.2223C107.372 25.2943 106.82 25.3663 106.292 25.4143V34.4383C106.292 35.0623 105.692 35.3983 105.068 35.3983C104.468 35.3983 103.844 35.0623 103.844 34.4383ZM114.14 17.8063H118.292C120.428 17.8063 121.244 18.6943 121.244 20.5423C121.244 24.9343 120.884 29.0623 120.356 31.7263C119.9 34.0303 118.772 34.8463 116.876 34.8463C116.276 34.8463 115.676 34.7983 115.1 34.6783C114.284 34.5103 113.924 33.9343 113.924 33.3583C113.924 32.6863 114.404 32.0143 115.244 32.0143C115.316 32.0143 115.412 32.0143 115.508 32.0383C115.964 32.1343 116.372 32.1823 116.708 32.1823C117.332 32.1823 117.62 31.9663 117.788 31.1263C118.268 28.6303 118.604 24.7903 118.604 20.8783C118.604 20.3023 118.412 20.1343 117.74 20.1343H113.06C112.7 20.8303 112.316 21.5023 111.884 22.1503C111.548 22.6543 111.116 22.8463 110.684 22.8463C110.012 22.8463 109.388 22.3183 109.388 21.6463C109.388 21.3823 109.46 21.1183 109.652 20.8543C110.948 18.9343 111.956 16.5823 112.58 14.1103C112.748 13.4383 113.276 13.1503 113.828 13.1503C114.5 13.1503 115.22 13.6303 115.22 14.3503C115.22 14.4703 115.196 14.5663 115.172 14.6863C114.884 15.7423 114.548 16.7743 114.14 17.8063ZM108.764 27.3343C109.124 28.3183 109.484 29.5183 109.676 30.5743C109.7 30.6703 109.7 30.7423 109.7 30.8383C109.7 31.4863 109.148 31.8463 108.62 31.8463C108.164 31.8463 107.708 31.5823 107.612 31.0543C107.444 29.9983 107.132 28.7743 106.82 27.8383C106.772 27.7183 106.772 27.6223 106.772 27.5263C106.772 26.9983 107.276 26.6623 107.804 26.6623C108.188 26.6623 108.596 26.8543 108.764 27.3343ZM101.3 27.7423C101.396 27.2143 101.852 26.9503 102.308 26.9503C102.836 26.9503 103.364 27.2863 103.364 27.8863V28.0303C103.172 29.6143 102.74 31.2463 102.26 32.3503C102.044 32.8543 101.612 33.0463 101.204 33.0463C100.652 33.0463 100.1 32.6863 100.1 32.0863C100.1 31.9423 100.148 31.7743 100.22 31.6063C100.652 30.6943 101.084 29.1343 101.3 27.7423ZM114.428 23.5903C115.1 24.3103 115.748 25.1023 116.252 25.9423C116.42 26.2063 116.492 26.4703 116.492 26.7343C116.492 27.4783 115.844 28.0543 115.148 28.0543C114.74 28.0543 114.332 27.8623 114.02 27.3583C113.516 26.5183 113.012 25.7983 112.412 25.0783C112.196 24.8143 112.1 24.5503 112.1 24.2863C112.1 23.6383 112.724 23.1343 113.396 23.1343C113.756 23.1343 114.116 23.2543 114.428 23.5903ZM132.5 25.5343C131.684 26.0863 130.916 26.3263 129.812 26.3263C126.164 26.3263 124.028 24.0463 124.028 20.5903C124.028 17.3023 126.452 14.9263 130.076 14.9263C133.628 14.9263 136.1 17.3983 136.1 20.5903C136.1 23.1103 135.668 24.7663 134.42 27.0943C133.292 29.2063 131.492 31.2223 129.452 32.8543C129.188 33.0463 128.924 33.1663 128.636 33.1663C127.844 33.1663 127.268 32.5903 127.268 31.9423C127.268 31.5343 127.388 31.1983 127.7 30.9583C129.884 29.3263 131.492 27.6223 132.5 25.5343ZM130.076 17.1823C128.06 17.1823 126.812 18.6223 126.812 20.7103C126.812 22.8463 128.084 24.1423 129.956 24.1423C131.492 24.1423 132.548 23.5663 133.172 22.6303C133.34 22.0063 133.364 21.4063 133.364 20.7103C133.364 18.6463 132.044 17.1823 130.076 17.1823ZM141.975 18.5023L141.663 22.2463C142.407 21.8383 143.127 21.6463 143.847 21.6463C147.543 21.6463 150.159 23.7103 150.159 27.3583C150.159 31.0063 147.471 33.4063 143.895 33.4063C141.927 33.4063 140.151 32.8303 138.927 31.8463C138.519 31.5103 138.399 31.1983 138.399 30.7663C138.399 30.0463 138.975 29.5183 139.767 29.5183C139.983 29.5183 140.199 29.5903 140.487 29.8063C141.735 30.7183 142.671 31.0063 143.847 31.0063C145.863 31.0063 147.279 29.5663 147.279 27.4543C147.279 25.2703 145.935 23.9983 143.847 23.9983C143.103 23.9983 142.359 24.2383 141.783 24.5983C141.255 24.9103 141.039 25.0543 140.583 25.0543C139.743 25.0543 139.023 24.5503 139.023 23.6383V23.4943L139.527 17.1343C139.623 16.0063 140.511 15.3103 141.783 15.3103H148.311C149.031 15.3103 149.463 15.8383 149.463 16.5583C149.463 17.2783 149.031 17.8063 148.311 17.8063H142.767C142.239 17.8063 142.023 17.9983 141.975 18.5023ZM154.906 32.0143L166.618 15.2623C166.786 15.0223 167.026 14.9263 167.314 14.9263C167.842 14.9263 168.274 15.3583 168.274 15.7903C168.274 15.9823 168.226 16.1503 168.106 16.3183L156.394 33.0703C156.25 33.2623 155.986 33.4063 155.698 33.4063C155.194 33.4063 154.738 33.0463 154.738 32.5663C154.738 32.3743 154.786 32.1823 154.906 32.0143ZM156.346 14.9263C158.77 14.9263 160.354 16.7023 160.354 19.8703C160.354 23.0383 158.746 24.9343 156.346 24.9343C153.922 24.9343 152.314 23.0623 152.314 19.8943C152.314 16.7263 153.922 14.9263 156.346 14.9263ZM156.346 16.8223C155.122 16.8223 154.57 17.9023 154.57 19.9183C154.57 21.9343 155.074 23.0383 156.322 23.0383C157.546 23.0383 158.098 21.8623 158.098 19.8463C158.098 17.8303 157.57 16.8223 156.346 16.8223ZM166.69 23.3983C169.114 23.3983 170.698 25.1743 170.698 28.3423C170.698 31.5103 169.09 33.4063 166.69 33.4063C164.266 33.4063 162.658 31.5343 162.658 28.3663C162.658 25.1983 164.266 23.3983 166.69 23.3983ZM166.69 25.2943C165.466 25.2943 164.914 26.3743 164.914 28.3903C164.914 30.4063 165.418 31.5103 166.666 31.5103C167.914 31.5103 168.442 30.3343 168.442 28.3183C168.442 26.3023 167.914 25.2943 166.69 25.2943Z" fill="#E60012"/>
<path d="M509.439 0.238281L483.439 48.2383" stroke="black"/>
</svg>
