<svg width="709" height="119" viewBox="0 0 709 119" fill="none" xmlns="http://www.w3.org/2000/svg">
<path d="M37.2901 80.0773L36.0893 80.7157C37.8623 85.0734 38.9267 89.7172 38.991 94.4396C41.601 95.7701 44.3434 96.6679 47.1993 97.0976C48.1873 97.2518 48.8432 97.7186 49.1436 98.2837C49.6881 99.3079 49.2746 100.66 48.215 101.224C47.7912 101.449 47.2569 101.552 46.6453 101.424C43.9119 100.884 41.2778 100.019 38.7406 98.7405C38.3221 102.043 37.3792 105.127 35.9494 108.061C35.7111 108.551 35.379 108.863 34.9904 109.07C34.0368 109.577 32.8655 109.248 32.3773 108.33C32.1144 107.835 32.0612 107.139 32.4694 106.287C33.9488 103.191 34.8707 99.9824 35.127 96.6298C32.7056 94.9724 30.4399 93.0965 28.471 90.9268C28.4039 91.8232 27.8996 92.4084 27.3345 92.7088C26.3809 93.2158 25.1577 92.9601 24.632 91.9711C24.463 91.6533 24.3812 91.2437 24.3865 90.7426C24.5851 86.5146 23.8273 81.2548 22.509 76.4742C22.1952 75.3726 22.7822 74.5169 23.5945 74.085C24.5481 73.5781 25.8563 73.6527 26.4008 74.677C26.4759 74.8183 26.5345 75.0136 26.5742 75.1737C27.0495 77.0049 27.4187 78.8925 27.7527 80.7988L35.4875 76.6867C36.4412 76.1797 37.3509 76.7833 37.8016 77.6309C38.2522 78.4786 38.2437 79.5704 37.2901 80.0773ZM32.522 82.6122L28.2837 84.8654C28.3047 84.9901 28.2904 85.1336 28.2927 85.223C30.287 87.6963 32.4911 89.9674 35.0085 91.8908C34.6599 88.6786 33.7416 85.5879 32.522 82.6122ZM16.4626 90.1532L16.6504 90.5064C18.5071 90.3348 20.4223 90.3585 22.3233 90.5257C23.1302 90.595 23.6591 90.9934 23.9032 91.4525C24.3351 92.2649 24.0583 93.3633 23.1754 93.8327C22.8222 94.0205 22.4127 94.1023 21.8739 94.0263C20.7424 93.8577 19.5049 93.7455 18.3403 93.6851L18.9787 94.886C19.4856 95.8396 18.9009 96.7847 18.0532 97.2353C17.1702 97.7048 16.0597 97.6609 15.5527 96.7073L15.2335 96.1069L14.6072 94.6731C13.962 96.7829 12.9802 99.0263 11.7963 101.06C11.5558 101.46 11.259 101.753 10.9411 101.922C10.0581 102.392 8.97619 102.061 8.54433 101.249C8.28146 100.754 8.26358 100.039 8.7281 99.2936C9.86235 97.4221 10.9148 95.1412 11.5886 92.7444L7.06772 95.1478C6.22006 95.5985 5.34783 95.0655 4.95352 94.3238C4.54043 93.5468 4.60527 92.561 5.45293 92.1104L11.4218 88.9371L8.3988 83.2508C7.87306 82.2618 8.47662 81.352 9.3596 80.8826C10.2073 80.432 11.299 80.4405 11.8248 81.4294L14.8478 87.1158L20.3223 84.2054C21.2052 83.736 22.0234 84.2524 22.4365 85.0294C22.8308 85.7711 22.82 86.7734 21.937 87.2428L16.4626 90.1532ZM28.9591 99.0028L27.2285 99.9228C27.473 101.831 27.4493 103.747 27.1032 105.652C27.962 105.649 28.7855 105.664 29.5925 105.733C30.4348 105.784 30.9637 106.182 31.2453 106.712C31.7148 107.595 31.3696 108.82 30.3807 109.346C30.0275 109.534 29.5826 109.634 29.0627 109.593C28.0581 109.493 27.0182 109.412 25.9265 109.403C24.7086 112.225 22.8581 114.795 20.4976 117.001C20.3044 117.149 20.1466 117.278 19.97 117.372C18.9104 117.935 17.7887 117.444 17.3381 116.597C16.9626 115.89 17.0296 114.994 17.8518 114.24C19.5127 112.677 20.849 111.016 21.8089 109.327C21.0395 109.329 20.2348 109.349 19.4841 109.385C19.3066 110.159 18.8895 110.653 18.3244 110.953C17.4414 111.423 16.2911 111.219 15.8592 110.407C15.6715 110.053 15.625 109.625 15.7198 109.122C15.9777 107.988 16.1463 106.856 16.2795 105.744L13.1715 107.396C12.2885 107.865 11.4163 107.332 11.0032 106.555C10.5901 105.778 10.6361 104.757 11.5191 104.288L16.4638 101.659L16.3605 99.6755C16.3217 98.8354 16.7365 98.2524 17.3723 97.9144C18.2553 97.445 19.4574 97.576 19.9081 98.4237C20.002 98.6003 20.0605 98.7957 20.1026 99.0451L20.1723 99.6876L27.3067 95.8947C28.225 95.4065 29.0973 95.9394 29.5104 96.7164C29.9235 97.4935 29.8774 98.5146 28.9591 99.0028ZM23.6612 101.819L20.2353 103.641L20.0439 106.007C21.0959 105.856 22.1501 105.794 23.2396 105.713C23.566 104.452 23.676 103.125 23.6612 101.819ZM14.9641 81.0289C15.0357 80.3113 15.4175 79.8365 15.9119 79.5737C16.7243 79.1418 17.8393 79.3645 18.2711 80.1768C18.4213 80.4593 18.5197 80.8148 18.4768 81.2453C18.3932 82.1958 18.2224 83.2379 17.9411 84.1575C17.7592 84.7526 17.4292 85.1545 17.0054 85.3798C16.1931 85.8117 15.1134 85.5703 14.6815 84.7579C14.5125 84.44 14.4473 83.9764 14.5774 83.4542C14.7549 82.6804 14.8827 82.0688 14.9641 81.0289ZM4.90664 88.8673C4.43632 88.6643 4.16138 88.4028 3.99239 88.0849C3.56052 87.2726 3.96424 86.2425 4.84722 85.7731C5.30637 85.529 5.93004 85.424 6.61674 85.6931C7.30344 85.9622 8.08179 86.3186 8.80828 86.7478C9.13509 86.9364 9.41004 87.198 9.54147 87.4452C10.0109 88.3282 9.51999 89.4499 8.63701 89.9193C8.14255 90.1822 7.48132 90.2166 6.82771 89.8393C6.22818 89.4785 5.6309 89.2071 4.90664 88.8673ZM55.9812 62.7863L54.8474 60.1824C54.4003 59.1555 55.2036 58.195 56.2305 57.7479C57.2207 57.3167 58.4711 57.383 58.9182 58.4099L60.052 61.0138L68.8905 57.1654C72.3379 55.6643 74.2011 56.3364 75.3189 58.9036L76.4207 61.4341C76.8838 62.4977 76.0805 63.4582 75.0903 63.8894C74.0634 64.3365 72.813 64.2702 72.3499 63.2066L71.5195 61.2995C71.1842 60.5294 70.7104 60.343 69.6835 60.7902L49.476 69.5888C48.4491 70.036 48.2627 70.5098 48.5981 71.2799L49.5083 73.3703C49.9714 74.4339 49.184 75.4311 48.1938 75.8623C47.1669 76.3094 45.9005 76.2064 45.4374 75.1429L44.2558 72.429C43.138 69.8618 43.9153 68.04 47.3627 66.5389L55.9812 62.7863ZM64.5622 81.6925L51.2128 87.5051C50.1859 87.9522 49.2526 87.3115 48.8853 86.468C48.502 85.5879 48.6849 84.5048 49.7117 84.0577L63.0612 78.2451L62.1829 76.228C61.7039 75.1278 62.4705 74.1832 63.4607 73.7521C63.6808 73.6563 63.9534 73.5812 64.1895 73.522C65.0868 72.4769 65.8582 71.443 66.4303 70.4522C66.6071 70.1571 66.674 69.9098 66.6101 69.7631C66.5462 69.6164 66.2416 69.6182 65.8015 69.8098L54.5792 74.6962C53.5156 75.1593 52.5982 74.5553 52.231 73.7118C51.8637 72.8683 52.0465 71.7853 53.1101 71.3222L66.0928 65.6693C68.66 64.5515 70.4706 65.2028 71.1093 66.6698C71.5085 67.5867 71.4422 68.8371 70.8145 70.2011C69.8029 72.3866 68.4276 74.3379 66.8464 76.1171L67.022 76.5205L80.1514 70.8038C81.215 70.3407 82.0957 70.9606 82.4789 71.8408C82.8462 72.6843 82.716 73.7881 81.6525 74.2512L68.5231 79.9679L71.3016 86.3492C72.7388 89.6499 71.8674 91.5563 68.6767 92.9456C67.6498 93.3927 66.701 93.7186 65.8303 93.9232C64.5976 94.1981 63.7169 93.5782 63.3496 92.7347C62.9344 91.7812 63.2001 90.4875 64.447 89.9446C64.557 89.8967 64.6671 89.8488 64.8297 89.8216C65.5744 89.6282 66.0672 89.4573 66.6173 89.2178C67.3875 88.8824 67.5324 88.5139 67.1172 87.5604L64.5622 81.6925ZM102.423 50.1968L102.396 50.1214C98.0865 52.3294 92.4134 55.3605 87.2657 58.0778C87.1283 58.169 87.0152 58.2092 86.9021 58.2493C85.5449 58.7307 84.4031 57.9049 84.0287 56.8494C83.681 55.8692 83.9632 54.7505 85.2535 54.0806C92.747 50.3188 102.085 45.7753 109.672 42.2774L109.899 42.1972C111.218 41.7291 112.282 42.4552 112.643 43.473C112.964 44.3778 112.72 45.4831 111.631 46.1239C110.392 46.8181 109.133 47.8164 108.019 49.1029C103.329 54.5442 103.475 58.9062 104.746 62.4875C106.23 66.672 110.042 68.2057 115.547 66.9744C117.009 66.6681 118.011 67.4586 118.372 68.4764C118.773 69.6074 118.445 70.9547 116.937 71.4896C116.673 71.5833 115.868 71.8264 115.187 71.9406C107.871 73.0928 102.406 69.7689 100.413 64.1519C99.0087 60.1935 99.3533 55.0631 102.423 50.1968ZM110.776 54.9583C110.405 54.7503 110.185 54.4889 110.091 54.225C109.824 53.471 110.337 52.525 111.166 52.2308C111.505 52.1104 111.923 52.0898 112.369 52.271C113.708 52.8147 115.266 53.6199 116.473 54.5077C116.857 54.7533 117.053 55.0659 117.173 55.4052C117.467 56.2345 116.992 57.1672 116.2 57.448C115.748 57.6085 115.215 57.5428 114.702 57.1731C113.356 56.25 111.95 55.5178 110.776 54.9583ZM113.489 50.6428C113.08 50.4482 112.86 50.1868 112.753 49.8852C112.486 49.1312 112.975 48.2363 113.842 47.9287C114.219 47.7949 114.649 47.812 115.133 47.9799C116.408 48.4615 117.953 49.229 119.133 50.0414C119.568 50.3114 119.815 50.6483 119.948 51.0252C120.243 51.8546 119.74 52.7119 118.949 52.9927C118.496 53.1532 117.939 53.1385 117.389 52.7822C116.134 51.9965 114.677 51.24 113.489 50.6428ZM130.37 34.7454L136.482 31.9647C136.845 31.7781 137.23 31.6686 137.615 31.559C140 30.8796 141.73 31.8425 142.31 33.8814C142.398 34.1892 142.486 34.497 142.507 34.8651C142.807 37.8159 142.887 40.8708 142.846 43.7938C145.484 43.4168 148.182 43.397 150.874 43.5036C150.744 41.586 150.416 39.5583 149.939 37.448C149.638 36.2445 150.501 35.3331 151.579 35.0263C152.694 34.7085 154.007 35.0832 154.391 36.4297C155.015 38.6224 155.321 41.4468 155.434 44.0348C157.609 44.3717 159.79 44.8735 161.976 45.5401C162.888 45.821 163.404 46.4643 163.602 47.1568C163.941 48.3493 163.336 49.7279 162.105 50.0786C161.682 50.1991 161.187 50.2152 160.638 50.0389C158.814 49.477 157.062 49.0196 155.342 48.6775C154.998 53.0178 153.835 56.9674 151.981 60.2405C151.541 61.0314 150.964 61.487 150.348 61.6623C149.156 62.002 147.898 61.2372 147.58 60.1216C147.438 59.6215 147.477 59.0281 147.807 58.435C149.513 55.3705 150.592 51.8604 150.854 47.9596C148.107 47.6607 145.398 47.642 142.662 47.9639C142.473 50.222 142.202 52.3371 141.843 54.1445C140.988 58.5888 139.338 60.3896 136.569 61.1786C133.376 62.0881 130.437 60.6791 129.309 56.7167C127.939 51.908 131.157 46.7074 137.582 44.8774L138.467 44.6254C138.535 41.9442 138.531 39.1585 138.149 36.6473C138.116 36.5318 138.122 36.4055 138.1 36.3285C138.001 35.9823 137.759 36.0096 137.243 36.2399L132.109 38.6588C131.966 38.7411 131.812 38.7849 131.697 38.8178C130.466 39.1685 129.439 38.338 129.143 37.2993C128.88 36.376 129.194 35.2884 130.37 34.7454ZM135.413 56.9744C136.528 56.6566 137.045 56.1351 137.536 53.9157C137.856 52.4105 138.072 50.6854 138.227 48.8944C134.237 50.0725 132.768 52.9448 133.458 55.3684C133.852 56.7534 134.643 57.1936 135.413 56.9744ZM182.509 33.4965L182.613 33.5962C184.105 32.5674 185.793 31.8639 187.354 31.5162C193.445 30.1602 198.167 32.5924 199.375 38.0195C200.896 44.8522 196.95 50.3204 189.336 52.0154C183.987 53.2062 179.982 51.2293 179.208 47.7544C178.556 44.8261 180.048 42.3221 183.523 41.5485C187.271 40.7141 190.443 42.6305 192.445 46.2829C194.605 44.5726 195.467 42.0038 194.815 39.0755C194.198 36.3034 191.516 34.5646 187.768 35.3991C183.825 36.277 180.302 38.4954 176.326 43.2737C175.875 43.8249 175.333 44.1505 174.825 44.2635C173.615 44.533 172.413 43.7351 172.16 42.6028C172.021 41.9781 172.147 41.2535 172.728 40.5504C176.475 36.0282 180.356 29.714 182.987 24.4156C181.143 25.1538 178.666 25.9921 176.749 26.5829C176.593 26.6177 175.604 26.9608 175.096 27.0738C173.847 27.352 172.909 26.4542 172.675 25.4C172.457 24.4239 172.865 23.3088 174.136 22.9438C177.264 22.0836 181.289 20.6546 184.907 19.2345C185.094 19.152 185.25 19.1173 185.445 19.0738C187.046 18.7174 188.391 19.6063 188.687 20.9338C188.817 21.5195 188.722 22.1963 188.392 22.9254C186.749 26.4055 184.538 30.463 182.509 33.4965ZM188.233 48.1631L188.545 48.0936C187.325 45.7425 185.858 44.6758 184.218 45.0408C183.399 45.2234 182.961 46.0175 183.152 46.8765C183.439 48.1649 185.148 48.8498 188.233 48.1631ZM211.468 41.2304C210.719 40.8669 210.385 40.3138 210.294 39.7612C210.119 38.6954 210.865 37.5596 212.088 37.3587C212.523 37.2874 213.022 37.3675 213.541 37.566C215.972 38.5451 219.445 40.6906 221.631 42.6424C222.247 43.1897 222.548 43.7888 222.639 44.3414C222.847 45.6045 221.936 46.7268 220.713 46.9277C220.042 47.0379 219.286 46.8782 218.617 46.2585C216.438 44.3462 213.635 42.3338 211.468 41.2304ZM258.098 36.0212L257.4 28.291C256.654 30.6278 255.655 32.8718 254.622 34.4355C254.14 35.1732 253.535 35.5222 252.939 35.5885C251.945 35.6989 251.026 35.0364 250.916 34.0425C250.871 33.6449 250.977 33.1502 251.287 32.6731C253.208 29.6826 254.674 25.8572 255.673 21.8021L251.578 22.2572C250.584 22.3677 249.961 21.471 249.86 20.5566C249.753 19.6025 250.169 18.6307 251.123 18.5246L256.092 17.9723L254.771 6.08552C254.652 5.01212 255.628 4.38043 256.662 4.26555C257.695 4.15067 258.786 4.55261 258.906 5.626L260.227 17.5128L264.043 17.0886C265.037 16.9782 265.656 17.8351 265.762 18.7892C265.863 19.7036 265.452 20.7152 264.459 20.8256L260.642 21.2498L260.828 22.9195C263.036 23.9619 265.205 25.371 266.102 26.197C266.641 26.7005 266.897 27.1953 266.955 27.7121C267.065 28.706 266.318 29.5938 265.364 29.6999C264.848 29.7573 264.264 29.5807 263.73 29.1169C263.014 28.472 262.179 27.8403 261.309 27.2528L262.683 39.6167C262.816 40.8094 261.849 41.5206 260.815 41.6355C259.781 41.7503 258.681 41.2689 258.549 40.0762L258.098 36.0212ZM282.649 22.9896L285.361 22.0442C285.516 21.9868 285.635 21.9735 285.794 21.9558C286.907 21.8321 287.702 22.8304 287.817 23.864C287.906 24.6591 287.552 25.4631 286.625 25.8077L283.1 27.0446L284.2 36.9437C284.337 38.1761 283.33 38.8917 282.256 39.011C281.143 39.1347 280.003 38.6577 279.866 37.4253L278.872 28.4803L269.883 31.6124C269.729 31.6699 269.609 31.6831 269.49 31.6964C268.377 31.8201 267.538 30.7865 267.423 29.7528C267.334 28.9577 267.644 28.1184 268.576 27.8136L278.422 24.4253L276.168 4.15014C276.031 2.91772 277.038 2.2021 278.152 2.07838C279.225 1.95909 280.365 2.43612 280.502 3.66853L282.649 22.9896ZM261.379 9.77816C261.494 9.00071 262.091 8.57222 262.766 8.49711C263.641 8.3999 264.582 8.89903 264.688 9.85315C264.701 9.97242 264.719 10.1314 264.697 10.2949C264.525 11.6421 264.114 13.3781 263.65 14.6371C263.398 15.2688 262.833 15.6133 262.276 15.6752C261.402 15.7724 260.505 15.3086 260.412 14.4737C260.39 14.275 260.408 14.0718 260.501 13.82C260.858 12.6936 261.181 11.2491 261.379 9.77816ZM253.322 10.7944C254.113 12.1151 254.868 13.48 255.045 14.3458C255.098 14.4606 255.111 14.5799 255.125 14.6992C255.244 15.7726 254.405 16.55 253.49 16.6516C252.775 16.7312 252.015 16.4132 251.715 15.5209C251.366 14.5535 250.76 13.0914 250.261 12.2212C250.155 11.9915 250.093 11.7972 250.071 11.5984C249.974 10.7238 250.752 10.1142 251.626 10.017C252.262 9.94627 252.929 10.1539 253.322 10.7944ZM271.274 8.276C272.476 8.94739 273.818 9.8043 274.848 10.7363C275.338 11.1648 275.594 11.6595 275.647 12.1366C275.771 13.2497 274.879 14.2745 273.805 14.3938C273.288 14.4513 272.71 14.3144 272.18 13.8903C271.124 13.082 269.945 12.2472 268.986 11.589C268.421 11.2091 268.12 10.6791 268.067 10.202C267.952 9.16838 268.8 8.10822 269.953 7.98008C270.351 7.9359 270.801 8.00656 271.274 8.276ZM270.687 16.7527C271.972 17.455 273.227 18.2413 274.424 19.2351C274.914 19.6636 275.17 20.1583 275.223 20.6354C275.347 21.7485 274.459 22.8131 273.386 22.9324C272.869 22.9899 272.33 22.8485 271.8 22.4245C270.789 21.6515 269.432 20.6753 268.399 20.0658C267.794 19.6903 267.498 19.2 267.44 18.6832C267.325 17.6495 268.213 16.585 269.366 16.4568C269.764 16.4126 270.214 16.4833 270.687 16.7527ZM315.149 19.8123L312.234 19.9838C308.76 20.1881 307.24 18.8751 307.071 16L306.491 6.13709C306.322 3.26206 307.675 1.73999 311.149 1.53566L321.411 0.932058C324.885 0.727727 326.447 2.07834 326.616 4.95337L327.196 14.8163C327.365 17.6914 325.97 19.1758 322.496 19.3802L319.421 19.561L319.64 23.2746L325.789 22.9129C326.787 22.8542 327.36 23.7421 327.417 24.7004C327.471 25.6188 327.008 26.6077 326.01 26.6664L319.86 27.0281L320.114 31.3407L328.779 30.831C329.777 30.7723 330.351 31.6602 330.407 32.6185C330.461 33.5369 329.998 34.5258 329 34.5845L305.441 35.9702C304.482 36.0266 303.907 35.0988 303.853 34.1804C303.796 33.222 304.262 32.2731 305.22 32.2167L315.842 31.592L315.588 27.2794L309.359 27.6458C308.4 27.7022 307.825 26.7744 307.771 25.856C307.714 24.8976 308.18 23.9487 309.138 23.8923L315.367 23.5259L315.149 19.8123ZM312.462 16.3642L315.057 16.2115L314.832 12.3781L310.958 12.6059L311.123 15.4011C311.177 16.3195 311.623 16.4135 312.462 16.3642ZM310.752 9.09201L314.625 8.86419L314.399 5.03081L311.804 5.18347C310.806 5.24219 310.538 5.45829 310.587 6.29684L310.752 9.09201ZM318.393 4.79595L318.618 8.62932L322.731 8.38742L322.567 5.59224C322.517 4.75369 322.266 4.56813 321.228 4.6292L318.393 4.79595ZM322.938 11.9013L318.825 12.1433L319.05 15.9766L321.885 15.8099C322.923 15.7488 323.151 15.5351 323.102 14.6965L322.938 11.9013ZM297.556 26.577L297.032 17.6724L294.516 17.8203C293.478 17.8814 292.902 16.9536 292.846 15.9953C292.792 15.0768 293.255 14.088 294.293 14.0269L296.809 13.8789L296.419 7.2504L293.344 7.43124C292.306 7.4923 291.73 6.56449 291.674 5.60615C291.62 4.68774 292.083 3.69886 293.121 3.6378L303.263 3.04124C304.302 2.98018 304.877 3.90799 304.931 4.8264C304.987 5.78475 304.525 6.77362 303.487 6.83469L300.612 7.00379L301.001 13.6323L303.238 13.5008C304.276 13.4397 304.851 14.3676 304.905 15.286C304.962 16.2443 304.499 17.2332 303.461 17.2943L301.225 17.4258L301.671 25.0127C302.373 24.6909 303.078 24.409 303.7 24.0919C304.013 23.9533 304.29 23.897 304.569 23.8805C305.687 23.8148 306.423 24.7332 306.479 25.6915C306.519 26.3703 306.239 27.068 305.462 27.4743C302.274 29.1444 298.439 30.6922 295.366 31.5942C295.169 31.6459 294.972 31.6975 294.812 31.7069C293.574 31.7797 292.794 30.7838 292.733 29.7456C292.682 28.8671 293.114 28.0403 294.175 27.6974C295.239 27.3944 296.379 27.0068 297.556 26.577ZM343.746 29.2204C339.666 29.2616 336.233 26.0161 336.17 19.7764C336.078 10.6569 343.562 3.10089 354.561 2.98979C364.321 2.89121 370.022 8.95393 370.103 16.9135C370.176 24.1532 365.95 29.5161 359.093 31.7855C358.774 31.9087 358.454 31.9519 358.174 31.9548C356.814 31.9685 355.923 30.8575 355.911 29.6975C355.902 28.8176 356.373 27.9328 357.569 27.4807C363.228 25.3834 365.473 21.9205 365.423 16.9608C365.37 11.7211 361.767 7.43724 355.683 7.05867C355.35 13.7024 353.77 19.7186 351.335 24.1035C349.174 28.0055 346.826 29.1893 343.746 29.2204ZM351.006 7.38592C345.058 8.60606 340.71 13.8102 340.77 19.7299C340.807 23.4097 342.261 24.7551 343.701 24.7406C344.941 24.7281 346.014 24.0772 347.153 22.0256C349.157 18.4452 350.585 13.2705 351.006 7.38592ZM385.366 21.9172C385.622 15.5623 386.327 7.98454 387.003 2.12697C387.137 0.771281 388.282 0.176807 389.401 0.221814C390.6 0.270037 391.692 0.994494 391.639 2.31343C391.621 2.75307 391.499 3.78902 391.442 4.22706C390.804 10.1262 390.238 16.2284 390.001 22.1436C389.785 27.4993 391.366 29.004 394.204 29.1182C397.921 29.2676 401.459 27.8887 405.319 23.4803C405.908 22.7834 406.638 22.5325 407.278 22.5582C408.517 22.6081 409.597 23.6123 409.548 24.8513C409.528 25.3309 409.349 25.8041 408.929 26.3076C404.144 31.7998 399.221 33.7635 394.025 33.5546C388.07 33.3151 385.032 30.2305 385.366 21.9172ZM440.452 3.69458C440.998 2.98089 441.744 2.72702 442.422 2.78825C443.617 2.89631 444.729 3.92063 444.61 5.23526C444.57 5.67347 444.368 6.13712 444.002 6.62619C441.248 9.99185 437.31 14.0136 433.944 17.0428C433.245 17.6624 433.006 18.0826 432.948 18.72C432.887 19.3972 433.163 19.9041 433.735 20.6788C436.942 24.7441 440.124 29.53 442.734 33.9831C443.078 34.6167 443.227 35.1924 443.184 35.6705C443.061 37.0249 441.74 37.8694 440.465 37.7541C439.628 37.6785 438.868 37.2081 438.353 36.2378C436.164 32.0235 432.938 26.832 430.035 22.9549C428.749 21.1918 428.194 19.7761 428.324 18.342C428.443 17.0274 429.003 15.7125 430.571 14.3682C433.919 11.5382 437.636 7.29567 440.452 3.69458ZM472.163 8.89617L478.878 8.84627C479.285 8.8237 479.681 8.88033 480.077 8.93696C482.532 9.28805 483.72 10.8722 483.42 12.9708C483.375 13.2876 483.329 13.6044 483.199 13.9494C482.271 16.7664 481.1 19.589 479.872 22.2418C482.434 22.972 484.906 24.0528 487.321 25.2468C487.983 23.4423 488.51 21.4568 488.934 19.3356C489.149 18.1137 490.309 17.6331 491.418 17.7916C492.566 17.9559 493.613 18.8328 493.414 20.2187C493.092 22.4758 492.22 25.1796 491.269 27.5893C493.119 28.7832 494.906 30.1298 496.631 31.6291C497.35 32.2571 497.559 33.0548 497.457 33.7675C497.281 34.995 496.167 36.0074 494.9 35.8262C494.464 35.7639 494.006 35.5772 493.576 35.1925C492.14 33.9364 490.725 32.8048 489.294 31.792C487.212 35.6158 484.542 38.7493 481.515 40.9833C480.791 41.5262 480.078 41.7071 479.444 41.6165C478.217 41.441 477.38 40.2303 477.544 39.082C477.618 38.5672 477.895 38.0411 478.438 37.6339C481.244 35.53 483.66 32.7642 485.488 29.3081C483.101 27.9162 480.635 26.7957 478.004 25.9751C476.912 27.9605 475.803 29.7818 474.739 31.2864C472.148 34.9969 469.908 35.9695 467.057 35.5618C463.77 35.0918 461.661 32.6081 462.244 28.5296C462.952 23.58 468.009 20.1414 474.622 21.0871L475.533 21.2173C476.687 18.7963 477.819 16.2509 478.493 13.8016C478.51 13.6828 478.566 13.5697 478.577 13.4905C478.628 13.1341 478.397 13.0606 477.831 13.0605L472.157 13.1784C471.993 13.1954 471.835 13.1727 471.716 13.1557C470.449 12.9745 469.849 11.7978 470.002 10.7287C470.138 9.77833 470.868 8.91294 472.163 8.89617ZM467.714 31.2514C468.862 31.4156 469.546 31.1498 470.899 29.3229C471.804 28.0785 472.704 26.5909 473.575 25.0184C469.451 24.4691 466.939 26.4939 466.583 28.9885C466.379 30.414 466.922 31.1381 467.714 31.2514ZM517.031 27.6246C514.171 33.7842 510.628 39.6852 506.865 44.0331C506.175 44.8336 505.281 45.0223 504.496 44.8659C503.359 44.639 502.495 43.651 502.73 42.4742C502.801 42.1211 503.004 41.7131 503.326 41.3285C506.666 37.4672 509.777 32.4999 512.387 27.1877C510.739 27.0631 509.115 27.0247 507.562 27.0412C507.398 27.0492 507.201 27.01 507.044 26.9787C505.828 26.7362 505.357 25.6225 505.561 24.6026C505.741 23.7004 506.47 22.9077 507.733 22.9148C509.812 22.9216 512.024 23.0773 514.15 23.2567C515.098 20.9577 515.975 18.6038 516.727 16.2657C517.134 15.0417 518.232 14.6489 519.252 14.8524C520.351 15.0714 521.308 15.9966 521.058 17.2519L521.003 17.5265C520.345 19.5978 519.554 21.7241 518.692 23.7956C519.484 23.9128 520.191 24.0536 520.818 24.1788C525.839 25.1803 527.229 27.8232 526.001 33.9819C525.265 37.6693 524.216 40.8862 523.072 43.146C520.917 47.4068 518.831 48.663 514.869 47.8728C513.927 47.685 512.962 47.4109 512.24 47.1446C510.946 46.6824 510.553 45.5844 510.741 44.6429C510.96 43.5446 511.877 42.6263 513.172 42.8845C513.25 42.9001 513.36 42.9628 513.478 42.9863C514.207 43.2134 514.78 43.4092 515.604 43.5735C516.977 43.8474 517.769 43.5567 518.897 41.3753C520.01 39.2724 520.974 36.283 521.615 33.0664C522.319 29.5359 521.84 28.4615 519.957 28.0859C519.094 27.9138 518.106 27.7574 517.031 27.6246ZM533.981 24.0307C535.983 26.8773 537.696 30.9713 538.505 33.8656C538.647 34.3832 538.631 34.8696 538.553 35.2619C538.279 36.6348 537.001 37.318 535.824 37.0833C535.039 36.9268 534.302 36.331 533.964 35.1623C533.115 32.0563 531.638 28.6211 530.005 25.9704C529.668 25.4137 529.573 24.8646 529.659 24.4331C529.878 23.3347 531.149 22.6908 532.326 22.9255C532.953 23.0507 533.534 23.4112 533.981 24.0307ZM538.779 17.5642C538.528 17.1878 538.473 16.8505 538.535 16.5367C538.692 15.7522 539.57 15.234 540.472 15.4139C540.865 15.4922 541.226 15.7273 541.555 16.1194C542.403 17.1858 543.337 18.6366 543.934 19.9385C544.17 20.3933 544.209 20.8091 544.131 21.2014C543.959 22.0644 543.088 22.5433 542.265 22.379C541.794 22.2851 541.323 21.9873 541.032 21.3991C540.357 20.0815 539.493 18.6857 538.779 17.5642ZM534.238 19.8808C534.026 19.5122 533.971 19.1749 534.026 18.9003C534.182 18.1158 535.108 17.5662 535.971 17.7383C536.324 17.8087 536.693 18.0046 536.983 18.3889C537.854 19.5416 538.781 21.0316 539.362 22.4119C539.566 22.8197 539.574 23.1884 539.504 23.5415C539.332 24.4045 538.446 24.9619 537.622 24.7976C537.151 24.7037 536.727 24.3745 536.476 23.7941C535.793 22.3118 534.96 20.963 534.238 19.8808ZM559.499 35.2099L559.049 36.6222C563.56 34.5292 567.873 33.9963 571.396 34.9115C577.164 36.41 580.078 41.4234 578.69 46.7661C576.97 53.3864 571.622 56.7912 564.423 56.8222C564.181 56.8006 563.977 56.789 563.784 56.7387C562.429 56.3867 561.897 55.0915 562.169 54.0462C562.4 53.1558 563.173 52.4061 564.503 52.3795C569.869 52.2444 572.943 50.274 574.15 45.6282C575.005 42.3374 573.496 39.7138 570.36 38.8992C566.914 38.0041 562.444 38.8266 557.695 41.5189L554.186 54.8656C553.874 56.0657 552.668 56.4137 551.623 56.1421C550.578 55.8706 549.732 54.9897 550.044 53.7895L552.453 44.9926L547.998 48.2989C547.383 48.7589 546.781 48.8504 546.239 48.7096C545.155 48.4281 544.389 47.2374 544.671 46.1534C544.782 45.7275 545.047 45.3419 545.457 45.0352C547.958 43.2051 551.223 40.4991 554.511 37.3859L555.283 34.7346L550.697 34.4112C550.532 34.4097 550.416 34.3795 550.3 34.3494C549.138 34.0477 548.751 32.8314 549.013 31.8248C549.234 30.9731 549.969 30.2134 551.016 30.32L556.386 30.8058L558.143 24.3605C558.455 23.1603 559.7 22.8225 560.706 23.084C561.752 23.3555 562.636 24.2465 562.285 25.4366L560.61 31.4072C561.52 31.726 561.707 32.436 561.566 32.978C561.385 33.6749 560.876 34.2038 559.499 35.2099ZM600.772 47.9345C597.203 53.7126 592.988 59.1533 588.737 63.0257C587.957 63.739 587.047 63.8207 586.286 63.5725C585.184 63.2127 584.443 62.1296 584.815 60.9888C584.927 60.6465 585.178 60.2655 585.542 59.9216C589.315 56.4823 592.992 51.9178 596.212 46.9515C594.591 46.6329 592.983 46.4028 591.438 46.2355C591.274 46.2239 591.084 46.1618 590.932 46.1122C589.753 45.7276 589.417 44.566 589.739 43.5773C590.025 42.7026 590.842 42.0017 592.096 42.1582C594.159 42.4107 596.337 42.827 598.427 43.2564C599.64 41.0857 600.79 38.8521 601.813 36.6193C602.362 35.4521 603.499 35.1919 604.488 35.5145C605.553 35.8619 606.394 36.8938 605.997 38.1107L605.91 38.3769C605.012 40.3559 603.975 42.3737 602.874 44.3287C603.647 44.5388 604.331 44.7622 604.94 44.9607C609.807 46.5489 610.875 49.3376 608.927 55.3078C607.761 58.8824 606.338 61.9526 604.935 64.0613C602.291 68.0373 600.071 69.0381 596.23 67.7849C595.318 67.4871 594.392 67.1008 593.707 66.751C592.476 66.139 592.215 65.0022 592.513 64.0896C592.861 63.0248 593.88 62.2214 595.135 62.6309C595.211 62.6557 595.313 62.731 595.427 62.7682C596.125 63.08 596.67 63.3421 597.469 63.6027C598.8 64.037 599.621 63.842 600.999 61.8094C602.353 59.8528 603.663 56.9983 604.68 53.8801C605.797 50.4577 605.448 49.3341 603.623 48.7386C602.786 48.4656 601.823 48.1934 600.772 47.9345ZM618.409 46.4943C620.06 49.5576 621.276 53.8253 621.738 56.795C621.817 57.3258 621.744 57.8069 621.62 58.1872C621.186 59.5181 619.835 60.0453 618.695 59.6731C617.934 59.4249 617.272 58.7461 617.075 57.5456C616.599 54.361 615.539 50.7753 614.231 47.9502C613.961 47.3574 613.933 46.801 614.069 46.3827C614.417 45.3179 615.754 44.8288 616.895 45.201C617.503 45.3995 618.037 45.8262 618.409 46.4943ZM643.052 64.5567L643.081 64.6979C644.894 64.6941 646.683 65.0691 648.168 65.6663C653.957 67.9953 656.473 72.6724 654.397 77.8306C651.785 84.3248 645.437 86.5999 638.201 83.6886C633.117 81.6432 630.933 77.7466 632.262 74.4439C633.382 71.6607 636.028 70.4404 639.331 71.7691C642.894 73.2024 644.424 76.5777 644.008 80.7216C646.756 80.534 648.921 78.9042 650.041 76.121C651.101 73.4862 649.874 70.5349 646.311 69.1016C642.563 67.5937 638.404 67.4294 632.421 69.1185C631.737 69.3176 631.106 69.2792 630.624 69.0852C629.473 68.6223 628.934 67.2843 629.367 66.2081C629.605 65.6143 630.119 65.088 630.996 64.8372C636.644 63.2292 643.417 60.2196 648.585 57.3405C646.647 56.9058 644.131 56.1951 642.216 55.5971C642.067 55.5374 641.058 55.2605 640.575 55.0664C639.388 54.5887 639.123 53.318 639.526 52.316C639.899 51.3883 640.866 50.6995 642.121 51.1179C645.186 52.1788 649.314 53.2789 653.1 54.1555C653.301 54.1931 653.449 54.2528 653.635 54.3275C655.156 54.9396 655.762 56.4338 655.255 57.6955C655.031 58.2521 654.569 58.7563 653.885 59.1709C650.561 61.1104 646.442 63.2042 643.052 64.5567ZM639.471 79.888L639.768 80.0075C640.092 77.3787 639.487 75.6691 637.928 75.042C637.149 74.7285 636.338 75.1354 636.01 75.9518C635.517 77.1764 636.539 78.7086 639.471 79.888ZM685.672 83.5512L682.913 89.549L681.382 92.6744L686.448 95.1548C687.31 95.577 687.319 96.6503 686.896 97.5125C686.474 98.3746 685.621 99.0257 684.759 98.6035L679.693 96.1231L677.037 101.548C676.545 102.553 675.328 102.581 674.358 102.106C673.388 101.632 672.665 100.654 673.157 99.6477L675.814 94.2232L671.072 91.9011C670.21 91.4789 670.165 90.388 670.587 89.5259C671.009 88.6637 671.898 88.0302 672.76 88.4524L677.502 90.7745L679.033 87.6491L681.903 82.1513C676.902 85.2696 670.357 87.6315 664.013 88.4891C663.495 88.547 662.993 88.4796 662.634 88.3037C661.628 87.8111 661.26 86.5619 661.717 85.6279C661.981 85.0891 662.55 84.655 663.408 84.5406C669.788 83.7901 676.422 81.2485 682.187 77.5693L672.201 72.6788C671.231 72.2038 671.203 71.077 671.626 70.2149C672.065 69.3168 672.955 68.6833 673.924 69.1582L685.348 74.7524L688.409 68.5016C688.902 67.4957 690.1 67.5037 691.07 67.9787C692.04 68.4536 692.782 69.3956 692.289 70.4015L689.228 76.6523L701.119 82.4751C702.089 82.9501 702.17 84.0586 701.73 84.9567C701.308 85.8188 700.365 86.4706 699.395 85.9957L688.69 80.7534C689.624 87.7582 692.251 93.944 695.566 98.8181C696.181 99.7433 696.189 100.638 695.855 101.32C695.344 102.362 693.99 102.946 692.84 102.383C692.445 102.189 692.103 101.888 691.795 101.425C688.459 96.1399 686.314 89.7892 685.672 83.5512Z" fill="#282828"/>
</svg>
