<svg width="401" height="401" viewBox="0 0 401 401" fill="none" xmlns="http://www.w3.org/2000/svg">
<g clip-path="url(#clip0_1543_2263)">
<circle cx="199.255" cy="199.285" r="163.5" fill="#69BD83"/>
<path d="M200.446 200.766L380.436 113.099C428.917 212.366 387.636 332.091 288.229 380.503C188.823 428.915 68.9291 387.692 20.4488 288.425C-4.03295 238.298 -6.83918 184.779 12.2677 132.37L200.454 200.766H200.446Z" fill="#E18965"/>
<path d="M200.447 200.766V0.785156C279.972 0.785156 345.581 41.7246 380.437 113.099L200.447 200.766Z" fill="#ED6D46"/>
<path d="M200.755 200.785L45.7549 144.177C66.5327 86.8778 112.269 48.3743 172.114 37.7852L200.755 200.785Z" fill="#FFF464"/>
</g>
<path d="M232.804 91.9052L229.364 94.3452L226.684 89.9852L234.124 84.7852H238.524V112.785H232.804V91.9052ZM254.681 113.305C252.627 113.305 250.801 112.905 249.201 112.105C247.627 111.305 246.401 110.252 245.521 108.945C244.667 107.612 244.241 106.198 244.241 104.705C244.241 102.998 244.681 101.558 245.561 100.385C246.441 99.2118 247.467 98.3052 248.641 97.6652C247.761 97.0518 246.987 96.2785 246.321 95.3452C245.681 94.3852 245.361 93.2652 245.361 91.9852C245.361 90.6518 245.747 89.3985 246.521 88.2252C247.294 87.0252 248.387 86.0652 249.801 85.3452C251.214 84.6252 252.841 84.2652 254.681 84.2652C256.521 84.2652 258.147 84.6252 259.561 85.3452C260.974 86.0652 262.067 87.0252 262.841 88.2252C263.614 89.3985 264.001 90.6518 264.001 91.9852C264.001 93.2652 263.667 94.3852 263.001 95.3452C262.361 96.2785 261.601 97.0518 260.721 97.6652C261.894 98.3052 262.921 99.2118 263.801 100.385C264.681 101.558 265.121 102.998 265.121 104.705C265.121 106.198 264.681 107.612 263.801 108.945C262.947 110.252 261.721 111.305 260.121 112.105C258.547 112.905 256.734 113.305 254.681 113.305ZM254.681 108.265C256.227 108.265 257.427 107.905 258.281 107.185C259.161 106.465 259.601 105.545 259.601 104.425C259.601 103.278 259.161 102.345 258.281 101.625C257.427 100.905 256.227 100.545 254.681 100.545C253.134 100.545 251.921 100.905 251.041 101.625C250.187 102.345 249.761 103.278 249.761 104.425C249.761 105.545 250.187 106.465 251.041 107.185C251.921 107.905 253.134 108.265 254.681 108.265ZM254.681 95.7452C255.801 95.7452 256.707 95.4518 257.401 94.8652C258.121 94.2518 258.481 93.4652 258.481 92.5052C258.481 91.5718 258.121 90.8118 257.401 90.2252C256.707 89.6118 255.801 89.3052 254.681 89.3052C253.561 89.3052 252.641 89.6118 251.921 90.2252C251.227 90.8118 250.881 91.5718 250.881 92.5052C250.881 93.4652 251.227 94.2518 251.921 94.8652C252.641 95.4518 253.561 95.7452 254.681 95.7452ZM272.636 113.305C271.729 113.305 270.969 112.998 270.356 112.385C269.743 111.772 269.436 111.012 269.436 110.105C269.436 109.198 269.743 108.438 270.356 107.825C270.969 107.212 271.729 106.905 272.636 106.905C273.543 106.905 274.303 107.212 274.916 107.825C275.529 108.438 275.836 109.198 275.836 110.105C275.836 111.012 275.529 111.772 274.916 112.385C274.303 112.998 273.543 113.305 272.636 113.305ZM290.474 113.305C288.42 113.305 286.554 112.745 284.874 111.625C283.194 110.505 281.86 108.852 280.874 106.665C279.887 104.478 279.394 101.852 279.394 98.7852C279.394 95.7185 279.887 93.0918 280.874 90.9052C281.86 88.7185 283.194 87.0652 284.874 85.9452C286.554 84.8252 288.42 84.2652 290.474 84.2652C292.527 84.2652 294.394 84.8252 296.074 85.9452C297.754 87.0652 299.087 88.7185 300.074 90.9052C301.06 93.0918 301.554 95.7185 301.554 98.7852C301.554 101.852 301.06 104.478 300.074 106.665C299.087 108.852 297.754 110.505 296.074 111.625C294.394 112.745 292.527 113.305 290.474 113.305ZM290.474 107.785C291.994 107.785 293.26 107.038 294.274 105.545C295.314 104.052 295.834 101.798 295.834 98.7852C295.834 95.7718 295.314 93.5185 294.274 92.0252C293.26 90.5318 291.994 89.7852 290.474 89.7852C288.954 89.7852 287.674 90.5318 286.634 92.0252C285.62 93.5185 285.114 95.7718 285.114 98.7852C285.114 101.798 285.62 104.052 286.634 105.545C287.674 107.038 288.954 107.785 290.474 107.785ZM325.518 84.7852H329.678L312.318 112.785H308.158L325.518 84.7852ZM325.918 113.305C324.798 113.305 323.758 113.038 322.798 112.505C321.865 111.945 321.105 111.185 320.518 110.225C319.958 109.265 319.678 108.212 319.678 107.065C319.678 105.918 319.958 104.865 320.518 103.905C321.105 102.945 321.865 102.198 322.798 101.665C323.758 101.105 324.798 100.825 325.918 100.825C327.038 100.825 328.065 101.105 328.998 101.665C329.958 102.198 330.718 102.945 331.278 103.905C331.865 104.865 332.158 105.918 332.158 107.065C332.158 108.212 331.865 109.265 331.278 110.225C330.718 111.185 329.958 111.945 328.998 112.505C328.065 113.038 327.038 113.305 325.918 113.305ZM325.918 109.905C326.638 109.905 327.252 109.652 327.758 109.145C328.292 108.612 328.558 107.918 328.558 107.065C328.558 106.212 328.292 105.532 327.758 105.025C327.252 104.492 326.638 104.225 325.918 104.225C325.198 104.225 324.572 104.492 324.038 105.025C323.532 105.532 323.278 106.212 323.278 107.065C323.278 107.918 323.532 108.612 324.038 109.145C324.572 109.652 325.198 109.905 325.918 109.905ZM311.918 96.7452C310.798 96.7452 309.758 96.4785 308.798 95.9452C307.865 95.3852 307.105 94.6252 306.518 93.6652C305.958 92.7052 305.678 91.6518 305.678 90.5052C305.678 89.3585 305.958 88.3052 306.518 87.3452C307.105 86.3852 307.865 85.6385 308.798 85.1052C309.758 84.5452 310.798 84.2652 311.918 84.2652C313.038 84.2652 314.065 84.5452 314.998 85.1052C315.958 85.6385 316.718 86.3852 317.278 87.3452C317.865 88.3052 318.158 89.3585 318.158 90.5052C318.158 91.6518 317.865 92.7052 317.278 93.6652C316.718 94.6252 315.958 95.3852 314.998 95.9452C314.065 96.4785 313.038 96.7452 311.918 96.7452ZM311.918 93.3452C312.638 93.3452 313.252 93.0918 313.758 92.5852C314.292 92.0518 314.558 91.3585 314.558 90.5052C314.558 89.6518 314.292 88.9718 313.758 88.4652C313.252 87.9318 312.638 87.6652 311.918 87.6652C311.198 87.6652 310.572 87.9318 310.038 88.4652C309.532 88.9718 309.278 89.6518 309.278 90.5052C309.278 91.3585 309.532 92.0518 310.038 92.5852C310.572 93.0918 311.198 93.3452 311.918 93.3452Z" fill="white"/>
<path d="M158.956 306.305C156.956 306.305 155.156 305.865 153.556 304.985C151.983 304.105 150.756 302.905 149.876 301.385C148.996 299.865 148.556 298.185 148.556 296.345C148.556 294.932 148.85 293.585 149.436 292.305C150.05 290.998 150.85 289.612 151.836 288.145L158.716 277.785H164.796L158.836 286.585C159.023 286.558 159.276 286.545 159.596 286.545C161.436 286.545 163.103 286.985 164.596 287.865C166.09 288.718 167.25 289.892 168.076 291.385C168.93 292.878 169.356 294.532 169.356 296.345C169.356 298.185 168.916 299.865 168.036 301.385C167.156 302.905 165.916 304.105 164.316 304.985C162.743 305.865 160.956 306.305 158.956 306.305ZM158.956 301.025C160.263 301.025 161.37 300.585 162.276 299.705C163.183 298.825 163.636 297.705 163.636 296.345C163.636 294.985 163.183 293.865 162.276 292.985C161.37 292.105 160.263 291.665 158.956 291.665C157.623 291.665 156.503 292.105 155.596 292.985C154.716 293.838 154.276 294.958 154.276 296.345C154.276 297.732 154.716 298.865 155.596 299.745C156.503 300.598 157.623 301.025 158.956 301.025ZM172.772 301.505L181.892 292.305C183.038 291.158 183.878 290.265 184.412 289.625C184.972 288.985 185.372 288.385 185.612 287.825C185.878 287.238 186.012 286.598 186.012 285.905C186.012 284.918 185.638 284.118 184.892 283.505C184.172 282.865 183.238 282.545 182.092 282.545C180.865 282.545 179.852 282.918 179.052 283.665C178.278 284.412 177.892 285.385 177.892 286.585H172.412C172.412 284.825 172.825 283.238 173.652 281.825C174.505 280.412 175.665 279.305 177.132 278.505C178.625 277.678 180.278 277.265 182.092 277.265C184.012 277.265 185.692 277.638 187.132 278.385C188.598 279.105 189.732 280.105 190.532 281.385C191.332 282.638 191.732 284.052 191.732 285.625C191.732 286.905 191.492 288.092 191.012 289.185C190.558 290.278 189.932 291.305 189.132 292.265C188.358 293.198 187.318 294.318 186.012 295.625L181.332 300.265H191.652V305.785H172.772V301.505ZM199.527 306.305C198.62 306.305 197.86 305.998 197.247 305.385C196.633 304.772 196.327 304.012 196.327 303.105C196.327 302.198 196.633 301.438 197.247 300.825C197.86 300.212 198.62 299.905 199.527 299.905C200.433 299.905 201.193 300.212 201.807 300.825C202.42 301.438 202.727 302.198 202.727 303.105C202.727 304.012 202.42 304.772 201.807 305.385C201.193 305.998 200.433 306.305 199.527 306.305ZM217.504 283.305H205.024V277.785H223.864V282.385L213.904 305.785H207.784L217.504 283.305ZM247.526 277.785H251.686L234.326 305.785H230.166L247.526 277.785ZM247.926 306.305C246.806 306.305 245.766 306.038 244.806 305.505C243.873 304.945 243.113 304.185 242.526 303.225C241.966 302.265 241.686 301.212 241.686 300.065C241.686 298.918 241.966 297.865 242.526 296.905C243.113 295.945 243.873 295.198 244.806 294.665C245.766 294.105 246.806 293.825 247.926 293.825C249.046 293.825 250.073 294.105 251.006 294.665C251.966 295.198 252.726 295.945 253.286 296.905C253.873 297.865 254.166 298.918 254.166 300.065C254.166 301.212 253.873 302.265 253.286 303.225C252.726 304.185 251.966 304.945 251.006 305.505C250.073 306.038 249.046 306.305 247.926 306.305ZM247.926 302.905C248.646 302.905 249.259 302.652 249.766 302.145C250.299 301.612 250.566 300.918 250.566 300.065C250.566 299.212 250.299 298.532 249.766 298.025C249.259 297.492 248.646 297.225 247.926 297.225C247.206 297.225 246.579 297.492 246.046 298.025C245.539 298.532 245.286 299.212 245.286 300.065C245.286 300.918 245.539 301.612 246.046 302.145C246.579 302.652 247.206 302.905 247.926 302.905ZM233.926 289.745C232.806 289.745 231.766 289.478 230.806 288.945C229.873 288.385 229.113 287.625 228.526 286.665C227.966 285.705 227.686 284.652 227.686 283.505C227.686 282.358 227.966 281.305 228.526 280.345C229.113 279.385 229.873 278.638 230.806 278.105C231.766 277.545 232.806 277.265 233.926 277.265C235.046 277.265 236.073 277.545 237.006 278.105C237.966 278.638 238.726 279.385 239.286 280.345C239.873 281.305 240.166 282.358 240.166 283.505C240.166 284.652 239.873 285.705 239.286 286.665C238.726 287.625 237.966 288.385 237.006 288.945C236.073 289.478 235.046 289.745 233.926 289.745ZM233.926 286.345C234.646 286.345 235.259 286.092 235.766 285.585C236.299 285.052 236.566 284.358 236.566 283.505C236.566 282.652 236.299 281.972 235.766 281.465C235.259 280.932 234.646 280.665 233.926 280.665C233.206 280.665 232.579 280.932 232.046 281.465C231.539 281.972 231.286 282.652 231.286 283.505C231.286 284.358 231.539 285.052 232.046 285.585C232.579 286.092 233.206 286.345 233.926 286.345Z" fill="white"/>
<defs>
<clipPath id="clip0_1543_2263">
<rect width="401" height="401" fill="white"/>
</clipPath>
</defs>
</svg>
