<svg width="407" height="48" viewBox="0 0 407 48" fill="none" xmlns="http://www.w3.org/2000/svg">
<rect x="3" y="2" width="16" height="16" rx="4" fill="#ED6D46"/>
<path d="M27.21 9.86C26.99 8.9 26.84 7.71 26.84 6.33C26.84 5.97 27.13 5.79 27.42 5.79C27.71 5.79 28 5.97 28 6.33C28 7.45 28.09 8.45 28.23 9.26C28.84 8.96 29.52 8.69 30.2 8.48C30.26 8.46 30.32 8.45 30.38 8.45C30.69 8.45 30.9 8.73 30.9 9.01C30.9 9.22 30.79 9.42 30.53 9.5C29.64 9.78 28.64 10.19 27.9 10.66C27.04 11.22 26.74 11.77 26.74 12.28C26.74 12.9 27.15 13.22 28.74 13.22C29.54 13.22 30.25 13.15 30.81 13.04C30.86 13.03 30.9 13.03 30.94 13.03C31.29 13.03 31.48 13.3 31.48 13.58C31.48 13.83 31.34 14.07 31.03 14.14C30.35 14.28 29.58 14.33 28.73 14.33C26.63 14.33 25.58 13.69 25.58 12.34C25.58 11.52 25.96 10.71 27.21 9.86ZM39.32 8.01V7.99C38.12 8.15 36.53 8.39 35.09 8.6C35.05 8.61 35.02 8.61 34.99 8.61C34.63 8.61 34.43 8.32 34.43 8.04C34.43 7.78 34.59 7.54 34.95 7.49C37.03 7.23 39.61 6.94 41.69 6.75H41.75C42.1 6.75 42.29 7.01 42.29 7.28C42.29 7.52 42.14 7.76 41.83 7.82C41.48 7.88 41.1 8.01 40.73 8.22C39.17 9.11 38.84 10.15 38.84 11.1C38.84 12.21 39.61 12.89 41.01 13.06C41.38 13.11 41.55 13.38 41.55 13.65C41.55 13.95 41.33 14.24 40.96 14.24C40.81 14.24 40.4 14.18 40.22 14.14C38.74 13.77 37.68 12.67 37.68 11.13C37.68 10.08 38.19 8.9 39.32 8.01ZM48.75 6.26L48.52 7.6H48.59C48.98 7.6 49.31 7.58 49.62 7.55H49.67C49.99 7.55 50.15 7.81 50.15 8.08C50.15 8.33 50.01 8.56 49.72 8.59C49.41 8.62 49.11 8.64 48.61 8.64H48.33C48.27 9.11 48.19 9.57 48.12 10.04H48.28C48.81 10.04 49.4 9.99 49.85 9.91C49.88 9.9 49.92 9.9 49.95 9.9C50.26 9.9 50.44 10.17 50.44 10.43C50.44 10.67 50.31 10.9 50.01 10.96C49.53 11.06 48.85 11.12 48.27 11.12H47.99C47.96 11.47 47.95 11.75 47.95 11.99C47.95 13.07 48.4 13.44 49.28 13.44C50.38 13.44 50.97 13.05 50.97 12.06C50.97 11.83 50.92 11.55 50.85 11.32C50.84 11.27 50.83 11.22 50.83 11.17C50.83 10.87 51.11 10.69 51.4 10.69C51.65 10.69 51.9 10.82 51.99 11.12C52.09 11.43 52.14 11.74 52.14 12.04C52.14 13.75 50.98 14.58 49.3 14.58C47.74 14.58 46.81 13.78 46.81 12.07C46.81 11.77 46.82 11.45 46.86 11.06C46.39 11.01 46 10.95 45.66 10.86C45.37 10.78 45.24 10.55 45.24 10.32C45.24 10.04 45.43 9.77 45.75 9.77C45.81 9.77 45.87 9.77 45.93 9.79C46.24 9.87 46.58 9.93 46.99 9.98C47.05 9.51 47.12 9.05 47.2 8.58C46.81 8.55 46.46 8.49 46.15 8.42C45.85 8.35 45.72 8.13 45.72 7.92C45.72 7.64 45.92 7.38 46.23 7.38C46.27 7.38 46.31 7.38 46.35 7.39C46.67 7.46 47 7.51 47.38 7.55L47.63 6.11C47.68 5.82 47.94 5.69 48.2 5.69C48.48 5.69 48.76 5.85 48.76 6.16C48.76 6.19 48.76 6.22 48.75 6.26ZM59.1 7.34L59.09 7.31C57.98 7.55 57.36 7.65 56.97 7.7H56.9C56.58 7.7 56.4 7.43 56.4 7.16C56.4 6.92 56.54 6.68 56.84 6.64C57.21 6.6 57.84 6.54 59.77 6.13C59.84 6.11 59.91 6.11 59.98 6.11C60.4 6.11 60.69 6.4 60.69 6.75C60.69 6.9 60.63 7.06 60.51 7.21C59.86 8.02 58.96 8.89 58.06 9.52L58.07 9.54C59.33 9.26 60.51 9.02 62.17 8.68C62.21 8.67 62.25 8.67 62.29 8.67C62.64 8.67 62.84 8.93 62.84 9.19C62.84 9.42 62.7 9.64 62.38 9.71C61.7 9.86 61.06 10.04 60.67 10.24C59.63 10.76 59.28 11.53 59.28 12.15C59.28 12.84 59.74 13.25 61.09 13.3C61.46 13.32 61.64 13.58 61.64 13.84C61.64 14.12 61.44 14.41 61.04 14.4C59.23 14.37 58.16 13.54 58.16 12.24C58.16 11.58 58.38 10.91 59.08 10.3L59.07 10.28C58.25 10.47 57.47 10.66 56.57 10.88C56.22 10.97 55.89 11.06 55.55 11.16C55.48 11.18 55.42 11.19 55.36 11.19C55.03 11.19 54.81 10.91 54.81 10.62C54.81 10.41 54.93 10.19 55.22 10.09C55.75 9.9 56.32 9.63 56.78 9.32C57.67 8.72 58.46 8.03 59.1 7.34ZM68.44 5.79C69.16 5.89 70.09 6.15 70.75 6.42C71 6.52 71.11 6.73 71.11 6.94C71.11 7.23 70.9 7.53 70.59 7.53C70.53 7.53 70.46 7.51 70.39 7.49C69.76 7.27 68.88 7.02 68.21 6.89C67.92 6.83 67.79 6.61 67.79 6.38C67.79 6.09 67.99 5.78 68.34 5.78C68.38 5.78 68.41 5.79 68.44 5.79ZM66.86 9.83C66.77 9.87 66.68 9.89 66.6 9.89C66.28 9.89 66.05 9.61 66.05 9.33C66.05 9.14 66.16 8.94 66.42 8.83C67.37 8.41 68.52 8.17 69.3 8.17C70.87 8.17 71.61 8.88 71.61 10.22C71.61 11.76 70.91 13.36 69.4 14.42C69.27 14.51 69.14 14.55 69.02 14.55C68.7 14.55 68.45 14.29 68.45 14C68.45 13.83 68.53 13.65 68.74 13.5C69.99 12.58 70.45 11.47 70.45 10.23C70.45 9.58 70.18 9.24 69.32 9.24C68.72 9.24 67.79 9.43 66.86 9.83ZM81.5 10.67H77.41C76.36 10.67 75.99 10.31 75.99 9.51V7.18C75.99 6.38 76.36 6.02 77.41 6.02H81.5C82.56 6.02 82.93 6.38 82.93 7.18V9.51C82.93 10.48 82.37 10.67 81.5 10.67ZM77.5 9.79H78.85V8.75H77.05V9.44C77.05 9.76 77.22 9.79 77.5 9.79ZM77.05 7.9H78.85V6.9H77.5C77.13 6.9 77.05 7 77.05 7.25V7.9ZM79.9 6.9V7.9H81.87V7.25C81.87 7 81.78 6.9 81.42 6.9H79.9ZM81.87 8.75H79.9V9.79H81.42C81.78 9.79 81.87 9.7 81.87 9.44V8.75ZM77.18 13.68V11.7C77.18 11.4 77.45 11.26 77.73 11.26C78 11.26 78.27 11.4 78.27 11.7V13.49C78.27 13.74 78.37 13.8 79.41 13.8C80.63 13.8 80.82 13.66 80.88 13.1C80.91 12.81 81.16 12.67 81.41 12.67C81.68 12.67 81.95 12.83 81.95 13.14V13.19C81.85 14.31 81.35 14.72 79.41 14.72C77.47 14.72 77.18 14.51 77.18 13.68ZM75.69 11.99C75.78 11.76 75.98 11.66 76.18 11.66C76.46 11.66 76.73 11.85 76.73 12.15C76.73 12.21 76.72 12.28 76.69 12.35C76.49 12.87 76.22 13.37 75.97 13.74C75.84 13.94 75.66 14.02 75.48 14.02C75.2 14.02 74.94 13.81 74.94 13.53C74.94 13.44 74.97 13.33 75.04 13.22C75.29 12.85 75.51 12.44 75.69 11.99ZM79.55 11.01C79.8 11.18 80.14 11.44 80.36 11.66C80.5 11.79 80.55 11.93 80.55 12.06C80.55 12.33 80.31 12.56 80.04 12.56C79.92 12.56 79.79 12.52 79.67 12.41C79.43 12.2 79.17 11.95 78.92 11.75C78.78 11.64 78.72 11.5 78.72 11.37C78.72 11.12 78.94 10.9 79.22 10.9C79.32 10.9 79.44 10.93 79.55 11.01ZM82.84 11.71C83.18 12.06 83.51 12.48 83.75 12.86C83.81 12.96 83.84 13.06 83.84 13.16C83.84 13.46 83.57 13.7 83.29 13.7C83.13 13.7 82.96 13.63 82.84 13.44C82.62 13.11 82.31 12.69 82 12.34C81.9 12.23 81.86 12.11 81.86 12.01C81.86 11.74 82.12 11.52 82.41 11.52C82.56 11.52 82.71 11.58 82.84 11.71ZM88.84 5.79C89.56 5.89 90.49 6.15 91.15 6.42C91.4 6.52 91.51 6.73 91.51 6.94C91.51 7.23 91.3 7.53 90.99 7.53C90.93 7.53 90.86 7.51 90.79 7.49C90.16 7.27 89.28 7.02 88.61 6.89C88.32 6.83 88.19 6.61 88.19 6.38C88.19 6.09 88.39 5.78 88.74 5.78C88.78 5.78 88.81 5.79 88.84 5.79ZM87.26 9.83C87.17 9.87 87.08 9.89 87 9.89C86.68 9.89 86.45 9.61 86.45 9.33C86.45 9.14 86.56 8.94 86.82 8.83C87.77 8.41 88.92 8.17 89.7 8.17C91.27 8.17 92.01 8.88 92.01 10.22C92.01 11.76 91.31 13.36 89.8 14.42C89.67 14.51 89.54 14.55 89.42 14.55C89.1 14.55 88.85 14.29 88.85 14C88.85 13.83 88.93 13.65 89.14 13.5C90.39 12.58 90.85 11.47 90.85 10.23C90.85 9.58 90.58 9.24 89.72 9.24C89.12 9.24 88.19 9.43 87.26 9.83Z" fill="#282828"/>
<rect x="103" y="2" width="16" height="16" rx="4" fill="#E18965"/>
<path d="M128.3 7.34L128.29 7.31C127.18 7.55 126.56 7.65 126.17 7.7H126.1C125.78 7.7 125.6 7.43 125.6 7.16C125.6 6.92 125.74 6.68 126.04 6.64C126.41 6.6 127.04 6.54 128.97 6.13C129.04 6.11 129.11 6.11 129.18 6.11C129.6 6.11 129.89 6.4 129.89 6.75C129.89 6.9 129.83 7.06 129.71 7.21C129.06 8.02 128.16 8.89 127.26 9.52L127.27 9.54C128.53 9.26 129.71 9.02 131.37 8.68C131.41 8.67 131.45 8.67 131.49 8.67C131.84 8.67 132.04 8.93 132.04 9.19C132.04 9.42 131.9 9.64 131.58 9.71C130.9 9.86 130.26 10.04 129.87 10.24C128.83 10.76 128.48 11.53 128.48 12.15C128.48 12.84 128.94 13.25 130.29 13.3C130.66 13.32 130.84 13.58 130.84 13.84C130.84 14.12 130.64 14.41 130.24 14.4C128.43 14.37 127.36 13.54 127.36 12.24C127.36 11.58 127.58 10.91 128.28 10.3L128.27 10.28C127.45 10.47 126.67 10.66 125.77 10.88C125.42 10.97 125.09 11.06 124.75 11.16C124.68 11.18 124.62 11.19 124.56 11.19C124.23 11.19 124.01 10.91 124.01 10.62C124.01 10.41 124.13 10.19 124.42 10.09C124.95 9.9 125.52 9.63 125.98 9.32C126.87 8.72 127.66 8.03 128.3 7.34ZM137.64 5.79C138.36 5.89 139.29 6.15 139.95 6.42C140.2 6.52 140.31 6.73 140.31 6.94C140.31 7.23 140.1 7.53 139.79 7.53C139.73 7.53 139.66 7.51 139.59 7.49C138.96 7.27 138.08 7.02 137.41 6.89C137.12 6.83 136.99 6.61 136.99 6.38C136.99 6.09 137.19 5.78 137.54 5.78C137.58 5.78 137.61 5.79 137.64 5.79ZM136.06 9.83C135.97 9.87 135.88 9.89 135.8 9.89C135.48 9.89 135.25 9.61 135.25 9.33C135.25 9.14 135.36 8.94 135.62 8.83C136.57 8.41 137.72 8.17 138.5 8.17C140.07 8.17 140.81 8.88 140.81 10.22C140.81 11.76 140.11 13.36 138.6 14.42C138.47 14.51 138.34 14.55 138.22 14.55C137.9 14.55 137.65 14.29 137.65 14C137.65 13.83 137.73 13.65 137.94 13.5C139.19 12.58 139.65 11.47 139.65 10.23C139.65 9.58 139.38 9.24 138.52 9.24C137.92 9.24 136.99 9.43 136.06 9.83ZM150.7 10.67H146.61C145.56 10.67 145.19 10.31 145.19 9.51V7.18C145.19 6.38 145.56 6.02 146.61 6.02H150.7C151.76 6.02 152.13 6.38 152.13 7.18V9.51C152.13 10.48 151.57 10.67 150.7 10.67ZM146.7 9.79H148.05V8.75H146.25V9.44C146.25 9.76 146.42 9.79 146.7 9.79ZM146.25 7.9H148.05V6.9H146.7C146.33 6.9 146.25 7 146.25 7.25V7.9ZM149.1 6.9V7.9H151.07V7.25C151.07 7 150.98 6.9 150.62 6.9H149.1ZM151.07 8.75H149.1V9.79H150.62C150.98 9.79 151.07 9.7 151.07 9.44V8.75ZM146.38 13.68V11.7C146.38 11.4 146.65 11.26 146.93 11.26C147.2 11.26 147.47 11.4 147.47 11.7V13.49C147.47 13.74 147.57 13.8 148.61 13.8C149.83 13.8 150.02 13.66 150.08 13.1C150.11 12.81 150.36 12.67 150.61 12.67C150.88 12.67 151.15 12.83 151.15 13.14V13.19C151.05 14.31 150.55 14.72 148.61 14.72C146.67 14.72 146.38 14.51 146.38 13.68ZM144.89 11.99C144.98 11.76 145.18 11.66 145.38 11.66C145.66 11.66 145.93 11.85 145.93 12.15C145.93 12.21 145.92 12.28 145.89 12.35C145.69 12.87 145.42 13.37 145.17 13.74C145.04 13.94 144.86 14.02 144.68 14.02C144.4 14.02 144.14 13.81 144.14 13.53C144.14 13.44 144.17 13.33 144.24 13.22C144.49 12.85 144.71 12.44 144.89 11.99ZM148.75 11.01C149 11.18 149.34 11.44 149.56 11.66C149.7 11.79 149.75 11.93 149.75 12.06C149.75 12.33 149.51 12.56 149.24 12.56C149.12 12.56 148.99 12.52 148.87 12.41C148.63 12.2 148.37 11.95 148.12 11.75C147.98 11.64 147.92 11.5 147.92 11.37C147.92 11.12 148.14 10.9 148.42 10.9C148.52 10.9 148.64 10.93 148.75 11.01ZM152.04 11.71C152.38 12.06 152.71 12.48 152.95 12.86C153.01 12.96 153.04 13.06 153.04 13.16C153.04 13.46 152.77 13.7 152.49 13.7C152.33 13.7 152.16 13.63 152.04 13.44C151.82 13.11 151.51 12.69 151.2 12.34C151.1 12.23 151.06 12.11 151.06 12.01C151.06 11.74 151.32 11.52 151.61 11.52C151.76 11.52 151.91 11.58 152.04 11.71ZM158.04 5.79C158.76 5.89 159.69 6.15 160.35 6.42C160.6 6.52 160.71 6.73 160.71 6.94C160.71 7.23 160.5 7.53 160.19 7.53C160.13 7.53 160.06 7.51 159.99 7.49C159.36 7.27 158.48 7.02 157.81 6.89C157.52 6.83 157.39 6.61 157.39 6.38C157.39 6.09 157.59 5.78 157.94 5.78C157.98 5.78 158.01 5.79 158.04 5.79ZM156.46 9.83C156.37 9.87 156.28 9.89 156.2 9.89C155.88 9.89 155.65 9.61 155.65 9.33C155.65 9.14 155.76 8.94 156.02 8.83C156.97 8.41 158.12 8.17 158.9 8.17C160.47 8.17 161.21 8.88 161.21 10.22C161.21 11.76 160.51 13.36 159 14.42C158.87 14.51 158.74 14.55 158.62 14.55C158.3 14.55 158.05 14.29 158.05 14C158.05 13.83 158.13 13.65 158.34 13.5C159.59 12.58 160.05 11.47 160.05 10.23C160.05 9.58 159.78 9.24 158.92 9.24C158.32 9.24 157.39 9.43 156.46 9.83Z" fill="#282828"/>
<rect x="172" y="2" width="16" height="16" rx="4" fill="#FFF464"/>
<path d="M196.01 9.96C195.79 9 195.64 7.81 195.64 6.43C195.64 6.07 195.93 5.89 196.22 5.89C196.51 5.89 196.8 6.07 196.8 6.43C196.8 7.55 196.89 8.55 197.03 9.36C197.64 9.06 198.32 8.79 199 8.58C199.06 8.56 199.12 8.55 199.18 8.55C199.49 8.55 199.7 8.83 199.7 9.11C199.7 9.32 199.59 9.52 199.33 9.6C198.44 9.88 197.44 10.29 196.7 10.76C195.84 11.32 195.54 11.87 195.54 12.38C195.54 13 195.95 13.32 197.54 13.32C198.34 13.32 199.05 13.25 199.61 13.14C199.66 13.13 199.7 13.13 199.74 13.13C200.09 13.13 200.28 13.4 200.28 13.68C200.28 13.93 200.14 14.17 199.83 14.24C199.15 14.38 198.38 14.43 197.53 14.43C195.43 14.43 194.38 13.79 194.38 12.44C194.38 11.62 194.76 10.81 196.01 9.96ZM198.67 6.8C198.61 6.73 198.59 6.65 198.59 6.58C198.59 6.38 198.79 6.21 199.01 6.21C199.11 6.21 199.22 6.25 199.31 6.35C199.56 6.62 199.83 6.97 200.01 7.29C200.06 7.37 200.08 7.45 200.08 7.53C200.08 7.76 199.88 7.93 199.67 7.93C199.54 7.93 199.42 7.86 199.33 7.71C199.13 7.36 198.88 7.05 198.67 6.8ZM199.74 6.1C199.68 6.03 199.65 5.95 199.65 5.88C199.65 5.68 199.85 5.53 200.06 5.53C200.17 5.53 200.29 5.57 200.39 5.67C200.63 5.92 200.9 6.25 201.08 6.56C201.14 6.66 201.17 6.75 201.17 6.83C201.17 7.06 200.98 7.22 200.77 7.22C200.64 7.22 200.5 7.15 200.4 7C200.2 6.69 199.95 6.36 199.74 6.1ZM205.95 10.58L205.97 10.59C206.7 10.15 207.69 9.87 208.51 9.87C210.04 9.87 210.8 10.64 210.8 11.74C210.8 13.34 209.3 14.19 207.49 14.36C207.33 14.38 207.24 14.38 207.16 14.38C206.82 14.38 206.63 14.12 206.63 13.86C206.63 13.61 206.78 13.37 207.12 13.35C209 13.22 209.67 12.57 209.67 11.76C209.67 11.24 209.35 10.85 208.53 10.85C207.44 10.85 206.48 11.24 205.54 12.14C205.41 12.26 205.26 12.32 205.11 12.32C204.82 12.32 204.55 12.11 204.55 11.78C204.55 11.7 204.56 11.63 204.59 11.54C204.92 10.6 205.16 9.66 205.34 8.72C204.85 8.76 204.39 8.78 203.97 8.78C203.63 8.78 203.46 8.52 203.46 8.26C203.46 8.01 203.63 7.75 203.96 7.75C204.42 7.75 204.95 7.72 205.52 7.67C205.59 7.17 205.65 6.67 205.7 6.16C205.73 5.85 205.99 5.7 206.25 5.7C206.51 5.7 206.77 5.86 206.77 6.17V6.24C206.72 6.7 206.67 7.14 206.61 7.55C207.39 7.45 208.17 7.32 208.84 7.17C208.89 7.16 208.94 7.15 208.99 7.15C209.3 7.15 209.49 7.41 209.49 7.67C209.49 7.89 209.35 8.11 209.03 8.18C208.23 8.35 207.32 8.51 206.43 8.61C206.29 9.38 206.12 10.05 205.95 10.58ZM216.9 5.94C217.44 6.07 218.11 6.3 218.63 6.57C218.88 6.7 218.98 6.91 218.98 7.12C218.98 7.4 218.77 7.67 218.45 7.67C218.36 7.67 218.26 7.65 218.15 7.6C217.63 7.37 217 7.12 216.52 6.98C216.26 6.9 216.14 6.7 216.14 6.5C216.14 6.22 216.37 5.92 216.73 5.92C216.78 5.92 216.84 5.93 216.9 5.94ZM215.55 10.65L215.57 10.66C216.33 10 217.48 9.59 218.47 9.59C220.04 9.59 221.01 10.45 221.01 11.58C221.01 13.12 219.74 14.22 217.33 14.5C217.3 14.5 217.27 14.51 217.24 14.51C216.89 14.51 216.69 14.23 216.69 13.96C216.69 13.71 216.86 13.46 217.2 13.42C219.16 13.19 219.84 12.45 219.84 11.59C219.84 11.07 219.43 10.59 218.47 10.59C217.41 10.59 216.21 11.13 215.37 12.11C215.23 12.28 215.04 12.35 214.86 12.35C214.56 12.35 214.27 12.13 214.27 11.77C214.27 11.73 214.27 11.69 214.28 11.65C214.38 10.91 214.62 9.6 214.91 8.23C214.97 7.94 215.22 7.81 215.46 7.81C215.75 7.81 216.03 7.98 216.03 8.28C216.03 8.31 216.03 8.35 216.02 8.38C215.83 9.31 215.66 10.07 215.55 10.65ZM226.61 9.86C226.39 8.9 226.24 7.71 226.24 6.33C226.24 5.97 226.53 5.79 226.82 5.79C227.11 5.79 227.4 5.97 227.4 6.33C227.4 7.45 227.49 8.45 227.63 9.26C228.24 8.96 228.92 8.69 229.6 8.48C229.66 8.46 229.72 8.45 229.78 8.45C230.09 8.45 230.3 8.73 230.3 9.01C230.3 9.22 230.19 9.42 229.93 9.5C229.04 9.78 228.04 10.19 227.3 10.66C226.44 11.22 226.14 11.77 226.14 12.28C226.14 12.9 226.55 13.22 228.14 13.22C228.94 13.22 229.65 13.15 230.21 13.04C230.26 13.03 230.3 13.03 230.34 13.03C230.69 13.03 230.88 13.3 230.88 13.58C230.88 13.83 230.74 14.07 230.43 14.14C229.75 14.28 228.98 14.33 228.13 14.33C226.03 14.33 224.98 13.69 224.98 12.34C224.98 11.52 225.36 10.71 226.61 9.86ZM237.95 6.26L237.72 7.6H237.79C238.18 7.6 238.51 7.58 238.82 7.55H238.87C239.19 7.55 239.35 7.81 239.35 8.08C239.35 8.33 239.21 8.56 238.92 8.59C238.61 8.62 238.31 8.64 237.81 8.64H237.53C237.47 9.11 237.39 9.57 237.32 10.04H237.48C238.01 10.04 238.6 9.99 239.05 9.91C239.08 9.9 239.12 9.9 239.15 9.9C239.46 9.9 239.64 10.17 239.64 10.43C239.64 10.67 239.51 10.9 239.21 10.96C238.73 11.06 238.05 11.12 237.47 11.12H237.19C237.16 11.47 237.15 11.75 237.15 11.99C237.15 13.07 237.6 13.44 238.48 13.44C239.58 13.44 240.17 13.05 240.17 12.06C240.17 11.83 240.12 11.55 240.05 11.32C240.04 11.27 240.03 11.22 240.03 11.17C240.03 10.87 240.31 10.69 240.6 10.69C240.85 10.69 241.1 10.82 241.19 11.12C241.29 11.43 241.34 11.74 241.34 12.04C241.34 13.75 240.18 14.58 238.5 14.58C236.94 14.58 236.01 13.78 236.01 12.07C236.01 11.77 236.02 11.45 236.06 11.06C235.59 11.01 235.2 10.95 234.86 10.86C234.57 10.78 234.44 10.55 234.44 10.32C234.44 10.04 234.63 9.77 234.95 9.77C235.01 9.77 235.07 9.77 235.13 9.79C235.44 9.87 235.78 9.93 236.19 9.98C236.25 9.51 236.32 9.05 236.4 8.58C236.01 8.55 235.66 8.49 235.35 8.42C235.05 8.35 234.92 8.13 234.92 7.92C234.92 7.64 235.12 7.38 235.43 7.38C235.47 7.38 235.51 7.38 235.55 7.39C235.87 7.46 236.2 7.51 236.58 7.55L236.83 6.11C236.88 5.82 237.14 5.69 237.4 5.69C237.68 5.69 237.96 5.85 237.96 6.16C237.96 6.19 237.96 6.22 237.95 6.26ZM244.32 7.3C244.35 6.98 244.63 6.82 244.9 6.82C245.2 6.82 245.49 7 245.49 7.35C245.49 7.49 245.45 7.98 245.45 8.29C245.45 11.79 246.16 12.71 246.58 12.71C246.82 12.71 247.04 12.55 247.23 11.8C247.31 11.5 247.52 11.37 247.74 11.37C248.03 11.37 248.31 11.58 248.31 11.91C248.31 11.97 248.31 12.02 248.29 12.08C247.92 13.42 247.28 13.91 246.61 13.91C245.16 13.91 244.28 12.12 244.28 8.32C244.28 7.86 244.3 7.56 244.32 7.3ZM250.5 8.01C251.34 8.79 252.11 10.04 252.44 11.06C252.47 11.14 252.48 11.21 252.48 11.27C252.48 11.6 252.2 11.8 251.92 11.8C251.71 11.8 251.49 11.69 251.39 11.42C251.03 10.5 250.38 9.45 249.66 8.7C249.54 8.58 249.49 8.45 249.49 8.33C249.49 8.05 249.76 7.82 250.06 7.82C250.2 7.82 250.36 7.88 250.5 8.01ZM257.3 5.88C257.96 5.96 258.78 6.16 259.37 6.36C259.65 6.46 259.78 6.67 259.78 6.88C259.78 7.16 259.57 7.43 259.26 7.43C259.19 7.43 259.12 7.42 259.04 7.39C258.46 7.2 257.71 7.02 257.11 6.92C256.78 6.87 256.64 6.65 256.64 6.42C256.64 6.15 256.85 5.87 257.2 5.87C257.23 5.87 257.27 5.87 257.3 5.88ZM255.64 8.44L259.15 7.91C259.2 7.9 259.25 7.9 259.3 7.9C259.76 7.9 260.04 8.23 260.04 8.58C260.04 8.75 259.98 8.92 259.84 9.07L258.17 10.78L258.19 10.81C258.35 10.76 258.5 10.73 258.64 10.73C259.29 10.73 259.68 11.13 259.72 12L259.73 12.21C259.76 12.84 259.88 13.03 260.38 13.03C260.89 13.03 261.46 12.94 261.99 12.83C262.05 12.82 262.1 12.81 262.16 12.81C262.5 12.81 262.69 13.09 262.69 13.37C262.69 13.61 262.56 13.84 262.28 13.9C261.6 14.05 260.96 14.11 260.4 14.11C259.24 14.11 258.68 13.64 258.63 12.38L258.62 12.15C258.6 11.78 258.47 11.63 258.25 11.63C257.95 11.63 257.6 11.76 257.16 12.11C256.8 12.4 256.24 12.97 255.43 13.86C255.29 14.01 255.14 14.07 254.98 14.07C254.68 14.07 254.42 13.83 254.42 13.54C254.42 13.4 254.47 13.25 254.61 13.11L258.43 9.08L258.42 9.05L255.81 9.51C255.77 9.52 255.73 9.52 255.7 9.52C255.37 9.52 255.17 9.24 255.17 8.97C255.17 8.73 255.31 8.49 255.64 8.44ZM270.37 13C270.35 14.12 269.53 14.52 268.57 14.52C267.38 14.52 266.66 14 266.66 13.07C266.66 12.27 267.34 11.61 268.62 11.61C268.78 11.61 268.94 11.62 269.12 11.64C269.05 11.18 269.02 10.84 269.02 10.58C269.02 10.15 269.04 9.93 269.09 9.61C269.14 9.33 269.37 9.21 269.61 9.21C269.89 9.21 270.17 9.37 270.17 9.67C270.17 9.7 270.16 9.72 270.16 9.75C270.12 10.04 270.09 10.29 270.09 10.57C270.09 10.85 270.12 11.24 270.23 11.87C270.87 12.06 271.53 12.35 272.11 12.74C272.3 12.87 272.38 13.04 272.38 13.21C272.38 13.49 272.15 13.76 271.85 13.76C271.75 13.76 271.63 13.72 271.51 13.64C271.14 13.38 270.75 13.16 270.37 13ZM268.57 13.53C269.03 13.53 269.28 13.33 269.28 12.89C269.28 12.8 269.28 12.72 269.27 12.64C269.05 12.6 268.84 12.58 268.64 12.58C267.94 12.58 267.72 12.8 267.72 13.07C267.72 13.36 267.92 13.53 268.57 13.53ZM266.39 7.66C266.54 7.15 266.68 6.64 266.78 6.14C266.84 5.84 267.08 5.71 267.32 5.71C267.6 5.71 267.86 5.88 267.86 6.2C267.86 6.24 267.86 6.29 267.85 6.33C267.77 6.71 267.67 7.11 267.56 7.51C267.86 7.46 268.16 7.41 268.44 7.36C268.48 7.35 268.52 7.35 268.55 7.35C268.87 7.35 269.07 7.61 269.07 7.88C269.07 8.1 268.94 8.32 268.62 8.39C268.19 8.48 267.7 8.56 267.21 8.63C266.79 9.84 266.25 11.04 265.67 12C265.52 12.25 265.31 12.36 265.11 12.36C264.81 12.36 264.55 12.13 264.55 11.83C264.55 11.72 264.58 11.6 264.66 11.48C265.17 10.68 265.63 9.75 266.01 8.76C265.64 8.8 265.28 8.82 264.97 8.83C264.63 8.84 264.45 8.56 264.45 8.28C264.45 8.02 264.61 7.77 264.93 7.76C265.38 7.74 265.88 7.71 266.39 7.66ZM270.83 7.54C271.31 7.67 271.93 7.95 272.36 8.22C272.59 8.36 272.69 8.56 272.69 8.74C272.69 9.03 272.45 9.29 272.16 9.29C272.06 9.29 271.96 9.26 271.86 9.2C271.39 8.93 270.87 8.67 270.43 8.51C270.18 8.42 270.07 8.24 270.07 8.06C270.07 7.79 270.3 7.51 270.64 7.51C270.7 7.51 270.76 7.52 270.83 7.54ZM274.92 7.3C274.95 6.98 275.23 6.82 275.5 6.82C275.8 6.82 276.09 7 276.09 7.35C276.09 7.49 276.05 7.98 276.05 8.29C276.05 11.79 276.76 12.71 277.18 12.71C277.42 12.71 277.64 12.55 277.83 11.8C277.91 11.5 278.12 11.37 278.34 11.37C278.63 11.37 278.91 11.58 278.91 11.91C278.91 11.97 278.91 12.02 278.89 12.08C278.52 13.42 277.88 13.91 277.21 13.91C275.76 13.91 274.88 12.12 274.88 8.32C274.88 7.86 274.9 7.56 274.92 7.3ZM281.1 8.01C281.94 8.79 282.71 10.04 283.04 11.06C283.07 11.14 283.08 11.21 283.08 11.27C283.08 11.6 282.8 11.8 282.52 11.8C282.31 11.8 282.09 11.69 281.99 11.42C281.63 10.5 280.98 9.45 280.26 8.7C280.14 8.58 280.09 8.45 280.09 8.33C280.09 8.05 280.36 7.82 280.66 7.82C280.8 7.82 280.96 7.88 281.1 8.01Z" fill="#282828"/>
<rect x="292" y="2" width="16" height="16" rx="4" fill="#69BD83"/>
<path d="M313.16 12.44C313.16 11.54 313.81 10.26 315.52 9.48C315.53 9.03 315.56 8.58 315.6 8.14C315.14 8.16 314.7 8.17 314.31 8.17C313.98 8.17 313.82 7.92 313.82 7.66C313.82 7.41 313.98 7.16 314.31 7.16C314.73 7.16 315.21 7.15 315.7 7.12C315.74 6.75 315.79 6.37 315.85 5.97C315.9 5.68 316.15 5.54 316.39 5.54C316.66 5.54 316.92 5.7 316.92 5.98C316.92 6.01 316.91 6.03 316.91 6.06C316.86 6.4 316.81 6.73 316.76 7.05C317.49 6.99 318.2 6.9 318.76 6.8C318.8 6.79 318.84 6.79 318.88 6.79C319.21 6.79 319.39 7.04 319.39 7.29C319.39 7.51 319.25 7.74 318.95 7.79C318.29 7.91 317.47 8 316.64 8.07C316.62 8.42 316.58 8.78 316.56 9.14C317.04 9.03 317.54 8.98 318.03 8.98C318.07 8.85 318.11 8.72 318.14 8.58C318.2 8.33 318.42 8.22 318.64 8.22C318.9 8.22 319.16 8.38 319.16 8.66C319.16 8.7 319.15 8.74 319.14 8.79C319.11 8.89 319.09 8.99 319.06 9.09C320.44 9.41 321.23 10.44 321.23 11.63C321.23 13.09 320.23 14.18 318.56 14.59C318.51 14.6 318.45 14.61 318.4 14.61C318.08 14.61 317.87 14.34 317.87 14.06C317.87 13.85 318 13.63 318.3 13.54C319.57 13.15 320.1 12.5 320.1 11.64C320.1 10.95 319.65 10.25 318.75 10C318.32 11.1 317.69 12.15 316.79 12.92C316.83 13.13 316.87 13.33 316.92 13.52C316.93 13.56 316.94 13.61 316.94 13.65C316.94 13.96 316.65 14.14 316.38 14.14C316.17 14.14 315.96 14.03 315.9 13.78L315.84 13.53C315.41 13.79 315 13.88 314.57 13.88C313.72 13.88 313.16 13.34 313.16 12.44ZM314.22 12.37C314.22 12.69 314.3 12.83 314.64 12.84C314.94 12.84 315.23 12.75 315.65 12.48C315.56 11.83 315.51 11.18 315.5 10.53C314.58 11.13 314.21 11.8 314.22 12.37ZM316.61 11.73C317.08 11.19 317.44 10.57 317.71 9.91C317.31 9.93 316.92 9.99 316.53 10.1V10.27C316.53 10.72 316.56 11.22 316.61 11.73ZM327.9 6.09V7.08H328.54C329.12 7.08 329.67 7.09 330.18 7.1C330.52 7.11 330.69 7.37 330.69 7.64C330.69 7.9 330.52 8.15 330.18 8.15C329.79 8.14 329.36 8.13 328.91 8.13C328.59 8.13 328.26 8.14 327.92 8.14C327.92 8.49 327.93 8.84 327.95 9.19C328.61 9.15 329.25 9.1 329.83 9.03H329.91C330.26 9.03 330.44 9.28 330.44 9.54C330.44 9.78 330.28 10.03 329.95 10.07C329.34 10.15 328.68 10.2 328.01 10.24C328.03 10.68 328.07 11.12 328.11 11.56C328.96 11.78 329.81 12.15 330.62 12.65C330.86 12.8 330.96 13 330.96 13.19C330.96 13.5 330.7 13.78 330.37 13.78C330.26 13.78 330.15 13.75 330.03 13.67C329.42 13.27 328.8 12.94 328.18 12.71V12.78C328.18 13.86 327.24 14.38 326.08 14.38C324.81 14.38 324.03 13.77 324.03 12.84C324.03 11.97 324.75 11.3 326.18 11.3C326.45 11.3 326.71 11.32 326.99 11.35C326.96 10.99 326.92 10.63 326.91 10.28H326.34C325.74 10.28 325.13 10.26 324.78 10.22C324.45 10.18 324.3 9.93 324.3 9.69C324.3 9.43 324.48 9.16 324.8 9.16H324.87C325.24 9.2 325.74 9.23 326.31 9.23H326.85C326.83 8.87 326.82 8.52 326.81 8.16C325.96 8.18 325.13 8.21 324.43 8.24C324.09 8.25 323.91 7.98 323.91 7.71C323.91 7.45 324.07 7.2 324.41 7.18C325.11 7.15 325.94 7.11 326.79 7.1V6.09C326.79 5.79 327.07 5.64 327.35 5.64C327.62 5.64 327.9 5.79 327.9 6.09ZM326.08 13.35C326.75 13.35 327.08 13.04 327.08 12.62V12.4C326.77 12.34 326.48 12.31 326.18 12.31C325.4 12.31 325.17 12.55 325.17 12.85C325.17 13.12 325.43 13.35 326.08 13.35ZM336.04 10.2H336.06C336.16 9.97 336.23 9.78 336.32 9.51C336.4 9.29 336.58 9.19 336.75 9.19C336.98 9.19 337.2 9.35 337.2 9.59C337.2 9.63 337.19 9.67 337.18 9.71C337.01 10.28 336.74 10.91 336.48 11.36C336.32 11.63 336.05 11.77 335.79 11.77C335.51 11.77 335.24 11.61 335.15 11.29C335.02 10.86 334.91 10.14 334.91 9.57C334.91 8.77 335.03 7.67 335.28 6.63C335.35 6.35 335.61 6.22 335.85 6.22C336.13 6.22 336.4 6.38 336.4 6.67C336.4 6.71 336.39 6.75 336.38 6.8C336.16 7.73 336.01 8.87 336.01 9.47C336.01 9.79 336.02 10 336.04 10.2ZM338.64 6.58V6.52C338.64 6.19 338.94 6.01 339.24 6.01C339.51 6.01 339.78 6.16 339.83 6.49C339.97 7.54 340.04 8.63 340.04 9.71C340.04 11.88 339.26 13.39 337.86 14.46C337.72 14.57 337.57 14.62 337.44 14.62C337.13 14.62 336.88 14.36 336.88 14.06C336.88 13.89 336.96 13.71 337.14 13.56C338.28 12.62 338.84 11.4 338.84 9.71C338.84 8.68 338.77 7.64 338.64 6.58ZM347.9 7.34L347.89 7.31C346.78 7.55 346.16 7.65 345.77 7.7H345.7C345.38 7.7 345.2 7.43 345.2 7.16C345.2 6.92 345.34 6.68 345.64 6.64C346.01 6.6 346.64 6.54 348.57 6.13C348.64 6.11 348.71 6.11 348.78 6.11C349.2 6.11 349.49 6.4 349.49 6.75C349.49 6.9 349.43 7.06 349.31 7.21C348.66 8.02 347.76 8.89 346.86 9.52L346.87 9.54C348.13 9.26 349.31 9.02 350.97 8.68C351.01 8.67 351.05 8.67 351.09 8.67C351.44 8.67 351.64 8.93 351.64 9.19C351.64 9.42 351.5 9.64 351.18 9.71C350.5 9.86 349.86 10.04 349.47 10.24C348.43 10.76 348.08 11.53 348.08 12.15C348.08 12.84 348.54 13.25 349.89 13.3C350.26 13.32 350.44 13.58 350.44 13.84C350.44 14.12 350.24 14.41 349.84 14.4C348.03 14.37 346.96 13.54 346.96 12.24C346.96 11.58 347.18 10.91 347.88 10.3L347.87 10.28C347.05 10.47 346.27 10.66 345.37 10.88C345.02 10.97 344.69 11.06 344.35 11.16C344.28 11.18 344.22 11.19 344.16 11.19C343.83 11.19 343.61 10.91 343.61 10.62C343.61 10.41 343.73 10.19 344.02 10.09C344.55 9.9 345.12 9.63 345.58 9.32C346.47 8.72 347.26 8.03 347.9 7.34ZM357.24 5.79C357.96 5.89 358.89 6.15 359.55 6.42C359.8 6.52 359.91 6.73 359.91 6.94C359.91 7.23 359.7 7.53 359.39 7.53C359.33 7.53 359.26 7.51 359.19 7.49C358.56 7.27 357.68 7.02 357.01 6.89C356.72 6.83 356.59 6.61 356.59 6.38C356.59 6.09 356.79 5.78 357.14 5.78C357.18 5.78 357.21 5.79 357.24 5.79ZM355.66 9.83C355.57 9.87 355.48 9.89 355.4 9.89C355.08 9.89 354.85 9.61 354.85 9.33C354.85 9.14 354.96 8.94 355.22 8.83C356.17 8.41 357.32 8.17 358.1 8.17C359.67 8.17 360.41 8.88 360.41 10.22C360.41 11.76 359.71 13.36 358.2 14.42C358.07 14.51 357.94 14.55 357.82 14.55C357.5 14.55 357.25 14.29 357.25 14C357.25 13.83 357.33 13.65 357.54 13.5C358.79 12.58 359.25 11.47 359.25 10.23C359.25 9.58 358.98 9.24 358.12 9.24C357.52 9.24 356.59 9.43 355.66 9.83ZM370.3 10.67H366.21C365.16 10.67 364.79 10.31 364.79 9.51V7.18C364.79 6.38 365.16 6.02 366.21 6.02H370.3C371.36 6.02 371.73 6.38 371.73 7.18V9.51C371.73 10.48 371.17 10.67 370.3 10.67ZM366.3 9.79H367.65V8.75H365.85V9.44C365.85 9.76 366.02 9.79 366.3 9.79ZM365.85 7.9H367.65V6.9H366.3C365.93 6.9 365.85 7 365.85 7.25V7.9ZM368.7 6.9V7.9H370.67V7.25C370.67 7 370.58 6.9 370.22 6.9H368.7ZM370.67 8.75H368.7V9.79H370.22C370.58 9.79 370.67 9.7 370.67 9.44V8.75ZM365.98 13.68V11.7C365.98 11.4 366.25 11.26 366.53 11.26C366.8 11.26 367.07 11.4 367.07 11.7V13.49C367.07 13.74 367.17 13.8 368.21 13.8C369.43 13.8 369.62 13.66 369.68 13.1C369.71 12.81 369.96 12.67 370.21 12.67C370.48 12.67 370.75 12.83 370.75 13.14V13.19C370.65 14.31 370.15 14.72 368.21 14.72C366.27 14.72 365.98 14.51 365.98 13.68ZM364.49 11.99C364.58 11.76 364.78 11.66 364.98 11.66C365.26 11.66 365.53 11.85 365.53 12.15C365.53 12.21 365.52 12.28 365.49 12.35C365.29 12.87 365.02 13.37 364.77 13.74C364.64 13.94 364.46 14.02 364.28 14.02C364 14.02 363.74 13.81 363.74 13.53C363.74 13.44 363.77 13.33 363.84 13.22C364.09 12.85 364.31 12.44 364.49 11.99ZM368.35 11.01C368.6 11.18 368.94 11.44 369.16 11.66C369.3 11.79 369.35 11.93 369.35 12.06C369.35 12.33 369.11 12.56 368.84 12.56C368.72 12.56 368.59 12.52 368.47 12.41C368.23 12.2 367.97 11.95 367.72 11.75C367.58 11.64 367.52 11.5 367.52 11.37C367.52 11.12 367.74 10.9 368.02 10.9C368.12 10.9 368.24 10.93 368.35 11.01ZM371.64 11.71C371.98 12.06 372.31 12.48 372.55 12.86C372.61 12.96 372.64 13.06 372.64 13.16C372.64 13.46 372.37 13.7 372.09 13.7C371.93 13.7 371.76 13.63 371.64 13.44C371.42 13.11 371.11 12.69 370.8 12.34C370.7 12.23 370.66 12.11 370.66 12.01C370.66 11.74 370.92 11.52 371.21 11.52C371.36 11.52 371.51 11.58 371.64 11.71ZM377.15 8.93L377.13 9.3C378.09 8.51 379.1 8.11 380.01 8.11C381.5 8.11 382.52 9.14 382.52 10.52C382.52 12.23 381.44 13.39 379.7 13.85C379.64 13.86 379.59 13.87 379.54 13.87C379.19 13.87 378.98 13.59 378.98 13.32C378.98 13.09 379.12 12.86 379.44 12.77C380.73 12.4 381.35 11.73 381.35 10.53C381.35 9.68 380.82 9.14 380.01 9.14C379.12 9.14 378.09 9.62 377.11 10.57L377.1 14.02C377.1 14.33 376.83 14.49 376.56 14.49C376.29 14.49 376.03 14.33 376.03 14.02L376.06 11.74L375.19 12.82C375.07 12.97 374.93 13.03 374.79 13.03C374.51 13.03 374.25 12.79 374.25 12.51C374.25 12.4 374.29 12.29 374.37 12.19C374.86 11.59 375.48 10.73 376.08 9.77L376.1 9.08L374.97 9.29C374.93 9.3 374.9 9.3 374.87 9.3C374.57 9.3 374.4 9.03 374.4 8.77C374.4 8.55 374.53 8.32 374.79 8.28L376.12 8.06L376.14 6.39C376.14 6.08 376.42 5.92 376.68 5.92C376.95 5.92 377.22 6.08 377.21 6.39L377.18 7.94C377.42 7.96 377.51 8.12 377.51 8.26C377.51 8.44 377.42 8.6 377.15 8.93ZM390.37 13C390.35 14.12 389.53 14.52 388.57 14.52C387.38 14.52 386.66 14 386.66 13.07C386.66 12.27 387.34 11.61 388.62 11.61C388.78 11.61 388.94 11.62 389.12 11.64C389.05 11.18 389.02 10.84 389.02 10.58C389.02 10.15 389.04 9.93 389.09 9.61C389.14 9.33 389.37 9.21 389.61 9.21C389.89 9.21 390.17 9.37 390.17 9.67C390.17 9.7 390.16 9.72 390.16 9.75C390.12 10.04 390.09 10.29 390.09 10.57C390.09 10.85 390.12 11.24 390.23 11.87C390.87 12.06 391.53 12.35 392.11 12.74C392.3 12.87 392.38 13.04 392.38 13.21C392.38 13.49 392.15 13.76 391.85 13.76C391.75 13.76 391.63 13.72 391.51 13.64C391.14 13.38 390.75 13.16 390.37 13ZM388.57 13.53C389.03 13.53 389.28 13.33 389.28 12.89C389.28 12.8 389.28 12.72 389.27 12.64C389.05 12.6 388.84 12.58 388.64 12.58C387.94 12.58 387.72 12.8 387.72 13.07C387.72 13.36 387.92 13.53 388.57 13.53ZM386.39 7.66C386.54 7.15 386.68 6.64 386.78 6.14C386.84 5.84 387.08 5.71 387.32 5.71C387.6 5.71 387.86 5.88 387.86 6.2C387.86 6.24 387.86 6.29 387.85 6.33C387.77 6.71 387.67 7.11 387.56 7.51C387.86 7.46 388.16 7.41 388.44 7.36C388.48 7.35 388.52 7.35 388.55 7.35C388.87 7.35 389.07 7.61 389.07 7.88C389.07 8.1 388.94 8.32 388.62 8.39C388.19 8.48 387.7 8.56 387.21 8.63C386.79 9.84 386.25 11.04 385.67 12C385.52 12.25 385.31 12.36 385.11 12.36C384.81 12.36 384.55 12.13 384.55 11.83C384.55 11.72 384.58 11.6 384.66 11.48C385.17 10.68 385.63 9.75 386.01 8.76C385.64 8.8 385.28 8.82 384.97 8.83C384.63 8.84 384.45 8.56 384.45 8.28C384.45 8.02 384.61 7.77 384.93 7.76C385.38 7.74 385.88 7.71 386.39 7.66ZM390.83 7.54C391.31 7.67 391.93 7.95 392.36 8.22C392.59 8.36 392.69 8.56 392.69 8.74C392.69 9.03 392.45 9.29 392.16 9.29C392.06 9.29 391.96 9.26 391.86 9.2C391.39 8.93 390.87 8.67 390.43 8.51C390.18 8.42 390.07 8.24 390.07 8.06C390.07 7.79 390.3 7.51 390.64 7.51C390.7 7.51 390.76 7.52 390.83 7.54ZM394.92 7.3C394.95 6.98 395.23 6.82 395.5 6.82C395.8 6.82 396.09 7 396.09 7.35C396.09 7.49 396.05 7.98 396.05 8.29C396.05 11.79 396.76 12.71 397.18 12.71C397.42 12.71 397.64 12.55 397.83 11.8C397.91 11.5 398.12 11.37 398.34 11.37C398.63 11.37 398.91 11.58 398.91 11.91C398.91 11.97 398.91 12.02 398.89 12.08C398.52 13.42 397.88 13.91 397.21 13.91C395.76 13.91 394.88 12.12 394.88 8.32C394.88 7.86 394.9 7.56 394.92 7.3ZM401.1 8.01C401.94 8.79 402.71 10.04 403.04 11.06C403.07 11.14 403.08 11.21 403.08 11.27C403.08 11.6 402.8 11.8 402.52 11.8C402.31 11.8 402.09 11.69 401.99 11.42C401.63 10.5 400.98 9.45 400.26 8.7C400.14 8.58 400.09 8.45 400.09 8.33C400.09 8.05 400.36 7.82 400.66 7.82C400.8 7.82 400.96 7.88 401.1 8.01Z" fill="#282828"/>
<rect x="142.5" y="30" width="16" height="16" rx="4" fill="#808080"/>
<path d="M168.1 34.09V35.08H168.74C169.32 35.08 169.87 35.09 170.38 35.1C170.72 35.11 170.89 35.37 170.89 35.64C170.89 35.9 170.72 36.15 170.38 36.15C169.99 36.14 169.56 36.13 169.11 36.13C168.79 36.13 168.46 36.14 168.12 36.14C168.12 36.49 168.13 36.84 168.15 37.19C168.81 37.15 169.45 37.1 170.03 37.03H170.11C170.46 37.03 170.64 37.28 170.64 37.54C170.64 37.78 170.48 38.03 170.15 38.07C169.54 38.15 168.88 38.2 168.21 38.24C168.23 38.68 168.27 39.12 168.31 39.56C169.16 39.78 170.01 40.15 170.82 40.65C171.06 40.8 171.16 41 171.16 41.19C171.16 41.5 170.9 41.78 170.57 41.78C170.46 41.78 170.35 41.75 170.23 41.67C169.62 41.27 169 40.94 168.38 40.71V40.78C168.38 41.86 167.44 42.38 166.28 42.38C165.01 42.38 164.23 41.77 164.23 40.84C164.23 39.97 164.95 39.3 166.38 39.3C166.65 39.3 166.91 39.32 167.19 39.35C167.16 38.99 167.12 38.63 167.11 38.28H166.54C165.94 38.28 165.33 38.26 164.98 38.22C164.65 38.18 164.5 37.93 164.5 37.69C164.5 37.43 164.68 37.16 165 37.16H165.07C165.44 37.2 165.94 37.23 166.51 37.23H167.05C167.03 36.87 167.02 36.52 167.01 36.16C166.16 36.18 165.33 36.21 164.63 36.24C164.29 36.25 164.11 35.98 164.11 35.71C164.11 35.45 164.27 35.2 164.61 35.18C165.31 35.15 166.14 35.11 166.99 35.1V34.09C166.99 33.79 167.27 33.64 167.55 33.64C167.82 33.64 168.1 33.79 168.1 34.09ZM166.28 41.35C166.95 41.35 167.28 41.04 167.28 40.62V40.4C166.97 40.34 166.68 40.31 166.38 40.31C165.6 40.31 165.37 40.55 165.37 40.85C165.37 41.12 165.63 41.35 166.28 41.35ZM178.72 37.12C180.18 37.12 181.18 37.91 181.18 39.17C181.18 40.73 180.01 41.83 177.77 42.15C177.74 42.16 177.7 42.16 177.67 42.16C177.37 42.16 177.21 41.91 177.21 41.67C177.21 41.46 177.34 41.25 177.62 41.2C179.52 40.87 180.17 40.23 180.17 39.17C180.17 38.53 179.71 38.03 178.72 38.03C177.69 38.03 176.4 38.36 174.93 39.01C174.85 39.05 174.77 39.06 174.69 39.06C174.41 39.06 174.22 38.83 174.22 38.59C174.22 38.41 174.32 38.22 174.56 38.12C176.04 37.47 177.54 37.12 178.72 37.12ZM185.54 36.88C185.13 36.94 184.72 37 184.31 37C183.98 37 183.81 36.75 183.81 36.48C183.81 36.21 183.98 35.95 184.32 35.93C184.72 35.91 185.2 35.85 185.74 35.76C185.83 35.21 185.87 34.77 185.93 34.22C185.96 33.91 186.22 33.76 186.48 33.76C186.76 33.76 187.04 33.94 187.04 34.26V34.32C186.99 34.8 186.94 35.16 186.88 35.54C187.16 35.48 187.45 35.41 187.74 35.34C187.79 35.33 187.84 35.32 187.89 35.32C188.2 35.32 188.39 35.58 188.39 35.85C188.39 36.06 188.27 36.27 188 36.34C187.54 36.47 187.1 36.58 186.7 36.67C186.34 38.63 185.86 40.48 185.3 41.93C185.18 42.23 184.93 42.37 184.69 42.37C184.41 42.37 184.14 42.17 184.14 41.86C184.14 41.77 184.16 41.68 184.2 41.58C184.75 40.22 185.19 38.63 185.54 36.88ZM187.55 40.31C187.55 39.97 187.83 39.78 188.11 39.78C188.34 39.78 188.56 39.91 188.59 40.2C188.66 40.84 189.02 41.02 190.11 41.02C190.62 41.02 191.05 40.98 191.45 40.92C191.48 40.91 191.53 40.91 191.56 40.91C191.9 40.91 192.09 41.2 192.09 41.47C192.09 41.71 191.94 41.95 191.63 42C191.2 42.07 190.7 42.11 190.13 42.11C188.73 42.11 188.11 41.75 187.79 41.24C187.63 40.99 187.55 40.59 187.55 40.31ZM188.55 37.04C189.33 36.88 190.32 36.77 191.12 36.77C191.48 36.77 191.66 37.04 191.66 37.31C191.66 37.57 191.49 37.82 191.15 37.82C190.35 37.82 189.42 37.94 188.71 38.08C188.67 38.09 188.62 38.09 188.59 38.09C188.28 38.09 188.09 37.84 188.09 37.57C188.09 37.34 188.23 37.11 188.55 37.04ZM198.5 34.09C198.62 33.9 198.8 33.82 198.97 33.82C199.27 33.82 199.57 34.05 199.57 34.38C199.57 34.49 199.53 34.61 199.45 34.74C198.84 35.64 197.95 36.73 197.18 37.56C197.02 37.73 196.97 37.84 196.97 38C196.97 38.17 197.05 38.29 197.21 38.47C198.1 39.41 199 40.53 199.75 41.58C199.85 41.73 199.9 41.87 199.9 41.99C199.9 42.33 199.59 42.57 199.27 42.57C199.06 42.57 198.86 42.47 198.71 42.24C198.07 41.24 197.15 40.02 196.34 39.12C195.98 38.71 195.81 38.37 195.81 38.01C195.81 37.68 195.92 37.34 196.28 36.97C197.05 36.19 197.88 35.05 198.5 34.09ZM208.5 35.34L208.49 35.31C207.38 35.55 206.76 35.65 206.37 35.7H206.3C205.98 35.7 205.8 35.43 205.8 35.16C205.8 34.92 205.94 34.68 206.24 34.64C206.61 34.6 207.24 34.54 209.17 34.13C209.24 34.11 209.31 34.11 209.38 34.11C209.8 34.11 210.09 34.4 210.09 34.75C210.09 34.9 210.03 35.06 209.91 35.21C209.26 36.02 208.36 36.89 207.46 37.52L207.47 37.54C208.73 37.26 209.91 37.02 211.57 36.68C211.61 36.67 211.65 36.67 211.69 36.67C212.04 36.67 212.24 36.93 212.24 37.19C212.24 37.42 212.1 37.64 211.78 37.71C211.1 37.86 210.46 38.04 210.07 38.24C209.03 38.76 208.68 39.53 208.68 40.15C208.68 40.84 209.14 41.25 210.49 41.3C210.86 41.32 211.04 41.58 211.04 41.84C211.04 42.12 210.84 42.41 210.44 42.4C208.63 42.37 207.56 41.54 207.56 40.24C207.56 39.58 207.78 38.91 208.48 38.3L208.47 38.28C207.65 38.47 206.87 38.66 205.97 38.88C205.62 38.97 205.29 39.06 204.95 39.16C204.88 39.18 204.82 39.19 204.76 39.19C204.43 39.19 204.21 38.91 204.21 38.62C204.21 38.41 204.33 38.19 204.62 38.09C205.15 37.9 205.72 37.63 206.18 37.32C207.07 36.72 207.86 36.03 208.5 35.34ZM217.84 33.79C218.56 33.89 219.49 34.15 220.15 34.42C220.4 34.52 220.51 34.73 220.51 34.94C220.51 35.23 220.3 35.53 219.99 35.53C219.93 35.53 219.86 35.51 219.79 35.49C219.16 35.27 218.28 35.02 217.61 34.89C217.32 34.83 217.19 34.61 217.19 34.38C217.19 34.09 217.39 33.78 217.74 33.78C217.78 33.78 217.81 33.79 217.84 33.79ZM216.26 37.83C216.17 37.87 216.08 37.89 216 37.89C215.68 37.89 215.45 37.61 215.45 37.33C215.45 37.14 215.56 36.94 215.82 36.83C216.77 36.41 217.92 36.17 218.7 36.17C220.27 36.17 221.01 36.88 221.01 38.22C221.01 39.76 220.31 41.36 218.8 42.42C218.67 42.51 218.54 42.55 218.42 42.55C218.1 42.55 217.85 42.29 217.85 42C217.85 41.83 217.93 41.65 218.14 41.5C219.39 40.58 219.85 39.47 219.85 38.23C219.85 37.58 219.58 37.24 218.72 37.24C218.12 37.24 217.19 37.43 216.26 37.83ZM230.9 38.67H226.81C225.76 38.67 225.39 38.31 225.39 37.51V35.18C225.39 34.38 225.76 34.02 226.81 34.02H230.9C231.96 34.02 232.33 34.38 232.33 35.18V37.51C232.33 38.48 231.77 38.67 230.9 38.67ZM226.9 37.79H228.25V36.75H226.45V37.44C226.45 37.76 226.62 37.79 226.9 37.79ZM226.45 35.9H228.25V34.9H226.9C226.53 34.9 226.45 35 226.45 35.25V35.9ZM229.3 34.9V35.9H231.27V35.25C231.27 35 231.18 34.9 230.82 34.9H229.3ZM231.27 36.75H229.3V37.79H230.82C231.18 37.79 231.27 37.7 231.27 37.44V36.75ZM226.58 41.68V39.7C226.58 39.4 226.85 39.26 227.13 39.26C227.4 39.26 227.67 39.4 227.67 39.7V41.49C227.67 41.74 227.77 41.8 228.81 41.8C230.03 41.8 230.22 41.66 230.28 41.1C230.31 40.81 230.56 40.67 230.81 40.67C231.08 40.67 231.35 40.83 231.35 41.14V41.19C231.25 42.31 230.75 42.72 228.81 42.72C226.87 42.72 226.58 42.51 226.58 41.68ZM225.09 39.99C225.18 39.76 225.38 39.66 225.58 39.66C225.86 39.66 226.13 39.85 226.13 40.15C226.13 40.21 226.12 40.28 226.09 40.35C225.89 40.87 225.62 41.37 225.37 41.74C225.24 41.94 225.06 42.02 224.88 42.02C224.6 42.02 224.34 41.81 224.34 41.53C224.34 41.44 224.37 41.33 224.44 41.22C224.69 40.85 224.91 40.44 225.09 39.99ZM228.95 39.01C229.2 39.18 229.54 39.44 229.76 39.66C229.9 39.79 229.95 39.93 229.95 40.06C229.95 40.33 229.71 40.56 229.44 40.56C229.32 40.56 229.19 40.52 229.07 40.41C228.83 40.2 228.57 39.95 228.32 39.75C228.18 39.64 228.12 39.5 228.12 39.37C228.12 39.12 228.34 38.9 228.62 38.9C228.72 38.9 228.84 38.93 228.95 39.01ZM232.24 39.71C232.58 40.06 232.91 40.48 233.15 40.86C233.21 40.96 233.24 41.06 233.24 41.16C233.24 41.46 232.97 41.7 232.69 41.7C232.53 41.7 232.36 41.63 232.24 41.44C232.02 41.11 231.71 40.69 231.4 40.34C231.3 40.23 231.26 40.11 231.26 40.01C231.26 39.74 231.52 39.52 231.81 39.52C231.96 39.52 232.11 39.58 232.24 39.71ZM237.75 36.93L237.73 37.3C238.69 36.51 239.7 36.11 240.61 36.11C242.1 36.11 243.12 37.14 243.12 38.52C243.12 40.23 242.04 41.39 240.3 41.85C240.24 41.86 240.19 41.87 240.14 41.87C239.79 41.87 239.58 41.59 239.58 41.32C239.58 41.09 239.72 40.86 240.04 40.77C241.33 40.4 241.95 39.73 241.95 38.53C241.95 37.68 241.42 37.14 240.61 37.14C239.72 37.14 238.69 37.62 237.71 38.57L237.7 42.02C237.7 42.33 237.43 42.49 237.16 42.49C236.89 42.49 236.63 42.33 236.63 42.02L236.66 39.74L235.79 40.82C235.67 40.97 235.53 41.03 235.39 41.03C235.11 41.03 234.85 40.79 234.85 40.51C234.85 40.4 234.89 40.29 234.97 40.19C235.46 39.59 236.08 38.73 236.68 37.77L236.7 37.08L235.57 37.29C235.53 37.3 235.5 37.3 235.47 37.3C235.17 37.3 235 37.03 235 36.77C235 36.55 235.13 36.32 235.39 36.28L236.72 36.06L236.74 34.39C236.74 34.08 237.02 33.92 237.28 33.92C237.55 33.92 237.82 34.08 237.81 34.39L237.78 35.94C238.02 35.96 238.11 36.12 238.11 36.26C238.11 36.44 238.02 36.6 237.75 36.93ZM250.97 41C250.95 42.12 250.13 42.52 249.17 42.52C247.98 42.52 247.26 42 247.26 41.07C247.26 40.27 247.94 39.61 249.22 39.61C249.38 39.61 249.54 39.62 249.72 39.64C249.65 39.18 249.62 38.84 249.62 38.58C249.62 38.15 249.64 37.93 249.69 37.61C249.74 37.33 249.97 37.21 250.21 37.21C250.49 37.21 250.77 37.37 250.77 37.67C250.77 37.7 250.76 37.72 250.76 37.75C250.72 38.04 250.69 38.29 250.69 38.57C250.69 38.85 250.72 39.24 250.83 39.87C251.47 40.06 252.13 40.35 252.71 40.74C252.9 40.87 252.98 41.04 252.98 41.21C252.98 41.49 252.75 41.76 252.45 41.76C252.35 41.76 252.23 41.72 252.11 41.64C251.74 41.38 251.35 41.16 250.97 41ZM249.17 41.53C249.63 41.53 249.88 41.33 249.88 40.89C249.88 40.8 249.88 40.72 249.87 40.64C249.65 40.6 249.44 40.58 249.24 40.58C248.54 40.58 248.32 40.8 248.32 41.07C248.32 41.36 248.52 41.53 249.17 41.53ZM246.99 35.66C247.14 35.15 247.28 34.64 247.38 34.14C247.44 33.84 247.68 33.71 247.92 33.71C248.2 33.71 248.46 33.88 248.46 34.2C248.46 34.24 248.46 34.29 248.45 34.33C248.37 34.71 248.27 35.11 248.16 35.51C248.46 35.46 248.76 35.41 249.04 35.36C249.08 35.35 249.12 35.35 249.15 35.35C249.47 35.35 249.67 35.61 249.67 35.88C249.67 36.1 249.54 36.32 249.22 36.39C248.79 36.48 248.3 36.56 247.81 36.63C247.39 37.84 246.85 39.04 246.27 40C246.12 40.25 245.91 40.36 245.71 40.36C245.41 40.36 245.15 40.13 245.15 39.83C245.15 39.72 245.18 39.6 245.26 39.48C245.77 38.68 246.23 37.75 246.61 36.76C246.24 36.8 245.88 36.82 245.57 36.83C245.23 36.84 245.05 36.56 245.05 36.28C245.05 36.02 245.21 35.77 245.53 35.76C245.98 35.74 246.48 35.71 246.99 35.66ZM251.43 35.54C251.91 35.67 252.53 35.95 252.96 36.22C253.19 36.36 253.29 36.56 253.29 36.74C253.29 37.03 253.05 37.29 252.76 37.29C252.66 37.29 252.56 37.26 252.46 37.2C251.99 36.93 251.47 36.67 251.03 36.51C250.78 36.42 250.67 36.24 250.67 36.06C250.67 35.79 250.9 35.51 251.24 35.51C251.3 35.51 251.36 35.52 251.43 35.54ZM255.52 35.3C255.55 34.98 255.83 34.82 256.1 34.82C256.4 34.82 256.69 35 256.69 35.35C256.69 35.49 256.65 35.98 256.65 36.29C256.65 39.79 257.36 40.71 257.78 40.71C258.02 40.71 258.24 40.55 258.43 39.8C258.51 39.5 258.72 39.37 258.94 39.37C259.23 39.37 259.51 39.58 259.51 39.91C259.51 39.97 259.51 40.02 259.49 40.08C259.12 41.42 258.48 41.91 257.81 41.91C256.36 41.91 255.48 40.12 255.48 36.32C255.48 35.86 255.5 35.56 255.52 35.3ZM261.7 36.01C262.54 36.79 263.31 38.04 263.64 39.06C263.67 39.14 263.68 39.21 263.68 39.27C263.68 39.6 263.4 39.8 263.12 39.8C262.91 39.8 262.69 39.69 262.59 39.42C262.23 38.5 261.58 37.45 260.86 36.7C260.74 36.58 260.69 36.45 260.69 36.33C260.69 36.05 260.96 35.82 261.26 35.82C261.4 35.82 261.56 35.88 261.7 36.01Z" fill="#282828"/>
</svg>
