<svg width="401" height="400" viewBox="0 0 401 400" fill="none" xmlns="http://www.w3.org/2000/svg">
<path d="M199.993 198L186 37.6145C190.594 37.2124 195.384 37 200 37V198H199.993Z" fill="#69BD83"/>
<path d="M200 197.992L158 41.8887C167.351 39.3911 176.213 37.8376 185.855 37L200 198V197.992Z" fill="#FFF464"/>
<path d="M200 200V0C310.456 0 400 89.5444 400 200C400 310.456 310.456 400 200 400C89.5444 400 0 310.465 0 200C0 107.214 58.6157 30.825 148.235 6.81336L200 200Z" fill="#ED6D46"/>
<path d="M155.097 270.368C164.953 270.368 171.737 277.472 171.737 286.304C171.737 291.424 168.729 296.096 166.489 299.424L155.481 316H145.753L155.289 301.92C154.905 301.92 154.521 301.984 154.073 301.984C145.049 301.984 138.457 295.136 138.457 286.304C138.457 277.472 145.241 270.368 155.097 270.368ZM155.097 293.792C159.321 293.792 162.585 290.784 162.585 286.304C162.585 281.824 159.321 278.816 155.097 278.816C151.001 278.816 147.609 281.824 147.609 286.304C147.609 290.784 151.001 293.792 155.097 293.792ZM195.185 285.216C204.209 285.216 210.801 292.064 210.801 300.896C210.801 309.728 204.017 316.832 194.161 316.832C184.305 316.832 177.521 309.728 177.521 300.896C177.521 295.776 180.529 291.104 182.769 287.776L193.777 271.2H203.505L193.969 285.28C194.353 285.28 194.737 285.216 195.185 285.216ZM194.161 308.384C198.257 308.384 201.649 305.376 201.649 300.896C201.649 296.416 198.257 293.408 194.161 293.408C189.937 293.408 186.673 296.416 186.673 300.896C186.673 305.376 189.937 308.384 194.161 308.384ZM227.308 290.336C221.932 290.336 217.324 286.048 217.324 280.352C217.324 274.656 221.932 270.368 227.308 270.368C232.684 270.368 237.292 274.656 237.292 280.352C237.292 286.048 232.684 290.336 227.308 290.336ZM227.948 316H221.292L249.068 271.2H255.724L227.948 316ZM227.308 284.896C229.548 284.896 231.532 283.168 231.532 280.352C231.532 277.536 229.548 275.808 227.308 275.808C225.068 275.808 223.084 277.536 223.084 280.352C223.084 283.168 225.068 284.896 227.308 284.896ZM249.708 316.832C244.332 316.832 239.724 312.544 239.724 306.848C239.724 301.152 244.332 296.864 249.708 296.864C255.084 296.864 259.692 301.152 259.692 306.848C259.692 312.544 255.084 316.832 249.708 316.832ZM249.708 311.392C251.948 311.392 253.932 309.664 253.932 306.848C253.932 304.032 251.948 302.304 249.708 302.304C247.468 302.304 245.484 304.032 245.484 306.848C245.484 309.664 247.468 311.392 249.708 311.392Z" fill="white"/>
</svg>
