<?xml version="1.0" encoding="UTF-8"?>
<svg id="_レイヤー_1" data-name="レイヤー_1" xmlns="http://www.w3.org/2000/svg" version="1.1" viewBox="0 0 564 40">
  <!-- Generator: Adobe Illustrator 30.1.0, SVG Export Plug-In . SVG Version: 2.1.1 Build 136)  -->
  <polygon points="564 0 536 0 28 0 0 0 10 20 0 40 28 40 536 40 564 40 554 20 564 0" fill="#69bd83"/>
  <path d="M54.1,24.2l1.2,1.3c.2.2.3.4.3.7,0,.5-.4.9-.9.9s-.5-.1-.7-.4l-1.2-1.3c-.8.5-1.7.8-2.7.8-2.9,0-5.3-2.2-5.3-6.3s2.4-6.3,5.3-6.3,5.3,2.2,5.3,6.3-.5,3.3-1.3,4.4ZM51.6,21.4l1.2,1.3c.4-.8.6-1.8.6-3,0-2.8-1.2-4.6-3.3-4.6s-3.3,1.8-3.3,4.6,1.2,4.7,3.3,4.7,1.1-.1,1.6-.4l-1.4-1.5c-.2-.2-.2-.4-.2-.6,0-.5.4-.9,1-.9s.4.1.7.4ZM60,24.2h4.5c.6,0,.8.4.8.8s-.3.8-.8.8h-5.9c-.6,0-.9-.4-.9-1s.2-.8.5-1.1c1.3-1.1,2.4-2.1,3.6-3.6,1-1.2,1.4-2,1.4-2.9s-.6-1.8-1.6-1.8-1.4.3-2.1,1c-.2.2-.4.3-.6.3-.5,0-.9-.4-.9-.9s0-.4.3-.7c.8-.8,2.1-1.4,3.3-1.4,2.3,0,3.6,1.4,3.6,3.4s-.5,2.5-2,4c-1.3,1.4-2.1,2.1-3.1,3ZM69.1,23.6c.7,0,1.2.5,1.2,1.2s-.5,1.2-1.2,1.2-1.2-.5-1.2-1.2.5-1.2,1.2-1.2ZM75.1,25.1v-3.1c-.3.9-.8,1.7-1.3,2.3-.2.3-.5.4-.7.4-.4,0-.7-.3-.7-.7s0-.4.2-.5c.9-1.1,1.6-2.6,2.2-4.1h-1.6c-.4,0-.6-.4-.6-.8s.2-.8.6-.8h2v-4.8c0-.4.4-.6.8-.6s.8.2.8.6v4.8h1.5c.4,0,.6.4.6.8s-.2.8-.6.8h-1.5v.7c.8.5,1.6,1.2,2,1.5.2.2.3.4.3.6,0,.4-.3.7-.7.7s-.4,0-.6-.3c-.3-.3-.6-.6-.9-.8v5c0,.5-.4.7-.8.7s-.8-.2-.8-.7v-1.6ZM85.5,21l1.1-.3c0,0,.1,0,.2,0,.4,0,.7.4.7.8s-.2.6-.6.7l-1.5.3v4c0,.5-.4.7-.9.7s-.9-.2-.9-.7v-3.6l-3.7.8c0,0-.1,0-.2,0-.4,0-.7-.4-.7-.9s.2-.6.5-.7l4.1-.9v-8.2c0-.5.4-.7.9-.7s.9.2.9.7v7.8ZM77.6,14.8c0-.3.3-.4.6-.4s.7.2.7.6,0,.1,0,.2c-.1.5-.4,1.2-.6,1.7-.1.2-.4.4-.6.4-.4,0-.7-.2-.7-.6s0-.2,0-.3c.2-.4.4-1,.5-1.6ZM74.4,14.9c.3.6.5,1.1.5,1.5,0,0,0,0,0,.1,0,.4-.4.7-.7.7s-.6-.2-.7-.5c0-.4-.3-1-.4-1.4,0,0,0-.2,0-.3,0-.4.3-.6.7-.6s.5.1.6.4ZM81.6,14.7c.4.3.9.7,1.3,1.1.2.2.3.4.3.6,0,.4-.4.8-.8.8s-.4,0-.6-.3c-.4-.4-.8-.8-1.2-1.1-.2-.2-.3-.4-.3-.6,0-.4.4-.8.8-.8s.3,0,.5.2ZM81,18c.5.3.9.7,1.4,1.2.2.2.3.4.3.6,0,.4-.4.8-.8.8s-.4,0-.6-.3c-.4-.4-.9-.8-1.2-1.1-.2-.2-.3-.4-.3-.6,0-.4.4-.8.9-.8s.3,0,.5.2ZM98.3,20.7h-1.2c-1.4,0-2-.6-2-1.7v-4c0-1.2.6-1.7,2-1.7h4.1c1.4,0,2,.6,2,1.7v4c0,1.2-.6,1.7-2,1.7h-1.2v1.5h2.5c.4,0,.6.4.6.8s-.2.8-.6.8h-2.5v1.7h3.5c.4,0,.6.4.6.8s-.2.8-.6.8h-9.4c-.4,0-.6-.4-.6-.8s.2-.8.6-.8h4.3v-1.7h-2.5c-.4,0-.6-.4-.6-.8s.2-.8.6-.8h2.5v-1.5ZM97.3,19.2h1v-1.5h-1.6v1.1c0,.4.2.4.5.4ZM96.8,16.3h1.6v-1.5h-1c-.4,0-.5,0-.5.4v1.1ZM99.9,14.8v1.5h1.6v-1.1c0-.3,0-.4-.5-.4h-1.1ZM101.6,17.7h-1.6v1.5h1.1c.4,0,.5,0,.5-.4v-1.1ZM91.1,23v-3.6h-1c-.4,0-.6-.4-.6-.8s.2-.8.6-.8h1v-2.7h-1.2c-.4,0-.6-.4-.6-.8s.2-.8.6-.8h4.1c.4,0,.6.4.6.8s-.2.8-.6.8h-1.2v2.7h.9c.4,0,.6.4.6.8s-.2.8-.6.8h-.9v3c.3-.1.6-.2.8-.3.1,0,.2,0,.4,0,.4,0,.7.4.7.8s-.1.5-.4.7c-1.3.6-2.9,1.1-4.1,1.4,0,0-.2,0-.2,0-.5,0-.8-.4-.8-.8s.2-.7.6-.8c.4,0,.9-.2,1.4-.4ZM109.4,24.9c-1.6,0-3-1.3-3-3.8,0-3.6,3-6.6,7.4-6.6s6.2,2.4,6.2,5.6-1.7,5-4.5,5.9c-.1,0-.3,0-.4,0-.5,0-.9-.4-.9-.9s.2-.7.7-.9c2.3-.8,3.2-2.2,3.2-4.2s-1.4-3.8-3.9-4c-.2,2.7-.8,5.1-1.8,6.8-.9,1.6-1.8,2-3.1,2ZM112.4,16.2c-2.4.5-4.1,2.5-4.1,4.9s.6,2,1.2,2,.9-.3,1.4-1.1c.8-1.4,1.4-3.5,1.6-5.8ZM132.8,12.3h3.8c.4,0,.6.3.6.7s-.3.6-.6.6h-3.3c-.5,0-.7.2-.7.7v10.1c0,.4-.3.6-.7.6s-.7-.2-.7-.6v-10.5c0-1.1.6-1.6,1.6-1.6ZM145.6,15.2v-2.1c0-.5.4-.7.9-.7s.9.2.9.7v2.1h5.6c.5,0,.7.4.7.8s-.2.8-.7.8h-6.1c0,.6-.1,1.2-.2,1.8h2.9c1.5,0,2.2.5,2.2,1.7s-.2,2.9-.6,4.3c-.4,1.7-1.3,2.3-2.8,2.3s-1.1,0-1.7-.2c-.5-.1-.7-.5-.7-.8s.3-.9.8-.9.1,0,.2,0c.5.1.8.2,1.2.2.6,0,1-.3,1.2-1,.3-1.2.5-2.8.5-3.7s-.1-.4-.5-.4h-3.2c-.9,3.1-2.6,5.4-5.2,6.9-.2.1-.4.2-.5.2-.5,0-.9-.4-.9-.9s.1-.6.5-.8c.9-.6,1.8-1.2,2.5-2.1,1.6-1.8,2.2-4.3,2.3-6.7h-4.9c-.4,0-.7-.4-.7-.8s.2-.8.7-.8h5.5ZM158,25.1v-3.5c-.3.8-.6,1.5-1.1,2.2-.2.3-.4.4-.7.4-.4,0-.7-.3-.7-.7s0-.3.1-.4c.9-1.3,1.6-3,2.1-4.9h-1.5c-.4,0-.6-.4-.6-.8s.2-.8.6-.8h1.6v-1.4c-.4,0-.8.1-1.1.2,0,0,0,0-.1,0-.5,0-.7-.4-.7-.8s.2-.7.6-.7c1.1-.2,2.5-.6,3.6-1.1.1,0,.2,0,.4,0,.5,0,.8.4.8.8s-.1.5-.5.7c-.4.2-.8.3-1.2.5v1.9h1.3c.4,0,.6.4.6.8s-.2.8-.6.8h-1.3v1.2c.6.4,1.2,1,1.7,1.6.1.2.2.4.2.5,0,.4-.4.7-.7.7s-.4,0-.6-.3-.4-.4-.6-.7v5.6c0,.4-.4.7-.8.7s-.8-.2-.8-.7v-1.7ZM167.4,18.3h-3.4c-1.4,0-1.9-.5-1.9-1.6v-2c0-1.1.5-1.6,1.9-1.6h3.4c1.4,0,1.9.5,1.9,1.6v2c0,1.3-.8,1.6-1.9,1.6ZM164.3,16.9h2.9c.4,0,.5,0,.5-.4v-1.4c0-.3-.1-.4-.5-.4h-2.9c-.4,0-.5,0-.5.4v1.4c0,.3.1.4.5.4ZM164.8,25.3v-1.5h-2.1c-.4,0-.6-.4-.6-.7s.2-.7.6-.7h2.1v-1.3h-2.6c-.4,0-.6-.4-.6-.8s.2-.8.6-.8h7.2c.4,0,.6.4.6.8s-.2.8-.6.8h-2.9v1.3h2.1c.4,0,.7.4.7.7s-.2.7-.7.7h-2.1v1.5h3.4c.4,0,.6.4.6.8s-.2.8-.6.8h-8.5c-.4,0-.6-.4-.6-.8s.2-.8.6-.8h3.4ZM176,24.5v-3.7h-1.8c-.4,0-.6-.4-.6-.8s.2-.8.6-.8h5c.4,0,.7.4.7.8s-.2.8-.7.8h-1.5v3.4c.8-.2,1.5-.3,2.1-.5,0,0,.2,0,.2,0,.5,0,.8.4.8.8s-.2.6-.6.7c-1.9.5-4.4,1.1-6.4,1.3h-.1c-.5,0-.8-.4-.8-.8s.2-.7.7-.8c.7,0,1.5-.2,2.3-.3ZM173.4,15.3h7c0-.7,0-1.5,0-2.2s.4-.8.9-.8.9.2.9.7c0,.8,0,1.6,0,2.3h4.1c.4,0,.7.4.7.8s-.2.8-.7.8h-4c.2,2.2.5,3.9,1,5.3.8,2.5,1.5,3.1,1.9,3.1s.5-.2.6-1.2c0-.5.4-.7.8-.7s.8.3.8.8h0c-.2,2-.9,2.9-2.2,2.9s-2.6-1.1-3.6-4.2c-.5-1.5-.9-3.5-1.1-5.9h-7.1c-.4,0-.6-.4-.6-.8s.2-.8.6-.8ZM184,12.8c.4.3.7.5,1,.8.2.2.3.4.3.6,0,.4-.4.8-.8.8s-.4,0-.6-.2c-.3-.3-.6-.5-.9-.8-.2-.2-.3-.4-.3-.6,0-.4.4-.7.8-.7s.3,0,.5.2ZM193.6,27.6h-3.8c-.4,0-.6-.3-.6-.7s.3-.6.6-.6h3.3c.5,0,.7-.2.7-.7v-10.1c0-.4.3-.6.7-.6s.7.2.7.6v10.5c0,1.1-.6,1.6-1.6,1.6ZM211.2,19.4c-.4-1.5-.6-3.4-.6-5.6s.5-.9.9-.9.9.3.9.9c0,1.8.1,3.4.4,4.7,1-.5,2.1-.9,3.2-1.2,0,0,.2,0,.3,0,.5,0,.8.4.8.9s-.2.7-.6.8c-1.4.4-3,1.1-4.2,1.9-1.4.9-1.9,1.8-1.9,2.6s.7,1.5,3.2,1.5,2.4-.1,3.3-.3c0,0,.1,0,.2,0,.6,0,.9.4.9.9s-.2.8-.7.9c-1.1.2-2.3.3-3.7.3-3.4,0-5-1-5-3.2s.6-2.6,2.6-4ZM232.6,12.3h3.8c.4,0,.6.3.6.7s-.3.6-.6.6h-3.3c-.5,0-.7.2-.7.7v10.1c0,.4-.3.6-.7.6s-.7-.2-.7-.6v-10.5c0-1.1.6-1.6,1.6-1.6ZM242.1,14.7h6.4c0-.1,0-.1,0-.1,1.2,0,1.8.5,1.8,1.4s0,.5-.2.9c-.5,1.3-1.3,2.6-2.2,3.8,1.5,1,3.2,2.5,4.3,3.8.2.2.3.5.3.7,0,.5-.5,1-1,1s-.5-.1-.8-.4c-1-1.2-2.5-2.7-3.9-3.8-1.6,1.7-3.4,3.1-5.2,4-.2,0-.3.1-.5.1-.5,0-.9-.5-.9-.9s.2-.6.5-.8c3.3-1.7,6.1-4.4,7.4-7.5,0,0,0-.2,0-.3,0-.1-.1-.2-.4-.2h-5.7c-.5.1-.8-.3-.8-.8s.3-.9.8-.9ZM261.4,16.4l-.5-2.6s0-.1,0-.2c0-.5.5-.8.9-.8s.8.2.9.7l.5,2.6,3.6-.6s0,0,.1,0c.5,0,.8.5.8.9s-.2.7-.7.8l-3.6.6.4,2.3,4.7-.8s.1,0,.2,0c.5,0,.8.4.8.9s-.2.7-.7.8l-4.7.8.8,4.3s0,.1,0,.2c0,.5-.5.8-.9.8s-.8-.2-.9-.7l-.8-4.3-4.7.8s0,0-.1,0c-.5,0-.8-.5-.8-.9s.2-.7.7-.8l4.7-.8-.4-2.3-3.6.6s0,0-.1,0c-.5,0-.8-.5-.8-.9s.2-.7.7-.8l3.6-.5ZM275.8,16.8v-1.7c0-.5.5-.8,1-.8s.9.3.9.8v1.8c0,4.4-1.1,7-3.3,8.9-.2.2-.5.3-.7.3-.5,0-.9-.4-.9-.9s.1-.5.4-.8c1.9-1.7,2.7-3.7,2.7-7.6ZM281.8,14.6v8.8c0,.2,0,.4.2.4s.2,0,.3-.1c1-.5,2.2-1.6,3-2.7.2-.3.5-.4.8-.4.5,0,.9.4.9.9s0,.4-.2.6c-1,1.4-2.4,2.7-3.9,3.5-.5.3-1,.4-1.4.4-1,0-1.7-.7-1.7-1.9v-9.4c0-.5.5-.8.9-.8s.9.3.9.8ZM293.4,27.6h-3.8c-.4,0-.6-.3-.6-.7s.3-.6.6-.6h3.3c.5,0,.7-.2.7-.7v-10.1c0-.4.3-.6.7-.6s.7.2.7.6v10.5c0,1.1-.6,1.6-1.6,1.6ZM310.8,18.6c-.6,2.6-1.6,5.2-2.7,7.2-.2.4-.5.5-.9.5-.5,0-.9-.3-.9-.8s0-.3.1-.5c1-1.8,1.8-4,2.4-6.3-.7,0-1.3.2-1.9.3,0,0-.1,0-.2,0-.5,0-.8-.4-.8-.8s.2-.7.7-.8c.8-.2,1.7-.3,2.5-.4.2-1,.4-2,.5-2.9,0-.5.5-.8.9-.8s.9.3.9.8h0c0,1-.2,1.9-.4,2.8.3,0,.6,0,.9,0,2,0,2.8.9,2.8,3.4s-.2,2.8-.4,3.8c-.5,1.8-1.2,2.5-2.8,2.5s-.8,0-1.1,0c-.5,0-.8-.5-.8-.9s.3-.9.8-.9,0,0,.1,0c.3,0,.5,0,.9,0,.6,0,.8-.2,1.1-1.1.3-.9.4-2.2.4-3.5s-.3-1.8-1-1.8-.8,0-1.2,0ZM317.1,15.9c1,1,2,2.4,2.5,3.5,0,.2.1.4.1.5,0,.6-.4.9-.9.9s-.7-.2-.9-.6c-.6-1.2-1.4-2.4-2.3-3.3-.2-.2-.3-.4-.3-.6,0-.4.4-.8.9-.8s.5,0,.7.3ZM318.5,12.9c-.1-.1-.2-.3-.2-.4,0-.3.3-.6.7-.6s.3,0,.5.2c.4.4.9.8,1.2,1.3.1.2.2.3.2.5,0,.4-.3.6-.6.6s-.4,0-.6-.3c-.4-.5-.8-.9-1.2-1.3ZM316.9,14.2c-.1-.1-.2-.3-.2-.4,0-.3.3-.6.7-.6s.3,0,.4.2c.4.4.9.9,1.2,1.4.1.1.1.3.1.4,0,.4-.3.6-.6.6s-.4,0-.5-.3c-.4-.5-.8-1-1.2-1.4ZM332,23.8v-1.2c-2.4,1.8-5.2,3.2-8.4,4.1,0,0-.2,0-.3,0-.5,0-.8-.4-.8-.8s.2-.6.6-.7c2.8-.8,4.9-1.7,7-3-2.1.4-3.6.5-5.7.7-.2,0-.8,0-1,0-.5,0-.8-.4-.8-.8s.2-.7.7-.8c.7,0,1.3,0,2-.1v-5.4c0-1.2.5-1.8,2-1.8h1.1c.2-.4.3-.8.4-1.2.1-.4.5-.6.8-.6s.8.3.8.8,0,.2,0,.3c0,.3-.2.5-.3.7h1.4c1.5,0,2,.6,2,1.8v3.4c.5-.5,1-1.1,1.4-1.7.2-.3.5-.4.7-.4.4,0,.8.3.8.8s0,.4-.2.6c-.8,1-1.7,2-2.7,2.8v4c0,1.4-.7,2-2.1,2s-.7,0-1,0c-.4,0-.7-.4-.7-.8s.3-.8.8-.8,0,0,.2,0c.3,0,.5,0,.7,0,.3,0,.5-.1.5-.5v-1.4ZM332,20.5v-.5h-5v1.1c1.2,0,2.3-.2,3.5-.4.5,0,1-.1,1.5-.2ZM332,18.7v-1h-5v1h5ZM332,16.5v-.5c0-.4,0-.5-.6-.5h-3.8c-.5,0-.6,0-.6.5v.5h5ZM341,14.5c0-.5.5-.7.9-.7s.9.3.9.8,0,.1,0,.2c-.5,2.6-.7,4.8-.7,7.1s.2,2.8.3,3.8c0,0,0,0,0,.1,0,.5-.5.8-.9.8s-.8-.2-.9-.8c-.1-1-.3-2.6-.3-4,0-2.4.2-4.5.8-7.4ZM350.7,15.2h.1c.6,0,.9.4.9.8s-.3.8-.8.9c-1.4.2-3,.3-4.5.4-.6,0-.9-.4-.9-.9s.3-.8.9-.9c1.5,0,3-.2,4.4-.4ZM346.6,22.3c.1,1,.6,1.4,2.6,1.4s1.6,0,2.4-.2c0,0,.1,0,.2,0,.5,0,.8.4.8.9s-.2.8-.7.8c-.9.2-1.9.3-2.8.3-3,0-4.2-.9-4.4-2.8h0c0-.7.5-1,.9-1s.8.2.8.7ZM356.6,17.6c2.9-1.2,5.8-1.9,8.1-1.9s4.8,1.5,4.8,4-2.3,5.2-6.7,5.8c0,0-.1,0-.2,0-.6,0-.9-.4-.9-.9s.3-.8.8-.9c3.7-.6,5.1-1.9,5.1-4s-.9-2.3-2.9-2.3-4.5.6-7.4,1.9c-.2,0-.3,0-.5,0-.5,0-.9-.4-.9-.9s.2-.7.7-.9ZM373.3,15.3c0-.5.5-.8.9-.8s.9.3.9.8,0,1,0,1.5c0,5.6,1.1,7.1,1.8,7.1s.7-.3,1-1.5c.1-.5.5-.7.8-.7s.9.3.9.9,0,.2,0,.3c-.6,2.1-1.6,2.9-2.7,2.9-2.3,0-3.7-2.9-3.7-8.9s0-1.2,0-1.6ZM383.2,16.4c1.3,1.2,2.6,3.2,3.1,4.9,0,.1,0,.2,0,.3,0,.5-.4.8-.9.8s-.7-.2-.8-.6c-.6-1.5-1.6-3.2-2.8-4.4-.2-.2-.3-.4-.3-.6,0-.4.4-.8.9-.8s.5,0,.7.3ZM392.2,17.8c-.7,0-1.3.2-2,.2s-.8-.4-.8-.8.3-.8.8-.9c.6,0,1.4-.1,2.3-.3.1-.9.2-1.6.3-2.5,0-.5.5-.7.9-.7s.9.3.9.8h0c0,.9-.2,1.4-.3,2,.4,0,.9-.2,1.4-.3,0,0,.2,0,.2,0,.5,0,.8.4.8.8s-.2.7-.6.8c-.7.2-1.4.4-2.1.5-.6,3.1-1.3,6.1-2.2,8.4-.2.5-.6.7-1,.7s-.9-.3-.9-.8,0-.3,0-.4c.9-2.2,1.6-4.7,2.1-7.5ZM395.4,23.3c0-.5.4-.8.9-.8s.7.2.8.7c.1,1,.7,1.3,2.4,1.3s1.5,0,2.1-.2c0,0,.1,0,.2,0,.5,0,.8.5.8.9s-.2.8-.7.8c-.7.1-1.5.2-2.4.2-2.2,0-3.2-.6-3.7-1.4-.3-.4-.4-1-.4-1.5ZM397,18.1c1.2-.3,2.8-.4,4.1-.4s.9.4.9.9-.3.8-.8.8c-1.3,0-2.8.2-3.9.4,0,0-.1,0-.2,0-.5,0-.8-.4-.8-.8s.2-.7.7-.8ZM410.9,19.4c-.4-1.5-.6-3.4-.6-5.6s.5-.9.9-.9.9.3.9.9c0,1.8.1,3.4.4,4.7,1-.5,2.1-.9,3.2-1.2,0,0,.2,0,.3,0,.5,0,.8.4.8.9s-.2.7-.6.8c-1.4.4-3,1.1-4.2,1.9-1.4.9-1.9,1.8-1.9,2.6s.7,1.5,3.2,1.5,2.4-.1,3.3-.3c0,0,.1,0,.2,0,.6,0,.9.4.9.9s-.2.8-.7.9c-1.1.2-2.3.3-3.7.3-3.4,0-5-1-5-3.2s.6-2.6,2.6-4ZM430.2,15.6h-4.6c-.5,0-.7.2-.7.6v1c0,2.1-.5,3.8-1.3,5.2-.2.4-.5.5-.8.5-.4,0-.8-.3-.8-.8s0-.3.1-.5c.8-1.3,1.1-2.7,1.1-4.6v-1.1c0-1.2.5-1.7,2-1.7h4.8c0-.4,0-.8,0-1.2,0-.5.4-.7.8-.7s.8.2.8.7c0,.4,0,.9,0,1.3h1.6,0c-.2-.3-.5-.4-.7-.6-.2-.1-.3-.3-.3-.5,0-.3.3-.7.7-.7s.2,0,.4,0c.3.2.7.4.9.7.2.1.2.3.2.5s0,.4-.2.5h1.6c.4,0,.6.3.6.7s-.2.7-.6.7h-4c.2,1,.5,2,.9,2.9.4-.5.7-1.1.9-1.7.1-.3.4-.5.7-.5s.8.3.8.7,0,.2,0,.4c-.4.9-.9,1.8-1.5,2.5.5.7.9,1,1.2,1s.4-.2.6-.9c0-.4.4-.6.7-.6s.8.3.8.7h0c-.2,1.7-.9,2.4-2,2.4s-1.6-.5-2.4-1.4c-.5.5-1.1.9-1.6,1.3-.2.1-.4.2-.5.2-.4,0-.7-.3-.7-.7s.1-.4.4-.6c.6-.4,1.2-.9,1.7-1.4,0,0,0-.2-.1-.3-.6-1.2-1-2.4-1.3-4ZM428.5,21.4h-1.5c-1.1,0-1.5-.3-1.5-1.2v-.8c0-.9.4-1.2,1.5-1.2h1.5c1.1,0,1.5.3,1.5,1.2v.8c0,1-.5,1.2-1.5,1.2ZM427.3,20.3h1c.3,0,.3,0,.3-.3v-.6c0-.2,0-.3-.3-.3h-1c-.3,0-.3,0-.3.3v.6c0,.2.1.3.3.3ZM429.4,17.5h-3.4c-.3,0-.5-.3-.5-.6s.2-.6.5-.6h3.4c.3,0,.5.3.5.6s-.2.6-.5.6ZM425.8,25.6v-2c0-.4.4-.7.8-.7s.8.2.8.7v1.8c0,.3.1.4,1.9.4s2.3-.2,2.3-.9c0-.4.4-.6.8-.6s.8.3.8.7h0c-.2,1.6-.8,2.2-4,2.2s-3.6-.3-3.6-1.6ZM423.5,23.8c.1-.3.4-.4.7-.4.4,0,.8.3.8.7s0,.2,0,.3c-.3.6-.6,1.3-1,1.8-.2.2-.4.4-.7.4-.4,0-.8-.3-.8-.8s0-.3.2-.5c.4-.5.6-.9.9-1.5ZM434.9,23.4c.4.4.9.9,1.2,1.4.1.2.2.3.2.5,0,.5-.4.8-.9.8s-.5,0-.7-.4c-.4-.5-.7-.9-1.1-1.4-.2-.2-.2-.4-.2-.5,0-.4.4-.7.8-.7s.4,0,.6.2ZM429.5,22.6c.3.2.7.4,1,.7.2.2.3.4.3.6,0,.4-.3.8-.8.8s-.3,0-.5-.2c-.3-.2-.6-.5-.9-.7-.2-.2-.3-.4-.3-.5,0-.4.4-.7.8-.7s.3,0,.4.1ZM442.1,22c0-2.5.2-5.6.3-7.9,0-.5.5-.8.9-.8s.9.3.9.8,0,.5,0,.7c-.2,2.4-.3,4.9-.3,7.2s.7,2.7,1.8,2.7,2.9-.6,4.4-2.4c.2-.3.5-.4.8-.4.5,0,.9.4.9.9s0,.4-.2.6c-1.8,2.3-3.8,3.1-5.8,3.1s-3.6-1.2-3.6-4.5ZM447.7,16.2c-.1-.1-.2-.3-.2-.4,0-.3.3-.6.7-.6s.3,0,.4.2c.4.4.9.9,1.2,1.4.1.1.1.3.1.4,0,.4-.3.6-.6.6s-.4,0-.5-.3c-.4-.5-.8-1-1.2-1.4ZM449.3,14.9c-.1-.1-.2-.3-.2-.4,0-.3.3-.6.7-.6s.3,0,.5.2c.4.4.9.8,1.2,1.3.1.2.2.3.2.5,0,.4-.3.6-.6.6s-.4,0-.6-.3c-.4-.5-.8-.9-1.2-1.3ZM463.5,13.3v1.6h1c.9,0,1.8,0,2.6,0,.5,0,.8.4.8.9s-.3.8-.8.8c-.6,0-1.3,0-2,0s-1,0-1.6,0c0,.6,0,1.1,0,1.7,1.1,0,2.1-.1,3-.3h.1c.6,0,.8.4.8.8s-.3.8-.8.8c-1,.1-2,.2-3.1.3,0,.7,0,1.4.2,2.1,1.4.4,2.7.9,4,1.7.4.2.5.6.5.9,0,.5-.4.9-.9.9s-.4,0-.5-.2c-1-.6-2-1.2-3-1.5h0c0,1.8-1.5,2.7-3.4,2.7s-3.3-1-3.3-2.5,1.2-2.5,3.4-2.5.8,0,1.3,0c0-.6-.1-1.2-.1-1.7h-.9c-1,0-1.9,0-2.5,0-.5,0-.8-.5-.8-.8s.3-.8.8-.8h.1c.6,0,1.4.1,2.3.1h.9c0-.6,0-1.1,0-1.7-1.4,0-2.7,0-3.8.1-.5,0-.8-.4-.8-.8s.3-.8.8-.8c1.1,0,2.4-.1,3.8-.1v-1.6c0-.5.4-.7.9-.7s.9.2.9.7ZM460.6,25c1.1,0,1.6-.5,1.6-1.2v-.4c-.5,0-1-.1-1.4-.1-1.2,0-1.6.4-1.6.9s.4.8,1.5.8ZM479.9,23.3h0c-.3.2-.7.4-1.2.4-1.6,0-2.7-1.1-2.7-2.9s1-2.7,2.5-2.7.7,0,1,.1v-1.3c-1.2,0-3.9.2-5.6.3-.2,0-.5,0-.7,0-.5,0-.8-.5-.8-.9s.3-.8.8-.9c1.9-.1,4.1-.2,6.3-.3,0-.6,0-1.2,0-2s.4-.8.9-.8.9.3.9.8v1.9c1.7,0,3.3,0,4.7,0s.8.4.8.9-.3.8-.8.8c-1.4,0-3.1,0-4.7,0,0,.9,0,1.8.1,2.8.4.6.5,1.3.5,2.1,0,2.5-1.3,4.3-3.6,5.3-.2,0-.3,0-.4,0-.5,0-.9-.4-.9-.9s.2-.6.6-.8c1.3-.6,2.2-1.5,2.5-2.2ZM478.5,19.7c-.5,0-.9.4-.9,1.1s.6,1.3,1.1,1.3.9-.4.9-1.1-.4-1.3-1.1-1.3ZM493.5,18.3c-.6,2.6-1.6,5.2-2.7,7.2-.2.4-.5.5-.9.5-.5,0-.9-.3-.9-.8s0-.3.1-.5c1-1.8,1.8-4,2.4-6.3-.7,0-1.3.2-1.9.3,0,0-.1,0-.2,0-.5,0-.8-.4-.8-.8s.2-.7.7-.8c.8-.2,1.7-.3,2.5-.4.2-1,.4-2,.5-2.9,0-.5.5-.8.9-.8s.9.3.9.8h0c0,1-.2,1.9-.4,2.8.3,0,.6,0,.9,0,2,0,2.8.9,2.8,3.4s-.2,2.8-.4,3.8c-.5,1.8-1.2,2.5-2.8,2.5s-.8,0-1.1,0c-.5,0-.8-.5-.8-.9s.3-.9.8-.9,0,0,.1,0c.3,0,.5,0,.9,0,.6,0,.8-.2,1.1-1.1.3-.9.4-2.2.4-3.5s-.3-1.8-1-1.8-.8,0-1.2,0ZM500,15.5c1,1,2,2.4,2.5,3.5,0,.2.1.4.1.5,0,.6-.4.9-.9.9s-.7-.2-.9-.6c-.6-1.2-1.4-2.4-2.3-3.3-.2-.2-.3-.4-.3-.6,0-.4.4-.8.9-.8s.5,0,.7.3ZM512.6,21.7v.3c0,.5-.3.8-.8.8s-.8-.3-.8-.8v-.4c0-1.3.3-2,1.6-3,1-.8,1.3-1.3,1.3-2.1s-.7-1.6-1.9-1.6-1.8.4-2.4,1.4c-.1.2-.4.3-.6.3-.5,0-.9-.4-.9-.8s0-.4.2-.6c.8-1.2,2.2-1.9,3.8-1.9,2.2,0,3.8,1.2,3.8,3.2s-.5,2.2-1.8,3.1c-1.2.8-1.4,1.3-1.4,2.1ZM511.9,23.8c.7,0,1.2.5,1.2,1.2s-.5,1.2-1.2,1.2-1.2-.5-1.2-1.2.5-1.2,1.2-1.2Z" fill="#282828"/>
</svg>