<svg width="402" height="400" viewBox="0 0 402 400" fill="none" xmlns="http://www.w3.org/2000/svg">
<path d="M200 205L177 42.5939C184.232 41.5837 192.7 41 200 41V205Z" fill="#69BD83"/>
<path d="M199.993 204.993L128 59.2351C144.622 50.5017 159.456 45.6723 177.93 43L200 205L199.993 204.993Z" fill="#FFF464"/>
<path d="M200.014 199.995L161.854 396.322C53.4434 375.242 -17.3643 270.262 3.71375 161.832C15.9956 98.6196 51.8557 51.0299 109.232 21.8008L200.023 200.004L200.014 199.995Z" fill="#F4A790"/>
<path d="M200.014 199.995V0C310.46 0 399.991 89.5399 399.991 199.995C399.991 310.451 310.46 399.991 200.014 399.991C186.537 399.991 175.085 398.887 161.854 396.313L200.014 199.986V199.995Z" fill="#ED6D46"/>
<path d="M259.536 210.32C264.896 210.32 268.856 214.36 268.856 219.76C268.856 225.12 264.656 229.52 258.576 229.52C252.816 229.52 249.056 225.52 248.616 221.12H254.336C254.536 222.44 256.136 224.24 258.536 224.24C261.296 224.24 263.136 222.24 263.136 219.76C263.136 217.24 261.296 215.2 258.536 215.2C255.856 215.2 254.736 216.88 254.256 217.84H249.216L251.016 201H266.856V206.28H255.656L255.136 211.56C256.096 210.92 257.576 210.32 259.536 210.32ZM285.523 218.84L280.842 223.48H291.162V229H272.282V224.72L281.402 215.52C284.523 212.4 285.523 211.24 285.523 209.12C285.523 207.12 283.883 205.76 281.602 205.76C279.163 205.76 277.403 207.36 277.403 209.8H271.922C271.922 204.48 276.082 200.48 281.602 200.48C287.483 200.48 291.243 204.16 291.243 208.84C291.243 212.88 288.803 215.56 285.523 218.84ZM299.038 229.52C297.198 229.52 295.838 228.12 295.838 226.32C295.838 224.52 297.198 223.12 299.038 223.12C300.878 223.12 302.238 224.52 302.238 226.32C302.238 228.12 300.878 229.52 299.038 229.52ZM304.535 206.52V201H323.375V205.6L313.415 229H307.295L317.015 206.52H304.535ZM333.437 212.96C330.077 212.96 327.197 210.28 327.197 206.72C327.197 203.16 330.077 200.48 333.437 200.48C336.797 200.48 339.677 203.16 339.677 206.72C339.677 210.28 336.797 212.96 333.437 212.96ZM333.837 229H329.677L347.037 201H351.197L333.837 229ZM333.437 209.56C334.837 209.56 336.077 208.48 336.077 206.72C336.077 204.96 334.837 203.88 333.437 203.88C332.037 203.88 330.797 204.96 330.797 206.72C330.797 208.48 332.037 209.56 333.437 209.56ZM347.437 229.52C344.077 229.52 341.197 226.84 341.197 223.28C341.197 219.72 344.077 217.04 347.437 217.04C350.797 217.04 353.677 219.72 353.677 223.28C353.677 226.84 350.797 229.52 347.437 229.52ZM347.437 226.12C348.837 226.12 350.077 225.04 350.077 223.28C350.077 221.52 348.837 220.44 347.437 220.44C346.037 220.44 344.797 221.52 344.797 223.28C344.797 225.04 346.037 226.12 347.437 226.12Z" fill="white"/>
<path d="M62.0319 214.36C64.3519 215.44 66.3519 217.56 66.3519 221.2C66.3519 225.6 62.5119 229.52 56.3919 229.52C50.1119 229.52 46.5119 225.52 46.1519 220.96H51.8719C52.0319 222.4 53.5519 224.24 56.3519 224.24C59.1119 224.24 60.6319 222.72 60.6319 220.64C60.6319 218.52 59.1119 217.08 56.1519 217.08H53.9119V212.36H55.9519C58.5919 212.36 59.9919 210.96 59.9919 209.08C59.9919 207.2 58.5519 205.76 56.2719 205.76C53.7519 205.76 52.3519 207.28 52.1119 208.8H46.3919C46.7119 204.44 50.5519 200.48 56.1919 200.48C61.9519 200.48 65.7119 204.32 65.7119 208.52C65.7119 211.08 64.2319 213.12 62.0319 214.36ZM80.9003 200.48C87.0603 200.48 91.3003 204.92 91.3003 210.44C91.3003 213.64 89.4203 216.56 88.0203 218.64L81.1403 229H75.0603L81.0203 220.2C80.7803 220.2 80.5403 220.24 80.2603 220.24C74.6203 220.24 70.5003 215.96 70.5003 210.44C70.5003 204.92 74.7403 200.48 80.9003 200.48ZM80.9003 215.12C83.5403 215.12 85.5803 213.24 85.5803 210.44C85.5803 207.64 83.5403 205.76 80.9003 205.76C78.3403 205.76 76.2203 207.64 76.2203 210.44C76.2203 213.24 78.3403 215.12 80.9003 215.12ZM95.6938 229.52C93.8538 229.52 92.4938 228.12 92.4938 226.32C92.4938 224.52 93.8538 223.12 95.6938 223.12C97.5338 223.12 98.8938 224.52 98.8938 226.32C98.8938 228.12 97.5338 229.52 95.6938 229.52ZM118.472 214.36C120.792 215.44 122.792 217.56 122.792 221.2C122.792 225.6 118.952 229.52 112.832 229.52C106.552 229.52 102.952 225.52 102.592 220.96H108.312C108.472 222.4 109.992 224.24 112.792 224.24C115.552 224.24 117.072 222.72 117.072 220.64C117.072 218.52 115.552 217.08 112.592 217.08H110.352V212.36H112.392C115.032 212.36 116.432 210.96 116.432 209.08C116.432 207.2 114.992 205.76 112.712 205.76C110.192 205.76 108.792 207.28 108.552 208.8H102.832C103.152 204.44 106.992 200.48 112.632 200.48C118.392 200.48 122.153 204.32 122.153 208.52C122.153 211.08 120.672 213.12 118.472 214.36ZM133.101 212.96C129.741 212.96 126.861 210.28 126.861 206.72C126.861 203.16 129.741 200.48 133.101 200.48C136.461 200.48 139.341 203.16 139.341 206.72C139.341 210.28 136.461 212.96 133.101 212.96ZM133.501 229H129.341L146.701 201H150.861L133.501 229ZM133.101 209.56C134.501 209.56 135.741 208.48 135.741 206.72C135.741 204.96 134.501 203.88 133.101 203.88C131.701 203.88 130.461 204.96 130.461 206.72C130.461 208.48 131.701 209.56 133.101 209.56ZM147.101 229.52C143.741 229.52 140.861 226.84 140.861 223.28C140.861 219.72 143.741 217.04 147.101 217.04C150.461 217.04 153.341 219.72 153.341 223.28C153.341 226.84 150.461 229.52 147.101 229.52ZM147.101 226.12C148.501 226.12 149.741 225.04 149.741 223.28C149.741 221.52 148.501 220.44 147.101 220.44C145.701 220.44 144.461 221.52 144.461 223.28C144.461 225.04 145.701 226.12 147.101 226.12Z" fill="white"/>
</svg>
