<?xml version="1.0" encoding="UTF-8"?>
<svg id="_レイヤー_1" data-name="レイヤー_1" xmlns="http://www.w3.org/2000/svg" version="1.1" viewBox="0 0 348 64">
  <!-- Generator: Adobe Illustrator 30.1.0, SVG Export Plug-In . SVG Version: 2.1.1 Build 136)  -->
  <polygon points="348 0 320 0 28 0 0 0 10 32 0 64 28 64 320 64 348 64 338 32 348 0" fill="#69bd83"/>
  <path d="M54.4,24.2l1.2,1.3c.2.2.3.4.3.7,0,.5-.4.9-.9.9s-.5-.1-.7-.4l-1.2-1.3c-.8.5-1.7.8-2.7.8-2.9,0-5.3-2.2-5.3-6.3s2.4-6.3,5.3-6.3,5.3,2.2,5.3,6.3-.5,3.3-1.3,4.4ZM51.9,21.4l1.2,1.3c.4-.8.6-1.8.6-3,0-2.8-1.2-4.6-3.3-4.6s-3.3,1.8-3.3,4.6,1.2,4.7,3.3,4.7,1.1-.1,1.6-.4l-1.4-1.5c-.2-.2-.2-.4-.2-.6,0-.5.4-.9,1-.9s.4.1.7.4ZM61.3,25.1v-8.8c-.5.5-1,.9-1.5,1.4-.2.2-.4.3-.7.3-.5,0-.9-.4-.9-.9s0-.5.4-.7c.9-.7,1.6-1.3,2.4-2,.4-.3.7-.5,1.2-.5s1.1.4,1.1,1.1v10.1c0,.6-.4.9-1,.9s-.9-.3-.9-.9ZM69.4,23.6c.7,0,1.2.5,1.2,1.2s-.5,1.2-1.2,1.2-1.2-.5-1.2-1.2.5-1.2,1.2-1.2ZM83.1,12.3h3.8c.4,0,.6.3.6.7s-.3.6-.6.6h-3.3c-.5,0-.7.2-.7.7v10.1c0,.4-.3.6-.7.6s-.7-.2-.7-.6v-10.5c0-1.1.6-1.6,1.6-1.6ZM92.1,25.1v-3.1c-.3.9-.8,1.7-1.3,2.3-.2.3-.5.4-.7.4-.4,0-.7-.3-.7-.7s0-.4.2-.5c.9-1.1,1.6-2.6,2.2-4.1h-1.6c-.4,0-.6-.4-.6-.8s.2-.8.6-.8h2v-4.8c0-.4.4-.6.8-.6s.8.2.8.6v4.8h1.5c.4,0,.6.4.6.8s-.2.8-.6.8h-1.5v.7c.8.5,1.6,1.2,2,1.5.2.2.3.4.3.6,0,.4-.3.7-.7.7s-.4,0-.6-.3c-.3-.3-.6-.6-.9-.8v5c0,.5-.4.7-.8.7s-.8-.2-.8-.7v-1.6ZM102.4,21l1.1-.3c0,0,.1,0,.2,0,.4,0,.7.4.7.8s-.2.6-.6.7l-1.5.3v4c0,.5-.4.7-.9.7s-.9-.2-.9-.7v-3.6l-3.7.8c0,0-.1,0-.2,0-.4,0-.7-.4-.7-.9s.2-.6.5-.7l4.1-.9v-8.2c0-.5.4-.7.9-.7s.9.2.9.7v7.8ZM94.6,14.8c0-.3.3-.4.6-.4s.7.2.7.6,0,.1,0,.2c-.1.5-.4,1.2-.6,1.7-.1.2-.4.4-.6.4-.4,0-.7-.2-.7-.6s0-.2,0-.3c.2-.4.4-1,.5-1.6ZM91.3,14.9c.3.6.5,1.1.5,1.5,0,0,0,0,0,.1,0,.4-.4.7-.7.7s-.6-.2-.7-.5c0-.4-.3-1-.4-1.4,0,0,0-.2,0-.3,0-.4.3-.6.7-.6s.5.1.6.4ZM98.6,14.7c.4.3.9.7,1.3,1.1.2.2.3.4.3.6,0,.4-.4.8-.8.8s-.4,0-.6-.3c-.4-.4-.8-.8-1.2-1.1-.2-.2-.3-.4-.3-.6,0-.4.4-.8.8-.8s.3,0,.5.2ZM97.9,18c.5.3.9.7,1.4,1.2.2.2.3.4.3.6,0,.4-.4.8-.8.8s-.4,0-.6-.3c-.4-.4-.9-.8-1.2-1.1-.2-.2-.3-.4-.3-.6,0-.4.4-.8.9-.8s.3,0,.5.2ZM115.2,20.7h-1.2c-1.4,0-2-.6-2-1.7v-4c0-1.2.6-1.7,2-1.7h4.1c1.4,0,2,.6,2,1.7v4c0,1.2-.6,1.7-2,1.7h-1.2v1.5h2.5c.4,0,.6.4.6.8s-.2.8-.6.8h-2.5v1.7h3.5c.4,0,.6.4.6.8s-.2.8-.6.8h-9.4c-.4,0-.6-.4-.6-.8s.2-.8.6-.8h4.3v-1.7h-2.5c-.4,0-.6-.4-.6-.8s.2-.8.6-.8h2.5v-1.5ZM114.2,19.2h1v-1.5h-1.6v1.1c0,.4.2.4.5.4ZM113.7,16.3h1.6v-1.5h-1c-.4,0-.5,0-.5.4v1.1ZM116.9,14.8v1.5h1.6v-1.1c0-.3,0-.4-.5-.4h-1.1ZM118.5,17.7h-1.6v1.5h1.1c.4,0,.5,0,.5-.4v-1.1ZM108,23v-3.6h-1c-.4,0-.6-.4-.6-.8s.2-.8.6-.8h1v-2.7h-1.2c-.4,0-.6-.4-.6-.8s.2-.8.6-.8h4.1c.4,0,.6.4.6.8s-.2.8-.6.8h-1.2v2.7h.9c.4,0,.6.4.6.8s-.2.8-.6.8h-.9v3c.3-.1.6-.2.8-.3.1,0,.2,0,.4,0,.4,0,.7.4.7.8s-.1.5-.4.7c-1.3.6-2.9,1.1-4.1,1.4,0,0-.2,0-.2,0-.5,0-.8-.4-.8-.8s.2-.7.6-.8c.4,0,.9-.2,1.4-.4ZM126.4,24.9c-1.6,0-3-1.3-3-3.8,0-3.6,3-6.6,7.4-6.6s6.2,2.4,6.2,5.6-1.7,5-4.5,5.9c-.1,0-.3,0-.4,0-.5,0-.9-.4-.9-.9s.2-.7.7-.9c2.3-.8,3.2-2.2,3.2-4.2s-1.4-3.8-3.9-4c-.2,2.7-.8,5.1-1.8,6.8-.9,1.6-1.8,2-3.1,2ZM129.4,16.2c-2.4.5-4.1,2.5-4.1,4.9s.6,2,1.2,2,.9-.3,1.4-1.1c.8-1.4,1.4-3.5,1.6-5.8ZM147.6,13.3v1.6h1c.9,0,1.8,0,2.6,0,.5,0,.8.4.8.9s-.3.8-.8.8c-.6,0-1.3,0-2,0s-1,0-1.6,0c0,.6,0,1.1,0,1.7,1.1,0,2.1-.1,3-.3h.1c.6,0,.8.4.8.8s-.3.8-.8.8c-1,.1-2,.2-3.1.3,0,.7,0,1.4.2,2.1,1.4.4,2.7.9,4,1.7.4.2.5.6.5.9,0,.5-.4.9-.9.9s-.4,0-.5-.2c-1-.6-2-1.2-3-1.5h0c0,1.8-1.5,2.7-3.4,2.7s-3.3-1-3.3-2.5,1.2-2.5,3.4-2.5.8,0,1.3,0c0-.6-.1-1.2-.1-1.7h-.9c-1,0-1.9,0-2.5,0-.5,0-.8-.5-.8-.8s.3-.8.8-.8h.1c.6,0,1.4.1,2.3.1h.9c0-.6,0-1.1,0-1.7-1.4,0-2.7,0-3.8.1-.5,0-.8-.4-.8-.8s.3-.8.8-.8c1.1,0,2.4-.1,3.8-.1v-1.6c0-.5.4-.7.9-.7s.9.2.9.7ZM144.7,25c1.1,0,1.6-.5,1.6-1.2v-.4c-.5,0-1-.1-1.4-.1-1.2,0-1.6.4-1.6.9s.4.8,1.5.8ZM166.3,24.4c0,1.8-1.3,2.4-2.9,2.4s-3.1-.8-3.1-2.3,1.1-2.3,3.1-2.3.5,0,.8,0c-.1-.7-.2-1.3-.2-1.7,0-.7,0-1,.1-1.6,0-.4.4-.6.8-.6s.9.3.9.7,0,0,0,.1c0,.5-.1.9-.1,1.3s0,1.1.2,2.1c1,.3,2.1.8,3,1.4.3.2.4.5.4.8,0,.4-.4.9-.8.9s-.4,0-.5-.2c-.6-.4-1.2-.8-1.8-1ZM163.4,25.2c.7,0,1.1-.3,1.1-1s0-.3,0-.4c-.4,0-.7,0-1,0-1.1,0-1.5.4-1.5.8s.3.7,1.4.7ZM159.9,15.9c.2-.8.5-1.6.6-2.4,0-.5.5-.7.9-.7s.9.3.9.8,0,.1,0,.2c-.1.6-.3,1.2-.5,1.9.5,0,1-.2,1.4-.2,0,0,.1,0,.2,0,.5,0,.8.4.8.8s-.2.7-.7.8c-.7.1-1.5.3-2.3.4-.7,1.9-1.5,3.9-2.5,5.4-.2.4-.6.6-.9.6-.5,0-.9-.4-.9-.8s0-.4.2-.6c.8-1.3,1.6-2.8,2.2-4.4-.6,0-1.2,0-1.7.1-.5,0-.8-.4-.8-.9s.3-.8.8-.8c.7,0,1.5,0,2.3-.2ZM167.1,15.7c.8.2,1.8.7,2.4,1.1.4.2.5.5.5.8,0,.5-.4.9-.8.9s-.3,0-.5-.1c-.8-.4-1.6-.8-2.3-1.1-.4-.1-.6-.4-.6-.7,0-.4.4-.9.9-.9s.2,0,.3,0ZM184.1,14c0-.1-.1-.2-.1-.4,0-.3.3-.6.7-.6s.3,0,.5.2c.4.4.8,1,1.1,1.5,0,.1.1.3.1.4,0,.4-.3.6-.7.6s-.4-.1-.5-.4c-.3-.6-.7-1.1-1.1-1.5ZM185.8,12.9c0-.1-.1-.2-.1-.4,0-.3.3-.6.7-.6s.4,0,.5.2c.4.4.8.9,1.1,1.4,0,.2.1.3.1.4,0,.4-.3.6-.6.6s-.4-.1-.6-.4c-.3-.5-.7-1-1.1-1.4ZM176.8,16.3h0c-.7.1-1.6.3-2.5.4h-.1c-.6,0-.9-.4-.9-.9s.2-.8.8-.8c1.4-.1,3-.4,4.3-.6,0,0,.1,0,.2,0,.6,0,.9.4.9.9s-.1.5-.4.7c-2.4,1.9-3.1,4.1-3.1,5.9s1,3,2.5,3c2.2,0,3.7-1.7,3.7-5s-.2-3.3-.6-4.7c0,0,0-.2,0-.2,0-.5.5-.8.9-.8s.7.2.9.5c.8,1.6,2.1,3.5,3.3,4.6.3.2.4.5.4.8,0,.5-.4.9-.9.9s-.5-.1-.7-.4c-.8-1-1.4-1.9-1.8-2.7h0c.2.8.2,1.7.2,2.5,0,4-2.1,6.3-5.2,6.3s-4.3-1.5-4.3-4.8.7-3.8,2.5-5.6ZM203,12c1,0,1.7.8,1.7,1.7s-.8,1.7-1.7,1.7-1.7-.8-1.7-1.7.8-1.7,1.7-1.7ZM203,12.8c-.5,0-.9.4-.9.9s.4.9.9.9.9-.4.9-.9-.4-.9-.9-.9ZM191.6,15.2h8.2c1.7,0,2.3.5,2.3,1.6s0,.6-.1.9c-.9,3.8-3.7,7.1-7.4,8.9-.2,0-.4.1-.5.1-.5,0-.9-.4-.9-.9s.2-.6.6-.8c3.5-1.8,5.5-4.4,6.4-7.3,0-.1,0-.2,0-.3,0-.3-.2-.4-.7-.4h-7.7c-.6,0-.9-.4-.9-.8s.3-.9.8-.9ZM215.6,25.5h-6.2c-1.8,0-2.6-.8-2.6-2.3v-6c0-1.5.8-2.3,2.6-2.3h6.2c1.8,0,2.6.8,2.6,2.3v6c0,1.5-.8,2.3-2.6,2.3ZM209.6,23.7h5.7c.7,0,1-.2,1-.8v-5.5c0-.5-.2-.8-1-.8h-5.7c-.7,0-1,.2-1,.8v5.5c0,.5.2.8,1,.8ZM228.6,15.7h3c1.3,0,2,.5,2,1.4s0,.5-.1.8c-1.1,3.7-3.8,7.1-7.3,9.1-.2.1-.4.1-.5.1-.5,0-.9-.4-.9-.9s.2-.6.6-.9c3.2-1.9,5.3-4.6,6.3-7.6,0,0,0-.2,0-.2,0-.2-.1-.3-.4-.3h-3.6c-.8,1.2-1.7,2.3-2.6,3.1-.2.2-.5.3-.7.3-.5,0-.9-.4-.9-.8s.1-.5.4-.8c1.5-1.4,3-3.5,3.9-5.5.2-.4.5-.6.9-.6s.9.3.9.8,0,.2,0,.4c-.2.5-.4,1-.7,1.5ZM232.7,14.1c0-.1-.1-.2-.1-.4,0-.3.3-.6.7-.6s.3,0,.5.2c.4.4.8,1,1.1,1.5,0,.1.1.3.1.4,0,.4-.3.6-.7.6s-.4-.1-.5-.4c-.3-.6-.7-1.1-1.1-1.5ZM234.4,13c0-.1-.1-.2-.1-.4,0-.3.3-.6.7-.6s.4,0,.5.2c.4.4.8.9,1.1,1.4,0,.2.1.3.1.4,0,.4-.3.6-.6.6s-.4-.1-.6-.4c-.3-.5-.7-1-1.1-1.4ZM242.3,14h7c.5,0,.8.4.8.9s-.3.9-.8.9h-7c-.5,0-.8-.4-.8-.9s.3-.9.8-.9ZM240.7,17.6h8.4c1.5,0,2.2.5,2.2,1.5s0,.6-.2.9c-1,3-3.6,5.3-6.7,6.6-.1,0-.3,0-.4,0-.5,0-.9-.5-.9-.9s.2-.7.7-.9c2.8-1.1,4.7-2.9,5.5-5,0-.1,0-.2,0-.3,0-.2-.2-.3-.5-.3h-8.1c-.5,0-.8-.3-.8-.8s.3-.9.8-.9ZM260.1,23.7c1.9-.2,3.7-.4,5.6-.7-.5-.8-1-1.5-1.5-2.2-.1-.2-.2-.4-.2-.5,0-.4.4-.8.9-.8s.6.1.8.4c1.2,1.4,2.5,3.4,3.2,5,0,.2.1.3.1.5,0,.6-.5.9-1,.9s-.7-.2-.8-.6c-.2-.4-.4-.8-.6-1.2-2.8.6-6.2,1-9.1,1.2-.3,0-.6,0-.7,0-.6,0-.9-.4-.9-.9s.3-.9.8-.9c.4,0,.9,0,1.4,0,1.2-3.2,2.4-6.7,3.1-9.7.1-.5.5-.7.9-.7s1,.3,1,.9,0,.2,0,.2c-.7,2.9-1.8,6.2-3,9.1ZM276.1,27.6h-3.8c-.4,0-.6-.3-.6-.7s.3-.6.6-.6h3.3c.5,0,.7-.2.7-.7v-10.1c0-.4.3-.6.7-.6s.7.2.7.6v10.5c0,1.1-.6,1.6-1.6,1.6ZM291.8,24.9c-1.6,0-3-1.3-3-3.8,0-3.6,3-6.6,7.4-6.6s6.2,2.4,6.2,5.6-1.7,5-4.5,5.9c-.1,0-.3,0-.4,0-.5,0-.9-.4-.9-.9s.2-.7.7-.9c2.3-.8,3.2-2.2,3.2-4.2s-1.4-3.8-3.9-4c-.2,2.7-.8,5.1-1.8,6.8-.9,1.6-1.8,2-3.1,2ZM294.8,16.2c-2.4.5-4.1,2.5-4.1,4.9s.6,2,1.2,2,.9-.3,1.4-1.1c.8-1.4,1.4-3.5,1.6-5.8ZM85.2,47.8h.2c.3,0,.3,0,.3-.3v-1.4c0-.4.3-.6.7-.6s.7.2.7.6v1.5c0,1.1-.4,1.4-1.4,1.4h-2.4c-1.1,0-1.4-.3-1.4-1.4v-1.5c0-.4.3-.6.7-.6s.7.2.7.6v1.4c0,.3,0,.3.3.3h.2v-3.1h-1.8c-.4,0-.5,0-.5.4v5.4c0,.4-.4.7-.8.7s-.8-.2-.8-.7v-5.6c0-1.1.6-1.6,1.8-1.6h2.1v-1.1h-4c-.4,0-.6-.4-.6-.7s.2-.7.6-.7h2.3v-1.2h-1.4c-.4,0-.6-.4-.6-.7s.2-.7.6-.7h1.4v-1.1c0-.5.4-.7.8-.7s.8.2.8.7v1.1h1.8v-1.1c0-.5.4-.7.8-.7s.8.2.8.7v1.1h1.5c.4,0,.7.4.7.7s-.2.7-.7.7h-1.5v1.2h2.4c.4,0,.7.4.7.7s-.2.7-.7.7h-4.1v1.1h2.1c1.2,0,1.8.5,1.8,1.6v4.6c0,1.1-.6,1.6-1.5,1.6s-.7,0-.9,0c-.5,0-.7-.4-.7-.8s.3-.7.7-.7h.1c.1,0,.3,0,.4,0s.2,0,.2-.3v-4.1c0-.3-.1-.4-.5-.4h-1.8v3.1ZM85.3,39.7h-1.8v1.2h1.8v-1.2ZM77.2,45.8c.1-.4.4-.6.8-.6s.9.3.9.8,0,.2,0,.2c-.4,1.5-1.1,3.2-1.8,4.3-.2.4-.5.5-.8.5-.5,0-.9-.3-.9-.8s0-.3.1-.5c.6-1,1.3-2.6,1.7-4ZM77.5,37c.4.3.9.8,1.3,1.2.2.2.3.4.3.6,0,.5-.4.8-.9.8s-.4,0-.6-.3c-.4-.4-.8-.9-1.2-1.2-.2-.2-.3-.4-.3-.6,0-.4.4-.8.9-.8s.4,0,.6.2ZM76.4,40.9c.5.3,1,.8,1.3,1.2.2.2.3.4.3.7,0,.5-.4.8-.9.8s-.4,0-.6-.3c-.4-.4-.9-.9-1.2-1.2-.2-.2-.3-.4-.3-.6,0-.4.4-.8.9-.8s.4,0,.6.2ZM98.4,43h-2.1c-1.6,0-2.1-.6-2.1-1.8v-2.1c0-1.2.6-1.8,2.1-1.8h5.6c1.6,0,2.1.6,2.1,1.8v2.1c0,1.2-.6,1.8-2.1,1.8h-1.9v1.9h4c.4,0,.7.4.7.8s-.2.8-.7.8h-4v2.6c.8.1,1.6.2,2.6.2s1.9,0,2.9-.1h0c.5,0,.8.4.8.8s-.2.8-.8.8c-1,0-2,.1-3,.1-3.8,0-6-.8-7.5-2.9-.5,1.1-1.2,2.2-1.9,2.9-.2.3-.5.4-.7.4-.4,0-.8-.3-.8-.8s0-.4.3-.6c1.2-1.3,2.1-3.3,2.6-5.3,0-.4.4-.6.8-.6s.9.3.9.8,0,.1,0,.2c-.1.5-.3,1-.4,1.5.3.4.6.8.9,1.2.4.4,1,.8,1.5,1v-5.6ZM96.6,41.5h5.1c.6,0,.7-.1.7-.5v-1.6c0-.4-.1-.5-.7-.5h-5.1c-.6,0-.7.1-.7.5v1.6c0,.4.1.5.7.5ZM112.8,45.3h6.1c1.2,0,1.7.5,1.7,1.2s-.2.8-.5,1.2c-.4.4-.8.7-1.2,1,1,.4,2,.6,3.2.8.4,0,.7.4.7.8s-.3.8-.8.8,0,0-.2,0c-1.7-.2-3.2-.7-4.5-1.4-1.5.8-3.3,1.3-5.1,1.6,0,0,0,0-.1,0-.5,0-.8-.4-.8-.8s.2-.7.7-.8c1.4-.2,2.7-.5,3.8-1-.8-.6-1.4-1.3-2-2h-.9c-.4,0-.6-.4-.6-.7s.2-.7.6-.7ZM118.4,46.7h-2.7c.5.5,1,.9,1.6,1.2.4-.3.9-.6,1.2-.9,0,0,.1-.1.1-.2s-.1-.1-.3-.1ZM114,42.2h-1.8c-.4,0-.6-.4-.6-.7s.2-.7.6-.7h1.8v-.5c0-.4.4-.7.8-.7s.8.2.8.7v.5h2.6v-.5c0-.4.4-.7.8-.7s.8.2.8.7v.5h2.2c.4,0,.6.3.6.7s-.2.7-.6.7h-2.2v.8c0,1.1-.5,1.5-1.8,1.5h-2.3c-1.3,0-1.8-.4-1.8-1.5v-.8ZM115.6,42.2v.6c0,.4,0,.4.4.4h1.8c.4,0,.4,0,.4-.4v-.6h-2.6ZM115.2,38v-1c0-.4.4-.6.8-.6s.8.2.8.6v1h5.3c.4,0,.6.4.6.7s-.2.7-.6.7h-10c-.7,0-.9.2-.9.8v2.4c0,3.1-.5,5.4-1.5,7.4-.2.4-.5.6-.9.6s-.8-.3-.8-.8,0-.3.1-.5c.9-1.8,1.3-3.9,1.3-6.9v-2.6c0-1.3.6-1.9,2.2-1.9h3.5ZM129.9,42.4h0c.4-.1.9-.2,1.4-.2,1.1,0,1.8.3,2.2,1.5,1.2-.5,2.6-1,4-1.4.1,0,.2,0,.3,0,.5,0,.8.4.8.9s-.2.7-.6.8c-1.4.4-2.8.9-4.2,1.4,0,.6.1,1.3.1,2.1,0,.5-.4.8-.9.8s-.8-.2-.8-.7c0-.6,0-1.1,0-1.6-1.7.8-2,1.6-2,2.2s.6,1,2.4,1,2.1,0,3.1-.3c0,0,.1,0,.2,0,.5,0,.9.4.9.9s-.3.8-.8.9c-1,.2-2.2.3-3.3.3-3,0-4.3-1-4.3-2.6s.8-2.5,3.6-3.9c-.2-.6-.5-.7-1.1-.7s-1.8.4-3.3,1.6c-.2.1-.4.2-.6.2-.5,0-.9-.4-.9-.8s.1-.5.4-.7c1-.9,1.9-1.9,2.7-3.1-.6,0-1.2,0-1.7,0-.6,0-.9-.4-.9-.8s.3-.8.9-.8,1.6,0,2.6-.1c.3-.6.5-1.3.7-1.9.1-.4.5-.6.8-.6s.9.3.9.7,0,.2,0,.2c-.1.4-.3.9-.5,1.3.8,0,1.6-.2,2.3-.3,0,0,.1,0,.2,0,.5,0,.8.4.8.8s-.2.7-.7.8c-1,.2-2.2.4-3.4.5-.4.7-.8,1.3-1.2,1.8ZM148.8,40.4h.7c.4,0,.6.4.6.7s-.2.7-.6.7h-1.8c-.3.4-.7.8-1,1.2h.6c.8,0,1.3.4,1.3,1s-.2.7-.5,1c-.4.4-.8.8-1.4,1.2v.4c.8-.1,1.5-.3,2.3-.5,0,0,.2,0,.2,0,.4,0,.7.4.7.8s-.2.6-.6.7c-.8.2-1.7.4-2.7.6v1.7c0,1.1-.6,1.6-1.8,1.6s-.7,0-1.1,0c-.4,0-.6-.4-.6-.7s.2-.8.7-.8,0,0,.1,0c.2,0,.5,0,.7,0s.3,0,.3-.4v-1.1c-.9.1-1.8.3-2.7.3h0c-.5,0-.8-.4-.8-.8s.2-.7.7-.7c.9,0,1.9-.2,2.9-.3v-1.2c0-.4.4-.7.8-.7s.1,0,.2,0c.2-.1.3-.3.4-.4,0,0,0-.1,0-.1,0,0,0,0-.2,0h-1.1c-.9.8-1.9,1.5-2.8,2-.1,0-.3.1-.4.1-.4,0-.7-.4-.7-.7s.1-.5.4-.7c.4-.2.8-.5,1.2-.7h0c-.4,0-.6-.3-.6-.7s.2-.7.6-.7h1.6c.4-.4.8-.8,1.1-1.2h-3.7c-.4,0-.6-.4-.6-.7s.2-.7.6-.7h2.4v-.9h-1.4c-.4,0-.6-.4-.6-.7s.2-.7.6-.7h1.4v-1c0-.4.4-.7.8-.7s.8.2.8.7v1h1.2c.4,0,.6.4.6.7h0c.3-.4.5-.9.7-1.4.1-.3.4-.5.7-.5.4,0,.8.3.8.8s0,.2,0,.4c-.4.8-.9,1.6-1.4,2.4ZM146.2,40.4h.8c.2-.3.4-.6.7-1,0,0-.1,0-.2,0h-1.2v.9ZM156,41.5h-.6c-.3,1.8-.8,3.6-1.6,5.1.7,1.1,1.6,2,2.6,2.7.3.2.4.5.4.8,0,.4-.4.8-.9.8s-.4,0-.6-.2c-.9-.8-1.8-1.7-2.4-2.7-.9,1.2-2,2.3-3.2,3.1-.2.1-.3.2-.5.2-.4,0-.8-.4-.8-.8s.1-.5.5-.7c1.3-.8,2.4-1.9,3.2-3.2-.4-.9-.8-1.8-1-2.7v.2c-.3.4-.6.5-.9.5-.4,0-.8-.3-.8-.8s0-.3.1-.4c1-1.7,1.9-4,2.3-6.1,0-.4.4-.6.8-.6s.9.3.9.8,0,.1,0,.2c-.2.7-.4,1.5-.7,2.3h3.3c.4,0,.6.4.6.8s-.2.8-.6.8ZM153.8,41.5h-1.7v.4c0,1.1.4,2.1.8,3.1.5-1.1.8-2.3,1-3.4ZM163.9,37c1.1.1,2.4.4,3.3.8.4.2.7.5.7.8s-.3.9-.8.9-.2,0-.4,0c-.9-.3-2.1-.6-3.1-.8-.5,0-.8-.4-.8-.8s.3-.9.9-.9.1,0,.2,0ZM161.3,41.1l5.6-.8c0,0,.2,0,.2,0,.7,0,1.2.5,1.2,1.1s0,.5-.3.8l-2.7,2.7h0c.3,0,.5,0,.7,0,1,0,1.7.6,1.7,2v.3c0,1,.3,1.3,1.1,1.3s1.7-.1,2.6-.3c0,0,.2,0,.3,0,.5,0,.8.4.8.9s-.2.8-.7.8c-1.1.2-2.1.3-3,.3-1.9,0-2.8-.8-2.8-2.8v-.4c0-.6-.3-.8-.6-.8s-1,.2-1.7.8c-.6.5-1.5,1.4-2.8,2.8-.2.2-.5.3-.7.3-.5,0-.9-.4-.9-.8s0-.5.3-.7l6.1-6.4h0s-4.2.7-4.2.7c0,0-.1,0-.2,0-.5,0-.8-.4-.8-.9s.2-.8.8-.8ZM183.5,40.4h0c-1.9.2-4.5.6-6.8.9,0,0-.1,0-.2,0-.6,0-.9-.5-.9-.9s.3-.8.8-.9c3.3-.4,7.5-.9,10.8-1.2h0c.6,0,.9.4.9.8s-.2.8-.7.9c-.6,0-1.2.3-1.8.6-2.5,1.4-3,3.1-3,4.6s1.2,2.9,3.5,3.1c.6,0,.9.5.9.9s-.4.9-.9.9-.9,0-1.2-.2c-2.4-.6-4.1-2.4-4.1-4.8s.8-3.6,2.6-5ZM199.4,37.3c.2-.3.5-.4.8-.4.5,0,1,.4,1,.9s0,.4-.2.6c-1,1.4-2.4,3.2-3.6,4.5-.3.3-.3.4-.3.7s.1.5.4.8c1.4,1.5,2.9,3.3,4.1,5,.2.2.2.5.2.7,0,.5-.5.9-1,.9s-.7-.2-.9-.5c-1-1.6-2.5-3.6-3.8-5-.6-.7-.8-1.2-.8-1.8s.2-1.1.8-1.7c1.2-1.2,2.6-3.1,3.6-4.6ZM211.7,42c-.7,0-1.6.2-2,.2-.5,0-.8-.4-.8-.8s.3-.8.8-.9c.6,0,1.4-.1,2.3-.3.1-.9.2-1.6.3-2.5,0-.5.5-.7.9-.7s.9.3.9.8h0c0,.9-.2,1.4-.3,2,.4,0,.9-.2,1.4-.3,0,0,.2,0,.2,0,.5,0,.8.4.8.8s-.2.7-.6.8c-.7.2-1.4.4-2.1.5-.6,3.1-1.3,6.1-2.2,8.4-.2.5-.6.7-1,.7s-.9-.3-.9-.8,0-.3,0-.4c.9-2.2,1.6-4.7,2.1-7.5ZM218.1,39c-.1-.1-.2-.3-.2-.4,0-.3.3-.6.7-.6s.3,0,.4.2c.4.4.9.9,1.2,1.4.1.1.1.3.1.4,0,.4-.3.6-.6.6s-.4,0-.5-.3c-.4-.5-.8-1-1.2-1.4ZM214.9,47.5c0-.5.4-.8.9-.8s.7.2.8.7c.1,1,.7,1.3,2.4,1.3s1.5,0,2.1-.2c0,0,.1,0,.2,0,.5,0,.8.5.8.9s-.2.8-.7.8c-.7.1-1.5.2-2.4.2-1.9,0-2.9-.4-3.5-1-.4-.4-.7-1.2-.7-1.8ZM219.7,37.7c-.1-.1-.2-.3-.2-.4,0-.3.3-.6.7-.6s.3,0,.5.2c.4.4.9.8,1.2,1.3.1.2.2.3.2.5,0,.4-.3.6-.6.6s-.4,0-.6-.3c-.4-.5-.8-.9-1.2-1.3ZM216.5,42.2c1.2-.3,2.8-.4,4.1-.4s.9.4.9.9-.3.8-.8.8c-1.3,0-2.8.2-3.9.4,0,0-.1,0-.2,0-.5,0-.8-.4-.8-.8s.2-.7.7-.8ZM234.1,44.7h0c-.7-.9-1.3-1.8-1.9-2.8-1.8.3-4.1.6-5,.6s-.8-.4-.8-.9.2-.8.8-.8c1.3,0,2.9-.2,4.4-.5-.3-.8-.6-1.7-.8-2.5,0,0,0-.1,0-.2,0-.5.5-.8.9-.8s.7.2.8.6c.2.8.5,1.7.8,2.5,1.2-.3,2.3-.6,3.2-.9.1,0,.2,0,.3,0,.5,0,.9.4.9.9s-.2.6-.7.8c-.8.3-1.9.6-3,.8.6,1.1,1.4,2.3,2.6,3.6.2.2.3.4.3.7,0,.5-.4.9-.9.9s-.2,0-.3,0c-1.2-.4-2.4-.6-3.7-.6-1.9,0-2.6.6-2.6,1.5s.7,1.5,3.1,1.5,1.2,0,1.7,0h.1c.6,0,.8.4.8.9s-.2.8-.8.8c-.5,0-1.1,0-1.8,0-3.3,0-5-1.2-5-3.2s1.3-3,4.4-3,1.5,0,2.1.2ZM242.7,39.3c0-.5.5-.8.9-.8s.9.3.9.8,0,1,0,1.5c0,5.6,1.1,7.1,1.8,7.1s.7-.3,1-1.5c.1-.5.5-.7.8-.7s.9.3.9.9,0,.2,0,.3c-.6,2.1-1.6,2.9-2.7,2.9-2.3,0-3.7-2.9-3.7-8.9s0-1.2,0-1.6ZM252.6,40.4c1.3,1.2,2.6,3.2,3.1,4.9,0,.1,0,.2,0,.3,0,.5-.4.8-.9.8s-.7-.2-.8-.6c-.6-1.5-1.6-3.2-2.8-4.4-.2-.2-.3-.4-.3-.6,0-.4.4-.8.9-.8s.5,0,.7.3ZM261.2,45.6c1.5,0,2.7,1.2,2.7,2.6s-1.2,2.7-2.7,2.7-2.7-1.2-2.7-2.7,1.2-2.6,2.7-2.6ZM261.2,46.7c-.9,0-1.6.7-1.6,1.6s.7,1.6,1.6,1.6,1.6-.7,1.6-1.6-.7-1.6-1.6-1.6Z" fill="#282828"/>
</svg>