<?xml version="1.0" encoding="UTF-8"?>
<svg id="_レイヤー_1" data-name="レイヤー_1" xmlns="http://www.w3.org/2000/svg" version="1.1" viewBox="0 0 414 40">
  <!-- Generator: Adobe Illustrator 30.1.0, SVG Export Plug-In . SVG Version: 2.1.1 Build 136)  -->
  <polygon points="414 0 386 0 28 0 0 0 10 20 0 40 28 40 386 40 414 40 404 20 414 0" fill="#69bd83"/>
  <path d="M54.3,24.2l1.2,1.3c.2.2.3.4.3.7,0,.5-.4.9-.9.9s-.5-.1-.7-.4l-1.2-1.3c-.8.5-1.7.8-2.7.8-2.9,0-5.3-2.2-5.3-6.3s2.4-6.3,5.3-6.3,5.3,2.2,5.3,6.3-.5,3.3-1.3,4.4ZM51.8,21.4l1.2,1.3c.4-.8.6-1.8.6-3,0-2.8-1.2-4.6-3.3-4.6s-3.3,1.8-3.3,4.6,1.2,4.7,3.3,4.7,1.1-.1,1.6-.4l-1.4-1.5c-.2-.2-.2-.4-.2-.6,0-.5.4-.9,1-.9s.4.1.7.4ZM60.4,18.8h.9c1.3,0,2-.7,2-1.8s-.7-1.6-1.9-1.6-1.4.3-2,.8c-.2.2-.4.2-.6.2-.5,0-.9-.4-.9-.9s0-.4.2-.6c.8-.7,2-1.2,3.2-1.2,2.3,0,3.8,1.3,3.8,3.1s-.6,2.2-1.9,2.5c1.4.4,2.3,1.5,2.3,2.8,0,2.3-1.7,3.8-4.2,3.8s-2.5-.4-3.3-1c-.3-.2-.4-.4-.4-.7,0-.5.4-.8.8-.8s.3,0,.5.1c.8.6,1.6.8,2.4.8,1.4,0,2.3-.9,2.3-2.2s-.8-2-2.2-2h-1c-.5,0-.8-.3-.8-.8s.3-.8.8-.8ZM69.3,23.6c.7,0,1.2.5,1.2,1.2s-.5,1.2-1.2,1.2-1.2-.5-1.2-1.2.5-1.2,1.2-1.2ZM79.2,14.7h-3.7c-.4,0-.6-.3-.6-.6s.2-.6.6-.6h3.7v-.5c0-.4.4-.7.8-.7s.8.2.8.7v.5h2.3c1.5,0,2,.4,2,1.3v.5h1.8c.4,0,.6.3.6.6s-.2.6-.6.6h-1.8v.5c0,.9-.4,1.3-2,1.3h-2.3v.5h4.7c.4,0,.6.3.6.6s-.2.6-.6.6h-4.7v.6h6.1c.4,0,.6.3.6.6s-.2.6-.6.6h-13.7c-.4,0-.6-.3-.6-.6s.2-.6.6-.6h5.9v-.6h-4.4c-.4,0-.6-.3-.6-.6s.2-.6.6-.6h4.4v-.5h-3.8c-.4,0-.6-.3-.6-.6s.2-.6.6-.6h3.8v-.6h-5.8c-.4,0-.6-.3-.6-.6s.2-.6.6-.6h5.8v-.6ZM80.9,14.7v.6h2.6v-.3c0-.2,0-.3-.6-.3h-2ZM83.5,16.5h-2.6v.6h2c.5,0,.6,0,.6-.3v-.3ZM83.3,27.2h-6.1c-1.5,0-2-.5-2-1.5v-1.7c0-1,.5-1.5,2-1.5h6.1c1.5,0,2,.5,2,1.5v1.7c0,1.3-.9,1.5-2,1.5ZM77.4,26.1h5.6c.5,0,.6,0,.6-.4v-.4h-6.8v.4c0,.2.1.4.6.4ZM83.6,24.3v-.3c0-.3-.1-.4-.6-.4h-5.6c-.5,0-.6,0-.6.4v.3h6.8ZM93,15h-1.1c-.3.5-.7.9-1,1.3-.2.2-.5.3-.7.3-.4,0-.8-.3-.8-.7s0-.4.3-.6c.7-.7,1.4-1.7,1.8-2.5.2-.3.5-.4.7-.4.4,0,.8.3.8.7s0,.2,0,.4l-.2.4h2.9c.4,0,.6.3.6.6s-.2.6-.6.6h-1v.2c.2.1.2.2.2.3,0,.4-.4.7-.8.7s-.5-.1-.7-.4c-.1-.2-.2-.5-.4-.7ZM92.2,26v-1.7c-.4.7-.9,1.3-1.5,1.8-.2.2-.4.3-.6.3-.4,0-.8-.4-.8-.8s0-.4.3-.6c.7-.7,1.4-1.5,2-2.4h-1.6c-.4,0-.6-.3-.6-.7s.2-.7.6-.7h2.1v-.7h-1.3c-.4,0-.6-.3-.6-.6s.2-.6.6-.6h1.3v-.6h-1.7c-.4,0-.6-.3-.6-.6s.2-.6.6-.6h1.7v-.7c0-.4.4-.7.8-.7s.8.2.8.7v.7h1.5c.4,0,.6.3.6.6s-.2.6-.6.6h-1.5v.6h1.2c.4,0,.6.3.6.6s-.2.6-.6.6h-1.2v.7h1.8c.4,0,.6.3.6.7s-.2.7-.6.7h-1.8v.5c.6.4,1.2.7,1.7,1.2.2.2.3.4.3.6,0,.4-.3.7-.7.7s-.4,0-.5-.2c-.3-.2-.5-.4-.8-.7v2.1c0,.4-.4.6-.8.6s-.8-.2-.8-.6v-.8ZM101.5,27.3h-2.7c-1.2,0-1.7-.4-1.7-1.5v-2.3c0-1.1.5-1.6,1.7-1.6h2.7c1.2,0,1.7.5,1.7,1.5v2.3c0,1.2-.6,1.6-1.7,1.6ZM99.1,26.1h2.1c.4,0,.4,0,.4-.4v-.5h-2.9v.5c0,.3,0,.4.4.4ZM101.6,24v-.4c0-.3,0-.3-.4-.3h-2.1c-.4,0-.4,0-.4.3v.4h2.9ZM99.2,13.8h4.3c.4,0,.6.3.6.6s-.2.6-.6.6h-2.3c0,0,0,.1.1.2,0,.1,0,.2,0,.3,0,.4-.4.7-.8.7s-.5-.1-.7-.4c-.1-.3-.3-.5-.5-.8h-1.1c-.2.3-.5.6-.7.9-.2.2-.4.3-.7.3-.4,0-.8-.3-.8-.7s0-.4.2-.5c.6-.7,1.2-1.5,1.6-2.3.1-.3.4-.4.7-.4.4,0,.8.3.8.7s0,.2,0,.4-.1.2-.2.4ZM97.9,17.5v-.7c0-.4.4-.6.8-.6s.8.2.8.6v.7h1.2v-.7c0-.4.4-.6.8-.6s.8.2.8.6v.7h.9c.4,0,.6.3.6.6s-.2.6-.6.6h-.9v1.1h1.5c.4,0,.6.3.6.7s-.2.7-.6.7h-7c-.4,0-.6-.3-.6-.7s.2-.7.6-.7h1.1v-1.1h-.7c-.4,0-.6-.3-.6-.6s.2-.6.6-.6h.7ZM100.8,18.8h-1.2v1.1h1.2v-1.1ZM110.9,18.4h0c.4-.1.9-.2,1.4-.2,1.1,0,1.8.3,2.2,1.5,1.2-.5,2.6-1,4-1.4.1,0,.2,0,.3,0,.5,0,.8.4.8.9s-.2.7-.6.8c-1.4.4-2.8.9-4.2,1.4,0,.6.1,1.3.1,2.1,0,.5-.4.8-.9.8s-.8-.2-.8-.7c0-.6,0-1.1,0-1.6-1.7.8-2,1.6-2,2.2s.6,1,2.4,1,2.1,0,3.1-.3c0,0,.1,0,.2,0,.5,0,.9.4.9.9s-.3.8-.8.9c-1,.2-2.2.3-3.3.3-3,0-4.3-1-4.3-2.6s.8-2.5,3.6-3.9c-.2-.6-.5-.7-1.1-.7s-1.8.4-3.3,1.6c-.2.1-.4.2-.6.2-.5,0-.9-.4-.9-.8s.1-.5.4-.7c1-.9,1.9-1.9,2.7-3.1-.6,0-1.2,0-1.7,0-.6,0-.9-.4-.9-.8s.3-.8.9-.8,1.6,0,2.6-.1c.3-.6.5-1.3.7-1.9.1-.4.5-.6.8-.6s.9.3.9.7,0,.2,0,.2c-.1.4-.3.9-.5,1.3.8,0,1.6-.2,2.3-.3,0,0,.1,0,.2,0,.5,0,.8.4.8.8s-.2.7-.7.8c-1,.2-2.2.4-3.4.5-.4.7-.8,1.3-1.2,1.8ZM131,15.3v2h4.7c.5,0,.7.4.7.8s-.2.8-.7.8h-4.7v1.8h5.9c.5,0,.7.4.7.8s-.2.8-.7.8h-5.9v3c0,1.4-.7,2-2.1,2s-.9,0-1.3-.1c-.5,0-.7-.5-.7-.8s.3-.8.8-.8.1,0,.2,0c.3,0,.6,0,.9,0s.5-.1.5-.5v-2.8h-6c-.5,0-.7-.4-.7-.8s.2-.8.7-.8h6v-1.8h-4.8c-.5,0-.7-.4-.7-.8s.2-.8.7-.8h4.8v-1.8c-1.4.2-2.8.3-4.1.3-.6,0-.9-.4-.9-.8s.3-.8.8-.8c3.1-.1,6.5-.6,9.2-1.4,0,0,.2,0,.3,0,.5,0,.8.4.8.9s-.2.7-.7.8c-1.2.3-2.4.6-3.8.8ZM141.6,14.5c0-.5.5-.7.9-.7s.9.3.9.8,0,.1,0,.2c-.5,2.6-.7,4.8-.7,7.1s.2,2.8.3,3.8c0,0,0,0,0,.1,0,.5-.5.8-.9.8s-.8-.2-.9-.8c-.1-1-.3-2.6-.3-4,0-2.4.2-4.5.8-7.4ZM151.3,15.2h.1c.6,0,.9.4.9.8s-.3.8-.8.9c-1.4.2-3,.3-4.5.4-.6,0-.9-.4-.9-.9s.3-.8.9-.9c1.5,0,3-.2,4.4-.4ZM147.1,22.3c.1,1,.6,1.4,2.6,1.4s1.6,0,2.4-.2c0,0,.1,0,.2,0,.5,0,.8.4.8.9s-.2.8-.7.8c-.9.2-1.9.3-2.8.3-3,0-4.2-.9-4.4-2.8h0c0-.7.5-1,.9-1s.8.2.8.7ZM157.5,23.4v-8.5h-.8c-.4,0-.6-.4-.6-.8s.2-.8.6-.8h9.6c.4,0,.7.4.7.8s-.2.8-.7.8h-3.5v11.8c0,.4-.4.7-.8.7s-.8-.2-.8-.7v-2.6c-1.5.4-3,.8-4.4,1,0,0,0,0-.1,0-.5,0-.8-.4-.8-.8s.2-.8.7-.8c.3,0,.6,0,.9-.1ZM159.1,14.9v1.6h2v-1.6h-2ZM159.1,17.9v1.7h2v-1.7h-2ZM159.1,21v2c.7-.1,1.3-.3,2-.5v-1.6h-2ZM164,15.9h4.4c1.2,0,1.8.5,1.8,1.5s0,.3,0,.5c-.3,1.7-1,3.4-1.8,4.8.6.9,1.4,1.7,2.3,2.4.3.3.4.5.4.8,0,.5-.4.9-.9.9s-.5,0-.7-.3c-.8-.7-1.5-1.5-2.1-2.4-.8,1-1.7,1.9-2.7,2.7-.2.1-.4.2-.6.2-.4,0-.8-.4-.8-.8s.1-.5.4-.8c1.1-.8,2-1.7,2.7-2.8-.9-1.6-1.5-3.5-1.9-5.3h-.5c-.4,0-.7-.4-.7-.8s.2-.8.7-.8ZM168,17.4h-1.8c.3,1.3.7,2.5,1.2,3.6.5-1,.9-2.1,1-3.2,0,0,0-.1,0-.2,0-.2,0-.3-.4-.3ZM181.5,18.2c2.3,0,3.9,1.3,3.9,3.3s-1.9,4.3-5.5,4.8c0,0-.1,0-.2,0-.5,0-.7-.4-.7-.8s.2-.7.7-.8c3-.5,4.1-1.6,4.1-3.2s-.7-1.8-2.3-1.8-3.7.5-6.1,1.6c-.1,0-.3,0-.4,0-.4,0-.8-.4-.8-.8s.2-.6.5-.8c2.4-1,4.8-1.6,6.7-1.6ZM197.2,16.4h0c-1.9.2-4.5.6-6.8.9,0,0-.1,0-.2,0-.6,0-.9-.5-.9-.9s.3-.8.8-.9c3.3-.4,7.5-.9,10.8-1.2h0c.6,0,.9.4.9.8s-.2.8-.7.9c-.6,0-1.2.3-1.8.6-2.5,1.4-3,3.1-3,4.6s1.2,2.9,3.5,3.1c.6,0,.9.5.9.9s-.4.9-.9.9-.9,0-1.2-.2c-2.4-.6-4.1-2.4-4.1-4.8s.8-3.6,2.6-5ZM208.7,14l2.7-.4c.2,0,.3,0,.5,0,1,0,1.6.6,1.6,1.4s0,.3,0,.4c-.2,1.2-.5,2.4-.8,3.5,1.1.1,2.1.4,3.1.8.2-.8.3-1.6.3-2.4,0-.5.4-.8.9-.8s.9.3.9.8c0,.9-.2,2-.4,3,.8.4,1.6.8,2.4,1.3.3.2.4.5.4.8,0,.5-.4,1-.9,1s-.4,0-.6-.2c-.6-.4-1.3-.8-1.9-1.1-.6,1.6-1.5,3-2.6,4.1-.3.3-.5.4-.8.4-.5,0-.9-.4-.9-.9s0-.4.3-.6c1-1,1.8-2.2,2.3-3.7-1-.4-2.1-.7-3.2-.9-.3.8-.7,1.6-1,2.3-.8,1.6-1.6,2.1-2.8,2.1s-2.3-.9-2.3-2.5,1.8-3.6,4.5-3.6h.4c.3-1,.6-2.1.8-3.1,0,0,0,0,0-.1,0-.1,0-.2-.3-.1l-2.2.4c0,0-.1,0-.2,0-.5,0-.8-.4-.8-.9s.2-.8.8-.8ZM208.2,23.2c.5,0,.7-.1,1.2-.9.3-.5.6-1.2.8-1.9-1.7,0-2.5,1-2.5,2s.3.8.6.8ZM225.4,17.8c-.7,0-1.3.2-2,.2s-.8-.4-.8-.8.3-.8.8-.9c.6,0,1.4-.1,2.3-.3.1-.9.2-1.6.3-2.5,0-.5.5-.7.9-.7s.9.3.9.8h0c0,.9-.2,1.4-.3,2,.4,0,.9-.2,1.4-.3,0,0,.2,0,.2,0,.5,0,.8.4.8.8s-.2.7-.6.8c-.7.2-1.4.4-2.1.5-.6,3.1-1.3,6.1-2.2,8.4-.2.5-.6.7-1,.7s-.9-.3-.9-.8,0-.3,0-.4c.9-2.2,1.6-4.7,2.1-7.5ZM228.6,23.3c0-.5.4-.8.9-.8s.7.2.8.7c.1,1,.7,1.3,2.4,1.3s1.5,0,2.1-.2c0,0,.1,0,.2,0,.5,0,.8.5.8.9s-.2.8-.7.8c-.7.1-1.5.2-2.4.2-2.2,0-3.2-.6-3.7-1.4-.3-.4-.4-1-.4-1.5ZM230.2,18.1c1.2-.3,2.8-.4,4.1-.4s.9.4.9.9-.3.8-.8.8c-1.3,0-2.8.2-3.9.4,0,0-.1,0-.2,0-.5,0-.8-.4-.8-.8s.2-.7.7-.8ZM239.7,15.3c0-.5.5-.8.9-.8s.9.3.9.8,0,1,0,1.5c0,5.6,1.1,7.1,1.8,7.1s.7-.3,1-1.5c.1-.5.5-.7.8-.7s.9.3.9.9,0,.2,0,.3c-.6,2.1-1.6,2.9-2.7,2.9-2.3,0-3.7-2.9-3.7-8.9s0-1.2,0-1.6ZM249.6,16.4c1.3,1.2,2.6,3.2,3.1,4.9,0,.1,0,.2,0,.3,0,.5-.4.8-.9.8s-.7-.2-.8-.6c-.6-1.5-1.6-3.2-2.8-4.4-.2-.2-.3-.4-.3-.6,0-.4.4-.8.9-.8s.5,0,.7.3ZM260.7,19.4c-.4-1.5-.6-3.4-.6-5.6s.5-.9.9-.9.9.3.9.9c0,1.8.1,3.4.4,4.7,1-.5,2.1-.9,3.2-1.2,0,0,.2,0,.3,0,.5,0,.8.4.8.9s-.2.7-.6.8c-1.4.4-3,1.1-4.2,1.9-1.4.9-1.9,1.8-1.9,2.6s.7,1.5,3.2,1.5,2.4-.1,3.3-.3c0,0,.1,0,.2,0,.6,0,.9.4.9.9s-.2.8-.7.9c-1.1.2-2.3.3-3.7.3-3.4,0-5-1-5-3.2s.6-2.6,2.6-4ZM282.6,20.7h-6.5c-1.7,0-2.3-.6-2.3-1.9v-3.7c0-1.3.6-1.9,2.3-1.9h6.5c1.7,0,2.3.6,2.3,1.9v3.7c0,1.6-.9,1.9-2.3,1.9ZM276.2,19.3h2.2v-1.7h-2.9v1.1c0,.5.3.6.7.6ZM275.4,16.2h2.9v-1.6h-2.2c-.6,0-.7.2-.7.6v1ZM280,14.6v1.6h3.2v-1c0-.4-.1-.6-.7-.6h-2.4ZM283.2,17.6h-3.2v1.7h2.4c.6,0,.7-.1.7-.6v-1.1ZM275.7,25.5v-3.2c0-.5.4-.7.9-.7s.9.2.9.7v2.9c0,.4.2.5,1.8.5s2.3-.2,2.4-1.1c0-.5.4-.7.8-.7s.9.3.9.8h0c-.2,1.9-1,2.5-4.1,2.5s-3.6-.3-3.6-1.7ZM273.3,22.8c.1-.4.5-.5.8-.5s.9.3.9.8,0,.2,0,.3c-.3.8-.8,1.6-1.2,2.2-.2.3-.5.4-.8.4-.4,0-.9-.3-.9-.8s0-.3.2-.5c.4-.6.8-1.2,1-2ZM279.4,21.2c.4.3.9.7,1.3,1,.2.2.3.4.3.6,0,.4-.4.8-.8.8s-.4,0-.6-.2c-.4-.3-.8-.7-1.2-1.1-.2-.2-.3-.4-.3-.6,0-.4.4-.8.8-.8s.4,0,.5.2ZM284.7,22.3c.5.6,1.1,1.2,1.5,1.8,0,.2.1.3.1.5,0,.5-.4.9-.9.9s-.5-.1-.7-.4c-.4-.5-.8-1.2-1.3-1.8-.2-.2-.2-.4-.2-.5,0-.4.4-.8.9-.8s.5,0,.7.3ZM289.6,15.3c0-.5.5-.8.9-.8s.9.3.9.8,0,1,0,1.5c0,5.6,1.1,7.1,1.8,7.1s.7-.3,1-1.5c.1-.5.5-.7.8-.7s.9.3.9.9,0,.2,0,.3c-.6,2.1-1.6,2.9-2.7,2.9-2.3,0-3.7-2.9-3.7-8.9s0-1.2,0-1.6ZM299.5,16.4c1.3,1.2,2.6,3.2,3.1,4.9,0,.1,0,.2,0,.3,0,.5-.4.8-.9.8s-.7-.2-.8-.6c-.6-1.5-1.6-3.2-2.8-4.4-.2-.2-.3-.4-.3-.6,0-.4.4-.8.9-.8s.5,0,.7.3ZM313.3,13.3v1.6h1c.9,0,1.8,0,2.6,0,.5,0,.8.4.8.9s-.3.8-.8.8c-.6,0-1.3,0-2,0s-1,0-1.6,0c0,.6,0,1.1,0,1.7,1.1,0,2.1-.1,3-.3h.1c.6,0,.8.4.8.8s-.3.8-.8.8c-1,.1-2,.2-3.1.3,0,.7,0,1.4.2,2.1,1.4.4,2.7.9,4,1.7.4.2.5.6.5.9,0,.5-.4.9-.9.9s-.4,0-.5-.2c-1-.6-2-1.2-3-1.5h0c0,1.8-1.5,2.7-3.4,2.7s-3.3-1-3.3-2.5,1.2-2.5,3.4-2.5.8,0,1.3,0c0-.6-.1-1.2-.1-1.7h-.9c-1,0-1.9,0-2.5,0-.5,0-.8-.5-.8-.8s.3-.8.8-.8h.1c.6,0,1.4.1,2.3.1h.9c0-.6,0-1.1,0-1.7-1.4,0-2.7,0-3.8.1-.5,0-.8-.4-.8-.8s.3-.8.8-.8c1.1,0,2.4-.1,3.8-.1v-1.6c0-.5.4-.7.9-.7s.9.2.9.7ZM310.4,25c1.1,0,1.6-.5,1.6-1.2v-.4c-.5,0-1-.1-1.4-.1-1.2,0-1.6.4-1.6.9s.4.8,1.5.8ZM329.7,23.3h0c-.3.2-.7.4-1.2.4-1.6,0-2.7-1.1-2.7-2.9s1-2.7,2.5-2.7.7,0,1,.1v-1.3c-1.2,0-3.9.2-5.6.3-.2,0-.5,0-.7,0-.5,0-.8-.5-.8-.9s.3-.8.8-.9c1.9-.1,4.1-.2,6.3-.3,0-.6,0-1.2,0-2s.4-.8.9-.8.9.3.9.8v1.9c1.7,0,3.3,0,4.7,0s.8.4.8.9-.3.8-.8.8c-1.4,0-3.1,0-4.7,0,0,.9,0,1.8.1,2.8.4.6.5,1.3.5,2.1,0,2.5-1.3,4.3-3.6,5.3-.2,0-.3,0-.4,0-.5,0-.9-.4-.9-.9s.2-.6.6-.8c1.3-.6,2.2-1.5,2.5-2.2ZM328.3,19.7c-.5,0-.9.4-.9,1.1s.6,1.3,1.1,1.3.9-.4.9-1.1-.4-1.3-1.1-1.3ZM343.3,18.3c-.6,2.6-1.6,5.2-2.7,7.2-.2.4-.5.5-.9.5-.5,0-.9-.3-.9-.8s0-.3.1-.5c1-1.8,1.8-4,2.4-6.3-.7,0-1.3.2-1.9.3,0,0-.1,0-.2,0-.5,0-.8-.4-.8-.8s.2-.7.7-.8c.8-.2,1.7-.3,2.5-.4.2-1,.4-2,.5-2.9,0-.5.5-.8.9-.8s.9.3.9.8h0c0,1-.2,1.9-.4,2.8.3,0,.6,0,.9,0,2,0,2.8.9,2.8,3.4s-.2,2.8-.4,3.8c-.5,1.8-1.2,2.5-2.8,2.5s-.8,0-1.1,0c-.5,0-.8-.5-.8-.9s.3-.9.8-.9,0,0,.1,0c.3,0,.5,0,.9,0,.6,0,.8-.2,1.1-1.1.3-.9.4-2.2.4-3.5s-.3-1.8-1-1.8-.8,0-1.2,0ZM349.8,15.5c1,1,2,2.4,2.5,3.5,0,.2.1.4.1.5,0,.6-.4.9-.9.9s-.7-.2-.9-.6c-.6-1.2-1.4-2.4-2.3-3.3-.2-.2-.3-.4-.3-.6,0-.4.4-.8.9-.8s.5,0,.7.3ZM362.4,21.7v.3c0,.5-.3.8-.8.8s-.8-.3-.8-.8v-.4c0-1.3.3-2,1.6-3,1-.8,1.3-1.3,1.3-2.1s-.7-1.6-1.9-1.6-1.8.4-2.4,1.4c-.1.2-.4.3-.6.3-.5,0-.9-.4-.9-.8s0-.4.2-.6c.8-1.2,2.2-1.9,3.8-1.9,2.2,0,3.8,1.2,3.8,3.2s-.5,2.2-1.8,3.1c-1.2.8-1.4,1.3-1.4,2.1ZM361.7,23.8c.7,0,1.2.5,1.2,1.2s-.5,1.2-1.2,1.2-1.2-.5-1.2-1.2.5-1.2,1.2-1.2Z" fill="#282828"/>
</svg>