<svg width="407" height="48" viewBox="0 0 407 48" fill="none" xmlns="http://www.w3.org/2000/svg">
<rect x="42.5" y="2" width="16" height="16" rx="4" fill="#ED6D46"/>
<path d="M66.6077 9.86C66.3877 8.9 66.2377 7.71 66.2377 6.33C66.2377 5.97 66.5277 5.79 66.8177 5.79C67.1077 5.79 67.3977 5.97 67.3977 6.33C67.3977 7.45 67.4877 8.45 67.6277 9.26C68.2377 8.96 68.9177 8.69 69.5977 8.48C69.6577 8.46 69.7177 8.45 69.7777 8.45C70.0877 8.45 70.2977 8.73 70.2977 9.01C70.2977 9.22 70.1877 9.42 69.9277 9.5C69.0377 9.78 68.0377 10.19 67.2977 10.66C66.4377 11.22 66.1377 11.77 66.1377 12.28C66.1377 12.9 66.5477 13.22 68.1377 13.22C68.9377 13.22 69.6477 13.15 70.2077 13.04C70.2577 13.03 70.2977 13.03 70.3377 13.03C70.6877 13.03 70.8777 13.3 70.8777 13.58C70.8777 13.83 70.7377 14.07 70.4277 14.14C69.7477 14.28 68.9777 14.33 68.1277 14.33C66.0277 14.33 64.9777 13.69 64.9777 12.34C64.9777 11.52 65.3577 10.71 66.6077 9.86ZM78.7177 8.01V7.99C77.5177 8.15 75.9277 8.39 74.4877 8.6C74.4477 8.61 74.4177 8.61 74.3877 8.61C74.0277 8.61 73.8277 8.32 73.8277 8.04C73.8277 7.78 73.9877 7.54 74.3477 7.49C76.4277 7.23 79.0077 6.94 81.0877 6.75H81.1477C81.4977 6.75 81.6877 7.01 81.6877 7.28C81.6877 7.52 81.5377 7.76 81.2277 7.82C80.8777 7.88 80.4977 8.01 80.1277 8.22C78.5677 9.11 78.2377 10.15 78.2377 11.1C78.2377 12.21 79.0077 12.89 80.4077 13.06C80.7777 13.11 80.9477 13.38 80.9477 13.65C80.9477 13.95 80.7277 14.24 80.3577 14.24C80.2077 14.24 79.7977 14.18 79.6177 14.14C78.1377 13.77 77.0777 12.67 77.0777 11.13C77.0777 10.08 77.5877 8.9 78.7177 8.01ZM88.1477 6.26L87.9177 7.6H87.9877C88.3777 7.6 88.7077 7.58 89.0177 7.55H89.0677C89.3877 7.55 89.5477 7.81 89.5477 8.08C89.5477 8.33 89.4077 8.56 89.1177 8.59C88.8077 8.62 88.5077 8.64 88.0077 8.64H87.7277C87.6677 9.11 87.5877 9.57 87.5177 10.04H87.6777C88.2077 10.04 88.7977 9.99 89.2477 9.91C89.2777 9.9 89.3177 9.9 89.3477 9.9C89.6577 9.9 89.8377 10.17 89.8377 10.43C89.8377 10.67 89.7077 10.9 89.4077 10.96C88.9277 11.06 88.2477 11.12 87.6677 11.12H87.3877C87.3577 11.47 87.3477 11.75 87.3477 11.99C87.3477 13.07 87.7977 13.44 88.6777 13.44C89.7777 13.44 90.3677 13.05 90.3677 12.06C90.3677 11.83 90.3177 11.55 90.2477 11.32C90.2377 11.27 90.2277 11.22 90.2277 11.17C90.2277 10.87 90.5077 10.69 90.7977 10.69C91.0477 10.69 91.2977 10.82 91.3877 11.12C91.4877 11.43 91.5377 11.74 91.5377 12.04C91.5377 13.75 90.3777 14.58 88.6977 14.58C87.1377 14.58 86.2077 13.78 86.2077 12.07C86.2077 11.77 86.2177 11.45 86.2577 11.06C85.7877 11.01 85.3977 10.95 85.0577 10.86C84.7677 10.78 84.6377 10.55 84.6377 10.32C84.6377 10.04 84.8277 9.77 85.1477 9.77C85.2077 9.77 85.2677 9.77 85.3277 9.79C85.6377 9.87 85.9777 9.93 86.3877 9.98C86.4477 9.51 86.5177 9.05 86.5977 8.58C86.2077 8.55 85.8577 8.49 85.5477 8.42C85.2477 8.35 85.1177 8.13 85.1177 7.92C85.1177 7.64 85.3177 7.38 85.6277 7.38C85.6677 7.38 85.7077 7.38 85.7477 7.39C86.0677 7.46 86.3977 7.51 86.7777 7.55L87.0277 6.11C87.0777 5.82 87.3377 5.69 87.5977 5.69C87.8777 5.69 88.1577 5.85 88.1577 6.16C88.1577 6.19 88.1577 6.22 88.1477 6.26ZM100.108 12.63H100.218C100.388 12.63 100.428 12.6 100.428 12.42V11.57C100.428 11.32 100.638 11.19 100.838 11.19C101.048 11.19 101.248 11.32 101.248 11.57V12.51C101.248 13.21 101.028 13.41 100.358 13.41H98.8877C98.2177 13.41 97.9977 13.21 97.9977 12.51V11.57C97.9977 11.32 98.2077 11.19 98.4077 11.19C98.6177 11.19 98.8177 11.32 98.8177 11.57V12.42C98.8177 12.6 98.8577 12.63 99.0277 12.63H99.1277V10.71H97.9977C97.7777 10.71 97.7077 10.77 97.7077 10.97V14.34C97.7077 14.62 97.4477 14.77 97.1877 14.77C96.9277 14.77 96.6677 14.62 96.6677 14.34V10.83C96.6677 10.16 97.0377 9.85 97.8077 9.85H99.1277V9.19H96.5977C96.3377 9.19 96.1977 8.97 96.1977 8.75C96.1977 8.53 96.3377 8.31 96.5977 8.31H98.0577V7.57H97.1577C96.8977 7.57 96.7577 7.35 96.7577 7.13C96.7577 6.91 96.8977 6.69 97.1577 6.69H98.0577V6C98.0577 5.71 98.3077 5.57 98.5577 5.57C98.8077 5.57 99.0577 5.71 99.0577 6V6.69H100.188V6C100.188 5.71 100.438 5.57 100.688 5.57C100.938 5.57 101.188 5.71 101.188 6V6.69H102.138C102.408 6.69 102.548 6.91 102.548 7.13C102.548 7.35 102.408 7.57 102.138 7.57H101.188V8.31H102.658C102.928 8.31 103.068 8.53 103.068 8.75C103.068 8.97 102.928 9.19 102.658 9.19H100.108V9.85H101.438C102.208 9.85 102.578 10.16 102.578 10.83V13.68C102.578 14.38 102.228 14.67 101.648 14.67C101.428 14.67 101.218 14.66 101.058 14.64C100.758 14.61 100.618 14.39 100.618 14.17C100.618 13.94 100.778 13.71 101.058 13.71H101.128C101.208 13.72 101.288 13.73 101.388 13.73C101.498 13.73 101.538 13.69 101.538 13.53V10.97C101.538 10.77 101.468 10.71 101.248 10.71H100.108V12.63ZM100.188 7.57H99.0577V8.31H100.188V7.57ZM95.1077 11.35C95.1877 11.11 95.3877 11 95.6077 11C95.8877 11 96.1777 11.19 96.1777 11.5C96.1777 11.55 96.1677 11.6 96.1577 11.65C95.8877 12.59 95.4477 13.62 95.0377 14.31C94.9077 14.53 94.6977 14.63 94.5077 14.63C94.2177 14.63 93.9577 14.42 93.9577 14.13C93.9577 14.04 93.9777 13.94 94.0477 13.83C94.4377 13.18 94.8377 12.22 95.1077 11.35ZM95.2577 5.88C95.5377 6.09 95.8377 6.37 96.0577 6.62C96.1677 6.75 96.2177 6.89 96.2177 7.01C96.2177 7.31 95.9577 7.54 95.6777 7.54C95.5377 7.54 95.3977 7.48 95.2777 7.34C95.0477 7.09 94.7577 6.79 94.5377 6.6C94.3977 6.48 94.3477 6.35 94.3477 6.23C94.3477 5.97 94.5977 5.75 94.8877 5.75C95.0077 5.75 95.1377 5.79 95.2577 5.88ZM94.6177 8.29C94.9077 8.5 95.2377 8.79 95.4577 9.04C95.5777 9.18 95.6377 9.32 95.6377 9.45C95.6377 9.74 95.3577 9.97 95.0777 9.97C94.9377 9.97 94.7977 9.92 94.6777 9.79C94.4577 9.54 94.1177 9.22 93.8977 9.04C93.7577 8.92 93.6977 8.79 93.6977 8.67C93.6977 8.4 93.9577 8.17 94.2577 8.17C94.3777 8.17 94.4977 8.21 94.6177 8.29ZM108.138 9.6H106.848C105.858 9.6 105.508 9.21 105.508 8.49V7.15C105.508 6.43 105.858 6.04 106.848 6.04H110.358C111.348 6.04 111.698 6.43 111.698 7.15V8.49C111.698 9.21 111.348 9.6 110.358 9.6H109.198V10.81H111.688C111.958 10.81 112.098 11.05 112.098 11.29C112.098 11.53 111.958 11.77 111.688 11.77H109.198V13.39C109.678 13.47 110.218 13.5 110.848 13.5C111.448 13.5 112.008 13.47 112.658 13.41H112.718C113.048 13.41 113.228 13.66 113.228 13.93C113.228 14.17 113.078 14.41 112.748 14.44C112.128 14.5 111.488 14.52 110.868 14.52C108.488 14.52 107.108 14.02 106.188 12.69C105.848 13.39 105.438 14.04 105.018 14.52C104.878 14.68 104.718 14.74 104.568 14.74C104.288 14.74 104.038 14.53 104.038 14.26C104.038 14.14 104.088 14.01 104.208 13.88C104.928 13.08 105.548 11.83 105.838 10.59C105.898 10.33 106.118 10.21 106.338 10.21C106.608 10.21 106.888 10.38 106.888 10.68C106.888 10.72 106.878 10.76 106.868 10.81C106.798 11.12 106.698 11.43 106.588 11.74C106.758 12 106.948 12.25 107.178 12.46C107.458 12.73 107.788 12.94 108.138 13.09V9.6ZM107.008 8.66H110.198C110.558 8.66 110.638 8.57 110.638 8.33V7.33C110.638 7.09 110.558 7 110.198 7H107.008C106.648 7 106.568 7.09 106.568 7.33V8.33C106.568 8.57 106.648 8.66 107.008 8.66ZM116.308 11.47C116.308 9.88 116.408 7.98 116.518 6.51C116.538 6.17 116.818 6.01 117.098 6.01C117.398 6.01 117.678 6.18 117.678 6.51C117.678 6.62 117.658 6.88 117.648 6.99C117.548 8.47 117.468 10 117.468 11.48C117.468 12.82 117.878 13.18 118.588 13.18C119.518 13.18 120.388 12.8 121.308 11.66C121.448 11.48 121.628 11.41 121.788 11.41C122.098 11.41 122.378 11.65 122.378 11.96C122.378 12.08 122.338 12.2 122.238 12.33C121.098 13.75 119.888 14.29 118.588 14.29C117.098 14.29 116.308 13.55 116.308 11.47ZM129.522 8.01V7.99C128.322 8.15 126.732 8.39 125.292 8.6C125.252 8.61 125.222 8.61 125.192 8.61C124.832 8.61 124.632 8.32 124.632 8.04C124.632 7.78 124.792 7.54 125.152 7.49C127.232 7.23 129.812 6.94 131.892 6.75H131.952C132.302 6.75 132.492 7.01 132.492 7.28C132.492 7.52 132.342 7.76 132.032 7.82C131.682 7.88 131.302 8.01 130.932 8.22C129.372 9.11 129.042 10.15 129.042 11.1C129.042 12.21 129.812 12.89 131.212 13.06C131.582 13.11 131.752 13.38 131.752 13.65C131.752 13.95 131.532 14.24 131.162 14.24C131.012 14.24 130.602 14.18 130.422 14.14C128.942 13.77 127.882 12.67 127.882 11.13C127.882 10.08 128.392 8.9 129.522 8.01ZM135.122 7.3C135.152 6.98 135.432 6.82 135.702 6.82C136.002 6.82 136.292 7 136.292 7.35C136.292 7.49 136.252 7.98 136.252 8.29C136.252 11.79 136.962 12.71 137.382 12.71C137.622 12.71 137.842 12.55 138.032 11.8C138.112 11.5 138.322 11.37 138.542 11.37C138.832 11.37 139.112 11.58 139.112 11.91C139.112 11.97 139.112 12.02 139.092 12.08C138.722 13.42 138.082 13.91 137.412 13.91C135.962 13.91 135.082 12.12 135.082 8.32C135.082 7.86 135.102 7.56 135.122 7.3ZM141.302 8.01C142.142 8.79 142.912 10.04 143.242 11.06C143.272 11.14 143.282 11.21 143.282 11.27C143.282 11.6 143.002 11.8 142.722 11.8C142.512 11.8 142.292 11.69 142.192 11.42C141.832 10.5 141.182 9.45 140.462 8.7C140.342 8.58 140.292 8.45 140.292 8.33C140.292 8.05 140.562 7.82 140.862 7.82C141.002 7.82 141.162 7.88 141.302 8.01ZM148.702 9.53L148.722 9.56C149.142 9.39 149.592 9.31 149.992 9.31C151.552 9.31 152.572 10.16 152.572 11.55C152.572 13.3 151.312 14.42 149.362 14.42C147.992 14.42 147.122 13.72 147.122 12.83C147.122 12.08 147.622 11.55 148.512 11.55C149.472 11.55 150.142 12.19 150.432 13.19C151.052 12.89 151.402 12.31 151.402 11.56C151.402 10.85 150.842 10.28 149.882 10.28C148.872 10.28 147.892 10.63 146.662 11.58C146.522 11.69 146.372 11.74 146.242 11.74C145.932 11.74 145.682 11.48 145.682 11.19C145.682 11.03 145.752 10.86 145.932 10.72C147.092 9.82 148.382 8.49 149.312 7.34C148.822 7.42 148.172 7.49 147.672 7.53C147.632 7.53 147.372 7.56 147.242 7.56C146.922 7.56 146.742 7.29 146.742 7.02C146.742 6.77 146.902 6.52 147.232 6.5C148.042 6.46 149.102 6.33 150.062 6.18C150.112 6.17 150.152 6.17 150.202 6.17C150.612 6.17 150.892 6.46 150.892 6.8C150.892 6.95 150.832 7.11 150.712 7.27C150.122 8.03 149.362 8.9 148.702 9.53ZM149.302 13.42H149.382C149.212 12.78 148.912 12.44 148.492 12.44C148.282 12.44 148.132 12.61 148.132 12.83C148.132 13.16 148.512 13.42 149.302 13.42Z" fill="#282828"/>
<rect x="162.5" y="2" width="16" height="16" rx="4" fill="#E18965"/>
<path d="M189.908 12.63H190.018C190.188 12.63 190.228 12.6 190.228 12.42V11.57C190.228 11.32 190.438 11.19 190.638 11.19C190.848 11.19 191.048 11.32 191.048 11.57V12.51C191.048 13.21 190.828 13.41 190.158 13.41H188.688C188.018 13.41 187.798 13.21 187.798 12.51V11.57C187.798 11.32 188.008 11.19 188.208 11.19C188.418 11.19 188.618 11.32 188.618 11.57V12.42C188.618 12.6 188.658 12.63 188.828 12.63H188.928V10.71H187.798C187.578 10.71 187.508 10.77 187.508 10.97V14.34C187.508 14.62 187.248 14.77 186.988 14.77C186.728 14.77 186.468 14.62 186.468 14.34V10.83C186.468 10.16 186.838 9.85 187.608 9.85H188.928V9.19H186.398C186.138 9.19 185.998 8.97 185.998 8.75C185.998 8.53 186.138 8.31 186.398 8.31H187.858V7.57H186.958C186.698 7.57 186.558 7.35 186.558 7.13C186.558 6.91 186.698 6.69 186.958 6.69H187.858V6C187.858 5.71 188.108 5.57 188.358 5.57C188.608 5.57 188.858 5.71 188.858 6V6.69H189.988V6C189.988 5.71 190.238 5.57 190.488 5.57C190.738 5.57 190.988 5.71 190.988 6V6.69H191.938C192.208 6.69 192.348 6.91 192.348 7.13C192.348 7.35 192.208 7.57 191.938 7.57H190.988V8.31H192.458C192.728 8.31 192.868 8.53 192.868 8.75C192.868 8.97 192.728 9.19 192.458 9.19H189.908V9.85H191.238C192.008 9.85 192.378 10.16 192.378 10.83V13.68C192.378 14.38 192.028 14.67 191.448 14.67C191.228 14.67 191.018 14.66 190.858 14.64C190.558 14.61 190.418 14.39 190.418 14.17C190.418 13.94 190.578 13.71 190.858 13.71H190.928C191.008 13.72 191.088 13.73 191.188 13.73C191.298 13.73 191.338 13.69 191.338 13.53V10.97C191.338 10.77 191.268 10.71 191.048 10.71H189.908V12.63ZM189.988 7.57H188.858V8.31H189.988V7.57ZM184.908 11.35C184.988 11.11 185.188 11 185.408 11C185.688 11 185.978 11.19 185.978 11.5C185.978 11.55 185.968 11.6 185.958 11.65C185.688 12.59 185.248 13.62 184.838 14.31C184.708 14.53 184.498 14.63 184.308 14.63C184.018 14.63 183.758 14.42 183.758 14.13C183.758 14.04 183.778 13.94 183.848 13.83C184.238 13.18 184.638 12.22 184.908 11.35ZM185.058 5.88C185.338 6.09 185.638 6.37 185.858 6.62C185.968 6.75 186.018 6.89 186.018 7.01C186.018 7.31 185.758 7.54 185.478 7.54C185.338 7.54 185.198 7.48 185.078 7.34C184.848 7.09 184.558 6.79 184.338 6.6C184.198 6.48 184.148 6.35 184.148 6.23C184.148 5.97 184.398 5.75 184.688 5.75C184.808 5.75 184.938 5.79 185.058 5.88ZM184.418 8.29C184.708 8.5 185.038 8.79 185.258 9.04C185.378 9.18 185.438 9.32 185.438 9.45C185.438 9.74 185.158 9.97 184.878 9.97C184.738 9.97 184.598 9.92 184.478 9.79C184.258 9.54 183.918 9.22 183.698 9.04C183.558 8.92 183.498 8.79 183.498 8.67C183.498 8.4 183.758 8.17 184.058 8.17C184.178 8.17 184.298 8.21 184.418 8.29ZM197.938 9.6H196.648C195.658 9.6 195.308 9.21 195.308 8.49V7.15C195.308 6.43 195.658 6.04 196.648 6.04H200.158C201.148 6.04 201.498 6.43 201.498 7.15V8.49C201.498 9.21 201.148 9.6 200.158 9.6H198.998V10.81H201.488C201.758 10.81 201.898 11.05 201.898 11.29C201.898 11.53 201.758 11.77 201.488 11.77H198.998V13.39C199.478 13.47 200.018 13.5 200.648 13.5C201.248 13.5 201.808 13.47 202.458 13.41H202.518C202.848 13.41 203.028 13.66 203.028 13.93C203.028 14.17 202.878 14.41 202.548 14.44C201.928 14.5 201.288 14.52 200.668 14.52C198.288 14.52 196.908 14.02 195.988 12.69C195.648 13.39 195.238 14.04 194.818 14.52C194.678 14.68 194.518 14.74 194.368 14.74C194.088 14.74 193.838 14.53 193.838 14.26C193.838 14.14 193.888 14.01 194.008 13.88C194.728 13.08 195.348 11.83 195.638 10.59C195.698 10.33 195.918 10.21 196.138 10.21C196.408 10.21 196.688 10.38 196.688 10.68C196.688 10.72 196.678 10.76 196.668 10.81C196.598 11.12 196.498 11.43 196.388 11.74C196.558 12 196.748 12.25 196.978 12.46C197.258 12.73 197.588 12.94 197.938 13.09V9.6ZM196.808 8.66H199.998C200.358 8.66 200.438 8.57 200.438 8.33V7.33C200.438 7.09 200.358 7 199.998 7H196.808C196.448 7 196.368 7.09 196.368 7.33V8.33C196.368 8.57 196.448 8.66 196.808 8.66ZM206.108 11.47C206.108 9.88 206.208 7.98 206.318 6.51C206.338 6.17 206.618 6.01 206.898 6.01C207.198 6.01 207.478 6.18 207.478 6.51C207.478 6.62 207.458 6.88 207.448 6.99C207.348 8.47 207.268 10 207.268 11.48C207.268 12.82 207.678 13.18 208.388 13.18C209.318 13.18 210.188 12.8 211.108 11.66C211.248 11.48 211.428 11.41 211.588 11.41C211.898 11.41 212.178 11.65 212.178 11.96C212.178 12.08 212.138 12.2 212.038 12.33C210.898 13.75 209.688 14.29 208.388 14.29C206.898 14.29 206.108 13.55 206.108 11.47ZM219.322 8.01V7.99C218.122 8.15 216.532 8.39 215.092 8.6C215.052 8.61 215.022 8.61 214.992 8.61C214.632 8.61 214.432 8.32 214.432 8.04C214.432 7.78 214.592 7.54 214.952 7.49C217.032 7.23 219.612 6.94 221.692 6.75H221.752C222.102 6.75 222.292 7.01 222.292 7.28C222.292 7.52 222.142 7.76 221.832 7.82C221.482 7.88 221.102 8.01 220.732 8.22C219.172 9.11 218.842 10.15 218.842 11.1C218.842 12.21 219.612 12.89 221.012 13.06C221.382 13.11 221.552 13.38 221.552 13.65C221.552 13.95 221.332 14.24 220.962 14.24C220.812 14.24 220.402 14.18 220.222 14.14C218.742 13.77 217.682 12.67 217.682 11.13C217.682 10.08 218.192 8.9 219.322 8.01ZM224.922 7.3C224.952 6.98 225.232 6.82 225.502 6.82C225.802 6.82 226.092 7 226.092 7.35C226.092 7.49 226.052 7.98 226.052 8.29C226.052 11.79 226.762 12.71 227.182 12.71C227.422 12.71 227.642 12.55 227.832 11.8C227.912 11.5 228.122 11.37 228.342 11.37C228.632 11.37 228.912 11.58 228.912 11.91C228.912 11.97 228.912 12.02 228.892 12.08C228.522 13.42 227.882 13.91 227.212 13.91C225.762 13.91 224.882 12.12 224.882 8.32C224.882 7.86 224.902 7.56 224.922 7.3ZM231.102 8.01C231.942 8.79 232.712 10.04 233.042 11.06C233.072 11.14 233.082 11.21 233.082 11.27C233.082 11.6 232.802 11.8 232.522 11.8C232.312 11.8 232.092 11.69 231.992 11.42C231.632 10.5 230.982 9.45 230.262 8.7C230.142 8.58 230.092 8.45 230.092 8.33C230.092 8.05 230.362 7.82 230.662 7.82C230.802 7.82 230.962 7.88 231.102 8.01ZM238.502 9.53L238.522 9.56C238.942 9.39 239.392 9.31 239.792 9.31C241.352 9.31 242.372 10.16 242.372 11.55C242.372 13.3 241.112 14.42 239.162 14.42C237.792 14.42 236.922 13.72 236.922 12.83C236.922 12.08 237.422 11.55 238.312 11.55C239.272 11.55 239.942 12.19 240.232 13.19C240.852 12.89 241.202 12.31 241.202 11.56C241.202 10.85 240.642 10.28 239.682 10.28C238.672 10.28 237.692 10.63 236.462 11.58C236.322 11.69 236.172 11.74 236.042 11.74C235.732 11.74 235.482 11.48 235.482 11.19C235.482 11.03 235.552 10.86 235.732 10.72C236.892 9.82 238.182 8.49 239.112 7.34C238.622 7.42 237.972 7.49 237.472 7.53C237.432 7.53 237.172 7.56 237.042 7.56C236.722 7.56 236.542 7.29 236.542 7.02C236.542 6.77 236.702 6.52 237.032 6.5C237.842 6.46 238.902 6.33 239.862 6.18C239.912 6.17 239.952 6.17 240.002 6.17C240.412 6.17 240.692 6.46 240.692 6.8C240.692 6.95 240.632 7.11 240.512 7.27C239.922 8.03 239.162 8.9 238.502 9.53ZM239.102 13.42H239.182C239.012 12.78 238.712 12.44 238.292 12.44C238.082 12.44 237.932 12.61 237.932 12.83C237.932 13.16 238.312 13.42 239.102 13.42Z" fill="#282828"/>
<rect x="252.5" y="2" width="16" height="16" rx="4" fill="#FFF464"/>
<path d="M276.51 9.96C276.29 9 276.14 7.81 276.14 6.43C276.14 6.07 276.43 5.89 276.72 5.89C277.01 5.89 277.3 6.07 277.3 6.43C277.3 7.55 277.39 8.55 277.53 9.36C278.14 9.06 278.82 8.79 279.5 8.58C279.56 8.56 279.62 8.55 279.68 8.55C279.99 8.55 280.2 8.83 280.2 9.11C280.2 9.32 280.09 9.52 279.83 9.6C278.94 9.88 277.94 10.29 277.2 10.76C276.34 11.32 276.04 11.87 276.04 12.38C276.04 13 276.45 13.32 278.04 13.32C278.84 13.32 279.55 13.25 280.11 13.14C280.16 13.13 280.2 13.13 280.24 13.13C280.59 13.13 280.78 13.4 280.78 13.68C280.78 13.93 280.64 14.17 280.33 14.24C279.65 14.38 278.88 14.43 278.03 14.43C275.93 14.43 274.88 13.79 274.88 12.44C274.88 11.62 275.26 10.81 276.51 9.96ZM279.17 6.8C279.11 6.73 279.09 6.65 279.09 6.58C279.09 6.38 279.29 6.21 279.51 6.21C279.61 6.21 279.72 6.25 279.81 6.35C280.06 6.62 280.33 6.97 280.51 7.29C280.56 7.37 280.58 7.45 280.58 7.53C280.58 7.76 280.38 7.93 280.17 7.93C280.04 7.93 279.92 7.86 279.83 7.71C279.63 7.36 279.38 7.05 279.17 6.8ZM280.24 6.1C280.18 6.03 280.15 5.95 280.15 5.88C280.15 5.68 280.35 5.53 280.56 5.53C280.67 5.53 280.79 5.57 280.89 5.67C281.13 5.92 281.4 6.25 281.58 6.56C281.64 6.66 281.67 6.75 281.67 6.83C281.67 7.06 281.48 7.22 281.27 7.22C281.14 7.22 281 7.15 280.9 7C280.7 6.69 280.45 6.36 280.24 6.1ZM286.45 10.58L286.47 10.59C287.2 10.15 288.19 9.87 289.01 9.87C290.54 9.87 291.3 10.64 291.3 11.74C291.3 13.34 289.8 14.19 287.99 14.36C287.83 14.38 287.74 14.38 287.66 14.38C287.32 14.38 287.13 14.12 287.13 13.86C287.13 13.61 287.28 13.37 287.62 13.35C289.5 13.22 290.17 12.57 290.17 11.76C290.17 11.24 289.85 10.85 289.03 10.85C287.94 10.85 286.98 11.24 286.04 12.14C285.91 12.26 285.76 12.32 285.61 12.32C285.32 12.32 285.05 12.11 285.05 11.78C285.05 11.7 285.06 11.63 285.09 11.54C285.42 10.6 285.66 9.66 285.84 8.72C285.35 8.76 284.89 8.78 284.47 8.78C284.13 8.78 283.96 8.52 283.96 8.26C283.96 8.01 284.13 7.75 284.46 7.75C284.92 7.75 285.45 7.72 286.02 7.67C286.09 7.17 286.15 6.67 286.2 6.16C286.23 5.85 286.49 5.7 286.75 5.7C287.01 5.7 287.27 5.86 287.27 6.17V6.24C287.22 6.7 287.17 7.14 287.11 7.55C287.89 7.45 288.67 7.32 289.34 7.17C289.39 7.16 289.44 7.15 289.49 7.15C289.8 7.15 289.99 7.41 289.99 7.67C289.99 7.89 289.85 8.11 289.53 8.18C288.73 8.35 287.82 8.51 286.93 8.61C286.79 9.38 286.62 10.05 286.45 10.58ZM297.4 5.94C297.94 6.07 298.61 6.3 299.13 6.57C299.38 6.7 299.48 6.91 299.48 7.12C299.48 7.4 299.27 7.67 298.95 7.67C298.86 7.67 298.76 7.65 298.65 7.6C298.13 7.37 297.5 7.12 297.02 6.98C296.76 6.9 296.64 6.7 296.64 6.5C296.64 6.22 296.87 5.92 297.23 5.92C297.28 5.92 297.34 5.93 297.4 5.94ZM296.05 10.65L296.07 10.66C296.83 10 297.98 9.59 298.97 9.59C300.54 9.59 301.51 10.45 301.51 11.58C301.51 13.12 300.24 14.22 297.83 14.5C297.8 14.5 297.77 14.51 297.74 14.51C297.39 14.51 297.19 14.23 297.19 13.96C297.19 13.71 297.36 13.46 297.7 13.42C299.66 13.19 300.34 12.45 300.34 11.59C300.34 11.07 299.93 10.59 298.97 10.59C297.91 10.59 296.71 11.13 295.87 12.11C295.73 12.28 295.54 12.35 295.36 12.35C295.06 12.35 294.77 12.13 294.77 11.77C294.77 11.73 294.77 11.69 294.78 11.65C294.88 10.91 295.12 9.6 295.41 8.23C295.47 7.94 295.72 7.81 295.96 7.81C296.25 7.81 296.53 7.98 296.53 8.28C296.53 8.31 296.53 8.35 296.52 8.38C296.33 9.31 296.16 10.07 296.05 10.65ZM307.11 9.86C306.89 8.9 306.74 7.71 306.74 6.33C306.74 5.97 307.03 5.79 307.32 5.79C307.61 5.79 307.9 5.97 307.9 6.33C307.9 7.45 307.99 8.45 308.13 9.26C308.74 8.96 309.42 8.69 310.1 8.48C310.16 8.46 310.22 8.45 310.28 8.45C310.59 8.45 310.8 8.73 310.8 9.01C310.8 9.22 310.69 9.42 310.43 9.5C309.54 9.78 308.54 10.19 307.8 10.66C306.94 11.22 306.64 11.77 306.64 12.28C306.64 12.9 307.05 13.22 308.64 13.22C309.44 13.22 310.15 13.15 310.71 13.04C310.76 13.03 310.8 13.03 310.84 13.03C311.19 13.03 311.38 13.3 311.38 13.58C311.38 13.83 311.24 14.07 310.93 14.14C310.25 14.28 309.48 14.33 308.63 14.33C306.53 14.33 305.48 13.69 305.48 12.34C305.48 11.52 305.86 10.71 307.11 9.86ZM318.45 6.26L318.22 7.6H318.29C318.68 7.6 319.01 7.58 319.32 7.55H319.37C319.69 7.55 319.85 7.81 319.85 8.08C319.85 8.33 319.71 8.56 319.42 8.59C319.11 8.62 318.81 8.64 318.31 8.64H318.03C317.97 9.11 317.89 9.57 317.82 10.04H317.98C318.51 10.04 319.1 9.99 319.55 9.91C319.58 9.9 319.62 9.9 319.65 9.9C319.96 9.9 320.14 10.17 320.14 10.43C320.14 10.67 320.01 10.9 319.71 10.96C319.23 11.06 318.55 11.12 317.97 11.12H317.69C317.66 11.47 317.65 11.75 317.65 11.99C317.65 13.07 318.1 13.44 318.98 13.44C320.08 13.44 320.67 13.05 320.67 12.06C320.67 11.83 320.62 11.55 320.55 11.32C320.54 11.27 320.53 11.22 320.53 11.17C320.53 10.87 320.81 10.69 321.1 10.69C321.35 10.69 321.6 10.82 321.69 11.12C321.79 11.43 321.84 11.74 321.84 12.04C321.84 13.75 320.68 14.58 319 14.58C317.44 14.58 316.51 13.78 316.51 12.07C316.51 11.77 316.52 11.45 316.56 11.06C316.09 11.01 315.7 10.95 315.36 10.86C315.07 10.78 314.94 10.55 314.94 10.32C314.94 10.04 315.13 9.77 315.45 9.77C315.51 9.77 315.57 9.77 315.63 9.79C315.94 9.87 316.28 9.93 316.69 9.98C316.75 9.51 316.82 9.05 316.9 8.58C316.51 8.55 316.16 8.49 315.85 8.42C315.55 8.35 315.42 8.13 315.42 7.92C315.42 7.64 315.62 7.38 315.93 7.38C315.97 7.38 316.01 7.38 316.05 7.39C316.37 7.46 316.7 7.51 317.08 7.55L317.33 6.11C317.38 5.82 317.64 5.69 317.9 5.69C318.18 5.69 318.46 5.85 318.46 6.16C318.46 6.19 318.46 6.22 318.45 6.26ZM324.82 7.3C324.85 6.98 325.13 6.82 325.4 6.82C325.7 6.82 325.99 7 325.99 7.35C325.99 7.49 325.95 7.98 325.95 8.29C325.95 11.79 326.66 12.71 327.08 12.71C327.32 12.71 327.54 12.55 327.73 11.8C327.81 11.5 328.02 11.37 328.24 11.37C328.53 11.37 328.81 11.58 328.81 11.91C328.81 11.97 328.81 12.02 328.79 12.08C328.42 13.42 327.78 13.91 327.11 13.91C325.66 13.91 324.78 12.12 324.78 8.32C324.78 7.86 324.8 7.56 324.82 7.3ZM331 8.01C331.84 8.79 332.61 10.04 332.94 11.06C332.97 11.14 332.98 11.21 332.98 11.27C332.98 11.6 332.7 11.8 332.42 11.8C332.21 11.8 331.99 11.69 331.89 11.42C331.53 10.5 330.88 9.45 330.16 8.7C330.04 8.58 329.99 8.45 329.99 8.33C329.99 8.05 330.26 7.82 330.56 7.82C330.7 7.82 330.86 7.88 331 8.01ZM337.8 5.88C338.46 5.96 339.28 6.16 339.87 6.36C340.15 6.46 340.28 6.67 340.28 6.88C340.28 7.16 340.07 7.43 339.76 7.43C339.69 7.43 339.62 7.42 339.54 7.39C338.96 7.2 338.21 7.02 337.61 6.92C337.28 6.87 337.14 6.65 337.14 6.42C337.14 6.15 337.35 5.87 337.7 5.87C337.73 5.87 337.77 5.87 337.8 5.88ZM336.14 8.44L339.65 7.91C339.7 7.9 339.75 7.9 339.8 7.9C340.26 7.9 340.54 8.23 340.54 8.58C340.54 8.75 340.48 8.92 340.34 9.07L338.67 10.78L338.69 10.81C338.85 10.76 339 10.73 339.14 10.73C339.79 10.73 340.18 11.13 340.22 12L340.23 12.21C340.26 12.84 340.38 13.03 340.88 13.03C341.39 13.03 341.96 12.94 342.49 12.83C342.55 12.82 342.6 12.81 342.66 12.81C343 12.81 343.19 13.09 343.19 13.37C343.19 13.61 343.06 13.84 342.78 13.9C342.1 14.05 341.46 14.11 340.9 14.11C339.74 14.11 339.18 13.64 339.13 12.38L339.12 12.15C339.1 11.78 338.97 11.63 338.75 11.63C338.45 11.63 338.1 11.76 337.66 12.11C337.3 12.4 336.74 12.97 335.93 13.86C335.79 14.01 335.64 14.07 335.48 14.07C335.18 14.07 334.92 13.83 334.92 13.54C334.92 13.4 334.97 13.25 335.11 13.11L338.93 9.08L338.92 9.05L336.31 9.51C336.27 9.52 336.23 9.52 336.2 9.52C335.87 9.52 335.67 9.24 335.67 8.97C335.67 8.73 335.81 8.49 336.14 8.44ZM350.87 13C350.85 14.12 350.03 14.52 349.07 14.52C347.88 14.52 347.16 14 347.16 13.07C347.16 12.27 347.84 11.61 349.12 11.61C349.28 11.61 349.44 11.62 349.62 11.64C349.55 11.18 349.52 10.84 349.52 10.58C349.52 10.15 349.54 9.93 349.59 9.61C349.64 9.33 349.87 9.21 350.11 9.21C350.39 9.21 350.67 9.37 350.67 9.67C350.67 9.7 350.66 9.72 350.66 9.75C350.62 10.04 350.59 10.29 350.59 10.57C350.59 10.85 350.62 11.24 350.73 11.87C351.37 12.06 352.03 12.35 352.61 12.74C352.8 12.87 352.88 13.04 352.88 13.21C352.88 13.49 352.65 13.76 352.35 13.76C352.25 13.76 352.13 13.72 352.01 13.64C351.64 13.38 351.25 13.16 350.87 13ZM349.07 13.53C349.53 13.53 349.78 13.33 349.78 12.89C349.78 12.8 349.78 12.72 349.77 12.64C349.55 12.6 349.34 12.58 349.14 12.58C348.44 12.58 348.22 12.8 348.22 13.07C348.22 13.36 348.42 13.53 349.07 13.53ZM346.89 7.66C347.04 7.15 347.18 6.64 347.28 6.14C347.34 5.84 347.58 5.71 347.82 5.71C348.1 5.71 348.36 5.88 348.36 6.2C348.36 6.24 348.36 6.29 348.35 6.33C348.27 6.71 348.17 7.11 348.06 7.51C348.36 7.46 348.66 7.41 348.94 7.36C348.98 7.35 349.02 7.35 349.05 7.35C349.37 7.35 349.57 7.61 349.57 7.88C349.57 8.1 349.44 8.32 349.12 8.39C348.69 8.48 348.2 8.56 347.71 8.63C347.29 9.84 346.75 11.04 346.17 12C346.02 12.25 345.81 12.36 345.61 12.36C345.31 12.36 345.05 12.13 345.05 11.83C345.05 11.72 345.08 11.6 345.16 11.48C345.67 10.68 346.13 9.75 346.51 8.76C346.14 8.8 345.78 8.82 345.47 8.83C345.13 8.84 344.95 8.56 344.95 8.28C344.95 8.02 345.11 7.77 345.43 7.76C345.88 7.74 346.38 7.71 346.89 7.66ZM351.33 7.54C351.81 7.67 352.43 7.95 352.86 8.22C353.09 8.36 353.19 8.56 353.19 8.74C353.19 9.03 352.95 9.29 352.66 9.29C352.56 9.29 352.46 9.26 352.36 9.2C351.89 8.93 351.37 8.67 350.93 8.51C350.68 8.42 350.57 8.24 350.57 8.06C350.57 7.79 350.8 7.51 351.14 7.51C351.2 7.51 351.26 7.52 351.33 7.54ZM355.42 7.3C355.45 6.98 355.73 6.82 356 6.82C356.3 6.82 356.59 7 356.59 7.35C356.59 7.49 356.55 7.98 356.55 8.29C356.55 11.79 357.26 12.71 357.68 12.71C357.92 12.71 358.14 12.55 358.33 11.8C358.41 11.5 358.62 11.37 358.84 11.37C359.13 11.37 359.41 11.58 359.41 11.91C359.41 11.97 359.41 12.02 359.39 12.08C359.02 13.42 358.38 13.91 357.71 13.91C356.26 13.91 355.38 12.12 355.38 8.32C355.38 7.86 355.4 7.56 355.42 7.3ZM361.6 8.01C362.44 8.79 363.21 10.04 363.54 11.06C363.57 11.14 363.58 11.21 363.58 11.27C363.58 11.6 363.3 11.8 363.02 11.8C362.81 11.8 362.59 11.69 362.49 11.42C362.13 10.5 361.48 9.45 360.76 8.7C360.64 8.58 360.59 8.45 360.59 8.33C360.59 8.05 360.86 7.82 361.16 7.82C361.3 7.82 361.46 7.88 361.6 8.01Z" fill="#282828"/>
<rect x="92.5" y="30" width="16" height="16" rx="4" fill="#69BD83"/>
<path d="M113.658 40.44C113.658 39.54 114.308 38.26 116.018 37.48C116.028 37.03 116.058 36.58 116.098 36.14C115.638 36.16 115.198 36.17 114.808 36.17C114.478 36.17 114.318 35.92 114.318 35.66C114.318 35.41 114.478 35.16 114.808 35.16C115.228 35.16 115.708 35.15 116.198 35.12C116.238 34.75 116.288 34.37 116.348 33.97C116.398 33.68 116.648 33.54 116.888 33.54C117.158 33.54 117.418 33.7 117.418 33.98C117.418 34.01 117.408 34.03 117.408 34.06C117.358 34.4 117.308 34.73 117.258 35.05C117.988 34.99 118.698 34.9 119.258 34.8C119.298 34.79 119.338 34.79 119.378 34.79C119.708 34.79 119.888 35.04 119.888 35.29C119.888 35.51 119.748 35.74 119.448 35.79C118.788 35.91 117.968 36 117.138 36.07C117.118 36.42 117.078 36.78 117.058 37.14C117.538 37.03 118.038 36.98 118.528 36.98C118.568 36.85 118.608 36.72 118.638 36.58C118.698 36.33 118.918 36.22 119.138 36.22C119.398 36.22 119.658 36.38 119.658 36.66C119.658 36.7 119.648 36.74 119.638 36.79C119.608 36.89 119.588 36.99 119.558 37.09C120.938 37.41 121.728 38.44 121.728 39.63C121.728 41.09 120.728 42.18 119.058 42.59C119.008 42.6 118.948 42.61 118.898 42.61C118.578 42.61 118.368 42.34 118.368 42.06C118.368 41.85 118.498 41.63 118.798 41.54C120.068 41.15 120.598 40.5 120.598 39.64C120.598 38.95 120.148 38.25 119.248 38C118.818 39.1 118.188 40.15 117.288 40.92C117.328 41.13 117.368 41.33 117.418 41.52C117.428 41.56 117.438 41.61 117.438 41.65C117.438 41.96 117.148 42.14 116.878 42.14C116.668 42.14 116.458 42.03 116.398 41.78L116.338 41.53C115.908 41.79 115.498 41.88 115.068 41.88C114.218 41.88 113.658 41.34 113.658 40.44ZM114.718 40.37C114.718 40.69 114.798 40.83 115.138 40.84C115.438 40.84 115.728 40.75 116.148 40.48C116.058 39.83 116.008 39.18 115.998 38.53C115.078 39.13 114.708 39.8 114.718 40.37ZM117.108 39.73C117.578 39.19 117.938 38.57 118.208 37.91C117.808 37.93 117.418 37.99 117.028 38.1V38.27C117.028 38.72 117.058 39.22 117.108 39.73ZM128.398 34.09V35.08H129.038C129.618 35.08 130.168 35.09 130.678 35.1C131.018 35.11 131.188 35.37 131.188 35.64C131.188 35.9 131.018 36.15 130.678 36.15C130.288 36.14 129.858 36.13 129.408 36.13C129.088 36.13 128.758 36.14 128.418 36.14C128.418 36.49 128.428 36.84 128.448 37.19C129.108 37.15 129.748 37.1 130.328 37.03H130.408C130.758 37.03 130.938 37.28 130.938 37.54C130.938 37.78 130.778 38.03 130.448 38.07C129.838 38.15 129.178 38.2 128.508 38.24C128.528 38.68 128.568 39.12 128.608 39.56C129.458 39.78 130.308 40.15 131.118 40.65C131.358 40.8 131.458 41 131.458 41.19C131.458 41.5 131.198 41.78 130.868 41.78C130.758 41.78 130.648 41.75 130.528 41.67C129.918 41.27 129.298 40.94 128.678 40.71V40.78C128.678 41.86 127.738 42.38 126.578 42.38C125.308 42.38 124.528 41.77 124.528 40.84C124.528 39.97 125.248 39.3 126.678 39.3C126.948 39.3 127.208 39.32 127.488 39.35C127.458 38.99 127.418 38.63 127.408 38.28H126.838C126.238 38.28 125.628 38.26 125.278 38.22C124.948 38.18 124.798 37.93 124.798 37.69C124.798 37.43 124.978 37.16 125.298 37.16H125.368C125.738 37.2 126.238 37.23 126.808 37.23H127.348C127.328 36.87 127.318 36.52 127.308 36.16C126.458 36.18 125.628 36.21 124.928 36.24C124.588 36.25 124.408 35.98 124.408 35.71C124.408 35.45 124.568 35.2 124.908 35.18C125.608 35.15 126.438 35.11 127.288 35.1V34.09C127.288 33.79 127.568 33.64 127.848 33.64C128.118 33.64 128.398 33.79 128.398 34.09ZM126.578 41.35C127.248 41.35 127.578 41.04 127.578 40.62V40.4C127.268 40.34 126.978 40.31 126.678 40.31C125.898 40.31 125.668 40.55 125.668 40.85C125.668 41.12 125.928 41.35 126.578 41.35ZM136.538 38.2H136.558C136.658 37.97 136.728 37.78 136.818 37.51C136.898 37.29 137.078 37.19 137.248 37.19C137.478 37.19 137.698 37.35 137.698 37.59C137.698 37.63 137.688 37.67 137.678 37.71C137.508 38.28 137.238 38.91 136.978 39.36C136.818 39.63 136.548 39.77 136.288 39.77C136.008 39.77 135.738 39.61 135.648 39.29C135.518 38.86 135.408 38.14 135.408 37.57C135.408 36.77 135.528 35.67 135.778 34.63C135.848 34.35 136.108 34.22 136.348 34.22C136.628 34.22 136.898 34.38 136.898 34.67C136.898 34.71 136.888 34.75 136.878 34.8C136.658 35.73 136.508 36.87 136.508 37.47C136.508 37.79 136.518 38 136.538 38.2ZM139.138 34.58V34.52C139.138 34.19 139.438 34.01 139.738 34.01C140.008 34.01 140.278 34.16 140.328 34.49C140.468 35.54 140.538 36.63 140.538 37.71C140.538 39.88 139.758 41.39 138.358 42.46C138.218 42.57 138.068 42.62 137.938 42.62C137.628 42.62 137.378 42.36 137.378 42.06C137.378 41.89 137.458 41.71 137.638 41.56C138.778 40.62 139.338 39.4 139.338 37.71C139.338 36.68 139.268 35.64 139.138 34.58ZM150.008 40.63H150.118C150.288 40.63 150.328 40.6 150.328 40.42V39.57C150.328 39.32 150.538 39.19 150.738 39.19C150.948 39.19 151.148 39.32 151.148 39.57V40.51C151.148 41.21 150.928 41.41 150.258 41.41H148.788C148.118 41.41 147.898 41.21 147.898 40.51V39.57C147.898 39.32 148.108 39.19 148.308 39.19C148.518 39.19 148.718 39.32 148.718 39.57V40.42C148.718 40.6 148.758 40.63 148.928 40.63H149.028V38.71H147.898C147.678 38.71 147.608 38.77 147.608 38.97V42.34C147.608 42.62 147.348 42.77 147.088 42.77C146.828 42.77 146.568 42.62 146.568 42.34V38.83C146.568 38.16 146.938 37.85 147.708 37.85H149.028V37.19H146.498C146.238 37.19 146.098 36.97 146.098 36.75C146.098 36.53 146.238 36.31 146.498 36.31H147.958V35.57H147.058C146.798 35.57 146.658 35.35 146.658 35.13C146.658 34.91 146.798 34.69 147.058 34.69H147.958V34C147.958 33.71 148.208 33.57 148.458 33.57C148.708 33.57 148.958 33.71 148.958 34V34.69H150.088V34C150.088 33.71 150.338 33.57 150.588 33.57C150.838 33.57 151.088 33.71 151.088 34V34.69H152.038C152.308 34.69 152.448 34.91 152.448 35.13C152.448 35.35 152.308 35.57 152.038 35.57H151.088V36.31H152.558C152.828 36.31 152.968 36.53 152.968 36.75C152.968 36.97 152.828 37.19 152.558 37.19H150.008V37.85H151.338C152.108 37.85 152.478 38.16 152.478 38.83V41.68C152.478 42.38 152.128 42.67 151.548 42.67C151.328 42.67 151.118 42.66 150.958 42.64C150.658 42.61 150.518 42.39 150.518 42.17C150.518 41.94 150.678 41.71 150.958 41.71H151.028C151.108 41.72 151.188 41.73 151.288 41.73C151.398 41.73 151.438 41.69 151.438 41.53V38.97C151.438 38.77 151.368 38.71 151.148 38.71H150.008V40.63ZM150.088 35.57H148.958V36.31H150.088V35.57ZM145.008 39.35C145.088 39.11 145.288 39 145.508 39C145.788 39 146.078 39.19 146.078 39.5C146.078 39.55 146.068 39.6 146.058 39.65C145.788 40.59 145.348 41.62 144.938 42.31C144.808 42.53 144.598 42.63 144.408 42.63C144.118 42.63 143.858 42.42 143.858 42.13C143.858 42.04 143.878 41.94 143.948 41.83C144.338 41.18 144.738 40.22 145.008 39.35ZM145.158 33.88C145.438 34.09 145.738 34.37 145.958 34.62C146.068 34.75 146.118 34.89 146.118 35.01C146.118 35.31 145.858 35.54 145.578 35.54C145.438 35.54 145.298 35.48 145.178 35.34C144.948 35.09 144.658 34.79 144.438 34.6C144.298 34.48 144.248 34.35 144.248 34.23C144.248 33.97 144.498 33.75 144.788 33.75C144.908 33.75 145.038 33.79 145.158 33.88ZM144.518 36.29C144.808 36.5 145.138 36.79 145.358 37.04C145.478 37.18 145.538 37.32 145.538 37.45C145.538 37.74 145.258 37.97 144.978 37.97C144.838 37.97 144.698 37.92 144.578 37.79C144.358 37.54 144.018 37.22 143.798 37.04C143.658 36.92 143.598 36.79 143.598 36.67C143.598 36.4 143.858 36.17 144.158 36.17C144.278 36.17 144.398 36.21 144.518 36.29ZM158.038 37.6H156.748C155.758 37.6 155.408 37.21 155.408 36.49V35.15C155.408 34.43 155.758 34.04 156.748 34.04H160.258C161.248 34.04 161.598 34.43 161.598 35.15V36.49C161.598 37.21 161.248 37.6 160.258 37.6H159.098V38.81H161.588C161.858 38.81 161.998 39.05 161.998 39.29C161.998 39.53 161.858 39.77 161.588 39.77H159.098V41.39C159.578 41.47 160.118 41.5 160.748 41.5C161.348 41.5 161.908 41.47 162.558 41.41H162.618C162.948 41.41 163.128 41.66 163.128 41.93C163.128 42.17 162.978 42.41 162.648 42.44C162.028 42.5 161.388 42.52 160.768 42.52C158.388 42.52 157.008 42.02 156.088 40.69C155.748 41.39 155.338 42.04 154.918 42.52C154.778 42.68 154.618 42.74 154.468 42.74C154.188 42.74 153.938 42.53 153.938 42.26C153.938 42.14 153.988 42.01 154.108 41.88C154.828 41.08 155.448 39.83 155.738 38.59C155.798 38.33 156.018 38.21 156.238 38.21C156.508 38.21 156.788 38.38 156.788 38.68C156.788 38.72 156.778 38.76 156.768 38.81C156.698 39.12 156.598 39.43 156.488 39.74C156.658 40 156.848 40.25 157.078 40.46C157.358 40.73 157.688 40.94 158.038 41.09V37.6ZM156.908 36.66H160.098C160.458 36.66 160.538 36.57 160.538 36.33V35.33C160.538 35.09 160.458 35 160.098 35H156.908C156.548 35 156.468 35.09 156.468 35.33V36.33C156.468 36.57 156.548 36.66 156.908 36.66ZM166.208 39.47C166.208 37.88 166.308 35.98 166.418 34.51C166.438 34.17 166.718 34.01 166.998 34.01C167.298 34.01 167.578 34.18 167.578 34.51C167.578 34.62 167.558 34.88 167.548 34.99C167.448 36.47 167.368 38 167.368 39.48C167.368 40.82 167.778 41.18 168.488 41.18C169.418 41.18 170.288 40.8 171.208 39.66C171.348 39.48 171.528 39.41 171.688 39.41C171.998 39.41 172.278 39.65 172.278 39.96C172.278 40.08 172.238 40.2 172.138 40.33C170.998 41.75 169.788 42.29 168.488 42.29C166.998 42.29 166.208 41.55 166.208 39.47ZM179.422 36.01V35.99C178.222 36.15 176.632 36.39 175.192 36.6C175.152 36.61 175.122 36.61 175.092 36.61C174.732 36.61 174.532 36.32 174.532 36.04C174.532 35.78 174.692 35.54 175.052 35.49C177.132 35.23 179.712 34.94 181.792 34.75H181.852C182.202 34.75 182.392 35.01 182.392 35.28C182.392 35.52 182.242 35.76 181.932 35.82C181.582 35.88 181.202 36.01 180.832 36.22C179.272 37.11 178.942 38.15 178.942 39.1C178.942 40.21 179.712 40.89 181.112 41.06C181.482 41.11 181.652 41.38 181.652 41.65C181.652 41.95 181.432 42.24 181.062 42.24C180.912 42.24 180.502 42.18 180.322 42.14C178.842 41.77 177.782 40.67 177.782 39.13C177.782 38.08 178.292 36.9 179.422 36.01ZM185.022 35.3C185.052 34.98 185.332 34.82 185.602 34.82C185.902 34.82 186.192 35 186.192 35.35C186.192 35.49 186.152 35.98 186.152 36.29C186.152 39.79 186.862 40.71 187.282 40.71C187.522 40.71 187.742 40.55 187.932 39.8C188.012 39.5 188.222 39.37 188.442 39.37C188.732 39.37 189.012 39.58 189.012 39.91C189.012 39.97 189.012 40.02 188.992 40.08C188.622 41.42 187.982 41.91 187.312 41.91C185.862 41.91 184.982 40.12 184.982 36.32C184.982 35.86 185.002 35.56 185.022 35.3ZM191.202 36.01C192.042 36.79 192.812 38.04 193.142 39.06C193.172 39.14 193.182 39.21 193.182 39.27C193.182 39.6 192.902 39.8 192.622 39.8C192.412 39.8 192.192 39.69 192.092 39.42C191.732 38.5 191.082 37.45 190.362 36.7C190.242 36.58 190.192 36.45 190.192 36.33C190.192 36.05 190.462 35.82 190.762 35.82C190.902 35.82 191.062 35.88 191.202 36.01ZM200.872 41C200.852 42.12 200.032 42.52 199.072 42.52C197.882 42.52 197.162 42 197.162 41.07C197.162 40.27 197.842 39.61 199.122 39.61C199.282 39.61 199.442 39.62 199.622 39.64C199.552 39.18 199.522 38.84 199.522 38.58C199.522 38.15 199.542 37.93 199.592 37.61C199.642 37.33 199.872 37.21 200.112 37.21C200.392 37.21 200.672 37.37 200.672 37.67C200.672 37.7 200.662 37.72 200.662 37.75C200.622 38.04 200.592 38.29 200.592 38.57C200.592 38.85 200.622 39.24 200.732 39.87C201.372 40.06 202.032 40.35 202.612 40.74C202.802 40.87 202.882 41.04 202.882 41.21C202.882 41.49 202.652 41.76 202.352 41.76C202.252 41.76 202.132 41.72 202.012 41.64C201.642 41.38 201.252 41.16 200.872 41ZM199.072 41.53C199.532 41.53 199.782 41.33 199.782 40.89C199.782 40.8 199.782 40.72 199.772 40.64C199.552 40.6 199.342 40.58 199.142 40.58C198.442 40.58 198.222 40.8 198.222 41.07C198.222 41.36 198.422 41.53 199.072 41.53ZM196.892 35.66C197.042 35.15 197.182 34.64 197.282 34.14C197.342 33.84 197.582 33.71 197.822 33.71C198.102 33.71 198.362 33.88 198.362 34.2C198.362 34.24 198.362 34.29 198.352 34.33C198.272 34.71 198.172 35.11 198.062 35.51C198.362 35.46 198.662 35.41 198.942 35.36C198.982 35.35 199.022 35.35 199.052 35.35C199.372 35.35 199.572 35.61 199.572 35.88C199.572 36.1 199.442 36.32 199.122 36.39C198.692 36.48 198.202 36.56 197.712 36.63C197.292 37.84 196.752 39.04 196.172 40C196.022 40.25 195.812 40.36 195.612 40.36C195.312 40.36 195.052 40.13 195.052 39.83C195.052 39.72 195.082 39.6 195.162 39.48C195.672 38.68 196.132 37.75 196.512 36.76C196.142 36.8 195.782 36.82 195.472 36.83C195.132 36.84 194.952 36.56 194.952 36.28C194.952 36.02 195.112 35.77 195.432 35.76C195.882 35.74 196.382 35.71 196.892 35.66ZM201.332 35.54C201.812 35.67 202.432 35.95 202.862 36.22C203.092 36.36 203.192 36.56 203.192 36.74C203.192 37.03 202.952 37.29 202.662 37.29C202.562 37.29 202.462 37.26 202.362 37.2C201.892 36.93 201.372 36.67 200.932 36.51C200.682 36.42 200.572 36.24 200.572 36.06C200.572 35.79 200.802 35.51 201.142 35.51C201.202 35.51 201.262 35.52 201.332 35.54ZM205.422 35.3C205.452 34.98 205.732 34.82 206.002 34.82C206.302 34.82 206.592 35 206.592 35.35C206.592 35.49 206.552 35.98 206.552 36.29C206.552 39.79 207.262 40.71 207.682 40.71C207.922 40.71 208.142 40.55 208.332 39.8C208.412 39.5 208.622 39.37 208.842 39.37C209.132 39.37 209.412 39.58 209.412 39.91C209.412 39.97 209.412 40.02 209.392 40.08C209.022 41.42 208.382 41.91 207.712 41.91C206.262 41.91 205.382 40.12 205.382 36.32C205.382 35.86 205.402 35.56 205.422 35.3ZM211.602 36.01C212.442 36.79 213.212 38.04 213.542 39.06C213.572 39.14 213.582 39.21 213.582 39.27C213.582 39.6 213.302 39.8 213.022 39.8C212.812 39.8 212.592 39.69 212.492 39.42C212.132 38.5 211.482 37.45 210.762 36.7C210.642 36.58 210.592 36.45 210.592 36.33C210.592 36.05 210.862 35.82 211.162 35.82C211.302 35.82 211.462 35.88 211.602 36.01Z" fill="#282828"/>
<rect x="222.5" y="30" width="16" height="16" rx="4" fill="#808080"/>
<path d="M249.708 40.63H249.818C249.988 40.63 250.028 40.6 250.028 40.42V39.57C250.028 39.32 250.238 39.19 250.438 39.19C250.648 39.19 250.848 39.32 250.848 39.57V40.51C250.848 41.21 250.628 41.41 249.958 41.41H248.488C247.818 41.41 247.598 41.21 247.598 40.51V39.57C247.598 39.32 247.808 39.19 248.008 39.19C248.218 39.19 248.418 39.32 248.418 39.57V40.42C248.418 40.6 248.458 40.63 248.628 40.63H248.728V38.71H247.598C247.378 38.71 247.308 38.77 247.308 38.97V42.34C247.308 42.62 247.048 42.77 246.788 42.77C246.528 42.77 246.268 42.62 246.268 42.34V38.83C246.268 38.16 246.638 37.85 247.408 37.85H248.728V37.19H246.198C245.938 37.19 245.798 36.97 245.798 36.75C245.798 36.53 245.938 36.31 246.198 36.31H247.658V35.57H246.758C246.498 35.57 246.358 35.35 246.358 35.13C246.358 34.91 246.498 34.69 246.758 34.69H247.658V34C247.658 33.71 247.908 33.57 248.158 33.57C248.408 33.57 248.658 33.71 248.658 34V34.69H249.788V34C249.788 33.71 250.038 33.57 250.288 33.57C250.538 33.57 250.788 33.71 250.788 34V34.69H251.738C252.008 34.69 252.148 34.91 252.148 35.13C252.148 35.35 252.008 35.57 251.738 35.57H250.788V36.31H252.258C252.528 36.31 252.668 36.53 252.668 36.75C252.668 36.97 252.528 37.19 252.258 37.19H249.708V37.85H251.038C251.808 37.85 252.178 38.16 252.178 38.83V41.68C252.178 42.38 251.828 42.67 251.248 42.67C251.028 42.67 250.818 42.66 250.658 42.64C250.358 42.61 250.218 42.39 250.218 42.17C250.218 41.94 250.378 41.71 250.658 41.71H250.728C250.808 41.72 250.888 41.73 250.988 41.73C251.098 41.73 251.138 41.69 251.138 41.53V38.97C251.138 38.77 251.068 38.71 250.848 38.71H249.708V40.63ZM249.788 35.57H248.658V36.31H249.788V35.57ZM244.708 39.35C244.788 39.11 244.988 39 245.208 39C245.488 39 245.778 39.19 245.778 39.5C245.778 39.55 245.768 39.6 245.758 39.65C245.488 40.59 245.048 41.62 244.638 42.31C244.508 42.53 244.298 42.63 244.108 42.63C243.818 42.63 243.558 42.42 243.558 42.13C243.558 42.04 243.578 41.94 243.648 41.83C244.038 41.18 244.438 40.22 244.708 39.35ZM244.858 33.88C245.138 34.09 245.438 34.37 245.658 34.62C245.768 34.75 245.818 34.89 245.818 35.01C245.818 35.31 245.558 35.54 245.278 35.54C245.138 35.54 244.998 35.48 244.878 35.34C244.648 35.09 244.358 34.79 244.138 34.6C243.998 34.48 243.948 34.35 243.948 34.23C243.948 33.97 244.198 33.75 244.488 33.75C244.608 33.75 244.738 33.79 244.858 33.88ZM244.218 36.29C244.508 36.5 244.838 36.79 245.058 37.04C245.178 37.18 245.238 37.32 245.238 37.45C245.238 37.74 244.958 37.97 244.678 37.97C244.538 37.97 244.398 37.92 244.278 37.79C244.058 37.54 243.718 37.22 243.498 37.04C243.358 36.92 243.298 36.79 243.298 36.67C243.298 36.4 243.558 36.17 243.858 36.17C243.978 36.17 244.098 36.21 244.218 36.29ZM257.738 37.6H256.448C255.458 37.6 255.108 37.21 255.108 36.49V35.15C255.108 34.43 255.458 34.04 256.448 34.04H259.958C260.948 34.04 261.298 34.43 261.298 35.15V36.49C261.298 37.21 260.948 37.6 259.958 37.6H258.798V38.81H261.288C261.558 38.81 261.698 39.05 261.698 39.29C261.698 39.53 261.558 39.77 261.288 39.77H258.798V41.39C259.278 41.47 259.818 41.5 260.448 41.5C261.048 41.5 261.608 41.47 262.258 41.41H262.318C262.648 41.41 262.828 41.66 262.828 41.93C262.828 42.17 262.678 42.41 262.348 42.44C261.728 42.5 261.088 42.52 260.468 42.52C258.088 42.52 256.708 42.02 255.788 40.69C255.448 41.39 255.038 42.04 254.618 42.52C254.478 42.68 254.318 42.74 254.168 42.74C253.888 42.74 253.638 42.53 253.638 42.26C253.638 42.14 253.688 42.01 253.808 41.88C254.528 41.08 255.148 39.83 255.438 38.59C255.498 38.33 255.718 38.21 255.938 38.21C256.208 38.21 256.488 38.38 256.488 38.68C256.488 38.72 256.478 38.76 256.468 38.81C256.398 39.12 256.298 39.43 256.188 39.74C256.358 40 256.548 40.25 256.778 40.46C257.058 40.73 257.388 40.94 257.738 41.09V37.6ZM256.608 36.66H259.798C260.158 36.66 260.238 36.57 260.238 36.33V35.33C260.238 35.09 260.158 35 259.798 35H256.608C256.248 35 256.168 35.09 256.168 35.33V36.33C256.168 36.57 256.248 36.66 256.608 36.66ZM265.908 39.47C265.908 37.88 266.008 35.98 266.118 34.51C266.138 34.17 266.418 34.01 266.698 34.01C266.998 34.01 267.278 34.18 267.278 34.51C267.278 34.62 267.258 34.88 267.248 34.99C267.148 36.47 267.068 38 267.068 39.48C267.068 40.82 267.478 41.18 268.188 41.18C269.118 41.18 269.988 40.8 270.908 39.66C271.048 39.48 271.228 39.41 271.388 39.41C271.698 39.41 271.978 39.65 271.978 39.96C271.978 40.08 271.938 40.2 271.838 40.33C270.698 41.75 269.488 42.29 268.188 42.29C266.698 42.29 265.908 41.55 265.908 39.47ZM279.122 36.01V35.99C277.922 36.15 276.332 36.39 274.892 36.6C274.852 36.61 274.822 36.61 274.792 36.61C274.432 36.61 274.232 36.32 274.232 36.04C274.232 35.78 274.392 35.54 274.752 35.49C276.832 35.23 279.412 34.94 281.492 34.75H281.552C281.902 34.75 282.092 35.01 282.092 35.28C282.092 35.52 281.942 35.76 281.632 35.82C281.282 35.88 280.902 36.01 280.532 36.22C278.972 37.11 278.642 38.15 278.642 39.1C278.642 40.21 279.412 40.89 280.812 41.06C281.182 41.11 281.352 41.38 281.352 41.65C281.352 41.95 281.132 42.24 280.762 42.24C280.612 42.24 280.202 42.18 280.022 42.14C278.542 41.77 277.482 40.67 277.482 39.13C277.482 38.08 277.992 36.9 279.122 36.01ZM284.722 35.3C284.752 34.98 285.032 34.82 285.302 34.82C285.602 34.82 285.892 35 285.892 35.35C285.892 35.49 285.852 35.98 285.852 36.29C285.852 39.79 286.562 40.71 286.982 40.71C287.222 40.71 287.442 40.55 287.632 39.8C287.712 39.5 287.922 39.37 288.142 39.37C288.432 39.37 288.712 39.58 288.712 39.91C288.712 39.97 288.712 40.02 288.692 40.08C288.322 41.42 287.682 41.91 287.012 41.91C285.562 41.91 284.682 40.12 284.682 36.32C284.682 35.86 284.702 35.56 284.722 35.3ZM290.902 36.01C291.742 36.79 292.512 38.04 292.842 39.06C292.872 39.14 292.882 39.21 292.882 39.27C292.882 39.6 292.602 39.8 292.322 39.8C292.112 39.8 291.892 39.69 291.792 39.42C291.432 38.5 290.782 37.45 290.062 36.7C289.942 36.58 289.892 36.45 289.892 36.33C289.892 36.05 290.162 35.82 290.462 35.82C290.602 35.82 290.762 35.88 290.902 36.01ZM300.572 41C300.552 42.12 299.732 42.52 298.772 42.52C297.582 42.52 296.862 42 296.862 41.07C296.862 40.27 297.542 39.61 298.822 39.61C298.982 39.61 299.142 39.62 299.322 39.64C299.252 39.18 299.222 38.84 299.222 38.58C299.222 38.15 299.242 37.93 299.292 37.61C299.342 37.33 299.572 37.21 299.812 37.21C300.092 37.21 300.372 37.37 300.372 37.67C300.372 37.7 300.362 37.72 300.362 37.75C300.322 38.04 300.292 38.29 300.292 38.57C300.292 38.85 300.322 39.24 300.432 39.87C301.072 40.06 301.732 40.35 302.312 40.74C302.502 40.87 302.582 41.04 302.582 41.21C302.582 41.49 302.352 41.76 302.052 41.76C301.952 41.76 301.832 41.72 301.712 41.64C301.342 41.38 300.952 41.16 300.572 41ZM298.772 41.53C299.232 41.53 299.482 41.33 299.482 40.89C299.482 40.8 299.482 40.72 299.472 40.64C299.252 40.6 299.042 40.58 298.842 40.58C298.142 40.58 297.922 40.8 297.922 41.07C297.922 41.36 298.122 41.53 298.772 41.53ZM296.592 35.66C296.742 35.15 296.882 34.64 296.982 34.14C297.042 33.84 297.282 33.71 297.522 33.71C297.802 33.71 298.062 33.88 298.062 34.2C298.062 34.24 298.062 34.29 298.052 34.33C297.972 34.71 297.872 35.11 297.762 35.51C298.062 35.46 298.362 35.41 298.642 35.36C298.682 35.35 298.722 35.35 298.752 35.35C299.072 35.35 299.272 35.61 299.272 35.88C299.272 36.1 299.142 36.32 298.822 36.39C298.392 36.48 297.902 36.56 297.412 36.63C296.992 37.84 296.452 39.04 295.872 40C295.722 40.25 295.512 40.36 295.312 40.36C295.012 40.36 294.752 40.13 294.752 39.83C294.752 39.72 294.782 39.6 294.862 39.48C295.372 38.68 295.832 37.75 296.212 36.76C295.842 36.8 295.482 36.82 295.172 36.83C294.832 36.84 294.652 36.56 294.652 36.28C294.652 36.02 294.812 35.77 295.132 35.76C295.582 35.74 296.082 35.71 296.592 35.66ZM301.032 35.54C301.512 35.67 302.132 35.95 302.562 36.22C302.792 36.36 302.892 36.56 302.892 36.74C302.892 37.03 302.652 37.29 302.362 37.29C302.262 37.29 302.162 37.26 302.062 37.2C301.592 36.93 301.072 36.67 300.632 36.51C300.382 36.42 300.272 36.24 300.272 36.06C300.272 35.79 300.502 35.51 300.842 35.51C300.902 35.51 300.962 35.52 301.032 35.54ZM305.122 35.3C305.152 34.98 305.432 34.82 305.702 34.82C306.002 34.82 306.292 35 306.292 35.35C306.292 35.49 306.252 35.98 306.252 36.29C306.252 39.79 306.962 40.71 307.382 40.71C307.622 40.71 307.842 40.55 308.032 39.8C308.112 39.5 308.322 39.37 308.542 39.37C308.832 39.37 309.112 39.58 309.112 39.91C309.112 39.97 309.112 40.02 309.092 40.08C308.722 41.42 308.082 41.91 307.412 41.91C305.962 41.91 305.082 40.12 305.082 36.32C305.082 35.86 305.102 35.56 305.122 35.3ZM311.302 36.01C312.142 36.79 312.912 38.04 313.242 39.06C313.272 39.14 313.282 39.21 313.282 39.27C313.282 39.6 313.002 39.8 312.722 39.8C312.512 39.8 312.292 39.69 312.192 39.42C311.832 38.5 311.182 37.45 310.462 36.7C310.342 36.58 310.292 36.45 310.292 36.33C310.292 36.05 310.562 35.82 310.862 35.82C311.002 35.82 311.162 35.88 311.302 36.01Z" fill="#282828"/>
</svg>
