<?xml version="1.0" encoding="UTF-8"?>
<svg id="_レイヤー_1" data-name="レイヤー_1" xmlns="http://www.w3.org/2000/svg" version="1.1" viewBox="0 0 320 64">
  <!-- Generator: Adobe Illustrator 30.1.0, SVG Export Plug-In . SVG Version: 2.1.1 Build 136)  -->
  <polygon points="320 0 292 0 28 0 0 0 10 32 0 64 28 64 292 64 320 64 310 32 320 0" fill="#69bd83"/>
  <path d="M73.7,24.2l1.2,1.3c.2.2.3.4.3.7,0,.5-.4.9-.9.9s-.5-.1-.7-.4l-1.2-1.3c-.8.5-1.7.8-2.7.8-2.9,0-5.3-2.2-5.3-6.3s2.4-6.3,5.3-6.3,5.3,2.2,5.3,6.3-.5,3.3-1.3,4.4ZM71.2,21.4l1.2,1.3c.4-.8.6-1.8.6-3,0-2.8-1.2-4.6-3.3-4.6s-3.3,1.8-3.3,4.6,1.2,4.7,3.3,4.7,1.1-.1,1.6-.4l-1.4-1.5c-.2-.2-.2-.4-.2-.6,0-.5.4-.9,1-.9s.4.1.7.4ZM81.8,23.2h-3.8c-.8,0-1.2-.4-1.2-1.1s0-.7.4-1.2l3.7-6.2c.4-.7.8-.9,1.5-.9s1.2.5,1.2,1.4v6.5h1c.6,0,.8.3.8.7s-.3.8-.8.8h-1v1.9c0,.6-.3.9-.9.9s-.9-.3-.9-.9v-1.9ZM81.8,21.7v-2.9c0-1.1,0-2.1.1-3.2h-.1c-.4.9-.9,1.9-1.4,2.8l-1.9,3.3h3.3ZM88.7,23.6c.7,0,1.2.5,1.2,1.2s-.5,1.2-1.2,1.2-1.2-.5-1.2-1.2.5-1.2,1.2-1.2ZM96.5,14.5c.8.2,1.9.3,3.1.3s2.2-.1,3-.2c0,0,0,0,.1,0,.6,0,.9.4.9.9s-.2.8-.7.9c-1,.2-2.1.2-3.3.2s-2.5,0-3.5-.3c-.5,0-.7-.5-.7-.9s.3-.9.8-.9.1,0,.2,0ZM99.6,26c-3.9,0-5.4-1.1-5.4-3.3s0-.8.2-1.2c.1-.4.5-.6.9-.6s.9.3.9.7,0,.1,0,.2c0,.2,0,.6,0,.8,0,1,.5,1.6,3.5,1.6s3-.2,4.4-.5c0,0,.2,0,.3,0,.5,0,.8.4.8.9s-.2.8-.8.9c-1.4.3-3,.5-4.7.5ZM112.4,24.9c-1.6,0-3-1.3-3-3.8,0-3.6,3-6.6,7.4-6.6s6.2,2.4,6.2,5.6-1.7,5-4.5,5.9c-.1,0-.3,0-.4,0-.5,0-.9-.4-.9-.9s.2-.7.7-.9c2.3-.8,3.2-2.2,3.2-4.2s-1.4-3.8-3.9-4c-.2,2.7-.8,5.1-1.8,6.8-.9,1.6-1.8,2-3.1,2ZM115.4,16.2c-2.4.5-4.1,2.5-4.1,4.9s.6,2,1.2,2,.9-.3,1.4-1.1c.8-1.4,1.4-3.5,1.6-5.8ZM139.1,12c1,0,1.7.8,1.7,1.7s-.8,1.7-1.7,1.7-1.7-.8-1.7-1.7.8-1.7,1.7-1.7ZM139.1,12.8c-.5,0-.9.4-.9.9s.4.9.9.9.9-.4.9-.9-.4-.9-.9-.9ZM127.7,15.2h8.2c1.7,0,2.3.5,2.3,1.6s0,.6-.1.9c-.9,3.8-3.7,7.1-7.4,8.9-.2,0-.4.1-.5.1-.5,0-.9-.4-.9-.9s.2-.6.6-.8c3.5-1.8,5.5-4.4,6.4-7.3,0-.1,0-.2,0-.3,0-.3-.2-.4-.7-.4h-7.7c-.6,0-.9-.4-.9-.8s.3-.9.8-.9ZM151.6,25.5h-6.2c-1.8,0-2.6-.8-2.6-2.3v-6c0-1.5.8-2.3,2.6-2.3h6.2c1.8,0,2.6.8,2.6,2.3v6c0,1.5-.8,2.3-2.6,2.3ZM145.7,23.7h5.7c.7,0,1-.2,1-.8v-5.5c0-.5-.2-.8-1-.8h-5.7c-.7,0-1,.2-1,.8v5.5c0,.5.2.8,1,.8ZM164.7,15.7h3c1.3,0,2,.5,2,1.4s0,.5-.1.8c-1.1,3.7-3.8,7.1-7.3,9.1-.2.1-.4.1-.5.1-.5,0-.9-.4-.9-.9s.2-.6.6-.9c3.2-1.9,5.3-4.6,6.3-7.6,0,0,0-.2,0-.2,0-.2-.1-.3-.4-.3h-3.6c-.8,1.2-1.7,2.3-2.6,3.1-.2.2-.5.3-.7.3-.5,0-.9-.4-.9-.8s.1-.5.4-.8c1.5-1.4,3-3.5,3.9-5.5.2-.4.5-.6.9-.6s.9.3.9.8,0,.2,0,.4c-.2.5-.4,1-.7,1.5ZM168.8,14.1c0-.1-.1-.2-.1-.4,0-.3.3-.6.7-.6s.3,0,.5.2c.4.4.8,1,1.1,1.5,0,.1.1.3.1.4,0,.4-.3.6-.7.6s-.4-.1-.5-.4c-.3-.6-.7-1.1-1.1-1.5ZM170.5,13c0-.1-.1-.2-.1-.4,0-.3.3-.6.7-.6s.4,0,.5.2c.4.4.8.9,1.1,1.4,0,.2.1.3.1.4,0,.4-.3.6-.6.6s-.4-.1-.6-.4c-.3-.5-.7-1-1.1-1.4ZM178.4,14h7c.5,0,.8.4.8.9s-.3.9-.8.9h-7c-.5,0-.8-.4-.8-.9s.3-.9.8-.9ZM176.8,17.6h8.4c1.5,0,2.2.5,2.2,1.5s0,.6-.2.9c-1,3-3.6,5.3-6.7,6.6-.1,0-.3,0-.4,0-.5,0-.9-.5-.9-.9s.2-.7.7-.9c2.8-1.1,4.7-2.9,5.5-5,0-.1,0-.2,0-.3,0-.2-.2-.3-.5-.3h-8.1c-.5,0-.8-.3-.8-.8s.3-.9.8-.9ZM196.2,23.7c1.9-.2,3.7-.4,5.6-.7-.5-.8-1-1.5-1.5-2.2-.1-.2-.2-.4-.2-.5,0-.4.4-.8.9-.8s.6.1.8.4c1.2,1.4,2.5,3.4,3.2,5,0,.2.1.3.1.5,0,.6-.5.9-1,.9s-.7-.2-.8-.6c-.2-.4-.4-.8-.6-1.2-2.8.6-6.2,1-9.1,1.2-.3,0-.6,0-.7,0-.6,0-.9-.4-.9-.9s.3-.9.8-.9c.4,0,.9,0,1.4,0,1.2-3.2,2.4-6.7,3.1-9.7.1-.5.5-.7.9-.7s1,.3,1,.9,0,.2,0,.2c-.7,2.9-1.8,6.2-3,9.1ZM212.6,18.4h0c.4-.1.9-.2,1.4-.2,1.1,0,1.8.3,2.2,1.5,1.2-.5,2.6-1,4-1.4.1,0,.2,0,.3,0,.5,0,.8.4.8.9s-.2.7-.6.8c-1.4.4-2.8.9-4.2,1.4,0,.6.1,1.3.1,2.1,0,.5-.4.8-.9.8s-.8-.2-.8-.7c0-.6,0-1.1,0-1.6-1.7.8-2,1.6-2,2.2s.6,1,2.4,1,2.1,0,3.1-.3c0,0,.1,0,.2,0,.5,0,.9.4.9.9s-.3.8-.8.9c-1,.2-2.2.3-3.3.3-3,0-4.3-1-4.3-2.6s.8-2.5,3.6-3.9c-.2-.6-.5-.7-1.1-.7s-1.8.4-3.3,1.6c-.2.1-.4.2-.6.2-.5,0-.9-.4-.9-.8s.1-.5.4-.7c1-.9,1.9-1.9,2.7-3.1-.6,0-1.2,0-1.7,0-.6,0-.9-.4-.9-.8s.3-.8.9-.8,1.6,0,2.6-.1c.3-.6.5-1.3.7-1.9.1-.4.5-.6.8-.6s.9.3.9.7,0,.2,0,.2c-.1.4-.3.9-.5,1.3.8,0,1.6-.2,2.3-.3,0,0,.1,0,.2,0,.5,0,.8.4.8.8s-.2.7-.7.8c-1,.2-2.2.4-3.4.5-.4.7-.8,1.3-1.2,1.8ZM232.4,15.4c.7,4,2.4,7.6,6.1,9.6.4.2.5.5.5.8,0,.5-.4.9-.9.9s-.3,0-.5-.1c-2.7-1.5-4.8-4.2-5.8-7.6-.4,1.6-1,2.9-2,4.2-1,1.4-2.6,2.7-4,3.5-.2.1-.4.2-.6.2-.5,0-.8-.4-.8-.9s.1-.6.5-.8c1.3-.7,2.6-1.8,3.6-3.1,1.4-1.9,2.1-4.3,2.1-8.5s.5-.8.9-.8.9.3.9.8,0,1.2,0,1.7ZM243.2,14.5c0-.5.5-.7.9-.7s.9.3.9.8,0,.1,0,.2c-.5,2.6-.7,4.8-.7,7.1s.2,2.8.3,3.8c0,0,0,0,0,.1,0,.5-.5.8-.9.8s-.8-.2-.9-.8c-.1-1-.3-2.6-.3-4,0-2.4.2-4.5.8-7.4ZM252.9,15.2h.1c.6,0,.9.4.9.8s-.3.8-.8.9c-1.4.2-3,.3-4.5.4-.6,0-.9-.4-.9-.9s.3-.8.9-.9c1.5,0,3-.2,4.4-.4ZM248.7,22.3c.1,1,.6,1.4,2.6,1.4s1.6,0,2.4-.2c0,0,.1,0,.2,0,.5,0,.8.4.8.9s-.2.8-.7.8c-.9.2-1.9.3-2.8.3-3,0-4.2-.9-4.4-2.8h0c0-.7.5-1,.9-1s.8.2.8.7ZM51.3,41.3v2.4c.9-.2,1.8-.3,2.7-.3,2.6,0,4.2,1.2,4.2,3.2s-1.4,3.4-3.7,3.7c0,0-.1,0-.2,0-.5,0-.8-.4-.8-.9s.2-.7.7-.8c1.6-.3,2.2-1,2.2-2s-.8-1.6-2.3-1.6-1.9.2-2.8.4v2.8c0,1.7-.7,2.3-2.2,2.3s-3-1.1-3-2.5.7-2.4,3.5-3.7v-2.7c-.8,0-1.6.1-2.2.1-.5,0-.8-.4-.8-.8s.3-.8.8-.8c.6,0,1.4,0,2.2-.2v-2.4c0-.5.4-.8.9-.8s.9.3.9.8v2.2c.5,0,1.1-.2,1.5-.3,0,0,.2,0,.3,0,.5,0,.8.4.8.8s-.2.7-.7.8c-.6.1-1.3.3-2,.4ZM49.6,48.1v-2.1c-1.4.8-1.7,1.3-1.7,1.9s.6.8,1.2.8c.5,0,.5-.3.5-.7ZM56.6,38.9c.7.4,1.6,1,2.3,1.6.3.2.4.5.4.8,0,.5-.4.9-.9.9s-.4,0-.7-.3c-.5-.5-1.3-1.1-1.9-1.4-.3-.2-.4-.4-.4-.7,0-.5.4-.9.9-.9s.3,0,.4.1ZM69.6,47.3h0c-.3.2-.7.4-1.2.4-1.6,0-2.7-1.1-2.7-2.9s1-2.7,2.5-2.7.7,0,1,.1v-1.3c-1.2,0-3.9.2-5.6.3-.2,0-.5,0-.7,0-.5,0-.8-.5-.8-.9s.3-.8.8-.9c1.9-.1,4.1-.2,6.3-.3,0-.6,0-1.2,0-2s.4-.8.9-.8.9.3.9.8v1.9c1.7,0,3.3,0,4.7,0s.8.4.8.9-.3.8-.8.8c-1.4,0-3.1,0-4.7,0,0,.9,0,1.8.1,2.8.4.6.5,1.3.5,2.1,0,2.5-1.3,4.3-3.6,5.3-.2,0-.3,0-.4,0-.5,0-.9-.4-.9-.9s.2-.6.6-.8c1.3-.6,2.2-1.5,2.5-2.2ZM68.3,43.7c-.5,0-.9.4-.9,1.1s.6,1.3,1.1,1.3.9-.4.9-1.1-.4-1.3-1.1-1.3ZM86.3,47.3h0c-.3.2-.7.4-1.2.4-1.6,0-2.7-1.1-2.7-2.9s1-2.7,2.5-2.7.7,0,1,.1v-1.3c-1.2,0-3.9.2-5.6.3-.2,0-.5,0-.7,0-.5,0-.8-.5-.8-.9s.3-.8.8-.9c1.9-.1,4.1-.2,6.3-.3,0-.6,0-1.2,0-2s.4-.8.9-.8.9.3.9.8v1.9c1.7,0,3.3,0,4.7,0s.8.4.8.9-.3.8-.8.8c-1.4,0-3.1,0-4.7,0,0,.9,0,1.8.1,2.8.4.6.5,1.3.5,2.1,0,2.5-1.3,4.3-3.6,5.3-.2,0-.3,0-.4,0-.5,0-.9-.4-.9-.9s.2-.6.6-.8c1.3-.6,2.2-1.5,2.5-2.2ZM85,43.7c-.5,0-.9.4-.9,1.1s.6,1.3,1.1,1.3.9-.4.9-1.1-.4-1.3-1.1-1.3ZM101,46.9c.2.4.4.8.6,1.2,0,.2.1.3.1.4,0,.5-.4.8-.9.8s-.5-.1-.7-.5c-.1-.2-.3-.5-.4-.8-.9.8-1.6,1-2.4,1-1.3,0-2.2-.8-2.2-2.4s.7-3.2,2.5-4.7c-.2-1-.4-2-.5-2.9h0c0-.6.4-.9.9-.9s.8.2.8.7c0,.7.2,1.4.4,2.1,1-.5,2-.8,3.1-.9.1-.6.2-1.3.3-2,0-.5.5-.7.9-.7s.9.3.9.8h0c0,.7-.2,1.3-.3,1.9,2.7.3,4.4,2.1,4.4,4.6s-1.5,4.6-4.1,5.4c-.1,0-.2,0-.4,0-.6,0-.9-.5-.9-.9s.2-.7.7-.9c2-.7,2.9-1.8,2.9-3.7s-1-2.9-2.9-3.1c-.6,1.9-1.4,3.7-2.6,5.2ZM100.3,45.2c.7-1.1,1.2-2.3,1.5-3.5-.8.2-1.6.4-2.3.9.2.9.5,1.7.8,2.6ZM99,46.5c-.4-.9-.7-1.9-1-2.9-.9.9-1.3,1.9-1.3,2.8s.3,1,.6,1,.9-.2,1.7-.9ZM114.4,46c0-2.5.2-5.6.3-7.9,0-.5.5-.8.9-.8s.9.3.9.8,0,.6,0,.8c-.2,2.4-.3,4.8-.3,7.2s.7,2.7,1.8,2.7,2.9-.6,4.4-2.4c.2-.3.5-.4.8-.4.5,0,.9.4.9.9s0,.4-.2.6c-1.8,2.3-3.8,3.1-5.8,3.1s-3.6-1.2-3.6-4.5ZM131.1,41.8c-.7,0-1.3.2-2,.2s-.8-.4-.8-.8.3-.8.8-.9c.6,0,1.4-.1,2.3-.3.1-.9.2-1.6.3-2.5,0-.5.5-.7.9-.7s.9.3.9.8h0c0,.9-.2,1.4-.3,2,.4,0,.9-.2,1.4-.3,0,0,.2,0,.2,0,.5,0,.8.4.8.8s-.2.7-.6.8c-.7.2-1.4.4-2.1.5-.6,3.1-1.3,6.1-2.2,8.4-.2.5-.6.7-1,.7s-.9-.3-.9-.8,0-.3,0-.4c.9-2.2,1.6-4.7,2.1-7.5ZM134.3,47.3c0-.5.4-.8.9-.8s.7.2.8.7c.1,1,.7,1.3,2.4,1.3s1.5,0,2.1-.2c0,0,.1,0,.2,0,.5,0,.8.5.8.9s-.2.8-.7.8c-.7.1-1.5.2-2.4.2-2.2,0-3.2-.6-3.7-1.4-.3-.4-.4-1-.4-1.5ZM135.9,42.1c1.2-.3,2.8-.4,4.1-.4s.9.4.9.9-.3.8-.8.8c-1.3,0-2.8.2-3.9.4,0,0-.1,0-.2,0-.5,0-.8-.4-.8-.8s.2-.7.7-.8ZM145.5,39.3c0-.5.5-.8.9-.8s.9.3.9.8,0,1,0,1.5c0,5.6,1.1,7.1,1.8,7.1s.7-.3,1-1.5c.1-.5.5-.7.8-.7s.9.3.9.9,0,.2,0,.3c-.6,2.1-1.6,2.9-2.7,2.9-2.3,0-3.7-2.9-3.7-8.9s0-1.2,0-1.6ZM155.4,40.4c1.3,1.2,2.6,3.2,3.1,4.9,0,.1,0,.2,0,.3,0,.5-.4.8-.9.8s-.7-.2-.8-.6c-.6-1.5-1.6-3.2-2.8-4.4-.2-.2-.3-.4-.3-.6,0-.4.4-.8.9-.8s.5,0,.7.3ZM166.4,43.4c-.4-1.5-.6-3.4-.6-5.6s.5-.9.9-.9.9.3.9.9c0,1.8.1,3.4.4,4.7,1-.5,2.1-.9,3.2-1.2,0,0,.2,0,.3,0,.5,0,.8.4.8.9s-.2.7-.6.8c-1.4.4-3,1.1-4.2,1.9-1.4.9-1.9,1.8-1.9,2.6s.7,1.5,3.2,1.5,2.4-.1,3.3-.3c0,0,.1,0,.2,0,.6,0,.9.4.9.9s-.2.8-.7.9c-1.1.2-2.3.3-3.7.3-3.4,0-5-1-5-3.2s.6-2.6,2.6-4ZM188.3,44.7h-6.5c-1.7,0-2.3-.6-2.3-1.9v-3.7c0-1.3.6-1.9,2.3-1.9h6.5c1.7,0,2.3.6,2.3,1.9v3.7c0,1.6-.9,1.9-2.3,1.9ZM181.9,43.3h2.2v-1.7h-2.9v1.1c0,.5.3.6.7.6ZM181.2,40.2h2.9v-1.6h-2.2c-.6,0-.7.2-.7.6v1ZM185.8,38.6v1.6h3.2v-1c0-.4-.1-.6-.7-.6h-2.4ZM188.9,41.6h-3.2v1.7h2.4c.6,0,.7-.1.7-.6v-1.1ZM181.4,49.5v-3.2c0-.5.4-.7.9-.7s.9.2.9.7v2.9c0,.4.2.5,1.8.5s2.3-.2,2.4-1.1c0-.5.4-.7.8-.7s.9.3.9.8h0c-.2,1.9-1,2.5-4.1,2.5s-3.6-.3-3.6-1.7ZM179,46.8c.1-.4.5-.5.8-.5s.9.3.9.8,0,.2,0,.3c-.3.8-.8,1.6-1.2,2.2-.2.3-.5.4-.8.4-.4,0-.9-.3-.9-.8s0-.3.2-.5c.4-.6.8-1.2,1-2ZM185.2,45.2c.4.3.9.7,1.3,1,.2.2.3.4.3.6,0,.4-.4.8-.8.8s-.4,0-.6-.2c-.4-.3-.8-.7-1.2-1.1-.2-.2-.3-.4-.3-.6,0-.4.4-.8.8-.8s.4,0,.5.2ZM190.5,46.3c.5.6,1.1,1.2,1.5,1.8,0,.2.1.3.1.5,0,.5-.4.9-.9.9s-.5-.1-.7-.4c-.4-.5-.8-1.2-1.3-1.8-.2-.2-.2-.4-.2-.5,0-.4.4-.8.9-.8s.5,0,.7.3ZM195.4,39.3c0-.5.5-.8.9-.8s.9.3.9.8,0,1,0,1.5c0,5.6,1.1,7.1,1.8,7.1s.7-.3,1-1.5c.1-.5.5-.7.8-.7s.9.3.9.9,0,.2,0,.3c-.6,2.1-1.6,2.9-2.7,2.9-2.3,0-3.7-2.9-3.7-8.9s0-1.2,0-1.6ZM205.3,40.4c1.3,1.2,2.6,3.2,3.1,4.9,0,.1,0,.2,0,.3,0,.5-.4.8-.9.8s-.7-.2-.8-.6c-.6-1.5-1.6-3.2-2.8-4.4-.2-.2-.3-.4-.3-.6,0-.4.4-.8.9-.8s.5,0,.7.3ZM219,37.3v1.6h1c.9,0,1.8,0,2.6,0,.5,0,.8.4.8.9s-.3.8-.8.8c-.6,0-1.3,0-2,0s-1,0-1.6,0c0,.6,0,1.1,0,1.7,1.1,0,2.1-.1,3-.3h.1c.6,0,.8.4.8.8s-.3.8-.8.8c-1,.1-2,.2-3.1.3,0,.7,0,1.4.2,2.1,1.4.4,2.7.9,4,1.7.4.2.5.6.5.9,0,.5-.4.9-.9.9s-.4,0-.5-.2c-1-.6-2-1.2-3-1.5h0c0,1.8-1.5,2.7-3.4,2.7s-3.3-1-3.3-2.5,1.2-2.5,3.4-2.5.8,0,1.3,0c0-.6-.1-1.2-.1-1.7h-.9c-1,0-1.9,0-2.5,0-.5,0-.8-.5-.8-.8s.3-.8.8-.8h.1c.6,0,1.4.1,2.3.1h.9c0-.6,0-1.1,0-1.7-1.4,0-2.7,0-3.8.1-.5,0-.8-.4-.8-.8s.3-.8.8-.8c1.1,0,2.4-.1,3.8-.1v-1.6c0-.5.4-.7.9-.7s.9.2.9.7ZM216.1,49c1.1,0,1.6-.5,1.6-1.2v-.4c-.5,0-1-.1-1.4-.1-1.2,0-1.6.4-1.6.9s.4.8,1.5.8ZM235.4,47.3h0c-.3.2-.7.4-1.2.4-1.6,0-2.7-1.1-2.7-2.9s1-2.7,2.5-2.7.7,0,1,.1v-1.3c-1.2,0-3.9.2-5.6.3-.2,0-.5,0-.7,0-.5,0-.8-.5-.8-.9s.3-.8.8-.9c1.9-.1,4.1-.2,6.3-.3,0-.6,0-1.2,0-2s.4-.8.9-.8.9.3.9.8v1.9c1.7,0,3.3,0,4.7,0s.8.4.8.9-.3.8-.8.8c-1.4,0-3.1,0-4.7,0,0,.9,0,1.8.1,2.8.4.6.5,1.3.5,2.1,0,2.5-1.3,4.3-3.6,5.3-.2,0-.3,0-.4,0-.5,0-.9-.4-.9-.9s.2-.6.6-.8c1.3-.6,2.2-1.5,2.5-2.2ZM234.1,43.7c-.5,0-.9.4-.9,1.1s.6,1.3,1.1,1.3.9-.4.9-1.1-.4-1.3-1.1-1.3ZM249,42.3c-.6,2.6-1.6,5.2-2.7,7.2-.2.4-.5.5-.9.5-.5,0-.9-.3-.9-.8s0-.3.1-.5c1-1.8,1.8-4,2.4-6.3-.7,0-1.3.2-1.9.3,0,0-.1,0-.2,0-.5,0-.8-.4-.8-.8s.2-.7.7-.8c.8-.2,1.7-.3,2.5-.4.2-1,.4-2,.5-2.9,0-.5.5-.8.9-.8s.9.3.9.8h0c0,1-.2,1.9-.4,2.8.3,0,.6,0,.9,0,2,0,2.8.9,2.8,3.4s-.2,2.8-.4,3.8c-.5,1.8-1.2,2.5-2.8,2.5s-.8,0-1.1,0c-.5,0-.8-.5-.8-.9s.3-.9.8-.9,0,0,.1,0c.3,0,.5,0,.9,0,.6,0,.8-.2,1.1-1.1.3-.9.4-2.2.4-3.5s-.3-1.8-1-1.8-.8,0-1.2,0ZM255.6,39.5c1,1,2,2.4,2.5,3.5,0,.2.1.4.1.5,0,.6-.4.9-.9.9s-.7-.2-.9-.6c-.6-1.2-1.4-2.4-2.3-3.3-.2-.2-.3-.4-.3-.6,0-.4.4-.8.9-.8s.5,0,.7.3ZM268.2,45.7v.3c0,.5-.3.8-.8.8s-.8-.3-.8-.8v-.4c0-1.3.3-2,1.6-3,1-.8,1.3-1.3,1.3-2.1s-.7-1.6-1.9-1.6-1.8.4-2.4,1.4c-.1.2-.4.3-.6.3-.5,0-.9-.4-.9-.8s0-.4.2-.6c.8-1.2,2.2-1.9,3.8-1.9,2.2,0,3.8,1.2,3.8,3.2s-.5,2.2-1.8,3.1c-1.2.8-1.4,1.3-1.4,2.1ZM267.4,47.8c.7,0,1.2.5,1.2,1.2s-.5,1.2-1.2,1.2-1.2-.5-1.2-1.2.5-1.2,1.2-1.2Z" fill="#282828"/>
</svg>