<svg width="407" height="20" viewBox="0 0 407 20" fill="none" xmlns="http://www.w3.org/2000/svg">
<rect x="93.5" y="2" width="16" height="16" rx="4" fill="#ED6D46"/>
<path d="M121.16 6.54V7.93C121.55 7.89 121.92 7.83 122.26 7.77C122.31 7.76 122.35 7.76 122.39 7.76C122.7 7.76 122.86 7.99 122.86 8.24C122.86 8.47 122.72 8.71 122.42 8.77C122.03 8.85 121.6 8.91 121.17 8.96C121.18 9.82 121.2 10.68 121.29 11.53C121.84 11.74 122.41 12.05 122.96 12.46C123.15 12.6 123.23 12.78 123.23 12.95C123.23 13.23 123 13.49 122.7 13.49C122.58 13.49 122.45 13.44 122.32 13.34C121.99 13.08 121.65 12.86 121.33 12.68C121.22 13.51 120.65 14.11 119.41 14.11C118.29 14.11 117.59 13.55 117.59 12.65C117.59 11.82 118.26 11.2 119.56 11.2C119.77 11.2 119.99 11.22 120.22 11.25C120.16 10.52 120.14 9.79 120.13 9.06C119.7 9.09 119.28 9.1 118.89 9.1C118.69 9.1 118.51 9.1 118.34 9.08C118.03 9.05 117.88 8.8 117.88 8.55C117.88 8.3 118.04 8.05 118.36 8.05C118.54 8.05 118.71 8.07 118.89 8.07C119.28 8.07 119.69 8.06 120.12 8.03V6.54C120.12 6.23 120.38 6.08 120.64 6.08C120.9 6.08 121.16 6.23 121.16 6.54ZM119.41 13.12C119.92 13.12 120.26 12.88 120.27 12.25C120.01 12.18 119.77 12.14 119.56 12.14C118.86 12.14 118.64 12.36 118.64 12.65C118.64 12.96 118.91 13.12 119.41 13.12ZM115.67 6.48C115.73 6.21 115.97 6.09 116.22 6.09C116.51 6.09 116.8 6.26 116.8 6.58C116.8 6.61 116.8 6.65 116.79 6.69C116.47 8.08 116.26 9.54 116.26 10.82C116.26 11.93 116.39 12.99 116.48 13.79C116.48 13.82 116.49 13.85 116.49 13.88C116.49 14.19 116.19 14.38 115.91 14.38C115.65 14.38 115.4 14.24 115.35 13.93C115.21 13.1 115.12 12.01 115.12 10.81C115.12 9.47 115.33 7.94 115.67 6.48ZM125.22 7.3C125.25 6.98 125.53 6.82 125.8 6.82C126.1 6.82 126.39 7 126.39 7.35C126.39 7.49 126.35 7.98 126.35 8.29C126.35 11.79 127.06 12.71 127.48 12.71C127.72 12.71 127.94 12.55 128.13 11.8C128.21 11.5 128.42 11.37 128.64 11.37C128.93 11.37 129.21 11.58 129.21 11.91C129.21 11.97 129.21 12.02 129.19 12.08C128.82 13.42 128.18 13.91 127.51 13.91C126.06 13.91 125.18 12.12 125.18 8.32C125.18 7.86 125.2 7.56 125.22 7.3ZM131.4 8.01C132.24 8.79 133.01 10.04 133.34 11.06C133.37 11.14 133.38 11.21 133.38 11.27C133.38 11.6 133.1 11.8 132.82 11.8C132.61 11.8 132.39 11.69 132.29 11.42C131.93 10.5 131.28 9.45 130.56 8.7C130.44 8.58 130.39 8.45 130.39 8.33C130.39 8.05 130.66 7.82 130.96 7.82C131.1 7.82 131.26 7.88 131.4 8.01Z" fill="#282828"/>
<rect x="142.5" y="2" width="16" height="16" rx="4" fill="#FFF464"/>
<path d="M166.51 9.96C166.29 9 166.14 7.81 166.14 6.43C166.14 6.07 166.43 5.89 166.72 5.89C167.01 5.89 167.3 6.07 167.3 6.43C167.3 7.55 167.39 8.55 167.53 9.36C168.14 9.06 168.82 8.79 169.5 8.58C169.56 8.56 169.62 8.55 169.68 8.55C169.99 8.55 170.2 8.83 170.2 9.11C170.2 9.32 170.09 9.52 169.83 9.6C168.94 9.88 167.94 10.29 167.2 10.76C166.34 11.32 166.04 11.87 166.04 12.38C166.04 13 166.45 13.32 168.04 13.32C168.84 13.32 169.55 13.25 170.11 13.14C170.16 13.13 170.2 13.13 170.24 13.13C170.59 13.13 170.78 13.4 170.78 13.68C170.78 13.93 170.64 14.17 170.33 14.24C169.65 14.38 168.88 14.43 168.03 14.43C165.93 14.43 164.88 13.79 164.88 12.44C164.88 11.62 165.26 10.81 166.51 9.96ZM169.17 6.8C169.11 6.73 169.09 6.65 169.09 6.58C169.09 6.38 169.29 6.21 169.51 6.21C169.61 6.21 169.72 6.25 169.81 6.35C170.06 6.62 170.33 6.97 170.51 7.29C170.56 7.37 170.58 7.45 170.58 7.53C170.58 7.76 170.38 7.93 170.17 7.93C170.04 7.93 169.92 7.86 169.83 7.71C169.63 7.36 169.38 7.05 169.17 6.8ZM170.24 6.1C170.18 6.03 170.15 5.95 170.15 5.88C170.15 5.68 170.35 5.53 170.56 5.53C170.67 5.53 170.79 5.57 170.89 5.67C171.13 5.92 171.4 6.25 171.58 6.56C171.64 6.66 171.67 6.75 171.67 6.83C171.67 7.06 171.48 7.22 171.27 7.22C171.14 7.22 171 7.15 170.9 7C170.7 6.69 170.45 6.36 170.24 6.1ZM176.45 10.58L176.47 10.59C177.2 10.15 178.19 9.87 179.01 9.87C180.54 9.87 181.3 10.64 181.3 11.74C181.3 13.34 179.8 14.19 177.99 14.36C177.83 14.38 177.74 14.38 177.66 14.38C177.32 14.38 177.13 14.12 177.13 13.86C177.13 13.61 177.28 13.37 177.62 13.35C179.5 13.22 180.17 12.57 180.17 11.76C180.17 11.24 179.85 10.85 179.03 10.85C177.94 10.85 176.98 11.24 176.04 12.14C175.91 12.26 175.76 12.32 175.61 12.32C175.32 12.32 175.05 12.11 175.05 11.78C175.05 11.7 175.06 11.63 175.09 11.54C175.42 10.6 175.66 9.66 175.84 8.72C175.35 8.76 174.89 8.78 174.47 8.78C174.13 8.78 173.96 8.52 173.96 8.26C173.96 8.01 174.13 7.75 174.46 7.75C174.92 7.75 175.45 7.72 176.02 7.67C176.09 7.17 176.15 6.67 176.2 6.16C176.23 5.85 176.49 5.7 176.75 5.7C177.01 5.7 177.27 5.86 177.27 6.17V6.24C177.22 6.7 177.17 7.14 177.11 7.55C177.89 7.45 178.67 7.32 179.34 7.17C179.39 7.16 179.44 7.15 179.49 7.15C179.8 7.15 179.99 7.41 179.99 7.67C179.99 7.89 179.85 8.11 179.53 8.18C178.73 8.35 177.82 8.51 176.93 8.61C176.79 9.38 176.62 10.05 176.45 10.58ZM187.4 5.94C187.94 6.07 188.61 6.3 189.13 6.57C189.38 6.7 189.48 6.91 189.48 7.12C189.48 7.4 189.27 7.67 188.95 7.67C188.86 7.67 188.76 7.65 188.65 7.6C188.13 7.37 187.5 7.12 187.02 6.98C186.76 6.9 186.64 6.7 186.64 6.5C186.64 6.22 186.87 5.92 187.23 5.92C187.28 5.92 187.34 5.93 187.4 5.94ZM186.05 10.65L186.07 10.66C186.83 10 187.98 9.59 188.97 9.59C190.54 9.59 191.51 10.45 191.51 11.58C191.51 13.12 190.24 14.22 187.83 14.5C187.8 14.5 187.77 14.51 187.74 14.51C187.39 14.51 187.19 14.23 187.19 13.96C187.19 13.71 187.36 13.46 187.7 13.42C189.66 13.19 190.34 12.45 190.34 11.59C190.34 11.07 189.93 10.59 188.97 10.59C187.91 10.59 186.71 11.13 185.87 12.11C185.73 12.28 185.54 12.35 185.36 12.35C185.06 12.35 184.77 12.13 184.77 11.77C184.77 11.73 184.77 11.69 184.78 11.65C184.88 10.91 185.12 9.6 185.41 8.23C185.47 7.94 185.72 7.81 185.96 7.81C186.25 7.81 186.53 7.98 186.53 8.28C186.53 8.31 186.53 8.35 186.52 8.38C186.33 9.31 186.16 10.07 186.05 10.65ZM197.11 9.86C196.89 8.9 196.74 7.71 196.74 6.33C196.74 5.97 197.03 5.79 197.32 5.79C197.61 5.79 197.9 5.97 197.9 6.33C197.9 7.45 197.99 8.45 198.13 9.26C198.74 8.96 199.42 8.69 200.1 8.48C200.16 8.46 200.22 8.45 200.28 8.45C200.59 8.45 200.8 8.73 200.8 9.01C200.8 9.22 200.69 9.42 200.43 9.5C199.54 9.78 198.54 10.19 197.8 10.66C196.94 11.22 196.64 11.77 196.64 12.28C196.64 12.9 197.05 13.22 198.64 13.22C199.44 13.22 200.15 13.15 200.71 13.04C200.76 13.03 200.8 13.03 200.84 13.03C201.19 13.03 201.38 13.3 201.38 13.58C201.38 13.83 201.24 14.07 200.93 14.14C200.25 14.28 199.48 14.33 198.63 14.33C196.53 14.33 195.48 13.69 195.48 12.34C195.48 11.52 195.86 10.71 197.11 9.86ZM208.45 6.26L208.22 7.6H208.29C208.68 7.6 209.01 7.58 209.32 7.55H209.37C209.69 7.55 209.85 7.81 209.85 8.08C209.85 8.33 209.71 8.56 209.42 8.59C209.11 8.62 208.81 8.64 208.31 8.64H208.03C207.97 9.11 207.89 9.57 207.82 10.04H207.98C208.51 10.04 209.1 9.99 209.55 9.91C209.58 9.9 209.62 9.9 209.65 9.9C209.96 9.9 210.14 10.17 210.14 10.43C210.14 10.67 210.01 10.9 209.71 10.96C209.23 11.06 208.55 11.12 207.97 11.12H207.69C207.66 11.47 207.65 11.75 207.65 11.99C207.65 13.07 208.1 13.44 208.98 13.44C210.08 13.44 210.67 13.05 210.67 12.06C210.67 11.83 210.62 11.55 210.55 11.32C210.54 11.27 210.53 11.22 210.53 11.17C210.53 10.87 210.81 10.69 211.1 10.69C211.35 10.69 211.6 10.82 211.69 11.12C211.79 11.43 211.84 11.74 211.84 12.04C211.84 13.75 210.68 14.58 209 14.58C207.44 14.58 206.51 13.78 206.51 12.07C206.51 11.77 206.52 11.45 206.56 11.06C206.09 11.01 205.7 10.95 205.36 10.86C205.07 10.78 204.94 10.55 204.94 10.32C204.94 10.04 205.13 9.77 205.45 9.77C205.51 9.77 205.57 9.77 205.63 9.79C205.94 9.87 206.28 9.93 206.69 9.98C206.75 9.51 206.82 9.05 206.9 8.58C206.51 8.55 206.16 8.49 205.85 8.42C205.55 8.35 205.42 8.13 205.42 7.92C205.42 7.64 205.62 7.38 205.93 7.38C205.97 7.38 206.01 7.38 206.05 7.39C206.37 7.46 206.7 7.51 207.08 7.55L207.33 6.11C207.38 5.82 207.64 5.69 207.9 5.69C208.18 5.69 208.46 5.85 208.46 6.16C208.46 6.19 208.46 6.22 208.45 6.26ZM214.82 7.3C214.85 6.98 215.13 6.82 215.4 6.82C215.7 6.82 215.99 7 215.99 7.35C215.99 7.49 215.95 7.98 215.95 8.29C215.95 11.79 216.66 12.71 217.08 12.71C217.32 12.71 217.54 12.55 217.73 11.8C217.81 11.5 218.02 11.37 218.24 11.37C218.53 11.37 218.81 11.58 218.81 11.91C218.81 11.97 218.81 12.02 218.79 12.08C218.42 13.42 217.78 13.91 217.11 13.91C215.66 13.91 214.78 12.12 214.78 8.32C214.78 7.86 214.8 7.56 214.82 7.3ZM221 8.01C221.84 8.79 222.61 10.04 222.94 11.06C222.97 11.14 222.98 11.21 222.98 11.27C222.98 11.6 222.7 11.8 222.42 11.8C222.21 11.8 221.99 11.69 221.89 11.42C221.53 10.5 220.88 9.45 220.16 8.7C220.04 8.58 219.99 8.45 219.99 8.33C219.99 8.05 220.26 7.82 220.56 7.82C220.7 7.82 220.86 7.88 221 8.01ZM227.8 5.88C228.46 5.96 229.28 6.16 229.87 6.36C230.15 6.46 230.28 6.67 230.28 6.88C230.28 7.16 230.07 7.43 229.76 7.43C229.69 7.43 229.62 7.42 229.54 7.39C228.96 7.2 228.21 7.02 227.61 6.92C227.28 6.87 227.14 6.65 227.14 6.42C227.14 6.15 227.35 5.87 227.7 5.87C227.73 5.87 227.77 5.87 227.8 5.88ZM226.14 8.44L229.65 7.91C229.7 7.9 229.75 7.9 229.8 7.9C230.26 7.9 230.54 8.23 230.54 8.58C230.54 8.75 230.48 8.92 230.34 9.07L228.67 10.78L228.69 10.81C228.85 10.76 229 10.73 229.14 10.73C229.79 10.73 230.18 11.13 230.22 12L230.23 12.21C230.26 12.84 230.38 13.03 230.88 13.03C231.39 13.03 231.96 12.94 232.49 12.83C232.55 12.82 232.6 12.81 232.66 12.81C233 12.81 233.19 13.09 233.19 13.37C233.19 13.61 233.06 13.84 232.78 13.9C232.1 14.05 231.46 14.11 230.9 14.11C229.74 14.11 229.18 13.64 229.13 12.38L229.12 12.15C229.1 11.78 228.97 11.63 228.75 11.63C228.45 11.63 228.1 11.76 227.66 12.11C227.3 12.4 226.74 12.97 225.93 13.86C225.79 14.01 225.64 14.07 225.48 14.07C225.18 14.07 224.92 13.83 224.92 13.54C224.92 13.4 224.97 13.25 225.11 13.11L228.93 9.08L228.92 9.05L226.31 9.51C226.27 9.52 226.23 9.52 226.2 9.52C225.87 9.52 225.67 9.24 225.67 8.97C225.67 8.73 225.81 8.49 226.14 8.44ZM240.87 13C240.85 14.12 240.03 14.52 239.07 14.52C237.88 14.52 237.16 14 237.16 13.07C237.16 12.27 237.84 11.61 239.12 11.61C239.28 11.61 239.44 11.62 239.62 11.64C239.55 11.18 239.52 10.84 239.52 10.58C239.52 10.15 239.54 9.93 239.59 9.61C239.64 9.33 239.87 9.21 240.11 9.21C240.39 9.21 240.67 9.37 240.67 9.67C240.67 9.7 240.66 9.72 240.66 9.75C240.62 10.04 240.59 10.29 240.59 10.57C240.59 10.85 240.62 11.24 240.73 11.87C241.37 12.06 242.03 12.35 242.61 12.74C242.8 12.87 242.88 13.04 242.88 13.21C242.88 13.49 242.65 13.76 242.35 13.76C242.25 13.76 242.13 13.72 242.01 13.64C241.64 13.38 241.25 13.16 240.87 13ZM239.07 13.53C239.53 13.53 239.78 13.33 239.78 12.89C239.78 12.8 239.78 12.72 239.77 12.64C239.55 12.6 239.34 12.58 239.14 12.58C238.44 12.58 238.22 12.8 238.22 13.07C238.22 13.36 238.42 13.53 239.07 13.53ZM236.89 7.66C237.04 7.15 237.18 6.64 237.28 6.14C237.34 5.84 237.58 5.71 237.82 5.71C238.1 5.71 238.36 5.88 238.36 6.2C238.36 6.24 238.36 6.29 238.35 6.33C238.27 6.71 238.17 7.11 238.06 7.51C238.36 7.46 238.66 7.41 238.94 7.36C238.98 7.35 239.02 7.35 239.05 7.35C239.37 7.35 239.57 7.61 239.57 7.88C239.57 8.1 239.44 8.32 239.12 8.39C238.69 8.48 238.2 8.56 237.71 8.63C237.29 9.84 236.75 11.04 236.17 12C236.02 12.25 235.81 12.36 235.61 12.36C235.31 12.36 235.05 12.13 235.05 11.83C235.05 11.72 235.08 11.6 235.16 11.48C235.67 10.68 236.13 9.75 236.51 8.76C236.14 8.8 235.78 8.82 235.47 8.83C235.13 8.84 234.95 8.56 234.95 8.28C234.95 8.02 235.11 7.77 235.43 7.76C235.88 7.74 236.38 7.71 236.89 7.66ZM241.33 7.54C241.81 7.67 242.43 7.95 242.86 8.22C243.09 8.36 243.19 8.56 243.19 8.74C243.19 9.03 242.95 9.29 242.66 9.29C242.56 9.29 242.46 9.26 242.36 9.2C241.89 8.93 241.37 8.67 240.93 8.51C240.68 8.42 240.57 8.24 240.57 8.06C240.57 7.79 240.8 7.51 241.14 7.51C241.2 7.51 241.26 7.52 241.33 7.54ZM245.42 7.3C245.45 6.98 245.73 6.82 246 6.82C246.3 6.82 246.59 7 246.59 7.35C246.59 7.49 246.55 7.98 246.55 8.29C246.55 11.79 247.26 12.71 247.68 12.71C247.92 12.71 248.14 12.55 248.33 11.8C248.41 11.5 248.62 11.37 248.84 11.37C249.13 11.37 249.41 11.58 249.41 11.91C249.41 11.97 249.41 12.02 249.39 12.08C249.02 13.42 248.38 13.91 247.71 13.91C246.26 13.91 245.38 12.12 245.38 8.32C245.38 7.86 245.4 7.56 245.42 7.3ZM251.6 8.01C252.44 8.79 253.21 10.04 253.54 11.06C253.57 11.14 253.58 11.21 253.58 11.27C253.58 11.6 253.3 11.8 253.02 11.8C252.81 11.8 252.59 11.69 252.49 11.42C252.13 10.5 251.48 9.45 250.76 8.7C250.64 8.58 250.59 8.45 250.59 8.33C250.59 8.05 250.86 7.82 251.16 7.82C251.3 7.82 251.46 7.88 251.6 8.01Z" fill="#282828"/>
<rect x="262.5" y="2" width="16" height="16" rx="4" fill="#69BD83"/>
<path d="M283.92 7.3C283.95 6.98 284.23 6.82 284.5 6.82C284.8 6.82 285.09 7 285.09 7.35C285.09 7.49 285.05 7.98 285.05 8.29C285.05 11.79 285.76 12.71 286.18 12.71C286.42 12.71 286.64 12.55 286.83 11.8C286.91 11.5 287.12 11.37 287.34 11.37C287.63 11.37 287.91 11.58 287.91 11.91C287.91 11.97 287.91 12.02 287.89 12.08C287.52 13.42 286.88 13.91 286.21 13.91C284.76 13.91 283.88 12.12 283.88 8.32C283.88 7.86 283.9 7.56 283.92 7.3ZM290.1 8.01C290.94 8.79 291.71 10.04 292.04 11.06C292.07 11.14 292.08 11.21 292.08 11.27C292.08 11.6 291.8 11.8 291.52 11.8C291.31 11.8 291.09 11.69 290.99 11.42C290.63 10.5 289.98 9.45 289.26 8.7C289.14 8.58 289.09 8.45 289.09 8.33C289.09 8.05 289.36 7.82 289.66 7.82C289.8 7.82 289.96 7.88 290.1 8.01ZM294.12 7.3C294.15 6.98 294.43 6.82 294.7 6.82C295 6.82 295.29 7 295.29 7.35C295.29 7.49 295.25 7.98 295.25 8.29C295.25 11.79 295.96 12.71 296.38 12.71C296.62 12.71 296.84 12.55 297.03 11.8C297.11 11.5 297.32 11.37 297.54 11.37C297.83 11.37 298.11 11.58 298.11 11.91C298.11 11.97 298.11 12.02 298.09 12.08C297.72 13.42 297.08 13.91 296.41 13.91C294.96 13.91 294.08 12.12 294.08 8.32C294.08 7.86 294.1 7.56 294.12 7.3ZM300.3 8.01C301.14 8.79 301.91 10.04 302.24 11.06C302.27 11.14 302.28 11.21 302.28 11.27C302.28 11.6 302 11.8 301.72 11.8C301.51 11.8 301.29 11.69 301.19 11.42C300.83 10.5 300.18 9.45 299.46 8.7C299.34 8.58 299.29 8.45 299.29 8.33C299.29 8.05 299.56 7.82 299.86 7.82C300 7.82 300.16 7.88 300.3 8.01ZM307.1 5.88C307.76 5.96 308.58 6.16 309.17 6.36C309.45 6.46 309.58 6.67 309.58 6.88C309.58 7.16 309.37 7.43 309.06 7.43C308.99 7.43 308.92 7.42 308.84 7.39C308.26 7.2 307.51 7.02 306.91 6.92C306.58 6.87 306.44 6.65 306.44 6.42C306.44 6.15 306.65 5.87 307 5.87C307.03 5.87 307.07 5.87 307.1 5.88ZM305.44 8.44L308.95 7.91C309 7.9 309.05 7.9 309.1 7.9C309.56 7.9 309.84 8.23 309.84 8.58C309.84 8.75 309.78 8.92 309.64 9.07L307.97 10.78L307.99 10.81C308.15 10.76 308.3 10.73 308.44 10.73C309.09 10.73 309.48 11.13 309.52 12L309.53 12.21C309.56 12.84 309.68 13.03 310.18 13.03C310.69 13.03 311.26 12.94 311.79 12.83C311.85 12.82 311.9 12.81 311.96 12.81C312.3 12.81 312.49 13.09 312.49 13.37C312.49 13.61 312.36 13.84 312.08 13.9C311.4 14.05 310.76 14.11 310.2 14.11C309.04 14.11 308.48 13.64 308.43 12.38L308.42 12.15C308.4 11.78 308.27 11.63 308.05 11.63C307.75 11.63 307.4 11.76 306.96 12.11C306.6 12.4 306.04 12.97 305.23 13.86C305.09 14.01 304.94 14.07 304.78 14.07C304.48 14.07 304.22 13.83 304.22 13.54C304.22 13.4 304.27 13.25 304.41 13.11L308.23 9.08L308.22 9.05L305.61 9.51C305.57 9.52 305.53 9.52 305.5 9.52C305.17 9.52 304.97 9.24 304.97 8.97C304.97 8.73 305.11 8.49 305.44 8.44Z" fill="#282828"/>
</svg>
