<svg width="407" height="48" viewBox="0 0 407 48" fill="none" xmlns="http://www.w3.org/2000/svg">
<rect x="53" y="2" width="16" height="16" rx="4" fill="#ED6D46"/>
<path d="M77.11 9.86C76.89 8.9 76.74 7.71 76.74 6.33C76.74 5.97 77.03 5.79 77.32 5.79C77.61 5.79 77.9 5.97 77.9 6.33C77.9 7.45 77.99 8.45 78.13 9.26C78.74 8.96 79.42 8.69 80.1 8.48C80.16 8.46 80.22 8.45 80.28 8.45C80.59 8.45 80.8 8.73 80.8 9.01C80.8 9.22 80.69 9.42 80.43 9.5C79.54 9.78 78.54 10.19 77.8 10.66C76.94 11.22 76.64 11.77 76.64 12.28C76.64 12.9 77.05 13.22 78.64 13.22C79.44 13.22 80.15 13.15 80.71 13.04C80.76 13.03 80.8 13.03 80.84 13.03C81.19 13.03 81.38 13.3 81.38 13.58C81.38 13.83 81.24 14.07 80.93 14.14C80.25 14.28 79.48 14.33 78.63 14.33C76.53 14.33 75.48 13.69 75.48 12.34C75.48 11.52 75.86 10.71 77.11 9.86ZM89.22 8.01V7.99C88.02 8.15 86.43 8.39 84.99 8.6C84.95 8.61 84.92 8.61 84.89 8.61C84.53 8.61 84.33 8.32 84.33 8.04C84.33 7.78 84.49 7.54 84.85 7.49C86.93 7.23 89.51 6.94 91.59 6.75H91.65C92 6.75 92.19 7.01 92.19 7.28C92.19 7.52 92.04 7.76 91.73 7.82C91.38 7.88 91 8.01 90.63 8.22C89.07 9.11 88.74 10.15 88.74 11.1C88.74 12.21 89.51 12.89 90.91 13.06C91.28 13.11 91.45 13.38 91.45 13.65C91.45 13.95 91.23 14.24 90.86 14.24C90.71 14.24 90.3 14.18 90.12 14.14C88.64 13.77 87.58 12.67 87.58 11.13C87.58 10.08 88.09 8.9 89.22 8.01ZM98.65 6.26L98.42 7.6H98.49C98.88 7.6 99.21 7.58 99.52 7.55H99.57C99.89 7.55 100.05 7.81 100.05 8.08C100.05 8.33 99.91 8.56 99.62 8.59C99.31 8.62 99.01 8.64 98.51 8.64H98.23C98.17 9.11 98.09 9.57 98.02 10.04H98.18C98.71 10.04 99.3 9.99 99.75 9.91C99.78 9.9 99.82 9.9 99.85 9.9C100.16 9.9 100.34 10.17 100.34 10.43C100.34 10.67 100.21 10.9 99.91 10.96C99.43 11.06 98.75 11.12 98.17 11.12H97.89C97.86 11.47 97.85 11.75 97.85 11.99C97.85 13.07 98.3 13.44 99.18 13.44C100.28 13.44 100.87 13.05 100.87 12.06C100.87 11.83 100.82 11.55 100.75 11.32C100.74 11.27 100.73 11.22 100.73 11.17C100.73 10.87 101.01 10.69 101.3 10.69C101.55 10.69 101.8 10.82 101.89 11.12C101.99 11.43 102.04 11.74 102.04 12.04C102.04 13.75 100.88 14.58 99.2 14.58C97.64 14.58 96.71 13.78 96.71 12.07C96.71 11.77 96.72 11.45 96.76 11.06C96.29 11.01 95.9 10.95 95.56 10.86C95.27 10.78 95.14 10.55 95.14 10.32C95.14 10.04 95.33 9.77 95.65 9.77C95.71 9.77 95.77 9.77 95.83 9.79C96.14 9.87 96.48 9.93 96.89 9.98C96.95 9.51 97.02 9.05 97.1 8.58C96.71 8.55 96.36 8.49 96.05 8.42C95.75 8.35 95.62 8.13 95.62 7.92C95.62 7.64 95.82 7.38 96.13 7.38C96.17 7.38 96.21 7.38 96.25 7.39C96.57 7.46 96.9 7.51 97.28 7.55L97.53 6.11C97.58 5.82 97.84 5.69 98.1 5.69C98.38 5.69 98.66 5.85 98.66 6.16C98.66 6.19 98.66 6.22 98.65 6.26ZM110.44 12.63L110.47 11.88C108.95 12.99 107.17 13.85 105.16 14.44C105.1 14.46 105.04 14.46 104.99 14.46C104.68 14.46 104.49 14.2 104.49 13.95C104.49 13.75 104.6 13.56 104.85 13.49C106.59 12.98 107.94 12.4 109.25 11.61C107.91 11.84 107.03 11.94 105.71 12.06C105.57 12.07 105.19 12.1 105.08 12.1C104.78 12.1 104.6 11.84 104.6 11.59C104.6 11.36 104.74 11.13 105.05 11.12C105.46 11.1 105.87 11.07 106.28 11.04V7.65C106.28 6.9 106.6 6.54 107.56 6.54H108.23C108.33 6.3 108.41 6.06 108.48 5.81C108.56 5.55 108.78 5.44 109 5.44C109.27 5.44 109.53 5.61 109.53 5.91C109.53 5.97 109.52 6.03 109.5 6.09C109.45 6.25 109.39 6.4 109.33 6.54H110.18C111.14 6.54 111.46 6.9 111.46 7.65V9.76C111.78 9.43 112.07 9.06 112.36 8.7C112.49 8.53 112.65 8.47 112.8 8.47C113.07 8.47 113.31 8.68 113.31 8.96C113.31 9.07 113.27 9.2 113.17 9.32C112.65 9.96 112.08 10.55 111.46 11.09V13.6C111.46 14.47 111.02 14.83 110.12 14.83C109.91 14.83 109.7 14.81 109.48 14.77C109.2 14.72 109.07 14.49 109.07 14.27C109.07 14.01 109.24 13.74 109.58 13.74C109.61 13.74 109.64 13.74 109.68 13.75C109.87 13.78 110.01 13.79 110.14 13.79C110.35 13.79 110.44 13.72 110.44 13.48V12.63ZM110.44 10.58V10.26H107.3V10.96C108.03 10.9 108.76 10.81 109.48 10.72C109.8 10.68 110.12 10.63 110.44 10.58ZM110.44 9.46V8.85H107.3V9.46H110.44ZM110.44 8.05V7.72C110.44 7.45 110.38 7.4 110.05 7.4H107.69C107.36 7.4 107.3 7.45 107.3 7.72V8.05H110.44ZM115.87 6.82C115.93 6.53 116.18 6.4 116.43 6.4C116.72 6.4 117.01 6.57 117.01 6.91C117.01 6.94 117.01 6.98 117 7.02C116.66 8.66 116.54 10.02 116.54 11.44C116.54 12.27 116.65 13.2 116.72 13.79C116.72 13.82 116.73 13.85 116.73 13.87C116.73 14.21 116.44 14.4 116.15 14.4C115.88 14.4 115.62 14.25 115.57 13.91C115.49 13.27 115.4 12.28 115.4 11.44C115.4 9.95 115.52 8.6 115.87 6.82ZM121.93 7.28H122.01C122.36 7.28 122.55 7.54 122.55 7.81C122.55 8.06 122.39 8.31 122.04 8.36C121.16 8.48 120.17 8.56 119.22 8.58C118.83 8.59 118.64 8.32 118.64 8.04C118.64 7.78 118.82 7.51 119.18 7.5C120.11 7.48 121.06 7.4 121.93 7.28ZM119.32 11.7C119.41 12.32 119.72 12.55 120.97 12.55C121.42 12.55 121.97 12.5 122.48 12.4C122.52 12.39 122.56 12.39 122.6 12.39C122.94 12.39 123.13 12.67 123.13 12.95C123.13 13.18 123 13.42 122.69 13.48C122.1 13.6 121.51 13.65 120.96 13.65C119.11 13.65 118.34 13.09 118.23 11.88V11.83C118.23 11.47 118.52 11.27 118.81 11.27C119.05 11.27 119.28 11.41 119.32 11.7ZM125.4 8.72C127.2 7.94 129.03 7.51 130.47 7.51C132.26 7.51 133.47 8.47 133.47 10C133.47 11.91 132.05 13.25 129.3 13.64C129.26 13.65 129.22 13.65 129.18 13.65C128.83 13.65 128.63 13.37 128.63 13.08C128.63 12.84 128.79 12.59 129.13 12.53C131.47 12.13 132.29 11.32 132.29 10C132.29 9.23 131.71 8.57 130.47 8.57C129.22 8.57 127.63 8.97 125.84 9.76C125.74 9.8 125.64 9.82 125.55 9.82C125.22 9.82 124.99 9.56 124.99 9.27C124.99 9.06 125.11 8.85 125.4 8.72ZM135.62 7.3C135.65 6.98 135.93 6.82 136.2 6.82C136.5 6.82 136.79 7 136.79 7.35C136.79 7.49 136.75 7.98 136.75 8.29C136.75 11.79 137.46 12.71 137.88 12.71C138.12 12.71 138.34 12.55 138.53 11.8C138.61 11.5 138.82 11.37 139.04 11.37C139.33 11.37 139.61 11.58 139.61 11.91C139.61 11.97 139.61 12.02 139.59 12.08C139.22 13.42 138.58 13.91 137.91 13.91C136.46 13.91 135.58 12.12 135.58 8.32C135.58 7.86 135.6 7.56 135.62 7.3ZM141.8 8.01C142.64 8.79 143.41 10.04 143.74 11.06C143.77 11.14 143.78 11.21 143.78 11.27C143.78 11.6 143.5 11.8 143.22 11.8C143.01 11.8 142.79 11.69 142.69 11.42C142.33 10.5 141.68 9.45 140.96 8.7C140.84 8.58 140.79 8.45 140.79 8.33C140.79 8.05 141.06 7.82 141.36 7.82C141.5 7.82 141.66 7.88 141.8 8.01ZM147.24 8.88C146.83 8.94 146.42 9 146.01 9C145.68 9 145.51 8.75 145.51 8.48C145.51 8.21 145.68 7.95 146.02 7.93C146.42 7.91 146.9 7.85 147.44 7.76C147.53 7.21 147.57 6.77 147.63 6.22C147.66 5.91 147.92 5.76 148.18 5.76C148.46 5.76 148.74 5.94 148.74 6.26V6.32C148.69 6.8 148.64 7.16 148.58 7.54C148.86 7.48 149.15 7.41 149.44 7.34C149.49 7.33 149.54 7.32 149.59 7.32C149.9 7.32 150.09 7.58 150.09 7.85C150.09 8.06 149.97 8.27 149.7 8.34C149.24 8.47 148.8 8.58 148.4 8.67C148.04 10.63 147.56 12.48 147 13.93C146.88 14.23 146.63 14.37 146.39 14.37C146.11 14.37 145.84 14.17 145.84 13.86C145.84 13.77 145.86 13.68 145.9 13.58C146.45 12.22 146.89 10.63 147.24 8.88ZM149.25 12.31C149.25 11.97 149.53 11.78 149.81 11.78C150.04 11.78 150.26 11.91 150.29 12.2C150.36 12.84 150.72 13.02 151.81 13.02C152.32 13.02 152.75 12.98 153.15 12.92C153.18 12.91 153.23 12.91 153.26 12.91C153.6 12.91 153.79 13.2 153.79 13.47C153.79 13.71 153.64 13.95 153.33 14C152.9 14.07 152.4 14.11 151.83 14.11C150.43 14.11 149.81 13.75 149.49 13.24C149.33 12.99 149.25 12.59 149.25 12.31ZM150.25 9.04C151.03 8.88 152.02 8.77 152.82 8.77C153.18 8.77 153.36 9.04 153.36 9.31C153.36 9.57 153.19 9.82 152.85 9.82C152.05 9.82 151.12 9.94 150.41 10.08C150.37 10.09 150.32 10.09 150.29 10.09C149.98 10.09 149.79 9.84 149.79 9.57C149.79 9.34 149.93 9.11 150.25 9.04Z" fill="#282828"/>
<rect x="163" y="2" width="16" height="16" rx="4" fill="#E18965"/>
<path d="M189.74 12.63L189.77 11.88C188.25 12.99 186.47 13.85 184.46 14.44C184.4 14.46 184.34 14.46 184.29 14.46C183.98 14.46 183.79 14.2 183.79 13.95C183.79 13.75 183.9 13.56 184.15 13.49C185.89 12.98 187.24 12.4 188.55 11.61C187.21 11.84 186.33 11.94 185.01 12.06C184.87 12.07 184.49 12.1 184.38 12.1C184.08 12.1 183.9 11.84 183.9 11.59C183.9 11.36 184.04 11.13 184.35 11.12C184.76 11.1 185.17 11.07 185.58 11.04V7.65C185.58 6.9 185.9 6.54 186.86 6.54H187.53C187.63 6.3 187.71 6.06 187.78 5.81C187.86 5.55 188.08 5.44 188.3 5.44C188.57 5.44 188.83 5.61 188.83 5.91C188.83 5.97 188.82 6.03 188.8 6.09C188.75 6.25 188.69 6.4 188.63 6.54H189.48C190.44 6.54 190.76 6.9 190.76 7.65V9.76C191.08 9.43 191.37 9.06 191.66 8.7C191.79 8.53 191.95 8.47 192.1 8.47C192.37 8.47 192.61 8.68 192.61 8.96C192.61 9.07 192.57 9.2 192.47 9.32C191.95 9.96 191.38 10.55 190.76 11.09V13.6C190.76 14.47 190.32 14.83 189.42 14.83C189.21 14.83 189 14.81 188.78 14.77C188.5 14.72 188.37 14.49 188.37 14.27C188.37 14.01 188.54 13.74 188.88 13.74C188.91 13.74 188.94 13.74 188.98 13.75C189.17 13.78 189.31 13.79 189.44 13.79C189.65 13.79 189.74 13.72 189.74 13.48V12.63ZM189.74 10.58V10.26H186.6V10.96C187.33 10.9 188.06 10.81 188.78 10.72C189.1 10.68 189.42 10.63 189.74 10.58ZM189.74 9.46V8.85H186.6V9.46H189.74ZM189.74 8.05V7.72C189.74 7.45 189.68 7.4 189.35 7.4H186.99C186.66 7.4 186.6 7.45 186.6 7.72V8.05H189.74ZM195.17 6.82C195.23 6.53 195.48 6.4 195.73 6.4C196.02 6.4 196.31 6.57 196.31 6.91C196.31 6.94 196.31 6.98 196.3 7.02C195.96 8.66 195.84 10.02 195.84 11.44C195.84 12.27 195.95 13.2 196.02 13.79C196.02 13.82 196.03 13.85 196.03 13.87C196.03 14.21 195.74 14.4 195.45 14.4C195.18 14.4 194.92 14.25 194.87 13.91C194.79 13.27 194.7 12.28 194.7 11.44C194.7 9.95 194.82 8.6 195.17 6.82ZM201.23 7.28H201.31C201.66 7.28 201.85 7.54 201.85 7.81C201.85 8.06 201.69 8.31 201.34 8.36C200.46 8.48 199.47 8.56 198.52 8.58C198.13 8.59 197.94 8.32 197.94 8.04C197.94 7.78 198.12 7.51 198.48 7.5C199.41 7.48 200.36 7.4 201.23 7.28ZM198.62 11.7C198.71 12.32 199.02 12.55 200.27 12.55C200.72 12.55 201.27 12.5 201.78 12.4C201.82 12.39 201.86 12.39 201.9 12.39C202.24 12.39 202.43 12.67 202.43 12.95C202.43 13.18 202.3 13.42 201.99 13.48C201.4 13.6 200.81 13.65 200.26 13.65C198.41 13.65 197.64 13.09 197.53 11.88V11.83C197.53 11.47 197.82 11.27 198.11 11.27C198.35 11.27 198.58 11.41 198.62 11.7ZM204.7 8.72C206.5 7.94 208.33 7.51 209.77 7.51C211.56 7.51 212.77 8.47 212.77 10C212.77 11.91 211.35 13.25 208.6 13.64C208.56 13.65 208.52 13.65 208.48 13.65C208.13 13.65 207.93 13.37 207.93 13.08C207.93 12.84 208.09 12.59 208.43 12.53C210.77 12.13 211.59 11.32 211.59 10C211.59 9.23 211.01 8.57 209.77 8.57C208.52 8.57 206.93 8.97 205.14 9.76C205.04 9.8 204.94 9.82 204.85 9.82C204.52 9.82 204.29 9.56 204.29 9.27C204.29 9.06 204.41 8.85 204.7 8.72ZM214.92 7.3C214.95 6.98 215.23 6.82 215.5 6.82C215.8 6.82 216.09 7 216.09 7.35C216.09 7.49 216.05 7.98 216.05 8.29C216.05 11.79 216.76 12.71 217.18 12.71C217.42 12.71 217.64 12.55 217.83 11.8C217.91 11.5 218.12 11.37 218.34 11.37C218.63 11.37 218.91 11.58 218.91 11.91C218.91 11.97 218.91 12.02 218.89 12.08C218.52 13.42 217.88 13.91 217.21 13.91C215.76 13.91 214.88 12.12 214.88 8.32C214.88 7.86 214.9 7.56 214.92 7.3ZM221.1 8.01C221.94 8.79 222.71 10.04 223.04 11.06C223.07 11.14 223.08 11.21 223.08 11.27C223.08 11.6 222.8 11.8 222.52 11.8C222.31 11.8 222.09 11.69 221.99 11.42C221.63 10.5 220.98 9.45 220.26 8.7C220.14 8.58 220.09 8.45 220.09 8.33C220.09 8.05 220.36 7.82 220.66 7.82C220.8 7.82 220.96 7.88 221.1 8.01ZM226.54 8.88C226.13 8.94 225.72 9 225.31 9C224.98 9 224.81 8.75 224.81 8.48C224.81 8.21 224.98 7.95 225.32 7.93C225.72 7.91 226.2 7.85 226.74 7.76C226.83 7.21 226.87 6.77 226.93 6.22C226.96 5.91 227.22 5.76 227.48 5.76C227.76 5.76 228.04 5.94 228.04 6.26V6.32C227.99 6.8 227.94 7.16 227.88 7.54C228.16 7.48 228.45 7.41 228.74 7.34C228.79 7.33 228.84 7.32 228.89 7.32C229.2 7.32 229.39 7.58 229.39 7.85C229.39 8.06 229.27 8.27 229 8.34C228.54 8.47 228.1 8.58 227.7 8.67C227.34 10.63 226.86 12.48 226.3 13.93C226.18 14.23 225.93 14.37 225.69 14.37C225.41 14.37 225.14 14.17 225.14 13.86C225.14 13.77 225.16 13.68 225.2 13.58C225.75 12.22 226.19 10.63 226.54 8.88ZM228.55 12.31C228.55 11.97 228.83 11.78 229.11 11.78C229.34 11.78 229.56 11.91 229.59 12.2C229.66 12.84 230.02 13.02 231.11 13.02C231.62 13.02 232.05 12.98 232.45 12.92C232.48 12.91 232.53 12.91 232.56 12.91C232.9 12.91 233.09 13.2 233.09 13.47C233.09 13.71 232.94 13.95 232.63 14C232.2 14.07 231.7 14.11 231.13 14.11C229.73 14.11 229.11 13.75 228.79 13.24C228.63 12.99 228.55 12.59 228.55 12.31ZM229.55 9.04C230.33 8.88 231.32 8.77 232.12 8.77C232.48 8.77 232.66 9.04 232.66 9.31C232.66 9.57 232.49 9.82 232.15 9.82C231.35 9.82 230.42 9.94 229.71 10.08C229.67 10.09 229.62 10.09 229.59 10.09C229.28 10.09 229.09 9.84 229.09 9.57C229.09 9.34 229.23 9.11 229.55 9.04Z" fill="#282828"/>
<rect x="242" y="2" width="16" height="16" rx="4" fill="#FFF464"/>
<path d="M266.01 9.96C265.79 9 265.64 7.81 265.64 6.43C265.64 6.07 265.93 5.89 266.22 5.89C266.51 5.89 266.8 6.07 266.8 6.43C266.8 7.55 266.89 8.55 267.03 9.36C267.64 9.06 268.32 8.79 269 8.58C269.06 8.56 269.12 8.55 269.18 8.55C269.49 8.55 269.7 8.83 269.7 9.11C269.7 9.32 269.59 9.52 269.33 9.6C268.44 9.88 267.44 10.29 266.7 10.76C265.84 11.32 265.54 11.87 265.54 12.38C265.54 13 265.95 13.32 267.54 13.32C268.34 13.32 269.05 13.25 269.61 13.14C269.66 13.13 269.7 13.13 269.74 13.13C270.09 13.13 270.28 13.4 270.28 13.68C270.28 13.93 270.14 14.17 269.83 14.24C269.15 14.38 268.38 14.43 267.53 14.43C265.43 14.43 264.38 13.79 264.38 12.44C264.38 11.62 264.76 10.81 266.01 9.96ZM268.67 6.8C268.61 6.73 268.59 6.65 268.59 6.58C268.59 6.38 268.79 6.21 269.01 6.21C269.11 6.21 269.22 6.25 269.31 6.35C269.56 6.62 269.83 6.97 270.01 7.29C270.06 7.37 270.08 7.45 270.08 7.53C270.08 7.76 269.88 7.93 269.67 7.93C269.54 7.93 269.42 7.86 269.33 7.71C269.13 7.36 268.88 7.05 268.67 6.8ZM269.74 6.1C269.68 6.03 269.65 5.95 269.65 5.88C269.65 5.68 269.85 5.53 270.06 5.53C270.17 5.53 270.29 5.57 270.39 5.67C270.63 5.92 270.9 6.25 271.08 6.56C271.14 6.66 271.17 6.75 271.17 6.83C271.17 7.06 270.98 7.22 270.77 7.22C270.64 7.22 270.5 7.15 270.4 7C270.2 6.69 269.95 6.36 269.74 6.1ZM275.95 10.58L275.97 10.59C276.7 10.15 277.69 9.87 278.51 9.87C280.04 9.87 280.8 10.64 280.8 11.74C280.8 13.34 279.3 14.19 277.49 14.36C277.33 14.38 277.24 14.38 277.16 14.38C276.82 14.38 276.63 14.12 276.63 13.86C276.63 13.61 276.78 13.37 277.12 13.35C279 13.22 279.67 12.57 279.67 11.76C279.67 11.24 279.35 10.85 278.53 10.85C277.44 10.85 276.48 11.24 275.54 12.14C275.41 12.26 275.26 12.32 275.11 12.32C274.82 12.32 274.55 12.11 274.55 11.78C274.55 11.7 274.56 11.63 274.59 11.54C274.92 10.6 275.16 9.66 275.34 8.72C274.85 8.76 274.39 8.78 273.97 8.78C273.63 8.78 273.46 8.52 273.46 8.26C273.46 8.01 273.63 7.75 273.96 7.75C274.42 7.75 274.95 7.72 275.52 7.67C275.59 7.17 275.65 6.67 275.7 6.16C275.73 5.85 275.99 5.7 276.25 5.7C276.51 5.7 276.77 5.86 276.77 6.17V6.24C276.72 6.7 276.67 7.14 276.61 7.55C277.39 7.45 278.17 7.32 278.84 7.17C278.89 7.16 278.94 7.15 278.99 7.15C279.3 7.15 279.49 7.41 279.49 7.67C279.49 7.89 279.35 8.11 279.03 8.18C278.23 8.35 277.32 8.51 276.43 8.61C276.29 9.38 276.12 10.05 275.95 10.58ZM286.9 5.94C287.44 6.07 288.11 6.3 288.63 6.57C288.88 6.7 288.98 6.91 288.98 7.12C288.98 7.4 288.77 7.67 288.45 7.67C288.36 7.67 288.26 7.65 288.15 7.6C287.63 7.37 287 7.12 286.52 6.98C286.26 6.9 286.14 6.7 286.14 6.5C286.14 6.22 286.37 5.92 286.73 5.92C286.78 5.92 286.84 5.93 286.9 5.94ZM285.55 10.65L285.57 10.66C286.33 10 287.48 9.59 288.47 9.59C290.04 9.59 291.01 10.45 291.01 11.58C291.01 13.12 289.74 14.22 287.33 14.5C287.3 14.5 287.27 14.51 287.24 14.51C286.89 14.51 286.69 14.23 286.69 13.96C286.69 13.71 286.86 13.46 287.2 13.42C289.16 13.19 289.84 12.45 289.84 11.59C289.84 11.07 289.43 10.59 288.47 10.59C287.41 10.59 286.21 11.13 285.37 12.11C285.23 12.28 285.04 12.35 284.86 12.35C284.56 12.35 284.27 12.13 284.27 11.77C284.27 11.73 284.27 11.69 284.28 11.65C284.38 10.91 284.62 9.6 284.91 8.23C284.97 7.94 285.22 7.81 285.46 7.81C285.75 7.81 286.03 7.98 286.03 8.28C286.03 8.31 286.03 8.35 286.02 8.38C285.83 9.31 285.66 10.07 285.55 10.65ZM296.61 9.86C296.39 8.9 296.24 7.71 296.24 6.33C296.24 5.97 296.53 5.79 296.82 5.79C297.11 5.79 297.4 5.97 297.4 6.33C297.4 7.45 297.49 8.45 297.63 9.26C298.24 8.96 298.92 8.69 299.6 8.48C299.66 8.46 299.72 8.45 299.78 8.45C300.09 8.45 300.3 8.73 300.3 9.01C300.3 9.22 300.19 9.42 299.93 9.5C299.04 9.78 298.04 10.19 297.3 10.66C296.44 11.22 296.14 11.77 296.14 12.28C296.14 12.9 296.55 13.22 298.14 13.22C298.94 13.22 299.65 13.15 300.21 13.04C300.26 13.03 300.3 13.03 300.34 13.03C300.69 13.03 300.88 13.3 300.88 13.58C300.88 13.83 300.74 14.07 300.43 14.14C299.75 14.28 298.98 14.33 298.13 14.33C296.03 14.33 294.98 13.69 294.98 12.34C294.98 11.52 295.36 10.71 296.61 9.86ZM307.95 6.26L307.72 7.6H307.79C308.18 7.6 308.51 7.58 308.82 7.55H308.87C309.19 7.55 309.35 7.81 309.35 8.08C309.35 8.33 309.21 8.56 308.92 8.59C308.61 8.62 308.31 8.64 307.81 8.64H307.53C307.47 9.11 307.39 9.57 307.32 10.04H307.48C308.01 10.04 308.6 9.99 309.05 9.91C309.08 9.9 309.12 9.9 309.15 9.9C309.46 9.9 309.64 10.17 309.64 10.43C309.64 10.67 309.51 10.9 309.21 10.96C308.73 11.06 308.05 11.12 307.47 11.12H307.19C307.16 11.47 307.15 11.75 307.15 11.99C307.15 13.07 307.6 13.44 308.48 13.44C309.58 13.44 310.17 13.05 310.17 12.06C310.17 11.83 310.12 11.55 310.05 11.32C310.04 11.27 310.03 11.22 310.03 11.17C310.03 10.87 310.31 10.69 310.6 10.69C310.85 10.69 311.1 10.82 311.19 11.12C311.29 11.43 311.34 11.74 311.34 12.04C311.34 13.75 310.18 14.58 308.5 14.58C306.94 14.58 306.01 13.78 306.01 12.07C306.01 11.77 306.02 11.45 306.06 11.06C305.59 11.01 305.2 10.95 304.86 10.86C304.57 10.78 304.44 10.55 304.44 10.32C304.44 10.04 304.63 9.77 304.95 9.77C305.01 9.77 305.07 9.77 305.13 9.79C305.44 9.87 305.78 9.93 306.19 9.98C306.25 9.51 306.32 9.05 306.4 8.58C306.01 8.55 305.66 8.49 305.35 8.42C305.05 8.35 304.92 8.13 304.92 7.92C304.92 7.64 305.12 7.38 305.43 7.38C305.47 7.38 305.51 7.38 305.55 7.39C305.87 7.46 306.2 7.51 306.58 7.55L306.83 6.11C306.88 5.82 307.14 5.69 307.4 5.69C307.68 5.69 307.96 5.85 307.96 6.16C307.96 6.19 307.96 6.22 307.95 6.26ZM314.32 7.3C314.35 6.98 314.63 6.82 314.9 6.82C315.2 6.82 315.49 7 315.49 7.35C315.49 7.49 315.45 7.98 315.45 8.29C315.45 11.79 316.16 12.71 316.58 12.71C316.82 12.71 317.04 12.55 317.23 11.8C317.31 11.5 317.52 11.37 317.74 11.37C318.03 11.37 318.31 11.58 318.31 11.91C318.31 11.97 318.31 12.02 318.29 12.08C317.92 13.42 317.28 13.91 316.61 13.91C315.16 13.91 314.28 12.12 314.28 8.32C314.28 7.86 314.3 7.56 314.32 7.3ZM320.5 8.01C321.34 8.79 322.11 10.04 322.44 11.06C322.47 11.14 322.48 11.21 322.48 11.27C322.48 11.6 322.2 11.8 321.92 11.8C321.71 11.8 321.49 11.69 321.39 11.42C321.03 10.5 320.38 9.45 319.66 8.7C319.54 8.58 319.49 8.45 319.49 8.33C319.49 8.05 319.76 7.82 320.06 7.82C320.2 7.82 320.36 7.88 320.5 8.01ZM327.3 5.88C327.96 5.96 328.78 6.16 329.37 6.36C329.65 6.46 329.78 6.67 329.78 6.88C329.78 7.16 329.57 7.43 329.26 7.43C329.19 7.43 329.12 7.42 329.04 7.39C328.46 7.2 327.71 7.02 327.11 6.92C326.78 6.87 326.64 6.65 326.64 6.42C326.64 6.15 326.85 5.87 327.2 5.87C327.23 5.87 327.27 5.87 327.3 5.88ZM325.64 8.44L329.15 7.91C329.2 7.9 329.25 7.9 329.3 7.9C329.76 7.9 330.04 8.23 330.04 8.58C330.04 8.75 329.98 8.92 329.84 9.07L328.17 10.78L328.19 10.81C328.35 10.76 328.5 10.73 328.64 10.73C329.29 10.73 329.68 11.13 329.72 12L329.73 12.21C329.76 12.84 329.88 13.03 330.38 13.03C330.89 13.03 331.46 12.94 331.99 12.83C332.05 12.82 332.1 12.81 332.16 12.81C332.5 12.81 332.69 13.09 332.69 13.37C332.69 13.61 332.56 13.84 332.28 13.9C331.6 14.05 330.96 14.11 330.4 14.11C329.24 14.11 328.68 13.64 328.63 12.38L328.62 12.15C328.6 11.78 328.47 11.63 328.25 11.63C327.95 11.63 327.6 11.76 327.16 12.11C326.8 12.4 326.24 12.97 325.43 13.86C325.29 14.01 325.14 14.07 324.98 14.07C324.68 14.07 324.42 13.83 324.42 13.54C324.42 13.4 324.47 13.25 324.61 13.11L328.43 9.08L328.42 9.05L325.81 9.51C325.77 9.52 325.73 9.52 325.7 9.52C325.37 9.52 325.17 9.24 325.17 8.97C325.17 8.73 325.31 8.49 325.64 8.44ZM340.37 13C340.35 14.12 339.53 14.52 338.57 14.52C337.38 14.52 336.66 14 336.66 13.07C336.66 12.27 337.34 11.61 338.62 11.61C338.78 11.61 338.94 11.62 339.12 11.64C339.05 11.18 339.02 10.84 339.02 10.58C339.02 10.15 339.04 9.93 339.09 9.61C339.14 9.33 339.37 9.21 339.61 9.21C339.89 9.21 340.17 9.37 340.17 9.67C340.17 9.7 340.16 9.72 340.16 9.75C340.12 10.04 340.09 10.29 340.09 10.57C340.09 10.85 340.12 11.24 340.23 11.87C340.87 12.06 341.53 12.35 342.11 12.74C342.3 12.87 342.38 13.04 342.38 13.21C342.38 13.49 342.15 13.76 341.85 13.76C341.75 13.76 341.63 13.72 341.51 13.64C341.14 13.38 340.75 13.16 340.37 13ZM338.57 13.53C339.03 13.53 339.28 13.33 339.28 12.89C339.28 12.8 339.28 12.72 339.27 12.64C339.05 12.6 338.84 12.58 338.64 12.58C337.94 12.58 337.72 12.8 337.72 13.07C337.72 13.36 337.92 13.53 338.57 13.53ZM336.39 7.66C336.54 7.15 336.68 6.64 336.78 6.14C336.84 5.84 337.08 5.71 337.32 5.71C337.6 5.71 337.86 5.88 337.86 6.2C337.86 6.24 337.86 6.29 337.85 6.33C337.77 6.71 337.67 7.11 337.56 7.51C337.86 7.46 338.16 7.41 338.44 7.36C338.48 7.35 338.52 7.35 338.55 7.35C338.87 7.35 339.07 7.61 339.07 7.88C339.07 8.1 338.94 8.32 338.62 8.39C338.19 8.48 337.7 8.56 337.21 8.63C336.79 9.84 336.25 11.04 335.67 12C335.52 12.25 335.31 12.36 335.11 12.36C334.81 12.36 334.55 12.13 334.55 11.83C334.55 11.72 334.58 11.6 334.66 11.48C335.17 10.68 335.63 9.75 336.01 8.76C335.64 8.8 335.28 8.82 334.97 8.83C334.63 8.84 334.45 8.56 334.45 8.28C334.45 8.02 334.61 7.77 334.93 7.76C335.38 7.74 335.88 7.71 336.39 7.66ZM340.83 7.54C341.31 7.67 341.93 7.95 342.36 8.22C342.59 8.36 342.69 8.56 342.69 8.74C342.69 9.03 342.45 9.29 342.16 9.29C342.06 9.29 341.96 9.26 341.86 9.2C341.39 8.93 340.87 8.67 340.43 8.51C340.18 8.42 340.07 8.24 340.07 8.06C340.07 7.79 340.3 7.51 340.64 7.51C340.7 7.51 340.76 7.52 340.83 7.54ZM344.92 7.3C344.95 6.98 345.23 6.82 345.5 6.82C345.8 6.82 346.09 7 346.09 7.35C346.09 7.49 346.05 7.98 346.05 8.29C346.05 11.79 346.76 12.71 347.18 12.71C347.42 12.71 347.64 12.55 347.83 11.8C347.91 11.5 348.12 11.37 348.34 11.37C348.63 11.37 348.91 11.58 348.91 11.91C348.91 11.97 348.91 12.02 348.89 12.08C348.52 13.42 347.88 13.91 347.21 13.91C345.76 13.91 344.88 12.12 344.88 8.32C344.88 7.86 344.9 7.56 344.92 7.3ZM351.1 8.01C351.94 8.79 352.71 10.04 353.04 11.06C353.07 11.14 353.08 11.21 353.08 11.27C353.08 11.6 352.8 11.8 352.52 11.8C352.31 11.8 352.09 11.69 351.99 11.42C351.63 10.5 350.98 9.45 350.26 8.7C350.14 8.58 350.09 8.45 350.09 8.33C350.09 8.05 350.36 7.82 350.66 7.82C350.8 7.82 350.96 7.88 351.1 8.01Z" fill="#282828"/>
<rect x="82.5" y="30" width="16" height="16" rx="4" fill="#69BD83"/>
<path d="M103.46 40.44C103.46 39.54 104.11 38.26 105.82 37.48C105.83 37.03 105.86 36.58 105.9 36.14C105.44 36.16 105 36.17 104.61 36.17C104.28 36.17 104.12 35.92 104.12 35.66C104.12 35.41 104.28 35.16 104.61 35.16C105.03 35.16 105.51 35.15 106 35.12C106.04 34.75 106.09 34.37 106.15 33.97C106.2 33.68 106.45 33.54 106.69 33.54C106.96 33.54 107.22 33.7 107.22 33.98C107.22 34.01 107.21 34.03 107.21 34.06C107.16 34.4 107.11 34.73 107.06 35.05C107.79 34.99 108.5 34.9 109.06 34.8C109.1 34.79 109.14 34.79 109.18 34.79C109.51 34.79 109.69 35.04 109.69 35.29C109.69 35.51 109.55 35.74 109.25 35.79C108.59 35.91 107.77 36 106.94 36.07C106.92 36.42 106.88 36.78 106.86 37.14C107.34 37.03 107.84 36.98 108.33 36.98C108.37 36.85 108.41 36.72 108.44 36.58C108.5 36.33 108.72 36.22 108.94 36.22C109.2 36.22 109.46 36.38 109.46 36.66C109.46 36.7 109.45 36.74 109.44 36.79C109.41 36.89 109.39 36.99 109.36 37.09C110.74 37.41 111.53 38.44 111.53 39.63C111.53 41.09 110.53 42.18 108.86 42.59C108.81 42.6 108.75 42.61 108.7 42.61C108.38 42.61 108.17 42.34 108.17 42.06C108.17 41.85 108.3 41.63 108.6 41.54C109.87 41.15 110.4 40.5 110.4 39.64C110.4 38.95 109.95 38.25 109.05 38C108.62 39.1 107.99 40.15 107.09 40.92C107.13 41.13 107.17 41.33 107.22 41.52C107.23 41.56 107.24 41.61 107.24 41.65C107.24 41.96 106.95 42.14 106.68 42.14C106.47 42.14 106.26 42.03 106.2 41.78L106.14 41.53C105.71 41.79 105.3 41.88 104.87 41.88C104.02 41.88 103.46 41.34 103.46 40.44ZM104.52 40.37C104.52 40.69 104.6 40.83 104.94 40.84C105.24 40.84 105.53 40.75 105.95 40.48C105.86 39.83 105.81 39.18 105.8 38.53C104.88 39.13 104.51 39.8 104.52 40.37ZM106.91 39.73C107.38 39.19 107.74 38.57 108.01 37.91C107.61 37.93 107.22 37.99 106.83 38.1V38.27C106.83 38.72 106.86 39.22 106.91 39.73ZM118.2 34.09V35.08H118.84C119.42 35.08 119.97 35.09 120.48 35.1C120.82 35.11 120.99 35.37 120.99 35.64C120.99 35.9 120.82 36.15 120.48 36.15C120.09 36.14 119.66 36.13 119.21 36.13C118.89 36.13 118.56 36.14 118.22 36.14C118.22 36.49 118.23 36.84 118.25 37.19C118.91 37.15 119.55 37.1 120.13 37.03H120.21C120.56 37.03 120.74 37.28 120.74 37.54C120.74 37.78 120.58 38.03 120.25 38.07C119.64 38.15 118.98 38.2 118.31 38.24C118.33 38.68 118.37 39.12 118.41 39.56C119.26 39.78 120.11 40.15 120.92 40.65C121.16 40.8 121.26 41 121.26 41.19C121.26 41.5 121 41.78 120.67 41.78C120.56 41.78 120.45 41.75 120.33 41.67C119.72 41.27 119.1 40.94 118.48 40.71V40.78C118.48 41.86 117.54 42.38 116.38 42.38C115.11 42.38 114.33 41.77 114.33 40.84C114.33 39.97 115.05 39.3 116.48 39.3C116.75 39.3 117.01 39.32 117.29 39.35C117.26 38.99 117.22 38.63 117.21 38.28H116.64C116.04 38.28 115.43 38.26 115.08 38.22C114.75 38.18 114.6 37.93 114.6 37.69C114.6 37.43 114.78 37.16 115.1 37.16H115.17C115.54 37.2 116.04 37.23 116.61 37.23H117.15C117.13 36.87 117.12 36.52 117.11 36.16C116.26 36.18 115.43 36.21 114.73 36.24C114.39 36.25 114.21 35.98 114.21 35.71C114.21 35.45 114.37 35.2 114.71 35.18C115.41 35.15 116.24 35.11 117.09 35.1V34.09C117.09 33.79 117.37 33.64 117.65 33.64C117.92 33.64 118.2 33.79 118.2 34.09ZM116.38 41.35C117.05 41.35 117.38 41.04 117.38 40.62V40.4C117.07 40.34 116.78 40.31 116.48 40.31C115.7 40.31 115.47 40.55 115.47 40.85C115.47 41.12 115.73 41.35 116.38 41.35ZM126.34 38.2H126.36C126.46 37.97 126.53 37.78 126.62 37.51C126.7 37.29 126.88 37.19 127.05 37.19C127.28 37.19 127.5 37.35 127.5 37.59C127.5 37.63 127.49 37.67 127.48 37.71C127.31 38.28 127.04 38.91 126.78 39.36C126.62 39.63 126.35 39.77 126.09 39.77C125.81 39.77 125.54 39.61 125.45 39.29C125.32 38.86 125.21 38.14 125.21 37.57C125.21 36.77 125.33 35.67 125.58 34.63C125.65 34.35 125.91 34.22 126.15 34.22C126.43 34.22 126.7 34.38 126.7 34.67C126.7 34.71 126.69 34.75 126.68 34.8C126.46 35.73 126.31 36.87 126.31 37.47C126.31 37.79 126.32 38 126.34 38.2ZM128.94 34.58V34.52C128.94 34.19 129.24 34.01 129.54 34.01C129.81 34.01 130.08 34.16 130.13 34.49C130.27 35.54 130.34 36.63 130.34 37.71C130.34 39.88 129.56 41.39 128.16 42.46C128.02 42.57 127.87 42.62 127.74 42.62C127.43 42.62 127.18 42.36 127.18 42.06C127.18 41.89 127.26 41.71 127.44 41.56C128.58 40.62 129.14 39.4 129.14 37.71C129.14 36.68 129.07 35.64 128.94 34.58ZM139.64 40.63L139.67 39.88C138.15 40.99 136.37 41.85 134.36 42.44C134.3 42.46 134.24 42.46 134.19 42.46C133.88 42.46 133.69 42.2 133.69 41.95C133.69 41.75 133.8 41.56 134.05 41.49C135.79 40.98 137.14 40.4 138.45 39.61C137.11 39.84 136.23 39.94 134.91 40.06C134.77 40.07 134.39 40.1 134.28 40.1C133.98 40.1 133.8 39.84 133.8 39.59C133.8 39.36 133.94 39.13 134.25 39.12C134.66 39.1 135.07 39.07 135.48 39.04V35.65C135.48 34.9 135.8 34.54 136.76 34.54H137.43C137.53 34.3 137.61 34.06 137.68 33.81C137.76 33.55 137.98 33.44 138.2 33.44C138.47 33.44 138.73 33.61 138.73 33.91C138.73 33.97 138.72 34.03 138.7 34.09C138.65 34.25 138.59 34.4 138.53 34.54H139.38C140.34 34.54 140.66 34.9 140.66 35.65V37.76C140.98 37.43 141.27 37.06 141.56 36.7C141.69 36.53 141.85 36.47 142 36.47C142.27 36.47 142.51 36.68 142.51 36.96C142.51 37.07 142.47 37.2 142.37 37.32C141.85 37.96 141.28 38.55 140.66 39.09V41.6C140.66 42.47 140.22 42.83 139.32 42.83C139.11 42.83 138.9 42.81 138.68 42.77C138.4 42.72 138.27 42.49 138.27 42.27C138.27 42.01 138.44 41.74 138.78 41.74C138.81 41.74 138.84 41.74 138.88 41.75C139.07 41.78 139.21 41.79 139.34 41.79C139.55 41.79 139.64 41.72 139.64 41.48V40.63ZM139.64 38.58V38.26H136.5V38.96C137.23 38.9 137.96 38.81 138.68 38.72C139 38.68 139.32 38.63 139.64 38.58ZM139.64 37.46V36.85H136.5V37.46H139.64ZM139.64 36.05V35.72C139.64 35.45 139.58 35.4 139.25 35.4H136.89C136.56 35.4 136.5 35.45 136.5 35.72V36.05H139.64ZM145.07 34.82C145.13 34.53 145.38 34.4 145.63 34.4C145.92 34.4 146.21 34.57 146.21 34.91C146.21 34.94 146.21 34.98 146.2 35.02C145.86 36.66 145.74 38.02 145.74 39.44C145.74 40.27 145.85 41.2 145.92 41.79C145.92 41.82 145.93 41.85 145.93 41.87C145.93 42.21 145.64 42.4 145.35 42.4C145.08 42.4 144.82 42.25 144.77 41.91C144.69 41.27 144.6 40.28 144.6 39.44C144.6 37.95 144.72 36.6 145.07 34.82ZM151.13 35.28H151.21C151.56 35.28 151.75 35.54 151.75 35.81C151.75 36.06 151.59 36.31 151.24 36.36C150.36 36.48 149.37 36.56 148.42 36.58C148.03 36.59 147.84 36.32 147.84 36.04C147.84 35.78 148.02 35.51 148.38 35.5C149.31 35.48 150.26 35.4 151.13 35.28ZM148.52 39.7C148.61 40.32 148.92 40.55 150.17 40.55C150.62 40.55 151.17 40.5 151.68 40.4C151.72 40.39 151.76 40.39 151.8 40.39C152.14 40.39 152.33 40.67 152.33 40.95C152.33 41.18 152.2 41.42 151.89 41.48C151.3 41.6 150.71 41.65 150.16 41.65C148.31 41.65 147.54 41.09 147.43 39.88V39.83C147.43 39.47 147.72 39.27 148.01 39.27C148.25 39.27 148.48 39.41 148.52 39.7ZM155.23 42.46V37.87C155.08 38.1 154.92 38.32 154.77 38.52C154.64 38.69 154.47 38.76 154.31 38.76C154.03 38.76 153.76 38.53 153.76 38.24C153.76 38.12 153.8 38 153.9 37.87C154.66 36.89 155.36 35.39 155.74 34.05C155.82 33.79 156.05 33.67 156.28 33.67C156.57 33.67 156.87 33.86 156.87 34.17C156.87 34.22 156.86 34.28 156.84 34.34C156.62 35.1 156.28 35.95 155.87 36.75C156.11 36.77 156.32 36.91 156.32 37.17V42.46C156.32 42.73 156.05 42.87 155.78 42.87C155.5 42.87 155.23 42.73 155.23 42.46ZM160.49 36.22V34.19C160.49 33.87 160.77 33.71 161.04 33.71C161.32 33.71 161.59 33.87 161.59 34.19V36.22H162.77C163.04 36.22 163.18 36.46 163.18 36.71C163.18 36.95 163.04 37.2 162.77 37.2H161.59V41.44C161.59 42.28 161.28 42.71 160.28 42.71C159.99 42.71 159.74 42.7 159.43 42.64C159.16 42.58 159.04 42.36 159.04 42.13C159.04 41.85 159.23 41.57 159.58 41.57C159.62 41.57 159.66 41.57 159.7 41.58C159.81 41.6 160.02 41.62 160.16 41.62C160.42 41.62 160.49 41.54 160.49 41.24V37.2H157.28C157.02 37.2 156.88 36.95 156.88 36.71C156.88 36.46 157.02 36.22 157.28 36.22H160.49ZM158.53 38.17C158.85 38.46 159.15 38.79 159.41 39.14C159.5 39.26 159.54 39.39 159.54 39.51C159.54 39.83 159.25 40.08 158.94 40.08C158.77 40.08 158.6 40.01 158.47 39.82C158.26 39.53 157.96 39.17 157.67 38.87C157.56 38.75 157.51 38.62 157.51 38.51C157.51 38.23 157.78 37.99 158.08 37.99C158.23 37.99 158.39 38.04 158.53 38.17ZM167.55 37.17C167.15 38.82 166.57 40.44 165.86 41.69C165.73 41.92 165.52 42.01 165.32 42.01C165.03 42.01 164.77 41.81 164.77 41.51C164.77 41.42 164.8 41.31 164.86 41.2C165.49 40.09 166.01 38.72 166.39 37.29C165.98 37.34 165.58 37.41 165.2 37.49C165.16 37.5 165.11 37.5 165.07 37.5C164.76 37.5 164.59 37.25 164.59 36.99C164.59 36.76 164.73 36.53 165.04 36.47C165.55 36.37 166.1 36.3 166.63 36.24C166.75 35.63 166.85 35.01 166.92 34.4C166.96 34.08 167.21 33.93 167.47 33.93C167.75 33.93 168.03 34.11 168.03 34.43V34.5C167.97 35.04 167.88 35.6 167.77 36.15C167.97 36.14 168.15 36.14 168.31 36.14C169.59 36.14 170.06 36.72 170.06 38.29C170.06 39.23 169.96 40.07 169.79 40.68C169.47 41.83 169.02 42.24 168.01 42.24C167.77 42.24 167.52 42.22 167.33 42.19C166.99 42.14 166.84 41.89 166.84 41.65C166.84 41.37 167.02 41.1 167.35 41.1C167.37 41.1 167.4 41.11 167.43 41.11C167.62 41.13 167.77 41.15 167.98 41.15C168.33 41.15 168.51 41.04 168.68 40.45C168.85 39.88 168.94 39.1 168.94 38.28C168.94 37.38 168.77 37.14 168.29 37.14C168.07 37.14 167.82 37.15 167.55 37.17ZM171.63 35.46C172.26 36.06 172.88 36.98 173.22 37.65C173.28 37.77 173.3 37.89 173.3 37.99C173.3 38.34 173.02 38.57 172.72 38.57C172.52 38.57 172.31 38.46 172.17 38.19C171.81 37.47 171.28 36.7 170.75 36.13C170.64 36.01 170.59 35.88 170.59 35.77C170.59 35.49 170.87 35.27 171.17 35.27C171.33 35.27 171.49 35.33 171.63 35.46ZM180.67 41C180.65 42.12 179.83 42.52 178.87 42.52C177.68 42.52 176.96 42 176.96 41.07C176.96 40.27 177.64 39.61 178.92 39.61C179.08 39.61 179.24 39.62 179.42 39.64C179.35 39.18 179.32 38.84 179.32 38.58C179.32 38.15 179.34 37.93 179.39 37.61C179.44 37.33 179.67 37.21 179.91 37.21C180.19 37.21 180.47 37.37 180.47 37.67C180.47 37.7 180.46 37.72 180.46 37.75C180.42 38.04 180.39 38.29 180.39 38.57C180.39 38.85 180.42 39.24 180.53 39.87C181.17 40.06 181.83 40.35 182.41 40.74C182.6 40.87 182.68 41.04 182.68 41.21C182.68 41.49 182.45 41.76 182.15 41.76C182.05 41.76 181.93 41.72 181.81 41.64C181.44 41.38 181.05 41.16 180.67 41ZM178.87 41.53C179.33 41.53 179.58 41.33 179.58 40.89C179.58 40.8 179.58 40.72 179.57 40.64C179.35 40.6 179.14 40.58 178.94 40.58C178.24 40.58 178.02 40.8 178.02 41.07C178.02 41.36 178.22 41.53 178.87 41.53ZM176.69 35.66C176.84 35.15 176.98 34.64 177.08 34.14C177.14 33.84 177.38 33.71 177.62 33.71C177.9 33.71 178.16 33.88 178.16 34.2C178.16 34.24 178.16 34.29 178.15 34.33C178.07 34.71 177.97 35.11 177.86 35.51C178.16 35.46 178.46 35.41 178.74 35.36C178.78 35.35 178.82 35.35 178.85 35.35C179.17 35.35 179.37 35.61 179.37 35.88C179.37 36.1 179.24 36.32 178.92 36.39C178.49 36.48 178 36.56 177.51 36.63C177.09 37.84 176.55 39.04 175.97 40C175.82 40.25 175.61 40.36 175.41 40.36C175.11 40.36 174.85 40.13 174.85 39.83C174.85 39.72 174.88 39.6 174.96 39.48C175.47 38.68 175.93 37.75 176.31 36.76C175.94 36.8 175.58 36.82 175.27 36.83C174.93 36.84 174.75 36.56 174.75 36.28C174.75 36.02 174.91 35.77 175.23 35.76C175.68 35.74 176.18 35.71 176.69 35.66ZM181.13 35.54C181.61 35.67 182.23 35.95 182.66 36.22C182.89 36.36 182.99 36.56 182.99 36.74C182.99 37.03 182.75 37.29 182.46 37.29C182.36 37.29 182.26 37.26 182.16 37.2C181.69 36.93 181.17 36.67 180.73 36.51C180.48 36.42 180.37 36.24 180.37 36.06C180.37 35.79 180.6 35.51 180.94 35.51C181 35.51 181.06 35.52 181.13 35.54ZM187.95 37.17C187.55 38.82 186.97 40.44 186.26 41.69C186.13 41.92 185.92 42.01 185.72 42.01C185.43 42.01 185.17 41.81 185.17 41.51C185.17 41.42 185.2 41.31 185.26 41.2C185.89 40.09 186.41 38.72 186.79 37.29C186.38 37.34 185.98 37.41 185.6 37.49C185.56 37.5 185.51 37.5 185.47 37.5C185.16 37.5 184.99 37.25 184.99 36.99C184.99 36.76 185.13 36.53 185.44 36.47C185.95 36.37 186.5 36.3 187.03 36.24C187.15 35.63 187.25 35.01 187.32 34.4C187.36 34.08 187.61 33.93 187.87 33.93C188.15 33.93 188.43 34.11 188.43 34.43V34.5C188.37 35.04 188.28 35.6 188.17 36.15C188.37 36.14 188.55 36.14 188.71 36.14C189.99 36.14 190.46 36.72 190.46 38.29C190.46 39.23 190.36 40.07 190.19 40.68C189.87 41.83 189.42 42.24 188.41 42.24C188.17 42.24 187.92 42.22 187.73 42.19C187.39 42.14 187.24 41.89 187.24 41.65C187.24 41.37 187.42 41.1 187.75 41.1C187.77 41.1 187.8 41.11 187.83 41.11C188.02 41.13 188.17 41.15 188.38 41.15C188.73 41.15 188.91 41.04 189.08 40.45C189.25 39.88 189.34 39.1 189.34 38.28C189.34 37.38 189.17 37.14 188.69 37.14C188.47 37.14 188.22 37.15 187.95 37.17ZM192.03 35.46C192.66 36.06 193.28 36.98 193.62 37.65C193.68 37.77 193.7 37.89 193.7 37.99C193.7 38.34 193.42 38.57 193.12 38.57C192.92 38.57 192.71 38.46 192.57 38.19C192.21 37.47 191.68 36.7 191.15 36.13C191.04 36.01 190.99 35.88 190.99 35.77C190.99 35.49 191.27 35.27 191.57 35.27C191.73 35.27 191.89 35.33 192.03 35.46ZM200.22 37.12C201.68 37.12 202.68 37.91 202.68 39.17C202.68 40.73 201.51 41.83 199.27 42.15C199.24 42.16 199.2 42.16 199.17 42.16C198.87 42.16 198.71 41.91 198.71 41.67C198.71 41.46 198.84 41.25 199.12 41.2C201.02 40.87 201.67 40.23 201.67 39.17C201.67 38.53 201.21 38.03 200.22 38.03C199.19 38.03 197.9 38.36 196.43 39.01C196.35 39.05 196.27 39.06 196.19 39.06C195.91 39.06 195.72 38.83 195.72 38.59C195.72 38.41 195.82 38.22 196.06 38.12C197.54 37.47 199.04 37.12 200.22 37.12ZM207.04 36.88C206.63 36.94 206.22 37 205.81 37C205.48 37 205.31 36.75 205.31 36.48C205.31 36.21 205.48 35.95 205.82 35.93C206.22 35.91 206.7 35.85 207.24 35.76C207.33 35.21 207.37 34.77 207.43 34.22C207.46 33.91 207.72 33.76 207.98 33.76C208.26 33.76 208.54 33.94 208.54 34.26V34.32C208.49 34.8 208.44 35.16 208.38 35.54C208.66 35.48 208.95 35.41 209.24 35.34C209.29 35.33 209.34 35.32 209.39 35.32C209.7 35.32 209.89 35.58 209.89 35.85C209.89 36.06 209.77 36.27 209.5 36.34C209.04 36.47 208.6 36.58 208.2 36.67C207.84 38.63 207.36 40.48 206.8 41.93C206.68 42.23 206.43 42.37 206.19 42.37C205.91 42.37 205.64 42.17 205.64 41.86C205.64 41.77 205.66 41.68 205.7 41.58C206.25 40.22 206.69 38.63 207.04 36.88ZM209.05 40.31C209.05 39.97 209.33 39.78 209.61 39.78C209.84 39.78 210.06 39.91 210.09 40.2C210.16 40.84 210.52 41.02 211.61 41.02C212.12 41.02 212.55 40.98 212.95 40.92C212.98 40.91 213.03 40.91 213.06 40.91C213.4 40.91 213.59 41.2 213.59 41.47C213.59 41.71 213.44 41.95 213.13 42C212.7 42.07 212.2 42.11 211.63 42.11C210.23 42.11 209.61 41.75 209.29 41.24C209.13 40.99 209.05 40.59 209.05 40.31ZM210.05 37.04C210.83 36.88 211.82 36.77 212.62 36.77C212.98 36.77 213.16 37.04 213.16 37.31C213.16 37.57 212.99 37.82 212.65 37.82C211.85 37.82 210.92 37.94 210.21 38.08C210.17 38.09 210.12 38.09 210.09 38.09C209.78 38.09 209.59 37.84 209.59 37.57C209.59 37.34 209.73 37.11 210.05 37.04Z" fill="#282828"/>
<rect x="222.5" y="30" width="16" height="16" rx="4" fill="#808080"/>
<path d="M249.34 40.63L249.37 39.88C247.85 40.99 246.07 41.85 244.06 42.44C244 42.46 243.94 42.46 243.89 42.46C243.58 42.46 243.39 42.2 243.39 41.95C243.39 41.75 243.5 41.56 243.75 41.49C245.49 40.98 246.84 40.4 248.15 39.61C246.81 39.84 245.93 39.94 244.61 40.06C244.47 40.07 244.09 40.1 243.98 40.1C243.68 40.1 243.5 39.84 243.5 39.59C243.5 39.36 243.64 39.13 243.95 39.12C244.36 39.1 244.77 39.07 245.18 39.04V35.65C245.18 34.9 245.5 34.54 246.46 34.54H247.13C247.23 34.3 247.31 34.06 247.38 33.81C247.46 33.55 247.68 33.44 247.9 33.44C248.17 33.44 248.43 33.61 248.43 33.91C248.43 33.97 248.42 34.03 248.4 34.09C248.35 34.25 248.29 34.4 248.23 34.54H249.08C250.04 34.54 250.36 34.9 250.36 35.65V37.76C250.68 37.43 250.97 37.06 251.26 36.7C251.39 36.53 251.55 36.47 251.7 36.47C251.97 36.47 252.21 36.68 252.21 36.96C252.21 37.07 252.17 37.2 252.07 37.32C251.55 37.96 250.98 38.55 250.36 39.09V41.6C250.36 42.47 249.92 42.83 249.02 42.83C248.81 42.83 248.6 42.81 248.38 42.77C248.1 42.72 247.97 42.49 247.97 42.27C247.97 42.01 248.14 41.74 248.48 41.74C248.51 41.74 248.54 41.74 248.58 41.75C248.77 41.78 248.91 41.79 249.04 41.79C249.25 41.79 249.34 41.72 249.34 41.48V40.63ZM249.34 38.58V38.26H246.2V38.96C246.93 38.9 247.66 38.81 248.38 38.72C248.7 38.68 249.02 38.63 249.34 38.58ZM249.34 37.46V36.85H246.2V37.46H249.34ZM249.34 36.05V35.72C249.34 35.45 249.28 35.4 248.95 35.4H246.59C246.26 35.4 246.2 35.45 246.2 35.72V36.05H249.34ZM254.77 34.82C254.83 34.53 255.08 34.4 255.33 34.4C255.62 34.4 255.91 34.57 255.91 34.91C255.91 34.94 255.91 34.98 255.9 35.02C255.56 36.66 255.44 38.02 255.44 39.44C255.44 40.27 255.55 41.2 255.62 41.79C255.62 41.82 255.63 41.85 255.63 41.87C255.63 42.21 255.34 42.4 255.05 42.4C254.78 42.4 254.52 42.25 254.47 41.91C254.39 41.27 254.3 40.28 254.3 39.44C254.3 37.95 254.42 36.6 254.77 34.82ZM260.83 35.28H260.91C261.26 35.28 261.45 35.54 261.45 35.81C261.45 36.06 261.29 36.31 260.94 36.36C260.06 36.48 259.07 36.56 258.12 36.58C257.73 36.59 257.54 36.32 257.54 36.04C257.54 35.78 257.72 35.51 258.08 35.5C259.01 35.48 259.96 35.4 260.83 35.28ZM258.22 39.7C258.31 40.32 258.62 40.55 259.87 40.55C260.32 40.55 260.87 40.5 261.38 40.4C261.42 40.39 261.46 40.39 261.5 40.39C261.84 40.39 262.03 40.67 262.03 40.95C262.03 41.18 261.9 41.42 261.59 41.48C261 41.6 260.41 41.65 259.86 41.65C258.01 41.65 257.24 41.09 257.13 39.88V39.83C257.13 39.47 257.42 39.27 257.71 39.27C257.95 39.27 258.18 39.41 258.22 39.7ZM264.93 42.46V37.87C264.78 38.1 264.62 38.32 264.47 38.52C264.34 38.69 264.17 38.76 264.01 38.76C263.73 38.76 263.46 38.53 263.46 38.24C263.46 38.12 263.5 38 263.6 37.87C264.36 36.89 265.06 35.39 265.44 34.05C265.52 33.79 265.75 33.67 265.98 33.67C266.27 33.67 266.57 33.86 266.57 34.17C266.57 34.22 266.56 34.28 266.54 34.34C266.32 35.1 265.98 35.95 265.57 36.75C265.81 36.77 266.02 36.91 266.02 37.17V42.46C266.02 42.73 265.75 42.87 265.48 42.87C265.2 42.87 264.93 42.73 264.93 42.46ZM270.19 36.22V34.19C270.19 33.87 270.47 33.71 270.74 33.71C271.02 33.71 271.29 33.87 271.29 34.19V36.22H272.47C272.74 36.22 272.88 36.46 272.88 36.71C272.88 36.95 272.74 37.2 272.47 37.2H271.29V41.44C271.29 42.28 270.98 42.71 269.98 42.71C269.69 42.71 269.44 42.7 269.13 42.64C268.86 42.58 268.74 42.36 268.74 42.13C268.74 41.85 268.93 41.57 269.28 41.57C269.32 41.57 269.36 41.57 269.4 41.58C269.51 41.6 269.72 41.62 269.86 41.62C270.12 41.62 270.19 41.54 270.19 41.24V37.2H266.98C266.72 37.2 266.58 36.95 266.58 36.71C266.58 36.46 266.72 36.22 266.98 36.22H270.19ZM268.23 38.17C268.55 38.46 268.85 38.79 269.11 39.14C269.2 39.26 269.24 39.39 269.24 39.51C269.24 39.83 268.95 40.08 268.64 40.08C268.47 40.08 268.3 40.01 268.17 39.82C267.96 39.53 267.66 39.17 267.37 38.87C267.26 38.75 267.21 38.62 267.21 38.51C267.21 38.23 267.48 37.99 267.78 37.99C267.93 37.99 268.09 38.04 268.23 38.17ZM277.25 37.17C276.85 38.82 276.27 40.44 275.56 41.69C275.43 41.92 275.22 42.01 275.02 42.01C274.73 42.01 274.47 41.81 274.47 41.51C274.47 41.42 274.5 41.31 274.56 41.2C275.19 40.09 275.71 38.72 276.09 37.29C275.68 37.34 275.28 37.41 274.9 37.49C274.86 37.5 274.81 37.5 274.77 37.5C274.46 37.5 274.29 37.25 274.29 36.99C274.29 36.76 274.43 36.53 274.74 36.47C275.25 36.37 275.8 36.3 276.33 36.24C276.45 35.63 276.55 35.01 276.62 34.4C276.66 34.08 276.91 33.93 277.17 33.93C277.45 33.93 277.73 34.11 277.73 34.43V34.5C277.67 35.04 277.58 35.6 277.47 36.15C277.67 36.14 277.85 36.14 278.01 36.14C279.29 36.14 279.76 36.72 279.76 38.29C279.76 39.23 279.66 40.07 279.49 40.68C279.17 41.83 278.72 42.24 277.71 42.24C277.47 42.24 277.22 42.22 277.03 42.19C276.69 42.14 276.54 41.89 276.54 41.65C276.54 41.37 276.72 41.1 277.05 41.1C277.07 41.1 277.1 41.11 277.13 41.11C277.32 41.13 277.47 41.15 277.68 41.15C278.03 41.15 278.21 41.04 278.38 40.45C278.55 39.88 278.64 39.1 278.64 38.28C278.64 37.38 278.47 37.14 277.99 37.14C277.77 37.14 277.52 37.15 277.25 37.17ZM281.33 35.46C281.96 36.06 282.58 36.98 282.92 37.65C282.98 37.77 283 37.89 283 37.99C283 38.34 282.72 38.57 282.42 38.57C282.22 38.57 282.01 38.46 281.87 38.19C281.51 37.47 280.98 36.7 280.45 36.13C280.34 36.01 280.29 35.88 280.29 35.77C280.29 35.49 280.57 35.27 280.87 35.27C281.03 35.27 281.19 35.33 281.33 35.46ZM290.37 41C290.35 42.12 289.53 42.52 288.57 42.52C287.38 42.52 286.66 42 286.66 41.07C286.66 40.27 287.34 39.61 288.62 39.61C288.78 39.61 288.94 39.62 289.12 39.64C289.05 39.18 289.02 38.84 289.02 38.58C289.02 38.15 289.04 37.93 289.09 37.61C289.14 37.33 289.37 37.21 289.61 37.21C289.89 37.21 290.17 37.37 290.17 37.67C290.17 37.7 290.16 37.72 290.16 37.75C290.12 38.04 290.09 38.29 290.09 38.57C290.09 38.85 290.12 39.24 290.23 39.87C290.87 40.06 291.53 40.35 292.11 40.74C292.3 40.87 292.38 41.04 292.38 41.21C292.38 41.49 292.15 41.76 291.85 41.76C291.75 41.76 291.63 41.72 291.51 41.64C291.14 41.38 290.75 41.16 290.37 41ZM288.57 41.53C289.03 41.53 289.28 41.33 289.28 40.89C289.28 40.8 289.28 40.72 289.27 40.64C289.05 40.6 288.84 40.58 288.64 40.58C287.94 40.58 287.72 40.8 287.72 41.07C287.72 41.36 287.92 41.53 288.57 41.53ZM286.39 35.66C286.54 35.15 286.68 34.64 286.78 34.14C286.84 33.84 287.08 33.71 287.32 33.71C287.6 33.71 287.86 33.88 287.86 34.2C287.86 34.24 287.86 34.29 287.85 34.33C287.77 34.71 287.67 35.11 287.56 35.51C287.86 35.46 288.16 35.41 288.44 35.36C288.48 35.35 288.52 35.35 288.55 35.35C288.87 35.35 289.07 35.61 289.07 35.88C289.07 36.1 288.94 36.32 288.62 36.39C288.19 36.48 287.7 36.56 287.21 36.63C286.79 37.84 286.25 39.04 285.67 40C285.52 40.25 285.31 40.36 285.11 40.36C284.81 40.36 284.55 40.13 284.55 39.83C284.55 39.72 284.58 39.6 284.66 39.48C285.17 38.68 285.63 37.75 286.01 36.76C285.64 36.8 285.28 36.82 284.97 36.83C284.63 36.84 284.45 36.56 284.45 36.28C284.45 36.02 284.61 35.77 284.93 35.76C285.38 35.74 285.88 35.71 286.39 35.66ZM290.83 35.54C291.31 35.67 291.93 35.95 292.36 36.22C292.59 36.36 292.69 36.56 292.69 36.74C292.69 37.03 292.45 37.29 292.16 37.29C292.06 37.29 291.96 37.26 291.86 37.2C291.39 36.93 290.87 36.67 290.43 36.51C290.18 36.42 290.07 36.24 290.07 36.06C290.07 35.79 290.3 35.51 290.64 35.51C290.7 35.51 290.76 35.52 290.83 35.54ZM297.65 37.17C297.25 38.82 296.67 40.44 295.96 41.69C295.83 41.92 295.62 42.01 295.42 42.01C295.13 42.01 294.87 41.81 294.87 41.51C294.87 41.42 294.9 41.31 294.96 41.2C295.59 40.09 296.11 38.72 296.49 37.29C296.08 37.34 295.68 37.41 295.3 37.49C295.26 37.5 295.21 37.5 295.17 37.5C294.86 37.5 294.69 37.25 294.69 36.99C294.69 36.76 294.83 36.53 295.14 36.47C295.65 36.37 296.2 36.3 296.73 36.24C296.85 35.63 296.95 35.01 297.02 34.4C297.06 34.08 297.31 33.93 297.57 33.93C297.85 33.93 298.13 34.11 298.13 34.43V34.5C298.07 35.04 297.98 35.6 297.87 36.15C298.07 36.14 298.25 36.14 298.41 36.14C299.69 36.14 300.16 36.72 300.16 38.29C300.16 39.23 300.06 40.07 299.89 40.68C299.57 41.83 299.12 42.24 298.11 42.24C297.87 42.24 297.62 42.22 297.43 42.19C297.09 42.14 296.94 41.89 296.94 41.65C296.94 41.37 297.12 41.1 297.45 41.1C297.47 41.1 297.5 41.11 297.53 41.11C297.72 41.13 297.87 41.15 298.08 41.15C298.43 41.15 298.61 41.04 298.78 40.45C298.95 39.88 299.04 39.1 299.04 38.28C299.04 37.38 298.87 37.14 298.39 37.14C298.17 37.14 297.92 37.15 297.65 37.17ZM301.73 35.46C302.36 36.06 302.98 36.98 303.32 37.65C303.38 37.77 303.4 37.89 303.4 37.99C303.4 38.34 303.12 38.57 302.82 38.57C302.62 38.57 302.41 38.46 302.27 38.19C301.91 37.47 301.38 36.7 300.85 36.13C300.74 36.01 300.69 35.88 300.69 35.77C300.69 35.49 300.97 35.27 301.27 35.27C301.43 35.27 301.59 35.33 301.73 35.46ZM309.92 37.12C311.38 37.12 312.38 37.91 312.38 39.17C312.38 40.73 311.21 41.83 308.97 42.15C308.94 42.16 308.9 42.16 308.87 42.16C308.57 42.16 308.41 41.91 308.41 41.67C308.41 41.46 308.54 41.25 308.82 41.2C310.72 40.87 311.37 40.23 311.37 39.17C311.37 38.53 310.91 38.03 309.92 38.03C308.89 38.03 307.6 38.36 306.13 39.01C306.05 39.05 305.97 39.06 305.89 39.06C305.61 39.06 305.42 38.83 305.42 38.59C305.42 38.41 305.52 38.22 305.76 38.12C307.24 37.47 308.74 37.12 309.92 37.12ZM316.74 36.88C316.33 36.94 315.92 37 315.51 37C315.18 37 315.01 36.75 315.01 36.48C315.01 36.21 315.18 35.95 315.52 35.93C315.92 35.91 316.4 35.85 316.94 35.76C317.03 35.21 317.07 34.77 317.13 34.22C317.16 33.91 317.42 33.76 317.68 33.76C317.96 33.76 318.24 33.94 318.24 34.26V34.32C318.19 34.8 318.14 35.16 318.08 35.54C318.36 35.48 318.65 35.41 318.94 35.34C318.99 35.33 319.04 35.32 319.09 35.32C319.4 35.32 319.59 35.58 319.59 35.85C319.59 36.06 319.47 36.27 319.2 36.34C318.74 36.47 318.3 36.58 317.9 36.67C317.54 38.63 317.06 40.48 316.5 41.93C316.38 42.23 316.13 42.37 315.89 42.37C315.61 42.37 315.34 42.17 315.34 41.86C315.34 41.77 315.36 41.68 315.4 41.58C315.95 40.22 316.39 38.63 316.74 36.88ZM318.75 40.31C318.75 39.97 319.03 39.78 319.31 39.78C319.54 39.78 319.76 39.91 319.79 40.2C319.86 40.84 320.22 41.02 321.31 41.02C321.82 41.02 322.25 40.98 322.65 40.92C322.68 40.91 322.73 40.91 322.76 40.91C323.1 40.91 323.29 41.2 323.29 41.47C323.29 41.71 323.14 41.95 322.83 42C322.4 42.07 321.9 42.11 321.33 42.11C319.93 42.11 319.31 41.75 318.99 41.24C318.83 40.99 318.75 40.59 318.75 40.31ZM319.75 37.04C320.53 36.88 321.52 36.77 322.32 36.77C322.68 36.77 322.86 37.04 322.86 37.31C322.86 37.57 322.69 37.82 322.35 37.82C321.55 37.82 320.62 37.94 319.91 38.08C319.87 38.09 319.82 38.09 319.79 38.09C319.48 38.09 319.29 37.84 319.29 37.57C319.29 37.34 319.43 37.11 319.75 37.04Z" fill="#282828"/>
</svg>
