<svg width="400" height="400" viewBox="0 0 400 400" fill="none" xmlns="http://www.w3.org/2000/svg">
<g clip-path="url(#clip0_1543_2215)">
<g clip-path="url(#clip1_1543_2215)">
<path d="M200.77 212.407L194.222 38.5091C196.789 38.4145 197.655 38.3865 200.221 38.3824L200.77 212.407Z" fill="#808080"/>
<path d="M200.77 212.407L185.215 38.8861C187.778 38.6502 191.645 38.3924 194.215 38.2977L200.77 212.407Z" fill="#69BD83"/>
<path d="M200.77 212.408L144.081 48.1264C158.385 43.1077 170.091 40.5469 185.181 39.1705L200.77 212.408Z" fill="#FFF464"/>
<path d="M200.012 200L175.638 398.508C66.0116 385.049 -11.9442 285.257 1.51482 175.624C11.0194 98.2308 58.3339 38.7372 131.607 12.0605L200.012 200Z" fill="#F4A790"/>
<path d="M200.012 200V0C310.459 0 400 89.5467 400 200C400 310.453 310.459 400 200.012 400C191.502 400 184.078 399.549 175.638 398.508L200.012 200Z" fill="#ED6D46"/>
</g>
<path d="M275.816 210.32C281.176 210.32 285.136 214.36 285.136 219.76C285.136 225.12 280.936 229.52 274.856 229.52C269.096 229.52 265.336 225.52 264.896 221.12H270.616C270.816 222.44 272.416 224.24 274.816 224.24C277.576 224.24 279.416 222.24 279.416 219.76C279.416 217.24 277.576 215.2 274.816 215.2C272.136 215.2 271.016 216.88 270.536 217.84H265.496L267.296 201H283.136V206.28H271.936L271.416 211.56C272.376 210.92 273.856 210.32 275.816 210.32ZM301.802 218.84L297.122 223.48H307.442V229H288.562V224.72L297.682 215.52C300.802 212.4 301.802 211.24 301.802 209.12C301.802 207.12 300.162 205.76 297.882 205.76C295.442 205.76 293.682 207.36 293.682 209.8H288.202C288.202 204.48 292.362 200.48 297.882 200.48C303.762 200.48 307.522 204.16 307.522 208.84C307.522 212.88 305.082 215.56 301.802 218.84ZM318.157 212.96C314.797 212.96 311.917 210.28 311.917 206.72C311.917 203.16 314.797 200.48 318.157 200.48C321.517 200.48 324.397 203.16 324.397 206.72C324.397 210.28 321.517 212.96 318.157 212.96ZM318.557 229H314.397L331.757 201H335.917L318.557 229ZM318.157 209.56C319.557 209.56 320.797 208.48 320.797 206.72C320.797 204.96 319.557 203.88 318.157 203.88C316.757 203.88 315.517 204.96 315.517 206.72C315.517 208.48 316.757 209.56 318.157 209.56ZM332.157 229.52C328.797 229.52 325.917 226.84 325.917 223.28C325.917 219.72 328.797 217.04 332.157 217.04C335.517 217.04 338.397 219.72 338.397 223.28C338.397 226.84 335.517 229.52 332.157 229.52ZM332.157 226.12C333.557 226.12 334.797 225.04 334.797 223.28C334.797 221.52 333.557 220.44 332.157 220.44C330.757 220.44 329.517 221.52 329.517 223.28C329.517 225.04 330.757 226.12 332.157 226.12Z" fill="white"/>
<path d="M64.8131 218.68H67.7331V223.96H64.8131V229H59.2931V223.96H46.8931V219.08L58.2531 201H64.8131V218.68ZM59.2931 218.68V208.68L53.0531 218.68H59.2931ZM84.4053 218.84L79.7253 223.48H90.0453V229H71.1653V224.72L80.2853 215.52C83.4053 212.4 84.4053 211.24 84.4053 209.12C84.4053 207.12 82.7653 205.76 80.4853 205.76C78.0453 205.76 76.2853 207.36 76.2853 209.8H70.8053C70.8053 204.48 74.9653 200.48 80.4853 200.48C86.3653 200.48 90.1253 204.16 90.1253 208.84C90.1253 212.88 87.6853 215.56 84.4053 218.84ZM97.9203 229.52C96.0803 229.52 94.7203 228.12 94.7203 226.32C94.7203 224.52 96.0803 223.12 97.9203 223.12C99.7603 223.12 101.12 224.52 101.12 226.32C101.12 228.12 99.7603 229.52 97.9203 229.52ZM103.417 206.52V201H122.257V205.6L112.297 229H106.177L115.897 206.52H103.417ZM132.32 212.96C128.96 212.96 126.08 210.28 126.08 206.72C126.08 203.16 128.96 200.48 132.32 200.48C135.68 200.48 138.56 203.16 138.56 206.72C138.56 210.28 135.68 212.96 132.32 212.96ZM132.72 229H128.56L145.92 201H150.08L132.72 229ZM132.32 209.56C133.72 209.56 134.96 208.48 134.96 206.72C134.96 204.96 133.72 203.88 132.32 203.88C130.92 203.88 129.68 204.96 129.68 206.72C129.68 208.48 130.92 209.56 132.32 209.56ZM146.32 229.52C142.96 229.52 140.08 226.84 140.08 223.28C140.08 219.72 142.96 217.04 146.32 217.04C149.68 217.04 152.56 219.72 152.56 223.28C152.56 226.84 149.68 229.52 146.32 229.52ZM146.32 226.12C147.72 226.12 148.96 225.04 148.96 223.28C148.96 221.52 147.72 220.44 146.32 220.44C144.92 220.44 143.68 221.52 143.68 223.28C143.68 225.04 144.92 226.12 146.32 226.12Z" fill="white"/>
</g>
<defs>
<clipPath id="clip0_1543_2215">
<rect width="400" height="400" fill="white"/>
</clipPath>
<clipPath id="clip1_1543_2215">
<rect width="400" height="400" fill="white"/>
</clipPath>
</defs>
</svg>
