<svg width="348" height="49" viewBox="0 0 348 49" fill="none" xmlns="http://www.w3.org/2000/svg">
<path d="M0.439453 0.238281L26.4395 48.2383" stroke="black"/>
<path d="M29.5835 30.5303V23.9663C29.2115 24.3383 28.8635 24.6743 28.4315 25.0463C28.2635 25.1903 28.1075 25.2503 27.9035 25.2503C27.4955 25.2503 27.2315 24.9863 27.2315 24.6023C27.2315 24.3623 27.3035 24.2183 27.5075 24.0503C28.1555 23.5463 28.6955 23.1023 29.3195 22.5383C29.5955 22.2863 29.8235 22.1423 30.2075 22.1423C30.7235 22.1423 30.9995 22.4783 30.9995 22.9583V30.5303C30.9995 30.9983 30.7355 31.2383 30.2795 31.2383C29.8235 31.2383 29.5835 30.9983 29.5835 30.5303ZM35.917 23.8703L35.761 25.7423C36.133 25.5383 36.493 25.4423 36.853 25.4423C38.701 25.4423 40.009 26.4743 40.009 28.2983C40.009 30.1223 38.665 31.3223 36.877 31.3223C35.893 31.3223 35.005 31.0343 34.393 30.5423C34.189 30.3743 34.129 30.2183 34.129 30.0023C34.129 29.6423 34.417 29.3783 34.813 29.3783C34.921 29.3783 35.029 29.4143 35.173 29.5223C35.797 29.9783 36.265 30.1223 36.853 30.1223C37.861 30.1223 38.569 29.4023 38.569 28.3463C38.569 27.2543 37.897 26.6183 36.853 26.6183C36.481 26.6183 36.109 26.7383 35.821 26.9183C35.557 27.0743 35.449 27.1463 35.221 27.1463C34.801 27.1463 34.441 26.8943 34.441 26.4383V26.3663L34.693 23.1863C34.741 22.6223 35.185 22.2743 35.821 22.2743H39.085C39.445 22.2743 39.661 22.5383 39.661 22.8983C39.661 23.2583 39.445 23.5223 39.085 23.5223H36.313C36.049 23.5223 35.941 23.6183 35.917 23.8703ZM44.1826 22.0823C46.0066 22.0823 47.2186 23.3783 47.2186 26.7023C47.2186 30.0263 46.0066 31.3223 44.1826 31.3223C42.3586 31.3223 41.1706 30.0263 41.1706 26.7023C41.1706 23.3783 42.3586 22.0823 44.1826 22.0823ZM44.1826 23.2823C43.1866 23.2823 42.5866 24.1223 42.5866 26.7023C42.5866 29.2823 43.1866 30.1223 44.1826 30.1223C45.1906 30.1223 45.8026 29.2823 45.8026 26.7023C45.8026 24.1223 45.1906 23.2823 44.1826 23.2823ZM54.2361 23.2703C54.7881 26.3063 56.0601 28.9343 58.8081 30.4943C59.0961 30.6503 59.2161 30.8903 59.2161 31.1183C59.2161 31.4783 58.9161 31.8263 58.5201 31.8263C58.4121 31.8263 58.2801 31.8023 58.1601 31.7303C56.1681 30.6263 54.5841 28.5743 53.7921 26.0663C53.5041 27.2303 53.0121 28.2623 52.3281 29.1863C51.5601 30.2183 50.4081 31.2263 49.3161 31.8383C49.1721 31.9223 49.0281 31.9583 48.8961 31.9583C48.5121 31.9583 48.2601 31.6343 48.2601 31.2983C48.2601 31.0703 48.3681 30.8543 48.6201 30.7103C49.5801 30.1703 50.5881 29.3543 51.2961 28.3943C52.3281 26.9903 52.8921 25.1783 52.8921 22.0103C52.8921 21.6263 53.2401 21.4343 53.5881 21.4343C53.9241 21.4343 54.2721 21.6263 54.2721 22.0103C54.2721 22.4543 54.2601 22.8743 54.2361 23.2703ZM65.0361 28.2743H62.6601C61.3401 28.2743 60.8481 27.7823 60.8481 26.6663V25.1663C60.8481 24.0503 61.3401 23.5583 62.6601 23.5583H65.0361V21.5063C65.0361 21.1463 65.3721 20.9663 65.7081 20.9663C66.0441 20.9663 66.3801 21.1463 66.3801 21.5063V23.5583H68.8041C70.1241 23.5583 70.6161 24.0503 70.6161 25.1663V26.6663C70.6161 27.7823 70.1241 28.2743 68.8041 28.2743H66.3801V31.8383C66.3801 32.1983 66.0441 32.3783 65.7081 32.3783C65.3721 32.3783 65.0361 32.1983 65.0361 31.8383V28.2743ZM62.8161 27.0983H65.0361V24.7343H62.8161C62.2761 24.7343 62.1681 24.8543 62.1681 25.2983V26.5343C62.1681 26.9903 62.3121 27.0983 62.8161 27.0983ZM66.3801 24.7343V27.0983H68.6481C69.1881 27.0983 69.2961 26.9783 69.2961 26.5343V25.2983C69.2961 24.8543 69.1881 24.7343 68.6481 24.7343H66.3801ZM133.426 25.6823C132.946 27.6623 132.25 29.6063 131.398 31.1063C131.242 31.3823 130.99 31.4903 130.75 31.4903C130.402 31.4903 130.09 31.2503 130.09 30.8903C130.09 30.7823 130.126 30.6503 130.198 30.5183C130.954 29.1863 131.578 27.5423 132.034 25.8263C131.542 25.8863 131.062 25.9703 130.606 26.0663C130.558 26.0783 130.498 26.0783 130.45 26.0783C130.078 26.0783 129.874 25.7783 129.874 25.4663C129.874 25.1903 130.042 24.9143 130.414 24.8423C131.026 24.7223 131.686 24.6383 132.322 24.5663C132.466 23.8343 132.586 23.0903 132.67 22.3583C132.718 21.9743 133.018 21.7943 133.33 21.7943C133.666 21.7943 134.002 22.0103 134.002 22.3943V22.4783C133.93 23.1263 133.822 23.7983 133.69 24.4583C133.93 24.4463 134.146 24.4463 134.338 24.4463C135.874 24.4463 136.438 25.1423 136.438 27.0263C136.438 28.1543 136.318 29.1623 136.114 29.8943C135.73 31.2743 135.19 31.7663 133.978 31.7663C133.69 31.7663 133.39 31.7423 133.162 31.7063C132.754 31.6463 132.574 31.3463 132.574 31.0583C132.574 30.7223 132.79 30.3983 133.186 30.3983C133.21 30.3983 133.246 30.4103 133.282 30.4103C133.51 30.4343 133.69 30.4583 133.942 30.4583C134.362 30.4583 134.578 30.3263 134.782 29.6183C134.986 28.9343 135.094 27.9983 135.094 27.0143C135.094 25.9343 134.89 25.6463 134.314 25.6463C134.05 25.6463 133.75 25.6583 133.426 25.6823ZM138.202 23.6303C138.958 24.3503 139.702 25.4543 140.11 26.2583C140.182 26.4023 140.206 26.5463 140.206 26.6663C140.206 27.0863 139.87 27.3623 139.51 27.3623C139.27 27.3623 139.018 27.2303 138.85 26.9063C138.418 26.0423 137.782 25.1183 137.146 24.4343C137.014 24.2903 136.954 24.1343 136.954 24.0023C136.954 23.6663 137.29 23.4023 137.65 23.4023C137.842 23.4023 138.034 23.4743 138.202 23.6303ZM139.234 21.4463C139.138 21.3503 139.102 21.2543 139.102 21.1583C139.102 20.9183 139.33 20.7143 139.606 20.7143C139.726 20.7143 139.846 20.7623 139.966 20.8583C140.278 21.1223 140.638 21.4943 140.89 21.8423C140.986 21.9623 141.022 22.0823 141.022 22.2023C141.022 22.4663 140.794 22.6583 140.542 22.6583C140.398 22.6583 140.242 22.5983 140.122 22.4423C139.846 22.0943 139.51 21.7343 139.234 21.4463ZM138.034 22.3943C137.95 22.2983 137.914 22.2023 137.914 22.1183C137.914 21.8783 138.154 21.6623 138.418 21.6623C138.526 21.6623 138.646 21.6983 138.754 21.7943C139.078 22.0823 139.438 22.4663 139.69 22.8383C139.774 22.9463 139.798 23.0543 139.798 23.1623C139.798 23.4263 139.57 23.6423 139.318 23.6423C139.174 23.6423 139.03 23.5703 138.922 23.4143C138.634 23.0183 138.31 22.6703 138.034 22.3943ZM149.194 20.9303H152.026C152.326 20.9303 152.506 21.1463 152.506 21.4223C152.506 21.7103 152.302 21.9023 152.026 21.9023H149.566C149.218 21.9023 149.026 22.0823 149.026 22.4303V30.0143C149.026 30.2903 148.786 30.4703 148.498 30.4703C148.222 30.4703 147.958 30.2903 147.958 30.0143V22.1663C147.958 21.3623 148.39 20.9303 149.194 20.9303ZM159.646 21.7463V22.9343H160.414C161.11 22.9343 161.77 22.9463 162.382 22.9583C162.79 22.9703 162.994 23.2823 162.994 23.6063C162.994 23.9183 162.79 24.2183 162.382 24.2183C161.914 24.2063 161.398 24.1943 160.858 24.1943C160.474 24.1943 160.078 24.2063 159.67 24.2063C159.67 24.6263 159.682 25.0463 159.706 25.4663C160.498 25.4183 161.266 25.3583 161.962 25.2743H162.058C162.478 25.2743 162.694 25.5743 162.694 25.8863C162.694 26.1743 162.502 26.4743 162.106 26.5223C161.374 26.6183 160.582 26.6783 159.778 26.7263C159.802 27.2543 159.85 27.7823 159.898 28.3103C160.918 28.5743 161.938 29.0183 162.91 29.6183C163.198 29.7983 163.318 30.0383 163.318 30.2663C163.318 30.6383 163.006 30.9743 162.61 30.9743C162.478 30.9743 162.346 30.9383 162.202 30.8423C161.47 30.3623 160.726 29.9663 159.982 29.6903V29.7743C159.982 31.0703 158.854 31.6943 157.462 31.6943C155.938 31.6943 155.002 30.9623 155.002 29.8463C155.002 28.8023 155.866 27.9983 157.582 27.9983C157.906 27.9983 158.218 28.0223 158.554 28.0583C158.518 27.6263 158.47 27.1943 158.458 26.7743H157.774C157.054 26.7743 156.322 26.7503 155.902 26.7023C155.506 26.6543 155.326 26.3543 155.326 26.0663C155.326 25.7543 155.542 25.4303 155.926 25.4303H156.01C156.454 25.4783 157.054 25.5143 157.738 25.5143H158.386C158.362 25.0823 158.35 24.6623 158.338 24.2303C157.318 24.2543 156.322 24.2903 155.482 24.3263C155.074 24.3383 154.858 24.0143 154.858 23.6903C154.858 23.3783 155.05 23.0783 155.458 23.0543C156.298 23.0183 157.294 22.9703 158.314 22.9583V21.7463C158.314 21.3863 158.65 21.2063 158.986 21.2063C159.31 21.2063 159.646 21.3863 159.646 21.7463ZM157.462 30.4583C158.266 30.4583 158.662 30.0863 158.662 29.5823V29.3183C158.29 29.2463 157.942 29.2103 157.582 29.2103C156.646 29.2103 156.37 29.4983 156.37 29.8583C156.37 30.1823 156.682 30.4583 157.462 30.4583ZM173.17 30.0383C173.146 31.3823 172.162 31.8623 171.01 31.8623C169.582 31.8623 168.718 31.2383 168.718 30.1223C168.718 29.1623 169.534 28.3703 171.07 28.3703C171.262 28.3703 171.454 28.3823 171.67 28.4063C171.586 27.8543 171.55 27.4463 171.55 27.1343C171.55 26.6183 171.574 26.3543 171.634 25.9703C171.694 25.6343 171.97 25.4903 172.258 25.4903C172.594 25.4903 172.93 25.6823 172.93 26.0423C172.93 26.0783 172.918 26.1023 172.918 26.1383C172.87 26.4863 172.834 26.7863 172.834 27.1223C172.834 27.4583 172.87 27.9263 173.002 28.6823C173.77 28.9103 174.562 29.2583 175.258 29.7263C175.486 29.8823 175.582 30.0863 175.582 30.2903C175.582 30.6263 175.306 30.9503 174.946 30.9503C174.826 30.9503 174.682 30.9023 174.538 30.8063C174.094 30.4943 173.626 30.2303 173.17 30.0383ZM171.01 30.6743C171.562 30.6743 171.862 30.4343 171.862 29.9063C171.862 29.7983 171.862 29.7023 171.85 29.6063C171.586 29.5583 171.334 29.5343 171.094 29.5343C170.254 29.5343 169.99 29.7983 169.99 30.1223C169.99 30.4703 170.23 30.6743 171.01 30.6743ZM168.394 23.6303C168.574 23.0183 168.742 22.4063 168.862 21.8063C168.934 21.4463 169.222 21.2903 169.51 21.2903C169.846 21.2903 170.158 21.4943 170.158 21.8783C170.158 21.9263 170.158 21.9863 170.146 22.0343C170.05 22.4903 169.93 22.9703 169.798 23.4503C170.158 23.3903 170.518 23.3303 170.854 23.2703C170.902 23.2583 170.95 23.2583 170.986 23.2583C171.37 23.2583 171.61 23.5703 171.61 23.8943C171.61 24.1583 171.454 24.4223 171.07 24.5063C170.554 24.6143 169.966 24.7103 169.378 24.7943C168.874 26.2463 168.226 27.6863 167.53 28.8383C167.35 29.1383 167.098 29.2703 166.858 29.2703C166.498 29.2703 166.186 28.9943 166.186 28.6343C166.186 28.5023 166.222 28.3583 166.318 28.2143C166.93 27.2543 167.482 26.1383 167.938 24.9503C167.494 24.9983 167.062 25.0223 166.69 25.0343C166.282 25.0463 166.066 24.7103 166.066 24.3743C166.066 24.0623 166.258 23.7623 166.642 23.7503C167.182 23.7263 167.782 23.6903 168.394 23.6303ZM173.722 23.4863C174.298 23.6423 175.042 23.9783 175.558 24.3023C175.834 24.4703 175.954 24.7103 175.954 24.9263C175.954 25.2743 175.666 25.5863 175.318 25.5863C175.198 25.5863 175.078 25.5503 174.958 25.4783C174.394 25.1543 173.77 24.8423 173.242 24.6503C172.942 24.5423 172.81 24.3263 172.81 24.1103C172.81 23.7863 173.086 23.4503 173.494 23.4503C173.566 23.4503 173.638 23.4623 173.722 23.4863ZM181.654 26.4143L181.678 26.4263C182.026 26.2103 182.386 26.1143 182.77 26.1143C183.874 26.1143 184.474 26.7743 184.558 28.6463C184.618 29.9543 184.906 30.1343 185.362 30.1343C185.902 30.1343 186.358 29.6663 186.778 28.5743C186.898 28.2623 187.162 28.1183 187.426 28.1183C187.786 28.1183 188.146 28.3823 188.146 28.7663C188.146 28.8503 188.122 28.9463 188.086 29.0543C187.462 30.7103 186.562 31.4903 185.266 31.4903C184.018 31.4903 183.25 30.8183 183.166 28.7663C183.118 27.5783 182.938 27.3263 182.446 27.3263C181.81 27.3263 181.162 27.9143 180.574 29.1383C180.31 29.6903 179.962 30.4223 179.698 30.9983C179.566 31.2743 179.314 31.4063 179.062 31.4063C178.702 31.4063 178.342 31.1543 178.342 30.7703C178.342 30.6863 178.366 30.6023 178.402 30.5063C179.458 27.9623 180.982 24.7103 182.362 22.1543C182.494 21.9023 182.734 21.7943 182.974 21.7943C183.358 21.7943 183.73 22.0583 183.73 22.4183C183.73 22.5143 183.706 22.6103 183.658 22.7063L181.654 26.4143ZM195.072 24.0503V24.0263C193.632 24.2183 191.724 24.5063 189.996 24.7583C189.948 24.7703 189.912 24.7703 189.876 24.7703C189.444 24.7703 189.204 24.4223 189.204 24.0863C189.204 23.7743 189.396 23.4863 189.828 23.4263C192.324 23.1143 195.42 22.7663 197.916 22.5383H197.988C198.408 22.5383 198.636 22.8503 198.636 23.1743C198.636 23.4623 198.456 23.7503 198.084 23.8223C197.664 23.8943 197.208 24.0503 196.764 24.3023C194.892 25.3703 194.496 26.6183 194.496 27.7583C194.496 29.0903 195.42 29.9063 197.1 30.1103C197.544 30.1703 197.748 30.4943 197.748 30.8183C197.748 31.1783 197.52 31.5263 197.04 31.5263C196.956 31.5263 196.704 31.5143 196.5 31.4783C194.316 31.0703 193.104 29.5823 193.104 27.7943C193.104 26.5343 193.716 25.1183 195.072 24.0503ZM196.956 26.2343C196.872 26.1383 196.836 26.0423 196.836 25.9583C196.836 25.7183 197.076 25.5023 197.34 25.5023C197.448 25.5023 197.568 25.5383 197.676 25.6343C198 25.9223 198.36 26.3063 198.612 26.6783C198.696 26.7863 198.72 26.8943 198.72 27.0023C198.72 27.2663 198.492 27.4823 198.24 27.4823C198.096 27.4823 197.952 27.4103 197.844 27.2543C197.556 26.8583 197.232 26.5103 196.956 26.2343ZM198.156 25.2863C198.06 25.1903 198.024 25.0943 198.024 24.9983C198.024 24.7583 198.252 24.5543 198.528 24.5543C198.648 24.5543 198.768 24.6023 198.888 24.6983C199.2 24.9623 199.56 25.3343 199.812 25.6823C199.908 25.8023 199.944 25.9223 199.944 26.0423C199.944 26.3063 199.716 26.4983 199.464 26.4983C199.32 26.4983 199.164 26.4383 199.044 26.2823C198.768 25.9343 198.432 25.5743 198.156 25.2863ZM206.916 21.9983V22.7783C206.916 23.1983 206.916 23.6063 206.928 24.0023C207.756 23.9423 208.584 23.8343 209.292 23.6783C209.34 23.6663 209.388 23.6663 209.436 23.6663C209.832 23.6663 210.06 23.9903 210.06 24.3263C210.06 24.6023 209.904 24.8783 209.532 24.9623C208.776 25.1303 207.876 25.2503 206.964 25.2983C207.024 26.2583 207.072 27.2303 207.192 28.1783C208.26 28.5023 209.316 29.0063 210.252 29.6303C210.504 29.7983 210.6 30.0263 210.6 30.2423C210.6 30.6143 210.312 30.9623 209.904 30.9623C209.748 30.9623 209.58 30.9143 209.4 30.7823C208.74 30.3263 207.996 29.9063 207.24 29.5943C207.096 30.7943 206.148 31.6223 204.504 31.6223C203.004 31.6223 201.948 30.9383 201.948 29.7143C201.948 28.6583 202.92 27.7703 204.54 27.7703C204.948 27.7703 205.368 27.8063 205.8 27.8663C205.656 26.4623 205.536 24.8063 205.536 22.7423V21.9983C205.536 21.6143 205.884 21.4343 206.232 21.4343C206.568 21.4343 206.916 21.6143 206.916 21.9983ZM204.504 30.3623C205.296 30.3623 205.884 29.9063 205.884 29.1743C205.428 29.0663 204.972 29.0063 204.54 29.0063C203.76 29.0063 203.376 29.2943 203.376 29.7143C203.376 30.1463 203.712 30.3623 204.504 30.3623ZM217.068 25.4423C216.588 27.4223 215.892 29.3663 215.04 30.8663C214.884 31.1423 214.632 31.2503 214.392 31.2503C214.044 31.2503 213.732 31.0103 213.732 30.6503C213.732 30.5423 213.768 30.4103 213.84 30.2783C214.596 28.9463 215.22 27.3023 215.676 25.5863C215.184 25.6463 214.704 25.7303 214.248 25.8263C214.2 25.8383 214.14 25.8383 214.092 25.8383C213.72 25.8383 213.516 25.5383 213.516 25.2263C213.516 24.9503 213.684 24.6743 214.056 24.6023C214.668 24.4823 215.328 24.3983 215.964 24.3263C216.108 23.5943 216.228 22.8503 216.312 22.1183C216.36 21.7343 216.66 21.5543 216.972 21.5543C217.308 21.5543 217.644 21.7703 217.644 22.1543V22.2383C217.572 22.8863 217.464 23.5583 217.332 24.2183C217.572 24.2063 217.788 24.2063 217.98 24.2063C219.516 24.2063 220.08 24.9023 220.08 26.7863C220.08 27.9143 219.96 28.9223 219.756 29.6543C219.372 31.0343 218.832 31.5263 217.62 31.5263C217.332 31.5263 217.032 31.5023 216.804 31.4663C216.396 31.4063 216.216 31.1063 216.216 30.8183C216.216 30.4823 216.432 30.1583 216.828 30.1583C216.852 30.1583 216.888 30.1703 216.924 30.1703C217.152 30.1943 217.332 30.2183 217.584 30.2183C218.004 30.2183 218.22 30.0863 218.424 29.3783C218.628 28.6943 218.736 27.7583 218.736 26.7743C218.736 25.6943 218.532 25.4063 217.956 25.4063C217.692 25.4063 217.392 25.4183 217.068 25.4423ZM221.964 23.3903C222.72 24.1103 223.464 25.2143 223.872 26.0183C223.944 26.1623 223.968 26.3063 223.968 26.4263C223.968 26.8463 223.632 27.1223 223.272 27.1223C223.032 27.1223 222.78 26.9903 222.612 26.6663C222.18 25.8023 221.544 24.8783 220.908 24.1943C220.776 24.0503 220.716 23.8943 220.716 23.7623C220.716 23.4263 221.052 23.1623 221.412 23.1623C221.604 23.1623 221.796 23.2343 221.964 23.3903ZM231.552 25.3823C233.304 25.3823 234.504 26.3303 234.504 27.8423C234.504 29.7143 233.1 31.0343 230.412 31.4183C230.376 31.4303 230.328 31.4303 230.292 31.4303C229.932 31.4303 229.74 31.1303 229.74 30.8423C229.74 30.5903 229.896 30.3383 230.232 30.2783C232.512 29.8823 233.292 29.1143 233.292 27.8423C233.292 27.0743 232.74 26.4743 231.552 26.4743C230.316 26.4743 228.768 26.8703 227.004 27.6503C226.908 27.6983 226.812 27.7103 226.716 27.7103C226.38 27.7103 226.152 27.4343 226.152 27.1463C226.152 26.9303 226.272 26.7023 226.56 26.5823C228.336 25.8023 230.136 25.3823 231.552 25.3823ZM239.496 25.0943C239.004 25.1663 238.512 25.2383 238.02 25.2383C237.624 25.2383 237.42 24.9383 237.42 24.6143C237.42 24.2903 237.624 23.9783 238.032 23.9543C238.512 23.9303 239.088 23.8583 239.736 23.7503C239.844 23.0903 239.892 22.5623 239.964 21.9023C240 21.5303 240.312 21.3503 240.624 21.3503C240.96 21.3503 241.296 21.5663 241.296 21.9503V22.0223C241.236 22.5983 241.176 23.0303 241.104 23.4863C241.44 23.4143 241.788 23.3303 242.136 23.2463C242.196 23.2343 242.256 23.2223 242.316 23.2223C242.688 23.2223 242.916 23.5343 242.916 23.8583C242.916 24.1103 242.772 24.3623 242.448 24.4463C241.896 24.6023 241.368 24.7343 240.888 24.8423C240.456 27.1943 239.88 29.4143 239.208 31.1543C239.064 31.5143 238.764 31.6823 238.476 31.6823C238.14 31.6823 237.816 31.4423 237.816 31.0703C237.816 30.9623 237.84 30.8543 237.888 30.7343C238.548 29.1023 239.076 27.1943 239.496 25.0943ZM241.908 29.2103C241.908 28.8023 242.244 28.5743 242.58 28.5743C242.856 28.5743 243.12 28.7303 243.156 29.0783C243.24 29.8463 243.672 30.0623 244.98 30.0623C245.592 30.0623 246.108 30.0143 246.588 29.9423C246.624 29.9303 246.684 29.9303 246.72 29.9303C247.128 29.9303 247.356 30.2783 247.356 30.6023C247.356 30.8903 247.176 31.1783 246.804 31.2383C246.288 31.3223 245.688 31.3703 245.004 31.3703C243.324 31.3703 242.58 30.9383 242.196 30.3263C242.004 30.0263 241.908 29.5463 241.908 29.2103ZM243.108 25.2863C244.044 25.0943 245.232 24.9623 246.192 24.9623C246.624 24.9623 246.84 25.2863 246.84 25.6103C246.84 25.9223 246.636 26.2223 246.228 26.2223C245.268 26.2223 244.152 26.3663 243.3 26.5343C243.252 26.5463 243.192 26.5463 243.156 26.5463C242.784 26.5463 242.556 26.2463 242.556 25.9223C242.556 25.6463 242.724 25.3703 243.108 25.2863ZM253.692 24.0383C253.68 23.8223 253.596 22.9703 253.596 22.6463C253.596 22.1303 253.968 21.8303 254.46 21.8303C254.94 21.8303 255.3 22.1423 255.3 22.6463C255.3 22.9703 255.228 23.6903 255.204 24.0383C255.12 25.2023 255.036 26.9783 255 28.3103C254.988 28.6223 254.76 28.8143 254.436 28.8143C254.112 28.8143 253.908 28.6223 253.896 28.3103C253.848 26.9903 253.776 25.2143 253.692 24.0383ZM254.448 29.5943C254.964 29.5943 255.36 29.9903 255.36 30.4943C255.36 30.9983 254.964 31.3823 254.448 31.3823C253.932 31.3823 253.536 30.9983 253.536 30.4943C253.536 29.9903 253.932 29.5943 254.448 29.5943ZM264.3 32.4263H261.468C261.168 32.4263 260.988 32.2103 260.988 31.9343C260.988 31.6463 261.192 31.4543 261.468 31.4543H263.928C264.276 31.4543 264.468 31.2743 264.468 30.9263V23.3423C264.468 23.0663 264.708 22.8863 264.996 22.8863C265.272 22.8863 265.536 23.0663 265.536 23.3423V31.1903C265.536 31.9943 265.104 32.4263 264.3 32.4263ZM277.02 26.2703C276.756 25.1183 276.576 23.6903 276.576 22.0343C276.576 21.6023 276.924 21.3863 277.272 21.3863C277.62 21.3863 277.968 21.6023 277.968 22.0343C277.968 23.3783 278.076 24.5783 278.244 25.5503C278.976 25.1903 279.792 24.8663 280.608 24.6143C280.68 24.5903 280.752 24.5783 280.824 24.5783C281.196 24.5783 281.448 24.9143 281.448 25.2503C281.448 25.5023 281.316 25.7423 281.004 25.8383C279.936 26.1743 278.736 26.6663 277.848 27.2303C276.816 27.9023 276.456 28.5623 276.456 29.1743C276.456 29.9183 276.948 30.3023 278.856 30.3023C279.816 30.3023 280.668 30.2183 281.34 30.0863C281.4 30.0743 281.448 30.0743 281.496 30.0743C281.916 30.0743 282.144 30.3983 282.144 30.7343C282.144 31.0343 281.976 31.3223 281.604 31.4063C280.788 31.5743 279.864 31.6343 278.844 31.6343C276.324 31.6343 275.064 30.8663 275.064 29.2463C275.064 28.2623 275.52 27.2903 277.02 26.2703ZM287.544 22.5383H289.692C290.004 22.5383 290.148 22.7903 290.148 23.0423C290.148 23.2943 290.004 23.5463 289.692 23.5463H288.708C288.828 23.7503 288.936 23.9543 289.02 24.1463C289.056 24.2303 289.068 24.3023 289.068 24.3743C289.068 24.6983 288.78 24.9023 288.48 24.9023C288.252 24.9023 288.036 24.7943 287.928 24.5183C287.808 24.2183 287.664 23.8943 287.472 23.5463H286.992C286.728 23.9543 286.452 24.3383 286.176 24.6623C286.008 24.8543 285.804 24.9383 285.624 24.9383C285.3 24.9383 285.024 24.6743 285.024 24.3743C285.024 24.2423 285.084 24.0983 285.204 23.9543C285.78 23.2943 286.308 22.3703 286.632 21.5663C286.74 21.2903 286.992 21.1703 287.232 21.1703C287.556 21.1703 287.856 21.3863 287.856 21.7103C287.856 21.7823 287.844 21.8663 287.808 21.9503C287.736 22.1423 287.64 22.3463 287.544 22.5383ZM292.26 22.5383H295.368C295.68 22.5383 295.836 22.7903 295.836 23.0423C295.836 23.2943 295.68 23.5463 295.368 23.5463H293.64C293.784 23.7503 293.892 23.9543 294 24.1583C294.048 24.2423 294.06 24.3383 294.06 24.4103C294.06 24.7223 293.772 24.9383 293.472 24.9383C293.268 24.9383 293.064 24.8303 292.944 24.5903C292.788 24.2543 292.596 23.8943 292.368 23.5463H291.72C291.612 23.7143 291.504 23.8703 291.396 24.0263C291.24 24.2423 291.048 24.3263 290.856 24.3263H290.832C290.964 24.4343 291.048 24.5903 291.048 24.7583C291.048 24.7943 291.048 24.8303 291.036 24.8663C292.248 25.9103 293.868 26.7383 295.512 27.2783C295.848 27.3863 295.992 27.6383 295.992 27.8903C295.992 28.2023 295.752 28.5143 295.368 28.5143C295.272 28.5143 295.176 28.5023 295.068 28.4663C293.496 27.9263 291.732 26.8943 290.34 25.7063C289.056 26.9663 287.352 28.0463 285.72 28.7183C285.624 28.7543 285.54 28.7783 285.456 28.7783C285.108 28.7783 284.88 28.4783 284.88 28.1663C284.88 27.9503 285 27.7343 285.288 27.6143C287.028 26.9183 288.732 25.7783 289.932 24.3983C290.076 24.2303 290.244 24.1703 290.412 24.1703H290.448C290.328 24.0623 290.256 23.9183 290.256 23.7503C290.256 23.6423 290.292 23.5343 290.376 23.4143C290.748 22.8863 291.096 22.2863 291.396 21.5303C291.504 21.2663 291.72 21.1583 291.948 21.1583C292.26 21.1583 292.572 21.3623 292.572 21.6983C292.572 21.7703 292.548 21.8423 292.524 21.9263C292.452 22.1303 292.356 22.3343 292.26 22.5383ZM292.356 32.1023H288.528C287.496 32.1023 287.064 31.7303 287.064 31.0103V29.9183C287.064 29.1983 287.496 28.8263 288.528 28.8263H292.356C293.388 28.8263 293.82 29.1983 293.82 29.9183V31.0103C293.82 31.9223 293.136 32.1023 292.356 32.1023ZM288.744 31.1183H292.14C292.476 31.1183 292.548 31.0343 292.548 30.8183V30.1103C292.548 29.8943 292.476 29.8103 292.14 29.8103H288.744C288.408 29.8103 288.336 29.8943 288.336 30.1103V30.8183C288.336 31.0583 288.432 31.1183 288.744 31.1183ZM291.768 28.1063H289.056C288.768 28.1063 288.612 27.8423 288.612 27.5783C288.612 27.3143 288.768 27.0503 289.056 27.0503H291.768C292.068 27.0503 292.212 27.3143 292.212 27.5783C292.212 27.8423 292.068 28.1063 291.768 28.1063ZM301.128 21.4943C301.92 21.5903 302.904 21.8303 303.612 22.0703C303.948 22.1903 304.104 22.4423 304.104 22.6943C304.104 23.0303 303.852 23.3543 303.48 23.3543C303.396 23.3543 303.312 23.3423 303.216 23.3063C302.52 23.0783 301.62 22.8623 300.9 22.7423C300.504 22.6823 300.336 22.4183 300.336 22.1423C300.336 21.8183 300.588 21.4823 301.008 21.4823C301.044 21.4823 301.092 21.4823 301.128 21.4943ZM299.136 24.5663L303.348 23.9303C303.408 23.9183 303.468 23.9183 303.528 23.9183C304.08 23.9183 304.416 24.3143 304.416 24.7343C304.416 24.9383 304.344 25.1423 304.176 25.3223L302.172 27.3743L302.196 27.4103C302.388 27.3503 302.568 27.3143 302.736 27.3143C303.516 27.3143 303.984 27.7943 304.032 28.8383L304.044 29.0903C304.08 29.8463 304.224 30.0743 304.824 30.0743C305.436 30.0743 306.12 29.9663 306.756 29.8343C306.828 29.8223 306.888 29.8103 306.96 29.8103C307.368 29.8103 307.596 30.1463 307.596 30.4823C307.596 30.7703 307.44 31.0463 307.104 31.1183C306.288 31.2983 305.52 31.3703 304.848 31.3703C303.456 31.3703 302.784 30.8063 302.724 29.2943L302.712 29.0183C302.688 28.5743 302.532 28.3943 302.268 28.3943C301.908 28.3943 301.488 28.5503 300.96 28.9703C300.528 29.3183 299.856 30.0023 298.884 31.0703C298.716 31.2503 298.536 31.3223 298.344 31.3223C297.984 31.3223 297.672 31.0343 297.672 30.6863C297.672 30.5183 297.732 30.3383 297.9 30.1703L302.484 25.3343L302.472 25.2983L299.34 25.8503C299.292 25.8623 299.244 25.8623 299.208 25.8623C298.812 25.8623 298.572 25.5263 298.572 25.2023C298.572 24.9143 298.74 24.6263 299.136 24.5663ZM311.496 25.0943C311.004 25.1663 310.512 25.2383 310.02 25.2383C309.624 25.2383 309.42 24.9383 309.42 24.6143C309.42 24.2903 309.624 23.9783 310.032 23.9543C310.512 23.9303 311.088 23.8583 311.736 23.7503C311.844 23.0903 311.892 22.5623 311.964 21.9023C312 21.5303 312.312 21.3503 312.624 21.3503C312.96 21.3503 313.296 21.5663 313.296 21.9503V22.0223C313.236 22.5983 313.176 23.0303 313.104 23.4863C313.44 23.4143 313.788 23.3303 314.136 23.2463C314.196 23.2343 314.256 23.2223 314.316 23.2223C314.688 23.2223 314.916 23.5343 314.916 23.8583C314.916 24.1103 314.772 24.3623 314.448 24.4463C313.896 24.6023 313.368 24.7343 312.888 24.8423C312.456 27.1943 311.88 29.4143 311.208 31.1543C311.064 31.5143 310.764 31.6823 310.476 31.6823C310.14 31.6823 309.816 31.4423 309.816 31.0703C309.816 30.9623 309.84 30.8543 309.888 30.7343C310.548 29.1023 311.076 27.1943 311.496 25.0943ZM313.908 29.2103C313.908 28.8023 314.244 28.5743 314.58 28.5743C314.856 28.5743 315.12 28.7303 315.156 29.0783C315.24 29.8463 315.672 30.0623 316.98 30.0623C317.592 30.0623 318.108 30.0143 318.588 29.9423C318.624 29.9303 318.684 29.9303 318.72 29.9303C319.128 29.9303 319.356 30.2783 319.356 30.6023C319.356 30.8903 319.176 31.1783 318.804 31.2383C318.288 31.3223 317.688 31.3703 317.004 31.3703C315.324 31.3703 314.58 30.9383 314.196 30.3263C314.004 30.0263 313.908 29.5463 313.908 29.2103ZM315.108 25.2863C316.044 25.0943 317.232 24.9623 318.192 24.9623C318.624 24.9623 318.84 25.2863 318.84 25.6103C318.84 25.9223 318.636 26.2223 318.228 26.2223C317.268 26.2223 316.152 26.3663 315.3 26.5343C315.252 26.5463 315.192 26.5463 315.156 26.5463C314.784 26.5463 314.556 26.2463 314.556 25.9223C314.556 25.6463 314.724 25.3703 315.108 25.2863Z" fill="#282828"/>
<path d="M75.3621 32.1383V25.5683C74.6241 25.6223 73.9041 25.6583 73.2201 25.6943C72.6981 25.7123 72.4461 25.2803 72.4461 24.8483C72.4461 24.4163 72.6801 24.0023 73.1841 24.0023C73.4721 24.0023 73.7781 23.9843 74.0841 23.9663C74.4801 23.4443 74.8581 22.8863 75.2361 22.3283C74.5521 21.5363 73.7961 20.7443 73.1301 20.1323C72.9321 19.9523 72.8421 19.7363 72.8421 19.5383C72.8421 19.1063 73.2381 18.7103 73.7061 18.7103C73.8861 18.7103 74.1021 18.7823 74.2821 18.9443L74.3361 18.9803C74.7321 18.2963 75.1281 17.5043 75.4701 16.7123C75.6321 16.3343 75.9741 16.1723 76.2981 16.1723C76.7661 16.1723 77.2341 16.4783 77.2341 16.9643C77.2341 17.0723 77.2161 17.1803 77.1621 17.3063C76.7301 18.3143 76.1541 19.3043 75.5781 20.2223C75.7761 20.4203 75.9741 20.6363 76.1541 20.8703C76.5321 20.2223 76.8921 19.6103 77.1801 19.0523C77.3421 18.7103 77.6301 18.5843 77.9181 18.5843C78.3861 18.5843 78.8721 18.9443 78.8721 19.4123C78.8721 19.5383 78.8361 19.6823 78.7461 19.8263C78.0261 21.1043 77.0541 22.6163 76.1361 23.8583C76.6581 23.8043 77.1801 23.7683 77.7021 23.7143C77.6121 23.5703 77.5221 23.4263 77.4501 23.3003C77.3781 23.1743 77.3421 23.0483 77.3421 22.9223C77.3421 22.5443 77.7201 22.2383 78.1161 22.2383C78.3681 22.2383 78.6381 22.3463 78.8181 22.6163C79.2501 23.2283 79.7541 24.1823 80.0601 24.9923C80.0961 25.1003 80.1141 25.1903 80.1141 25.2803C80.1141 25.7483 79.6641 26.0543 79.2321 26.0543C78.9441 26.0543 78.6741 25.9103 78.5481 25.5863C78.5121 25.4603 78.4581 25.3343 78.4041 25.2263C78.0081 25.2803 77.5941 25.3343 77.1981 25.3703V32.1383C77.1981 32.6063 76.7481 32.8583 76.2801 32.8583C75.8301 32.8583 75.3621 32.6063 75.3621 32.1383ZM83.0841 19.6643H86.1981C87.8001 19.6643 88.4121 20.3303 88.4121 21.7163C88.4121 25.0103 88.1421 28.1063 87.7461 30.1043C87.4041 31.8323 86.5581 32.4443 85.1361 32.4443C84.6861 32.4443 84.2361 32.4083 83.8041 32.3183C83.1921 32.1923 82.9221 31.7603 82.9221 31.3283C82.9221 30.8243 83.2821 30.3203 83.9121 30.3203C83.9661 30.3203 84.0381 30.3203 84.1101 30.3383C84.4521 30.4103 84.7581 30.4463 85.0101 30.4463C85.4781 30.4463 85.6941 30.2843 85.8201 29.6543C86.1801 27.7823 86.4321 24.9023 86.4321 21.9683C86.4321 21.5363 86.2881 21.4103 85.7841 21.4103H82.2741C82.0041 21.9323 81.7161 22.4363 81.3921 22.9223C81.1401 23.3003 80.8161 23.4443 80.4921 23.4443C79.9881 23.4443 79.5201 23.0483 79.5201 22.5443C79.5201 22.3463 79.5741 22.1483 79.7181 21.9503C80.6901 20.5103 81.4461 18.7463 81.9141 16.8923C82.0401 16.3883 82.4361 16.1723 82.8501 16.1723C83.3541 16.1723 83.8941 16.5323 83.8941 17.0723C83.8941 17.1623 83.8761 17.2343 83.8581 17.3243C83.6421 18.1163 83.3901 18.8903 83.0841 19.6643ZM79.0521 26.8103C79.3221 27.5483 79.5921 28.4483 79.7361 29.2403C79.7541 29.3123 79.7541 29.3663 79.7541 29.4383C79.7541 29.9243 79.3401 30.1943 78.9441 30.1943C78.6021 30.1943 78.2601 29.9963 78.1881 29.6003C78.0621 28.8083 77.8281 27.8903 77.5941 27.1883C77.5581 27.0983 77.5581 27.0263 77.5581 26.9543C77.5581 26.5583 77.9361 26.3063 78.3321 26.3063C78.6201 26.3063 78.9261 26.4503 79.0521 26.8103ZM73.4541 27.1163C73.5261 26.7203 73.8681 26.5223 74.2101 26.5223C74.6061 26.5223 75.0021 26.7743 75.0021 27.2243V27.3323C74.8581 28.5203 74.5341 29.7443 74.1741 30.5723C74.0121 30.9503 73.6881 31.0943 73.3821 31.0943C72.9681 31.0943 72.5541 30.8243 72.5541 30.3743C72.5541 30.2663 72.5901 30.1403 72.6441 30.0143C72.9681 29.3303 73.2921 28.1603 73.4541 27.1163ZM83.3001 24.0023C83.8041 24.5423 84.2901 25.1363 84.6681 25.7663C84.7941 25.9643 84.8481 26.1623 84.8481 26.3603C84.8481 26.9183 84.3621 27.3503 83.8401 27.3503C83.5341 27.3503 83.2281 27.2063 82.9941 26.8283C82.6161 26.1983 82.2381 25.6583 81.7881 25.1183C81.6261 24.9203 81.5541 24.7223 81.5541 24.5243C81.5541 24.0383 82.0221 23.6603 82.5261 23.6603C82.7961 23.6603 83.0661 23.7503 83.3001 24.0023ZM97.5741 25.4603C96.9621 25.8743 96.3861 26.0543 95.5581 26.0543C92.8221 26.0543 91.2201 24.3443 91.2201 21.7523C91.2201 19.2863 93.0381 17.5043 95.7561 17.5043C98.4201 17.5043 100.274 19.3583 100.274 21.7523C100.274 23.6423 99.9501 24.8843 99.0141 26.6303C98.1681 28.2143 96.8181 29.7263 95.2881 30.9503C95.0901 31.0943 94.8921 31.1843 94.6761 31.1843C94.0821 31.1843 93.6501 30.7523 93.6501 30.2663C93.6501 29.9603 93.7401 29.7083 93.9741 29.5283C95.6121 28.3043 96.8181 27.0263 97.5741 25.4603ZM95.7561 19.1963C94.2441 19.1963 93.3081 20.2763 93.3081 21.8423C93.3081 23.4443 94.2621 24.4163 95.6661 24.4163C96.8181 24.4163 97.6101 23.9843 98.0781 23.2823C98.2041 22.8143 98.2221 22.3643 98.2221 21.8423C98.2221 20.2943 97.2321 19.1963 95.7561 19.1963ZM105.4 20.1863L105.166 22.9943C105.724 22.6883 106.264 22.5443 106.804 22.5443C109.576 22.5443 111.538 24.0923 111.538 26.8283C111.538 29.5643 109.522 31.3643 106.84 31.3643C105.364 31.3643 104.032 30.9323 103.114 30.1943C102.808 29.9423 102.718 29.7083 102.718 29.3843C102.718 28.8443 103.15 28.4483 103.744 28.4483C103.906 28.4483 104.068 28.5023 104.284 28.6643C105.22 29.3483 105.922 29.5643 106.804 29.5643C108.316 29.5643 109.378 28.4843 109.378 26.9003C109.378 25.2623 108.37 24.3083 106.804 24.3083C106.246 24.3083 105.688 24.4883 105.256 24.7583C104.86 24.9923 104.698 25.1003 104.356 25.1003C103.726 25.1003 103.186 24.7223 103.186 24.0383V23.9303L103.564 19.1603C103.636 18.3143 104.302 17.7923 105.256 17.7923H110.152C110.692 17.7923 111.016 18.1883 111.016 18.7283C111.016 19.2683 110.692 19.6643 110.152 19.6643H105.994C105.598 19.6643 105.436 19.8083 105.4 20.1863ZM115.819 30.3203L124.603 17.7563C124.729 17.5763 124.909 17.5043 125.125 17.5043C125.521 17.5043 125.845 17.8283 125.845 18.1523C125.845 18.2963 125.809 18.4223 125.719 18.5483L116.935 31.1123C116.827 31.2563 116.629 31.3643 116.413 31.3643C116.035 31.3643 115.693 31.0943 115.693 30.7343C115.693 30.5903 115.729 30.4463 115.819 30.3203ZM116.899 17.5043C118.717 17.5043 119.905 18.8363 119.905 21.2123C119.905 23.5883 118.699 25.0103 116.899 25.0103C115.081 25.0103 113.875 23.6063 113.875 21.2303C113.875 18.8543 115.081 17.5043 116.899 17.5043ZM116.899 18.9263C115.981 18.9263 115.567 19.7363 115.567 21.2483C115.567 22.7603 115.945 23.5883 116.881 23.5883C117.799 23.5883 118.213 22.7063 118.213 21.1943C118.213 19.6823 117.817 18.9263 116.899 18.9263ZM124.657 23.8583C126.475 23.8583 127.663 25.1903 127.663 27.5663C127.663 29.9423 126.457 31.3643 124.657 31.3643C122.839 31.3643 121.633 29.9603 121.633 27.5843C121.633 25.2083 122.839 23.8583 124.657 23.8583ZM124.657 25.2803C123.739 25.2803 123.325 26.0903 123.325 27.6023C123.325 29.1143 123.703 29.9423 124.639 29.9423C125.575 29.9423 125.971 29.0603 125.971 27.5483C125.971 26.0363 125.575 25.2803 124.657 25.2803Z" fill="#E60012"/>
<path d="M347.439 0.238281L321.439 48.2383" stroke="black"/>
</svg>
