<svg width="285" height="41" viewBox="0 0 285 41" fill="none" xmlns="http://www.w3.org/2000/svg">
<path d="M15.0793 26.6324L14.5739 26.8338C15.0885 28.6439 15.3088 30.5368 15.128 32.4173C16.1076 33.0603 17.1587 33.5371 18.2755 33.8328C18.6616 33.9373 18.9019 34.1515 18.9967 34.3894C19.1685 34.8204 18.9449 35.34 18.499 35.5177C18.3206 35.5888 18.1037 35.6063 17.8661 35.5287C16.8029 35.1945 15.7934 34.7356 14.8405 34.1164C14.5297 35.4114 14.0201 36.5962 13.3233 37.7005C13.2072 37.8845 13.0615 37.9943 12.898 38.0594C12.4967 38.2193 12.0453 38.0375 11.8913 37.651C11.8084 37.4429 11.8177 37.1637 12.0172 36.843C12.7408 35.6764 13.2475 34.441 13.4959 33.1192C12.6056 32.3545 11.7867 31.5096 11.0986 30.5608C11.0328 30.9143 10.8067 31.125 10.5689 31.2197C10.1676 31.3796 9.69241 31.2245 9.52659 30.8083C9.47329 30.6745 9.45866 30.5081 9.48269 30.3091C9.7464 28.6367 9.67497 26.5122 9.3597 24.5539C9.28305 24.1021 9.55385 23.7876 9.89571 23.6513C10.297 23.4914 10.8139 23.5783 10.9856 24.0093C11.0093 24.0688 11.0241 24.149 11.0329 24.2144C11.1418 24.9633 11.2062 25.7299 11.2556 26.5025L14.5108 25.2055C14.9121 25.0456 15.2474 25.3253 15.3896 25.6821C15.5317 26.0388 15.4806 26.4725 15.0793 26.6324ZM13.0727 27.4319L11.2891 28.1426C11.292 28.1931 11.28 28.2495 11.277 28.2852C11.9619 29.3557 12.739 30.3551 13.6559 31.2298C13.6576 29.9374 13.4276 28.6684 13.0727 27.4319ZM6.35785 29.7285L6.41707 29.8771C7.1628 29.89 7.92329 29.9831 8.67181 30.1327C8.98964 30.1955 9.18252 30.377 9.25951 30.5703C9.39572 30.9121 9.23768 31.3368 8.86609 31.4848C8.71745 31.5441 8.55105 31.5587 8.34017 31.5049C7.89763 31.3885 7.4105 31.2898 6.95007 31.2149L7.15143 31.7202C7.31133 32.1215 7.03752 32.4718 6.68079 32.6139C6.3092 32.762 5.86956 32.696 5.70966 32.2947L5.60898 32.042L5.42261 31.4445C5.07389 32.2552 4.58549 33.1043 4.0259 33.8612C3.9128 34.0096 3.78193 34.1134 3.64816 34.1667C3.27657 34.3147 2.86085 34.1359 2.72463 33.7941C2.64172 33.586 2.66588 33.3008 2.88314 33.0247C3.4159 32.3302 3.93404 31.4693 4.30667 30.5458L2.40413 31.3038C2.0474 31.446 1.72388 31.1959 1.59952 30.8838C1.46923 30.5568 1.53809 30.1677 1.89481 30.0256L4.40676 29.0247L3.45327 26.6316C3.28745 26.2155 3.56719 25.8801 3.93877 25.732C4.2955 25.5899 4.72922 25.641 4.89504 26.0572L5.84853 28.4502L8.15239 27.5323C8.52398 27.3842 8.82671 27.6253 8.957 27.9523C9.08137 28.2644 9.03329 28.6625 8.6617 28.8105L6.35785 29.7285ZM10.9398 33.7932L10.2115 34.0834C10.2253 34.8529 10.1322 35.6134 9.91132 36.3559C10.253 36.392 10.5797 36.4341 10.8975 36.4969C11.2302 36.5538 11.4231 36.7353 11.512 36.9582C11.66 37.3298 11.4692 37.802 11.053 37.9678C10.9044 38.027 10.7231 38.0476 10.5182 38.0087C10.1231 37.925 9.71322 37.8472 9.27951 37.7961C8.67196 38.8649 7.82393 39.8056 6.78893 40.5796C6.70567 40.63 6.63728 40.6745 6.56296 40.7041C6.11705 40.8818 5.69251 40.6376 5.55038 40.2809C5.43193 39.9836 5.49777 39.6301 5.85763 39.3662C6.58629 38.8175 7.19024 38.2152 7.64567 37.5859C7.33969 37.5528 7.01884 37.5256 6.71878 37.5074C6.61439 37.8073 6.42697 37.9854 6.18915 38.0801C5.81756 38.2282 5.3691 38.0968 5.23289 37.755C5.17366 37.6063 5.1739 37.434 5.23358 37.238C5.3857 36.7985 5.50217 36.3559 5.60377 35.9193L4.29578 36.4405C3.92419 36.5885 3.60067 36.3385 3.47038 36.0115C3.34009 35.6845 3.40303 35.2805 3.77462 35.1325L5.85552 34.3034L5.90115 33.5101C5.9224 33.1744 6.11284 32.9608 6.38039 32.8542C6.75198 32.7061 7.22424 32.8107 7.36638 33.1674C7.39599 33.2418 7.41074 33.322 7.41655 33.423L7.4162 33.6815L10.4186 32.4852C10.8051 32.3312 11.1286 32.5812 11.2589 32.9082C11.3892 33.2352 11.3263 33.6392 10.9398 33.7932ZM8.71027 34.6816L7.2685 35.256L7.08898 36.1887C7.51387 36.1744 7.93574 36.1958 8.37247 36.2112C8.55734 35.7242 8.65906 35.2014 8.71027 34.6816ZM6.16077 26.0351C6.22057 25.7529 6.39313 25.5808 6.60122 25.4979C6.94308 25.3617 7.37668 25.499 7.5129 25.8408C7.56027 25.9597 7.58385 26.1054 7.54797 26.2747C7.47319 26.6489 7.35974 27.0558 7.20773 27.4092C7.10938 27.6378 6.96063 27.7832 6.78226 27.8543C6.4404 27.9905 6.02166 27.8473 5.88545 27.5055C5.83215 27.3717 5.82646 27.1845 5.90101 26.9826C6.0054 26.6826 6.08297 26.445 6.16077 26.0351ZM1.81933 28.7122C1.6412 28.611 1.5433 28.4949 1.49 28.3612C1.35379 28.0193 1.55933 27.6274 1.93092 27.4793C2.12414 27.4024 2.37671 27.3878 2.63798 27.5249C2.89926 27.6619 3.19316 27.8376 3.46326 28.04C3.58496 28.1293 3.68285 28.2453 3.72431 28.3493C3.87236 28.7209 3.62816 29.1455 3.25657 29.2935C3.04848 29.3764 2.78407 29.3612 2.54068 29.1826C2.31807 29.013 2.09245 28.879 1.81933 28.7122ZM22.9643 20.502L22.6026 19.4251C22.4599 19.0004 22.8133 18.6454 23.238 18.5028C23.6475 18.3652 24.1435 18.4349 24.2861 18.8596L24.6478 19.9365L28.3032 18.7088C29.7289 18.2299 30.4481 18.5622 30.8047 19.624L31.1562 20.6705C31.304 21.1104 30.9506 21.4653 30.5411 21.6029C30.1164 21.7455 29.6204 21.6758 29.4727 21.236L29.2078 20.4473C29.1008 20.1288 28.9184 20.0381 28.4937 20.1807L20.1365 22.9877C19.7118 23.1303 19.6212 23.3126 19.7282 23.6312L20.0185 24.4957C20.1663 24.9356 19.818 25.3057 19.4085 25.4432C18.9838 25.5859 18.4827 25.501 18.3349 25.0612L17.958 23.9388C17.6014 22.8771 17.9742 22.178 19.3999 21.6991L22.9643 20.502ZM25.7295 28.3331L20.2086 30.1874C19.7839 30.33 19.4341 30.0424 19.317 29.6936C19.1947 29.3296 19.305 28.9043 19.7297 28.7617L25.2507 26.9074L24.9705 26.0731C24.8176 25.6181 25.1558 25.2682 25.5654 25.1307C25.6564 25.1001 25.7676 25.0796 25.8637 25.0642C26.2575 24.6788 26.6007 24.2935 26.8629 23.9185C26.9436 23.807 26.9788 23.7108 26.9584 23.6501C26.9381 23.5894 26.8166 23.5796 26.6346 23.6407L21.9934 25.1996C21.5535 25.3473 21.2089 25.0748 21.0917 24.726C20.9745 24.3772 21.0849 23.9519 21.5247 23.8042L26.894 22.0008C27.9557 21.6442 28.6547 21.9664 28.8584 22.5731C28.9858 22.9523 28.9161 23.4483 28.6187 23.9701C28.14 24.8061 27.5244 25.5361 26.8327 26.1903L26.8887 26.3572L32.3186 24.5334C32.7585 24.3857 33.088 24.6632 33.2103 25.0273C33.3274 25.3761 33.2374 25.8114 32.7975 25.9592L27.3676 27.7829L28.254 30.422C28.7125 31.7871 28.2992 32.5166 26.9797 32.9598C26.555 33.1025 26.1656 33.1995 25.8116 33.2509C25.3108 33.3178 24.9813 33.0403 24.8641 32.6914C24.7317 32.2971 24.8823 31.7908 25.398 31.6176C25.4435 31.6023 25.489 31.587 25.5548 31.5818C25.8582 31.5305 26.0605 31.4794 26.288 31.403C26.6065 31.296 26.677 31.1542 26.5446 30.7599L25.7295 28.3331ZM41.6939 16.9796L41.6853 16.9488C39.9053 17.7128 37.5589 18.7681 35.4307 19.7126C35.3734 19.7453 35.3272 19.7582 35.2809 19.7711C34.7262 19.9263 34.293 19.5657 34.1723 19.1343C34.0602 18.7337 34.2033 18.2949 34.7364 18.0627C37.8292 16.7652 41.6794 15.2059 44.8024 14.0163L44.8948 13.9905C45.4341 13.8396 45.839 14.1582 45.9554 14.5743C46.0589 14.9441 45.9312 15.3785 45.4794 15.6046C44.966 15.848 44.4366 16.2122 43.957 16.6953C41.9371 18.7392 41.8771 20.4839 42.2867 21.9477C42.7653 23.658 44.2449 24.3737 46.4753 24.032C47.067 23.9495 47.4453 24.2923 47.5618 24.7083C47.6911 25.1705 47.5234 25.6993 46.9071 25.8718C46.7992 25.9019 46.4713 25.9771 46.1965 26.0041C43.2456 26.265 41.1547 24.7899 40.5123 22.4941C40.0595 20.8762 40.3366 18.8382 41.6939 16.9796ZM44.8977 19.107C44.7554 19.0139 44.6747 18.9036 44.6445 18.7957C44.5582 18.4875 44.7888 18.124 45.1278 18.0291C45.2664 17.9903 45.4335 17.9934 45.6066 18.0779C46.1261 18.3312 46.7263 18.6949 47.1836 19.082C47.3302 19.1905 47.3999 19.3206 47.4387 19.4593C47.5335 19.7982 47.3184 20.1575 46.9948 20.2481C46.8099 20.2998 46.5992 20.2591 46.4044 20.0976C45.8923 19.6926 45.3513 19.3622 44.8977 19.107ZM46.0979 17.4586C45.9402 17.3698 45.8594 17.2595 45.8249 17.1362C45.7387 16.828 45.9582 16.4842 46.3125 16.385C46.4666 16.3419 46.638 16.3604 46.8265 16.4405C47.322 16.6674 47.9179 17.0157 48.3665 17.372C48.5329 17.4916 48.6222 17.6327 48.6654 17.7868C48.7602 18.1258 48.5365 18.4542 48.2129 18.5448C48.028 18.5965 47.8061 18.5755 47.596 18.4184C47.1166 18.0707 46.5558 17.7292 46.0979 17.4586ZM53.0786 11.5521L55.5788 10.5707C55.7277 10.5039 55.8836 10.4682 56.0396 10.4326C57.0067 10.2117 57.6774 10.6329 57.8662 11.4596C57.8947 11.5844 57.9232 11.7092 57.9241 11.8567C57.9814 13.0417 57.9487 14.2636 57.8706 15.4303C58.9322 15.3355 60.0102 15.3847 61.0833 15.4842C61.0718 14.7155 60.9837 13.8986 60.838 13.0456C60.7432 12.5585 61.1073 12.2127 61.5441 12.1129C61.9964 12.0096 62.5129 12.187 62.6376 12.733C62.8407 13.6221 62.903 14.7567 62.8935 15.7928C63.7553 15.9734 64.6159 16.22 65.475 16.5325C65.8333 16.664 66.0258 16.9319 66.0899 17.2126C66.2004 17.6962 65.9294 18.234 65.4302 18.3481C65.2587 18.3873 65.0608 18.3832 64.8451 18.3012C64.1285 18.0382 63.4382 17.8184 62.7587 17.6454C62.5294 19.3718 61.9815 20.9248 61.1716 22.193C60.979 22.4996 60.7388 22.6694 60.4892 22.7264C60.0057 22.8369 59.5195 22.5048 59.4162 22.0524C59.3698 21.8497 59.398 21.6135 59.5424 21.3835C60.2885 20.1955 60.7941 18.8163 60.981 17.2637C59.8901 17.0862 58.8085 17.0214 57.7086 17.0921C57.5855 17.9901 57.4325 18.8292 57.2511 19.5436C56.8155 21.3007 56.1184 21.9852 54.9953 22.2417C53.7006 22.5375 52.5567 21.9125 52.1897 20.3059C51.7443 18.3561 53.1399 16.3469 55.7448 15.7518L56.1036 15.6699C56.1875 14.6003 56.2451 13.4875 56.1454 12.4763C56.1347 12.4296 56.1396 12.3792 56.1325 12.348C56.1004 12.2076 56.0033 12.2134 55.792 12.2945L53.6903 13.1521C53.6314 13.1819 53.569 13.1962 53.5222 13.2069C53.0231 13.3209 52.6305 12.9675 52.5343 12.5463C52.4488 12.1719 52.5973 11.7441 53.0786 11.5521ZM54.6225 20.538C55.0749 20.4346 55.2924 20.2372 55.5353 19.3611C55.695 18.7666 55.8176 18.0821 55.9175 17.37C54.2989 17.7562 53.6512 18.8724 53.8757 19.8551C54.004 20.4167 54.3105 20.6092 54.6225 20.538ZM73.8284 12.0824L73.8684 12.1239C74.4813 11.7368 75.1671 11.4829 75.7969 11.3691C78.2532 10.9255 80.1009 11.9738 80.4962 14.1624C80.9939 16.9178 79.3284 19.0396 76.2581 19.5941C74.101 19.9837 72.5321 19.1289 72.279 17.7276C72.0658 16.5467 72.7023 15.57 74.1036 15.3169C75.6152 15.0439 76.8521 15.8611 77.5931 17.3532C78.484 16.7045 78.8701 15.6918 78.6569 14.5109C78.455 13.3929 77.4111 12.6547 75.8996 12.9277C74.3093 13.2149 72.8658 14.0447 71.1993 15.8903C71.0101 16.1033 70.7882 16.2247 70.5835 16.2616C70.0954 16.3498 69.6278 16.0115 69.5453 15.5549C69.4998 15.303 69.5617 15.0154 69.8053 14.7438C71.3758 12.9968 73.0288 10.5359 74.1661 8.46069C73.4173 8.72599 72.4137 9.02105 71.6379 9.22622C71.5749 9.23759 71.174 9.35877 70.9693 9.39573C70.4655 9.48673 70.1053 9.1128 70.0285 8.68768C69.9574 8.29404 70.1383 7.85491 70.6522 7.72958C71.9162 7.43626 73.5482 6.93014 75.0171 6.42096C75.093 6.391 75.1559 6.37962 75.2347 6.3654C75.8802 6.24881 76.4036 6.6258 76.5002 7.16114C76.5429 7.39732 76.4939 7.66631 76.3505 7.95235C75.6376 9.31677 74.6884 10.9027 73.8284 12.0824ZM75.8793 18.0367L76.0052 18.0139C75.5556 17.0546 74.9865 16.6045 74.3252 16.724C73.9946 16.7837 73.8067 17.094 73.8693 17.4404C73.9631 17.96 74.6354 18.2613 75.8793 18.0367ZM85.256 15.6299C84.9607 15.4762 84.8333 15.2513 84.8032 15.0293C84.7452 14.6012 85.0561 14.1554 85.5477 14.0888C85.7221 14.0652 85.9209 14.1028 86.1262 14.188C87.0872 14.6067 88.452 15.5035 89.3038 16.3084C89.5443 16.5342 89.658 16.7771 89.6881 16.9991C89.7568 17.5064 89.3803 17.945 88.8888 18.0116C88.6193 18.0481 88.3188 17.9758 88.0582 17.7205C87.2085 16.9315 86.1103 16.0954 85.256 15.6299ZM103.949 14.0408L103.728 10.9441C103.412 11.8731 102.996 12.7631 102.571 13.3807C102.373 13.6722 102.128 13.8072 101.889 13.8293C101.491 13.866 101.128 13.5942 101.091 13.1959C101.077 13.0366 101.123 12.8395 101.25 12.651C102.041 11.4693 102.656 9.9504 103.085 8.3361L101.444 8.48755C101.046 8.5243 100.804 8.16104 100.77 7.7946C100.734 7.41223 100.908 7.02667 101.29 6.99138L103.282 6.80758L102.842 2.04383C102.802 1.61366 103.197 1.36831 103.612 1.33008C104.026 1.29185 104.459 1.46074 104.499 1.89091L104.939 6.65466L106.468 6.51351C106.866 6.47675 107.107 6.82408 107.143 7.20645C107.176 7.57289 107.005 7.97438 106.606 8.01114L105.077 8.1523L105.139 8.82146C106.014 9.25483 106.871 9.83454 107.223 10.1716C107.435 10.377 107.534 10.5767 107.553 10.7839C107.59 11.1822 107.285 11.5317 106.902 11.567C106.695 11.5861 106.463 11.5111 106.253 11.3216C105.972 11.0584 105.642 10.7995 105.299 10.5581L105.756 15.513C105.8 15.991 105.408 16.2682 104.994 16.3064C104.58 16.3447 104.143 16.1439 104.099 15.6659L103.949 14.0408ZM113.865 9.01232L114.957 8.65447C115.019 8.63266 115.067 8.62825 115.131 8.62237C115.577 8.5812 115.887 8.98637 115.925 9.40061C115.955 9.71926 115.808 10.0381 115.434 10.169L114.015 10.6374L114.381 14.6046C114.427 15.0985 114.019 15.3771 113.588 15.4168C113.142 15.458 112.69 15.2587 112.645 14.7648L112.314 11.1801L108.695 12.3656C108.633 12.3874 108.585 12.3918 108.537 12.3962C108.091 12.4374 107.763 12.0178 107.725 11.6035C107.696 11.2849 107.826 10.9515 108.201 10.8366L112.164 9.55496L111.414 1.42949C111.368 0.935589 111.776 0.656905 112.222 0.615734C112.653 0.576034 113.105 0.775318 113.15 1.26922L113.865 9.01232ZM105.457 3.56994C105.509 3.25988 105.751 3.09296 106.022 3.06796C106.372 3.03562 106.745 3.24225 106.78 3.62463C106.784 3.67242 106.79 3.73615 106.78 3.80135C106.701 4.33888 106.524 5.03009 106.329 5.53012C106.224 5.78086 105.995 5.91445 105.772 5.93503C105.421 5.96738 105.066 5.77521 105.035 5.44063C105.028 5.36097 105.037 5.27983 105.076 5.17983C105.227 4.73201 105.367 4.15674 105.457 3.56994ZM102.227 3.91622C102.534 4.45033 102.826 5.00184 102.89 5.34941C102.91 5.39573 102.915 5.44353 102.919 5.49133C102.959 5.9215 102.617 6.22617 102.251 6.25998C101.964 6.28645 101.663 6.1536 101.549 5.7945C101.417 5.40502 101.186 4.81577 100.993 4.46403C100.952 4.37137 100.929 4.29318 100.921 4.21352C100.889 3.86301 101.204 3.62501 101.555 3.59266C101.81 3.56914 102.075 3.65714 102.227 3.91622ZM109.426 3.04303C109.901 3.3205 110.432 3.67323 110.837 4.05365C111.029 4.22866 111.128 4.42843 111.146 4.61962C111.187 5.06572 110.823 5.46892 110.392 5.50862C110.185 5.52774 109.955 5.46866 109.746 5.29512C109.33 4.96396 108.864 4.62129 108.486 4.35092C108.263 4.19478 108.146 3.98055 108.129 3.78937C108.091 3.37513 108.438 2.95746 108.9 2.91482C109.059 2.90012 109.239 2.93174 109.426 3.04303ZM109.128 6.42875C109.636 6.71922 110.132 7.04302 110.604 7.44942C110.796 7.62444 110.895 7.8242 110.913 8.01539C110.954 8.46149 110.591 8.88063 110.161 8.92033C109.954 8.93944 109.739 8.8789 109.53 8.70535C109.132 8.38866 108.597 7.98814 108.188 7.73665C107.949 7.58198 107.834 7.38368 107.815 7.17656C107.776 6.76232 108.14 6.34319 108.602 6.30055C108.761 6.28584 108.941 6.31746 109.128 6.42875ZM126.831 7.89146L125.664 7.94976C124.274 8.01924 123.671 7.48868 123.613 6.33812L123.416 2.39104C123.358 1.24048 123.905 0.636449 125.295 0.566973L129.402 0.361739C130.792 0.292263 131.412 0.837998 131.47 1.98856L131.667 5.93564C131.725 7.0862 131.161 7.67505 129.771 7.74453L128.54 7.80602L128.615 9.29216L131.076 9.16918C131.475 9.14922 131.701 9.50638 131.72 9.8899C131.739 10.2574 131.55 10.6513 131.151 10.6713L128.69 10.7943L128.776 12.5201L132.244 12.3468C132.643 12.3269 132.869 12.684 132.888 13.0676C132.907 13.4351 132.718 13.829 132.319 13.849L122.891 14.3201C122.507 14.3393 122.28 13.9662 122.262 13.5986C122.243 13.2151 122.432 12.8372 122.815 12.818L127.066 12.6056L126.98 10.8797L124.487 11.0043C124.104 11.0235 123.877 10.6503 123.858 10.2828C123.839 9.89928 124.028 9.52135 124.412 9.50219L126.905 9.37761L126.831 7.89146ZM125.768 6.50277L126.807 6.45086L126.73 4.91678L125.18 4.99424L125.236 6.11284C125.254 6.48039 125.432 6.51954 125.768 6.50277ZM125.11 3.58799L126.66 3.51053L126.583 1.97645L125.544 2.02835C125.145 2.04832 125.037 2.13381 125.054 2.46939L125.11 3.58799ZM128.181 1.89659L128.258 3.43068L129.904 3.34842L129.848 2.22982C129.831 1.89424 129.731 1.81913 129.316 1.83989L128.181 1.89659ZM129.974 4.75467L128.328 4.83692L128.405 6.37101L129.539 6.31431C129.955 6.29354 130.047 6.20885 130.03 5.87327L129.974 4.75467ZM119.77 10.5352L119.592 6.97162L118.585 7.02193C118.169 7.04269 117.943 6.66955 117.923 6.28603C117.905 5.91849 118.094 5.52459 118.509 5.50382L119.516 5.45351L119.383 2.80082L118.153 2.86231C117.737 2.88308 117.51 2.50994 117.491 2.12642C117.473 1.75888 117.661 1.36497 118.077 1.34421L122.136 1.14137C122.551 1.12061 122.778 1.49375 122.797 1.86129C122.816 2.24481 122.627 2.63871 122.212 2.65948L121.061 2.71697L121.194 5.36966L122.089 5.32494C122.504 5.30418 122.731 5.67732 122.749 6.04486C122.769 6.42838 122.58 6.82229 122.164 6.84305L121.27 6.88777L121.421 9.92398C121.703 9.79775 121.986 9.68749 122.236 9.56285C122.362 9.50853 122.473 9.48696 122.585 9.48137C123.032 9.459 123.323 9.82895 123.342 10.2125C123.356 10.4841 123.241 10.7622 122.929 10.922C121.648 11.5787 120.108 12.1843 118.876 12.5343C118.797 12.5542 118.718 12.5742 118.654 12.5774C118.159 12.6021 117.851 12.201 117.83 11.7856C117.812 11.434 117.988 11.1048 118.414 10.9714C118.841 10.854 119.298 10.703 119.77 10.5352ZM138.227 11.7202C136.595 11.7361 135.222 10.4373 135.198 7.94145C135.163 4.29362 138.158 1.27238 142.557 1.22962C146.461 1.19168 148.741 3.61764 148.772 6.80149C148.8 9.69736 147.109 11.8419 144.365 12.7486C144.238 12.7978 144.11 12.8151 143.998 12.8162C143.454 12.8215 143.098 12.3769 143.093 11.9129C143.09 11.5609 143.278 11.2071 143.757 11.0264C146.021 10.1884 146.919 8.80359 146.9 6.81968C146.88 4.72378 145.439 3.0097 143.005 2.85734C142.871 5.51477 142.238 7.92103 141.263 9.67459C140.398 11.2351 139.459 11.7082 138.227 11.7202ZM141.134 2.98753C138.755 3.47467 137.015 5.55568 137.038 7.92357C137.052 9.3955 137.634 9.93388 138.21 9.92828C138.706 9.92346 139.135 9.66327 139.591 8.8428C140.393 7.41094 140.965 5.34128 141.134 2.98753ZM154.838 8.76411C154.916 6.22131 155.169 3.18765 155.417 0.842152C155.466 0.299389 155.922 0.0572498 156.369 0.0709901C156.849 0.0857119 157.289 0.371324 157.272 0.899076C157.267 1.07499 157.222 1.48982 157.201 1.66524C156.968 4.02722 156.765 6.47014 156.693 8.83703C156.627 10.98 157.265 11.5759 158.4 11.6107C159.888 11.6563 161.298 11.0913 162.825 9.31333C163.058 9.03234 163.349 8.92923 163.605 8.93708C164.101 8.95229 164.537 9.34985 164.521 9.84562C164.515 10.0375 164.446 10.2275 164.279 10.4305C162.386 12.6455 160.425 13.4497 158.346 13.3859C155.963 13.3128 154.736 12.0905 154.838 8.76411ZM176.691 1.17788C176.904 0.888332 177.2 0.781183 177.472 0.800567C177.95 0.834776 178.403 1.23605 178.365 1.76271C178.353 1.93826 178.275 2.12521 178.133 2.32356C177.057 3.69034 175.512 5.32842 174.189 6.56524C173.914 6.81831 173.821 6.98816 173.803 7.24351C173.784 7.51481 173.898 7.71545 174.133 8.02096C175.446 9.62262 176.754 11.5127 177.832 13.2739C177.974 13.5247 178.038 13.7539 178.024 13.9454C177.986 14.488 177.463 14.8357 176.953 14.7992C176.618 14.7752 176.31 14.5928 176.097 14.2087C175.189 12.5398 173.86 10.4878 172.67 8.95911C172.142 8.26373 171.91 7.70173 171.951 7.12719C171.988 6.60054 172.203 6.07046 172.819 5.52102C174.137 4.36399 175.592 2.63927 176.691 1.17788ZM189.303 2.96678L191.987 2.87031C192.15 2.85664 192.309 2.87477 192.468 2.8929C193.453 3.0053 193.946 3.62515 193.85 4.46769C193.836 4.59486 193.821 4.72204 193.773 4.86149C193.434 5.9984 192.998 7.14033 192.537 8.21504C193.57 8.47777 194.571 8.88175 195.55 9.33162C195.794 8.60259 195.982 7.80272 196.128 6.94972C196.2 6.45873 196.658 6.25333 197.103 6.30409C197.564 6.35667 197.992 6.69539 197.929 7.25178C197.826 8.15791 197.508 9.24894 197.155 10.2233C197.909 10.6795 198.639 11.1976 199.345 11.7774C199.64 12.0203 199.732 12.3369 199.7 12.623C199.644 13.1158 199.21 13.5333 198.701 13.4753C198.526 13.4554 198.341 13.3859 198.164 13.237C197.576 12.7512 196.997 12.3148 196.414 11.9262C195.625 13.4788 194.593 14.7621 193.408 15.6898C193.124 15.9152 192.842 15.9956 192.587 15.9666C192.094 15.9104 191.746 15.4359 191.798 14.9749C191.822 14.7682 191.927 14.5547 192.139 14.3857C193.237 13.5125 194.172 12.3791 194.863 10.9764C193.893 10.447 192.894 10.0272 191.833 9.72901C191.419 10.5353 190.996 11.2762 190.588 11.8899C189.594 13.403 188.71 13.8174 187.565 13.6869C186.246 13.5364 185.374 12.5674 185.561 10.93C185.787 8.9429 187.77 7.51038 190.425 7.81314L190.791 7.85484C191.225 6.87369 191.648 5.84304 191.89 4.85603C191.895 4.80834 191.916 4.76246 191.92 4.73067C191.936 4.5876 191.843 4.56082 191.617 4.56724L189.349 4.67906C189.284 4.6877 189.22 4.68045 189.173 4.67501C188.664 4.617 188.411 4.15333 188.46 3.72412C188.503 3.34259 188.785 2.98825 189.303 2.96678ZM187.779 11.956C188.24 12.0085 188.51 11.8945 189.03 11.1486C189.378 10.6407 189.721 10.0356 190.051 9.39698C188.396 9.22433 187.415 10.0625 187.301 11.064C187.235 11.6363 187.461 11.9197 187.779 11.956ZM207.387 9.86709C206.341 12.3742 205.019 14.7887 203.583 16.586C203.32 16.9169 202.966 17.0065 202.65 16.9563C202.191 16.8836 201.831 16.5024 201.906 16.0283C201.928 15.8861 202.003 15.7198 202.126 15.561C203.4 13.9649 204.565 11.9303 205.524 9.76588C204.863 9.7421 204.214 9.75243 203.593 9.78357C203.528 9.78935 203.449 9.77681 203.385 9.76678C202.895 9.68906 202.69 9.25138 202.755 8.84052C202.812 8.47706 203.091 8.14871 203.596 8.13162C204.427 8.10146 205.314 8.12874 206.166 8.16681C206.509 7.23295 206.822 6.27828 207.086 5.33189C207.229 4.83624 207.662 4.66188 208.073 4.72707C208.515 4.79727 208.913 5.15192 208.833 5.65759L208.815 5.76821C208.585 6.60649 208.302 7.46886 207.99 8.31041C208.309 8.34475 208.593 8.38988 208.846 8.42999C210.869 8.75091 211.466 9.78529 211.073 12.2663C210.837 13.7517 210.468 15.054 210.047 15.9753C209.253 17.7124 208.439 18.2474 206.843 17.9942C206.464 17.934 206.074 17.8397 205.781 17.7447C205.256 17.5804 205.082 17.1478 205.142 16.7685C205.212 16.3261 205.564 15.9445 206.086 16.0273C206.117 16.0323 206.162 16.0556 206.21 16.0631C206.505 16.1424 206.737 16.2116 207.069 16.2642C207.622 16.352 207.934 16.2233 208.35 15.3336C208.762 14.4755 209.1 13.2654 209.305 11.9696C209.531 10.5474 209.322 10.1256 208.564 10.0052C208.216 9.95005 207.819 9.90318 207.387 9.86709ZM214.105 8.16275C214.95 9.26884 215.699 10.8781 216.069 12.0221C216.133 12.2268 216.135 12.4214 216.11 12.5794C216.022 13.1325 215.522 13.4258 215.048 13.3506C214.732 13.3004 214.428 13.0739 214.274 12.6122C213.886 11.3841 213.241 10.0345 212.547 9.00087C212.403 8.78367 212.356 8.5657 212.384 8.39187C212.454 7.94941 212.952 7.67196 213.426 7.74717C213.679 7.78729 213.917 7.92222 214.105 8.16275ZM215.92 5.50234C215.814 5.35586 215.787 5.22192 215.807 5.09551C215.857 4.77946 216.2 4.55846 216.563 4.61612C216.721 4.64119 216.869 4.72947 217.007 4.88096C217.363 5.2938 217.759 5.85889 218.018 6.36981C218.12 6.54789 218.142 6.71344 218.117 6.87146C218.062 7.21911 217.722 7.42431 217.39 7.37166C217.2 7.34157 217.007 7.22997 216.882 6.99947C216.591 6.48353 216.224 5.93926 215.92 5.50234ZM214.142 6.50001C214.052 6.35604 214.024 6.2221 214.042 6.11148C214.092 5.79543 214.453 5.56114 214.801 5.61629C214.943 5.63886 215.093 5.71134 215.216 5.86032C215.582 6.30727 215.976 6.88816 216.23 7.43069C216.318 7.59046 216.327 7.73769 216.305 7.87991C216.249 8.22756 215.904 8.46437 215.572 8.41172C215.383 8.38163 215.208 8.25673 215.098 8.02874C214.802 7.44709 214.448 6.92113 214.142 6.50001ZM224.398 12.1338L224.248 12.7073C226.006 11.7775 227.718 11.475 229.144 11.7674C231.48 12.2462 232.748 14.1883 232.304 16.3513C231.755 19.0316 229.689 20.5028 226.814 20.6647C226.717 20.6611 226.635 20.6607 226.557 20.6447C226.008 20.5322 225.769 20.0259 225.856 19.6027C225.93 19.2422 226.223 18.9267 226.754 18.8884C228.895 18.7229 230.082 17.872 230.467 15.9911C230.74 14.6588 230.083 13.6421 228.813 13.3819C227.418 13.0959 225.65 13.5173 223.808 14.6915L222.684 20.0958C222.585 20.5817 222.11 20.7458 221.687 20.659C221.264 20.5723 220.908 20.2379 221.007 19.752L221.787 16.188L220.076 17.6013C219.84 17.7978 219.601 17.8469 219.382 17.8019C218.943 17.7119 218.612 17.2522 218.702 16.8133C218.738 16.6409 218.836 16.4814 218.993 16.3503C219.954 15.5673 221.202 14.4186 222.451 13.1066L222.704 12.0315L220.865 11.9976C220.8 12.0004 220.753 11.9908 220.706 11.9812C220.235 11.8848 220.056 11.407 220.139 10.9994C220.21 10.6546 220.487 10.3359 220.908 10.3567L223.063 10.4392L223.631 7.82806C223.731 7.34216 224.221 7.18134 224.629 7.26488C225.052 7.35163 225.423 7.68916 225.308 8.17185L224.763 10.5917C225.133 10.7002 225.223 10.9799 225.178 11.1993C225.12 11.4814 224.927 11.7033 224.398 12.1338ZM241.066 16.2468C239.795 18.6474 238.256 20.9305 236.662 22.5885C236.37 22.8939 236.009 22.9505 235.699 22.8716C235.249 22.7572 234.925 22.3445 235.043 21.8793C235.079 21.7397 235.169 21.581 235.305 21.4341C236.72 19.9616 238.067 18.0425 239.22 15.9752C238.565 15.8909 237.917 15.8416 237.296 15.8157C237.23 15.8154 237.153 15.7957 237.091 15.7799C236.61 15.6575 236.445 15.2028 236.548 14.7997C236.639 14.443 236.946 14.1417 237.451 14.1709C238.281 14.2171 239.161 14.3256 240.007 14.4418C240.434 13.5433 240.833 12.6214 241.183 11.7031C241.371 11.2227 241.818 11.0888 242.221 11.1914C242.655 11.3019 243.018 11.6915 242.892 12.1877L242.864 12.2962C242.558 13.1099 242.198 13.9427 241.81 14.7521C242.124 14.8155 242.403 14.8865 242.651 14.9497C244.636 15.4548 245.136 16.5396 244.516 18.974C244.145 20.4315 243.659 21.6945 243.155 22.5733C242.205 24.2302 241.345 24.6883 239.779 24.2898C239.407 24.1951 239.027 24.0654 238.744 23.9439C238.237 23.7322 238.103 23.2854 238.198 22.9132C238.308 22.4791 238.694 22.1314 239.205 22.2617C239.236 22.2696 239.279 22.2969 239.326 22.3087C239.612 22.4147 239.837 22.5049 240.163 22.5878C240.705 22.7259 241.028 22.6264 241.524 21.7786C242.013 20.9619 242.46 19.788 242.784 18.5165C243.139 17.121 242.97 16.6818 242.226 16.4923C241.885 16.4055 241.493 16.3224 241.066 16.2468ZM248.068 15.2054C248.808 16.3843 249.406 18.0555 249.669 19.2286C249.714 19.4383 249.698 19.6323 249.659 19.7874C249.521 20.3301 248.996 20.5762 248.53 20.4578C248.22 20.3789 247.938 20.1255 247.828 19.6516C247.553 18.3931 247.036 16.99 246.439 15.897C246.315 15.6675 246.289 15.4462 246.333 15.2757C246.443 14.8415 246.964 14.6109 247.429 14.7293C247.677 14.7924 247.902 14.9486 248.068 15.2054ZM258.302 21.6056L258.318 21.6609C259.04 21.5989 259.766 21.6886 260.378 21.877C262.763 22.612 263.922 24.3923 263.267 26.5177C262.443 29.1935 259.989 30.3124 257.007 29.3937C254.912 28.7482 253.912 27.268 254.331 25.9071C254.684 24.7603 255.699 24.1855 257.059 24.6048C258.527 25.0571 259.25 26.3514 259.223 28.0171C260.312 27.8505 261.12 27.1285 261.474 25.9817C261.808 24.8961 261.221 23.7607 259.753 23.3084C258.208 22.8325 256.545 22.906 254.217 23.7791C253.951 23.8813 253.698 23.8871 253.499 23.8259C253.025 23.6798 252.765 23.1645 252.902 22.721C252.977 22.4764 253.164 22.2494 253.506 22.1202C255.703 21.2905 258.302 19.8647 260.266 18.5444C259.479 18.4359 258.452 18.2367 257.669 18.0622C257.608 18.0434 257.196 17.9668 256.997 17.9055C256.508 17.7548 256.36 17.2571 256.487 16.8443C256.605 16.462 256.968 16.1551 257.482 16.28C258.739 16.6005 260.421 16.9011 261.96 17.124C262.041 17.1323 262.102 17.1512 262.178 17.1747C262.805 17.3679 263.097 17.9432 262.937 18.4631C262.866 18.6925 262.699 18.9089 262.44 19.097C261.18 19.9811 259.608 20.9533 258.302 21.6056ZM257.386 27.8364L257.509 27.8741C257.55 26.8154 257.252 26.1541 256.61 25.9563C256.288 25.8573 255.979 26.0466 255.875 26.383C255.72 26.8876 256.178 27.4642 257.386 27.8364ZM275.852 27.5323L275.004 30.0333L274.525 31.3404L276.644 32.1162C277.004 32.2482 277.053 32.6748 276.921 33.0354C276.789 33.396 276.476 33.6906 276.116 33.5585L273.997 32.7828L273.166 35.0514C273.012 35.4721 272.53 35.5339 272.124 35.3854C271.718 35.2368 271.39 34.8779 271.544 34.4573L272.375 32.1886L270.391 31.4624C270.031 31.3303 269.968 30.8982 270.1 30.5376C270.232 30.177 270.559 29.888 270.92 30.02L272.903 30.7462L273.381 29.4391L274.294 27.1324C272.435 28.5813 269.929 29.7936 267.441 30.399C267.237 30.4437 267.035 30.4378 266.885 30.3827C266.464 30.2287 266.266 29.7471 266.409 29.3564C266.491 29.1311 266.699 28.9347 267.036 28.8534C269.543 28.2891 272.076 27.0016 274.216 25.2977L270.04 23.7682C269.634 23.6197 269.576 23.1725 269.708 22.812C269.846 22.4363 270.173 22.1473 270.579 22.2958L275.357 24.0454L276.314 21.4312C276.468 21.0105 276.945 20.9637 277.351 21.1122C277.756 21.2608 278.091 21.6047 277.936 22.0253L276.979 24.6396L281.952 26.4607C282.358 26.6092 282.436 27.0468 282.299 27.4224C282.167 27.783 281.819 28.0816 281.413 27.933L276.936 26.2935C277.599 29.0413 278.902 31.3927 280.424 33.1937C280.707 33.536 280.748 33.8916 280.643 34.177C280.483 34.6127 279.969 34.9014 279.488 34.7253C279.323 34.6648 279.174 34.5592 279.032 34.388C277.485 32.4243 276.367 29.9872 275.852 27.5323Z" fill="#282828"/>
</svg>
