<?xml version="1.0" encoding="UTF-8"?>
<svg id="_レイヤー_1" data-name="レイヤー_1" xmlns="http://www.w3.org/2000/svg" version="1.1" viewBox="0 0 280 56">
  <!-- Generator: Adobe Illustrator 30.1.0, SVG Export Plug-In . SVG Version: 2.1.1 Build 136)  -->
  <polygon points="280 0 252 0 28 0 0 0 10 28 0 56 28 56 252 56 280 56 270 28 280 0" fill="#69bd83"/>
  <path d="M90.1,19.6l.9,1c.1.2.2.3.2.5,0,.4-.3.6-.7.6s-.4,0-.5-.3l-.9-1c-.6.4-1.3.6-2,.6-2.2,0-4-1.7-4-4.7s1.8-4.7,4-4.7,4,1.6,4,4.7-.4,2.5-1,3.3ZM88.3,17.6l.9,1c.3-.6.5-1.3.5-2.2,0-2.1-.9-3.5-2.5-3.5s-2.5,1.3-2.5,3.5.9,3.5,2.5,3.5.8-.1,1.2-.3l-1.1-1.2c-.1-.1-.2-.3-.2-.5,0-.4.3-.6.7-.6s.3,0,.5.3ZM95.8,18.9h-2.9c-.6,0-.9-.3-.9-.8s0-.5.3-.9l2.8-4.7c.3-.5.6-.7,1.1-.7s.9.3.9,1.1v4.9h.7c.4,0,.6.2.6.6s-.2.6-.6.6h-.7v1.4c0,.4-.3.7-.7.7s-.6-.2-.6-.7v-1.4ZM95.8,17.8v-2.2c0-.8,0-1.6,0-2.4h0c-.3.7-.6,1.4-1.1,2.1l-1.4,2.5h2.5ZM100.5,19.2c.5,0,.9.4.9.9s-.4.9-.9.9-.9-.4-.9-.9.4-.9.9-.9ZM105.8,12.3c.6.1,1.5.2,2.3.2s1.7,0,2.3-.2c0,0,0,0,.1,0,.4,0,.6.3.6.7s-.2.6-.5.6c-.7.1-1.6.2-2.5.2s-1.8,0-2.6-.2c-.4,0-.5-.4-.5-.7s.2-.7.6-.7.1,0,.2,0ZM108.1,21c-2.9,0-4-.8-4-2.4s0-.6.1-.9c0-.3.4-.5.7-.5s.7.2.7.6,0,.1,0,.2c0,.2,0,.4,0,.6,0,.8.4,1.2,2.7,1.2s2.3-.1,3.3-.3c0,0,.1,0,.2,0,.4,0,.6.3.6.7s-.2.6-.6.7c-1.1.2-2.2.4-3.5.4ZM117.2,20.2c-1.2,0-2.2-1-2.2-2.9,0-2.7,2.3-5,5.6-5s4.6,1.8,4.6,4.2-1.3,3.8-3.3,4.4c0,0-.2,0-.3,0-.4,0-.7-.3-.7-.7s.1-.5.5-.7c1.7-.6,2.4-1.6,2.4-3.1s-1.1-2.9-2.9-3c-.1,2-.6,3.8-1.4,5.1-.7,1.2-1.4,1.5-2.3,1.5ZM119.5,13.7c-1.8.3-3.1,1.9-3.1,3.7s.4,1.5.9,1.5.7-.2,1-.8c.6-1.1,1.1-2.6,1.2-4.4ZM136.8,10.5c.7,0,1.3.6,1.3,1.3s-.6,1.3-1.3,1.3-1.3-.6-1.3-1.3.6-1.3,1.3-1.3ZM136.8,11.1c-.4,0-.7.3-.7.7s.3.7.7.7.7-.3.7-.7-.3-.7-.7-.7ZM128.3,12.9h6.1c1.3,0,1.8.4,1.8,1.2s0,.4,0,.7c-.7,2.8-2.7,5.3-5.6,6.7-.1,0-.3,0-.4,0-.4,0-.7-.3-.7-.7s.1-.5.4-.6c2.7-1.4,4.2-3.3,4.8-5.4,0,0,0-.2,0-.2,0-.2-.2-.3-.5-.3h-5.8c-.5,0-.7-.3-.7-.6s.2-.7.6-.7ZM145.7,20.6h-4.7c-1.4,0-2-.6-2-1.7v-4.5c0-1.1.6-1.7,2-1.7h4.7c1.4,0,2,.6,2,1.7v4.5c0,1.1-.6,1.7-2,1.7ZM141.2,19.3h4.3c.6,0,.7-.2.7-.6v-4.1c0-.4-.2-.6-.7-.6h-4.3c-.6,0-.7.2-.7.6v4.1c0,.4.2.6.7.6ZM155,13.3h2.2c1,0,1.5.4,1.5,1.1s0,.4-.1.6c-.8,2.8-2.9,5.3-5.5,6.8-.1,0-.3.1-.4.1-.4,0-.7-.3-.7-.7s.1-.5.4-.6c2.4-1.4,4-3.4,4.7-5.7,0,0,0-.1,0-.2,0-.1,0-.2-.3-.2h-2.7c-.6.9-1.3,1.7-2,2.3-.2.2-.4.2-.6.2-.4,0-.7-.3-.7-.6s0-.4.3-.6c1.1-1,2.3-2.7,2.9-4.1.1-.3.4-.5.7-.5s.7.3.7.6,0,.2,0,.3c-.2.4-.3.7-.5,1.1ZM158.1,12.1c0,0,0-.2,0-.3,0-.2.2-.4.5-.4s.3,0,.4.2c.3.3.6.7.8,1.1,0,0,0,.2,0,.3,0,.3-.2.5-.5.5s-.3,0-.4-.3c-.2-.4-.5-.8-.8-1.1ZM159.4,11.2c0,0-.1-.2-.1-.3,0-.2.2-.4.5-.4s.3,0,.4.2c.3.3.6.7.8,1.1,0,.1.1.2.1.3,0,.3-.2.5-.5.5s-.3,0-.4-.3c-.2-.4-.5-.8-.8-1.1ZM164.8,12h5.2c.4,0,.6.3.6.6s-.2.6-.6.6h-5.2c-.4,0-.6-.3-.6-.6s.2-.6.6-.6ZM163.6,14.7h6.3c1.1,0,1.6.4,1.6,1.1s0,.4-.1.7c-.7,2.2-2.7,4-5.1,4.9-.1,0-.2,0-.3,0-.4,0-.7-.3-.7-.7s.1-.5.5-.6c2.1-.8,3.6-2.2,4.2-3.8,0,0,0-.2,0-.2,0-.1-.1-.2-.4-.2h-6.1c-.4,0-.6-.3-.6-.6s.2-.6.6-.6ZM177.7,19.3c1.4-.1,2.8-.3,4.2-.5-.4-.6-.8-1.2-1.1-1.6-.1-.1-.2-.3-.2-.4,0-.3.3-.6.7-.6s.4,0,.6.3c.9,1,1.8,2.5,2.4,3.7,0,.1,0,.3,0,.4,0,.4-.4.7-.7.7s-.5-.1-.6-.4c-.1-.3-.3-.6-.5-.9-2.1.4-4.6.7-6.8.9-.2,0-.5,0-.5,0-.4,0-.6-.3-.6-.7s.2-.7.6-.7c.3,0,.7,0,1,0,.9-2.4,1.8-5,2.3-7.2,0-.4.4-.5.7-.5s.8.2.8.7,0,.1,0,.2c-.5,2.2-1.4,4.7-2.2,6.8ZM189.5,15.3h0c.3,0,.7-.2,1-.2.8,0,1.4.3,1.7,1.1.9-.4,1.9-.8,3-1.1,0,0,.2,0,.2,0,.4,0,.6.3.6.6s-.1.5-.5.6c-1,.3-2.1.7-3.1,1.1,0,.4,0,1,.1,1.6,0,.4-.3.6-.7.6s-.6-.2-.6-.6c0-.5,0-.8,0-1.2-1.2.6-1.5,1.2-1.5,1.6s.4.7,1.8.7,1.5,0,2.3-.2c0,0,0,0,.1,0,.4,0,.6.3.6.7s-.2.6-.6.6c-.8.1-1.7.2-2.5.2-2.3,0-3.2-.8-3.2-1.9s.6-1.9,2.7-3c-.2-.4-.4-.5-.8-.5s-1.3.3-2.5,1.2c-.1.1-.3.2-.4.2-.3,0-.6-.3-.6-.6s0-.4.3-.5c.8-.7,1.4-1.4,2-2.3-.5,0-.9,0-1.3,0-.4,0-.7-.3-.7-.6s.2-.6.7-.6,1.2,0,1.9,0c.2-.5.4-.9.5-1.4,0-.3.3-.4.6-.4s.7.2.7.6,0,.1,0,.2c-.1.3-.2.6-.4.9.6,0,1.2-.1,1.7-.2,0,0,0,0,.1,0,.4,0,.6.3.6.6s-.2.5-.5.6c-.8.1-1.7.3-2.5.3-.3.5-.6.9-.9,1.3ZM51,37c.6,3,1.8,5.7,4.6,7.2.3.2.4.4.4.6,0,.4-.3.7-.7.7s-.2,0-.4,0c-2-1.1-3.6-3.2-4.4-5.7-.3,1.2-.8,2.2-1.5,3.1-.8,1-1.9,2-3,2.7-.1,0-.3.1-.4.1-.4,0-.6-.3-.6-.7s.1-.4.4-.6c1-.5,2-1.4,2.7-2.3,1-1.4,1.6-3.2,1.6-6.4s.3-.6.7-.6.7.2.7.6,0,.9,0,1.3ZM58.6,36.4c0-.3.4-.5.7-.5s.7.2.7.6,0,0,0,.1c-.4,2-.6,3.6-.6,5.3s.1,2.1.2,2.8c0,0,0,0,0,0,0,.4-.3.6-.7.6s-.6-.2-.7-.6c0-.8-.2-2-.2-3,0-1.8.1-3.4.6-5.5ZM65.9,36.9h0c.4,0,.6.3.6.6s-.2.6-.6.7c-1.1.1-2.2.2-3.4.3-.5,0-.7-.3-.7-.6s.2-.6.6-.6c1.1,0,2.3-.1,3.3-.3ZM62.7,42.2c.1.7.5,1,2,1s1.2,0,1.8-.2c0,0,0,0,.1,0,.4,0,.6.3.6.7s-.2.6-.5.6c-.7.1-1.4.2-2.1.2-2.2,0-3.1-.7-3.3-2.1h0c0-.5.3-.7.7-.7s.6.2.6.5ZM73.6,38.5v1.8c.6-.2,1.3-.2,2.1-.2,1.9,0,3.1.9,3.1,2.4s-1,2.5-2.8,2.8c0,0,0,0-.1,0-.4,0-.6-.3-.6-.6s.2-.6.6-.6c1.2-.2,1.6-.7,1.6-1.5s-.6-1.2-1.8-1.2-1.4.1-2.1.3v2.1c0,1.2-.5,1.7-1.7,1.7s-2.2-.8-2.2-1.9.5-1.8,2.6-2.8v-2c-.6,0-1.2,0-1.7.1-.4,0-.6-.3-.6-.6s.2-.6.6-.6c.5,0,1.1,0,1.7-.1v-1.8c0-.4.3-.6.6-.6s.6.2.6.6v1.6c.4,0,.8-.1,1.1-.2,0,0,.1,0,.2,0,.4,0,.6.3.6.6s-.2.5-.5.6c-.4.1-.9.2-1.5.3ZM72.3,43.5v-1.5c-1,.6-1.3,1-1.3,1.5s.4.6.9.6c.3,0,.4-.2.4-.5ZM77.6,36.7c.6.3,1.2.7,1.7,1.2.2.2.3.4.3.6,0,.4-.3.7-.7.7s-.3,0-.5-.2c-.4-.4-1-.8-1.5-1-.2-.1-.3-.3-.3-.5,0-.3.3-.7.7-.7s.2,0,.3,0ZM86.9,43h0c-.2.2-.5.3-.9.3-1.2,0-2-.8-2-2.2s.7-2,1.9-2,.5,0,.7,0v-1c-.9,0-2.9.1-4.2.2-.1,0-.4,0-.5,0-.4,0-.6-.3-.6-.7s.2-.6.6-.6c1.4,0,3.1-.2,4.7-.2,0-.4,0-.9,0-1.5s.3-.6.7-.6.6.2.6.6v1.4c1.2,0,2.4,0,3.5,0s.6.3.6.7-.2.6-.6.6c-1.1,0-2.3,0-3.5,0,0,.7,0,1.4,0,2.1.3.4.4,1,.4,1.6,0,1.9-1,3.2-2.7,4-.1,0-.2,0-.3,0-.4,0-.7-.3-.7-.7s.1-.5.5-.6c1-.4,1.6-1.1,1.8-1.7ZM85.9,40.3c-.4,0-.7.3-.7.9s.4.9.8.9.7-.3.7-.8-.3-1-.8-1ZM98.9,43h0c-.2.2-.5.3-.9.3-1.2,0-2-.8-2-2.2s.7-2,1.9-2,.5,0,.7,0v-1c-.9,0-2.9.1-4.2.2-.1,0-.4,0-.5,0-.4,0-.6-.3-.6-.7s.2-.6.6-.6c1.4,0,3.1-.2,4.7-.2,0-.4,0-.9,0-1.5s.3-.6.7-.6.6.2.6.6v1.4c1.2,0,2.4,0,3.5,0s.6.3.6.7-.2.6-.6.6c-1.1,0-2.3,0-3.5,0,0,.7,0,1.4,0,2.1.3.4.4,1,.4,1.6,0,1.9-1,3.2-2.7,4-.1,0-.2,0-.3,0-.4,0-.7-.3-.7-.7s.1-.5.5-.6c1-.4,1.6-1.1,1.8-1.7ZM97.9,40.3c-.4,0-.7.3-.7.9s.4.9.8.9.7-.3.7-.8-.3-1-.8-1ZM109.4,42.7c.1.3.3.6.4.9,0,.1,0,.2,0,.3,0,.4-.3.6-.6.6s-.4-.1-.5-.4c0-.2-.2-.4-.3-.6-.7.6-1.2.8-1.8.8-1,0-1.7-.6-1.7-1.8s.6-2.4,1.9-3.5c-.2-.7-.3-1.5-.4-2.2h0c0-.4.3-.6.7-.6s.6.2.6.5c0,.5.2,1.1.3,1.6.7-.4,1.5-.6,2.3-.7,0-.5.2-1,.2-1.5,0-.3.3-.5.6-.5s.7.2.7.6h0c0,.5-.1,1-.2,1.4,2,.2,3.3,1.6,3.3,3.5s-1.1,3.4-3.1,4.1c0,0-.2,0-.3,0-.4,0-.7-.3-.7-.7s.2-.5.5-.6c1.5-.5,2.2-1.4,2.2-2.8s-.8-2.1-2.2-2.3c-.4,1.4-1,2.8-2,3.9ZM108.9,41.4c.5-.8.9-1.7,1.1-2.6-.6.1-1.2.3-1.8.7.2.6.4,1.3.6,1.9ZM108,42.4c-.3-.7-.5-1.4-.7-2.1-.7.7-1,1.5-1,2.1s.2.7.5.7.7-.1,1.2-.7ZM119,42c0-1.9.1-4.2.3-6,0-.4.4-.6.7-.6s.7.2.7.6,0,.4,0,.6c-.1,1.8-.2,3.6-.2,5.4s.5,2,1.3,2,2.2-.5,3.3-1.8c.2-.2.4-.3.6-.3.4,0,.7.3.7.7s0,.3-.2.4c-1.4,1.7-2.8,2.4-4.4,2.4s-2.7-.9-2.7-3.4ZM131,38.9c-.5,0-1,.1-1.5.1s-.6-.3-.6-.6.2-.6.6-.7c.5,0,1.1,0,1.7-.2.1-.7.2-1.2.2-1.8,0-.4.3-.6.7-.6s.7.2.7.6h0c0,.6-.1,1.1-.2,1.5.3,0,.7-.2,1-.2,0,0,.1,0,.2,0,.4,0,.6.3.6.6s-.1.5-.5.6c-.6.2-1.1.3-1.6.4-.4,2.4-1,4.6-1.7,6.3-.1.4-.4.5-.7.5s-.7-.2-.7-.6,0-.2,0-.3c.7-1.6,1.2-3.5,1.6-5.6ZM133.5,43c0-.4.3-.6.7-.6s.5.2.6.5c0,.8.5,1,1.8,1s1.1,0,1.6-.1c0,0,0,0,.1,0,.4,0,.6.3.6.7s-.2.6-.6.6c-.5,0-1.1.1-1.8.1-1.7,0-2.4-.4-2.8-1-.2-.3-.3-.8-.3-1.1ZM134.7,39c.9-.2,2.1-.3,3.1-.3s.6.3.6.6-.2.6-.6.6c-1,0-2.1.1-2.9.3,0,0-.1,0-.1,0-.4,0-.6-.3-.6-.6s.2-.6.6-.6ZM141.3,37c0-.4.4-.6.7-.6s.7.2.7.6,0,.8,0,1.1c0,4.2.9,5.3,1.4,5.3s.6-.2.8-1.1c0-.4.3-.5.6-.5s.7.3.7.6,0,.1,0,.2c-.4,1.6-1.2,2.2-2,2.2-1.7,0-2.8-2.1-2.8-6.7s0-.9,0-1.2ZM148.8,37.8c1,.9,1.9,2.4,2.3,3.7,0,0,0,.2,0,.3,0,.4-.3.6-.7.6s-.5-.1-.6-.5c-.4-1.1-1.2-2.4-2.1-3.3-.1-.1-.2-.3-.2-.4,0-.3.3-.6.7-.6s.4,0,.5.2ZM156.6,40c-.3-1.2-.4-2.6-.4-4.2s.3-.6.7-.6.7.2.7.6c0,1.3.1,2.5.3,3.5.7-.4,1.5-.7,2.4-.9,0,0,.1,0,.2,0,.4,0,.6.3.6.7s-.1.5-.4.6c-1.1.3-2.3.8-3.2,1.4-1,.7-1.4,1.3-1.4,1.9s.5,1.1,2.4,1.1,1.8,0,2.5-.2c0,0,.1,0,.2,0,.4,0,.6.3.6.7s-.2.6-.5.7c-.8.2-1.7.2-2.8.2-2.5,0-3.8-.8-3.8-2.4s.5-2,2-3ZM172.5,41h-4.9c-1.3,0-1.7-.4-1.7-1.4v-2.8c0-1,.4-1.4,1.7-1.4h4.9c1.3,0,1.7.4,1.7,1.4v2.8c0,1.2-.7,1.4-1.7,1.4ZM167.7,39.9h1.6v-1.2h-2.2v.8c0,.4.2.4.5.4ZM167.2,37.7h2.2v-1.2h-1.6c-.4,0-.5.1-.5.4v.8ZM170.6,36.5v1.2h2.4v-.8c0-.3-.1-.4-.5-.4h-1.8ZM173,38.7h-2.4v1.2h1.8c.4,0,.5-.1.5-.4v-.8ZM167.3,44.6v-2.4c0-.4.3-.5.7-.5s.6.2.6.5v2.1c0,.3.1.4,1.4.4s1.7-.2,1.8-.8c0-.3.3-.5.6-.5s.6.2.6.6h0c-.1,1.4-.7,1.9-3,1.9s-2.7-.3-2.7-1.2ZM165.5,42.6c.1-.3.3-.4.6-.4s.7.2.7.6,0,.2,0,.2c-.2.6-.6,1.2-.9,1.7-.2.2-.4.3-.6.3-.3,0-.6-.3-.6-.6s0-.2.1-.4c.3-.4.6-.9.8-1.5ZM170.2,41.4c.3.2.7.5,1,.8.2.2.2.3.2.5,0,.3-.3.6-.6.6s-.3,0-.4-.2c-.3-.3-.6-.6-.9-.8-.2-.1-.2-.3-.2-.5,0-.3.3-.6.6-.6s.3,0,.4.1ZM174.1,42.3c.4.4.8.9,1.1,1.4,0,.1.1.2.1.4,0,.4-.3.6-.7.6s-.4,0-.5-.3c-.3-.4-.6-.9-1-1.3-.1-.1-.2-.3-.2-.4,0-.3.3-.6.7-.6s.4,0,.5.2ZM177.3,37c0-.4.4-.6.7-.6s.7.2.7.6,0,.8,0,1.1c0,4.2.9,5.3,1.4,5.3s.6-.2.8-1.1c0-.4.3-.5.6-.5s.7.3.7.6,0,.1,0,.2c-.4,1.6-1.2,2.2-2,2.2-1.7,0-2.8-2.1-2.8-6.7s0-.9,0-1.2ZM184.8,37.8c1,.9,1.9,2.4,2.3,3.7,0,0,0,.2,0,.3,0,.4-.3.6-.7.6s-.5-.1-.6-.5c-.4-1.1-1.2-2.4-2.1-3.3-.1-.1-.2-.3-.2-.4,0-.3.3-.6.7-.6s.4,0,.5.2ZM194.6,35.5v1.2h.8c.7,0,1.4,0,2,0,.4,0,.6.3.6.6s-.2.6-.6.6c-.5,0-1,0-1.5,0s-.8,0-1.2,0c0,.4,0,.8,0,1.3.8,0,1.6-.1,2.3-.2h0c.4,0,.6.3.6.6s-.2.6-.6.6c-.7,0-1.5.2-2.3.2,0,.5,0,1.1.1,1.6,1,.3,2,.7,3,1.3.3.2.4.4.4.6,0,.4-.3.7-.7.7s-.3,0-.4-.1c-.7-.5-1.5-.9-2.2-1.2h0c0,1.4-1.1,2-2.5,2s-2.5-.7-2.5-1.8.9-1.8,2.6-1.8.6,0,1,0c0-.4,0-.9,0-1.3h-.7c-.7,0-1.5,0-1.9,0-.4,0-.6-.3-.6-.6s.2-.6.6-.6h0c.4,0,1,0,1.7,0h.6c0-.4,0-.9,0-1.3-1,0-2,0-2.9,0-.4,0-.6-.3-.6-.6s.2-.6.6-.6c.8,0,1.8,0,2.9,0v-1.2c0-.4.3-.5.7-.5s.7.2.7.5ZM192.4,44.2c.8,0,1.2-.4,1.2-.9v-.3c-.4,0-.7-.1-1.1-.1-.9,0-1.2.3-1.2.6s.3.6,1.1.6ZM206.4,43h0c-.2.2-.5.3-.9.3-1.2,0-2-.8-2-2.2s.7-2,1.9-2,.5,0,.7,0v-1c-.9,0-2.9.1-4.2.2-.1,0-.4,0-.5,0-.4,0-.6-.3-.6-.7s.2-.6.6-.6c1.4,0,3.1-.2,4.7-.2,0-.4,0-.9,0-1.5s.3-.6.7-.6.6.2.6.6v1.4c1.2,0,2.4,0,3.5,0s.6.3.6.7-.2.6-.6.6c-1.1,0-2.3,0-3.5,0,0,.7,0,1.4,0,2.1.3.4.4,1,.4,1.6,0,1.9-1,3.2-2.7,4-.1,0-.2,0-.3,0-.4,0-.7-.3-.7-.7s.1-.5.5-.6c1-.4,1.6-1.1,1.8-1.7ZM205.4,40.3c-.4,0-.7.3-.7.9s.4.9.8.9.7-.3.7-.8-.3-1-.8-1ZM216.1,39.2c-.5,2-1.2,3.9-2,5.4-.2.3-.4.4-.6.4-.3,0-.7-.2-.7-.6s0-.2.1-.4c.8-1.3,1.4-3,1.8-4.7-.5,0-1,.1-1.4.2,0,0-.1,0-.2,0-.4,0-.6-.3-.6-.6s.2-.6.5-.6c.6-.1,1.3-.2,1.9-.3.1-.7.3-1.5.3-2.2,0-.4.3-.6.7-.6s.7.2.7.6h0c0,.7-.2,1.4-.3,2.1.2,0,.5,0,.6,0,1.5,0,2.1.7,2.1,2.6s-.1,2.1-.3,2.9c-.4,1.4-.9,1.9-2.1,1.9s-.6,0-.8,0c-.4,0-.6-.4-.6-.6s.2-.7.6-.7,0,0,0,0c.2,0,.4,0,.7,0,.4,0,.6-.1.8-.8.2-.7.3-1.6.3-2.6s-.2-1.4-.8-1.4-.6,0-.9,0ZM221,37.2c.8.7,1.5,1.8,1.9,2.6,0,.1,0,.3,0,.4,0,.4-.3.7-.7.7s-.5-.1-.7-.5c-.4-.9-1.1-1.8-1.7-2.5-.1-.1-.2-.3-.2-.4,0-.3.3-.6.7-.6s.4,0,.6.2ZM230,41.8v.2c0,.4-.2.6-.6.6s-.6-.2-.6-.6v-.3c0-.9.2-1.5,1.2-2.3.8-.6,1-1,1-1.6s-.6-1.2-1.4-1.2-1.3.3-1.8,1.1c-.1.2-.3.2-.5.2-.4,0-.7-.3-.7-.6s0-.3.2-.4c.6-.9,1.7-1.4,2.8-1.4,1.7,0,2.8.9,2.8,2.4s-.3,1.6-1.3,2.4c-.9.6-1.1,1-1.1,1.5ZM229.5,43.4c.5,0,.9.4.9.9s-.4.9-.9.9-.9-.4-.9-.9.4-.9.9-.9Z" fill="#282828"/>
</svg>