<?xml version="1.0" encoding="UTF-8"?>
<svg id="_レイヤー_1" data-name="レイヤー_1" xmlns="http://www.w3.org/2000/svg" version="1.1" viewBox="0 0 252 56">
  <!-- Generator: Adobe Illustrator 30.1.0, SVG Export Plug-In . SVG Version: 2.1.1 Build 136)  -->
  <polygon points="252 0 224 0 28 0 0 0 10 28 0 56 28 56 224 56 252 56 242 28 252 0" fill="#69bd83"/>
  <path d="M52,19.6l.9,1c.1.2.2.3.2.5,0,.4-.3.6-.7.6s-.4,0-.5-.3l-.9-1c-.6.4-1.3.6-2,.6-2.2,0-4-1.7-4-4.7s1.8-4.7,4-4.7,4,1.6,4,4.7-.4,2.5-1,3.3ZM50.2,17.6l.9,1c.3-.6.5-1.3.5-2.2,0-2.1-.9-3.5-2.5-3.5s-2.5,1.3-2.5,3.5.9,3.5,2.5,3.5.8-.1,1.2-.3l-1.1-1.2c-.1-.1-.2-.3-.2-.5,0-.4.3-.6.7-.6s.3,0,.5.3ZM56.1,15.6h.7c1,0,1.5-.5,1.5-1.4s-.6-1.2-1.4-1.2-1,.2-1.5.6c-.2.1-.3.2-.4.2-.4,0-.7-.3-.7-.7s0-.3.2-.4c.6-.5,1.5-.9,2.4-.9,1.8,0,2.8,1,2.8,2.3s-.5,1.6-1.4,1.9c1.1.3,1.7,1.1,1.7,2.1,0,1.7-1.3,2.9-3.2,2.9s-1.9-.3-2.5-.8c-.2-.2-.3-.3-.3-.6,0-.3.3-.6.6-.6s.2,0,.3,0c.6.4,1.2.6,1.8.6,1.1,0,1.7-.7,1.7-1.6s-.6-1.5-1.7-1.5h-.8c-.3,0-.6-.3-.6-.6s.2-.6.6-.6ZM62.3,19.2c.5,0,.9.4.9.9s-.4.9-.9.9-.9-.4-.9-.9.4-.9.9-.9ZM69.3,12.5h-2.7c-.3,0-.4-.2-.4-.5s.1-.5.4-.5h2.7v-.4c0-.3.3-.5.6-.5s.6.2.6.5v.4h1.7c1.2,0,1.5.3,1.5,1v.4h1.3c.3,0,.4.2.4.5s-.1.5-.4.5h-1.3v.4c0,.7-.3,1-1.5,1h-1.7v.4h3.5c.3,0,.5.2.5.5s-.2.5-.5.5h-3.5v.4h4.6c.3,0,.4.2.4.5s-.1.5-.4.5h-10.2c-.3,0-.4-.2-.4-.5s.2-.5.4-.5h4.4v-.4h-3.3c-.3,0-.4-.2-.4-.5s.1-.5.4-.5h3.3v-.4h-2.9c-.3,0-.4-.2-.4-.5s.1-.5.4-.5h2.9v-.5h-4.4c-.3,0-.4-.2-.4-.5s.1-.5.4-.5h4.4v-.4ZM70.5,12.5v.4h1.9v-.2c0-.2,0-.2-.4-.2h-1.5ZM72.5,13.9h-1.9v.5h1.5c.4,0,.4,0,.4-.2v-.2ZM72.3,21.9h-4.6c-1.1,0-1.5-.4-1.5-1.1v-1.3c0-.8.4-1.1,1.5-1.1h4.6c1.1,0,1.5.4,1.5,1.1v1.3c0,1-.6,1.1-1.5,1.1ZM67.9,21h4.2c.3,0,.4,0,.4-.3v-.3h-5.1v.3c0,.2,0,.3.4.3ZM72.6,19.7v-.3c0-.2,0-.3-.4-.3h-4.2c-.3,0-.4,0-.4.3v.3h5.1ZM79.2,12.8h-.8c-.3.3-.5.7-.8,1-.2.2-.3.2-.5.2-.3,0-.6-.3-.6-.5s0-.3.2-.4c.5-.5,1-1.3,1.4-1.9.1-.2.3-.3.6-.3.3,0,.6.2.6.5s0,.2,0,.3v.3c-.1,0,2.1,0,2.1,0,.3,0,.4.2.4.5s-.1.5-.4.5h-.8v.2c.1,0,.2.2.2.2,0,.3-.3.5-.6.5s-.4,0-.5-.3c0-.2-.2-.4-.3-.6ZM78.5,21v-1.3c-.3.5-.7,1-1.1,1.3-.1.1-.3.2-.4.2-.3,0-.6-.3-.6-.6s0-.3.2-.4c.5-.5,1.1-1.1,1.5-1.8h-1.2c-.3,0-.5-.3-.5-.5s.2-.5.5-.5h1.6v-.5h-1c-.3,0-.5-.2-.5-.5s.2-.5.5-.5h1v-.5h-1.3c-.3,0-.5-.2-.5-.5s.2-.5.5-.5h1.3v-.5c0-.3.3-.5.6-.5s.6.2.6.5v.5h1.1c.3,0,.5.2.5.5s-.2.5-.5.5h-1.1v.5h.9c.3,0,.5.2.5.5s-.2.5-.5.5h-.9v.5h1.3c.3,0,.5.2.5.5s-.2.5-.5.5h-1.3v.4c.5.3.9.6,1.3.9.2.1.3.3.3.5,0,.3-.3.5-.5.5s-.3,0-.4-.2c-.2-.2-.4-.3-.6-.5v1.6c0,.3-.3.5-.6.5s-.6-.2-.6-.5v-.6ZM85.5,22h-2c-.9,0-1.3-.3-1.3-1.1v-1.7c0-.8.4-1.2,1.3-1.2h2c.9,0,1.3.3,1.3,1.2v1.7c0,.9-.5,1.2-1.3,1.2ZM83.7,21.1h1.6c.3,0,.3,0,.3-.3v-.4h-2.2v.4c0,.2,0,.3.3.3ZM85.6,19.5v-.3c0-.2,0-.3-.3-.3h-1.6c-.3,0-.3,0-.3.3v.3h2.2ZM83.8,11.8h3.2c.3,0,.4.2.4.5s-.1.5-.4.5h-1.7s0,.1,0,.2c0,0,0,.2,0,.2,0,.3-.3.5-.6.5s-.4,0-.5-.3c0-.2-.2-.4-.3-.6h-.8c-.2.2-.4.5-.6.7-.2.2-.3.2-.5.2-.3,0-.6-.2-.6-.5s0-.3.2-.4c.5-.5.9-1.1,1.2-1.7.1-.2.3-.3.5-.3.3,0,.6.2.6.5s0,.2,0,.3c0,0,0,.2-.1.3ZM82.8,14.7v-.5c0-.3.3-.5.6-.5s.6.2.6.5v.5h.9v-.5c0-.3.3-.5.6-.5s.6.2.6.5v.5h.7c.3,0,.5.2.5.5s-.2.5-.5.5h-.7v.9h1.1c.3,0,.4.2.4.5s-.1.5-.4.5h-5.2c-.3,0-.4-.3-.4-.5s.1-.5.4-.5h.9v-.9h-.5c-.3,0-.4-.2-.4-.5s.1-.5.4-.5h.5ZM85,15.6h-.9v.9h.9v-.9ZM92.1,15.3h0c.3,0,.7-.2,1-.2.8,0,1.4.3,1.7,1.1.9-.4,1.9-.8,3-1.1,0,0,.2,0,.2,0,.4,0,.6.3.6.6s-.1.5-.5.6c-1,.3-2.1.7-3.1,1.1,0,.4,0,1,.1,1.6,0,.4-.3.6-.7.6s-.6-.2-.6-.6c0-.5,0-.8,0-1.2-1.2.6-1.5,1.2-1.5,1.6s.4.7,1.8.7,1.5,0,2.3-.2c0,0,0,0,.1,0,.4,0,.6.3.6.7s-.2.6-.6.6c-.8.1-1.7.2-2.5.2-2.3,0-3.2-.8-3.2-1.9s.6-1.9,2.7-3c-.2-.4-.4-.5-.8-.5s-1.3.3-2.5,1.2c-.1.1-.3.2-.4.2-.3,0-.6-.3-.6-.6s0-.4.3-.5c.8-.7,1.4-1.4,2-2.3-.5,0-.9,0-1.3,0-.4,0-.7-.3-.7-.6s.2-.6.7-.6,1.2,0,1.9,0c.2-.5.4-.9.5-1.4,0-.3.3-.4.6-.4s.7.2.7.6,0,.1,0,.2c-.1.3-.2.6-.4.9.6,0,1.2-.1,1.7-.2,0,0,0,0,.1,0,.4,0,.6.3.6.6s-.2.5-.5.6c-.8.1-1.7.3-2.5.3-.3.5-.6.9-.9,1.3ZM106.7,13v1.5h3.5c.3,0,.5.3.5.6s-.2.6-.5.6h-3.5v1.3h4.4c.3,0,.5.3.5.6s-.2.6-.5.6h-4.4v2.2c0,1.1-.5,1.5-1.6,1.5s-.7,0-.9,0c-.4,0-.6-.4-.6-.6s.2-.6.6-.6.1,0,.2,0c.2,0,.4,0,.6,0s.4,0,.4-.4v-2.1h-4.5c-.3,0-.5-.3-.5-.6s.2-.6.5-.6h4.5v-1.3h-3.6c-.3,0-.5-.3-.5-.6s.2-.6.5-.6h3.6v-1.4c-1,.1-2.1.2-3.1.2-.4,0-.6-.3-.6-.6s.2-.6.6-.6c2.3,0,4.9-.5,6.9-1,0,0,.1,0,.2,0,.4,0,.6.3.6.6s-.1.5-.5.6c-.9.2-1.8.4-2.8.6ZM114.1,12.4c0-.3.4-.5.7-.5s.7.2.7.6,0,0,0,.1c-.4,2-.6,3.6-.6,5.3s.1,2.1.2,2.8c0,0,0,0,0,0,0,.4-.3.6-.7.6s-.6-.2-.7-.6c0-.8-.2-2-.2-3,0-1.8.1-3.4.6-5.5ZM121.4,12.9h0c.4,0,.6.3.6.6s-.2.6-.6.7c-1.1.1-2.2.2-3.4.3-.5,0-.7-.3-.7-.6s.2-.6.6-.6c1.1,0,2.3-.1,3.3-.3ZM118.3,18.2c.1.7.5,1,2,1s1.2,0,1.8-.2c0,0,0,0,.1,0,.4,0,.6.3.6.7s-.2.6-.5.6c-.7.1-1.4.2-2.1.2-2.2,0-3.1-.7-3.3-2.1h0c0-.5.3-.7.7-.7s.6.2.6.5ZM125.6,19v-6.3h-.6c-.3,0-.5-.3-.5-.6s.2-.6.5-.6h7.2c.3,0,.5.3.5.6s-.2.6-.5.6h-2.6v8.9c0,.3-.3.5-.6.5s-.6-.2-.6-.5v-1.9c-1.1.3-2.2.6-3.3.7,0,0,0,0,0,0-.4,0-.6-.3-.6-.6s.2-.6.5-.6c.2,0,.5,0,.7,0ZM126.8,12.7v1.2h1.5v-1.2h-1.5ZM126.8,15v1.2h1.5v-1.2h-1.5ZM126.8,17.3v1.5c.5-.1,1-.2,1.5-.3v-1.2h-1.5ZM130.5,13.4h3.3c.9,0,1.4.4,1.4,1.1s0,.3,0,.4c-.2,1.3-.7,2.5-1.4,3.6.5.7,1,1.3,1.7,1.8.2.2.3.4.3.6,0,.4-.3.7-.7.7s-.3,0-.5-.2c-.6-.5-1.1-1.1-1.6-1.8-.6.8-1.3,1.4-2,2-.1.1-.3.2-.4.2-.3,0-.6-.3-.6-.6s0-.4.3-.6c.8-.6,1.5-1.3,2.1-2.1-.7-1.2-1.1-2.6-1.4-4h-.4c-.3,0-.5-.3-.5-.6s.2-.6.5-.6ZM133.5,14.6h-1.4c.2.9.5,1.9.9,2.7.4-.8.6-1.6.8-2.4,0,0,0,0,0-.1,0-.2,0-.2-.3-.2ZM143.1,15.1c1.8,0,3,.9,3,2.5s-1.4,3.2-4.1,3.6c0,0,0,0-.1,0-.4,0-.6-.3-.6-.6s.2-.5.5-.6c2.3-.4,3.1-1.2,3.1-2.4s-.6-1.4-1.7-1.4-2.8.4-4.5,1.2c0,0-.2,0-.3,0-.3,0-.6-.3-.6-.6s.1-.4.4-.6c1.8-.8,3.6-1.2,5-1.2ZM154.4,13.8h0c-1.4.2-3.3.5-5.1.7,0,0,0,0-.1,0-.4,0-.7-.3-.7-.7s.2-.6.6-.7c2.5-.3,5.6-.7,8.1-.9h0c.4,0,.6.3.6.6s-.2.6-.6.6c-.4,0-.9.2-1.3.5-1.9,1.1-2.3,2.3-2.3,3.5s.9,2.1,2.6,2.4c.4,0,.6.4.6.7s-.3.7-.7.7-.7,0-.9-.1c-1.8-.4-3-1.8-3-3.6s.6-2.7,2-3.7ZM162.6,12l2-.3c.1,0,.2,0,.4,0,.7,0,1.2.4,1.2,1.1s0,.2,0,.3c-.2.9-.4,1.8-.6,2.6.8.1,1.6.3,2.3.6.1-.6.2-1.2.2-1.8,0-.4.3-.6.7-.6s.7.2.7.6c0,.7-.1,1.5-.3,2.3.6.3,1.2.6,1.8,1,.2.2.3.4.3.6,0,.4-.3.7-.7.7s-.3,0-.4-.1c-.5-.3-.9-.6-1.4-.8-.5,1.2-1.1,2.3-1.9,3.1-.2.2-.4.3-.6.3-.4,0-.7-.3-.7-.7s0-.3.2-.5c.7-.7,1.3-1.7,1.7-2.8-.8-.3-1.5-.5-2.4-.7-.2.6-.5,1.2-.7,1.7-.6,1.2-1.2,1.6-2.1,1.6s-1.7-.6-1.7-1.9,1.4-2.7,3.4-2.7h.3c.2-.8.5-1.6.6-2.3,0,0,0,0,0,0,0-.1,0-.1-.2,0l-1.7.3s0,0-.1,0c-.4,0-.6-.3-.6-.6s.2-.6.6-.6ZM162.2,18.9c.3,0,.5-.1.9-.7.2-.4.4-.9.6-1.4-1.2,0-1.9.7-1.9,1.5s.2.6.4.6ZM174.6,14.9c-.5,0-1,.1-1.5.1s-.6-.3-.6-.6.2-.6.6-.7c.5,0,1.1,0,1.7-.2.1-.7.2-1.2.2-1.8,0-.4.3-.6.7-.6s.7.2.7.6h0c0,.6-.1,1.1-.2,1.5.3,0,.7-.2,1-.2,0,0,.1,0,.2,0,.4,0,.6.3.6.6s-.1.5-.5.6c-.6.2-1.1.3-1.6.4-.4,2.4-1,4.6-1.7,6.3-.1.4-.4.5-.7.5s-.7-.2-.7-.6,0-.2,0-.3c.7-1.6,1.2-3.5,1.6-5.6ZM177,19c0-.4.3-.6.7-.6s.5.2.6.5c0,.8.5,1,1.8,1s1.1,0,1.6-.1c0,0,0,0,.1,0,.4,0,.6.3.6.7s-.2.6-.6.6c-.5,0-1.1.1-1.8.1-1.7,0-2.4-.4-2.8-1-.2-.3-.3-.8-.3-1.1ZM178.2,15c.9-.2,2.1-.3,3.1-.3s.6.3.6.6-.2.6-.6.6c-1,0-2.1.1-2.9.3,0,0-.1,0-.1,0-.4,0-.6-.3-.6-.6s.2-.6.6-.6ZM184.9,13c0-.4.4-.6.7-.6s.7.2.7.6,0,.8,0,1.1c0,4.2.9,5.3,1.4,5.3s.6-.2.8-1.1c0-.4.3-.5.6-.5s.7.3.7.6,0,.1,0,.2c-.4,1.6-1.2,2.2-2,2.2-1.7,0-2.8-2.1-2.8-6.7s0-.9,0-1.2ZM192.3,13.8c1,.9,1.9,2.4,2.3,3.7,0,0,0,.2,0,.3,0,.4-.3.6-.7.6s-.5-.1-.6-.5c-.4-1.1-1.2-2.4-2.1-3.3-.1-.1-.2-.3-.2-.4,0-.3.3-.6.7-.6s.4,0,.5.2ZM200.1,16c-.3-1.2-.4-2.6-.4-4.2s.3-.6.7-.6.7.2.7.6c0,1.3.1,2.5.3,3.5.7-.4,1.5-.7,2.4-.9,0,0,.1,0,.2,0,.4,0,.6.3.6.7s-.1.5-.4.6c-1.1.3-2.3.8-3.2,1.4-1,.7-1.4,1.3-1.4,1.9s.5,1.1,2.4,1.1,1.8,0,2.5-.2c0,0,.1,0,.2,0,.4,0,.6.3.6.7s-.2.6-.5.7c-.8.2-1.7.2-2.8.2-2.5,0-3.8-.8-3.8-2.4s.5-2,2-3ZM98.8,41h-4.9c-1.3,0-1.7-.4-1.7-1.4v-2.8c0-1,.4-1.4,1.7-1.4h4.9c1.3,0,1.7.4,1.7,1.4v2.8c0,1.2-.7,1.4-1.7,1.4ZM94,39.9h1.6v-1.2h-2.2v.8c0,.4.2.4.5.4ZM93.4,37.7h2.2v-1.2h-1.6c-.4,0-.5.1-.5.4v.8ZM96.8,36.5v1.2h2.4v-.8c0-.3-.1-.4-.5-.4h-1.8ZM99.2,38.7h-2.4v1.2h1.8c.4,0,.5-.1.5-.4v-.8ZM93.6,44.6v-2.4c0-.4.3-.5.7-.5s.6.2.6.5v2.1c0,.3.1.4,1.4.4s1.7-.2,1.8-.8c0-.3.3-.5.6-.5s.6.2.6.6h0c-.1,1.4-.7,1.9-3,1.9s-2.7-.3-2.7-1.2ZM91.8,42.6c.1-.3.3-.4.6-.4s.7.2.7.6,0,.2,0,.2c-.2.6-.6,1.2-.9,1.7-.2.2-.4.3-.6.3-.3,0-.6-.3-.6-.6s0-.2.1-.4c.3-.4.6-.9.8-1.5ZM96.4,41.4c.3.2.7.5,1,.8.2.2.2.3.2.5,0,.3-.3.6-.6.6s-.3,0-.4-.2c-.3-.3-.6-.6-.9-.8-.2-.1-.2-.3-.2-.5,0-.3.3-.6.6-.6s.3,0,.4.1ZM100.4,42.3c.4.4.8.9,1.1,1.4,0,.1.1.2.1.4,0,.4-.3.6-.7.6s-.4,0-.5-.3c-.3-.4-.6-.9-1-1.3-.1-.1-.2-.3-.2-.4,0-.3.3-.6.7-.6s.4,0,.5.2ZM103.6,37c0-.4.4-.6.7-.6s.7.2.7.6,0,.8,0,1.1c0,4.2.9,5.3,1.4,5.3s.6-.2.8-1.1c0-.4.3-.5.6-.5s.7.3.7.6,0,.1,0,.2c-.4,1.6-1.2,2.2-2,2.2-1.7,0-2.8-2.1-2.8-6.7s0-.9,0-1.2ZM111,37.8c1,.9,1.9,2.4,2.3,3.7,0,0,0,.2,0,.3,0,.4-.3.6-.7.6s-.5-.1-.6-.5c-.4-1.1-1.2-2.4-2.1-3.3-.1-.1-.2-.3-.2-.4,0-.3.3-.6.7-.6s.4,0,.5.2ZM120.8,35.5v1.2h.8c.7,0,1.4,0,2,0,.4,0,.6.3.6.6s-.2.6-.6.6c-.5,0-1,0-1.5,0s-.8,0-1.2,0c0,.4,0,.8,0,1.3.8,0,1.6-.1,2.3-.2h0c.4,0,.6.3.6.6s-.2.6-.6.6c-.7,0-1.5.2-2.3.2,0,.5,0,1.1.1,1.6,1,.3,2,.7,3,1.3.3.2.4.4.4.6,0,.4-.3.7-.7.7s-.3,0-.4-.1c-.7-.5-1.5-.9-2.2-1.2h0c0,1.4-1.1,2-2.5,2s-2.5-.7-2.5-1.8.9-1.8,2.6-1.8.6,0,1,0c0-.4,0-.9,0-1.3h-.7c-.7,0-1.5,0-1.9,0-.4,0-.6-.3-.6-.6s.2-.6.6-.6h0c.4,0,1,0,1.7,0h.6c0-.4,0-.9,0-1.3-1,0-2,0-2.9,0-.4,0-.6-.3-.6-.6s.2-.6.6-.6c.8,0,1.8,0,2.9,0v-1.2c0-.4.3-.5.7-.5s.7.2.7.5ZM118.7,44.2c.8,0,1.2-.4,1.2-.9v-.3c-.4,0-.7-.1-1.1-.1-.9,0-1.2.3-1.2.6s.3.6,1.1.6ZM132.6,43h0c-.2.2-.5.3-.9.3-1.2,0-2-.8-2-2.2s.7-2,1.9-2,.5,0,.7,0v-1c-.9,0-2.9.1-4.2.2-.1,0-.4,0-.5,0-.4,0-.6-.3-.6-.7s.2-.6.6-.6c1.4,0,3.1-.2,4.7-.2,0-.4,0-.9,0-1.5s.3-.6.7-.6.6.2.6.6v1.4c1.2,0,2.4,0,3.5,0s.6.3.6.7-.2.6-.6.6c-1.1,0-2.3,0-3.5,0,0,.7,0,1.4,0,2.1.3.4.4,1,.4,1.6,0,1.9-1,3.2-2.7,4-.1,0-.2,0-.3,0-.4,0-.7-.3-.7-.7s.1-.5.5-.6c1-.4,1.6-1.1,1.8-1.7ZM131.6,40.3c-.4,0-.7.3-.7.9s.4.9.8.9.7-.3.7-.8-.3-1-.8-1ZM142.4,39.2c-.5,2-1.2,3.9-2,5.4-.2.3-.4.4-.6.4-.3,0-.7-.2-.7-.6s0-.2.1-.4c.8-1.3,1.4-3,1.8-4.7-.5,0-1,.1-1.4.2,0,0-.1,0-.2,0-.4,0-.6-.3-.6-.6s.2-.6.5-.6c.6-.1,1.3-.2,1.9-.3.1-.7.3-1.5.3-2.2,0-.4.3-.6.7-.6s.7.2.7.6h0c0,.7-.2,1.4-.3,2.1.2,0,.5,0,.6,0,1.5,0,2.1.7,2.1,2.6s-.1,2.1-.3,2.9c-.4,1.4-.9,1.9-2.1,1.9s-.6,0-.8,0c-.4,0-.6-.4-.6-.6s.2-.7.6-.7,0,0,0,0c.2,0,.4,0,.7,0,.4,0,.6-.1.8-.8.2-.7.3-1.6.3-2.6s-.2-1.4-.8-1.4-.6,0-.9,0ZM147.3,37.2c.8.7,1.5,1.8,1.9,2.6,0,.1,0,.3,0,.4,0,.4-.3.7-.7.7s-.5-.1-.7-.5c-.4-.9-1.1-1.8-1.7-2.5-.1-.1-.2-.3-.2-.4,0-.3.3-.6.7-.6s.4,0,.6.2ZM156.3,41.8v.2c0,.4-.2.6-.6.6s-.6-.2-.6-.6v-.3c0-.9.2-1.5,1.2-2.3.8-.6,1-1,1-1.6s-.6-1.2-1.4-1.2-1.3.3-1.8,1.1c-.1.2-.3.2-.5.2-.4,0-.7-.3-.7-.6s0-.3.2-.4c.6-.9,1.7-1.4,2.8-1.4,1.7,0,2.8.9,2.8,2.4s-.3,1.6-1.3,2.4c-.9.6-1.1,1-1.1,1.5ZM155.7,43.4c.5,0,.9.4.9.9s-.4.9-.9.9-.9-.4-.9-.9.4-.9.9-.9Z" fill="#282828"/>
</svg>