<svg width="287" height="16" viewBox="0 0 287 16" fill="none" xmlns="http://www.w3.org/2000/svg">
<rect x="64" y="4" width="8" height="8" rx="2" fill="#ED6D46"/>
<path d="M79.228 5.032V6.144C79.54 6.112 79.836 6.064 80.108 6.016C80.148 6.008 80.18 6.008 80.212 6.008C80.46 6.008 80.588 6.192 80.588 6.392C80.588 6.576 80.476 6.768 80.236 6.816C79.924 6.88 79.58 6.928 79.236 6.968C79.244 7.656 79.26 8.344 79.332 9.024C79.772 9.192 80.228 9.44 80.668 9.768C80.82 9.88 80.884 10.024 80.884 10.16C80.884 10.384 80.7 10.592 80.46 10.592C80.364 10.592 80.26 10.552 80.156 10.472C79.892 10.264 79.62 10.088 79.364 9.944C79.276 10.608 78.82 11.088 77.828 11.088C76.932 11.088 76.372 10.64 76.372 9.92C76.372 9.256 76.908 8.76 77.948 8.76C78.116 8.76 78.292 8.776 78.476 8.8C78.428 8.216 78.412 7.632 78.404 7.048C78.06 7.072 77.724 7.08 77.412 7.08C77.252 7.08 77.108 7.08 76.972 7.064C76.724 7.04 76.604 6.84 76.604 6.64C76.604 6.44 76.732 6.24 76.988 6.24C77.132 6.24 77.268 6.256 77.412 6.256C77.724 6.256 78.052 6.248 78.396 6.224V5.032C78.396 4.784 78.604 4.664 78.812 4.664C79.02 4.664 79.228 4.784 79.228 5.032ZM77.828 10.296C78.236 10.296 78.508 10.104 78.516 9.6C78.308 9.544 78.116 9.512 77.948 9.512C77.388 9.512 77.212 9.688 77.212 9.92C77.212 10.168 77.428 10.296 77.828 10.296ZM74.836 4.984C74.884 4.768 75.076 4.672 75.276 4.672C75.508 4.672 75.74 4.808 75.74 5.064C75.74 5.088 75.74 5.12 75.732 5.152C75.476 6.264 75.308 7.432 75.308 8.456C75.308 9.344 75.412 10.192 75.484 10.832C75.484 10.856 75.492 10.88 75.492 10.904C75.492 11.152 75.252 11.304 75.028 11.304C74.82 11.304 74.62 11.192 74.58 10.944C74.468 10.28 74.396 9.408 74.396 8.448C74.396 7.376 74.564 6.152 74.836 4.984ZM82.476 5.64C82.5 5.384 82.724 5.256 82.94 5.256C83.18 5.256 83.412 5.4 83.412 5.68C83.412 5.792 83.38 6.184 83.38 6.432C83.38 9.232 83.948 9.968 84.284 9.968C84.476 9.968 84.652 9.84 84.804 9.24C84.868 9 85.036 8.896 85.212 8.896C85.444 8.896 85.668 9.064 85.668 9.328C85.668 9.376 85.668 9.416 85.652 9.464C85.356 10.536 84.844 10.928 84.308 10.928C83.148 10.928 82.444 9.496 82.444 6.456C82.444 6.088 82.46 5.848 82.476 5.64ZM87.42 6.208C88.092 6.832 88.708 7.832 88.972 8.648C88.996 8.712 89.004 8.768 89.004 8.816C89.004 9.08 88.78 9.24 88.556 9.24C88.388 9.24 88.212 9.152 88.132 8.936C87.844 8.2 87.324 7.36 86.748 6.76C86.652 6.664 86.612 6.56 86.612 6.464C86.612 6.24 86.828 6.056 87.068 6.056C87.18 6.056 87.308 6.104 87.42 6.208Z" fill="#282828"/>
<rect x="98" y="4" width="8" height="8" rx="2" fill="#FFF464"/>
<path d="M110.408 7.768C110.232 7 110.112 6.048 110.112 4.944C110.112 4.656 110.344 4.512 110.576 4.512C110.808 4.512 111.04 4.656 111.04 4.944C111.04 5.84 111.112 6.64 111.224 7.288C111.712 7.048 112.256 6.832 112.8 6.664C112.848 6.648 112.896 6.64 112.944 6.64C113.192 6.64 113.36 6.864 113.36 7.088C113.36 7.256 113.272 7.416 113.064 7.48C112.352 7.704 111.552 8.032 110.96 8.408C110.272 8.856 110.032 9.296 110.032 9.704C110.032 10.2 110.36 10.456 111.632 10.456C112.272 10.456 112.84 10.4 113.288 10.312C113.328 10.304 113.36 10.304 113.392 10.304C113.672 10.304 113.824 10.52 113.824 10.744C113.824 10.944 113.712 11.136 113.464 11.192C112.92 11.304 112.304 11.344 111.624 11.344C109.944 11.344 109.104 10.832 109.104 9.752C109.104 9.096 109.408 8.448 110.408 7.768ZM112.536 5.24C112.488 5.184 112.472 5.12 112.472 5.064C112.472 4.904 112.632 4.768 112.808 4.768C112.888 4.768 112.976 4.8 113.048 4.88C113.248 5.096 113.464 5.376 113.608 5.632C113.648 5.696 113.664 5.76 113.664 5.824C113.664 6.008 113.504 6.144 113.336 6.144C113.232 6.144 113.136 6.088 113.064 5.968C112.904 5.688 112.704 5.44 112.536 5.24ZM113.392 4.68C113.344 4.624 113.32 4.56 113.32 4.504C113.32 4.344 113.48 4.224 113.648 4.224C113.736 4.224 113.832 4.256 113.912 4.336C114.104 4.536 114.32 4.8 114.464 5.048C114.512 5.128 114.536 5.2 114.536 5.264C114.536 5.448 114.384 5.576 114.216 5.576C114.112 5.576 114 5.52 113.92 5.4C113.76 5.152 113.56 4.888 113.392 4.68ZM118.36 8.264L118.376 8.272C118.96 7.92 119.752 7.696 120.408 7.696C121.632 7.696 122.24 8.312 122.24 9.192C122.24 10.472 121.04 11.152 119.592 11.288C119.464 11.304 119.392 11.304 119.328 11.304C119.056 11.304 118.904 11.096 118.904 10.888C118.904 10.688 119.024 10.496 119.296 10.48C120.8 10.376 121.336 9.856 121.336 9.208C121.336 8.792 121.08 8.48 120.424 8.48C119.552 8.48 118.784 8.792 118.032 9.512C117.928 9.608 117.808 9.656 117.688 9.656C117.456 9.656 117.24 9.488 117.24 9.224C117.24 9.16 117.248 9.104 117.272 9.032C117.536 8.28 117.728 7.528 117.872 6.776C117.48 6.808 117.112 6.824 116.776 6.824C116.504 6.824 116.368 6.616 116.368 6.408C116.368 6.208 116.504 6 116.768 6C117.136 6 117.56 5.976 118.016 5.936C118.072 5.536 118.12 5.136 118.16 4.728C118.184 4.48 118.392 4.36 118.6 4.36C118.808 4.36 119.016 4.488 119.016 4.736V4.792C118.976 5.16 118.936 5.512 118.888 5.84C119.512 5.76 120.136 5.656 120.672 5.536C120.712 5.528 120.752 5.52 120.792 5.52C121.04 5.52 121.192 5.728 121.192 5.936C121.192 6.112 121.08 6.288 120.824 6.344C120.184 6.48 119.456 6.608 118.744 6.688C118.632 7.304 118.496 7.84 118.36 8.264ZM127.12 4.552C127.552 4.656 128.088 4.84 128.504 5.056C128.704 5.16 128.784 5.328 128.784 5.496C128.784 5.72 128.616 5.936 128.36 5.936C128.288 5.936 128.208 5.92 128.12 5.88C127.704 5.696 127.2 5.496 126.816 5.384C126.608 5.32 126.512 5.16 126.512 5C126.512 4.776 126.696 4.536 126.984 4.536C127.024 4.536 127.072 4.544 127.12 4.552ZM126.04 8.32L126.056 8.328C126.664 7.8 127.584 7.472 128.376 7.472C129.632 7.472 130.408 8.16 130.408 9.064C130.408 10.296 129.392 11.176 127.464 11.4C127.44 11.4 127.416 11.408 127.392 11.408C127.112 11.408 126.952 11.184 126.952 10.968C126.952 10.768 127.088 10.568 127.36 10.536C128.928 10.352 129.472 9.76 129.472 9.072C129.472 8.656 129.144 8.272 128.376 8.272C127.528 8.272 126.568 8.704 125.896 9.488C125.784 9.624 125.632 9.68 125.488 9.68C125.248 9.68 125.016 9.504 125.016 9.216C125.016 9.184 125.016 9.152 125.024 9.12C125.104 8.528 125.296 7.48 125.528 6.384C125.576 6.152 125.776 6.048 125.968 6.048C126.2 6.048 126.424 6.184 126.424 6.424C126.424 6.448 126.424 6.48 126.416 6.504C126.264 7.248 126.128 7.856 126.04 8.32ZM134.888 7.688C134.712 6.92 134.592 5.968 134.592 4.864C134.592 4.576 134.824 4.432 135.056 4.432C135.288 4.432 135.52 4.576 135.52 4.864C135.52 5.76 135.592 6.56 135.704 7.208C136.192 6.968 136.736 6.752 137.28 6.584C137.328 6.568 137.376 6.56 137.424 6.56C137.672 6.56 137.84 6.784 137.84 7.008C137.84 7.176 137.752 7.336 137.544 7.4C136.832 7.624 136.032 7.952 135.44 8.328C134.752 8.776 134.512 9.216 134.512 9.624C134.512 10.12 134.84 10.376 136.112 10.376C136.752 10.376 137.32 10.32 137.768 10.232C137.808 10.224 137.84 10.224 137.872 10.224C138.152 10.224 138.304 10.44 138.304 10.664C138.304 10.864 138.192 11.056 137.944 11.112C137.4 11.224 136.784 11.264 136.104 11.264C134.424 11.264 133.584 10.752 133.584 9.672C133.584 9.016 133.888 8.368 134.888 7.688ZM143.96 4.808L143.776 5.88H143.832C144.144 5.88 144.408 5.864 144.656 5.84H144.696C144.952 5.84 145.08 6.048 145.08 6.264C145.08 6.464 144.968 6.648 144.736 6.672C144.488 6.696 144.248 6.712 143.848 6.712H143.624C143.576 7.088 143.512 7.456 143.456 7.832H143.584C144.008 7.832 144.48 7.792 144.84 7.728C144.864 7.72 144.896 7.72 144.92 7.72C145.168 7.72 145.312 7.936 145.312 8.144C145.312 8.336 145.208 8.52 144.968 8.568C144.584 8.648 144.04 8.696 143.576 8.696H143.352C143.328 8.976 143.32 9.2 143.32 9.392C143.32 10.256 143.68 10.552 144.384 10.552C145.264 10.552 145.736 10.24 145.736 9.448C145.736 9.264 145.696 9.04 145.64 8.856C145.632 8.816 145.624 8.776 145.624 8.736C145.624 8.496 145.848 8.352 146.08 8.352C146.28 8.352 146.48 8.456 146.552 8.696C146.632 8.944 146.672 9.192 146.672 9.432C146.672 10.8 145.744 11.464 144.4 11.464C143.152 11.464 142.408 10.824 142.408 9.456C142.408 9.216 142.416 8.96 142.448 8.648C142.072 8.608 141.76 8.56 141.488 8.488C141.256 8.424 141.152 8.24 141.152 8.056C141.152 7.832 141.304 7.616 141.56 7.616C141.608 7.616 141.656 7.616 141.704 7.632C141.952 7.696 142.224 7.744 142.552 7.784C142.6 7.408 142.656 7.04 142.72 6.664C142.408 6.64 142.128 6.592 141.88 6.536C141.64 6.48 141.536 6.304 141.536 6.136C141.536 5.912 141.696 5.704 141.944 5.704C141.976 5.704 142.008 5.704 142.04 5.712C142.296 5.768 142.56 5.808 142.864 5.84L143.064 4.688C143.104 4.456 143.312 4.352 143.52 4.352C143.744 4.352 143.968 4.48 143.968 4.728C143.968 4.752 143.968 4.776 143.96 4.808ZM149.056 5.64C149.08 5.384 149.304 5.256 149.52 5.256C149.76 5.256 149.992 5.4 149.992 5.68C149.992 5.792 149.96 6.184 149.96 6.432C149.96 9.232 150.528 9.968 150.864 9.968C151.056 9.968 151.232 9.84 151.384 9.24C151.448 9 151.616 8.896 151.792 8.896C152.024 8.896 152.248 9.064 152.248 9.328C152.248 9.376 152.248 9.416 152.232 9.464C151.936 10.536 151.424 10.928 150.888 10.928C149.728 10.928 149.024 9.496 149.024 6.456C149.024 6.088 149.04 5.848 149.056 5.64ZM154 6.208C154.672 6.832 155.288 7.832 155.552 8.648C155.576 8.712 155.584 8.768 155.584 8.816C155.584 9.08 155.36 9.24 155.136 9.24C154.968 9.24 154.792 9.152 154.712 8.936C154.424 8.2 153.904 7.36 153.328 6.76C153.232 6.664 153.192 6.56 153.192 6.464C153.192 6.24 153.408 6.056 153.648 6.056C153.76 6.056 153.888 6.104 154 6.208ZM159.44 4.504C159.968 4.568 160.624 4.728 161.096 4.888C161.32 4.968 161.424 5.136 161.424 5.304C161.424 5.528 161.256 5.744 161.008 5.744C160.952 5.744 160.896 5.736 160.832 5.712C160.368 5.56 159.768 5.416 159.288 5.336C159.024 5.296 158.912 5.12 158.912 4.936C158.912 4.72 159.08 4.496 159.36 4.496C159.384 4.496 159.416 4.496 159.44 4.504ZM158.112 6.552L160.92 6.128C160.96 6.12 161 6.12 161.04 6.12C161.408 6.12 161.632 6.384 161.632 6.664C161.632 6.8 161.584 6.936 161.472 7.056L160.136 8.424L160.152 8.448C160.28 8.408 160.4 8.384 160.512 8.384C161.032 8.384 161.344 8.704 161.376 9.4L161.384 9.568C161.408 10.072 161.504 10.224 161.904 10.224C162.312 10.224 162.768 10.152 163.192 10.064C163.24 10.056 163.28 10.048 163.328 10.048C163.6 10.048 163.752 10.272 163.752 10.496C163.752 10.688 163.648 10.872 163.424 10.92C162.88 11.04 162.368 11.088 161.92 11.088C160.992 11.088 160.544 10.712 160.504 9.704L160.496 9.52C160.48 9.224 160.376 9.104 160.2 9.104C159.96 9.104 159.68 9.208 159.328 9.488C159.04 9.72 158.592 10.176 157.944 10.888C157.832 11.008 157.712 11.056 157.584 11.056C157.344 11.056 157.136 10.864 157.136 10.632C157.136 10.52 157.176 10.4 157.288 10.288L160.344 7.064L160.336 7.04L158.248 7.408C158.216 7.416 158.184 7.416 158.16 7.416C157.896 7.416 157.736 7.192 157.736 6.976C157.736 6.784 157.848 6.592 158.112 6.552ZM169.896 10.2C169.88 11.096 169.224 11.416 168.456 11.416C167.504 11.416 166.928 11 166.928 10.256C166.928 9.616 167.472 9.088 168.496 9.088C168.624 9.088 168.752 9.096 168.896 9.112C168.84 8.744 168.816 8.472 168.816 8.264C168.816 7.92 168.832 7.744 168.872 7.488C168.912 7.264 169.096 7.168 169.288 7.168C169.512 7.168 169.736 7.296 169.736 7.536C169.736 7.56 169.728 7.576 169.728 7.6C169.696 7.832 169.672 8.032 169.672 8.256C169.672 8.48 169.696 8.792 169.784 9.296C170.296 9.448 170.824 9.68 171.288 9.992C171.44 10.096 171.504 10.232 171.504 10.368C171.504 10.592 171.32 10.808 171.08 10.808C171 10.808 170.904 10.776 170.808 10.712C170.512 10.504 170.2 10.328 169.896 10.2ZM168.456 10.624C168.824 10.624 169.024 10.464 169.024 10.112C169.024 10.04 169.024 9.976 169.016 9.912C168.84 9.88 168.672 9.864 168.512 9.864C167.952 9.864 167.776 10.04 167.776 10.256C167.776 10.488 167.936 10.624 168.456 10.624ZM166.712 5.928C166.832 5.52 166.944 5.112 167.024 4.712C167.072 4.472 167.264 4.368 167.456 4.368C167.68 4.368 167.888 4.504 167.888 4.76C167.888 4.792 167.888 4.832 167.88 4.864C167.816 5.168 167.736 5.488 167.648 5.808C167.888 5.768 168.128 5.728 168.352 5.688C168.384 5.68 168.416 5.68 168.44 5.68C168.696 5.68 168.856 5.888 168.856 6.104C168.856 6.28 168.752 6.456 168.496 6.512C168.152 6.584 167.76 6.648 167.368 6.704C167.032 7.672 166.6 8.632 166.136 9.4C166.016 9.6 165.848 9.688 165.688 9.688C165.448 9.688 165.24 9.504 165.24 9.264C165.24 9.176 165.264 9.08 165.328 8.984C165.736 8.344 166.104 7.6 166.408 6.808C166.112 6.84 165.824 6.856 165.576 6.864C165.304 6.872 165.16 6.648 165.16 6.424C165.16 6.216 165.288 6.016 165.544 6.008C165.904 5.992 166.304 5.968 166.712 5.928ZM170.264 5.832C170.648 5.936 171.144 6.16 171.488 6.376C171.672 6.488 171.752 6.648 171.752 6.792C171.752 7.024 171.56 7.232 171.328 7.232C171.248 7.232 171.168 7.208 171.088 7.16C170.712 6.944 170.296 6.736 169.944 6.608C169.744 6.536 169.656 6.392 169.656 6.248C169.656 6.032 169.84 5.808 170.112 5.808C170.16 5.808 170.208 5.816 170.264 5.832ZM173.536 5.64C173.56 5.384 173.784 5.256 174 5.256C174.24 5.256 174.472 5.4 174.472 5.68C174.472 5.792 174.44 6.184 174.44 6.432C174.44 9.232 175.008 9.968 175.344 9.968C175.536 9.968 175.712 9.84 175.864 9.24C175.928 9 176.096 8.896 176.272 8.896C176.504 8.896 176.728 9.064 176.728 9.328C176.728 9.376 176.728 9.416 176.712 9.464C176.416 10.536 175.904 10.928 175.368 10.928C174.208 10.928 173.504 9.496 173.504 6.456C173.504 6.088 173.52 5.848 173.536 5.64ZM178.48 6.208C179.152 6.832 179.768 7.832 180.032 8.648C180.056 8.712 180.064 8.768 180.064 8.816C180.064 9.08 179.84 9.24 179.616 9.24C179.448 9.24 179.272 9.152 179.192 8.936C178.904 8.2 178.384 7.36 177.808 6.76C177.712 6.664 177.672 6.56 177.672 6.464C177.672 6.24 177.888 6.056 178.128 6.056C178.24 6.056 178.368 6.104 178.48 6.208Z" fill="#282828"/>
<rect x="189" y="4" width="8" height="8" rx="2" fill="#69BD83"/>
<path d="M199.236 5.64C199.26 5.384 199.484 5.256 199.7 5.256C199.94 5.256 200.172 5.4 200.172 5.68C200.172 5.792 200.14 6.184 200.14 6.432C200.14 9.232 200.708 9.968 201.044 9.968C201.236 9.968 201.412 9.84 201.564 9.24C201.628 9 201.796 8.896 201.972 8.896C202.204 8.896 202.428 9.064 202.428 9.328C202.428 9.376 202.428 9.416 202.412 9.464C202.116 10.536 201.604 10.928 201.068 10.928C199.908 10.928 199.204 9.496 199.204 6.456C199.204 6.088 199.22 5.848 199.236 5.64ZM204.18 6.208C204.852 6.832 205.468 7.832 205.732 8.648C205.756 8.712 205.764 8.768 205.764 8.816C205.764 9.08 205.54 9.24 205.316 9.24C205.148 9.24 204.972 9.152 204.892 8.936C204.604 8.2 204.084 7.36 203.508 6.76C203.412 6.664 203.372 6.56 203.372 6.464C203.372 6.24 203.588 6.056 203.828 6.056C203.94 6.056 204.068 6.104 204.18 6.208ZM207.396 5.64C207.42 5.384 207.644 5.256 207.86 5.256C208.1 5.256 208.332 5.4 208.332 5.68C208.332 5.792 208.3 6.184 208.3 6.432C208.3 9.232 208.868 9.968 209.204 9.968C209.396 9.968 209.572 9.84 209.724 9.24C209.788 9 209.956 8.896 210.132 8.896C210.364 8.896 210.588 9.064 210.588 9.328C210.588 9.376 210.588 9.416 210.572 9.464C210.276 10.536 209.764 10.928 209.228 10.928C208.068 10.928 207.364 9.496 207.364 6.456C207.364 6.088 207.38 5.848 207.396 5.64ZM212.34 6.208C213.012 6.832 213.628 7.832 213.892 8.648C213.916 8.712 213.924 8.768 213.924 8.816C213.924 9.08 213.7 9.24 213.476 9.24C213.308 9.24 213.132 9.152 213.052 8.936C212.764 8.2 212.244 7.36 211.668 6.76C211.572 6.664 211.532 6.56 211.532 6.464C211.532 6.24 211.748 6.056 211.988 6.056C212.1 6.056 212.228 6.104 212.34 6.208ZM217.78 4.504C218.308 4.568 218.964 4.728 219.436 4.888C219.66 4.968 219.764 5.136 219.764 5.304C219.764 5.528 219.596 5.744 219.348 5.744C219.292 5.744 219.236 5.736 219.172 5.712C218.708 5.56 218.108 5.416 217.628 5.336C217.364 5.296 217.252 5.12 217.252 4.936C217.252 4.72 217.42 4.496 217.7 4.496C217.724 4.496 217.756 4.496 217.78 4.504ZM216.452 6.552L219.26 6.128C219.3 6.12 219.34 6.12 219.38 6.12C219.748 6.12 219.972 6.384 219.972 6.664C219.972 6.8 219.924 6.936 219.812 7.056L218.476 8.424L218.492 8.448C218.62 8.408 218.74 8.384 218.852 8.384C219.372 8.384 219.684 8.704 219.716 9.4L219.724 9.568C219.748 10.072 219.844 10.224 220.244 10.224C220.652 10.224 221.108 10.152 221.532 10.064C221.58 10.056 221.62 10.048 221.668 10.048C221.94 10.048 222.092 10.272 222.092 10.496C222.092 10.688 221.988 10.872 221.764 10.92C221.22 11.04 220.708 11.088 220.26 11.088C219.332 11.088 218.884 10.712 218.844 9.704L218.836 9.52C218.82 9.224 218.716 9.104 218.54 9.104C218.3 9.104 218.02 9.208 217.668 9.488C217.38 9.72 216.932 10.176 216.284 10.888C216.172 11.008 216.052 11.056 215.924 11.056C215.684 11.056 215.476 10.864 215.476 10.632C215.476 10.52 215.516 10.4 215.628 10.288L218.684 7.064L218.676 7.04L216.588 7.408C216.556 7.416 216.524 7.416 216.5 7.416C216.236 7.416 216.076 7.192 216.076 6.976C216.076 6.784 216.188 6.592 216.452 6.552Z" fill="#282828"/>
</svg>
