<svg width="287" height="40" viewBox="0 0 287 40" fill="none" xmlns="http://www.w3.org/2000/svg">
<rect x="31.5" y="4" width="8" height="8" rx="2" fill="#ED6D46"/>
<path d="M43.988 7.688C43.812 6.92 43.692 5.968 43.692 4.864C43.692 4.576 43.924 4.432 44.156 4.432C44.388 4.432 44.62 4.576 44.62 4.864C44.62 5.76 44.692 6.56 44.804 7.208C45.292 6.968 45.836 6.752 46.38 6.584C46.428 6.568 46.476 6.56 46.524 6.56C46.772 6.56 46.94 6.784 46.94 7.008C46.94 7.176 46.852 7.336 46.644 7.4C45.932 7.624 45.132 7.952 44.54 8.328C43.852 8.776 43.612 9.216 43.612 9.624C43.612 10.12 43.94 10.376 45.212 10.376C45.852 10.376 46.42 10.32 46.868 10.232C46.908 10.224 46.94 10.224 46.972 10.224C47.252 10.224 47.404 10.44 47.404 10.664C47.404 10.864 47.292 11.056 47.044 11.112C46.5 11.224 45.884 11.264 45.204 11.264C43.524 11.264 42.684 10.752 42.684 9.672C42.684 9.016 42.988 8.368 43.988 7.688ZM53.676 6.208V6.192C52.716 6.32 51.444 6.512 50.292 6.68C50.26 6.688 50.236 6.688 50.212 6.688C49.924 6.688 49.764 6.456 49.764 6.232C49.764 6.024 49.892 5.832 50.18 5.792C51.844 5.584 53.908 5.352 55.572 5.2H55.62C55.9 5.2 56.052 5.408 56.052 5.624C56.052 5.816 55.932 6.008 55.684 6.056C55.404 6.104 55.1 6.208 54.804 6.376C53.556 7.088 53.292 7.92 53.292 8.68C53.292 9.568 53.908 10.112 55.028 10.248C55.324 10.288 55.46 10.504 55.46 10.72C55.46 10.96 55.284 11.192 54.988 11.192C54.868 11.192 54.54 11.144 54.396 11.112C53.212 10.816 52.364 9.936 52.364 8.704C52.364 7.864 52.772 6.92 53.676 6.208ZM61.22 4.808L61.036 5.88H61.092C61.404 5.88 61.668 5.864 61.916 5.84H61.956C62.212 5.84 62.34 6.048 62.34 6.264C62.34 6.464 62.228 6.648 61.996 6.672C61.748 6.696 61.508 6.712 61.108 6.712H60.884C60.836 7.088 60.772 7.456 60.716 7.832H60.844C61.268 7.832 61.74 7.792 62.1 7.728C62.124 7.72 62.156 7.72 62.18 7.72C62.428 7.72 62.572 7.936 62.572 8.144C62.572 8.336 62.468 8.52 62.228 8.568C61.844 8.648 61.3 8.696 60.836 8.696H60.612C60.588 8.976 60.58 9.2 60.58 9.392C60.58 10.256 60.94 10.552 61.644 10.552C62.524 10.552 62.996 10.24 62.996 9.448C62.996 9.264 62.956 9.04 62.9 8.856C62.892 8.816 62.884 8.776 62.884 8.736C62.884 8.496 63.108 8.352 63.34 8.352C63.54 8.352 63.74 8.456 63.812 8.696C63.892 8.944 63.932 9.192 63.932 9.432C63.932 10.8 63.004 11.464 61.66 11.464C60.412 11.464 59.668 10.824 59.668 9.456C59.668 9.216 59.676 8.96 59.708 8.648C59.332 8.608 59.02 8.56 58.748 8.488C58.516 8.424 58.412 8.24 58.412 8.056C58.412 7.832 58.564 7.616 58.82 7.616C58.868 7.616 58.916 7.616 58.964 7.632C59.212 7.696 59.484 7.744 59.812 7.784C59.86 7.408 59.916 7.04 59.98 6.664C59.668 6.64 59.388 6.592 59.14 6.536C58.9 6.48 58.796 6.304 58.796 6.136C58.796 5.912 58.956 5.704 59.204 5.704C59.236 5.704 59.268 5.704 59.3 5.712C59.556 5.768 59.82 5.808 60.124 5.84L60.324 4.688C60.364 4.456 60.572 4.352 60.78 4.352C61.004 4.352 61.228 4.48 61.228 4.728C61.228 4.752 61.228 4.776 61.22 4.808ZM70.652 9.904L70.676 9.304C69.46 10.192 68.036 10.88 66.428 11.352C66.38 11.368 66.332 11.368 66.292 11.368C66.044 11.368 65.892 11.16 65.892 10.96C65.892 10.8 65.98 10.648 66.18 10.592C67.572 10.184 68.652 9.72 69.7 9.088C68.628 9.272 67.924 9.352 66.868 9.448C66.756 9.456 66.452 9.48 66.364 9.48C66.124 9.48 65.98 9.272 65.98 9.072C65.98 8.888 66.092 8.704 66.34 8.696C66.668 8.68 66.996 8.656 67.324 8.632V5.92C67.324 5.32 67.58 5.032 68.348 5.032H68.884C68.964 4.84 69.028 4.648 69.084 4.448C69.148 4.24 69.324 4.152 69.5 4.152C69.716 4.152 69.924 4.288 69.924 4.528C69.924 4.576 69.916 4.624 69.9 4.672C69.86 4.8 69.812 4.92 69.764 5.032H70.444C71.212 5.032 71.468 5.32 71.468 5.92V7.608C71.724 7.344 71.956 7.048 72.188 6.76C72.292 6.624 72.42 6.576 72.54 6.576C72.756 6.576 72.948 6.744 72.948 6.968C72.948 7.056 72.916 7.16 72.836 7.256C72.42 7.768 71.964 8.24 71.468 8.672V10.68C71.468 11.376 71.116 11.664 70.396 11.664C70.228 11.664 70.06 11.648 69.884 11.616C69.66 11.576 69.556 11.392 69.556 11.216C69.556 11.008 69.692 10.792 69.964 10.792C69.988 10.792 70.012 10.792 70.044 10.8C70.196 10.824 70.308 10.832 70.412 10.832C70.58 10.832 70.652 10.776 70.652 10.584V9.904ZM70.652 8.264V8.008H68.14V8.568C68.724 8.52 69.308 8.448 69.884 8.376C70.14 8.344 70.396 8.304 70.652 8.264ZM70.652 7.368V6.88H68.14V7.368H70.652ZM70.652 6.24V5.976C70.652 5.76 70.604 5.72 70.34 5.72H68.452C68.188 5.72 68.14 5.76 68.14 5.976V6.24H70.652ZM74.996 5.256C75.044 5.024 75.244 4.92 75.444 4.92C75.676 4.92 75.908 5.056 75.908 5.328C75.908 5.352 75.908 5.384 75.9 5.416C75.628 6.728 75.532 7.816 75.532 8.952C75.532 9.616 75.62 10.36 75.676 10.832C75.676 10.856 75.684 10.88 75.684 10.896C75.684 11.168 75.452 11.32 75.22 11.32C75.004 11.32 74.796 11.2 74.756 10.928C74.692 10.416 74.62 9.624 74.62 8.952C74.62 7.76 74.716 6.68 74.996 5.256ZM79.844 5.624H79.908C80.188 5.624 80.34 5.832 80.34 6.048C80.34 6.248 80.212 6.448 79.932 6.488C79.228 6.584 78.436 6.648 77.676 6.664C77.364 6.672 77.212 6.456 77.212 6.232C77.212 6.024 77.356 5.808 77.644 5.8C78.388 5.784 79.148 5.72 79.844 5.624ZM77.756 9.16C77.828 9.656 78.076 9.84 79.076 9.84C79.436 9.84 79.876 9.8 80.284 9.72C80.316 9.712 80.348 9.712 80.38 9.712C80.652 9.712 80.804 9.936 80.804 10.16C80.804 10.344 80.7 10.536 80.452 10.584C79.98 10.68 79.508 10.72 79.068 10.72C77.588 10.72 76.972 10.272 76.884 9.304V9.264C76.884 8.976 77.116 8.816 77.348 8.816C77.54 8.816 77.724 8.928 77.756 9.16ZM82.62 6.776C84.06 6.152 85.524 5.808 86.676 5.808C88.108 5.808 89.076 6.576 89.076 7.8C89.076 9.328 87.94 10.4 85.74 10.712C85.708 10.72 85.676 10.72 85.644 10.72C85.364 10.72 85.204 10.496 85.204 10.264C85.204 10.072 85.332 9.872 85.604 9.824C87.476 9.504 88.132 8.856 88.132 7.8C88.132 7.184 87.668 6.656 86.676 6.656C85.676 6.656 84.404 6.976 82.972 7.608C82.892 7.64 82.812 7.656 82.74 7.656C82.476 7.656 82.292 7.448 82.292 7.216C82.292 7.048 82.388 6.88 82.62 6.776ZM90.796 5.64C90.82 5.384 91.044 5.256 91.26 5.256C91.5 5.256 91.732 5.4 91.732 5.68C91.732 5.792 91.7 6.184 91.7 6.432C91.7 9.232 92.268 9.968 92.604 9.968C92.796 9.968 92.972 9.84 93.124 9.24C93.188 9 93.356 8.896 93.532 8.896C93.764 8.896 93.988 9.064 93.988 9.328C93.988 9.376 93.988 9.416 93.972 9.464C93.676 10.536 93.164 10.928 92.628 10.928C91.468 10.928 90.764 9.496 90.764 6.456C90.764 6.088 90.78 5.848 90.796 5.64ZM95.74 6.208C96.412 6.832 97.028 7.832 97.292 8.648C97.316 8.712 97.324 8.768 97.324 8.816C97.324 9.08 97.1 9.24 96.876 9.24C96.708 9.24 96.532 9.152 96.452 8.936C96.164 8.2 95.644 7.36 95.068 6.76C94.972 6.664 94.932 6.56 94.932 6.464C94.932 6.24 95.148 6.056 95.388 6.056C95.5 6.056 95.628 6.104 95.74 6.208ZM100.092 6.904C99.764 6.952 99.436 7 99.108 7C98.844 7 98.708 6.8 98.708 6.584C98.708 6.368 98.844 6.16 99.116 6.144C99.436 6.128 99.82 6.08 100.252 6.008C100.324 5.568 100.356 5.216 100.404 4.776C100.428 4.528 100.636 4.408 100.844 4.408C101.068 4.408 101.292 4.552 101.292 4.808V4.856C101.252 5.24 101.212 5.528 101.164 5.832C101.388 5.784 101.62 5.728 101.852 5.672C101.892 5.664 101.932 5.656 101.972 5.656C102.22 5.656 102.372 5.864 102.372 6.08C102.372 6.248 102.276 6.416 102.06 6.472C101.692 6.576 101.34 6.664 101.02 6.736C100.732 8.304 100.348 9.784 99.9 10.944C99.804 11.184 99.604 11.296 99.412 11.296C99.188 11.296 98.972 11.136 98.972 10.888C98.972 10.816 98.988 10.744 99.02 10.664C99.46 9.576 99.812 8.304 100.092 6.904ZM101.7 9.648C101.7 9.376 101.924 9.224 102.148 9.224C102.332 9.224 102.508 9.328 102.532 9.56C102.588 10.072 102.876 10.216 103.748 10.216C104.156 10.216 104.5 10.184 104.82 10.136C104.844 10.128 104.884 10.128 104.908 10.128C105.18 10.128 105.332 10.36 105.332 10.576C105.332 10.768 105.212 10.96 104.964 11C104.62 11.056 104.22 11.088 103.764 11.088C102.644 11.088 102.148 10.8 101.892 10.392C101.764 10.192 101.7 9.872 101.7 9.648ZM102.5 7.032C103.124 6.904 103.916 6.816 104.556 6.816C104.844 6.816 104.988 7.032 104.988 7.248C104.988 7.456 104.852 7.656 104.58 7.656C103.94 7.656 103.196 7.752 102.628 7.864C102.596 7.872 102.556 7.872 102.532 7.872C102.284 7.872 102.132 7.672 102.132 7.456C102.132 7.272 102.244 7.088 102.5 7.032Z" fill="#282828"/>
<rect x="114.5" y="4" width="8" height="8" rx="2" fill="#E18965"/>
<path d="M128.992 9.904L129.016 9.304C127.8 10.192 126.376 10.88 124.768 11.352C124.72 11.368 124.672 11.368 124.632 11.368C124.384 11.368 124.232 11.16 124.232 10.96C124.232 10.8 124.32 10.648 124.52 10.592C125.912 10.184 126.992 9.72 128.04 9.088C126.968 9.272 126.264 9.352 125.208 9.448C125.096 9.456 124.792 9.48 124.704 9.48C124.464 9.48 124.32 9.272 124.32 9.072C124.32 8.888 124.432 8.704 124.68 8.696C125.008 8.68 125.336 8.656 125.664 8.632V5.92C125.664 5.32 125.92 5.032 126.688 5.032H127.224C127.304 4.84 127.368 4.648 127.424 4.448C127.488 4.24 127.664 4.152 127.84 4.152C128.056 4.152 128.264 4.288 128.264 4.528C128.264 4.576 128.256 4.624 128.24 4.672C128.2 4.8 128.152 4.92 128.104 5.032H128.784C129.552 5.032 129.808 5.32 129.808 5.92V7.608C130.064 7.344 130.296 7.048 130.528 6.76C130.632 6.624 130.76 6.576 130.88 6.576C131.096 6.576 131.288 6.744 131.288 6.968C131.288 7.056 131.256 7.16 131.176 7.256C130.76 7.768 130.304 8.24 129.808 8.672V10.68C129.808 11.376 129.456 11.664 128.736 11.664C128.568 11.664 128.4 11.648 128.224 11.616C128 11.576 127.896 11.392 127.896 11.216C127.896 11.008 128.032 10.792 128.304 10.792C128.328 10.792 128.352 10.792 128.384 10.8C128.536 10.824 128.648 10.832 128.752 10.832C128.92 10.832 128.992 10.776 128.992 10.584V9.904ZM128.992 8.264V8.008H126.48V8.568C127.064 8.52 127.648 8.448 128.224 8.376C128.48 8.344 128.736 8.304 128.992 8.264ZM128.992 7.368V6.88H126.48V7.368H128.992ZM128.992 6.24V5.976C128.992 5.76 128.944 5.72 128.68 5.72H126.792C126.528 5.72 126.48 5.76 126.48 5.976V6.24H128.992ZM133.336 5.256C133.384 5.024 133.584 4.92 133.784 4.92C134.016 4.92 134.248 5.056 134.248 5.328C134.248 5.352 134.248 5.384 134.24 5.416C133.968 6.728 133.872 7.816 133.872 8.952C133.872 9.616 133.96 10.36 134.016 10.832C134.016 10.856 134.024 10.88 134.024 10.896C134.024 11.168 133.792 11.32 133.56 11.32C133.344 11.32 133.136 11.2 133.096 10.928C133.032 10.416 132.96 9.624 132.96 8.952C132.96 7.76 133.056 6.68 133.336 5.256ZM138.184 5.624H138.248C138.528 5.624 138.68 5.832 138.68 6.048C138.68 6.248 138.552 6.448 138.272 6.488C137.568 6.584 136.776 6.648 136.016 6.664C135.704 6.672 135.552 6.456 135.552 6.232C135.552 6.024 135.696 5.808 135.984 5.8C136.728 5.784 137.488 5.72 138.184 5.624ZM136.096 9.16C136.168 9.656 136.416 9.84 137.416 9.84C137.776 9.84 138.216 9.8 138.624 9.72C138.656 9.712 138.688 9.712 138.72 9.712C138.992 9.712 139.144 9.936 139.144 10.16C139.144 10.344 139.04 10.536 138.792 10.584C138.32 10.68 137.848 10.72 137.408 10.72C135.928 10.72 135.312 10.272 135.224 9.304V9.264C135.224 8.976 135.456 8.816 135.688 8.816C135.88 8.816 136.064 8.928 136.096 9.16ZM140.96 6.776C142.4 6.152 143.864 5.808 145.016 5.808C146.448 5.808 147.416 6.576 147.416 7.8C147.416 9.328 146.28 10.4 144.08 10.712C144.048 10.72 144.016 10.72 143.984 10.72C143.704 10.72 143.544 10.496 143.544 10.264C143.544 10.072 143.672 9.872 143.944 9.824C145.816 9.504 146.472 8.856 146.472 7.8C146.472 7.184 146.008 6.656 145.016 6.656C144.016 6.656 142.744 6.976 141.312 7.608C141.232 7.64 141.152 7.656 141.08 7.656C140.816 7.656 140.632 7.448 140.632 7.216C140.632 7.048 140.728 6.88 140.96 6.776ZM149.136 5.64C149.16 5.384 149.384 5.256 149.6 5.256C149.84 5.256 150.072 5.4 150.072 5.68C150.072 5.792 150.04 6.184 150.04 6.432C150.04 9.232 150.608 9.968 150.944 9.968C151.136 9.968 151.312 9.84 151.464 9.24C151.528 9 151.696 8.896 151.872 8.896C152.104 8.896 152.328 9.064 152.328 9.328C152.328 9.376 152.328 9.416 152.312 9.464C152.016 10.536 151.504 10.928 150.968 10.928C149.808 10.928 149.104 9.496 149.104 6.456C149.104 6.088 149.12 5.848 149.136 5.64ZM154.08 6.208C154.752 6.832 155.368 7.832 155.632 8.648C155.656 8.712 155.664 8.768 155.664 8.816C155.664 9.08 155.44 9.24 155.216 9.24C155.048 9.24 154.872 9.152 154.792 8.936C154.504 8.2 153.984 7.36 153.408 6.76C153.312 6.664 153.272 6.56 153.272 6.464C153.272 6.24 153.488 6.056 153.728 6.056C153.84 6.056 153.968 6.104 154.08 6.208ZM158.432 6.904C158.104 6.952 157.776 7 157.448 7C157.184 7 157.048 6.8 157.048 6.584C157.048 6.368 157.184 6.16 157.456 6.144C157.776 6.128 158.16 6.08 158.592 6.008C158.664 5.568 158.696 5.216 158.744 4.776C158.768 4.528 158.976 4.408 159.184 4.408C159.408 4.408 159.632 4.552 159.632 4.808V4.856C159.592 5.24 159.552 5.528 159.504 5.832C159.728 5.784 159.96 5.728 160.192 5.672C160.232 5.664 160.272 5.656 160.312 5.656C160.56 5.656 160.712 5.864 160.712 6.08C160.712 6.248 160.616 6.416 160.4 6.472C160.032 6.576 159.68 6.664 159.36 6.736C159.072 8.304 158.688 9.784 158.24 10.944C158.144 11.184 157.944 11.296 157.752 11.296C157.528 11.296 157.312 11.136 157.312 10.888C157.312 10.816 157.328 10.744 157.36 10.664C157.8 9.576 158.152 8.304 158.432 6.904ZM160.04 9.648C160.04 9.376 160.264 9.224 160.488 9.224C160.672 9.224 160.848 9.328 160.872 9.56C160.928 10.072 161.216 10.216 162.088 10.216C162.496 10.216 162.84 10.184 163.16 10.136C163.184 10.128 163.224 10.128 163.248 10.128C163.52 10.128 163.672 10.36 163.672 10.576C163.672 10.768 163.552 10.96 163.304 11C162.96 11.056 162.56 11.088 162.104 11.088C160.984 11.088 160.488 10.8 160.232 10.392C160.104 10.192 160.04 9.872 160.04 9.648ZM160.84 7.032C161.464 6.904 162.256 6.816 162.896 6.816C163.184 6.816 163.328 7.032 163.328 7.248C163.328 7.456 163.192 7.656 162.92 7.656C162.28 7.656 161.536 7.752 160.968 7.864C160.936 7.872 160.896 7.872 160.872 7.872C160.624 7.872 160.472 7.672 160.472 7.456C160.472 7.272 160.584 7.088 160.84 7.032Z" fill="#282828"/>
<rect x="172.5" y="4" width="8" height="8" rx="2" fill="#FFF464"/>
<path d="M184.908 7.768C184.732 7 184.612 6.048 184.612 4.944C184.612 4.656 184.844 4.512 185.076 4.512C185.308 4.512 185.54 4.656 185.54 4.944C185.54 5.84 185.612 6.64 185.724 7.288C186.212 7.048 186.756 6.832 187.3 6.664C187.348 6.648 187.396 6.64 187.444 6.64C187.692 6.64 187.86 6.864 187.86 7.088C187.86 7.256 187.772 7.416 187.564 7.48C186.852 7.704 186.052 8.032 185.46 8.408C184.772 8.856 184.532 9.296 184.532 9.704C184.532 10.2 184.86 10.456 186.132 10.456C186.772 10.456 187.34 10.4 187.788 10.312C187.828 10.304 187.86 10.304 187.892 10.304C188.172 10.304 188.324 10.52 188.324 10.744C188.324 10.944 188.212 11.136 187.964 11.192C187.42 11.304 186.804 11.344 186.124 11.344C184.444 11.344 183.604 10.832 183.604 9.752C183.604 9.096 183.908 8.448 184.908 7.768ZM187.036 5.24C186.988 5.184 186.972 5.12 186.972 5.064C186.972 4.904 187.132 4.768 187.308 4.768C187.388 4.768 187.476 4.8 187.548 4.88C187.748 5.096 187.964 5.376 188.108 5.632C188.148 5.696 188.164 5.76 188.164 5.824C188.164 6.008 188.004 6.144 187.836 6.144C187.732 6.144 187.636 6.088 187.564 5.968C187.404 5.688 187.204 5.44 187.036 5.24ZM187.892 4.68C187.844 4.624 187.82 4.56 187.82 4.504C187.82 4.344 187.98 4.224 188.148 4.224C188.236 4.224 188.332 4.256 188.412 4.336C188.604 4.536 188.82 4.8 188.964 5.048C189.012 5.128 189.036 5.2 189.036 5.264C189.036 5.448 188.884 5.576 188.716 5.576C188.612 5.576 188.5 5.52 188.42 5.4C188.26 5.152 188.06 4.888 187.892 4.68ZM192.86 8.264L192.876 8.272C193.46 7.92 194.252 7.696 194.908 7.696C196.132 7.696 196.74 8.312 196.74 9.192C196.74 10.472 195.54 11.152 194.092 11.288C193.964 11.304 193.892 11.304 193.828 11.304C193.556 11.304 193.404 11.096 193.404 10.888C193.404 10.688 193.524 10.496 193.796 10.48C195.3 10.376 195.836 9.856 195.836 9.208C195.836 8.792 195.58 8.48 194.924 8.48C194.052 8.48 193.284 8.792 192.532 9.512C192.428 9.608 192.308 9.656 192.188 9.656C191.956 9.656 191.74 9.488 191.74 9.224C191.74 9.16 191.748 9.104 191.772 9.032C192.036 8.28 192.228 7.528 192.372 6.776C191.98 6.808 191.612 6.824 191.276 6.824C191.004 6.824 190.868 6.616 190.868 6.408C190.868 6.208 191.004 6 191.268 6C191.636 6 192.06 5.976 192.516 5.936C192.572 5.536 192.62 5.136 192.66 4.728C192.684 4.48 192.892 4.36 193.1 4.36C193.308 4.36 193.516 4.488 193.516 4.736V4.792C193.476 5.16 193.436 5.512 193.388 5.84C194.012 5.76 194.636 5.656 195.172 5.536C195.212 5.528 195.252 5.52 195.292 5.52C195.54 5.52 195.692 5.728 195.692 5.936C195.692 6.112 195.58 6.288 195.324 6.344C194.684 6.48 193.956 6.608 193.244 6.688C193.132 7.304 192.996 7.84 192.86 8.264ZM201.62 4.552C202.052 4.656 202.588 4.84 203.004 5.056C203.204 5.16 203.284 5.328 203.284 5.496C203.284 5.72 203.116 5.936 202.86 5.936C202.788 5.936 202.708 5.92 202.62 5.88C202.204 5.696 201.7 5.496 201.316 5.384C201.108 5.32 201.012 5.16 201.012 5C201.012 4.776 201.196 4.536 201.484 4.536C201.524 4.536 201.572 4.544 201.62 4.552ZM200.54 8.32L200.556 8.328C201.164 7.8 202.084 7.472 202.876 7.472C204.132 7.472 204.908 8.16 204.908 9.064C204.908 10.296 203.892 11.176 201.964 11.4C201.94 11.4 201.916 11.408 201.892 11.408C201.612 11.408 201.452 11.184 201.452 10.968C201.452 10.768 201.588 10.568 201.86 10.536C203.428 10.352 203.972 9.76 203.972 9.072C203.972 8.656 203.644 8.272 202.876 8.272C202.028 8.272 201.068 8.704 200.396 9.488C200.284 9.624 200.132 9.68 199.988 9.68C199.748 9.68 199.516 9.504 199.516 9.216C199.516 9.184 199.516 9.152 199.524 9.12C199.604 8.528 199.796 7.48 200.028 6.384C200.076 6.152 200.276 6.048 200.468 6.048C200.7 6.048 200.924 6.184 200.924 6.424C200.924 6.448 200.924 6.48 200.916 6.504C200.764 7.248 200.628 7.856 200.54 8.32ZM209.388 7.688C209.212 6.92 209.092 5.968 209.092 4.864C209.092 4.576 209.324 4.432 209.556 4.432C209.788 4.432 210.02 4.576 210.02 4.864C210.02 5.76 210.092 6.56 210.204 7.208C210.692 6.968 211.236 6.752 211.78 6.584C211.828 6.568 211.876 6.56 211.924 6.56C212.172 6.56 212.34 6.784 212.34 7.008C212.34 7.176 212.252 7.336 212.044 7.4C211.332 7.624 210.532 7.952 209.94 8.328C209.252 8.776 209.012 9.216 209.012 9.624C209.012 10.12 209.34 10.376 210.612 10.376C211.252 10.376 211.82 10.32 212.268 10.232C212.308 10.224 212.34 10.224 212.372 10.224C212.652 10.224 212.804 10.44 212.804 10.664C212.804 10.864 212.692 11.056 212.444 11.112C211.9 11.224 211.284 11.264 210.604 11.264C208.924 11.264 208.084 10.752 208.084 9.672C208.084 9.016 208.388 8.368 209.388 7.688ZM218.46 4.808L218.276 5.88H218.332C218.644 5.88 218.908 5.864 219.156 5.84H219.196C219.452 5.84 219.58 6.048 219.58 6.264C219.58 6.464 219.468 6.648 219.236 6.672C218.988 6.696 218.748 6.712 218.348 6.712H218.124C218.076 7.088 218.012 7.456 217.956 7.832H218.084C218.508 7.832 218.98 7.792 219.34 7.728C219.364 7.72 219.396 7.72 219.42 7.72C219.668 7.72 219.812 7.936 219.812 8.144C219.812 8.336 219.708 8.52 219.468 8.568C219.084 8.648 218.54 8.696 218.076 8.696H217.852C217.828 8.976 217.82 9.2 217.82 9.392C217.82 10.256 218.18 10.552 218.884 10.552C219.764 10.552 220.236 10.24 220.236 9.448C220.236 9.264 220.196 9.04 220.14 8.856C220.132 8.816 220.124 8.776 220.124 8.736C220.124 8.496 220.348 8.352 220.58 8.352C220.78 8.352 220.98 8.456 221.052 8.696C221.132 8.944 221.172 9.192 221.172 9.432C221.172 10.8 220.244 11.464 218.9 11.464C217.652 11.464 216.908 10.824 216.908 9.456C216.908 9.216 216.916 8.96 216.948 8.648C216.572 8.608 216.26 8.56 215.988 8.488C215.756 8.424 215.652 8.24 215.652 8.056C215.652 7.832 215.804 7.616 216.06 7.616C216.108 7.616 216.156 7.616 216.204 7.632C216.452 7.696 216.724 7.744 217.052 7.784C217.1 7.408 217.156 7.04 217.22 6.664C216.908 6.64 216.628 6.592 216.38 6.536C216.14 6.48 216.036 6.304 216.036 6.136C216.036 5.912 216.196 5.704 216.444 5.704C216.476 5.704 216.508 5.704 216.54 5.712C216.796 5.768 217.06 5.808 217.364 5.84L217.564 4.688C217.604 4.456 217.812 4.352 218.02 4.352C218.244 4.352 218.468 4.48 218.468 4.728C218.468 4.752 218.468 4.776 218.46 4.808ZM223.556 5.64C223.58 5.384 223.804 5.256 224.02 5.256C224.26 5.256 224.492 5.4 224.492 5.68C224.492 5.792 224.46 6.184 224.46 6.432C224.46 9.232 225.028 9.968 225.364 9.968C225.556 9.968 225.732 9.84 225.884 9.24C225.948 9 226.116 8.896 226.292 8.896C226.524 8.896 226.748 9.064 226.748 9.328C226.748 9.376 226.748 9.416 226.732 9.464C226.436 10.536 225.924 10.928 225.388 10.928C224.228 10.928 223.524 9.496 223.524 6.456C223.524 6.088 223.54 5.848 223.556 5.64ZM228.5 6.208C229.172 6.832 229.788 7.832 230.052 8.648C230.076 8.712 230.084 8.768 230.084 8.816C230.084 9.08 229.86 9.24 229.636 9.24C229.468 9.24 229.292 9.152 229.212 8.936C228.924 8.2 228.404 7.36 227.828 6.76C227.732 6.664 227.692 6.56 227.692 6.464C227.692 6.24 227.908 6.056 228.148 6.056C228.26 6.056 228.388 6.104 228.5 6.208ZM233.94 4.504C234.468 4.568 235.124 4.728 235.596 4.888C235.82 4.968 235.924 5.136 235.924 5.304C235.924 5.528 235.756 5.744 235.508 5.744C235.452 5.744 235.396 5.736 235.332 5.712C234.868 5.56 234.268 5.416 233.788 5.336C233.524 5.296 233.412 5.12 233.412 4.936C233.412 4.72 233.58 4.496 233.86 4.496C233.884 4.496 233.916 4.496 233.94 4.504ZM232.612 6.552L235.42 6.128C235.46 6.12 235.5 6.12 235.54 6.12C235.908 6.12 236.132 6.384 236.132 6.664C236.132 6.8 236.084 6.936 235.972 7.056L234.636 8.424L234.652 8.448C234.78 8.408 234.9 8.384 235.012 8.384C235.532 8.384 235.844 8.704 235.876 9.4L235.884 9.568C235.908 10.072 236.004 10.224 236.404 10.224C236.812 10.224 237.268 10.152 237.692 10.064C237.74 10.056 237.78 10.048 237.828 10.048C238.1 10.048 238.252 10.272 238.252 10.496C238.252 10.688 238.148 10.872 237.924 10.92C237.38 11.04 236.868 11.088 236.42 11.088C235.492 11.088 235.044 10.712 235.004 9.704L234.996 9.52C234.98 9.224 234.876 9.104 234.7 9.104C234.46 9.104 234.18 9.208 233.828 9.488C233.54 9.72 233.092 10.176 232.444 10.888C232.332 11.008 232.212 11.056 232.084 11.056C231.844 11.056 231.636 10.864 231.636 10.632C231.636 10.52 231.676 10.4 231.788 10.288L234.844 7.064L234.836 7.04L232.748 7.408C232.716 7.416 232.684 7.416 232.66 7.416C232.396 7.416 232.236 7.192 232.236 6.976C232.236 6.784 232.348 6.592 232.612 6.552ZM244.396 10.2C244.38 11.096 243.724 11.416 242.956 11.416C242.004 11.416 241.428 11 241.428 10.256C241.428 9.616 241.972 9.088 242.996 9.088C243.124 9.088 243.252 9.096 243.396 9.112C243.34 8.744 243.316 8.472 243.316 8.264C243.316 7.92 243.332 7.744 243.372 7.488C243.412 7.264 243.596 7.168 243.788 7.168C244.012 7.168 244.236 7.296 244.236 7.536C244.236 7.56 244.228 7.576 244.228 7.6C244.196 7.832 244.172 8.032 244.172 8.256C244.172 8.48 244.196 8.792 244.284 9.296C244.796 9.448 245.324 9.68 245.788 9.992C245.94 10.096 246.004 10.232 246.004 10.368C246.004 10.592 245.82 10.808 245.58 10.808C245.5 10.808 245.404 10.776 245.308 10.712C245.012 10.504 244.7 10.328 244.396 10.2ZM242.956 10.624C243.324 10.624 243.524 10.464 243.524 10.112C243.524 10.04 243.524 9.976 243.516 9.912C243.34 9.88 243.172 9.864 243.012 9.864C242.452 9.864 242.276 10.04 242.276 10.256C242.276 10.488 242.436 10.624 242.956 10.624ZM241.212 5.928C241.332 5.52 241.444 5.112 241.524 4.712C241.572 4.472 241.764 4.368 241.956 4.368C242.18 4.368 242.388 4.504 242.388 4.76C242.388 4.792 242.388 4.832 242.38 4.864C242.316 5.168 242.236 5.488 242.148 5.808C242.388 5.768 242.628 5.728 242.852 5.688C242.884 5.68 242.916 5.68 242.94 5.68C243.196 5.68 243.356 5.888 243.356 6.104C243.356 6.28 243.252 6.456 242.996 6.512C242.652 6.584 242.26 6.648 241.868 6.704C241.532 7.672 241.1 8.632 240.636 9.4C240.516 9.6 240.348 9.688 240.188 9.688C239.948 9.688 239.74 9.504 239.74 9.264C239.74 9.176 239.764 9.08 239.828 8.984C240.236 8.344 240.604 7.6 240.908 6.808C240.612 6.84 240.324 6.856 240.076 6.864C239.804 6.872 239.66 6.648 239.66 6.424C239.66 6.216 239.788 6.016 240.044 6.008C240.404 5.992 240.804 5.968 241.212 5.928ZM244.764 5.832C245.148 5.936 245.644 6.16 245.988 6.376C246.172 6.488 246.252 6.648 246.252 6.792C246.252 7.024 246.06 7.232 245.828 7.232C245.748 7.232 245.668 7.208 245.588 7.16C245.212 6.944 244.796 6.736 244.444 6.608C244.244 6.536 244.156 6.392 244.156 6.248C244.156 6.032 244.34 5.808 244.612 5.808C244.66 5.808 244.708 5.816 244.764 5.832ZM248.036 5.64C248.06 5.384 248.284 5.256 248.5 5.256C248.74 5.256 248.972 5.4 248.972 5.68C248.972 5.792 248.94 6.184 248.94 6.432C248.94 9.232 249.508 9.968 249.844 9.968C250.036 9.968 250.212 9.84 250.364 9.24C250.428 9 250.596 8.896 250.772 8.896C251.004 8.896 251.228 9.064 251.228 9.328C251.228 9.376 251.228 9.416 251.212 9.464C250.916 10.536 250.404 10.928 249.868 10.928C248.708 10.928 248.004 9.496 248.004 6.456C248.004 6.088 248.02 5.848 248.036 5.64ZM252.98 6.208C253.652 6.832 254.268 7.832 254.532 8.648C254.556 8.712 254.564 8.768 254.564 8.816C254.564 9.08 254.34 9.24 254.116 9.24C253.948 9.24 253.772 9.152 253.692 8.936C253.404 8.2 252.884 7.36 252.308 6.76C252.212 6.664 252.172 6.56 252.172 6.464C252.172 6.24 252.388 6.056 252.628 6.056C252.74 6.056 252.868 6.104 252.98 6.208Z" fill="#282828"/>
<rect x="52.5" y="28" width="8" height="8" rx="2" fill="#69BD83"/>
<path d="M62.468 33.752C62.468 33.032 62.988 32.008 64.356 31.384C64.364 31.024 64.388 30.664 64.42 30.312C64.052 30.328 63.7 30.336 63.388 30.336C63.124 30.336 62.996 30.136 62.996 29.928C62.996 29.728 63.124 29.528 63.388 29.528C63.724 29.528 64.108 29.52 64.5 29.496C64.532 29.2 64.572 28.896 64.62 28.576C64.66 28.344 64.86 28.232 65.052 28.232C65.268 28.232 65.476 28.36 65.476 28.584C65.476 28.608 65.468 28.624 65.468 28.648C65.428 28.92 65.388 29.184 65.348 29.44C65.932 29.392 66.5 29.32 66.948 29.24C66.98 29.232 67.012 29.232 67.044 29.232C67.308 29.232 67.452 29.432 67.452 29.632C67.452 29.808 67.34 29.992 67.1 30.032C66.572 30.128 65.916 30.2 65.252 30.256C65.236 30.536 65.204 30.824 65.188 31.112C65.572 31.024 65.972 30.984 66.364 30.984C66.396 30.88 66.428 30.776 66.452 30.664C66.5 30.464 66.676 30.376 66.852 30.376C67.06 30.376 67.268 30.504 67.268 30.728C67.268 30.76 67.26 30.792 67.252 30.832C67.228 30.912 67.212 30.992 67.188 31.072C68.292 31.328 68.924 32.152 68.924 33.104C68.924 34.272 68.124 35.144 66.788 35.472C66.748 35.48 66.7 35.488 66.66 35.488C66.404 35.488 66.236 35.272 66.236 35.048C66.236 34.88 66.34 34.704 66.58 34.632C67.596 34.32 68.02 33.8 68.02 33.112C68.02 32.56 67.66 32 66.94 31.8C66.596 32.68 66.092 33.52 65.372 34.136C65.404 34.304 65.436 34.464 65.476 34.616C65.484 34.648 65.492 34.688 65.492 34.72C65.492 34.968 65.26 35.112 65.044 35.112C64.876 35.112 64.708 35.024 64.66 34.824L64.612 34.624C64.268 34.832 63.94 34.904 63.596 34.904C62.916 34.904 62.468 34.472 62.468 33.752ZM63.316 33.696C63.316 33.952 63.38 34.064 63.652 34.072C63.892 34.072 64.124 34 64.46 33.784C64.388 33.264 64.348 32.744 64.34 32.224C63.604 32.704 63.308 33.24 63.316 33.696ZM65.228 33.184C65.604 32.752 65.892 32.256 66.108 31.728C65.788 31.744 65.476 31.792 65.164 31.88V32.016C65.164 32.376 65.188 32.776 65.228 33.184ZM74.26 28.672V29.464H74.772C75.236 29.464 75.676 29.472 76.084 29.48C76.356 29.488 76.492 29.696 76.492 29.912C76.492 30.12 76.356 30.32 76.084 30.32C75.772 30.312 75.428 30.304 75.068 30.304C74.812 30.304 74.548 30.312 74.276 30.312C74.276 30.592 74.284 30.872 74.3 31.152C74.828 31.12 75.34 31.08 75.804 31.024H75.868C76.148 31.024 76.292 31.224 76.292 31.432C76.292 31.624 76.164 31.824 75.9 31.856C75.412 31.92 74.884 31.96 74.348 31.992C74.364 32.344 74.396 32.696 74.428 33.048C75.108 33.224 75.788 33.52 76.436 33.92C76.628 34.04 76.708 34.2 76.708 34.352C76.708 34.6 76.5 34.824 76.236 34.824C76.148 34.824 76.06 34.8 75.964 34.736C75.476 34.416 74.98 34.152 74.484 33.968V34.024C74.484 34.888 73.732 35.304 72.804 35.304C71.788 35.304 71.164 34.816 71.164 34.072C71.164 33.376 71.74 32.84 72.884 32.84C73.1 32.84 73.308 32.856 73.532 32.88C73.508 32.592 73.476 32.304 73.468 32.024H73.012C72.532 32.024 72.044 32.008 71.764 31.976C71.5 31.944 71.38 31.744 71.38 31.552C71.38 31.344 71.524 31.128 71.78 31.128H71.836C72.132 31.16 72.532 31.184 72.988 31.184H73.42C73.404 30.896 73.396 30.616 73.388 30.328C72.708 30.344 72.044 30.368 71.484 30.392C71.212 30.4 71.068 30.184 71.068 29.968C71.068 29.76 71.196 29.56 71.468 29.544C72.028 29.52 72.692 29.488 73.372 29.48V28.672C73.372 28.432 73.596 28.312 73.82 28.312C74.036 28.312 74.26 28.432 74.26 28.672ZM72.804 34.48C73.34 34.48 73.604 34.232 73.604 33.896V33.72C73.356 33.672 73.124 33.648 72.884 33.648C72.26 33.648 72.076 33.84 72.076 34.08C72.076 34.296 72.284 34.48 72.804 34.48ZM80.772 31.96H80.788C80.868 31.776 80.924 31.624 80.996 31.408C81.06 31.232 81.204 31.152 81.34 31.152C81.524 31.152 81.7 31.28 81.7 31.472C81.7 31.504 81.692 31.536 81.684 31.568C81.548 32.024 81.332 32.528 81.124 32.888C80.996 33.104 80.78 33.216 80.572 33.216C80.348 33.216 80.132 33.088 80.06 32.832C79.956 32.488 79.868 31.912 79.868 31.456C79.868 30.816 79.964 29.936 80.164 29.104C80.22 28.88 80.428 28.776 80.62 28.776C80.844 28.776 81.06 28.904 81.06 29.136C81.06 29.168 81.052 29.2 81.044 29.24C80.868 29.984 80.748 30.896 80.748 31.376C80.748 31.632 80.756 31.8 80.772 31.96ZM82.852 29.064V29.016C82.852 28.752 83.092 28.608 83.332 28.608C83.548 28.608 83.764 28.728 83.804 28.992C83.916 29.832 83.972 30.704 83.972 31.568C83.972 33.304 83.348 34.512 82.228 35.368C82.116 35.456 81.996 35.496 81.892 35.496C81.644 35.496 81.444 35.288 81.444 35.048C81.444 34.912 81.508 34.768 81.652 34.648C82.564 33.896 83.012 32.92 83.012 31.568C83.012 30.744 82.956 29.912 82.852 29.064ZM91.412 33.904L91.436 33.304C90.22 34.192 88.796 34.88 87.188 35.352C87.14 35.368 87.092 35.368 87.052 35.368C86.804 35.368 86.652 35.16 86.652 34.96C86.652 34.8 86.74 34.648 86.94 34.592C88.332 34.184 89.412 33.72 90.46 33.088C89.388 33.272 88.684 33.352 87.628 33.448C87.516 33.456 87.212 33.48 87.124 33.48C86.884 33.48 86.74 33.272 86.74 33.072C86.74 32.888 86.852 32.704 87.1 32.696C87.428 32.68 87.756 32.656 88.084 32.632V29.92C88.084 29.32 88.34 29.032 89.108 29.032H89.644C89.724 28.84 89.788 28.648 89.844 28.448C89.908 28.24 90.084 28.152 90.26 28.152C90.476 28.152 90.684 28.288 90.684 28.528C90.684 28.576 90.676 28.624 90.66 28.672C90.62 28.8 90.572 28.92 90.524 29.032H91.204C91.972 29.032 92.228 29.32 92.228 29.92V31.608C92.484 31.344 92.716 31.048 92.948 30.76C93.052 30.624 93.18 30.576 93.3 30.576C93.516 30.576 93.708 30.744 93.708 30.968C93.708 31.056 93.676 31.16 93.596 31.256C93.18 31.768 92.724 32.24 92.228 32.672V34.68C92.228 35.376 91.876 35.664 91.156 35.664C90.988 35.664 90.82 35.648 90.644 35.616C90.42 35.576 90.316 35.392 90.316 35.216C90.316 35.008 90.452 34.792 90.724 34.792C90.748 34.792 90.772 34.792 90.804 34.8C90.956 34.824 91.068 34.832 91.172 34.832C91.34 34.832 91.412 34.776 91.412 34.584V33.904ZM91.412 32.264V32.008H88.9V32.568C89.484 32.52 90.068 32.448 90.644 32.376C90.9 32.344 91.156 32.304 91.412 32.264ZM91.412 31.368V30.88H88.9V31.368H91.412ZM91.412 30.24V29.976C91.412 29.76 91.364 29.72 91.1 29.72H89.212C88.948 29.72 88.9 29.76 88.9 29.976V30.24H91.412ZM95.756 29.256C95.804 29.024 96.004 28.92 96.204 28.92C96.436 28.92 96.668 29.056 96.668 29.328C96.668 29.352 96.668 29.384 96.66 29.416C96.388 30.728 96.292 31.816 96.292 32.952C96.292 33.616 96.38 34.36 96.436 34.832C96.436 34.856 96.444 34.88 96.444 34.896C96.444 35.168 96.212 35.32 95.98 35.32C95.764 35.32 95.556 35.2 95.516 34.928C95.452 34.416 95.38 33.624 95.38 32.952C95.38 31.76 95.476 30.68 95.756 29.256ZM100.604 29.624H100.668C100.948 29.624 101.1 29.832 101.1 30.048C101.1 30.248 100.972 30.448 100.692 30.488C99.988 30.584 99.196 30.648 98.436 30.664C98.124 30.672 97.972 30.456 97.972 30.232C97.972 30.024 98.116 29.808 98.404 29.8C99.148 29.784 99.908 29.72 100.604 29.624ZM98.516 33.16C98.588 33.656 98.836 33.84 99.836 33.84C100.196 33.84 100.636 33.8 101.044 33.72C101.076 33.712 101.108 33.712 101.14 33.712C101.412 33.712 101.564 33.936 101.564 34.16C101.564 34.344 101.46 34.536 101.212 34.584C100.74 34.68 100.268 34.72 99.828 34.72C98.348 34.72 97.732 34.272 97.644 33.304V33.264C97.644 32.976 97.876 32.816 98.108 32.816C98.3 32.816 98.484 32.928 98.516 33.16ZM103.884 35.368V31.696C103.764 31.88 103.636 32.056 103.516 32.216C103.412 32.352 103.276 32.408 103.148 32.408C102.924 32.408 102.708 32.224 102.708 31.992C102.708 31.896 102.74 31.8 102.82 31.696C103.428 30.912 103.988 29.712 104.292 28.64C104.356 28.432 104.54 28.336 104.724 28.336C104.956 28.336 105.196 28.488 105.196 28.736C105.196 28.776 105.188 28.824 105.172 28.872C104.996 29.48 104.724 30.16 104.396 30.8C104.588 30.816 104.756 30.928 104.756 31.136V35.368C104.756 35.584 104.54 35.696 104.324 35.696C104.1 35.696 103.884 35.584 103.884 35.368ZM108.092 30.376V28.752C108.092 28.496 108.316 28.368 108.532 28.368C108.756 28.368 108.972 28.496 108.972 28.752V30.376H109.916C110.132 30.376 110.244 30.568 110.244 30.768C110.244 30.96 110.132 31.16 109.916 31.16H108.972V34.552C108.972 35.224 108.724 35.568 107.924 35.568C107.692 35.568 107.492 35.56 107.244 35.512C107.028 35.464 106.932 35.288 106.932 35.104C106.932 34.88 107.084 34.656 107.364 34.656C107.396 34.656 107.428 34.656 107.46 34.664C107.548 34.68 107.716 34.696 107.828 34.696C108.036 34.696 108.092 34.632 108.092 34.392V31.16H105.524C105.316 31.16 105.204 30.96 105.204 30.768C105.204 30.568 105.316 30.376 105.524 30.376H108.092ZM106.524 31.936C106.78 32.168 107.02 32.432 107.228 32.712C107.3 32.808 107.332 32.912 107.332 33.008C107.332 33.264 107.1 33.464 106.852 33.464C106.716 33.464 106.58 33.408 106.476 33.256C106.308 33.024 106.068 32.736 105.836 32.496C105.748 32.4 105.708 32.296 105.708 32.208C105.708 31.984 105.924 31.792 106.164 31.792C106.284 31.792 106.412 31.832 106.524 31.936ZM113.74 31.136C113.42 32.456 112.956 33.752 112.388 34.752C112.284 34.936 112.116 35.008 111.956 35.008C111.724 35.008 111.516 34.848 111.516 34.608C111.516 34.536 111.54 34.448 111.588 34.36C112.092 33.472 112.508 32.376 112.812 31.232C112.484 31.272 112.164 31.328 111.86 31.392C111.828 31.4 111.788 31.4 111.756 31.4C111.508 31.4 111.372 31.2 111.372 30.992C111.372 30.808 111.484 30.624 111.732 30.576C112.14 30.496 112.58 30.44 113.004 30.392C113.1 29.904 113.18 29.408 113.236 28.92C113.268 28.664 113.468 28.544 113.676 28.544C113.9 28.544 114.124 28.688 114.124 28.944V29C114.076 29.432 114.004 29.88 113.916 30.32C114.076 30.312 114.22 30.312 114.348 30.312C115.372 30.312 115.748 30.776 115.748 32.032C115.748 32.784 115.668 33.456 115.532 33.944C115.276 34.864 114.916 35.192 114.108 35.192C113.916 35.192 113.716 35.176 113.564 35.152C113.292 35.112 113.172 34.912 113.172 34.72C113.172 34.496 113.316 34.28 113.58 34.28C113.596 34.28 113.62 34.288 113.644 34.288C113.796 34.304 113.916 34.32 114.084 34.32C114.364 34.32 114.508 34.232 114.644 33.76C114.78 33.304 114.852 32.68 114.852 32.024C114.852 31.304 114.716 31.112 114.332 31.112C114.156 31.112 113.956 31.12 113.74 31.136ZM117.004 29.768C117.508 30.248 118.004 30.984 118.276 31.52C118.324 31.616 118.34 31.712 118.34 31.792C118.34 32.072 118.116 32.256 117.876 32.256C117.716 32.256 117.548 32.168 117.436 31.952C117.148 31.376 116.724 30.76 116.3 30.304C116.212 30.208 116.172 30.104 116.172 30.016C116.172 29.792 116.396 29.616 116.636 29.616C116.764 29.616 116.892 29.664 117.004 29.768ZM124.236 34.2C124.22 35.096 123.564 35.416 122.796 35.416C121.844 35.416 121.268 35 121.268 34.256C121.268 33.616 121.812 33.088 122.836 33.088C122.964 33.088 123.092 33.096 123.236 33.112C123.18 32.744 123.156 32.472 123.156 32.264C123.156 31.92 123.172 31.744 123.212 31.488C123.252 31.264 123.436 31.168 123.628 31.168C123.852 31.168 124.076 31.296 124.076 31.536C124.076 31.56 124.068 31.576 124.068 31.6C124.036 31.832 124.012 32.032 124.012 32.256C124.012 32.48 124.036 32.792 124.124 33.296C124.636 33.448 125.164 33.68 125.628 33.992C125.78 34.096 125.844 34.232 125.844 34.368C125.844 34.592 125.66 34.808 125.42 34.808C125.34 34.808 125.244 34.776 125.148 34.712C124.852 34.504 124.54 34.328 124.236 34.2ZM122.796 34.624C123.164 34.624 123.364 34.464 123.364 34.112C123.364 34.04 123.364 33.976 123.356 33.912C123.18 33.88 123.012 33.864 122.852 33.864C122.292 33.864 122.116 34.04 122.116 34.256C122.116 34.488 122.276 34.624 122.796 34.624ZM121.052 29.928C121.172 29.52 121.284 29.112 121.364 28.712C121.412 28.472 121.604 28.368 121.796 28.368C122.02 28.368 122.228 28.504 122.228 28.76C122.228 28.792 122.228 28.832 122.22 28.864C122.156 29.168 122.076 29.488 121.988 29.808C122.228 29.768 122.468 29.728 122.692 29.688C122.724 29.68 122.756 29.68 122.78 29.68C123.036 29.68 123.196 29.888 123.196 30.104C123.196 30.28 123.092 30.456 122.836 30.512C122.492 30.584 122.1 30.648 121.708 30.704C121.372 31.672 120.94 32.632 120.476 33.4C120.356 33.6 120.188 33.688 120.028 33.688C119.788 33.688 119.58 33.504 119.58 33.264C119.58 33.176 119.604 33.08 119.668 32.984C120.076 32.344 120.444 31.6 120.748 30.808C120.452 30.84 120.164 30.856 119.916 30.864C119.644 30.872 119.5 30.648 119.5 30.424C119.5 30.216 119.628 30.016 119.884 30.008C120.244 29.992 120.644 29.968 121.052 29.928ZM124.604 29.832C124.988 29.936 125.484 30.16 125.828 30.376C126.012 30.488 126.092 30.648 126.092 30.792C126.092 31.024 125.9 31.232 125.668 31.232C125.588 31.232 125.508 31.208 125.428 31.16C125.052 30.944 124.636 30.736 124.284 30.608C124.084 30.536 123.996 30.392 123.996 30.248C123.996 30.032 124.18 29.808 124.452 29.808C124.5 29.808 124.548 29.816 124.604 29.832ZM130.06 31.136C129.74 32.456 129.276 33.752 128.708 34.752C128.604 34.936 128.436 35.008 128.276 35.008C128.044 35.008 127.836 34.848 127.836 34.608C127.836 34.536 127.86 34.448 127.908 34.36C128.412 33.472 128.828 32.376 129.132 31.232C128.804 31.272 128.484 31.328 128.18 31.392C128.148 31.4 128.108 31.4 128.076 31.4C127.828 31.4 127.692 31.2 127.692 30.992C127.692 30.808 127.804 30.624 128.052 30.576C128.46 30.496 128.9 30.44 129.324 30.392C129.42 29.904 129.5 29.408 129.556 28.92C129.588 28.664 129.788 28.544 129.996 28.544C130.22 28.544 130.444 28.688 130.444 28.944V29C130.396 29.432 130.324 29.88 130.236 30.32C130.396 30.312 130.54 30.312 130.668 30.312C131.692 30.312 132.068 30.776 132.068 32.032C132.068 32.784 131.988 33.456 131.852 33.944C131.596 34.864 131.236 35.192 130.428 35.192C130.236 35.192 130.036 35.176 129.884 35.152C129.612 35.112 129.492 34.912 129.492 34.72C129.492 34.496 129.636 34.28 129.9 34.28C129.916 34.28 129.94 34.288 129.964 34.288C130.116 34.304 130.236 34.32 130.404 34.32C130.684 34.32 130.828 34.232 130.964 33.76C131.1 33.304 131.172 32.68 131.172 32.024C131.172 31.304 131.036 31.112 130.652 31.112C130.476 31.112 130.276 31.12 130.06 31.136ZM133.324 29.768C133.828 30.248 134.324 30.984 134.596 31.52C134.644 31.616 134.66 31.712 134.66 31.792C134.66 32.072 134.436 32.256 134.196 32.256C134.036 32.256 133.868 32.168 133.756 31.952C133.468 31.376 133.044 30.76 132.62 30.304C132.532 30.208 132.492 30.104 132.492 30.016C132.492 29.792 132.716 29.616 132.956 29.616C133.084 29.616 133.212 29.664 133.324 29.768ZM139.876 31.096C141.044 31.096 141.844 31.728 141.844 32.736C141.844 33.984 140.908 34.864 139.116 35.12C139.092 35.128 139.06 35.128 139.036 35.128C138.796 35.128 138.668 34.928 138.668 34.736C138.668 34.568 138.772 34.4 138.996 34.36C140.516 34.096 141.036 33.584 141.036 32.736C141.036 32.224 140.668 31.824 139.876 31.824C139.052 31.824 138.02 32.088 136.844 32.608C136.78 32.64 136.716 32.648 136.652 32.648C136.428 32.648 136.276 32.464 136.276 32.272C136.276 32.128 136.356 31.976 136.548 31.896C137.732 31.376 138.932 31.096 139.876 31.096ZM145.332 30.904C145.004 30.952 144.676 31 144.348 31C144.084 31 143.948 30.8 143.948 30.584C143.948 30.368 144.084 30.16 144.356 30.144C144.676 30.128 145.06 30.08 145.492 30.008C145.564 29.568 145.596 29.216 145.644 28.776C145.668 28.528 145.876 28.408 146.084 28.408C146.308 28.408 146.532 28.552 146.532 28.808V28.856C146.492 29.24 146.452 29.528 146.404 29.832C146.628 29.784 146.86 29.728 147.092 29.672C147.132 29.664 147.172 29.656 147.212 29.656C147.46 29.656 147.612 29.864 147.612 30.08C147.612 30.248 147.516 30.416 147.3 30.472C146.932 30.576 146.58 30.664 146.26 30.736C145.972 32.304 145.588 33.784 145.14 34.944C145.044 35.184 144.844 35.296 144.652 35.296C144.428 35.296 144.212 35.136 144.212 34.888C144.212 34.816 144.228 34.744 144.26 34.664C144.7 33.576 145.052 32.304 145.332 30.904ZM146.94 33.648C146.94 33.376 147.164 33.224 147.388 33.224C147.572 33.224 147.748 33.328 147.772 33.56C147.828 34.072 148.116 34.216 148.988 34.216C149.396 34.216 149.74 34.184 150.06 34.136C150.084 34.128 150.124 34.128 150.148 34.128C150.42 34.128 150.572 34.36 150.572 34.576C150.572 34.768 150.452 34.96 150.204 35C149.86 35.056 149.46 35.088 149.004 35.088C147.884 35.088 147.388 34.8 147.132 34.392C147.004 34.192 146.94 33.872 146.94 33.648ZM147.74 31.032C148.364 30.904 149.156 30.816 149.796 30.816C150.084 30.816 150.228 31.032 150.228 31.248C150.228 31.456 150.092 31.656 149.82 31.656C149.18 31.656 148.436 31.752 147.868 31.864C147.836 31.872 147.796 31.872 147.772 31.872C147.524 31.872 147.372 31.672 147.372 31.456C147.372 31.272 147.484 31.088 147.74 31.032Z" fill="#282828"/>
<rect x="159.5" y="28" width="8" height="8" rx="2" fill="#808080"/>
<path d="M174.172 33.904L174.196 33.304C172.98 34.192 171.556 34.88 169.948 35.352C169.9 35.368 169.852 35.368 169.812 35.368C169.564 35.368 169.412 35.16 169.412 34.96C169.412 34.8 169.5 34.648 169.7 34.592C171.092 34.184 172.172 33.72 173.22 33.088C172.148 33.272 171.444 33.352 170.388 33.448C170.276 33.456 169.972 33.48 169.884 33.48C169.644 33.48 169.5 33.272 169.5 33.072C169.5 32.888 169.612 32.704 169.86 32.696C170.188 32.68 170.516 32.656 170.844 32.632V29.92C170.844 29.32 171.1 29.032 171.868 29.032H172.404C172.484 28.84 172.548 28.648 172.604 28.448C172.668 28.24 172.844 28.152 173.02 28.152C173.236 28.152 173.444 28.288 173.444 28.528C173.444 28.576 173.436 28.624 173.42 28.672C173.38 28.8 173.332 28.92 173.284 29.032H173.964C174.732 29.032 174.988 29.32 174.988 29.92V31.608C175.244 31.344 175.476 31.048 175.708 30.76C175.812 30.624 175.94 30.576 176.06 30.576C176.276 30.576 176.468 30.744 176.468 30.968C176.468 31.056 176.436 31.16 176.356 31.256C175.94 31.768 175.484 32.24 174.988 32.672V34.68C174.988 35.376 174.636 35.664 173.916 35.664C173.748 35.664 173.58 35.648 173.404 35.616C173.18 35.576 173.076 35.392 173.076 35.216C173.076 35.008 173.212 34.792 173.484 34.792C173.508 34.792 173.532 34.792 173.564 34.8C173.716 34.824 173.828 34.832 173.932 34.832C174.1 34.832 174.172 34.776 174.172 34.584V33.904ZM174.172 32.264V32.008H171.66V32.568C172.244 32.52 172.828 32.448 173.404 32.376C173.66 32.344 173.916 32.304 174.172 32.264ZM174.172 31.368V30.88H171.66V31.368H174.172ZM174.172 30.24V29.976C174.172 29.76 174.124 29.72 173.86 29.72H171.972C171.708 29.72 171.66 29.76 171.66 29.976V30.24H174.172ZM178.516 29.256C178.564 29.024 178.764 28.92 178.964 28.92C179.196 28.92 179.428 29.056 179.428 29.328C179.428 29.352 179.428 29.384 179.42 29.416C179.148 30.728 179.052 31.816 179.052 32.952C179.052 33.616 179.14 34.36 179.196 34.832C179.196 34.856 179.204 34.88 179.204 34.896C179.204 35.168 178.972 35.32 178.74 35.32C178.524 35.32 178.316 35.2 178.276 34.928C178.212 34.416 178.14 33.624 178.14 32.952C178.14 31.76 178.236 30.68 178.516 29.256ZM183.364 29.624H183.428C183.708 29.624 183.86 29.832 183.86 30.048C183.86 30.248 183.732 30.448 183.452 30.488C182.748 30.584 181.956 30.648 181.196 30.664C180.884 30.672 180.732 30.456 180.732 30.232C180.732 30.024 180.876 29.808 181.164 29.8C181.908 29.784 182.668 29.72 183.364 29.624ZM181.276 33.16C181.348 33.656 181.596 33.84 182.596 33.84C182.956 33.84 183.396 33.8 183.804 33.72C183.836 33.712 183.868 33.712 183.9 33.712C184.172 33.712 184.324 33.936 184.324 34.16C184.324 34.344 184.22 34.536 183.972 34.584C183.5 34.68 183.028 34.72 182.588 34.72C181.108 34.72 180.492 34.272 180.404 33.304V33.264C180.404 32.976 180.636 32.816 180.868 32.816C181.06 32.816 181.244 32.928 181.276 33.16ZM186.644 35.368V31.696C186.524 31.88 186.396 32.056 186.276 32.216C186.172 32.352 186.036 32.408 185.908 32.408C185.684 32.408 185.468 32.224 185.468 31.992C185.468 31.896 185.5 31.8 185.58 31.696C186.188 30.912 186.748 29.712 187.052 28.64C187.116 28.432 187.3 28.336 187.484 28.336C187.716 28.336 187.956 28.488 187.956 28.736C187.956 28.776 187.948 28.824 187.932 28.872C187.756 29.48 187.484 30.16 187.156 30.8C187.348 30.816 187.516 30.928 187.516 31.136V35.368C187.516 35.584 187.3 35.696 187.084 35.696C186.86 35.696 186.644 35.584 186.644 35.368ZM190.852 30.376V28.752C190.852 28.496 191.076 28.368 191.292 28.368C191.516 28.368 191.732 28.496 191.732 28.752V30.376H192.676C192.892 30.376 193.004 30.568 193.004 30.768C193.004 30.96 192.892 31.16 192.676 31.16H191.732V34.552C191.732 35.224 191.484 35.568 190.684 35.568C190.452 35.568 190.252 35.56 190.004 35.512C189.788 35.464 189.692 35.288 189.692 35.104C189.692 34.88 189.844 34.656 190.124 34.656C190.156 34.656 190.188 34.656 190.22 34.664C190.308 34.68 190.476 34.696 190.588 34.696C190.796 34.696 190.852 34.632 190.852 34.392V31.16H188.284C188.076 31.16 187.964 30.96 187.964 30.768C187.964 30.568 188.076 30.376 188.284 30.376H190.852ZM189.284 31.936C189.54 32.168 189.78 32.432 189.988 32.712C190.06 32.808 190.092 32.912 190.092 33.008C190.092 33.264 189.86 33.464 189.612 33.464C189.476 33.464 189.34 33.408 189.236 33.256C189.068 33.024 188.828 32.736 188.596 32.496C188.508 32.4 188.468 32.296 188.468 32.208C188.468 31.984 188.684 31.792 188.924 31.792C189.044 31.792 189.172 31.832 189.284 31.936ZM196.5 31.136C196.18 32.456 195.716 33.752 195.148 34.752C195.044 34.936 194.876 35.008 194.716 35.008C194.484 35.008 194.276 34.848 194.276 34.608C194.276 34.536 194.3 34.448 194.348 34.36C194.852 33.472 195.268 32.376 195.572 31.232C195.244 31.272 194.924 31.328 194.62 31.392C194.588 31.4 194.548 31.4 194.516 31.4C194.268 31.4 194.132 31.2 194.132 30.992C194.132 30.808 194.244 30.624 194.492 30.576C194.9 30.496 195.34 30.44 195.764 30.392C195.86 29.904 195.94 29.408 195.996 28.92C196.028 28.664 196.228 28.544 196.436 28.544C196.66 28.544 196.884 28.688 196.884 28.944V29C196.836 29.432 196.764 29.88 196.676 30.32C196.836 30.312 196.98 30.312 197.108 30.312C198.132 30.312 198.508 30.776 198.508 32.032C198.508 32.784 198.428 33.456 198.292 33.944C198.036 34.864 197.676 35.192 196.868 35.192C196.676 35.192 196.476 35.176 196.324 35.152C196.052 35.112 195.932 34.912 195.932 34.72C195.932 34.496 196.076 34.28 196.34 34.28C196.356 34.28 196.38 34.288 196.404 34.288C196.556 34.304 196.676 34.32 196.844 34.32C197.124 34.32 197.268 34.232 197.404 33.76C197.54 33.304 197.612 32.68 197.612 32.024C197.612 31.304 197.476 31.112 197.092 31.112C196.916 31.112 196.716 31.12 196.5 31.136ZM199.764 29.768C200.268 30.248 200.764 30.984 201.036 31.52C201.084 31.616 201.1 31.712 201.1 31.792C201.1 32.072 200.876 32.256 200.636 32.256C200.476 32.256 200.308 32.168 200.196 31.952C199.908 31.376 199.484 30.76 199.06 30.304C198.972 30.208 198.932 30.104 198.932 30.016C198.932 29.792 199.156 29.616 199.396 29.616C199.524 29.616 199.652 29.664 199.764 29.768ZM206.996 34.2C206.98 35.096 206.324 35.416 205.556 35.416C204.604 35.416 204.028 35 204.028 34.256C204.028 33.616 204.572 33.088 205.596 33.088C205.724 33.088 205.852 33.096 205.996 33.112C205.94 32.744 205.916 32.472 205.916 32.264C205.916 31.92 205.932 31.744 205.972 31.488C206.012 31.264 206.196 31.168 206.388 31.168C206.612 31.168 206.836 31.296 206.836 31.536C206.836 31.56 206.828 31.576 206.828 31.6C206.796 31.832 206.772 32.032 206.772 32.256C206.772 32.48 206.796 32.792 206.884 33.296C207.396 33.448 207.924 33.68 208.388 33.992C208.54 34.096 208.604 34.232 208.604 34.368C208.604 34.592 208.42 34.808 208.18 34.808C208.1 34.808 208.004 34.776 207.908 34.712C207.612 34.504 207.3 34.328 206.996 34.2ZM205.556 34.624C205.924 34.624 206.124 34.464 206.124 34.112C206.124 34.04 206.124 33.976 206.116 33.912C205.94 33.88 205.772 33.864 205.612 33.864C205.052 33.864 204.876 34.04 204.876 34.256C204.876 34.488 205.036 34.624 205.556 34.624ZM203.812 29.928C203.932 29.52 204.044 29.112 204.124 28.712C204.172 28.472 204.364 28.368 204.556 28.368C204.78 28.368 204.988 28.504 204.988 28.76C204.988 28.792 204.988 28.832 204.98 28.864C204.916 29.168 204.836 29.488 204.748 29.808C204.988 29.768 205.228 29.728 205.452 29.688C205.484 29.68 205.516 29.68 205.54 29.68C205.796 29.68 205.956 29.888 205.956 30.104C205.956 30.28 205.852 30.456 205.596 30.512C205.252 30.584 204.86 30.648 204.468 30.704C204.132 31.672 203.7 32.632 203.236 33.4C203.116 33.6 202.948 33.688 202.788 33.688C202.548 33.688 202.34 33.504 202.34 33.264C202.34 33.176 202.364 33.08 202.428 32.984C202.836 32.344 203.204 31.6 203.508 30.808C203.212 30.84 202.924 30.856 202.676 30.864C202.404 30.872 202.26 30.648 202.26 30.424C202.26 30.216 202.388 30.016 202.644 30.008C203.004 29.992 203.404 29.968 203.812 29.928ZM207.364 29.832C207.748 29.936 208.244 30.16 208.588 30.376C208.772 30.488 208.852 30.648 208.852 30.792C208.852 31.024 208.66 31.232 208.428 31.232C208.348 31.232 208.268 31.208 208.188 31.16C207.812 30.944 207.396 30.736 207.044 30.608C206.844 30.536 206.756 30.392 206.756 30.248C206.756 30.032 206.94 29.808 207.212 29.808C207.26 29.808 207.308 29.816 207.364 29.832ZM212.82 31.136C212.5 32.456 212.036 33.752 211.468 34.752C211.364 34.936 211.196 35.008 211.036 35.008C210.804 35.008 210.596 34.848 210.596 34.608C210.596 34.536 210.62 34.448 210.668 34.36C211.172 33.472 211.588 32.376 211.892 31.232C211.564 31.272 211.244 31.328 210.94 31.392C210.908 31.4 210.868 31.4 210.836 31.4C210.588 31.4 210.452 31.2 210.452 30.992C210.452 30.808 210.564 30.624 210.812 30.576C211.22 30.496 211.66 30.44 212.084 30.392C212.18 29.904 212.26 29.408 212.316 28.92C212.348 28.664 212.548 28.544 212.756 28.544C212.98 28.544 213.204 28.688 213.204 28.944V29C213.156 29.432 213.084 29.88 212.996 30.32C213.156 30.312 213.3 30.312 213.428 30.312C214.452 30.312 214.828 30.776 214.828 32.032C214.828 32.784 214.748 33.456 214.612 33.944C214.356 34.864 213.996 35.192 213.188 35.192C212.996 35.192 212.796 35.176 212.644 35.152C212.372 35.112 212.252 34.912 212.252 34.72C212.252 34.496 212.396 34.28 212.66 34.28C212.676 34.28 212.7 34.288 212.724 34.288C212.876 34.304 212.996 34.32 213.164 34.32C213.444 34.32 213.588 34.232 213.724 33.76C213.86 33.304 213.932 32.68 213.932 32.024C213.932 31.304 213.796 31.112 213.412 31.112C213.236 31.112 213.036 31.12 212.82 31.136ZM216.084 29.768C216.588 30.248 217.084 30.984 217.356 31.52C217.404 31.616 217.42 31.712 217.42 31.792C217.42 32.072 217.196 32.256 216.956 32.256C216.796 32.256 216.628 32.168 216.516 31.952C216.228 31.376 215.804 30.76 215.38 30.304C215.292 30.208 215.252 30.104 215.252 30.016C215.252 29.792 215.476 29.616 215.716 29.616C215.844 29.616 215.972 29.664 216.084 29.768ZM222.636 31.096C223.804 31.096 224.604 31.728 224.604 32.736C224.604 33.984 223.668 34.864 221.876 35.12C221.852 35.128 221.82 35.128 221.796 35.128C221.556 35.128 221.428 34.928 221.428 34.736C221.428 34.568 221.532 34.4 221.756 34.36C223.276 34.096 223.796 33.584 223.796 32.736C223.796 32.224 223.428 31.824 222.636 31.824C221.812 31.824 220.78 32.088 219.604 32.608C219.54 32.64 219.476 32.648 219.412 32.648C219.188 32.648 219.036 32.464 219.036 32.272C219.036 32.128 219.116 31.976 219.308 31.896C220.492 31.376 221.692 31.096 222.636 31.096ZM228.092 30.904C227.764 30.952 227.436 31 227.108 31C226.844 31 226.708 30.8 226.708 30.584C226.708 30.368 226.844 30.16 227.116 30.144C227.436 30.128 227.82 30.08 228.252 30.008C228.324 29.568 228.356 29.216 228.404 28.776C228.428 28.528 228.636 28.408 228.844 28.408C229.068 28.408 229.292 28.552 229.292 28.808V28.856C229.252 29.24 229.212 29.528 229.164 29.832C229.388 29.784 229.62 29.728 229.852 29.672C229.892 29.664 229.932 29.656 229.972 29.656C230.22 29.656 230.372 29.864 230.372 30.08C230.372 30.248 230.276 30.416 230.06 30.472C229.692 30.576 229.34 30.664 229.02 30.736C228.732 32.304 228.348 33.784 227.9 34.944C227.804 35.184 227.604 35.296 227.412 35.296C227.188 35.296 226.972 35.136 226.972 34.888C226.972 34.816 226.988 34.744 227.02 34.664C227.46 33.576 227.812 32.304 228.092 30.904ZM229.7 33.648C229.7 33.376 229.924 33.224 230.148 33.224C230.332 33.224 230.508 33.328 230.532 33.56C230.588 34.072 230.876 34.216 231.748 34.216C232.156 34.216 232.5 34.184 232.82 34.136C232.844 34.128 232.884 34.128 232.908 34.128C233.18 34.128 233.332 34.36 233.332 34.576C233.332 34.768 233.212 34.96 232.964 35C232.62 35.056 232.22 35.088 231.764 35.088C230.644 35.088 230.148 34.8 229.892 34.392C229.764 34.192 229.7 33.872 229.7 33.648ZM230.5 31.032C231.124 30.904 231.916 30.816 232.556 30.816C232.844 30.816 232.988 31.032 232.988 31.248C232.988 31.456 232.852 31.656 232.58 31.656C231.94 31.656 231.196 31.752 230.628 31.864C230.596 31.872 230.556 31.872 230.532 31.872C230.284 31.872 230.132 31.672 230.132 31.456C230.132 31.272 230.244 31.088 230.5 31.032Z" fill="#282828"/>
</svg>
