<svg width="279" height="40" viewBox="0 0 279 40" fill="none" xmlns="http://www.w3.org/2000/svg">
<rect x="36" y="4" width="8" height="8" rx="2" fill="#ED6D46"/>
<path d="M48.068 7.688C47.892 6.92 47.772 5.968 47.772 4.864C47.772 4.576 48.004 4.432 48.236 4.432C48.468 4.432 48.7 4.576 48.7 4.864C48.7 5.76 48.772 6.56 48.884 7.208C49.372 6.968 49.916 6.752 50.46 6.584C50.508 6.568 50.556 6.56 50.604 6.56C50.852 6.56 51.02 6.784 51.02 7.008C51.02 7.176 50.932 7.336 50.724 7.4C50.012 7.624 49.212 7.952 48.62 8.328C47.932 8.776 47.692 9.216 47.692 9.624C47.692 10.12 48.02 10.376 49.292 10.376C49.932 10.376 50.5 10.32 50.948 10.232C50.988 10.224 51.02 10.224 51.052 10.224C51.332 10.224 51.484 10.44 51.484 10.664C51.484 10.864 51.372 11.056 51.124 11.112C50.58 11.224 49.964 11.264 49.284 11.264C47.604 11.264 46.764 10.752 46.764 9.672C46.764 9.016 47.068 8.368 48.068 7.688ZM57.756 6.208V6.192C56.796 6.32 55.524 6.512 54.372 6.68C54.34 6.688 54.316 6.688 54.292 6.688C54.004 6.688 53.844 6.456 53.844 6.232C53.844 6.024 53.972 5.832 54.26 5.792C55.924 5.584 57.988 5.352 59.652 5.2H59.7C59.98 5.2 60.132 5.408 60.132 5.624C60.132 5.816 60.012 6.008 59.764 6.056C59.484 6.104 59.18 6.208 58.884 6.376C57.636 7.088 57.372 7.92 57.372 8.68C57.372 9.568 57.988 10.112 59.108 10.248C59.404 10.288 59.54 10.504 59.54 10.72C59.54 10.96 59.364 11.192 59.068 11.192C58.948 11.192 58.62 11.144 58.476 11.112C57.292 10.816 56.444 9.936 56.444 8.704C56.444 7.864 56.852 6.92 57.756 6.208ZM65.3 4.808L65.116 5.88H65.172C65.484 5.88 65.748 5.864 65.996 5.84H66.036C66.292 5.84 66.42 6.048 66.42 6.264C66.42 6.464 66.308 6.648 66.076 6.672C65.828 6.696 65.588 6.712 65.188 6.712H64.964C64.916 7.088 64.852 7.456 64.796 7.832H64.924C65.348 7.832 65.82 7.792 66.18 7.728C66.204 7.72 66.236 7.72 66.26 7.72C66.508 7.72 66.652 7.936 66.652 8.144C66.652 8.336 66.548 8.52 66.308 8.568C65.924 8.648 65.38 8.696 64.916 8.696H64.692C64.668 8.976 64.66 9.2 64.66 9.392C64.66 10.256 65.02 10.552 65.724 10.552C66.604 10.552 67.076 10.24 67.076 9.448C67.076 9.264 67.036 9.04 66.98 8.856C66.972 8.816 66.964 8.776 66.964 8.736C66.964 8.496 67.188 8.352 67.42 8.352C67.62 8.352 67.82 8.456 67.892 8.696C67.972 8.944 68.012 9.192 68.012 9.432C68.012 10.8 67.084 11.464 65.74 11.464C64.492 11.464 63.748 10.824 63.748 9.456C63.748 9.216 63.756 8.96 63.788 8.648C63.412 8.608 63.1 8.56 62.828 8.488C62.596 8.424 62.492 8.24 62.492 8.056C62.492 7.832 62.644 7.616 62.9 7.616C62.948 7.616 62.996 7.616 63.044 7.632C63.292 7.696 63.564 7.744 63.892 7.784C63.94 7.408 63.996 7.04 64.06 6.664C63.748 6.64 63.468 6.592 63.22 6.536C62.98 6.48 62.876 6.304 62.876 6.136C62.876 5.912 63.036 5.704 63.284 5.704C63.316 5.704 63.348 5.704 63.38 5.712C63.636 5.768 63.9 5.808 64.204 5.84L64.404 4.688C64.444 4.456 64.652 4.352 64.86 4.352C65.084 4.352 65.308 4.48 65.308 4.728C65.308 4.752 65.308 4.776 65.3 4.808ZM73.58 5.672L73.572 5.648C72.684 5.84 72.188 5.92 71.876 5.96H71.82C71.564 5.96 71.42 5.744 71.42 5.528C71.42 5.336 71.532 5.144 71.772 5.112C72.068 5.08 72.572 5.032 74.116 4.704C74.172 4.688 74.228 4.688 74.284 4.688C74.62 4.688 74.852 4.92 74.852 5.2C74.852 5.32 74.804 5.448 74.708 5.568C74.188 6.216 73.468 6.912 72.748 7.416L72.756 7.432C73.764 7.208 74.708 7.016 76.036 6.744C76.068 6.736 76.1 6.736 76.132 6.736C76.412 6.736 76.572 6.944 76.572 7.152C76.572 7.336 76.46 7.512 76.204 7.568C75.66 7.688 75.148 7.832 74.836 7.992C74.004 8.408 73.724 9.024 73.724 9.52C73.724 10.072 74.092 10.4 75.172 10.44C75.468 10.456 75.612 10.664 75.612 10.872C75.612 11.096 75.452 11.328 75.132 11.32C73.684 11.296 72.828 10.632 72.828 9.592C72.828 9.064 73.004 8.528 73.564 8.04L73.556 8.024C72.9 8.176 72.276 8.328 71.556 8.504C71.276 8.576 71.012 8.648 70.74 8.728C70.684 8.744 70.636 8.752 70.588 8.752C70.324 8.752 70.148 8.528 70.148 8.296C70.148 8.128 70.244 7.952 70.476 7.872C70.9 7.72 71.356 7.504 71.724 7.256C72.436 6.776 73.068 6.224 73.58 5.672ZM81.052 4.432C81.628 4.512 82.372 4.72 82.9 4.936C83.1 5.016 83.188 5.184 83.188 5.352C83.188 5.584 83.02 5.824 82.772 5.824C82.724 5.824 82.668 5.808 82.612 5.792C82.108 5.616 81.404 5.416 80.868 5.312C80.636 5.264 80.532 5.088 80.532 4.904C80.532 4.672 80.692 4.424 80.972 4.424C81.004 4.424 81.028 4.432 81.052 4.432ZM79.788 7.664C79.716 7.696 79.644 7.712 79.58 7.712C79.324 7.712 79.14 7.488 79.14 7.264C79.14 7.112 79.228 6.952 79.436 6.864C80.196 6.528 81.116 6.336 81.74 6.336C82.996 6.336 83.588 6.904 83.588 7.976C83.588 9.208 83.028 10.488 81.82 11.336C81.716 11.408 81.612 11.44 81.516 11.44C81.26 11.44 81.06 11.232 81.06 11C81.06 10.864 81.124 10.72 81.292 10.6C82.292 9.864 82.66 8.976 82.66 7.984C82.66 7.464 82.444 7.192 81.756 7.192C81.276 7.192 80.532 7.344 79.788 7.664ZM91.5 8.336H88.228C87.388 8.336 87.092 8.048 87.092 7.408V5.544C87.092 4.904 87.388 4.616 88.228 4.616H91.5C92.348 4.616 92.644 4.904 92.644 5.544V7.408C92.644 8.184 92.196 8.336 91.5 8.336ZM88.3 7.632H89.38V6.8H87.94V7.352C87.94 7.608 88.076 7.632 88.3 7.632ZM87.94 6.12H89.38V5.32H88.3C88.004 5.32 87.94 5.4 87.94 5.6V6.12ZM90.22 5.32V6.12H91.796V5.6C91.796 5.4 91.724 5.32 91.436 5.32H90.22ZM91.796 6.8H90.22V7.632H91.436C91.724 7.632 91.796 7.56 91.796 7.352V6.8ZM88.044 10.744V9.16C88.044 8.92 88.26 8.808 88.484 8.808C88.7 8.808 88.916 8.92 88.916 9.16V10.592C88.916 10.792 88.996 10.84 89.828 10.84C90.804 10.84 90.956 10.728 91.004 10.28C91.028 10.048 91.228 9.936 91.428 9.936C91.644 9.936 91.86 10.064 91.86 10.312V10.352C91.78 11.248 91.38 11.576 89.828 11.576C88.276 11.576 88.044 11.408 88.044 10.744ZM86.852 9.392C86.924 9.208 87.084 9.128 87.244 9.128C87.468 9.128 87.684 9.28 87.684 9.52C87.684 9.568 87.676 9.624 87.652 9.68C87.492 10.096 87.276 10.496 87.076 10.792C86.972 10.952 86.828 11.016 86.684 11.016C86.46 11.016 86.252 10.848 86.252 10.624C86.252 10.552 86.276 10.464 86.332 10.376C86.532 10.08 86.708 9.752 86.852 9.392ZM89.94 8.608C90.14 8.744 90.412 8.952 90.588 9.128C90.7 9.232 90.74 9.344 90.74 9.448C90.74 9.664 90.548 9.848 90.332 9.848C90.236 9.848 90.132 9.816 90.036 9.728C89.844 9.56 89.636 9.36 89.436 9.2C89.324 9.112 89.276 9 89.276 8.896C89.276 8.696 89.452 8.52 89.676 8.52C89.756 8.52 89.852 8.544 89.94 8.608ZM92.572 9.168C92.844 9.448 93.108 9.784 93.3 10.088C93.348 10.168 93.372 10.248 93.372 10.328C93.372 10.568 93.156 10.76 92.932 10.76C92.804 10.76 92.668 10.704 92.572 10.552C92.396 10.288 92.148 9.952 91.9 9.672C91.82 9.584 91.788 9.488 91.788 9.408C91.788 9.192 91.996 9.016 92.228 9.016C92.348 9.016 92.468 9.064 92.572 9.168ZM97.372 4.432C97.948 4.512 98.692 4.72 99.22 4.936C99.42 5.016 99.508 5.184 99.508 5.352C99.508 5.584 99.34 5.824 99.092 5.824C99.044 5.824 98.988 5.808 98.932 5.792C98.428 5.616 97.724 5.416 97.188 5.312C96.956 5.264 96.852 5.088 96.852 4.904C96.852 4.672 97.012 4.424 97.292 4.424C97.324 4.424 97.348 4.432 97.372 4.432ZM96.108 7.664C96.036 7.696 95.964 7.712 95.9 7.712C95.644 7.712 95.46 7.488 95.46 7.264C95.46 7.112 95.548 6.952 95.756 6.864C96.516 6.528 97.436 6.336 98.06 6.336C99.316 6.336 99.908 6.904 99.908 7.976C99.908 9.208 99.348 10.488 98.14 11.336C98.036 11.408 97.932 11.44 97.836 11.44C97.58 11.44 97.38 11.232 97.38 11C97.38 10.864 97.444 10.72 97.612 10.6C98.612 9.864 98.98 8.976 98.98 7.984C98.98 7.464 98.764 7.192 98.076 7.192C97.596 7.192 96.852 7.344 96.108 7.664Z" fill="#282828"/>
<rect x="110" y="4" width="8" height="8" rx="2" fill="#E18965"/>
<path d="M123.34 5.672L123.332 5.648C122.444 5.84 121.948 5.92 121.636 5.96H121.58C121.324 5.96 121.18 5.744 121.18 5.528C121.18 5.336 121.292 5.144 121.532 5.112C121.828 5.08 122.332 5.032 123.876 4.704C123.932 4.688 123.988 4.688 124.044 4.688C124.38 4.688 124.612 4.92 124.612 5.2C124.612 5.32 124.564 5.448 124.468 5.568C123.948 6.216 123.228 6.912 122.508 7.416L122.516 7.432C123.524 7.208 124.468 7.016 125.796 6.744C125.828 6.736 125.86 6.736 125.892 6.736C126.172 6.736 126.332 6.944 126.332 7.152C126.332 7.336 126.22 7.512 125.964 7.568C125.42 7.688 124.908 7.832 124.596 7.992C123.764 8.408 123.484 9.024 123.484 9.52C123.484 10.072 123.852 10.4 124.932 10.44C125.228 10.456 125.372 10.664 125.372 10.872C125.372 11.096 125.212 11.328 124.892 11.32C123.444 11.296 122.588 10.632 122.588 9.592C122.588 9.064 122.764 8.528 123.324 8.04L123.316 8.024C122.66 8.176 122.036 8.328 121.316 8.504C121.036 8.576 120.772 8.648 120.5 8.728C120.444 8.744 120.396 8.752 120.348 8.752C120.084 8.752 119.908 8.528 119.908 8.296C119.908 8.128 120.004 7.952 120.236 7.872C120.66 7.72 121.116 7.504 121.484 7.256C122.196 6.776 122.828 6.224 123.34 5.672ZM130.812 4.432C131.388 4.512 132.132 4.72 132.66 4.936C132.86 5.016 132.948 5.184 132.948 5.352C132.948 5.584 132.78 5.824 132.532 5.824C132.484 5.824 132.428 5.808 132.372 5.792C131.868 5.616 131.164 5.416 130.628 5.312C130.396 5.264 130.292 5.088 130.292 4.904C130.292 4.672 130.452 4.424 130.732 4.424C130.764 4.424 130.788 4.432 130.812 4.432ZM129.548 7.664C129.476 7.696 129.404 7.712 129.34 7.712C129.084 7.712 128.9 7.488 128.9 7.264C128.9 7.112 128.988 6.952 129.196 6.864C129.956 6.528 130.876 6.336 131.5 6.336C132.756 6.336 133.348 6.904 133.348 7.976C133.348 9.208 132.788 10.488 131.58 11.336C131.476 11.408 131.372 11.44 131.276 11.44C131.02 11.44 130.82 11.232 130.82 11C130.82 10.864 130.884 10.72 131.052 10.6C132.052 9.864 132.42 8.976 132.42 7.984C132.42 7.464 132.204 7.192 131.516 7.192C131.036 7.192 130.292 7.344 129.548 7.664ZM141.26 8.336H137.988C137.148 8.336 136.852 8.048 136.852 7.408V5.544C136.852 4.904 137.148 4.616 137.988 4.616H141.26C142.108 4.616 142.404 4.904 142.404 5.544V7.408C142.404 8.184 141.956 8.336 141.26 8.336ZM138.06 7.632H139.14V6.8H137.7V7.352C137.7 7.608 137.836 7.632 138.06 7.632ZM137.7 6.12H139.14V5.32H138.06C137.764 5.32 137.7 5.4 137.7 5.6V6.12ZM139.98 5.32V6.12H141.556V5.6C141.556 5.4 141.484 5.32 141.196 5.32H139.98ZM141.556 6.8H139.98V7.632H141.196C141.484 7.632 141.556 7.56 141.556 7.352V6.8ZM137.804 10.744V9.16C137.804 8.92 138.02 8.808 138.244 8.808C138.46 8.808 138.676 8.92 138.676 9.16V10.592C138.676 10.792 138.756 10.84 139.588 10.84C140.564 10.84 140.716 10.728 140.764 10.28C140.788 10.048 140.988 9.936 141.188 9.936C141.404 9.936 141.62 10.064 141.62 10.312V10.352C141.54 11.248 141.14 11.576 139.588 11.576C138.036 11.576 137.804 11.408 137.804 10.744ZM136.612 9.392C136.684 9.208 136.844 9.128 137.004 9.128C137.228 9.128 137.444 9.28 137.444 9.52C137.444 9.568 137.436 9.624 137.412 9.68C137.252 10.096 137.036 10.496 136.836 10.792C136.732 10.952 136.588 11.016 136.444 11.016C136.22 11.016 136.012 10.848 136.012 10.624C136.012 10.552 136.036 10.464 136.092 10.376C136.292 10.08 136.468 9.752 136.612 9.392ZM139.7 8.608C139.9 8.744 140.172 8.952 140.348 9.128C140.46 9.232 140.5 9.344 140.5 9.448C140.5 9.664 140.308 9.848 140.092 9.848C139.996 9.848 139.892 9.816 139.796 9.728C139.604 9.56 139.396 9.36 139.196 9.2C139.084 9.112 139.036 9 139.036 8.896C139.036 8.696 139.212 8.52 139.436 8.52C139.516 8.52 139.612 8.544 139.7 8.608ZM142.332 9.168C142.604 9.448 142.868 9.784 143.06 10.088C143.108 10.168 143.132 10.248 143.132 10.328C143.132 10.568 142.916 10.76 142.692 10.76C142.564 10.76 142.428 10.704 142.332 10.552C142.156 10.288 141.908 9.952 141.66 9.672C141.58 9.584 141.548 9.488 141.548 9.408C141.548 9.192 141.756 9.016 141.988 9.016C142.108 9.016 142.228 9.064 142.332 9.168ZM147.132 4.432C147.708 4.512 148.452 4.72 148.98 4.936C149.18 5.016 149.268 5.184 149.268 5.352C149.268 5.584 149.1 5.824 148.852 5.824C148.804 5.824 148.748 5.808 148.692 5.792C148.188 5.616 147.484 5.416 146.948 5.312C146.716 5.264 146.612 5.088 146.612 4.904C146.612 4.672 146.772 4.424 147.052 4.424C147.084 4.424 147.108 4.432 147.132 4.432ZM145.868 7.664C145.796 7.696 145.724 7.712 145.66 7.712C145.404 7.712 145.22 7.488 145.22 7.264C145.22 7.112 145.308 6.952 145.516 6.864C146.276 6.528 147.196 6.336 147.82 6.336C149.076 6.336 149.668 6.904 149.668 7.976C149.668 9.208 149.108 10.488 147.9 11.336C147.796 11.408 147.692 11.44 147.596 11.44C147.34 11.44 147.14 11.232 147.14 11C147.14 10.864 147.204 10.72 147.372 10.6C148.372 9.864 148.74 8.976 148.74 7.984C148.74 7.464 148.524 7.192 147.836 7.192C147.356 7.192 146.612 7.344 145.868 7.664Z" fill="#282828"/>
<rect x="160" y="4" width="8" height="8" rx="2" fill="#FFF464"/>
<path d="M172.408 7.768C172.232 7 172.112 6.048 172.112 4.944C172.112 4.656 172.344 4.512 172.576 4.512C172.808 4.512 173.04 4.656 173.04 4.944C173.04 5.84 173.112 6.64 173.224 7.288C173.712 7.048 174.256 6.832 174.8 6.664C174.848 6.648 174.896 6.64 174.944 6.64C175.192 6.64 175.36 6.864 175.36 7.088C175.36 7.256 175.272 7.416 175.064 7.48C174.352 7.704 173.552 8.032 172.96 8.408C172.272 8.856 172.032 9.296 172.032 9.704C172.032 10.2 172.36 10.456 173.632 10.456C174.272 10.456 174.84 10.4 175.288 10.312C175.328 10.304 175.36 10.304 175.392 10.304C175.672 10.304 175.824 10.52 175.824 10.744C175.824 10.944 175.712 11.136 175.464 11.192C174.92 11.304 174.304 11.344 173.624 11.344C171.944 11.344 171.104 10.832 171.104 9.752C171.104 9.096 171.408 8.448 172.408 7.768ZM174.536 5.24C174.488 5.184 174.472 5.12 174.472 5.064C174.472 4.904 174.632 4.768 174.808 4.768C174.888 4.768 174.976 4.8 175.048 4.88C175.248 5.096 175.464 5.376 175.608 5.632C175.648 5.696 175.664 5.76 175.664 5.824C175.664 6.008 175.504 6.144 175.336 6.144C175.232 6.144 175.136 6.088 175.064 5.968C174.904 5.688 174.704 5.44 174.536 5.24ZM175.392 4.68C175.344 4.624 175.32 4.56 175.32 4.504C175.32 4.344 175.48 4.224 175.648 4.224C175.736 4.224 175.832 4.256 175.912 4.336C176.104 4.536 176.32 4.8 176.464 5.048C176.512 5.128 176.536 5.2 176.536 5.264C176.536 5.448 176.384 5.576 176.216 5.576C176.112 5.576 176 5.52 175.92 5.4C175.76 5.152 175.56 4.888 175.392 4.68ZM180.36 8.264L180.376 8.272C180.96 7.92 181.752 7.696 182.408 7.696C183.632 7.696 184.24 8.312 184.24 9.192C184.24 10.472 183.04 11.152 181.592 11.288C181.464 11.304 181.392 11.304 181.328 11.304C181.056 11.304 180.904 11.096 180.904 10.888C180.904 10.688 181.024 10.496 181.296 10.48C182.8 10.376 183.336 9.856 183.336 9.208C183.336 8.792 183.08 8.48 182.424 8.48C181.552 8.48 180.784 8.792 180.032 9.512C179.928 9.608 179.808 9.656 179.688 9.656C179.456 9.656 179.24 9.488 179.24 9.224C179.24 9.16 179.248 9.104 179.272 9.032C179.536 8.28 179.728 7.528 179.872 6.776C179.48 6.808 179.112 6.824 178.776 6.824C178.504 6.824 178.368 6.616 178.368 6.408C178.368 6.208 178.504 6 178.768 6C179.136 6 179.56 5.976 180.016 5.936C180.072 5.536 180.12 5.136 180.16 4.728C180.184 4.48 180.392 4.36 180.6 4.36C180.808 4.36 181.016 4.488 181.016 4.736V4.792C180.976 5.16 180.936 5.512 180.888 5.84C181.512 5.76 182.136 5.656 182.672 5.536C182.712 5.528 182.752 5.52 182.792 5.52C183.04 5.52 183.192 5.728 183.192 5.936C183.192 6.112 183.08 6.288 182.824 6.344C182.184 6.48 181.456 6.608 180.744 6.688C180.632 7.304 180.496 7.84 180.36 8.264ZM189.12 4.552C189.552 4.656 190.088 4.84 190.504 5.056C190.704 5.16 190.784 5.328 190.784 5.496C190.784 5.72 190.616 5.936 190.36 5.936C190.288 5.936 190.208 5.92 190.12 5.88C189.704 5.696 189.2 5.496 188.816 5.384C188.608 5.32 188.512 5.16 188.512 5C188.512 4.776 188.696 4.536 188.984 4.536C189.024 4.536 189.072 4.544 189.12 4.552ZM188.04 8.32L188.056 8.328C188.664 7.8 189.584 7.472 190.376 7.472C191.632 7.472 192.408 8.16 192.408 9.064C192.408 10.296 191.392 11.176 189.464 11.4C189.44 11.4 189.416 11.408 189.392 11.408C189.112 11.408 188.952 11.184 188.952 10.968C188.952 10.768 189.088 10.568 189.36 10.536C190.928 10.352 191.472 9.76 191.472 9.072C191.472 8.656 191.144 8.272 190.376 8.272C189.528 8.272 188.568 8.704 187.896 9.488C187.784 9.624 187.632 9.68 187.488 9.68C187.248 9.68 187.016 9.504 187.016 9.216C187.016 9.184 187.016 9.152 187.024 9.12C187.104 8.528 187.296 7.48 187.528 6.384C187.576 6.152 187.776 6.048 187.968 6.048C188.2 6.048 188.424 6.184 188.424 6.424C188.424 6.448 188.424 6.48 188.416 6.504C188.264 7.248 188.128 7.856 188.04 8.32ZM196.888 7.688C196.712 6.92 196.592 5.968 196.592 4.864C196.592 4.576 196.824 4.432 197.056 4.432C197.288 4.432 197.52 4.576 197.52 4.864C197.52 5.76 197.592 6.56 197.704 7.208C198.192 6.968 198.736 6.752 199.28 6.584C199.328 6.568 199.376 6.56 199.424 6.56C199.672 6.56 199.84 6.784 199.84 7.008C199.84 7.176 199.752 7.336 199.544 7.4C198.832 7.624 198.032 7.952 197.44 8.328C196.752 8.776 196.512 9.216 196.512 9.624C196.512 10.12 196.84 10.376 198.112 10.376C198.752 10.376 199.32 10.32 199.768 10.232C199.808 10.224 199.84 10.224 199.872 10.224C200.152 10.224 200.304 10.44 200.304 10.664C200.304 10.864 200.192 11.056 199.944 11.112C199.4 11.224 198.784 11.264 198.104 11.264C196.424 11.264 195.584 10.752 195.584 9.672C195.584 9.016 195.888 8.368 196.888 7.688ZM205.96 4.808L205.776 5.88H205.832C206.144 5.88 206.408 5.864 206.656 5.84H206.696C206.952 5.84 207.08 6.048 207.08 6.264C207.08 6.464 206.968 6.648 206.736 6.672C206.488 6.696 206.248 6.712 205.848 6.712H205.624C205.576 7.088 205.512 7.456 205.456 7.832H205.584C206.008 7.832 206.48 7.792 206.84 7.728C206.864 7.72 206.896 7.72 206.92 7.72C207.168 7.72 207.312 7.936 207.312 8.144C207.312 8.336 207.208 8.52 206.968 8.568C206.584 8.648 206.04 8.696 205.576 8.696H205.352C205.328 8.976 205.32 9.2 205.32 9.392C205.32 10.256 205.68 10.552 206.384 10.552C207.264 10.552 207.736 10.24 207.736 9.448C207.736 9.264 207.696 9.04 207.64 8.856C207.632 8.816 207.624 8.776 207.624 8.736C207.624 8.496 207.848 8.352 208.08 8.352C208.28 8.352 208.48 8.456 208.552 8.696C208.632 8.944 208.672 9.192 208.672 9.432C208.672 10.8 207.744 11.464 206.4 11.464C205.152 11.464 204.408 10.824 204.408 9.456C204.408 9.216 204.416 8.96 204.448 8.648C204.072 8.608 203.76 8.56 203.488 8.488C203.256 8.424 203.152 8.24 203.152 8.056C203.152 7.832 203.304 7.616 203.56 7.616C203.608 7.616 203.656 7.616 203.704 7.632C203.952 7.696 204.224 7.744 204.552 7.784C204.6 7.408 204.656 7.04 204.72 6.664C204.408 6.64 204.128 6.592 203.88 6.536C203.64 6.48 203.536 6.304 203.536 6.136C203.536 5.912 203.696 5.704 203.944 5.704C203.976 5.704 204.008 5.704 204.04 5.712C204.296 5.768 204.56 5.808 204.864 5.84L205.064 4.688C205.104 4.456 205.312 4.352 205.52 4.352C205.744 4.352 205.968 4.48 205.968 4.728C205.968 4.752 205.968 4.776 205.96 4.808ZM211.056 5.64C211.08 5.384 211.304 5.256 211.52 5.256C211.76 5.256 211.992 5.4 211.992 5.68C211.992 5.792 211.96 6.184 211.96 6.432C211.96 9.232 212.528 9.968 212.864 9.968C213.056 9.968 213.232 9.84 213.384 9.24C213.448 9 213.616 8.896 213.792 8.896C214.024 8.896 214.248 9.064 214.248 9.328C214.248 9.376 214.248 9.416 214.232 9.464C213.936 10.536 213.424 10.928 212.888 10.928C211.728 10.928 211.024 9.496 211.024 6.456C211.024 6.088 211.04 5.848 211.056 5.64ZM216 6.208C216.672 6.832 217.288 7.832 217.552 8.648C217.576 8.712 217.584 8.768 217.584 8.816C217.584 9.08 217.36 9.24 217.136 9.24C216.968 9.24 216.792 9.152 216.712 8.936C216.424 8.2 215.904 7.36 215.328 6.76C215.232 6.664 215.192 6.56 215.192 6.464C215.192 6.24 215.408 6.056 215.648 6.056C215.76 6.056 215.888 6.104 216 6.208ZM221.44 4.504C221.968 4.568 222.624 4.728 223.096 4.888C223.32 4.968 223.424 5.136 223.424 5.304C223.424 5.528 223.256 5.744 223.008 5.744C222.952 5.744 222.896 5.736 222.832 5.712C222.368 5.56 221.768 5.416 221.288 5.336C221.024 5.296 220.912 5.12 220.912 4.936C220.912 4.72 221.08 4.496 221.36 4.496C221.384 4.496 221.416 4.496 221.44 4.504ZM220.112 6.552L222.92 6.128C222.96 6.12 223 6.12 223.04 6.12C223.408 6.12 223.632 6.384 223.632 6.664C223.632 6.8 223.584 6.936 223.472 7.056L222.136 8.424L222.152 8.448C222.28 8.408 222.4 8.384 222.512 8.384C223.032 8.384 223.344 8.704 223.376 9.4L223.384 9.568C223.408 10.072 223.504 10.224 223.904 10.224C224.312 10.224 224.768 10.152 225.192 10.064C225.24 10.056 225.28 10.048 225.328 10.048C225.6 10.048 225.752 10.272 225.752 10.496C225.752 10.688 225.648 10.872 225.424 10.92C224.88 11.04 224.368 11.088 223.92 11.088C222.992 11.088 222.544 10.712 222.504 9.704L222.496 9.52C222.48 9.224 222.376 9.104 222.2 9.104C221.96 9.104 221.68 9.208 221.328 9.488C221.04 9.72 220.592 10.176 219.944 10.888C219.832 11.008 219.712 11.056 219.584 11.056C219.344 11.056 219.136 10.864 219.136 10.632C219.136 10.52 219.176 10.4 219.288 10.288L222.344 7.064L222.336 7.04L220.248 7.408C220.216 7.416 220.184 7.416 220.16 7.416C219.896 7.416 219.736 7.192 219.736 6.976C219.736 6.784 219.848 6.592 220.112 6.552ZM231.896 10.2C231.88 11.096 231.224 11.416 230.456 11.416C229.504 11.416 228.928 11 228.928 10.256C228.928 9.616 229.472 9.088 230.496 9.088C230.624 9.088 230.752 9.096 230.896 9.112C230.84 8.744 230.816 8.472 230.816 8.264C230.816 7.92 230.832 7.744 230.872 7.488C230.912 7.264 231.096 7.168 231.288 7.168C231.512 7.168 231.736 7.296 231.736 7.536C231.736 7.56 231.728 7.576 231.728 7.6C231.696 7.832 231.672 8.032 231.672 8.256C231.672 8.48 231.696 8.792 231.784 9.296C232.296 9.448 232.824 9.68 233.288 9.992C233.44 10.096 233.504 10.232 233.504 10.368C233.504 10.592 233.32 10.808 233.08 10.808C233 10.808 232.904 10.776 232.808 10.712C232.512 10.504 232.2 10.328 231.896 10.2ZM230.456 10.624C230.824 10.624 231.024 10.464 231.024 10.112C231.024 10.04 231.024 9.976 231.016 9.912C230.84 9.88 230.672 9.864 230.512 9.864C229.952 9.864 229.776 10.04 229.776 10.256C229.776 10.488 229.936 10.624 230.456 10.624ZM228.712 5.928C228.832 5.52 228.944 5.112 229.024 4.712C229.072 4.472 229.264 4.368 229.456 4.368C229.68 4.368 229.888 4.504 229.888 4.76C229.888 4.792 229.888 4.832 229.88 4.864C229.816 5.168 229.736 5.488 229.648 5.808C229.888 5.768 230.128 5.728 230.352 5.688C230.384 5.68 230.416 5.68 230.44 5.68C230.696 5.68 230.856 5.888 230.856 6.104C230.856 6.28 230.752 6.456 230.496 6.512C230.152 6.584 229.76 6.648 229.368 6.704C229.032 7.672 228.6 8.632 228.136 9.4C228.016 9.6 227.848 9.688 227.688 9.688C227.448 9.688 227.24 9.504 227.24 9.264C227.24 9.176 227.264 9.08 227.328 8.984C227.736 8.344 228.104 7.6 228.408 6.808C228.112 6.84 227.824 6.856 227.576 6.864C227.304 6.872 227.16 6.648 227.16 6.424C227.16 6.216 227.288 6.016 227.544 6.008C227.904 5.992 228.304 5.968 228.712 5.928ZM232.264 5.832C232.648 5.936 233.144 6.16 233.488 6.376C233.672 6.488 233.752 6.648 233.752 6.792C233.752 7.024 233.56 7.232 233.328 7.232C233.248 7.232 233.168 7.208 233.088 7.16C232.712 6.944 232.296 6.736 231.944 6.608C231.744 6.536 231.656 6.392 231.656 6.248C231.656 6.032 231.84 5.808 232.112 5.808C232.16 5.808 232.208 5.816 232.264 5.832ZM235.536 5.64C235.56 5.384 235.784 5.256 236 5.256C236.24 5.256 236.472 5.4 236.472 5.68C236.472 5.792 236.44 6.184 236.44 6.432C236.44 9.232 237.008 9.968 237.344 9.968C237.536 9.968 237.712 9.84 237.864 9.24C237.928 9 238.096 8.896 238.272 8.896C238.504 8.896 238.728 9.064 238.728 9.328C238.728 9.376 238.728 9.416 238.712 9.464C238.416 10.536 237.904 10.928 237.368 10.928C236.208 10.928 235.504 9.496 235.504 6.456C235.504 6.088 235.52 5.848 235.536 5.64ZM240.48 6.208C241.152 6.832 241.768 7.832 242.032 8.648C242.056 8.712 242.064 8.768 242.064 8.816C242.064 9.08 241.84 9.24 241.616 9.24C241.448 9.24 241.272 9.152 241.192 8.936C240.904 8.2 240.384 7.36 239.808 6.76C239.712 6.664 239.672 6.56 239.672 6.464C239.672 6.24 239.888 6.056 240.128 6.056C240.24 6.056 240.368 6.104 240.48 6.208Z" fill="#282828"/>
<rect x="48.5" y="28" width="8" height="8" rx="2" fill="#69BD83"/>
<path d="M58.628 33.752C58.628 33.032 59.148 32.008 60.516 31.384C60.524 31.024 60.548 30.664 60.58 30.312C60.212 30.328 59.86 30.336 59.548 30.336C59.284 30.336 59.156 30.136 59.156 29.928C59.156 29.728 59.284 29.528 59.548 29.528C59.884 29.528 60.268 29.52 60.66 29.496C60.692 29.2 60.732 28.896 60.78 28.576C60.82 28.344 61.02 28.232 61.212 28.232C61.428 28.232 61.636 28.36 61.636 28.584C61.636 28.608 61.628 28.624 61.628 28.648C61.588 28.92 61.548 29.184 61.508 29.44C62.092 29.392 62.66 29.32 63.108 29.24C63.14 29.232 63.172 29.232 63.204 29.232C63.468 29.232 63.612 29.432 63.612 29.632C63.612 29.808 63.5 29.992 63.26 30.032C62.732 30.128 62.076 30.2 61.412 30.256C61.396 30.536 61.364 30.824 61.348 31.112C61.732 31.024 62.132 30.984 62.524 30.984C62.556 30.88 62.588 30.776 62.612 30.664C62.66 30.464 62.836 30.376 63.012 30.376C63.22 30.376 63.428 30.504 63.428 30.728C63.428 30.76 63.42 30.792 63.412 30.832C63.388 30.912 63.372 30.992 63.348 31.072C64.452 31.328 65.084 32.152 65.084 33.104C65.084 34.272 64.284 35.144 62.948 35.472C62.908 35.48 62.86 35.488 62.82 35.488C62.564 35.488 62.396 35.272 62.396 35.048C62.396 34.88 62.5 34.704 62.74 34.632C63.756 34.32 64.18 33.8 64.18 33.112C64.18 32.56 63.82 32 63.1 31.8C62.756 32.68 62.252 33.52 61.532 34.136C61.564 34.304 61.596 34.464 61.636 34.616C61.644 34.648 61.652 34.688 61.652 34.72C61.652 34.968 61.42 35.112 61.204 35.112C61.036 35.112 60.868 35.024 60.82 34.824L60.772 34.624C60.428 34.832 60.1 34.904 59.756 34.904C59.076 34.904 58.628 34.472 58.628 33.752ZM59.476 33.696C59.476 33.952 59.54 34.064 59.812 34.072C60.052 34.072 60.284 34 60.62 33.784C60.548 33.264 60.508 32.744 60.5 32.224C59.764 32.704 59.468 33.24 59.476 33.696ZM61.388 33.184C61.764 32.752 62.052 32.256 62.268 31.728C61.948 31.744 61.636 31.792 61.324 31.88V32.016C61.324 32.376 61.348 32.776 61.388 33.184ZM70.42 28.672V29.464H70.932C71.396 29.464 71.836 29.472 72.244 29.48C72.516 29.488 72.652 29.696 72.652 29.912C72.652 30.12 72.516 30.32 72.244 30.32C71.932 30.312 71.588 30.304 71.228 30.304C70.972 30.304 70.708 30.312 70.436 30.312C70.436 30.592 70.444 30.872 70.46 31.152C70.988 31.12 71.5 31.08 71.964 31.024H72.028C72.308 31.024 72.452 31.224 72.452 31.432C72.452 31.624 72.324 31.824 72.06 31.856C71.572 31.92 71.044 31.96 70.508 31.992C70.524 32.344 70.556 32.696 70.588 33.048C71.268 33.224 71.948 33.52 72.596 33.92C72.788 34.04 72.868 34.2 72.868 34.352C72.868 34.6 72.66 34.824 72.396 34.824C72.308 34.824 72.22 34.8 72.124 34.736C71.636 34.416 71.14 34.152 70.644 33.968V34.024C70.644 34.888 69.892 35.304 68.964 35.304C67.948 35.304 67.324 34.816 67.324 34.072C67.324 33.376 67.9 32.84 69.044 32.84C69.26 32.84 69.468 32.856 69.692 32.88C69.668 32.592 69.636 32.304 69.628 32.024H69.172C68.692 32.024 68.204 32.008 67.924 31.976C67.66 31.944 67.54 31.744 67.54 31.552C67.54 31.344 67.684 31.128 67.94 31.128H67.996C68.292 31.16 68.692 31.184 69.148 31.184H69.58C69.564 30.896 69.556 30.616 69.548 30.328C68.868 30.344 68.204 30.368 67.644 30.392C67.372 30.4 67.228 30.184 67.228 29.968C67.228 29.76 67.356 29.56 67.628 29.544C68.188 29.52 68.852 29.488 69.532 29.48V28.672C69.532 28.432 69.756 28.312 69.98 28.312C70.196 28.312 70.42 28.432 70.42 28.672ZM68.964 34.48C69.5 34.48 69.764 34.232 69.764 33.896V33.72C69.516 33.672 69.284 33.648 69.044 33.648C68.42 33.648 68.236 33.84 68.236 34.08C68.236 34.296 68.444 34.48 68.964 34.48ZM76.932 31.96H76.948C77.028 31.776 77.084 31.624 77.156 31.408C77.22 31.232 77.364 31.152 77.5 31.152C77.684 31.152 77.86 31.28 77.86 31.472C77.86 31.504 77.852 31.536 77.844 31.568C77.708 32.024 77.492 32.528 77.284 32.888C77.156 33.104 76.94 33.216 76.732 33.216C76.508 33.216 76.292 33.088 76.22 32.832C76.116 32.488 76.028 31.912 76.028 31.456C76.028 30.816 76.124 29.936 76.324 29.104C76.38 28.88 76.588 28.776 76.78 28.776C77.004 28.776 77.22 28.904 77.22 29.136C77.22 29.168 77.212 29.2 77.204 29.24C77.028 29.984 76.908 30.896 76.908 31.376C76.908 31.632 76.916 31.8 76.932 31.96ZM79.012 29.064V29.016C79.012 28.752 79.252 28.608 79.492 28.608C79.708 28.608 79.924 28.728 79.964 28.992C80.076 29.832 80.132 30.704 80.132 31.568C80.132 33.304 79.508 34.512 78.388 35.368C78.276 35.456 78.156 35.496 78.052 35.496C77.804 35.496 77.604 35.288 77.604 35.048C77.604 34.912 77.668 34.768 77.812 34.648C78.724 33.896 79.172 32.92 79.172 31.568C79.172 30.744 79.116 29.912 79.012 29.064ZM86.42 29.672L86.412 29.648C85.524 29.84 85.028 29.92 84.716 29.96H84.66C84.404 29.96 84.26 29.744 84.26 29.528C84.26 29.336 84.372 29.144 84.612 29.112C84.908 29.08 85.412 29.032 86.956 28.704C87.012 28.688 87.068 28.688 87.124 28.688C87.46 28.688 87.692 28.92 87.692 29.2C87.692 29.32 87.644 29.448 87.548 29.568C87.028 30.216 86.308 30.912 85.588 31.416L85.596 31.432C86.604 31.208 87.548 31.016 88.876 30.744C88.908 30.736 88.94 30.736 88.972 30.736C89.252 30.736 89.412 30.944 89.412 31.152C89.412 31.336 89.3 31.512 89.044 31.568C88.5 31.688 87.988 31.832 87.676 31.992C86.844 32.408 86.564 33.024 86.564 33.52C86.564 34.072 86.932 34.4 88.012 34.44C88.308 34.456 88.452 34.664 88.452 34.872C88.452 35.096 88.292 35.328 87.972 35.32C86.524 35.296 85.668 34.632 85.668 33.592C85.668 33.064 85.844 32.528 86.404 32.04L86.396 32.024C85.74 32.176 85.116 32.328 84.396 32.504C84.116 32.576 83.852 32.648 83.58 32.728C83.524 32.744 83.476 32.752 83.428 32.752C83.164 32.752 82.988 32.528 82.988 32.296C82.988 32.128 83.084 31.952 83.316 31.872C83.74 31.72 84.196 31.504 84.564 31.256C85.276 30.776 85.908 30.224 86.42 29.672ZM93.892 28.432C94.468 28.512 95.212 28.72 95.74 28.936C95.94 29.016 96.028 29.184 96.028 29.352C96.028 29.584 95.86 29.824 95.612 29.824C95.564 29.824 95.508 29.808 95.452 29.792C94.948 29.616 94.244 29.416 93.708 29.312C93.476 29.264 93.372 29.088 93.372 28.904C93.372 28.672 93.532 28.424 93.812 28.424C93.844 28.424 93.868 28.432 93.892 28.432ZM92.628 31.664C92.556 31.696 92.484 31.712 92.42 31.712C92.164 31.712 91.98 31.488 91.98 31.264C91.98 31.112 92.068 30.952 92.276 30.864C93.036 30.528 93.956 30.336 94.58 30.336C95.836 30.336 96.428 30.904 96.428 31.976C96.428 33.208 95.868 34.488 94.66 35.336C94.556 35.408 94.452 35.44 94.356 35.44C94.1 35.44 93.9 35.232 93.9 35C93.9 34.864 93.964 34.72 94.132 34.6C95.132 33.864 95.5 32.976 95.5 31.984C95.5 31.464 95.284 31.192 94.596 31.192C94.116 31.192 93.372 31.344 92.628 31.664ZM104.34 32.336H101.068C100.228 32.336 99.932 32.048 99.932 31.408V29.544C99.932 28.904 100.228 28.616 101.068 28.616H104.34C105.188 28.616 105.484 28.904 105.484 29.544V31.408C105.484 32.184 105.036 32.336 104.34 32.336ZM101.14 31.632H102.22V30.8H100.78V31.352C100.78 31.608 100.916 31.632 101.14 31.632ZM100.78 30.12H102.22V29.32H101.14C100.844 29.32 100.78 29.4 100.78 29.6V30.12ZM103.06 29.32V30.12H104.636V29.6C104.636 29.4 104.564 29.32 104.276 29.32H103.06ZM104.636 30.8H103.06V31.632H104.276C104.564 31.632 104.636 31.56 104.636 31.352V30.8ZM100.884 34.744V33.16C100.884 32.92 101.1 32.808 101.324 32.808C101.54 32.808 101.756 32.92 101.756 33.16V34.592C101.756 34.792 101.836 34.84 102.668 34.84C103.644 34.84 103.796 34.728 103.844 34.28C103.868 34.048 104.068 33.936 104.268 33.936C104.484 33.936 104.7 34.064 104.7 34.312V34.352C104.62 35.248 104.22 35.576 102.668 35.576C101.116 35.576 100.884 35.408 100.884 34.744ZM99.692 33.392C99.764 33.208 99.924 33.128 100.084 33.128C100.308 33.128 100.524 33.28 100.524 33.52C100.524 33.568 100.516 33.624 100.492 33.68C100.332 34.096 100.116 34.496 99.916 34.792C99.812 34.952 99.668 35.016 99.524 35.016C99.3 35.016 99.092 34.848 99.092 34.624C99.092 34.552 99.116 34.464 99.172 34.376C99.372 34.08 99.548 33.752 99.692 33.392ZM102.78 32.608C102.98 32.744 103.252 32.952 103.428 33.128C103.54 33.232 103.58 33.344 103.58 33.448C103.58 33.664 103.388 33.848 103.172 33.848C103.076 33.848 102.972 33.816 102.876 33.728C102.684 33.56 102.476 33.36 102.276 33.2C102.164 33.112 102.116 33 102.116 32.896C102.116 32.696 102.292 32.52 102.516 32.52C102.596 32.52 102.692 32.544 102.78 32.608ZM105.412 33.168C105.684 33.448 105.948 33.784 106.14 34.088C106.188 34.168 106.212 34.248 106.212 34.328C106.212 34.568 105.996 34.76 105.772 34.76C105.644 34.76 105.508 34.704 105.412 34.552C105.236 34.288 104.988 33.952 104.74 33.672C104.66 33.584 104.628 33.488 104.628 33.408C104.628 33.192 104.836 33.016 105.068 33.016C105.188 33.016 105.308 33.064 105.412 33.168ZM109.82 30.944L109.804 31.24C110.572 30.608 111.38 30.288 112.108 30.288C113.3 30.288 114.116 31.112 114.116 32.216C114.116 33.584 113.252 34.512 111.86 34.88C111.812 34.888 111.772 34.896 111.732 34.896C111.452 34.896 111.284 34.672 111.284 34.456C111.284 34.272 111.396 34.088 111.652 34.016C112.684 33.72 113.18 33.184 113.18 32.224C113.18 31.544 112.756 31.112 112.108 31.112C111.396 31.112 110.572 31.496 109.788 32.256L109.78 35.016C109.78 35.264 109.564 35.392 109.348 35.392C109.132 35.392 108.924 35.264 108.924 35.016L108.948 33.192L108.252 34.056C108.156 34.176 108.044 34.224 107.932 34.224C107.708 34.224 107.5 34.032 107.5 33.808C107.5 33.72 107.532 33.632 107.596 33.552C107.988 33.072 108.484 32.384 108.964 31.616L108.98 31.064L108.076 31.232C108.044 31.24 108.02 31.24 107.996 31.24C107.756 31.24 107.62 31.024 107.62 30.816C107.62 30.64 107.724 30.456 107.932 30.424L108.996 30.248L109.012 28.912C109.012 28.664 109.236 28.536 109.444 28.536C109.66 28.536 109.876 28.664 109.868 28.912L109.844 30.152C110.036 30.168 110.108 30.296 110.108 30.408C110.108 30.552 110.036 30.68 109.82 30.944ZM120.396 34.2C120.38 35.096 119.724 35.416 118.956 35.416C118.004 35.416 117.428 35 117.428 34.256C117.428 33.616 117.972 33.088 118.996 33.088C119.124 33.088 119.252 33.096 119.396 33.112C119.34 32.744 119.316 32.472 119.316 32.264C119.316 31.92 119.332 31.744 119.372 31.488C119.412 31.264 119.596 31.168 119.788 31.168C120.012 31.168 120.236 31.296 120.236 31.536C120.236 31.56 120.228 31.576 120.228 31.6C120.196 31.832 120.172 32.032 120.172 32.256C120.172 32.48 120.196 32.792 120.284 33.296C120.796 33.448 121.324 33.68 121.788 33.992C121.94 34.096 122.004 34.232 122.004 34.368C122.004 34.592 121.82 34.808 121.58 34.808C121.5 34.808 121.404 34.776 121.308 34.712C121.012 34.504 120.7 34.328 120.396 34.2ZM118.956 34.624C119.324 34.624 119.524 34.464 119.524 34.112C119.524 34.04 119.524 33.976 119.516 33.912C119.34 33.88 119.172 33.864 119.012 33.864C118.452 33.864 118.276 34.04 118.276 34.256C118.276 34.488 118.436 34.624 118.956 34.624ZM117.212 29.928C117.332 29.52 117.444 29.112 117.524 28.712C117.572 28.472 117.764 28.368 117.956 28.368C118.18 28.368 118.388 28.504 118.388 28.76C118.388 28.792 118.388 28.832 118.38 28.864C118.316 29.168 118.236 29.488 118.148 29.808C118.388 29.768 118.628 29.728 118.852 29.688C118.884 29.68 118.916 29.68 118.94 29.68C119.196 29.68 119.356 29.888 119.356 30.104C119.356 30.28 119.252 30.456 118.996 30.512C118.652 30.584 118.26 30.648 117.868 30.704C117.532 31.672 117.1 32.632 116.636 33.4C116.516 33.6 116.348 33.688 116.188 33.688C115.948 33.688 115.74 33.504 115.74 33.264C115.74 33.176 115.764 33.08 115.828 32.984C116.236 32.344 116.604 31.6 116.908 30.808C116.612 30.84 116.324 30.856 116.076 30.864C115.804 30.872 115.66 30.648 115.66 30.424C115.66 30.216 115.788 30.016 116.044 30.008C116.404 29.992 116.804 29.968 117.212 29.928ZM120.764 29.832C121.148 29.936 121.644 30.16 121.988 30.376C122.172 30.488 122.252 30.648 122.252 30.792C122.252 31.024 122.06 31.232 121.828 31.232C121.748 31.232 121.668 31.208 121.588 31.16C121.212 30.944 120.796 30.736 120.444 30.608C120.244 30.536 120.156 30.392 120.156 30.248C120.156 30.032 120.34 29.808 120.612 29.808C120.66 29.808 120.708 29.816 120.764 29.832ZM124.036 29.64C124.06 29.384 124.284 29.256 124.5 29.256C124.74 29.256 124.972 29.4 124.972 29.68C124.972 29.792 124.94 30.184 124.94 30.432C124.94 33.232 125.508 33.968 125.844 33.968C126.036 33.968 126.212 33.84 126.364 33.24C126.428 33 126.596 32.896 126.772 32.896C127.004 32.896 127.228 33.064 127.228 33.328C127.228 33.376 127.228 33.416 127.212 33.464C126.916 34.536 126.404 34.928 125.868 34.928C124.708 34.928 124.004 33.496 124.004 30.456C124.004 30.088 124.02 29.848 124.036 29.64ZM128.98 30.208C129.652 30.832 130.268 31.832 130.532 32.648C130.556 32.712 130.564 32.768 130.564 32.816C130.564 33.08 130.34 33.24 130.116 33.24C129.948 33.24 129.772 33.152 129.692 32.936C129.404 32.2 128.884 31.36 128.308 30.76C128.212 30.664 128.172 30.56 128.172 30.464C128.172 30.24 128.388 30.056 128.628 30.056C128.74 30.056 128.868 30.104 128.98 30.208Z" fill="#282828"/>
<rect x="139.5" y="28" width="8" height="8" rx="2" fill="#808080"/>
<path d="M153.18 28.672V29.464H153.692C154.156 29.464 154.596 29.472 155.004 29.48C155.276 29.488 155.412 29.696 155.412 29.912C155.412 30.12 155.276 30.32 155.004 30.32C154.692 30.312 154.348 30.304 153.988 30.304C153.732 30.304 153.468 30.312 153.196 30.312C153.196 30.592 153.204 30.872 153.22 31.152C153.748 31.12 154.26 31.08 154.724 31.024H154.788C155.068 31.024 155.212 31.224 155.212 31.432C155.212 31.624 155.084 31.824 154.82 31.856C154.332 31.92 153.804 31.96 153.268 31.992C153.284 32.344 153.316 32.696 153.348 33.048C154.028 33.224 154.708 33.52 155.356 33.92C155.548 34.04 155.628 34.2 155.628 34.352C155.628 34.6 155.42 34.824 155.156 34.824C155.068 34.824 154.98 34.8 154.884 34.736C154.396 34.416 153.9 34.152 153.404 33.968V34.024C153.404 34.888 152.652 35.304 151.724 35.304C150.708 35.304 150.084 34.816 150.084 34.072C150.084 33.376 150.66 32.84 151.804 32.84C152.02 32.84 152.228 32.856 152.452 32.88C152.428 32.592 152.396 32.304 152.388 32.024H151.932C151.452 32.024 150.964 32.008 150.684 31.976C150.42 31.944 150.3 31.744 150.3 31.552C150.3 31.344 150.444 31.128 150.7 31.128H150.756C151.052 31.16 151.452 31.184 151.908 31.184H152.34C152.324 30.896 152.316 30.616 152.308 30.328C151.628 30.344 150.964 30.368 150.404 30.392C150.132 30.4 149.988 30.184 149.988 29.968C149.988 29.76 150.116 29.56 150.388 29.544C150.948 29.52 151.612 29.488 152.292 29.48V28.672C152.292 28.432 152.516 28.312 152.74 28.312C152.956 28.312 153.18 28.432 153.18 28.672ZM151.724 34.48C152.26 34.48 152.524 34.232 152.524 33.896V33.72C152.276 33.672 152.044 33.648 151.804 33.648C151.18 33.648 150.996 33.84 150.996 34.08C150.996 34.296 151.204 34.48 151.724 34.48ZM161.676 31.096C162.844 31.096 163.644 31.728 163.644 32.736C163.644 33.984 162.708 34.864 160.916 35.12C160.892 35.128 160.86 35.128 160.836 35.128C160.596 35.128 160.468 34.928 160.468 34.736C160.468 34.568 160.572 34.4 160.796 34.36C162.316 34.096 162.836 33.584 162.836 32.736C162.836 32.224 162.468 31.824 161.676 31.824C160.852 31.824 159.82 32.088 158.644 32.608C158.58 32.64 158.516 32.648 158.452 32.648C158.228 32.648 158.076 32.464 158.076 32.272C158.076 32.128 158.156 31.976 158.348 31.896C159.532 31.376 160.732 31.096 161.676 31.096ZM167.132 30.904C166.804 30.952 166.476 31 166.148 31C165.884 31 165.748 30.8 165.748 30.584C165.748 30.368 165.884 30.16 166.156 30.144C166.476 30.128 166.86 30.08 167.292 30.008C167.364 29.568 167.396 29.216 167.444 28.776C167.468 28.528 167.676 28.408 167.884 28.408C168.108 28.408 168.332 28.552 168.332 28.808V28.856C168.292 29.24 168.252 29.528 168.204 29.832C168.428 29.784 168.66 29.728 168.892 29.672C168.932 29.664 168.972 29.656 169.012 29.656C169.26 29.656 169.412 29.864 169.412 30.08C169.412 30.248 169.316 30.416 169.1 30.472C168.732 30.576 168.38 30.664 168.06 30.736C167.772 32.304 167.388 33.784 166.94 34.944C166.844 35.184 166.644 35.296 166.452 35.296C166.228 35.296 166.012 35.136 166.012 34.888C166.012 34.816 166.028 34.744 166.06 34.664C166.5 33.576 166.852 32.304 167.132 30.904ZM168.74 33.648C168.74 33.376 168.964 33.224 169.188 33.224C169.372 33.224 169.548 33.328 169.572 33.56C169.628 34.072 169.916 34.216 170.788 34.216C171.196 34.216 171.54 34.184 171.86 34.136C171.884 34.128 171.924 34.128 171.948 34.128C172.22 34.128 172.372 34.36 172.372 34.576C172.372 34.768 172.252 34.96 172.004 35C171.66 35.056 171.26 35.088 170.804 35.088C169.684 35.088 169.188 34.8 168.932 34.392C168.804 34.192 168.74 33.872 168.74 33.648ZM169.54 31.032C170.164 30.904 170.956 30.816 171.596 30.816C171.884 30.816 172.028 31.032 172.028 31.248C172.028 31.456 171.892 31.656 171.62 31.656C170.98 31.656 170.236 31.752 169.668 31.864C169.636 31.872 169.596 31.872 169.572 31.872C169.324 31.872 169.172 31.672 169.172 31.456C169.172 31.272 169.284 31.088 169.54 31.032ZM177.5 28.672C177.596 28.52 177.74 28.456 177.876 28.456C178.116 28.456 178.356 28.64 178.356 28.904C178.356 28.992 178.324 29.088 178.26 29.192C177.772 29.912 177.06 30.784 176.444 31.448C176.316 31.584 176.276 31.672 176.276 31.8C176.276 31.936 176.34 32.032 176.468 32.176C177.18 32.928 177.9 33.824 178.5 34.664C178.58 34.784 178.62 34.896 178.62 34.992C178.62 35.264 178.372 35.456 178.116 35.456C177.948 35.456 177.788 35.376 177.668 35.192C177.156 34.392 176.42 33.416 175.772 32.696C175.484 32.368 175.348 32.096 175.348 31.808C175.348 31.544 175.436 31.272 175.724 30.976C176.34 30.352 177.004 29.44 177.5 28.672ZM185.5 29.672L185.492 29.648C184.604 29.84 184.108 29.92 183.796 29.96H183.74C183.484 29.96 183.34 29.744 183.34 29.528C183.34 29.336 183.452 29.144 183.692 29.112C183.988 29.08 184.492 29.032 186.036 28.704C186.092 28.688 186.148 28.688 186.204 28.688C186.54 28.688 186.772 28.92 186.772 29.2C186.772 29.32 186.724 29.448 186.628 29.568C186.108 30.216 185.388 30.912 184.668 31.416L184.676 31.432C185.684 31.208 186.628 31.016 187.956 30.744C187.988 30.736 188.02 30.736 188.052 30.736C188.332 30.736 188.492 30.944 188.492 31.152C188.492 31.336 188.38 31.512 188.124 31.568C187.58 31.688 187.068 31.832 186.756 31.992C185.924 32.408 185.644 33.024 185.644 33.52C185.644 34.072 186.012 34.4 187.092 34.44C187.388 34.456 187.532 34.664 187.532 34.872C187.532 35.096 187.372 35.328 187.052 35.32C185.604 35.296 184.748 34.632 184.748 33.592C184.748 33.064 184.924 32.528 185.484 32.04L185.476 32.024C184.82 32.176 184.196 32.328 183.476 32.504C183.196 32.576 182.932 32.648 182.66 32.728C182.604 32.744 182.556 32.752 182.508 32.752C182.244 32.752 182.068 32.528 182.068 32.296C182.068 32.128 182.164 31.952 182.396 31.872C182.82 31.72 183.276 31.504 183.644 31.256C184.356 30.776 184.988 30.224 185.5 29.672ZM192.972 28.432C193.548 28.512 194.292 28.72 194.82 28.936C195.02 29.016 195.108 29.184 195.108 29.352C195.108 29.584 194.94 29.824 194.692 29.824C194.644 29.824 194.588 29.808 194.532 29.792C194.028 29.616 193.324 29.416 192.788 29.312C192.556 29.264 192.452 29.088 192.452 28.904C192.452 28.672 192.612 28.424 192.892 28.424C192.924 28.424 192.948 28.432 192.972 28.432ZM191.708 31.664C191.636 31.696 191.564 31.712 191.5 31.712C191.244 31.712 191.06 31.488 191.06 31.264C191.06 31.112 191.148 30.952 191.356 30.864C192.116 30.528 193.036 30.336 193.66 30.336C194.916 30.336 195.508 30.904 195.508 31.976C195.508 33.208 194.948 34.488 193.74 35.336C193.636 35.408 193.532 35.44 193.436 35.44C193.18 35.44 192.98 35.232 192.98 35C192.98 34.864 193.044 34.72 193.212 34.6C194.212 33.864 194.58 32.976 194.58 31.984C194.58 31.464 194.364 31.192 193.676 31.192C193.196 31.192 192.452 31.344 191.708 31.664ZM203.42 32.336H200.148C199.308 32.336 199.012 32.048 199.012 31.408V29.544C199.012 28.904 199.308 28.616 200.148 28.616H203.42C204.268 28.616 204.564 28.904 204.564 29.544V31.408C204.564 32.184 204.116 32.336 203.42 32.336ZM200.22 31.632H201.3V30.8H199.86V31.352C199.86 31.608 199.996 31.632 200.22 31.632ZM199.86 30.12H201.3V29.32H200.22C199.924 29.32 199.86 29.4 199.86 29.6V30.12ZM202.14 29.32V30.12H203.716V29.6C203.716 29.4 203.644 29.32 203.356 29.32H202.14ZM203.716 30.8H202.14V31.632H203.356C203.644 31.632 203.716 31.56 203.716 31.352V30.8ZM199.964 34.744V33.16C199.964 32.92 200.18 32.808 200.404 32.808C200.62 32.808 200.836 32.92 200.836 33.16V34.592C200.836 34.792 200.916 34.84 201.748 34.84C202.724 34.84 202.876 34.728 202.924 34.28C202.948 34.048 203.148 33.936 203.348 33.936C203.564 33.936 203.78 34.064 203.78 34.312V34.352C203.7 35.248 203.3 35.576 201.748 35.576C200.196 35.576 199.964 35.408 199.964 34.744ZM198.772 33.392C198.844 33.208 199.004 33.128 199.164 33.128C199.388 33.128 199.604 33.28 199.604 33.52C199.604 33.568 199.596 33.624 199.572 33.68C199.412 34.096 199.196 34.496 198.996 34.792C198.892 34.952 198.748 35.016 198.604 35.016C198.38 35.016 198.172 34.848 198.172 34.624C198.172 34.552 198.196 34.464 198.252 34.376C198.452 34.08 198.628 33.752 198.772 33.392ZM201.86 32.608C202.06 32.744 202.332 32.952 202.508 33.128C202.62 33.232 202.66 33.344 202.66 33.448C202.66 33.664 202.468 33.848 202.252 33.848C202.156 33.848 202.052 33.816 201.956 33.728C201.764 33.56 201.556 33.36 201.356 33.2C201.244 33.112 201.196 33 201.196 32.896C201.196 32.696 201.372 32.52 201.596 32.52C201.676 32.52 201.772 32.544 201.86 32.608ZM204.492 33.168C204.764 33.448 205.028 33.784 205.22 34.088C205.268 34.168 205.292 34.248 205.292 34.328C205.292 34.568 205.076 34.76 204.852 34.76C204.724 34.76 204.588 34.704 204.492 34.552C204.316 34.288 204.068 33.952 203.82 33.672C203.74 33.584 203.708 33.488 203.708 33.408C203.708 33.192 203.916 33.016 204.148 33.016C204.268 33.016 204.388 33.064 204.492 33.168ZM208.9 30.944L208.884 31.24C209.652 30.608 210.46 30.288 211.188 30.288C212.38 30.288 213.196 31.112 213.196 32.216C213.196 33.584 212.332 34.512 210.94 34.88C210.892 34.888 210.852 34.896 210.812 34.896C210.532 34.896 210.364 34.672 210.364 34.456C210.364 34.272 210.476 34.088 210.732 34.016C211.764 33.72 212.26 33.184 212.26 32.224C212.26 31.544 211.836 31.112 211.188 31.112C210.476 31.112 209.652 31.496 208.868 32.256L208.86 35.016C208.86 35.264 208.644 35.392 208.428 35.392C208.212 35.392 208.004 35.264 208.004 35.016L208.028 33.192L207.332 34.056C207.236 34.176 207.124 34.224 207.012 34.224C206.788 34.224 206.58 34.032 206.58 33.808C206.58 33.72 206.612 33.632 206.676 33.552C207.068 33.072 207.564 32.384 208.044 31.616L208.06 31.064L207.156 31.232C207.124 31.24 207.1 31.24 207.076 31.24C206.836 31.24 206.7 31.024 206.7 30.816C206.7 30.64 206.804 30.456 207.012 30.424L208.076 30.248L208.092 28.912C208.092 28.664 208.316 28.536 208.524 28.536C208.74 28.536 208.956 28.664 208.948 28.912L208.924 30.152C209.116 30.168 209.188 30.296 209.188 30.408C209.188 30.552 209.116 30.68 208.9 30.944ZM219.476 34.2C219.46 35.096 218.804 35.416 218.036 35.416C217.084 35.416 216.508 35 216.508 34.256C216.508 33.616 217.052 33.088 218.076 33.088C218.204 33.088 218.332 33.096 218.476 33.112C218.42 32.744 218.396 32.472 218.396 32.264C218.396 31.92 218.412 31.744 218.452 31.488C218.492 31.264 218.676 31.168 218.868 31.168C219.092 31.168 219.316 31.296 219.316 31.536C219.316 31.56 219.308 31.576 219.308 31.6C219.276 31.832 219.252 32.032 219.252 32.256C219.252 32.48 219.276 32.792 219.364 33.296C219.876 33.448 220.404 33.68 220.868 33.992C221.02 34.096 221.084 34.232 221.084 34.368C221.084 34.592 220.9 34.808 220.66 34.808C220.58 34.808 220.484 34.776 220.388 34.712C220.092 34.504 219.78 34.328 219.476 34.2ZM218.036 34.624C218.404 34.624 218.604 34.464 218.604 34.112C218.604 34.04 218.604 33.976 218.596 33.912C218.42 33.88 218.252 33.864 218.092 33.864C217.532 33.864 217.356 34.04 217.356 34.256C217.356 34.488 217.516 34.624 218.036 34.624ZM216.292 29.928C216.412 29.52 216.524 29.112 216.604 28.712C216.652 28.472 216.844 28.368 217.036 28.368C217.26 28.368 217.468 28.504 217.468 28.76C217.468 28.792 217.468 28.832 217.46 28.864C217.396 29.168 217.316 29.488 217.228 29.808C217.468 29.768 217.708 29.728 217.932 29.688C217.964 29.68 217.996 29.68 218.02 29.68C218.276 29.68 218.436 29.888 218.436 30.104C218.436 30.28 218.332 30.456 218.076 30.512C217.732 30.584 217.34 30.648 216.948 30.704C216.612 31.672 216.18 32.632 215.716 33.4C215.596 33.6 215.428 33.688 215.268 33.688C215.028 33.688 214.82 33.504 214.82 33.264C214.82 33.176 214.844 33.08 214.908 32.984C215.316 32.344 215.684 31.6 215.988 30.808C215.692 30.84 215.404 30.856 215.156 30.864C214.884 30.872 214.74 30.648 214.74 30.424C214.74 30.216 214.868 30.016 215.124 30.008C215.484 29.992 215.884 29.968 216.292 29.928ZM219.844 29.832C220.228 29.936 220.724 30.16 221.068 30.376C221.252 30.488 221.332 30.648 221.332 30.792C221.332 31.024 221.14 31.232 220.908 31.232C220.828 31.232 220.748 31.208 220.668 31.16C220.292 30.944 219.876 30.736 219.524 30.608C219.324 30.536 219.236 30.392 219.236 30.248C219.236 30.032 219.42 29.808 219.692 29.808C219.74 29.808 219.788 29.816 219.844 29.832ZM223.116 29.64C223.14 29.384 223.364 29.256 223.58 29.256C223.82 29.256 224.052 29.4 224.052 29.68C224.052 29.792 224.02 30.184 224.02 30.432C224.02 33.232 224.588 33.968 224.924 33.968C225.116 33.968 225.292 33.84 225.444 33.24C225.508 33 225.676 32.896 225.852 32.896C226.084 32.896 226.308 33.064 226.308 33.328C226.308 33.376 226.308 33.416 226.292 33.464C225.996 34.536 225.484 34.928 224.948 34.928C223.788 34.928 223.084 33.496 223.084 30.456C223.084 30.088 223.1 29.848 223.116 29.64ZM228.06 30.208C228.732 30.832 229.348 31.832 229.612 32.648C229.636 32.712 229.644 32.768 229.644 32.816C229.644 33.08 229.42 33.24 229.196 33.24C229.028 33.24 228.852 33.152 228.772 32.936C228.484 32.2 227.964 31.36 227.388 30.76C227.292 30.664 227.252 30.56 227.252 30.464C227.252 30.24 227.468 30.056 227.708 30.056C227.82 30.056 227.948 30.104 228.06 30.208Z" fill="#282828"/>
</svg>
