<svg width="305" height="40" viewBox="0 0 305 40" fill="none" xmlns="http://www.w3.org/2000/svg">
<rect x="28.5" y="4" width="8" height="8" rx="2" fill="#ED6D46"/>
<path d="M40.9061 7.688C40.7301 6.92 40.6101 5.968 40.6101 4.864C40.6101 4.576 40.8421 4.432 41.0741 4.432C41.3061 4.432 41.5381 4.576 41.5381 4.864C41.5381 5.76 41.6101 6.56 41.7221 7.208C42.2101 6.968 42.7541 6.752 43.2981 6.584C43.3461 6.568 43.3941 6.56 43.4421 6.56C43.6901 6.56 43.8581 6.784 43.8581 7.008C43.8581 7.176 43.7701 7.336 43.5621 7.4C42.8501 7.624 42.0501 7.952 41.4581 8.328C40.7701 8.776 40.5301 9.216 40.5301 9.624C40.5301 10.12 40.8581 10.376 42.1301 10.376C42.7701 10.376 43.3381 10.32 43.7861 10.232C43.8261 10.224 43.8581 10.224 43.8901 10.224C44.1701 10.224 44.3221 10.44 44.3221 10.664C44.3221 10.864 44.2101 11.056 43.9621 11.112C43.4181 11.224 42.8021 11.264 42.1221 11.264C40.4421 11.264 39.6021 10.752 39.6021 9.672C39.6021 9.016 39.9061 8.368 40.9061 7.688ZM50.5941 6.208V6.192C49.6341 6.32 48.3621 6.512 47.2101 6.68C47.1781 6.688 47.1541 6.688 47.1301 6.688C46.8421 6.688 46.6821 6.456 46.6821 6.232C46.6821 6.024 46.8101 5.832 47.0981 5.792C48.7621 5.584 50.8261 5.352 52.4901 5.2H52.5381C52.8181 5.2 52.9701 5.408 52.9701 5.624C52.9701 5.816 52.8501 6.008 52.6021 6.056C52.3221 6.104 52.0181 6.208 51.7221 6.376C50.4741 7.088 50.2101 7.92 50.2101 8.68C50.2101 9.568 50.8261 10.112 51.9461 10.248C52.2421 10.288 52.3781 10.504 52.3781 10.72C52.3781 10.96 52.2021 11.192 51.9061 11.192C51.7861 11.192 51.4581 11.144 51.3141 11.112C50.1301 10.816 49.2821 9.936 49.2821 8.704C49.2821 7.864 49.6901 6.92 50.5941 6.208ZM58.1381 4.808L57.9541 5.88H58.0101C58.3221 5.88 58.5861 5.864 58.8341 5.84H58.8741C59.1301 5.84 59.2581 6.048 59.2581 6.264C59.2581 6.464 59.1461 6.648 58.9141 6.672C58.6661 6.696 58.4261 6.712 58.0261 6.712H57.8021C57.7541 7.088 57.6901 7.456 57.6341 7.832H57.7621C58.1861 7.832 58.6581 7.792 59.0181 7.728C59.0421 7.72 59.0741 7.72 59.0981 7.72C59.3461 7.72 59.4901 7.936 59.4901 8.144C59.4901 8.336 59.3861 8.52 59.1461 8.568C58.7621 8.648 58.2181 8.696 57.7541 8.696H57.5301C57.5061 8.976 57.4981 9.2 57.4981 9.392C57.4981 10.256 57.8581 10.552 58.5621 10.552C59.4421 10.552 59.9141 10.24 59.9141 9.448C59.9141 9.264 59.8741 9.04 59.8181 8.856C59.8101 8.816 59.8021 8.776 59.8021 8.736C59.8021 8.496 60.0261 8.352 60.2581 8.352C60.4581 8.352 60.6581 8.456 60.7301 8.696C60.8101 8.944 60.8501 9.192 60.8501 9.432C60.8501 10.8 59.9221 11.464 58.5781 11.464C57.3301 11.464 56.5861 10.824 56.5861 9.456C56.5861 9.216 56.5941 8.96 56.6261 8.648C56.2501 8.608 55.9381 8.56 55.6661 8.488C55.4341 8.424 55.3301 8.24 55.3301 8.056C55.3301 7.832 55.4821 7.616 55.7381 7.616C55.7861 7.616 55.8341 7.616 55.8821 7.632C56.1301 7.696 56.4021 7.744 56.7301 7.784C56.7781 7.408 56.8341 7.04 56.8981 6.664C56.5861 6.64 56.3061 6.592 56.0581 6.536C55.8181 6.48 55.7141 6.304 55.7141 6.136C55.7141 5.912 55.8741 5.704 56.1221 5.704C56.1541 5.704 56.1861 5.704 56.2181 5.712C56.4741 5.768 56.7381 5.808 57.0421 5.84L57.2421 4.688C57.2821 4.456 57.4901 4.352 57.6981 4.352C57.9221 4.352 58.1461 4.48 58.1461 4.728C58.1461 4.752 58.1461 4.776 58.1381 4.808ZM67.7541 10.2C67.7381 11.096 67.0821 11.416 66.3141 11.416C65.3621 11.416 64.7861 11 64.7861 10.256C64.7861 9.616 65.3301 9.088 66.3541 9.088C66.4821 9.088 66.6101 9.096 66.7541 9.112C66.6981 8.744 66.6741 8.472 66.6741 8.264C66.6741 7.92 66.6901 7.744 66.7301 7.488C66.7701 7.264 66.9541 7.168 67.1461 7.168C67.3701 7.168 67.5941 7.296 67.5941 7.536C67.5941 7.56 67.5861 7.576 67.5861 7.6C67.5541 7.832 67.5301 8.032 67.5301 8.256C67.5301 8.48 67.5541 8.792 67.6421 9.296C68.1541 9.448 68.6821 9.68 69.1461 9.992C69.2981 10.096 69.3621 10.232 69.3621 10.368C69.3621 10.592 69.1781 10.808 68.9381 10.808C68.8581 10.808 68.7621 10.776 68.6661 10.712C68.3701 10.504 68.0581 10.328 67.7541 10.2ZM66.3141 10.624C66.6821 10.624 66.8821 10.464 66.8821 10.112C66.8821 10.04 66.8821 9.976 66.8741 9.912C66.6981 9.88 66.5301 9.864 66.3701 9.864C65.8101 9.864 65.6341 10.04 65.6341 10.256C65.6341 10.488 65.7941 10.624 66.3141 10.624ZM64.5701 5.928C64.6901 5.52 64.8021 5.112 64.8821 4.712C64.9301 4.472 65.1221 4.368 65.3141 4.368C65.5381 4.368 65.7461 4.504 65.7461 4.76C65.7461 4.792 65.7461 4.832 65.7381 4.864C65.6741 5.168 65.5941 5.488 65.5061 5.808C65.7461 5.768 65.9861 5.728 66.2101 5.688C66.2421 5.68 66.2741 5.68 66.2981 5.68C66.5541 5.68 66.7141 5.888 66.7141 6.104C66.7141 6.28 66.6101 6.456 66.3541 6.512C66.0101 6.584 65.6181 6.648 65.2261 6.704C64.8901 7.672 64.4581 8.632 63.9941 9.4C63.8741 9.6 63.7061 9.688 63.5461 9.688C63.3061 9.688 63.0981 9.504 63.0981 9.264C63.0981 9.176 63.1221 9.08 63.1861 8.984C63.5941 8.344 63.9621 7.6 64.2661 6.808C63.9701 6.84 63.6821 6.856 63.4341 6.864C63.1621 6.872 63.0181 6.648 63.0181 6.424C63.0181 6.216 63.1461 6.016 63.4021 6.008C63.7621 5.992 64.1621 5.968 64.5701 5.928ZM68.1221 5.832C68.5061 5.936 69.0021 6.16 69.3461 6.376C69.5301 6.488 69.6101 6.648 69.6101 6.792C69.6101 7.024 69.4181 7.232 69.1861 7.232C69.1061 7.232 69.0261 7.208 68.9461 7.16C68.5701 6.944 68.1541 6.736 67.8021 6.608C67.6021 6.536 67.5141 6.392 67.5141 6.248C67.5141 6.032 67.6981 5.808 67.9701 5.808C68.0181 5.808 68.0661 5.816 68.1221 5.832ZM75.8661 9.904H75.9541C76.0901 9.904 76.1221 9.88 76.1221 9.736V9.056C76.1221 8.856 76.2901 8.752 76.4501 8.752C76.6181 8.752 76.7781 8.856 76.7781 9.056V9.808C76.7781 10.368 76.6021 10.528 76.0661 10.528H74.8901C74.3541 10.528 74.1781 10.368 74.1781 9.808V9.056C74.1781 8.856 74.3461 8.752 74.5061 8.752C74.6741 8.752 74.8341 8.856 74.8341 9.056V9.736C74.8341 9.88 74.8661 9.904 75.0021 9.904H75.0821V8.368H74.1781C74.0021 8.368 73.9461 8.416 73.9461 8.576V11.272C73.9461 11.496 73.7381 11.616 73.5301 11.616C73.3221 11.616 73.1141 11.496 73.1141 11.272V8.464C73.1141 7.928 73.4101 7.68 74.0261 7.68H75.0821V7.152H73.0581C72.8501 7.152 72.7381 6.976 72.7381 6.8C72.7381 6.624 72.8501 6.448 73.0581 6.448H74.2261V5.856H73.5061C73.2981 5.856 73.1861 5.68 73.1861 5.504C73.1861 5.328 73.2981 5.152 73.5061 5.152H74.2261V4.6C74.2261 4.368 74.4261 4.256 74.6261 4.256C74.8261 4.256 75.0261 4.368 75.0261 4.6V5.152H75.9301V4.6C75.9301 4.368 76.1301 4.256 76.3301 4.256C76.5301 4.256 76.7301 4.368 76.7301 4.6V5.152H77.4901C77.7061 5.152 77.8181 5.328 77.8181 5.504C77.8181 5.68 77.7061 5.856 77.4901 5.856H76.7301V6.448H77.9061C78.1221 6.448 78.2341 6.624 78.2341 6.8C78.2341 6.976 78.1221 7.152 77.9061 7.152H75.8661V7.68H76.9301C77.5461 7.68 77.8421 7.928 77.8421 8.464V10.744C77.8421 11.304 77.5621 11.536 77.0981 11.536C76.9221 11.536 76.7541 11.528 76.6261 11.512C76.3861 11.488 76.2741 11.312 76.2741 11.136C76.2741 10.952 76.4021 10.768 76.6261 10.768H76.6821C76.7461 10.776 76.8101 10.784 76.8901 10.784C76.9781 10.784 77.0101 10.752 77.0101 10.624V8.576C77.0101 8.416 76.9541 8.368 76.7781 8.368H75.8661V9.904ZM75.9301 5.856H75.0261V6.448H75.9301V5.856ZM71.8661 8.88C71.9301 8.688 72.0901 8.6 72.2661 8.6C72.4901 8.6 72.7221 8.752 72.7221 9C72.7221 9.04 72.7141 9.08 72.7061 9.12C72.4901 9.872 72.1381 10.696 71.8101 11.248C71.7061 11.424 71.5381 11.504 71.3861 11.504C71.1541 11.504 70.9461 11.336 70.9461 11.104C70.9461 11.032 70.9621 10.952 71.0181 10.864C71.3301 10.344 71.6501 9.576 71.8661 8.88ZM71.9861 4.504C72.2101 4.672 72.4501 4.896 72.6261 5.096C72.7141 5.2 72.7541 5.312 72.7541 5.408C72.7541 5.648 72.5461 5.832 72.3221 5.832C72.2101 5.832 72.0981 5.784 72.0021 5.672C71.8181 5.472 71.5861 5.232 71.4101 5.08C71.2981 4.984 71.2581 4.88 71.2581 4.784C71.2581 4.576 71.4581 4.4 71.6901 4.4C71.7861 4.4 71.8901 4.432 71.9861 4.504ZM71.4741 6.432C71.7061 6.6 71.9701 6.832 72.1461 7.032C72.2421 7.144 72.2901 7.256 72.2901 7.36C72.2901 7.592 72.0661 7.776 71.8421 7.776C71.7301 7.776 71.6181 7.736 71.5221 7.632C71.3461 7.432 71.0741 7.176 70.8981 7.032C70.7861 6.936 70.7381 6.832 70.7381 6.736C70.7381 6.52 70.9461 6.336 71.1861 6.336C71.2821 6.336 71.3781 6.368 71.4741 6.432ZM82.2901 7.48H81.2581C80.4661 7.48 80.1861 7.168 80.1861 6.592V5.52C80.1861 4.944 80.4661 4.632 81.2581 4.632H84.0661C84.8581 4.632 85.1381 4.944 85.1381 5.52V6.592C85.1381 7.168 84.8581 7.48 84.0661 7.48H83.1381V8.448H85.1301C85.3461 8.448 85.4581 8.64 85.4581 8.832C85.4581 9.024 85.3461 9.216 85.1301 9.216H83.1381V10.512C83.5221 10.576 83.9541 10.6 84.4581 10.6C84.9381 10.6 85.3861 10.576 85.9061 10.528H85.9541C86.2181 10.528 86.3621 10.728 86.3621 10.944C86.3621 11.136 86.2421 11.328 85.9781 11.352C85.4821 11.4 84.9701 11.416 84.4741 11.416C82.5701 11.416 81.4661 11.016 80.7301 9.952C80.4581 10.512 80.1301 11.032 79.7941 11.416C79.6821 11.544 79.5541 11.592 79.4341 11.592C79.2101 11.592 79.0101 11.424 79.0101 11.208C79.0101 11.112 79.0501 11.008 79.1461 10.904C79.7221 10.264 80.2181 9.264 80.4501 8.272C80.4981 8.064 80.6741 7.968 80.8501 7.968C81.0661 7.968 81.2901 8.104 81.2901 8.344C81.2901 8.376 81.2821 8.408 81.2741 8.448C81.2181 8.696 81.1381 8.944 81.0501 9.192C81.1861 9.4 81.3381 9.6 81.5221 9.768C81.7461 9.984 82.0101 10.152 82.2901 10.272V7.48ZM81.3861 6.728H83.9381C84.2261 6.728 84.2901 6.656 84.2901 6.464V5.664C84.2901 5.472 84.2261 5.4 83.9381 5.4H81.3861C81.0981 5.4 81.0341 5.472 81.0341 5.664V6.464C81.0341 6.656 81.0981 6.728 81.3861 6.728ZM88.8261 8.976C88.8261 7.704 88.9061 6.184 88.9941 5.008C89.0101 4.736 89.2341 4.608 89.4581 4.608C89.6981 4.608 89.9221 4.744 89.9221 5.008C89.9221 5.096 89.9061 5.304 89.8981 5.392C89.8181 6.576 89.7541 7.8 89.7541 8.984C89.7541 10.056 90.0821 10.344 90.6501 10.344C91.3941 10.344 92.0901 10.04 92.8261 9.128C92.9381 8.984 93.0821 8.928 93.2101 8.928C93.4581 8.928 93.6821 9.12 93.6821 9.368C93.6821 9.464 93.6501 9.56 93.5701 9.664C92.6581 10.8 91.6901 11.232 90.6501 11.232C89.4581 11.232 88.8261 10.64 88.8261 8.976ZM99.3979 6.208V6.192C98.4379 6.32 97.1659 6.512 96.0139 6.68C95.9819 6.688 95.9579 6.688 95.9339 6.688C95.6459 6.688 95.4859 6.456 95.4859 6.232C95.4859 6.024 95.6139 5.832 95.9019 5.792C97.5659 5.584 99.6299 5.352 101.294 5.2H101.342C101.622 5.2 101.774 5.408 101.774 5.624C101.774 5.816 101.654 6.008 101.406 6.056C101.126 6.104 100.822 6.208 100.526 6.376C99.2779 7.088 99.0139 7.92 99.0139 8.68C99.0139 9.568 99.6299 10.112 100.75 10.248C101.046 10.288 101.182 10.504 101.182 10.72C101.182 10.96 101.006 11.192 100.71 11.192C100.59 11.192 100.262 11.144 100.118 11.112C98.9339 10.816 98.0859 9.936 98.0859 8.704C98.0859 7.864 98.4939 6.92 99.3979 6.208ZM103.878 5.64C103.902 5.384 104.126 5.256 104.342 5.256C104.582 5.256 104.814 5.4 104.814 5.68C104.814 5.792 104.782 6.184 104.782 6.432C104.782 9.232 105.35 9.968 105.686 9.968C105.878 9.968 106.054 9.84 106.206 9.24C106.27 9 106.438 8.896 106.614 8.896C106.846 8.896 107.07 9.064 107.07 9.328C107.07 9.376 107.07 9.416 107.054 9.464C106.758 10.536 106.246 10.928 105.71 10.928C104.55 10.928 103.846 9.496 103.846 6.456C103.846 6.088 103.862 5.848 103.878 5.64ZM108.822 6.208C109.494 6.832 110.11 7.832 110.374 8.648C110.398 8.712 110.406 8.768 110.406 8.816C110.406 9.08 110.182 9.24 109.958 9.24C109.79 9.24 109.614 9.152 109.534 8.936C109.246 8.2 108.726 7.36 108.15 6.76C108.054 6.664 108.014 6.56 108.014 6.464C108.014 6.24 108.23 6.056 108.47 6.056C108.582 6.056 108.71 6.104 108.822 6.208ZM114.742 7.424L114.758 7.448C115.094 7.312 115.454 7.248 115.774 7.248C117.022 7.248 117.838 7.928 117.838 9.04C117.838 10.44 116.83 11.336 115.27 11.336C114.174 11.336 113.478 10.776 113.478 10.064C113.478 9.464 113.878 9.04 114.59 9.04C115.358 9.04 115.894 9.552 116.126 10.352C116.622 10.112 116.902 9.648 116.902 9.048C116.902 8.48 116.454 8.024 115.686 8.024C114.878 8.024 114.094 8.304 113.11 9.064C112.998 9.152 112.878 9.192 112.774 9.192C112.526 9.192 112.326 8.984 112.326 8.752C112.326 8.624 112.382 8.488 112.526 8.376C113.454 7.656 114.486 6.592 115.23 5.672C114.838 5.736 114.318 5.792 113.918 5.824C113.886 5.824 113.678 5.848 113.574 5.848C113.318 5.848 113.174 5.632 113.174 5.416C113.174 5.216 113.302 5.016 113.566 5C114.214 4.968 115.062 4.864 115.83 4.744C115.87 4.736 115.902 4.736 115.942 4.736C116.27 4.736 116.494 4.968 116.494 5.24C116.494 5.36 116.446 5.488 116.35 5.616C115.878 6.224 115.27 6.92 114.742 7.424ZM115.222 10.536H115.286C115.15 10.024 114.91 9.752 114.574 9.752C114.406 9.752 114.286 9.888 114.286 10.064C114.286 10.328 114.59 10.536 115.222 10.536Z" fill="#282828"/>
<rect x="127.5" y="4" width="8" height="8" rx="2" fill="#E18965"/>
<path d="M142.046 9.904H142.134C142.27 9.904 142.302 9.88 142.302 9.736V9.056C142.302 8.856 142.47 8.752 142.63 8.752C142.798 8.752 142.958 8.856 142.958 9.056V9.808C142.958 10.368 142.782 10.528 142.246 10.528H141.07C140.534 10.528 140.358 10.368 140.358 9.808V9.056C140.358 8.856 140.526 8.752 140.686 8.752C140.854 8.752 141.014 8.856 141.014 9.056V9.736C141.014 9.88 141.046 9.904 141.182 9.904H141.262V8.368H140.358C140.182 8.368 140.126 8.416 140.126 8.576V11.272C140.126 11.496 139.918 11.616 139.71 11.616C139.502 11.616 139.294 11.496 139.294 11.272V8.464C139.294 7.928 139.59 7.68 140.206 7.68H141.262V7.152H139.238C139.03 7.152 138.918 6.976 138.918 6.8C138.918 6.624 139.03 6.448 139.238 6.448H140.406V5.856H139.686C139.478 5.856 139.366 5.68 139.366 5.504C139.366 5.328 139.478 5.152 139.686 5.152H140.406V4.6C140.406 4.368 140.606 4.256 140.806 4.256C141.006 4.256 141.206 4.368 141.206 4.6V5.152H142.11V4.6C142.11 4.368 142.31 4.256 142.51 4.256C142.71 4.256 142.91 4.368 142.91 4.6V5.152H143.67C143.886 5.152 143.998 5.328 143.998 5.504C143.998 5.68 143.886 5.856 143.67 5.856H142.91V6.448H144.086C144.302 6.448 144.414 6.624 144.414 6.8C144.414 6.976 144.302 7.152 144.086 7.152H142.046V7.68H143.11C143.726 7.68 144.022 7.928 144.022 8.464V10.744C144.022 11.304 143.742 11.536 143.278 11.536C143.102 11.536 142.934 11.528 142.806 11.512C142.566 11.488 142.454 11.312 142.454 11.136C142.454 10.952 142.582 10.768 142.806 10.768H142.862C142.926 10.776 142.99 10.784 143.07 10.784C143.158 10.784 143.19 10.752 143.19 10.624V8.576C143.19 8.416 143.134 8.368 142.958 8.368H142.046V9.904ZM142.11 5.856H141.206V6.448H142.11V5.856ZM138.046 8.88C138.11 8.688 138.27 8.6 138.446 8.6C138.67 8.6 138.902 8.752 138.902 9C138.902 9.04 138.894 9.08 138.886 9.12C138.67 9.872 138.318 10.696 137.99 11.248C137.886 11.424 137.718 11.504 137.566 11.504C137.334 11.504 137.126 11.336 137.126 11.104C137.126 11.032 137.142 10.952 137.198 10.864C137.51 10.344 137.83 9.576 138.046 8.88ZM138.166 4.504C138.39 4.672 138.63 4.896 138.806 5.096C138.894 5.2 138.934 5.312 138.934 5.408C138.934 5.648 138.726 5.832 138.502 5.832C138.39 5.832 138.278 5.784 138.182 5.672C137.998 5.472 137.766 5.232 137.59 5.08C137.478 4.984 137.438 4.88 137.438 4.784C137.438 4.576 137.638 4.4 137.87 4.4C137.966 4.4 138.07 4.432 138.166 4.504ZM137.654 6.432C137.886 6.6 138.15 6.832 138.326 7.032C138.422 7.144 138.47 7.256 138.47 7.36C138.47 7.592 138.246 7.776 138.022 7.776C137.91 7.776 137.798 7.736 137.702 7.632C137.526 7.432 137.254 7.176 137.078 7.032C136.966 6.936 136.918 6.832 136.918 6.736C136.918 6.52 137.126 6.336 137.366 6.336C137.462 6.336 137.558 6.368 137.654 6.432ZM148.47 7.48H147.438C146.646 7.48 146.366 7.168 146.366 6.592V5.52C146.366 4.944 146.646 4.632 147.438 4.632H150.246C151.038 4.632 151.318 4.944 151.318 5.52V6.592C151.318 7.168 151.038 7.48 150.246 7.48H149.318V8.448H151.31C151.526 8.448 151.638 8.64 151.638 8.832C151.638 9.024 151.526 9.216 151.31 9.216H149.318V10.512C149.702 10.576 150.134 10.6 150.638 10.6C151.118 10.6 151.566 10.576 152.086 10.528H152.134C152.398 10.528 152.542 10.728 152.542 10.944C152.542 11.136 152.422 11.328 152.158 11.352C151.662 11.4 151.15 11.416 150.654 11.416C148.75 11.416 147.646 11.016 146.91 9.952C146.638 10.512 146.31 11.032 145.974 11.416C145.862 11.544 145.734 11.592 145.614 11.592C145.39 11.592 145.19 11.424 145.19 11.208C145.19 11.112 145.23 11.008 145.326 10.904C145.902 10.264 146.398 9.264 146.63 8.272C146.678 8.064 146.854 7.968 147.03 7.968C147.246 7.968 147.47 8.104 147.47 8.344C147.47 8.376 147.462 8.408 147.454 8.448C147.398 8.696 147.318 8.944 147.23 9.192C147.366 9.4 147.518 9.6 147.702 9.768C147.926 9.984 148.19 10.152 148.47 10.272V7.48ZM147.566 6.728H150.118C150.406 6.728 150.47 6.656 150.47 6.464V5.664C150.47 5.472 150.406 5.4 150.118 5.4H147.566C147.278 5.4 147.214 5.472 147.214 5.664V6.464C147.214 6.656 147.278 6.728 147.566 6.728ZM155.006 8.976C155.006 7.704 155.086 6.184 155.174 5.008C155.19 4.736 155.414 4.608 155.638 4.608C155.878 4.608 156.102 4.744 156.102 5.008C156.102 5.096 156.086 5.304 156.078 5.392C155.998 6.576 155.934 7.8 155.934 8.984C155.934 10.056 156.262 10.344 156.83 10.344C157.574 10.344 158.27 10.04 159.006 9.128C159.118 8.984 159.262 8.928 159.39 8.928C159.638 8.928 159.862 9.12 159.862 9.368C159.862 9.464 159.83 9.56 159.75 9.664C158.838 10.8 157.87 11.232 156.83 11.232C155.638 11.232 155.006 10.64 155.006 8.976ZM165.578 6.208V6.192C164.618 6.32 163.346 6.512 162.194 6.68C162.162 6.688 162.138 6.688 162.114 6.688C161.826 6.688 161.666 6.456 161.666 6.232C161.666 6.024 161.794 5.832 162.082 5.792C163.746 5.584 165.81 5.352 167.474 5.2H167.522C167.802 5.2 167.954 5.408 167.954 5.624C167.954 5.816 167.834 6.008 167.586 6.056C167.306 6.104 167.002 6.208 166.706 6.376C165.458 7.088 165.194 7.92 165.194 8.68C165.194 9.568 165.81 10.112 166.93 10.248C167.226 10.288 167.362 10.504 167.362 10.72C167.362 10.96 167.186 11.192 166.89 11.192C166.77 11.192 166.442 11.144 166.298 11.112C165.114 10.816 164.266 9.936 164.266 8.704C164.266 7.864 164.674 6.92 165.578 6.208ZM170.058 5.64C170.082 5.384 170.306 5.256 170.522 5.256C170.762 5.256 170.994 5.4 170.994 5.68C170.994 5.792 170.962 6.184 170.962 6.432C170.962 9.232 171.53 9.968 171.866 9.968C172.058 9.968 172.234 9.84 172.386 9.24C172.45 9 172.618 8.896 172.794 8.896C173.026 8.896 173.25 9.064 173.25 9.328C173.25 9.376 173.25 9.416 173.234 9.464C172.938 10.536 172.426 10.928 171.89 10.928C170.73 10.928 170.026 9.496 170.026 6.456C170.026 6.088 170.042 5.848 170.058 5.64ZM175.002 6.208C175.674 6.832 176.29 7.832 176.554 8.648C176.578 8.712 176.586 8.768 176.586 8.816C176.586 9.08 176.362 9.24 176.138 9.24C175.97 9.24 175.794 9.152 175.714 8.936C175.426 8.2 174.906 7.36 174.33 6.76C174.234 6.664 174.194 6.56 174.194 6.464C174.194 6.24 174.41 6.056 174.65 6.056C174.762 6.056 174.89 6.104 175.002 6.208ZM180.922 7.424L180.938 7.448C181.274 7.312 181.634 7.248 181.954 7.248C183.202 7.248 184.018 7.928 184.018 9.04C184.018 10.44 183.01 11.336 181.45 11.336C180.354 11.336 179.658 10.776 179.658 10.064C179.658 9.464 180.058 9.04 180.77 9.04C181.538 9.04 182.074 9.552 182.306 10.352C182.802 10.112 183.082 9.648 183.082 9.048C183.082 8.48 182.634 8.024 181.866 8.024C181.058 8.024 180.274 8.304 179.29 9.064C179.178 9.152 179.058 9.192 178.954 9.192C178.706 9.192 178.506 8.984 178.506 8.752C178.506 8.624 178.562 8.488 178.706 8.376C179.634 7.656 180.666 6.592 181.41 5.672C181.018 5.736 180.498 5.792 180.098 5.824C180.066 5.824 179.858 5.848 179.754 5.848C179.498 5.848 179.354 5.632 179.354 5.416C179.354 5.216 179.482 5.016 179.746 5C180.394 4.968 181.242 4.864 182.01 4.744C182.05 4.736 182.082 4.736 182.122 4.736C182.45 4.736 182.674 4.968 182.674 5.24C182.674 5.36 182.626 5.488 182.53 5.616C182.058 6.224 181.45 6.92 180.922 7.424ZM181.402 10.536H181.466C181.33 10.024 181.09 9.752 180.754 9.752C180.586 9.752 180.466 9.888 180.466 10.064C180.466 10.328 180.77 10.536 181.402 10.536Z" fill="#282828"/>
<rect x="193.5" y="4" width="8" height="8" rx="2" fill="#FFF464"/>
<path d="M205.908 7.768C205.732 7 205.612 6.048 205.612 4.944C205.612 4.656 205.844 4.512 206.076 4.512C206.308 4.512 206.54 4.656 206.54 4.944C206.54 5.84 206.612 6.64 206.724 7.288C207.212 7.048 207.756 6.832 208.3 6.664C208.348 6.648 208.396 6.64 208.444 6.64C208.692 6.64 208.86 6.864 208.86 7.088C208.86 7.256 208.772 7.416 208.564 7.48C207.852 7.704 207.052 8.032 206.46 8.408C205.772 8.856 205.532 9.296 205.532 9.704C205.532 10.2 205.86 10.456 207.132 10.456C207.772 10.456 208.34 10.4 208.788 10.312C208.828 10.304 208.86 10.304 208.892 10.304C209.172 10.304 209.324 10.52 209.324 10.744C209.324 10.944 209.212 11.136 208.964 11.192C208.42 11.304 207.804 11.344 207.124 11.344C205.444 11.344 204.604 10.832 204.604 9.752C204.604 9.096 204.908 8.448 205.908 7.768ZM208.036 5.24C207.988 5.184 207.972 5.12 207.972 5.064C207.972 4.904 208.132 4.768 208.308 4.768C208.388 4.768 208.476 4.8 208.548 4.88C208.748 5.096 208.964 5.376 209.108 5.632C209.148 5.696 209.164 5.76 209.164 5.824C209.164 6.008 209.004 6.144 208.836 6.144C208.732 6.144 208.636 6.088 208.564 5.968C208.404 5.688 208.204 5.44 208.036 5.24ZM208.892 4.68C208.844 4.624 208.82 4.56 208.82 4.504C208.82 4.344 208.98 4.224 209.148 4.224C209.236 4.224 209.332 4.256 209.412 4.336C209.604 4.536 209.82 4.8 209.964 5.048C210.012 5.128 210.036 5.2 210.036 5.264C210.036 5.448 209.884 5.576 209.716 5.576C209.612 5.576 209.5 5.52 209.42 5.4C209.26 5.152 209.06 4.888 208.892 4.68ZM213.86 8.264L213.876 8.272C214.46 7.92 215.252 7.696 215.908 7.696C217.132 7.696 217.74 8.312 217.74 9.192C217.74 10.472 216.54 11.152 215.092 11.288C214.964 11.304 214.892 11.304 214.828 11.304C214.556 11.304 214.404 11.096 214.404 10.888C214.404 10.688 214.524 10.496 214.796 10.48C216.3 10.376 216.836 9.856 216.836 9.208C216.836 8.792 216.58 8.48 215.924 8.48C215.052 8.48 214.284 8.792 213.532 9.512C213.428 9.608 213.308 9.656 213.188 9.656C212.956 9.656 212.74 9.488 212.74 9.224C212.74 9.16 212.748 9.104 212.772 9.032C213.036 8.28 213.228 7.528 213.372 6.776C212.98 6.808 212.612 6.824 212.276 6.824C212.004 6.824 211.868 6.616 211.868 6.408C211.868 6.208 212.004 6 212.268 6C212.636 6 213.06 5.976 213.516 5.936C213.572 5.536 213.62 5.136 213.66 4.728C213.684 4.48 213.892 4.36 214.1 4.36C214.308 4.36 214.516 4.488 214.516 4.736V4.792C214.476 5.16 214.436 5.512 214.388 5.84C215.012 5.76 215.636 5.656 216.172 5.536C216.212 5.528 216.252 5.52 216.292 5.52C216.54 5.52 216.692 5.728 216.692 5.936C216.692 6.112 216.58 6.288 216.324 6.344C215.684 6.48 214.956 6.608 214.244 6.688C214.132 7.304 213.996 7.84 213.86 8.264ZM222.62 4.552C223.052 4.656 223.588 4.84 224.004 5.056C224.204 5.16 224.284 5.328 224.284 5.496C224.284 5.72 224.116 5.936 223.86 5.936C223.788 5.936 223.708 5.92 223.62 5.88C223.204 5.696 222.7 5.496 222.316 5.384C222.108 5.32 222.012 5.16 222.012 5C222.012 4.776 222.196 4.536 222.484 4.536C222.524 4.536 222.572 4.544 222.62 4.552ZM221.54 8.32L221.556 8.328C222.164 7.8 223.084 7.472 223.876 7.472C225.132 7.472 225.908 8.16 225.908 9.064C225.908 10.296 224.892 11.176 222.964 11.4C222.94 11.4 222.916 11.408 222.892 11.408C222.612 11.408 222.452 11.184 222.452 10.968C222.452 10.768 222.588 10.568 222.86 10.536C224.428 10.352 224.972 9.76 224.972 9.072C224.972 8.656 224.644 8.272 223.876 8.272C223.028 8.272 222.068 8.704 221.396 9.488C221.284 9.624 221.132 9.68 220.988 9.68C220.748 9.68 220.516 9.504 220.516 9.216C220.516 9.184 220.516 9.152 220.524 9.12C220.604 8.528 220.796 7.48 221.028 6.384C221.076 6.152 221.276 6.048 221.468 6.048C221.7 6.048 221.924 6.184 221.924 6.424C221.924 6.448 221.924 6.48 221.916 6.504C221.764 7.248 221.628 7.856 221.54 8.32ZM230.388 7.688C230.212 6.92 230.092 5.968 230.092 4.864C230.092 4.576 230.324 4.432 230.556 4.432C230.788 4.432 231.02 4.576 231.02 4.864C231.02 5.76 231.092 6.56 231.204 7.208C231.692 6.968 232.236 6.752 232.78 6.584C232.828 6.568 232.876 6.56 232.924 6.56C233.172 6.56 233.34 6.784 233.34 7.008C233.34 7.176 233.252 7.336 233.044 7.4C232.332 7.624 231.532 7.952 230.94 8.328C230.252 8.776 230.012 9.216 230.012 9.624C230.012 10.12 230.34 10.376 231.612 10.376C232.252 10.376 232.82 10.32 233.268 10.232C233.308 10.224 233.34 10.224 233.372 10.224C233.652 10.224 233.804 10.44 233.804 10.664C233.804 10.864 233.692 11.056 233.444 11.112C232.9 11.224 232.284 11.264 231.604 11.264C229.924 11.264 229.084 10.752 229.084 9.672C229.084 9.016 229.388 8.368 230.388 7.688ZM239.46 4.808L239.276 5.88H239.332C239.644 5.88 239.908 5.864 240.156 5.84H240.196C240.452 5.84 240.58 6.048 240.58 6.264C240.58 6.464 240.468 6.648 240.236 6.672C239.988 6.696 239.748 6.712 239.348 6.712H239.124C239.076 7.088 239.012 7.456 238.956 7.832H239.084C239.508 7.832 239.98 7.792 240.34 7.728C240.364 7.72 240.396 7.72 240.42 7.72C240.668 7.72 240.812 7.936 240.812 8.144C240.812 8.336 240.708 8.52 240.468 8.568C240.084 8.648 239.54 8.696 239.076 8.696H238.852C238.828 8.976 238.82 9.2 238.82 9.392C238.82 10.256 239.18 10.552 239.884 10.552C240.764 10.552 241.236 10.24 241.236 9.448C241.236 9.264 241.196 9.04 241.14 8.856C241.132 8.816 241.124 8.776 241.124 8.736C241.124 8.496 241.348 8.352 241.58 8.352C241.78 8.352 241.98 8.456 242.052 8.696C242.132 8.944 242.172 9.192 242.172 9.432C242.172 10.8 241.244 11.464 239.9 11.464C238.652 11.464 237.908 10.824 237.908 9.456C237.908 9.216 237.916 8.96 237.948 8.648C237.572 8.608 237.26 8.56 236.988 8.488C236.756 8.424 236.652 8.24 236.652 8.056C236.652 7.832 236.804 7.616 237.06 7.616C237.108 7.616 237.156 7.616 237.204 7.632C237.452 7.696 237.724 7.744 238.052 7.784C238.1 7.408 238.156 7.04 238.22 6.664C237.908 6.64 237.628 6.592 237.38 6.536C237.14 6.48 237.036 6.304 237.036 6.136C237.036 5.912 237.196 5.704 237.444 5.704C237.476 5.704 237.508 5.704 237.54 5.712C237.796 5.768 238.06 5.808 238.364 5.84L238.564 4.688C238.604 4.456 238.812 4.352 239.02 4.352C239.244 4.352 239.468 4.48 239.468 4.728C239.468 4.752 239.468 4.776 239.46 4.808ZM244.556 5.64C244.58 5.384 244.804 5.256 245.02 5.256C245.26 5.256 245.492 5.4 245.492 5.68C245.492 5.792 245.46 6.184 245.46 6.432C245.46 9.232 246.028 9.968 246.364 9.968C246.556 9.968 246.732 9.84 246.884 9.24C246.948 9 247.116 8.896 247.292 8.896C247.524 8.896 247.748 9.064 247.748 9.328C247.748 9.376 247.748 9.416 247.732 9.464C247.436 10.536 246.924 10.928 246.388 10.928C245.228 10.928 244.524 9.496 244.524 6.456C244.524 6.088 244.54 5.848 244.556 5.64ZM249.5 6.208C250.172 6.832 250.788 7.832 251.052 8.648C251.076 8.712 251.084 8.768 251.084 8.816C251.084 9.08 250.86 9.24 250.636 9.24C250.468 9.24 250.292 9.152 250.212 8.936C249.924 8.2 249.404 7.36 248.828 6.76C248.732 6.664 248.692 6.56 248.692 6.464C248.692 6.24 248.908 6.056 249.148 6.056C249.26 6.056 249.388 6.104 249.5 6.208ZM254.94 4.504C255.468 4.568 256.124 4.728 256.596 4.888C256.82 4.968 256.924 5.136 256.924 5.304C256.924 5.528 256.756 5.744 256.508 5.744C256.452 5.744 256.396 5.736 256.332 5.712C255.868 5.56 255.268 5.416 254.788 5.336C254.524 5.296 254.412 5.12 254.412 4.936C254.412 4.72 254.58 4.496 254.86 4.496C254.884 4.496 254.916 4.496 254.94 4.504ZM253.612 6.552L256.42 6.128C256.46 6.12 256.5 6.12 256.54 6.12C256.908 6.12 257.132 6.384 257.132 6.664C257.132 6.8 257.084 6.936 256.972 7.056L255.636 8.424L255.652 8.448C255.78 8.408 255.9 8.384 256.012 8.384C256.532 8.384 256.844 8.704 256.876 9.4L256.884 9.568C256.908 10.072 257.004 10.224 257.404 10.224C257.812 10.224 258.268 10.152 258.692 10.064C258.74 10.056 258.78 10.048 258.828 10.048C259.1 10.048 259.252 10.272 259.252 10.496C259.252 10.688 259.148 10.872 258.924 10.92C258.38 11.04 257.868 11.088 257.42 11.088C256.492 11.088 256.044 10.712 256.004 9.704L255.996 9.52C255.98 9.224 255.876 9.104 255.7 9.104C255.46 9.104 255.18 9.208 254.828 9.488C254.54 9.72 254.092 10.176 253.444 10.888C253.332 11.008 253.212 11.056 253.084 11.056C252.844 11.056 252.636 10.864 252.636 10.632C252.636 10.52 252.676 10.4 252.788 10.288L255.844 7.064L255.836 7.04L253.748 7.408C253.716 7.416 253.684 7.416 253.66 7.416C253.396 7.416 253.236 7.192 253.236 6.976C253.236 6.784 253.348 6.592 253.612 6.552ZM265.396 10.2C265.38 11.096 264.724 11.416 263.956 11.416C263.004 11.416 262.428 11 262.428 10.256C262.428 9.616 262.972 9.088 263.996 9.088C264.124 9.088 264.252 9.096 264.396 9.112C264.34 8.744 264.316 8.472 264.316 8.264C264.316 7.92 264.332 7.744 264.372 7.488C264.412 7.264 264.596 7.168 264.788 7.168C265.012 7.168 265.236 7.296 265.236 7.536C265.236 7.56 265.228 7.576 265.228 7.6C265.196 7.832 265.172 8.032 265.172 8.256C265.172 8.48 265.196 8.792 265.284 9.296C265.796 9.448 266.324 9.68 266.788 9.992C266.94 10.096 267.004 10.232 267.004 10.368C267.004 10.592 266.82 10.808 266.58 10.808C266.5 10.808 266.404 10.776 266.308 10.712C266.012 10.504 265.7 10.328 265.396 10.2ZM263.956 10.624C264.324 10.624 264.524 10.464 264.524 10.112C264.524 10.04 264.524 9.976 264.516 9.912C264.34 9.88 264.172 9.864 264.012 9.864C263.452 9.864 263.276 10.04 263.276 10.256C263.276 10.488 263.436 10.624 263.956 10.624ZM262.212 5.928C262.332 5.52 262.444 5.112 262.524 4.712C262.572 4.472 262.764 4.368 262.956 4.368C263.18 4.368 263.388 4.504 263.388 4.76C263.388 4.792 263.388 4.832 263.38 4.864C263.316 5.168 263.236 5.488 263.148 5.808C263.388 5.768 263.628 5.728 263.852 5.688C263.884 5.68 263.916 5.68 263.94 5.68C264.196 5.68 264.356 5.888 264.356 6.104C264.356 6.28 264.252 6.456 263.996 6.512C263.652 6.584 263.26 6.648 262.868 6.704C262.532 7.672 262.1 8.632 261.636 9.4C261.516 9.6 261.348 9.688 261.188 9.688C260.948 9.688 260.74 9.504 260.74 9.264C260.74 9.176 260.764 9.08 260.828 8.984C261.236 8.344 261.604 7.6 261.908 6.808C261.612 6.84 261.324 6.856 261.076 6.864C260.804 6.872 260.66 6.648 260.66 6.424C260.66 6.216 260.788 6.016 261.044 6.008C261.404 5.992 261.804 5.968 262.212 5.928ZM265.764 5.832C266.148 5.936 266.644 6.16 266.988 6.376C267.172 6.488 267.252 6.648 267.252 6.792C267.252 7.024 267.06 7.232 266.828 7.232C266.748 7.232 266.668 7.208 266.588 7.16C266.212 6.944 265.796 6.736 265.444 6.608C265.244 6.536 265.156 6.392 265.156 6.248C265.156 6.032 265.34 5.808 265.612 5.808C265.66 5.808 265.708 5.816 265.764 5.832ZM269.036 5.64C269.06 5.384 269.284 5.256 269.5 5.256C269.74 5.256 269.972 5.4 269.972 5.68C269.972 5.792 269.94 6.184 269.94 6.432C269.94 9.232 270.508 9.968 270.844 9.968C271.036 9.968 271.212 9.84 271.364 9.24C271.428 9 271.596 8.896 271.772 8.896C272.004 8.896 272.228 9.064 272.228 9.328C272.228 9.376 272.228 9.416 272.212 9.464C271.916 10.536 271.404 10.928 270.868 10.928C269.708 10.928 269.004 9.496 269.004 6.456C269.004 6.088 269.02 5.848 269.036 5.64ZM273.98 6.208C274.652 6.832 275.268 7.832 275.532 8.648C275.556 8.712 275.564 8.768 275.564 8.816C275.564 9.08 275.34 9.24 275.116 9.24C274.948 9.24 274.772 9.152 274.692 8.936C274.404 8.2 273.884 7.36 273.308 6.76C273.212 6.664 273.172 6.56 273.172 6.464C273.172 6.24 273.388 6.056 273.628 6.056C273.74 6.056 273.868 6.104 273.98 6.208Z" fill="#282828"/>
<rect x="70" y="28" width="8" height="8" rx="2" fill="#69BD83"/>
<path d="M80.1261 33.752C80.1261 33.032 80.6461 32.008 82.0141 31.384C82.0221 31.024 82.0461 30.664 82.0781 30.312C81.7101 30.328 81.3581 30.336 81.0461 30.336C80.7821 30.336 80.6541 30.136 80.6541 29.928C80.6541 29.728 80.7821 29.528 81.0461 29.528C81.3821 29.528 81.7661 29.52 82.1581 29.496C82.1901 29.2 82.2301 28.896 82.2781 28.576C82.3181 28.344 82.5181 28.232 82.7101 28.232C82.9261 28.232 83.1341 28.36 83.1341 28.584C83.1341 28.608 83.1261 28.624 83.1261 28.648C83.0861 28.92 83.0461 29.184 83.0061 29.44C83.5901 29.392 84.1581 29.32 84.6061 29.24C84.6381 29.232 84.6701 29.232 84.7021 29.232C84.9661 29.232 85.1101 29.432 85.1101 29.632C85.1101 29.808 84.9981 29.992 84.7581 30.032C84.2301 30.128 83.5741 30.2 82.9101 30.256C82.8941 30.536 82.8621 30.824 82.8461 31.112C83.2301 31.024 83.6301 30.984 84.0221 30.984C84.0541 30.88 84.0861 30.776 84.1101 30.664C84.1581 30.464 84.3341 30.376 84.5101 30.376C84.7181 30.376 84.9261 30.504 84.9261 30.728C84.9261 30.76 84.9181 30.792 84.9101 30.832C84.8861 30.912 84.8701 30.992 84.8461 31.072C85.9501 31.328 86.5821 32.152 86.5821 33.104C86.5821 34.272 85.7821 35.144 84.4461 35.472C84.4061 35.48 84.3581 35.488 84.3181 35.488C84.0621 35.488 83.8941 35.272 83.8941 35.048C83.8941 34.88 83.9981 34.704 84.2381 34.632C85.2541 34.32 85.6781 33.8 85.6781 33.112C85.6781 32.56 85.3181 32 84.5981 31.8C84.2541 32.68 83.7501 33.52 83.0301 34.136C83.0621 34.304 83.0941 34.464 83.1341 34.616C83.1421 34.648 83.1501 34.688 83.1501 34.72C83.1501 34.968 82.9181 35.112 82.7021 35.112C82.5341 35.112 82.3661 35.024 82.3181 34.824L82.2701 34.624C81.9261 34.832 81.5981 34.904 81.2541 34.904C80.5741 34.904 80.1261 34.472 80.1261 33.752ZM80.9741 33.696C80.9741 33.952 81.0381 34.064 81.3101 34.072C81.5501 34.072 81.7821 34 82.1181 33.784C82.0461 33.264 82.0061 32.744 81.9981 32.224C81.2621 32.704 80.9661 33.24 80.9741 33.696ZM82.8861 33.184C83.2621 32.752 83.5501 32.256 83.7661 31.728C83.4461 31.744 83.1341 31.792 82.8221 31.88V32.016C82.8221 32.376 82.8461 32.776 82.8861 33.184ZM91.9181 28.672V29.464H92.4301C92.8941 29.464 93.3341 29.472 93.7421 29.48C94.0141 29.488 94.1501 29.696 94.1501 29.912C94.1501 30.12 94.0141 30.32 93.7421 30.32C93.4301 30.312 93.0861 30.304 92.7261 30.304C92.4701 30.304 92.2061 30.312 91.9341 30.312C91.9341 30.592 91.9421 30.872 91.9581 31.152C92.4861 31.12 92.9981 31.08 93.4621 31.024H93.5261C93.8061 31.024 93.9501 31.224 93.9501 31.432C93.9501 31.624 93.8221 31.824 93.5581 31.856C93.0701 31.92 92.5421 31.96 92.0061 31.992C92.0221 32.344 92.0541 32.696 92.0861 33.048C92.7661 33.224 93.4461 33.52 94.0941 33.92C94.2861 34.04 94.3661 34.2 94.3661 34.352C94.3661 34.6 94.1581 34.824 93.8941 34.824C93.8061 34.824 93.7181 34.8 93.6221 34.736C93.1341 34.416 92.6381 34.152 92.1421 33.968V34.024C92.1421 34.888 91.3901 35.304 90.4621 35.304C89.4461 35.304 88.8221 34.816 88.8221 34.072C88.8221 33.376 89.3981 32.84 90.5421 32.84C90.7581 32.84 90.9661 32.856 91.1901 32.88C91.1661 32.592 91.1341 32.304 91.1261 32.024H90.6701C90.1901 32.024 89.7021 32.008 89.4221 31.976C89.1581 31.944 89.0381 31.744 89.0381 31.552C89.0381 31.344 89.1821 31.128 89.4381 31.128H89.4941C89.7901 31.16 90.1901 31.184 90.6461 31.184H91.0781C91.0621 30.896 91.0541 30.616 91.0461 30.328C90.3661 30.344 89.7021 30.368 89.1421 30.392C88.8701 30.4 88.7261 30.184 88.7261 29.968C88.7261 29.76 88.8541 29.56 89.1261 29.544C89.6861 29.52 90.3501 29.488 91.0301 29.48V28.672C91.0301 28.432 91.2541 28.312 91.4781 28.312C91.6941 28.312 91.9181 28.432 91.9181 28.672ZM90.4621 34.48C90.9981 34.48 91.2621 34.232 91.2621 33.896V33.72C91.0141 33.672 90.7821 33.648 90.5421 33.648C89.9181 33.648 89.7341 33.84 89.7341 34.08C89.7341 34.296 89.9421 34.48 90.4621 34.48ZM98.4301 31.96H98.4461C98.5261 31.776 98.5821 31.624 98.6541 31.408C98.7181 31.232 98.8621 31.152 98.9981 31.152C99.1821 31.152 99.3581 31.28 99.3581 31.472C99.3581 31.504 99.3501 31.536 99.3421 31.568C99.2061 32.024 98.9901 32.528 98.7821 32.888C98.6541 33.104 98.4381 33.216 98.2301 33.216C98.0061 33.216 97.7901 33.088 97.7181 32.832C97.6141 32.488 97.5261 31.912 97.5261 31.456C97.5261 30.816 97.6221 29.936 97.8221 29.104C97.8781 28.88 98.0861 28.776 98.2781 28.776C98.5021 28.776 98.7181 28.904 98.7181 29.136C98.7181 29.168 98.7101 29.2 98.7021 29.24C98.5261 29.984 98.4061 30.896 98.4061 31.376C98.4061 31.632 98.4141 31.8 98.4301 31.96ZM100.51 29.064V29.016C100.51 28.752 100.75 28.608 100.99 28.608C101.206 28.608 101.422 28.728 101.462 28.992C101.574 29.832 101.63 30.704 101.63 31.568C101.63 33.304 101.006 34.512 99.8861 35.368C99.7741 35.456 99.6541 35.496 99.5501 35.496C99.3021 35.496 99.1021 35.288 99.1021 35.048C99.1021 34.912 99.1661 34.768 99.3101 34.648C100.222 33.896 100.67 32.92 100.67 31.568C100.67 30.744 100.614 29.912 100.51 29.064ZM109.206 33.904H109.294C109.43 33.904 109.462 33.88 109.462 33.736V33.056C109.462 32.856 109.63 32.752 109.79 32.752C109.958 32.752 110.118 32.856 110.118 33.056V33.808C110.118 34.368 109.942 34.528 109.406 34.528H108.23C107.694 34.528 107.518 34.368 107.518 33.808V33.056C107.518 32.856 107.686 32.752 107.846 32.752C108.014 32.752 108.174 32.856 108.174 33.056V33.736C108.174 33.88 108.206 33.904 108.342 33.904H108.422V32.368H107.518C107.342 32.368 107.286 32.416 107.286 32.576V35.272C107.286 35.496 107.078 35.616 106.87 35.616C106.662 35.616 106.454 35.496 106.454 35.272V32.464C106.454 31.928 106.75 31.68 107.366 31.68H108.422V31.152H106.398C106.19 31.152 106.078 30.976 106.078 30.8C106.078 30.624 106.19 30.448 106.398 30.448H107.566V29.856H106.846C106.638 29.856 106.526 29.68 106.526 29.504C106.526 29.328 106.638 29.152 106.846 29.152H107.566V28.6C107.566 28.368 107.766 28.256 107.966 28.256C108.166 28.256 108.366 28.368 108.366 28.6V29.152H109.27V28.6C109.27 28.368 109.47 28.256 109.67 28.256C109.87 28.256 110.07 28.368 110.07 28.6V29.152H110.83C111.046 29.152 111.158 29.328 111.158 29.504C111.158 29.68 111.046 29.856 110.83 29.856H110.07V30.448H111.246C111.462 30.448 111.574 30.624 111.574 30.8C111.574 30.976 111.462 31.152 111.246 31.152H109.206V31.68H110.27C110.886 31.68 111.182 31.928 111.182 32.464V34.744C111.182 35.304 110.902 35.536 110.438 35.536C110.262 35.536 110.094 35.528 109.966 35.512C109.726 35.488 109.614 35.312 109.614 35.136C109.614 34.952 109.742 34.768 109.966 34.768H110.022C110.086 34.776 110.15 34.784 110.23 34.784C110.318 34.784 110.35 34.752 110.35 34.624V32.576C110.35 32.416 110.294 32.368 110.118 32.368H109.206V33.904ZM109.27 29.856H108.366V30.448H109.27V29.856ZM105.206 32.88C105.27 32.688 105.43 32.6 105.606 32.6C105.83 32.6 106.062 32.752 106.062 33C106.062 33.04 106.054 33.08 106.046 33.12C105.83 33.872 105.478 34.696 105.15 35.248C105.046 35.424 104.878 35.504 104.726 35.504C104.494 35.504 104.286 35.336 104.286 35.104C104.286 35.032 104.302 34.952 104.358 34.864C104.67 34.344 104.99 33.576 105.206 32.88ZM105.326 28.504C105.55 28.672 105.79 28.896 105.966 29.096C106.054 29.2 106.094 29.312 106.094 29.408C106.094 29.648 105.886 29.832 105.662 29.832C105.55 29.832 105.438 29.784 105.342 29.672C105.158 29.472 104.926 29.232 104.75 29.08C104.638 28.984 104.598 28.88 104.598 28.784C104.598 28.576 104.798 28.4 105.03 28.4C105.126 28.4 105.23 28.432 105.326 28.504ZM104.814 30.432C105.046 30.6 105.31 30.832 105.486 31.032C105.582 31.144 105.63 31.256 105.63 31.36C105.63 31.592 105.406 31.776 105.182 31.776C105.07 31.776 104.958 31.736 104.862 31.632C104.686 31.432 104.414 31.176 104.238 31.032C104.126 30.936 104.078 30.832 104.078 30.736C104.078 30.52 104.286 30.336 104.526 30.336C104.622 30.336 104.718 30.368 104.814 30.432ZM115.63 31.48H114.598C113.806 31.48 113.526 31.168 113.526 30.592V29.52C113.526 28.944 113.806 28.632 114.598 28.632H117.406C118.198 28.632 118.478 28.944 118.478 29.52V30.592C118.478 31.168 118.198 31.48 117.406 31.48H116.478V32.448H118.47C118.686 32.448 118.798 32.64 118.798 32.832C118.798 33.024 118.686 33.216 118.47 33.216H116.478V34.512C116.862 34.576 117.294 34.6 117.798 34.6C118.278 34.6 118.726 34.576 119.246 34.528H119.294C119.558 34.528 119.702 34.728 119.702 34.944C119.702 35.136 119.582 35.328 119.318 35.352C118.822 35.4 118.31 35.416 117.814 35.416C115.91 35.416 114.806 35.016 114.07 33.952C113.798 34.512 113.47 35.032 113.134 35.416C113.022 35.544 112.894 35.592 112.774 35.592C112.55 35.592 112.35 35.424 112.35 35.208C112.35 35.112 112.39 35.008 112.486 34.904C113.062 34.264 113.558 33.264 113.79 32.272C113.838 32.064 114.014 31.968 114.19 31.968C114.406 31.968 114.63 32.104 114.63 32.344C114.63 32.376 114.622 32.408 114.614 32.448C114.558 32.696 114.478 32.944 114.39 33.192C114.526 33.4 114.678 33.6 114.862 33.768C115.086 33.984 115.35 34.152 115.63 34.272V31.48ZM114.726 30.728H117.278C117.566 30.728 117.63 30.656 117.63 30.464V29.664C117.63 29.472 117.566 29.4 117.278 29.4H114.726C114.438 29.4 114.374 29.472 114.374 29.664V30.464C114.374 30.656 114.438 30.728 114.726 30.728ZM122.166 32.976C122.166 31.704 122.246 30.184 122.334 29.008C122.35 28.736 122.574 28.608 122.798 28.608C123.038 28.608 123.262 28.744 123.262 29.008C123.262 29.096 123.246 29.304 123.238 29.392C123.158 30.576 123.094 31.8 123.094 32.984C123.094 34.056 123.422 34.344 123.99 34.344C124.734 34.344 125.43 34.04 126.166 33.128C126.278 32.984 126.422 32.928 126.55 32.928C126.798 32.928 127.022 33.12 127.022 33.368C127.022 33.464 126.99 33.56 126.91 33.664C125.998 34.8 125.03 35.232 123.99 35.232C122.798 35.232 122.166 34.64 122.166 32.976ZM132.738 30.208V30.192C131.778 30.32 130.506 30.512 129.354 30.68C129.322 30.688 129.298 30.688 129.274 30.688C128.986 30.688 128.826 30.456 128.826 30.232C128.826 30.024 128.954 29.832 129.242 29.792C130.906 29.584 132.97 29.352 134.634 29.2H134.682C134.962 29.2 135.114 29.408 135.114 29.624C135.114 29.816 134.994 30.008 134.746 30.056C134.466 30.104 134.162 30.208 133.866 30.376C132.618 31.088 132.354 31.92 132.354 32.68C132.354 33.568 132.97 34.112 134.09 34.248C134.386 34.288 134.522 34.504 134.522 34.72C134.522 34.96 134.346 35.192 134.05 35.192C133.93 35.192 133.602 35.144 133.458 35.112C132.274 34.816 131.426 33.936 131.426 32.704C131.426 31.864 131.834 30.92 132.738 30.208ZM137.218 29.64C137.242 29.384 137.466 29.256 137.682 29.256C137.922 29.256 138.154 29.4 138.154 29.68C138.154 29.792 138.122 30.184 138.122 30.432C138.122 33.232 138.69 33.968 139.026 33.968C139.218 33.968 139.394 33.84 139.546 33.24C139.61 33 139.778 32.896 139.954 32.896C140.186 32.896 140.41 33.064 140.41 33.328C140.41 33.376 140.41 33.416 140.394 33.464C140.098 34.536 139.586 34.928 139.05 34.928C137.89 34.928 137.186 33.496 137.186 30.456C137.186 30.088 137.202 29.848 137.218 29.64ZM142.162 30.208C142.834 30.832 143.45 31.832 143.714 32.648C143.738 32.712 143.746 32.768 143.746 32.816C143.746 33.08 143.522 33.24 143.298 33.24C143.13 33.24 142.954 33.152 142.874 32.936C142.586 32.2 142.066 31.36 141.49 30.76C141.394 30.664 141.354 30.56 141.354 30.464C141.354 30.24 141.57 30.056 141.81 30.056C141.922 30.056 142.05 30.104 142.162 30.208ZM149.898 34.2C149.882 35.096 149.226 35.416 148.458 35.416C147.506 35.416 146.93 35 146.93 34.256C146.93 33.616 147.474 33.088 148.498 33.088C148.626 33.088 148.754 33.096 148.898 33.112C148.842 32.744 148.818 32.472 148.818 32.264C148.818 31.92 148.834 31.744 148.874 31.488C148.914 31.264 149.098 31.168 149.29 31.168C149.514 31.168 149.738 31.296 149.738 31.536C149.738 31.56 149.73 31.576 149.73 31.6C149.698 31.832 149.674 32.032 149.674 32.256C149.674 32.48 149.698 32.792 149.786 33.296C150.298 33.448 150.826 33.68 151.29 33.992C151.442 34.096 151.506 34.232 151.506 34.368C151.506 34.592 151.322 34.808 151.082 34.808C151.002 34.808 150.906 34.776 150.81 34.712C150.514 34.504 150.202 34.328 149.898 34.2ZM148.458 34.624C148.826 34.624 149.026 34.464 149.026 34.112C149.026 34.04 149.026 33.976 149.018 33.912C148.842 33.88 148.674 33.864 148.514 33.864C147.954 33.864 147.778 34.04 147.778 34.256C147.778 34.488 147.938 34.624 148.458 34.624ZM146.714 29.928C146.834 29.52 146.946 29.112 147.026 28.712C147.074 28.472 147.266 28.368 147.458 28.368C147.682 28.368 147.89 28.504 147.89 28.76C147.89 28.792 147.89 28.832 147.882 28.864C147.818 29.168 147.738 29.488 147.65 29.808C147.89 29.768 148.13 29.728 148.354 29.688C148.386 29.68 148.418 29.68 148.442 29.68C148.698 29.68 148.858 29.888 148.858 30.104C148.858 30.28 148.754 30.456 148.498 30.512C148.154 30.584 147.762 30.648 147.37 30.704C147.034 31.672 146.602 32.632 146.138 33.4C146.018 33.6 145.85 33.688 145.69 33.688C145.45 33.688 145.242 33.504 145.242 33.264C145.242 33.176 145.266 33.08 145.33 32.984C145.738 32.344 146.106 31.6 146.41 30.808C146.114 30.84 145.826 30.856 145.578 30.864C145.306 30.872 145.162 30.648 145.162 30.424C145.162 30.216 145.29 30.016 145.546 30.008C145.906 29.992 146.306 29.968 146.714 29.928ZM150.266 29.832C150.65 29.936 151.146 30.16 151.49 30.376C151.674 30.488 151.754 30.648 151.754 30.792C151.754 31.024 151.562 31.232 151.33 31.232C151.25 31.232 151.17 31.208 151.09 31.16C150.714 30.944 150.298 30.736 149.946 30.608C149.746 30.536 149.658 30.392 149.658 30.248C149.658 30.032 149.842 29.808 150.114 29.808C150.162 29.808 150.21 29.816 150.266 29.832ZM153.538 29.64C153.562 29.384 153.786 29.256 154.002 29.256C154.242 29.256 154.474 29.4 154.474 29.68C154.474 29.792 154.442 30.184 154.442 30.432C154.442 33.232 155.01 33.968 155.346 33.968C155.538 33.968 155.714 33.84 155.866 33.24C155.93 33 156.098 32.896 156.274 32.896C156.506 32.896 156.73 33.064 156.73 33.328C156.73 33.376 156.73 33.416 156.714 33.464C156.418 34.536 155.906 34.928 155.37 34.928C154.21 34.928 153.506 33.496 153.506 30.456C153.506 30.088 153.522 29.848 153.538 29.64ZM158.482 30.208C159.154 30.832 159.77 31.832 160.034 32.648C160.058 32.712 160.066 32.768 160.066 32.816C160.066 33.08 159.842 33.24 159.618 33.24C159.45 33.24 159.274 33.152 159.194 32.936C158.906 32.2 158.386 31.36 157.81 30.76C157.714 30.664 157.674 30.56 157.674 30.464C157.674 30.24 157.89 30.056 158.13 30.056C158.242 30.056 158.37 30.104 158.482 30.208Z" fill="#282828"/>
<rect x="169" y="28" width="8" height="8" rx="2" fill="#808080"/>
<path d="M183.466 33.904H183.554C183.69 33.904 183.722 33.88 183.722 33.736V33.056C183.722 32.856 183.89 32.752 184.05 32.752C184.218 32.752 184.378 32.856 184.378 33.056V33.808C184.378 34.368 184.202 34.528 183.666 34.528H182.49C181.954 34.528 181.778 34.368 181.778 33.808V33.056C181.778 32.856 181.946 32.752 182.106 32.752C182.274 32.752 182.434 32.856 182.434 33.056V33.736C182.434 33.88 182.466 33.904 182.602 33.904H182.682V32.368H181.778C181.602 32.368 181.546 32.416 181.546 32.576V35.272C181.546 35.496 181.338 35.616 181.13 35.616C180.922 35.616 180.714 35.496 180.714 35.272V32.464C180.714 31.928 181.01 31.68 181.626 31.68H182.682V31.152H180.658C180.45 31.152 180.338 30.976 180.338 30.8C180.338 30.624 180.45 30.448 180.658 30.448H181.826V29.856H181.106C180.898 29.856 180.786 29.68 180.786 29.504C180.786 29.328 180.898 29.152 181.106 29.152H181.826V28.6C181.826 28.368 182.026 28.256 182.226 28.256C182.426 28.256 182.626 28.368 182.626 28.6V29.152H183.53V28.6C183.53 28.368 183.73 28.256 183.93 28.256C184.13 28.256 184.33 28.368 184.33 28.6V29.152H185.09C185.306 29.152 185.418 29.328 185.418 29.504C185.418 29.68 185.306 29.856 185.09 29.856H184.33V30.448H185.506C185.722 30.448 185.834 30.624 185.834 30.8C185.834 30.976 185.722 31.152 185.506 31.152H183.466V31.68H184.53C185.146 31.68 185.442 31.928 185.442 32.464V34.744C185.442 35.304 185.162 35.536 184.698 35.536C184.522 35.536 184.354 35.528 184.226 35.512C183.986 35.488 183.874 35.312 183.874 35.136C183.874 34.952 184.002 34.768 184.226 34.768H184.282C184.346 34.776 184.41 34.784 184.49 34.784C184.578 34.784 184.61 34.752 184.61 34.624V32.576C184.61 32.416 184.554 32.368 184.378 32.368H183.466V33.904ZM183.53 29.856H182.626V30.448H183.53V29.856ZM179.466 32.88C179.53 32.688 179.69 32.6 179.866 32.6C180.09 32.6 180.322 32.752 180.322 33C180.322 33.04 180.314 33.08 180.306 33.12C180.09 33.872 179.738 34.696 179.41 35.248C179.306 35.424 179.138 35.504 178.986 35.504C178.754 35.504 178.546 35.336 178.546 35.104C178.546 35.032 178.562 34.952 178.618 34.864C178.93 34.344 179.25 33.576 179.466 32.88ZM179.586 28.504C179.81 28.672 180.05 28.896 180.226 29.096C180.314 29.2 180.354 29.312 180.354 29.408C180.354 29.648 180.146 29.832 179.922 29.832C179.81 29.832 179.698 29.784 179.602 29.672C179.418 29.472 179.186 29.232 179.01 29.08C178.898 28.984 178.858 28.88 178.858 28.784C178.858 28.576 179.058 28.4 179.29 28.4C179.386 28.4 179.49 28.432 179.586 28.504ZM179.074 30.432C179.306 30.6 179.57 30.832 179.746 31.032C179.842 31.144 179.89 31.256 179.89 31.36C179.89 31.592 179.666 31.776 179.442 31.776C179.33 31.776 179.218 31.736 179.122 31.632C178.946 31.432 178.674 31.176 178.498 31.032C178.386 30.936 178.338 30.832 178.338 30.736C178.338 30.52 178.546 30.336 178.786 30.336C178.882 30.336 178.978 30.368 179.074 30.432ZM189.89 31.48H188.858C188.066 31.48 187.786 31.168 187.786 30.592V29.52C187.786 28.944 188.066 28.632 188.858 28.632H191.666C192.458 28.632 192.738 28.944 192.738 29.52V30.592C192.738 31.168 192.458 31.48 191.666 31.48H190.738V32.448H192.73C192.946 32.448 193.058 32.64 193.058 32.832C193.058 33.024 192.946 33.216 192.73 33.216H190.738V34.512C191.122 34.576 191.554 34.6 192.058 34.6C192.538 34.6 192.986 34.576 193.506 34.528H193.554C193.818 34.528 193.962 34.728 193.962 34.944C193.962 35.136 193.842 35.328 193.578 35.352C193.082 35.4 192.57 35.416 192.074 35.416C190.17 35.416 189.066 35.016 188.33 33.952C188.058 34.512 187.73 35.032 187.394 35.416C187.282 35.544 187.154 35.592 187.034 35.592C186.81 35.592 186.61 35.424 186.61 35.208C186.61 35.112 186.65 35.008 186.746 34.904C187.322 34.264 187.818 33.264 188.05 32.272C188.098 32.064 188.274 31.968 188.45 31.968C188.666 31.968 188.89 32.104 188.89 32.344C188.89 32.376 188.882 32.408 188.874 32.448C188.818 32.696 188.738 32.944 188.65 33.192C188.786 33.4 188.938 33.6 189.122 33.768C189.346 33.984 189.61 34.152 189.89 34.272V31.48ZM188.986 30.728H191.538C191.826 30.728 191.89 30.656 191.89 30.464V29.664C191.89 29.472 191.826 29.4 191.538 29.4H188.986C188.698 29.4 188.634 29.472 188.634 29.664V30.464C188.634 30.656 188.698 30.728 188.986 30.728ZM196.426 32.976C196.426 31.704 196.506 30.184 196.594 29.008C196.61 28.736 196.834 28.608 197.058 28.608C197.298 28.608 197.522 28.744 197.522 29.008C197.522 29.096 197.506 29.304 197.498 29.392C197.418 30.576 197.354 31.8 197.354 32.984C197.354 34.056 197.682 34.344 198.25 34.344C198.994 34.344 199.69 34.04 200.426 33.128C200.538 32.984 200.682 32.928 200.81 32.928C201.058 32.928 201.282 33.12 201.282 33.368C201.282 33.464 201.25 33.56 201.17 33.664C200.258 34.8 199.29 35.232 198.25 35.232C197.058 35.232 196.426 34.64 196.426 32.976ZM206.998 30.208V30.192C206.038 30.32 204.766 30.512 203.614 30.68C203.582 30.688 203.558 30.688 203.534 30.688C203.246 30.688 203.086 30.456 203.086 30.232C203.086 30.024 203.214 29.832 203.502 29.792C205.166 29.584 207.23 29.352 208.894 29.2H208.942C209.222 29.2 209.374 29.408 209.374 29.624C209.374 29.816 209.254 30.008 209.006 30.056C208.726 30.104 208.422 30.208 208.126 30.376C206.878 31.088 206.614 31.92 206.614 32.68C206.614 33.568 207.23 34.112 208.35 34.248C208.646 34.288 208.782 34.504 208.782 34.72C208.782 34.96 208.606 35.192 208.31 35.192C208.19 35.192 207.862 35.144 207.718 35.112C206.534 34.816 205.686 33.936 205.686 32.704C205.686 31.864 206.094 30.92 206.998 30.208ZM211.478 29.64C211.502 29.384 211.726 29.256 211.942 29.256C212.182 29.256 212.414 29.4 212.414 29.68C212.414 29.792 212.382 30.184 212.382 30.432C212.382 33.232 212.95 33.968 213.286 33.968C213.478 33.968 213.654 33.84 213.806 33.24C213.87 33 214.038 32.896 214.214 32.896C214.446 32.896 214.67 33.064 214.67 33.328C214.67 33.376 214.67 33.416 214.654 33.464C214.358 34.536 213.846 34.928 213.31 34.928C212.15 34.928 211.446 33.496 211.446 30.456C211.446 30.088 211.462 29.848 211.478 29.64ZM216.422 30.208C217.094 30.832 217.71 31.832 217.974 32.648C217.998 32.712 218.006 32.768 218.006 32.816C218.006 33.08 217.782 33.24 217.558 33.24C217.39 33.24 217.214 33.152 217.134 32.936C216.846 32.2 216.326 31.36 215.75 30.76C215.654 30.664 215.614 30.56 215.614 30.464C215.614 30.24 215.83 30.056 216.07 30.056C216.182 30.056 216.31 30.104 216.422 30.208ZM224.158 34.2C224.142 35.096 223.486 35.416 222.718 35.416C221.766 35.416 221.19 35 221.19 34.256C221.19 33.616 221.734 33.088 222.758 33.088C222.886 33.088 223.014 33.096 223.158 33.112C223.102 32.744 223.078 32.472 223.078 32.264C223.078 31.92 223.094 31.744 223.134 31.488C223.174 31.264 223.358 31.168 223.55 31.168C223.774 31.168 223.998 31.296 223.998 31.536C223.998 31.56 223.99 31.576 223.99 31.6C223.958 31.832 223.934 32.032 223.934 32.256C223.934 32.48 223.958 32.792 224.046 33.296C224.558 33.448 225.086 33.68 225.55 33.992C225.702 34.096 225.766 34.232 225.766 34.368C225.766 34.592 225.582 34.808 225.342 34.808C225.262 34.808 225.166 34.776 225.07 34.712C224.774 34.504 224.462 34.328 224.158 34.2ZM222.718 34.624C223.086 34.624 223.286 34.464 223.286 34.112C223.286 34.04 223.286 33.976 223.278 33.912C223.102 33.88 222.934 33.864 222.774 33.864C222.214 33.864 222.038 34.04 222.038 34.256C222.038 34.488 222.198 34.624 222.718 34.624ZM220.974 29.928C221.094 29.52 221.206 29.112 221.286 28.712C221.334 28.472 221.526 28.368 221.718 28.368C221.942 28.368 222.15 28.504 222.15 28.76C222.15 28.792 222.15 28.832 222.142 28.864C222.078 29.168 221.998 29.488 221.91 29.808C222.15 29.768 222.39 29.728 222.614 29.688C222.646 29.68 222.678 29.68 222.702 29.68C222.958 29.68 223.118 29.888 223.118 30.104C223.118 30.28 223.014 30.456 222.758 30.512C222.414 30.584 222.022 30.648 221.63 30.704C221.294 31.672 220.862 32.632 220.398 33.4C220.278 33.6 220.11 33.688 219.95 33.688C219.71 33.688 219.502 33.504 219.502 33.264C219.502 33.176 219.526 33.08 219.59 32.984C219.998 32.344 220.366 31.6 220.67 30.808C220.374 30.84 220.086 30.856 219.838 30.864C219.566 30.872 219.422 30.648 219.422 30.424C219.422 30.216 219.55 30.016 219.806 30.008C220.166 29.992 220.566 29.968 220.974 29.928ZM224.526 29.832C224.91 29.936 225.406 30.16 225.75 30.376C225.934 30.488 226.014 30.648 226.014 30.792C226.014 31.024 225.822 31.232 225.59 31.232C225.51 31.232 225.43 31.208 225.35 31.16C224.974 30.944 224.558 30.736 224.206 30.608C224.006 30.536 223.918 30.392 223.918 30.248C223.918 30.032 224.102 29.808 224.374 29.808C224.422 29.808 224.47 29.816 224.526 29.832ZM227.798 29.64C227.822 29.384 228.046 29.256 228.262 29.256C228.502 29.256 228.734 29.4 228.734 29.68C228.734 29.792 228.702 30.184 228.702 30.432C228.702 33.232 229.27 33.968 229.606 33.968C229.798 33.968 229.974 33.84 230.126 33.24C230.19 33 230.358 32.896 230.534 32.896C230.766 32.896 230.99 33.064 230.99 33.328C230.99 33.376 230.99 33.416 230.974 33.464C230.678 34.536 230.166 34.928 229.63 34.928C228.47 34.928 227.766 33.496 227.766 30.456C227.766 30.088 227.782 29.848 227.798 29.64ZM232.742 30.208C233.414 30.832 234.03 31.832 234.294 32.648C234.318 32.712 234.326 32.768 234.326 32.816C234.326 33.08 234.102 33.24 233.878 33.24C233.71 33.24 233.534 33.152 233.454 32.936C233.166 32.2 232.646 31.36 232.07 30.76C231.974 30.664 231.934 30.56 231.934 30.464C231.934 30.24 232.15 30.056 232.39 30.056C232.502 30.056 232.63 30.104 232.742 30.208Z" fill="#282828"/>
</svg>
