<?xml version="1.0" encoding="UTF-8"?>
<svg id="_レイヤー_1" data-name="レイヤー_1" xmlns="http://www.w3.org/2000/svg" version="1.1" viewBox="0 0 275 56">
  <!-- Generator: Adobe Illustrator 30.1.0, SVG Export Plug-In . SVG Version: 2.1.1 Build 136)  -->
  <polygon points="275 0 247 0 28 0 0 0 10 28 0 56 28 56 247 56 275 56 265 28 275 0" fill="#69bd83"/>
  <path d="M51.6,19.6l.9,1c.1.2.2.3.2.5,0,.4-.3.6-.7.6s-.4,0-.5-.3l-.9-1c-.6.4-1.3.6-2,.6-2.2,0-4-1.7-4-4.7s1.8-4.7,4-4.7,4,1.6,4,4.7-.4,2.5-1,3.3ZM49.8,17.6l.9,1c.3-.6.5-1.3.5-2.2,0-2.1-.9-3.5-2.5-3.5s-2.5,1.3-2.5,3.5.9,3.5,2.5,3.5.8-.1,1.2-.3l-1.1-1.2c-.1-.1-.2-.3-.2-.5,0-.4.3-.6.7-.6s.3,0,.5.3ZM56.3,20.3v-6.6c-.4.4-.7.7-1.2,1.1-.2.1-.3.2-.5.2-.4,0-.7-.3-.7-.6s0-.4.3-.6c.6-.5,1.2-.9,1.8-1.5.3-.3.5-.4.9-.4s.8.3.8.8v7.6c0,.5-.3.7-.7.7s-.7-.2-.7-.7ZM62,19.2c.5,0,.9.4.9.9s-.4.9-.9.9-.9-.4-.9-.9.4-.9.9-.9ZM71.8,10.7h2.8c.3,0,.5.2.5.5s-.2.5-.5.5h-2.5c-.3,0-.5.2-.5.5v7.6c0,.3-.2.5-.5.5s-.5-.2-.5-.5v-7.8c0-.8.4-1.2,1.2-1.2ZM78,20.3v-2.3c-.3.7-.6,1.3-1,1.7-.2.2-.4.3-.5.3-.3,0-.6-.2-.6-.5s0-.3.2-.4c.7-.8,1.2-1.9,1.7-3.1h-1.2c-.3,0-.5-.3-.5-.6s.2-.6.4-.6h1.5v-3.6c0-.3.3-.5.6-.5s.6.2.6.5v3.6h1.2c.3,0,.5.3.5.6s-.2.6-.5.6h-1.2v.5c.6.4,1.2.9,1.5,1.2.1.2.2.3.2.5,0,.3-.3.5-.5.5s-.3,0-.5-.2c-.2-.2-.4-.4-.7-.6v3.7c0,.4-.3.5-.6.5s-.6-.2-.6-.5v-1.2ZM85.7,17.3l.8-.2s0,0,.1,0c.3,0,.5.3.5.6s-.1.5-.4.5l-1.1.3v3c0,.4-.3.6-.6.6s-.7-.2-.7-.6v-2.7l-2.8.6s0,0-.1,0c-.3,0-.6-.3-.6-.6s.1-.5.4-.5l3-.7v-6.1c0-.4.3-.6.7-.6s.6.2.6.6v5.8ZM79.8,12.6c0-.2.3-.3.5-.3s.5.2.5.5,0,0,0,.1c0,.4-.3.9-.5,1.3,0,.2-.3.3-.4.3-.3,0-.5-.2-.5-.4s0-.1,0-.2c.1-.3.3-.7.4-1.2ZM77.4,12.7c.2.4.4.9.4,1.1,0,0,0,0,0,.1,0,.3-.3.5-.6.5s-.4-.1-.5-.4c0-.3-.2-.8-.3-1,0,0,0-.1,0-.2,0-.3.3-.4.5-.4s.4,0,.5.3ZM82.8,12.5c.3.2.7.5,1,.9.1.1.2.3.2.4,0,.3-.3.6-.6.6s-.3,0-.5-.2c-.3-.3-.6-.6-.9-.8-.2-.1-.2-.3-.2-.4,0-.3.3-.6.6-.6s.3,0,.4.1ZM82.4,15c.4.3.7.5,1,.9.1.1.2.3.2.4,0,.3-.3.6-.6.6s-.3,0-.5-.2c-.3-.3-.6-.6-.9-.8-.2-.1-.2-.3-.2-.4,0-.3.3-.6.6-.6s.3,0,.4.1ZM94.9,17h-.9c-1,0-1.5-.4-1.5-1.3v-3c0-.9.4-1.3,1.5-1.3h3.1c1,0,1.5.4,1.5,1.3v3c0,.9-.4,1.3-1.5,1.3h-.9v1.1h1.8c.3,0,.5.3.5.6s-.2.6-.5.6h-1.8v1.3h2.6c.3,0,.5.3.5.6s-.2.6-.5.6h-7.1c-.3,0-.4-.3-.4-.6s.2-.6.4-.6h3.2v-1.3h-1.9c-.3,0-.4-.3-.4-.6s.2-.6.4-.6h1.9v-1.1ZM94.1,15.9h.8v-1.2h-1.2v.8c0,.3.1.3.4.3ZM93.7,13.7h1.2v-1.2h-.8c-.3,0-.4,0-.4.3v.8ZM96.1,12.6v1.2h1.2v-.8c0-.3,0-.3-.4-.3h-.9ZM97.3,14.8h-1.2v1.2h.9c.3,0,.4,0,.4-.3v-.8ZM89.5,18.7v-2.7h-.8c-.3,0-.5-.3-.5-.6s.2-.6.5-.6h.8v-2h-.9c-.3,0-.5-.3-.5-.6s.2-.6.5-.6h3c.3,0,.5.3.5.6s-.2.6-.5.6h-.9v2h.7c.3,0,.5.3.5.6s-.2.6-.5.6h-.7v2.3c.2,0,.4-.2.6-.2,0,0,.2,0,.3,0,.3,0,.5.3.5.6s0,.4-.3.5c-1,.4-2.2.8-3.1,1.1,0,0-.1,0-.2,0-.4,0-.6-.3-.6-.6s.1-.5.5-.6c.3,0,.7-.2,1-.3ZM102.7,20.2c-1.2,0-2.2-1-2.2-2.9,0-2.7,2.3-5,5.6-5s4.6,1.8,4.6,4.2-1.3,3.8-3.3,4.4c0,0-.2,0-.3,0-.4,0-.7-.3-.7-.7s.1-.5.5-.7c1.7-.6,2.4-1.6,2.4-3.1s-1.1-2.9-2.9-3c-.1,2-.6,3.8-1.4,5.1-.7,1.2-1.4,1.5-2.3,1.5ZM105,13.7c-1.8.3-3.1,1.9-3.1,3.7s.4,1.5.9,1.5.7-.2,1-.8c.6-1.1,1.1-2.6,1.2-4.4ZM118.2,11.5v1.2h.8c.7,0,1.4,0,2,0,.4,0,.6.3.6.6s-.2.6-.6.6c-.5,0-1,0-1.5,0s-.8,0-1.2,0c0,.4,0,.8,0,1.3.8,0,1.6-.1,2.3-.2h0c.4,0,.6.3.6.6s-.2.6-.6.6c-.7,0-1.5.2-2.3.2,0,.5,0,1.1.1,1.6,1,.3,2,.7,3,1.3.3.2.4.4.4.6,0,.4-.3.7-.7.7s-.3,0-.4-.1c-.7-.5-1.5-.9-2.2-1.2h0c0,1.4-1.1,2-2.5,2s-2.5-.7-2.5-1.8.9-1.8,2.6-1.8.6,0,1,0c0-.4,0-.9,0-1.3h-.7c-.7,0-1.5,0-1.9,0-.4,0-.6-.3-.6-.6s.2-.6.6-.6h0c.4,0,1,0,1.7,0h.6c0-.4,0-.9,0-1.3-1,0-2,0-2.9,0-.4,0-.6-.3-.6-.6s.2-.6.6-.6c.8,0,1.8,0,2.9,0v-1.2c0-.4.3-.5.7-.5s.7.2.7.5ZM116,20.2c.8,0,1.2-.4,1.2-.9v-.3c-.4,0-.7-.1-1.1-.1-.9,0-1.2.3-1.2.6s.3.6,1.1.6ZM131.7,19.8c0,1.3-1,1.8-2.2,1.8s-2.3-.6-2.3-1.7.8-1.8,2.4-1.8.4,0,.6,0c0-.6-.1-1-.1-1.3,0-.5,0-.8,0-1.2,0-.3.3-.5.6-.5s.7.2.7.6,0,0,0,0c0,.3,0,.6,0,1s0,.8.2,1.6c.8.2,1.6.6,2.3,1,.2.2.3.4.3.6,0,.3-.3.7-.6.7s-.3,0-.4-.1c-.4-.3-.9-.6-1.4-.8ZM129.6,20.4c.6,0,.9-.2.9-.8s0-.2,0-.3c-.3,0-.5,0-.8,0-.8,0-1.1.3-1.1.6s.2.6,1,.6ZM127,13.4c.2-.6.3-1.2.5-1.8,0-.4.4-.5.6-.5s.6.2.6.6,0,.1,0,.2c0,.5-.2.9-.3,1.4.4,0,.7-.1,1.1-.2,0,0,0,0,.1,0,.4,0,.6.3.6.6s-.2.5-.5.6c-.5.1-1.1.2-1.7.3-.5,1.5-1.2,2.9-1.8,4-.2.3-.4.4-.7.4-.4,0-.7-.3-.7-.6s0-.3.1-.4c.6-1,1.2-2.1,1.6-3.3-.4,0-.9,0-1.2,0-.4,0-.6-.3-.6-.7s.2-.6.6-.6c.5,0,1.1,0,1.8-.1ZM132.3,13.2c.6.2,1.3.5,1.8.8.3.2.4.4.4.6,0,.3-.3.7-.6.7s-.2,0-.4-.1c-.6-.3-1.2-.6-1.7-.8-.3-.1-.4-.3-.4-.5,0-.3.3-.7.7-.7s.1,0,.2,0ZM144.6,12c0,0,0-.2,0-.3,0-.2.2-.4.5-.4s.3,0,.4.2c.3.3.6.7.8,1.1,0,0,0,.2,0,.3,0,.3-.2.5-.5.5s-.3,0-.4-.3c-.2-.4-.5-.8-.8-1.1ZM145.9,11.2c0,0-.1-.2-.1-.3,0-.2.2-.4.5-.4s.3,0,.4.2c.3.3.6.7.8,1.1,0,.1.1.2.1.3,0,.3-.2.5-.5.5s-.3,0-.4-.3c-.2-.4-.5-.8-.8-1.1ZM139.1,13.7h0c-.5,0-1.2.2-1.9.3h0c-.4,0-.6-.3-.6-.7s.2-.6.6-.6c1.1,0,2.3-.3,3.2-.5,0,0,.1,0,.2,0,.4,0,.7.3.7.7s0,.4-.3.5c-1.8,1.5-2.3,3.1-2.3,4.4s.8,2.2,1.9,2.2c1.7,0,2.7-1.2,2.7-3.8s-.2-2.5-.5-3.5c0,0,0-.1,0-.2,0-.4.3-.6.7-.6s.5.1.6.4c.6,1.2,1.6,2.6,2.5,3.5.2.2.3.4.3.6,0,.4-.3.7-.7.7s-.4,0-.6-.3c-.6-.8-1.1-1.5-1.3-2h0c.1.6.2,1.3.2,1.9,0,3-1.6,4.7-3.9,4.7s-3.3-1.1-3.3-3.6.5-2.8,1.9-4.2ZM158.3,10.5c.7,0,1.3.6,1.3,1.3s-.6,1.3-1.3,1.3-1.3-.6-1.3-1.3.6-1.3,1.3-1.3ZM158.3,11.1c-.4,0-.7.3-.7.7s.3.7.7.7.7-.3.7-.7-.3-.7-.7-.7ZM149.8,12.9h6.1c1.3,0,1.8.4,1.8,1.2s0,.4,0,.7c-.7,2.8-2.7,5.3-5.6,6.7-.1,0-.3,0-.4,0-.4,0-.7-.3-.7-.7s.1-.5.4-.6c2.7-1.4,4.2-3.3,4.8-5.4,0,0,0-.2,0-.2,0-.2-.2-.3-.5-.3h-5.8c-.5,0-.7-.3-.7-.6s.2-.7.6-.7ZM167.2,20.6h-4.7c-1.4,0-2-.6-2-1.7v-4.5c0-1.1.6-1.7,2-1.7h4.7c1.4,0,2,.6,2,1.7v4.5c0,1.1-.6,1.7-2,1.7ZM162.7,19.3h4.3c.6,0,.7-.2.7-.6v-4.1c0-.4-.2-.6-.7-.6h-4.3c-.6,0-.7.2-.7.6v4.1c0,.4.2.6.7.6ZM176.5,13.3h2.2c1,0,1.5.4,1.5,1.1s0,.4-.1.6c-.8,2.8-2.9,5.3-5.5,6.8-.1,0-.3.1-.4.1-.4,0-.7-.3-.7-.7s.1-.5.4-.6c2.4-1.4,4-3.4,4.7-5.7,0,0,0-.1,0-.2,0-.1,0-.2-.3-.2h-2.7c-.6.9-1.3,1.7-2,2.3-.2.2-.4.2-.6.2-.4,0-.7-.3-.7-.6s0-.4.3-.6c1.1-1,2.3-2.7,2.9-4.1.1-.3.4-.5.7-.5s.7.3.7.6,0,.2,0,.3c-.2.4-.3.7-.5,1.1ZM179.6,12.1c0,0,0-.2,0-.3,0-.2.2-.4.5-.4s.3,0,.4.2c.3.3.6.7.8,1.1,0,0,0,.2,0,.3,0,.3-.2.5-.5.5s-.3,0-.4-.3c-.2-.4-.5-.8-.8-1.1ZM180.9,11.2c0,0-.1-.2-.1-.3,0-.2.2-.4.5-.4s.3,0,.4.2c.3.3.6.7.8,1.1,0,.1.1.2.1.3,0,.3-.2.5-.5.5s-.3,0-.4-.3c-.2-.4-.5-.8-.8-1.1ZM186.3,12h5.2c.4,0,.6.3.6.6s-.2.6-.6.6h-5.2c-.4,0-.6-.3-.6-.6s.2-.6.6-.6ZM185.1,14.7h6.3c1.1,0,1.6.4,1.6,1.1s0,.4-.1.7c-.7,2.2-2.7,4-5.1,4.9-.1,0-.2,0-.3,0-.4,0-.7-.3-.7-.7s.1-.5.5-.6c2.1-.8,3.6-2.2,4.2-3.8,0,0,0-.2,0-.2,0-.1-.1-.2-.4-.2h-6.1c-.4,0-.6-.3-.6-.6s.2-.6.6-.6ZM199.2,19.3c1.4-.1,2.8-.3,4.2-.5-.4-.6-.8-1.2-1.1-1.6-.1-.1-.2-.3-.2-.4,0-.3.3-.6.7-.6s.4,0,.6.3c.9,1,1.8,2.5,2.4,3.7,0,.1,0,.3,0,.4,0,.4-.4.7-.7.7s-.5-.1-.6-.4c-.1-.3-.3-.6-.5-.9-2.1.4-4.6.7-6.8.9-.2,0-.5,0-.5,0-.4,0-.6-.3-.6-.7s.2-.7.6-.7c.3,0,.7,0,1,0,.9-2.4,1.8-5,2.3-7.2,0-.4.4-.5.7-.5s.8.2.8.7,0,.1,0,.2c-.5,2.2-1.4,4.7-2.2,6.8ZM210.8,22.2h-2.8c-.3,0-.5-.2-.5-.5s.2-.5.5-.5h2.5c.3,0,.5-.2.5-.5v-7.6c0-.3.2-.5.5-.5s.5.2.5.5v7.8c0,.8-.4,1.2-1.2,1.2ZM222,20.2c-1.2,0-2.2-1-2.2-2.9,0-2.7,2.3-5,5.6-5s4.6,1.8,4.6,4.2-1.3,3.8-3.3,4.4c0,0-.2,0-.3,0-.4,0-.7-.3-.7-.7s.1-.5.5-.7c1.7-.6,2.4-1.6,2.4-3.1s-1.1-2.9-2.9-3c-.1,2-.6,3.8-1.4,5.1-.7,1.2-1.4,1.5-2.3,1.5ZM224.3,13.7c-1.8.3-3.1,1.9-3.1,3.7s.4,1.5.9,1.5.7-.2,1-.8c.6-1.1,1.1-2.6,1.2-4.4ZM73.6,43.4h.1c.2,0,.3,0,.3-.3v-1c0-.3.3-.5.5-.5s.5.2.5.5v1.1c0,.8-.3,1.1-1.1,1.1h-1.8c-.8,0-1.1-.2-1.1-1.1v-1.1c0-.3.3-.5.5-.5s.5.2.5.5v1c0,.2,0,.3.3.3h.1v-2.3h-1.4c-.3,0-.3,0-.3.3v4c0,.3-.3.5-.6.5s-.6-.2-.6-.5v-4.2c0-.8.4-1.2,1.4-1.2h1.6v-.8h-3c-.3,0-.5-.3-.5-.5s.2-.5.5-.5h1.8v-.9h-1.1c-.3,0-.5-.3-.5-.5s.2-.5.5-.5h1.1v-.8c0-.3.3-.5.6-.5s.6.2.6.5v.8h1.4v-.8c0-.3.3-.5.6-.5s.6.2.6.5v.8h1.1c.3,0,.5.3.5.5s-.2.5-.5.5h-1.1v.9h1.8c.3,0,.5.3.5.5s-.2.5-.5.5h-3.1v.8h1.6c.9,0,1.4.4,1.4,1.2v3.4c0,.8-.4,1.2-1.1,1.2s-.5,0-.7,0c-.4,0-.5-.3-.5-.6s.2-.6.5-.6h0c0,0,.2,0,.3,0s.2,0,.2-.2v-3.1c0-.2,0-.3-.3-.3h-1.4v2.3ZM73.6,37.3h-1.4v.9h1.4v-.9ZM67.6,41.8c0-.3.3-.4.6-.4s.7.2.7.6,0,.1,0,.2c-.3,1.1-.9,2.4-1.3,3.2-.2.3-.4.4-.6.4-.3,0-.7-.3-.7-.6s0-.2.1-.4c.5-.8.9-1.9,1.3-3ZM67.7,35.3c.3.3.7.6,1,.9.1.2.2.3.2.5,0,.4-.3.6-.6.6s-.3,0-.5-.2c-.3-.3-.6-.7-.9-.9-.2-.1-.2-.3-.2-.4,0-.3.3-.6.6-.6s.3,0,.4.2ZM67,38.1c.3.3.7.6,1,.9.1.2.2.3.2.5,0,.3-.3.6-.7.6s-.3,0-.5-.2c-.3-.3-.7-.7-.9-.9-.2-.1-.2-.3-.2-.4,0-.3.3-.6.7-.6s.3,0,.4.1ZM82.9,39.7h-1.5c-1.2,0-1.6-.5-1.6-1.3v-1.6c0-.9.4-1.3,1.6-1.3h4.2c1.2,0,1.6.5,1.6,1.3v1.6c0,.9-.4,1.3-1.6,1.3h-1.4v1.5h3c.3,0,.5.3.5.6s-.2.6-.5.6h-3v1.9c.6,0,1.2.1,2,.1s1.4,0,2.2-.1h0c.4,0,.6.3.6.6s-.2.6-.6.6c-.7,0-1.5,0-2.3,0-2.9,0-4.5-.6-5.6-2.2-.4.8-.9,1.6-1.4,2.2-.2.2-.4.3-.5.3-.3,0-.6-.3-.6-.6s0-.3.2-.5c.9-1,1.6-2.5,2-3.9,0-.3.3-.5.6-.5s.7.2.7.6,0,0,0,.2c0,.4-.2.7-.3,1.1.2.3.4.6.7.9.3.3.7.6,1.2.8v-4.2ZM81.6,38.6h3.8c.4,0,.5-.1.5-.4v-1.2c0-.3,0-.4-.5-.4h-3.8c-.4,0-.5.1-.5.4v1.2c0,.3,0,.4.5.4ZM93.3,41.5h4.6c.9,0,1.3.4,1.3.9s-.1.6-.4.9c-.3.3-.6.5-.9.8.7.3,1.5.5,2.4.6.3,0,.5.3.5.6s-.2.6-.6.6,0,0-.1,0c-1.3-.2-2.4-.6-3.4-1.1-1.2.6-2.5,1-3.8,1.2,0,0,0,0-.1,0-.4,0-.6-.3-.6-.6s.2-.5.5-.6c1.1-.1,2-.4,2.9-.7-.6-.4-1.1-.9-1.5-1.5h-.7c-.3,0-.4-.3-.4-.5s.2-.5.4-.5ZM97.5,42.6h-2c.4.3.8.7,1.2.9.3-.2.6-.4.9-.7,0,0,.1-.1.1-.2s0,0-.2,0ZM94.2,39.1h-1.3c-.3,0-.4-.3-.4-.5s.2-.5.4-.5h1.3v-.4c0-.3.3-.5.6-.5s.6.2.6.5v.4h2v-.4c0-.3.3-.5.6-.5s.6.2.6.5v.4h1.6c.3,0,.5.3.5.5s-.2.5-.5.5h-1.6v.6c0,.9-.4,1.1-1.3,1.1h-1.7c-1,0-1.3-.3-1.3-1.1v-.6ZM95.4,39.1v.4c0,.3,0,.3.3.3h1.3c.3,0,.3,0,.3-.3v-.4h-2ZM95.1,36v-.8c0-.3.3-.5.6-.5s.6.2.6.5v.8h3.9c.3,0,.5.3.5.5s-.2.6-.5.6h-7.5c-.5,0-.7.1-.7.6v1.8c0,2.3-.4,4.1-1.1,5.5-.2.3-.4.4-.6.4s-.6-.2-.6-.6,0-.2,0-.3c.6-1.3,1-2.9,1-5.1v-2c0-1,.5-1.4,1.6-1.4h2.6ZM105.6,39.3h0c.3,0,.7-.2,1-.2.8,0,1.4.3,1.7,1.1.9-.4,1.9-.8,3-1.1,0,0,.2,0,.2,0,.4,0,.6.3.6.6s-.1.5-.5.6c-1,.3-2.1.7-3.1,1.1,0,.4,0,1,.1,1.6,0,.4-.3.6-.7.6s-.6-.2-.6-.6c0-.5,0-.8,0-1.2-1.2.6-1.5,1.2-1.5,1.6s.4.7,1.8.7,1.5,0,2.3-.2c0,0,0,0,.1,0,.4,0,.6.3.6.7s-.2.6-.6.6c-.8.1-1.7.2-2.5.2-2.3,0-3.2-.8-3.2-1.9s.6-1.9,2.7-3c-.2-.4-.4-.5-.8-.5s-1.3.3-2.5,1.2c-.1.1-.3.2-.4.2-.3,0-.6-.3-.6-.6s0-.4.3-.5c.8-.7,1.4-1.4,2-2.3-.5,0-.9,0-1.3,0-.4,0-.7-.3-.7-.6s.2-.6.7-.6,1.2,0,1.9,0c.2-.5.4-.9.5-1.4,0-.3.3-.4.6-.4s.7.2.7.6,0,.1,0,.2c-.1.3-.2.6-.4.9.6,0,1.2-.1,1.7-.2,0,0,0,0,.1,0,.4,0,.6.3.6.6s-.2.5-.5.6c-.8.1-1.7.3-2.5.3-.3.5-.6.9-.9,1.3ZM119.3,37.8h.6c.3,0,.5.3.5.5s-.2.5-.5.5h-1.3c-.2.3-.5.6-.8.9h.5c.6,0,1,.3,1,.7s-.1.5-.4.8c-.3.3-.6.6-1,.9v.3c.6-.1,1.1-.2,1.7-.4,0,0,.1,0,.2,0,.3,0,.5.3.5.6s-.1.5-.4.5c-.6.2-1.3.3-2,.4v1.3c0,.9-.5,1.2-1.3,1.2s-.5,0-.8,0c-.3,0-.4-.3-.4-.6s.2-.6.5-.6,0,0,.1,0c.2,0,.3,0,.5,0s.2,0,.2-.3v-.9c-.7.1-1.4.2-2,.3h0c-.4,0-.6-.3-.6-.6s.2-.5.5-.6c.7,0,1.4-.2,2.1-.3v-.9c0-.3.3-.5.6-.5s.1,0,.2,0c.1,0,.2-.2.3-.3,0,0,0,0,0-.1,0,0,0,0-.1,0h-.9c-.7.6-1.4,1.1-2.1,1.5,0,0-.2,0-.3,0-.3,0-.6-.3-.6-.6s0-.4.3-.5c.3-.2.6-.3.9-.6h0c-.3,0-.5-.3-.5-.5s.2-.5.5-.5h1.2c.3-.3.6-.6.8-.9h-2.7c-.3,0-.5-.3-.5-.5s.2-.5.5-.5h1.8v-.7h-1.1c-.3,0-.5-.3-.5-.5s.2-.5.5-.5h1.1v-.7c0-.3.3-.5.6-.5s.6.2.6.5v.7h.9c.3,0,.5.3.5.5h0c.2-.3.4-.7.6-1.1.1-.3.3-.4.5-.4.3,0,.6.2.6.6s0,.2,0,.3c-.3.6-.7,1.2-1.1,1.8ZM117.4,37.8h.6c.2-.2.3-.5.5-.7,0,0-.1,0-.2,0h-.9v.7ZM124.7,38.6h-.4c-.2,1.3-.6,2.7-1.2,3.9.5.8,1.2,1.5,1.9,2,.2.2.3.4.3.6,0,.3-.3.6-.7.6s-.3,0-.4-.2c-.7-.6-1.3-1.2-1.8-2-.7.9-1.5,1.7-2.4,2.3-.1,0-.3.1-.4.1-.3,0-.6-.3-.6-.6s0-.4.3-.6c1-.6,1.8-1.4,2.4-2.4-.3-.6-.6-1.3-.8-2v.2c-.2.3-.5.4-.7.4-.3,0-.6-.2-.6-.6s0-.2,0-.3c.8-1.3,1.4-3,1.7-4.6,0-.3.3-.5.6-.5s.6.2.6.6,0,0,0,.1c-.1.6-.3,1.2-.5,1.8h2.5c.3,0,.5.3.5.6s-.2.6-.5.6ZM123.1,38.6h-1.3v.3c0,.8.3,1.6.6,2.3.4-.8.6-1.7.7-2.6ZM130.2,35.3c.8,0,1.8.3,2.5.6.3.1.5.4.5.6s-.3.7-.6.7-.2,0-.3,0c-.7-.2-1.6-.4-2.3-.6-.4,0-.6-.3-.6-.6s.3-.7.7-.7,0,0,.1,0ZM128.2,38.3l4.2-.6c0,0,.1,0,.2,0,.6,0,.9.4.9.8s0,.4-.2.6l-2,2.1h0c.2,0,.4,0,.5,0,.8,0,1.2.5,1.3,1.5v.3c0,.8.2,1,.8,1s1.3-.1,1.9-.2c0,0,.1,0,.2,0,.4,0,.6.3.6.7s-.2.6-.5.6c-.8.2-1.6.3-2.3.3-1.4,0-2.1-.6-2.1-2.1v-.3c0-.4-.2-.6-.5-.6s-.8.2-1.3.6c-.4.3-1.1,1-2.1,2.1-.2.2-.3.3-.5.3-.4,0-.7-.3-.7-.6s0-.3.2-.5l4.6-4.8h0s-3.1.5-3.1.5c0,0,0,0-.1,0-.4,0-.6-.3-.6-.7s.2-.6.6-.6ZM144.4,37.8h0c-1.4.2-3.3.5-5.1.7,0,0,0,0-.1,0-.4,0-.7-.3-.7-.7s.2-.6.6-.7c2.5-.3,5.6-.7,8.1-.9h0c.4,0,.6.3.6.6s-.2.6-.6.6c-.4,0-.9.2-1.3.5-1.9,1.1-2.3,2.3-2.3,3.5s.9,2.1,2.6,2.4c.4,0,.6.4.6.7s-.3.7-.7.7-.7,0-.9-.1c-1.8-.4-3-1.8-3-3.6s.6-2.7,2-3.7ZM155.9,35.5c.1-.2.4-.3.6-.3.4,0,.7.3.7.7s0,.3-.1.4c-.7,1.1-1.8,2.4-2.7,3.4-.2.2-.3.3-.3.5s0,.3.3.6c1.1,1.1,2.1,2.5,3,3.7.1.2.2.3.2.5,0,.4-.4.7-.8.7s-.5-.1-.7-.4c-.8-1.2-1.9-2.7-2.8-3.7-.4-.5-.6-.9-.6-1.3s.1-.8.6-1.2c.9-.9,1.9-2.3,2.7-3.5ZM164.5,39c-.5,0-1.2.1-1.5.1-.4,0-.6-.3-.6-.6s.2-.6.6-.7c.5,0,1.1,0,1.7-.2.1-.7.2-1.2.2-1.8,0-.4.3-.6.7-.6s.7.2.7.6h0c0,.6-.1,1.1-.2,1.5.3,0,.7-.2,1-.2,0,0,.1,0,.2,0,.4,0,.6.3.6.6s-.1.5-.5.6c-.6.2-1.1.3-1.6.4-.4,2.4-1,4.6-1.7,6.3-.1.4-.4.5-.7.5s-.7-.2-.7-.6,0-.2,0-.3c.7-1.6,1.2-3.5,1.6-5.6ZM169.4,36.7c0,0-.1-.2-.1-.3,0-.2.2-.5.5-.5s.2,0,.3.1c.3.3.7.7.9,1,0,.1.1.2.1.3,0,.3-.2.5-.5.5s-.3,0-.4-.2c-.3-.4-.6-.7-.9-1ZM167,43.1c0-.4.3-.6.7-.6s.5.2.6.5c0,.8.5,1,1.8,1s1.1,0,1.6-.1c0,0,0,0,.1,0,.4,0,.6.3.6.7s-.2.6-.6.6c-.5,0-1.1.1-1.8.1-1.4,0-2.1-.3-2.6-.8-.3-.3-.5-.9-.5-1.4ZM170.6,35.8c0,0-.1-.2-.1-.3,0-.2.2-.4.5-.4s.2,0,.4.1c.3.3.7.6.9,1,0,.1.1.2.1.4,0,.3-.2.5-.5.5s-.3,0-.4-.2c-.3-.3-.6-.7-.9-1ZM168.2,39.2c.9-.2,2.1-.3,3.1-.3s.6.3.6.6-.2.6-.6.6c-1,0-2.1.1-2.9.3,0,0-.1,0-.1,0-.4,0-.6-.3-.6-.6s.2-.6.6-.6ZM180.9,41h0c-.6-.6-1-1.3-1.4-2.1-1.3.2-3.1.4-3.7.4s-.6-.3-.6-.7.2-.6.6-.6c1,0,2.2-.2,3.3-.4-.2-.6-.5-1.2-.6-1.9,0,0,0,0,0-.1,0-.4.4-.6.7-.6s.5.1.6.5c.2.6.3,1.3.6,1.9.9-.2,1.8-.4,2.4-.6,0,0,.2,0,.3,0,.4,0,.6.3.6.6s-.1.5-.5.6c-.6.2-1.4.4-2.3.6.4.8,1.1,1.7,2,2.7.1.2.2.3.2.5,0,.4-.3.7-.7.7s-.2,0-.2,0c-.9-.3-1.8-.5-2.8-.5-1.5,0-1.9.4-1.9,1.1s.5,1.1,2.3,1.1.9,0,1.3,0h0c.4,0,.6.3.6.6s-.2.6-.6.6c-.4,0-.8,0-1.4,0-2.4,0-3.7-.9-3.7-2.4s1-2.3,3.3-2.3,1.1,0,1.6.2ZM186.8,37c0-.4.4-.6.7-.6s.7.2.7.6,0,.8,0,1.1c0,4.2.9,5.3,1.4,5.3s.6-.2.8-1.1c0-.4.3-.5.6-.5s.7.3.7.6,0,.1,0,.2c-.4,1.6-1.2,2.2-2,2.2-1.7,0-2.8-2.1-2.8-6.7s0-.9,0-1.2ZM194.3,37.8c1,.9,1.9,2.4,2.3,3.7,0,0,0,.2,0,.3,0,.4-.3.6-.7.6s-.5-.1-.6-.5c-.4-1.1-1.2-2.4-2.1-3.3-.1-.1-.2-.3-.2-.4,0-.3.3-.6.7-.6s.4,0,.5.2ZM200.2,41.7c1.1,0,2,.9,2,2s-.9,2-2,2-2-.9-2-2,.9-2,2-2ZM200.2,42.5c-.7,0-1.2.5-1.2,1.2s.5,1.2,1.2,1.2,1.2-.5,1.2-1.2-.5-1.2-1.2-1.2Z" fill="#282828"/>
</svg>