<?xml version="1.0" encoding="UTF-8"?>
<svg id="_レイヤー_1" data-name="レイヤー_1" xmlns="http://www.w3.org/2000/svg" version="1.1" viewBox="0 0 288 56">
  <!-- Generator: Adobe Illustrator 30.1.0, SVG Export Plug-In . SVG Version: 2.1.1 Build 136)  -->
  <polygon points="288 0 260 0 28 0 0 0 10 28 0 56 28 56 260 56 288 56 278 28 288 0" fill="#69bd83"/>
  <path d="M51.8,19.6l.9,1c.1.2.2.3.2.5,0,.4-.3.6-.7.6s-.4,0-.5-.3l-.9-1c-.6.4-1.3.6-2,.6-2.2,0-4-1.7-4-4.7s1.8-4.7,4-4.7,4,1.6,4,4.7-.4,2.5-1,3.3ZM49.9,17.6l.9,1c.3-.6.5-1.3.5-2.2,0-2.1-.9-3.5-2.5-3.5s-2.5,1.3-2.5,3.5.9,3.5,2.5,3.5.8-.1,1.2-.3l-1.1-1.2c-.1-.1-.2-.3-.2-.5,0-.4.3-.6.7-.6s.3,0,.5.3ZM55.7,19.7h3.4c.4,0,.6.3.6.6s-.2.6-.6.6h-4.4c-.4,0-.7-.3-.7-.8s.1-.6.4-.8c1-.9,1.8-1.6,2.7-2.7.7-.9,1.1-1.5,1.1-2.2s-.5-1.4-1.2-1.4-1,.2-1.6.8c-.1.1-.3.2-.5.2-.4,0-.7-.3-.7-.7s0-.3.2-.5c.6-.6,1.6-1.1,2.5-1.1,1.7,0,2.7,1,2.7,2.6s-.4,1.8-1.5,3c-1,1-1.6,1.6-2.3,2.3ZM62.1,19.2c.5,0,.9.4.9.9s-.4.9-.9.9-.9-.4-.9-.9.4-.9.9-.9ZM66.1,20.3v-2.3c-.3.7-.6,1.3-1,1.7-.2.2-.4.3-.5.3-.3,0-.6-.2-.6-.5s0-.3.2-.4c.7-.8,1.2-1.9,1.7-3.1h-1.2c-.3,0-.5-.3-.5-.6s.2-.6.4-.6h1.5v-3.6c0-.3.3-.5.6-.5s.6.2.6.5v3.6h1.2c.3,0,.5.3.5.6s-.2.6-.5.6h-1.2v.5c.6.4,1.2.9,1.5,1.2.1.2.2.3.2.5,0,.3-.3.5-.5.5s-.3,0-.5-.2c-.2-.2-.4-.4-.7-.6v3.7c0,.4-.3.5-.6.5s-.6-.2-.6-.5v-1.2ZM73.9,17.3l.8-.2s0,0,.1,0c.3,0,.5.3.5.6s-.1.5-.4.5l-1.1.3v3c0,.4-.3.6-.6.6s-.7-.2-.7-.6v-2.7l-2.8.6s0,0-.1,0c-.3,0-.6-.3-.6-.6s.1-.5.4-.5l3-.7v-6.1c0-.4.3-.6.7-.6s.6.2.6.6v5.8ZM68,12.6c0-.2.3-.3.5-.3s.5.2.5.5,0,0,0,.1c0,.4-.3.9-.5,1.3,0,.2-.3.3-.4.3-.3,0-.5-.2-.5-.4s0-.1,0-.2c.1-.3.3-.7.4-1.2ZM65.5,12.7c.2.4.4.9.4,1.1,0,0,0,0,0,.1,0,.3-.3.5-.6.5s-.4-.1-.5-.4c0-.3-.2-.8-.3-1,0,0,0-.1,0-.2,0-.3.3-.4.5-.4s.4,0,.5.3ZM71,12.5c.3.2.7.5,1,.9.1.1.2.3.2.4,0,.3-.3.6-.6.6s-.3,0-.5-.2c-.3-.3-.6-.6-.9-.8-.2-.1-.2-.3-.2-.4,0-.3.3-.6.6-.6s.3,0,.4.1ZM70.5,15c.4.3.7.5,1,.9.1.1.2.3.2.4,0,.3-.3.6-.6.6s-.3,0-.5-.2c-.3-.3-.6-.6-.9-.8-.2-.1-.2-.3-.2-.4,0-.3.3-.6.6-.6s.3,0,.4.1ZM83,17h-.9c-1,0-1.5-.4-1.5-1.3v-3c0-.9.4-1.3,1.5-1.3h3.1c1,0,1.5.4,1.5,1.3v3c0,.9-.4,1.3-1.5,1.3h-.9v1.1h1.8c.3,0,.5.3.5.6s-.2.6-.5.6h-1.8v1.3h2.6c.3,0,.5.3.5.6s-.2.6-.5.6h-7.1c-.3,0-.4-.3-.4-.6s.2-.6.4-.6h3.2v-1.3h-1.9c-.3,0-.4-.3-.4-.6s.2-.6.4-.6h1.9v-1.1ZM82.3,15.9h.8v-1.2h-1.2v.8c0,.3.1.3.4.3ZM81.9,13.7h1.2v-1.2h-.8c-.3,0-.4,0-.4.3v.8ZM84.2,12.6v1.2h1.2v-.8c0-.3,0-.3-.4-.3h-.9ZM85.5,14.8h-1.2v1.2h.9c.3,0,.4,0,.4-.3v-.8ZM77.6,18.7v-2.7h-.8c-.3,0-.5-.3-.5-.6s.2-.6.5-.6h.8v-2h-.9c-.3,0-.5-.3-.5-.6s.2-.6.5-.6h3c.3,0,.5.3.5.6s-.2.6-.5.6h-.9v2h.7c.3,0,.5.3.5.6s-.2.6-.5.6h-.7v2.3c.2,0,.4-.2.6-.2,0,0,.2,0,.3,0,.3,0,.5.3.5.6s0,.4-.3.5c-1,.4-2.2.8-3.1,1.1,0,0-.1,0-.2,0-.4,0-.6-.3-.6-.6s.1-.5.5-.6c.3,0,.7-.2,1-.3ZM90.9,20.2c-1.2,0-2.2-1-2.2-2.9,0-2.7,2.3-5,5.6-5s4.6,1.8,4.6,4.2-1.3,3.8-3.3,4.4c0,0-.2,0-.3,0-.4,0-.7-.3-.7-.7s.1-.5.5-.7c1.7-.6,2.4-1.6,2.4-3.1s-1.1-2.9-2.9-3c-.1,2-.6,3.8-1.4,5.1-.7,1.2-1.4,1.5-2.3,1.5ZM93.1,13.7c-1.8.3-3.1,1.9-3.1,3.7s.4,1.5.9,1.5.7-.2,1-.8c.6-1.1,1.1-2.6,1.2-4.4ZM107.9,10.7h2.8c.3,0,.5.2.5.5s-.2.5-.5.5h-2.5c-.3,0-.5.2-.5.5v7.6c0,.3-.2.5-.5.5s-.5-.2-.5-.5v-7.8c0-.8.4-1.2,1.2-1.2ZM117,12.9v-1.6c0-.4.3-.5.7-.5s.7.2.7.5v1.6h4.2c.3,0,.5.3.5.6s-.2.6-.5.6h-4.6c0,.4,0,.9-.2,1.3h2.2c1.2,0,1.7.4,1.7,1.3s-.2,2.2-.4,3.3c-.3,1.3-.9,1.7-2.1,1.7s-.8,0-1.2-.1c-.4,0-.5-.4-.5-.6s.2-.7.6-.7.1,0,.2,0c.4,0,.6.1.9.1.5,0,.7-.2.9-.8.2-.9.4-2.1.4-2.8s0-.3-.4-.3h-2.4c-.6,2.4-2,4-3.9,5.2-.1,0-.3.1-.4.1-.4,0-.7-.3-.7-.7s.1-.4.4-.6c.7-.4,1.3-.9,1.9-1.5,1.2-1.4,1.6-3.2,1.8-5h-3.7c-.3,0-.5-.3-.5-.6s.2-.6.5-.6h4.1ZM125.8,20.3v-2.6c-.2.6-.5,1.1-.8,1.6-.1.2-.3.3-.5.3-.3,0-.5-.2-.5-.5s0-.2.1-.3c.7-1,1.2-2.2,1.6-3.7h-1.1c-.3,0-.5-.3-.5-.6s.2-.6.4-.6h1.2v-1.1c-.3,0-.6.1-.9.2,0,0,0,0,0,0-.3,0-.5-.3-.5-.6s.1-.5.5-.6c.8-.1,1.8-.4,2.7-.8,0,0,.2,0,.3,0,.3,0,.6.3.6.6s-.1.4-.4.5c-.3.1-.6.2-.9.3v1.4h.9c.3,0,.5.3.5.6s-.2.6-.5.6h-.9v.9c.5.3.9.8,1.2,1.2.1.1.2.3.2.4,0,.3-.3.5-.5.5s-.3,0-.4-.2-.3-.3-.4-.5v4.2c0,.3-.3.5-.6.5s-.6-.2-.6-.5v-1.3ZM133,15.2h-2.5c-1,0-1.4-.4-1.4-1.2v-1.5c0-.8.4-1.2,1.4-1.2h2.5c1,0,1.4.4,1.4,1.2v1.5c0,1-.6,1.2-1.4,1.2ZM130.6,14.1h2.1c.3,0,.4,0,.4-.3v-1.1c0-.2,0-.3-.4-.3h-2.1c-.3,0-.4,0-.4.3v1.1c0,.3,0,.3.4.3ZM131,20.5v-1.1h-1.6c-.3,0-.5-.3-.5-.6s.2-.6.5-.6h1.6v-1h-2c-.3,0-.5-.3-.5-.6s.2-.6.5-.6h5.4c.3,0,.5.3.5.6s-.2.6-.5.6h-2.2v1h1.6c.3,0,.5.3.5.6s-.2.6-.5.6h-1.6v1.1h2.5c.3,0,.5.3.5.6s-.2.6-.5.6h-6.4c-.3,0-.5-.3-.5-.6s.2-.6.5-.6h2.6ZM138.9,19.8v-2.8h-1.3c-.3,0-.5-.3-.5-.6s.2-.6.5-.6h3.8c.3,0,.5.3.5.6s-.2.6-.5.6h-1.1v2.5c.6-.1,1.1-.3,1.6-.4,0,0,.1,0,.2,0,.3,0,.6.3.6.6s-.1.5-.5.6c-1.4.4-3.3.8-4.8,1h0c-.4,0-.6-.3-.6-.6s.2-.6.6-.6c.5,0,1.1-.1,1.7-.3ZM136.9,13h5.3c0-.5,0-1.1,0-1.7s.3-.6.7-.6.7.2.7.6c0,.6,0,1.2,0,1.7h3c.3,0,.5.3.5.6s-.2.6-.5.6h-3c.1,1.7.4,2.9.7,4,.6,1.8,1.1,2.3,1.5,2.3s.4-.1.5-.9c0-.3.3-.5.6-.5s.6.2.6.6h0c-.1,1.5-.7,2.2-1.6,2.2s-1.9-.8-2.7-3.1c-.4-1.1-.7-2.6-.8-4.4h-5.4c-.3,0-.5-.3-.5-.6s.2-.6.5-.6ZM144.9,11.1c.3.2.5.4.8.6.2.2.2.3.2.5,0,.3-.3.6-.6.6s-.3,0-.4-.2c-.2-.2-.4-.4-.7-.6-.2-.1-.2-.3-.2-.4,0-.3.3-.5.6-.5s.3,0,.4.1ZM151.6,22.2h-2.8c-.3,0-.5-.2-.5-.5s.2-.5.5-.5h2.5c.3,0,.5-.2.5-.5v-7.6c0-.3.2-.5.5-.5s.5.2.5.5v7.8c0,.8-.4,1.2-1.2,1.2ZM164.3,16c-.3-1.2-.4-2.6-.4-4.2s.3-.6.7-.6.7.2.7.6c0,1.3.1,2.5.3,3.5.7-.4,1.5-.7,2.4-.9,0,0,.1,0,.2,0,.4,0,.6.3.6.7s-.1.5-.4.6c-1.1.3-2.3.8-3.2,1.4-1,.7-1.4,1.3-1.4,1.9s.5,1.1,2.4,1.1,1.8,0,2.5-.2c0,0,.1,0,.2,0,.4,0,.6.3.6.7s-.2.6-.5.7c-.8.2-1.7.2-2.8.2-2.5,0-3.8-.8-3.8-2.4s.5-2,2-3ZM179.9,10.7h2.8c.3,0,.5.2.5.5s-.2.5-.5.5h-2.5c-.3,0-.5.2-.5.5v7.6c0,.3-.2.5-.5.5s-.5-.2-.5-.5v-7.8c0-.8.4-1.2,1.2-1.2ZM186.6,12.5h4.8c0,0,0,0,0,0,.9,0,1.3.4,1.3,1s0,.4-.1.6c-.4,1-.9,2-1.6,2.9,1.1.8,2.4,1.9,3.2,2.8.2.2.2.4.2.5,0,.4-.4.7-.8.7s-.4,0-.6-.3c-.7-.9-1.8-2-3-2.8-1.2,1.3-2.6,2.3-3.9,3-.1,0-.2,0-.3,0-.4,0-.7-.3-.7-.7s.1-.5.4-.6c2.5-1.3,4.6-3.3,5.5-5.6,0,0,0-.1,0-.2,0-.1,0-.2-.3-.2h-4.3c-.4,0-.6-.2-.6-.6s.2-.7.6-.7ZM200.5,13.8l-.3-2s0,0,0-.1c0-.4.4-.6.7-.6s.6.2.7.5l.3,2,2.7-.4s0,0,.1,0c.4,0,.6.3.6.7s-.2.5-.5.6l-2.7.4.3,1.7,3.5-.6s0,0,.1,0c.4,0,.6.3.6.7s-.2.5-.5.6l-3.5.6.6,3.2s0,0,0,.1c0,.4-.3.6-.7.6s-.6-.2-.7-.5l-.6-3.2-3.5.6s0,0-.1,0c-.4,0-.6-.3-.6-.7s.2-.5.5-.6l3.5-.6-.3-1.7-2.7.4s0,0-.1,0c-.4,0-.6-.3-.6-.7s.1-.5.5-.6l2.7-.4ZM210.9,14.1v-1.3c0-.4.4-.6.7-.6s.7.2.7.6v1.4c0,3.3-.9,5.3-2.5,6.7-.2.2-.4.2-.5.2-.4,0-.7-.3-.7-.7s0-.4.3-.6c1.4-1.3,2.1-2.8,2.1-5.7ZM215.4,12.5v6.6c0,.2,0,.3.2.3s.1,0,.2,0c.7-.4,1.7-1.2,2.3-2,.2-.2.4-.3.6-.3.4,0,.7.3.7.6s0,.3-.1.4c-.7,1.1-1.8,2-2.9,2.6-.4.2-.7.3-1,.3-.7,0-1.3-.5-1.3-1.4v-7c0-.4.4-.6.7-.6s.7.2.7.6ZM223.6,22.2h-2.8c-.3,0-.5-.2-.5-.5s.2-.5.5-.5h2.5c.3,0,.5-.2.5-.5v-7.6c0-.3.2-.5.5-.5s.5.2.5.5v7.8c0,.8-.4,1.2-1.2,1.2ZM236.1,15.4c-.5,2-1.2,3.9-2,5.4-.2.3-.4.4-.6.4-.3,0-.7-.2-.7-.6s0-.2.1-.4c.8-1.3,1.4-3,1.8-4.7-.5,0-1,.1-1.4.2,0,0-.1,0-.2,0-.4,0-.6-.3-.6-.6s.2-.6.5-.6c.6-.1,1.3-.2,1.9-.3.1-.7.3-1.5.3-2.2,0-.4.3-.6.7-.6s.7.2.7.6h0c0,.7-.2,1.4-.3,2.1.2,0,.5,0,.6,0,1.5,0,2.1.7,2.1,2.6s-.1,2.1-.3,2.9c-.4,1.4-.9,1.9-2.1,1.9s-.6,0-.8,0c-.4,0-.6-.4-.6-.6s.2-.7.6-.7,0,0,0,0c.2,0,.4,0,.7,0,.4,0,.6-.1.8-.8.2-.7.3-1.6.3-2.6s-.2-1.4-.8-1.4-.6,0-.9,0ZM240.9,13.4c.8.7,1.5,1.8,1.9,2.6,0,.1,0,.3,0,.4,0,.4-.3.7-.7.7s-.5-.1-.7-.5c-.4-.9-1.1-1.8-1.7-2.5-.1-.1-.2-.3-.2-.4,0-.3.3-.6.7-.6s.4,0,.6.2ZM241.9,11.2c0,0-.1-.2-.1-.3,0-.2.2-.4.5-.4s.2,0,.4.1c.3.3.7.6.9,1,0,.1.1.2.1.4,0,.3-.2.5-.5.5s-.3,0-.4-.2c-.3-.3-.6-.7-.9-1ZM240.7,12.2c0,0-.1-.2-.1-.3,0-.2.2-.5.5-.5s.2,0,.3.1c.3.3.7.7.9,1,0,.1.1.2.1.3,0,.3-.2.5-.5.5s-.3,0-.4-.2c-.3-.4-.6-.7-.9-1ZM80.1,43.4v-.9c-1.8,1.3-3.9,2.4-6.3,3.1,0,0-.1,0-.2,0-.4,0-.6-.3-.6-.6s.1-.5.4-.6c2.1-.6,3.7-1.3,5.3-2.3-1.6.3-2.7.4-4.2.5-.2,0-.6,0-.8,0-.4,0-.6-.3-.6-.6s.2-.6.5-.6c.5,0,1,0,1.5,0v-4.1c0-.9.4-1.3,1.5-1.3h.8c.1-.3.2-.6.3-.9,0-.3.4-.4.6-.4s.6.2.6.6,0,.1,0,.2c0,.2-.1.4-.2.5h1c1.2,0,1.5.4,1.5,1.3v2.5c.4-.4.7-.8,1.1-1.3.2-.2.3-.3.5-.3.3,0,.6.3.6.6s0,.3-.2.4c-.6.8-1.3,1.5-2.1,2.1v3c0,1-.5,1.5-1.6,1.5s-.5,0-.8,0c-.3,0-.5-.3-.5-.6s.2-.6.6-.6,0,0,.1,0c.2,0,.4,0,.6,0,.3,0,.4,0,.4-.4v-1ZM80.1,40.9v-.4h-3.8v.8c.9,0,1.8-.2,2.6-.3.4,0,.8-.1,1.2-.2ZM80.1,39.6v-.7h-3.8v.7h3.8ZM80.1,37.9v-.4c0-.3,0-.4-.5-.4h-2.8c-.4,0-.5,0-.5.4v.4h3.8ZM86.4,36.4c0-.3.4-.5.7-.5s.7.2.7.6,0,0,0,.1c-.4,2-.6,3.6-.6,5.3s.1,2.1.2,2.8c0,0,0,0,0,0,0,.4-.3.6-.7.6s-.6-.2-.7-.6c0-.8-.2-2-.2-3,0-1.8.1-3.4.6-5.5ZM93.6,36.9h0c.4,0,.6.3.6.6s-.2.6-.6.7c-1.1.1-2.2.2-3.4.3-.5,0-.7-.3-.7-.6s.2-.6.6-.6c1.1,0,2.3-.1,3.3-.3ZM90.5,42.2c.1.7.5,1,2,1s1.2,0,1.8-.2c0,0,0,0,.1,0,.4,0,.6.3.6.7s-.2.6-.5.6c-.7.1-1.4.2-2.1.2-2.2,0-3.1-.7-3.3-2.1h0c0-.5.3-.7.7-.7s.6.2.6.5ZM97.6,38.7c2.2-.9,4.4-1.5,6.1-1.5s3.6,1.2,3.6,3-1.7,3.9-5,4.4c0,0,0,0-.1,0-.4,0-.7-.3-.7-.7s.2-.6.6-.7c2.8-.5,3.8-1.5,3.8-3s-.7-1.7-2.2-1.7-3.4.5-5.6,1.4c-.1,0-.2,0-.3,0-.4,0-.7-.3-.7-.7s.1-.5.5-.7ZM109.6,37c0-.4.4-.6.7-.6s.7.2.7.6,0,.8,0,1.1c0,4.2.9,5.3,1.4,5.3s.6-.2.8-1.1c0-.4.3-.5.6-.5s.7.3.7.6,0,.1,0,.2c-.4,1.6-1.2,2.2-2,2.2-1.7,0-2.8-2.1-2.8-6.7s0-.9,0-1.2ZM117,37.8c1,.9,1.9,2.4,2.3,3.7,0,0,0,.2,0,.3,0,.4-.3.6-.7.6s-.5-.1-.6-.5c-.4-1.1-1.2-2.4-2.1-3.3-.1-.1-.2-.3-.2-.4,0-.3.3-.6.7-.6s.4,0,.5.2ZM123.3,38.9c-.5,0-1,.1-1.5.1s-.6-.3-.6-.6.2-.6.6-.7c.5,0,1.1,0,1.7-.2.1-.7.2-1.2.2-1.8,0-.4.3-.6.7-.6s.7.2.7.6h0c0,.6-.1,1.1-.2,1.5.3,0,.7-.2,1-.2,0,0,.1,0,.2,0,.4,0,.6.3.6.6s-.1.5-.5.6c-.6.2-1.1.3-1.6.4-.4,2.4-1,4.6-1.7,6.3-.1.4-.4.5-.7.5s-.7-.2-.7-.6,0-.2,0-.3c.7-1.6,1.2-3.5,1.6-5.6ZM125.7,43c0-.4.3-.6.7-.6s.5.2.6.5c0,.8.5,1,1.8,1s1.1,0,1.6-.1c0,0,0,0,.1,0,.4,0,.6.3.6.7s-.2.6-.6.6c-.5,0-1.1.1-1.8.1-1.7,0-2.4-.4-2.8-1-.2-.3-.3-.8-.3-1.1ZM126.9,39c.9-.2,2.1-.3,3.1-.3s.6.3.6.6-.2.6-.6.6c-1,0-2.1.1-2.9.3,0,0-.1,0-.1,0-.4,0-.6-.3-.6-.6s.2-.6.6-.6ZM136.8,40c-.3-1.2-.4-2.6-.4-4.2s.3-.6.7-.6.7.2.7.6c0,1.3.1,2.5.3,3.5.7-.4,1.5-.7,2.4-.9,0,0,.1,0,.2,0,.4,0,.6.3.6.7s-.1.5-.4.6c-1.1.3-2.3.8-3.2,1.4-1,.7-1.4,1.3-1.4,1.9s.5,1.1,2.4,1.1,1.8,0,2.5-.2c0,0,.1,0,.2,0,.4,0,.6.3.6.7s-.2.6-.5.7c-.8.2-1.7.2-2.8.2-2.5,0-3.8-.8-3.8-2.4s.5-2,2-3ZM150.9,37.2h-3.4c-.4,0-.5.1-.5.5v.8c0,1.6-.4,2.9-1,3.9-.2.3-.4.4-.6.4-.3,0-.6-.2-.6-.6s0-.2.1-.4c.6-1,.9-2,.9-3.4v-.8c0-.9.4-1.3,1.5-1.3h3.6c0-.3,0-.6,0-.9,0-.4.3-.5.6-.5s.6.2.6.5c0,.3,0,.6,0,1h1.2,0c-.2-.2-.4-.3-.6-.4-.2-.1-.2-.3-.2-.4,0-.3.2-.5.5-.5s.2,0,.3,0c.2.1.5.3.7.5.1.1.2.2.2.4s0,.3-.2.4h1.2c.3,0,.4.3.4.5s-.1.5-.4.5h-3c.1.7.3,1.5.7,2.2.3-.4.5-.8.7-1.3.1-.3.3-.4.5-.4s.6.2.6.5,0,.2,0,.3c-.3.7-.7,1.3-1.1,1.9.4.5.7.7.9.7s.3-.1.4-.6c0-.3.3-.4.5-.4s.6.2.6.5h0c-.2,1.2-.7,1.8-1.5,1.8s-1.2-.4-1.8-1.1c-.4.4-.8.7-1.2,1-.1,0-.3.1-.4.1-.3,0-.5-.3-.5-.5s0-.3.3-.5c.5-.3.9-.7,1.2-1,0,0,0-.1-.1-.2-.4-.9-.8-1.8-1-3ZM149.6,41.6h-1.1c-.8,0-1.1-.3-1.1-.9v-.6c0-.6.3-.9,1.1-.9h1.1c.8,0,1.1.3,1.1.9v.6c0,.8-.4.9-1.1.9ZM148.6,40.8h.8c.2,0,.2,0,.2-.2v-.4c0-.1,0-.2-.2-.2h-.8c-.2,0-.2,0-.2.2v.4c0,.2,0,.2.2.2ZM150.3,38.6h-2.5c-.2,0-.4-.2-.4-.5s.1-.4.4-.4h2.5c.2,0,.4.2.4.4s-.1.5-.4.5ZM147.5,44.7v-1.5c0-.3.3-.5.6-.5s.6.2.6.5v1.3c0,.3.1.3,1.4.3s1.7-.1,1.8-.7c0-.3.3-.5.6-.5s.6.2.6.6h0c-.1,1.2-.6,1.6-3,1.6s-2.7-.2-2.7-1.2ZM145.8,43.3c.1-.2.3-.3.6-.3.3,0,.6.2.6.5s0,.2,0,.3c-.2.5-.5,1-.7,1.3-.1.2-.3.3-.5.3-.3,0-.6-.3-.6-.6s0-.2.1-.4c.3-.3.5-.7.7-1.1ZM154.4,43c.3.3.7.7.9,1.1,0,.1.1.3.1.4,0,.3-.3.6-.6.6s-.3,0-.5-.3c-.3-.4-.5-.7-.9-1-.1-.1-.2-.3-.2-.4,0-.3.3-.6.6-.6s.3,0,.5.2ZM150.3,42.5c.3.1.5.3.7.5.2.1.3.3.3.5,0,.3-.3.6-.6.6s-.3,0-.4-.1c-.2-.2-.5-.4-.7-.5-.2-.1-.3-.3-.3-.4,0-.3.3-.5.6-.5s.2,0,.3,0ZM159.3,42c0-1.9.1-4.2.3-6,0-.4.4-.6.7-.6s.7.2.7.6,0,.4,0,.5c-.1,1.8-.2,3.7-.2,5.4s.5,2,1.3,2,2.2-.5,3.3-1.8c.2-.2.4-.3.6-.3.4,0,.7.3.7.7s0,.3-.2.4c-1.4,1.7-2.8,2.4-4.4,2.4s-2.7-.9-2.7-3.4ZM163.5,37.6c0,0-.1-.2-.1-.3,0-.2.2-.5.5-.5s.2,0,.3.1c.3.3.7.7.9,1,0,.1.1.2.1.3,0,.3-.2.5-.5.5s-.3,0-.4-.2c-.3-.4-.6-.7-.9-1ZM164.7,36.7c0,0-.1-.2-.1-.3,0-.2.2-.4.5-.4s.2,0,.4.1c.3.3.7.6.9,1,0,.1.1.2.1.4,0,.3-.2.5-.5.5s-.3,0-.4-.2c-.3-.3-.6-.7-.9-1ZM174.8,35.5v1.2h.8c.7,0,1.4,0,2,0,.4,0,.6.3.6.6s-.2.6-.6.6c-.5,0-1,0-1.5,0s-.8,0-1.2,0c0,.4,0,.8,0,1.3.8,0,1.6-.1,2.3-.2h0c.4,0,.6.3.6.6s-.2.6-.6.6c-.7,0-1.5.2-2.3.2,0,.5,0,1.1.1,1.6,1,.3,2,.7,3,1.3.3.2.4.4.4.6,0,.4-.3.7-.7.7s-.3,0-.4-.1c-.7-.5-1.5-.9-2.2-1.2h0c0,1.4-1.1,2-2.5,2s-2.5-.7-2.5-1.8.9-1.8,2.6-1.8.6,0,1,0c0-.4,0-.9,0-1.3h-.7c-.7,0-1.5,0-1.9,0-.4,0-.6-.3-.6-.6s.2-.6.6-.6h0c.4,0,1,0,1.7,0h.6c0-.4,0-.9,0-1.3-1,0-2,0-2.9,0-.4,0-.6-.3-.6-.6s.2-.6.6-.6c.8,0,1.8,0,2.9,0v-1.2c0-.4.3-.5.7-.5s.7.2.7.5ZM172.7,44.2c.8,0,1.2-.4,1.2-.9v-.3c-.4,0-.7-.1-1.1-.1-.9,0-1.2.3-1.2.6s.3.6,1.1.6ZM186.6,43h0c-.2.2-.5.3-.9.3-1.2,0-2-.8-2-2.2s.7-2,1.9-2,.5,0,.7,0v-1c-.9,0-2.9.1-4.2.2-.1,0-.4,0-.5,0-.4,0-.6-.3-.6-.7s.2-.6.6-.6c1.4,0,3.1-.2,4.7-.2,0-.4,0-.9,0-1.5s.3-.6.7-.6.6.2.6.6v1.4c1.2,0,2.4,0,3.5,0s.6.3.6.7-.2.6-.6.6c-1.1,0-2.3,0-3.5,0,0,.7,0,1.4,0,2.1.3.4.4,1,.4,1.6,0,1.9-1,3.2-2.7,4-.1,0-.2,0-.3,0-.4,0-.7-.3-.7-.7s.1-.5.5-.6c1-.4,1.6-1.1,1.8-1.7ZM185.6,40.3c-.4,0-.7.3-.7.9s.4.9.8.9.7-.3.7-.8-.3-1-.8-1ZM196.4,39.2c-.5,2-1.2,3.9-2,5.4-.2.3-.4.4-.6.4-.3,0-.7-.2-.7-.6s0-.2.1-.4c.8-1.3,1.4-3,1.8-4.7-.5,0-1,.1-1.4.2,0,0-.1,0-.2,0-.4,0-.6-.3-.6-.6s.2-.6.5-.6c.6-.1,1.3-.2,1.9-.3.1-.7.3-1.5.3-2.2,0-.4.3-.6.7-.6s.7.2.7.6h0c0,.7-.2,1.4-.3,2.1.2,0,.5,0,.6,0,1.5,0,2.1.7,2.1,2.6s-.1,2.1-.3,2.9c-.4,1.4-.9,1.9-2.1,1.9s-.6,0-.8,0c-.4,0-.6-.4-.6-.6s.2-.7.6-.7,0,0,0,0c.2,0,.4,0,.7,0,.4,0,.6-.1.8-.8.2-.7.3-1.6.3-2.6s-.2-1.4-.8-1.4-.6,0-.9,0ZM201.3,37.2c.8.7,1.5,1.8,1.9,2.6,0,.1,0,.3,0,.4,0,.4-.3.7-.7.7s-.5-.1-.7-.5c-.4-.9-1.1-1.8-1.7-2.5-.1-.1-.2-.3-.2-.4,0-.3.3-.6.7-.6s.4,0,.6.2ZM210.3,41.8v.2c0,.4-.2.6-.6.6s-.6-.2-.6-.6v-.3c0-.9.2-1.5,1.2-2.3.8-.6,1-1,1-1.6s-.6-1.2-1.4-1.2-1.3.3-1.8,1.1c-.1.2-.3.2-.5.2-.4,0-.7-.3-.7-.6s0-.3.2-.4c.6-.9,1.7-1.4,2.8-1.4,1.7,0,2.8.9,2.8,2.4s-.3,1.6-1.3,2.4c-.9.6-1.1,1-1.1,1.5ZM209.7,43.4c.5,0,.9.4.9.9s-.4.9-.9.9-.9-.4-.9-.9.4-.9.9-.9Z" fill="#282828"/>
</svg>