<svg width="273" height="49" viewBox="0 0 273 49" fill="none" xmlns="http://www.w3.org/2000/svg">
<path d="M0.439697 0.238281L26.4397 48.2383" stroke="black"/>
<path d="M45.1397 23.9123L45.2297 26.3243V27.8183H46.8497C47.3177 27.8183 47.5517 28.2323 47.5517 28.6283C47.5517 29.0423 47.3177 29.4563 46.8497 29.4563H45.2297V32.0303C45.2297 32.5523 44.7617 32.8043 44.2757 32.8043C43.8077 32.8043 43.3217 32.5523 43.3217 32.0303V29.4563H41.6297C41.1617 29.4563 40.9277 29.0423 40.9277 28.6283C40.9277 28.2323 41.1617 27.8183 41.6297 27.8183H43.3217V26.3243L43.3937 23.9843C42.5477 25.7123 41.2877 27.5483 39.8657 29.0243C39.6137 29.2763 39.3617 29.3843 39.1097 29.3843C38.6237 29.3843 38.2277 28.9883 38.2277 28.5203C38.2277 28.2863 38.3177 28.0523 38.5337 27.8363C40.1717 26.1803 41.5937 24.0383 42.5837 21.7523H39.6137C39.1277 21.7523 38.8757 21.3023 38.8757 20.8703C38.8757 20.4203 39.1277 19.9883 39.6137 19.9883H43.3217V16.9103C43.3217 16.3883 43.8077 16.1183 44.2757 16.1183C44.7617 16.1183 45.2297 16.3883 45.2297 16.9103V19.9883H49.4417C49.9457 19.9883 50.1797 20.4203 50.1797 20.8703C50.1797 21.3023 49.9457 21.7523 49.4417 21.7523H45.7337C46.9397 24.0023 48.6857 26.0723 50.2697 27.3143C50.6117 27.5843 50.7557 27.9083 50.7557 28.2143C50.7557 28.7543 50.2877 29.2223 49.7297 29.2223C49.4957 29.2223 49.2437 29.1323 49.0097 28.9163C47.5877 27.5843 46.1477 25.7483 45.1397 23.9123ZM36.0137 32.1563V24.0563L35.6357 24.6503C35.4017 25.0103 35.0777 25.1543 34.7717 25.1543C34.2677 25.1543 33.8177 24.7763 33.8177 24.2543C33.8177 24.0563 33.8717 23.8583 34.0157 23.6423C35.1857 21.8783 36.1937 19.2863 36.7517 16.8383C36.8597 16.3703 37.2917 16.1363 37.7237 16.1363C38.2457 16.1363 38.7677 16.4603 38.7677 17.0543C38.7677 17.1263 38.7497 17.2163 38.7317 17.3063C38.3897 18.7643 37.8317 20.3483 37.1657 21.8243C37.5797 21.8783 37.9397 22.1303 37.9397 22.5443V32.1563C37.9397 32.6423 37.4537 32.8763 36.9857 32.8763C36.4997 32.8763 36.0137 32.6423 36.0137 32.1563ZM63.2117 27.9443H62.4377C61.1237 27.9443 60.6377 27.4583 60.6377 26.4683V24.9203C60.6377 23.9123 61.1237 23.4623 62.4377 23.4623H63.6617V22.4723H62.8877C62.4737 22.4723 62.2577 22.0943 62.2577 21.7163C62.2577 21.5543 62.2937 21.3923 62.3837 21.2483C62.0417 21.5903 61.6817 21.8963 61.3397 22.1843C61.1237 22.3643 60.9077 22.4363 60.6917 22.4363C60.1877 22.4363 59.7557 22.0043 59.7557 21.5183C59.7557 21.2663 59.8817 20.9783 60.2057 20.7263C61.4837 19.7363 62.8877 18.1883 63.8057 16.6403C64.0037 16.3163 64.2917 16.1723 64.5977 16.1723C65.1017 16.1723 65.6057 16.5683 65.6057 17.0543C65.6057 17.1263 65.6057 17.1803 65.5877 17.2523C66.6677 18.4763 67.9457 19.5743 69.1697 20.3843C69.5477 20.6363 69.6917 20.9603 69.6917 21.2663C69.6917 21.7703 69.2597 22.2203 68.7197 22.2203C68.5037 22.2203 68.2697 22.1483 68.0537 21.9863C67.7477 21.7703 67.4417 21.5183 67.1177 21.2303C67.2077 21.3743 67.2437 21.5363 67.2437 21.7163C67.2437 22.0943 67.0277 22.4723 66.5957 22.4723H65.4077V23.4623H66.8117C68.1257 23.4623 68.6117 23.9123 68.6117 24.9203V26.4683C68.6117 27.4583 68.1257 27.9443 66.8117 27.9443H65.6957C66.4877 29.2043 67.5317 30.0863 68.7377 30.8063C69.1517 31.0583 69.3137 31.3823 69.3137 31.7063C69.3137 32.1923 68.8817 32.6603 68.3597 32.6603C68.1797 32.6603 67.9817 32.5883 67.7837 32.4623C66.4697 31.5803 65.3717 30.4823 64.5437 29.1503C63.8237 30.6443 62.6717 31.7963 61.1597 32.6063C60.9797 32.6963 60.8177 32.7503 60.6557 32.7503C60.1517 32.7503 59.7737 32.3183 59.7737 31.8503C59.7737 31.5623 59.9177 31.2563 60.3137 31.0403C61.6637 30.3383 62.6537 29.3303 63.2117 27.9443ZM62.6717 26.5043H63.6257C63.6797 26.0363 63.7157 25.5683 63.7157 25.1003V24.9023H62.6717C62.3837 24.9023 62.2937 24.9923 62.2937 25.2083V26.1983C62.2937 26.4323 62.4557 26.5043 62.6717 26.5043ZM65.3717 24.9023V24.9923C65.3717 25.4963 65.3357 26.0003 65.2817 26.5043H66.5777C66.8837 26.5043 66.9737 26.4143 66.9737 26.1983V25.2083C66.9737 24.9923 66.8837 24.9023 66.5777 24.9023H65.3717ZM62.8877 20.9603H66.5957C66.6857 20.9603 66.7757 20.9783 66.8477 21.0143C66.0377 20.3123 65.2997 19.5383 64.6337 18.7283C64.0037 19.5203 63.3557 20.3123 62.6177 21.0323C62.7077 20.9783 62.7797 20.9603 62.8877 20.9603ZM57.6677 18.3143V19.6283H58.9817C59.3597 19.6283 59.5577 19.9883 59.5577 20.3483C59.5577 20.7263 59.3597 21.0863 58.9817 21.0863H57.6677V22.3823H58.9817C59.3597 22.3823 59.5577 22.7423 59.5577 23.1023C59.5577 23.4803 59.3597 23.8403 58.9817 23.8403H57.6677V25.1903H58.5497C59.6117 25.1903 60.0797 25.6943 60.0617 26.6483C60.0257 28.5383 59.8457 29.8703 59.5757 30.9143C59.2157 32.3183 58.4777 32.6963 57.3797 32.6963C56.9657 32.6963 56.6597 32.6603 56.3537 32.6063C55.8677 32.5343 55.6337 32.1383 55.6337 31.7423C55.6337 31.3283 55.9037 30.8963 56.4077 30.8963C56.4797 30.8963 56.5337 30.8963 56.6057 30.9143C56.8577 30.9683 57.0737 30.9863 57.3257 30.9863C57.7037 30.9863 57.8657 30.8783 57.9737 30.4463C58.0997 29.9243 58.2077 29.3123 58.2797 28.6283C58.1897 28.7903 58.0277 28.8803 57.8657 28.8803C57.7037 28.8803 57.5237 28.7903 57.4517 28.5743C57.2897 28.1423 57.1457 27.8363 56.9837 27.5303C56.9297 27.4403 56.9117 27.3683 56.9117 27.2783C56.9117 27.0443 57.1277 26.9003 57.3617 26.9003C57.5237 26.9003 57.6857 26.9723 57.7937 27.1343C57.9917 27.4583 58.1357 27.7643 58.2617 28.0883C58.2797 28.1423 58.2977 28.1783 58.3157 28.2143C58.3337 27.8543 58.3517 27.4763 58.3517 27.0983C58.3517 26.8283 58.2617 26.7203 57.9557 26.7203H54.9497C53.8157 26.7203 53.3477 26.3063 53.3477 25.3163V18.3503C53.3477 17.3063 53.8337 16.7483 55.2377 16.7483H59.3957C59.8637 16.7483 60.0797 17.1443 60.0797 17.5223C60.0797 17.9183 59.8637 18.3143 59.3957 18.3143H57.6677ZM56.1197 18.3143H55.4177C55.0937 18.3143 55.0037 18.4043 55.0037 18.6923V19.6283H56.1197V18.3143ZM56.1197 25.1903V23.8403H55.0037V24.8123C55.0037 25.1183 55.0937 25.1903 55.4177 25.1903H56.1197ZM55.0037 22.3823H56.1197V21.0863H55.0037V22.3823ZM53.1137 28.3223C53.1497 27.9803 53.4377 27.8003 53.7257 27.8003C54.0137 27.8003 54.3197 27.9983 54.3197 28.3763C54.3197 28.8623 54.1217 30.0323 53.8697 30.8423C53.7617 31.2023 53.4917 31.3463 53.2217 31.3463C52.8977 31.3463 52.5917 31.1303 52.5917 30.7703C52.5917 30.6803 52.6097 30.5903 52.6457 30.5003C52.8437 29.9243 53.0237 29.1323 53.1137 28.3223ZM55.4897 27.9983C55.6517 28.6283 55.7957 29.6003 55.7957 29.9423C55.7957 30.3383 55.5077 30.5363 55.2197 30.5363C54.9677 30.5363 54.7337 30.3743 54.7157 30.0503C54.6797 29.4923 54.6077 28.7543 54.4817 28.2143C54.4817 28.1783 54.4637 28.1423 54.4637 28.1063C54.4637 27.8003 54.7337 27.6203 54.9857 27.6203C55.2017 27.6203 55.4177 27.7463 55.4897 27.9983ZM56.7137 27.6203C56.8937 28.0523 57.0917 28.5383 57.1997 29.0783C57.2177 29.1503 57.2177 29.2043 57.2177 29.2583C57.2177 29.6183 56.9477 29.8163 56.6957 29.8163C56.4797 29.8163 56.2637 29.6723 56.2097 29.3843C56.1017 28.8263 55.9577 28.3403 55.7957 27.9443C55.7597 27.8723 55.7597 27.8003 55.7597 27.7283C55.7597 27.4763 55.9937 27.3143 56.2277 27.3143C56.4257 27.3143 56.6237 27.4043 56.7137 27.6203ZM81.9137 25.2983H83.9657C85.1717 25.2983 85.8197 25.8203 85.8197 26.5763C85.8197 26.9363 85.6757 27.3503 85.3517 27.7823C84.9377 28.3223 84.4877 28.8443 83.9657 29.3303C84.9917 29.8883 86.1077 30.3203 87.3317 30.6263C87.8537 30.7523 88.0877 31.1303 88.0877 31.5083C88.0877 32.0123 87.7097 32.5343 87.0977 32.5343C86.9897 32.5343 86.8817 32.5163 86.7737 32.4803C85.2437 32.0663 83.7857 31.4183 82.4717 30.5363C81.0497 31.5443 79.3757 32.2823 77.5757 32.7323C77.4857 32.7503 77.3957 32.7683 77.3237 32.7683C76.8017 32.7683 76.4777 32.3363 76.4777 31.8863C76.4777 31.5083 76.7117 31.1303 77.2877 30.9863C78.0077 30.7883 78.7097 30.5723 79.3937 30.2843C79.9697 30.0323 80.5097 29.7623 81.0317 29.4383C80.5457 28.9703 80.0597 28.5023 79.6457 27.9623C79.1777 28.4123 78.6917 28.8263 78.2057 29.2043C77.9897 29.3663 77.7737 29.4203 77.5757 29.4203C77.1077 29.4203 76.7117 29.0603 76.7117 28.6283C76.7117 28.3763 76.8377 28.1063 77.1617 27.8723C78.3857 26.9723 79.5017 25.8023 80.3837 24.5423C79.4837 24.5963 78.6197 24.6323 77.8097 24.6683C77.2157 24.6863 76.9277 24.2363 76.9277 23.7863C76.9277 23.3543 77.1977 22.9223 77.7557 22.9223C78.3497 22.9223 78.9617 22.9043 79.5737 22.8683C79.9337 22.5083 80.2757 22.1123 80.6177 21.7343C79.7717 21.0143 78.9797 20.4563 78.2057 19.8803C77.9357 19.6823 77.8097 19.4303 77.8097 19.1783C77.8097 18.7103 78.2237 18.2603 78.7637 18.2603C78.9617 18.2603 79.1597 18.2963 79.3757 18.4583L79.5917 18.6203C80.1137 17.8823 80.5457 17.1623 80.9417 16.4603C81.1397 16.1183 81.4277 15.9743 81.7337 15.9743C82.2377 15.9743 82.7417 16.3883 82.7417 16.8923C82.7417 17.0183 82.7057 17.1623 82.6337 17.3063C82.2017 18.0983 81.6077 18.8723 80.9777 19.6463C81.2477 19.8803 81.5177 20.1143 81.7877 20.3303C82.4357 19.5203 83.0117 18.7283 83.4077 18.1163C83.6057 17.8283 83.8757 17.7203 84.1457 17.7203C84.6677 17.7203 85.1717 18.1343 85.1717 18.6563C85.1717 18.8363 85.1177 19.0163 84.9737 19.2143C84.1637 20.3663 83.1017 21.6083 81.9677 22.7423C82.8317 22.6883 83.6777 22.6163 84.5237 22.5443C84.4157 22.4183 84.3077 22.3103 84.1997 22.2023C84.0197 22.0223 83.9477 21.8243 83.9477 21.6443C83.9477 21.2123 84.3797 20.8163 84.8837 20.8163C85.1357 20.8163 85.4057 20.9063 85.6577 21.1403C86.3957 21.8063 87.2597 22.8143 87.8177 23.6423C87.9077 23.7863 87.9617 23.9483 87.9617 24.0923C87.9617 24.6143 87.4577 25.0823 86.9357 25.0823C86.6837 25.0823 86.4317 24.9743 86.2337 24.6863C86.0897 24.4703 85.9097 24.2363 85.7117 23.9843C84.6497 24.1283 83.5877 24.2723 82.5257 24.3623C82.3277 24.6683 82.1297 24.9923 81.9137 25.2983ZM83.4257 26.8283H80.8877C81.3557 27.3863 81.8957 27.9083 82.4717 28.3583C82.9037 27.9803 83.2817 27.5843 83.6237 27.1703C83.6957 27.0803 83.7317 27.0083 83.7317 26.9543C83.7317 26.8643 83.6237 26.8283 83.4257 26.8283ZM73.8137 32.1923V25.5683C73.5617 25.8383 73.2917 26.0903 73.0397 26.3243C72.8237 26.5223 72.5717 26.6123 72.3557 26.6123C71.8517 26.6123 71.4377 26.1983 71.4377 25.7303C71.4377 25.4783 71.5457 25.2083 71.8157 24.9743C72.9317 23.9483 74.2097 22.2563 75.1277 20.6183C75.3077 20.2943 75.5957 20.1683 75.9017 20.1683C76.4057 20.1683 76.9097 20.5283 76.9097 21.0503C76.9097 21.1763 76.8737 21.3383 76.7837 21.5003C76.3337 22.3103 75.7757 23.1743 75.1637 23.9663C75.4697 24.0743 75.6857 24.3083 75.6857 24.6323V32.1923C75.6857 32.6783 75.2177 32.9123 74.7497 32.9123C74.2817 32.9123 73.8137 32.6783 73.8137 32.1923ZM74.5877 16.6043C74.7677 16.2983 75.0557 16.1723 75.3437 16.1723C75.8477 16.1723 76.3517 16.5503 76.3517 17.0363C76.3517 17.1803 76.3157 17.3243 76.2257 17.4863C75.4517 18.8003 74.2277 20.2403 73.0937 21.2303C72.8777 21.4103 72.6617 21.4823 72.4457 21.4823C71.9237 21.4823 71.4917 21.0323 71.4917 20.5463C71.4917 20.2943 71.5997 20.0243 71.8697 19.8083C72.8057 19.0163 73.8677 17.7563 74.5877 16.6043ZM90.8417 29.3483C90.5357 29.1323 90.4277 28.8623 90.4277 28.6103C90.4277 28.1243 90.8417 27.6743 91.3997 27.6743C91.5977 27.6743 91.8137 27.7463 92.0297 27.8723C93.0377 28.4843 94.4237 29.6903 95.2517 30.7163C95.4857 31.0043 95.5757 31.2923 95.5757 31.5443C95.5757 32.1203 95.0897 32.5523 94.5317 32.5523C94.2257 32.5523 93.9017 32.4263 93.6497 32.1023C92.8217 31.0943 91.7237 29.9963 90.8417 29.3483ZM113.918 18.2603C114.872 18.4583 116.096 18.6203 117.428 18.6203C118.742 18.6203 119.948 18.4763 120.83 18.3863C120.884 18.3863 120.938 18.3683 120.992 18.3683C121.622 18.3683 121.964 18.8723 121.964 19.3763C121.964 19.8083 121.712 20.2583 121.154 20.3483C120.074 20.5283 118.814 20.6003 117.446 20.6003C116.06 20.6003 114.674 20.5103 113.522 20.2583C112.982 20.1503 112.73 19.7003 112.73 19.2683C112.73 18.7463 113.072 18.2423 113.684 18.2423C113.756 18.2423 113.846 18.2423 113.918 18.2603ZM117.32 31.2383C112.982 31.2383 111.29 30.0143 111.29 27.5663C111.29 27.1343 111.362 26.6303 111.488 26.2163C111.632 25.7123 112.064 25.4963 112.496 25.4963C113 25.4963 113.486 25.8023 113.486 26.3243C113.486 26.3963 113.468 26.4863 113.45 26.5763C113.378 26.8463 113.342 27.2063 113.342 27.4763C113.342 28.6103 113.954 29.2223 117.32 29.2223C119.066 29.2223 120.74 29.0063 122.234 28.7003C122.342 28.6823 122.432 28.6643 122.522 28.6643C123.116 28.6643 123.476 29.1503 123.476 29.6543C123.476 30.0863 123.206 30.5363 122.594 30.6803C121.01 31.0403 119.264 31.2383 117.32 31.2383ZM133.952 24.0023L133.988 24.0203C134.51 23.6963 135.05 23.5523 135.626 23.5523C137.282 23.5523 138.182 24.5423 138.308 27.3503C138.398 29.3123 138.83 29.5823 139.514 29.5823C140.324 29.5823 141.008 28.8803 141.638 27.2423C141.818 26.7743 142.214 26.5583 142.61 26.5583C143.15 26.5583 143.69 26.9543 143.69 27.5303C143.69 27.6563 143.654 27.8003 143.6 27.9623C142.664 30.4463 141.314 31.6163 139.37 31.6163C137.498 31.6163 136.346 30.6083 136.22 27.5303C136.148 25.7483 135.878 25.3703 135.14 25.3703C134.186 25.3703 133.214 26.2523 132.332 28.0883C131.936 28.9163 131.414 30.0143 131.018 30.8783C130.82 31.2923 130.442 31.4903 130.064 31.4903C129.524 31.4903 128.984 31.1123 128.984 30.5363C128.984 30.4103 129.02 30.2843 129.074 30.1403C130.658 26.3243 132.944 21.4463 135.014 17.6123C135.212 17.2343 135.572 17.0723 135.932 17.0723C136.508 17.0723 137.066 17.4683 137.066 18.0083C137.066 18.1523 137.03 18.2963 136.958 18.4403L133.952 24.0023ZM157.946 29.4383C157.91 31.4543 156.434 32.1743 154.706 32.1743C152.564 32.1743 151.268 31.2383 151.268 29.5643C151.268 28.1243 152.492 26.9363 154.796 26.9363C155.084 26.9363 155.372 26.9543 155.696 26.9903C155.57 26.1623 155.516 25.5503 155.516 25.0823C155.516 24.3083 155.552 23.9123 155.642 23.3363C155.732 22.8323 156.146 22.6163 156.578 22.6163C157.082 22.6163 157.586 22.9043 157.586 23.4443C157.586 23.4983 157.568 23.5343 157.568 23.5883C157.496 24.1103 157.442 24.5603 157.442 25.0643C157.442 25.5683 157.496 26.2703 157.694 27.4043C158.846 27.7463 160.034 28.2683 161.078 28.9703C161.42 29.2043 161.564 29.5103 161.564 29.8163C161.564 30.3203 161.15 30.8063 160.61 30.8063C160.43 30.8063 160.214 30.7343 159.998 30.5903C159.332 30.1223 158.63 29.7263 157.946 29.4383ZM154.706 30.3923C155.534 30.3923 155.984 30.0323 155.984 29.2403C155.984 29.0783 155.984 28.9343 155.966 28.7903C155.57 28.7183 155.192 28.6823 154.832 28.6823C153.572 28.6823 153.176 29.0783 153.176 29.5643C153.176 30.0863 153.536 30.3923 154.706 30.3923ZM150.782 19.8263C151.052 18.9083 151.304 17.9903 151.484 17.0903C151.592 16.5503 152.024 16.3163 152.456 16.3163C152.96 16.3163 153.428 16.6223 153.428 17.1983C153.428 17.2703 153.428 17.3603 153.41 17.4323C153.266 18.1163 153.086 18.8363 152.888 19.5563C153.428 19.4663 153.968 19.3763 154.472 19.2863C154.544 19.2683 154.616 19.2683 154.67 19.2683C155.246 19.2683 155.606 19.7363 155.606 20.2223C155.606 20.6183 155.372 21.0143 154.796 21.1403C154.022 21.3023 153.14 21.4463 152.258 21.5723C151.502 23.7503 150.53 25.9103 149.486 27.6383C149.216 28.0883 148.838 28.2863 148.478 28.2863C147.938 28.2863 147.47 27.8723 147.47 27.3323C147.47 27.1343 147.524 26.9183 147.668 26.7023C148.586 25.2623 149.414 23.5883 150.098 21.8063C149.432 21.8783 148.784 21.9143 148.226 21.9323C147.614 21.9503 147.29 21.4463 147.29 20.9423C147.29 20.4743 147.578 20.0243 148.154 20.0063C148.964 19.9703 149.864 19.9163 150.782 19.8263ZM158.774 19.6103C159.638 19.8443 160.754 20.3483 161.528 20.8343C161.942 21.0863 162.122 21.4463 162.122 21.7703C162.122 22.2923 161.69 22.7603 161.168 22.7603C160.988 22.7603 160.808 22.7063 160.628 22.5983C159.782 22.1123 158.846 21.6443 158.054 21.3563C157.604 21.1943 157.406 20.8703 157.406 20.5463C157.406 20.0603 157.82 19.5563 158.432 19.5563C158.54 19.5563 158.648 19.5743 158.774 19.6103ZM172.4 25.8563H175.946C177.206 25.8563 177.854 26.4323 177.854 27.1523C177.854 27.6023 177.602 28.1063 177.062 28.5563C176.648 28.8983 176.18 29.2043 175.712 29.5103C177.242 30.0683 178.952 30.4463 180.86 30.6623C181.418 30.7343 181.688 31.1483 181.688 31.5623C181.688 32.0123 181.382 32.4623 180.788 32.4623H180.662C178.106 32.1743 175.784 31.5263 173.804 30.5543C171.572 31.6163 169.016 32.3543 166.352 32.6963C166.298 32.6963 166.244 32.7143 166.19 32.7143C165.668 32.7143 165.38 32.2823 165.38 31.8683C165.38 31.5083 165.614 31.1303 166.1 31.0583C168.314 30.7523 170.294 30.2303 172.004 29.5463C171.32 29.0963 170.672 28.5923 170.078 28.0523C169.178 28.7183 168.224 29.3123 167.234 29.7803C167.09 29.8523 166.928 29.8883 166.802 29.8883C166.316 29.8883 165.974 29.4743 165.974 29.0423C165.974 28.7723 166.118 28.4843 166.478 28.3043C168.404 27.3503 170.15 25.9283 171.23 24.5783C171.446 24.3083 171.716 24.2003 171.968 24.2003C172.436 24.2003 172.85 24.5603 172.85 25.0103C172.85 25.1903 172.796 25.3703 172.634 25.5683L172.4 25.8563ZM175.316 27.2783H171.608C172.31 27.8183 173.048 28.2863 173.822 28.6823C174.416 28.3583 174.956 28.0163 175.442 27.6383C175.568 27.5303 175.622 27.4583 175.622 27.4043C175.622 27.3143 175.514 27.2783 175.316 27.2783ZM174.326 19.3223H172.958C172.598 22.1123 170.906 24.2723 168.476 25.4963C168.296 25.5863 168.116 25.6223 167.954 25.6223C167.468 25.6223 167.126 25.2263 167.126 24.7943C167.126 24.4883 167.288 24.1643 167.684 23.9663C169.646 22.9763 170.744 21.4823 171.104 19.3223H166.424C165.938 19.3223 165.686 18.9083 165.686 18.4763C165.686 18.0623 165.938 17.6483 166.424 17.6483H172.454V16.6223C172.454 16.1003 172.958 15.8303 173.444 15.8303C173.948 15.8303 174.434 16.1003 174.434 16.6223V17.6483H180.572C181.076 17.6483 181.31 18.0623 181.31 18.4763C181.31 18.9083 181.076 19.3223 180.572 19.3223H176.162V22.5983C176.162 23.8763 175.532 24.4343 174.164 24.4343C173.66 24.4343 173.39 24.3983 172.994 24.3263C172.508 24.2363 172.274 23.8583 172.274 23.4803C172.274 23.0483 172.58 22.5983 173.138 22.5983C173.192 22.5983 173.264 22.5983 173.336 22.6163C173.606 22.6703 173.732 22.6883 173.948 22.6883C174.218 22.6883 174.326 22.5983 174.326 22.3103V19.3223ZM167.99 20.1683C168.188 19.9523 168.44 19.8443 168.674 19.8443C169.178 19.8443 169.646 20.2403 169.646 20.7263C169.646 20.9243 169.574 21.1403 169.376 21.3563C168.71 22.0763 167.918 22.8143 167.072 23.4263C166.838 23.5883 166.604 23.6603 166.388 23.6603C165.884 23.6603 165.47 23.2463 165.47 22.7963C165.47 22.5443 165.596 22.2743 165.902 22.0583C166.694 21.5003 167.414 20.8343 167.99 20.1683ZM178.808 20.2223C179.528 20.6723 180.392 21.3383 181.094 22.0403C181.346 22.3103 181.454 22.5803 181.454 22.8323C181.454 23.3543 181.022 23.7683 180.536 23.7683C180.302 23.7683 180.05 23.6783 179.816 23.4443C179.15 22.7963 178.376 22.1483 177.71 21.6623C177.422 21.4463 177.314 21.1943 177.314 20.9423C177.314 20.4743 177.728 20.0603 178.25 20.0603C178.43 20.0603 178.61 20.0963 178.808 20.2223ZM186.836 31.9403V23.5883C186.404 24.2183 185.972 24.7763 185.54 25.2623C185.306 25.5143 185.036 25.6223 184.784 25.6223C184.244 25.6223 183.74 25.1903 183.74 24.6503C183.74 24.4163 183.83 24.1823 184.046 23.9483C185.594 22.2023 187.088 19.3943 187.898 17.0183C188.06 16.5503 188.456 16.3523 188.87 16.3523C189.41 16.3523 189.95 16.7123 189.95 17.2703C189.95 17.3783 189.932 17.4863 189.896 17.5943C189.464 18.8903 188.798 20.3303 188.024 21.6983C188.456 21.7523 188.816 22.0223 188.816 22.4903V31.9403C188.816 32.4443 188.33 32.6963 187.826 32.6963C187.34 32.6963 186.836 32.4443 186.836 31.9403ZM194.054 17.2163V22.2563C195.332 21.5903 196.538 20.7803 197.69 19.8263C197.906 19.6463 198.122 19.5743 198.338 19.5743C198.878 19.5743 199.346 20.0963 199.346 20.6183C199.346 20.8883 199.238 21.1583 198.95 21.3743C197.366 22.5803 195.71 23.6243 194.054 24.3263V29.6363C194.054 30.2843 194.27 30.4643 195.836 30.4643C197.762 30.4643 198.176 30.1403 198.338 28.7903C198.41 28.2503 198.824 28.0163 199.256 28.0163C199.76 28.0163 200.264 28.3223 200.264 28.8803V28.9883C199.976 31.5623 198.878 32.2283 195.854 32.2283C192.758 32.2283 192.038 31.6343 192.038 29.8703V17.2163C192.038 16.6223 192.542 16.3343 193.046 16.3343C193.55 16.3343 194.054 16.6223 194.054 17.2163ZM208.49 22.9043C207.77 25.8743 206.726 28.7903 205.448 31.0403C205.214 31.4543 204.836 31.6163 204.476 31.6163C203.954 31.6163 203.486 31.2563 203.486 30.7163C203.486 30.5543 203.54 30.3563 203.648 30.1583C204.782 28.1603 205.718 25.6943 206.402 23.1203C205.664 23.2103 204.944 23.3363 204.26 23.4803C204.188 23.4983 204.098 23.4983 204.026 23.4983C203.468 23.4983 203.162 23.0483 203.162 22.5803C203.162 22.1663 203.414 21.7523 203.972 21.6443C204.89 21.4643 205.88 21.3383 206.834 21.2303C207.05 20.1323 207.23 19.0163 207.356 17.9183C207.428 17.3423 207.878 17.0723 208.346 17.0723C208.85 17.0723 209.354 17.3963 209.354 17.9723V18.0983C209.246 19.0703 209.084 20.0783 208.886 21.0683C209.246 21.0503 209.57 21.0503 209.858 21.0503C212.162 21.0503 213.008 22.0943 213.008 24.9203C213.008 26.6123 212.828 28.1243 212.522 29.2223C211.946 31.2923 211.136 32.0303 209.318 32.0303C208.886 32.0303 208.436 31.9943 208.094 31.9403C207.482 31.8503 207.212 31.4003 207.212 30.9683C207.212 30.4643 207.536 29.9783 208.13 29.9783C208.166 29.9783 208.22 29.9963 208.274 29.9963C208.616 30.0323 208.886 30.0683 209.264 30.0683C209.894 30.0683 210.218 29.8703 210.524 28.8083C210.83 27.7823 210.992 26.3783 210.992 24.9023C210.992 23.2823 210.686 22.8503 209.822 22.8503C209.426 22.8503 208.976 22.8683 208.49 22.9043ZM215.654 19.8263C216.788 20.9063 217.904 22.5623 218.516 23.7683C218.624 23.9843 218.66 24.2003 218.66 24.3803C218.66 25.0103 218.156 25.4243 217.616 25.4243C217.256 25.4243 216.878 25.2263 216.626 24.7403C215.978 23.4443 215.024 22.0583 214.07 21.0323C213.872 20.8163 213.782 20.5823 213.782 20.3843C213.782 19.8803 214.286 19.4843 214.826 19.4843C215.114 19.4843 215.402 19.5923 215.654 19.8263ZM217.202 16.5503C217.058 16.4063 217.004 16.2623 217.004 16.1183C217.004 15.7583 217.346 15.4523 217.76 15.4523C217.94 15.4523 218.12 15.5243 218.3 15.6683C218.768 16.0643 219.308 16.6223 219.686 17.1443C219.83 17.3243 219.884 17.5043 219.884 17.6843C219.884 18.0803 219.542 18.3683 219.164 18.3683C218.948 18.3683 218.714 18.2783 218.534 18.0443C218.12 17.5223 217.616 16.9823 217.202 16.5503ZM215.402 17.9723C215.276 17.8283 215.222 17.6843 215.222 17.5583C215.222 17.1983 215.582 16.8743 215.978 16.8743C216.14 16.8743 216.32 16.9283 216.482 17.0723C216.968 17.5043 217.508 18.0803 217.886 18.6383C218.012 18.8003 218.048 18.9623 218.048 19.1243C218.048 19.5203 217.706 19.8443 217.328 19.8443C217.112 19.8443 216.896 19.7363 216.734 19.5023C216.302 18.9083 215.816 18.3863 215.402 17.9723ZM228.506 20.4383C228.488 20.1143 228.362 18.8363 228.362 18.3503C228.362 17.5763 228.92 17.1263 229.658 17.1263C230.378 17.1263 230.918 17.5943 230.918 18.3503C230.918 18.8363 230.81 19.9163 230.774 20.4383C230.648 22.1843 230.522 24.8483 230.468 26.8463C230.45 27.3143 230.108 27.6023 229.622 27.6023C229.136 27.6023 228.83 27.3143 228.812 26.8463C228.74 24.8663 228.632 22.2023 228.506 20.4383ZM229.64 28.7723C230.414 28.7723 231.008 29.3663 231.008 30.1223C231.008 30.8783 230.414 31.4543 229.64 31.4543C228.866 31.4543 228.272 30.8783 228.272 30.1223C228.272 29.3663 228.866 28.7723 229.64 28.7723Z" fill="#282828"/>
<path d="M272.44 0.238281L246.44 48.2383" stroke="black"/>
</svg>
