<svg width="425" height="295" viewBox="0 0 425 295" fill="none" xmlns="http://www.w3.org/2000/svg">
<rect width="425" height="165" rx="80" fill="#E18965"/>
<path d="M41.46 42.38L40.48 40.4C41.5333 39.8267 42.5133 39.2533 43.42 38.68C44.3267 38.1067 45.1933 37.5 46.02 36.86C46.86 36.2067 47.6867 35.5067 48.5 34.76H51.5C52.3133 35.5067 53.1333 36.2067 53.96 36.86C54.8 37.5 55.6733 38.1067 56.58 38.68C57.4867 39.2533 58.4667 39.8267 59.52 40.4L58.54 42.38C56.94 41.5267 55.4267 40.6 54 39.6C52.5867 38.6 51.2533 37.5 50 36.3C48.7467 37.5 47.4067 38.6 45.98 39.6C44.5667 40.6 43.06 41.5267 41.46 42.38ZM48.6 52.92L47.36 51.06C49.1467 50.1533 50.7467 49.1533 52.16 48.06C53.5867 46.9667 54.7667 45.8467 55.7 44.7L57.74 45.64C56.9933 46.6 56.1533 47.5133 55.22 48.38C54.2867 49.2467 53.2667 50.06 52.16 50.82C51.0667 51.5667 49.88 52.2667 48.6 52.92ZM42.26 45.64V43.6H57.74V45.64H42.26ZM44.72 41.82V39.84H55.28V41.82H44.72ZM67.34 52.06C65.7667 52.06 64.5467 51.7467 63.68 51.12C62.8267 50.5067 62.4 49.6267 62.4 48.48C62.4 47.3333 62.8267 46.46 63.68 45.86C64.5333 45.26 65.7533 44.96 67.34 44.96C68.2067 44.96 69.0467 45.0533 69.86 45.24C70.6733 45.4267 71.4933 45.7267 72.32 46.14C73.16 46.5533 74.04 47.0933 74.96 47.76C75.88 48.4133 76.8733 49.2133 77.94 50.16L76.42 51.68C75.4067 50.8133 74.48 50.08 73.64 49.48C72.8133 48.8667 72.0467 48.3733 71.34 48C70.6333 47.6133 69.9533 47.34 69.3 47.18C68.66 47.0067 68.0067 46.92 67.34 46.92C65.6333 46.92 64.78 47.4267 64.78 48.44C64.78 48.96 64.9933 49.36 65.42 49.64C65.8467 49.9067 66.4733 50.04 67.3 50.04C68.2867 50.04 69.0133 49.8333 69.48 49.42C69.9467 49.0067 70.18 48.3733 70.18 47.52V34.92H72.44V47.52C72.44 49.0267 72.0133 50.16 71.16 50.92C70.32 51.68 69.0467 52.06 67.34 52.06ZM62.26 43.04V41.06H77.74V43.04H62.26ZM62.06 38.96V36.94H77.94V38.96H62.06ZM93.04 51.94C91.4267 51.94 90.02 51.6533 88.82 51.08C87.6333 50.52 86.7133 49.7267 86.06 48.7C85.4067 47.66 85.08 46.44 85.08 45.04C85.08 43.9467 85.2733 42.9333 85.66 42C86.06 41.0667 86.62 40.2533 87.34 39.56C88.0733 38.8533 88.94 38.3133 89.94 37.94L90.14 38.56L80.62 38.78V36.64L97.48 36.24V38.38L94.94 38.44C93.8733 38.4667 92.8867 38.64 91.98 38.96C91.0867 39.2667 90.3133 39.7 89.66 40.26C89.02 40.82 88.52 41.4867 88.16 42.26C87.8 43.02 87.62 43.8667 87.62 44.8C87.62 45.8133 87.84 46.6933 88.28 47.44C88.72 48.1733 89.34 48.74 90.14 49.14C90.9533 49.54 91.9267 49.74 93.06 49.74C93.3 49.74 93.5667 49.7333 93.86 49.72C94.1667 49.6933 94.4733 49.6667 94.78 49.64C95.1 49.6 95.38 49.56 95.62 49.52L95.88 51.72C95.6 51.76 95.2933 51.7933 94.96 51.82C94.6267 51.86 94.2933 51.8867 93.96 51.9C93.6267 51.9267 93.32 51.94 93.04 51.94ZM95.08 45.7C94.7733 45.02 94.44 44.3733 94.08 43.76C93.7333 43.1333 93.3333 42.4933 92.88 41.84L94.62 40.88C95.0733 41.5333 95.48 42.18 95.84 42.82C96.2 43.4467 96.54 44.1133 96.86 44.82L95.08 45.7ZM98.12 44.56C97.8267 43.8667 97.5067 43.2133 97.16 42.6C96.8267 41.9733 96.44 41.3333 96 40.68L97.74 39.76C98.18 40.4267 98.5733 41.08 98.92 41.72C99.28 42.36 99.6067 43.04 99.9 43.76L98.12 44.56ZM110.02 52.12C108.527 52.12 107.367 51.7733 106.54 51.08C105.713 50.4 105.3 49.46 105.3 48.26C105.3 47.02 105.727 46.0667 106.58 45.4C107.433 44.72 108.633 44.38 110.18 44.38C110.833 44.38 111.48 44.48 112.12 44.68C112.76 44.88 113.427 45.1867 114.12 45.6C114.813 46.0133 115.553 46.5467 116.34 47.2C117.14 47.8533 118 48.6467 118.92 49.58L117.48 51.18C116.413 50.14 115.513 49.3 114.78 48.66C114.06 48.0067 113.44 47.5133 112.92 47.18C112.413 46.8333 111.947 46.6 111.52 46.48C111.107 46.36 110.66 46.3 110.18 46.3C109.273 46.3 108.607 46.4533 108.18 46.76C107.767 47.0667 107.56 47.54 107.56 48.18C107.56 48.8333 107.767 49.3267 108.18 49.66C108.593 49.98 109.207 50.14 110.02 50.14C110.913 50.14 111.58 49.9467 112.02 49.56C112.473 49.1733 112.7 48.62 112.7 47.9V37.56C113.873 37.56 114.96 37.58 115.96 37.62C116.973 37.6467 117.967 37.6933 118.94 37.76L118.8 39.86C117.933 39.7933 117.027 39.7467 116.08 39.72C115.147 39.68 114.147 39.66 113.08 39.66L115.02 38.16V47.66C115.02 49.1267 114.6 50.24 113.76 51C112.92 51.7467 111.673 52.12 110.02 52.12ZM100.92 48.94C101.507 47.3533 102.047 45.7933 102.54 44.26C103.033 42.7133 103.493 41.1533 103.92 39.58C104.347 37.9933 104.74 36.3667 105.1 34.7L107.36 34.92C107 36.6267 106.6 38.3 106.16 39.94C105.733 41.5667 105.267 43.18 104.76 44.78C104.267 46.38 103.72 47.9867 103.12 49.6L100.92 48.94ZM100.76 39.66V37.56H110.84V39.66H100.76ZM122.96 52.18L120.88 51.42L127.36 35.14L129.56 35.78L126.08 44.38L125.34 43.9C126.007 43.3533 126.673 42.9267 127.34 42.62C128.02 42.3133 128.68 42.16 129.32 42.16C129.813 42.16 130.24 42.2667 130.6 42.48C130.96 42.68 131.267 42.98 131.52 43.38C131.773 43.7667 131.987 44.24 132.16 44.8C132.347 45.36 132.513 46 132.66 46.72C132.78 47.28 132.9 47.7667 133.02 48.18C133.153 48.5933 133.32 48.9133 133.52 49.14C133.733 49.3667 134.007 49.48 134.34 49.48C134.927 49.48 135.453 49.1 135.92 48.34C136.387 47.5667 136.827 46.3467 137.24 44.68L139.34 45.38C138.993 46.86 138.587 48.0733 138.12 49.02C137.653 49.9533 137.1 50.6467 136.46 51.1C135.82 51.5667 135.08 51.8 134.24 51.8C133.667 51.8 133.173 51.7 132.76 51.5C132.36 51.3 132.013 51.0067 131.72 50.62C131.427 50.2333 131.173 49.7667 130.96 49.22C130.76 48.66 130.587 48.0333 130.44 47.34C130.307 46.7533 130.16 46.2467 130 45.82C129.853 45.3933 129.66 45.0667 129.42 44.84C129.193 44.6133 128.887 44.5 128.5 44.5C128.247 44.5 127.953 44.5533 127.62 44.66C127.287 44.7667 126.947 44.9467 126.6 45.2C126.267 45.44 125.94 45.7733 125.62 46.2C125.3 46.6133 125.013 47.1333 124.76 47.76L122.96 52.18ZM150.02 52.08C147.527 52.08 145.633 51.6933 144.34 50.92C143.047 50.1333 142.4 48.9867 142.4 47.48C142.4 46.2133 142.873 45.06 143.82 44.02C144.767 42.9667 146.24 41.9933 148.24 41.1C150.253 40.2067 152.84 39.36 156 38.56L156.56 40.7C153.88 41.38 151.673 42.0733 149.94 42.78C148.22 43.4867 146.947 44.2133 146.12 44.96C145.307 45.6933 144.9 46.48 144.9 47.32C144.9 49.0533 146.653 49.92 150.16 49.92C150.733 49.92 151.333 49.8933 151.96 49.84C152.587 49.7867 153.287 49.7133 154.06 49.62C154.847 49.5133 155.74 49.38 156.74 49.22L157.02 51.38C155.753 51.5933 154.527 51.76 153.34 51.88C152.167 52.0133 151.06 52.08 150.02 52.08ZM146.22 43.14C145.833 41.8333 145.507 40.5533 145.24 39.3C144.973 38.0333 144.76 36.78 144.6 35.54L147.02 35.18C147.193 36.42 147.413 37.66 147.68 38.9C147.947 40.1267 148.267 41.3467 148.64 42.56L146.22 43.14ZM170.02 52.12C168.527 52.12 167.367 51.7733 166.54 51.08C165.713 50.4 165.3 49.46 165.3 48.26C165.3 47.02 165.727 46.0667 166.58 45.4C167.433 44.72 168.633 44.38 170.18 44.38C170.833 44.38 171.48 44.48 172.12 44.68C172.76 44.88 173.427 45.1867 174.12 45.6C174.813 46.0133 175.553 46.5467 176.34 47.2C177.14 47.8533 178 48.6467 178.92 49.58L177.48 51.18C176.413 50.14 175.513 49.3 174.78 48.66C174.06 48.0067 173.44 47.5133 172.92 47.18C172.413 46.8333 171.947 46.6 171.52 46.48C171.107 46.36 170.66 46.3 170.18 46.3C169.273 46.3 168.607 46.4533 168.18 46.76C167.767 47.0667 167.56 47.54 167.56 48.18C167.56 48.8333 167.767 49.3267 168.18 49.66C168.593 49.98 169.207 50.14 170.02 50.14C170.913 50.14 171.58 49.9467 172.02 49.56C172.473 49.1733 172.7 48.62 172.7 47.9V37.56C173.873 37.56 174.96 37.58 175.96 37.62C176.973 37.6467 177.967 37.6933 178.94 37.76L178.8 39.86C177.933 39.7933 177.027 39.7467 176.08 39.72C175.147 39.68 174.147 39.66 173.08 39.66L175.02 38.16V47.66C175.02 49.1267 174.6 50.24 173.76 51C172.92 51.7467 171.673 52.12 170.02 52.12ZM160.92 48.94C161.507 47.3533 162.047 45.7933 162.54 44.26C163.033 42.7133 163.493 41.1533 163.92 39.58C164.347 37.9933 164.74 36.3667 165.1 34.7L167.36 34.92C167 36.6267 166.6 38.3 166.16 39.94C165.733 41.5667 165.267 43.18 164.76 44.78C164.267 46.38 163.72 47.9867 163.12 49.6L160.92 48.94ZM160.76 39.66V37.56H170.84V39.66H160.76ZM194.7 52.94C193.753 52.2333 192.887 51.6067 192.1 51.06C191.313 50.5267 190.573 50.0333 189.88 49.58C189.187 49.1267 188.507 48.7 187.84 48.3C187.173 47.8867 186.48 47.46 185.76 47.02C185.013 46.5667 184.413 46.1933 183.96 45.9C183.52 45.5933 183.173 45.3267 182.92 45.1C182.68 44.8733 182.513 44.6467 182.42 44.42C182.34 44.18 182.3 43.9067 182.3 43.6C182.3 43.28 182.347 43 182.44 42.76C182.547 42.5067 182.727 42.2667 182.98 42.04C183.233 41.8 183.593 41.5333 184.06 41.24C184.527 40.9467 185.127 40.5933 185.86 40.18C186.62 39.7533 187.453 39.2733 188.36 38.74C189.267 38.2067 190.213 37.6333 191.2 37.02C192.187 36.4067 193.167 35.7533 194.14 35.06L195.54 37C194.953 37.4 194.333 37.8067 193.68 38.22C193.027 38.62 192.38 39.0133 191.74 39.4C191.1 39.7733 190.487 40.1267 189.9 40.46C189.327 40.78 188.807 41.0733 188.34 41.34C187.873 41.5933 187.493 41.8 187.2 41.96C186.627 42.28 186.18 42.5333 185.86 42.72C185.553 42.9067 185.333 43.0667 185.2 43.2C185.08 43.32 185.02 43.4533 185.02 43.6C185.02 43.7467 185.06 43.8733 185.14 43.98C185.233 44.0867 185.42 44.2267 185.7 44.4C185.98 44.5733 186.407 44.8267 186.98 45.16C187.3 45.3333 187.707 45.5667 188.2 45.86C188.707 46.1533 189.28 46.4933 189.92 46.88C190.56 47.2533 191.227 47.6667 191.92 48.12C192.627 48.56 193.34 49.0267 194.06 49.52C194.793 50 195.5 50.4867 196.18 50.98L194.7 52.94ZM210.98 52.84V38.44H209.64V36.46H219.34V38.44H213.48V41.5H218.74V43.5H213.48V46.64H218.74V48.68H213.48V52.84H210.98ZM203.08 52.84V39.82H205.52V52.84H203.08ZM201.56 45.96L200.54 43.64C201.247 42.8 201.867 41.9267 202.4 41.02C202.933 40.1 203.393 39.12 203.78 38.08C204.167 37.0267 204.493 35.8933 204.76 34.68L207 35.16C206.76 36.44 206.433 37.6333 206.02 38.74C205.607 39.8467 205.113 40.86 204.54 41.78L204.46 41.18C204.313 41.5667 204.127 41.98 203.9 42.42C203.687 42.8467 203.447 43.28 203.18 43.72C202.927 44.1467 202.66 44.5533 202.38 44.94C202.1 45.3267 201.827 45.6667 201.56 45.96ZM207.68 43.9L205.78 42.46C206.58 41.2333 207.293 39.9533 207.92 38.62C208.56 37.2733 209.1 35.8933 209.54 34.48L211.82 34.94C211.353 36.5 210.767 38.0467 210.06 39.58C209.353 41.1 208.56 42.54 207.68 43.9ZM226 49.16C228.013 49.16 229.647 49.0267 230.9 48.76C232.167 48.48 233.093 48.0467 233.68 47.46C234.267 46.8733 234.56 46.12 234.56 45.2C234.56 44.1733 234.22 43.4067 233.54 42.9C232.873 42.3933 231.853 42.14 230.48 42.14C229.933 42.14 229.333 42.1867 228.68 42.28C228.027 42.36 227.273 42.4867 226.42 42.66C225.58 42.8333 224.6 43.0667 223.48 43.36L223.02 41.1C224.713 40.7 226.18 40.4067 227.42 40.22C228.66 40.02 229.727 39.92 230.62 39.92C232.66 39.92 234.227 40.36 235.32 41.24C236.413 42.12 236.96 43.38 236.96 45.02C236.96 47.1 236.047 48.6733 234.22 49.74C232.407 50.8067 229.713 51.34 226.14 51.34L226 49.16ZM253.84 51.74C252.227 51.74 250.82 51.4667 249.62 50.92C248.433 50.3733 247.513 49.6 246.86 48.6C246.207 47.5867 245.88 46.4 245.88 45.04C245.88 43.9733 246.073 42.9933 246.46 42.1C246.86 41.1933 247.42 40.4 248.14 39.72C248.873 39.0267 249.74 38.5 250.74 38.14L250.94 38.76L241.42 38.98V36.84L258.28 36.44V38.58L255.74 38.64C254.7 38.6667 253.733 38.8267 252.84 39.12C251.96 39.4133 251.187 39.8333 250.52 40.38C249.853 40.9267 249.333 41.5733 248.96 42.32C248.6 43.0533 248.42 43.88 248.42 44.8C248.42 45.7867 248.64 46.64 249.08 47.36C249.52 48.0667 250.14 48.6067 250.94 48.98C251.753 49.3533 252.727 49.54 253.86 49.54C254.233 49.54 254.66 49.52 255.14 49.48C255.633 49.44 256.06 49.3867 256.42 49.32L256.68 51.52C256.253 51.5867 255.78 51.64 255.26 51.68C254.753 51.72 254.28 51.74 253.84 51.74ZM266.42 51.58C265.74 51.58 265.113 51.3733 264.54 50.96C263.967 50.5333 263.467 49.94 263.04 49.18C262.613 48.42 262.28 47.5267 262.04 46.5C261.813 45.46 261.7 44.34 261.7 43.14C261.7 42.1667 261.78 41.14 261.94 40.06C262.113 38.9667 262.373 37.82 262.72 36.62L265.06 36.9C264.753 38.0067 264.52 39.06 264.36 40.06C264.2 41.06 264.12 42 264.12 42.88C264.12 43.72 264.187 44.5133 264.32 45.26C264.453 46.0067 264.633 46.66 264.86 47.22C265.1 47.78 265.367 48.22 265.66 48.54C265.967 48.86 266.287 49.02 266.62 49.02C266.94 49.02 267.287 48.8867 267.66 48.62C268.047 48.34 268.44 47.9667 268.84 47.5C269.24 47.0333 269.613 46.5 269.96 45.9C270.32 45.3 270.62 44.6733 270.86 44.02L273 45.1C272.667 46.0067 272.253 46.8533 271.76 47.64C271.267 48.4267 270.72 49.12 270.12 49.72C269.533 50.3067 268.92 50.76 268.28 51.08C267.64 51.4133 267.02 51.58 266.42 51.58ZM276.46 49.64C276.46 48.12 276.353 46.6067 276.14 45.1C275.94 43.5933 275.64 42.1467 275.24 40.76C274.853 39.3733 274.387 38.1 273.84 36.94L276.06 36.28C276.673 37.4933 277.18 38.82 277.58 40.26C277.993 41.6867 278.307 43.1933 278.52 44.78C278.747 46.3533 278.86 47.9733 278.86 49.64H276.46ZM281.74 51.84C282.3 50.04 282.807 48.2133 283.26 46.36C283.727 44.4933 284.133 42.6 284.48 40.68C284.84 38.7467 285.147 36.8 285.4 34.84L287.78 34.94C287.553 36.86 287.26 38.8 286.9 40.76C286.553 42.72 286.147 44.6667 285.68 46.6C285.213 48.52 284.693 50.4067 284.12 52.26L281.74 51.84ZM294.14 51.86C292.927 51.86 291.873 51.7133 290.98 51.42C290.087 51.14 289.393 50.7467 288.9 50.24C288.407 49.72 288.16 49.1 288.16 48.38C288.16 47.8467 288.34 47.32 288.7 46.8C289.06 46.28 289.613 45.74 290.36 45.18L292.16 46.46C291.653 46.78 291.273 47.08 291.02 47.36C290.78 47.6267 290.66 47.8933 290.66 48.16C290.66 48.4667 290.8 48.74 291.08 48.98C291.373 49.2067 291.78 49.3867 292.3 49.52C292.833 49.6533 293.447 49.72 294.14 49.72C294.767 49.72 295.407 49.6867 296.06 49.62C296.713 49.5533 297.393 49.4533 298.1 49.32L298.36 51.46C297.627 51.5933 296.92 51.6933 296.24 51.76C295.56 51.8267 294.86 51.86 294.14 51.86ZM281.46 39.42V37.34H295.54V39.42H281.46ZM288.94 41.68C290.513 41.5333 292.053 41.42 293.56 41.34C295.08 41.26 296.6 41.22 298.12 41.22V43.32C296.627 43.32 295.127 43.36 293.62 43.44C292.127 43.5067 290.613 43.6267 289.08 43.8L288.94 41.68ZM303.56 52.84V43.06H300.78V41.14H303.58V34.76H305.74V41.14H308.24V43.06H305.76V52.84H303.56ZM301.44 50.72L300.34 48.48C301.153 47.4 301.82 46.3 302.34 45.18C302.873 44.06 303.28 42.88 303.56 41.64L304.62 42.22C304.487 43.3133 304.273 44.38 303.98 45.42C303.687 46.4467 303.32 47.4133 302.88 48.32C302.453 49.2133 301.973 50.0133 301.44 50.72ZM307.02 48.44C306.567 47.4133 306.107 46.3933 305.64 45.38C305.187 44.3533 304.713 43.3067 304.22 42.24L305.64 41.52C306.133 42.4533 306.62 43.3933 307.1 44.34C307.58 45.2733 308.053 46.22 308.52 47.18L307.02 48.44ZM301.72 40.72C301.547 39.9333 301.36 39.14 301.16 38.34C300.973 37.54 300.787 36.8067 300.6 36.14L302.42 35.66C302.607 36.3267 302.793 37.06 302.98 37.86C303.167 38.6467 303.327 39.44 303.46 40.24L301.72 40.72ZM307.98 49.94L307.78 47.9L319.46 45.72L319.66 47.76L307.98 49.94ZM312.44 46.02C311.867 45.38 311.247 44.72 310.58 44.04C309.913 43.3467 309.207 42.6533 308.46 41.96L310.04 40.46C310.787 41.14 311.5 41.82 312.18 42.5C312.86 43.18 313.48 43.84 314.04 44.48L312.44 46.02ZM307.58 40.74L305.82 40.18C306.06 39.46 306.273 38.6933 306.46 37.88C306.66 37.0533 306.813 36.28 306.92 35.56L308.8 35.84C308.667 36.6133 308.493 37.4333 308.28 38.3C308.067 39.1533 307.833 39.9667 307.58 40.74ZM315.4 52.84V34.76H317.74V52.84H315.4ZM313.54 40.94C313.007 40.34 312.44 39.7333 311.84 39.12C311.253 38.5067 310.62 37.8867 309.94 37.26L311.54 35.78C312.22 36.3933 312.86 37.0067 313.46 37.62C314.06 38.22 314.627 38.8133 315.16 39.4L313.54 40.94ZM325.86 52.26V50.32H331.68V48.32H327.04V46.5H331.68V40.72H329.3V39.08H331.68V37.02H334.06V39.08H336.44V37.02H329.3V44.66H327.1V35.14H338.64V44.66H329.3V42.88H336.44V40.72H334.06V46.5H338.94V48.32H334.06V50.32H339.22V52.26H325.86ZM320.88 51.06L320.66 49.02C321.26 48.8733 321.887 48.7133 322.54 48.54C323.207 48.3533 323.867 48.1533 324.52 47.94C325.187 47.7133 325.833 47.4867 326.46 47.26L326.52 49.24C325.92 49.48 325.293 49.7133 324.64 49.94C323.987 50.1667 323.34 50.3733 322.7 50.56C322.06 50.7467 321.453 50.9133 320.88 51.06ZM322.46 48.96V43.62H320.96V41.56H322.46V37.86H320.76V35.76H326.48V37.86H324.74V41.56H326.36V43.62H324.74V48.96H322.46ZM351.7 49.54C352.407 49.46 353.053 49.26 353.64 48.94C354.24 48.6067 354.753 48.1867 355.18 47.68C355.62 47.16 355.96 46.5667 356.2 45.9C356.44 45.2333 356.56 44.5133 356.56 43.74C356.56 42.6467 356.307 41.6933 355.8 40.88C355.293 40.0533 354.587 39.42 353.68 38.98C352.787 38.54 351.747 38.32 350.56 38.32C349.547 38.32 348.607 38.4867 347.74 38.82C346.873 39.1533 346.107 39.62 345.44 40.22C344.787 40.8067 344.273 41.5 343.9 42.3C343.527 43.0867 343.34 43.9333 343.34 44.84C343.34 45.4933 343.447 46.12 343.66 46.72C343.873 47.32 344.14 47.8133 344.46 48.2C344.793 48.5733 345.14 48.76 345.5 48.76C346.02 48.76 346.52 48.2867 347 47.34C347.48 46.3933 347.913 45.0333 348.3 43.26C348.7 41.4733 349.033 39.3333 349.3 36.84L351.62 37.08C351.327 39.56 350.993 41.6867 350.62 43.46C350.247 45.2333 349.82 46.6867 349.34 47.82C348.86 48.9533 348.313 49.7933 347.7 50.34C347.087 50.8733 346.393 51.14 345.62 51.14C344.98 51.14 344.387 50.98 343.84 50.66C343.293 50.34 342.82 49.8933 342.42 49.32C342.02 48.7467 341.707 48.08 341.48 47.32C341.253 46.5467 341.14 45.72 341.14 44.84C341.14 43.5867 341.373 42.4333 341.84 41.38C342.307 40.3133 342.96 39.3933 343.8 38.62C344.64 37.8467 345.633 37.2467 346.78 36.82C347.94 36.38 349.207 36.16 350.58 36.16C352.193 36.16 353.62 36.4667 354.86 37.08C356.113 37.6933 357.093 38.5667 357.8 39.7C358.507 40.8333 358.86 42.18 358.86 43.74C358.86 44.7933 358.7 45.7733 358.38 46.68C358.073 47.5867 357.633 48.3933 357.06 49.1C356.487 49.7933 355.8 50.36 355 50.8C354.2 51.24 353.313 51.52 352.34 51.64L351.7 49.54ZM362.24 47.74V40.26H367.76V34.26H371.04V36H378.46V38.6H371.04V40.26H377.76V47.74H365.42V45.22H374.58V42.86H365.42V47.74H362.24ZM363.1 53.16L360.68 51.66C361.187 50.9933 361.647 50.3467 362.06 49.72C362.473 49.0933 362.873 48.44 363.26 47.76L365.78 49C365.073 50.4 364.18 51.7867 363.1 53.16ZM366.86 53.08C366.793 52.3733 366.707 51.6667 366.6 50.96C366.493 50.24 366.373 49.48 366.24 48.68L369.18 48.38C369.327 49.1533 369.447 49.9067 369.54 50.64C369.647 51.3733 369.74 52.0867 369.82 52.78L366.86 53.08ZM371.64 53.06C371.453 52.3667 371.24 51.6667 371 50.96C370.773 50.2533 370.52 49.5133 370.24 48.74L373.08 48.16C373.36 48.9333 373.613 49.68 373.84 50.4C374.08 51.1067 374.293 51.8 374.48 52.48L371.64 53.06ZM376.82 53.06C376.433 52.3933 376.033 51.7267 375.62 51.06C375.207 50.4067 374.747 49.7133 374.24 48.98L376.74 47.66C377.22 48.3667 377.673 49.06 378.1 49.74C378.54 50.42 378.947 51.0867 379.32 51.74L376.82 53.06ZM50 88.28C47.4533 88.28 45.52 87.8667 44.2 87.04C42.88 86.2133 42.22 85.0067 42.22 83.42C42.22 82.0867 42.7 80.88 43.66 79.8C44.6333 78.7067 46.1333 77.7133 48.16 76.82C50.2 75.9133 52.82 75.0667 56.02 74.28L56.76 77.18C54.2133 77.8067 52.1133 78.4467 50.46 79.1C48.82 79.74 47.6 80.4 46.8 81.08C46 81.7467 45.6 82.4467 45.6 83.18C45.6 84.6333 47.1333 85.36 50.2 85.36C50.7333 85.36 51.28 85.34 51.84 85.3C52.4133 85.26 53.0867 85.1867 53.86 85.08C54.6467 84.96 55.6 84.8133 56.72 84.64L57.12 87.54C55.7733 87.78 54.5133 87.96 53.34 88.08C52.1667 88.2133 51.0533 88.28 50 88.28ZM45.8 79.36C45.4267 78.04 45.1 76.7333 44.82 75.44C44.5533 74.1467 44.3467 72.9 44.2 71.7L47.52 71.2C47.6667 72.4 47.8733 73.6333 48.14 74.9C48.42 76.1533 48.7467 77.38 49.12 78.58L45.8 79.36ZM62.24 83.74V76.26H67.76V70.26H71.04V72H78.46V74.6H71.04V76.26H77.76V83.74H65.42V81.22H74.58V78.86H65.42V83.74H62.24ZM63.1 89.16L60.68 87.66C61.1867 86.9933 61.6467 86.3467 62.06 85.72C62.4733 85.0933 62.8733 84.44 63.26 83.76L65.78 85C65.0733 86.4 64.18 87.7867 63.1 89.16ZM66.86 89.08C66.7933 88.3733 66.7067 87.6667 66.6 86.96C66.4933 86.24 66.3733 85.48 66.24 84.68L69.18 84.38C69.3267 85.1533 69.4467 85.9067 69.54 86.64C69.6467 87.3733 69.74 88.0867 69.82 88.78L66.86 89.08ZM71.64 89.06C71.4533 88.3667 71.24 87.6667 71 86.96C70.7733 86.2533 70.52 85.5133 70.24 84.74L73.08 84.16C73.36 84.9333 73.6133 85.68 73.84 86.4C74.08 87.1067 74.2933 87.8 74.48 88.48L71.64 89.06ZM76.82 89.06C76.4333 88.3933 76.0333 87.7267 75.62 87.06C75.2067 86.4067 74.7467 85.7133 74.24 84.98L76.74 83.66C77.22 84.3667 77.6733 85.06 78.1 85.74C78.54 86.42 78.9467 87.0867 79.32 87.74L76.82 89.06ZM80.72 87.48C81.2 86.1467 81.62 84.94 81.98 83.86C82.3533 82.7667 82.68 81.7333 82.96 80.76C83.2533 79.7733 83.5133 78.7867 83.74 77.8C83.98 76.8 84.2067 75.7333 84.42 74.6C84.6333 73.4533 84.86 72.1667 85.1 70.74L88.24 71.08C88.04 72.4267 87.8333 73.68 87.62 74.84C87.4067 75.9867 87.1733 77.0933 86.92 78.16C86.6667 79.2133 86.38 80.2733 86.06 81.34C85.7533 82.4067 85.4067 83.5133 85.02 84.66C84.6333 85.8067 84.1933 87.06 83.7 88.42L80.72 87.48ZM96.66 84.82C96.5667 84.0333 96.4333 83.1867 96.26 82.28C96.1 81.3733 95.9133 80.46 95.7 79.54C95.5 78.62 95.28 77.74 95.04 76.9L98.08 76.1C98.32 76.98 98.5467 77.8867 98.76 78.82C98.9733 79.74 99.1667 80.6667 99.34 81.6C99.5133 82.52 99.6533 83.4067 99.76 84.26L96.66 84.82ZM94.94 75.92C94.6067 75.2133 94.26 74.5733 93.9 74C93.5533 73.4133 93.1667 72.82 92.74 72.22L94.68 71.14C95.12 71.7133 95.5133 72.3067 95.86 72.92C96.2067 73.5333 96.5467 74.2067 96.88 74.94L94.94 75.92ZM97.86 74.84C97.54 74.12 97.2133 73.4667 96.88 72.88C96.56 72.28 96.1933 71.6867 95.78 71.1L97.7 70.1C98.1267 70.7 98.5 71.3067 98.82 71.92C99.1533 72.5333 99.48 73.2133 99.8 73.96L97.86 74.84ZM90.48 87.86C90.12 87.86 89.68 87.82 89.16 87.74C88.64 87.6733 88.1 87.5733 87.54 87.44C86.98 87.3067 86.4467 87.1533 85.94 86.98L86.64 84.32C87.04 84.4267 87.4267 84.5333 87.8 84.64C88.1733 84.7333 88.5133 84.8067 88.82 84.86C89.1267 84.9133 89.3667 84.94 89.54 84.94C89.9 84.94 90.18 84.7933 90.38 84.5C90.5933 84.2067 90.74 83.7 90.82 82.98C90.9133 82.2467 90.96 81.2333 90.96 79.94C90.96 79.26 90.9333 78.7133 90.88 78.3C90.8267 77.8733 90.7333 77.5467 90.6 77.32C90.4667 77.0933 90.2733 76.94 90.02 76.86C89.7667 76.78 89.4267 76.74 89 76.74H80.56V73.92H88.66C89.6733 73.92 90.5133 73.96 91.18 74.04C91.8467 74.12 92.38 74.28 92.78 74.52C93.18 74.7467 93.48 75.1 93.68 75.58C93.8933 76.0467 94.0333 76.6733 94.1 77.46C94.1667 78.2333 94.2 79.2 94.2 80.36C94.2 82.1733 94.0733 83.6333 93.82 84.74C93.58 85.8333 93.1867 86.6267 92.64 87.12C92.1067 87.6133 91.3867 87.86 90.48 87.86ZM104.82 84.38C107.38 84.38 109.433 84.22 110.98 83.9C112.527 83.58 113.647 83.0667 114.34 82.36C115.047 81.6533 115.4 80.7267 115.4 79.58C115.4 78.3267 115.007 77.4067 114.22 76.82C113.447 76.2333 112.227 75.94 110.56 75.94C109.893 75.94 109.153 75.9933 108.34 76.1C107.527 76.2067 106.587 76.3667 105.52 76.58C104.453 76.7933 103.187 77.0867 101.72 77.46L101.1 74.24C103.313 73.7467 105.2 73.3867 106.76 73.16C108.333 72.92 109.68 72.8 110.8 72.8C112.56 72.8 114.04 73.0467 115.24 73.54C116.44 74.0333 117.347 74.76 117.96 75.72C118.573 76.6667 118.88 77.84 118.88 79.24C118.88 81.9467 117.713 83.9933 115.38 85.38C113.06 86.7533 109.62 87.44 105.06 87.44L104.82 84.38ZM130.36 88.28C128.813 88.28 127.6 87.9067 126.72 87.16C125.853 86.4267 125.42 85.4067 125.42 84.1C125.42 82.78 125.86 81.7533 126.74 81.02C127.633 80.2867 128.867 79.92 130.44 79.92C131.067 79.92 131.707 80.0333 132.36 80.26C133.027 80.4733 133.713 80.8067 134.42 81.26C135.14 81.7 135.887 82.26 136.66 82.94C137.433 83.62 138.24 84.4267 139.08 85.36L137.14 87.5C136.073 86.4067 135.193 85.5267 134.5 84.86C133.807 84.1933 133.227 83.6867 132.76 83.34C132.307 82.9933 131.9 82.7667 131.54 82.66C131.193 82.54 130.827 82.48 130.44 82.48C129.76 82.48 129.26 82.6 128.94 82.84C128.633 83.08 128.48 83.4733 128.48 84.02C128.48 84.5667 128.633 84.9733 128.94 85.24C129.26 85.5067 129.733 85.64 130.36 85.64C131.053 85.64 131.567 85.4933 131.9 85.2C132.233 84.9067 132.4 84.4733 132.4 83.9V73.34C133.613 73.34 134.753 73.36 135.82 73.4C136.9 73.4267 137.953 73.4733 138.98 73.54L138.8 76.36C137.907 76.2933 136.953 76.2467 135.94 76.22C134.94 76.18 133.913 76.16 132.86 76.16L135.56 74.12V83.56C135.56 85.1467 135.127 86.3267 134.26 87.1C133.393 87.8867 132.093 88.28 130.36 88.28ZM120.78 85.1C121.313 83.5533 121.807 82.0067 122.26 80.46C122.713 78.9 123.133 77.3067 123.52 75.68C123.92 74.0533 124.287 72.3733 124.62 70.64L127.68 70.9C127.36 72.6867 127 74.4333 126.6 76.14C126.2 77.8467 125.767 79.52 125.3 81.16C124.833 82.7867 124.32 84.3867 123.76 85.96L120.78 85.1ZM120.66 76.16V73.34H130.94V76.16H120.66ZM140.72 87.48C141.2 86.1467 141.62 84.94 141.98 83.86C142.353 82.7667 142.68 81.7333 142.96 80.76C143.253 79.7733 143.513 78.7867 143.74 77.8C143.98 76.8 144.207 75.7333 144.42 74.6C144.633 73.4533 144.86 72.1667 145.1 70.74L148.24 71.08C148.04 72.4267 147.833 73.68 147.62 74.84C147.407 75.9867 147.173 77.0933 146.92 78.16C146.667 79.2133 146.38 80.2733 146.06 81.34C145.753 82.4067 145.407 83.5133 145.02 84.66C144.633 85.8067 144.193 87.06 143.7 88.42L140.72 87.48ZM156.66 84.82C156.567 84.0333 156.433 83.1867 156.26 82.28C156.1 81.3733 155.913 80.46 155.7 79.54C155.5 78.62 155.28 77.74 155.04 76.9L158.08 76.1C158.32 76.98 158.547 77.8867 158.76 78.82C158.973 79.74 159.167 80.6667 159.34 81.6C159.513 82.52 159.653 83.4067 159.76 84.26L156.66 84.82ZM154.94 75.92C154.607 75.2133 154.26 74.5733 153.9 74C153.553 73.4133 153.167 72.82 152.74 72.22L154.68 71.14C155.12 71.7133 155.513 72.3067 155.86 72.92C156.207 73.5333 156.547 74.2067 156.88 74.94L154.94 75.92ZM157.86 74.84C157.54 74.12 157.213 73.4667 156.88 72.88C156.56 72.28 156.193 71.6867 155.78 71.1L157.7 70.1C158.127 70.7 158.5 71.3067 158.82 71.92C159.153 72.5333 159.48 73.2133 159.8 73.96L157.86 74.84ZM150.48 87.86C150.12 87.86 149.68 87.82 149.16 87.74C148.64 87.6733 148.1 87.5733 147.54 87.44C146.98 87.3067 146.447 87.1533 145.94 86.98L146.64 84.32C147.04 84.4267 147.427 84.5333 147.8 84.64C148.173 84.7333 148.513 84.8067 148.82 84.86C149.127 84.9133 149.367 84.94 149.54 84.94C149.9 84.94 150.18 84.7933 150.38 84.5C150.593 84.2067 150.74 83.7 150.82 82.98C150.913 82.2467 150.96 81.2333 150.96 79.94C150.96 79.26 150.933 78.7133 150.88 78.3C150.827 77.8733 150.733 77.5467 150.6 77.32C150.467 77.0933 150.273 76.94 150.02 76.86C149.767 76.78 149.427 76.74 149 76.74H140.56V73.92H148.66C149.673 73.92 150.513 73.96 151.18 74.04C151.847 74.12 152.38 74.28 152.78 74.52C153.18 74.7467 153.48 75.1 153.68 75.58C153.893 76.0467 154.033 76.6733 154.1 77.46C154.167 78.2333 154.2 79.2 154.2 80.36C154.2 82.1733 154.073 83.6333 153.82 84.74C153.58 85.8333 153.187 86.6267 152.64 87.12C152.107 87.6133 151.387 87.86 150.48 87.86ZM165.84 84.68C167.813 84.68 169.393 84.5667 170.58 84.34C171.767 84.1 172.62 83.7267 173.14 83.22C173.673 82.7133 173.94 82.0467 173.94 81.22C173.94 80.34 173.66 79.7 173.1 79.3C172.553 78.9 171.673 78.7 170.46 78.7C169.927 78.7 169.34 78.7467 168.7 78.84C168.06 78.92 167.313 79.0467 166.46 79.22C165.62 79.38 164.62 79.6067 163.46 79.9L162.88 76.94C164.64 76.5533 166.153 76.2667 167.42 76.08C168.687 75.8933 169.767 75.8 170.66 75.8C172.767 75.8 174.367 76.24 175.46 77.12C176.553 78 177.1 79.28 177.1 80.96C177.1 83.12 176.167 84.7533 174.3 85.86C172.447 86.9667 169.693 87.52 166.04 87.52L165.84 84.68ZM181.58 87.84C182.113 86.0533 182.593 84.24 183.02 82.4C183.46 80.56 183.847 78.68 184.18 76.76C184.527 74.8267 184.833 72.8467 185.1 70.82L188.34 70.96C188.113 72.92 187.827 74.8867 187.48 76.86C187.147 78.82 186.76 80.7667 186.32 82.7C185.88 84.62 185.387 86.52 184.84 88.4L181.58 87.84ZM194.3 88.06C193.007 88.06 191.893 87.9067 190.96 87.6C190.04 87.3067 189.327 86.8867 188.82 86.34C188.313 85.78 188.06 85.1133 188.06 84.34C188.06 83.8067 188.22 83.2933 188.54 82.8C188.86 82.2933 189.353 81.78 190.02 81.26L192.78 82.42C192.353 82.7 192.027 82.98 191.8 83.26C191.573 83.5267 191.46 83.7733 191.46 84C191.46 84.24 191.573 84.4467 191.8 84.62C192.04 84.7933 192.373 84.9267 192.8 85.02C193.227 85.1133 193.727 85.16 194.3 85.16C194.913 85.16 195.527 85.1267 196.14 85.06C196.767 84.9933 197.44 84.8933 198.16 84.76L198.5 87.66C197.74 87.8067 197.033 87.9067 196.38 87.96C195.74 88.0267 195.047 88.06 194.3 88.06ZM181.3 75.94V73.14H195.7V75.94H181.3ZM188.98 77.58C190.567 77.4333 192.127 77.3267 193.66 77.26C195.207 77.18 196.747 77.14 198.28 77.14V79.96C196.773 79.96 195.26 80 193.74 80.08C192.233 80.1467 190.707 80.2533 189.16 80.4L188.98 77.58ZM202.5 84.22L200.4 81.64C200.587 81.2933 200.747 80.9467 200.88 80.6C201.013 80.2533 201.127 79.8667 201.22 79.44C201.313 79.0133 201.38 78.5133 201.42 77.94C201.473 77.3533 201.513 76.66 201.54 75.86C201.567 75.0467 201.58 74.0867 201.58 72.98V71.7H218.76V74.08H204.52V75.34C204.52 76.46 204.48 77.46 204.4 78.34C204.32 79.22 204.2 80.0067 204.04 80.7C203.88 81.3933 203.673 82.0267 203.42 82.6C203.167 83.1733 202.86 83.7133 202.5 84.22ZM202.52 88.84L200.28 87.04C200.76 86.48 201.193 85.88 201.58 85.24C201.98 84.6 202.307 83.9333 202.56 83.24L205.08 84.42C204.813 85.2333 204.46 86.02 204.02 86.78C203.58 87.54 203.08 88.2267 202.52 88.84ZM210.5 89C210.047 89 209.58 88.9933 209.1 88.98C208.633 88.9667 208.24 88.9533 207.92 88.94C207.32 88.9133 206.833 88.86 206.46 88.78C206.087 88.7133 205.807 88.58 205.62 88.38C205.433 88.18 205.307 87.8867 205.24 87.5C205.173 87.1267 205.14 86.6333 205.14 86.02V83.34H208.34V85.74C208.34 85.98 208.347 86.16 208.36 86.28C208.387 86.3867 208.433 86.46 208.5 86.5C208.58 86.5267 208.7 86.5467 208.86 86.56C209.02 86.5733 209.233 86.5867 209.5 86.6C209.767 86.6133 210.053 86.62 210.36 86.62C210.587 86.62 210.847 86.6133 211.14 86.6C211.433 86.5867 211.673 86.5733 211.86 86.56C212.1 86.5467 212.293 86.5133 212.44 86.46C212.587 86.4067 212.7 86.32 212.78 86.2C212.873 86.0667 212.94 85.88 212.98 85.64C213.02 85.3867 213.047 85.0533 213.06 84.64L216 85.06C215.96 85.86 215.893 86.5067 215.8 87C215.72 87.48 215.58 87.8467 215.38 88.1C215.18 88.3667 214.893 88.5533 214.52 88.66C214.16 88.78 213.68 88.8667 213.08 88.92C212.76 88.9467 212.387 88.9667 211.96 88.98C211.547 88.9933 211.06 89 210.5 89ZM211.6 86.1C211.16 85.66 210.687 85.24 210.18 84.84C209.673 84.44 209.147 84.0667 208.6 83.72L210.46 81.94C211.007 82.2867 211.52 82.6533 212 83.04C212.493 83.4267 212.953 83.8267 213.38 84.24L211.6 86.1ZM204.46 82.64V77.34H211.14V82.02H207.18V80.38H208.72V78.96H207.18V82.64H204.46ZM217.2 88.56C216.84 87.8 216.433 87.0333 215.98 86.26C215.54 85.4867 215.06 84.74 214.54 84.02L217.04 82.72C217.573 83.4667 218.073 84.2333 218.54 85.02C219.007 85.7933 219.427 86.5733 219.8 87.36L217.2 88.56ZM204.36 76.66V74.74H211.32V76.66H204.36ZM211.72 81.82L210.22 79.52C211.447 78.9067 212.533 78.16 213.48 77.28C214.427 76.4 215.307 75.34 216.12 74.1L218.32 75.52C217.467 76.9733 216.5 78.2133 215.42 79.24C214.353 80.2667 213.12 81.1267 211.72 81.82ZM216.34 83.4C215.807 83.4 215.28 83.2333 214.76 82.9C214.24 82.5667 213.747 82.06 213.28 81.38C212.813 80.6867 212.4 79.8267 212.04 78.8C211.693 77.76 211.413 76.5467 211.2 75.16C211 73.76 210.9 72.1867 210.9 70.44H213.66C213.66 71.8 213.727 73.02 213.86 74.1C214.007 75.18 214.193 76.1267 214.42 76.94C214.647 77.74 214.88 78.4067 215.12 78.94C215.373 79.4733 215.607 79.8733 215.82 80.14C216.033 80.4067 216.207 80.54 216.34 80.54C216.433 80.54 216.533 80.48 216.64 80.36C216.747 80.2267 216.853 80.0133 216.96 79.72C217.08 79.4267 217.18 79.0267 217.26 78.52L219.48 79.28C219.32 80.6667 218.947 81.7 218.36 82.38C217.773 83.06 217.1 83.4 216.34 83.4ZM215.84 73.76C215.6 73.24 215.34 72.7267 215.06 72.22C214.793 71.7 214.52 71.2067 214.24 70.74L216.8 70.04C217.093 70.5067 217.373 71 217.64 71.52C217.92 72.04 218.18 72.56 218.42 73.08L215.84 73.76ZM234.5 88.9C234.38 88.9 234.253 88.9 234.12 88.9C234 88.9 233.873 88.9 233.74 88.9C233.033 88.8867 232.473 88.86 232.06 88.82C231.66 88.78 231.36 88.7 231.16 88.58C230.96 88.46 230.827 88.2867 230.76 88.06C230.693 87.8467 230.66 87.56 230.66 87.2V84.62H226.24V82.74H233.76V82H226.24V80.48H233.76V79.74H226.24V78.22H233.76V77.46H226.24V84.62H223.06V75.56H236.94V84.62H233.86V85.88C233.86 86.1733 233.887 86.3533 233.94 86.42C233.993 86.4733 234.18 86.5067 234.5 86.52C234.567 86.52 234.627 86.52 234.68 86.52C234.733 86.52 234.787 86.52 234.84 86.52C234.907 86.52 234.967 86.52 235.02 86.52C235.073 86.52 235.127 86.52 235.18 86.52C235.393 86.5067 235.56 86.4867 235.68 86.46C235.8 86.42 235.893 86.3333 235.96 86.2C236.027 86.0533 236.067 85.82 236.08 85.5C236.107 85.1667 236.133 84.7133 236.16 84.14L239.16 84.56C239.12 85.3867 239.067 86.0733 239 86.62C238.947 87.1533 238.847 87.5733 238.7 87.88C238.567 88.1867 238.36 88.4133 238.08 88.56C237.813 88.7067 237.453 88.7933 237 88.82C236.547 88.86 235.967 88.8867 235.26 88.9C235.14 88.9 235.013 88.9 234.88 88.9C234.76 88.9 234.633 88.9 234.5 88.9ZM221.68 89.2L220.78 86.66C221.807 86.54 222.66 86.4 223.34 86.24C224.02 86.08 224.553 85.88 224.94 85.64C225.327 85.4 225.607 85.1 225.78 84.74C225.953 84.38 226.06 83.9533 226.1 83.46L229.4 83.56C229.253 84.68 228.907 85.62 228.36 86.38C227.813 87.1267 226.993 87.7267 225.9 88.18C224.82 88.6467 223.413 88.9867 221.68 89.2ZM224.58 74.52C224.313 73.92 224.027 73.3333 223.72 72.76C223.427 72.1733 223.127 71.62 222.82 71.1L225.58 70.18C225.9 70.7 226.207 71.2533 226.5 71.84C226.793 72.4133 227.073 73 227.34 73.6L224.58 74.52ZM220.96 77.8V72.62H239.04V77.8H235.92V74.86H224.08V77.8H220.96ZM229.32 74.34C229.053 73.74 228.773 73.1467 228.48 72.56C228.187 71.9733 227.887 71.42 227.58 70.9L230.32 69.98C230.64 70.5 230.947 71.06 231.24 71.66C231.533 72.2467 231.813 72.84 232.08 73.44L229.32 74.34ZM235.46 74.18L232.62 73.6C232.98 73.0267 233.313 72.4467 233.62 71.86C233.927 71.2733 234.2 70.7067 234.44 70.16L237.28 70.74C237.04 71.2867 236.76 71.86 236.44 72.46C236.133 73.0467 235.807 73.62 235.46 74.18ZM253.04 87.94C251.427 87.94 250.02 87.6533 248.82 87.08C247.633 86.52 246.713 85.7267 246.06 84.7C245.407 83.66 245.08 82.44 245.08 81.04C245.08 79.9467 245.273 78.9333 245.66 78C246.06 77.0667 246.62 76.2533 247.34 75.56C248.073 74.8533 248.94 74.3133 249.94 73.94L250.14 74.56L240.62 74.78V72.64L257.48 72.24V74.38L254.94 74.44C253.873 74.4667 252.887 74.64 251.98 74.96C251.087 75.2667 250.313 75.7 249.66 76.26C249.02 76.82 248.52 77.4867 248.16 78.26C247.8 79.02 247.62 79.8667 247.62 80.8C247.62 81.8133 247.84 82.6933 248.28 83.44C248.72 84.1733 249.34 84.74 250.14 85.14C250.953 85.54 251.927 85.74 253.06 85.74C253.3 85.74 253.567 85.7333 253.86 85.72C254.167 85.6933 254.473 85.6667 254.78 85.64C255.1 85.6 255.38 85.56 255.62 85.52L255.88 87.72C255.6 87.76 255.293 87.7933 254.96 87.82C254.627 87.86 254.293 87.8867 253.96 87.9C253.627 87.9267 253.32 87.94 253.04 87.94ZM255.08 81.7C254.773 81.02 254.44 80.3733 254.08 79.76C253.733 79.1333 253.333 78.4933 252.88 77.84L254.62 76.88C255.073 77.5333 255.48 78.18 255.84 78.82C256.2 79.4467 256.54 80.1133 256.86 80.82L255.08 81.7ZM258.12 80.56C257.827 79.8667 257.507 79.2133 257.16 78.6C256.827 77.9733 256.44 77.3333 256 76.68L257.74 75.76C258.18 76.4267 258.573 77.08 258.92 77.72C259.28 78.36 259.607 79.04 259.9 79.76L258.12 80.56ZM269.64 88.04C268.12 88.04 266.873 87.8 265.9 87.32C264.94 86.8533 264.227 86.1267 263.76 85.14C263.307 84.1533 263.08 82.8867 263.08 81.34V71.6H265.52V81.34C265.52 82.9 265.847 84.0333 266.5 84.74C267.153 85.4333 268.2 85.78 269.64 85.78C270.693 85.78 271.62 85.5867 272.42 85.2C273.233 84.8133 273.967 84.1867 274.62 83.32C275.287 82.44 275.927 81.2733 276.54 79.82L278.76 80.72C278.227 82.0533 277.653 83.1867 277.04 84.12C276.44 85.04 275.78 85.7933 275.06 86.38C274.353 86.9533 273.553 87.3733 272.66 87.64C271.767 87.9067 270.76 88.04 269.64 88.04ZM281.74 87.84C282.3 86.04 282.807 84.2133 283.26 82.36C283.727 80.4933 284.133 78.6 284.48 76.68C284.84 74.7467 285.147 72.8 285.4 70.84L287.78 70.94C287.553 72.86 287.26 74.8 286.9 76.76C286.553 78.72 286.147 80.6667 285.68 82.6C285.213 84.52 284.693 86.4067 284.12 88.26L281.74 87.84ZM294.14 87.86C292.927 87.86 291.873 87.7133 290.98 87.42C290.087 87.14 289.393 86.7467 288.9 86.24C288.407 85.72 288.16 85.1 288.16 84.38C288.16 83.8467 288.34 83.32 288.7 82.8C289.06 82.28 289.613 81.74 290.36 81.18L292.16 82.46C291.653 82.78 291.273 83.08 291.02 83.36C290.78 83.6267 290.66 83.8933 290.66 84.16C290.66 84.4667 290.8 84.74 291.08 84.98C291.373 85.2067 291.78 85.3867 292.3 85.52C292.833 85.6533 293.447 85.72 294.14 85.72C294.767 85.72 295.407 85.6867 296.06 85.62C296.713 85.5533 297.393 85.4533 298.1 85.32L298.36 87.46C297.627 87.5933 296.92 87.6933 296.24 87.76C295.56 87.8267 294.86 87.86 294.14 87.86ZM281.46 75.42V73.34H295.54V75.42H281.46ZM288.94 77.68C290.513 77.5333 292.053 77.42 293.56 77.34C295.08 77.26 296.6 77.22 298.12 77.22V79.32C296.627 79.32 295.127 79.36 293.62 79.44C292.127 79.5067 290.613 79.6267 289.08 79.8L288.94 77.68ZM301.78 87V84.18H304.62V87H301.78ZM308.05 87V84.18H310.89V87H308.05ZM314.319 87V84.18H317.159V87H314.319ZM327.905 82.62L327.545 72.4H330.505L330.165 82.62H327.905ZM327.625 87V84.28H330.445V87H327.625Z" fill="#282828"/>
<path opacity="0.6" d="M52.88 121.4C52.88 117.7 54.46 114.44 57.76 111.78C57.94 111.62 58.16 111.54 58.36 111.54C58.74 111.54 59.1 111.88 59.1 112.26C59.1 112.52 59 112.7 58.8 112.88C55.92 115.34 54.72 118.12 54.72 121.4C54.72 124.68 55.92 127.46 58.8 129.92C59 130.1 59.1 130.28 59.1 130.54C59.1 130.92 58.74 131.26 58.36 131.26C58.16 131.26 57.94 131.18 57.76 131.02C54.46 128.36 52.88 125.1 52.88 121.4ZM64.36 121.38H64.42C64.84 120.52 65.3 119.86 65.96 119.08C67.18 117.66 68.84 116.56 70.7 116.16C70.62 115.32 70.54 114.5 70.42 113.68C70.42 113.62 70.4 113.58 70.4 113.54C70.4 112.92 70.98 112.58 71.54 112.58C72.06 112.58 72.58 112.86 72.66 113.46C72.78 114.3 72.88 115.14 72.96 115.98C76.3 116.14 78.28 118.32 78.28 121.38C78.28 124.8 75.7 126.96 72.1 126.96H71.84C71.28 128.08 70.48 129.04 69.46 129.88C69.2 130.1 68.92 130.18 68.66 130.18C68.06 130.18 67.54 129.7 67.54 129.14C67.54 128.84 67.68 128.54 68.02 128.26C68.7 127.72 69.22 127.16 69.64 126.5C68.64 126.04 67.84 125.3 67.3 124.22C67.2 124.04 67.16 123.88 67.16 123.72C67.16 123.16 67.68 122.74 68.22 122.74C68.56 122.74 68.9 122.9 69.14 123.3C69.44 123.82 69.96 124.28 70.44 124.56C70.72 123.44 70.84 122.04 70.84 120.18C70.84 119.52 70.82 118.84 70.8 118.14C69.56 118.56 68.42 119.36 67.36 120.56C66.48 121.52 65.62 123.02 65.18 124.24C64.98 124.76 64.94 125.08 64.94 125.3C64.94 125.48 64.98 125.68 65.02 125.96C65.02 126.7 64.44 127.1 63.88 127.1C63.4 127.1 62.94 126.84 62.78 126.26C62.36 124.68 62.12 123.2 62.12 121.26C62.12 119.82 62.32 117.52 62.74 115.64C62.88 115.02 63.36 114.76 63.86 114.76C64.42 114.76 64.98 115.12 64.98 115.74C64.98 115.82 64.98 115.9 64.96 115.98C64.56 118.04 64.32 119.64 64.32 120.9C64.32 121.1 64.32 121.16 64.36 121.38ZM73.08 117.94C73.12 118.7 73.14 119.46 73.14 120.2C73.14 121.98 72.98 123.52 72.64 124.84C74.72 124.66 76.02 123.64 76.02 121.38C76.02 119.52 75.02 118.16 73.08 117.94ZM88.48 112.58C89.92 112.78 91.78 113.3 93.1 113.84C93.6 114.04 93.82 114.46 93.82 114.88C93.82 115.46 93.4 116.06 92.78 116.06C92.66 116.06 92.52 116.02 92.38 115.98C91.12 115.54 89.36 115.04 88.02 114.78C87.44 114.66 87.18 114.22 87.18 113.76C87.18 113.18 87.58 112.56 88.28 112.56C88.36 112.56 88.42 112.58 88.48 112.58ZM85.32 120.66C85.14 120.74 84.96 120.78 84.8 120.78C84.16 120.78 83.7 120.22 83.7 119.66C83.7 119.28 83.92 118.88 84.44 118.66C86.34 117.82 88.64 117.34 90.2 117.34C93.34 117.34 94.82 118.76 94.82 121.44C94.82 124.52 93.42 127.72 90.4 129.84C90.14 130.02 89.88 130.1 89.64 130.1C89 130.1 88.5 129.58 88.5 129C88.5 128.66 88.66 128.3 89.08 128C91.58 126.16 92.5 123.94 92.5 121.46C92.5 120.16 91.96 119.48 90.24 119.48C89.04 119.48 87.18 119.86 85.32 120.66ZM106.88 121.4H106.92C107.12 120.94 107.26 120.56 107.44 120.02C107.6 119.58 107.96 119.38 108.3 119.38C108.76 119.38 109.2 119.7 109.2 120.18C109.2 120.26 109.18 120.34 109.16 120.42C108.82 121.56 108.28 122.82 107.76 123.72C107.44 124.26 106.9 124.54 106.38 124.54C105.82 124.54 105.28 124.22 105.1 123.58C104.84 122.72 104.62 121.28 104.62 120.14C104.62 118.54 104.86 116.34 105.36 114.26C105.5 113.7 106.02 113.44 106.5 113.44C107.06 113.44 107.6 113.76 107.6 114.34C107.6 114.42 107.58 114.5 107.56 114.6C107.12 116.46 106.82 118.74 106.82 119.94C106.82 120.58 106.84 121 106.88 121.4ZM112.08 114.16V114.04C112.08 113.38 112.68 113.02 113.28 113.02C113.82 113.02 114.36 113.32 114.46 113.98C114.74 116.08 114.88 118.26 114.88 120.42C114.88 124.76 113.32 127.78 110.52 129.92C110.24 130.14 109.94 130.24 109.68 130.24C109.06 130.24 108.56 129.72 108.56 129.12C108.56 128.78 108.72 128.42 109.08 128.12C111.36 126.24 112.48 123.8 112.48 120.42C112.48 118.36 112.34 116.28 112.08 114.16ZM132.3 122.4L132.32 122.36C131.4 121.32 130.7 120.2 130 118.86C127.78 119.26 124.82 119.6 123.76 119.6C123.08 119.6 122.72 119.04 122.72 118.5C122.72 118.02 123.02 117.52 123.68 117.5C125.36 117.42 127.28 117.2 129.12 116.9C128.72 115.86 128.36 114.82 128.08 113.8C128.06 113.72 128.04 113.64 128.04 113.56C128.04 112.96 128.64 112.58 129.22 112.58C129.66 112.58 130.1 112.8 130.24 113.34C130.5 114.36 130.82 115.46 131.24 116.5C132.76 116.18 134.16 115.8 135.26 115.42C135.4 115.36 135.56 115.34 135.68 115.34C136.32 115.34 136.76 115.88 136.76 116.42C136.76 116.82 136.52 117.22 135.94 117.42C134.88 117.78 133.56 118.14 132.14 118.44C132.88 119.84 133.92 121.32 135.42 122.94C135.66 123.2 135.76 123.5 135.76 123.78C135.76 124.38 135.3 124.92 134.66 124.92C134.54 124.92 134.4 124.88 134.26 124.84C132.72 124.3 131.24 124.08 129.64 124.08C127.22 124.08 126.4 124.82 126.4 125.92C126.4 127.06 127.3 127.82 130.28 127.82C131.1 127.82 131.74 127.78 132.38 127.72H132.52C133.22 127.72 133.58 128.26 133.58 128.8C133.58 129.28 133.28 129.76 132.6 129.84C131.94 129.92 131.2 129.96 130.32 129.96C126.24 129.96 124.08 128.42 124.08 125.9C124.08 123.74 125.74 122.14 129.62 122.14C130.7 122.14 131.5 122.24 132.3 122.4ZM147.68 120.96L147.72 120.98C148.3 120.62 148.9 120.46 149.54 120.46C151.38 120.46 152.38 121.56 152.52 124.68C152.62 126.86 153.1 127.16 153.86 127.16C154.76 127.16 155.52 126.38 156.22 124.56C156.42 124.04 156.86 123.8 157.3 123.8C157.9 123.8 158.5 124.24 158.5 124.88C158.5 125.02 158.46 125.18 158.4 125.36C157.36 128.12 155.86 129.42 153.7 129.42C151.62 129.42 150.34 128.3 150.2 124.88C150.12 122.9 149.82 122.48 149 122.48C147.94 122.48 146.86 123.46 145.88 125.5C145.44 126.42 144.86 127.64 144.42 128.6C144.2 129.06 143.78 129.28 143.36 129.28C142.76 129.28 142.16 128.86 142.16 128.22C142.16 128.08 142.2 127.94 142.26 127.78C144.02 123.54 146.56 118.12 148.86 113.86C149.08 113.44 149.48 113.26 149.88 113.26C150.52 113.26 151.14 113.7 151.14 114.3C151.14 114.46 151.1 114.62 151.02 114.78L147.68 120.96ZM161.14 129.6L177.62 112.08C177.8 111.9 178 111.76 178.18 111.76C178.7 111.76 179.14 112.18 179.14 112.58C179.14 112.8 179.06 113 178.86 113.2L162.38 130.72C162.2 130.9 162 131.04 161.82 131.04C161.3 131.04 160.86 130.62 160.86 130.22C160.86 130 160.94 129.8 161.14 129.6ZM188.24 119.28H193.46C194.92 119.28 195.8 119.98 195.8 121.04C195.8 121.44 195.68 121.9 195.4 122.38C194.7 123.62 193.76 124.78 192.68 125.82C194.34 126.92 196.28 127.72 198.42 128.24C199.02 128.38 199.3 128.84 199.3 129.28C199.3 129.84 198.88 130.42 198.18 130.42C198.1 130.42 197.98 130.4 197.88 130.38C195.38 129.8 193.02 128.72 191.02 127.2C188.92 128.76 186.42 129.92 183.88 130.56C183.78 130.58 183.68 130.6 183.6 130.6C182.98 130.6 182.58 130.08 182.58 129.56C182.58 129.16 182.82 128.76 183.36 128.62C185.66 128.02 187.74 127.06 189.48 125.84C188.42 124.78 187.54 123.58 186.82 122.28C185.58 124.52 184.06 126.48 182.36 127.96C182.1 128.2 181.8 128.3 181.54 128.3C181 128.3 180.54 127.86 180.54 127.34C180.54 127.06 180.66 126.78 180.94 126.52C183.52 124.14 185.58 120.9 186.76 117.04H181.94C181.36 117.04 181.08 116.54 181.08 116.06C181.08 115.56 181.36 115.08 181.94 115.08H187.26C187.42 114.38 187.54 113.64 187.64 112.9C187.72 112.3 188.22 112 188.74 112C189.3 112 189.86 112.34 189.86 113.02C189.86 113.06 189.84 113.12 189.84 113.18C189.76 113.82 189.64 114.46 189.5 115.08H198.22C198.8 115.08 199.1 115.56 199.1 116.06C199.1 116.54 198.8 117.04 198.22 117.04H189C188.78 117.8 188.52 118.54 188.24 119.28ZM192.78 121.16H188.32C189.02 122.44 189.94 123.6 191.04 124.56C191.92 123.72 192.66 122.82 193.22 121.84C193.32 121.66 193.36 121.54 193.36 121.42C193.36 121.24 193.18 121.16 192.78 121.16ZM205.16 122.6V126.6C206.42 127.82 208.38 128.3 213.02 128.3C215.12 128.3 216.94 128.24 218.44 128.08H218.58C219.22 128.08 219.54 128.58 219.54 129.08C219.54 129.58 219.24 130.08 218.58 130.12C217.02 130.24 215.2 130.3 213.08 130.3C208.06 130.3 205.9 129.74 204.36 128.28C203.72 129 202.96 129.76 202.26 130.28C202.02 130.46 201.78 130.52 201.56 130.52C200.98 130.52 200.5 130.06 200.5 129.52C200.5 129.22 200.68 128.88 201.08 128.6C201.74 128.14 202.46 127.5 203.08 126.82V122.94C203.08 122.6 203.02 122.48 202.5 122.48H201.62C201.04 122.48 200.74 121.98 200.74 121.5C200.74 121 201.04 120.52 201.62 120.52H202.98C204.54 120.52 205.16 121.22 205.16 122.6ZM218.2 117.86H215.54C215.7 118 215.82 118.2 215.82 118.44C215.82 118.6 215.78 118.76 215.68 118.92C215.54 119.16 215.4 119.42 215.22 119.68H218.3C218.8 119.68 219.04 120.08 219.04 120.5C219.04 120.9 218.8 121.32 218.3 121.32H213.32V122.22H216.84C217.34 122.22 217.58 122.62 217.58 123.02C217.58 123.42 217.34 123.82 216.84 123.82H213.32V124.74H217.98C218.48 124.74 218.72 125.14 218.72 125.56C218.72 125.96 218.48 126.38 217.98 126.38H213.32V127.12C213.32 127.66 212.82 127.94 212.3 127.94C211.8 127.94 211.28 127.66 211.28 127.12V126.38H206.98C206.52 126.38 206.28 125.96 206.28 125.56C206.28 125.14 206.52 124.74 206.98 124.74H211.28V123.82H208.18C207.72 123.82 207.5 123.42 207.5 123.02C207.5 122.62 207.72 122.22 208.18 122.22H211.28V121.32H206.88C206.42 121.32 206.18 120.9 206.18 120.5C206.18 120.08 206.42 119.68 206.88 119.68H209.54C209.38 119.44 209.18 119.14 209 118.86C208.88 118.68 208.82 118.52 208.82 118.38C208.82 118.18 208.92 118 209.06 117.86H206.48C206.02 117.86 205.78 117.44 205.78 117.04C205.78 116.62 206.02 116.22 206.48 116.22H211.28V115.3H208.02C207.56 115.3 207.32 114.88 207.32 114.48C207.32 114.06 207.56 113.66 208.02 113.66H211.28V112.8C211.28 112.24 211.8 111.98 212.3 111.98C212.82 111.98 213.32 112.24 213.32 112.8V113.66H216.86C217.36 113.66 217.6 114.06 217.6 114.48C217.6 114.88 217.36 115.3 216.86 115.3H213.32V116.22H218.2C218.7 116.22 218.94 116.62 218.94 117.04C218.94 117.44 218.7 117.86 218.2 117.86ZM211.4 119.68H213.08C213.38 119.2 213.62 118.76 213.86 118.2C213.92 118.06 214 117.94 214.1 117.86H210.56C210.6 117.9 210.64 117.94 210.7 118.02C210.96 118.36 211.1 118.54 211.28 118.84C211.4 119.04 211.44 119.22 211.44 119.4C211.44 119.5 211.42 119.6 211.4 119.68ZM203.36 113.5C203.98 113.96 204.48 114.48 204.9 114.98C205.12 115.24 205.2 115.5 205.2 115.74C205.2 116.36 204.66 116.84 204.06 116.84C203.76 116.84 203.46 116.72 203.2 116.4C202.82 115.92 202.44 115.52 201.88 115.02C201.6 114.78 201.5 114.5 201.5 114.24C201.5 113.7 201.98 113.22 202.58 113.22C202.84 113.22 203.1 113.3 203.36 113.5ZM228.88 129.9V123.64C226.72 123.8 224.58 123.88 222.52 123.92C221.84 123.92 221.48 123.42 221.48 122.92C221.48 122.42 221.82 121.94 222.5 121.94C224.22 121.94 226.04 121.9 227.86 121.82C228.08 121.62 228.3 121.4 228.52 121.2C227.34 120.16 226.28 119.38 225.12 118.62C224.82 118.42 224.68 118.16 224.68 117.88C224.68 117.38 225.14 116.9 225.72 116.9C225.94 116.9 226.16 116.96 226.38 117.1C226.6 117.24 226.86 117.4 227.1 117.58C227.68 116.9 228.24 116.18 228.66 115.4C226.98 115.58 224.3 115.78 223.64 115.78C223 115.78 222.64 115.28 222.64 114.78C222.64 114.3 222.96 113.84 223.6 113.8C227.62 113.62 231.5 113.14 235.24 112.2C235.34 112.18 235.44 112.16 235.54 112.16C236.2 112.16 236.64 112.72 236.64 113.28C236.64 113.68 236.4 114.08 235.8 114.22C234.08 114.62 232.3 114.94 230.5 115.18C230.64 115.34 230.72 115.52 230.72 115.74C230.72 115.94 230.64 116.16 230.48 116.4C230.02 117.1 229.38 117.88 228.64 118.7C229.06 119.02 229.48 119.38 229.9 119.72C230.78 118.72 231.6 117.68 232.32 116.6C232.54 116.28 232.86 116.14 233.18 116.14C233.74 116.14 234.28 116.58 234.28 117.14C234.28 117.34 234.22 117.54 234.06 117.76C232.96 119.24 231.86 120.52 230.72 121.68C232 121.6 233.28 121.5 234.56 121.38C234.36 121.2 234.16 121.04 233.98 120.88C233.7 120.66 233.58 120.4 233.58 120.16C233.58 119.68 234.06 119.26 234.6 119.26C234.84 119.26 235.08 119.34 235.3 119.5C236.36 120.36 237.58 121.52 238.46 122.58C238.66 122.82 238.74 123.04 238.74 123.26C238.74 123.84 238.2 124.28 237.64 124.28C237.34 124.28 237.04 124.16 236.8 123.84C236.6 123.56 236.38 123.28 236.14 123.02C234.44 123.2 232.74 123.36 231.04 123.5V129.9C231.04 130.52 230.5 130.82 229.96 130.82C229.42 130.82 228.88 130.52 228.88 129.9ZM223.88 129.44C223.66 129.62 223.4 129.7 223.18 129.7C222.58 129.7 222.06 129.22 222.06 128.68C222.06 128.4 222.18 128.12 222.5 127.86C223.48 127.06 224.4 126.1 225.16 124.98C225.4 124.64 225.72 124.5 226.04 124.5C226.6 124.5 227.14 124.92 227.14 125.46C227.14 125.64 227.08 125.84 226.94 126.04C226.14 127.22 225.08 128.46 223.88 129.44ZM234.72 124.7C235.48 125.58 236.42 126.52 237.44 127.38C237.78 127.66 237.92 127.98 237.92 128.28C237.92 128.84 237.4 129.32 236.82 129.32C236.56 129.32 236.3 129.22 236.04 129C234.96 128.02 233.8 126.8 233.06 125.86C232.9 125.66 232.82 125.44 232.82 125.24C232.82 124.72 233.34 124.3 233.88 124.3C234.18 124.3 234.48 124.42 234.72 124.7ZM244.94 122.6L240.62 115.32C240.5 115.12 240.46 114.88 240.46 114.62C240.46 114.08 241.08 113.56 241.9 113.56C242.3 113.56 242.64 113.78 242.82 114.1L246.34 120.22L249.88 114.06C250.04 113.78 250.36 113.56 250.78 113.56C251.52 113.56 252.12 114.08 252.12 114.68C252.12 114.94 252.06 115.14 251.96 115.32L247.46 122.52V127.86C247.46 128.6 246.94 129 246.22 129C245.5 129 244.94 128.6 244.94 127.86V122.6ZM256.166 129.08C253.406 129.08 251.426 127.02 251.426 123.62C251.426 120.24 253.426 118.22 256.166 118.22C258.906 118.22 260.906 120.24 260.906 123.62C260.906 127.02 258.946 129.08 256.166 129.08ZM256.166 127.26C257.746 127.26 258.606 125.96 258.606 123.62C258.606 121.3 257.746 120.04 256.166 120.04C254.606 120.04 253.726 121.3 253.726 123.62C253.726 125.96 254.606 127.26 256.166 127.26ZM263.178 124.76V119.36C263.178 118.72 263.618 118.32 264.318 118.32C265.038 118.32 265.478 118.7 265.478 119.36V124.44C265.478 125.94 265.638 126.4 265.858 126.66C266.118 126.98 266.458 127.18 266.978 127.18C268.478 127.18 269.478 126.22 269.478 124.1V119.36C269.478 118.72 269.918 118.32 270.618 118.32C271.338 118.32 271.778 118.7 271.778 119.36V123.7C271.778 125.5 271.918 126.7 272.058 127.46C272.098 127.62 272.158 127.86 272.158 128.18C272.158 128.7 271.658 129 270.918 129C270.438 129 270.178 128.78 269.998 128.3C269.898 128 269.778 127.6 269.698 127.18C269.218 128.26 268.038 129.08 266.658 129.08C265.438 129.08 264.718 128.82 264.098 128.16C263.438 127.44 263.178 126.62 263.178 124.76ZM279.805 115.78V127.86C279.805 128.6 279.285 129 278.565 129C277.845 129 277.285 128.6 277.285 127.86V115.78H273.765C273.125 115.78 272.785 115.32 272.785 114.76C272.785 114.2 273.125 113.74 273.765 113.74H283.345C283.985 113.74 284.325 114.2 284.325 114.76C284.325 115.32 283.985 115.78 283.345 115.78H279.805ZM284.272 124.76V119.36C284.272 118.72 284.712 118.32 285.412 118.32C286.132 118.32 286.572 118.7 286.572 119.36V124.44C286.572 125.94 286.732 126.4 286.952 126.66C287.212 126.98 287.552 127.18 288.072 127.18C289.572 127.18 290.572 126.22 290.572 124.1V119.36C290.572 118.72 291.012 118.32 291.712 118.32C292.432 118.32 292.872 118.7 292.872 119.36V123.7C292.872 125.5 293.012 126.7 293.152 127.46C293.192 127.62 293.252 127.86 293.252 128.18C293.252 128.7 292.752 129 292.012 129C291.532 129 291.272 128.78 291.092 128.3C290.992 128 290.872 127.6 290.792 127.18C290.312 128.26 289.132 129.08 287.752 129.08C286.532 129.08 285.812 128.82 285.192 128.16C284.532 127.44 284.272 126.62 284.272 124.76ZM298.075 127.82V127.96C298.075 128.56 297.635 128.98 296.995 128.98C296.335 128.98 295.855 128.56 295.855 127.96V114.46C295.855 113.8 296.295 113.42 297.015 113.42C297.735 113.42 298.155 113.82 298.155 114.46V119.74C298.775 118.84 299.835 118.22 300.895 118.22C303.475 118.22 305.275 120.14 305.275 123.5C305.275 126.98 303.175 129.08 300.415 129.08C299.615 129.08 298.615 128.56 298.075 127.82ZM298.155 123V125.96C298.615 126.74 299.475 127.28 300.395 127.28C301.855 127.28 302.975 125.92 302.975 123.58C302.975 121.26 302.055 120.08 300.695 120.08C299.315 120.08 298.155 121.3 298.155 123ZM314.113 124.28H309.113C309.193 126.16 310.453 127.24 311.753 127.24C312.673 127.24 313.353 127.06 314.093 126.46C314.273 126.32 314.473 126.22 314.713 126.22C315.273 126.22 315.673 126.64 315.673 127.14C315.673 127.46 315.573 127.68 315.393 127.84C314.453 128.62 313.153 129.06 311.753 129.06C308.853 129.06 306.953 127.08 306.953 123.62C306.953 120.3 308.953 118.24 311.613 118.24C313.953 118.24 315.813 120.12 315.813 122.52C315.813 123.68 315.193 124.28 314.113 124.28ZM309.173 122.62H313.233C313.553 122.62 313.693 122.4 313.693 122.12C313.693 121.16 312.913 120 311.573 120C310.173 120 309.253 121.12 309.173 122.62ZM320.362 124.28V127.94C320.362 128.58 319.922 128.98 319.222 128.98C318.502 128.98 318.062 128.6 318.062 127.94V119.34C318.062 118.74 318.542 118.32 319.202 118.32C319.842 118.32 320.282 118.74 320.282 119.34V120.88C320.742 119.12 321.682 118.22 323.042 118.22C323.882 118.22 324.162 118.62 324.162 119.34C324.162 120.02 323.802 120.44 323.042 120.44C321.602 120.44 320.362 121.78 320.362 124.28ZM331.573 121.4C331.573 125.1 329.993 128.36 326.693 131.02C326.513 131.18 326.293 131.26 326.093 131.26C325.713 131.26 325.353 130.92 325.353 130.54C325.353 130.28 325.453 130.1 325.653 129.92C328.533 127.46 329.733 124.68 329.733 121.4C329.733 118.12 328.533 115.34 325.653 112.88C325.453 112.7 325.353 112.52 325.353 112.26C325.353 111.88 325.713 111.54 326.093 111.54C326.293 111.54 326.513 111.62 326.693 111.78C329.993 114.44 331.573 117.7 331.573 121.4Z" fill="#282828"/>
<path d="M61.0002 207L79.0001 165L110.177 165L61.0002 207Z" fill="#E18965"/>
</svg>
