<svg width="315" height="215" viewBox="0 0 315 215" fill="none" xmlns="http://www.w3.org/2000/svg">
<rect width="315" height="161" rx="80" fill="#69BD83"/>
<path d="M40.88 46.168V44.024H46.688V41.384H42.32V39.304H46.688V37.032H41.2V34.872H54.8V37.032H49.312V39.304H53.68V41.384H49.312V44.024H55.12V46.168H40.88ZM50.912 34.968C49.9307 34.68 48.8907 34.424 47.792 34.2C46.704 33.976 45.536 33.7893 44.288 33.64L45.008 31.56C46.0747 31.6773 47.152 31.8427 48.24 32.056C49.3387 32.2587 50.4907 32.536 51.696 32.888L50.912 34.968ZM65.568 46.712V40.328H63.696V42.008H61.552V38.648H72.32V42.008H70.032V40.328H68.048V46.712H65.568ZM60.864 45.528C60.5227 44.7387 60.1813 44.04 59.84 43.432C59.5093 42.824 59.168 42.2747 58.816 41.784C58.464 41.2933 58.08 40.8293 57.664 40.392L58.688 38.664C59.136 39.0693 59.568 39.5333 59.984 40.056C60.4 40.568 60.8053 41.1547 61.2 41.816C61.5947 42.4667 61.9787 43.1973 62.352 44.008L60.864 45.528ZM57.904 46.84L56.864 44.872C57.4507 44.3493 57.9573 43.8053 58.384 43.24C58.8213 42.6747 59.184 42.0613 59.472 41.4C59.7707 40.728 60 39.976 60.16 39.144C60.32 38.312 60.4267 37.3733 60.48 36.328H56.944V34.248H62.304V35.288C62.304 36.7493 62.2187 38.056 62.048 39.208C61.8773 40.3493 61.6107 41.3733 61.248 42.28C60.896 43.176 60.4427 43.9973 59.888 44.744C59.3333 45.48 58.672 46.1787 57.904 46.84ZM58.384 42.376L56.928 40.552C57.1733 39.7947 57.3867 39.0053 57.568 38.184C57.7493 37.352 57.8987 36.4293 58.016 35.416C58.1333 34.392 58.2293 33.2187 58.304 31.896L60.48 31.976C60.3413 34.184 60.0853 36.1733 59.712 37.944C59.3493 39.704 58.9067 41.1813 58.384 42.376ZM62.256 45.848V41.176H71.728V43.272C71.728 43.88 71.7067 44.3547 71.664 44.696C71.632 45.0373 71.5413 45.288 71.392 45.448C71.2533 45.6187 71.0293 45.7253 70.72 45.768C70.4213 45.8107 70.0107 45.832 69.488 45.832C69.4027 45.832 69.2853 45.8267 69.136 45.816C68.9867 45.8053 68.7787 45.7947 68.512 45.784L68.448 43.928C68.5867 43.9387 68.704 43.9493 68.8 43.96C68.9067 43.96 68.9867 43.96 69.04 43.96C69.1787 43.96 69.2747 43.9547 69.328 43.944C69.3813 43.9333 69.4133 43.9067 69.424 43.864C69.4347 43.8107 69.44 43.72 69.44 43.592V42.872H64.496V45.848H62.256ZM62.64 38.152V36.648H69.056V36.12H62.96V34.712H69.056V34.168H62.64V32.216H71.6V38.152H62.64ZM75.088 46.536L73.52 44.344C73.744 43.9067 73.9307 43.4747 74.08 43.048C74.24 42.6107 74.368 42.12 74.464 41.576C74.56 41.0213 74.6293 40.3813 74.672 39.656C74.7147 38.92 74.736 38.0507 74.736 37.048V32.312H88.56V34.248H76.976V38.904C76.976 39.8213 76.9387 40.648 76.864 41.384C76.7893 42.12 76.6773 42.792 76.528 43.4C76.3787 43.9973 76.1813 44.552 75.936 45.064C75.7013 45.576 75.4187 46.0667 75.088 46.536ZM76.288 46.312V44.36H77.92V41.512H80.112V44.36H81.52V40.52H84V41.688H87.568V43.352H84V44.36H88.56V46.312H76.288ZM77.712 40.44L76.64 38.744C77.1627 38.296 77.584 37.88 77.904 37.496C78.224 37.1013 78.496 36.6853 78.72 36.248L79.872 37.08C79.616 37.72 79.3013 38.328 78.928 38.904C78.5653 39.48 78.16 39.992 77.712 40.44ZM78.832 40.84V36.68H77.328V35.016H78.832V34.088H80.912V35.016H82.096V36.68H80.912V40.84H78.832ZM81.616 39.528C81.3173 39.1547 81.0187 38.8027 80.72 38.472C80.4213 38.1307 80.1013 37.7947 79.76 37.464L80.864 36.376C81.152 36.664 81.4453 36.9573 81.744 37.256C82.0533 37.5547 82.3787 37.8747 82.72 38.216L81.616 39.528ZM82.624 40.616L81.696 39.08C82.304 38.632 82.8 38.1947 83.184 37.768C83.5787 37.3307 83.904 36.888 84.16 36.44L85.312 37.384C84.9813 38.0027 84.5867 38.584 84.128 39.128C83.68 39.672 83.1787 40.168 82.624 40.616ZM84.176 40.84V36.68H82.608V35.016H84.176V34.088H86.24V35.016H88.24V36.68H86.24V40.84H84.176ZM87.632 40.6C87.1307 40.088 86.656 39.544 86.208 38.968C85.7707 38.3813 85.3707 37.7627 85.008 37.112L86.496 36.344C86.7627 36.7493 87.0773 37.16 87.44 37.576C87.8027 37.992 88.224 38.4187 88.704 38.856L87.632 40.6ZM90.976 42.712C91.936 41.9973 92.752 41.3573 93.424 40.792C94.1067 40.2267 94.656 39.7147 95.072 39.256C95.488 38.7973 95.792 38.376 95.984 37.992C96.176 37.608 96.272 37.2507 96.272 36.92C96.272 35.9813 95.7333 35.512 94.656 35.512C93.7173 35.512 92.5707 35.928 91.216 36.76L90.528 34.568C91.7547 33.6293 93.264 33.16 95.056 33.16C96.368 33.16 97.3653 33.4533 98.048 34.04C98.7307 34.616 99.072 35.48 99.072 36.632C99.072 37.1333 98.9813 37.6293 98.8 38.12C98.6293 38.6107 98.368 39.1067 98.016 39.608C97.664 40.1093 97.216 40.616 96.672 41.128C96.128 41.6293 95.488 42.1467 94.752 42.68V42.712H99.168V45H90.976V42.712ZM106.245 45.16C104.624 45.16 103.429 44.6747 102.661 43.704C101.904 42.7333 101.525 41.2187 101.525 39.16C101.525 37.1013 101.904 35.5867 102.661 34.616C103.429 33.6453 104.624 33.16 106.245 33.16C107.866 33.16 109.056 33.6453 109.813 34.616C110.581 35.5867 110.965 37.1013 110.965 39.16C110.965 41.2187 110.581 42.7333 109.813 43.704C109.056 44.6747 107.866 45.16 106.245 45.16ZM106.245 42.808C106.928 42.808 107.418 42.5253 107.717 41.96C108.016 41.384 108.165 40.4507 108.165 39.16C108.165 37.8693 108.016 36.9413 107.717 36.376C107.418 35.8 106.928 35.512 106.245 35.512C105.562 35.512 105.066 35.8 104.757 36.376C104.458 36.9413 104.309 37.8693 104.309 39.16C104.309 40.4507 104.458 41.384 104.757 41.96C105.066 42.5253 105.562 42.808 106.245 42.808ZM119.706 46.552V43.784H112.666V41.64H115.178V37.256H126.394V39.336H117.658V41.64H119.706V35.32H115.946V33.24H126.874V35.32H122.314V41.64H127.546V43.784H122.314V46.552H119.706ZM114.922 39.256L112.698 38.024C113.317 37.0107 113.872 35.9707 114.362 34.904C114.853 33.8373 115.274 32.7493 115.626 31.64L118.09 32.12C117.706 33.3467 117.248 34.5627 116.714 35.768C116.181 36.9733 115.584 38.136 114.922 39.256ZM139.098 40.312L136.682 40.232C136.832 39.4213 136.96 38.5893 137.066 37.736C137.184 36.8827 137.28 36.056 137.354 35.256H141.29V34.328H136.986V32.312H143.77V36.952H139.626C139.562 37.5173 139.482 38.0827 139.386 38.648C139.301 39.2133 139.205 39.768 139.098 40.312ZM129.898 45.16L129.37 43.224C130.128 42.9467 130.858 42.6533 131.562 42.344C132.277 42.024 132.922 41.704 133.498 41.384L133.994 43.24C133.429 43.5707 132.784 43.912 132.058 44.264C131.333 44.6053 130.613 44.904 129.898 45.16ZM134.202 46.488C134.01 46.488 133.728 46.4827 133.354 46.472C132.981 46.4613 132.581 46.4453 132.154 46.424C131.728 46.4133 131.328 46.4027 130.954 46.392L130.89 44.36C131.189 44.3707 131.488 44.3867 131.786 44.408C132.085 44.4293 132.357 44.4453 132.602 44.456C132.848 44.456 133.029 44.456 133.146 44.456C133.221 44.456 133.285 44.44 133.338 44.408C133.392 44.3653 133.44 44.2693 133.482 44.12C133.525 43.96 133.568 43.7147 133.61 43.384C133.664 43.0427 133.712 42.5787 133.754 41.992C133.797 41.4053 133.845 40.6533 133.898 39.736H130.618V37.848H136.474C136.4 39.4907 136.325 40.8453 136.25 41.912C136.176 42.9787 136.085 43.8213 135.978 44.44C135.872 45.0587 135.738 45.512 135.578 45.8C135.429 46.0987 135.237 46.2853 135.002 46.36C134.778 46.4453 134.512 46.488 134.202 46.488ZM131.946 42.456C131.53 42.1893 131.114 41.9333 130.698 41.688C130.293 41.432 129.914 41.208 129.562 41.016L130.65 39.32C131.013 39.5227 131.408 39.752 131.834 40.008C132.261 40.2533 132.688 40.5093 133.114 40.776L131.946 42.456ZM136.986 45.176L136.442 43.24C137.253 42.9627 138.032 42.6693 138.778 42.36C139.525 42.04 140.202 41.7147 140.81 41.384L141.29 43.256C140.704 43.5867 140.026 43.9227 139.258 44.264C138.501 44.6053 137.744 44.9093 136.986 45.176ZM131.818 40.312L129.402 40.232C129.552 39.4213 129.68 38.5893 129.786 37.736C129.904 36.8827 130 36.056 130.074 35.256H133.834V34.328H129.706V32.312H136.314V36.952H132.346C132.282 37.5173 132.202 38.0827 132.106 38.648C132.021 39.2133 131.925 39.768 131.818 40.312ZM141.658 46.488C141.456 46.488 141.152 46.4827 140.746 46.472C140.352 46.4613 139.92 46.4453 139.45 46.424C138.992 46.4133 138.565 46.4027 138.17 46.392L138.106 44.36C138.426 44.3707 138.752 44.3867 139.082 44.408C139.424 44.4293 139.728 44.4453 139.994 44.456C140.272 44.456 140.474 44.456 140.602 44.456C140.666 44.456 140.725 44.44 140.778 44.408C140.842 44.3653 140.896 44.2693 140.938 44.12C140.981 43.96 141.024 43.7147 141.066 43.384C141.12 43.0427 141.168 42.5787 141.21 41.992C141.253 41.4053 141.301 40.6533 141.354 39.736H138.026V37.848H143.914C143.85 39.4907 143.776 40.8453 143.69 41.912C143.616 42.9787 143.525 43.8213 143.418 44.44C143.322 45.0587 143.194 45.512 143.034 45.8C142.885 46.0987 142.693 46.2853 142.458 46.36C142.234 46.4453 141.968 46.488 141.658 46.488ZM139.29 42.456C138.874 42.1893 138.458 41.9333 138.042 41.688C137.626 41.432 137.237 41.208 136.874 41.016L137.962 39.32C138.336 39.5227 138.736 39.752 139.162 40.008C139.589 40.2533 140.021 40.5093 140.458 40.776L139.29 42.456ZM155.898 45.88C154.554 45.88 153.386 45.6507 152.394 45.192C151.402 44.7333 150.634 44.088 150.09 43.256C149.546 42.424 149.274 41.4427 149.274 40.312C149.274 39.5227 149.402 38.7867 149.658 38.104C149.914 37.4213 150.282 36.8133 150.762 36.28C151.253 35.7467 151.834 35.32 152.506 35L152.762 35.512L145.802 35.672V33.352L159.45 33.032V35.352L157.402 35.4C156.656 35.4107 155.957 35.528 155.306 35.752C154.656 35.976 154.085 36.2907 153.594 36.696C153.104 37.1013 152.725 37.5867 152.458 38.152C152.192 38.7067 152.058 39.336 152.058 40.04C152.058 40.7653 152.208 41.3893 152.506 41.912C152.805 42.424 153.242 42.8187 153.818 43.096C154.405 43.3627 155.104 43.496 155.914 43.496C156.106 43.496 156.32 43.4907 156.554 43.48C156.789 43.4587 157.029 43.4373 157.274 43.416C157.52 43.384 157.749 43.3467 157.962 43.304L158.25 45.688C157.994 45.72 157.728 45.752 157.45 45.784C157.173 45.816 156.901 45.8373 156.634 45.848C156.368 45.8693 156.122 45.88 155.898 45.88ZM157.034 41.048C156.778 40.4933 156.506 39.9653 156.218 39.464C155.93 38.9627 155.6 38.4507 155.226 37.928L156.874 37.032C157.248 37.5547 157.578 38.072 157.866 38.584C158.165 39.096 158.448 39.64 158.714 40.216L157.034 41.048ZM159.642 40.168C159.397 39.6027 159.136 39.0693 158.858 38.568C158.581 38.056 158.266 37.5387 157.914 37.016L159.562 36.168C159.914 36.712 160.229 37.24 160.506 37.752C160.794 38.264 161.061 38.8133 161.306 39.4L159.642 40.168ZM171.93 45.88C170.917 45.88 170.074 45.816 169.402 45.688C168.741 45.5707 168.218 45.3573 167.834 45.048C167.461 44.7493 167.194 44.3387 167.034 43.816C166.874 43.2933 166.794 42.632 166.794 41.832C166.794 41.5867 166.8 41.2133 166.81 40.712C166.821 40.2 166.837 39.6027 166.858 38.92C166.88 38.2373 166.901 37.5067 166.922 36.728C166.954 35.9493 166.986 35.16 167.018 34.36C167.05 33.56 167.082 32.7973 167.114 32.072L169.706 32.12C169.674 32.7387 169.642 33.4107 169.61 34.136C169.578 34.8507 169.546 35.5707 169.514 36.296C169.493 37.0107 169.472 37.6987 169.45 38.36C169.429 39.0213 169.413 39.6133 169.402 40.136C169.392 40.6587 169.386 41.0693 169.386 41.368C169.386 41.8587 169.413 42.248 169.466 42.536C169.53 42.824 169.648 43.0427 169.818 43.192C169.989 43.3413 170.245 43.4427 170.586 43.496C170.928 43.5387 171.376 43.56 171.93 43.56C172.634 43.56 173.184 43.5227 173.578 43.448C173.984 43.3733 174.272 43.2453 174.442 43.064C174.613 42.8827 174.698 42.632 174.698 42.312C174.698 42.1413 174.672 41.9173 174.618 41.64C174.565 41.352 174.512 41.1227 174.458 40.952L176.986 40.408C177.093 40.8667 177.168 41.2453 177.21 41.544C177.253 41.832 177.274 42.1147 177.274 42.392C177.274 43.1813 177.082 43.8373 176.698 44.36C176.314 44.872 175.728 45.2507 174.938 45.496C174.149 45.752 173.146 45.88 171.93 45.88ZM162.906 40.104V37.912H175.754V40.104H162.906ZM163.226 35.992V33.8H175.434V35.992H163.226ZM184.666 46.008C183.312 46.008 182.266 45.7413 181.53 45.208C180.805 44.6853 180.442 43.9333 180.442 42.952C180.442 41.9707 180.805 41.224 181.53 40.712C182.256 40.2 183.301 39.944 184.666 39.944C185.36 39.944 186.032 40.0187 186.682 40.168C187.333 40.3173 187.989 40.5573 188.65 40.888C189.312 41.2187 190.01 41.6507 190.746 42.184C191.482 42.7173 192.282 43.3733 193.146 44.152L191.498 45.8C190.688 45.0853 189.962 44.488 189.322 44.008C188.682 43.5173 188.096 43.128 187.562 42.84C187.04 42.5413 186.544 42.328 186.074 42.2C185.605 42.072 185.136 42.008 184.666 42.008C183.578 42.008 183.034 42.3067 183.034 42.904C183.034 43.2027 183.168 43.432 183.434 43.592C183.701 43.752 184.09 43.832 184.602 43.832C185.253 43.832 185.738 43.704 186.058 43.448C186.378 43.1813 186.538 42.7813 186.538 42.248V32.168H188.986V42.248C188.986 43.5067 188.624 44.4453 187.898 45.064C187.184 45.6933 186.106 46.008 184.666 46.008ZM180.346 39V36.872H192.986V39H180.346ZM180.186 35.768V33.592H193.146V35.768H180.186ZM196.41 45.832C196.837 44.4027 197.221 42.952 197.562 41.48C197.914 40.008 198.224 38.504 198.49 36.968C198.768 35.4213 199.013 33.8373 199.226 32.216L201.818 32.328C201.637 33.896 201.408 35.4693 201.13 37.048C200.864 38.616 200.554 40.1733 200.202 41.72C199.85 43.256 199.456 44.776 199.018 46.28L196.41 45.832ZM206.586 46.008C205.552 46.008 204.661 45.8853 203.914 45.64C203.178 45.4053 202.608 45.0693 202.202 44.632C201.797 44.184 201.594 43.6507 201.594 43.032C201.594 42.6053 201.722 42.1947 201.978 41.8C202.234 41.3947 202.629 40.984 203.162 40.568L205.37 41.496C205.029 41.72 204.768 41.944 204.586 42.168C204.405 42.3813 204.314 42.5787 204.314 42.76C204.314 42.952 204.405 43.1173 204.586 43.256C204.778 43.3947 205.045 43.5013 205.386 43.576C205.728 43.6507 206.128 43.688 206.586 43.688C207.077 43.688 207.568 43.6613 208.058 43.608C208.56 43.5547 209.098 43.4747 209.674 43.368L209.946 45.688C209.338 45.8053 208.773 45.8853 208.25 45.928C207.738 45.9813 207.184 46.008 206.586 46.008ZM196.186 36.312V34.072H207.274V36.312H196.186ZM202.33 37.624C203.6 37.5067 204.848 37.4213 206.074 37.368C207.312 37.304 208.544 37.272 209.77 37.272V39.528C208.565 39.528 207.354 39.56 206.138 39.624C204.933 39.6773 203.712 39.7627 202.474 39.88L202.33 37.624ZM206.714 35.4C206.426 34.824 206.138 34.3067 205.85 33.848C205.562 33.3893 205.242 32.9307 204.89 32.472L206.378 31.576C206.752 32.024 207.088 32.4933 207.386 32.984C207.685 33.464 207.973 33.9867 208.25 34.552L206.714 35.4ZM209.29 35.112C209.045 34.536 208.789 34.0133 208.522 33.544C208.266 33.0747 207.973 32.6 207.642 32.12L209.162 31.32C209.504 31.8 209.808 32.2853 210.074 32.776C210.341 33.2667 210.602 33.8107 210.858 34.408L209.29 35.112ZM217.946 46.008C216.592 46.008 215.546 45.7413 214.81 45.208C214.085 44.6853 213.722 43.9333 213.722 42.952C213.722 41.9707 214.085 41.224 214.81 40.712C215.536 40.2 216.581 39.944 217.946 39.944C218.64 39.944 219.312 40.0187 219.962 40.168C220.613 40.3173 221.269 40.5573 221.93 40.888C222.592 41.2187 223.29 41.6507 224.026 42.184C224.762 42.7173 225.562 43.3733 226.426 44.152L224.778 45.8C223.968 45.0853 223.242 44.488 222.602 44.008C221.962 43.5173 221.376 43.128 220.842 42.84C220.32 42.5413 219.824 42.328 219.354 42.2C218.885 42.072 218.416 42.008 217.946 42.008C216.858 42.008 216.314 42.3067 216.314 42.904C216.314 43.2027 216.448 43.432 216.714 43.592C216.981 43.752 217.37 43.832 217.882 43.832C218.533 43.832 219.018 43.704 219.338 43.448C219.658 43.1813 219.818 42.7813 219.818 42.248V32.168H222.266V42.248C222.266 43.5067 221.904 44.4453 221.178 45.064C220.464 45.6933 219.386 46.008 217.946 46.008ZM213.626 39V36.872H226.266V39H213.626ZM213.466 35.768V33.592H226.426V35.768H213.466ZM229.69 45.832C230.117 44.4027 230.501 42.952 230.842 41.48C231.194 40.008 231.504 38.504 231.77 36.968C232.048 35.4213 232.293 33.8373 232.506 32.216L235.098 32.328C234.917 33.896 234.688 35.4693 234.41 37.048C234.144 38.616 233.834 40.1733 233.482 41.72C233.13 43.256 232.736 44.776 232.298 46.28L229.69 45.832ZM239.866 46.008C238.832 46.008 237.941 45.8853 237.194 45.64C236.458 45.4053 235.888 45.0693 235.482 44.632C235.077 44.184 234.874 43.6507 234.874 43.032C234.874 42.6053 235.002 42.1947 235.258 41.8C235.514 41.3947 235.909 40.984 236.442 40.568L238.65 41.496C238.309 41.72 238.048 41.944 237.866 42.168C237.685 42.3813 237.594 42.5787 237.594 42.76C237.594 42.952 237.685 43.1173 237.866 43.256C238.058 43.3947 238.325 43.5013 238.666 43.576C239.008 43.6507 239.408 43.688 239.866 43.688C240.357 43.688 240.848 43.6613 241.338 43.608C241.84 43.5547 242.378 43.4747 242.954 43.368L243.226 45.688C242.618 45.8053 242.053 45.8853 241.53 45.928C241.018 45.9813 240.464 46.008 239.866 46.008ZM229.466 36.312V34.072H240.554V36.312H229.466ZM235.61 37.624C236.88 37.5067 238.128 37.4213 239.354 37.368C240.592 37.304 241.824 37.272 243.05 37.272V39.528C241.845 39.528 240.634 39.56 239.418 39.624C238.213 39.6773 236.992 39.7627 235.754 39.88L235.61 37.624ZM239.994 35.4C239.706 34.824 239.418 34.3067 239.13 33.848C238.842 33.3893 238.522 32.9307 238.17 32.472L239.658 31.576C240.032 32.024 240.368 32.4933 240.666 32.984C240.965 33.464 241.253 33.9867 241.53 34.552L239.994 35.4ZM242.57 35.112C242.325 34.536 242.069 34.0133 241.802 33.544C241.546 33.0747 241.253 32.6 240.922 32.12L242.442 31.32C242.784 31.8 243.088 32.2853 243.354 32.776C243.621 33.2667 243.882 33.8107 244.138 34.408L242.57 35.112ZM253.978 46.552V39.288H252.33V37.272H253.978V31.928H256.538V37.272H258.186V35.688H252.33V43.832H250.026V33.608H260.554V43.832H258.186V42.984H252.33V40.968H258.186V39.288H256.538V46.552H253.978ZM246.938 46.552V35.912H249.306V46.552H246.938ZM246.01 41.352L245.354 38.392C245.824 37.816 246.234 37.2027 246.586 36.552C246.949 35.9013 247.264 35.192 247.53 34.424C247.797 33.656 248.032 32.8027 248.234 31.864L250.57 32.28C250.389 33.4107 250.122 34.472 249.77 35.464C249.418 36.456 249.002 37.336 248.522 38.104L248.17 37.64C248.085 37.9173 247.957 38.232 247.786 38.584C247.616 38.9253 247.429 39.272 247.226 39.624C247.024 39.976 246.816 40.3067 246.602 40.616C246.389 40.9147 246.192 41.16 246.01 41.352ZM46.752 75.232C45.6213 75.232 44.6507 75.0293 43.84 74.624C43.04 74.2187 42.4213 73.6427 41.984 72.896C41.5573 72.1387 41.344 71.2373 41.344 70.192C41.344 69.4667 41.4613 68.7573 41.696 68.064C41.9413 67.3707 42.2987 66.704 42.768 66.064C43.2373 65.424 43.808 64.8213 44.48 64.256L44.896 64.64H40.672V62.448H46.992V64.768C46.3733 65.1947 45.8347 65.7013 45.376 66.288C44.9173 66.864 44.56 67.488 44.304 68.16C44.0587 68.8213 43.936 69.488 43.936 70.16C43.936 71.088 44.176 71.8027 44.656 72.304C45.1467 72.7947 45.8453 73.04 46.752 73.04C47.744 73.04 48.512 72.7467 49.056 72.16C49.6107 71.5627 49.888 70.7147 49.888 69.616C49.888 69.136 49.8347 68.608 49.728 68.032C49.632 67.4453 49.488 66.8267 49.296 66.176C49.104 65.5147 48.8693 64.8267 48.592 64.112L50.368 62.624C50.8587 63.1147 51.3867 63.6213 51.952 64.144C52.528 64.656 53.1147 65.1573 53.712 65.648C54.3093 66.128 54.8907 66.576 55.456 66.992L54.16 68.992C53.8933 68.7893 53.6107 68.5653 53.312 68.32C53.024 68.064 52.6933 67.7653 52.32 67.424C51.9467 67.0827 51.4987 66.6667 50.976 66.176L51.168 65.792C51.456 66.3787 51.6907 66.9333 51.872 67.456C52.0533 67.968 52.1867 68.4533 52.272 68.912C52.3573 69.3707 52.4 69.8187 52.4 70.256C52.4 71.28 52.1707 72.1653 51.712 72.912C51.2533 73.648 50.5973 74.2187 49.744 74.624C48.9013 75.0293 47.904 75.232 46.752 75.232ZM51.728 64.416C51.632 63.7973 51.5147 63.2267 51.376 62.704C51.2373 62.1707 51.056 61.6267 50.832 61.072L52.608 60.656C52.8 61.2 52.9653 61.744 53.104 62.288C53.2533 62.832 53.3813 63.4187 53.488 64.048L51.728 64.416ZM54.208 64.208C54.1227 63.5787 54.0107 63.0027 53.872 62.48C53.744 61.9573 53.584 61.4133 53.392 60.848L55.104 60.48C55.3067 61.024 55.472 61.5733 55.6 62.128C55.728 62.672 55.8347 63.2587 55.92 63.888L54.208 64.208ZM64.336 74.912C63.0453 74.912 61.9947 74.7147 61.184 74.32C60.3733 73.936 59.776 73.3333 59.392 72.512C59.0187 71.68 58.832 70.6133 58.832 69.312V61.68H61.488V69.312C61.488 70.432 61.7067 71.2373 62.144 71.728C62.5813 72.208 63.312 72.448 64.336 72.448C65.104 72.448 65.7813 72.304 66.368 72.016C66.9547 71.728 67.4933 71.2533 67.984 70.592C68.4853 69.9307 68.9813 69.0347 69.472 67.904L71.808 68.912C71.36 70.0213 70.8907 70.96 70.4 71.728C69.92 72.4853 69.3867 73.0987 68.8 73.568C68.2133 74.0373 67.552 74.3787 66.816 74.592C66.0907 74.8053 65.264 74.912 64.336 74.912ZM80.896 75.008C80.3733 75.008 79.824 74.9813 79.248 74.928C78.672 74.8853 78.1067 74.8213 77.552 74.736C77.008 74.6507 76.496 74.5547 76.016 74.448L76.176 72.256C76.912 72.4373 77.6533 72.5813 78.4 72.688C79.1573 72.784 79.92 72.832 80.688 72.832C82.1493 72.832 83.232 72.6507 83.936 72.288C84.6507 71.9253 85.008 71.392 85.008 70.688C85.008 70.048 84.7093 69.584 84.112 69.296C83.5147 68.9973 82.5653 68.848 81.264 68.848C80.656 68.848 80.096 68.88 79.584 68.944C79.0827 69.008 78.608 69.1147 78.16 69.264C77.7227 69.4027 77.296 69.5893 76.88 69.824L75.776 70.432L74.608 68.448L83.392 63.856V64.288H75.568V62.112H86.848V64.288L78.224 69.072L77.216 67.728C77.504 67.6213 77.8613 67.52 78.288 67.424C78.7147 67.328 79.1787 67.248 79.68 67.184C80.192 67.1093 80.704 67.056 81.216 67.024C81.7387 66.9813 82.224 66.96 82.672 66.96C84.3253 66.96 85.568 67.264 86.4 67.872C87.2427 68.4693 87.664 69.3653 87.664 70.56C87.664 71.9893 87.0773 73.088 85.904 73.856C84.7413 74.624 83.072 75.008 80.896 75.008ZM98.672 74.72C97.456 74.72 96.5067 74.4373 95.824 73.872C95.1413 73.3067 94.8 72.5227 94.8 71.52C94.8 70.5067 95.136 69.7227 95.808 69.168C96.4907 68.6027 97.4453 68.32 98.672 68.32C99.1733 68.32 99.648 68.384 100.096 68.512C100.555 68.64 101.035 68.864 101.536 69.184C102.037 69.4933 102.608 69.9307 103.248 70.496C103.888 71.0613 104.645 71.7867 105.52 72.672L103.936 74.384C103.168 73.584 102.512 72.9333 101.968 72.432C101.435 71.92 100.971 71.5253 100.576 71.248C100.192 70.9707 99.84 70.7787 99.52 70.672C99.2 70.5653 98.8693 70.512 98.528 70.512C97.5893 70.512 97.12 70.848 97.12 71.52C97.12 72.192 97.5893 72.528 98.528 72.528C99.04 72.528 99.4027 72.4267 99.616 72.224C99.84 72.0213 99.952 71.6907 99.952 71.232V61.232H102.464V71.36C102.464 72.448 102.133 73.28 101.472 73.856C100.821 74.432 99.888 74.72 98.672 74.72ZM95.008 65.76V63.568H105.232V65.76H95.008ZM91.792 74.928C91.5253 73.84 91.328 72.752 91.2 71.664C91.072 70.576 91.008 69.4347 91.008 68.24C91.008 67.0453 91.072 65.9093 91.2 64.832C91.328 63.744 91.5253 62.656 91.792 61.568L94.336 61.856C94.1013 62.8693 93.92 63.9093 93.792 64.976C93.6747 66.032 93.616 67.12 93.616 68.24C93.616 69.36 93.6747 70.4533 93.792 71.52C93.92 72.576 94.1013 73.6107 94.336 74.624L91.792 74.928ZM111.808 72.992V67.296V60.992H114.256V67.296V72.992H111.808ZM108.048 64.752V62.688H121.072V64.752H108.048ZM115.984 73.104C116.592 72.9653 117.109 72.7627 117.536 72.496C117.973 72.2187 118.304 71.888 118.528 71.504C118.752 71.1093 118.864 70.6773 118.864 70.208C118.864 69.6747 118.72 69.216 118.432 68.832C118.144 68.448 117.733 68.1547 117.2 67.952C116.677 67.7387 116.043 67.632 115.296 67.632C114.528 67.632 113.829 67.7227 113.2 67.904C112.581 68.0747 112.048 68.3253 111.6 68.656C111.152 68.9867 110.805 69.3813 110.56 69.84C110.315 70.288 110.192 70.7893 110.192 71.344C110.192 71.7387 110.261 72.0427 110.4 72.256C110.539 72.4587 110.741 72.56 111.008 72.56C111.264 72.56 111.573 72.4693 111.936 72.288C112.309 72.096 112.715 71.8293 113.152 71.488C113.589 71.1467 114.043 70.7467 114.512 70.288C114.992 69.8293 115.467 69.3227 115.936 68.768C116.405 68.2133 116.859 67.6267 117.296 67.008L119.088 68.224C118.544 69.0133 117.979 69.744 117.392 70.416C116.816 71.088 116.229 71.6907 115.632 72.224C115.035 72.7573 114.443 73.2107 113.856 73.584C113.28 73.9467 112.715 74.224 112.16 74.416C111.616 74.6187 111.093 74.72 110.592 74.72C109.728 74.72 109.045 74.4267 108.544 73.84C108.043 73.2427 107.792 72.4373 107.792 71.424C107.792 70.5813 107.963 69.808 108.304 69.104C108.656 68.3893 109.147 67.776 109.776 67.264C110.416 66.7413 111.168 66.3413 112.032 66.064C112.896 65.776 113.845 65.632 114.88 65.632C116.245 65.632 117.408 65.8133 118.368 66.176C119.328 66.528 120.059 67.0453 120.56 67.728C121.072 68.4107 121.328 69.2427 121.328 70.224C121.328 71.024 121.141 71.7653 120.768 72.448C120.395 73.1307 119.872 73.7067 119.2 74.176C118.539 74.6453 117.771 74.9653 116.896 75.136L115.984 73.104ZM130.88 75.168C129.259 75.168 127.995 74.896 127.088 74.352C126.192 73.808 125.744 73.0507 125.744 72.08C125.744 71.248 126.091 70.6027 126.784 70.144C127.488 69.6747 128.448 69.44 129.664 69.44C130.763 69.44 131.584 69.6427 132.128 70.048C132.672 70.4427 132.944 71.04 132.944 71.84C132.944 72.128 132.912 72.432 132.848 72.752C132.784 73.072 132.693 73.3813 132.576 73.68L130.384 73.456C130.501 73.1573 130.592 72.896 130.656 72.672C130.72 72.4373 130.752 72.2453 130.752 72.096C130.752 71.552 130.331 71.28 129.488 71.28C129.051 71.28 128.715 71.3493 128.48 71.488C128.245 71.616 128.128 71.808 128.128 72.064C128.128 72.4267 128.331 72.704 128.736 72.896C129.141 73.088 129.744 73.184 130.544 73.184C132.123 73.184 133.275 72.9653 134 72.528C134.736 72.0907 135.104 71.4133 135.104 70.496C135.104 69.6853 134.805 69.0987 134.208 68.736C133.621 68.3627 132.656 68.176 131.312 68.176C130.544 68.176 129.872 68.24 129.296 68.368C128.72 68.496 128.171 68.6933 127.648 68.96L125.664 70.032L124.64 68.048L132.96 63.792V64.128H125.6V61.952H136.896V64.128L128.688 68.416L127.36 67.248C127.723 67.1307 128.139 67.0187 128.608 66.912C129.077 66.8053 129.563 66.7093 130.064 66.624C130.565 66.5387 131.051 66.4747 131.52 66.432C131.989 66.3787 132.405 66.352 132.768 66.352C134.368 66.352 135.6 66.6987 136.464 67.392C137.328 68.0747 137.76 69.056 137.76 70.336C137.76 71.8827 137.163 73.0773 135.968 73.92C134.773 74.752 133.077 75.168 130.88 75.168ZM142.208 74.944L140.544 74.336L145.728 61.312L147.488 61.824L144.704 68.704L144.112 68.32C144.645 67.8827 145.179 67.5413 145.712 67.296C146.256 67.0507 146.784 66.928 147.296 66.928C147.691 66.928 148.032 67.0133 148.32 67.184C148.608 67.344 148.853 67.584 149.056 67.904C149.259 68.2133 149.429 68.592 149.568 69.04C149.717 69.488 149.851 70 149.968 70.576C150.064 71.024 150.16 71.4133 150.256 71.744C150.363 72.0747 150.496 72.3307 150.656 72.512C150.827 72.6933 151.045 72.784 151.312 72.784C151.781 72.784 152.203 72.48 152.576 71.872C152.949 71.2533 153.301 70.2773 153.632 68.944L155.312 69.504C155.035 70.688 154.709 71.6587 154.336 72.416C153.963 73.1627 153.52 73.7173 153.008 74.08C152.496 74.4533 151.904 74.64 151.232 74.64C150.773 74.64 150.379 74.56 150.048 74.4C149.728 74.24 149.451 74.0053 149.216 73.696C148.981 73.3867 148.779 73.0133 148.608 72.576C148.448 72.128 148.309 71.6267 148.192 71.072C148.085 70.6027 147.968 70.1973 147.84 69.856C147.723 69.5147 147.568 69.2533 147.376 69.072C147.195 68.8907 146.949 68.8 146.64 68.8C146.437 68.8 146.203 68.8427 145.936 68.928C145.669 69.0133 145.397 69.1573 145.12 69.36C144.853 69.552 144.592 69.8187 144.336 70.16C144.08 70.4907 143.851 70.9067 143.648 71.408L142.208 74.944ZM157.712 74.832C158.16 73.392 158.565 71.9307 158.928 70.448C159.301 68.9547 159.627 67.44 159.904 65.904C160.192 64.3573 160.437 62.8 160.64 61.232L162.544 61.312C162.363 62.848 162.128 64.4 161.84 65.968C161.563 67.536 161.237 69.0933 160.864 70.64C160.491 72.176 160.075 73.6853 159.616 75.168L157.712 74.832ZM167.632 74.848C166.661 74.848 165.819 74.7307 165.104 74.496C164.389 74.272 163.835 73.9573 163.44 73.552C163.045 73.136 162.848 72.64 162.848 72.064C162.848 71.6373 162.992 71.216 163.28 70.8C163.568 70.384 164.011 69.952 164.608 69.504L166.048 70.528C165.643 70.784 165.339 71.024 165.136 71.248C164.944 71.4613 164.848 71.6747 164.848 71.888C164.848 72.1333 164.96 72.352 165.184 72.544C165.419 72.7253 165.744 72.8693 166.16 72.976C166.587 73.0827 167.077 73.136 167.632 73.136C168.133 73.136 168.645 73.1093 169.168 73.056C169.691 73.0027 170.235 72.9227 170.8 72.816L171.008 74.528C170.421 74.6347 169.856 74.7147 169.312 74.768C168.768 74.8213 168.208 74.848 167.632 74.848ZM157.488 64.896V63.232H167.328V64.896H157.488ZM163.472 66.704C164.731 66.5867 165.963 66.496 167.168 66.432C168.384 66.368 169.6 66.336 170.816 66.336V68.016C169.621 68.016 168.421 68.048 167.216 68.112C166.021 68.1653 164.811 68.2613 163.584 68.4L163.472 66.704ZM168.752 64.736C168.475 64.16 168.203 63.6427 167.936 63.184C167.669 62.7147 167.371 62.2613 167.04 61.824L168.352 61.04C168.704 61.4987 169.013 61.9733 169.28 62.464C169.557 62.9547 169.829 63.488 170.096 64.064L168.752 64.736ZM171.056 63.984C170.8 63.3867 170.544 62.8587 170.288 62.4C170.032 61.9307 169.744 61.4773 169.424 61.04L170.736 60.32C171.077 60.7893 171.376 61.2693 171.632 61.76C171.899 62.2507 172.155 62.7893 172.4 63.376L171.056 63.984ZM181.136 74.896C179.941 74.896 179.013 74.6187 178.352 74.064C177.691 73.52 177.36 72.768 177.36 71.808C177.36 70.816 177.701 70.0533 178.384 69.52C179.067 68.976 180.027 68.704 181.264 68.704C181.787 68.704 182.304 68.784 182.816 68.944C183.328 69.104 183.861 69.3493 184.416 69.68C184.971 70.0107 185.563 70.4373 186.192 70.96C186.832 71.4827 187.52 72.1173 188.256 72.864L187.104 74.144C186.251 73.312 185.531 72.64 184.944 72.128C184.368 71.6053 183.872 71.2107 183.456 70.944C183.051 70.6667 182.677 70.48 182.336 70.384C182.005 70.288 181.648 70.24 181.264 70.24C180.539 70.24 180.005 70.3627 179.664 70.608C179.333 70.8533 179.168 71.232 179.168 71.744C179.168 72.2667 179.333 72.6613 179.664 72.928C179.995 73.184 180.485 73.312 181.136 73.312C181.851 73.312 182.384 73.1573 182.736 72.848C183.099 72.5387 183.28 72.096 183.28 71.52V63.248C184.219 63.248 185.088 63.264 185.888 63.296C186.699 63.3173 187.493 63.3547 188.272 63.408L188.16 65.088C187.467 65.0347 186.741 64.9973 185.984 64.976C185.237 64.944 184.437 64.928 183.584 64.928L185.136 63.728V71.328C185.136 72.5013 184.8 73.392 184.128 74C183.456 74.5973 182.459 74.896 181.136 74.896ZM173.856 72.352C174.325 71.0827 174.757 69.8347 175.152 68.608C175.547 67.3707 175.915 66.1227 176.256 64.864C176.597 63.5947 176.912 62.2933 177.2 60.96L179.008 61.136C178.72 62.5013 178.4 63.84 178.048 65.152C177.707 66.4533 177.333 67.744 176.928 69.024C176.533 70.304 176.096 71.5893 175.616 72.88L173.856 72.352ZM173.728 64.928V63.248H181.792V64.928H173.728ZM194.16 75.264C193.669 74.6133 193.141 74.0053 192.576 73.44C192.011 72.864 191.397 72.3307 190.736 71.84L192.048 70.528C192.709 71.04 193.339 71.6 193.936 72.208C194.533 72.8053 195.088 73.4507 195.6 74.144L194.16 75.264ZM214.416 74.864C212.421 74.864 210.907 74.5547 209.872 73.936C208.837 73.3067 208.32 72.3893 208.32 71.184C208.32 70.1707 208.699 69.248 209.456 68.416C210.213 67.5733 211.392 66.7947 212.992 66.08C214.603 65.3653 216.672 64.688 219.2 64.048L219.648 65.76C217.504 66.304 215.739 66.8587 214.352 67.424C212.976 67.9893 211.957 68.5707 211.296 69.168C210.645 69.7547 210.32 70.384 210.32 71.056C210.32 72.4427 211.723 73.136 214.528 73.136C214.987 73.136 215.467 73.1147 215.968 73.072C216.469 73.0293 217.029 72.9707 217.648 72.896C218.277 72.8107 218.992 72.704 219.792 72.576L220.016 74.304C219.003 74.4747 218.021 74.608 217.072 74.704C216.133 74.8107 215.248 74.864 214.416 74.864ZM211.376 67.712C211.067 66.6667 210.805 65.6427 210.592 64.64C210.379 63.6267 210.208 62.624 210.08 61.632L212.016 61.344C212.155 62.336 212.331 63.328 212.544 64.32C212.757 65.3013 213.013 66.2773 213.312 67.248L211.376 67.712ZM224.112 75.424L223.328 73.888C223.904 73.3867 224.411 72.8373 224.848 72.24C225.285 71.6427 225.653 70.9867 225.952 70.272C226.251 69.5573 226.48 68.7733 226.64 67.92C226.811 67.056 226.907 66.1013 226.928 65.056H223.376V63.456H228.512V64.192C228.512 65.568 228.421 66.816 228.24 67.936C228.059 69.0453 227.787 70.0533 227.424 70.96C227.061 71.856 226.603 72.672 226.048 73.408C225.504 74.1333 224.859 74.8053 224.112 75.424ZM228.208 73.888C227.717 73.1947 227.248 72.592 226.8 72.08C226.352 71.568 225.904 71.1147 225.456 70.72C225.019 70.3147 224.549 69.952 224.048 69.632L224.576 68.064C225.077 68.3733 225.573 68.736 226.064 69.152C226.565 69.568 227.067 70.0533 227.568 70.608C228.08 71.152 228.597 71.7707 229.12 72.464L228.208 73.888ZM224.688 71.056L223.44 69.728C223.717 68.9387 223.957 68.112 224.16 67.248C224.373 66.384 224.555 65.4347 224.704 64.4C224.864 63.3653 224.997 62.208 225.104 60.928L226.816 61.008C226.635 63.1413 226.363 65.0613 226 66.768C225.637 68.464 225.2 69.8933 224.688 71.056ZM228.912 75.472V71.28H237.888V75.472H235.984V74.848H230.816V73.488H235.984V72.704H230.816V75.472H228.912ZM231.072 70.384C230.976 70.0427 230.864 69.6853 230.736 69.312C230.608 68.928 230.475 68.5707 230.336 68.24L232.096 67.808C232.235 68.1387 232.368 68.48 232.496 68.832C232.624 69.1733 232.736 69.52 232.832 69.872L231.072 70.384ZM228.336 70.8V69.248H238.704V70.8H228.336ZM235.776 70.4L234.128 69.712C234.299 69.424 234.453 69.12 234.592 68.8C234.731 68.4693 234.853 68.1387 234.96 67.808L236.688 68.272C236.581 68.6347 236.448 69.0027 236.288 69.376C236.128 69.7493 235.957 70.0907 235.776 70.4ZM229.152 68.48V65.696H237.792V68.48H231.072V67.44H235.856V66.72H231.072V68.48H229.152ZM228.912 65.2V63.824H232.48V63.312H228.384V61.808H232.48V60.752H234.448V61.808H238.544V63.312H234.448V63.824H238.272V65.2H228.912ZM247.392 74.832C246.176 74.832 245.179 74.64 244.4 74.256C243.632 73.8827 243.061 73.3013 242.688 72.512C242.325 71.7227 242.144 70.7093 242.144 69.472V61.68H244.096V69.472C244.096 70.72 244.357 71.6267 244.88 72.192C245.403 72.7467 246.24 73.024 247.392 73.024C248.235 73.024 248.976 72.8693 249.616 72.56C250.267 72.2507 250.853 71.7493 251.376 71.056C251.909 70.352 252.421 69.4187 252.912 68.256L254.688 68.976C254.261 70.0427 253.803 70.9493 253.312 71.696C252.832 72.432 252.304 73.0347 251.728 73.504C251.163 73.9627 250.523 74.2987 249.808 74.512C249.093 74.7253 248.288 74.832 247.392 74.832ZM268.08 75.552C267.323 74.9867 266.629 74.4853 266 74.048C265.371 73.6213 264.779 73.2267 264.224 72.864C263.669 72.5013 263.125 72.16 262.592 71.84C262.059 71.5093 261.504 71.168 260.928 70.816C260.331 70.4533 259.851 70.1547 259.488 69.92C259.136 69.6747 258.859 69.4613 258.656 69.28C258.464 69.0987 258.331 68.9173 258.256 68.736C258.192 68.544 258.16 68.3253 258.16 68.08C258.16 67.824 258.197 67.6 258.272 67.408C258.357 67.2053 258.501 67.0133 258.704 66.832C258.907 66.64 259.195 66.4267 259.568 66.192C259.941 65.9573 260.421 65.6747 261.008 65.344C261.616 65.0027 262.283 64.6187 263.008 64.192C263.733 63.7653 264.491 63.3067 265.28 62.816C266.069 62.3253 266.853 61.8027 267.632 61.248L268.752 62.8C268.283 63.12 267.787 63.4453 267.264 63.776C266.741 64.096 266.224 64.4107 265.712 64.72C265.2 65.0187 264.709 65.3013 264.24 65.568C263.781 65.824 263.365 66.0587 262.992 66.272C262.619 66.4747 262.315 66.64 262.08 66.768C261.621 67.024 261.264 67.2267 261.008 67.376C260.763 67.5253 260.587 67.6533 260.48 67.76C260.384 67.856 260.336 67.9627 260.336 68.08C260.336 68.1973 260.368 68.2987 260.432 68.384C260.507 68.4693 260.656 68.5813 260.88 68.72C261.104 68.8587 261.445 69.0613 261.904 69.328C262.16 69.4667 262.485 69.6533 262.88 69.888C263.285 70.1227 263.744 70.3947 264.256 70.704C264.768 71.0027 265.301 71.3333 265.856 71.696C266.421 72.048 266.992 72.4213 267.568 72.816C268.155 73.2 268.72 73.5893 269.264 73.984L268.08 75.552ZM48.016 103.896C46.8213 103.896 45.8933 103.619 45.232 103.064C44.5707 102.52 44.24 101.768 44.24 100.808C44.24 99.816 44.5813 99.0533 45.264 98.52C45.9467 97.976 46.9067 97.704 48.144 97.704C48.6667 97.704 49.184 97.784 49.696 97.944C50.208 98.104 50.7413 98.3493 51.296 98.68C51.8507 99.0107 52.4427 99.4373 53.072 99.96C53.712 100.483 54.4 101.117 55.136 101.864L53.984 103.144C53.1307 102.312 52.4107 101.64 51.824 101.128C51.248 100.605 50.752 100.211 50.336 99.944C49.9307 99.6667 49.5573 99.48 49.216 99.384C48.8853 99.288 48.528 99.24 48.144 99.24C47.4187 99.24 46.8853 99.3627 46.544 99.608C46.2133 99.8533 46.048 100.232 46.048 100.744C46.048 101.267 46.2133 101.661 46.544 101.928C46.8747 102.184 47.3653 102.312 48.016 102.312C48.7307 102.312 49.264 102.157 49.616 101.848C49.9787 101.539 50.16 101.096 50.16 100.52V92.248C51.0987 92.248 51.968 92.264 52.768 92.296C53.5787 92.3173 54.3733 92.3547 55.152 92.408L55.04 94.088C54.3467 94.0347 53.6213 93.9973 52.864 93.976C52.1173 93.944 51.3173 93.928 50.464 93.928L52.016 92.728V100.328C52.016 101.501 51.68 102.392 51.008 103C50.336 103.597 49.3387 103.896 48.016 103.896ZM40.736 101.352C41.2053 100.083 41.6373 98.8347 42.032 97.608C42.4267 96.3707 42.7947 95.1227 43.136 93.864C43.4773 92.5947 43.792 91.2933 44.08 89.96L45.888 90.136C45.6 91.5013 45.28 92.84 44.928 94.152C44.5867 95.4533 44.2133 96.744 43.808 98.024C43.4133 99.304 42.976 100.589 42.496 101.88L40.736 101.352ZM40.608 93.928V92.248H48.672V93.928H40.608ZM61.44 101.528C63.0507 101.528 64.3573 101.421 65.36 101.208C66.3733 100.984 67.1147 100.637 67.584 100.168C68.0533 99.6987 68.288 99.096 68.288 98.36C68.288 97.5387 68.016 96.9253 67.472 96.52C66.9387 96.1147 66.1227 95.912 65.024 95.912C64.5867 95.912 64.1067 95.9493 63.584 96.024C63.0613 96.088 62.4587 96.1893 61.776 96.328C61.104 96.4667 60.32 96.6533 59.424 96.888L59.056 95.08C60.4107 94.76 61.584 94.5253 62.576 94.376C63.568 94.216 64.4213 94.136 65.136 94.136C66.768 94.136 68.0213 94.488 68.896 95.192C69.7707 95.896 70.208 96.904 70.208 98.216C70.208 99.88 69.4773 101.139 68.016 101.992C66.5653 102.845 64.4107 103.272 61.552 103.272L61.44 101.528ZM74.672 103.672C75.12 102.232 75.5253 100.771 75.888 99.288C76.2613 97.7947 76.5867 96.28 76.864 94.744C77.152 93.1973 77.3973 91.64 77.6 90.072L79.504 90.152C79.3227 91.688 79.088 93.24 78.8 94.808C78.5227 96.376 78.1973 97.9333 77.824 99.48C77.4507 101.016 77.0347 102.525 76.576 104.008L74.672 103.672ZM84.592 103.688C83.6213 103.688 82.7787 103.571 82.064 103.336C81.3493 103.112 80.7947 102.797 80.4 102.392C80.0053 101.976 79.808 101.48 79.808 100.904C79.808 100.477 79.952 100.056 80.24 99.64C80.528 99.224 80.9707 98.792 81.568 98.344L83.008 99.368C82.6027 99.624 82.2987 99.864 82.096 100.088C81.904 100.301 81.808 100.515 81.808 100.728C81.808 100.973 81.92 101.192 82.144 101.384C82.3787 101.565 82.704 101.709 83.12 101.816C83.5467 101.923 84.0373 101.976 84.592 101.976C85.0933 101.976 85.6053 101.949 86.128 101.896C86.6507 101.843 87.1947 101.763 87.76 101.656L87.968 103.368C87.3813 103.475 86.816 103.555 86.272 103.608C85.728 103.661 85.168 103.688 84.592 103.688ZM74.448 93.736V92.072H85.712V93.736H74.448ZM80.432 95.544C81.6907 95.4267 82.9227 95.336 84.128 95.272C85.344 95.208 86.56 95.176 87.776 95.176V96.856C86.5813 96.856 85.3813 96.888 84.176 96.952C82.9813 97.0053 81.7707 97.1013 80.544 97.24L80.432 95.544Z" fill="#282828"/>
<path opacity="0.6" d="M49.016 126.68C49.016 124.09 50.122 121.808 52.432 119.946C52.558 119.834 52.712 119.778 52.852 119.778C53.118 119.778 53.37 120.016 53.37 120.282C53.37 120.464 53.3 120.59 53.16 120.716C51.144 122.438 50.304 124.384 50.304 126.68C50.304 128.976 51.144 130.922 53.16 132.644C53.3 132.77 53.37 132.896 53.37 133.078C53.37 133.344 53.118 133.582 52.852 133.582C52.712 133.582 52.558 133.526 52.432 133.414C50.122 131.552 49.016 129.27 49.016 126.68ZM58.76 129.564H55.428C54.77 129.564 54.406 129.228 54.406 128.612C54.406 128.234 54.476 127.996 54.714 127.604L57.934 122.172C58.284 121.584 58.606 121.36 59.222 121.36C60.006 121.36 60.314 121.766 60.314 122.592V128.262H61.154C61.644 128.262 61.896 128.486 61.896 128.906C61.896 129.326 61.644 129.564 61.154 129.564H60.314V131.216C60.314 131.72 60.02 132 59.516 132C59.026 132 58.76 131.72 58.76 131.216V129.564ZM58.76 128.262V125.686C58.76 124.748 58.802 123.838 58.872 122.9H58.774C58.41 123.726 58.018 124.524 57.528 125.378L55.876 128.262H58.76ZM66.4152 121.318C68.5432 121.318 69.9572 122.83 69.9572 126.708C69.9572 130.586 68.5432 132.098 66.4152 132.098C64.2872 132.098 62.9012 130.586 62.9012 126.708C62.9012 122.83 64.2872 121.318 66.4152 121.318ZM66.4152 122.718C65.2532 122.718 64.5532 123.698 64.5532 126.708C64.5532 129.718 65.2532 130.698 66.4152 130.698C67.5912 130.698 68.3052 129.718 68.3052 126.708C68.3052 123.698 67.5912 122.718 66.4152 122.718ZM73.0903 132.7V126.092C72.8523 126.456 72.6003 126.806 72.3483 127.114C72.1663 127.338 71.9423 127.436 71.7323 127.436C71.3263 127.436 70.9483 127.1 70.9483 126.694C70.9483 126.526 71.0043 126.358 71.1443 126.176C72.2503 124.804 73.2723 122.69 73.8323 120.814C73.9443 120.45 74.2523 120.282 74.5743 120.282C74.9943 120.282 75.4143 120.548 75.4143 120.996C75.4143 121.066 75.4003 121.15 75.3723 121.234C75.0643 122.284 74.5603 123.46 73.9863 124.552C74.3223 124.594 74.6163 124.79 74.6163 125.154V132.7C74.6163 133.078 74.2383 133.274 73.8603 133.274C73.4683 133.274 73.0903 133.078 73.0903 132.7ZM79.2503 124.258L83.1003 123.922H83.1563C83.5343 123.922 83.7303 124.286 83.7303 124.65C83.7303 124.972 83.5763 125.28 83.2263 125.308L79.4323 125.644C79.6283 126.848 79.9223 127.954 80.3283 128.92C81.1123 130.782 81.7563 131.244 82.1763 131.244C82.3583 131.244 82.5263 131.062 82.6243 130.152C82.6663 129.718 82.9883 129.522 83.3243 129.522C83.7023 129.522 84.1083 129.788 84.1083 130.264V130.362C83.9123 132.308 83.1843 132.896 82.2463 132.896C81.0143 132.896 79.8243 131.72 78.8303 129.34C78.3963 128.29 78.0743 127.1 77.8643 125.77L75.8203 125.952H75.7643C75.3863 125.952 75.1903 125.588 75.1903 125.238C75.1903 124.916 75.3583 124.608 75.6943 124.58L77.6963 124.398C77.5843 123.306 77.5283 122.13 77.5283 120.898C77.5283 120.464 77.9203 120.254 78.3123 120.254C78.7043 120.254 79.0963 120.464 79.0963 120.898C79.0963 122.088 79.1383 123.208 79.2503 124.258ZM80.9023 121.192C81.2803 121.472 81.6303 121.766 81.9243 122.06C82.0923 122.242 82.1763 122.438 82.1763 122.606C82.1763 123.012 81.8123 123.362 81.4203 123.362C81.2523 123.362 81.0703 123.278 80.9163 123.11C80.6223 122.774 80.3143 122.48 79.9643 122.2C79.7963 122.06 79.7123 121.892 79.7123 121.724C79.7123 121.374 80.0483 121.024 80.4403 121.024C80.5943 121.024 80.7483 121.08 80.9023 121.192ZM85.3683 132.42L96.9043 120.156C97.0303 120.03 97.1703 119.932 97.2963 119.932C97.6603 119.932 97.9683 120.226 97.9683 120.506C97.9683 120.66 97.9123 120.8 97.7723 120.94L86.2363 133.204C86.1103 133.33 85.9703 133.428 85.8443 133.428C85.4803 133.428 85.1723 133.134 85.1723 132.854C85.1723 132.7 85.2283 132.56 85.3683 132.42ZM111.408 124.874H109.378C109.238 125.42 109.028 126.12 108.776 126.722C108.412 127.59 107.95 128.388 107.39 129.116C108.524 129.69 109.644 130.334 110.652 131.048C110.918 131.23 111.03 131.482 111.03 131.72C111.03 132.14 110.666 132.546 110.218 132.546C110.05 132.546 109.868 132.49 109.686 132.364C108.636 131.594 107.474 130.88 106.312 130.278C104.744 131.664 102.784 132.462 100.572 132.882C100.502 132.896 100.446 132.896 100.376 132.896C99.9143 132.896 99.6483 132.546 99.6483 132.182C99.6483 131.874 99.8443 131.552 100.278 131.468C102.07 131.118 103.61 130.544 104.856 129.564C104.184 129.284 103.526 129.004 102.84 128.766L102.784 128.864C102.588 129.2 102.294 129.34 102.014 129.34C101.608 129.34 101.216 129.06 101.216 128.654C101.216 128.542 101.244 128.416 101.328 128.276C101.972 127.156 102.546 126.036 103.022 124.874H99.7323C99.3683 124.874 99.1723 124.538 99.1723 124.202C99.1723 123.866 99.3683 123.53 99.7323 123.53H103.54C103.862 122.62 104.142 121.668 104.422 120.646C104.52 120.296 104.842 120.128 105.164 120.128C105.57 120.128 105.976 120.366 105.976 120.786C105.976 120.842 105.962 120.898 105.948 120.968C105.71 121.85 105.458 122.704 105.164 123.53H111.408C111.786 123.53 111.982 123.866 111.982 124.202C111.982 124.538 111.786 124.874 111.408 124.874ZM107.726 124.874H104.674C104.296 125.784 103.904 126.68 103.47 127.562C104.324 127.828 105.164 128.122 105.976 128.472C106.83 127.436 107.404 126.176 107.726 124.874ZM121.18 131.356V128.584H119.052C118.702 128.584 118.534 128.234 118.534 127.898C118.534 127.548 118.702 127.212 119.052 127.212H121.18V124.874H119.57C119.402 125.252 119.22 125.616 119.038 125.952C118.856 126.288 118.562 126.428 118.296 126.428C117.932 126.428 117.596 126.176 117.596 125.784C117.596 125.644 117.638 125.49 117.736 125.322C118.282 124.384 118.716 123.236 118.996 121.976C119.08 121.598 119.388 121.416 119.682 121.416C120.046 121.416 120.41 121.668 120.41 122.088C120.41 122.144 120.41 122.186 120.396 122.242C120.312 122.676 120.2 123.11 120.06 123.53H121.18V120.87C121.18 120.45 121.558 120.24 121.936 120.24C122.314 120.24 122.692 120.45 122.692 120.87V123.53H125.254C125.618 123.53 125.8 123.866 125.8 124.202C125.8 124.538 125.618 124.874 125.254 124.874H122.692V127.212H124.75C125.1 127.212 125.282 127.548 125.282 127.898C125.282 128.234 125.1 128.584 124.75 128.584H122.692V131.356H125.548C125.898 131.356 126.08 131.692 126.08 132.042C126.08 132.378 125.898 132.728 125.548 132.728H117.834C117.498 132.728 117.316 132.378 117.316 132.042C117.316 131.692 117.498 131.356 117.834 131.356H121.18ZM116.294 120.772V132.616C116.294 133.036 115.916 133.246 115.538 133.246C115.146 133.246 114.768 133.036 114.768 132.616V120.772C114.768 120.352 115.146 120.156 115.538 120.156C115.916 120.156 116.294 120.352 116.294 120.772ZM113.452 123.558C113.494 123.236 113.746 123.082 113.998 123.082C114.292 123.082 114.572 123.278 114.572 123.628V123.698C114.516 124.328 114.362 125.168 114.18 125.77C114.082 126.078 113.844 126.218 113.606 126.218C113.312 126.218 113.032 126.008 113.032 125.686C113.032 125.63 113.032 125.56 113.06 125.49C113.242 124.902 113.382 124.104 113.452 123.558ZM117.512 123.012C117.652 123.432 117.778 123.936 117.834 124.314V124.412C117.834 124.79 117.526 125.014 117.246 125.014C117.008 125.014 116.784 124.874 116.728 124.552C116.658 124.132 116.56 123.6 116.462 123.264C116.448 123.208 116.434 123.138 116.434 123.082C116.434 122.788 116.7 122.606 116.966 122.606C117.19 122.606 117.414 122.732 117.512 123.012ZM131.554 126.68C131.554 129.27 130.448 131.552 128.138 133.414C128.012 133.526 127.858 133.582 127.718 133.582C127.452 133.582 127.2 133.344 127.2 133.078C127.2 132.896 127.27 132.77 127.41 132.644C129.426 130.922 130.266 128.976 130.266 126.68C130.266 124.384 129.426 122.438 127.41 120.716C127.27 120.59 127.2 120.464 127.2 120.282C127.2 120.016 127.452 119.778 127.718 119.778C127.858 119.778 128.012 119.834 128.138 119.946C130.448 121.808 131.554 124.09 131.554 126.68Z" fill="#282828"/>
<path d="M61.0002 203L79.0001 161L110.177 161L61.0002 203Z" fill="#69BD83"/>
</svg>
