<svg width="330" height="232" viewBox="0 0 330 232" fill="none" xmlns="http://www.w3.org/2000/svg">
<rect width="330" height="190" rx="80" fill="#FFF464"/>
<path d="M42.672 46.552V39.048H40.592V37.048H42.736V31.928H44.864V37.048H46.72V39.048H44.912V46.552H42.672ZM41.136 45.112L40.208 42.616C40.848 41.8267 41.36 41.0213 41.744 40.2C42.1387 39.3787 42.432 38.5093 42.624 37.592L43.488 38.2C43.4347 39.1173 43.296 40.0133 43.072 40.888C42.8587 41.752 42.5813 42.5467 42.24 43.272C41.9093 43.9973 41.5413 44.6107 41.136 45.112ZM45.744 43.464C45.4027 42.6533 45.056 41.848 44.704 41.048C44.3627 40.2373 43.9947 39.3893 43.6 38.504L44.928 37.784C45.312 38.52 45.6853 39.2453 46.048 39.96C46.4107 40.664 46.7787 41.3947 47.152 42.152L45.744 43.464ZM41.312 36.808C41.1627 36.2 41.0027 35.576 40.832 34.936C40.6613 34.296 40.496 33.7147 40.336 33.192L41.968 32.6C42.1387 33.1333 42.2987 33.7147 42.448 34.344C42.608 34.9627 42.752 35.592 42.88 36.232L41.312 36.808ZM46.688 44.52L46.48 42.376L55.632 40.664L55.84 42.808L46.688 44.52ZM49.744 41.24C49.2747 40.728 48.7733 40.1947 48.24 39.64C47.7067 39.0853 47.1413 38.5307 46.544 37.976L48.208 36.44C48.8053 36.984 49.3707 37.528 49.904 38.072C50.448 38.6053 50.9493 39.1333 51.408 39.656L49.744 41.24ZM46.224 36.824L44.592 36.168C44.8053 35.6027 44.9973 34.9947 45.168 34.344C45.3387 33.6933 45.472 33.0853 45.568 32.52L47.328 32.904C47.2 33.5227 47.0347 34.1787 46.832 34.872C46.64 35.5547 46.4373 36.2053 46.224 36.824ZM51.936 46.552V31.928H54.416V46.552H51.936ZM50.384 36.984C49.9787 36.5253 49.5413 36.056 49.072 35.576C48.6027 35.096 48.112 34.6107 47.6 34.12L49.264 32.6C49.776 33.0693 50.2667 33.5387 50.736 34.008C51.2053 34.4773 51.6427 34.936 52.048 35.384L50.384 36.984ZM61.248 46.168V44.152H65.648V43.032H62.112V41.16H65.648V36.952H64.32V35.432H65.648V34.088H68.144V35.432H69.488V34.088H64.32V40.088H62.176V32.152H71.68V40.088H64.32V38.328H69.488V36.952H68.144V41.16H71.872V43.032H68.144V44.152H72.048V46.168H61.248ZM57.36 45.208L57.136 43.064C57.616 42.9787 58.1227 42.872 58.656 42.744C59.2 42.616 59.7387 42.4773 60.272 42.328C60.816 42.1787 61.3173 42.0293 61.776 41.88L61.792 43.96C61.3547 44.12 60.8747 44.28 60.352 44.44C59.8293 44.6 59.3067 44.7493 58.784 44.888C58.2613 45.016 57.7867 45.1227 57.36 45.208ZM58.336 43.24V39.368H57.376V37.224H58.336V34.888H57.216V32.68H61.792V34.888H60.704V37.224H61.696V39.368H60.704V43.24H58.336ZM83.184 45.88C82.1707 45.88 81.328 45.816 80.656 45.688C79.9947 45.5707 79.472 45.3573 79.088 45.048C78.7147 44.7493 78.448 44.3387 78.288 43.816C78.128 43.2933 78.048 42.632 78.048 41.832C78.048 41.5867 78.0533 41.2133 78.064 40.712C78.0747 40.2 78.0907 39.6027 78.112 38.92C78.1333 38.2373 78.1547 37.5067 78.176 36.728C78.208 35.9493 78.24 35.16 78.272 34.36C78.304 33.56 78.336 32.7973 78.368 32.072L80.96 32.12C80.928 32.7387 80.896 33.4107 80.864 34.136C80.832 34.8507 80.8 35.5707 80.768 36.296C80.7467 37.0107 80.7253 37.6987 80.704 38.36C80.6827 39.0213 80.6667 39.6133 80.656 40.136C80.6453 40.6587 80.64 41.0693 80.64 41.368C80.64 41.8587 80.6667 42.248 80.72 42.536C80.784 42.824 80.9013 43.0427 81.072 43.192C81.2427 43.3413 81.4987 43.4427 81.84 43.496C82.1813 43.5387 82.6293 43.56 83.184 43.56C83.888 43.56 84.4373 43.5227 84.832 43.448C85.2373 43.3733 85.5253 43.2453 85.696 43.064C85.8667 42.8827 85.952 42.632 85.952 42.312C85.952 42.1413 85.9253 41.9173 85.872 41.64C85.8187 41.352 85.7653 41.1227 85.712 40.952L88.24 40.408C88.3467 40.8667 88.4213 41.2453 88.464 41.544C88.5067 41.832 88.528 42.1147 88.528 42.392C88.528 43.1813 88.336 43.8373 87.952 44.36C87.568 44.872 86.9813 45.2507 86.192 45.496C85.4027 45.752 84.4 45.88 83.184 45.88ZM74.16 40.104V37.912H87.008V40.104H74.16ZM74.48 35.992V33.8H86.688V35.992H74.48ZM95.088 46.104V43.96H99.024V37.848H94.864V35.64H99.024V32.024H101.648V35.64H105.296V37.848H101.648V43.96H104.944V46.104H95.088ZM91.728 46.552V35.608H94.16V46.552H91.728ZM90.592 41.496L90.048 38.392C90.464 37.8267 90.8267 37.2347 91.136 36.616C91.456 35.9867 91.744 35.288 92 34.52C92.256 33.7413 92.4853 32.856 92.688 31.864L95.024 32.28C94.8427 33.432 94.5867 34.4987 94.256 35.48C93.9253 36.4613 93.5307 37.336 93.072 38.104L92.752 37.768C92.6667 38.056 92.5387 38.3707 92.368 38.712C92.1973 39.0533 92.0107 39.4053 91.808 39.768C91.6053 40.12 91.3973 40.4453 91.184 40.744C90.9707 41.0427 90.7733 41.2933 90.592 41.496ZM113.072 46.568C112.848 46.568 112.56 46.5627 112.208 46.552C111.856 46.5413 111.328 46.52 110.624 46.488L110.56 44.648C111.072 44.6693 111.509 44.6907 111.872 44.712C112.245 44.7227 112.533 44.728 112.736 44.728C112.885 44.728 112.992 44.7227 113.056 44.712C113.12 44.7013 113.157 44.6747 113.168 44.632C113.179 44.5787 113.184 44.4933 113.184 44.376V34.392H107.28V32.616H113.184V31.688H115.936V32.616H121.84V34.392H115.936V43.96C115.936 44.5573 115.909 45.0267 115.856 45.368C115.803 45.72 115.68 45.9813 115.488 46.152C115.307 46.3333 115.024 46.4453 114.64 46.488C114.256 46.5413 113.733 46.568 113.072 46.568ZM118.64 44.792V44.152H107.648V42.728H118.64V42.184H107.12V40.568H118.64V40.04H107.648V38.6H121.12V40.568H122V42.184H121.12V44.792H118.64ZM108.176 38.12V34.872H120.944V38.12H110.656V36.888H118.464V36.232H110.656V38.12H108.176ZM133.904 42.648C133.669 42.648 133.424 42.6427 133.168 42.632C132.912 42.6107 132.656 42.584 132.4 42.552V40.296C132.603 40.3067 132.8 40.3173 132.992 40.328C133.195 40.3387 133.376 40.344 133.536 40.344C134.475 40.344 135.152 40.1893 135.568 39.88C135.984 39.56 136.192 39.0427 136.192 38.328C136.192 37.1973 135.696 36.632 134.704 36.632C134.533 36.632 134.331 36.6533 134.096 36.696C133.872 36.7387 133.552 36.8187 133.136 36.936C132.731 37.0427 132.181 37.208 131.488 37.432L124.112 39.752L123.36 37.432L130.736 35.112C131.44 34.888 132.027 34.712 132.496 34.584C132.976 34.456 133.397 34.36 133.76 34.296C134.123 34.232 134.48 34.2 134.832 34.2C136.112 34.2 137.093 34.5467 137.776 35.24C138.469 35.9227 138.816 36.9093 138.816 38.2C138.816 39.6293 138.389 40.728 137.536 41.496C136.693 42.264 135.483 42.648 133.904 42.648ZM128.848 46.344C128.485 44.8507 128.101 43.3627 127.696 41.88C127.301 40.3973 126.891 38.936 126.464 37.496C126.048 36.0453 125.616 34.6373 125.168 33.272L127.632 32.584C128.08 33.992 128.517 35.4267 128.944 36.888C129.371 38.3387 129.787 39.8107 130.192 41.304C130.608 42.7867 131.003 44.2853 131.376 45.8L128.848 46.344ZM131.872 39.656C131.637 38.8133 131.344 37.8107 130.992 36.648C130.64 35.4853 130.229 34.1733 129.76 32.712L132.208 32.088C132.443 32.7813 132.672 33.5227 132.896 34.312C133.131 35.1013 133.36 35.9013 133.584 36.712C133.819 37.512 134.027 38.28 134.208 39.016L131.872 39.656ZM145.504 43.816L143.68 42.344C143.872 41.9813 144.032 41.608 144.16 41.224C144.288 40.8293 144.389 40.3653 144.464 39.832C144.549 39.2987 144.608 38.6373 144.64 37.848C144.672 37.0587 144.688 36.0773 144.688 34.904H143.856V32.888H145.456V31.752H147.824V32.888H149.712V34.904H146.784C146.784 36.024 146.773 36.9893 146.752 37.8C146.731 38.6107 146.688 39.3147 146.624 39.912C146.571 40.4987 146.496 41.016 146.4 41.464C146.304 41.9013 146.181 42.3067 146.032 42.68C145.883 43.0533 145.707 43.432 145.504 43.816ZM141.248 46.648L140.08 44.68C140.677 44.3067 141.232 43.9227 141.744 43.528C142.267 43.1333 142.773 42.7013 143.264 42.232L144.64 43.848C144.16 44.36 143.648 44.8347 143.104 45.272C142.56 45.72 141.941 46.1787 141.248 46.648ZM141.648 43.72V39.896H140.368V37.816H144.016V43.72H141.648ZM150.864 46.392C149.573 46.392 148.464 46.36 147.536 46.296C146.619 46.232 145.845 46.12 145.216 45.96C144.597 45.8 144.085 45.5867 143.68 45.32C143.285 45.064 142.965 44.744 142.72 44.36C142.485 43.9653 142.293 43.5067 142.144 42.984H144.016C144.144 43.2187 144.288 43.416 144.448 43.576C144.619 43.7253 144.843 43.8533 145.12 43.96C145.408 44.0667 145.781 44.152 146.24 44.216C146.709 44.2693 147.301 44.312 148.016 44.344C148.741 44.3653 149.627 44.376 150.672 44.376H155.344L155.216 46.392H150.864ZM148.128 43.928C147.979 43.928 147.755 43.912 147.456 43.88C147.157 43.848 146.816 43.8053 146.432 43.752L146.304 41.848C146.475 41.8693 146.624 41.8907 146.752 41.912C146.891 41.9227 146.997 41.928 147.072 41.928C147.168 41.928 147.243 41.9013 147.296 41.848C147.349 41.784 147.387 41.624 147.408 41.368C147.429 41.112 147.445 40.7067 147.456 40.152C147.467 39.5973 147.472 38.8293 147.472 37.848H145.76V35.816H149.632C149.632 37.1387 149.621 38.2587 149.6 39.176C149.589 40.0933 149.568 40.8507 149.536 41.448C149.504 42.0347 149.456 42.4987 149.392 42.84C149.328 43.1813 149.237 43.432 149.12 43.592C149.013 43.7413 148.88 43.8373 148.72 43.88C148.56 43.912 148.363 43.928 148.128 43.928ZM143.168 36.712C142.709 36.2 142.24 35.6933 141.76 35.192C141.28 34.68 140.805 34.1893 140.336 33.72L142 32.216C142.459 32.6853 142.923 33.176 143.392 33.688C143.872 34.1893 144.331 34.696 144.768 35.208L143.168 36.712ZM152.176 43.832C151.973 43.832 151.712 43.8267 151.392 43.816C151.072 43.8053 150.677 43.784 150.208 43.752L150.08 41.848C150.347 41.8693 150.592 41.8853 150.816 41.896C151.051 41.9067 151.227 41.912 151.344 41.912C151.461 41.912 151.541 41.9067 151.584 41.896C151.637 41.8747 151.669 41.8213 151.68 41.736C151.701 41.64 151.712 41.4853 151.712 41.272V40.696H149.968V38.712H151.712V37.848H154.032V38.712H155.216V40.696H154.032V41.352C154.032 41.9493 154.016 42.4187 153.984 42.76C153.952 43.0907 153.877 43.336 153.76 43.496C153.653 43.6453 153.472 43.7413 153.216 43.784C152.96 43.816 152.613 43.832 152.176 43.832ZM152.96 39.576L151.776 38.248C152.16 37.928 152.523 37.592 152.864 37.24C153.205 36.8773 153.536 36.4773 153.856 36.04L155.04 37.272C154.72 37.72 154.389 38.1307 154.048 38.504C153.717 38.8773 153.355 39.2347 152.96 39.576ZM150.192 37.272V35.368H155.04V37.272H150.192ZM150.72 36.136L148.8 35.032C149.227 34.552 149.621 34.0133 149.984 33.416C150.357 32.808 150.677 32.184 150.944 31.544L153.152 31.976C152.853 32.7547 152.496 33.5013 152.08 34.216C151.664 34.92 151.211 35.56 150.72 36.136ZM151.264 34.696V32.664H155.12V34.696H151.264ZM163.232 46.232C162.101 46.232 161.131 46.0293 160.32 45.624C159.52 45.2187 158.901 44.6427 158.464 43.896C158.037 43.1387 157.824 42.2373 157.824 41.192C157.824 40.4667 157.941 39.7573 158.176 39.064C158.421 38.3707 158.779 37.704 159.248 37.064C159.717 36.424 160.288 35.8213 160.96 35.256L161.376 35.64H157.152V33.448H163.472V35.768C162.853 36.1947 162.315 36.7013 161.856 37.288C161.397 37.864 161.04 38.488 160.784 39.16C160.539 39.8213 160.416 40.488 160.416 41.16C160.416 42.088 160.656 42.8027 161.136 43.304C161.627 43.7947 162.325 44.04 163.232 44.04C164.224 44.04 164.992 43.7467 165.536 43.16C166.091 42.5627 166.368 41.7147 166.368 40.616C166.368 40.136 166.315 39.608 166.208 39.032C166.112 38.4453 165.968 37.8267 165.776 37.176C165.584 36.5147 165.349 35.8267 165.072 35.112L166.848 33.624C167.339 34.1147 167.867 34.6213 168.432 35.144C169.008 35.656 169.595 36.1573 170.192 36.648C170.789 37.128 171.371 37.576 171.936 37.992L170.64 39.992C170.373 39.7893 170.091 39.5653 169.792 39.32C169.504 39.064 169.173 38.7653 168.8 38.424C168.427 38.0827 167.979 37.6667 167.456 37.176L167.648 36.792C167.936 37.3787 168.171 37.9333 168.352 38.456C168.533 38.968 168.667 39.4533 168.752 39.912C168.837 40.3707 168.88 40.8187 168.88 41.256C168.88 42.28 168.651 43.1653 168.192 43.912C167.733 44.648 167.077 45.2187 166.224 45.624C165.381 46.0293 164.384 46.232 163.232 46.232ZM168.208 35.416C168.112 34.7973 167.995 34.2267 167.856 33.704C167.717 33.1707 167.536 32.6267 167.312 32.072L169.088 31.656C169.28 32.2 169.445 32.744 169.584 33.288C169.733 33.832 169.861 34.4187 169.968 35.048L168.208 35.416ZM170.688 35.208C170.603 34.5787 170.491 34.0027 170.352 33.48C170.224 32.9573 170.064 32.4133 169.872 31.848L171.584 31.48C171.787 32.024 171.952 32.5733 172.08 33.128C172.208 33.672 172.315 34.2587 172.4 34.888L170.688 35.208ZM181.12 46.024C179.083 46.024 177.536 45.6933 176.48 45.032C175.424 44.3707 174.896 43.4053 174.896 42.136C174.896 41.0693 175.28 40.104 176.048 39.24C176.827 38.3653 178.027 37.5707 179.648 36.856C181.28 36.1307 183.376 35.4533 185.936 34.824L186.528 37.144C184.491 37.6453 182.811 38.1573 181.488 38.68C180.176 39.192 179.2 39.72 178.56 40.264C177.92 40.7973 177.6 41.3573 177.6 41.944C177.6 43.1067 178.827 43.688 181.28 43.688C181.707 43.688 182.144 43.672 182.592 43.64C183.051 43.608 183.589 43.5493 184.208 43.464C184.837 43.368 185.6 43.2507 186.496 43.112L186.816 45.432C185.739 45.624 184.731 45.768 183.792 45.864C182.853 45.9707 181.963 46.024 181.12 46.024ZM177.76 38.888C177.461 37.832 177.2 36.7867 176.976 35.752C176.763 34.7173 176.597 33.72 176.48 32.76L179.136 32.36C179.253 33.32 179.419 34.3067 179.632 35.32C179.856 36.3227 180.117 37.304 180.416 38.264L177.76 38.888ZM190.832 46.424V32.152H204.688V43.496C204.688 44.168 204.661 44.696 204.608 45.08C204.555 45.4747 204.443 45.7627 204.272 45.944C204.112 46.136 203.856 46.2587 203.504 46.312C203.163 46.3653 202.699 46.392 202.112 46.392C201.813 46.392 201.435 46.3867 200.976 46.376C200.517 46.3653 199.963 46.3493 199.312 46.328L199.168 44.232C199.797 44.2533 200.309 44.2747 200.704 44.296C201.099 44.3067 201.381 44.312 201.552 44.312C201.755 44.312 201.899 44.3013 201.984 44.28C202.08 44.248 202.139 44.1893 202.16 44.104C202.181 44.008 202.192 43.8587 202.192 43.656V34.232H193.328V46.424H190.832ZM194.448 45.304V38.392H201.072V44.024H196.688V42.264H198.832V40.152H196.688V45.304H194.448ZM193.968 37.208V35.272H201.552V37.208H193.968ZM213.936 45.912C212.645 45.912 211.595 45.7147 210.784 45.32C209.973 44.936 209.376 44.3333 208.992 43.512C208.619 42.68 208.432 41.6133 208.432 40.312V32.68H211.088V40.312C211.088 41.432 211.307 42.2373 211.744 42.728C212.181 43.208 212.912 43.448 213.936 43.448C214.704 43.448 215.381 43.304 215.968 43.016C216.555 42.728 217.093 42.2533 217.584 41.592C218.085 40.9307 218.581 40.0347 219.072 38.904L221.408 39.912C220.96 41.0213 220.491 41.96 220 42.728C219.52 43.4853 218.987 44.0987 218.4 44.568C217.813 45.0373 217.152 45.3787 216.416 45.592C215.691 45.8053 214.864 45.912 213.936 45.912ZM216.448 36.84C216.192 36.2747 215.92 35.7467 215.632 35.256C215.344 34.7547 215.013 34.2427 214.64 33.72L216.288 32.824C216.661 33.3467 216.992 33.864 217.28 34.376C217.579 34.888 217.861 35.4267 218.128 35.992L216.448 36.84ZM219.056 35.96C218.811 35.3947 218.549 34.8613 218.272 34.36C217.995 33.848 217.68 33.3253 217.328 32.792L218.976 31.96C219.328 32.4933 219.643 33.0213 219.92 33.544C220.208 34.056 220.475 34.6053 220.72 35.192L219.056 35.96ZM233.552 45.88C232.208 45.88 231.04 45.6507 230.048 45.192C229.056 44.7333 228.288 44.088 227.744 43.256C227.2 42.424 226.928 41.4427 226.928 40.312C226.928 39.5227 227.056 38.7867 227.312 38.104C227.568 37.4213 227.936 36.8133 228.416 36.28C228.907 35.7467 229.488 35.32 230.16 35L230.416 35.512L223.456 35.672V33.352L237.104 33.032V35.352L235.056 35.4C234.309 35.4107 233.611 35.528 232.96 35.752C232.309 35.976 231.739 36.2907 231.248 36.696C230.757 37.1013 230.379 37.5867 230.112 38.152C229.845 38.7067 229.712 39.336 229.712 40.04C229.712 40.7653 229.861 41.3893 230.16 41.912C230.459 42.424 230.896 42.8187 231.472 43.096C232.059 43.3627 232.757 43.496 233.568 43.496C233.76 43.496 233.973 43.4907 234.208 43.48C234.443 43.4587 234.683 43.4373 234.928 43.416C235.173 43.384 235.403 43.3467 235.616 43.304L235.904 45.688C235.648 45.72 235.381 45.752 235.104 45.784C234.827 45.816 234.555 45.8373 234.288 45.848C234.021 45.8693 233.776 45.88 233.552 45.88ZM234.688 41.048C234.432 40.4933 234.16 39.9653 233.872 39.464C233.584 38.9627 233.253 38.4507 232.88 37.928L234.528 37.032C234.901 37.5547 235.232 38.072 235.52 38.584C235.819 39.096 236.101 39.64 236.368 40.216L234.688 41.048ZM237.296 40.168C237.051 39.6027 236.789 39.0693 236.512 38.568C236.235 38.056 235.92 37.5387 235.568 37.016L237.216 36.168C237.568 36.712 237.883 37.24 238.16 37.752C238.448 38.264 238.715 38.8133 238.96 39.4L237.296 40.168ZM249.2 46.472V42.504H245.936V40.664H249.2V39.72H251.616V40.664H255.296V42.504H251.616V46.472H249.2ZM241.296 45.8L239.888 45.56C239.995 44.8347 240.091 44.104 240.176 43.368C240.261 42.632 240.325 41.8907 240.368 41.144L241.76 41.24C241.717 42.008 241.653 42.776 241.568 43.544C241.493 44.3013 241.403 45.0533 241.296 45.8ZM242.016 46.552V39.864H244.16V46.552H242.016ZM244.608 44.792C244.597 44.4507 244.576 44.0773 244.544 43.672C244.523 43.256 244.496 42.8347 244.464 42.408C244.443 41.9707 244.411 41.5547 244.368 41.16L245.648 41C245.701 41.384 245.744 41.8 245.776 42.248C245.819 42.6853 245.856 43.1173 245.888 43.544C245.92 43.96 245.941 44.3387 245.952 44.68L244.608 44.792ZM240.128 40.6L240.048 38.584L245.408 38.264V40.216L240.128 40.6ZM246 46.376L244.96 44.44C245.675 44.1413 246.331 43.816 246.928 43.464C247.536 43.1013 248.08 42.7227 248.56 42.328C249.051 41.9333 249.483 41.5227 249.856 41.096L251.376 41.48C250.864 42.1947 250.309 42.8613 249.712 43.48C249.125 44.0987 248.517 44.6533 247.888 45.144C247.259 45.6347 246.629 46.0453 246 46.376ZM242.16 38.552C241.947 38.2533 241.707 37.928 241.44 37.576C241.173 37.224 240.907 36.872 240.64 36.52C240.373 36.168 240.123 35.848 239.888 35.56L240.752 33.448C241.136 33.9173 241.525 34.424 241.92 34.968C242.315 35.5013 242.667 35.9867 242.976 36.424L242.16 38.552ZM242.544 39.832L241.04 38.92C241.637 38.024 242.203 37.1227 242.736 36.216C243.28 35.3093 243.797 34.376 244.288 33.416L245.984 34.12C245.461 35.1227 244.917 36.0933 244.352 37.032C243.787 37.96 243.184 38.8933 242.544 39.832ZM245.12 40.824C245.035 40.4187 244.933 39.9813 244.816 39.512C244.709 39.032 244.597 38.5627 244.48 38.104C244.373 37.6347 244.267 37.2187 244.16 36.856L245.536 36.472C245.643 36.856 245.755 37.2827 245.872 37.752C245.989 38.2213 246.101 38.696 246.208 39.176C246.325 39.6453 246.421 40.0987 246.496 40.536L245.12 40.824ZM242.288 36.072L240.848 35.096C241.125 34.552 241.376 33.9973 241.6 33.432C241.835 32.8667 242.059 32.296 242.272 31.72L244.048 32.296C243.792 32.936 243.515 33.5707 243.216 34.2C242.928 34.8293 242.619 35.4533 242.288 36.072ZM254.544 46.376C253.733 45.9067 252.891 45.2347 252.016 44.36C251.141 43.4747 250.272 42.408 249.408 41.16L250.752 40.84C251.125 41.2773 251.552 41.7093 252.032 42.136C252.512 42.5627 253.045 42.968 253.632 43.352C254.229 43.736 254.869 44.0987 255.552 44.44L254.544 46.376ZM246.048 40.152V36.312H250.304V40.152H247.728V38.648H248.704V37.864H247.728V40.152H246.048ZM250.704 40.152V36.312H255.04V40.152H252.24V38.648H253.248V37.864H252.24V40.152H250.704ZM246.496 35.928V32.056H254.448V35.928H248.688V34.424H252.128V33.8H248.688V35.928H246.496ZM259.648 43.56C261.621 43.56 263.205 43.4 264.4 43.08C265.605 42.76 266.48 42.2427 267.024 41.528C267.568 40.8027 267.84 39.8587 267.84 38.696C267.84 37.576 267.605 36.7547 267.136 36.232C266.667 35.6987 265.936 35.432 264.944 35.432C264.411 35.432 263.904 35.5173 263.424 35.688C262.944 35.848 262.517 36.0827 262.144 36.392C261.771 36.7013 261.477 37.0693 261.264 37.496C261.051 37.9227 260.944 38.4027 260.944 38.936V41.112H258.432V32.664H260.944V35.752H259.984C260.443 35.1227 260.933 34.6053 261.456 34.2C261.979 33.784 262.549 33.48 263.168 33.288C263.787 33.0853 264.469 32.984 265.216 32.984C266.933 32.984 268.24 33.4747 269.136 34.456C270.043 35.4267 270.496 36.84 270.496 38.696C270.496 40.3707 270.117 41.7413 269.36 42.808C268.603 43.8747 267.435 44.664 265.856 45.176C264.277 45.688 262.251 45.944 259.776 45.944L259.648 43.56ZM278.864 43.512L277.024 41.768C277.269 41.3947 277.472 41.0267 277.632 40.664C277.792 40.3013 277.915 39.9013 278 39.464C278.096 39.016 278.16 38.488 278.192 37.88C278.235 37.272 278.256 36.5307 278.256 35.656V32.312H287.824V34.264H280.624V37.192C280.624 38.12 280.56 38.9573 280.432 39.704C280.315 40.4507 280.128 41.1333 279.872 41.752C279.616 42.36 279.28 42.9467 278.864 43.512ZM274.528 46.648L273.376 44.68C273.973 44.3067 274.528 43.9227 275.04 43.528C275.563 43.1333 276.064 42.7013 276.544 42.232L277.936 43.848C277.456 44.36 276.939 44.8347 276.384 45.272C275.84 45.72 275.221 46.1787 274.528 46.648ZM275.152 43.592V39.896H273.648V37.816H277.568V43.592H275.152ZM284.272 46.392C282.971 46.392 281.856 46.36 280.928 46.296C280.011 46.232 279.237 46.12 278.608 45.96C277.989 45.8 277.477 45.5867 277.072 45.32C276.677 45.064 276.363 44.744 276.128 44.36C275.893 43.9653 275.701 43.5067 275.552 42.984L277.568 42.936C277.707 43.16 277.856 43.352 278.016 43.512C278.187 43.672 278.411 43.8053 278.688 43.912C278.976 44.0187 279.349 44.104 279.808 44.168C280.277 44.2213 280.869 44.2587 281.584 44.28C282.299 44.3013 283.184 44.312 284.24 44.312H288.304L288.176 46.392H284.272ZM276.56 36.712C276.112 36.2 275.648 35.6933 275.168 35.192C274.688 34.68 274.213 34.1893 273.744 33.72L275.408 32.216C275.867 32.6853 276.331 33.176 276.8 33.688C277.269 34.1893 277.723 34.696 278.16 35.208L276.56 36.712ZM280.656 44.232L279.424 42.296C280.928 41.7627 282.16 41.0213 283.12 40.072C284.08 39.112 284.741 37.96 285.104 36.616L287.312 37.272C287.013 38.1787 286.667 38.984 286.272 39.688C285.888 40.3813 285.435 41 284.912 41.544C284.389 42.0773 283.776 42.5627 283.072 43C282.379 43.4373 281.573 43.848 280.656 44.232ZM287.12 44.232C285.488 43.688 284.101 42.9093 282.96 41.896C281.819 40.8827 280.981 39.6987 280.448 38.344L282.416 37.256C282.843 38.3653 283.547 39.3627 284.528 40.248C285.52 41.1227 286.736 41.8053 288.176 42.296L287.12 44.232ZM280.176 37.272V35.368H287.312V37.272H280.176ZM43.728 72.912C44.656 72.8693 45.4933 72.7573 46.24 72.576C46.9867 72.384 47.5787 72.144 48.016 71.856C48.464 71.568 48.688 71.2587 48.688 70.928V70.56L49.328 70.832C49.2 70.9707 49.04 71.0987 48.848 71.216C48.656 71.3227 48.4427 71.4187 48.208 71.504C47.984 71.5787 47.744 71.6427 47.488 71.696C47.2427 71.7387 46.992 71.76 46.736 71.76C46 71.76 45.3547 71.6213 44.8 71.344C44.256 71.0667 43.8347 70.6773 43.536 70.176C43.2373 69.6747 43.088 69.0933 43.088 68.432C43.088 67.7707 43.248 67.1893 43.568 66.688C43.8987 66.1867 44.352 65.7973 44.928 65.52C45.504 65.232 46.1653 65.088 46.912 65.088C47.296 65.088 47.6427 65.1467 47.952 65.264C48.272 65.3707 48.6613 65.5573 49.12 65.824L48.16 66.272V60.944H50.768V68.352L50.592 67.392C50.8267 67.7227 50.9973 68.0853 51.104 68.48C51.2107 68.864 51.264 69.3013 51.264 69.792C51.264 70.8693 50.9867 71.8027 50.432 72.592C49.888 73.3707 49.088 73.9733 48.032 74.4C46.976 74.8373 45.68 75.0933 44.144 75.168L43.728 72.912ZM47.072 69.84C47.296 69.84 47.4933 69.808 47.664 69.744C47.8453 69.6693 48 69.5733 48.128 69.456C48.256 69.328 48.352 69.1787 48.416 69.008C48.4907 68.8267 48.528 68.6293 48.528 68.416C48.528 68 48.3947 67.664 48.128 67.408C47.8613 67.1413 47.5093 67.008 47.072 67.008C46.6453 67.008 46.2987 67.1413 46.032 67.408C45.7653 67.664 45.632 68 45.632 68.416C45.632 68.8427 45.7653 69.1893 46.032 69.456C46.2987 69.712 46.6453 69.84 47.072 69.84ZM40.848 64.624V62.576H55.152V64.624H40.848ZM65.568 74.784C64.352 74.784 63.408 74.5173 62.736 73.984C62.064 73.4507 61.728 72.704 61.728 71.744C61.728 70.7733 62.0587 70.0373 62.72 69.536C63.3813 69.024 64.3307 68.768 65.568 68.768C66.1227 68.768 66.6347 68.832 67.104 68.96C67.5733 69.0773 68.048 69.2853 68.528 69.584C69.0187 69.872 69.552 70.2773 70.128 70.8C70.704 71.312 71.3707 71.9573 72.128 72.736L70.56 74.32C69.8987 73.6267 69.3227 73.056 68.832 72.608C68.352 72.1493 67.92 71.792 67.536 71.536C67.152 71.28 66.7947 71.0987 66.464 70.992C66.1333 70.8853 65.792 70.832 65.44 70.832C64.5333 70.832 64.08 71.136 64.08 71.744C64.08 72.3093 64.4907 72.592 65.312 72.592C65.7813 72.592 66.112 72.496 66.304 72.304C66.496 72.1013 66.592 71.7653 66.592 71.296V64.176H61.968V61.984H71.68V64.176H69.04V71.424C69.04 72.5547 68.752 73.3973 68.176 73.952C67.6107 74.5067 66.7413 74.784 65.568 74.784ZM61.968 67.632V65.504H71.68V67.632H61.968ZM58.688 74.928C58.432 73.84 58.24 72.752 58.112 71.664C57.9947 70.576 57.936 69.4347 57.936 68.24C57.936 67.0453 57.9947 65.9093 58.112 64.832C58.24 63.744 58.432 62.656 58.688 61.568L61.2 61.856C60.9653 62.8693 60.7893 63.9093 60.672 64.976C60.5547 66.032 60.496 67.12 60.496 68.24C60.496 69.36 60.5547 70.4533 60.672 71.52C60.7893 72.576 60.9653 73.6107 61.2 74.624L58.688 74.928ZM80.832 75.184C78.7947 75.184 77.248 74.8533 76.192 74.192C75.136 73.5307 74.608 72.5653 74.608 71.296C74.608 70.2507 74.976 69.3013 75.712 68.448C76.448 67.5947 77.5893 66.816 79.136 66.112C80.6933 65.3973 82.6933 64.7307 85.136 64.112L85.728 66.432C83.808 66.9227 82.224 67.4187 80.976 67.92C79.7387 68.4213 78.816 68.9387 78.208 69.472C77.6107 69.9947 77.312 70.5387 77.312 71.104C77.312 72.2667 78.5387 72.848 80.992 72.848C81.408 72.848 81.8453 72.832 82.304 72.8C82.7627 72.768 83.3013 72.7093 83.92 72.624C84.5493 72.528 85.312 72.4107 86.208 72.272L86.528 74.592C85.44 74.784 84.4267 74.928 83.488 75.024C82.56 75.1307 81.6747 75.184 80.832 75.184ZM77.472 68.048C77.1733 66.992 76.912 65.9467 76.688 64.912C76.4747 63.8773 76.3093 62.88 76.192 61.92L78.832 61.52C78.96 62.48 79.1307 63.4667 79.344 64.48C79.568 65.4827 79.8293 66.464 80.128 67.424L77.472 68.048ZM84.48 65.024C84.2133 64.4587 83.9413 63.9467 83.664 63.488C83.3867 63.0187 83.0773 62.5493 82.736 62.08L84.272 61.216C84.6347 61.6747 84.9547 62.1493 85.232 62.64C85.5093 63.1307 85.7813 63.664 86.048 64.24L84.48 65.024ZM86.816 64.176C86.5707 63.6 86.3147 63.0773 86.048 62.608C85.7813 62.128 85.4827 61.6533 85.152 61.184L86.688 60.368C87.0293 60.848 87.3333 61.3387 87.6 61.84C87.8667 62.3307 88.1227 62.8693 88.368 63.456L86.816 64.176ZM100.752 75.488C100.464 75.488 100.08 75.4773 99.6 75.456C99.1307 75.4453 98.5653 75.4293 97.904 75.408L97.76 73.392C98.3467 73.4133 98.8587 73.4347 99.296 73.456C99.744 73.4667 100.075 73.472 100.288 73.472C100.587 73.472 100.8 73.4613 100.928 73.44C101.056 73.4187 101.131 73.36 101.152 73.264C101.184 73.168 101.2 73.008 101.2 72.784V68.272H94.784V66.8H101.2V66.048H94.784V64.592H101.2V63.856H94.784V70.144H92.24V62.048H103.76V72.56C103.76 73.2427 103.728 73.7813 103.664 74.176C103.611 74.5707 103.483 74.8587 103.28 75.04C103.088 75.232 102.789 75.3547 102.384 75.408C101.989 75.4613 101.445 75.488 100.752 75.488ZM90.72 71.408L90.64 69.328C93.1467 69.264 95.456 69.184 97.568 69.088C99.6907 68.9813 101.477 68.8693 102.928 68.752L103.008 70.432C101.557 70.6347 99.7707 70.8213 97.648 70.992C95.536 71.152 93.2267 71.2907 90.72 71.408ZM91.408 75.536L90.592 73.472C92.7147 73.024 94.6773 72.448 96.48 71.744C98.2827 71.0293 99.888 70.224 101.296 69.328C102.715 68.4213 103.888 67.472 104.816 66.48L105.744 68.304C105.051 69.008 104.203 69.7067 103.2 70.4C102.208 71.0933 101.093 71.76 99.856 72.4C98.6187 73.04 97.2853 73.6267 95.856 74.16C94.4373 74.6933 92.9547 75.152 91.408 75.536ZM98.256 63.648L95.648 63.424C95.8187 62.976 95.9733 62.5067 96.112 62.016C96.2613 61.5253 96.3893 61.008 96.496 60.464L99.104 60.688C98.9867 61.232 98.8533 61.7493 98.704 62.24C98.5653 62.7307 98.416 63.2 98.256 63.648ZM117.232 74.352C116.272 74.352 115.413 74.2133 114.656 73.936C113.909 73.648 113.323 73.2533 112.896 72.752C112.48 72.2507 112.272 71.68 112.272 71.04C112.272 69.9093 112.955 68.7413 114.32 67.536L116.208 68.912C115.707 69.36 115.349 69.7333 115.136 70.032C114.923 70.32 114.816 70.5867 114.816 70.832C114.816 71.088 114.912 71.3067 115.104 71.488C115.296 71.6587 115.573 71.792 115.936 71.888C116.299 71.984 116.731 72.032 117.232 72.032C117.723 72.032 118.304 71.9947 118.976 71.92C119.648 71.8347 120.341 71.728 121.056 71.6L121.408 73.872C120.683 74.0213 119.963 74.1387 119.248 74.224C118.533 74.3093 117.861 74.352 117.232 74.352ZM113.04 64.912V62.592H121.264V64.912H113.04ZM108.896 74.928C108.629 73.84 108.432 72.752 108.304 71.664C108.176 70.576 108.112 69.4347 108.112 68.24C108.112 67.0453 108.176 65.9093 108.304 64.832C108.432 63.744 108.629 62.656 108.896 61.568L111.488 61.856C111.243 62.8693 111.056 63.9093 110.928 64.976C110.811 66.032 110.752 67.12 110.752 68.24C110.752 69.36 110.811 70.4533 110.928 71.52C111.056 72.576 111.243 73.6107 111.488 74.624L108.896 74.928ZM127.056 71.904C129.104 71.904 130.747 71.776 131.984 71.52C133.221 71.264 134.117 70.8533 134.672 70.288C135.237 69.7227 135.52 68.9813 135.52 68.064C135.52 67.0613 135.205 66.3253 134.576 65.856C133.957 65.3867 132.981 65.152 131.648 65.152C131.115 65.152 130.523 65.1947 129.872 65.28C129.221 65.3653 128.469 65.4933 127.616 65.664C126.763 65.8347 125.749 66.0693 124.576 66.368L124.08 63.792C125.851 63.3973 127.36 63.1093 128.608 62.928C129.867 62.736 130.944 62.64 131.84 62.64C133.248 62.64 134.432 62.8373 135.392 63.232C136.352 63.6267 137.077 64.208 137.568 64.976C138.059 65.7333 138.304 66.672 138.304 67.792C138.304 69.9573 137.371 71.5947 135.504 72.704C133.648 73.8027 130.896 74.352 127.248 74.352L127.056 71.904ZM148.528 75.008C147.195 75.008 146.043 74.8747 145.072 74.608C144.112 74.3413 143.371 73.9627 142.848 73.472C142.325 72.9707 142.064 72.3787 142.064 71.696C142.064 71.1947 142.203 70.7147 142.48 70.256C142.768 69.7867 143.152 69.408 143.632 69.12L145.888 70C145.557 70.224 145.307 70.4587 145.136 70.704C144.965 70.9493 144.88 71.1947 144.88 71.44C144.88 71.728 145.008 71.9733 145.264 72.176C145.531 72.368 145.92 72.5173 146.432 72.624C146.955 72.72 147.589 72.768 148.336 72.768C149.104 72.768 149.925 72.72 150.8 72.624C151.675 72.5173 152.501 72.3733 153.28 72.192L153.632 74.432C152.821 74.624 151.973 74.768 151.088 74.864C150.213 74.96 149.36 75.008 148.528 75.008ZM141.36 68.496V66.368L154.32 66.048V68.176L141.36 68.496ZM149.712 71.44C149.381 70.6507 149.077 69.8293 148.8 68.976C148.533 68.1227 148.293 67.2533 148.08 66.368C147.877 65.4827 147.712 64.592 147.584 63.696C147.456 62.7893 147.365 61.8827 147.312 60.976L149.888 60.832C149.941 61.696 150.027 62.5493 150.144 63.392C150.272 64.2347 150.437 65.072 150.64 65.904C150.843 66.7253 151.088 67.552 151.376 68.384C151.664 69.216 151.989 70.0533 152.352 70.896L149.712 71.44ZM141.52 64.944V62.832L154.16 62.512V64.624L141.52 64.944ZM158.432 75.632L156.72 73.408C156.88 73.056 157.013 72.7253 157.12 72.416C157.227 72.096 157.317 71.76 157.392 71.408C157.467 71.0453 157.52 70.6293 157.552 70.16C157.595 69.6907 157.621 69.1307 157.632 68.48C157.653 67.8293 157.664 67.056 157.664 66.16V62.096H163.488V60.592H166.112V62.096H171.568V64.176H160.048V68.096C160.048 68.992 160.016 69.8027 159.952 70.528C159.888 71.2533 159.792 71.9093 159.664 72.496C159.536 73.0827 159.371 73.6267 159.168 74.128C158.965 74.64 158.72 75.1413 158.432 75.632ZM161.44 74.816L159.328 73.904C159.595 73.168 159.851 72.288 160.096 71.264C160.352 70.2293 160.576 69.0667 160.768 67.776L162.944 68.192C162.837 69.0133 162.704 69.84 162.544 70.672C162.384 71.4933 162.208 72.2613 162.016 72.976C161.824 73.6907 161.632 74.304 161.44 74.816ZM166.048 75.424C165.323 75.424 164.752 75.4027 164.336 75.36C163.931 75.328 163.632 75.248 163.44 75.12C163.248 74.992 163.125 74.7787 163.072 74.48C163.019 74.192 162.992 73.7973 162.992 73.296V66.624H165.552V72.752C165.552 72.8693 165.552 72.96 165.552 73.024C165.563 73.088 165.584 73.136 165.616 73.168C165.659 73.2 165.723 73.2213 165.808 73.232C165.904 73.232 166.032 73.232 166.192 73.232C166.352 73.232 166.485 73.2267 166.592 73.216C166.699 73.1947 166.784 73.1413 166.848 73.056C166.912 72.9707 166.955 72.8373 166.976 72.656C167.008 72.464 167.029 72.2027 167.04 71.872C167.051 71.5307 167.067 71.0933 167.088 70.56L169.328 70.832C169.307 71.7173 169.269 72.448 169.216 73.024C169.173 73.5893 169.093 74.0373 168.976 74.368C168.859 74.6987 168.683 74.9387 168.448 75.088C168.224 75.2373 167.915 75.328 167.52 75.36C167.136 75.4027 166.645 75.424 166.048 75.424ZM169.936 74.64C169.723 73.424 169.461 72.2667 169.152 71.168C168.853 70.0587 168.528 69.0507 168.176 68.144L170.448 67.392C170.821 68.32 171.163 69.344 171.472 70.464C171.781 71.5733 172.048 72.7413 172.272 73.968L169.936 74.64ZM168.368 67.424C167.621 67.0933 166.773 66.784 165.824 66.496C164.875 66.208 163.792 65.9413 162.576 65.696L163.264 63.808C164.245 63.9467 165.227 64.1547 166.208 64.432C167.189 64.6987 168.187 65.0453 169.2 65.472L168.368 67.424ZM175.44 75.728L173.376 74.016C173.664 73.5893 173.904 73.1627 174.096 72.736C174.299 72.3093 174.453 71.84 174.56 71.328C174.677 70.816 174.763 70.2187 174.816 69.536C174.869 68.8427 174.896 68.0213 174.896 67.072V61.152H187.952V72.72C187.952 73.392 187.92 73.9253 187.856 74.32C187.803 74.7147 187.691 75.0027 187.52 75.184C187.349 75.3653 187.083 75.4827 186.72 75.536C186.368 75.6 185.888 75.632 185.28 75.632C185.077 75.632 184.811 75.6213 184.48 75.6C184.149 75.5893 183.749 75.5733 183.28 75.552L183.152 73.424C183.579 73.4453 183.931 73.4667 184.208 73.488C184.496 73.4987 184.699 73.504 184.816 73.504C185.019 73.504 185.163 73.4933 185.248 73.472C185.344 73.4507 185.403 73.392 185.424 73.296C185.456 73.2 185.472 73.0507 185.472 72.848V70.992H176.576V69.056H185.472V67.04H177.376V65.104H185.472V63.216H182.4V75.2H179.984V63.216H177.376V68.192C177.376 69.408 177.307 70.464 177.168 71.36C177.04 72.2453 176.832 73.0347 176.544 73.728C176.267 74.4213 175.899 75.088 175.44 75.728ZM200.272 74.88C198.928 74.88 197.76 74.6507 196.768 74.192C195.776 73.7333 195.008 73.088 194.464 72.256C193.92 71.424 193.648 70.4427 193.648 69.312C193.648 68.5227 193.776 67.7867 194.032 67.104C194.288 66.4213 194.656 65.8133 195.136 65.28C195.627 64.7467 196.208 64.32 196.88 64L197.136 64.512L190.176 64.672V62.352L203.824 62.032V64.352L201.776 64.4C201.029 64.4107 200.331 64.528 199.68 64.752C199.029 64.976 198.459 65.2907 197.968 65.696C197.477 66.1013 197.099 66.5867 196.832 67.152C196.565 67.7067 196.432 68.336 196.432 69.04C196.432 69.7653 196.581 70.3893 196.88 70.912C197.179 71.424 197.616 71.8187 198.192 72.096C198.779 72.3627 199.477 72.496 200.288 72.496C200.48 72.496 200.693 72.4907 200.928 72.48C201.163 72.4587 201.403 72.4373 201.648 72.416C201.893 72.384 202.123 72.3467 202.336 72.304L202.624 74.688C202.368 74.72 202.101 74.752 201.824 74.784C201.547 74.816 201.275 74.8373 201.008 74.848C200.741 74.8693 200.496 74.88 200.272 74.88ZM201.408 70.048C201.152 69.4933 200.88 68.9653 200.592 68.464C200.304 67.9627 199.973 67.4507 199.6 66.928L201.248 66.032C201.621 66.5547 201.952 67.072 202.24 67.584C202.539 68.096 202.821 68.64 203.088 69.216L201.408 70.048ZM204.016 69.168C203.771 68.6027 203.509 68.0693 203.232 67.568C202.955 67.056 202.64 66.5387 202.288 66.016L203.936 65.168C204.288 65.712 204.603 66.24 204.88 66.752C205.168 67.264 205.435 67.8133 205.68 68.4L204.016 69.168ZM215.088 75.008C213.755 75.008 212.603 74.8747 211.632 74.608C210.672 74.3413 209.931 73.9627 209.408 73.472C208.885 72.9707 208.624 72.3787 208.624 71.696C208.624 71.1947 208.763 70.7147 209.04 70.256C209.328 69.7867 209.712 69.408 210.192 69.12L212.448 70C212.117 70.224 211.867 70.4587 211.696 70.704C211.525 70.9493 211.44 71.1947 211.44 71.44C211.44 71.728 211.568 71.9733 211.824 72.176C212.091 72.368 212.48 72.5173 212.992 72.624C213.515 72.72 214.149 72.768 214.896 72.768C215.664 72.768 216.485 72.72 217.36 72.624C218.235 72.5173 219.061 72.3733 219.84 72.192L220.192 74.432C219.381 74.624 218.533 74.768 217.648 74.864C216.773 74.96 215.92 75.008 215.088 75.008ZM207.92 68.496V66.368L220.88 66.048V68.176L207.92 68.496ZM216.272 71.44C215.941 70.6507 215.637 69.8293 215.36 68.976C215.093 68.1227 214.853 67.2533 214.64 66.368C214.437 65.4827 214.272 64.592 214.144 63.696C214.016 62.7893 213.925 61.8827 213.872 60.976L216.448 60.832C216.501 61.696 216.587 62.5493 216.704 63.392C216.832 64.2347 216.997 65.072 217.2 65.904C217.403 66.7253 217.648 67.552 217.936 68.384C218.224 69.216 218.549 70.0533 218.912 70.896L216.272 71.44ZM208.08 64.944V62.832L220.72 62.512V64.624L208.08 64.944ZM230.72 75.168C229.099 75.168 227.835 74.896 226.928 74.352C226.032 73.808 225.584 73.0507 225.584 72.08C225.584 71.248 225.931 70.6027 226.624 70.144C227.328 69.6747 228.288 69.44 229.504 69.44C230.603 69.44 231.424 69.6427 231.968 70.048C232.512 70.4427 232.784 71.04 232.784 71.84C232.784 72.128 232.752 72.432 232.688 72.752C232.624 73.072 232.533 73.3813 232.416 73.68L230.224 73.456C230.341 73.1573 230.432 72.896 230.496 72.672C230.56 72.4373 230.592 72.2453 230.592 72.096C230.592 71.552 230.171 71.28 229.328 71.28C228.891 71.28 228.555 71.3493 228.32 71.488C228.085 71.616 227.968 71.808 227.968 72.064C227.968 72.4267 228.171 72.704 228.576 72.896C228.981 73.088 229.584 73.184 230.384 73.184C231.963 73.184 233.115 72.9653 233.84 72.528C234.576 72.0907 234.944 71.4133 234.944 70.496C234.944 69.6853 234.645 69.0987 234.048 68.736C233.461 68.3627 232.496 68.176 231.152 68.176C230.384 68.176 229.712 68.24 229.136 68.368C228.56 68.496 228.011 68.6933 227.488 68.96L225.504 70.032L224.48 68.048L232.8 63.792V64.128H225.44V61.952H236.736V64.128L228.528 68.416L227.2 67.248C227.563 67.1307 227.979 67.0187 228.448 66.912C228.917 66.8053 229.403 66.7093 229.904 66.624C230.405 66.5387 230.891 66.4747 231.36 66.432C231.829 66.3787 232.245 66.352 232.608 66.352C234.208 66.352 235.44 66.6987 236.304 67.392C237.168 68.0747 237.6 69.056 237.6 70.336C237.6 71.8827 237.003 73.0773 235.808 73.92C234.613 74.752 232.917 75.168 230.72 75.168ZM247.696 74.864C245.701 74.864 244.187 74.5547 243.152 73.936C242.117 73.3067 241.6 72.3893 241.6 71.184C241.6 70.1707 241.979 69.248 242.736 68.416C243.493 67.5733 244.672 66.7947 246.272 66.08C247.883 65.3653 249.952 64.688 252.48 64.048L252.928 65.76C250.784 66.304 249.019 66.8587 247.632 67.424C246.256 67.9893 245.237 68.5707 244.576 69.168C243.925 69.7547 243.6 70.384 243.6 71.056C243.6 72.4427 245.003 73.136 247.808 73.136C248.267 73.136 248.747 73.1147 249.248 73.072C249.749 73.0293 250.309 72.9707 250.928 72.896C251.557 72.8107 252.272 72.704 253.072 72.576L253.296 74.304C252.283 74.4747 251.301 74.608 250.352 74.704C249.413 74.8107 248.528 74.864 247.696 74.864ZM244.656 67.712C244.347 66.6667 244.085 65.6427 243.872 64.64C243.659 63.6267 243.488 62.624 243.36 61.632L245.296 61.344C245.435 62.336 245.611 63.328 245.824 64.32C246.037 65.3013 246.293 66.2773 246.592 67.248L244.656 67.712ZM263.344 70.048C263.344 69.9947 263.344 69.9467 263.344 69.904C263.344 69.8613 263.344 69.8187 263.344 69.776V68.512H258.768V67.104H263.344V66.08H258.608V64.608H263.344V63.264H265.296V64.608H270.032V66.08H265.296V67.104H269.872V68.512H265.296V69.776C265.296 69.8187 265.296 69.8613 265.296 69.904C265.296 69.9467 265.296 69.9947 265.296 70.048H263.344ZM257.872 75.328L257.232 73.664C258.299 73.4933 259.216 73.28 259.984 73.024C260.763 72.7573 261.403 72.4533 261.904 72.112C262.405 71.7707 262.773 71.408 263.008 71.024H265.616C265.851 71.408 266.219 71.7707 266.72 72.112C267.232 72.4533 267.872 72.7573 268.64 73.024C269.419 73.28 270.341 73.4933 271.408 73.664L270.768 75.328C269.797 75.1573 268.901 74.9067 268.08 74.576C267.269 74.2453 266.555 73.8667 265.936 73.44C265.317 73.0027 264.811 72.5493 264.416 72.08C264.021 72.5493 263.504 73.0027 262.864 73.44C262.224 73.8667 261.483 74.2453 260.64 74.576C259.797 74.9067 258.875 75.1573 257.872 75.328ZM257.216 71.152V69.632H271.424V71.152H257.216ZM257.456 65.056V61.984H263.344V60.784H265.296V61.984H271.184V65.056H269.408V63.52H259.232V65.056H257.456ZM41.76 100.456L40.448 98.888C40.5867 98.5893 40.7093 98.2853 40.816 97.976C40.9333 97.656 41.0347 97.3093 41.12 96.936C41.2053 96.5627 41.2747 96.1627 41.328 95.736C41.3813 95.2987 41.4187 94.824 41.44 94.312C41.472 93.8 41.488 93.2347 41.488 92.616V90.888H54.848V92.392H43.28V93.976C43.28 94.616 43.2427 95.24 43.168 95.848C43.0933 96.456 42.9867 97.0373 42.848 97.592C42.72 98.1467 42.56 98.664 42.368 99.144C42.1867 99.624 41.984 100.061 41.76 100.456ZM41.808 104.28L40.432 103.208C40.848 102.749 41.2213 102.253 41.552 101.72C41.8933 101.176 42.1707 100.616 42.384 100.04L43.92 100.728C43.696 101.379 43.4027 102.013 43.04 102.632C42.688 103.24 42.2773 103.789 41.808 104.28ZM48.528 104.472C48.1653 104.472 47.7973 104.467 47.424 104.456C47.0613 104.445 46.7413 104.435 46.464 104.424C46.0373 104.403 45.696 104.36 45.44 104.296C45.184 104.243 44.9867 104.136 44.848 103.976C44.72 103.827 44.6347 103.608 44.592 103.32C44.56 103.032 44.544 102.653 44.544 102.184V99.992H46.464V101.928C46.464 102.227 46.4747 102.445 46.496 102.584C46.5173 102.712 46.5653 102.792 46.64 102.824C46.7253 102.856 46.864 102.883 47.056 102.904C47.2267 102.915 47.44 102.925 47.696 102.936C47.952 102.947 48.2187 102.952 48.496 102.952C48.72 102.952 48.9653 102.947 49.232 102.936C49.5093 102.925 49.744 102.915 49.936 102.904C50.1813 102.883 50.3787 102.851 50.528 102.808C50.6773 102.755 50.7893 102.675 50.864 102.568C50.9493 102.461 51.008 102.296 51.04 102.072C51.0827 101.848 51.1147 101.539 51.136 101.144L52.928 101.432C52.8853 102.061 52.8267 102.568 52.752 102.952C52.688 103.325 52.576 103.608 52.416 103.8C52.2667 103.992 52.0427 104.131 51.744 104.216C51.456 104.301 51.0667 104.365 50.576 104.408C50.2987 104.429 49.9893 104.445 49.648 104.456C49.3173 104.467 48.944 104.472 48.528 104.472ZM49.504 102.264C49.12 101.901 48.704 101.555 48.256 101.224C47.8187 100.883 47.36 100.563 46.88 100.264L47.968 99.128C48.448 99.416 48.9067 99.7253 49.344 100.056C49.7813 100.387 50.192 100.728 50.576 101.08L49.504 102.264ZM43.648 99.304V94.936H48.976V98.664H45.376V97.448H47.36V96.168H45.376V99.304H43.648ZM54.144 104.088C53.8453 103.469 53.5093 102.845 53.136 102.216C52.7627 101.587 52.3573 100.979 51.92 100.392L53.44 99.608C53.8773 100.205 54.288 100.824 54.672 101.464C55.056 102.104 55.4027 102.739 55.712 103.368L54.144 104.088ZM43.568 94.328V93.016H49.088V94.328H43.568ZM48.896 98.984L47.952 97.64C49.0293 97.1067 49.9733 96.44 50.784 95.64C51.5947 94.8293 52.3093 93.848 52.928 92.696L54.304 93.464C53.6747 94.744 52.912 95.8427 52.016 96.76C51.1307 97.6667 50.0907 98.408 48.896 98.984ZM53.344 99.88C52.9707 99.88 52.5867 99.736 52.192 99.448C51.7973 99.16 51.4133 98.7333 51.04 98.168C50.6773 97.6027 50.3467 96.9147 50.048 96.104C49.7493 95.2827 49.5147 94.344 49.344 93.288C49.1733 92.232 49.088 91.064 49.088 89.784H50.768C50.768 90.9573 50.8373 91.9973 50.976 92.904C51.1253 93.8107 51.312 94.5947 51.536 95.256C51.7707 95.9067 52 96.4507 52.224 96.888C52.4587 97.3147 52.6667 97.6293 52.848 97.832C53.04 98.0347 53.1733 98.136 53.248 98.136C53.3333 98.136 53.4187 98.088 53.504 97.992C53.5893 97.8853 53.6747 97.6933 53.76 97.416C53.8453 97.1387 53.9307 96.744 54.016 96.232L55.44 96.664C55.3013 97.816 55.04 98.6427 54.656 99.144C54.2827 99.6347 53.8453 99.88 53.344 99.88ZM52.736 92.008C52.5547 91.6773 52.3627 91.3413 52.16 91C51.9573 90.6587 51.7547 90.3333 51.552 90.024L53.072 89.464C53.296 89.784 53.504 90.1147 53.696 90.456C53.8987 90.7973 54.0853 91.1387 54.256 91.48L52.736 92.008ZM60.272 104.392C59.7173 104.392 59.2267 104.275 58.8 104.04C58.384 103.805 58.0587 103.48 57.824 103.064C57.6 102.648 57.488 102.157 57.488 101.592C57.488 101.037 57.6 100.552 57.824 100.136C58.0587 99.7093 58.384 99.384 58.8 99.16C59.2267 98.9253 59.7173 98.808 60.272 98.808C60.8373 98.808 61.328 98.9253 61.744 99.16C62.16 99.384 62.4853 99.7093 62.72 100.136C62.9547 100.552 63.072 101.037 63.072 101.592C63.072 102.157 62.9547 102.648 62.72 103.064C62.4853 103.48 62.16 103.805 61.744 104.04C61.328 104.275 60.8373 104.392 60.272 104.392ZM60.288 102.888C60.672 102.888 60.9813 102.771 61.216 102.536C61.4507 102.301 61.568 101.987 61.568 101.592C61.568 101.208 61.4507 100.899 61.216 100.664C60.9813 100.429 60.672 100.312 60.288 100.312C59.8933 100.312 59.5787 100.429 59.344 100.664C59.1093 100.899 58.992 101.208 58.992 101.592C58.992 101.987 59.1093 102.301 59.344 102.536C59.5787 102.771 59.8933 102.888 60.288 102.888ZM81.44 103.608C80.192 103.608 79.0987 103.464 78.16 103.176C77.232 102.899 76.512 102.509 76 102.008C75.4987 101.496 75.248 100.893 75.248 100.2C75.248 99.624 75.4293 99.0107 75.792 98.36C76.1653 97.6987 76.7307 96.968 77.488 96.168L79.136 97.032C78.5173 97.6507 78.048 98.2107 77.728 98.712C77.408 99.2133 77.248 99.6453 77.248 100.008C77.248 100.381 77.4187 100.712 77.76 101C78.112 101.288 78.6027 101.512 79.232 101.672C79.8613 101.821 80.5973 101.896 81.44 101.896C81.9733 101.896 82.56 101.864 83.2 101.8C83.84 101.736 84.4693 101.651 85.088 101.544C85.7173 101.427 86.2667 101.299 86.736 101.16L87.12 102.872C86.6507 103.011 86.0853 103.133 85.424 103.24C84.7733 103.357 84.096 103.448 83.392 103.512C82.6987 103.576 82.048 103.608 81.44 103.608ZM76.048 93.064V91.352H86.672V93.064H76.048ZM99.28 101.832C99.8453 101.768 100.363 101.608 100.832 101.352C101.312 101.085 101.723 100.749 102.064 100.344C102.416 99.928 102.688 99.4533 102.88 98.92C103.072 98.3867 103.168 97.8107 103.168 97.192C103.168 96.3173 102.965 95.5547 102.56 94.904C102.155 94.2427 101.589 93.736 100.864 93.384C100.149 93.032 99.3173 92.856 98.368 92.856C97.5573 92.856 96.8053 92.9893 96.112 93.256C95.4187 93.5227 94.8053 93.896 94.272 94.376C93.7493 94.8453 93.3387 95.4 93.04 96.04C92.7413 96.6693 92.592 97.3467 92.592 98.072C92.592 98.5947 92.6773 99.096 92.848 99.576C93.0187 100.056 93.232 100.451 93.488 100.76C93.7547 101.059 94.032 101.208 94.32 101.208C94.736 101.208 95.136 100.829 95.52 100.072C95.904 99.3147 96.2507 98.2267 96.56 96.808C96.88 95.3787 97.1467 93.6667 97.36 91.672L99.216 91.864C98.9813 93.848 98.7147 95.5493 98.416 96.968C98.1173 98.3867 97.776 99.5493 97.392 100.456C97.008 101.363 96.5707 102.035 96.08 102.472C95.5893 102.899 95.0347 103.112 94.416 103.112C93.904 103.112 93.4293 102.984 92.992 102.728C92.5547 102.472 92.176 102.115 91.856 101.656C91.536 101.197 91.2853 100.664 91.104 100.056C90.9227 99.4373 90.832 98.776 90.832 98.072C90.832 97.0693 91.0187 96.1467 91.392 95.304C91.7653 94.4507 92.288 93.7147 92.96 93.096C93.632 92.4773 94.4267 91.9973 95.344 91.656C96.272 91.304 97.2853 91.128 98.384 91.128C99.6747 91.128 100.816 91.3733 101.808 91.864C102.811 92.3547 103.595 93.0533 104.16 93.96C104.725 94.8667 105.008 95.944 105.008 97.192C105.008 98.0347 104.88 98.8187 104.624 99.544C104.379 100.269 104.027 100.915 103.568 101.48C103.109 102.035 102.56 102.488 101.92 102.84C101.28 103.192 100.571 103.416 99.792 103.512L99.28 101.832ZM107.328 97.816V95.928H121.792V97.816H107.328ZM129.968 100.568C129.787 100.568 129.52 100.557 129.168 100.536C128.816 100.515 128.363 100.493 127.808 100.472L127.728 98.872C128.219 98.8933 128.629 98.9147 128.96 98.936C129.291 98.9573 129.52 98.968 129.648 98.968C129.893 98.968 130.059 98.9573 130.144 98.936C130.24 98.904 130.293 98.8347 130.304 98.728C130.325 98.6107 130.336 98.424 130.336 98.168V95.672H124.048V94.088H126.32V90.536H128.208V94.088H130.336V89.848H132.304V91.176H137.424V92.68H132.304V94.088H138.352V95.672H132.304V98.088C132.304 98.6533 132.277 99.1067 132.224 99.448C132.181 99.7787 132.085 100.024 131.936 100.184C131.787 100.333 131.552 100.435 131.232 100.488C130.923 100.541 130.501 100.568 129.968 100.568ZM125.392 100.952L124 99.88C124.555 99.2507 125.045 98.6 125.472 97.928C125.909 97.2453 126.283 96.5573 126.592 95.864L128.192 96.584C127.893 97.3413 127.504 98.0933 127.024 98.84C126.544 99.5867 126 100.291 125.392 100.952ZM125.088 104.488L124.528 102.856C126.224 102.728 127.728 102.509 129.04 102.2C130.352 101.88 131.499 101.464 132.48 100.952C133.472 100.44 134.331 99.8267 135.056 99.112L136.208 100.344C135.077 101.485 133.595 102.408 131.76 103.112C129.936 103.816 127.712 104.275 125.088 104.488ZM136.976 100.536C136.549 99.8747 136.091 99.2293 135.6 98.6C135.109 97.96 134.587 97.3413 134.032 96.744L135.472 95.768C136.048 96.3867 136.581 97.016 137.072 97.656C137.563 98.296 138.016 98.952 138.432 99.624L136.976 100.536ZM150.272 103.752C148.981 103.752 147.856 103.523 146.896 103.064C145.947 102.616 145.211 101.981 144.688 101.16C144.165 100.328 143.904 99.352 143.904 98.232C143.904 97.3573 144.059 96.5467 144.368 95.8C144.688 95.0533 145.136 94.4027 145.712 93.848C146.299 93.2827 146.992 92.8507 147.792 92.552L147.952 93.048L140.336 93.224V91.512L153.824 91.192V92.904L151.792 92.952C150.939 92.9733 150.149 93.112 149.424 93.368C148.709 93.6133 148.091 93.96 147.568 94.408C147.056 94.856 146.656 95.3893 146.368 96.008C146.08 96.616 145.936 97.2933 145.936 98.04C145.936 98.8507 146.112 99.5547 146.464 100.152C146.816 100.739 147.312 101.192 147.952 101.512C148.603 101.832 149.381 101.992 150.288 101.992C150.48 101.992 150.693 101.987 150.928 101.976C151.173 101.955 151.419 101.933 151.664 101.912C151.92 101.88 152.144 101.848 152.336 101.816L152.544 103.576C152.32 103.608 152.075 103.635 151.808 103.656C151.541 103.688 151.275 103.709 151.008 103.72C150.741 103.741 150.496 103.752 150.272 103.752ZM151.904 98.76C151.659 98.216 151.392 97.6987 151.104 97.208C150.827 96.7067 150.507 96.1947 150.144 95.672L151.536 94.904C151.899 95.4267 152.224 95.944 152.512 96.456C152.8 96.9573 153.072 97.4907 153.328 98.056L151.904 98.76ZM154.336 97.848C154.101 97.2933 153.845 96.7707 153.568 96.28C153.301 95.7787 152.992 95.2667 152.64 94.744L154.032 94.008C154.384 94.5413 154.699 95.064 154.976 95.576C155.264 96.088 155.525 96.632 155.76 97.208L154.336 97.848ZM165.264 104.472V92.952H164.192V91.368H171.952V92.952H167.264V95.4H171.472V97H167.264V99.512H171.472V101.144H167.264V104.472H165.264ZM158.944 104.472V94.056H160.896V104.472H158.944ZM157.728 98.968L156.912 97.112C157.477 96.44 157.973 95.7413 158.4 95.016C158.827 94.28 159.195 93.496 159.504 92.664C159.813 91.8213 160.075 90.9147 160.288 89.944L162.08 90.328C161.888 91.352 161.627 92.3067 161.296 93.192C160.965 94.0773 160.571 94.888 160.112 95.624L160.048 95.144C159.931 95.4533 159.781 95.784 159.6 96.136C159.429 96.4773 159.237 96.824 159.024 97.176C158.821 97.5173 158.608 97.8427 158.384 98.152C158.16 98.4613 157.941 98.7333 157.728 98.968ZM162.624 97.32L161.104 96.168C161.744 95.1867 162.315 94.1627 162.816 93.096C163.328 92.0187 163.76 90.9147 164.112 89.784L165.936 90.152C165.563 91.4 165.093 92.6373 164.528 93.864C163.963 95.08 163.328 96.232 162.624 97.32ZM180.752 104.008C179.173 104.008 177.947 103.752 177.072 103.24C176.208 102.728 175.776 102.008 175.776 101.08C175.776 100.291 176.101 99.6773 176.752 99.24C177.413 98.792 178.32 98.568 179.472 98.568C180.56 98.568 181.376 98.7707 181.92 99.176C182.464 99.5707 182.736 100.168 182.736 100.968C182.736 101.256 182.693 101.565 182.608 101.896C182.533 102.227 182.421 102.568 182.272 102.92L180.512 102.728C180.661 102.365 180.768 102.056 180.832 101.8C180.907 101.544 180.944 101.32 180.944 101.128C180.944 100.403 180.411 100.04 179.344 100.04C178.8 100.04 178.373 100.131 178.064 100.312C177.765 100.483 177.616 100.733 177.616 101.064C177.616 101.512 177.877 101.869 178.4 102.136C178.923 102.392 179.632 102.52 180.528 102.52C182.245 102.52 183.52 102.269 184.352 101.768C185.195 101.256 185.616 100.477 185.616 99.432C185.616 98.5467 185.285 97.896 184.624 97.48C183.973 97.064 182.933 96.856 181.504 96.856C180.683 96.856 179.957 96.9307 179.328 97.08C178.699 97.2187 178.117 97.4373 177.584 97.736L175.472 98.952L174.704 97.48L183.792 92.424V92.728H175.648V91.112H186.592V92.728L178.784 97.032L177.792 96.216C178.123 96.0987 178.491 95.992 178.896 95.896C179.312 95.7893 179.733 95.704 180.16 95.64C180.597 95.5653 181.019 95.5067 181.424 95.464C181.829 95.4107 182.197 95.384 182.528 95.384C184.149 95.384 185.392 95.7253 186.256 96.408C187.12 97.0907 187.552 98.0613 187.552 99.32C187.552 100.824 186.96 101.981 185.776 102.792C184.603 103.603 182.928 104.008 180.752 104.008ZM197.92 103.608C196.672 103.608 195.579 103.464 194.64 103.176C193.712 102.899 192.992 102.509 192.48 102.008C191.979 101.496 191.728 100.893 191.728 100.2C191.728 99.624 191.909 99.0107 192.272 98.36C192.645 97.6987 193.211 96.968 193.968 96.168L195.616 97.032C194.997 97.6507 194.528 98.2107 194.208 98.712C193.888 99.2133 193.728 99.6453 193.728 100.008C193.728 100.381 193.899 100.712 194.24 101C194.592 101.288 195.083 101.512 195.712 101.672C196.341 101.821 197.077 101.896 197.92 101.896C198.453 101.896 199.04 101.864 199.68 101.8C200.32 101.736 200.949 101.651 201.568 101.544C202.197 101.427 202.747 101.299 203.216 101.16L203.6 102.872C203.131 103.011 202.565 103.133 201.904 103.24C201.253 103.357 200.576 103.448 199.872 103.512C199.179 103.576 198.528 103.608 197.92 103.608ZM192.528 93.064V91.352H203.152V93.064H192.528ZM214.416 103.864C212.421 103.864 210.907 103.555 209.872 102.936C208.837 102.307 208.32 101.389 208.32 100.184C208.32 99.1707 208.699 98.248 209.456 97.416C210.213 96.5733 211.392 95.7947 212.992 95.08C214.603 94.3653 216.672 93.688 219.2 93.048L219.648 94.76C217.504 95.304 215.739 95.8587 214.352 96.424C212.976 96.9893 211.957 97.5707 211.296 98.168C210.645 98.7547 210.32 99.384 210.32 100.056C210.32 101.443 211.723 102.136 214.528 102.136C214.987 102.136 215.467 102.115 215.968 102.072C216.469 102.029 217.029 101.971 217.648 101.896C218.277 101.811 218.992 101.704 219.792 101.576L220.016 103.304C219.003 103.475 218.021 103.608 217.072 103.704C216.133 103.811 215.248 103.864 214.416 103.864ZM211.376 96.712C211.067 95.6667 210.805 94.6427 210.592 93.64C210.379 92.6267 210.208 91.624 210.08 90.632L212.016 90.344C212.155 91.336 212.331 92.328 212.544 93.32C212.757 94.3013 213.013 95.2773 213.312 96.248L211.376 96.712ZM223.888 103.352C224.283 102.339 224.635 101.405 224.944 100.552C225.253 99.688 225.531 98.8613 225.776 98.072C226.032 97.2827 226.261 96.4827 226.464 95.672C226.677 94.8613 226.875 93.9973 227.056 93.08C227.237 92.1627 227.419 91.1493 227.6 90.04L229.456 90.248C229.285 91.3147 229.109 92.312 228.928 93.24C228.747 94.1573 228.544 95.0427 228.32 95.896C228.107 96.7387 227.867 97.5813 227.6 98.424C227.344 99.2667 227.051 100.136 226.72 101.032C226.4 101.928 226.037 102.888 225.632 103.912L223.888 103.352ZM236.848 101.256C236.752 100.616 236.624 99.9333 236.464 99.208C236.315 98.472 236.139 97.736 235.936 97C235.733 96.264 235.52 95.5547 235.296 94.872L237.072 94.344C237.296 95.048 237.509 95.7787 237.712 96.536C237.925 97.2827 238.112 98.0347 238.272 98.792C238.432 99.5387 238.565 100.253 238.672 100.936L236.848 101.256ZM235.168 93.992C234.891 93.4053 234.619 92.8827 234.352 92.424C234.085 91.9653 233.787 91.512 233.456 91.064L234.784 90.296C235.125 90.7547 235.429 91.2293 235.696 91.72C235.973 92.2107 236.245 92.744 236.512 93.32L235.168 93.992ZM237.408 93.144C237.152 92.5467 236.896 92.0187 236.64 91.56C236.384 91.0907 236.101 90.6373 235.792 90.2L237.088 89.48C237.429 89.9493 237.728 90.4293 237.984 90.92C238.251 91.4107 238.507 91.9493 238.752 92.536L237.408 93.144ZM231.488 103.528C231.211 103.528 230.864 103.491 230.448 103.416C230.032 103.352 229.595 103.256 229.136 103.128C228.688 103.011 228.256 102.877 227.84 102.728L228.272 101.112C228.624 101.219 228.971 101.325 229.312 101.432C229.664 101.528 229.984 101.608 230.272 101.672C230.571 101.725 230.8 101.752 230.96 101.752C231.301 101.752 231.584 101.597 231.808 101.288C232.032 100.968 232.197 100.472 232.304 99.8C232.421 99.1173 232.48 98.2427 232.48 97.176C232.48 96.5573 232.459 96.0613 232.416 95.688C232.373 95.304 232.283 95.016 232.144 94.824C232.016 94.632 231.819 94.504 231.552 94.44C231.285 94.376 230.928 94.344 230.48 94.344H223.696V92.68H230.304C231.04 92.68 231.653 92.712 232.144 92.776C232.645 92.8293 233.04 92.9413 233.328 93.112C233.627 93.2827 233.851 93.544 234 93.896C234.16 94.2373 234.261 94.696 234.304 95.272C234.357 95.8373 234.384 96.5467 234.384 97.4C234.384 98.7867 234.283 99.9333 234.08 100.84C233.877 101.747 233.557 102.424 233.12 102.872C232.693 103.309 232.149 103.528 231.488 103.528ZM240.528 103.352C240.923 102.339 241.275 101.405 241.584 100.552C241.893 99.688 242.171 98.8613 242.416 98.072C242.672 97.2827 242.901 96.4827 243.104 95.672C243.317 94.8613 243.515 93.9973 243.696 93.08C243.877 92.1627 244.059 91.1493 244.24 90.04L246.096 90.248C245.925 91.3147 245.749 92.312 245.568 93.24C245.387 94.1573 245.184 95.0427 244.96 95.896C244.747 96.7387 244.507 97.5813 244.24 98.424C243.984 99.2667 243.691 100.136 243.36 101.032C243.04 101.928 242.677 102.888 242.272 103.912L240.528 103.352ZM253.488 101.256C253.392 100.616 253.264 99.9333 253.104 99.208C252.955 98.472 252.779 97.736 252.576 97C252.373 96.264 252.16 95.5547 251.936 94.872L253.712 94.344C253.936 95.048 254.149 95.7787 254.352 96.536C254.565 97.2827 254.752 98.0347 254.912 98.792C255.072 99.5387 255.205 100.253 255.312 100.936L253.488 101.256ZM251.808 93.992C251.531 93.4053 251.259 92.8827 250.992 92.424C250.725 91.9653 250.427 91.512 250.096 91.064L251.424 90.296C251.765 90.7547 252.069 91.2293 252.336 91.72C252.613 92.2107 252.885 92.744 253.152 93.32L251.808 93.992ZM254.048 93.144C253.792 92.5467 253.536 92.0187 253.28 91.56C253.024 91.0907 252.741 90.6373 252.432 90.2L253.728 89.48C254.069 89.9493 254.368 90.4293 254.624 90.92C254.891 91.4107 255.147 91.9493 255.392 92.536L254.048 93.144ZM248.128 103.528C247.851 103.528 247.504 103.491 247.088 103.416C246.672 103.352 246.235 103.256 245.776 103.128C245.328 103.011 244.896 102.877 244.48 102.728L244.912 101.112C245.264 101.219 245.611 101.325 245.952 101.432C246.304 101.528 246.624 101.608 246.912 101.672C247.211 101.725 247.44 101.752 247.6 101.752C247.941 101.752 248.224 101.597 248.448 101.288C248.672 100.968 248.837 100.472 248.944 99.8C249.061 99.1173 249.12 98.2427 249.12 97.176C249.12 96.5573 249.099 96.0613 249.056 95.688C249.013 95.304 248.923 95.016 248.784 94.824C248.656 94.632 248.459 94.504 248.192 94.44C247.925 94.376 247.568 94.344 247.12 94.344H240.336V92.68H246.944C247.68 92.68 248.293 92.712 248.784 92.776C249.285 92.8293 249.68 92.9413 249.968 93.112C250.267 93.2827 250.491 93.544 250.64 93.896C250.8 94.2373 250.901 94.696 250.944 95.272C250.997 95.8373 251.024 96.5467 251.024 97.4C251.024 98.7867 250.923 99.9333 250.72 100.84C250.517 101.747 250.197 102.424 249.76 102.872C249.333 103.309 248.789 103.528 248.128 103.528ZM263.344 104.472V100.056H257.328V98.472H263.344V97.64H262.576V96.216H266.064V95H262.576V93.608H266.064V92.472H262.576V97.64H260.72V90.968H267.92V97.64H265.296V98.472H271.312V100.056H265.296V104.472H263.344ZM257.488 104.264L256.784 102.696C258.267 102.227 259.541 101.725 260.608 101.192C261.675 100.659 262.56 100.099 263.264 99.512L264.4 100.36C263.632 101.096 262.672 101.795 261.52 102.456C260.368 103.117 259.024 103.72 257.488 104.264ZM257.424 97.896L256.752 96.36C257.381 96.1147 257.973 95.8587 258.528 95.592C259.093 95.3253 259.611 95.0533 260.08 94.776L260.784 96.248C260.304 96.536 259.781 96.8187 259.216 97.096C258.661 97.3733 258.064 97.64 257.424 97.896ZM271.152 104.264C269.616 103.72 268.272 103.117 267.12 102.456C265.968 101.795 265.008 101.096 264.24 100.36L265.376 99.512C266.08 100.099 266.965 100.659 268.032 101.192C269.099 101.725 270.373 102.227 271.856 102.696L271.152 104.264ZM259.52 94.088C259.168 93.768 258.763 93.4213 258.304 93.048C257.856 92.664 257.371 92.2853 256.848 91.912L257.952 90.584C258.464 90.9573 258.949 91.336 259.408 91.72C259.867 92.104 260.272 92.4613 260.624 92.792L259.52 94.088ZM264.608 92.12L262.656 91.976C262.773 91.624 262.885 91.2613 262.992 90.888C263.099 90.5147 263.2 90.1147 263.296 89.688L265.248 89.8C265.152 90.2267 265.051 90.632 264.944 91.016C264.837 91.4 264.725 91.768 264.608 92.12ZM271.104 97.88C270.603 97.5813 270.075 97.2987 269.52 97.032C268.965 96.7547 268.384 96.4933 267.776 96.248L268.544 94.776C269.184 95.0213 269.781 95.2773 270.336 95.544C270.901 95.8 271.424 96.072 271.904 96.36L271.104 97.88ZM269.104 94.056L267.968 92.792C268.437 92.4507 268.901 92.0933 269.36 91.72C269.819 91.336 270.245 90.9627 270.64 90.6L271.792 91.848C271.429 92.1893 271.019 92.552 270.56 92.936C270.101 93.3093 269.616 93.6827 269.104 94.056ZM280.672 103.832C279.456 103.832 278.459 103.64 277.68 103.256C276.912 102.883 276.341 102.301 275.968 101.512C275.605 100.723 275.424 99.7093 275.424 98.472V90.68H277.376V98.472C277.376 99.72 277.637 100.627 278.16 101.192C278.683 101.747 279.52 102.024 280.672 102.024C281.515 102.024 282.256 101.869 282.896 101.56C283.547 101.251 284.133 100.749 284.656 100.056C285.189 99.352 285.701 98.4187 286.192 97.256L287.968 97.976C287.541 99.0427 287.083 99.9493 286.592 100.696C286.112 101.432 285.584 102.035 285.008 102.504C284.443 102.963 283.803 103.299 283.088 103.512C282.373 103.725 281.568 103.832 280.672 103.832ZM44.592 132.592C44.1227 132.592 43.6693 132.475 43.232 132.24C42.7947 132.005 42.4 131.691 42.048 131.296C41.696 130.901 41.4187 130.464 41.216 129.984C41.0133 129.493 40.912 128.997 40.912 128.496C40.912 127.696 41.1787 127.013 41.712 126.448C42.256 125.872 43.0293 125.435 44.032 125.136C45.0347 124.827 46.2293 124.672 47.616 124.672C49.0453 124.672 50.4053 124.864 51.696 125.248C52.9867 125.621 54.2613 126.203 55.52 126.992L54.848 128.608C54.0267 128.064 53.232 127.627 52.464 127.296C51.696 126.965 50.9173 126.725 50.128 126.576C49.3387 126.416 48.5013 126.336 47.616 126.336C46.0693 126.336 44.864 126.528 44 126.912C43.1467 127.285 42.72 127.813 42.72 128.496C42.72 128.731 42.768 128.976 42.864 129.232C42.96 129.488 43.0933 129.728 43.264 129.952C43.4347 130.165 43.6107 130.341 43.792 130.48C43.984 130.608 44.1707 130.672 44.352 130.672C44.704 130.672 45.024 130.459 45.312 130.032C45.6 129.595 45.8453 128.965 46.048 128.144C46.2507 127.323 46.4053 126.325 46.512 125.152C46.6293 123.968 46.688 122.635 46.688 121.152L47.152 121.696H41.568V120.08H48.64V120.24C48.64 122.267 48.5547 124.053 48.384 125.6C48.2133 127.136 47.9573 128.421 47.616 129.456C47.2747 130.491 46.848 131.275 46.336 131.808C45.8347 132.331 45.2533 132.592 44.592 132.592ZM49.2 131.52C49.5947 131.232 49.9253 130.949 50.192 130.672C50.4587 130.384 50.6773 130.048 50.848 129.664C51.0187 129.28 51.1467 128.816 51.232 128.272C51.3173 127.717 51.376 127.04 51.408 126.24C51.44 125.44 51.456 124.469 51.456 123.328V120.496H53.312V123.424C53.312 124.661 53.2907 125.733 53.248 126.64C53.2053 127.536 53.1253 128.304 53.008 128.944C52.8907 129.584 52.7253 130.133 52.512 130.592C52.3093 131.051 52.048 131.461 51.728 131.824C51.408 132.187 51.0133 132.544 50.544 132.896L49.2 131.52ZM67.232 132.176C66.272 132.176 65.4133 132.043 64.656 131.776C63.9093 131.509 63.3227 131.141 62.896 130.672C62.48 130.192 62.272 129.648 62.272 129.04C62.272 127.952 62.9813 126.832 64.4 125.68L65.776 126.72C65.2107 127.179 64.7947 127.579 64.528 127.92C64.272 128.261 64.144 128.587 64.144 128.896C64.144 129.216 64.272 129.493 64.528 129.728C64.784 129.963 65.1413 130.144 65.6 130.272C66.0587 130.4 66.6027 130.464 67.232 130.464C67.7653 130.464 68.3627 130.427 69.024 130.352C69.696 130.267 70.3733 130.155 71.056 130.016L71.312 131.696C70.6187 131.845 69.92 131.963 69.216 132.048C68.5227 132.133 67.8613 132.176 67.232 132.176ZM63.008 122.496V120.768H71.216V122.496H63.008ZM59.152 132.88C58.8747 131.781 58.672 130.699 58.544 129.632C58.416 128.565 58.352 127.435 58.352 126.24C58.352 125.056 58.416 123.936 58.544 122.88C58.672 121.813 58.8747 120.731 59.152 119.632L61.056 119.872C60.8 120.907 60.608 121.947 60.48 122.992C60.3627 124.027 60.304 125.109 60.304 126.24C60.304 127.371 60.3627 128.459 60.48 129.504C60.608 130.549 60.8 131.579 61.056 132.592L59.152 132.88ZM81.296 132.896C80.1013 132.896 79.1733 132.619 78.512 132.064C77.8507 131.52 77.52 130.768 77.52 129.808C77.52 128.816 77.8613 128.053 78.544 127.52C79.2267 126.976 80.1867 126.704 81.424 126.704C81.9467 126.704 82.464 126.784 82.976 126.944C83.488 127.104 84.0213 127.349 84.576 127.68C85.1307 128.011 85.7227 128.437 86.352 128.96C86.992 129.483 87.68 130.117 88.416 130.864L87.264 132.144C86.4107 131.312 85.6907 130.64 85.104 130.128C84.528 129.605 84.032 129.211 83.616 128.944C83.2107 128.667 82.8373 128.48 82.496 128.384C82.1653 128.288 81.808 128.24 81.424 128.24C80.6987 128.24 80.1653 128.363 79.824 128.608C79.4933 128.853 79.328 129.232 79.328 129.744C79.328 130.267 79.4933 130.661 79.824 130.928C80.1547 131.184 80.6453 131.312 81.296 131.312C82.0107 131.312 82.544 131.157 82.896 130.848C83.2587 130.539 83.44 130.096 83.44 129.52V121.248C84.3787 121.248 85.248 121.264 86.048 121.296C86.8587 121.317 87.6533 121.355 88.432 121.408L88.32 123.088C87.6267 123.035 86.9013 122.997 86.144 122.976C85.3973 122.944 84.5973 122.928 83.744 122.928L85.296 121.728V129.328C85.296 130.501 84.96 131.392 84.288 132C83.616 132.597 82.6187 132.896 81.296 132.896ZM74.016 130.352C74.4853 129.083 74.9173 127.835 75.312 126.608C75.7067 125.371 76.0747 124.123 76.416 122.864C76.7573 121.595 77.072 120.293 77.36 118.96L79.168 119.136C78.88 120.501 78.56 121.84 78.208 123.152C77.8667 124.453 77.4933 125.744 77.088 127.024C76.6933 128.304 76.256 129.589 75.776 130.88L74.016 130.352ZM73.888 122.928V121.248H81.952V122.928H73.888ZM93.328 131.04C95.3867 131.04 97.0453 130.864 98.304 130.512C99.5733 130.16 100.491 129.589 101.056 128.8C101.632 128 101.92 126.971 101.92 125.712C101.92 124.432 101.648 123.477 101.104 122.848C100.571 122.208 99.7493 121.888 98.64 121.888C98.0213 121.888 97.44 121.989 96.896 122.192C96.3627 122.395 95.8933 122.683 95.488 123.056C95.0827 123.429 94.7573 123.872 94.512 124.384C94.2773 124.896 94.16 125.461 94.16 126.08V128.176H92.304V119.76H94.16V123.168H93.44C93.824 122.507 94.2773 121.947 94.8 121.488C95.3333 121.029 95.936 120.683 96.608 120.448C97.2907 120.203 98.032 120.08 98.832 120.08C100.464 120.08 101.712 120.565 102.576 121.536C103.451 122.496 103.888 123.888 103.888 125.712C103.888 127.355 103.515 128.699 102.768 129.744C102.032 130.789 100.896 131.557 99.36 132.048C97.824 132.549 95.8453 132.8 93.424 132.8L93.328 131.04ZM112.432 132.848C111.173 132.848 110.197 132.597 109.504 132.096C108.821 131.605 108.48 130.901 108.48 129.984C108.48 129.067 108.821 128.368 109.504 127.888C110.187 127.408 111.163 127.168 112.432 127.168C113.125 127.168 113.797 127.243 114.448 127.392C115.099 127.541 115.755 127.781 116.416 128.112C117.088 128.443 117.792 128.875 118.528 129.408C119.264 129.931 120.059 130.571 120.912 131.328L119.696 132.544C118.885 131.851 118.144 131.264 117.472 130.784C116.811 130.293 116.197 129.899 115.632 129.6C115.067 129.291 114.523 129.072 114 128.944C113.488 128.805 112.965 128.736 112.432 128.736C111.067 128.736 110.384 129.141 110.384 129.952C110.384 130.368 110.555 130.688 110.896 130.912C111.237 131.125 111.739 131.232 112.4 131.232C113.189 131.232 113.771 131.067 114.144 130.736C114.517 130.405 114.704 129.899 114.704 129.216V119.136H116.512V129.216C116.512 130.421 116.171 131.328 115.488 131.936C114.816 132.544 113.797 132.848 112.432 132.848ZM108.368 125.632V124.048H120.752V125.632H108.368ZM108.208 122.368V120.752H120.912V122.368H108.208ZM130.912 132.832C129.696 132.832 128.699 132.64 127.92 132.256C127.152 131.883 126.581 131.301 126.208 130.512C125.845 129.723 125.664 128.709 125.664 127.472V119.68H127.616V127.472C127.616 128.72 127.877 129.627 128.4 130.192C128.923 130.747 129.76 131.024 130.912 131.024C131.755 131.024 132.496 130.869 133.136 130.56C133.787 130.251 134.373 129.749 134.896 129.056C135.429 128.352 135.941 127.419 136.432 126.256L138.208 126.976C137.781 128.043 137.323 128.949 136.832 129.696C136.352 130.432 135.824 131.035 135.248 131.504C134.683 131.963 134.043 132.299 133.328 132.512C132.613 132.725 131.808 132.832 130.912 132.832ZM141.232 132.672C141.68 131.232 142.085 129.771 142.448 128.288C142.821 126.795 143.147 125.28 143.424 123.744C143.712 122.197 143.957 120.64 144.16 119.072L146.064 119.152C145.883 120.688 145.648 122.24 145.36 123.808C145.083 125.376 144.757 126.933 144.384 128.48C144.011 130.016 143.595 131.525 143.136 133.008L141.232 132.672ZM151.152 132.688C150.181 132.688 149.339 132.571 148.624 132.336C147.909 132.112 147.355 131.797 146.96 131.392C146.565 130.976 146.368 130.48 146.368 129.904C146.368 129.477 146.512 129.056 146.8 128.64C147.088 128.224 147.531 127.792 148.128 127.344L149.568 128.368C149.163 128.624 148.859 128.864 148.656 129.088C148.464 129.301 148.368 129.515 148.368 129.728C148.368 129.973 148.48 130.192 148.704 130.384C148.939 130.565 149.264 130.709 149.68 130.816C150.107 130.923 150.597 130.976 151.152 130.976C151.653 130.976 152.165 130.949 152.688 130.896C153.211 130.843 153.755 130.763 154.32 130.656L154.528 132.368C153.941 132.475 153.376 132.555 152.832 132.608C152.288 132.661 151.728 132.688 151.152 132.688ZM141.008 122.736V121.072H152.272V122.736H141.008ZM146.992 124.544C148.251 124.427 149.483 124.336 150.688 124.272C151.904 124.208 153.12 124.176 154.336 124.176V125.856C153.141 125.856 151.941 125.888 150.736 125.952C149.541 126.005 148.331 126.101 147.104 126.24L146.992 124.544Z" fill="#282828"/>
<path opacity="0.6" d="M49.016 155.68C49.016 153.09 50.122 150.808 52.432 148.946C52.558 148.834 52.712 148.778 52.852 148.778C53.118 148.778 53.37 149.016 53.37 149.282C53.37 149.464 53.3 149.59 53.16 149.716C51.144 151.438 50.304 153.384 50.304 155.68C50.304 157.976 51.144 159.922 53.16 161.644C53.3 161.77 53.37 161.896 53.37 162.078C53.37 162.344 53.118 162.582 52.852 162.582C52.712 162.582 52.558 162.526 52.432 162.414C50.122 160.552 49.016 158.27 49.016 155.68ZM56.772 152.404L56.59 154.588C57.024 154.35 57.444 154.238 57.864 154.238C60.02 154.238 61.546 155.442 61.546 157.57C61.546 159.698 59.978 161.098 57.892 161.098C56.744 161.098 55.708 160.762 54.994 160.188C54.756 159.992 54.686 159.81 54.686 159.558C54.686 159.138 55.022 158.83 55.484 158.83C55.61 158.83 55.736 158.872 55.904 158.998C56.632 159.53 57.178 159.698 57.864 159.698C59.04 159.698 59.866 158.858 59.866 157.626C59.866 156.352 59.082 155.61 57.864 155.61C57.43 155.61 56.996 155.75 56.66 155.96C56.352 156.142 56.226 156.226 55.96 156.226C55.47 156.226 55.05 155.932 55.05 155.4V155.316L55.344 151.606C55.4 150.948 55.918 150.542 56.66 150.542H60.468C60.888 150.542 61.14 150.85 61.14 151.27C61.14 151.69 60.888 151.998 60.468 151.998H57.234C56.926 151.998 56.8 152.11 56.772 152.404ZM66.4152 150.318C68.5432 150.318 69.9572 151.83 69.9572 155.708C69.9572 159.586 68.5432 161.098 66.4152 161.098C64.2872 161.098 62.9012 159.586 62.9012 155.708C62.9012 151.83 64.2872 150.318 66.4152 150.318ZM66.4152 151.718C65.2532 151.718 64.5532 152.698 64.5532 155.708C64.5532 158.718 65.2532 159.698 66.4152 159.698C67.5912 159.698 68.3052 158.718 68.3052 155.708C68.3052 152.698 67.5912 151.718 66.4152 151.718ZM73.0903 161.7V155.092C72.8523 155.456 72.6003 155.806 72.3483 156.114C72.1663 156.338 71.9423 156.436 71.7323 156.436C71.3263 156.436 70.9483 156.1 70.9483 155.694C70.9483 155.526 71.0043 155.358 71.1443 155.176C72.2503 153.804 73.2723 151.69 73.8323 149.814C73.9443 149.45 74.2523 149.282 74.5743 149.282C74.9943 149.282 75.4143 149.548 75.4143 149.996C75.4143 150.066 75.4003 150.15 75.3723 150.234C75.0643 151.284 74.5603 152.46 73.9863 153.552C74.3223 153.594 74.6163 153.79 74.6163 154.154V161.7C74.6163 162.078 74.2383 162.274 73.8603 162.274C73.4683 162.274 73.0903 162.078 73.0903 161.7ZM79.2503 153.258L83.1003 152.922H83.1563C83.5343 152.922 83.7303 153.286 83.7303 153.65C83.7303 153.972 83.5763 154.28 83.2263 154.308L79.4323 154.644C79.6283 155.848 79.9223 156.954 80.3283 157.92C81.1123 159.782 81.7563 160.244 82.1763 160.244C82.3583 160.244 82.5263 160.062 82.6243 159.152C82.6663 158.718 82.9883 158.522 83.3243 158.522C83.7023 158.522 84.1083 158.788 84.1083 159.264V159.362C83.9123 161.308 83.1843 161.896 82.2463 161.896C81.0143 161.896 79.8243 160.72 78.8303 158.34C78.3963 157.29 78.0743 156.1 77.8643 154.77L75.8203 154.952H75.7643C75.3863 154.952 75.1903 154.588 75.1903 154.238C75.1903 153.916 75.3583 153.608 75.6943 153.58L77.6963 153.398C77.5843 152.306 77.5283 151.13 77.5283 149.898C77.5283 149.464 77.9203 149.254 78.3123 149.254C78.7043 149.254 79.0963 149.464 79.0963 149.898C79.0963 151.088 79.1383 152.208 79.2503 153.258ZM80.9023 150.192C81.2803 150.472 81.6303 150.766 81.9243 151.06C82.0923 151.242 82.1763 151.438 82.1763 151.606C82.1763 152.012 81.8123 152.362 81.4203 152.362C81.2523 152.362 81.0703 152.278 80.9163 152.11C80.6223 151.774 80.3143 151.48 79.9643 151.2C79.7963 151.06 79.7123 150.892 79.7123 150.724C79.7123 150.374 80.0483 150.024 80.4403 150.024C80.5943 150.024 80.7483 150.08 80.9023 150.192ZM85.3683 161.42L96.9043 149.156C97.0303 149.03 97.1703 148.932 97.2963 148.932C97.6603 148.932 97.9683 149.226 97.9683 149.506C97.9683 149.66 97.9123 149.8 97.7723 149.94L86.2363 162.204C86.1103 162.33 85.9703 162.428 85.8443 162.428C85.4803 162.428 85.1723 162.134 85.1723 161.854C85.1723 161.7 85.2283 161.56 85.3683 161.42ZM111.408 153.874H109.378C109.238 154.42 109.028 155.12 108.776 155.722C108.412 156.59 107.95 157.388 107.39 158.116C108.524 158.69 109.644 159.334 110.652 160.048C110.918 160.23 111.03 160.482 111.03 160.72C111.03 161.14 110.666 161.546 110.218 161.546C110.05 161.546 109.868 161.49 109.686 161.364C108.636 160.594 107.474 159.88 106.312 159.278C104.744 160.664 102.784 161.462 100.572 161.882C100.502 161.896 100.446 161.896 100.376 161.896C99.9143 161.896 99.6483 161.546 99.6483 161.182C99.6483 160.874 99.8443 160.552 100.278 160.468C102.07 160.118 103.61 159.544 104.856 158.564C104.184 158.284 103.526 158.004 102.84 157.766L102.784 157.864C102.588 158.2 102.294 158.34 102.014 158.34C101.608 158.34 101.216 158.06 101.216 157.654C101.216 157.542 101.244 157.416 101.328 157.276C101.972 156.156 102.546 155.036 103.022 153.874H99.7323C99.3683 153.874 99.1723 153.538 99.1723 153.202C99.1723 152.866 99.3683 152.53 99.7323 152.53H103.54C103.862 151.62 104.142 150.668 104.422 149.646C104.52 149.296 104.842 149.128 105.164 149.128C105.57 149.128 105.976 149.366 105.976 149.786C105.976 149.842 105.962 149.898 105.948 149.968C105.71 150.85 105.458 151.704 105.164 152.53H111.408C111.786 152.53 111.982 152.866 111.982 153.202C111.982 153.538 111.786 153.874 111.408 153.874ZM107.726 153.874H104.674C104.296 154.784 103.904 155.68 103.47 156.562C104.324 156.828 105.164 157.122 105.976 157.472C106.83 156.436 107.404 155.176 107.726 153.874ZM121.18 160.356V157.584H119.052C118.702 157.584 118.534 157.234 118.534 156.898C118.534 156.548 118.702 156.212 119.052 156.212H121.18V153.874H119.57C119.402 154.252 119.22 154.616 119.038 154.952C118.856 155.288 118.562 155.428 118.296 155.428C117.932 155.428 117.596 155.176 117.596 154.784C117.596 154.644 117.638 154.49 117.736 154.322C118.282 153.384 118.716 152.236 118.996 150.976C119.08 150.598 119.388 150.416 119.682 150.416C120.046 150.416 120.41 150.668 120.41 151.088C120.41 151.144 120.41 151.186 120.396 151.242C120.312 151.676 120.2 152.11 120.06 152.53H121.18V149.87C121.18 149.45 121.558 149.24 121.936 149.24C122.314 149.24 122.692 149.45 122.692 149.87V152.53H125.254C125.618 152.53 125.8 152.866 125.8 153.202C125.8 153.538 125.618 153.874 125.254 153.874H122.692V156.212H124.75C125.1 156.212 125.282 156.548 125.282 156.898C125.282 157.234 125.1 157.584 124.75 157.584H122.692V160.356H125.548C125.898 160.356 126.08 160.692 126.08 161.042C126.08 161.378 125.898 161.728 125.548 161.728H117.834C117.498 161.728 117.316 161.378 117.316 161.042C117.316 160.692 117.498 160.356 117.834 160.356H121.18ZM116.294 149.772V161.616C116.294 162.036 115.916 162.246 115.538 162.246C115.146 162.246 114.768 162.036 114.768 161.616V149.772C114.768 149.352 115.146 149.156 115.538 149.156C115.916 149.156 116.294 149.352 116.294 149.772ZM113.452 152.558C113.494 152.236 113.746 152.082 113.998 152.082C114.292 152.082 114.572 152.278 114.572 152.628V152.698C114.516 153.328 114.362 154.168 114.18 154.77C114.082 155.078 113.844 155.218 113.606 155.218C113.312 155.218 113.032 155.008 113.032 154.686C113.032 154.63 113.032 154.56 113.06 154.49C113.242 153.902 113.382 153.104 113.452 152.558ZM117.512 152.012C117.652 152.432 117.778 152.936 117.834 153.314V153.412C117.834 153.79 117.526 154.014 117.246 154.014C117.008 154.014 116.784 153.874 116.728 153.552C116.658 153.132 116.56 152.6 116.462 152.264C116.448 152.208 116.434 152.138 116.434 152.082C116.434 151.788 116.7 151.606 116.966 151.606C117.19 151.606 117.414 151.732 117.512 152.012ZM131.554 155.68C131.554 158.27 130.448 160.552 128.138 162.414C128.012 162.526 127.858 162.582 127.718 162.582C127.452 162.582 127.2 162.344 127.2 162.078C127.2 161.896 127.27 161.77 127.41 161.644C129.426 159.922 130.266 157.976 130.266 155.68C130.266 153.384 129.426 151.438 127.41 149.716C127.27 149.59 127.2 149.464 127.2 149.282C127.2 149.016 127.452 148.778 127.718 148.778C127.858 148.778 128.012 148.834 128.138 148.946C130.448 150.808 131.554 153.09 131.554 155.68Z" fill="#282828"/>
<path d="M262.177 232L244.177 190L213 190L262.177 232Z" fill="#FFF464"/>
</svg>
