<svg width="320" height="295" viewBox="0 0 320 295" fill="none" xmlns="http://www.w3.org/2000/svg">
<rect width="320" height="165" rx="80" fill="#69BD83"/>
<path d="M42.22 52.64V36.8H57.78V52.64H55.38V51.66H44.62V49.74H55.38V47.28H44.62V45.44H55.38V43.02H44.62V41.16H55.38V38.78H44.62V52.64H42.22ZM49.92 38.22L47.48 37.9C47.7333 37.3267 47.96 36.7333 48.16 36.12C48.3733 35.4933 48.56 34.8333 48.72 34.14L51.18 34.44C51.0067 35.1333 50.8133 35.7933 50.6 36.42C50.4 37.0467 50.1733 37.6467 49.92 38.22ZM72.72 52.58C72.4 52.58 71.96 52.5667 71.4 52.54C70.8533 52.5133 70.1933 52.4733 69.42 52.42L69.38 50.32C70.0067 50.36 70.5867 50.3933 71.12 50.42C71.6667 50.4467 72.0933 50.46 72.4 50.46C72.6 50.46 72.78 50.42 72.94 50.34C73.1 50.26 73.24 50.1067 73.36 49.88C73.48 49.6533 73.5733 49.32 73.64 48.88C73.72 48.44 73.78 47.86 73.82 47.14C73.86 46.42 73.88 45.52 73.88 44.44V43.1H64.14V41.06H76.26V43.4C76.26 45.08 76.2267 46.4733 76.16 47.58C76.1067 48.6867 76 49.58 75.84 50.26C75.6933 50.9267 75.4867 51.4267 75.22 51.76C74.9533 52.0933 74.6133 52.3133 74.2 52.42C73.8 52.5267 73.3067 52.58 72.72 52.58ZM63.24 52.94L61.76 51.06C62.5867 50.62 63.3 50.1333 63.9 49.6C64.5133 49.0533 65.02 48.4333 65.42 47.74C65.82 47.0333 66.1267 46.22 66.34 45.3C66.5667 44.38 66.7133 43.3267 66.78 42.14L69.12 42.24C69.0533 43.6267 68.8867 44.86 68.62 45.94C68.3667 47.02 68 47.9867 67.52 48.84C67.0533 49.68 66.4667 50.4333 65.76 51.1C65.0533 51.7667 64.2133 52.38 63.24 52.94ZM62.08 44.04L60.42 42.36C61.6067 41.3333 62.6733 40.2133 63.62 39C64.5667 37.7733 65.3933 36.4533 66.1 35.04L68.26 35.8C67.54 37.36 66.66 38.8267 65.62 40.2C64.5933 41.5733 63.4133 42.8533 62.08 44.04ZM77.92 44.04C76.6 42.8533 75.42 41.5733 74.38 40.2C73.34 38.8267 72.46 37.36 71.74 35.8L73.9 35.04C74.6067 36.4533 75.4333 37.7733 76.38 39C77.3267 40.2133 78.3933 41.3333 79.58 42.36L77.92 44.04ZM91.7 49.54C92.4067 49.46 93.0533 49.26 93.64 48.94C94.24 48.6067 94.7533 48.1867 95.18 47.68C95.62 47.16 95.96 46.5667 96.2 45.9C96.44 45.2333 96.56 44.5133 96.56 43.74C96.56 42.6467 96.3067 41.6933 95.8 40.88C95.2933 40.0533 94.5867 39.42 93.68 38.98C92.7867 38.54 91.7467 38.32 90.56 38.32C89.5467 38.32 88.6067 38.4867 87.74 38.82C86.8733 39.1533 86.1067 39.62 85.44 40.22C84.7867 40.8067 84.2733 41.5 83.9 42.3C83.5267 43.0867 83.34 43.9333 83.34 44.84C83.34 45.4933 83.4467 46.12 83.66 46.72C83.8733 47.32 84.14 47.8133 84.46 48.2C84.7933 48.5733 85.14 48.76 85.5 48.76C86.02 48.76 86.52 48.2867 87 47.34C87.48 46.3933 87.9133 45.0333 88.3 43.26C88.7 41.4733 89.0333 39.3333 89.3 36.84L91.62 37.08C91.3267 39.56 90.9933 41.6867 90.62 43.46C90.2467 45.2333 89.82 46.6867 89.34 47.82C88.86 48.9533 88.3133 49.7933 87.7 50.34C87.0867 50.8733 86.3933 51.14 85.62 51.14C84.98 51.14 84.3867 50.98 83.84 50.66C83.2933 50.34 82.82 49.8933 82.42 49.32C82.02 48.7467 81.7067 48.08 81.48 47.32C81.2533 46.5467 81.14 45.72 81.14 44.84C81.14 43.5867 81.3733 42.4333 81.84 41.38C82.3067 40.3133 82.96 39.3933 83.8 38.62C84.64 37.8467 85.6333 37.2467 86.78 36.82C87.94 36.38 89.2067 36.16 90.58 36.16C92.1933 36.16 93.62 36.4667 94.86 37.08C96.1133 37.6933 97.0933 38.5667 97.8 39.7C98.5067 40.8333 98.86 42.18 98.86 43.74C98.86 44.7933 98.7 45.7733 98.38 46.68C98.0733 47.5867 97.6333 48.3933 97.06 49.1C96.4867 49.7933 95.8 50.36 95 50.8C94.2 51.24 93.3133 51.52 92.34 51.64L91.7 49.54ZM112.86 52.76C112.567 52.76 112.2 52.7533 111.76 52.74C111.333 52.7267 110.76 52.7 110.04 52.66L109.88 49.98C110.547 50.02 111.073 50.0467 111.46 50.06C111.847 50.0733 112.14 50.08 112.34 50.08C112.593 50.08 112.773 50.0667 112.88 50.04C113 50.0133 113.073 49.9467 113.1 49.84C113.127 49.72 113.14 49.5267 113.14 49.26V45.42H108.86V42.66H113.14V40.4H116.32V42.66H119.74V45.42H116.32V49.14C116.32 49.98 116.287 50.64 116.22 51.12C116.153 51.6133 116.007 51.9733 115.78 52.2C115.553 52.44 115.207 52.5933 114.74 52.66C114.287 52.7267 113.66 52.76 112.86 52.76ZM107.9 51.18C107.233 50.2867 106.587 49.5067 105.96 48.84C105.347 48.1733 104.727 47.5733 104.1 47.04C103.473 46.4933 102.8 45.98 102.08 45.5L103.7 43.24C104.5 43.7733 105.24 44.3333 105.92 44.92C106.613 45.5067 107.287 46.1467 107.94 46.84C108.607 47.52 109.28 48.3 109.96 49.18L107.9 51.18ZM102.36 53.3L100.62 51.06C101.447 50.4467 102.18 49.7733 102.82 49.04C103.473 48.3067 104.027 47.5 104.48 46.62C104.947 45.7267 105.32 44.7467 105.6 43.68C105.88 42.6133 106.073 41.44 106.18 40.16H100.46V37.56H108.94C108.94 39.5333 108.8 41.3133 108.52 42.9C108.253 44.4867 107.847 45.92 107.3 47.2C106.753 48.4667 106.067 49.6067 105.24 50.62C104.413 51.62 103.453 52.5133 102.36 53.3ZM102.52 47.72L100.46 45.44C100.767 44.4933 101.033 43.5067 101.26 42.48C101.5 41.44 101.707 40.2867 101.88 39.02C102.053 37.74 102.2 36.2733 102.32 34.62L105.14 34.72C104.953 37.48 104.633 39.9667 104.18 42.18C103.727 44.38 103.173 46.2267 102.52 47.72ZM115.62 42.76L113.32 41.1C113.933 40.3667 114.5 39.6133 115.02 38.84C115.54 38.0667 116.04 37.24 116.52 36.36L118.92 37.92C118.413 38.8133 117.887 39.66 117.34 40.46C116.807 41.2467 116.233 42.0133 115.62 42.76ZM109.58 37.92V35.24H118.92V37.92H109.58ZM125.96 51.96C125.293 51.96 124.66 51.8133 124.06 51.52C123.46 51.2267 122.92 50.8333 122.44 50.34C121.973 49.8333 121.607 49.2667 121.34 48.64C121.073 48.0133 120.94 47.3533 120.94 46.66C120.94 45.58 121.28 44.66 121.96 43.9C122.653 43.14 123.647 42.5533 124.94 42.14C126.233 41.7267 127.773 41.52 129.56 41.52C131.36 41.52 133.073 41.7533 134.7 42.22C136.34 42.6867 137.947 43.4 139.52 44.36L138.4 47.1C137.387 46.4333 136.407 45.9 135.46 45.5C134.527 45.0867 133.58 44.7933 132.62 44.62C131.673 44.4333 130.653 44.34 129.56 44.34C127.8 44.34 126.433 44.5467 125.46 44.96C124.487 45.36 124 45.9267 124 46.66C124 46.9 124.04 47.14 124.12 47.38C124.213 47.62 124.34 47.84 124.5 48.04C124.66 48.24 124.827 48.4067 125 48.54C125.173 48.66 125.353 48.72 125.54 48.72C125.913 48.72 126.247 48.4867 126.54 48.02C126.833 47.54 127.08 46.8467 127.28 45.94C127.48 45.02 127.627 43.88 127.72 42.52C127.827 41.16 127.88 39.5867 127.88 37.8L128.66 38.72H121.86V35.98H131.22V36.18C131.22 38.9 131.113 41.2533 130.9 43.24C130.7 45.2267 130.387 46.8667 129.96 48.16C129.533 49.44 128.987 50.3933 128.32 51.02C127.653 51.6467 126.867 51.96 125.96 51.96ZM131.08 50.04C131.56 49.68 131.96 49.3333 132.28 49C132.6 48.6533 132.86 48.26 133.06 47.82C133.26 47.3667 133.407 46.8133 133.5 46.16C133.607 45.5067 133.673 44.7067 133.7 43.76C133.74 42.8 133.76 41.6267 133.76 40.24V36.54H136.92V40.42C136.92 41.9667 136.887 43.3 136.82 44.42C136.767 45.54 136.667 46.5067 136.52 47.32C136.373 48.12 136.167 48.8133 135.9 49.4C135.647 49.9733 135.313 50.4933 134.9 50.96C134.487 51.4267 133.98 51.8867 133.38 52.34L131.08 50.04ZM151.46 49.04C152.127 48.9467 152.733 48.7533 153.28 48.46C153.827 48.1667 154.293 47.7933 154.68 47.34C155.08 46.8733 155.387 46.34 155.6 45.74C155.813 45.1267 155.92 44.4733 155.92 43.78C155.92 42.7667 155.687 41.8933 155.22 41.16C154.767 40.4133 154.127 39.84 153.3 39.44C152.487 39.04 151.553 38.84 150.5 38.84C149.593 38.84 148.74 39 147.94 39.32C147.153 39.6267 146.46 40.0533 145.86 40.6C145.26 41.1467 144.787 41.78 144.44 42.5C144.093 43.22 143.92 43.9933 143.92 44.82C143.92 45.3533 144.007 45.88 144.18 46.4C144.353 46.9067 144.573 47.3333 144.84 47.68C145.12 48.0133 145.4 48.18 145.68 48.18C146.093 48.18 146.5 47.7333 146.9 46.84C147.313 45.9333 147.693 44.6333 148.04 42.94C148.4 41.2333 148.72 39.1933 149 36.82L152.16 37.16C151.827 39.7733 151.46 41.9867 151.06 43.8C150.673 45.6133 150.233 47.08 149.74 48.2C149.247 49.32 148.68 50.14 148.04 50.66C147.4 51.1667 146.667 51.42 145.84 51.42C145.133 51.42 144.48 51.26 143.88 50.94C143.28 50.6067 142.76 50.1467 142.32 49.56C141.88 48.96 141.54 48.26 141.3 47.46C141.06 46.6467 140.94 45.7667 140.94 44.82C140.94 43.5267 141.173 42.34 141.64 41.26C142.107 40.1667 142.767 39.2267 143.62 38.44C144.473 37.6533 145.487 37.04 146.66 36.6C147.833 36.16 149.12 35.94 150.52 35.94C152.173 35.94 153.64 36.2533 154.92 36.88C156.213 37.4933 157.227 38.3867 157.96 39.56C158.693 40.72 159.06 42.1267 159.06 43.78C159.06 44.86 158.9 45.8667 158.58 46.8C158.273 47.72 157.827 48.54 157.24 49.26C156.653 49.9667 155.947 50.5467 155.12 51C154.307 51.44 153.393 51.7267 152.38 51.86L151.46 49.04ZM171.74 53.14V44.42H167.48V41.82H171.74V39.52H167.86V36.92H171.74V34.46H174.84V36.92H179V39.52H174.84V41.82H179.3V44.42H174.84V53.14H171.74ZM161.12 52.14V35.54H167.86V51.06H164.06V48.46H165.18V38.22H164.06V52.14H161.12ZM168.52 52.3L166.34 50.08C167.447 48.84 168.4 47.6 169.2 46.36C170 45.12 170.68 43.8467 171.24 42.54L173.34 43.06C172.807 44.82 172.153 46.44 171.38 47.92C170.607 49.3867 169.653 50.8467 168.52 52.3ZM177.94 52.3C176.833 50.8467 175.907 49.3867 175.16 47.92C174.413 46.44 173.78 44.82 173.26 43.06L175.44 42.54C175.92 43.7267 176.507 44.8867 177.2 46.02C177.907 47.14 178.74 48.2667 179.7 49.4L177.94 52.3ZM193.34 51.44C192.14 51.44 191.067 51.2667 190.12 50.92C189.187 50.56 188.453 50.0667 187.92 49.44C187.4 48.8133 187.14 48.1 187.14 47.3C187.14 45.8867 187.993 44.4267 189.7 42.92L192.06 44.64C191.433 45.2 190.987 45.6667 190.72 46.04C190.453 46.4 190.32 46.7333 190.32 47.04C190.32 47.36 190.44 47.6333 190.68 47.86C190.92 48.0733 191.267 48.24 191.72 48.36C192.173 48.48 192.713 48.54 193.34 48.54C193.953 48.54 194.68 48.4933 195.52 48.4C196.36 48.2933 197.227 48.16 198.12 48L198.56 50.84C197.653 51.0267 196.753 51.1733 195.86 51.28C194.967 51.3867 194.127 51.44 193.34 51.44ZM188.1 39.64V36.74H198.38V39.64H188.1ZM182.92 52.16C182.587 50.8 182.34 49.44 182.18 48.08C182.02 46.72 181.94 45.2933 181.94 43.8C181.94 42.3067 182.02 40.8867 182.18 39.54C182.34 38.18 182.587 36.82 182.92 35.46L186.16 35.82C185.853 37.0867 185.62 38.3867 185.46 39.72C185.313 41.04 185.24 42.4 185.24 43.8C185.24 45.2 185.313 46.5667 185.46 47.9C185.62 49.22 185.853 50.5133 186.16 51.78L182.92 52.16ZM213.12 49.44V42.4H209.38V39.8H218.7V42.4H216.3V49.44H213.12ZM201.96 53.06L200.52 50.6C201.267 50.1333 201.96 49.6533 202.6 49.16C203.253 48.6667 203.88 48.1267 204.48 47.54L206.22 49.56C205.62 50.2 204.973 50.7933 204.28 51.34C203.6 51.9 202.827 52.4733 201.96 53.06ZM202.82 49.24V44.62H200.86V42.02H205.84V49.24H202.82ZM214.14 52.74C212.513 52.74 211.12 52.7 209.96 52.62C208.813 52.54 207.847 52.4 207.06 52.2C206.287 52 205.647 51.7333 205.14 51.4C204.647 51.08 204.253 50.68 203.96 50.2C203.667 49.7067 203.427 49.1333 203.24 48.48L205.82 48.42C205.98 48.7 206.167 48.94 206.38 49.14C206.593 49.34 206.873 49.5067 207.22 49.64C207.58 49.7733 208.047 49.88 208.62 49.96C209.207 50.0267 209.947 50.0733 210.84 50.1C211.747 50.1267 212.853 50.14 214.16 50.14H219.18L219.02 52.74H214.14ZM208.22 49.36L205.72 47.66C206.067 47.1 206.36 46.4933 206.6 45.84C206.853 45.1867 207.06 44.4067 207.22 43.5C207.38 42.5933 207.5 41.5067 207.58 40.24C207.66 38.9733 207.7 37.4467 207.7 35.66H210.64C210.64 37.7 210.593 39.4467 210.5 40.9C210.407 42.3533 210.26 43.5933 210.06 44.62C209.873 45.6467 209.627 46.5333 209.32 47.28C209.027 48.0267 208.66 48.72 208.22 49.36ZM204.64 40.64C204.067 40 203.48 39.3667 202.88 38.74C202.28 38.1 201.687 37.4867 201.1 36.9L203.2 35.02C203.773 35.6067 204.353 36.22 204.94 36.86C205.527 37.4867 206.093 38.12 206.64 38.76L204.64 40.64ZM207.7 38.34V35.66C208.98 35.66 210.24 35.6133 211.48 35.52C212.733 35.4133 213.893 35.28 214.96 35.12C216.04 34.9467 216.933 34.7533 217.64 34.54L218.4 37.14C217.613 37.3667 216.64 37.5733 215.48 37.76C214.333 37.9333 213.093 38.0733 211.76 38.18C210.427 38.2867 209.073 38.34 207.7 38.34ZM224.2 48.58C226.72 48.58 228.74 48.4267 230.26 48.12C231.793 47.8133 232.9 47.3267 233.58 46.66C234.273 45.9933 234.62 45.1067 234.62 44C234.62 42.76 234.233 41.8733 233.46 41.34C232.7 40.8067 231.5 40.54 229.86 40.54C229.207 40.54 228.48 40.5867 227.68 40.68C226.88 40.7733 225.953 40.9267 224.9 41.14C223.847 41.3533 222.607 41.6333 221.18 41.98L220.56 38.8C222.733 38.32 224.593 37.9667 226.14 37.74C227.7 37.5133 229.027 37.4 230.12 37.4C231.853 37.4 233.313 37.6333 234.5 38.1C235.687 38.5667 236.58 39.2667 237.18 40.2C237.793 41.12 238.1 42.28 238.1 43.68C238.1 46.32 236.953 48.3133 234.66 49.66C232.38 50.9933 228.98 51.66 224.46 51.66L224.2 48.58ZM234.72 39.06C234.36 38.3533 234 37.7133 233.64 37.14C233.293 36.5667 232.893 35.9933 232.44 35.42L234.32 34.28C234.773 34.8533 235.187 35.44 235.56 36.04C235.933 36.64 236.3 37.2933 236.66 38L234.72 39.06ZM237.96 38.72C237.64 38 237.313 37.3467 236.98 36.76C236.66 36.16 236.293 35.56 235.88 34.96L237.8 33.96C238.227 34.56 238.6 35.1733 238.92 35.8C239.253 36.4133 239.58 37.0867 239.9 37.82L237.96 38.72ZM247.84 49.1C248.84 49.06 249.68 49 250.36 48.92C251.04 48.8267 251.58 48.7 251.98 48.54C252.393 48.38 252.707 48.1533 252.92 47.86C253.147 47.5667 253.293 47.1867 253.36 46.72C253.427 46.2533 253.46 45.68 253.46 45V35.06H256.7V45C256.7 46.0267 256.62 46.92 256.46 47.68C256.3 48.4267 256.033 49.0667 255.66 49.6C255.287 50.12 254.787 50.5467 254.16 50.88C253.547 51.2133 252.787 51.4667 251.88 51.64C250.973 51.8133 249.9 51.9333 248.66 52L247.84 49.1ZM246.9 41.56V38.74H259.34V41.56H246.9ZM242.9 52.16C242.553 50.8 242.3 49.44 242.14 48.08C241.98 46.72 241.9 45.2933 241.9 43.8C241.9 42.3067 241.98 40.8867 242.14 39.54C242.3 38.18 242.553 36.82 242.9 35.46L246.22 35.82C245.9 37.0867 245.66 38.3867 245.5 39.72C245.34 41.04 245.26 42.4 245.26 43.8C245.26 45.2 245.34 46.5667 245.5 47.9C245.66 49.22 245.9 50.5133 246.22 51.78L242.9 52.16ZM269.96 51.96C269.173 51.96 268.333 51.9267 267.44 51.86C266.56 51.8067 265.713 51.7267 264.9 51.62C264.087 51.5133 263.393 51.3933 262.82 51.26L263.1 48.44C263.887 48.5867 264.693 48.7133 265.52 48.82C266.347 48.9267 267.14 49.0067 267.9 49.06C268.66 49.1133 269.347 49.14 269.96 49.14C271.627 49.14 272.873 48.92 273.7 48.48C274.54 48.0267 274.96 47.3467 274.96 46.44C274.96 45.6933 274.673 45.1333 274.1 44.76C273.54 44.3733 272.707 44.18 271.6 44.18C270.813 44.18 270.013 44.2733 269.2 44.46C268.4 44.6333 267.633 44.8867 266.9 45.22C266.18 45.54 265.513 45.9267 264.9 46.38L262 45.8C262.187 44.88 262.34 44.0667 262.46 43.36C262.593 42.64 262.7 41.9733 262.78 41.36C262.873 40.7467 262.953 40.14 263.02 39.54L266.18 39.8C266.113 40.4533 266.033 41.1133 265.94 41.78C265.847 42.4333 265.733 43.1067 265.6 43.8L265.18 43.2C265.9 42.7733 266.613 42.4267 267.32 42.16C268.027 41.8933 268.747 41.7 269.48 41.58C270.213 41.4467 270.987 41.38 271.8 41.38C273.96 41.38 275.573 41.7933 276.64 42.62C277.72 43.4467 278.26 44.6933 278.26 46.36C278.26 48.24 277.567 49.6467 276.18 50.58C274.807 51.5 272.733 51.96 269.96 51.96ZM276 38.74C274.693 38.7667 273.427 38.7667 272.2 38.74C270.987 38.7133 269.78 38.6533 268.58 38.56C267.38 38.4533 266.147 38.3133 264.88 38.14L265.22 35.34C266.353 35.46 267.533 35.5667 268.76 35.66C269.987 35.7533 271.207 35.8267 272.42 35.88C273.647 35.92 274.84 35.94 276 35.94V38.74ZM56.08 87.74C55.12 87.74 54.4267 87.4933 54 87C53.5733 86.4933 53.36 85.68 53.36 84.56V77.74C53.36 77.0467 53.28 76.54 53.12 76.22C52.9733 75.8867 52.74 75.72 52.42 75.72C52.22 75.72 51.9733 75.7933 51.68 75.94C51.4 76.0867 51.0267 76.3467 50.56 76.72C50.0933 77.08 49.4933 77.5933 48.76 78.26C48.0267 78.9133 47.12 79.76 46.04 80.8H45.7C45.18 81.3333 44.6 81.9333 43.96 82.6C43.32 83.2533 42.6133 83.98 41.84 84.78L40.18 82.14C41.9 80.5133 43.3733 79.1467 44.6 78.04C45.84 76.92 46.8933 76.0067 47.76 75.3C48.6267 74.58 49.3667 74.0267 49.98 73.64C50.5933 73.2533 51.1333 72.9933 51.6 72.86C52.08 72.7133 52.5467 72.64 53 72.64C54.2 72.64 55.1 72.9933 55.7 73.7C56.3 74.3933 56.6 75.44 56.6 76.84V82.94C56.6 83.42 56.6133 83.7867 56.64 84.04C56.6667 84.28 56.7067 84.44 56.76 84.52C56.8267 84.6 56.92 84.64 57.04 84.64C57.2533 84.64 57.5467 84.5667 57.92 84.42C58.3067 84.2733 58.7533 84.0667 59.26 83.8L59.9 86.7C59.3 87.0333 58.6733 87.2867 58.02 87.46C57.3667 87.6467 56.72 87.74 56.08 87.74ZM44.68 88.44V76.56H40.44V73.84H44.68V71.16H47.84V88.44H44.68ZM69.6 88.46C67.5733 88.46 65.9933 88.12 64.86 87.44C63.74 86.76 63.18 85.8133 63.18 84.6C63.18 83.56 63.6133 82.7533 64.48 82.18C65.36 81.5933 66.56 81.3 68.08 81.3C69.4533 81.3 70.48 81.5533 71.16 82.06C71.84 82.5533 72.18 83.3 72.18 84.3C72.18 84.66 72.14 85.04 72.06 85.44C71.98 85.84 71.8667 86.2267 71.72 86.6L68.98 86.32C69.1267 85.9467 69.24 85.62 69.32 85.34C69.4 85.0467 69.44 84.8067 69.44 84.62C69.44 83.94 68.9133 83.6 67.86 83.6C67.3133 83.6 66.8933 83.6867 66.6 83.86C66.3067 84.02 66.16 84.26 66.16 84.58C66.16 85.0333 66.4133 85.38 66.92 85.62C67.4267 85.86 68.18 85.98 69.18 85.98C71.1533 85.98 72.5933 85.7067 73.5 85.16C74.42 84.6133 74.88 83.7667 74.88 82.62C74.88 81.6067 74.5067 80.8733 73.76 80.42C73.0267 79.9533 71.82 79.72 70.14 79.72C69.18 79.72 68.34 79.8 67.62 79.96C66.9 80.12 66.2133 80.3667 65.56 80.7L63.08 82.04L61.8 79.56L72.2 74.24V74.66H63V71.94H77.12V74.66L66.86 80.02L65.2 78.56C65.6533 78.4133 66.1733 78.2733 66.76 78.14C67.3467 78.0067 67.9533 77.8867 68.58 77.78C69.2067 77.6733 69.8133 77.5933 70.4 77.54C70.9867 77.4733 71.5067 77.44 71.96 77.44C73.96 77.44 75.5 77.8733 76.58 78.74C77.66 79.5933 78.2 80.82 78.2 82.42C78.2 84.3533 77.4533 85.8467 75.96 86.9C74.4667 87.94 72.3467 88.46 69.6 88.46ZM86.06 88.06C84.46 88.06 83.2267 87.72 82.36 87.04C81.4933 86.3733 81.06 85.4133 81.06 84.16C81.06 82.8933 81.4867 81.9333 82.34 81.28C83.1933 80.6133 84.4333 80.28 86.06 80.28C86.94 80.28 87.8133 80.38 88.68 80.58C89.56 80.7667 90.48 81.0733 91.44 81.5C92.4 81.9267 93.4333 82.4867 94.54 83.18C95.66 83.86 96.8933 84.6933 98.24 85.68L96.8 87.34C95.2533 86.1533 93.8533 85.1933 92.6 84.46C91.36 83.7133 90.2067 83.1667 89.14 82.82C88.0733 82.4733 87.0467 82.3 86.06 82.3C85.14 82.3 84.4533 82.4533 84 82.76C83.5467 83.0533 83.32 83.52 83.32 84.16C83.32 85.4133 84.1933 86.04 85.94 86.04C86.9267 86.04 87.6467 85.84 88.1 85.44C88.5533 85.0267 88.78 84.3867 88.78 83.52V70.88H91.16V74.1H98.24V76.12H91.16V83.52C91.16 85.0667 90.7467 86.2133 89.92 86.96C89.0933 87.6933 87.8067 88.06 86.06 88.06ZM104.78 85.92C106.407 85.8533 107.867 85.6933 109.16 85.44C110.453 85.1733 111.56 84.8267 112.48 84.4C113.4 83.9733 114.1 83.4867 114.58 82.94C115.06 82.38 115.3 81.76 115.3 81.08C115.3 80.32 114.96 79.7533 114.28 79.38C113.613 78.9933 112.587 78.8 111.2 78.8C110.52 78.8 109.767 78.8467 108.94 78.94C108.113 79.02 107.16 79.16 106.08 79.36C105 79.56 103.727 79.82 102.26 80.14L101.68 77.94C103.627 77.5 105.4 77.1733 107 76.96C108.6 76.7333 110.013 76.62 111.24 76.62C113.44 76.62 115.093 76.98 116.2 77.7C117.307 78.42 117.86 79.4933 117.86 80.92C117.86 81.9733 117.567 82.9333 116.98 83.8C116.407 84.6533 115.573 85.3933 114.48 86.02C113.387 86.6467 112.067 87.14 110.52 87.5C108.987 87.86 107.253 88.0733 105.32 88.14L104.78 85.92ZM114.86 74.32C113.94 74.32 112.9 74.3 111.74 74.26C110.593 74.2067 109.4 74.1333 108.16 74.04C106.933 73.9333 105.74 73.82 104.58 73.7L104.88 71.38C105.867 71.5133 106.94 71.6333 108.1 71.74C109.26 71.8467 110.427 71.9267 111.6 71.98C112.773 72.0333 113.86 72.06 114.86 72.06V74.32ZM133.24 87.22C132.04 87.22 130.967 87.0533 130.02 86.72C129.087 86.3867 128.353 85.9267 127.82 85.34C127.3 84.74 127.04 84.06 127.04 83.3C127.04 81.94 127.927 80.54 129.7 79.1L131.42 80.4C130.713 80.9733 130.193 81.4733 129.86 81.9C129.54 82.3267 129.38 82.7333 129.38 83.12C129.38 83.52 129.54 83.8667 129.86 84.16C130.18 84.4533 130.627 84.68 131.2 84.84C131.773 85 132.453 85.08 133.24 85.08C133.907 85.08 134.653 85.0333 135.48 84.94C136.32 84.8333 137.167 84.6933 138.02 84.52L138.34 86.62C137.473 86.8067 136.6 86.9533 135.72 87.06C134.853 87.1667 134.027 87.22 133.24 87.22ZM127.96 75.12V72.96H138.22V75.12H127.96ZM123.14 88.1C122.793 86.7267 122.54 85.3733 122.38 84.04C122.22 82.7067 122.14 81.2933 122.14 79.8C122.14 78.32 122.22 76.92 122.38 75.6C122.54 74.2667 122.793 72.9133 123.14 71.54L125.52 71.84C125.2 73.1333 124.96 74.4333 124.8 75.74C124.653 77.0333 124.58 78.3867 124.58 79.8C124.58 81.2133 124.653 82.5733 124.8 83.88C124.96 85.1867 125.2 86.4733 125.52 87.74L123.14 88.1ZM150.02 88.12C148.527 88.12 147.367 87.7733 146.54 87.08C145.713 86.4 145.3 85.46 145.3 84.26C145.3 83.02 145.727 82.0667 146.58 81.4C147.433 80.72 148.633 80.38 150.18 80.38C150.833 80.38 151.48 80.48 152.12 80.68C152.76 80.88 153.427 81.1867 154.12 81.6C154.813 82.0133 155.553 82.5467 156.34 83.2C157.14 83.8533 158 84.6467 158.92 85.58L157.48 87.18C156.413 86.14 155.513 85.3 154.78 84.66C154.06 84.0067 153.44 83.5133 152.92 83.18C152.413 82.8333 151.947 82.6 151.52 82.48C151.107 82.36 150.66 82.3 150.18 82.3C149.273 82.3 148.607 82.4533 148.18 82.76C147.767 83.0667 147.56 83.54 147.56 84.18C147.56 84.8333 147.767 85.3267 148.18 85.66C148.593 85.98 149.207 86.14 150.02 86.14C150.913 86.14 151.58 85.9467 152.02 85.56C152.473 85.1733 152.7 84.62 152.7 83.9V73.56C153.873 73.56 154.96 73.58 155.96 73.62C156.973 73.6467 157.967 73.6933 158.94 73.76L158.8 75.86C157.933 75.7933 157.027 75.7467 156.08 75.72C155.147 75.68 154.147 75.66 153.08 75.66L155.02 74.16V83.66C155.02 85.1267 154.6 86.24 153.76 87C152.92 87.7467 151.673 88.12 150.02 88.12ZM140.92 84.94C141.507 83.3533 142.047 81.7933 142.54 80.26C143.033 78.7133 143.493 77.1533 143.92 75.58C144.347 73.9933 144.74 72.3667 145.1 70.7L147.36 70.92C147 72.6267 146.6 74.3 146.16 75.94C145.733 77.5667 145.267 79.18 144.76 80.78C144.267 82.38 143.72 83.9867 143.12 85.6L140.92 84.94ZM140.76 75.66V73.56H150.84V75.66H140.76ZM166 85.16C168.013 85.16 169.647 85.0267 170.9 84.76C172.167 84.48 173.093 84.0467 173.68 83.46C174.267 82.8733 174.56 82.12 174.56 81.2C174.56 80.1733 174.22 79.4067 173.54 78.9C172.873 78.3933 171.853 78.14 170.48 78.14C169.933 78.14 169.333 78.1867 168.68 78.28C168.027 78.36 167.273 78.4867 166.42 78.66C165.58 78.8333 164.6 79.0667 163.48 79.36L163.02 77.1C164.713 76.7 166.18 76.4067 167.42 76.22C168.66 76.02 169.727 75.92 170.62 75.92C172.66 75.92 174.227 76.36 175.32 77.24C176.413 78.12 176.96 79.38 176.96 81.02C176.96 83.1 176.047 84.6733 174.22 85.74C172.407 86.8067 169.713 87.34 166.14 87.34L166 85.16ZM181.74 87.84C182.3 86.04 182.807 84.2133 183.26 82.36C183.727 80.4933 184.133 78.6 184.48 76.68C184.84 74.7467 185.147 72.8 185.4 70.84L187.78 70.94C187.553 72.86 187.26 74.8 186.9 76.76C186.553 78.72 186.147 80.6667 185.68 82.6C185.213 84.52 184.693 86.4067 184.12 88.26L181.74 87.84ZM194.14 87.86C192.927 87.86 191.873 87.7133 190.98 87.42C190.087 87.14 189.393 86.7467 188.9 86.24C188.407 85.72 188.16 85.1 188.16 84.38C188.16 83.8467 188.34 83.32 188.7 82.8C189.06 82.28 189.613 81.74 190.36 81.18L192.16 82.46C191.653 82.78 191.273 83.08 191.02 83.36C190.78 83.6267 190.66 83.8933 190.66 84.16C190.66 84.4667 190.8 84.74 191.08 84.98C191.373 85.2067 191.78 85.3867 192.3 85.52C192.833 85.6533 193.447 85.72 194.14 85.72C194.767 85.72 195.407 85.6867 196.06 85.62C196.713 85.5533 197.393 85.4533 198.1 85.32L198.36 87.46C197.627 87.5933 196.92 87.6933 196.24 87.76C195.56 87.8267 194.86 87.86 194.14 87.86ZM181.46 75.42V73.34H195.54V75.42H181.46ZM188.94 77.68C190.513 77.5333 192.053 77.42 193.56 77.34C195.08 77.26 196.6 77.22 198.12 77.22V79.32C196.627 79.32 195.127 79.36 193.62 79.44C192.127 79.5067 190.613 79.6267 189.08 79.8L188.94 77.68ZM208.96 82.62L208.6 72.4H211.56L211.22 82.62H208.96ZM208.68 87V84.28H211.5V87H208.68Z" fill="#282828"/>
<path opacity="0.6" d="M52.88 121.4C52.88 117.7 54.46 114.44 57.76 111.78C57.94 111.62 58.16 111.54 58.36 111.54C58.74 111.54 59.1 111.88 59.1 112.26C59.1 112.52 59 112.7 58.8 112.88C55.92 115.34 54.72 118.12 54.72 121.4C54.72 124.68 55.92 127.46 58.8 129.92C59 130.1 59.1 130.28 59.1 130.54C59.1 130.92 58.74 131.26 58.36 131.26C58.16 131.26 57.94 131.18 57.76 131.02C54.46 128.36 52.88 125.1 52.88 121.4ZM64.28 119.98H65.42C67.04 119.98 67.9 119.14 67.9 117.72C67.9 116.56 66.98 115.74 65.52 115.74C64.68 115.74 63.8 116.12 63.08 116.74C62.82 116.98 62.6 117.04 62.36 117.04C61.76 117.04 61.24 116.54 61.24 115.92C61.24 115.62 61.32 115.38 61.54 115.2C62.5 114.36 64.04 113.74 65.52 113.74C68.44 113.74 70.24 115.34 70.24 117.62C70.24 119.26 69.44 120.36 67.88 120.78C69.66 121.32 70.74 122.64 70.74 124.34C70.74 127.2 68.58 129.14 65.46 129.14C63.82 129.14 62.28 128.68 61.28 127.88C60.96 127.62 60.84 127.34 60.84 126.96C60.84 126.38 61.28 125.92 61.9 125.92C62.12 125.92 62.3 125.96 62.48 126.08C63.48 126.82 64.44 127.14 65.46 127.14C67.22 127.14 68.34 125.98 68.34 124.44C68.34 122.92 67.3 121.96 65.54 121.96H64.28C63.7 121.96 63.34 121.54 63.34 120.96C63.34 120.38 63.7 119.98 64.28 119.98ZM77.7359 113.74C80.7759 113.74 82.7959 115.9 82.7959 121.44C82.7959 126.98 80.7759 129.14 77.7359 129.14C74.6959 129.14 72.7159 126.98 72.7159 121.44C72.7159 115.9 74.6959 113.74 77.7359 113.74ZM77.7359 115.74C76.0759 115.74 75.0759 117.14 75.0759 121.44C75.0759 125.74 76.0759 127.14 77.7359 127.14C79.4159 127.14 80.4359 125.74 80.4359 121.44C80.4359 117.14 79.4159 115.74 77.7359 115.74ZM87.2719 130V120.56C86.9319 121.08 86.5719 121.58 86.2119 122.02C85.9519 122.34 85.6319 122.48 85.3319 122.48C84.7519 122.48 84.2119 122 84.2119 121.42C84.2119 121.18 84.2919 120.94 84.4919 120.68C86.0719 118.72 87.5319 115.7 88.3319 113.02C88.4919 112.5 88.9319 112.26 89.3919 112.26C89.9919 112.26 90.5919 112.64 90.5919 113.28C90.5919 113.38 90.5719 113.5 90.5319 113.62C90.0919 115.12 89.3719 116.8 88.5519 118.36C89.0319 118.42 89.4519 118.7 89.4519 119.22V130C89.4519 130.54 88.9119 130.82 88.3719 130.82C87.8119 130.82 87.2719 130.54 87.2719 130ZM96.0719 117.94L101.572 117.46H101.652C102.192 117.46 102.472 117.98 102.472 118.5C102.472 118.96 102.252 119.4 101.752 119.44L96.3319 119.92C96.6119 121.64 97.0319 123.22 97.6119 124.6C98.7319 127.26 99.6519 127.92 100.252 127.92C100.512 127.92 100.752 127.66 100.892 126.36C100.952 125.74 101.412 125.46 101.892 125.46C102.432 125.46 103.012 125.84 103.012 126.52V126.66C102.732 129.44 101.692 130.28 100.352 130.28C98.5919 130.28 96.8919 128.6 95.4719 125.2C94.8519 123.7 94.3919 122 94.0919 120.1L91.1719 120.36H91.0919C90.5519 120.36 90.2719 119.84 90.2719 119.34C90.2719 118.88 90.5119 118.44 90.9919 118.4L93.8519 118.14C93.6919 116.58 93.6119 114.9 93.6119 113.14C93.6119 112.52 94.1719 112.22 94.7319 112.22C95.2919 112.22 95.8519 112.52 95.8519 113.14C95.8519 114.84 95.9119 116.44 96.0719 117.94ZM98.4319 113.56C98.9719 113.96 99.4719 114.38 99.8919 114.8C100.132 115.06 100.252 115.34 100.252 115.58C100.252 116.16 99.7319 116.66 99.1719 116.66C98.9319 116.66 98.6719 116.54 98.4519 116.3C98.0319 115.82 97.5919 115.4 97.0919 115C96.8519 114.8 96.7319 114.56 96.7319 114.32C96.7319 113.82 97.2119 113.32 97.7719 113.32C97.9919 113.32 98.2119 113.4 98.4319 113.56ZM104.812 129.6L121.292 112.08C121.472 111.9 121.672 111.76 121.852 111.76C122.372 111.76 122.812 112.18 122.812 112.58C122.812 112.8 122.732 113 122.532 113.2L106.052 130.72C105.872 130.9 105.672 131.04 105.492 131.04C104.972 131.04 104.532 130.62 104.532 130.22C104.532 130 104.612 129.8 104.812 129.6ZM142.012 118.82H139.112C138.912 119.6 138.612 120.6 138.252 121.46C137.732 122.7 137.072 123.84 136.272 124.88C137.892 125.7 139.492 126.62 140.932 127.64C141.312 127.9 141.472 128.26 141.472 128.6C141.472 129.2 140.952 129.78 140.312 129.78C140.072 129.78 139.812 129.7 139.552 129.52C138.052 128.42 136.392 127.4 134.732 126.54C132.492 128.52 129.692 129.66 126.532 130.26C126.432 130.28 126.352 130.28 126.252 130.28C125.592 130.28 125.212 129.78 125.212 129.26C125.212 128.82 125.492 128.36 126.112 128.24C128.672 127.74 130.872 126.92 132.652 125.52C131.692 125.12 130.752 124.72 129.772 124.38L129.692 124.52C129.412 125 128.992 125.2 128.592 125.2C128.012 125.2 127.452 124.8 127.452 124.22C127.452 124.06 127.492 123.88 127.612 123.68C128.532 122.08 129.352 120.48 130.032 118.82H125.332C124.812 118.82 124.532 118.34 124.532 117.86C124.532 117.38 124.812 116.9 125.332 116.9H130.772C131.232 115.6 131.632 114.24 132.032 112.78C132.172 112.28 132.632 112.04 133.092 112.04C133.672 112.04 134.252 112.38 134.252 112.98C134.252 113.06 134.232 113.14 134.212 113.24C133.872 114.5 133.512 115.72 133.092 116.9H142.012C142.552 116.9 142.832 117.38 142.832 117.86C142.832 118.34 142.552 118.82 142.012 118.82ZM136.752 118.82H132.392C131.852 120.12 131.292 121.4 130.672 122.66C131.892 123.04 133.092 123.46 134.252 123.96C135.472 122.48 136.292 120.68 136.752 118.82ZM155.972 128.08V124.12H152.932C152.432 124.12 152.192 123.62 152.192 123.14C152.192 122.64 152.432 122.16 152.932 122.16H155.972V118.82H153.672C153.432 119.36 153.172 119.88 152.912 120.36C152.652 120.84 152.232 121.04 151.852 121.04C151.332 121.04 150.852 120.68 150.852 120.12C150.852 119.92 150.912 119.7 151.052 119.46C151.832 118.12 152.452 116.48 152.852 114.68C152.972 114.14 153.412 113.88 153.832 113.88C154.352 113.88 154.872 114.24 154.872 114.84C154.872 114.92 154.872 114.98 154.852 115.06C154.732 115.68 154.572 116.3 154.372 116.9H155.972V113.1C155.972 112.5 156.512 112.2 157.052 112.2C157.592 112.2 158.132 112.5 158.132 113.1V116.9H161.792C162.312 116.9 162.572 117.38 162.572 117.86C162.572 118.34 162.312 118.82 161.792 118.82H158.132V122.16H161.072C161.572 122.16 161.832 122.64 161.832 123.14C161.832 123.62 161.572 124.12 161.072 124.12H158.132V128.08H162.212C162.712 128.08 162.972 128.56 162.972 129.06C162.972 129.54 162.712 130.04 162.212 130.04H151.192C150.712 130.04 150.452 129.54 150.452 129.06C150.452 128.56 150.712 128.08 151.192 128.08H155.972ZM148.992 112.96V129.88C148.992 130.48 148.452 130.78 147.912 130.78C147.352 130.78 146.812 130.48 146.812 129.88V112.96C146.812 112.36 147.352 112.08 147.912 112.08C148.452 112.08 148.992 112.36 148.992 112.96ZM144.932 116.94C144.992 116.48 145.352 116.26 145.712 116.26C146.132 116.26 146.532 116.54 146.532 117.04V117.14C146.452 118.04 146.232 119.24 145.972 120.1C145.832 120.54 145.492 120.74 145.152 120.74C144.732 120.74 144.332 120.44 144.332 119.98C144.332 119.9 144.332 119.8 144.372 119.7C144.632 118.86 144.832 117.72 144.932 116.94ZM150.732 116.16C150.932 116.76 151.112 117.48 151.192 118.02V118.16C151.192 118.7 150.752 119.02 150.352 119.02C150.012 119.02 149.692 118.82 149.612 118.36C149.512 117.76 149.372 117 149.232 116.52C149.212 116.44 149.192 116.34 149.192 116.26C149.192 115.84 149.572 115.58 149.952 115.58C150.272 115.58 150.592 115.76 150.732 116.16ZM170.792 121.4C170.792 125.1 169.212 128.36 165.912 131.02C165.732 131.18 165.512 131.26 165.312 131.26C164.932 131.26 164.572 130.92 164.572 130.54C164.572 130.28 164.672 130.1 164.872 129.92C167.752 127.46 168.952 124.68 168.952 121.4C168.952 118.12 167.752 115.34 164.872 112.88C164.672 112.7 164.572 112.52 164.572 112.26C164.572 111.88 164.932 111.54 165.312 111.54C165.512 111.54 165.732 111.62 165.912 111.78C169.212 114.44 170.792 117.7 170.792 121.4Z" fill="#282828"/>
<path d="M61.0002 207L79.0001 165L110.177 165L61.0002 207Z" fill="#69BD83"/>
</svg>
