<svg width="400" height="295" viewBox="0 0 400 295" fill="none" xmlns="http://www.w3.org/2000/svg">
<rect width="400" height="241" rx="80" fill="#54B6CB"/>
<path d="M43.56 52.84V43.06H40.78V41.14H43.58V34.76H45.74V41.14H48.24V43.06H45.76V52.84H43.56ZM41.44 50.72L40.34 48.48C41.1533 47.4 41.82 46.3 42.34 45.18C42.8733 44.06 43.28 42.88 43.56 41.64L44.62 42.22C44.4867 43.3133 44.2733 44.38 43.98 45.42C43.6867 46.4467 43.32 47.4133 42.88 48.32C42.4533 49.2133 41.9733 50.0133 41.44 50.72ZM47.02 48.44C46.5667 47.4133 46.1067 46.3933 45.64 45.38C45.1867 44.3533 44.7133 43.3067 44.22 42.24L45.64 41.52C46.1333 42.4533 46.62 43.3933 47.1 44.34C47.58 45.2733 48.0533 46.22 48.52 47.18L47.02 48.44ZM41.72 40.72C41.5467 39.9333 41.36 39.14 41.16 38.34C40.9733 37.54 40.7867 36.8067 40.6 36.14L42.42 35.66C42.6067 36.3267 42.7933 37.06 42.98 37.86C43.1667 38.6467 43.3267 39.44 43.46 40.24L41.72 40.72ZM47.98 49.94L47.78 47.9L59.46 45.72L59.66 47.76L47.98 49.94ZM52.44 46.02C51.8667 45.38 51.2467 44.72 50.58 44.04C49.9133 43.3467 49.2067 42.6533 48.46 41.96L50.04 40.46C50.7867 41.14 51.5 41.82 52.18 42.5C52.86 43.18 53.48 43.84 54.04 44.48L52.44 46.02ZM47.58 40.74L45.82 40.18C46.06 39.46 46.2733 38.6933 46.46 37.88C46.66 37.0533 46.8133 36.28 46.92 35.56L48.8 35.84C48.6667 36.6133 48.4933 37.4333 48.28 38.3C48.0667 39.1533 47.8333 39.9667 47.58 40.74ZM55.4 52.84V34.76H57.74V52.84H55.4ZM53.54 40.94C53.0067 40.34 52.44 39.7333 51.84 39.12C51.2533 38.5067 50.62 37.8867 49.94 37.26L51.54 35.78C52.22 36.3933 52.86 37.0067 53.46 37.62C54.06 38.22 54.6267 38.8133 55.16 39.4L53.54 40.94ZM65.86 52.26V50.32H71.68V48.32H67.04V46.5H71.68V40.72H69.3V39.08H71.68V37.02H74.06V39.08H76.44V37.02H69.3V44.66H67.1V35.14H78.64V44.66H69.3V42.88H76.44V40.72H74.06V46.5H78.94V48.32H74.06V50.32H79.22V52.26H65.86ZM60.88 51.06L60.66 49.02C61.26 48.8733 61.8867 48.7133 62.54 48.54C63.2067 48.3533 63.8667 48.1533 64.52 47.94C65.1867 47.7133 65.8333 47.4867 66.46 47.26L66.52 49.24C65.92 49.48 65.2933 49.7133 64.64 49.94C63.9867 50.1667 63.34 50.3733 62.7 50.56C62.06 50.7467 61.4533 50.9133 60.88 51.06ZM62.46 48.96V43.62H60.96V41.56H62.46V37.86H60.76V35.76H66.48V37.86H64.74V41.56H66.36V43.62H64.74V48.96H62.46ZM91.7 49.54C92.4067 49.46 93.0533 49.26 93.64 48.94C94.24 48.6067 94.7533 48.1867 95.18 47.68C95.62 47.16 95.96 46.5667 96.2 45.9C96.44 45.2333 96.56 44.5133 96.56 43.74C96.56 42.6467 96.3067 41.6933 95.8 40.88C95.2933 40.0533 94.5867 39.42 93.68 38.98C92.7867 38.54 91.7467 38.32 90.56 38.32C89.5467 38.32 88.6067 38.4867 87.74 38.82C86.8733 39.1533 86.1067 39.62 85.44 40.22C84.7867 40.8067 84.2733 41.5 83.9 42.3C83.5267 43.0867 83.34 43.9333 83.34 44.84C83.34 45.4933 83.4467 46.12 83.66 46.72C83.8733 47.32 84.14 47.8133 84.46 48.2C84.7933 48.5733 85.14 48.76 85.5 48.76C86.02 48.76 86.52 48.2867 87 47.34C87.48 46.3933 87.9133 45.0333 88.3 43.26C88.7 41.4733 89.0333 39.3333 89.3 36.84L91.62 37.08C91.3267 39.56 90.9933 41.6867 90.62 43.46C90.2467 45.2333 89.82 46.6867 89.34 47.82C88.86 48.9533 88.3133 49.7933 87.7 50.34C87.0867 50.8733 86.3933 51.14 85.62 51.14C84.98 51.14 84.3867 50.98 83.84 50.66C83.2933 50.34 82.82 49.8933 82.42 49.32C82.02 48.7467 81.7067 48.08 81.48 47.32C81.2533 46.5467 81.14 45.72 81.14 44.84C81.14 43.5867 81.3733 42.4333 81.84 41.38C82.3067 40.3133 82.96 39.3933 83.8 38.62C84.64 37.8467 85.6333 37.2467 86.78 36.82C87.94 36.38 89.2067 36.16 90.58 36.16C92.1933 36.16 93.62 36.4667 94.86 37.08C96.1133 37.6933 97.0933 38.5667 97.8 39.7C98.5067 40.8333 98.86 42.18 98.86 43.74C98.86 44.7933 98.7 45.7733 98.38 46.68C98.0733 47.5867 97.6333 48.3933 97.06 49.1C96.4867 49.7933 95.8 50.36 95 50.8C94.2 51.24 93.3133 51.52 92.34 51.64L91.7 49.54ZM101.36 51.56V49.4H108.74V38.2H101.96V36.04H118.04V38.2H111.26V49.4H118.64V51.56H101.36ZM126.58 52.26V50.28H131.94V48.52H127.82V46.76H131.94V45.12H127.38V43.26H139.08V45.12H134.34V46.76H138.64V48.52H134.34V50.28H139.38V52.26H126.58ZM121.52 49.88L120.42 47.56C121.207 46.2267 121.82 44.9467 122.26 43.72C122.7 42.48 122.98 41.2667 123.1 40.08L124 41.4C123.76 43.4 123.433 45.0733 123.02 46.42C122.607 47.7667 122.107 48.92 121.52 49.88ZM122.98 52.84V41.78H120.82V39.78H122.98V36.34H125.18V39.78H127.32V41.78H125.18V52.84H122.98ZM126.28 47.32C125.88 46.4133 125.46 45.5 125.02 44.58C124.593 43.6467 124.14 42.7 123.66 41.74L124.82 40.68C125.38 41.7067 125.907 42.68 126.4 43.6C126.907 44.52 127.38 45.4 127.82 46.24L126.28 47.32ZM121.16 37.76L120.96 35.88C121.973 35.7867 122.993 35.64 124.02 35.44C125.06 35.24 126.04 35.0067 126.96 34.74L127.5 36.54C126.7 36.82 125.753 37.0667 124.66 37.28C123.58 37.4933 122.413 37.6533 121.16 37.76ZM127.84 42.12V35.34H138.5V42.12H130.18V40.32H136.18V37.32H130.18V42.12H127.84ZM153.24 51.22C152.04 51.22 150.967 51.0533 150.02 50.72C149.087 50.3867 148.353 49.9267 147.82 49.34C147.3 48.74 147.04 48.06 147.04 47.3C147.04 45.94 147.927 44.54 149.7 43.1L151.42 44.4C150.713 44.9733 150.193 45.4733 149.86 45.9C149.54 46.3267 149.38 46.7333 149.38 47.12C149.38 47.52 149.54 47.8667 149.86 48.16C150.18 48.4533 150.627 48.68 151.2 48.84C151.773 49 152.453 49.08 153.24 49.08C153.907 49.08 154.653 49.0333 155.48 48.94C156.32 48.8333 157.167 48.6933 158.02 48.52L158.34 50.62C157.473 50.8067 156.6 50.9533 155.72 51.06C154.853 51.1667 154.027 51.22 153.24 51.22ZM147.96 39.12V36.96H158.22V39.12H147.96ZM143.14 52.1C142.793 50.7267 142.54 49.3733 142.38 48.04C142.22 46.7067 142.14 45.2933 142.14 43.8C142.14 42.32 142.22 40.92 142.38 39.6C142.54 38.2667 142.793 36.9133 143.14 35.54L145.52 35.84C145.2 37.1333 144.96 38.4333 144.8 39.74C144.653 41.0333 144.58 42.3867 144.58 43.8C144.58 45.2133 144.653 46.5733 144.8 47.88C144.96 49.1867 145.2 50.4733 145.52 51.74L143.14 52.1ZM166.84 49.52V42.2V34.78H169.1V42.2V49.52H166.84ZM161.96 39.04V37.12H178.04V39.04H161.96ZM171.92 50.22C172.747 50.06 173.46 49.8 174.06 49.44C174.673 49.0667 175.14 48.6 175.46 48.04C175.793 47.48 175.96 46.8667 175.96 46.2C175.96 45.44 175.747 44.7867 175.32 44.24C174.907 43.6933 174.313 43.2667 173.54 42.96C172.767 42.6533 171.847 42.5 170.78 42.5C169.807 42.5 168.907 42.6333 168.08 42.9C167.253 43.1533 166.533 43.5133 165.92 43.98C165.307 44.4467 164.833 44.9933 164.5 45.62C164.167 46.2333 164 46.9133 164 47.66C164 48.22 164.1 48.6667 164.3 49C164.513 49.32 164.8 49.48 165.16 49.48C165.507 49.48 165.933 49.3467 166.44 49.08C166.947 48.8133 167.507 48.44 168.12 47.96C168.747 47.48 169.387 46.9267 170.04 46.3C170.707 45.6733 171.353 45 171.98 44.28C172.607 43.56 173.187 42.8133 173.72 42.04L175.5 43.18C174.82 44.1533 174.107 45.0667 173.36 45.92C172.613 46.7733 171.853 47.5533 171.08 48.26C170.32 48.9533 169.567 49.5533 168.82 50.06C168.087 50.5533 167.38 50.9333 166.7 51.2C166.02 51.4667 165.393 51.6 164.82 51.6C163.873 51.6 163.12 51.2467 162.56 50.54C162.013 49.8333 161.74 48.9 161.74 47.74C161.74 46.7 161.953 45.7467 162.38 44.88C162.82 44.0133 163.427 43.26 164.2 42.62C164.987 41.9667 165.907 41.4667 166.96 41.12C168.013 40.76 169.16 40.58 170.4 40.58C172.053 40.58 173.46 40.8067 174.62 41.26C175.793 41.7 176.693 42.34 177.32 43.18C177.947 44.02 178.26 45.0267 178.26 46.2C178.26 47.1867 178.02 48.1 177.54 48.94C177.073 49.78 176.413 50.4867 175.56 51.06C174.72 51.6333 173.747 52.0133 172.64 52.2L171.92 50.22ZM189.54 52.26C187.567 52.26 186.033 51.94 184.94 51.3C183.86 50.66 183.32 49.76 183.32 48.6C183.32 47.6133 183.727 46.8467 184.54 46.3C185.367 45.74 186.5 45.46 187.94 45.46C189.3 45.46 190.32 45.7133 191 46.22C191.68 46.7133 192.02 47.46 192.02 48.46C192.02 48.82 191.967 49.2067 191.86 49.62C191.767 50.0333 191.627 50.46 191.44 50.9L189.24 50.66C189.427 50.2067 189.56 49.82 189.64 49.5C189.733 49.18 189.78 48.9 189.78 48.66C189.78 47.7533 189.113 47.3 187.78 47.3C187.1 47.3 186.567 47.4133 186.18 47.64C185.807 47.8533 185.62 48.1667 185.62 48.58C185.62 49.14 185.947 49.5867 186.6 49.92C187.253 50.24 188.14 50.4 189.26 50.4C191.407 50.4 193 50.0867 194.04 49.46C195.093 48.82 195.62 47.8467 195.62 46.54C195.62 45.4333 195.207 44.62 194.38 44.1C193.567 43.58 192.267 43.32 190.48 43.32C189.453 43.32 188.547 43.4133 187.76 43.6C186.973 43.7733 186.247 44.0467 185.58 44.42L182.94 45.94L181.98 44.1L193.34 37.78V38.16H183.16V36.14H196.84V38.16L187.08 43.54L185.84 42.52C186.253 42.3733 186.713 42.24 187.22 42.12C187.74 41.9867 188.267 41.88 188.8 41.8C189.347 41.7067 189.873 41.6333 190.38 41.58C190.887 41.5133 191.347 41.48 191.76 41.48C193.787 41.48 195.34 41.9067 196.42 42.76C197.5 43.6133 198.04 44.8267 198.04 46.4C198.04 48.28 197.3 49.7267 195.82 50.74C194.353 51.7533 192.26 52.26 189.54 52.26ZM210.56 49.72V34.48H218.72V36.6H213.02V49.72H210.56ZM222.86 47.36V41.6H237.14V47.36H225.32V45.86H234.68V45.12H225.32V43.74H234.68V43.08H225.32V47.36H222.86ZM222.28 52.54L220.46 51.42C220.967 50.9133 221.42 50.36 221.82 49.76C222.233 49.16 222.587 48.5467 222.88 47.92L224.8 48.68C224.507 49.3867 224.153 50.0667 223.74 50.72C223.327 51.36 222.84 51.9667 222.28 52.54ZM230.24 52.74C229.787 52.74 229.327 52.7333 228.86 52.72C228.407 52.72 228.007 52.7133 227.66 52.7C227.113 52.6733 226.673 52.62 226.34 52.54C226.007 52.4733 225.753 52.3533 225.58 52.18C225.42 52.0067 225.307 51.7467 225.24 51.4C225.187 51.0667 225.16 50.6133 225.16 50.04V48.2H227.58V49.78C227.58 50.1 227.593 50.3333 227.62 50.48C227.647 50.6267 227.707 50.72 227.8 50.76C227.907 50.7867 228.08 50.8133 228.32 50.84C228.533 50.8533 228.8 50.8667 229.12 50.88C229.44 50.8933 229.773 50.9 230.12 50.9C230.4 50.9 230.7 50.8933 231.02 50.88C231.353 50.8667 231.653 50.8533 231.92 50.84C232.253 50.8133 232.507 50.7867 232.68 50.76C232.867 50.72 233 50.6533 233.08 50.56C233.173 50.4533 233.24 50.2933 233.28 50.08C233.32 49.8667 233.36 49.5667 233.4 49.18L235.62 49.5C235.58 50.18 235.507 50.7133 235.4 51.1C235.307 51.5 235.16 51.8067 234.96 52.02C234.773 52.2333 234.507 52.38 234.16 52.46C233.813 52.5533 233.36 52.62 232.8 52.66C232.44 52.6867 232.053 52.7067 231.64 52.72C231.227 52.7333 230.76 52.74 230.24 52.74ZM231.54 50.56C231.06 50.1333 230.54 49.72 229.98 49.32C229.42 48.92 228.847 48.5467 228.26 48.2L229.64 46.82C230.227 47.1667 230.793 47.5333 231.34 47.92C231.887 48.2933 232.4 48.6867 232.88 49.1L231.54 50.56ZM237.62 52.44C237.26 51.76 236.847 51.08 236.38 50.4C235.927 49.72 235.44 49.06 234.92 48.42L236.94 47.5C237.447 48.1667 237.913 48.8333 238.34 49.5C238.78 50.1667 239.18 50.8533 239.54 51.56L237.62 52.44ZM226.08 40.46C225.8 39.8733 225.487 39.2933 225.14 38.72C224.807 38.1467 224.46 37.5933 224.1 37.06L226.18 36.2C226.553 36.76 226.913 37.34 227.26 37.94C227.607 38.54 227.933 39.1467 228.24 39.76L226.08 40.46ZM221.06 40.96V39.14H238.94V40.96H221.06ZM221.66 37.76V35.88H228.78V34.28H231.22V35.88H238.34V37.76H221.66ZM233.7 40.62L231.68 39.74C232.48 38.6867 233.12 37.5733 233.6 36.4L235.76 37.04C235.493 37.6533 235.187 38.2667 234.84 38.88C234.493 39.4933 234.113 40.0733 233.7 40.62ZM252.08 53.04V43.98H247.6V41.98H252.08V39.1H247.94V37.1H252.08V34.56H254.42V37.1H258.84V39.1H254.42V41.98H259.14V43.98H254.42V53.04H252.08ZM241.3 52.04V35.74H247.32V50.86H243.56V48.88H245.16V37.78H243.56V52.04H241.3ZM248.1 51.98L246.4 50.34C247.627 49.0733 248.68 47.8067 249.56 46.54C250.44 45.2733 251.167 43.96 251.74 42.6L253.42 43C252.847 44.6933 252.127 46.26 251.26 47.7C250.407 49.14 249.353 50.5667 248.1 51.98ZM258.16 51.98C256.973 50.5667 255.98 49.14 255.18 47.7C254.393 46.26 253.727 44.6933 253.18 43L254.88 42.6C255.387 43.88 256.02 45.1133 256.78 46.3C257.54 47.4867 258.46 48.68 259.54 49.88L258.16 51.98ZM269.44 37.88V53.12H261.28V51H266.98V37.88H269.44ZM291.56 48.12C291.56 46.5733 291.467 45.3533 291.28 44.46C291.107 43.5533 290.807 42.9067 290.38 42.52C289.967 42.1333 289.393 41.94 288.66 41.94C288.02 41.94 287.4 42.0933 286.8 42.4C286.213 42.7067 285.62 43.2 285.02 43.88C284.433 44.5467 283.787 45.44 283.08 46.56L281.12 45.44C281.787 44.4133 282.373 43.4667 282.88 42.6C283.4 41.7333 283.867 40.8867 284.28 40.06C284.707 39.22 285.093 38.3667 285.44 37.5C285.8 36.62 286.147 35.6667 286.48 34.64L288.84 35.02C288.427 36.26 287.987 37.4067 287.52 38.46C287.053 39.5 286.54 40.5333 285.98 41.56L285.44 41.24C286.027 40.8667 286.653 40.5867 287.32 40.4C288 40.2 288.68 40.1 289.36 40.1C290.467 40.1 291.353 40.3667 292.02 40.9C292.7 41.4333 293.193 42.2933 293.5 43.48C293.807 44.6533 293.96 46.2 293.96 48.12H291.56ZM291.36 52.18C289.307 52.18 287.7 51.8667 286.54 51.24C285.38 50.6267 284.8 49.7667 284.8 48.66C284.8 47.8867 285.093 47.1267 285.68 46.38C286.267 45.62 287.113 44.9067 288.22 44.24C289.34 43.5733 290.68 42.96 292.24 42.4C293.813 41.84 295.587 41.3533 297.56 40.94L297.92 42.9C296.28 43.2467 294.8 43.64 293.48 44.08C292.173 44.52 291.047 44.9867 290.1 45.48C289.167 45.96 288.447 46.4533 287.94 46.96C287.433 47.4667 287.18 47.96 287.18 48.44C287.18 49 287.54 49.44 288.26 49.76C288.993 50.0667 290.033 50.22 291.38 50.22C292.207 50.22 293.127 50.1667 294.14 50.06C295.153 49.94 296.247 49.7733 297.42 49.56L297.74 51.56C297.06 51.68 296.34 51.7867 295.58 51.88C294.82 51.9733 294.073 52.0467 293.34 52.1C292.62 52.1533 291.96 52.18 291.36 52.18ZM281.18 38.62V36.72H297.12V38.62H281.18ZM305.86 52.26V50.32H311.68V48.32H307.04V46.5H311.68V40.72H309.3V39.08H311.68V37.02H314.06V39.08H316.44V37.02H309.3V44.66H307.1V35.14H318.64V44.66H309.3V42.88H316.44V40.72H314.06V46.5H318.94V48.32H314.06V50.32H319.22V52.26H305.86ZM300.88 51.06L300.66 49.02C301.26 48.8733 301.887 48.7133 302.54 48.54C303.207 48.3533 303.867 48.1533 304.52 47.94C305.187 47.7133 305.833 47.4867 306.46 47.26L306.52 49.24C305.92 49.48 305.293 49.7133 304.64 49.94C303.987 50.1667 303.34 50.3733 302.7 50.56C302.06 50.7467 301.453 50.9133 300.88 51.06ZM302.46 48.96V43.62H300.96V41.56H302.46V37.86H300.76V35.76H306.48V37.86H304.74V41.56H306.36V43.62H304.74V48.96H302.46ZM322.4 52.92L320.54 51.4C320.713 50.96 320.86 50.4933 320.98 50C321.1 49.4933 321.2 48.9067 321.28 48.24C321.36 47.5733 321.42 46.76 321.46 45.8C321.5 44.84 321.52 43.6733 321.52 42.3V38.84H329.52V49.7C329.52 50.42 329.5 50.9867 329.46 51.4C329.42 51.8133 329.34 52.12 329.22 52.32C329.113 52.52 328.947 52.6467 328.72 52.7C328.507 52.7533 328.213 52.78 327.84 52.78C327.587 52.78 327.253 52.7667 326.84 52.74C326.427 52.7267 325.907 52.7067 325.28 52.68L325.18 50.76C325.647 50.7867 326.033 50.8133 326.34 50.84C326.647 50.8533 326.867 50.86 327 50.86C327.187 50.86 327.313 50.8467 327.38 50.82C327.46 50.78 327.507 50.6933 327.52 50.56C327.533 50.4133 327.54 50.18 327.54 49.86V48.38H322.32V46.54H324.66V40.78H326.44V46.54H327.54V44.52H322.36V42.72H327.54V40.78H323.62V43.34C323.633 44.8467 323.593 46.18 323.5 47.34C323.42 48.4867 323.287 49.5133 323.1 50.42C322.927 51.3267 322.693 52.16 322.4 52.92ZM322.3 41.56L320.56 40.4C321.12 39.5333 321.627 38.5533 322.08 37.46C322.533 36.3667 322.88 35.2667 323.12 34.16L325.36 34.38C325.213 35.1933 324.987 36.0333 324.68 36.9C324.373 37.7667 324.013 38.6067 323.6 39.42C323.2 40.22 322.767 40.9333 322.3 41.56ZM331.16 47.24L329.2 46.44C329.587 45.72 329.933 44.9867 330.24 44.24C330.547 43.48 330.807 42.7133 331.02 41.94L333.06 42.34C332.847 43.1933 332.58 44.0333 332.26 44.86C331.953 45.6867 331.587 46.48 331.16 47.24ZM333.92 52.8V49.44H329.92V47.44H333.92V45.32H331.06V43.4H333.96V42.08H336.26V43.4H338.88V45.32H336.26V47.44H339.24V49.44H336.26V52.8H333.92ZM326.8 40.68L324.86 39.88C325.047 39.5733 325.227 39.24 325.4 38.88C325.573 38.5067 325.74 38.14 325.9 37.78C326.06 37.4067 326.2 37.0667 326.32 36.76L328.32 37.32C328.16 37.8133 327.94 38.36 327.66 38.96C327.393 39.56 327.107 40.1333 326.8 40.68ZM323.16 37.32V35.46H328.32V37.32H323.16ZM330.4 42.68L329.26 40.92C330.247 40.4133 331.013 39.7733 331.56 39C332.107 38.2267 332.407 37.3333 332.46 36.32L334.58 36.66C334.473 38.0467 334.053 39.2533 333.32 40.28C332.587 41.2933 331.613 42.0933 330.4 42.68ZM336.74 41.6C336.62 41.6 336.413 41.6 336.12 41.6C335.84 41.5867 335.52 41.5733 335.16 41.56C334.8 41.5333 334.453 41.5133 334.12 41.5L333.96 39.58C334.187 39.5933 334.413 39.6133 334.64 39.64C334.867 39.6533 335.073 39.6667 335.26 39.68C335.447 39.68 335.587 39.68 335.68 39.68C335.867 39.68 336.013 39.66 336.12 39.62C336.24 39.58 336.327 39.4867 336.38 39.34C336.447 39.18 336.493 38.9333 336.52 38.6C336.547 38.2667 336.573 37.8067 336.6 37.22H329.84V35.24H339.02C338.98 36.4 338.933 37.3733 338.88 38.16C338.827 38.9333 338.747 39.5533 338.64 40.02C338.547 40.4733 338.42 40.8133 338.26 41.04C338.1 41.2667 337.893 41.42 337.64 41.5C337.4 41.5667 337.1 41.6 336.74 41.6ZM349.64 52.04C348.12 52.04 346.873 51.8 345.9 51.32C344.94 50.8533 344.227 50.1267 343.76 49.14C343.307 48.1533 343.08 46.8867 343.08 45.34V35.6H345.52V45.34C345.52 46.9 345.847 48.0333 346.5 48.74C347.153 49.4333 348.2 49.78 349.64 49.78C350.693 49.78 351.62 49.5867 352.42 49.2C353.233 48.8133 353.967 48.1867 354.62 47.32C355.287 46.44 355.927 45.2733 356.54 43.82L358.76 44.72C358.227 46.0533 357.653 47.1867 357.04 48.12C356.44 49.04 355.78 49.7933 355.06 50.38C354.353 50.9533 353.553 51.3733 352.66 51.64C351.767 51.9067 350.76 52.04 349.64 52.04ZM53.84 87.74C52.2267 87.74 50.82 87.4667 49.62 86.92C48.4333 86.3733 47.5133 85.6 46.86 84.6C46.2067 83.5867 45.88 82.4 45.88 81.04C45.88 79.9733 46.0733 78.9933 46.46 78.1C46.86 77.1933 47.42 76.4 48.14 75.72C48.8733 75.0267 49.74 74.5 50.74 74.14L50.94 74.76L41.42 74.98V72.84L58.28 72.44V74.58L55.74 74.64C54.7 74.6667 53.7333 74.8267 52.84 75.12C51.96 75.4133 51.1867 75.8333 50.52 76.38C49.8533 76.9267 49.3333 77.5733 48.96 78.32C48.6 79.0533 48.42 79.88 48.42 80.8C48.42 81.7867 48.64 82.64 49.08 83.36C49.52 84.0667 50.14 84.6067 50.94 84.98C51.7533 85.3533 52.7267 85.54 53.86 85.54C54.2333 85.54 54.66 85.52 55.14 85.48C55.6333 85.44 56.06 85.3867 56.42 85.32L56.68 87.52C56.2533 87.5867 55.78 87.64 55.26 87.68C54.7533 87.72 54.28 87.74 53.84 87.74ZM65.5 88.58C64.8867 87.7667 64.2267 87.0067 63.52 86.3C62.8133 85.58 62.0467 84.9133 61.22 84.3L62.86 82.66C63.6867 83.3 64.4733 84 65.22 84.76C65.9667 85.5067 66.66 86.3133 67.3 87.18L65.5 88.58ZM82.5 85.64C83.5667 85.3067 84.4333 84.96 85.1 84.6C85.7667 84.24 86.28 83.7933 86.64 83.26C87 82.7267 87.2467 82.0533 87.38 81.24C87.5267 80.4267 87.6 79.4133 87.6 78.2V76.1H90.84V78.2C90.84 79.7067 90.7133 81.02 90.46 82.14C90.22 83.2467 89.8267 84.1933 89.28 84.98C88.7467 85.7667 88.04 86.4267 87.16 86.96C86.2933 87.4933 85.2267 87.9267 83.96 88.26L82.5 85.64ZM81.78 75.04V72.22H98.68V75.04H81.78ZM90.42 80.24C91.8867 79.5867 93.0267 78.78 93.84 77.82C94.6667 76.8467 95.1467 75.7467 95.28 74.52L98.68 75.04C98.48 76.16 98.0733 77.22 97.46 78.22C96.86 79.22 96.1133 80.1133 95.22 80.9C94.34 81.6867 93.3533 82.3067 92.26 82.76L90.42 80.24ZM113.22 76.54C112.9 75.8333 112.56 75.1733 112.2 74.56C111.84 73.9333 111.427 73.2933 110.96 72.64L113.02 71.52C113.487 72.1733 113.9 72.82 114.26 73.46C114.633 74.1 114.987 74.7733 115.32 75.48L113.22 76.54ZM116.48 75.44C116.173 74.7333 115.847 74.0667 115.5 73.44C115.153 72.8 114.76 72.1467 114.32 71.48L116.38 70.44C116.82 71.1067 117.213 71.7667 117.56 72.42C117.92 73.06 118.253 73.7467 118.56 74.48L116.48 75.44ZM117.6 83.3C115.507 82.5933 113.447 81.9533 111.42 81.38C109.407 80.8067 107.513 80.32 105.74 79.92L106.58 76.84C108.513 77.2667 110.52 77.7733 112.6 78.36C114.68 78.9467 116.687 79.5733 118.62 80.24L117.6 83.3ZM103.68 88.54V71.06H107.08V88.54H103.68ZM124.04 85.12C125.88 85.0667 127.42 84.9067 128.66 84.64C129.913 84.36 130.907 83.94 131.64 83.38C132.387 82.8067 132.92 82.06 133.24 81.14C133.573 80.2067 133.74 79.0667 133.74 77.72V71.46H137.22V77.64C137.22 79.48 136.98 81.06 136.5 82.38C136.033 83.6867 135.287 84.76 134.26 85.6C133.247 86.4267 131.927 87.04 130.3 87.44C128.687 87.8533 126.74 88.0733 124.46 88.1L124.04 85.12ZM122.82 80.8V71.46H126.3V80.8H122.82ZM142.5 85C146.487 84.84 149.44 83.86 151.36 82.06C153.293 80.2467 154.26 77.5533 154.26 73.98L155.86 75.68H141.6V72.62H157.56V73.98C157.56 76.9533 157.013 79.4667 155.92 81.52C154.827 83.56 153.207 85.1267 151.06 86.22C148.913 87.3133 146.253 87.9 143.08 87.98L142.5 85ZM154.4 74.84C154.187 74.0667 153.96 73.3667 153.72 72.74C153.493 72.1133 153.22 71.48 152.9 70.84L155.02 70.14C155.34 70.78 155.613 71.4333 155.84 72.1C156.08 72.7533 156.307 73.4667 156.52 74.24L154.4 74.84ZM157.54 74.56C157.353 73.7867 157.153 73.0867 156.94 72.46C156.727 71.82 156.473 71.1733 156.18 70.52L158.24 69.9C158.56 70.5533 158.827 71.2133 159.04 71.88C159.253 72.5467 159.447 73.2667 159.62 74.04L157.54 74.56ZM160.72 87.48C161.2 86.1467 161.62 84.94 161.98 83.86C162.353 82.7667 162.68 81.7333 162.96 80.76C163.253 79.7733 163.513 78.7867 163.74 77.8C163.98 76.8 164.207 75.7333 164.42 74.6C164.633 73.4533 164.86 72.1667 165.1 70.74L168.24 71.08C168.04 72.4267 167.833 73.68 167.62 74.84C167.407 75.9867 167.173 77.0933 166.92 78.16C166.667 79.2133 166.38 80.2733 166.06 81.34C165.753 82.4067 165.407 83.5133 165.02 84.66C164.633 85.8067 164.193 87.06 163.7 88.42L160.72 87.48ZM176.66 84.82C176.567 84.0333 176.433 83.1867 176.26 82.28C176.1 81.3733 175.913 80.46 175.7 79.54C175.5 78.62 175.28 77.74 175.04 76.9L178.08 76.1C178.32 76.98 178.547 77.8867 178.76 78.82C178.973 79.74 179.167 80.6667 179.34 81.6C179.513 82.52 179.653 83.4067 179.76 84.26L176.66 84.82ZM174.94 75.92C174.607 75.2133 174.26 74.5733 173.9 74C173.553 73.4133 173.167 72.82 172.74 72.22L174.68 71.14C175.12 71.7133 175.513 72.3067 175.86 72.92C176.207 73.5333 176.547 74.2067 176.88 74.94L174.94 75.92ZM177.86 74.84C177.54 74.12 177.213 73.4667 176.88 72.88C176.56 72.28 176.193 71.6867 175.78 71.1L177.7 70.1C178.127 70.7 178.5 71.3067 178.82 71.92C179.153 72.5333 179.48 73.2133 179.8 73.96L177.86 74.84ZM170.48 87.86C170.12 87.86 169.68 87.82 169.16 87.74C168.64 87.6733 168.1 87.5733 167.54 87.44C166.98 87.3067 166.447 87.1533 165.94 86.98L166.64 84.32C167.04 84.4267 167.427 84.5333 167.8 84.64C168.173 84.7333 168.513 84.8067 168.82 84.86C169.127 84.9133 169.367 84.94 169.54 84.94C169.9 84.94 170.18 84.7933 170.38 84.5C170.593 84.2067 170.74 83.7 170.82 82.98C170.913 82.2467 170.96 81.2333 170.96 79.94C170.96 79.26 170.933 78.7133 170.88 78.3C170.827 77.8733 170.733 77.5467 170.6 77.32C170.467 77.0933 170.273 76.94 170.02 76.86C169.767 76.78 169.427 76.74 169 76.74H160.56V73.92H168.66C169.673 73.92 170.513 73.96 171.18 74.04C171.847 74.12 172.38 74.28 172.78 74.52C173.18 74.7467 173.48 75.1 173.68 75.58C173.893 76.0467 174.033 76.6733 174.1 77.46C174.167 78.2333 174.2 79.2 174.2 80.36C174.2 82.1733 174.073 83.6333 173.82 84.74C173.58 85.8333 173.187 86.6267 172.64 87.12C172.107 87.6133 171.387 87.86 170.48 87.86ZM190.86 88.26C189.193 88.26 187.753 88.0933 186.54 87.76C185.34 87.4267 184.413 86.9533 183.76 86.34C183.107 85.7133 182.78 84.9733 182.78 84.12C182.78 83.4933 182.953 82.8933 183.3 82.32C183.66 81.7333 184.14 81.26 184.74 80.9L187.56 82C187.147 82.28 186.833 82.5733 186.62 82.88C186.407 83.1867 186.3 83.4933 186.3 83.8C186.3 84.16 186.46 84.4667 186.78 84.72C187.113 84.96 187.6 85.1467 188.24 85.28C188.893 85.4 189.687 85.46 190.62 85.46C191.58 85.46 192.607 85.4 193.7 85.28C194.793 85.1467 195.827 84.9667 196.8 84.74L197.24 87.54C196.227 87.78 195.167 87.96 194.06 88.08C192.967 88.2 191.9 88.26 190.86 88.26ZM181.9 80.12V77.46L198.1 77.06V79.72L181.9 80.12ZM192.34 83.8C191.927 82.8133 191.547 81.7867 191.2 80.72C190.867 79.6533 190.567 78.5667 190.3 77.46C190.047 76.3533 189.84 75.24 189.68 74.12C189.52 72.9867 189.407 71.8533 189.34 70.72L192.56 70.54C192.627 71.62 192.733 72.6867 192.88 73.74C193.04 74.7933 193.247 75.84 193.5 76.88C193.753 77.9067 194.06 78.94 194.42 79.98C194.78 81.02 195.187 82.0667 195.64 83.12L192.34 83.8ZM182.1 75.68V73.04L197.9 72.64V75.28L182.1 75.68ZM214.72 89.1C213.933 88.5667 213.2 88.0733 212.52 87.62C211.853 87.18 211.193 86.76 210.54 86.36C209.9 85.9467 209.227 85.5267 208.52 85.1C207.813 84.6733 207.027 84.2 206.16 83.68C205.253 83.1333 204.52 82.68 203.96 82.32C203.413 81.96 202.993 81.6467 202.7 81.38C202.42 81.1 202.233 80.8267 202.14 80.56C202.047 80.28 202 79.96 202 79.6C202 79.2267 202.053 78.9 202.16 78.62C202.267 78.3267 202.467 78.0467 202.76 77.78C203.053 77.5 203.473 77.1933 204.02 76.86C204.58 76.5133 205.3 76.1 206.18 75.62C207.047 75.1533 207.953 74.6533 208.9 74.12C209.847 73.5733 210.78 73.0267 211.7 72.48C212.62 71.92 213.453 71.3933 214.2 70.9L215.96 73.54C215.507 73.82 214.987 74.1333 214.4 74.48C213.813 74.8133 213.2 75.16 212.56 75.52C211.933 75.88 211.313 76.2267 210.7 76.56C210.1 76.88 209.56 77.1733 209.08 77.44C208.613 77.6933 208.24 77.8933 207.96 78.04C207.373 78.3467 206.913 78.5933 206.58 78.78C206.26 78.9667 206.04 79.12 205.92 79.24C205.8 79.36 205.74 79.48 205.74 79.6C205.74 79.7333 205.78 79.8533 205.86 79.96C205.94 80.0533 206.127 80.1867 206.42 80.36C206.713 80.5333 207.167 80.8 207.78 81.16C208.087 81.32 208.5 81.5533 209.02 81.86C209.553 82.1533 210.147 82.4933 210.8 82.88C211.467 83.2667 212.14 83.6667 212.82 84.08C213.513 84.4933 214.18 84.9067 214.82 85.32C215.473 85.7333 216.053 86.1133 216.56 86.46L214.72 89.1ZM226.26 88.26C224.553 88.26 223.233 87.8933 222.3 87.16C221.367 86.44 220.9 85.4067 220.9 84.06C220.9 82.7 221.36 81.66 222.28 80.94C223.2 80.22 224.527 79.86 226.26 79.86C227.167 79.86 228.06 79.96 228.94 80.16C229.82 80.36 230.74 80.68 231.7 81.12C232.66 81.56 233.687 82.14 234.78 82.86C235.887 83.5667 237.113 84.4333 238.46 85.46L236.5 87.68C235.047 86.48 233.727 85.5067 232.54 84.76C231.367 84.0133 230.267 83.4667 229.24 83.12C228.213 82.7733 227.22 82.6 226.26 82.6C225.473 82.6 224.893 82.72 224.52 82.96C224.147 83.1867 223.96 83.5533 223.96 84.06C223.96 85.0467 224.673 85.54 226.1 85.54C226.913 85.54 227.507 85.3867 227.88 85.08C228.253 84.76 228.44 84.2533 228.44 83.56V70.84H231.66V73.8H238.34V76.54H231.66V83.56C231.66 85.1733 231.22 86.36 230.34 87.12C229.46 87.88 228.1 88.26 226.26 88.26ZM244.48 85.36C246.067 85.28 247.48 85.1267 248.72 84.9C249.973 84.6733 251.033 84.38 251.9 84.02C252.767 83.66 253.427 83.2467 253.88 82.78C254.333 82.3133 254.56 81.8 254.56 81.24C254.56 80.64 254.293 80.2 253.76 79.92C253.227 79.64 252.387 79.5 251.24 79.5C250.6 79.5 249.88 79.5467 249.08 79.64C248.293 79.7333 247.347 79.88 246.24 80.08C245.133 80.28 243.78 80.5533 242.18 80.9L241.38 77.92C243.42 77.4667 245.273 77.1267 246.94 76.9C248.607 76.66 250.067 76.54 251.32 76.54C253.573 76.54 255.26 76.9133 256.38 77.66C257.5 78.3933 258.06 79.5067 258.06 81C258.06 82.08 257.767 83.06 257.18 83.94C256.607 84.8067 255.767 85.56 254.66 86.2C253.553 86.84 252.207 87.34 250.62 87.7C249.047 88.0733 247.253 88.2933 245.24 88.36L244.48 85.36ZM255.08 74.92C254.133 74.92 253.06 74.9 251.86 74.86C250.66 74.8067 249.407 74.74 248.1 74.66C246.807 74.5667 245.54 74.46 244.3 74.34L244.68 71.22C245.693 71.34 246.8 71.4533 248 71.56C249.2 71.6533 250.413 71.7267 251.64 71.78C252.867 71.82 254.013 71.84 255.08 71.84V74.92ZM273.34 87.44C272.14 87.44 271.067 87.2667 270.12 86.92C269.187 86.56 268.453 86.0667 267.92 85.44C267.4 84.8133 267.14 84.1 267.14 83.3C267.14 81.8867 267.993 80.4267 269.7 78.92L272.06 80.64C271.433 81.2 270.987 81.6667 270.72 82.04C270.453 82.4 270.32 82.7333 270.32 83.04C270.32 83.36 270.44 83.6333 270.68 83.86C270.92 84.0733 271.267 84.24 271.72 84.36C272.173 84.48 272.713 84.54 273.34 84.54C273.953 84.54 274.68 84.4933 275.52 84.4C276.36 84.2933 277.227 84.16 278.12 84L278.56 86.84C277.653 87.0267 276.753 87.1733 275.86 87.28C274.967 87.3867 274.127 87.44 273.34 87.44ZM268.1 75.64V72.74H278.38V75.64H268.1ZM262.92 88.16C262.587 86.8 262.34 85.44 262.18 84.08C262.02 82.72 261.94 81.2933 261.94 79.8C261.94 78.3067 262.02 76.8867 262.18 75.54C262.34 74.18 262.587 72.82 262.92 71.46L266.16 71.82C265.853 73.0867 265.62 74.3867 265.46 75.72C265.313 77.04 265.24 78.4 265.24 79.8C265.24 81.2 265.313 82.5667 265.46 83.9C265.62 85.22 265.853 86.5133 266.16 87.78L262.92 88.16ZM290.36 88.28C288.813 88.28 287.6 87.9067 286.72 87.16C285.853 86.4267 285.42 85.4067 285.42 84.1C285.42 82.78 285.86 81.7533 286.74 81.02C287.633 80.2867 288.867 79.92 290.44 79.92C291.067 79.92 291.707 80.0333 292.36 80.26C293.027 80.4733 293.713 80.8067 294.42 81.26C295.14 81.7 295.887 82.26 296.66 82.94C297.433 83.62 298.24 84.4267 299.08 85.36L297.14 87.5C296.073 86.4067 295.193 85.5267 294.5 84.86C293.807 84.1933 293.227 83.6867 292.76 83.34C292.307 82.9933 291.9 82.7667 291.54 82.66C291.193 82.54 290.827 82.48 290.44 82.48C289.76 82.48 289.26 82.6 288.94 82.84C288.633 83.08 288.48 83.4733 288.48 84.02C288.48 84.5667 288.633 84.9733 288.94 85.24C289.26 85.5067 289.733 85.64 290.36 85.64C291.053 85.64 291.567 85.4933 291.9 85.2C292.233 84.9067 292.4 84.4733 292.4 83.9V73.34C293.613 73.34 294.753 73.36 295.82 73.4C296.9 73.4267 297.953 73.4733 298.98 73.54L298.8 76.36C297.907 76.2933 296.953 76.2467 295.94 76.22C294.94 76.18 293.913 76.16 292.86 76.16L295.56 74.12V83.56C295.56 85.1467 295.127 86.3267 294.26 87.1C293.393 87.8867 292.093 88.28 290.36 88.28ZM280.78 85.1C281.313 83.5533 281.807 82.0067 282.26 80.46C282.713 78.9 283.133 77.3067 283.52 75.68C283.92 74.0533 284.287 72.3733 284.62 70.64L287.68 70.9C287.36 72.6867 287 74.4333 286.6 76.14C286.2 77.8467 285.767 79.52 285.3 81.16C284.833 82.7867 284.32 84.3867 283.76 85.96L280.78 85.1ZM280.66 76.16V73.34H290.94V76.16H280.66ZM304.16 85.2C306.627 85.2 308.607 85 310.1 84.6C311.607 84.2 312.7 83.5533 313.38 82.66C314.06 81.7533 314.4 80.5733 314.4 79.12C314.4 77.72 314.107 76.6933 313.52 76.04C312.933 75.3733 312.02 75.04 310.78 75.04C310.113 75.04 309.48 75.1467 308.88 75.36C308.28 75.56 307.747 75.8533 307.28 76.24C306.813 76.6267 306.447 77.0867 306.18 77.62C305.913 78.1533 305.78 78.7533 305.78 79.42V82.14H302.64V71.58H305.78V75.44H304.58C305.153 74.6533 305.767 74.0067 306.42 73.5C307.073 72.98 307.787 72.6 308.56 72.36C309.333 72.1067 310.187 71.98 311.12 71.98C313.267 71.98 314.9 72.5933 316.02 73.82C317.153 75.0333 317.72 76.8 317.72 79.12C317.72 81.2133 317.247 82.9267 316.3 84.26C315.353 85.5933 313.893 86.58 311.92 87.22C309.947 87.86 307.413 88.18 304.32 88.18L304.16 85.2ZM327.5 88.26C325.807 88.26 324.5 87.9267 323.58 87.26C322.673 86.6067 322.22 85.6667 322.22 84.44C322.22 83.2133 322.673 82.28 323.58 81.64C324.487 81 325.793 80.68 327.5 80.68C328.367 80.68 329.207 80.7733 330.02 80.96C330.833 81.1467 331.653 81.4467 332.48 81.86C333.307 82.2733 334.18 82.8133 335.1 83.48C336.02 84.1467 337.02 84.9667 338.1 85.94L336.04 88C335.027 87.1067 334.12 86.36 333.32 85.76C332.52 85.1467 331.787 84.66 331.12 84.3C330.467 83.9267 329.847 83.66 329.26 83.5C328.673 83.34 328.087 83.26 327.5 83.26C326.14 83.26 325.46 83.6333 325.46 84.38C325.46 84.7533 325.627 85.04 325.96 85.24C326.293 85.44 326.78 85.54 327.42 85.54C328.233 85.54 328.84 85.38 329.24 85.06C329.64 84.7267 329.84 84.2267 329.84 83.56V70.96H332.9V83.56C332.9 85.1333 332.447 86.3067 331.54 87.08C330.647 87.8667 329.3 88.26 327.5 88.26ZM322.1 79.5V76.84H337.9V79.5H322.1ZM321.9 75.46V72.74H338.1V75.46H321.9ZM349.62 88.14C348.007 88.14 346.693 87.8933 345.68 87.4C344.667 86.92 343.92 86.1667 343.44 85.14C342.973 84.1 342.74 82.7667 342.74 81.14V71.6H346.06V81.14C346.06 82.54 346.333 83.5467 346.88 84.16C347.427 84.76 348.34 85.06 349.62 85.06C350.58 85.06 351.427 84.88 352.16 84.52C352.893 84.16 353.567 83.5667 354.18 82.74C354.807 81.9133 355.427 80.7933 356.04 79.38L358.96 80.64C358.4 82.0267 357.813 83.2 357.2 84.16C356.6 85.1067 355.933 85.8733 355.2 86.46C354.467 87.0467 353.64 87.4733 352.72 87.74C351.813 88.0067 350.78 88.14 349.62 88.14ZM41.58 123.84C42.1133 122.053 42.5933 120.24 43.02 118.4C43.46 116.56 43.8467 114.68 44.18 112.76C44.5267 110.827 44.8333 108.847 45.1 106.82L48.34 106.96C48.1133 108.92 47.8267 110.887 47.48 112.86C47.1467 114.82 46.76 116.767 46.32 118.7C45.88 120.62 45.3867 122.52 44.84 124.4L41.58 123.84ZM54.3 124.06C53.0067 124.06 51.8933 123.907 50.96 123.6C50.04 123.307 49.3267 122.887 48.82 122.34C48.3133 121.78 48.06 121.113 48.06 120.34C48.06 119.807 48.22 119.293 48.54 118.8C48.86 118.293 49.3533 117.78 50.02 117.26L52.78 118.42C52.3533 118.7 52.0267 118.98 51.8 119.26C51.5733 119.527 51.46 119.773 51.46 120C51.46 120.24 51.5733 120.447 51.8 120.62C52.04 120.793 52.3733 120.927 52.8 121.02C53.2267 121.113 53.7267 121.16 54.3 121.16C54.9133 121.16 55.5267 121.127 56.14 121.06C56.7667 120.993 57.44 120.893 58.16 120.76L58.5 123.66C57.74 123.807 57.0333 123.907 56.38 123.96C55.74 124.027 55.0467 124.06 54.3 124.06ZM41.3 111.94V109.14H55.7V111.94H41.3ZM48.98 113.58C50.5667 113.433 52.1267 113.327 53.66 113.26C55.2067 113.18 56.7467 113.14 58.28 113.14V115.96C56.7733 115.96 55.26 116 53.74 116.08C52.2333 116.147 50.7067 116.253 49.16 116.4L48.98 113.58Z" fill="#282828"/>
<path opacity="0.6" d="M52.88 157.4C52.88 153.7 54.46 150.44 57.76 147.78C57.94 147.62 58.16 147.54 58.36 147.54C58.74 147.54 59.1 147.88 59.1 148.26C59.1 148.52 59 148.7 58.8 148.88C55.92 151.34 54.72 154.12 54.72 157.4C54.72 160.68 55.92 163.46 58.8 165.92C59 166.1 59.1 166.28 59.1 166.54C59.1 166.92 58.74 167.26 58.36 167.26C58.16 167.26 57.94 167.18 57.76 167.02C54.46 164.36 52.88 161.1 52.88 157.4ZM70.78 149.6V150.9C70.78 151.6 70.78 152.28 70.8 152.94C72.18 152.84 73.56 152.66 74.74 152.4C74.82 152.38 74.9 152.38 74.98 152.38C75.64 152.38 76.02 152.92 76.02 153.48C76.02 153.94 75.76 154.4 75.14 154.54C73.88 154.82 72.38 155.02 70.86 155.1C70.96 156.7 71.04 158.32 71.24 159.9C73.02 160.44 74.78 161.28 76.34 162.32C76.76 162.6 76.92 162.98 76.92 163.34C76.92 163.96 76.44 164.54 75.76 164.54C75.5 164.54 75.22 164.46 74.92 164.24C73.82 163.48 72.58 162.78 71.32 162.26C71.08 164.26 69.5 165.64 66.76 165.64C64.26 165.64 62.5 164.5 62.5 162.46C62.5 160.7 64.12 159.22 66.82 159.22C67.5 159.22 68.2 159.28 68.92 159.38C68.68 157.04 68.48 154.28 68.48 150.84V149.6C68.48 148.96 69.06 148.66 69.64 148.66C70.2 148.66 70.78 148.96 70.78 149.6ZM66.76 163.54C68.08 163.54 69.06 162.78 69.06 161.56C68.3 161.38 67.54 161.28 66.82 161.28C65.52 161.28 64.88 161.76 64.88 162.46C64.88 163.18 65.44 163.54 66.76 163.54ZM86.22 150.58C87.28 150.8 88.64 150.98 90.12 150.98C91.58 150.98 92.92 150.82 93.9 150.72C93.96 150.72 94.02 150.7 94.08 150.7C94.78 150.7 95.16 151.26 95.16 151.82C95.16 152.3 94.88 152.8 94.26 152.9C93.06 153.1 91.66 153.18 90.14 153.18C88.6 153.18 87.06 153.08 85.78 152.8C85.18 152.68 84.9 152.18 84.9 151.7C84.9 151.12 85.28 150.56 85.96 150.56C86.04 150.56 86.14 150.56 86.22 150.58ZM90 165C85.18 165 83.3 163.64 83.3 160.92C83.3 160.44 83.38 159.88 83.52 159.42C83.68 158.86 84.16 158.62 84.64 158.62C85.2 158.62 85.74 158.96 85.74 159.54C85.74 159.62 85.72 159.72 85.7 159.82C85.62 160.12 85.58 160.52 85.58 160.82C85.58 162.08 86.26 162.76 90 162.76C91.94 162.76 93.8 162.52 95.46 162.18C95.58 162.16 95.68 162.14 95.78 162.14C96.44 162.14 96.84 162.68 96.84 163.24C96.84 163.72 96.54 164.22 95.86 164.38C94.1 164.78 92.16 165 90 165ZM105.06 150.06L108.38 149.56C108.58 149.52 108.78 149.52 108.98 149.52C110.22 149.52 110.92 150.22 110.92 151.28C110.92 151.44 110.92 151.6 110.88 151.78C110.62 153.24 110.24 154.72 109.82 156.12C111.14 156.3 112.44 156.66 113.72 157.08C113.92 156.14 114.04 155.12 114.1 154.04C114.12 153.42 114.66 153.1 115.22 153.1C115.8 153.1 116.38 153.46 116.38 154.16C116.38 155.3 116.14 156.7 115.84 157.96C116.84 158.42 117.82 158.96 118.78 159.58C119.18 159.84 119.34 160.22 119.34 160.58C119.34 161.2 118.86 161.78 118.22 161.78C118 161.78 117.76 161.72 117.52 161.56C116.72 161.04 115.94 160.58 115.16 160.18C114.4 162.22 113.3 163.96 111.96 165.28C111.64 165.6 111.3 165.74 110.98 165.74C110.36 165.74 109.86 165.2 109.86 164.62C109.86 164.36 109.96 164.08 110.2 163.84C111.44 162.6 112.44 161.06 113.1 159.22C111.82 158.7 110.52 158.32 109.16 158.1C108.76 159.16 108.34 160.14 107.92 160.96C106.9 162.98 105.86 163.62 104.42 163.62C102.76 163.62 101.54 162.54 101.54 160.48C101.54 157.98 103.8 155.92 107.14 155.92H107.6C108 154.64 108.38 153.3 108.54 152.04C108.54 151.98 108.56 151.92 108.56 151.88C108.56 151.7 108.44 151.68 108.16 151.72L105.36 152.18C105.28 152.2 105.2 152.2 105.14 152.2C104.5 152.2 104.12 151.66 104.12 151.12C104.12 150.64 104.42 150.16 105.06 150.06ZM104.44 161.44C105.02 161.44 105.34 161.26 105.88 160.26C106.24 159.58 106.58 158.78 106.9 157.94C104.82 157.96 103.72 159.14 103.72 160.4C103.72 161.12 104.04 161.44 104.44 161.44ZM127.2 154.64L127.16 155.38C129.78 152.62 131.56 151.56 133.14 151.56C135.96 151.56 137.1 153.2 137.1 158.3C137.1 159.34 137.02 160.06 136.92 160.72C137.56 161.12 138.22 161.62 138.88 162.14C139.2 162.4 139.34 162.7 139.34 162.98C139.34 163.56 138.78 164.06 138.22 164.06C138 164.06 137.8 163.98 137.6 163.82C137.18 163.46 136.74 163.1 136.3 162.76C135.48 164.26 134.12 164.96 132.56 164.96C130.58 164.96 129.12 163.88 129.12 162.04C129.12 160.64 130.28 159.4 132.48 159.4C133.26 159.4 134.06 159.52 134.82 159.76C134.86 159.36 134.88 158.86 134.88 158.22C134.88 154.36 134.34 153.58 133.16 153.62C132.12 153.64 131.22 154.32 130.42 154.96C129.22 155.92 128.16 157.02 127.12 158.16L127.1 164.88C127.1 165.56 126.58 165.9 126.04 165.9C125.52 165.9 124.98 165.56 124.98 164.88L125 160.66L123.6 162.82C123.38 163.18 123.06 163.32 122.74 163.32C122.22 163.32 121.7 162.88 121.7 162.32C121.7 162.12 121.76 161.92 121.9 161.7C122.9 160.16 124.04 158.14 125.06 155.96L125.1 154.9L122.9 155.3C122.82 155.32 122.76 155.32 122.68 155.32C122.06 155.32 121.72 154.78 121.72 154.28C121.72 153.82 121.98 153.38 122.54 153.28L125.12 152.82L125.16 149.68C125.16 149.06 125.72 148.74 126.26 148.74C126.8 148.74 127.34 149.06 127.32 149.68L127.26 152.54C127.78 152.62 127.94 153 127.94 153.28C127.94 153.64 127.84 153.9 127.2 154.64ZM132.56 162.98C133.4 163 134 162.7 134.5 161.74C133.86 161.44 133.16 161.28 132.42 161.28C131.5 161.28 131.08 161.66 131.1 162.1C131.12 162.86 131.94 162.98 132.56 162.98ZM152.3 158.4L152.32 158.36C151.4 157.32 150.7 156.2 150 154.86C147.78 155.26 144.82 155.6 143.76 155.6C143.08 155.6 142.72 155.04 142.72 154.5C142.72 154.02 143.02 153.52 143.68 153.5C145.36 153.42 147.28 153.2 149.12 152.9C148.72 151.86 148.36 150.82 148.08 149.8C148.06 149.72 148.04 149.64 148.04 149.56C148.04 148.96 148.64 148.58 149.22 148.58C149.66 148.58 150.1 148.8 150.24 149.34C150.5 150.36 150.82 151.46 151.24 152.5C152.76 152.18 154.16 151.8 155.26 151.42C155.4 151.36 155.56 151.34 155.68 151.34C156.32 151.34 156.76 151.88 156.76 152.42C156.76 152.82 156.52 153.22 155.94 153.42C154.88 153.78 153.56 154.14 152.14 154.44C152.88 155.84 153.92 157.32 155.42 158.94C155.66 159.2 155.76 159.5 155.76 159.78C155.76 160.38 155.3 160.92 154.66 160.92C154.54 160.92 154.4 160.88 154.26 160.84C152.72 160.3 151.24 160.08 149.64 160.08C147.22 160.08 146.4 160.82 146.4 161.92C146.4 163.06 147.3 163.82 150.28 163.82C151.1 163.82 151.74 163.78 152.38 163.72H152.52C153.22 163.72 153.58 164.26 153.58 164.8C153.58 165.28 153.28 165.76 152.6 165.84C151.94 165.92 151.2 165.96 150.32 165.96C146.24 165.96 144.08 164.42 144.08 161.9C144.08 159.74 145.74 158.14 149.62 158.14C150.7 158.14 151.5 158.24 152.3 158.4ZM168.6 165.52L165.62 156.78C164.72 157.14 163.74 157.56 162.68 158.06C162.5 158.14 162.34 158.18 162.18 158.18C161.58 158.18 161.16 157.64 161.16 157.1C161.16 156.72 161.36 156.34 161.82 156.12C162.96 155.6 163.98 155.16 164.94 154.78L163.8 151.46C163.76 151.34 163.74 151.24 163.74 151.14C163.74 150.54 164.36 150.18 164.94 150.18C165.36 150.18 165.78 150.38 165.94 150.82L167.02 154C169.88 153.02 171.9 152.7 173.7 152.7C176.84 152.7 178.64 154.14 178.64 156.34C178.64 158.84 176.86 160.3 174.36 160.3C173.56 160.3 172.96 160.24 172.38 160.1C171.68 159.92 171.36 159.42 171.36 158.94C171.36 158.38 171.78 157.86 172.48 157.86C172.6 157.86 172.72 157.86 172.86 157.9C173.26 158 173.76 158.08 174.26 158.08C175.54 158.08 176.3 157.42 176.3 156.34C176.3 155.44 175.54 154.76 173.66 154.76C172.08 154.76 170.26 155.08 167.7 155.98L170.68 164.8C170.72 164.94 170.74 165.06 170.74 165.18C170.74 165.82 170.16 166.24 169.58 166.24C169.18 166.24 168.76 166.02 168.6 165.52ZM172.7 150.28C173.02 150.56 173.16 150.86 173.16 151.16C173.16 151.76 172.62 152.28 172 152.28C171.74 152.28 171.46 152.2 171.2 151.96C170.58 151.44 169.98 151.02 169.24 150.56C168.88 150.34 168.72 149.98 168.72 149.68C168.72 149.12 169.2 148.6 169.84 148.6C170.06 148.6 170.3 148.66 170.54 148.8C171.28 149.18 171.86 149.58 172.7 150.28ZM187.7 155.34C186.9 158.64 185.74 161.88 184.32 164.38C184.06 164.84 183.64 165.02 183.24 165.02C182.66 165.02 182.14 164.62 182.14 164.02C182.14 163.84 182.2 163.62 182.32 163.4C183.58 161.18 184.62 158.44 185.38 155.58C184.56 155.68 183.76 155.82 183 155.98C182.92 156 182.82 156 182.74 156C182.12 156 181.78 155.5 181.78 154.98C181.78 154.52 182.06 154.06 182.68 153.94C183.7 153.74 184.8 153.6 185.86 153.48C186.1 152.26 186.3 151.02 186.44 149.8C186.52 149.16 187.02 148.86 187.54 148.86C188.1 148.86 188.66 149.22 188.66 149.86V150C188.54 151.08 188.36 152.2 188.14 153.3C188.54 153.28 188.9 153.28 189.22 153.28C191.78 153.28 192.72 154.44 192.72 157.58C192.72 159.46 192.52 161.14 192.18 162.36C191.54 164.66 190.64 165.48 188.62 165.48C188.14 165.48 187.64 165.44 187.26 165.38C186.58 165.28 186.28 164.78 186.28 164.3C186.28 163.74 186.64 163.2 187.3 163.2C187.34 163.2 187.4 163.22 187.46 163.22C187.84 163.26 188.14 163.3 188.56 163.3C189.26 163.3 189.62 163.08 189.96 161.9C190.3 160.76 190.48 159.2 190.48 157.56C190.48 155.76 190.14 155.28 189.18 155.28C188.74 155.28 188.24 155.3 187.7 155.34ZM195.86 151.92C197.12 153.12 198.36 154.96 199.04 156.3C199.16 156.54 199.2 156.78 199.2 156.98C199.2 157.68 198.64 158.14 198.04 158.14C197.64 158.14 197.22 157.92 196.94 157.38C196.22 155.94 195.16 154.4 194.1 153.26C193.88 153.02 193.78 152.76 193.78 152.54C193.78 151.98 194.34 151.54 194.94 151.54C195.26 151.54 195.58 151.66 195.86 151.92ZM212.3 158.4L212.32 158.36C211.4 157.32 210.7 156.2 210 154.86C207.78 155.26 204.82 155.6 203.76 155.6C203.08 155.6 202.72 155.04 202.72 154.5C202.72 154.02 203.02 153.52 203.68 153.5C205.36 153.42 207.28 153.2 209.12 152.9C208.72 151.86 208.36 150.82 208.08 149.8C208.06 149.72 208.04 149.64 208.04 149.56C208.04 148.96 208.64 148.58 209.22 148.58C209.66 148.58 210.1 148.8 210.24 149.34C210.5 150.36 210.82 151.46 211.24 152.5C212.76 152.18 214.16 151.8 215.26 151.42C215.4 151.36 215.56 151.34 215.68 151.34C216.32 151.34 216.76 151.88 216.76 152.42C216.76 152.82 216.52 153.22 215.94 153.42C214.88 153.78 213.56 154.14 212.14 154.44C212.88 155.84 213.92 157.32 215.42 158.94C215.66 159.2 215.76 159.5 215.76 159.78C215.76 160.38 215.3 160.92 214.66 160.92C214.54 160.92 214.4 160.88 214.26 160.84C212.72 160.3 211.24 160.08 209.64 160.08C207.22 160.08 206.4 160.82 206.4 161.92C206.4 163.06 207.3 163.82 210.28 163.82C211.1 163.82 211.74 163.78 212.38 163.72H212.52C213.22 163.72 213.58 164.26 213.58 164.8C213.58 165.28 213.28 165.76 212.6 165.84C211.94 165.92 211.2 165.96 210.32 165.96C206.24 165.96 204.08 164.42 204.08 161.9C204.08 159.74 205.74 158.14 209.62 158.14C210.7 158.14 211.5 158.24 212.3 158.4ZM227.68 156.96L227.72 156.98C228.3 156.62 228.9 156.46 229.54 156.46C231.38 156.46 232.38 157.56 232.52 160.68C232.62 162.86 233.1 163.16 233.86 163.16C234.76 163.16 235.52 162.38 236.22 160.56C236.42 160.04 236.86 159.8 237.3 159.8C237.9 159.8 238.5 160.24 238.5 160.88C238.5 161.02 238.46 161.18 238.4 161.36C237.36 164.12 235.86 165.42 233.7 165.42C231.62 165.42 230.34 164.3 230.2 160.88C230.12 158.9 229.82 158.48 229 158.48C227.94 158.48 226.86 159.46 225.88 161.5C225.44 162.42 224.86 163.64 224.42 164.6C224.2 165.06 223.78 165.28 223.36 165.28C222.76 165.28 222.16 164.86 222.16 164.22C222.16 164.08 222.2 163.94 222.26 163.78C224.02 159.54 226.56 154.12 228.86 149.86C229.08 149.44 229.48 149.26 229.88 149.26C230.52 149.26 231.14 149.7 231.14 150.3C231.14 150.46 231.1 150.62 231.02 150.78L227.68 156.96ZM241.14 165.6L257.62 148.08C257.8 147.9 258 147.76 258.18 147.76C258.7 147.76 259.14 148.18 259.14 148.58C259.14 148.8 259.06 149 258.86 149.2L242.38 166.72C242.2 166.9 242 167.04 241.82 167.04C241.3 167.04 240.86 166.62 240.86 166.22C240.86 166 240.94 165.8 241.14 165.6ZM49.68 205.16V196.44C48.02 197.76 46.28 198.9 44.62 199.8C44.38 199.94 44.14 199.98 43.92 199.98C43.28 199.98 42.82 199.44 42.82 198.86C42.82 198.46 43.04 198.02 43.58 197.74C47.2 195.84 50.86 192.76 53.3 189.54C53.58 189.18 53.94 189.02 54.3 189.02C54.92 189.02 55.52 189.5 55.52 190.14C55.52 190.36 55.44 190.62 55.24 190.88C54.06 192.42 52.6 193.94 51 195.34C51.54 195.38 52.04 195.74 52.04 196.38V205.16C52.04 205.86 51.46 206.2 50.86 206.2C50.28 206.2 49.68 205.86 49.68 205.16ZM65.72 190.04H74.44C75.1 190.04 75.44 190.58 75.44 191.12C75.44 191.66 75.1 192.2 74.44 192.2H65.72C65.08 192.2 64.74 191.66 64.74 191.12C64.74 190.58 65.08 190.04 65.72 190.04ZM63.74 194.5L74.28 194.4C76.12 194.38 76.98 195.16 76.98 196.38C76.98 196.72 76.92 197.1 76.78 197.52C75.54 201.22 72.28 204.18 68.36 205.72C68.18 205.78 68.02 205.82 67.86 205.82C67.18 205.82 66.7 205.24 66.7 204.66C66.7 204.24 66.94 203.82 67.52 203.58C71.02 202.18 73.44 199.92 74.44 197.28C74.5 197.12 74.54 196.98 74.54 196.88C74.54 196.64 74.34 196.54 73.9 196.54L63.78 196.66C63.1 196.66 62.76 196.12 62.76 195.58C62.76 195.04 63.08 194.5 63.74 194.5ZM84.7 190.88L92.66 190.74H92.78C94.26 190.74 95.02 191.42 95.02 192.46C95.02 192.78 94.94 193.14 94.8 193.54C94.18 195.2 93.22 196.82 92.06 198.32C93.92 199.58 96 201.42 97.42 203.06C97.68 203.36 97.8 203.68 97.8 203.96C97.8 204.62 97.18 205.16 96.52 205.16C96.2 205.16 95.84 205.02 95.56 204.68C94.32 203.18 92.48 201.36 90.64 199.98C88.7 202.08 86.38 203.82 84.12 204.94C83.92 205.04 83.72 205.08 83.54 205.08C82.86 205.08 82.38 204.5 82.38 203.92C82.38 203.52 82.58 203.14 83.06 202.9C87.22 200.8 90.72 197.4 92.3 193.52C92.36 193.4 92.38 193.28 92.38 193.2C92.38 193.02 92.22 192.94 91.88 192.94L84.72 193.08C84.06 193.1 83.72 192.54 83.72 192C83.72 191.44 84.06 190.9 84.7 190.88ZM109.96 189.78V195.4C110.16 195.04 110.52 194.78 110.94 194.78C111.12 194.78 111.28 194.82 111.46 194.9C112.7 195.46 114.44 196.48 115.7 197.46C116.1 197.76 116.26 198.14 116.26 198.5C116.26 199.14 115.76 199.68 115.12 199.68C114.86 199.68 114.56 199.6 114.28 199.38C113.12 198.5 111.42 197.46 110.54 196.98C110.26 196.82 110.08 196.64 109.96 196.42V205.04C109.96 205.74 109.38 206.08 108.78 206.08C108.2 206.08 107.6 205.74 107.6 205.04V189.78C107.6 189.08 108.2 188.72 108.78 188.72C109.38 188.72 109.96 189.08 109.96 189.78ZM126.76 191.22V201.36C126.76 201.92 126.9 202.12 127.24 202.12C127.36 202.12 127.52 202.1 127.7 202.04C130.48 201.18 134.14 198.76 136.24 196.26C136.52 195.92 136.86 195.78 137.2 195.78C137.84 195.78 138.42 196.3 138.42 196.96C138.42 197.22 138.32 197.52 138.08 197.8C135.62 200.78 131.54 203.36 128.04 204.46C127.56 204.62 127.1 204.68 126.68 204.68C125.28 204.68 124.36 203.78 124.36 202.02V191.22C124.36 190.54 124.96 190.22 125.56 190.22C126.16 190.22 126.76 190.54 126.76 191.22ZM142.7 196.36H157.3C158.02 196.36 158.38 196.92 158.38 197.5C158.38 198.06 158.02 198.64 157.3 198.64H142.7C141.98 198.64 141.62 198.06 141.62 197.5C141.62 196.92 141.98 196.36 142.7 196.36ZM169.68 191.74L173.8 191.7C175.46 191.68 176.3 192.34 176.3 193.54C176.3 193.86 176.24 194.22 176.12 194.6C174.72 199.24 170.72 203.8 166.28 206.2C166.06 206.32 165.82 206.38 165.62 206.38C164.98 206.38 164.52 205.84 164.52 205.26C164.52 204.86 164.72 204.46 165.24 204.18C167.14 203.14 168.92 201.68 170.4 200C169.52 199.18 168.74 198.58 168.08 198.14C167.72 197.88 167.58 197.58 167.58 197.26C167.58 196.72 168.06 196.2 168.68 196.2C168.9 196.2 169.14 196.26 169.38 196.42C170.16 196.92 170.96 197.52 171.78 198.26C172.66 196.98 173.36 195.62 173.8 194.3C173.84 194.2 173.86 194.1 173.86 194.02C173.86 193.8 173.7 193.7 173.32 193.7L168.44 193.74C167.42 195.26 166.24 196.66 165.08 197.7C164.8 197.96 164.48 198.06 164.2 198.06C163.58 198.06 163.08 197.58 163.08 197C163.08 196.7 163.22 196.36 163.56 196.06C165.42 194.38 167.32 191.74 168.36 189.3C168.58 188.76 169.04 188.54 169.48 188.54C170.06 188.54 170.62 188.94 170.62 189.56C170.62 189.7 170.6 189.86 170.52 190.04C170.28 190.6 170 191.16 169.68 191.74ZM182.7 196.36H197.3C198.02 196.36 198.38 196.92 198.38 197.5C198.38 198.06 198.02 198.64 197.3 198.64H182.7C181.98 198.64 181.62 198.06 181.62 197.5C181.62 196.92 181.98 196.36 182.7 196.36ZM210 195.36C211.12 195.36 212.04 196.28 212.04 197.4C212.04 198.52 211.12 199.44 210 199.44C208.88 199.44 207.96 198.52 207.96 197.4C207.96 196.28 208.88 195.36 210 195.36ZM236.68 199.24H228.38C226.94 199.24 226.42 198.84 226.42 197.82V196.5C226.42 195.5 226.94 195.08 228.38 195.08H236.64C238.08 195.08 238.68 195.5 238.68 196.5V197.82C238.68 198.88 238.02 199.24 236.68 199.24ZM228.54 197.84H229.96V196.5H228.54C228.32 196.5 228.26 196.58 228.26 196.78V197.52C228.26 197.72 228.32 197.84 228.54 197.84ZM231.64 196.5V197.84H233.3V196.5H231.64ZM234.98 196.5V197.84H236.5C236.72 197.84 236.84 197.76 236.84 197.52V196.78C236.84 196.58 236.72 196.5 236.5 196.5H234.98ZM234.92 194.36H229.98C228.2 194.36 227.78 193.78 227.78 192.68V190.28C227.78 189.18 228.32 188.62 229.98 188.62H234.92C236.58 188.62 237.1 189.18 237.1 190.28V192.68C237.1 194.1 236.18 194.36 234.92 194.36ZM230.14 192.88H234.72C235.1 192.88 235.18 192.8 235.18 192.56V192.16H229.7V192.56C229.7 192.86 229.88 192.88 230.14 192.88ZM235.18 190.8V190.42C235.18 190.18 235.1 190.1 234.72 190.1H230.14C229.76 190.1 229.7 190.18 229.7 190.42V190.8H235.18ZM227.56 200H235C236.18 200 236.84 200.56 236.84 201.28C236.84 201.7 236.62 202.16 236.16 202.6C235.76 202.98 235.3 203.32 234.78 203.66C235.84 204.04 236.98 204.32 238.16 204.48C238.8 204.58 239.1 205.02 239.1 205.46C239.1 205.96 238.74 206.42 238.1 206.42C238.04 206.42 237.94 206.4 237.88 206.4C236.16 206.16 234.4 205.6 232.8 204.74C231.04 205.56 229.02 206.2 226.82 206.56C226.74 206.58 226.64 206.58 226.58 206.58C225.96 206.58 225.6 206.1 225.6 205.62C225.6 205.22 225.86 204.82 226.38 204.74C228.02 204.48 229.6 204.08 231 203.6C230.24 203.02 229.58 202.38 229 201.64H227.56C227.04 201.64 226.76 201.22 226.76 200.82C226.76 200.4 227.04 200 227.56 200ZM234.12 201.64H231.26C231.76 202.1 232.3 202.46 232.86 202.78C233.38 202.52 233.86 202.22 234.24 201.94C234.34 201.88 234.38 201.8 234.38 201.76C234.38 201.68 234.3 201.64 234.12 201.64ZM223.72 199.62C223.9 199.1 224.34 198.86 224.8 198.86C225.34 198.86 225.9 199.22 225.9 199.9C225.9 200 225.88 200.12 225.84 200.26C225.34 202.14 224.32 204.22 223.46 205.6C223.18 206.04 222.78 206.22 222.38 206.22C221.8 206.22 221.26 205.82 221.26 205.22C221.26 205.02 221.34 204.8 221.48 204.58C222.32 203.28 223.16 201.34 223.72 199.62ZM223.94 188.76C224.52 189.18 225.16 189.76 225.62 190.26C225.86 190.54 225.96 190.82 225.96 191.06C225.96 191.66 225.44 192.12 224.88 192.12C224.62 192.12 224.34 192.02 224.1 191.76C223.72 191.36 223.1 190.72 222.52 190.24C222.24 190 222.12 189.74 222.12 189.5C222.12 188.98 222.64 188.52 223.24 188.52C223.46 188.52 223.72 188.6 223.94 188.76ZM222.54 193.54C223.12 193.94 223.84 194.56 224.32 195.08C224.56 195.36 224.66 195.64 224.66 195.88C224.66 196.48 224.12 196.96 223.54 196.96C223.28 196.96 223 196.86 222.78 196.62C222.3 196.08 221.56 195.44 221.12 195.08C220.82 194.84 220.7 194.58 220.7 194.32C220.7 193.78 221.22 193.32 221.84 193.32C222.06 193.32 222.3 193.38 222.54 193.54ZM252.42 202.38H247.58C245.9 202.38 245.22 201.74 245.22 200.24V195.14C245.22 193.64 245.9 193 247.58 193H248.92V191.24H241.74C241.2 191.24 240.92 190.74 240.92 190.26C240.92 189.76 241.2 189.28 241.74 189.28H258.26C258.82 189.28 259.1 189.78 259.1 190.26C259.1 190.76 258.82 191.24 258.26 191.24H251V193H252.42C254.1 193 254.78 193.64 254.78 195.14V200.24C254.78 201.9 253.96 202.38 252.42 202.38ZM247.84 200.58H248.96V198.48H247.22V200.04C247.22 200.52 247.4 200.58 247.84 200.58ZM247.22 196.76H248.96V194.8H247.84C247.34 194.8 247.22 194.92 247.22 195.34V196.76ZM250.96 194.8V196.76H252.78V195.34C252.78 194.92 252.66 194.8 252.16 194.8H250.96ZM252.78 198.48H250.96V200.58H252.16C252.66 200.58 252.78 200.46 252.78 200.04V198.48ZM256.22 202.84V193.5C256.22 192.9 256.78 192.62 257.34 192.62C257.9 192.62 258.46 192.9 258.46 193.5V203.14C258.46 204.94 257.58 205.92 255.3 205.92H244.76C242.48 205.92 241.6 204.94 241.6 203.14V193.6C241.6 193 242.16 192.72 242.72 192.72C243.28 192.72 243.84 193 243.84 193.6V202.84C243.84 203.64 244.14 203.92 245.12 203.92H254.94C255.92 203.92 256.22 203.64 256.22 202.84ZM268.88 189.94V188.76C268.88 188.2 269.42 187.94 269.98 187.94C270.52 187.94 271.06 188.2 271.06 188.76V189.94H276.06C277.9 189.94 278.54 190.56 278.54 191.86V193.14C278.54 193.7 278 193.98 277.44 193.98C276.9 193.98 276.34 193.7 276.34 193.14V192.2C276.34 191.82 276.18 191.66 275.68 191.66H264.36C263.86 191.66 263.7 191.82 263.7 192.2V193.22C263.7 193.76 263.16 194.04 262.6 194.04C262.06 194.04 261.5 193.76 261.5 193.22V191.86C261.5 190.56 262.14 189.94 263.98 189.94H268.88ZM271.02 194.88H270.6C270.14 195.26 269.68 195.62 269.2 195.94C271.4 197.84 272.42 200.18 272.42 202.58C272.42 205.68 271.38 206.7 269.52 206.7C268.92 206.7 268.56 206.66 268.06 206.56C267.48 206.44 267.24 206.02 267.24 205.6C267.24 205.12 267.6 204.6 268.2 204.6C268.26 204.6 268.34 204.6 268.4 204.62C268.74 204.68 269.12 204.72 269.48 204.72C269.96 204.72 270.34 204.32 270.34 202.56C270.34 202.3 270.32 202.06 270.3 201.82C267.98 203.5 265.08 204.94 262.3 205.74C262.18 205.78 262.06 205.8 261.96 205.8C261.38 205.8 261.04 205.32 261.04 204.86C261.04 204.48 261.26 204.1 261.74 203.96C264.7 203.1 267.48 201.74 269.82 199.92C269.7 199.62 269.54 199.34 269.38 199.04C267.32 200.44 264.88 201.58 262.54 202.32C262.42 202.36 262.3 202.38 262.2 202.38C261.64 202.38 261.28 201.92 261.28 201.44C261.28 201.1 261.48 200.72 261.96 200.58C264.1 199.94 266.44 198.92 268.34 197.64C268.12 197.4 267.88 197.16 267.64 196.94C266.08 197.82 264.42 198.5 262.76 199C262.62 199.04 262.5 199.06 262.38 199.06C261.78 199.06 261.42 198.62 261.42 198.16C261.42 197.8 261.64 197.42 262.16 197.28C264.16 196.7 266.12 195.92 267.72 194.88H265.04C264.52 194.88 264.26 194.44 264.26 194.02C264.26 193.58 264.52 193.16 265.04 193.16H274.96C275.5 193.16 275.78 193.58 275.78 194.02C275.78 194.44 275.5 194.88 274.96 194.88H272.88C273.18 195.84 273.56 196.78 274.04 197.64C274.9 197.1 275.7 196.52 276.46 195.84C276.68 195.64 276.94 195.56 277.18 195.56C277.72 195.56 278.22 196.02 278.22 196.54C278.22 196.8 278.08 197.08 277.78 197.32C276.9 198 275.96 198.66 274.98 199.22C275.98 200.7 277.18 201.94 278.54 202.94C278.92 203.22 279.08 203.58 279.08 203.9C279.08 204.44 278.62 204.94 278.02 204.94C277.76 204.94 277.46 204.84 277.16 204.6C276.52 204.08 275.94 203.56 275.38 202.94C273.32 200.64 271.82 197.84 271.02 194.88ZM287.12 197.4C287.12 201.1 285.54 204.36 282.24 207.02C282.06 207.18 281.84 207.26 281.64 207.26C281.26 207.26 280.9 206.92 280.9 206.54C280.9 206.28 281 206.1 281.2 205.92C284.08 203.46 285.28 200.68 285.28 197.4C285.28 194.12 284.08 191.34 281.2 188.88C281 188.7 280.9 188.52 280.9 188.26C280.9 187.88 281.26 187.54 281.64 187.54C281.84 187.54 282.06 187.62 282.24 187.78C285.54 190.44 287.12 193.7 287.12 197.4Z" fill="#282828"/>
<path d="M61.0002 283L79.0001 241L110.177 241L61.0002 283Z" fill="#54B6CB"/>
</svg>
