<svg width="440" height="295" viewBox="0 0 440 295" fill="none" xmlns="http://www.w3.org/2000/svg">
<rect width="440" height="237" rx="80" fill="#E18965"/>
<path d="M46.42 51.58C45.74 51.58 45.1133 51.3733 44.54 50.96C43.9667 50.5333 43.4667 49.94 43.04 49.18C42.6133 48.42 42.28 47.5267 42.04 46.5C41.8133 45.46 41.7 44.34 41.7 43.14C41.7 42.1667 41.78 41.14 41.94 40.06C42.1133 38.9667 42.3733 37.82 42.72 36.62L45.06 36.9C44.7533 38.0067 44.52 39.06 44.36 40.06C44.2 41.06 44.12 42 44.12 42.88C44.12 43.72 44.1867 44.5133 44.32 45.26C44.4533 46.0067 44.6333 46.66 44.86 47.22C45.1 47.78 45.3667 48.22 45.66 48.54C45.9667 48.86 46.2867 49.02 46.62 49.02C46.94 49.02 47.2867 48.8867 47.66 48.62C48.0467 48.34 48.44 47.9667 48.84 47.5C49.24 47.0333 49.6133 46.5 49.96 45.9C50.32 45.3 50.62 44.6733 50.86 44.02L53 45.1C52.6667 46.0067 52.2533 46.8533 51.76 47.64C51.2667 48.4267 50.72 49.12 50.12 49.72C49.5333 50.3067 48.92 50.76 48.28 51.08C47.64 51.4133 47.02 51.58 46.42 51.58ZM56.46 49.64C56.46 48.12 56.3533 46.6067 56.14 45.1C55.94 43.5933 55.64 42.1467 55.24 40.76C54.8533 39.3733 54.3867 38.1 53.84 36.94L56.06 36.28C56.6733 37.4933 57.18 38.82 57.58 40.26C57.9933 41.6867 58.3067 43.1933 58.52 44.78C58.7467 46.3533 58.86 47.9733 58.86 49.64H56.46ZM67.34 52.06C65.7667 52.06 64.5467 51.7467 63.68 51.12C62.8267 50.5067 62.4 49.6267 62.4 48.48C62.4 47.3333 62.8267 46.46 63.68 45.86C64.5333 45.26 65.7533 44.96 67.34 44.96C68.2067 44.96 69.0467 45.0533 69.86 45.24C70.6733 45.4267 71.4933 45.7267 72.32 46.14C73.16 46.5533 74.04 47.0933 74.96 47.76C75.88 48.4133 76.8733 49.2133 77.94 50.16L76.42 51.68C75.4067 50.8133 74.48 50.08 73.64 49.48C72.8133 48.8667 72.0467 48.3733 71.34 48C70.6333 47.6133 69.9533 47.34 69.3 47.18C68.66 47.0067 68.0067 46.92 67.34 46.92C65.6333 46.92 64.78 47.4267 64.78 48.44C64.78 48.96 64.9933 49.36 65.42 49.64C65.8467 49.9067 66.4733 50.04 67.3 50.04C68.2867 50.04 69.0133 49.8333 69.48 49.42C69.9467 49.0067 70.18 48.3733 70.18 47.52V34.92H72.44V47.52C72.44 49.0267 72.0133 50.16 71.16 50.92C70.32 51.68 69.0467 52.06 67.34 52.06ZM62.26 43.04V41.06H77.74V43.04H62.26ZM62.06 38.96V36.94H77.94V38.96H62.06ZM90.84 51.74C89.4 51.74 88.2733 51.42 87.46 50.78C86.66 50.1267 86.26 49.22 86.26 48.06C86.26 46.8733 86.66 45.96 87.46 45.32C88.26 44.68 89.3867 44.36 90.84 44.36C91.4667 44.36 92.0733 44.44 92.66 44.6C93.2467 44.7467 93.8533 45.0133 94.48 45.4C95.1067 45.7867 95.8067 46.32 96.58 47C97.3667 47.6667 98.2867 48.52 99.34 49.56L97.86 51.14C96.9133 50.18 96.0933 49.3933 95.4 48.78C94.72 48.1533 94.12 47.6667 93.6 47.32C93.08 46.9733 92.5867 46.7333 92.12 46.6C91.6667 46.4533 91.2 46.38 90.72 46.38C89.1733 46.38 88.4 46.94 88.4 48.06C88.4 49.1667 89.1733 49.72 90.72 49.72C91.56 49.72 92.1533 49.5467 92.5 49.2C92.86 48.84 93.04 48.2533 93.04 47.44V35.08H95.36V47.54C95.36 48.94 94.9733 49.9933 94.2 50.7C93.44 51.3933 92.32 51.74 90.84 51.74ZM86.32 40.24V38.22H99.04V40.24H86.32ZM82.62 52.1C82.2733 50.7267 82.02 49.3733 81.86 48.04C81.7 46.7067 81.62 45.2933 81.62 43.8C81.62 42.32 81.7 40.92 81.86 39.6C82.02 38.2667 82.2667 36.9133 82.6 35.54L84.96 35.84C84.64 37.1333 84.4 38.4333 84.24 39.74C84.0933 41.0333 84.02 42.3867 84.02 43.8C84.02 45.2133 84.0933 46.5733 84.24 47.88C84.4 49.1867 84.64 50.4733 84.96 51.74L82.62 52.1ZM105.5 52.58C104.887 51.7667 104.227 51.0067 103.52 50.3C102.813 49.58 102.047 48.9133 101.22 48.3L102.86 46.66C103.687 47.3 104.473 48 105.22 48.76C105.967 49.5067 106.66 50.3133 107.3 51.18L105.5 52.58ZM123.34 52.94V43.56H120.74V41.06H123.42V34.66H126.08V41.06H128.4V43.56H126.14V52.94H123.34ZM121.42 51.14L120.26 48.02C121.06 47.0333 121.7 46.0267 122.18 45C122.673 43.9733 123.04 42.8867 123.28 41.74L124.36 42.5C124.293 43.6467 124.12 44.7667 123.84 45.86C123.573 46.94 123.227 47.9333 122.8 48.84C122.387 49.7467 121.927 50.5133 121.42 51.14ZM127.18 49.08C126.753 48.0667 126.32 47.06 125.88 46.06C125.453 45.0467 124.993 43.9867 124.5 42.88L126.16 41.98C126.64 42.9 127.107 43.8067 127.56 44.7C128.013 45.58 128.473 46.4933 128.94 47.44L127.18 49.08ZM121.64 40.76C121.453 40 121.253 39.22 121.04 38.42C120.827 37.62 120.62 36.8933 120.42 36.24L122.46 35.5C122.673 36.1667 122.873 36.8933 123.06 37.68C123.26 38.4533 123.44 39.24 123.6 40.04L121.64 40.76ZM128.36 50.4L128.1 47.72L139.54 45.58L139.8 48.26L128.36 50.4ZM132.18 46.3C131.593 45.66 130.967 44.9933 130.3 44.3C129.633 43.6067 128.927 42.9133 128.18 42.22L130.26 40.3C131.007 40.98 131.713 41.66 132.38 42.34C133.06 43.0067 133.687 43.6667 134.26 44.32L132.18 46.3ZM127.78 40.78L125.74 39.96C126.007 39.2533 126.247 38.4933 126.46 37.68C126.673 36.8667 126.84 36.1067 126.96 35.4L129.16 35.88C129 36.6533 128.793 37.4733 128.54 38.34C128.3 39.1933 128.047 40.0067 127.78 40.78ZM134.92 52.94V34.66H138.02V52.94H134.92ZM132.98 40.98C132.473 40.4067 131.927 39.82 131.34 39.22C130.753 38.62 130.14 38.0133 129.5 37.4L131.58 35.5C132.22 36.0867 132.833 36.6733 133.42 37.26C134.007 37.8467 134.553 38.42 135.06 38.98L132.98 40.98ZM145.76 52.46V49.94H151.26V48.54H146.84V46.2H151.26V40.94H149.6V39.04H151.26V37.36H154.38V39.04H156.06V37.36H149.6V44.86H146.92V34.94H158.8V44.86H149.6V42.66H156.06V40.94H154.38V46.2H159.04V48.54H154.38V49.94H159.26V52.46H145.76ZM140.9 51.26L140.62 48.58C141.22 48.4733 141.853 48.34 142.52 48.18C143.2 48.02 143.873 47.8467 144.54 47.66C145.22 47.4733 145.847 47.2867 146.42 47.1L146.44 49.7C145.893 49.9 145.293 50.1 144.64 50.3C143.987 50.5 143.333 50.6867 142.68 50.86C142.027 51.02 141.433 51.1533 140.9 51.26ZM142.12 48.8V43.96H140.92V41.28H142.12V38.36H140.72V35.6H146.44V38.36H145.08V41.28H146.32V43.96H145.08V48.8H142.12ZM160.72 51.48C161.2 50.1467 161.62 48.94 161.98 47.86C162.353 46.7667 162.68 45.7333 162.96 44.76C163.253 43.7733 163.513 42.7867 163.74 41.8C163.98 40.8 164.207 39.7333 164.42 38.6C164.633 37.4533 164.86 36.1667 165.1 34.74L168.24 35.08C168.04 36.4267 167.833 37.68 167.62 38.84C167.407 39.9867 167.173 41.0933 166.92 42.16C166.667 43.2133 166.38 44.2733 166.06 45.34C165.753 46.4067 165.407 47.5133 165.02 48.66C164.633 49.8067 164.193 51.06 163.7 52.42L160.72 51.48ZM176.66 48.82C176.567 48.0333 176.433 47.1867 176.26 46.28C176.1 45.3733 175.913 44.46 175.7 43.54C175.5 42.62 175.28 41.74 175.04 40.9L178.08 40.1C178.32 40.98 178.547 41.8867 178.76 42.82C178.973 43.74 179.167 44.6667 179.34 45.6C179.513 46.52 179.653 47.4067 179.76 48.26L176.66 48.82ZM174.94 39.92C174.607 39.2133 174.26 38.5733 173.9 38C173.553 37.4133 173.167 36.82 172.74 36.22L174.68 35.14C175.12 35.7133 175.513 36.3067 175.86 36.92C176.207 37.5333 176.547 38.2067 176.88 38.94L174.94 39.92ZM177.86 38.84C177.54 38.12 177.213 37.4667 176.88 36.88C176.56 36.28 176.193 35.6867 175.78 35.1L177.7 34.1C178.127 34.7 178.5 35.3067 178.82 35.92C179.153 36.5333 179.48 37.2133 179.8 37.96L177.86 38.84ZM170.48 51.86C170.12 51.86 169.68 51.82 169.16 51.74C168.64 51.6733 168.1 51.5733 167.54 51.44C166.98 51.3067 166.447 51.1533 165.94 50.98L166.64 48.32C167.04 48.4267 167.427 48.5333 167.8 48.64C168.173 48.7333 168.513 48.8067 168.82 48.86C169.127 48.9133 169.367 48.94 169.54 48.94C169.9 48.94 170.18 48.7933 170.38 48.5C170.593 48.2067 170.74 47.7 170.82 46.98C170.913 46.2467 170.96 45.2333 170.96 43.94C170.96 43.26 170.933 42.7133 170.88 42.3C170.827 41.8733 170.733 41.5467 170.6 41.32C170.467 41.0933 170.273 40.94 170.02 40.86C169.767 40.78 169.427 40.74 169 40.74H160.56V37.92H168.66C169.673 37.92 170.513 37.96 171.18 38.04C171.847 38.12 172.38 38.28 172.78 38.52C173.18 38.7467 173.48 39.1 173.68 39.58C173.893 40.0467 174.033 40.6733 174.1 41.46C174.167 42.2333 174.2 43.2 174.2 44.36C174.2 46.1733 174.073 47.6333 173.82 48.74C173.58 49.8333 173.187 50.6267 172.64 51.12C172.107 51.6133 171.387 51.86 170.48 51.86ZM188.36 52.94V47.74H181.1V45.14H188.36V44.3H188.34V42.26H191.66V41.12H188.34V39.16H191.66V38.06H188.34V44.3H185.32V35.74H194.68V44.3H191.64V45.14H198.9V47.74H191.64V52.94H188.36ZM181.54 52.72L180.36 50.18C182.147 49.7133 183.687 49.2133 184.98 48.68C186.287 48.1333 187.387 47.5667 188.28 46.98L190.16 48.12C189.173 48.9867 187.96 49.8133 186.52 50.6C185.08 51.3867 183.42 52.0933 181.54 52.72ZM181.22 44.54L180.34 42.04C181.127 41.7733 181.873 41.5067 182.58 41.24C183.287 40.96 183.953 40.68 184.58 40.4L185.48 42.82C184.84 43.1267 184.167 43.4267 183.46 43.72C182.767 44.0133 182.02 44.2867 181.22 44.54ZM198.46 52.72C196.58 52.0933 194.92 51.3867 193.48 50.6C192.04 49.8133 190.827 48.9867 189.84 48.12L191.72 46.98C192.613 47.5667 193.713 48.1333 195.02 48.68C196.327 49.2133 197.867 49.7133 199.64 50.18L198.46 52.72ZM183.76 40C183.333 39.6133 182.84 39.1867 182.28 38.72C181.72 38.24 181.107 37.7667 180.44 37.3L182.14 35.26C182.78 35.7267 183.387 36.2 183.96 36.68C184.533 37.16 185.033 37.5933 185.46 37.98L183.76 40ZM190.74 37.58L187.48 37.38C187.627 36.9 187.767 36.4067 187.9 35.9C188.047 35.3933 188.173 34.8467 188.28 34.26L191.54 34.44C191.433 35.0267 191.307 35.58 191.16 36.1C191.027 36.6067 190.887 37.1 190.74 37.58ZM198.62 44.54C197.953 44.22 197.267 43.92 196.56 43.64C195.853 43.3467 195.12 43.0733 194.36 42.82L195.42 40.4C196.22 40.6533 196.973 40.9133 197.68 41.18C198.387 41.4467 199.053 41.7333 199.68 42.04L198.62 44.54ZM196.24 39.92L194.46 37.98C195.02 37.5667 195.587 37.1267 196.16 36.66C196.733 36.18 197.273 35.7133 197.78 35.26L199.56 37.2C199.133 37.6267 198.633 38.0733 198.06 38.54C197.487 38.9933 196.88 39.4533 196.24 39.92ZM209.62 52.14C208.007 52.14 206.693 51.8933 205.68 51.4C204.667 50.92 203.92 50.1667 203.44 49.14C202.973 48.1 202.74 46.7667 202.74 45.14V35.6H206.06V45.14C206.06 46.54 206.333 47.5467 206.88 48.16C207.427 48.76 208.34 49.06 209.62 49.06C210.58 49.06 211.427 48.88 212.16 48.52C212.893 48.16 213.567 47.5667 214.18 46.74C214.807 45.9133 215.427 44.7933 216.04 43.38L218.96 44.64C218.4 46.0267 217.813 47.2 217.2 48.16C216.6 49.1067 215.933 49.8733 215.2 50.46C214.467 51.0467 213.64 51.4733 212.72 51.74C211.813 52.0067 210.78 52.14 209.62 52.14ZM226.34 51.84C225.607 51.84 224.94 51.6333 224.34 51.22C223.74 50.8067 223.22 50.22 222.78 49.46C222.353 48.7 222.02 47.7933 221.78 46.74C221.553 45.6867 221.44 44.52 221.44 43.24C221.44 42.2267 221.527 41.1733 221.7 40.08C221.873 38.9867 222.14 37.7867 222.5 36.48L225.7 36.84C225.367 38.0133 225.12 39.0867 224.96 40.06C224.8 41.0333 224.72 41.9667 224.72 42.86C224.72 43.6467 224.767 44.3733 224.86 45.04C224.967 45.7067 225.107 46.2867 225.28 46.78C225.453 47.2733 225.653 47.66 225.88 47.94C226.12 48.2067 226.373 48.34 226.64 48.34C226.907 48.34 227.2 48.22 227.52 47.98C227.853 47.74 228.193 47.4133 228.54 47C228.9 46.5733 229.24 46.0933 229.56 45.56C229.88 45.0133 230.153 44.4467 230.38 43.86L233.28 45.38C232.933 46.3 232.5 47.1533 231.98 47.94C231.473 48.7267 230.907 49.4133 230.28 50C229.653 50.5867 229.007 51.04 228.34 51.36C227.673 51.68 227.007 51.84 226.34 51.84ZM235.82 49.86C235.82 48.34 235.72 46.8267 235.52 45.32C235.333 43.8133 235.053 42.3533 234.68 40.94C234.32 39.5267 233.873 38.2067 233.34 36.98L236.36 36.12C236.96 37.3867 237.46 38.76 237.86 40.24C238.273 41.7067 238.58 43.2467 238.78 44.86C238.993 46.4733 239.1 48.14 239.1 49.86H235.82ZM244.7 52.9C243.94 52.9 243.273 52.74 242.7 52.42C242.127 52.1 241.68 51.6533 241.36 51.08C241.053 50.52 240.9 49.86 240.9 49.1C240.9 48.34 241.053 47.6733 241.36 47.1C241.68 46.5267 242.127 46.0867 242.7 45.78C243.273 45.46 243.94 45.3 244.7 45.3C245.46 45.3 246.12 45.46 246.68 45.78C247.253 46.0867 247.7 46.5267 248.02 47.1C248.34 47.6733 248.5 48.34 248.5 49.1C248.5 49.86 248.34 50.52 248.02 51.08C247.7 51.6533 247.253 52.1 246.68 52.42C246.12 52.74 245.46 52.9 244.7 52.9ZM244.7 50.58C245.153 50.58 245.513 50.4467 245.78 50.18C246.047 49.9 246.18 49.54 246.18 49.1C246.18 48.6467 246.047 48.2867 245.78 48.02C245.513 47.7533 245.153 47.62 244.7 47.62C244.26 47.62 243.9 47.7533 243.62 48.02C243.353 48.2867 243.22 48.6467 243.22 49.1C243.22 49.54 243.353 49.9 243.62 50.18C243.9 50.4467 244.26 50.58 244.7 50.58ZM274.8 52.88C274.427 52.88 273.953 52.8667 273.38 52.84C272.807 52.8267 272.113 52.8067 271.3 52.78L271.12 50.1C271.907 50.1267 272.567 50.1533 273.1 50.18C273.633 50.1933 274 50.2 274.2 50.2C274.453 50.2 274.64 50.1867 274.76 50.16C274.88 50.1333 274.953 50.06 274.98 49.94C275.007 49.82 275.02 49.6333 275.02 49.38V38.02H267.1V35.34H279.48V38.02H278.12V49.26C278.12 50.1 278.087 50.76 278.02 51.24C277.953 51.7333 277.813 52.0933 277.6 52.32C277.387 52.56 277.053 52.7133 276.6 52.78C276.16 52.8467 275.56 52.88 274.8 52.88ZM262.42 52.94V39.54H265.46V52.94H262.42ZM261.14 46.36L260.12 42.96C260.787 42.1733 261.36 41.36 261.84 40.52C262.333 39.68 262.747 38.7733 263.08 37.8C263.427 36.8267 263.713 35.7533 263.94 34.58L266.82 35.08C266.58 36.5333 266.233 37.88 265.78 39.12C265.327 40.36 264.78 41.4667 264.14 42.44L263.84 41.68C263.733 42.0267 263.573 42.42 263.36 42.86C263.147 43.2867 262.913 43.7267 262.66 44.18C262.407 44.62 262.147 45.0333 261.88 45.42C261.627 45.7933 261.38 46.1067 261.14 46.36ZM266.64 49.54V39.68H273.84V47.94H269.34V45.66H271.3V41.96H269.34V49.54H266.64ZM280.72 51.48C281.2 50.1467 281.62 48.94 281.98 47.86C282.353 46.7667 282.68 45.7333 282.96 44.76C283.253 43.7733 283.513 42.7867 283.74 41.8C283.98 40.8 284.207 39.7333 284.42 38.6C284.633 37.4533 284.86 36.1667 285.1 34.74L288.24 35.08C288.04 36.4267 287.833 37.68 287.62 38.84C287.407 39.9867 287.173 41.0933 286.92 42.16C286.667 43.2133 286.38 44.2733 286.06 45.34C285.753 46.4067 285.407 47.5133 285.02 48.66C284.633 49.8067 284.193 51.06 283.7 52.42L280.72 51.48ZM296.66 48.82C296.567 48.0333 296.433 47.1867 296.26 46.28C296.1 45.3733 295.913 44.46 295.7 43.54C295.5 42.62 295.28 41.74 295.04 40.9L298.08 40.1C298.32 40.98 298.547 41.8867 298.76 42.82C298.973 43.74 299.167 44.6667 299.34 45.6C299.513 46.52 299.653 47.4067 299.76 48.26L296.66 48.82ZM294.94 39.92C294.607 39.2133 294.26 38.5733 293.9 38C293.553 37.4133 293.167 36.82 292.74 36.22L294.68 35.14C295.12 35.7133 295.513 36.3067 295.86 36.92C296.207 37.5333 296.547 38.2067 296.88 38.94L294.94 39.92ZM297.86 38.84C297.54 38.12 297.213 37.4667 296.88 36.88C296.56 36.28 296.193 35.6867 295.78 35.1L297.7 34.1C298.127 34.7 298.5 35.3067 298.82 35.92C299.153 36.5333 299.48 37.2133 299.8 37.96L297.86 38.84ZM290.48 51.86C290.12 51.86 289.68 51.82 289.16 51.74C288.64 51.6733 288.1 51.5733 287.54 51.44C286.98 51.3067 286.447 51.1533 285.94 50.98L286.64 48.32C287.04 48.4267 287.427 48.5333 287.8 48.64C288.173 48.7333 288.513 48.8067 288.82 48.86C289.127 48.9133 289.367 48.94 289.54 48.94C289.9 48.94 290.18 48.7933 290.38 48.5C290.593 48.2067 290.74 47.7 290.82 46.98C290.913 46.2467 290.96 45.2333 290.96 43.94C290.96 43.26 290.933 42.7133 290.88 42.3C290.827 41.8733 290.733 41.5467 290.6 41.32C290.467 41.0933 290.273 40.94 290.02 40.86C289.767 40.78 289.427 40.74 289 40.74H280.56V37.92H288.66C289.673 37.92 290.513 37.96 291.18 38.04C291.847 38.12 292.38 38.28 292.78 38.52C293.18 38.7467 293.48 39.1 293.68 39.58C293.893 40.0467 294.033 40.6733 294.1 41.46C294.167 42.2333 294.2 43.2 294.2 44.36C294.2 46.1733 294.073 47.6333 293.82 48.74C293.58 49.8333 293.187 50.6267 292.64 51.12C292.107 51.6133 291.387 51.86 290.48 51.86ZM308.36 52.94V47.74H301.1V45.14H308.36V44.3H308.34V42.26H311.66V41.12H308.34V39.16H311.66V38.06H308.34V44.3H305.32V35.74H314.68V44.3H311.64V45.14H318.9V47.74H311.64V52.94H308.36ZM301.54 52.72L300.36 50.18C302.147 49.7133 303.687 49.2133 304.98 48.68C306.287 48.1333 307.387 47.5667 308.28 46.98L310.16 48.12C309.173 48.9867 307.96 49.8133 306.52 50.6C305.08 51.3867 303.42 52.0933 301.54 52.72ZM301.22 44.54L300.34 42.04C301.127 41.7733 301.873 41.5067 302.58 41.24C303.287 40.96 303.953 40.68 304.58 40.4L305.48 42.82C304.84 43.1267 304.167 43.4267 303.46 43.72C302.767 44.0133 302.02 44.2867 301.22 44.54ZM318.46 52.72C316.58 52.0933 314.92 51.3867 313.48 50.6C312.04 49.8133 310.827 48.9867 309.84 48.12L311.72 46.98C312.613 47.5667 313.713 48.1333 315.02 48.68C316.327 49.2133 317.867 49.7133 319.64 50.18L318.46 52.72ZM303.76 40C303.333 39.6133 302.84 39.1867 302.28 38.72C301.72 38.24 301.107 37.7667 300.44 37.3L302.14 35.26C302.78 35.7267 303.387 36.2 303.96 36.68C304.533 37.16 305.033 37.5933 305.46 37.98L303.76 40ZM310.74 37.58L307.48 37.38C307.627 36.9 307.767 36.4067 307.9 35.9C308.047 35.3933 308.173 34.8467 308.28 34.26L311.54 34.44C311.433 35.0267 311.307 35.58 311.16 36.1C311.027 36.6067 310.887 37.1 310.74 37.58ZM318.62 44.54C317.953 44.22 317.267 43.92 316.56 43.64C315.853 43.3467 315.12 43.0733 314.36 42.82L315.42 40.4C316.22 40.6533 316.973 40.9133 317.68 41.18C318.387 41.4467 319.053 41.7333 319.68 42.04L318.62 44.54ZM316.24 39.92L314.46 37.98C315.02 37.5667 315.587 37.1267 316.16 36.66C316.733 36.18 317.273 35.7133 317.78 35.26L319.56 37.2C319.133 37.6267 318.633 38.0733 318.06 38.54C317.487 38.9933 316.88 39.4533 316.24 39.92ZM329.62 52.14C328.007 52.14 326.693 51.8933 325.68 51.4C324.667 50.92 323.92 50.1667 323.44 49.14C322.973 48.1 322.74 46.7667 322.74 45.14V35.6H326.06V45.14C326.06 46.54 326.333 47.5467 326.88 48.16C327.427 48.76 328.34 49.06 329.62 49.06C330.58 49.06 331.427 48.88 332.16 48.52C332.893 48.16 333.567 47.5667 334.18 46.74C334.807 45.9133 335.427 44.7933 336.04 43.38L338.96 44.64C338.4 46.0267 337.813 47.2 337.2 48.16C336.6 49.1067 335.933 49.8733 335.2 50.46C334.467 51.0467 333.64 51.4733 332.72 51.74C331.813 52.0067 330.78 52.14 329.62 52.14ZM346.34 51.84C345.607 51.84 344.94 51.6333 344.34 51.22C343.74 50.8067 343.22 50.22 342.78 49.46C342.353 48.7 342.02 47.7933 341.78 46.74C341.553 45.6867 341.44 44.52 341.44 43.24C341.44 42.2267 341.527 41.1733 341.7 40.08C341.873 38.9867 342.14 37.7867 342.5 36.48L345.7 36.84C345.367 38.0133 345.12 39.0867 344.96 40.06C344.8 41.0333 344.72 41.9667 344.72 42.86C344.72 43.6467 344.767 44.3733 344.86 45.04C344.967 45.7067 345.107 46.2867 345.28 46.78C345.453 47.2733 345.653 47.66 345.88 47.94C346.12 48.2067 346.373 48.34 346.64 48.34C346.907 48.34 347.2 48.22 347.52 47.98C347.853 47.74 348.193 47.4133 348.54 47C348.9 46.5733 349.24 46.0933 349.56 45.56C349.88 45.0133 350.153 44.4467 350.38 43.86L353.28 45.38C352.933 46.3 352.5 47.1533 351.98 47.94C351.473 48.7267 350.907 49.4133 350.28 50C349.653 50.5867 349.007 51.04 348.34 51.36C347.673 51.68 347.007 51.84 346.34 51.84ZM355.82 49.86C355.82 48.34 355.72 46.8267 355.52 45.32C355.333 43.8133 355.053 42.3533 354.68 40.94C354.32 39.5267 353.873 38.2067 353.34 36.98L356.36 36.12C356.96 37.3867 357.46 38.76 357.86 40.24C358.273 41.7067 358.58 43.2467 358.78 44.86C358.993 46.4733 359.1 48.14 359.1 49.86H355.82ZM365.84 48.68C367.813 48.68 369.393 48.5667 370.58 48.34C371.767 48.1 372.62 47.7267 373.14 47.22C373.673 46.7133 373.94 46.0467 373.94 45.22C373.94 44.34 373.66 43.7 373.1 43.3C372.553 42.9 371.673 42.7 370.46 42.7C369.927 42.7 369.34 42.7467 368.7 42.84C368.06 42.92 367.313 43.0467 366.46 43.22C365.62 43.38 364.62 43.6067 363.46 43.9L362.88 40.94C364.64 40.5533 366.153 40.2667 367.42 40.08C368.687 39.8933 369.767 39.8 370.66 39.8C372.767 39.8 374.367 40.24 375.46 41.12C376.553 42 377.1 43.28 377.1 44.96C377.1 47.12 376.167 48.7533 374.3 49.86C372.447 50.9667 369.693 51.52 366.04 51.52L365.84 48.68ZM53.94 87.9C52.26 87.9 50.8 87.62 49.56 87.06C48.32 86.5133 47.36 85.7333 46.68 84.72C46 83.7067 45.66 82.5133 45.66 81.14C45.66 80.18 45.82 79.2867 46.14 78.46C46.46 77.6333 46.92 76.9 47.52 76.26C48.1333 75.6067 48.86 75.0867 49.7 74.7L50.02 75.34L41.32 75.54V72.64L58.38 72.24V75.14L55.82 75.2C54.9 75.2133 54.0333 75.3533 53.22 75.62C52.4067 75.8867 51.6933 76.2667 51.08 76.76C50.4667 77.24 49.9867 77.82 49.64 78.5C49.3067 79.18 49.14 79.9467 49.14 80.8C49.14 81.68 49.3267 82.4267 49.7 83.04C50.0733 83.64 50.62 84.1067 51.34 84.44C52.0733 84.76 52.9467 84.92 53.96 84.92C54.3333 84.92 54.7533 84.9 55.22 84.86C55.6867 84.82 56.12 84.76 56.52 84.68L56.88 87.66C56.3867 87.74 55.88 87.8 55.36 87.84C54.8533 87.88 54.38 87.9 53.94 87.9ZM65.46 88.72C64.8333 87.88 64.16 87.0933 63.44 86.36C62.72 85.6267 61.9333 84.9533 61.08 84.34L63.34 82.18C64.1667 82.8333 64.96 83.5467 65.72 84.32C66.48 85.0933 67.1867 85.9133 67.84 86.78L65.46 88.72ZM89.62 88.14C88.0067 88.14 86.6933 87.8933 85.68 87.4C84.6667 86.92 83.92 86.1667 83.44 85.14C82.9733 84.1 82.74 82.7667 82.74 81.14V71.6H86.06V81.14C86.06 82.54 86.3333 83.5467 86.88 84.16C87.4267 84.76 88.34 85.06 89.62 85.06C90.58 85.06 91.4267 84.88 92.16 84.52C92.8933 84.16 93.5667 83.5667 94.18 82.74C94.8067 81.9133 95.4267 80.7933 96.04 79.38L98.96 80.64C98.4 82.0267 97.8133 83.2 97.2 84.16C96.6 85.1067 95.9333 85.8733 95.2 86.46C94.4667 87.0467 93.64 87.4733 92.72 87.74C91.8133 88.0067 90.78 88.14 89.62 88.14ZM114.72 89.1C113.933 88.5667 113.2 88.0733 112.52 87.62C111.853 87.18 111.193 86.76 110.54 86.36C109.9 85.9467 109.227 85.5267 108.52 85.1C107.813 84.6733 107.027 84.2 106.16 83.68C105.253 83.1333 104.52 82.68 103.96 82.32C103.413 81.96 102.993 81.6467 102.7 81.38C102.42 81.1 102.233 80.8267 102.14 80.56C102.047 80.28 102 79.96 102 79.6C102 79.2267 102.053 78.9 102.16 78.62C102.267 78.3267 102.467 78.0467 102.76 77.78C103.053 77.5 103.473 77.1933 104.02 76.86C104.58 76.5133 105.3 76.1 106.18 75.62C107.047 75.1533 107.953 74.6533 108.9 74.12C109.847 73.5733 110.78 73.0267 111.7 72.48C112.62 71.92 113.453 71.3933 114.2 70.9L115.96 73.54C115.507 73.82 114.987 74.1333 114.4 74.48C113.813 74.8133 113.2 75.16 112.56 75.52C111.933 75.88 111.313 76.2267 110.7 76.56C110.1 76.88 109.56 77.1733 109.08 77.44C108.613 77.6933 108.24 77.8933 107.96 78.04C107.373 78.3467 106.913 78.5933 106.58 78.78C106.26 78.9667 106.04 79.12 105.92 79.24C105.8 79.36 105.74 79.48 105.74 79.6C105.74 79.7333 105.78 79.8533 105.86 79.96C105.94 80.0533 106.127 80.1867 106.42 80.36C106.713 80.5333 107.167 80.8 107.78 81.16C108.087 81.32 108.5 81.5533 109.02 81.86C109.553 82.1533 110.147 82.4933 110.8 82.88C111.467 83.2667 112.14 83.6667 112.82 84.08C113.513 84.4933 114.18 84.9067 114.82 85.32C115.473 85.7333 116.053 86.1133 116.56 86.46L114.72 89.1ZM125.96 87.96C125.293 87.96 124.66 87.8133 124.06 87.52C123.46 87.2267 122.92 86.8333 122.44 86.34C121.973 85.8333 121.607 85.2667 121.34 84.64C121.073 84.0133 120.94 83.3533 120.94 82.66C120.94 81.58 121.28 80.66 121.96 79.9C122.653 79.14 123.647 78.5533 124.94 78.14C126.233 77.7267 127.773 77.52 129.56 77.52C131.36 77.52 133.073 77.7533 134.7 78.22C136.34 78.6867 137.947 79.4 139.52 80.36L138.4 83.1C137.387 82.4333 136.407 81.9 135.46 81.5C134.527 81.0867 133.58 80.7933 132.62 80.62C131.673 80.4333 130.653 80.34 129.56 80.34C127.8 80.34 126.433 80.5467 125.46 80.96C124.487 81.36 124 81.9267 124 82.66C124 82.9 124.04 83.14 124.12 83.38C124.213 83.62 124.34 83.84 124.5 84.04C124.66 84.24 124.827 84.4067 125 84.54C125.173 84.66 125.353 84.72 125.54 84.72C125.913 84.72 126.247 84.4867 126.54 84.02C126.833 83.54 127.08 82.8467 127.28 81.94C127.48 81.02 127.627 79.88 127.72 78.52C127.827 77.16 127.88 75.5867 127.88 73.8L128.66 74.72H121.86V71.98H131.22V72.18C131.22 74.9 131.113 77.2533 130.9 79.24C130.7 81.2267 130.387 82.8667 129.96 84.16C129.533 85.44 128.987 86.3933 128.32 87.02C127.653 87.6467 126.867 87.96 125.96 87.96ZM131.08 86.04C131.56 85.68 131.96 85.3333 132.28 85C132.6 84.6533 132.86 84.26 133.06 83.82C133.26 83.3667 133.407 82.8133 133.5 82.16C133.607 81.5067 133.673 80.7067 133.7 79.76C133.74 78.8 133.76 77.6267 133.76 76.24V72.54H136.92V76.42C136.92 77.9667 136.887 79.3 136.82 80.42C136.767 81.54 136.667 82.5067 136.52 83.32C136.373 84.12 136.167 84.8133 135.9 85.4C135.647 85.9733 135.313 86.4933 134.9 86.96C134.487 87.4267 133.98 87.8867 133.38 88.34L131.08 86.04ZM151.28 84.04C151.28 82.56 151.207 81.4133 151.06 80.6C150.927 79.7733 150.687 79.2 150.34 78.88C149.993 78.56 149.5 78.4 148.86 78.4C148.247 78.4 147.66 78.54 147.1 78.82C146.553 79.1 146 79.5533 145.44 80.18C144.88 80.7933 144.28 81.6133 143.64 82.64L140.98 81.12C141.66 80.1333 142.253 79.22 142.76 78.38C143.267 77.54 143.72 76.72 144.12 75.92C144.533 75.1067 144.907 74.2667 145.24 73.4C145.587 72.5333 145.927 71.5867 146.26 70.56L149.48 71.08C149.093 72.2267 148.68 73.2933 148.24 74.28C147.813 75.2533 147.353 76.2 146.86 77.12L146.44 76.86C146.96 76.6067 147.52 76.42 148.12 76.3C148.72 76.1667 149.3 76.1 149.86 76.1C150.967 76.1 151.86 76.3667 152.54 76.9C153.233 77.4333 153.733 78.2867 154.04 79.46C154.36 80.62 154.52 82.1467 154.52 84.04H151.28ZM151.38 88.38C149.3 88.38 147.673 88.0467 146.5 87.38C145.34 86.7267 144.76 85.8067 144.76 84.62C144.76 83.7933 145.047 83 145.62 82.24C146.193 81.48 147.033 80.7733 148.14 80.12C149.26 79.4533 150.62 78.8533 152.22 78.32C153.833 77.7867 155.66 77.3267 157.7 76.94L158.16 79.58C156.587 79.8867 155.173 80.2267 153.92 80.6C152.667 80.9733 151.593 81.3667 150.7 81.78C149.82 82.1933 149.147 82.6133 148.68 83.04C148.213 83.4667 147.98 83.8933 147.98 84.32C147.98 84.7733 148.273 85.12 148.86 85.36C149.447 85.6 150.3 85.72 151.42 85.72C152.18 85.72 153.06 85.6667 154.06 85.56C155.073 85.44 156.233 85.2733 157.54 85.06L157.94 87.76C157.247 87.88 156.5 87.9867 155.7 88.08C154.913 88.1733 154.14 88.2467 153.38 88.3C152.633 88.3533 151.967 88.38 151.38 88.38ZM141.14 75.04V72.46H157.24V75.04H141.14ZM162.62 88.82L160.8 86.4C161.693 85.7467 162.44 85.0067 163.04 84.18C163.653 83.34 164.107 82.4067 164.4 81.38C164.707 80.34 164.86 79.1933 164.86 77.94V74.56H162.96V71.96H169.76V74.56H167.96V77.94C167.96 79.0467 167.82 80.1467 167.54 81.24C167.273 82.3333 166.893 83.3667 166.4 84.34C165.907 85.3133 165.333 86.1867 164.68 86.96C164.04 87.7333 163.353 88.3533 162.62 88.82ZM168.52 87.68C167.947 86.6667 167.36 85.6667 166.76 84.68C166.16 83.6933 165.54 82.7067 164.9 81.72L167.2 80.48C167.893 81.4533 168.54 82.4067 169.14 83.34C169.74 84.2733 170.3 85.1733 170.82 86.04L168.52 87.68ZM160.88 80.38V77.7H170.38V80.38H160.88ZM163.06 77.42L160.56 76.38C160.947 75.5 161.3 74.52 161.62 73.44C161.953 72.36 162.233 71.2467 162.46 70.1L165.14 70.52C164.94 71.7733 164.66 72.9933 164.3 74.18C163.953 75.3533 163.54 76.4333 163.06 77.42ZM170.46 88.52V71.64H178.92V88.52H175.9V87.46H173.38V84.86H175.9V74.32H173.38V88.52H170.46ZM196.08 87.74C195.12 87.74 194.427 87.4933 194 87C193.573 86.4933 193.36 85.68 193.36 84.56V77.74C193.36 77.0467 193.28 76.54 193.12 76.22C192.973 75.8867 192.74 75.72 192.42 75.72C192.22 75.72 191.973 75.7933 191.68 75.94C191.4 76.0867 191.027 76.3467 190.56 76.72C190.093 77.08 189.493 77.5933 188.76 78.26C188.027 78.9133 187.12 79.76 186.04 80.8H185.7C185.18 81.3333 184.6 81.9333 183.96 82.6C183.32 83.2533 182.613 83.98 181.84 84.78L180.18 82.14C181.9 80.5133 183.373 79.1467 184.6 78.04C185.84 76.92 186.893 76.0067 187.76 75.3C188.627 74.58 189.367 74.0267 189.98 73.64C190.593 73.2533 191.133 72.9933 191.6 72.86C192.08 72.7133 192.547 72.64 193 72.64C194.2 72.64 195.1 72.9933 195.7 73.7C196.3 74.3933 196.6 75.44 196.6 76.84V82.94C196.6 83.42 196.613 83.7867 196.64 84.04C196.667 84.28 196.707 84.44 196.76 84.52C196.827 84.6 196.92 84.64 197.04 84.64C197.253 84.64 197.547 84.5667 197.92 84.42C198.307 84.2733 198.753 84.0667 199.26 83.8L199.9 86.7C199.3 87.0333 198.673 87.2867 198.02 87.46C197.367 87.6467 196.72 87.74 196.08 87.74ZM184.68 88.44V76.56H180.44V73.84H184.68V71.16H187.84V88.44H184.68ZM209.6 88.46C207.573 88.46 205.993 88.12 204.86 87.44C203.74 86.76 203.18 85.8133 203.18 84.6C203.18 83.56 203.613 82.7533 204.48 82.18C205.36 81.5933 206.56 81.3 208.08 81.3C209.453 81.3 210.48 81.5533 211.16 82.06C211.84 82.5533 212.18 83.3 212.18 84.3C212.18 84.66 212.14 85.04 212.06 85.44C211.98 85.84 211.867 86.2267 211.72 86.6L208.98 86.32C209.127 85.9467 209.24 85.62 209.32 85.34C209.4 85.0467 209.44 84.8067 209.44 84.62C209.44 83.94 208.913 83.6 207.86 83.6C207.313 83.6 206.893 83.6867 206.6 83.86C206.307 84.02 206.16 84.26 206.16 84.58C206.16 85.0333 206.413 85.38 206.92 85.62C207.427 85.86 208.18 85.98 209.18 85.98C211.153 85.98 212.593 85.7067 213.5 85.16C214.42 84.6133 214.88 83.7667 214.88 82.62C214.88 81.6067 214.507 80.8733 213.76 80.42C213.027 79.9533 211.82 79.72 210.14 79.72C209.18 79.72 208.34 79.8 207.62 79.96C206.9 80.12 206.213 80.3667 205.56 80.7L203.08 82.04L201.8 79.56L212.2 74.24V74.66H203V71.94H217.12V74.66L206.86 80.02L205.2 78.56C205.653 78.4133 206.173 78.2733 206.76 78.14C207.347 78.0067 207.953 77.8867 208.58 77.78C209.207 77.6733 209.813 77.5933 210.4 77.54C210.987 77.4733 211.507 77.44 211.96 77.44C213.96 77.44 215.5 77.8733 216.58 78.74C217.66 79.5933 218.2 80.82 218.2 82.42C218.2 84.3533 217.453 85.8467 215.96 86.9C214.467 87.94 212.347 88.46 209.6 88.46ZM230.2 87.96C228.6 87.96 227.207 87.7733 226.02 87.4C224.833 87.04 223.913 86.5267 223.26 85.86C222.62 85.1933 222.3 84.4067 222.3 83.5C222.3 82.7533 222.533 81.9533 223 81.1C223.467 80.2467 224.187 79.2933 225.16 78.24L228.16 79.4C227.373 80.2 226.773 80.9267 226.36 81.58C225.947 82.22 225.74 82.7467 225.74 83.16C225.74 83.5467 225.913 83.8867 226.26 84.18C226.62 84.46 227.133 84.68 227.8 84.84C228.48 84.9867 229.28 85.06 230.2 85.06C230.84 85.06 231.547 85.02 232.32 84.94C233.107 84.86 233.893 84.7467 234.68 84.6C235.48 84.4533 236.207 84.2867 236.86 84.1L237.48 87C236.827 87.1733 236.073 87.3333 235.22 87.48C234.367 87.64 233.5 87.76 232.62 87.84C231.753 87.92 230.947 87.96 230.2 87.96ZM223.3 75.14V72.24H236.9V75.14H223.3ZM250 88.28C247.453 88.28 245.52 87.8667 244.2 87.04C242.88 86.2133 242.22 85.0067 242.22 83.42C242.22 82.0867 242.7 80.88 243.66 79.8C244.633 78.7067 246.133 77.7133 248.16 76.82C250.2 75.9133 252.82 75.0667 256.02 74.28L256.76 77.18C254.213 77.8067 252.113 78.4467 250.46 79.1C248.82 79.74 247.6 80.4 246.8 81.08C246 81.7467 245.6 82.4467 245.6 83.18C245.6 84.6333 247.133 85.36 250.2 85.36C250.733 85.36 251.28 85.34 251.84 85.3C252.413 85.26 253.087 85.1867 253.86 85.08C254.647 84.96 255.6 84.8133 256.72 84.64L257.12 87.54C255.773 87.78 254.513 87.96 253.34 88.08C252.167 88.2133 251.053 88.28 250 88.28ZM245.8 79.36C245.427 78.04 245.1 76.7333 244.82 75.44C244.553 74.1467 244.347 72.9 244.2 71.7L247.52 71.2C247.667 72.4 247.873 73.6333 248.14 74.9C248.42 76.1533 248.747 77.38 249.12 78.58L245.8 79.36ZM260.72 87.48C261.2 86.1467 261.62 84.94 261.98 83.86C262.353 82.7667 262.68 81.7333 262.96 80.76C263.253 79.7733 263.513 78.7867 263.74 77.8C263.98 76.8 264.207 75.7333 264.42 74.6C264.633 73.4533 264.86 72.1667 265.1 70.74L268.24 71.08C268.04 72.4267 267.833 73.68 267.62 74.84C267.407 75.9867 267.173 77.0933 266.92 78.16C266.667 79.2133 266.38 80.2733 266.06 81.34C265.753 82.4067 265.407 83.5133 265.02 84.66C264.633 85.8067 264.193 87.06 263.7 88.42L260.72 87.48ZM276.66 84.82C276.567 84.0333 276.433 83.1867 276.26 82.28C276.1 81.3733 275.913 80.46 275.7 79.54C275.5 78.62 275.28 77.74 275.04 76.9L278.08 76.1C278.32 76.98 278.547 77.8867 278.76 78.82C278.973 79.74 279.167 80.6667 279.34 81.6C279.513 82.52 279.653 83.4067 279.76 84.26L276.66 84.82ZM274.94 75.92C274.607 75.2133 274.26 74.5733 273.9 74C273.553 73.4133 273.167 72.82 272.74 72.22L274.68 71.14C275.12 71.7133 275.513 72.3067 275.86 72.92C276.207 73.5333 276.547 74.2067 276.88 74.94L274.94 75.92ZM277.86 74.84C277.54 74.12 277.213 73.4667 276.88 72.88C276.56 72.28 276.193 71.6867 275.78 71.1L277.7 70.1C278.127 70.7 278.5 71.3067 278.82 71.92C279.153 72.5333 279.48 73.2133 279.8 73.96L277.86 74.84ZM270.48 87.86C270.12 87.86 269.68 87.82 269.16 87.74C268.64 87.6733 268.1 87.5733 267.54 87.44C266.98 87.3067 266.447 87.1533 265.94 86.98L266.64 84.32C267.04 84.4267 267.427 84.5333 267.8 84.64C268.173 84.7333 268.513 84.8067 268.82 84.86C269.127 84.9133 269.367 84.94 269.54 84.94C269.9 84.94 270.18 84.7933 270.38 84.5C270.593 84.2067 270.74 83.7 270.82 82.98C270.913 82.2467 270.96 81.2333 270.96 79.94C270.96 79.26 270.933 78.7133 270.88 78.3C270.827 77.8733 270.733 77.5467 270.6 77.32C270.467 77.0933 270.273 76.94 270.02 76.86C269.767 76.78 269.427 76.74 269 76.74H260.56V73.92H268.66C269.673 73.92 270.513 73.96 271.18 74.04C271.847 74.12 272.38 74.28 272.78 74.52C273.18 74.7467 273.48 75.1 273.68 75.58C273.893 76.0467 274.033 76.6733 274.1 77.46C274.167 78.2333 274.2 79.2 274.2 80.36C274.2 82.1733 274.073 83.6333 273.82 84.74C273.58 85.8333 273.187 86.6267 272.64 87.12C272.107 87.6133 271.387 87.86 270.48 87.86ZM288.36 88.94V83.74H281.1V81.14H288.36V80.3H288.34V78.26H291.66V77.12H288.34V75.16H291.66V74.06H288.34V80.3H285.32V71.74H294.68V80.3H291.64V81.14H298.9V83.74H291.64V88.94H288.36ZM281.54 88.72L280.36 86.18C282.147 85.7133 283.687 85.2133 284.98 84.68C286.287 84.1333 287.387 83.5667 288.28 82.98L290.16 84.12C289.173 84.9867 287.96 85.8133 286.52 86.6C285.08 87.3867 283.42 88.0933 281.54 88.72ZM281.22 80.54L280.34 78.04C281.127 77.7733 281.873 77.5067 282.58 77.24C283.287 76.96 283.953 76.68 284.58 76.4L285.48 78.82C284.84 79.1267 284.167 79.4267 283.46 79.72C282.767 80.0133 282.02 80.2867 281.22 80.54ZM298.46 88.72C296.58 88.0933 294.92 87.3867 293.48 86.6C292.04 85.8133 290.827 84.9867 289.84 84.12L291.72 82.98C292.613 83.5667 293.713 84.1333 295.02 84.68C296.327 85.2133 297.867 85.7133 299.64 86.18L298.46 88.72ZM283.76 76C283.333 75.6133 282.84 75.1867 282.28 74.72C281.72 74.24 281.107 73.7667 280.44 73.3L282.14 71.26C282.78 71.7267 283.387 72.2 283.96 72.68C284.533 73.16 285.033 73.5933 285.46 73.98L283.76 76ZM290.74 73.58L287.48 73.38C287.627 72.9 287.767 72.4067 287.9 71.9C288.047 71.3933 288.173 70.8467 288.28 70.26L291.54 70.44C291.433 71.0267 291.307 71.58 291.16 72.1C291.027 72.6067 290.887 73.1 290.74 73.58ZM298.62 80.54C297.953 80.22 297.267 79.92 296.56 79.64C295.853 79.3467 295.12 79.0733 294.36 78.82L295.42 76.4C296.22 76.6533 296.973 76.9133 297.68 77.18C298.387 77.4467 299.053 77.7333 299.68 78.04L298.62 80.54ZM296.24 75.92L294.46 73.98C295.02 73.5667 295.587 73.1267 296.16 72.66C296.733 72.18 297.273 71.7133 297.78 71.26L299.56 73.2C299.133 73.6267 298.633 74.0733 298.06 74.54C297.487 74.9933 296.88 75.4533 296.24 75.92ZM309.62 88.14C308.007 88.14 306.693 87.8933 305.68 87.4C304.667 86.92 303.92 86.1667 303.44 85.14C302.973 84.1 302.74 82.7667 302.74 81.14V71.6H306.06V81.14C306.06 82.54 306.333 83.5467 306.88 84.16C307.427 84.76 308.34 85.06 309.62 85.06C310.58 85.06 311.427 84.88 312.16 84.52C312.893 84.16 313.567 83.5667 314.18 82.74C314.807 81.9133 315.427 80.7933 316.04 79.38L318.96 80.64C318.4 82.0267 317.813 83.2 317.2 84.16C316.6 85.1067 315.933 85.8733 315.2 86.46C314.467 87.0467 313.64 87.4733 312.72 87.74C311.813 88.0067 310.78 88.14 309.62 88.14ZM326.34 87.84C325.607 87.84 324.94 87.6333 324.34 87.22C323.74 86.8067 323.22 86.22 322.78 85.46C322.353 84.7 322.02 83.7933 321.78 82.74C321.553 81.6867 321.44 80.52 321.44 79.24C321.44 78.2267 321.527 77.1733 321.7 76.08C321.873 74.9867 322.14 73.7867 322.5 72.48L325.7 72.84C325.367 74.0133 325.12 75.0867 324.96 76.06C324.8 77.0333 324.72 77.9667 324.72 78.86C324.72 79.6467 324.767 80.3733 324.86 81.04C324.967 81.7067 325.107 82.2867 325.28 82.78C325.453 83.2733 325.653 83.66 325.88 83.94C326.12 84.2067 326.373 84.34 326.64 84.34C326.907 84.34 327.2 84.22 327.52 83.98C327.853 83.74 328.193 83.4133 328.54 83C328.9 82.5733 329.24 82.0933 329.56 81.56C329.88 81.0133 330.153 80.4467 330.38 79.86L333.28 81.38C332.933 82.3 332.5 83.1533 331.98 83.94C331.473 84.7267 330.907 85.4133 330.28 86C329.653 86.5867 329.007 87.04 328.34 87.36C327.673 87.68 327.007 87.84 326.34 87.84ZM335.82 85.86C335.82 84.34 335.72 82.8267 335.52 81.32C335.333 79.8133 335.053 78.3533 334.68 76.94C334.32 75.5267 333.873 74.2067 333.34 72.98L336.36 72.12C336.96 73.3867 337.46 74.76 337.86 76.24C338.273 77.7067 338.58 79.2467 338.78 80.86C338.993 82.4733 339.1 84.14 339.1 85.86H335.82ZM344.7 88.9C343.94 88.9 343.273 88.74 342.7 88.42C342.127 88.1 341.68 87.6533 341.36 87.08C341.053 86.52 340.9 85.86 340.9 85.1C340.9 84.34 341.053 83.6733 341.36 83.1C341.68 82.5267 342.127 82.0867 342.7 81.78C343.273 81.46 343.94 81.3 344.7 81.3C345.46 81.3 346.12 81.46 346.68 81.78C347.253 82.0867 347.7 82.5267 348.02 83.1C348.34 83.6733 348.5 84.34 348.5 85.1C348.5 85.86 348.34 86.52 348.02 87.08C347.7 87.6533 347.253 88.1 346.68 88.42C346.12 88.74 345.46 88.9 344.7 88.9ZM344.7 86.58C345.153 86.58 345.513 86.4467 345.78 86.18C346.047 85.9 346.18 85.54 346.18 85.1C346.18 84.6467 346.047 84.2867 345.78 84.02C345.513 83.7533 345.153 83.62 344.7 83.62C344.26 83.62 343.9 83.7533 343.62 84.02C343.353 84.2867 343.22 84.6467 343.22 85.1C343.22 85.54 343.353 85.9 343.62 86.18C343.9 86.4467 344.26 86.58 344.7 86.58ZM42.34 124.56L40.96 122.72C41.84 122.08 42.5867 121.327 43.2 120.46C43.8267 119.593 44.3 118.62 44.62 117.54C44.9533 116.46 45.12 115.273 45.12 113.98V110.22H43.06V108.22H49.86V110.22H47.46V113.98C47.46 115.073 47.3267 116.147 47.06 117.2C46.8067 118.253 46.4467 119.253 45.98 120.2C45.5133 121.147 44.9733 121.993 44.36 122.74C43.7467 123.487 43.0733 124.093 42.34 124.56ZM48.7 123.34C48.1133 122.327 47.5 121.3 46.86 120.26C46.2333 119.22 45.5867 118.18 44.92 117.14L46.72 116.14C47.44 117.18 48.1133 118.2 48.74 119.2C49.38 120.2 49.98 121.16 50.54 122.08L48.7 123.34ZM41 115.92V113.86H50.22V115.92H41ZM42.7 113.44L40.78 112.66C41.2067 111.767 41.6 110.767 41.96 109.66C42.32 108.553 42.6133 107.413 42.84 106.24L44.88 106.56C44.6667 107.813 44.3733 109.033 44 110.22C43.6267 111.393 43.1933 112.467 42.7 113.44ZM50.68 124.4V107.84H58.8V124.4H56.5V123.24H52.92V121.24H56.5V109.9H52.92V124.4H50.68ZM76.36 123.48C75.52 123.48 74.9 123.26 74.5 122.82C74.1133 122.367 73.92 121.647 73.92 120.66V113.36C73.92 112.56 73.82 111.973 73.62 111.6C73.4333 111.227 73.1333 111.04 72.72 111.04C72.4667 111.04 72.1667 111.127 71.82 111.3C71.4733 111.46 71.04 111.733 70.52 112.12C70.0133 112.507 69.3933 113.033 68.66 113.7C67.9267 114.353 67.0467 115.173 66.02 116.16H65.8C65.24 116.733 64.6067 117.373 63.9 118.08C63.2067 118.787 62.4467 119.573 61.62 120.44L60.32 118.5C62.0133 116.86 63.4667 115.473 64.68 114.34C65.8933 113.207 66.9333 112.28 67.8 111.56C68.6667 110.84 69.4 110.28 70 109.88C70.6133 109.48 71.1533 109.207 71.62 109.06C72.1 108.913 72.5667 108.84 73.02 108.84C74.1 108.84 74.9133 109.173 75.46 109.84C76.02 110.493 76.3 111.46 76.3 112.74V119.52C76.3 120 76.3133 120.367 76.34 120.62C76.38 120.873 76.4333 121.047 76.5 121.14C76.58 121.22 76.6933 121.26 76.84 121.26C77.08 121.26 77.4067 121.18 77.82 121.02C78.2467 120.86 78.7133 120.633 79.22 120.34L79.9 122.38C79.3 122.74 78.7 123.013 78.1 123.2C77.5 123.387 76.92 123.48 76.36 123.48ZM64.96 124.34V112.22H60.48V110.18H64.96V107.26H67.28V124.34H64.96ZM90.18 123.94C88.74 123.94 87.6133 123.62 86.8 122.98C86 122.327 85.6 121.42 85.6 120.26C85.6 119.073 86 118.16 86.8 117.52C87.6 116.88 88.7267 116.56 90.18 116.56C90.82 116.56 91.4267 116.64 92 116.8C92.5867 116.947 93.1933 117.213 93.82 117.6C94.4467 117.987 95.1533 118.52 95.94 119.2C96.7267 119.867 97.64 120.72 98.68 121.76L97.22 123.34C96.2733 122.38 95.4533 121.593 94.76 120.98C94.0667 120.353 93.46 119.867 92.94 119.52C92.42 119.173 91.9333 118.933 91.48 118.8C91.0267 118.653 90.5533 118.58 90.06 118.58C88.5133 118.58 87.74 119.14 87.74 120.26C87.74 121.367 88.5133 121.92 90.06 121.92C90.8867 121.92 91.4733 121.747 91.82 121.4C92.18 121.04 92.36 120.453 92.36 119.64V111.52H91.8V107.38H94.12V111.52H94.68V119.74C94.68 121.14 94.3 122.193 93.54 122.9C92.78 123.593 91.66 123.94 90.18 123.94ZM81.96 124.3C81.6133 122.927 81.36 121.573 81.2 120.24C81.04 118.907 80.96 117.493 80.96 116C80.96 114.52 81.04 113.12 81.2 111.8C81.36 110.467 81.6133 109.113 81.96 107.74L84.32 108.04C84 109.333 83.76 110.633 83.6 111.94C83.4533 113.233 83.38 114.587 83.38 116C83.38 117.413 83.4533 118.773 83.6 120.08C83.76 121.387 84 122.673 84.32 123.94L81.96 124.3ZM85.66 112.54V110.52H98.38V112.54H85.66ZM95.26 110.1C95.14 109.46 95.0067 108.853 94.86 108.28C94.7133 107.707 94.54 107.133 94.34 106.56L96.2 106.1C96.4267 106.673 96.6133 107.253 96.76 107.84C96.9067 108.427 97.0333 109.06 97.14 109.74L95.26 110.1ZM98.04 109.88C97.9333 109.227 97.8067 108.613 97.66 108.04C97.5267 107.467 97.36 106.893 97.16 106.32L99.04 105.9C99.24 106.473 99.4067 107.06 99.54 107.66C99.6867 108.247 99.8067 108.873 99.9 109.54L98.04 109.88ZM102.34 124.56L100.96 122.72C101.84 122.08 102.587 121.327 103.2 120.46C103.827 119.593 104.3 118.62 104.62 117.54C104.953 116.46 105.12 115.273 105.12 113.98V110.22H103.06V108.22H109.86V110.22H107.46V113.98C107.46 115.073 107.327 116.147 107.06 117.2C106.807 118.253 106.447 119.253 105.98 120.2C105.513 121.147 104.973 121.993 104.36 122.74C103.747 123.487 103.073 124.093 102.34 124.56ZM108.7 123.34C108.113 122.327 107.5 121.3 106.86 120.26C106.233 119.22 105.587 118.18 104.92 117.14L106.72 116.14C107.44 117.18 108.113 118.2 108.74 119.2C109.38 120.2 109.98 121.16 110.54 122.08L108.7 123.34ZM101 115.92V113.86H110.22V115.92H101ZM102.7 113.44L100.78 112.66C101.207 111.767 101.6 110.767 101.96 109.66C102.32 108.553 102.613 107.413 102.84 106.24L104.88 106.56C104.667 107.813 104.373 109.033 104 110.22C103.627 111.393 103.193 112.467 102.7 113.44ZM110.68 124.4V107.84H118.8V124.4H116.5V123.24H112.92V121.24H116.5V109.9H112.92V124.4H110.68ZM129.54 124.26C127.567 124.26 126.033 123.94 124.94 123.3C123.86 122.66 123.32 121.76 123.32 120.6C123.32 119.613 123.727 118.847 124.54 118.3C125.367 117.74 126.5 117.46 127.94 117.46C129.3 117.46 130.32 117.713 131 118.22C131.68 118.713 132.02 119.46 132.02 120.46C132.02 120.82 131.967 121.207 131.86 121.62C131.767 122.033 131.627 122.46 131.44 122.9L129.24 122.66C129.427 122.207 129.56 121.82 129.64 121.5C129.733 121.18 129.78 120.9 129.78 120.66C129.78 119.753 129.113 119.3 127.78 119.3C127.1 119.3 126.567 119.413 126.18 119.64C125.807 119.853 125.62 120.167 125.62 120.58C125.62 121.14 125.947 121.587 126.6 121.92C127.253 122.24 128.14 122.4 129.26 122.4C131.407 122.4 133 122.087 134.04 121.46C135.093 120.82 135.62 119.847 135.62 118.54C135.62 117.433 135.207 116.62 134.38 116.1C133.567 115.58 132.267 115.32 130.48 115.32C129.453 115.32 128.547 115.413 127.76 115.6C126.973 115.773 126.247 116.047 125.58 116.42L122.94 117.94L121.98 116.1L133.34 109.78V110.16H123.16V108.14H136.84V110.16L127.08 115.54L125.84 114.52C126.253 114.373 126.713 114.24 127.22 114.12C127.74 113.987 128.267 113.88 128.8 113.8C129.347 113.707 129.873 113.633 130.38 113.58C130.887 113.513 131.347 113.48 131.76 113.48C133.787 113.48 135.34 113.907 136.42 114.76C137.5 115.613 138.04 116.827 138.04 118.4C138.04 120.28 137.3 121.727 135.82 122.74C134.353 123.753 132.26 124.26 129.54 124.26ZM150.96 123.82C149.52 123.82 148.407 123.513 147.62 122.9C146.847 122.287 146.46 121.42 146.46 120.3C146.46 119.18 146.847 118.333 147.62 117.76C148.407 117.173 149.52 116.88 150.96 116.88C151.64 116.88 152.273 116.953 152.86 117.1C153.447 117.247 154.04 117.493 154.64 117.84C155.253 118.187 155.92 118.673 156.64 119.3C157.373 119.913 158.207 120.687 159.14 121.62L157.68 123.08C156.84 122.24 156.1 121.54 155.46 120.98C154.82 120.42 154.24 119.98 153.72 119.66C153.213 119.34 152.727 119.113 152.26 118.98C151.807 118.847 151.333 118.78 150.84 118.78C149.413 118.78 148.7 119.287 148.7 120.3C148.7 121.287 149.38 121.78 150.74 121.78C151.54 121.78 152.107 121.607 152.44 121.26C152.773 120.9 152.94 120.307 152.94 119.48V110.12H146.62V108.1H158.64V110.12H155.2V119.6C155.2 121.027 154.853 122.087 154.16 122.78C153.48 123.473 152.413 123.82 150.96 123.82ZM146.62 114.6V112.62H158.64V114.6H146.62ZM142.78 124.1C142.46 122.727 142.22 121.373 142.06 120.04C141.9 118.707 141.82 117.293 141.82 115.8C141.82 114.32 141.9 112.92 142.06 111.6C142.22 110.267 142.46 108.913 142.78 107.54L145.12 107.84C144.8 109.133 144.567 110.433 144.42 111.74C144.273 113.033 144.2 114.387 144.2 115.8C144.2 117.213 144.273 118.573 144.42 119.88C144.567 121.187 144.8 122.473 145.12 123.74L142.78 124.1ZM169.5 124.28C167.007 124.28 165.113 123.933 163.82 123.24C162.527 122.56 161.88 121.467 161.88 119.96C161.88 118.773 162.34 117.693 163.26 116.72C164.193 115.733 165.633 114.827 167.58 114C169.54 113.173 172.067 112.387 175.16 111.64L175.72 113.76C173.12 114.4 170.98 115.033 169.3 115.66C167.633 116.287 166.393 116.94 165.58 117.62C164.78 118.287 164.38 118.993 164.38 119.74C164.38 120.593 164.813 121.207 165.68 121.58C166.56 121.94 167.88 122.12 169.64 122.12C170.213 122.12 170.813 122.1 171.44 122.06C172.067 122.007 172.767 121.933 173.54 121.84C174.327 121.747 175.22 121.627 176.22 121.48L176.52 123.62C175.24 123.833 174.007 123.993 172.82 124.1C171.647 124.22 170.54 124.28 169.5 124.28ZM165.7 115.34C165.313 114.033 164.987 112.753 164.72 111.5C164.453 110.233 164.24 108.98 164.08 107.74L166.5 107.38C166.673 108.62 166.893 109.86 167.16 111.1C167.427 112.327 167.747 113.547 168.12 114.76L165.7 115.34ZM173.96 111.42C173.613 110.7 173.273 110.053 172.94 109.48C172.607 108.893 172.233 108.327 171.82 107.78L173.46 106.8C173.887 107.373 174.267 107.967 174.6 108.58C174.947 109.193 175.293 109.86 175.64 110.58L173.96 111.42ZM176.82 110.48C176.513 109.733 176.193 109.073 175.86 108.5C175.54 107.913 175.187 107.347 174.8 106.8L176.42 105.9C176.847 106.487 177.227 107.087 177.56 107.7C177.893 108.313 178.213 108.987 178.52 109.72L176.82 110.48ZM185.5 124.58C184.887 123.767 184.227 123.007 183.52 122.3C182.813 121.58 182.047 120.913 181.22 120.3L182.86 118.66C183.687 119.3 184.473 120 185.22 120.76C185.967 121.507 186.66 122.313 187.3 123.18L185.5 124.58ZM209.64 124.04C208.12 124.04 206.873 123.8 205.9 123.32C204.94 122.853 204.227 122.127 203.76 121.14C203.307 120.153 203.08 118.887 203.08 117.34V107.6H205.52V117.34C205.52 118.9 205.847 120.033 206.5 120.74C207.153 121.433 208.2 121.78 209.64 121.78C210.693 121.78 211.62 121.587 212.42 121.2C213.233 120.813 213.967 120.187 214.62 119.32C215.287 118.44 215.927 117.273 216.54 115.82L218.76 116.72C218.227 118.053 217.653 119.187 217.04 120.12C216.44 121.04 215.78 121.793 215.06 122.38C214.353 122.953 213.553 123.373 212.66 123.64C211.767 123.907 210.76 124.04 209.64 124.04ZM222.96 124.18L220.88 123.42L227.36 107.14L229.56 107.78L226.08 116.38L225.34 115.9C226.007 115.353 226.673 114.927 227.34 114.62C228.02 114.313 228.68 114.16 229.32 114.16C229.813 114.16 230.24 114.267 230.6 114.48C230.96 114.68 231.267 114.98 231.52 115.38C231.773 115.767 231.987 116.24 232.16 116.8C232.347 117.36 232.513 118 232.66 118.72C232.78 119.28 232.9 119.767 233.02 120.18C233.153 120.593 233.32 120.913 233.52 121.14C233.733 121.367 234.007 121.48 234.34 121.48C234.927 121.48 235.453 121.1 235.92 120.34C236.387 119.567 236.827 118.347 237.24 116.68L239.34 117.38C238.993 118.86 238.587 120.073 238.12 121.02C237.653 121.953 237.1 122.647 236.46 123.1C235.82 123.567 235.08 123.8 234.24 123.8C233.667 123.8 233.173 123.7 232.76 123.5C232.36 123.3 232.013 123.007 231.72 122.62C231.427 122.233 231.173 121.767 230.96 121.22C230.76 120.66 230.587 120.033 230.44 119.34C230.307 118.753 230.16 118.247 230 117.82C229.853 117.393 229.66 117.067 229.42 116.84C229.193 116.613 228.887 116.5 228.5 116.5C228.247 116.5 227.953 116.553 227.62 116.66C227.287 116.767 226.947 116.947 226.6 117.2C226.267 117.44 225.94 117.773 225.62 118.2C225.3 118.613 225.013 119.133 224.76 119.76L222.96 124.18ZM249.5 124.28C247.007 124.28 245.113 123.933 243.82 123.24C242.527 122.56 241.88 121.467 241.88 119.96C241.88 118.773 242.34 117.693 243.26 116.72C244.193 115.733 245.633 114.827 247.58 114C249.54 113.173 252.067 112.387 255.16 111.64L255.72 113.76C253.12 114.4 250.98 115.033 249.3 115.66C247.633 116.287 246.393 116.94 245.58 117.62C244.78 118.287 244.38 118.993 244.38 119.74C244.38 120.593 244.813 121.207 245.68 121.58C246.56 121.94 247.88 122.12 249.64 122.12C250.213 122.12 250.813 122.1 251.44 122.06C252.067 122.007 252.767 121.933 253.54 121.84C254.327 121.747 255.22 121.627 256.22 121.48L256.52 123.62C255.24 123.833 254.007 123.993 252.82 124.1C251.647 124.22 250.54 124.28 249.5 124.28ZM245.7 115.34C245.313 114.033 244.987 112.753 244.72 111.5C244.453 110.233 244.24 108.98 244.08 107.74L246.5 107.38C246.673 108.62 246.893 109.86 247.16 111.1C247.427 112.327 247.747 113.547 248.12 114.76L245.7 115.34ZM253.96 111.42C253.613 110.7 253.273 110.053 252.94 109.48C252.607 108.893 252.233 108.327 251.82 107.78L253.46 106.8C253.887 107.373 254.267 107.967 254.6 108.58C254.947 109.193 255.293 109.86 255.64 110.58L253.96 111.42ZM256.82 110.48C256.513 109.733 256.193 109.073 255.86 108.5C255.54 107.913 255.187 107.347 254.8 106.8L256.42 105.9C256.847 106.487 257.227 107.087 257.56 107.7C257.893 108.313 258.213 108.987 258.52 109.72L256.82 110.48ZM266.42 123.58C265.74 123.58 265.113 123.373 264.54 122.96C263.967 122.533 263.467 121.94 263.04 121.18C262.613 120.42 262.28 119.527 262.04 118.5C261.813 117.46 261.7 116.34 261.7 115.14C261.7 114.167 261.78 113.14 261.94 112.06C262.113 110.967 262.373 109.82 262.72 108.62L265.06 108.9C264.753 110.007 264.52 111.06 264.36 112.06C264.2 113.06 264.12 114 264.12 114.88C264.12 115.72 264.187 116.513 264.32 117.26C264.453 118.007 264.633 118.66 264.86 119.22C265.1 119.78 265.367 120.22 265.66 120.54C265.967 120.86 266.287 121.02 266.62 121.02C266.94 121.02 267.287 120.887 267.66 120.62C268.047 120.34 268.44 119.967 268.84 119.5C269.24 119.033 269.613 118.5 269.96 117.9C270.32 117.3 270.62 116.673 270.86 116.02L273 117.1C272.667 118.007 272.253 118.853 271.76 119.64C271.267 120.427 270.72 121.12 270.12 121.72C269.533 122.307 268.92 122.76 268.28 123.08C267.64 123.413 267.02 123.58 266.42 123.58ZM276.46 121.64C276.46 120.12 276.353 118.607 276.14 117.1C275.94 115.593 275.64 114.147 275.24 112.76C274.853 111.373 274.387 110.1 273.84 108.94L276.06 108.28C276.673 109.493 277.18 110.82 277.58 112.26C277.993 113.687 278.307 115.193 278.52 116.78C278.747 118.353 278.86 119.973 278.86 121.64H276.46ZM296.96 124.74C296.493 124.74 296.033 124.573 295.58 124.24C295.14 123.907 294.74 123.393 294.38 122.7C294.02 122.007 293.72 121.107 293.48 120C293.253 118.893 293.12 117.573 293.08 116.04H282.76V114.16H295.48V114.8C295.48 115.987 295.527 117.033 295.62 117.94C295.727 118.833 295.86 119.587 296.02 120.2C296.18 120.8 296.34 121.253 296.5 121.56C296.66 121.867 296.807 122.02 296.94 122.02C296.98 122.02 297.02 122 297.06 121.96C297.1 121.907 297.14 121.8 297.18 121.64C297.22 121.467 297.26 121.213 297.3 120.88C297.353 120.547 297.407 120.107 297.46 119.56C297.513 119 297.567 118.307 297.62 117.48L299.64 117.82C299.56 119.313 299.447 120.52 299.3 121.44C299.167 122.347 298.993 123.04 298.78 123.52C298.567 124 298.307 124.32 298 124.48C297.707 124.653 297.36 124.74 296.96 124.74ZM282.06 124.9L281.06 123.1C282.913 122.367 284.673 121.413 286.34 120.24C288.02 119.053 289.487 117.733 290.74 116.28L292.36 117.62C291.493 118.66 290.507 119.64 289.4 120.56C288.307 121.48 287.14 122.307 285.9 123.04C284.66 123.773 283.38 124.393 282.06 124.9ZM291.58 124.64C290.393 123.6 289.3 122.687 288.3 121.9C287.3 121.113 286.347 120.407 285.44 119.78C284.547 119.153 283.647 118.58 282.74 118.06L283.92 116.44C284.88 116.987 285.82 117.573 286.74 118.2C287.66 118.827 288.627 119.547 289.64 120.36C290.667 121.16 291.78 122.093 292.98 123.16L291.58 124.64ZM282.48 114.18L280.64 112.96C281.453 112.013 282.18 110.953 282.82 109.78C283.473 108.593 283.993 107.38 284.38 106.14L286.62 106.6C286.207 108 285.64 109.353 284.92 110.66C284.213 111.953 283.4 113.127 282.48 114.18ZM284.88 112.8V111H296.78V112.8H284.88ZM284.66 109.72V107.76H297.98V109.72H284.66ZM314.46 124.7C314.233 124.7 313.9 124.687 313.46 124.66C313.033 124.647 312.533 124.627 311.96 124.6L311.86 122.64C312.367 122.667 312.813 122.687 313.2 122.7C313.587 122.713 313.867 122.72 314.04 122.72C314.387 122.72 314.633 122.707 314.78 122.68C314.927 122.64 315.013 122.547 315.04 122.4C315.067 122.253 315.08 122.007 315.08 121.66V117.94H307.64V115.96H315.08V114.26H307.64V112.28H312.22V110.26H308.14V108.34H312.22V106.36H314.62V108.34H318.54V110.26H314.62V112.28H319.24V114.26H317.48V115.96H319.24V117.94H317.48V121.54C317.48 122.273 317.447 122.847 317.38 123.26C317.327 123.687 317.2 124 317 124.2C316.8 124.413 316.493 124.547 316.08 124.6C315.68 124.667 315.14 124.7 314.46 124.7ZM301.08 118.96L300.92 116.86C301.613 116.727 302.32 116.567 303.04 116.38C303.773 116.193 304.48 115.993 305.16 115.78C305.853 115.567 306.487 115.353 307.06 115.14L307.38 117.14C306.793 117.367 306.133 117.593 305.4 117.82C304.68 118.047 303.947 118.26 303.2 118.46C302.453 118.66 301.747 118.827 301.08 118.96ZM303.16 124.66C302.973 124.66 302.713 124.647 302.38 124.62C302.06 124.607 301.667 124.587 301.2 124.56L301.1 122.64C301.513 122.667 301.867 122.687 302.16 122.7C302.467 122.713 302.693 122.72 302.84 122.72C302.947 122.72 303.02 122.707 303.06 122.68C303.113 122.653 303.14 122.573 303.14 122.44C303.153 122.293 303.16 122.06 303.16 121.74V112.06H300.98V110.06H303.16V106.76H305.5V110.06H307.42V112.06H305.5V121.58C305.5 122.3 305.473 122.86 305.42 123.26C305.38 123.673 305.28 123.98 305.12 124.18C304.96 124.393 304.72 124.527 304.4 124.58C304.093 124.633 303.68 124.66 303.16 124.66ZM311.18 122.7C310.727 122.193 310.24 121.673 309.72 121.14C309.2 120.607 308.687 120.107 308.18 119.64L309.74 118.2C310.26 118.653 310.78 119.147 311.3 119.68C311.82 120.213 312.3 120.74 312.74 121.26L311.18 122.7ZM329.66 123.86C329.047 123.86 328.387 123.833 327.68 123.78C326.973 123.727 326.267 123.653 325.56 123.56C324.867 123.48 324.213 123.38 323.6 123.26L323.86 121.1C324.847 121.287 325.847 121.433 326.86 121.54C327.887 121.647 328.82 121.7 329.66 121.7C331.42 121.7 332.76 121.433 333.68 120.9C334.6 120.367 335.06 119.6 335.06 118.6C335.06 117.747 334.733 117.1 334.08 116.66C333.44 116.22 332.5 116 331.26 116C330.193 116 329.18 116.18 328.22 116.54C327.273 116.9 326.253 117.48 325.16 118.28L323.1 117.46C323.433 116.78 323.767 115.987 324.1 115.08C324.433 114.16 324.753 113.207 325.06 112.22C325.367 111.22 325.627 110.26 325.84 109.34C326.053 108.407 326.2 107.6 326.28 106.92L328.64 107.06C328.573 107.647 328.46 108.32 328.3 109.08C328.153 109.84 327.973 110.627 327.76 111.44C327.56 112.24 327.34 113.013 327.1 113.76C326.86 114.493 326.627 115.147 326.4 115.72L325.98 115.34C326.9 114.86 327.827 114.5 328.76 114.26C329.693 114.02 330.64 113.9 331.6 113.9C332.84 113.9 333.9 114.093 334.78 114.48C335.673 114.867 336.353 115.42 336.82 116.14C337.3 116.86 337.54 117.72 337.54 118.72C337.54 120.373 336.86 121.647 335.5 122.54C334.14 123.42 332.193 123.86 329.66 123.86ZM321.56 111.48V109.46H338.44V111.48H321.56ZM341.06 123.44C341.553 122.173 341.993 121.007 342.38 119.94C342.767 118.86 343.113 117.827 343.42 116.84C343.74 115.853 344.027 114.853 344.28 113.84C344.547 112.827 344.793 111.747 345.02 110.6C345.247 109.453 345.473 108.187 345.7 106.8L348.02 107.06C347.807 108.393 347.587 109.64 347.36 110.8C347.133 111.947 346.88 113.053 346.6 114.12C346.333 115.173 346.033 116.227 345.7 117.28C345.38 118.333 345.013 119.42 344.6 120.54C344.2 121.66 343.747 122.86 343.24 124.14L341.06 123.44ZM357.26 120.82C357.14 120.02 356.98 119.167 356.78 118.26C356.593 117.34 356.373 116.42 356.12 115.5C355.867 114.58 355.6 113.693 355.32 112.84L357.54 112.18C357.82 113.06 358.087 113.973 358.34 114.92C358.607 115.853 358.84 116.793 359.04 117.74C359.24 118.673 359.407 119.567 359.54 120.42L357.26 120.82ZM355.16 111.74C354.813 111.007 354.473 110.353 354.14 109.78C353.807 109.207 353.433 108.64 353.02 108.08L354.68 107.12C355.107 107.693 355.487 108.287 355.82 108.9C356.167 109.513 356.507 110.18 356.84 110.9L355.16 111.74ZM357.96 110.68C357.64 109.933 357.32 109.273 357 108.7C356.68 108.113 356.327 107.547 355.94 107L357.56 106.1C357.987 106.687 358.36 107.287 358.68 107.9C359.013 108.513 359.333 109.187 359.64 109.92L357.96 110.68ZM350.56 123.66C350.213 123.66 349.78 123.613 349.26 123.52C348.74 123.44 348.193 123.32 347.62 123.16C347.06 123.013 346.52 122.847 346 122.66L346.54 120.64C346.98 120.773 347.413 120.907 347.84 121.04C348.28 121.16 348.68 121.26 349.04 121.34C349.413 121.407 349.7 121.44 349.9 121.44C350.327 121.44 350.68 121.247 350.96 120.86C351.24 120.46 351.447 119.84 351.58 119C351.727 118.147 351.8 117.053 351.8 115.72C351.8 114.947 351.773 114.327 351.72 113.86C351.667 113.38 351.553 113.02 351.38 112.78C351.22 112.54 350.973 112.38 350.64 112.3C350.307 112.22 349.86 112.18 349.3 112.18H340.82V110.1H349.08C350 110.1 350.767 110.14 351.38 110.22C352.007 110.287 352.5 110.427 352.86 110.64C353.233 110.853 353.513 111.18 353.7 111.62C353.9 112.047 354.027 112.62 354.08 113.34C354.147 114.047 354.18 114.933 354.18 116C354.18 117.733 354.053 119.167 353.8 120.3C353.547 121.433 353.147 122.28 352.6 122.84C352.067 123.387 351.387 123.66 350.56 123.66ZM364.12 124.84V114.34H360.78V112.36H364.12V108.34H366.34V112.36H369.58V114.34H366.34V124.84H364.12ZM361.64 122.34L360.38 120.36C361.327 119.24 362.12 118.04 362.76 116.76C363.4 115.48 363.84 114.2 364.08 112.92L365.4 113.84C365.053 115.693 364.567 117.313 363.94 118.7C363.313 120.073 362.547 121.287 361.64 122.34ZM368.42 120.64C367.913 119.653 367.387 118.667 366.84 117.68C366.293 116.68 365.74 115.693 365.18 114.72L366.24 113.34C366.933 114.393 367.607 115.427 368.26 116.44C368.913 117.44 369.533 118.407 370.12 119.34L368.42 120.64ZM361.18 109.74L361 107.88C361.853 107.84 362.727 107.767 363.62 107.66C364.513 107.54 365.407 107.407 366.3 107.26C367.207 107.1 368.08 106.927 368.92 106.74L369.54 108.54C368.793 108.727 367.967 108.907 367.06 109.08C366.153 109.24 365.207 109.38 364.22 109.5C363.233 109.607 362.22 109.687 361.18 109.74ZM370.22 124.4V107.84H378.9V124.4H376.58V123.24H372.52V121.24H376.58V109.9H372.52V124.4H370.22ZM389.88 123.76C389.16 123.76 388.38 123.727 387.54 123.66C386.713 123.607 385.907 123.527 385.12 123.42C384.347 123.313 383.647 123.193 383.02 123.06L383.24 120.98C384.013 121.113 384.793 121.233 385.58 121.34C386.38 121.447 387.147 121.533 387.88 121.6C388.613 121.653 389.28 121.68 389.88 121.68C391.773 121.68 393.207 121.4 394.18 120.84C395.153 120.28 395.64 119.453 395.64 118.36C395.64 117.453 395.3 116.767 394.62 116.3C393.94 115.82 392.96 115.58 391.68 115.58C390.813 115.58 389.94 115.68 389.06 115.88C388.18 116.08 387.347 116.367 386.56 116.74C385.773 117.113 385.073 117.553 384.46 118.06L382.32 117.64C382.493 116.787 382.647 116 382.78 115.28C382.913 114.547 383.027 113.86 383.12 113.22C383.213 112.567 383.293 111.933 383.36 111.32L385.68 111.5C385.6 112.233 385.5 112.993 385.38 113.78C385.273 114.553 385.14 115.333 384.98 116.12L384.64 115.56C385.36 115.107 386.107 114.733 386.88 114.44C387.653 114.133 388.447 113.9 389.26 113.74C390.087 113.58 390.94 113.5 391.82 113.5C393.86 113.5 395.407 113.907 396.46 114.72C397.513 115.533 398.04 116.733 398.04 118.32C398.04 120.12 397.353 121.48 395.98 122.4C394.607 123.307 392.573 123.76 389.88 123.76ZM395.72 110.22C394.467 110.233 393.267 110.227 392.12 110.2C390.973 110.16 389.827 110.093 388.68 110C387.547 109.907 386.367 109.78 385.14 109.62L385.38 107.54C386.513 107.673 387.66 107.787 388.82 107.88C389.98 107.96 391.133 108.027 392.28 108.08C393.427 108.12 394.573 108.14 395.72 108.14V110.22ZM46.42 159.58C45.74 159.58 45.1133 159.373 44.54 158.96C43.9667 158.533 43.4667 157.94 43.04 157.18C42.6133 156.42 42.28 155.527 42.04 154.5C41.8133 153.46 41.7 152.34 41.7 151.14C41.7 150.167 41.78 149.14 41.94 148.06C42.1133 146.967 42.3733 145.82 42.72 144.62L45.06 144.9C44.7533 146.007 44.52 147.06 44.36 148.06C44.2 149.06 44.12 150 44.12 150.88C44.12 151.72 44.1867 152.513 44.32 153.26C44.4533 154.007 44.6333 154.66 44.86 155.22C45.1 155.78 45.3667 156.22 45.66 156.54C45.9667 156.86 46.2867 157.02 46.62 157.02C46.94 157.02 47.2867 156.887 47.66 156.62C48.0467 156.34 48.44 155.967 48.84 155.5C49.24 155.033 49.6133 154.5 49.96 153.9C50.32 153.3 50.62 152.673 50.86 152.02L53 153.1C52.6667 154.007 52.2533 154.853 51.76 155.64C51.2667 156.427 50.72 157.12 50.12 157.72C49.5333 158.307 48.92 158.76 48.28 159.08C47.64 159.413 47.02 159.58 46.42 159.58ZM56.46 157.64C56.46 156.12 56.3533 154.607 56.14 153.1C55.94 151.593 55.64 150.147 55.24 148.76C54.8533 147.373 54.3867 146.1 53.84 144.94L56.06 144.28C56.6733 145.493 57.18 146.82 57.58 148.26C57.9933 149.687 58.3067 151.193 58.52 152.78C58.7467 154.353 58.86 155.973 58.86 157.64H56.46ZM73.04 159.94C71.4267 159.94 70.02 159.653 68.82 159.08C67.6333 158.52 66.7133 157.727 66.06 156.7C65.4067 155.66 65.08 154.44 65.08 153.04C65.08 151.947 65.2733 150.933 65.66 150C66.06 149.067 66.62 148.253 67.34 147.56C68.0733 146.853 68.94 146.313 69.94 145.94L70.14 146.56L60.62 146.78V144.64L77.48 144.24V146.38L74.94 146.44C73.8733 146.467 72.8867 146.64 71.98 146.96C71.0867 147.267 70.3133 147.7 69.66 148.26C69.02 148.82 68.52 149.487 68.16 150.26C67.8 151.02 67.62 151.867 67.62 152.8C67.62 153.813 67.84 154.693 68.28 155.44C68.72 156.173 69.34 156.74 70.14 157.14C70.9533 157.54 71.9267 157.74 73.06 157.74C73.3 157.74 73.5667 157.733 73.86 157.72C74.1667 157.693 74.4733 157.667 74.78 157.64C75.1 157.6 75.38 157.56 75.62 157.52L75.88 159.72C75.6 159.76 75.2933 159.793 74.96 159.82C74.6267 159.86 74.2933 159.887 73.96 159.9C73.6267 159.927 73.32 159.94 73.04 159.94ZM75.08 153.7C74.7733 153.02 74.44 152.373 74.08 151.76C73.7333 151.133 73.3333 150.493 72.88 149.84L74.62 148.88C75.0733 149.533 75.48 150.18 75.84 150.82C76.2 151.447 76.54 152.113 76.86 152.82L75.08 153.7ZM78.12 152.56C77.8267 151.867 77.5067 151.213 77.16 150.6C76.8267 149.973 76.44 149.333 76 148.68L77.74 147.76C78.18 148.427 78.5733 149.08 78.92 149.72C79.28 150.36 79.6067 151.04 79.9 151.76L78.12 152.56ZM86.42 159.58C85.74 159.58 85.1133 159.373 84.54 158.96C83.9667 158.533 83.4667 157.94 83.04 157.18C82.6133 156.42 82.28 155.527 82.04 154.5C81.8133 153.46 81.7 152.34 81.7 151.14C81.7 150.167 81.78 149.14 81.94 148.06C82.1133 146.967 82.3733 145.82 82.72 144.62L85.06 144.9C84.7533 146.007 84.52 147.06 84.36 148.06C84.2 149.06 84.12 150 84.12 150.88C84.12 151.72 84.1867 152.513 84.32 153.26C84.4533 154.007 84.6333 154.66 84.86 155.22C85.1 155.78 85.3667 156.22 85.66 156.54C85.9667 156.86 86.2867 157.02 86.62 157.02C86.94 157.02 87.2867 156.887 87.66 156.62C88.0467 156.34 88.44 155.967 88.84 155.5C89.24 155.033 89.6133 154.5 89.96 153.9C90.32 153.3 90.62 152.673 90.86 152.02L93 153.1C92.6667 154.007 92.2533 154.853 91.76 155.64C91.2667 156.427 90.72 157.12 90.12 157.72C89.5333 158.307 88.92 158.76 88.28 159.08C87.64 159.413 87.02 159.58 86.42 159.58ZM96.46 157.64C96.46 156.12 96.3533 154.607 96.14 153.1C95.94 151.593 95.64 150.147 95.24 148.76C94.8533 147.373 94.3867 146.1 93.84 144.94L96.06 144.28C96.6733 145.493 97.18 146.82 97.58 148.26C97.9933 149.687 98.3067 151.193 98.52 152.78C98.7467 154.353 98.86 155.973 98.86 157.64H96.46ZM114.7 160.94C113.753 160.233 112.887 159.607 112.1 159.06C111.313 158.527 110.573 158.033 109.88 157.58C109.187 157.127 108.507 156.7 107.84 156.3C107.173 155.887 106.48 155.46 105.76 155.02C105.013 154.567 104.413 154.193 103.96 153.9C103.52 153.593 103.173 153.327 102.92 153.1C102.68 152.873 102.513 152.647 102.42 152.42C102.34 152.18 102.3 151.907 102.3 151.6C102.3 151.28 102.347 151 102.44 150.76C102.547 150.507 102.727 150.267 102.98 150.04C103.233 149.8 103.593 149.533 104.06 149.24C104.527 148.947 105.127 148.593 105.86 148.18C106.62 147.753 107.453 147.273 108.36 146.74C109.267 146.207 110.213 145.633 111.2 145.02C112.187 144.407 113.167 143.753 114.14 143.06L115.54 145C114.953 145.4 114.333 145.807 113.68 146.22C113.027 146.62 112.38 147.013 111.74 147.4C111.1 147.773 110.487 148.127 109.9 148.46C109.327 148.78 108.807 149.073 108.34 149.34C107.873 149.593 107.493 149.8 107.2 149.96C106.627 150.28 106.18 150.533 105.86 150.72C105.553 150.907 105.333 151.067 105.2 151.2C105.08 151.32 105.02 151.453 105.02 151.6C105.02 151.747 105.06 151.873 105.14 151.98C105.233 152.087 105.42 152.227 105.7 152.4C105.98 152.573 106.407 152.827 106.98 153.16C107.3 153.333 107.707 153.567 108.2 153.86C108.707 154.153 109.28 154.493 109.92 154.88C110.56 155.253 111.227 155.667 111.92 156.12C112.627 156.56 113.34 157.027 114.06 157.52C114.793 158 115.5 158.487 116.18 158.98L114.7 160.94Z" fill="#282828"/>
<path opacity="0.6" d="M52.88 193.4C52.88 189.7 54.46 186.44 57.76 183.78C57.94 183.62 58.16 183.54 58.36 183.54C58.74 183.54 59.1 183.88 59.1 184.26C59.1 184.52 59 184.7 58.8 184.88C55.92 187.34 54.72 190.12 54.72 193.4C54.72 196.68 55.92 199.46 58.8 201.92C59 202.1 59.1 202.28 59.1 202.54C59.1 202.92 58.74 203.26 58.36 203.26C58.16 203.26 57.94 203.18 57.76 203.02C54.46 200.36 52.88 197.1 52.88 193.4ZM70.44 196.58V195.06H67.04C66.52 195.06 66.26 194.6 66.26 194.16C66.26 193.7 66.52 193.26 67.04 193.26H76.56C77.08 193.26 77.34 193.72 77.34 194.16C77.34 194.62 77.08 195.06 76.56 195.06H72.6V196.58H78.18C78.7 196.58 78.96 197.04 78.96 197.48C78.96 197.94 78.7 198.38 78.18 198.38H72.6V201.98C72.6 202.54 72.06 202.84 71.52 202.84C70.98 202.84 70.44 202.54 70.44 201.98V198.38H65.88C65.36 198.38 65.1 197.92 65.1 197.48C65.1 197.02 65.36 196.58 65.88 196.58H70.44ZM69.06 187.28V184.78C69.06 184.2 69.6 183.92 70.14 183.92C70.68 183.92 71.22 184.2 71.22 184.78V187.28H74.58C75.14 187.28 75.26 187.18 75.26 186.82V185.58C75.26 185 75.8 184.72 76.36 184.72C76.9 184.72 77.44 185 77.44 185.58V187.18C77.44 188.54 76.8 189.02 74.92 189.02H65.56C63.66 189.02 63.04 188.54 63.04 187.18V185.58C63.04 185 63.58 184.72 64.12 184.72C64.66 184.72 65.2 185 65.2 185.58V186.82C65.2 187.18 65.32 187.28 65.9 187.28H69.06ZM65.06 190.24H78.08C78.6 190.24 78.86 190.7 78.86 191.16C78.86 191.62 78.6 192.08 78.08 192.08H65.38C64.82 192.08 64.66 192.24 64.66 192.72V193.98C64.66 197.14 63.96 199.68 62.86 201.64C62.6 202.12 62.18 202.32 61.78 202.32C61.2 202.32 60.66 201.9 60.66 201.3C60.66 201.12 60.72 200.92 60.84 200.7C61.84 198.96 62.46 196.68 62.46 193.9V192.42C62.46 190.92 63.16 190.24 65.06 190.24ZM94.72 201.54H85.28C83 201.54 82.04 200.58 82.04 198.78V188.66C82.04 186.86 83 185.9 85.28 185.9H94.72C97 185.9 97.96 186.86 97.96 188.66V198.78C97.96 200.92 96.68 201.54 94.72 201.54ZM88.82 194.46H84.24V198.46C84.24 199.24 84.58 199.54 85.52 199.54H88.82V194.46ZM90.98 194.46V199.54H94.48C95.46 199.54 95.76 199.26 95.76 198.46V194.46H90.98ZM90.98 187.9V192.48H95.76V188.98C95.76 188.18 95.46 187.9 94.48 187.9H90.98ZM88.82 187.9H85.52C84.54 187.9 84.24 188.18 84.24 188.98V192.48H88.82V187.9ZM109.48 186.74H117.86C118.42 186.74 118.7 187.2 118.7 187.68C118.7 188.14 118.42 188.62 117.86 188.62H113.92C115.26 190.1 116.96 191.3 118.76 192.12C119.26 192.34 119.48 192.74 119.48 193.12C119.48 193.66 119.08 194.16 118.5 194.16C118.34 194.16 118.16 194.12 117.96 194.02C115.56 192.84 113.28 190.9 111.6 188.62H108.26C106.56 190.96 104.34 192.96 102.06 194.36C101.86 194.48 101.66 194.52 101.48 194.52C100.92 194.52 100.52 194.06 100.52 193.56C100.52 193.24 100.68 192.92 101.08 192.68C102.82 191.6 104.42 190.24 105.76 188.62H102.16C101.6 188.62 101.32 188.14 101.32 187.68C101.32 187.2 101.6 186.74 102.16 186.74H107.14C107.58 186.02 108 185.26 108.36 184.46C108.56 184.04 108.94 183.86 109.3 183.86C109.82 183.86 110.34 184.24 110.34 184.8C110.34 184.94 110.32 185.08 110.24 185.24C110.02 185.74 109.76 186.26 109.48 186.74ZM111 196.44V200.58C111 202.14 110.28 202.78 108.62 202.78C108.04 202.78 107.6 202.74 107.22 202.68C106.6 202.58 106.32 202.14 106.32 201.7C106.32 201.2 106.68 200.68 107.3 200.68C107.36 200.68 107.44 200.68 107.5 200.7C107.8 200.72 108.08 200.76 108.32 200.76C108.7 200.76 108.8 200.66 108.8 200.3V196.44H102.66C102.12 196.44 101.86 196 101.86 195.54C101.86 195.1 102.12 194.66 102.66 194.66H117.28C117.84 194.66 118.1 195.1 118.1 195.54C118.1 196 117.84 196.44 117.28 196.44H111ZM114.58 197.42C115.38 198.2 116.36 198.98 117.42 199.7C117.84 199.98 118 200.32 118 200.66C118 201.2 117.52 201.72 116.92 201.72C116.7 201.72 116.44 201.64 116.2 201.48C115.02 200.64 113.86 199.62 113.04 198.72C112.82 198.48 112.72 198.24 112.72 198C112.72 197.48 113.2 197.06 113.76 197.06C114.02 197.06 114.32 197.16 114.58 197.42ZM105.14 197.44C105.38 197.16 105.68 197.04 105.96 197.04C106.5 197.04 107.02 197.48 107.02 198.02C107.02 198.22 106.94 198.46 106.74 198.68C105.86 199.74 104.56 200.86 103.24 201.68C103.02 201.82 102.82 201.86 102.62 201.86C102.04 201.86 101.58 201.38 101.58 200.88C101.58 200.56 101.76 200.22 102.16 199.98C103.22 199.3 104.28 198.42 105.14 197.44ZM112.86 193.2H106.98C106.46 193.2 106.18 192.76 106.18 192.3C106.18 191.86 106.46 191.42 106.98 191.42H112.86C113.4 191.42 113.66 191.86 113.66 192.3C113.66 192.76 113.4 193.2 112.86 193.2ZM137.84 197.94H131.38C132.92 199.2 135.16 200.12 137.92 200.46C138.6 200.54 138.92 201 138.92 201.44C138.92 201.96 138.54 202.46 137.84 202.46C137.78 202.46 137.7 202.44 137.64 202.44C134.3 202.02 131.58 200.72 129.58 198.76C128.18 200.84 125.72 202.12 122.26 202.64C122.18 202.66 122.12 202.66 122.06 202.66C121.44 202.66 121.1 202.16 121.1 201.68C121.1 201.26 121.36 200.84 121.94 200.74C124.84 200.26 126.66 199.4 127.7 197.94H122.16C121.64 197.94 121.38 197.48 121.38 197.04C121.38 196.58 121.64 196.14 122.16 196.14H128.54C128.62 195.84 128.68 195.52 128.74 195.22C128.82 194.68 129.3 194.42 129.78 194.42C130.32 194.42 130.86 194.74 130.86 195.32C130.86 195.38 130.86 195.44 130.84 195.5C130.8 195.72 130.76 195.94 130.7 196.14H137.84C138.36 196.14 138.62 196.58 138.62 197.04C138.62 197.48 138.36 197.94 137.84 197.94ZM131 188.36V189.5H135.86C136.36 189.5 136.62 189.92 136.62 190.36C136.62 190.78 136.36 191.22 135.86 191.22H131V192.46H138.16C138.66 192.46 138.92 192.9 138.92 193.34C138.92 193.78 138.66 194.22 138.16 194.22H121.8C121.3 194.22 121.06 193.78 121.06 193.34C121.06 192.9 121.3 192.46 121.8 192.46H128.9V191.22H124.16C123.66 191.22 123.42 190.78 123.42 190.36C123.42 189.92 123.66 189.5 124.16 189.5H128.9V188.36H122.78C122.28 188.36 122.04 187.92 122.04 187.5C122.04 187.06 122.28 186.64 122.78 186.64H127.04C126.96 186.58 126.88 186.48 126.8 186.38C126.56 186.04 126.3 185.7 126.04 185.4C125.9 185.22 125.82 185.04 125.82 184.86C125.82 184.38 126.32 183.98 126.84 183.98C127.1 183.98 127.36 184.08 127.58 184.3C127.86 184.56 128.2 185 128.46 185.36C128.6 185.54 128.64 185.74 128.64 185.9C128.64 186.2 128.48 186.46 128.24 186.64H130.88C131.34 185.92 131.68 185.26 132 184.56C132.2 184.1 132.6 183.9 132.98 183.9C133.5 183.9 133.98 184.24 133.98 184.76C133.98 184.9 133.94 185.06 133.86 185.22C133.6 185.74 133.32 186.2 133.04 186.64H137.56C138.08 186.64 138.32 187.06 138.32 187.5C138.32 187.92 138.08 188.36 137.56 188.36H131ZM152.3 194.4L152.32 194.36C151.4 193.32 150.7 192.2 150 190.86C147.78 191.26 144.82 191.6 143.76 191.6C143.08 191.6 142.72 191.04 142.72 190.5C142.72 190.02 143.02 189.52 143.68 189.5C145.36 189.42 147.28 189.2 149.12 188.9C148.72 187.86 148.36 186.82 148.08 185.8C148.06 185.72 148.04 185.64 148.04 185.56C148.04 184.96 148.64 184.58 149.22 184.58C149.66 184.58 150.1 184.8 150.24 185.34C150.5 186.36 150.82 187.46 151.24 188.5C152.76 188.18 154.16 187.8 155.26 187.42C155.4 187.36 155.56 187.34 155.68 187.34C156.32 187.34 156.76 187.88 156.76 188.42C156.76 188.82 156.52 189.22 155.94 189.42C154.88 189.78 153.56 190.14 152.14 190.44C152.88 191.84 153.92 193.32 155.42 194.94C155.66 195.2 155.76 195.5 155.76 195.78C155.76 196.38 155.3 196.92 154.66 196.92C154.54 196.92 154.4 196.88 154.26 196.84C152.72 196.3 151.24 196.08 149.64 196.08C147.22 196.08 146.4 196.82 146.4 197.92C146.4 199.06 147.3 199.82 150.28 199.82C151.1 199.82 151.74 199.78 152.38 199.72H152.52C153.22 199.72 153.58 200.26 153.58 200.8C153.58 201.28 153.28 201.76 152.6 201.84C151.94 201.92 151.2 201.96 150.32 201.96C146.24 201.96 144.08 200.42 144.08 197.9C144.08 195.74 145.74 194.14 149.62 194.14C150.7 194.14 151.5 194.24 152.3 194.4ZM167.68 192.96L167.72 192.98C168.3 192.62 168.9 192.46 169.54 192.46C171.38 192.46 172.38 193.56 172.52 196.68C172.62 198.86 173.1 199.16 173.86 199.16C174.76 199.16 175.52 198.38 176.22 196.56C176.42 196.04 176.86 195.8 177.3 195.8C177.9 195.8 178.5 196.24 178.5 196.88C178.5 197.02 178.46 197.18 178.4 197.36C177.36 200.12 175.86 201.42 173.7 201.42C171.62 201.42 170.34 200.3 170.2 196.88C170.12 194.9 169.82 194.48 169 194.48C167.94 194.48 166.86 195.46 165.88 197.5C165.44 198.42 164.86 199.64 164.42 200.6C164.2 201.06 163.78 201.28 163.36 201.28C162.76 201.28 162.16 200.86 162.16 200.22C162.16 200.08 162.2 199.94 162.26 199.78C164.02 195.54 166.56 190.12 168.86 185.86C169.08 185.44 169.48 185.26 169.88 185.26C170.52 185.26 171.14 185.7 171.14 186.3C171.14 186.46 171.1 186.62 171.02 186.78L167.68 192.96ZM181.14 201.6L197.62 184.08C197.8 183.9 198 183.76 198.18 183.76C198.7 183.76 199.14 184.18 199.14 184.58C199.14 184.8 199.06 185 198.86 185.2L182.38 202.72C182.2 202.9 182 203.04 181.82 203.04C181.3 203.04 180.86 202.62 180.86 202.22C180.86 202 180.94 201.8 181.14 201.6ZM211.5 190.02H210.26C209.74 191.14 209.14 192.18 208.5 193.08C208.22 193.48 207.86 193.64 207.52 193.64C206.96 193.64 206.48 193.22 206.48 192.66C206.48 192.44 206.56 192.2 206.72 191.96C207.98 190.16 209.1 187.7 209.76 185.08C209.9 184.54 210.34 184.3 210.8 184.3C211.36 184.3 211.92 184.64 211.92 185.24C211.92 185.34 211.9 185.42 211.88 185.52C211.68 186.36 211.4 187.22 211.08 188.06H218.36C218.92 188.06 219.2 188.56 219.2 189.04C219.2 189.54 218.92 190.02 218.36 190.02H213.62V192.04H217.22C217.76 192.04 218.04 192.52 218.04 193C218.04 193.48 217.76 193.96 217.22 193.96H213.62V196.02H217.3C217.84 196.02 218.12 196.5 218.12 196.98C218.12 197.46 217.84 197.94 217.3 197.94H213.62V201.92C213.62 202.5 213.1 202.8 212.56 202.8C212.04 202.8 211.5 202.5 211.5 201.92V190.02ZM203.6 202V192.56C203.26 193.08 202.9 193.58 202.54 194.02C202.28 194.34 201.96 194.48 201.66 194.48C201.08 194.48 200.54 194 200.54 193.42C200.54 193.18 200.62 192.94 200.82 192.68C202.4 190.72 203.86 187.7 204.66 185.02C204.82 184.5 205.26 184.26 205.72 184.26C206.32 184.26 206.92 184.64 206.92 185.28C206.92 185.38 206.9 185.5 206.86 185.62C206.42 187.12 205.7 188.8 204.88 190.36C205.36 190.42 205.78 190.7 205.78 191.22V202C205.78 202.54 205.24 202.82 204.7 202.82C204.14 202.82 203.6 202.54 203.6 202ZM228.88 185.94V184.76C228.88 184.2 229.42 183.94 229.98 183.94C230.52 183.94 231.06 184.2 231.06 184.76V185.94H236.06C237.9 185.94 238.54 186.56 238.54 187.86V189.14C238.54 189.7 238 189.98 237.44 189.98C236.9 189.98 236.34 189.7 236.34 189.14V188.2C236.34 187.82 236.18 187.66 235.68 187.66H224.36C223.86 187.66 223.7 187.82 223.7 188.2V189.22C223.7 189.76 223.16 190.04 222.6 190.04C222.06 190.04 221.5 189.76 221.5 189.22V187.86C221.5 186.56 222.14 185.94 223.98 185.94H228.88ZM231.02 190.88H230.6C230.14 191.26 229.68 191.62 229.2 191.94C231.4 193.84 232.42 196.18 232.42 198.58C232.42 201.68 231.38 202.7 229.52 202.7C228.92 202.7 228.56 202.66 228.06 202.56C227.48 202.44 227.24 202.02 227.24 201.6C227.24 201.12 227.6 200.6 228.2 200.6C228.26 200.6 228.34 200.6 228.4 200.62C228.74 200.68 229.12 200.72 229.48 200.72C229.96 200.72 230.34 200.32 230.34 198.56C230.34 198.3 230.32 198.06 230.3 197.82C227.98 199.5 225.08 200.94 222.3 201.74C222.18 201.78 222.06 201.8 221.96 201.8C221.38 201.8 221.04 201.32 221.04 200.86C221.04 200.48 221.26 200.1 221.74 199.96C224.7 199.1 227.48 197.74 229.82 195.92C229.7 195.62 229.54 195.34 229.38 195.04C227.32 196.44 224.88 197.58 222.54 198.32C222.42 198.36 222.3 198.38 222.2 198.38C221.64 198.38 221.28 197.92 221.28 197.44C221.28 197.1 221.48 196.72 221.96 196.58C224.1 195.94 226.44 194.92 228.34 193.64C228.12 193.4 227.88 193.16 227.64 192.94C226.08 193.82 224.42 194.5 222.76 195C222.62 195.04 222.5 195.06 222.38 195.06C221.78 195.06 221.42 194.62 221.42 194.16C221.42 193.8 221.64 193.42 222.16 193.28C224.16 192.7 226.12 191.92 227.72 190.88H225.04C224.52 190.88 224.26 190.44 224.26 190.02C224.26 189.58 224.52 189.16 225.04 189.16H234.96C235.5 189.16 235.78 189.58 235.78 190.02C235.78 190.44 235.5 190.88 234.96 190.88H232.88C233.18 191.84 233.56 192.78 234.04 193.64C234.9 193.1 235.7 192.52 236.46 191.84C236.68 191.64 236.94 191.56 237.18 191.56C237.72 191.56 238.22 192.02 238.22 192.54C238.22 192.8 238.08 193.08 237.78 193.32C236.9 194 235.96 194.66 234.98 195.22C235.98 196.7 237.18 197.94 238.54 198.94C238.92 199.22 239.08 199.58 239.08 199.9C239.08 200.44 238.62 200.94 238.02 200.94C237.76 200.94 237.46 200.84 237.16 200.6C236.52 200.08 235.94 199.56 235.38 198.94C233.32 196.64 231.82 193.84 231.02 190.88ZM247.12 193.4C247.12 197.1 245.54 200.36 242.24 203.02C242.06 203.18 241.84 203.26 241.64 203.26C241.26 203.26 240.9 202.92 240.9 202.54C240.9 202.28 241 202.1 241.2 201.92C244.08 199.46 245.28 196.68 245.28 193.4C245.28 190.12 244.08 187.34 241.2 184.88C241 184.7 240.9 184.52 240.9 184.26C240.9 183.88 241.26 183.54 241.64 183.54C241.84 183.54 242.06 183.62 242.24 183.78C245.54 186.44 247.12 189.7 247.12 193.4Z" fill="#282828"/>
<path d="M61.0002 279L79.0001 237L110.177 237L61.0002 279Z" fill="#E18965"/>
</svg>
