<svg width="400" height="189" viewBox="0 0 400 189" fill="none" xmlns="http://www.w3.org/2000/svg">
<rect width="400" height="146" rx="73" fill="#69BD83"/>
<path d="M43.34 52.94V43.56H40.74V41.06H43.42V34.66H46.08V41.06H48.4V43.56H46.14V52.94H43.34ZM41.42 51.14L40.26 48.02C41.06 47.0333 41.7 46.0267 42.18 45C42.6733 43.9733 43.04 42.8867 43.28 41.74L44.36 42.5C44.2933 43.6467 44.12 44.7667 43.84 45.86C43.5733 46.94 43.2267 47.9333 42.8 48.84C42.3867 49.7467 41.9267 50.5133 41.42 51.14ZM47.18 49.08C46.7533 48.0667 46.32 47.06 45.88 46.06C45.4533 45.0467 44.9933 43.9867 44.5 42.88L46.16 41.98C46.64 42.9 47.1067 43.8067 47.56 44.7C48.0133 45.58 48.4733 46.4933 48.94 47.44L47.18 49.08ZM41.64 40.76C41.4533 40 41.2533 39.22 41.04 38.42C40.8267 37.62 40.62 36.8933 40.42 36.24L42.46 35.5C42.6733 36.1667 42.8733 36.8933 43.06 37.68C43.26 38.4533 43.44 39.24 43.6 40.04L41.64 40.76ZM48.36 50.4L48.1 47.72L59.54 45.58L59.8 48.26L48.36 50.4ZM52.18 46.3C51.5933 45.66 50.9667 44.9933 50.3 44.3C49.6333 43.6067 48.9267 42.9133 48.18 42.22L50.26 40.3C51.0067 40.98 51.7133 41.66 52.38 42.34C53.06 43.0067 53.6867 43.6667 54.26 44.32L52.18 46.3ZM47.78 40.78L45.74 39.96C46.0067 39.2533 46.2467 38.4933 46.46 37.68C46.6733 36.8667 46.84 36.1067 46.96 35.4L49.16 35.88C49 36.6533 48.7933 37.4733 48.54 38.34C48.3 39.1933 48.0467 40.0067 47.78 40.78ZM54.92 52.94V34.66H58.02V52.94H54.92ZM52.98 40.98C52.4733 40.4067 51.9267 39.82 51.34 39.22C50.7533 38.62 50.14 38.0133 49.5 37.4L51.58 35.5C52.22 36.0867 52.8333 36.6733 53.42 37.26C54.0067 37.8467 54.5533 38.42 55.06 38.98L52.98 40.98ZM65.76 52.46V49.94H71.26V48.54H66.84V46.2H71.26V40.94H69.6V39.04H71.26V37.36H74.38V39.04H76.06V37.36H69.6V44.86H66.92V34.94H78.8V44.86H69.6V42.66H76.06V40.94H74.38V46.2H79.04V48.54H74.38V49.94H79.26V52.46H65.76ZM60.9 51.26L60.62 48.58C61.22 48.4733 61.8533 48.34 62.52 48.18C63.2 48.02 63.8733 47.8467 64.54 47.66C65.22 47.4733 65.8467 47.2867 66.42 47.1L66.44 49.7C65.8933 49.9 65.2933 50.1 64.64 50.3C63.9867 50.5 63.3333 50.6867 62.68 50.86C62.0267 51.02 61.4333 51.1533 60.9 51.26ZM62.12 48.8V43.96H60.92V41.28H62.12V38.36H60.72V35.6H66.44V38.36H65.08V41.28H66.32V43.96H65.08V48.8H62.12ZM90.94 51.9C89.42 51.9 88.2333 51.5467 87.38 50.84C86.5267 50.1333 86.1 49.1533 86.1 47.9C86.1 46.6333 86.52 45.6533 87.36 44.96C88.2133 44.2533 89.4067 43.9 90.94 43.9C91.5667 43.9 92.16 43.98 92.72 44.14C93.2933 44.3 93.8933 44.58 94.52 44.98C95.1467 45.3667 95.86 45.9133 96.66 46.62C97.46 47.3267 98.4067 48.2333 99.5 49.34L97.52 51.48C96.56 50.48 95.74 49.6667 95.06 49.04C94.3933 48.4 93.8133 47.9067 93.32 47.56C92.84 47.2133 92.4 46.9733 92 46.84C91.6 46.7067 91.1867 46.64 90.76 46.64C89.5867 46.64 89 47.06 89 47.9C89 48.74 89.5867 49.16 90.76 49.16C91.4 49.16 91.8533 49.0333 92.12 48.78C92.4 48.5267 92.54 48.1133 92.54 47.54V35.04H95.68V47.7C95.68 49.06 95.2667 50.1 94.44 50.82C93.6267 51.54 92.46 51.9 90.94 51.9ZM86.36 40.7V37.96H99.14V40.7H86.36ZM82.34 52.16C82.0067 50.8 81.76 49.44 81.6 48.08C81.44 46.72 81.36 45.2933 81.36 43.8C81.36 42.3067 81.44 40.8867 81.6 39.54C81.76 38.18 82.0067 36.82 82.34 35.46L85.52 35.82C85.2267 37.0867 85 38.3867 84.84 39.72C84.6933 41.04 84.62 42.4 84.62 43.8C84.62 45.2 84.6933 46.5667 84.84 47.9C85 49.22 85.2267 50.5133 85.52 51.78L82.34 52.16ZM106.96 51V48.5H100.2V45.62L106.96 36.4H110.36V45.62H112.7V48.5H110.36V51H106.96ZM103.5 45.76H107.1V40.9H107.06L103.5 45.72V45.76ZM117.886 48.38C120.446 48.38 122.5 48.22 124.046 47.9C125.593 47.58 126.713 47.0667 127.406 46.36C128.113 45.6533 128.466 44.7267 128.466 43.58C128.466 42.3267 128.073 41.4067 127.286 40.82C126.513 40.2333 125.293 39.94 123.626 39.94C122.96 39.94 122.22 39.9933 121.406 40.1C120.593 40.2067 119.653 40.3667 118.586 40.58C117.52 40.7933 116.253 41.0867 114.786 41.46L114.166 38.24C116.38 37.7467 118.266 37.3867 119.826 37.16C121.4 36.92 122.746 36.8 123.866 36.8C125.626 36.8 127.106 37.0467 128.306 37.54C129.506 38.0333 130.413 38.76 131.026 39.72C131.64 40.6667 131.946 41.84 131.946 43.24C131.946 45.9467 130.78 47.9933 128.446 49.38C126.126 50.7533 122.686 51.44 118.126 51.44L117.886 48.38ZM144.526 49.04C145.193 48.9467 145.8 48.7533 146.346 48.46C146.893 48.1667 147.36 47.7933 147.746 47.34C148.146 46.8733 148.453 46.34 148.666 45.74C148.88 45.1267 148.986 44.4733 148.986 43.78C148.986 42.7667 148.753 41.8933 148.286 41.16C147.833 40.4133 147.193 39.84 146.366 39.44C145.553 39.04 144.62 38.84 143.566 38.84C142.66 38.84 141.806 39 141.006 39.32C140.22 39.6267 139.526 40.0533 138.926 40.6C138.326 41.1467 137.853 41.78 137.506 42.5C137.16 43.22 136.986 43.9933 136.986 44.82C136.986 45.3533 137.073 45.88 137.246 46.4C137.42 46.9067 137.64 47.3333 137.906 47.68C138.186 48.0133 138.466 48.18 138.746 48.18C139.16 48.18 139.566 47.7333 139.966 46.84C140.38 45.9333 140.76 44.6333 141.106 42.94C141.466 41.2333 141.786 39.1933 142.066 36.82L145.226 37.16C144.893 39.7733 144.526 41.9867 144.126 43.8C143.74 45.6133 143.3 47.08 142.806 48.2C142.313 49.32 141.746 50.14 141.106 50.66C140.466 51.1667 139.733 51.42 138.906 51.42C138.2 51.42 137.546 51.26 136.946 50.94C136.346 50.6067 135.826 50.1467 135.386 49.56C134.946 48.96 134.606 48.26 134.366 47.46C134.126 46.6467 134.006 45.7667 134.006 44.82C134.006 43.5267 134.24 42.34 134.706 41.26C135.173 40.1667 135.833 39.2267 136.686 38.44C137.54 37.6533 138.553 37.04 139.726 36.6C140.9 36.16 142.186 35.94 143.586 35.94C145.24 35.94 146.706 36.2533 147.986 36.88C149.28 37.4933 150.293 38.3867 151.026 39.56C151.76 40.72 152.126 42.1267 152.126 43.78C152.126 44.86 151.966 45.8667 151.646 46.8C151.34 47.72 150.893 48.54 150.306 49.26C149.72 49.9667 149.013 50.5467 148.186 51C147.373 51.44 146.46 51.7267 145.446 51.86L144.526 49.04ZM154.326 51.76V48.92H161.386V38.68H154.926V35.84H171.206V38.68H164.746V48.92H171.806V51.76H154.326ZM179.726 52.46V49.94H184.686V48.74H180.926V46.6H184.686V45.46H180.526V43.1H192.286V45.46H187.866V46.6H191.866V48.74H187.866V49.94H192.526V52.46H179.726ZM174.506 50.44L173.346 47.52C174.12 46.2667 174.72 45.04 175.146 43.84C175.573 42.64 175.853 41.4533 175.986 40.28L176.766 41.76C176.553 43.9467 176.253 45.7333 175.866 47.12C175.493 48.4933 175.04 49.6 174.506 50.44ZM175.706 52.94V42.34H173.806V39.74H175.706V36.44H178.506V39.74H180.426V42.34H178.506V52.94H175.706ZM179.426 47.92C178.973 46.92 178.513 45.9333 178.046 44.96C177.58 43.9733 177.086 42.9933 176.566 42.02L177.806 40.76C178.433 41.8 179.02 42.7933 179.566 43.74C180.113 44.6733 180.626 45.58 181.106 46.46L179.426 47.92ZM174.186 38.08L173.926 35.66C174.966 35.58 176.02 35.44 177.086 35.24C178.153 35.04 179.12 34.8067 179.986 34.54L180.626 36.88C179.92 37.16 179.013 37.4067 177.906 37.62C176.813 37.8333 175.573 37.9867 174.186 38.08ZM180.886 42.16V35.14H191.746V42.16H183.926V39.94H188.646V37.66H183.926V42.16H180.886ZM206.206 52.1C204.526 52.1 203.066 51.8133 201.826 51.24C200.586 50.6667 199.626 49.86 198.946 48.82C198.266 47.78 197.926 46.5533 197.926 45.14C197.926 44.1533 198.086 43.2333 198.406 42.38C198.726 41.5267 199.186 40.7667 199.786 40.1C200.4 39.4333 201.126 38.9 201.966 38.5L202.286 39.14L193.586 39.34V36.44L210.646 36.04V38.94L208.086 39C207.153 39.0133 206.28 39.16 205.466 39.44C204.653 39.72 203.94 40.1133 203.326 40.62C202.713 41.1267 202.24 41.7333 201.906 42.44C201.573 43.1333 201.406 43.92 201.406 44.8C201.406 45.7067 201.593 46.4867 201.966 47.14C202.34 47.78 202.886 48.2733 203.606 48.62C204.34 48.9533 205.213 49.12 206.226 49.12C206.466 49.12 206.733 49.1133 207.026 49.1C207.32 49.0733 207.62 49.0467 207.926 49.02C208.233 48.98 208.52 48.9333 208.786 48.88L209.146 51.86C208.826 51.9 208.493 51.94 208.146 51.98C207.8 52.02 207.46 52.0467 207.126 52.06C206.793 52.0867 206.486 52.1 206.206 52.1ZM207.626 46.06C207.306 45.3667 206.966 44.7067 206.606 44.08C206.246 43.4533 205.833 42.8133 205.366 42.16L207.426 41.04C207.893 41.6933 208.306 42.34 208.666 42.98C209.04 43.62 209.393 44.3 209.726 45.02L207.626 46.06ZM210.886 44.96C210.58 44.2533 210.253 43.5867 209.906 42.96C209.56 42.32 209.166 41.6733 208.726 41.02L210.786 39.96C211.226 40.64 211.62 41.3 211.966 41.94C212.326 42.58 212.66 43.2667 212.966 44L210.886 44.96ZM215.586 53.04L213.466 50.16C213.706 49.6667 213.913 49.2 214.086 48.76C214.26 48.3067 214.4 47.84 214.506 47.36C214.626 46.88 214.72 46.3533 214.786 45.78C214.853 45.2067 214.9 44.54 214.926 43.78C214.953 43.02 214.966 42.14 214.966 41.14V36.44H231.926V39.04H218.006V43.48C218.006 44.9067 217.92 46.18 217.746 47.3C217.586 48.4067 217.326 49.42 216.966 50.34C216.62 51.26 216.16 52.16 215.586 53.04ZM220.646 49.46C220.366 49.46 220.006 49.4533 219.566 49.44C219.14 49.4267 218.64 49.3933 218.066 49.34L217.726 46.88C218.1 46.92 218.46 46.9533 218.806 46.98C219.153 46.9933 219.413 47 219.586 47C219.706 47 219.806 46.9867 219.886 46.96C219.966 46.9333 220.026 46.86 220.066 46.74C220.12 46.6067 220.16 46.4133 220.186 46.16C220.226 45.8933 220.246 45.5267 220.246 45.06C220.26 44.5933 220.266 43.9933 220.266 43.26H217.166V40.84H222.926C222.926 42.4933 222.913 43.8533 222.886 44.92C222.86 45.9867 222.793 46.8333 222.686 47.46C222.593 48.0733 222.46 48.5267 222.286 48.82C222.126 49.1 221.913 49.28 221.646 49.36C221.38 49.4267 221.046 49.46 220.646 49.46ZM221.226 52.54L220.146 49.96C221.506 49.48 222.74 48.7867 223.846 47.88C224.953 46.96 225.9 45.8533 226.686 44.56C227.486 43.2533 228.073 41.7733 228.446 40.12L231.106 40.84C230.666 42.76 229.973 44.4933 229.026 46.04C228.093 47.5867 226.966 48.9133 225.646 50.02C224.326 51.1133 222.853 51.9533 221.226 52.54ZM229.766 52.86C229.206 52.86 228.613 52.64 227.986 52.2C227.36 51.76 226.746 51.0867 226.146 50.18C225.546 49.26 225 48.08 224.506 46.64C224.026 45.2 223.64 43.48 223.346 41.48C223.066 39.4667 222.926 37.1533 222.926 34.54H225.866C225.866 36.6067 225.966 38.4533 226.166 40.08C226.38 41.7067 226.64 43.1133 226.946 44.3C227.266 45.4867 227.593 46.4733 227.926 47.26C228.26 48.0333 228.56 48.6067 228.826 48.98C229.106 49.3533 229.3 49.54 229.406 49.54C229.486 49.54 229.566 49.44 229.646 49.24C229.74 49.04 229.833 48.6933 229.926 48.2C230.02 47.7067 230.106 47.02 230.186 46.14L232.626 47.24C232.573 48.24 232.453 49.1 232.266 49.82C232.093 50.5267 231.873 51.1067 231.606 51.56C231.353 52.0133 231.066 52.34 230.746 52.54C230.426 52.7533 230.1 52.86 229.766 52.86ZM228.866 37.94C228.52 37.42 228.153 36.9067 227.766 36.4C227.38 35.8933 226.993 35.42 226.606 34.98L228.966 34.04C229.366 34.48 229.753 34.9533 230.126 35.46C230.513 35.9667 230.88 36.48 231.226 37L228.866 37.94ZM237.226 49.2C239.693 49.2 241.673 49 243.166 48.6C244.673 48.2 245.766 47.5533 246.446 46.66C247.126 45.7533 247.466 44.5733 247.466 43.12C247.466 41.72 247.173 40.6933 246.586 40.04C246 39.3733 245.086 39.04 243.846 39.04C243.18 39.04 242.546 39.1467 241.946 39.36C241.346 39.56 240.813 39.8533 240.346 40.24C239.88 40.6267 239.513 41.0867 239.246 41.62C238.98 42.1533 238.846 42.7533 238.846 43.42V46.14H235.706V35.58H238.846V39.44H237.646C238.22 38.6533 238.833 38.0067 239.486 37.5C240.14 36.98 240.853 36.6 241.626 36.36C242.4 36.1067 243.253 35.98 244.186 35.98C246.333 35.98 247.966 36.5933 249.086 37.82C250.22 39.0333 250.786 40.8 250.786 43.12C250.786 45.2133 250.313 46.9267 249.366 48.26C248.42 49.5933 246.96 50.58 244.986 51.22C243.013 51.86 240.48 52.18 237.386 52.18L237.226 49.2ZM254.366 39.4V36.72H261.426V34.46H264.706V36.72H271.766V39.4H254.366ZM253.966 52.36V49.6H272.166V52.36H253.966ZM258.646 48.84C258.38 47.5067 258.073 46.1533 257.726 44.78C257.393 43.4067 257.04 42.08 256.666 40.8L259.766 40.1C260.14 41.4067 260.493 42.7667 260.826 44.18C261.173 45.58 261.48 46.96 261.746 48.32L258.646 48.84ZM266.126 50.98L263.226 49.86C263.946 48.4867 264.6 46.96 265.186 45.28C265.773 43.6 266.26 41.86 266.646 40.06L269.906 40.68C269.493 42.56 268.966 44.3867 268.326 46.16C267.686 47.9333 266.953 49.54 266.126 50.98ZM278.906 48.68C280.88 48.68 282.46 48.5667 283.646 48.34C284.833 48.1 285.686 47.7267 286.206 47.22C286.74 46.7133 287.006 46.0467 287.006 45.22C287.006 44.34 286.726 43.7 286.166 43.3C285.62 42.9 284.74 42.7 283.526 42.7C282.993 42.7 282.406 42.7467 281.766 42.84C281.126 42.92 280.38 43.0467 279.526 43.22C278.686 43.38 277.686 43.6067 276.526 43.9L275.946 40.94C277.706 40.5533 279.22 40.2667 280.486 40.08C281.753 39.8933 282.833 39.8 283.726 39.8C285.833 39.8 287.433 40.24 288.526 41.12C289.62 42 290.166 43.28 290.166 44.96C290.166 47.12 289.233 48.7533 287.366 49.86C285.513 50.9667 282.76 51.52 279.106 51.52L278.906 48.68ZM307.006 51.9C305.326 51.9 303.866 51.62 302.626 51.06C301.386 50.5133 300.426 49.7333 299.746 48.72C299.066 47.7067 298.726 46.5133 298.726 45.14C298.726 44.18 298.886 43.2867 299.206 42.46C299.526 41.6333 299.986 40.9 300.586 40.26C301.2 39.6067 301.926 39.0867 302.766 38.7L303.086 39.34L294.386 39.54V36.64L311.446 36.24V39.14L308.886 39.2C307.966 39.2133 307.1 39.3533 306.286 39.62C305.473 39.8867 304.76 40.2667 304.146 40.76C303.533 41.24 303.053 41.82 302.706 42.5C302.373 43.18 302.206 43.9467 302.206 44.8C302.206 45.68 302.393 46.4267 302.766 47.04C303.14 47.64 303.686 48.1067 304.406 48.44C305.14 48.76 306.013 48.92 307.026 48.92C307.4 48.92 307.82 48.9 308.286 48.86C308.753 48.82 309.186 48.76 309.586 48.68L309.946 51.66C309.453 51.74 308.946 51.8 308.426 51.84C307.92 51.88 307.446 51.9 307.006 51.9ZM319.406 51.84C318.673 51.84 318.006 51.6333 317.406 51.22C316.806 50.8067 316.286 50.22 315.846 49.46C315.42 48.7 315.086 47.7933 314.846 46.74C314.62 45.6867 314.506 44.52 314.506 43.24C314.506 42.2267 314.593 41.1733 314.766 40.08C314.94 38.9867 315.206 37.7867 315.566 36.48L318.766 36.84C318.433 38.0133 318.186 39.0867 318.026 40.06C317.866 41.0333 317.786 41.9667 317.786 42.86C317.786 43.6467 317.833 44.3733 317.926 45.04C318.033 45.7067 318.173 46.2867 318.346 46.78C318.52 47.2733 318.72 47.66 318.946 47.94C319.186 48.2067 319.44 48.34 319.706 48.34C319.973 48.34 320.266 48.22 320.586 47.98C320.92 47.74 321.26 47.4133 321.606 47C321.966 46.5733 322.306 46.0933 322.626 45.56C322.946 45.0133 323.22 44.4467 323.446 43.86L326.346 45.38C326 46.3 325.566 47.1533 325.046 47.94C324.54 48.7267 323.973 49.4133 323.346 50C322.72 50.5867 322.073 51.04 321.406 51.36C320.74 51.68 320.073 51.84 319.406 51.84ZM328.886 49.86C328.886 48.34 328.786 46.8267 328.586 45.32C328.4 43.8133 328.12 42.3533 327.746 40.94C327.386 39.5267 326.94 38.2067 326.406 36.98L329.426 36.12C330.026 37.3867 330.526 38.76 330.926 40.24C331.34 41.7067 331.646 43.2467 331.846 44.86C332.06 46.4733 332.166 48.14 332.166 49.86H328.886ZM342.666 52.46C340.64 52.46 339.06 52.12 337.926 51.44C336.806 50.76 336.246 49.8133 336.246 48.6C336.246 47.56 336.68 46.7533 337.546 46.18C338.426 45.5933 339.626 45.3 341.146 45.3C342.52 45.3 343.546 45.5533 344.226 46.06C344.906 46.5533 345.246 47.3 345.246 48.3C345.246 48.66 345.206 49.04 345.126 49.44C345.046 49.84 344.933 50.2267 344.786 50.6L342.046 50.32C342.193 49.9467 342.306 49.62 342.386 49.34C342.466 49.0467 342.506 48.8067 342.506 48.62C342.506 47.94 341.98 47.6 340.926 47.6C340.38 47.6 339.96 47.6867 339.666 47.86C339.373 48.02 339.226 48.26 339.226 48.58C339.226 49.0333 339.48 49.38 339.986 49.62C340.493 49.86 341.246 49.98 342.246 49.98C344.22 49.98 345.66 49.7067 346.566 49.16C347.486 48.6133 347.946 47.7667 347.946 46.62C347.946 45.6067 347.573 44.8733 346.826 44.42C346.093 43.9533 344.886 43.72 343.206 43.72C342.246 43.72 341.406 43.8 340.686 43.96C339.966 44.12 339.28 44.3667 338.626 44.7L336.146 46.04L334.866 43.56L345.266 38.24V38.66H336.066V35.94H350.186V38.66L339.926 44.02L338.266 42.56C338.72 42.4133 339.24 42.2733 339.826 42.14C340.413 42.0067 341.02 41.8867 341.646 41.78C342.273 41.6733 342.88 41.5933 343.466 41.54C344.053 41.4733 344.573 41.44 345.026 41.44C347.026 41.44 348.566 41.8733 349.646 42.74C350.726 43.5933 351.266 44.82 351.266 46.42C351.266 48.3533 350.52 49.8467 349.026 50.9C347.533 51.94 345.413 52.46 342.666 52.46ZM50.02 88.08C47.5267 88.08 45.6333 87.6933 44.34 86.92C43.0467 86.1333 42.4 84.9867 42.4 83.48C42.4 82.2133 42.8733 81.06 43.82 80.02C44.7667 78.9667 46.24 77.9933 48.24 77.1C50.2533 76.2067 52.84 75.36 56 74.56L56.56 76.7C53.88 77.38 51.6733 78.0733 49.94 78.78C48.22 79.4867 46.9467 80.2133 46.12 80.96C45.3067 81.6933 44.9 82.48 44.9 83.32C44.9 85.0533 46.6533 85.92 50.16 85.92C50.7333 85.92 51.3333 85.8933 51.96 85.84C52.5867 85.7867 53.2867 85.7133 54.06 85.62C54.8467 85.5133 55.74 85.38 56.74 85.22L57.02 87.38C55.7533 87.5933 54.5267 87.76 53.34 87.88C52.1667 88.0133 51.06 88.08 50.02 88.08ZM46.22 79.14C45.8333 77.8333 45.5067 76.5533 45.24 75.3C44.9733 74.0333 44.76 72.78 44.6 71.54L47.02 71.18C47.1933 72.42 47.4133 73.66 47.68 74.9C47.9467 76.1267 48.2667 77.3467 48.64 78.56L46.22 79.14ZM62.34 88.56L60.96 86.72C61.84 86.08 62.5867 85.3267 63.2 84.46C63.8267 83.5933 64.3 82.62 64.62 81.54C64.9533 80.46 65.12 79.2733 65.12 77.98V74.22H63.06V72.22H69.86V74.22H67.46V77.98C67.46 79.0733 67.3267 80.1467 67.06 81.2C66.8067 82.2533 66.4467 83.2533 65.98 84.2C65.5133 85.1467 64.9733 85.9933 64.36 86.74C63.7467 87.4867 63.0733 88.0933 62.34 88.56ZM68.7 87.34C68.1133 86.3267 67.5 85.3 66.86 84.26C66.2333 83.22 65.5867 82.18 64.92 81.14L66.72 80.14C67.44 81.18 68.1133 82.2 68.74 83.2C69.38 84.2 69.98 85.16 70.54 86.08L68.7 87.34ZM61 79.92V77.86H70.22V79.92H61ZM62.7 77.44L60.78 76.66C61.2067 75.7667 61.6 74.7667 61.96 73.66C62.32 72.5533 62.6133 71.4133 62.84 70.24L64.88 70.56C64.6667 71.8133 64.3733 73.0333 64 74.22C63.6267 75.3933 63.1933 76.4667 62.7 77.44ZM70.68 88.4V71.84H78.8V88.4H76.5V87.24H72.92V85.24H76.5V73.9H72.92V88.4H70.68ZM84.26 85.8C86.8333 85.8 88.9067 85.58 90.48 85.14C92.0667 84.7 93.2133 83.9867 93.92 83C94.64 82 95 80.7133 95 79.14C95 77.54 94.66 76.3467 93.98 75.56C93.3133 74.76 92.2867 74.36 90.9 74.36C90.1267 74.36 89.4 74.4867 88.72 74.74C88.0533 74.9933 87.4667 75.3533 86.96 75.82C86.4533 76.2867 86.0467 76.84 85.74 77.48C85.4467 78.12 85.3 78.8267 85.3 79.6V82.22H82.98V71.7H85.3V75.96H84.4C84.88 75.1333 85.4467 74.4333 86.1 73.86C86.7667 73.2867 87.52 72.8533 88.36 72.56C89.2133 72.2533 90.14 72.1 91.14 72.1C93.18 72.1 94.74 72.7067 95.82 73.92C96.9133 75.12 97.46 76.86 97.46 79.14C97.46 81.1933 96.9933 82.8733 96.06 84.18C95.14 85.4867 93.72 86.4467 91.8 87.06C89.88 87.6867 87.4067 88 84.38 88L84.26 85.8ZM105.5 88.58C104.887 87.7667 104.227 87.0067 103.52 86.3C102.813 85.58 102.047 84.9133 101.22 84.3L102.86 82.66C103.687 83.3 104.473 84 105.22 84.76C105.967 85.5067 106.66 86.3133 107.3 87.18L105.5 88.58ZM122.4 88.64V71.34H137.6V88.64H135.2V87.66H124.8V85.74H135.2V82.88H124.8V80.96H135.2V78.1H124.8V76.16H135.2V73.32H124.8V88.64H122.4ZM150.58 87.46C150.247 87.46 149.82 87.4133 149.3 87.32C148.78 87.24 148.233 87.1267 147.66 86.98C147.087 86.82 146.547 86.6467 146.04 86.46L146.58 84.44C147.007 84.5733 147.433 84.7067 147.86 84.84C148.3 84.96 148.7 85.06 149.06 85.14C149.433 85.2067 149.727 85.24 149.94 85.24C150.367 85.24 150.72 85.0467 151 84.66C151.28 84.26 151.487 83.64 151.62 82.8C151.767 81.9467 151.84 80.8533 151.84 79.52C151.84 78.7467 151.807 78.1267 151.74 77.66C151.687 77.18 151.58 76.82 151.42 76.58C151.26 76.34 151.013 76.18 150.68 76.1C150.347 76.02 149.9 75.98 149.34 75.98H140.82V73.9H149.1C150.033 73.9 150.807 73.94 151.42 74.02C152.033 74.0867 152.527 74.2267 152.9 74.44C153.273 74.6533 153.553 74.98 153.74 75.42C153.94 75.8467 154.067 76.42 154.12 77.14C154.187 77.8467 154.22 78.7333 154.22 79.8C154.22 81.5333 154.087 82.9667 153.82 84.1C153.567 85.2333 153.173 86.08 152.64 86.64C152.107 87.1867 151.42 87.46 150.58 87.46ZM141.06 87.24C141.553 85.9733 141.993 84.8067 142.38 83.74C142.767 82.66 143.113 81.6267 143.42 80.64C143.74 79.6533 144.027 78.6533 144.28 77.64C144.547 76.6267 144.793 75.5467 145.02 74.4C145.247 73.2533 145.473 71.9867 145.7 70.6L148.02 70.86C147.807 72.1933 147.587 73.44 147.36 74.6C147.133 75.7467 146.88 76.8533 146.6 77.92C146.333 78.9733 146.033 80.0267 145.7 81.08C145.38 82.1333 145.013 83.22 144.6 84.34C144.2 85.46 143.747 86.66 143.24 87.94L141.06 87.24ZM157.34 83.56C157.22 82.76 157.06 81.9067 156.86 81C156.66 80.0933 156.433 79.18 156.18 78.26C155.927 77.34 155.66 76.4533 155.38 75.6C155.1 74.7333 154.813 73.94 154.52 73.22L156.76 72.58C157.067 73.3267 157.36 74.1333 157.64 75C157.92 75.8667 158.187 76.76 158.44 77.68C158.693 78.6 158.92 79.52 159.12 80.44C159.32 81.3467 159.487 82.2133 159.62 83.04L157.34 83.56ZM169.88 87.76C169.16 87.76 168.38 87.7267 167.54 87.66C166.713 87.6067 165.907 87.5267 165.12 87.42C164.347 87.3133 163.647 87.1933 163.02 87.06L163.24 84.98C164.013 85.1133 164.793 85.2333 165.58 85.34C166.38 85.4467 167.147 85.5333 167.88 85.6C168.613 85.6533 169.28 85.68 169.88 85.68C171.773 85.68 173.207 85.4 174.18 84.84C175.153 84.28 175.64 83.4533 175.64 82.36C175.64 81.4533 175.3 80.7667 174.62 80.3C173.94 79.82 172.96 79.58 171.68 79.58C170.813 79.58 169.94 79.68 169.06 79.88C168.18 80.08 167.347 80.3667 166.56 80.74C165.773 81.1133 165.073 81.5533 164.46 82.06L162.32 81.64C162.493 80.7867 162.647 80 162.78 79.28C162.913 78.5467 163.027 77.86 163.12 77.22C163.213 76.5667 163.293 75.9333 163.36 75.32L165.68 75.5C165.6 76.2333 165.5 76.9933 165.38 77.78C165.273 78.5533 165.14 79.3333 164.98 80.12L164.64 79.56C165.36 79.1067 166.107 78.7333 166.88 78.44C167.653 78.1333 168.447 77.9 169.26 77.74C170.087 77.58 170.94 77.5 171.82 77.5C173.86 77.5 175.407 77.9067 176.46 78.72C177.513 79.5333 178.04 80.7333 178.04 82.32C178.04 84.12 177.353 85.48 175.98 86.4C174.607 87.3067 172.573 87.76 169.88 87.76ZM175.72 74.22C174.467 74.2333 173.267 74.2267 172.12 74.2C170.973 74.16 169.827 74.0933 168.68 74C167.547 73.9067 166.367 73.78 165.14 73.62L165.38 71.54C166.513 71.6733 167.66 71.7867 168.82 71.88C169.98 71.96 171.133 72.0267 172.28 72.08C173.427 72.12 174.573 72.14 175.72 72.14V74.22ZM184.64 85.6C186.573 85.5867 188.227 85.4467 189.6 85.18C190.987 84.9 192.12 84.48 193 83.92C193.88 83.3467 194.527 82.6133 194.94 81.72C195.353 80.8267 195.56 79.7667 195.56 78.54V75.88H184.4V80.8H182.02V73.78H188.68V70.74H191.04V73.78H197.98V78.54C197.98 80.5933 197.513 82.3067 196.58 83.68C195.647 85.04 194.22 86.06 192.3 86.74C190.393 87.42 187.973 87.78 185.04 87.82L184.64 85.6ZM201.82 87.86V72.54H218.18V87.86H215.76V86.46H204.26V87.86H201.82ZM204.26 84.32H215.76V74.68H204.26V84.32ZM235.18 88.06V86.66H222.06V84.52H235.18V74.48H222.06V72.34H237.66V88.06H235.18ZM253.04 87.94C251.427 87.94 250.02 87.6533 248.82 87.08C247.633 86.52 246.713 85.7267 246.06 84.7C245.407 83.66 245.08 82.44 245.08 81.04C245.08 79.9467 245.273 78.9333 245.66 78C246.06 77.0667 246.62 76.2533 247.34 75.56C248.073 74.8533 248.94 74.3133 249.94 73.94L250.14 74.56L240.62 74.78V72.64L257.48 72.24V74.38L254.94 74.44C253.873 74.4667 252.887 74.64 251.98 74.96C251.087 75.2667 250.313 75.7 249.66 76.26C249.02 76.82 248.52 77.4867 248.16 78.26C247.8 79.02 247.62 79.8667 247.62 80.8C247.62 81.8133 247.84 82.6933 248.28 83.44C248.72 84.1733 249.34 84.74 250.14 85.14C250.953 85.54 251.927 85.74 253.06 85.74C253.3 85.74 253.567 85.7333 253.86 85.72C254.167 85.6933 254.473 85.6667 254.78 85.64C255.1 85.6 255.38 85.56 255.62 85.52L255.88 87.72C255.6 87.76 255.293 87.7933 254.96 87.82C254.627 87.86 254.293 87.8867 253.96 87.9C253.627 87.9267 253.32 87.94 253.04 87.94ZM255.08 81.7C254.773 81.02 254.44 80.3733 254.08 79.76C253.733 79.1333 253.333 78.4933 252.88 77.84L254.62 76.88C255.073 77.5333 255.48 78.18 255.84 78.82C256.2 79.4467 256.54 80.1133 256.86 80.82L255.08 81.7ZM258.12 80.56C257.827 79.8667 257.507 79.2133 257.16 78.6C256.827 77.9733 256.44 77.3333 256 76.68L257.74 75.76C258.18 76.4267 258.573 77.08 258.92 77.72C259.28 78.36 259.607 79.04 259.9 79.76L258.12 80.56ZM269.64 88.04C268.12 88.04 266.873 87.8 265.9 87.32C264.94 86.8533 264.227 86.1267 263.76 85.14C263.307 84.1533 263.08 82.8867 263.08 81.34V71.6H265.52V81.34C265.52 82.9 265.847 84.0333 266.5 84.74C267.153 85.4333 268.2 85.78 269.64 85.78C270.693 85.78 271.62 85.5867 272.42 85.2C273.233 84.8133 273.967 84.1867 274.62 83.32C275.287 82.44 275.927 81.2733 276.54 79.82L278.76 80.72C278.227 82.0533 277.653 83.1867 277.04 84.12C276.44 85.04 275.78 85.7933 275.06 86.38C274.353 86.9533 273.553 87.3733 272.66 87.64C271.767 87.9067 270.76 88.04 269.64 88.04ZM281.74 87.84C282.3 86.04 282.807 84.2133 283.26 82.36C283.727 80.4933 284.133 78.6 284.48 76.68C284.84 74.7467 285.147 72.8 285.4 70.84L287.78 70.94C287.553 72.86 287.26 74.8 286.9 76.76C286.553 78.72 286.147 80.6667 285.68 82.6C285.213 84.52 284.693 86.4067 284.12 88.26L281.74 87.84ZM294.14 87.86C292.927 87.86 291.873 87.7133 290.98 87.42C290.087 87.14 289.393 86.7467 288.9 86.24C288.407 85.72 288.16 85.1 288.16 84.38C288.16 83.8467 288.34 83.32 288.7 82.8C289.06 82.28 289.613 81.74 290.36 81.18L292.16 82.46C291.653 82.78 291.273 83.08 291.02 83.36C290.78 83.6267 290.66 83.8933 290.66 84.16C290.66 84.4667 290.8 84.74 291.08 84.98C291.373 85.2067 291.78 85.3867 292.3 85.52C292.833 85.6533 293.447 85.72 294.14 85.72C294.767 85.72 295.407 85.6867 296.06 85.62C296.713 85.5533 297.393 85.4533 298.1 85.32L298.36 87.46C297.627 87.5933 296.92 87.6933 296.24 87.76C295.56 87.8267 294.86 87.86 294.14 87.86ZM281.46 75.42V73.34H295.54V75.42H281.46ZM288.94 77.68C290.513 77.5333 292.053 77.42 293.56 77.34C295.08 77.26 296.6 77.22 298.12 77.22V79.32C296.627 79.32 295.127 79.36 293.62 79.44C292.127 79.5067 290.613 79.6267 289.08 79.8L288.94 77.68Z" fill="#282828"/>
<path opacity="0.6" d="M49.016 111.68C49.016 109.09 50.122 106.808 52.432 104.946C52.558 104.834 52.712 104.778 52.852 104.778C53.118 104.778 53.37 105.016 53.37 105.282C53.37 105.464 53.3 105.59 53.16 105.716C51.144 107.438 50.304 109.384 50.304 111.68C50.304 113.976 51.144 115.922 53.16 117.644C53.3 117.77 53.37 117.896 53.37 118.078C53.37 118.344 53.118 118.582 52.852 118.582C52.712 118.582 52.558 118.526 52.432 118.414C50.122 116.552 49.016 114.27 49.016 111.68ZM56.17 109.608H55.022C54.672 109.608 54.49 109.272 54.49 108.936C54.49 108.6 54.672 108.264 55.008 108.264H56.31V105.716C56.31 105.352 56.66 105.17 57.024 105.17C57.374 105.17 57.724 105.352 57.724 105.716V108.264H58.48C58.83 108.264 59.012 108.6 59.012 108.936C59.012 109.272 58.83 109.608 58.48 109.608H57.724V110.42C58.242 110.826 58.788 111.442 59.208 112.002C59.306 112.142 59.348 112.282 59.348 112.422C59.348 112.772 59.04 113.024 58.704 113.024C58.522 113.024 58.326 112.94 58.2 112.73C58.06 112.52 57.892 112.296 57.724 112.072V117.672C57.724 118.078 57.374 118.274 57.024 118.274C56.66 118.274 56.31 118.078 56.31 117.672V115.656L56.352 112.8C56.1 113.486 55.792 114.144 55.456 114.676C55.316 114.914 55.12 115.012 54.924 115.012C54.616 115.012 54.308 114.746 54.308 114.396C54.308 114.27 54.35 114.144 54.434 114.004C55.148 112.856 55.736 111.358 56.17 109.608ZM61.364 110.63V110.196C61.294 110.518 60.986 110.756 60.678 110.756C60.454 110.756 60.23 110.644 60.076 110.35C59.88 109.972 59.642 109.622 59.432 109.356C59.32 109.216 59.264 109.062 59.264 108.936C59.264 108.572 59.6 108.306 59.964 108.306C60.132 108.306 60.3 108.362 60.44 108.516C60.776 108.88 61.07 109.272 61.28 109.678C61.322 109.748 61.35 109.832 61.364 109.902V105.898C61.364 105.478 61.728 105.282 62.078 105.282C62.442 105.282 62.792 105.478 62.792 105.898V110.826C62.792 114.382 61.728 116.524 59.81 118.008C59.656 118.134 59.488 118.176 59.334 118.176C58.942 118.176 58.606 117.854 58.606 117.476C58.606 117.266 58.704 117.056 58.942 116.874C59.992 116.034 60.692 115.096 61.056 113.668C60.706 113.92 60.342 114.144 60.02 114.34C59.88 114.424 59.74 114.452 59.614 114.452C59.236 114.452 58.97 114.13 58.97 113.78C58.97 113.57 59.082 113.346 59.362 113.206C60.062 112.856 60.706 112.45 61.322 111.988C61.35 111.568 61.364 111.12 61.364 110.63ZM64.99 105.898V116.258C64.99 116.524 65.088 116.58 65.508 116.58C66.082 116.58 66.222 116.426 66.306 115.74C66.348 115.348 66.67 115.166 67.006 115.166C67.37 115.166 67.72 115.376 67.72 115.81C67.72 116.3 67.552 117.056 67.202 117.392C66.824 117.77 66.39 117.938 65.466 117.938C63.982 117.938 63.576 117.56 63.576 116.482V105.898C63.576 105.478 63.926 105.282 64.29 105.282C64.64 105.282 64.99 105.478 64.99 105.898ZM66.138 112.1C66.544 112.394 66.978 112.73 67.342 113.108C67.524 113.29 67.594 113.486 67.594 113.668C67.594 114.046 67.272 114.368 66.894 114.368C66.726 114.368 66.544 114.298 66.39 114.13C65.998 113.724 65.62 113.388 65.326 113.15C65.116 112.982 65.032 112.8 65.032 112.618C65.032 112.268 65.34 111.96 65.718 111.96C65.858 111.96 65.998 112.002 66.138 112.1ZM66.054 108.306C66.194 108.068 66.404 107.984 66.614 107.984C66.978 107.984 67.356 108.264 67.356 108.642C67.356 108.74 67.328 108.838 67.272 108.95C66.95 109.51 66.586 109.972 66.264 110.322C66.068 110.518 65.872 110.616 65.676 110.616C65.312 110.616 65.004 110.308 65.004 109.958C65.004 109.804 65.074 109.622 65.214 109.468C65.452 109.202 65.802 108.74 66.054 108.306ZM75.756 115.978H78.402C79.018 115.978 79.172 115.838 79.172 115.264V108.894C79.172 108.46 79.564 108.236 79.956 108.236C80.348 108.236 80.74 108.46 80.74 108.894V115.502C80.74 116.762 80.18 117.378 78.542 117.378H71.458C69.82 117.378 69.26 116.762 69.26 115.502V108.894C69.26 108.46 69.652 108.236 70.044 108.236C70.436 108.236 70.828 108.46 70.828 108.894V115.264C70.828 115.838 70.982 115.978 71.598 115.978H74.188V106.052C74.188 105.618 74.58 105.394 74.972 105.394C75.364 105.394 75.756 105.618 75.756 106.052V115.978ZM90.176 116.846H87.796C86.76 116.846 86.354 116.482 86.354 115.656V114.592C86.354 113.766 86.76 113.402 87.796 113.402H90.176C91.212 113.402 91.618 113.766 91.618 114.592V115.656C91.618 116.622 91.044 116.846 90.176 116.846ZM88.104 115.81H89.868C90.176 115.81 90.246 115.74 90.246 115.516V114.732C90.246 114.508 90.176 114.438 89.868 114.438H88.104C87.796 114.438 87.726 114.508 87.726 114.732V115.516C87.726 115.782 87.866 115.81 88.104 115.81ZM89.448 110.504H88.314C88.09 111.918 87.334 112.898 86.088 113.542C85.976 113.598 85.878 113.626 85.78 113.626C85.43 113.626 85.15 113.318 85.15 112.996C85.15 112.786 85.262 112.576 85.528 112.436C86.298 112.03 86.802 111.442 87.012 110.504H85.43C84.94 110.504 84.828 110.644 84.828 111.05V117.644C84.828 118.022 84.464 118.218 84.086 118.218C83.722 118.218 83.344 118.022 83.344 117.644V110.896C83.344 109.804 83.862 109.3 85.22 109.3H86.83C86.788 109.258 86.746 109.216 86.718 109.16C86.592 108.95 86.452 108.726 86.256 108.46C86.172 108.348 86.144 108.236 86.144 108.124C86.144 107.9 86.284 107.718 86.494 107.62H83.26C82.896 107.62 82.714 107.312 82.714 106.99C82.714 106.682 82.896 106.374 83.26 106.374H88.188V105.618C88.188 105.226 88.566 105.03 88.944 105.03C89.322 105.03 89.7 105.226 89.7 105.618V106.374H94.782C95.146 106.374 95.328 106.682 95.328 106.99C95.328 107.312 95.146 107.62 94.782 107.62H91.352C91.576 107.732 91.758 107.928 91.758 108.166C91.758 108.25 91.73 108.334 91.688 108.432C91.576 108.67 91.408 108.978 91.212 109.3H92.78C94.138 109.3 94.656 109.804 94.656 110.896V116.44C94.656 117.672 94.152 118.134 93.018 118.134C92.556 118.134 92.29 118.106 91.996 118.05C91.646 117.994 91.478 117.686 91.478 117.392C91.478 117.042 91.702 116.692 92.094 116.692C92.136 116.692 92.192 116.692 92.234 116.706C92.458 116.748 92.626 116.762 92.794 116.762C93.018 116.762 93.172 116.706 93.172 116.342V111.05C93.172 110.644 93.06 110.504 92.57 110.504H90.736V111.652C90.736 111.82 90.778 111.876 91.128 111.876C91.59 111.876 91.674 111.806 91.73 111.428C91.772 111.134 92.024 110.994 92.29 110.994C92.612 110.994 92.934 111.19 92.934 111.526V111.61C92.78 112.688 92.346 112.898 91.114 112.898C89.812 112.898 89.448 112.674 89.448 111.89V110.504ZM87.81 109.3H89.63C89.938 108.796 90.19 108.306 90.344 107.942C90.414 107.788 90.512 107.69 90.624 107.62H87.208C87.292 107.662 87.376 107.732 87.446 107.816C87.642 108.054 87.824 108.32 87.95 108.53C88.02 108.642 88.048 108.754 88.048 108.852C88.048 109.034 87.95 109.188 87.81 109.3ZM102.244 111.022H99.976C99.262 111.022 98.716 110.728 98.716 109.944V109.174C98.716 108.488 99.136 108.096 99.976 108.096H102.244V107.55H97.484C97.12 107.55 96.924 107.214 96.924 106.906C96.924 106.612 97.106 106.29 97.484 106.29H102.244V105.562C102.244 105.17 102.594 104.974 102.944 104.974C103.308 104.974 103.672 105.184 103.672 105.576V106.29H108.628C109.006 106.29 109.202 106.598 109.202 106.92C109.202 107.228 109.006 107.55 108.628 107.55H103.672V108.096H106.108C106.948 108.096 107.368 108.488 107.368 109.174V109.944C107.368 110.63 106.948 111.022 106.108 111.022H103.672V111.554H105.94C107.452 111.554 107.844 111.918 107.844 112.842V113.248H108.936C109.314 113.248 109.51 113.542 109.51 113.836C109.51 114.13 109.314 114.424 108.936 114.424H107.844V114.844C107.844 115.768 107.452 116.132 105.94 116.132H103.672V116.804C103.672 117.994 103.084 118.372 102.076 118.372C101.628 118.372 101.306 118.344 101.026 118.288C100.62 118.218 100.438 117.91 100.438 117.602C100.438 117.252 100.69 116.888 101.138 116.888C101.18 116.888 101.236 116.888 101.292 116.902C101.516 116.944 101.67 116.958 101.866 116.958C102.174 116.958 102.244 116.86 102.244 116.594V116.132H98.324C97.988 116.132 97.82 115.852 97.82 115.572C97.82 115.292 97.988 115.012 98.324 115.012H102.244V114.424H97.078C96.714 114.424 96.532 114.116 96.532 113.836C96.532 113.556 96.714 113.248 97.078 113.248H102.244V112.674H98.324C97.988 112.674 97.82 112.394 97.82 112.114C97.82 111.834 97.988 111.554 98.324 111.554H102.244V111.022ZM100.452 109.972H102.244V109.146H100.452C100.158 109.146 100.088 109.23 100.088 109.426V109.692C100.088 109.944 100.228 109.972 100.452 109.972ZM103.672 109.146V109.972H105.632C105.926 109.972 105.996 109.888 105.996 109.692V109.426C105.996 109.23 105.926 109.146 105.632 109.146H103.672ZM103.672 112.674V113.248H106.416V112.996C106.416 112.716 106.332 112.674 105.828 112.674H103.672ZM106.416 114.424H103.672V115.012H105.828C106.332 115.012 106.416 114.97 106.416 114.69V114.424ZM114.256 106.948H119.884C121.396 106.948 122.012 107.508 122.012 108.544C122.012 108.684 121.998 108.824 121.984 108.964C121.508 112.814 119.38 115.754 116.034 117.266C115.894 117.336 115.754 117.364 115.614 117.364C115.138 117.364 114.802 116.958 114.802 116.538C114.802 116.258 114.956 115.95 115.348 115.768C118.274 114.354 119.856 112.114 120.276 109.02C120.29 108.95 120.29 108.894 120.29 108.852C120.29 108.53 120.122 108.432 119.632 108.432H114.438C113.948 108.432 113.808 108.586 113.808 109.006V111.19C113.808 111.624 113.402 111.834 112.982 111.834C112.576 111.834 112.156 111.624 112.156 111.19V108.67C112.156 107.494 112.744 106.948 114.256 106.948ZM128.004 109.622C128.368 110.196 128.746 110.896 128.984 111.54C129.012 111.624 129.026 111.708 129.026 111.792C129.026 112.198 128.62 112.478 128.228 112.478C127.962 112.478 127.71 112.352 127.584 112.044C127.332 111.428 127.01 110.77 126.688 110.238C126.618 110.126 126.59 110.014 126.59 109.902C126.59 109.538 126.968 109.258 127.36 109.258C127.598 109.258 127.85 109.37 128.004 109.622ZM130.776 108.964C131.126 109.552 131.462 110.224 131.672 110.868C131.7 110.952 131.714 111.036 131.714 111.106C131.714 111.512 131.322 111.778 130.944 111.778C130.678 111.778 130.412 111.638 130.3 111.316C130.062 110.686 129.768 110.07 129.46 109.538C129.39 109.426 129.362 109.314 129.362 109.216C129.362 108.852 129.726 108.6 130.118 108.6C130.37 108.6 130.622 108.698 130.776 108.964ZM133.968 109.524C134.066 109.174 134.346 109.034 134.654 109.034C135.046 109.034 135.466 109.286 135.466 109.706C135.466 109.762 135.452 109.818 135.438 109.888C134.556 113.192 132.33 116.132 129.642 117.588C129.502 117.658 129.376 117.7 129.25 117.7C128.844 117.7 128.536 117.336 128.536 116.958C128.536 116.706 128.662 116.454 128.97 116.286C131.476 114.872 133.142 112.562 133.968 109.524ZM148.192 114.186V109.72C148.192 109.202 147.982 109.062 147.296 109.062H141.08C140.618 109.062 140.38 108.67 140.38 108.278C140.38 107.886 140.618 107.494 141.08 107.494H147.604C149.2 107.494 149.816 108.11 149.816 109.37V114.536C149.816 115.796 149.2 116.412 147.604 116.412H140.912C140.45 116.412 140.212 116.02 140.212 115.628C140.212 115.236 140.45 114.844 140.912 114.844H147.296C147.982 114.844 148.192 114.704 148.192 114.186ZM160.61 112.38L160.624 112.352C159.98 111.624 159.49 110.84 159 109.902C157.446 110.182 155.374 110.42 154.632 110.42C154.156 110.42 153.904 110.028 153.904 109.65C153.904 109.314 154.114 108.964 154.576 108.95C155.752 108.894 157.096 108.74 158.384 108.53C158.104 107.802 157.852 107.074 157.656 106.36C157.642 106.304 157.628 106.248 157.628 106.192C157.628 105.772 158.048 105.506 158.454 105.506C158.762 105.506 159.07 105.66 159.168 106.038C159.35 106.752 159.574 107.522 159.868 108.25C160.932 108.026 161.912 107.76 162.682 107.494C162.78 107.452 162.892 107.438 162.976 107.438C163.424 107.438 163.732 107.816 163.732 108.194C163.732 108.474 163.564 108.754 163.158 108.894C162.416 109.146 161.492 109.398 160.498 109.608C161.016 110.588 161.744 111.624 162.794 112.758C162.962 112.94 163.032 113.15 163.032 113.346C163.032 113.766 162.71 114.144 162.262 114.144C162.178 114.144 162.08 114.116 161.982 114.088C160.904 113.71 159.868 113.556 158.748 113.556C157.054 113.556 156.48 114.074 156.48 114.844C156.48 115.642 157.11 116.174 159.196 116.174C159.77 116.174 160.218 116.146 160.666 116.104H160.764C161.254 116.104 161.506 116.482 161.506 116.86C161.506 117.196 161.296 117.532 160.82 117.588C160.358 117.644 159.84 117.672 159.224 117.672C156.368 117.672 154.856 116.594 154.856 114.83C154.856 113.318 156.018 112.198 158.734 112.198C159.49 112.198 160.05 112.268 160.61 112.38ZM171.376 111.372L171.404 111.386C171.81 111.134 172.23 111.022 172.678 111.022C173.966 111.022 174.666 111.792 174.764 113.976C174.834 115.502 175.17 115.712 175.702 115.712C176.332 115.712 176.864 115.166 177.354 113.892C177.494 113.528 177.802 113.36 178.11 113.36C178.53 113.36 178.95 113.668 178.95 114.116C178.95 114.214 178.922 114.326 178.88 114.452C178.152 116.384 177.102 117.294 175.59 117.294C174.134 117.294 173.238 116.51 173.14 114.116C173.084 112.73 172.874 112.436 172.3 112.436C171.558 112.436 170.802 113.122 170.116 114.55C169.808 115.194 169.402 116.048 169.094 116.72C168.94 117.042 168.646 117.196 168.352 117.196C167.932 117.196 167.512 116.902 167.512 116.454C167.512 116.356 167.54 116.258 167.582 116.146C168.814 113.178 170.592 109.384 172.202 106.402C172.356 106.108 172.636 105.982 172.916 105.982C173.364 105.982 173.798 106.29 173.798 106.71C173.798 106.822 173.77 106.934 173.714 107.046L171.376 111.372ZM180.798 117.42L192.334 105.156C192.46 105.03 192.6 104.932 192.726 104.932C193.09 104.932 193.398 105.226 193.398 105.506C193.398 105.66 193.342 105.8 193.202 105.94L181.666 118.204C181.54 118.33 181.4 118.428 181.274 118.428C180.91 118.428 180.602 118.134 180.602 117.854C180.602 117.7 180.658 117.56 180.798 117.42ZM201.812 110.056V115.922C201.812 117.336 201.112 117.882 199.894 117.882C199.572 117.882 199.208 117.868 198.816 117.798C198.368 117.714 198.158 117.364 198.158 117C198.158 116.58 198.438 116.16 198.942 116.16C198.984 116.16 199.04 116.16 199.096 116.174C199.362 116.216 199.53 116.23 199.698 116.23C200.006 116.23 200.132 116.132 200.132 115.726V110.056H196.072C195.624 110.056 195.4 109.678 195.4 109.314C195.4 108.936 195.624 108.572 196.072 108.572H200.132V106.486C200.132 106.01 200.566 105.772 200.986 105.772C201.406 105.772 201.812 105.996 201.812 106.458V108.572H205.816C206.264 108.572 206.488 108.936 206.488 109.314C206.488 109.678 206.264 110.056 205.816 110.056H201.812ZM205.802 105.17C206.642 105.17 207.3 105.828 207.3 106.668C207.3 107.522 206.642 108.18 205.802 108.18C204.948 108.18 204.29 107.522 204.29 106.668C204.29 105.828 204.948 105.17 205.802 105.17ZM205.802 107.48C206.25 107.48 206.6 107.116 206.6 106.668C206.6 106.22 206.25 105.87 205.802 105.87C205.354 105.87 204.99 106.22 204.99 106.668C204.99 107.116 205.354 107.48 205.802 107.48ZM204.878 111.848C205.228 112.562 205.9 113.612 206.432 114.256C206.614 114.48 206.698 114.704 206.698 114.9C206.698 115.362 206.292 115.712 205.858 115.712C205.592 115.712 205.298 115.586 205.074 115.278C204.528 114.55 203.786 113.332 203.394 112.45C203.338 112.324 203.31 112.198 203.31 112.086C203.31 111.638 203.702 111.372 204.108 111.372C204.416 111.372 204.71 111.512 204.878 111.848ZM196.968 111.89C197.122 111.54 197.416 111.386 197.724 111.386C198.13 111.386 198.536 111.68 198.536 112.142C198.536 112.254 198.522 112.366 198.466 112.492C198.018 113.598 197.318 114.662 196.464 115.516C196.254 115.726 196.016 115.81 195.806 115.81C195.358 115.81 194.98 115.46 194.98 115.054C194.98 114.844 195.064 114.634 195.274 114.438C195.974 113.752 196.548 112.856 196.968 111.89ZM212.004 109.622C212.368 110.196 212.746 110.896 212.984 111.54C213.012 111.624 213.026 111.708 213.026 111.792C213.026 112.198 212.62 112.478 212.228 112.478C211.962 112.478 211.71 112.352 211.584 112.044C211.332 111.428 211.01 110.77 210.688 110.238C210.618 110.126 210.59 110.014 210.59 109.902C210.59 109.538 210.968 109.258 211.36 109.258C211.598 109.258 211.85 109.37 212.004 109.622ZM214.776 108.964C215.126 109.552 215.462 110.224 215.672 110.868C215.7 110.952 215.714 111.036 215.714 111.106C215.714 111.512 215.322 111.778 214.944 111.778C214.678 111.778 214.412 111.638 214.3 111.316C214.062 110.686 213.768 110.07 213.46 109.538C213.39 109.426 213.362 109.314 213.362 109.216C213.362 108.852 213.726 108.6 214.118 108.6C214.37 108.6 214.622 108.698 214.776 108.964ZM217.968 109.524C218.066 109.174 218.346 109.034 218.654 109.034C219.046 109.034 219.466 109.286 219.466 109.706C219.466 109.762 219.452 109.818 219.438 109.888C218.556 113.192 216.33 116.132 213.642 117.588C213.502 117.658 213.376 117.7 213.25 117.7C212.844 117.7 212.536 117.336 212.536 116.958C212.536 116.706 212.662 116.454 212.97 116.286C215.476 114.872 217.142 112.562 217.968 109.524ZM228.692 106.486V110.42C228.832 110.168 229.084 109.986 229.378 109.986C229.504 109.986 229.616 110.014 229.742 110.07C230.61 110.462 231.828 111.176 232.71 111.862C232.99 112.072 233.102 112.338 233.102 112.59C233.102 113.038 232.752 113.416 232.304 113.416C232.122 113.416 231.912 113.36 231.716 113.206C230.904 112.59 229.714 111.862 229.098 111.526C228.902 111.414 228.776 111.288 228.692 111.134V117.168C228.692 117.658 228.286 117.896 227.866 117.896C227.46 117.896 227.04 117.658 227.04 117.168V106.486C227.04 105.996 227.46 105.744 227.866 105.744C228.286 105.744 228.692 105.996 228.692 106.486ZM231.128 107.76C231.03 107.648 230.988 107.536 230.988 107.438C230.988 107.158 231.268 106.906 231.576 106.906C231.702 106.906 231.842 106.948 231.968 107.06C232.346 107.396 232.766 107.844 233.06 108.278C233.158 108.404 233.186 108.53 233.186 108.656C233.186 108.964 232.92 109.216 232.626 109.216C232.458 109.216 232.29 109.132 232.164 108.95C231.828 108.488 231.45 108.082 231.128 107.76ZM232.528 106.654C232.416 106.542 232.374 106.43 232.374 106.318C232.374 106.038 232.64 105.8 232.962 105.8C233.102 105.8 233.242 105.856 233.382 105.968C233.746 106.276 234.166 106.71 234.46 107.116C234.572 107.256 234.614 107.396 234.614 107.536C234.614 107.844 234.348 108.068 234.054 108.068C233.886 108.068 233.704 107.998 233.564 107.816C233.242 107.41 232.85 106.99 232.528 106.654ZM241.572 108.628L241.166 106.332C241.152 106.29 241.152 106.234 241.152 106.192C241.152 105.758 241.572 105.52 241.978 105.52C242.328 105.52 242.678 105.702 242.748 106.108L243.154 108.39L246.318 107.9C246.36 107.886 246.402 107.886 246.444 107.886C246.906 107.886 247.158 108.292 247.158 108.67C247.158 108.978 246.976 109.286 246.584 109.342L243.406 109.832L243.756 111.806L247.858 111.12C247.9 111.106 247.956 111.106 247.998 111.106C248.446 111.106 248.698 111.498 248.698 111.876C248.698 112.184 248.516 112.492 248.124 112.562L244.008 113.248L244.68 117.028C244.694 117.07 244.694 117.126 244.694 117.168C244.694 117.602 244.288 117.854 243.882 117.854C243.532 117.854 243.182 117.672 243.112 117.252L242.44 113.514L238.338 114.2C238.296 114.214 238.254 114.214 238.212 114.214C237.764 114.214 237.512 113.808 237.512 113.43C237.512 113.122 237.694 112.814 238.086 112.744L242.188 112.058L241.838 110.07L238.702 110.56C238.66 110.574 238.618 110.574 238.576 110.574C238.142 110.574 237.89 110.168 237.89 109.79C237.89 109.468 238.058 109.16 238.464 109.104L241.572 108.628ZM256.384 111.05L259.94 110.49C260.08 110.462 260.22 110.462 260.36 110.462C261.158 110.462 261.662 110.882 261.662 111.54C261.662 111.792 261.592 112.072 261.438 112.366C261.032 113.164 260.444 113.976 259.786 114.592C259.604 114.774 259.394 114.844 259.212 114.844C258.82 114.844 258.484 114.522 258.484 114.144C258.484 113.976 258.568 113.78 258.75 113.612C259.254 113.15 259.66 112.632 259.982 112.086C260.024 112.016 260.038 111.974 260.038 111.932C260.038 111.862 259.982 111.82 259.87 111.82C259.842 111.82 259.8 111.834 259.758 111.834L256.636 112.338L257.616 117.476C257.63 117.518 257.63 117.56 257.63 117.602C257.63 117.994 257.266 118.218 256.902 118.218C256.594 118.218 256.3 118.05 256.23 117.7L255.236 112.562L252.884 112.94C252.842 112.954 252.8 112.954 252.758 112.954C252.352 112.954 252.128 112.604 252.128 112.268C252.128 111.974 252.296 111.694 252.66 111.638L254.984 111.274L254.536 108.978C254.522 108.922 254.522 108.88 254.522 108.838C254.522 108.446 254.872 108.25 255.236 108.25C255.558 108.25 255.88 108.418 255.95 108.782L256.384 111.05ZM267.29 107.116L272.862 107.018H272.946C273.982 107.018 274.514 107.494 274.514 108.222C274.514 108.446 274.458 108.698 274.36 108.978C273.926 110.14 273.254 111.274 272.442 112.324C273.744 113.206 275.2 114.494 276.194 115.642C276.376 115.852 276.46 116.076 276.46 116.272C276.46 116.734 276.026 117.112 275.564 117.112C275.34 117.112 275.088 117.014 274.892 116.776C274.024 115.726 272.736 114.452 271.448 113.486C270.09 114.956 268.466 116.174 266.884 116.958C266.744 117.028 266.604 117.056 266.478 117.056C266.002 117.056 265.666 116.65 265.666 116.244C265.666 115.964 265.806 115.698 266.142 115.53C269.054 114.06 271.504 111.68 272.61 108.964C272.652 108.88 272.666 108.796 272.666 108.74C272.666 108.614 272.554 108.558 272.316 108.558L267.304 108.656C266.842 108.67 266.604 108.278 266.604 107.9C266.604 107.508 266.842 107.13 267.29 107.116ZM284.776 107.718L287.66 107.69C288.822 107.676 289.41 108.138 289.41 108.978C289.41 109.202 289.368 109.454 289.284 109.72C288.304 112.968 285.504 116.16 282.396 117.84C282.242 117.924 282.074 117.966 281.934 117.966C281.486 117.966 281.164 117.588 281.164 117.182C281.164 116.902 281.304 116.622 281.668 116.426C282.998 115.698 284.244 114.676 285.28 113.5C284.664 112.926 284.118 112.506 283.656 112.198C283.404 112.016 283.306 111.806 283.306 111.582C283.306 111.204 283.642 110.84 284.076 110.84C284.23 110.84 284.398 110.882 284.566 110.994C285.112 111.344 285.672 111.764 286.246 112.282C286.862 111.386 287.352 110.434 287.66 109.51C287.688 109.44 287.702 109.37 287.702 109.314C287.702 109.16 287.59 109.09 287.324 109.09L283.908 109.118C283.194 110.182 282.368 111.162 281.556 111.89C281.36 112.072 281.136 112.142 280.94 112.142C280.506 112.142 280.156 111.806 280.156 111.4C280.156 111.19 280.254 110.952 280.492 110.742C281.794 109.566 283.124 107.718 283.852 106.01C284.006 105.632 284.328 105.478 284.636 105.478C285.042 105.478 285.434 105.758 285.434 106.192C285.434 106.29 285.42 106.402 285.364 106.528C285.196 106.92 285 107.312 284.776 107.718ZM293.89 110.952H304.11C304.614 110.952 304.866 111.344 304.866 111.75C304.866 112.142 304.614 112.548 304.11 112.548H293.89C293.386 112.548 293.134 112.142 293.134 111.75C293.134 111.344 293.386 110.952 293.89 110.952ZM310.984 111.68C310.984 114.27 309.878 116.552 307.568 118.414C307.442 118.526 307.288 118.582 307.148 118.582C306.882 118.582 306.63 118.344 306.63 118.078C306.63 117.896 306.7 117.77 306.84 117.644C308.856 115.922 309.696 113.976 309.696 111.68C309.696 109.384 308.856 107.438 306.84 105.716C306.7 105.59 306.63 105.464 306.63 105.282C306.63 105.016 306.882 104.778 307.148 104.778C307.288 104.778 307.442 104.834 307.568 104.946C309.878 106.808 310.984 109.09 310.984 111.68Z" fill="#282828"/>
<path d="M332.177 188L314.177 146L283 146L332.177 188Z" fill="#69BD83"/>
</svg>
