<svg width="290" height="215" viewBox="0 0 290 215" fill="none" xmlns="http://www.w3.org/2000/svg">
<rect width="290" height="161" rx="80" fill="#69BD83"/>
<path d="M43.744 44.76V42.392H40.992V40.936H43.744V39.8H42.752V38.408H43.776V36.712H42.752V35.448H43.776V33.848H45.568V35.448H46.56V36.712H45.568V38.408H46.56V33.848H42.752V39.8H41.152V32.312H48.112V39.8H45.6V40.936H48.208V42.392H45.6V44.76H43.744ZM40.864 46.008L40.704 44.376C41.5253 44.3013 42.352 44.216 43.184 44.12C44.016 44.0133 44.8533 43.9067 45.696 43.8C46.5387 43.6827 47.3813 43.56 48.224 43.432L48.272 44.92C47.44 45.0693 46.5973 45.208 45.744 45.336C44.9013 45.464 44.0693 45.5867 43.248 45.704C42.4373 45.8213 41.6427 45.9227 40.864 46.008ZM50.656 46.248C50.4213 46.248 50.1333 46.2373 49.792 46.216C49.4613 46.2053 49.0667 46.1893 48.608 46.168L48.528 44.536C48.8587 44.5573 49.152 44.5733 49.408 44.584C49.664 44.5947 49.8773 44.6 50.048 44.6C50.208 44.6 50.3253 44.5893 50.4 44.568C50.4747 44.5467 50.5173 44.4827 50.528 44.376C50.5387 44.2587 50.544 44.072 50.544 43.816V39.432H47.776V37.832H55.552V39.432H52.368V43.784C52.368 44.3493 52.352 44.7973 52.32 45.128C52.288 45.4587 52.2133 45.704 52.096 45.864C51.9893 46.024 51.8187 46.1253 51.584 46.168C51.36 46.2213 51.0507 46.248 50.656 46.248ZM53.952 42.776L52.528 41.896C52.8373 41.4267 53.12 40.936 53.376 40.424C53.6427 39.9013 53.888 39.352 54.112 38.776L55.552 39.432C55.3387 40.0293 55.0987 40.6053 54.832 41.16C54.576 41.7147 54.2827 42.2533 53.952 42.776ZM52.448 39.24C51.872 38.6213 51.2907 38.024 50.704 37.448C50.128 36.872 49.5307 36.3013 48.912 35.736L50.016 34.568C50.656 35.1547 51.264 35.7413 51.84 36.328C52.4267 36.9147 52.9813 37.5067 53.504 38.104L52.448 39.24ZM51.952 37.88L50.912 36.616C51.4773 36.0507 52.0053 35.4587 52.496 34.84C52.9973 34.2213 53.4827 33.56 53.952 32.856L55.04 34.056C54.5707 34.7707 54.08 35.4427 53.568 36.072C53.0667 36.6907 52.528 37.2933 51.952 37.88ZM48.656 34.056V32.472H55.04V34.056H48.656ZM63.664 46.392V42.216H57.648V40.68H63.664V39.912H65.616V40.68H71.632V42.216H65.616V46.392H63.664ZM57.92 46.184L57.104 44.712C58.4907 44.296 59.712 43.7787 60.768 43.16C61.8347 42.5413 62.7147 41.8747 63.408 41.16L64.448 42.168C63.648 42.9893 62.6933 43.7627 61.584 44.488C60.4853 45.2027 59.264 45.768 57.92 46.184ZM60.128 40.552C59.936 40.1147 59.728 39.6933 59.504 39.288C59.2907 38.8827 59.072 38.4987 58.848 38.136L60.512 37.48C60.7253 37.8427 60.944 38.232 61.168 38.648C61.392 39.0533 61.6 39.4693 61.792 39.896L60.128 40.552ZM71.36 46.184C70.016 45.768 68.7893 45.2027 67.68 44.488C66.5813 43.7627 65.632 42.9893 64.832 42.168L65.872 41.16C66.5653 41.8747 67.44 42.5413 68.496 43.16C69.5627 43.7787 70.7893 44.296 72.176 44.712L71.36 46.184ZM64.128 39.816C63.9573 39.4427 63.7813 39.08 63.6 38.728C63.4187 38.3653 63.2427 38.0347 63.072 37.736L64.736 37.144C64.928 37.4533 65.1147 37.7893 65.296 38.152C65.4773 38.5147 65.648 38.8773 65.808 39.24L64.128 39.816ZM58.512 37.416L58.368 35.896C59.68 35.896 60.944 35.88 62.16 35.848C63.3867 35.8053 64.5333 35.7467 65.6 35.672C66.6773 35.5973 67.648 35.512 68.512 35.416C69.3867 35.32 70.1227 35.2133 70.72 35.096L71.12 36.568C70.224 36.7387 69.136 36.888 67.856 37.016C66.576 37.144 65.1467 37.2453 63.568 37.32C61.9893 37.384 60.304 37.416 58.512 37.416ZM69.152 40.632L67.488 39.944C67.7973 39.4427 68.08 38.9307 68.336 38.408C68.6027 37.8853 68.832 37.3787 69.024 36.888L70.736 37.544C70.5333 38.0453 70.2987 38.5573 70.032 39.08C69.7653 39.592 69.472 40.1093 69.152 40.632ZM60.864 35.464V34.472H57.488V32.936H60.864V31.784H62.736V32.936H66.544V31.784H68.416V32.936H71.792V34.472H68.416V35.24H66.544V34.472H62.736V35.464H60.864ZM74.048 39.816V37.928H88.512V39.816H74.048ZM94.72 46.056V44.552H99.184V43.8H95.28V42.408H99.184V36.216H95.024V34.808H99.184V33.432H101.136V34.808H105.168V36.216H101.136V42.408H105.008V43.8H101.136V44.552H105.44V46.056H94.72ZM91.136 44.104L90.256 42.248C90.9067 41.16 91.408 40.1253 91.76 39.144C92.112 38.1627 92.336 37.2027 92.432 36.264L93.168 37.32C92.9653 38.8667 92.6933 40.1893 92.352 41.288C92.0213 42.376 91.616 43.3147 91.136 44.104ZM92.272 46.472V37.624H90.608V36.024H92.272V33.272H94.032V36.024H95.312V37.624H94.032V46.472H92.272ZM94.72 41.944C94.4 41.2187 94.0693 40.4933 93.728 39.768C93.3867 39.032 93.0293 38.28 92.656 37.512L93.568 36.664C94.0267 37.4853 94.4533 38.2693 94.848 39.016C95.2427 39.752 95.616 40.4507 95.968 41.112L94.72 41.944ZM90.88 34.408L90.72 32.904C91.52 32.8293 92.3253 32.712 93.136 32.552C93.9467 32.392 94.7093 32.2053 95.424 31.992L95.872 33.4C95.2533 33.6347 94.512 33.8427 93.648 34.024C92.7947 34.1947 91.872 34.3227 90.88 34.408ZM95.568 41.768V36.84H104.784V41.768H97.312V40.504H102.96V39.848H97.312V38.776H102.96V38.104H97.312V41.768H95.568ZM95.568 34.232L95.552 32.728C96.768 32.7067 97.9413 32.664 99.072 32.6C100.213 32.5253 101.259 32.44 102.208 32.344C103.168 32.2373 103.979 32.12 104.64 31.992L104.864 33.496C104.192 33.624 103.376 33.7413 102.416 33.848C101.467 33.9547 100.411 34.04 99.248 34.104C98.0853 34.168 96.8587 34.2107 95.568 34.232ZM115.92 43.832C116.485 43.768 117.003 43.608 117.472 43.352C117.952 43.0853 118.363 42.7493 118.704 42.344C119.056 41.928 119.328 41.4533 119.52 40.92C119.712 40.3867 119.808 39.8107 119.808 39.192C119.808 38.3173 119.605 37.5547 119.2 36.904C118.795 36.2427 118.229 35.736 117.504 35.384C116.789 35.032 115.957 34.856 115.008 34.856C114.197 34.856 113.445 34.9893 112.752 35.256C112.059 35.5227 111.445 35.896 110.912 36.376C110.389 36.8453 109.979 37.4 109.68 38.04C109.381 38.6693 109.232 39.3467 109.232 40.072C109.232 40.5947 109.317 41.096 109.488 41.576C109.659 42.056 109.872 42.4507 110.128 42.76C110.395 43.0587 110.672 43.208 110.96 43.208C111.376 43.208 111.776 42.8293 112.16 42.072C112.544 41.3147 112.891 40.2267 113.2 38.808C113.52 37.3787 113.787 35.6667 114 33.672L115.856 33.864C115.621 35.848 115.355 37.5493 115.056 38.968C114.757 40.3867 114.416 41.5493 114.032 42.456C113.648 43.3627 113.211 44.0347 112.72 44.472C112.229 44.8987 111.675 45.112 111.056 45.112C110.544 45.112 110.069 44.984 109.632 44.728C109.195 44.472 108.816 44.1147 108.496 43.656C108.176 43.1973 107.925 42.664 107.744 42.056C107.563 41.4373 107.472 40.776 107.472 40.072C107.472 39.0693 107.659 38.1467 108.032 37.304C108.405 36.4507 108.928 35.7147 109.6 35.096C110.272 34.4773 111.067 33.9973 111.984 33.656C112.912 33.304 113.925 33.128 115.024 33.128C116.315 33.128 117.456 33.3733 118.448 33.864C119.451 34.3547 120.235 35.0533 120.8 35.96C121.365 36.8667 121.648 37.944 121.648 39.192C121.648 40.0347 121.52 40.8187 121.264 41.544C121.019 42.2693 120.667 42.9147 120.208 43.48C119.749 44.0347 119.2 44.488 118.56 44.84C117.92 45.192 117.211 45.416 116.432 45.512L115.92 43.832ZM124.24 46.392V39.304H132.544V46.392H130.768V45.768H126.048V44.408H127.584V40.776H129.248V44.408H130.768V43.192H126.048V41.96H130.768V40.776H126.048V46.392H124.24ZM124.752 38.584V34.664H132.032V38.584H126.576V37.336H130.24V36.008H126.576V38.584H124.752ZM124.16 33.928V32.392H132.704V33.928H124.16ZM133.296 42.984V32.888H135.072V42.984H133.296ZM136.016 46.328C135.845 46.328 135.595 46.3227 135.264 46.312C134.933 46.3013 134.485 46.28 133.92 46.248L133.84 44.552C134.341 44.5733 134.741 44.5893 135.04 44.6C135.339 44.6107 135.557 44.616 135.696 44.616C135.899 44.616 136.043 44.6053 136.128 44.584C136.224 44.552 136.283 44.4827 136.304 44.376C136.336 44.2587 136.352 44.0773 136.352 43.832V32.248H138.176V43.864C138.176 44.4293 138.149 44.872 138.096 45.192C138.053 45.5227 137.963 45.768 137.824 45.928C137.685 46.0987 137.472 46.2053 137.184 46.248C136.896 46.3013 136.507 46.328 136.016 46.328ZM146.864 46.392V42.216H140.848V40.68H146.864V39.912H148.816V40.68H154.832V42.216H148.816V46.392H146.864ZM141.12 46.184L140.304 44.712C141.691 44.296 142.912 43.7787 143.968 43.16C145.035 42.5413 145.915 41.8747 146.608 41.16L147.648 42.168C146.848 42.9893 145.893 43.7627 144.784 44.488C143.685 45.2027 142.464 45.768 141.12 46.184ZM143.328 40.552C143.136 40.1147 142.928 39.6933 142.704 39.288C142.491 38.8827 142.272 38.4987 142.048 38.136L143.712 37.48C143.925 37.8427 144.144 38.232 144.368 38.648C144.592 39.0533 144.8 39.4693 144.992 39.896L143.328 40.552ZM154.56 46.184C153.216 45.768 151.989 45.2027 150.88 44.488C149.781 43.7627 148.832 42.9893 148.032 42.168L149.072 41.16C149.765 41.8747 150.64 42.5413 151.696 43.16C152.763 43.7787 153.989 44.296 155.376 44.712L154.56 46.184ZM147.328 39.816C147.157 39.4427 146.981 39.08 146.8 38.728C146.619 38.3653 146.443 38.0347 146.272 37.736L147.936 37.144C148.128 37.4533 148.315 37.7893 148.496 38.152C148.677 38.5147 148.848 38.8773 149.008 39.24L147.328 39.816ZM141.712 37.416L141.568 35.896C142.88 35.896 144.144 35.88 145.36 35.848C146.587 35.8053 147.733 35.7467 148.8 35.672C149.877 35.5973 150.848 35.512 151.712 35.416C152.587 35.32 153.323 35.2133 153.92 35.096L154.32 36.568C153.424 36.7387 152.336 36.888 151.056 37.016C149.776 37.144 148.347 37.2453 146.768 37.32C145.189 37.384 143.504 37.416 141.712 37.416ZM152.352 40.632L150.688 39.944C150.997 39.4427 151.28 38.9307 151.536 38.408C151.803 37.8853 152.032 37.3787 152.224 36.888L153.936 37.544C153.733 38.0453 153.499 38.5573 153.232 39.08C152.965 39.592 152.672 40.1093 152.352 40.632ZM144.064 35.464V34.472H140.688V32.936H144.064V31.784H145.936V32.936H149.744V31.784H151.616V32.936H154.992V34.472H151.616V35.24H149.744V34.472H145.936V35.464H144.064ZM165.152 45.592C164 45.592 163.099 45.336 162.448 44.824C161.808 44.3013 161.488 43.576 161.488 42.648C161.488 41.6987 161.808 40.968 162.448 40.456C163.088 39.944 163.989 39.688 165.152 39.688C165.653 39.688 166.139 39.752 166.608 39.88C167.077 39.9973 167.563 40.2107 168.064 40.52C168.565 40.8293 169.125 41.256 169.744 41.8C170.373 42.3333 171.109 43.016 171.952 43.848L170.768 45.112C170.011 44.344 169.355 43.7147 168.8 43.224C168.256 42.7227 167.776 42.3333 167.36 42.056C166.944 41.7787 166.549 41.5867 166.176 41.48C165.813 41.3627 165.44 41.304 165.056 41.304C163.819 41.304 163.2 41.752 163.2 42.648C163.2 43.5333 163.819 43.976 165.056 43.976C165.728 43.976 166.203 43.8373 166.48 43.56C166.768 43.272 166.912 42.8027 166.912 42.152V32.264H168.768V42.232C168.768 43.352 168.459 44.1947 167.84 44.76C167.232 45.3147 166.336 45.592 165.152 45.592ZM161.536 36.392V34.776H171.712V36.392H161.536ZM158.576 45.88C158.299 44.7813 158.096 43.6987 157.968 42.632C157.84 41.5653 157.776 40.4347 157.776 39.24C157.776 38.056 157.84 36.936 157.968 35.88C158.096 34.8133 158.293 33.7307 158.56 32.632L160.448 32.872C160.192 33.9067 160 34.9467 159.872 35.992C159.755 37.0267 159.696 38.1093 159.696 39.24C159.696 40.3707 159.755 41.4587 159.872 42.504C160 43.5493 160.192 44.5787 160.448 45.592L158.576 45.88ZM185.264 45.992C185.029 45.992 184.699 45.9707 184.272 45.928C183.845 45.896 183.333 45.848 182.736 45.784L182.704 44.056C183.184 44.12 183.611 44.1733 183.984 44.216C184.368 44.248 184.667 44.264 184.88 44.264C185.051 44.264 185.2 44.2373 185.328 44.184C185.467 44.12 185.589 44.0027 185.696 43.832C185.803 43.6507 185.893 43.3947 185.968 43.064C186.053 42.7227 186.117 42.2693 186.16 41.704C186.213 41.1387 186.251 40.44 186.272 39.608C186.293 38.7653 186.304 37.7627 186.304 36.6V34.504H179.376V32.856H188.192V35.384C188.192 37.0053 188.171 38.3973 188.128 39.56C188.096 40.712 188.032 41.6773 187.936 42.456C187.851 43.2347 187.733 43.864 187.584 44.344C187.445 44.8133 187.264 45.1653 187.04 45.4C186.827 45.6453 186.571 45.8053 186.272 45.88C185.984 45.9547 185.648 45.992 185.264 45.992ZM175.504 46.472V39.432H177.312V46.472H175.504ZM173.888 42.76L173.344 40.824C174.325 40.1627 175.147 39.4 175.808 38.536C176.48 37.672 176.992 36.7173 177.344 35.672L179.088 36.072C178.779 36.9573 178.405 37.784 177.968 38.552C177.541 39.3093 177.04 40.008 176.464 40.648V40.344C176.144 40.7813 175.755 41.2133 175.296 41.64C174.837 42.0667 174.368 42.44 173.888 42.76ZM178.848 42.616C178.539 42.168 178.155 41.6667 177.696 41.112C177.248 40.5573 176.821 40.04 176.416 39.56L177.584 38.488C178.021 38.9573 178.464 39.4693 178.912 40.024C179.36 40.568 179.749 41.064 180.08 41.512L178.848 42.616ZM178.848 41.112L177.696 40.088C178.059 39.6933 178.405 39.2507 178.736 38.76C179.077 38.2587 179.381 37.7413 179.648 37.208L180.944 37.96C180.645 38.5253 180.32 39.08 179.968 39.624C179.616 40.168 179.243 40.664 178.848 41.112ZM179.392 46.312L177.936 45.144C178.736 44.5467 179.413 43.9227 179.968 43.272C180.523 42.6213 180.971 41.864 181.312 41C181.664 40.136 181.925 39.1067 182.096 37.912C182.267 36.7173 182.363 35.288 182.384 33.624H184.256C184.224 35.384 184.112 36.9093 183.92 38.2C183.728 39.4907 183.44 40.6213 183.056 41.592C182.672 42.552 182.176 43.4107 181.568 44.168C180.971 44.9253 180.245 45.64 179.392 46.312ZM173.744 36.072V34.392H175.504V32.008H177.312V34.392H179.088V36.072H173.744ZM199.136 44.104C199.947 43.9973 200.645 43.768 201.232 43.416C201.819 43.0533 202.267 42.5893 202.576 42.024C202.896 41.448 203.056 40.792 203.056 40.056C203.056 39.224 202.853 38.5093 202.448 37.912C202.053 37.3147 201.483 36.856 200.736 36.536C199.989 36.2053 199.104 36.04 198.08 36.04C196.939 36.04 195.941 36.2427 195.088 36.648C194.245 37.0533 193.589 37.6293 193.12 38.376C192.661 39.112 192.432 39.992 192.432 41.016C192.432 41.5067 192.491 41.9333 192.608 42.296C192.725 42.648 192.891 42.92 193.104 43.112C193.317 43.304 193.573 43.4 193.872 43.4C194.288 43.4 194.725 43.2133 195.184 42.84C195.653 42.4667 196.128 41.9387 196.608 41.256C197.099 40.5627 197.579 39.7413 198.048 38.792C198.528 37.8427 198.976 36.792 199.392 35.64C199.819 34.4773 200.203 33.2453 200.544 31.944L202.32 32.312C201.808 34.2747 201.221 36.0507 200.56 37.64C199.899 39.2187 199.189 40.568 198.432 41.688C197.675 42.7973 196.891 43.656 196.08 44.264C195.269 44.8613 194.459 45.16 193.648 45.16C193.051 45.16 192.528 44.9947 192.08 44.664C191.632 44.3333 191.285 43.864 191.04 43.256C190.795 42.648 190.672 41.9333 190.672 41.112C190.672 40.088 190.848 39.1547 191.2 38.312C191.552 37.4693 192.053 36.744 192.704 36.136C193.365 35.528 194.149 35.064 195.056 34.744C195.963 34.4133 196.971 34.248 198.08 34.248C199.445 34.248 200.635 34.488 201.648 34.968C202.672 35.4373 203.461 36.1093 204.016 36.984C204.571 37.8587 204.848 38.8827 204.848 40.056C204.848 41.0907 204.629 42.0187 204.192 42.84C203.765 43.6507 203.152 44.3173 202.352 44.84C201.563 45.352 200.635 45.6773 199.568 45.816L199.136 44.104ZM195.76 42.872C195.365 41.8373 194.992 40.7973 194.64 39.752C194.288 38.696 193.957 37.608 193.648 36.488C193.349 35.3573 193.051 34.1787 192.752 32.952L194.56 32.552C194.837 33.7573 195.125 34.9147 195.424 36.024C195.723 37.1227 196.037 38.1893 196.368 39.224C196.709 40.2587 197.072 41.288 197.456 42.312L195.76 42.872ZM217.472 45.592C216.181 45.592 215.056 45.3733 214.096 44.936C213.147 44.4987 212.411 43.88 211.888 43.08C211.365 42.2693 211.104 41.32 211.104 40.232C211.104 39.3787 211.259 38.5947 211.568 37.88C211.888 37.1547 212.336 36.52 212.912 35.976C213.499 35.4213 214.192 35 214.992 34.712L215.152 35.208L207.536 35.384V33.672L221.024 33.352V35.064L218.992 35.112C218.16 35.1333 217.387 35.2613 216.672 35.496C215.968 35.7307 215.349 36.0667 214.816 36.504C214.283 36.9413 213.867 37.4587 213.568 38.056C213.28 38.6427 213.136 39.304 213.136 40.04C213.136 40.8293 213.312 41.512 213.664 42.088C214.016 42.6533 214.512 43.0853 215.152 43.384C215.803 43.6827 216.581 43.832 217.488 43.832C217.787 43.832 218.128 43.816 218.512 43.784C218.907 43.752 219.248 43.7093 219.536 43.656L219.744 45.416C219.403 45.4693 219.024 45.512 218.608 45.544C218.203 45.576 217.824 45.592 217.472 45.592ZM226.672 46.392C226.117 46.392 225.627 46.2747 225.2 46.04C224.784 45.8053 224.459 45.48 224.224 45.064C224 44.648 223.888 44.1573 223.888 43.592C223.888 43.0373 224 42.552 224.224 42.136C224.459 41.7093 224.784 41.384 225.2 41.16C225.627 40.9253 226.117 40.808 226.672 40.808C227.237 40.808 227.728 40.9253 228.144 41.16C228.56 41.384 228.885 41.7093 229.12 42.136C229.355 42.552 229.472 43.0373 229.472 43.592C229.472 44.1573 229.355 44.648 229.12 45.064C228.885 45.48 228.56 45.8053 228.144 46.04C227.728 46.2747 227.237 46.392 226.672 46.392ZM226.688 44.888C227.072 44.888 227.381 44.7707 227.616 44.536C227.851 44.3013 227.968 43.9867 227.968 43.592C227.968 43.208 227.851 42.8987 227.616 42.664C227.381 42.4293 227.072 42.312 226.688 42.312C226.293 42.312 225.979 42.4293 225.744 42.664C225.509 42.8987 225.392 43.208 225.392 43.592C225.392 43.9867 225.509 44.3013 225.744 44.536C225.979 44.7707 226.293 44.888 226.688 44.888ZM48.16 74.768C46.88 74.768 45.7653 74.6187 44.816 74.32C43.8667 74.032 43.1307 73.6213 42.608 73.088C42.096 72.5547 41.84 71.9253 41.84 71.2C41.84 70.6027 42.0267 69.9627 42.4 69.28C42.7733 68.5973 43.3493 67.8347 44.128 66.992L46.528 67.92C45.8987 68.56 45.4187 69.1413 45.088 69.664C44.7573 70.176 44.592 70.5973 44.592 70.928C44.592 71.2373 44.7307 71.5093 45.008 71.744C45.296 71.968 45.7067 72.144 46.24 72.272C46.784 72.3893 47.424 72.448 48.16 72.448C48.672 72.448 49.2373 72.416 49.856 72.352C50.4853 72.288 51.1147 72.1973 51.744 72.08C52.384 71.9627 52.9653 71.8293 53.488 71.68L53.984 74C53.4613 74.1387 52.8587 74.2667 52.176 74.384C51.4933 74.512 50.8 74.608 50.096 74.672C49.4027 74.736 48.7573 74.768 48.16 74.768ZM42.64 64.512V62.192H53.52V64.512H42.64ZM59.424 75.152L57.168 74.32L62.256 61.152L64.656 61.84L62.016 68.528L61.2 68.032C61.7973 67.616 62.3627 67.3013 62.896 67.088C63.44 66.864 63.9467 66.752 64.416 66.752C64.8 66.752 65.136 66.8267 65.424 66.976C65.712 67.1253 65.9627 67.3493 66.176 67.648C66.3893 67.9467 66.576 68.3307 66.736 68.8C66.9067 69.2587 67.0613 69.808 67.2 70.448C67.2853 70.8427 67.3707 71.1733 67.456 71.44C67.552 71.7067 67.6587 71.904 67.776 72.032C67.904 72.1493 68.0587 72.208 68.24 72.208C68.592 72.208 68.9067 71.9413 69.184 71.408C69.4613 70.8747 69.744 69.9947 70.032 68.768L72.288 69.52C72.032 70.7467 71.7173 71.744 71.344 72.512C70.9813 73.2693 70.5333 73.8293 70 74.192C69.4773 74.5547 68.848 74.736 68.112 74.736C67.6427 74.736 67.232 74.6613 66.88 74.512C66.528 74.3733 66.2187 74.1547 65.952 73.856C65.696 73.5573 65.472 73.1787 65.28 72.72C65.088 72.2613 64.9173 71.728 64.768 71.12C64.672 70.6933 64.5653 70.3467 64.448 70.08C64.3413 69.8027 64.208 69.6 64.048 69.472C63.8987 69.344 63.712 69.28 63.488 69.28C63.3387 69.28 63.1467 69.3173 62.912 69.392C62.6773 69.456 62.432 69.584 62.176 69.776C61.92 69.9573 61.664 70.224 61.408 70.576C61.152 70.928 60.912 71.3867 60.688 71.952L59.424 75.152ZM81.568 75.024C80.3307 75.024 79.36 74.7253 78.656 74.128C77.9627 73.5413 77.616 72.7253 77.616 71.68C77.616 70.624 77.968 69.8027 78.672 69.216C79.3867 68.6293 80.3733 68.336 81.632 68.336C82.1333 68.336 82.6453 68.4267 83.168 68.608C83.7013 68.7787 84.2507 69.0453 84.816 69.408C85.392 69.76 85.9893 70.208 86.608 70.752C87.2267 71.296 87.872 71.9413 88.544 72.688L86.992 74.4C86.1387 73.5253 85.4347 72.8213 84.88 72.288C84.3253 71.7547 83.8613 71.3493 83.488 71.072C83.1253 70.7947 82.8 70.6133 82.512 70.528C82.2347 70.432 81.9413 70.384 81.632 70.384C81.088 70.384 80.688 70.48 80.432 70.672C80.1867 70.864 80.064 71.1787 80.064 71.616C80.064 72.0533 80.1867 72.3787 80.432 72.592C80.688 72.8053 81.0667 72.912 81.568 72.912C82.1227 72.912 82.5333 72.7947 82.8 72.56C83.0667 72.3253 83.2 71.9787 83.2 71.52V63.072C84.1707 63.072 85.0827 63.088 85.936 63.12C86.8 63.1413 87.6427 63.1787 88.464 63.232L88.32 65.488C87.6053 65.4347 86.8427 65.3973 86.032 65.376C85.232 65.344 84.4107 65.328 83.568 65.328L85.728 63.696V71.248C85.728 72.5173 85.3813 73.4613 84.688 74.08C83.9947 74.7093 82.9547 75.024 81.568 75.024ZM73.904 72.48C74.3307 71.2427 74.7253 70.0053 75.088 68.768C75.4507 67.52 75.7867 66.2453 76.096 64.944C76.416 63.6427 76.7093 62.2987 76.976 60.912L79.424 61.12C79.168 62.5493 78.88 63.9467 78.56 65.312C78.24 66.6773 77.8933 68.016 77.52 69.328C77.1467 70.6293 76.736 71.9093 76.288 73.168L73.904 72.48ZM73.808 65.328V63.072H82.032V65.328H73.808ZM100.592 74.352C99.632 74.352 98.7733 74.2133 98.016 73.936C97.2693 73.648 96.6827 73.2533 96.256 72.752C95.84 72.2507 95.632 71.68 95.632 71.04C95.632 69.9093 96.3147 68.7413 97.68 67.536L99.568 68.912C99.0667 69.36 98.7093 69.7333 98.496 70.032C98.2827 70.32 98.176 70.5867 98.176 70.832C98.176 71.088 98.272 71.3067 98.464 71.488C98.656 71.6587 98.9333 71.792 99.296 71.888C99.6587 71.984 100.091 72.032 100.592 72.032C101.083 72.032 101.664 71.9947 102.336 71.92C103.008 71.8347 103.701 71.728 104.416 71.6L104.768 73.872C104.043 74.0213 103.323 74.1387 102.608 74.224C101.893 74.3093 101.221 74.352 100.592 74.352ZM96.4 64.912V62.592H104.624V64.912H96.4ZM92.256 74.928C91.9893 73.84 91.792 72.752 91.664 71.664C91.536 70.576 91.472 69.4347 91.472 68.24C91.472 67.0453 91.536 65.9093 91.664 64.832C91.792 63.744 91.9893 62.656 92.256 61.568L94.848 61.856C94.6027 62.8693 94.416 63.9093 94.288 64.976C94.1707 66.032 94.112 67.12 94.112 68.24C94.112 69.36 94.1707 70.4533 94.288 71.52C94.416 72.576 94.6027 73.6107 94.848 74.624L92.256 74.928ZM108.512 72.224C110.24 72.1707 111.733 71.9733 112.992 71.632C114.261 71.28 115.328 70.7627 116.192 70.08C117.056 69.3973 117.739 68.528 118.24 67.472C118.752 66.416 119.104 65.1573 119.296 63.696L121.808 64.096C121.488 66.4427 120.821 68.384 119.808 69.92C118.805 71.4453 117.408 72.5973 115.616 73.376C113.824 74.144 111.589 74.5813 108.912 74.688L108.512 72.224ZM113.472 68.624C112.459 68.3787 111.509 68.176 110.624 68.016C109.749 67.856 108.832 67.7173 107.872 67.6L108.4 65.344C109.371 65.472 110.293 65.616 111.168 65.776C112.053 65.9253 113.003 66.1227 114.016 66.368L113.472 68.624ZM114.368 64.784C113.333 64.5387 112.368 64.336 111.472 64.176C110.576 64.016 109.632 63.8773 108.64 63.76L109.184 61.504C110.176 61.632 111.12 61.776 112.016 61.936C112.923 62.0853 113.888 62.2827 114.912 62.528L114.368 64.784ZM125.248 72.176C126.827 72.0267 128.213 71.7547 129.408 71.36C130.603 70.9547 131.627 70.4107 132.48 69.728C133.333 69.0347 134.032 68.192 134.576 67.2C135.131 66.1973 135.552 65.0187 135.84 63.664L138.288 64.208C137.904 66.3733 137.189 68.1973 136.144 69.68C135.099 71.1627 133.707 72.32 131.968 73.152C130.24 73.9733 128.139 74.4907 125.664 74.704L125.248 72.176ZM130.144 66.576C129.259 66.0853 128.352 65.6373 127.424 65.232C126.507 64.816 125.584 64.4373 124.656 64.096L125.872 61.776C127.76 62.4373 129.616 63.2693 131.44 64.272L130.144 66.576ZM141.744 72.4C143.867 72.3147 145.621 71.9413 147.008 71.28C148.395 70.608 149.429 69.6373 150.112 68.368C150.795 67.088 151.136 65.4933 151.136 63.584L152.432 64.944H141.008V62.496H152.512V63.6H153.792C153.792 65.968 153.349 67.9733 152.464 69.616C151.589 71.248 150.293 72.5013 148.576 73.376C146.859 74.2507 144.736 74.72 142.208 74.784L141.744 72.4ZM153.408 65.008C152.981 65.008 152.587 64.9067 152.224 64.704C151.872 64.4907 151.589 64.208 151.376 63.856C151.173 63.4933 151.072 63.0987 151.072 62.672C151.072 62.2347 151.173 61.84 151.376 61.488C151.589 61.1253 151.872 60.8427 152.224 60.64C152.587 60.4267 152.981 60.32 153.408 60.32C153.845 60.32 154.24 60.4267 154.592 60.64C154.955 60.8427 155.237 61.1253 155.44 61.488C155.653 61.84 155.76 62.2347 155.76 62.672C155.76 63.0987 155.653 63.4933 155.44 63.856C155.237 64.208 154.955 64.4907 154.592 64.704C154.24 64.9067 153.845 65.008 153.408 65.008ZM153.408 63.44C153.632 63.44 153.819 63.3653 153.968 63.216C154.117 63.056 154.192 62.8747 154.192 62.672C154.192 62.448 154.117 62.2613 153.968 62.112C153.819 61.9627 153.632 61.888 153.408 61.888C153.195 61.888 153.013 61.9627 152.864 62.112C152.715 62.2613 152.64 62.448 152.64 62.672C152.64 62.8853 152.715 63.0667 152.864 63.216C153.024 63.3653 153.205 63.44 153.408 63.44ZM164.144 74.656V61.568H166.8V73.504L165.248 72.144C166.187 72.144 166.976 71.9627 167.616 71.6C168.256 71.2267 168.757 70.6613 169.12 69.904C169.493 69.136 169.739 68.16 169.856 66.976L172.304 67.312C172.165 68.8907 171.797 70.2293 171.2 71.328C170.603 72.4267 169.803 73.2587 168.8 73.824C167.808 74.3787 166.624 74.656 165.248 74.656H164.144ZM156.656 72.704C157.243 72.416 157.723 72.1173 158.096 71.808C158.469 71.488 158.757 71.104 158.96 70.656C159.163 70.208 159.301 69.6533 159.376 68.992C159.461 68.32 159.504 67.488 159.504 66.496V61.568H162.096V66.688C162.096 67.8827 162.021 68.9227 161.872 69.808C161.733 70.6827 161.504 71.44 161.184 72.08C160.875 72.7093 160.459 73.2533 159.936 73.712C159.413 74.16 158.773 74.5493 158.016 74.88L156.656 72.704ZM181.408 75.024C180.171 75.024 179.2 74.7253 178.496 74.128C177.803 73.5413 177.456 72.7253 177.456 71.68C177.456 70.624 177.808 69.8027 178.512 69.216C179.227 68.6293 180.213 68.336 181.472 68.336C181.973 68.336 182.485 68.4267 183.008 68.608C183.541 68.7787 184.091 69.0453 184.656 69.408C185.232 69.76 185.829 70.208 186.448 70.752C187.067 71.296 187.712 71.9413 188.384 72.688L186.832 74.4C185.979 73.5253 185.275 72.8213 184.72 72.288C184.165 71.7547 183.701 71.3493 183.328 71.072C182.965 70.7947 182.64 70.6133 182.352 70.528C182.075 70.432 181.781 70.384 181.472 70.384C180.928 70.384 180.528 70.48 180.272 70.672C180.027 70.864 179.904 71.1787 179.904 71.616C179.904 72.0533 180.027 72.3787 180.272 72.592C180.528 72.8053 180.907 72.912 181.408 72.912C181.963 72.912 182.373 72.7947 182.64 72.56C182.907 72.3253 183.04 71.9787 183.04 71.52V63.072C184.011 63.072 184.923 63.088 185.776 63.12C186.64 63.1413 187.483 63.1787 188.304 63.232L188.16 65.488C187.445 65.4347 186.683 65.3973 185.872 65.376C185.072 65.344 184.251 65.328 183.408 65.328L185.568 63.696V71.248C185.568 72.5173 185.221 73.4613 184.528 74.08C183.835 74.7093 182.795 75.024 181.408 75.024ZM173.744 72.48C174.171 71.2427 174.565 70.0053 174.928 68.768C175.291 67.52 175.627 66.2453 175.936 64.944C176.256 63.6427 176.549 62.2987 176.816 60.912L179.264 61.12C179.008 62.5493 178.72 63.9467 178.4 65.312C178.08 66.6773 177.733 68.016 177.36 69.328C176.987 70.6293 176.576 71.9093 176.128 73.168L173.744 72.48ZM173.648 65.328V63.072H181.872V65.328H173.648ZM198.928 72.432C199.461 72.3573 199.947 72.2027 200.384 71.968C200.821 71.7333 201.195 71.4347 201.504 71.072C201.824 70.6987 202.069 70.272 202.24 69.792C202.411 69.3013 202.496 68.7787 202.496 68.224C202.496 67.4133 202.309 66.7147 201.936 66.128C201.573 65.5307 201.061 65.072 200.4 64.752C199.749 64.432 199.003 64.272 198.16 64.272C197.435 64.272 196.752 64.4 196.112 64.656C195.483 64.9013 194.928 65.2427 194.448 65.68C193.968 66.1173 193.589 66.624 193.312 67.2C193.035 67.776 192.896 68.3947 192.896 69.056C192.896 69.4827 192.965 69.904 193.104 70.32C193.243 70.7253 193.419 71.0667 193.632 71.344C193.856 71.6107 194.08 71.744 194.304 71.744C194.635 71.744 194.96 71.3867 195.28 70.672C195.611 69.9467 195.915 68.9067 196.192 67.552C196.48 66.1867 196.736 64.5547 196.96 62.656L199.488 62.928C199.221 65.0187 198.928 66.7893 198.608 68.24C198.299 69.6907 197.947 70.864 197.552 71.76C197.157 72.656 196.704 73.312 196.192 73.728C195.68 74.1333 195.093 74.336 194.432 74.336C193.867 74.336 193.344 74.208 192.864 73.952C192.384 73.6853 191.968 73.3173 191.616 72.848C191.264 72.368 190.992 71.808 190.8 71.168C190.608 70.5173 190.512 69.8133 190.512 69.056C190.512 68.0213 190.699 67.072 191.072 66.208C191.445 65.3333 191.973 64.5813 192.656 63.952C193.339 63.3227 194.149 62.832 195.088 62.48C196.027 62.128 197.056 61.952 198.176 61.952C199.499 61.952 200.672 62.2027 201.696 62.704C202.731 63.1947 203.541 63.9093 204.128 64.848C204.715 65.776 205.008 66.9013 205.008 68.224C205.008 69.088 204.88 69.8933 204.624 70.64C204.379 71.376 204.021 72.032 203.552 72.608C203.083 73.1733 202.517 73.6373 201.856 74C201.205 74.352 200.475 74.5813 199.664 74.688L198.928 72.432ZM217.072 74.352C216.112 74.352 215.253 74.2133 214.496 73.936C213.749 73.648 213.163 73.2533 212.736 72.752C212.32 72.2507 212.112 71.68 212.112 71.04C212.112 69.9093 212.795 68.7413 214.16 67.536L216.048 68.912C215.547 69.36 215.189 69.7333 214.976 70.032C214.763 70.32 214.656 70.5867 214.656 70.832C214.656 71.088 214.752 71.3067 214.944 71.488C215.136 71.6587 215.413 71.792 215.776 71.888C216.139 71.984 216.571 72.032 217.072 72.032C217.563 72.032 218.144 71.9947 218.816 71.92C219.488 71.8347 220.181 71.728 220.896 71.6L221.248 73.872C220.523 74.0213 219.803 74.1387 219.088 74.224C218.373 74.3093 217.701 74.352 217.072 74.352ZM212.88 64.912V62.592H221.104V64.912H212.88ZM208.736 74.928C208.469 73.84 208.272 72.752 208.144 71.664C208.016 70.576 207.952 69.4347 207.952 68.24C207.952 67.0453 208.016 65.9093 208.144 64.832C208.272 63.744 208.469 62.656 208.736 61.568L211.328 61.856C211.083 62.8693 210.896 63.9093 210.768 64.976C210.651 66.032 210.592 67.12 210.592 68.24C210.592 69.36 210.651 70.4533 210.768 71.52C210.896 72.576 211.083 73.6107 211.328 74.624L208.736 74.928ZM224.624 75.488L223.744 73.328C224.811 73.2 225.723 73.0347 226.48 72.832C227.237 72.6187 227.856 72.384 228.336 72.128C228.816 71.8613 229.168 71.5733 229.392 71.264C229.616 70.9547 229.728 70.624 229.728 70.272V68.944H223.68V67.168H229.728V66.464H224.96V64.8H229.728V64.112H224.16V62.096H237.92V64.112H232.352V64.8H237.12V66.464H232.352V67.168H238.4V68.944H232.352V70.416C232.352 70.896 232.165 71.3973 231.792 71.92C231.429 72.4427 230.907 72.944 230.224 73.424C229.541 73.8933 228.725 74.3093 227.776 74.672C226.837 75.0453 225.787 75.3173 224.624 75.488ZM223.76 71.632V69.664H238.32V71.632H223.76ZM237.456 75.488C236.357 75.3173 235.355 75.0453 234.448 74.672C233.541 74.3093 232.763 73.8933 232.112 73.424C231.461 72.9547 230.955 72.4587 230.592 71.936C230.24 71.4133 230.064 70.9067 230.064 70.416L232.352 70.272C232.352 70.6133 232.459 70.944 232.672 71.264C232.896 71.5733 233.243 71.8613 233.712 72.128C234.192 72.384 234.811 72.6187 235.568 72.832C236.336 73.0347 237.259 73.2 238.336 73.328L237.456 75.488ZM227.92 63.616C227.717 63.168 227.499 62.7253 227.264 62.288C227.04 61.84 226.811 61.4187 226.576 61.024L228.976 60.656C229.211 61.0507 229.44 61.472 229.664 61.92C229.899 62.3573 230.117 62.8 230.32 63.248L227.92 63.616ZM234.224 63.552L231.76 63.248C232.027 62.8213 232.272 62.3893 232.496 61.952C232.731 61.504 232.933 61.0773 233.104 60.672L235.568 60.96C235.387 61.376 235.179 61.808 234.944 62.256C234.72 62.6933 234.48 63.1253 234.224 63.552ZM49.392 104.712V97.736H45.984V95.656H49.392V93.816H46.288V91.736H49.392V89.768H51.872V91.736H55.2V93.816H51.872V95.656H55.44V97.736H51.872V104.712H49.392ZM40.896 103.912V90.632H46.288V103.048H43.248V100.968H44.144V92.776H43.248V103.912H40.896ZM46.816 104.04L45.072 102.264C45.9573 101.272 46.72 100.28 47.36 99.288C48 98.296 48.544 97.2773 48.992 96.232L50.672 96.648C50.2453 98.056 49.7227 99.352 49.104 100.536C48.4853 101.709 47.7227 102.877 46.816 104.04ZM54.352 104.04C53.4667 102.877 52.7253 101.709 52.128 100.536C51.5307 99.352 51.024 98.056 50.608 96.648L52.352 96.232C52.736 97.1813 53.2053 98.1093 53.76 99.016C54.3253 99.912 54.992 100.813 55.76 101.72L54.352 104.04ZM64.336 103.912C63.0453 103.912 61.9947 103.715 61.184 103.32C60.3733 102.936 59.776 102.333 59.392 101.512C59.0187 100.68 58.832 99.6133 58.832 98.312V90.68H61.488V98.312C61.488 99.432 61.7067 100.237 62.144 100.728C62.5813 101.208 63.312 101.448 64.336 101.448C65.104 101.448 65.7813 101.304 66.368 101.016C66.9547 100.728 67.4933 100.253 67.984 99.592C68.4853 98.9307 68.9813 98.0347 69.472 96.904L71.808 97.912C71.36 99.0213 70.8907 99.96 70.4 100.728C69.92 101.485 69.3867 102.099 68.8 102.568C68.2133 103.037 67.552 103.379 66.816 103.592C66.0907 103.805 65.264 103.912 64.336 103.912ZM85.056 104.68C84.4267 104.253 83.84 103.859 83.296 103.496C82.7627 103.144 82.2347 102.808 81.712 102.488C81.2 102.157 80.6613 101.821 80.096 101.48C79.5307 101.139 78.9013 100.76 78.208 100.344C77.4827 99.9067 76.896 99.544 76.448 99.256C76.0107 98.968 75.6747 98.7173 75.44 98.504C75.216 98.28 75.0667 98.0613 74.992 97.848C74.9173 97.624 74.88 97.368 74.88 97.08C74.88 96.7813 74.9227 96.52 75.008 96.296C75.0933 96.0613 75.2533 95.8373 75.488 95.624C75.7227 95.4 76.0587 95.1547 76.496 94.888C76.944 94.6107 77.52 94.28 78.224 93.896C78.9173 93.5227 79.6427 93.1227 80.4 92.696C81.1573 92.2587 81.904 91.8213 82.64 91.384C83.376 90.936 84.0427 90.5147 84.64 90.12L86.048 92.232C85.6853 92.456 85.2693 92.7067 84.8 92.984C84.3307 93.2507 83.84 93.528 83.328 93.816C82.8267 94.104 82.3307 94.3813 81.84 94.648C81.36 94.904 80.928 95.1387 80.544 95.352C80.1707 95.5547 79.872 95.7147 79.648 95.832C79.1787 96.0773 78.8107 96.2747 78.544 96.424C78.288 96.5733 78.112 96.696 78.016 96.792C77.92 96.888 77.872 96.984 77.872 97.08C77.872 97.1867 77.904 97.2827 77.968 97.368C78.032 97.4427 78.1813 97.5493 78.416 97.688C78.6507 97.8267 79.0133 98.04 79.504 98.328C79.7493 98.456 80.08 98.6427 80.496 98.888C80.9227 99.1227 81.3973 99.3947 81.92 99.704C82.4533 100.013 82.992 100.333 83.536 100.664C84.0907 100.995 84.624 101.325 85.136 101.656C85.6587 101.987 86.1227 102.291 86.528 102.568L85.056 104.68ZM98.208 104.024C96.9707 104.024 96 103.725 95.296 103.128C94.6027 102.541 94.256 101.725 94.256 100.68C94.256 99.624 94.608 98.8027 95.312 98.216C96.0267 97.6293 97.0133 97.336 98.272 97.336C98.7733 97.336 99.2853 97.4267 99.808 97.608C100.341 97.7787 100.891 98.0453 101.456 98.408C102.032 98.76 102.629 99.208 103.248 99.752C103.867 100.296 104.512 100.941 105.184 101.688L103.632 103.4C102.779 102.525 102.075 101.821 101.52 101.288C100.965 100.755 100.501 100.349 100.128 100.072C99.7653 99.7947 99.44 99.6133 99.152 99.528C98.8747 99.432 98.5813 99.384 98.272 99.384C97.728 99.384 97.328 99.48 97.072 99.672C96.8267 99.864 96.704 100.179 96.704 100.616C96.704 101.053 96.8267 101.379 97.072 101.592C97.328 101.805 97.7067 101.912 98.208 101.912C98.7627 101.912 99.1733 101.795 99.44 101.56C99.7067 101.325 99.84 100.979 99.84 100.52V92.072C100.811 92.072 101.723 92.088 102.576 92.12C103.44 92.1413 104.283 92.1787 105.104 92.232L104.96 94.488C104.245 94.4347 103.483 94.3973 102.672 94.376C101.872 94.344 101.051 94.328 100.208 94.328L102.368 92.696V100.248C102.368 101.517 102.021 102.461 101.328 103.08C100.635 103.709 99.5947 104.024 98.208 104.024ZM90.544 101.48C90.9707 100.243 91.3653 99.0053 91.728 97.768C92.0907 96.52 92.4267 95.2453 92.736 93.944C93.056 92.6427 93.3493 91.2987 93.616 89.912L96.064 90.12C95.808 91.5493 95.52 92.9467 95.2 94.312C94.88 95.6773 94.5333 97.016 94.16 98.328C93.7867 99.6293 93.376 100.909 92.928 102.168L90.544 101.48ZM90.448 94.328V92.072H98.672V94.328H90.448ZM114.24 104.168C112.619 104.168 111.355 103.896 110.448 103.352C109.552 102.808 109.104 102.051 109.104 101.08C109.104 100.248 109.451 99.6027 110.144 99.144C110.848 98.6747 111.808 98.44 113.024 98.44C114.123 98.44 114.944 98.6427 115.488 99.048C116.032 99.4427 116.304 100.04 116.304 100.84C116.304 101.128 116.272 101.432 116.208 101.752C116.144 102.072 116.053 102.381 115.936 102.68L113.744 102.456C113.861 102.157 113.952 101.896 114.016 101.672C114.08 101.437 114.112 101.245 114.112 101.096C114.112 100.552 113.691 100.28 112.848 100.28C112.411 100.28 112.075 100.349 111.84 100.488C111.605 100.616 111.488 100.808 111.488 101.064C111.488 101.427 111.691 101.704 112.096 101.896C112.501 102.088 113.104 102.184 113.904 102.184C115.483 102.184 116.635 101.965 117.36 101.528C118.096 101.091 118.464 100.413 118.464 99.496C118.464 98.6853 118.165 98.0987 117.568 97.736C116.981 97.3627 116.016 97.176 114.672 97.176C113.904 97.176 113.232 97.24 112.656 97.368C112.08 97.496 111.531 97.6933 111.008 97.96L109.024 99.032L108 97.048L116.32 92.792V93.128H108.96V90.952H120.256V93.128L112.048 97.416L110.72 96.248C111.083 96.1307 111.499 96.0187 111.968 95.912C112.437 95.8053 112.923 95.7093 113.424 95.624C113.925 95.5387 114.411 95.4747 114.88 95.432C115.349 95.3787 115.765 95.352 116.128 95.352C117.728 95.352 118.96 95.6987 119.824 96.392C120.688 97.0747 121.12 98.056 121.12 99.336C121.12 100.883 120.523 102.077 119.328 102.92C118.133 103.752 116.437 104.168 114.24 104.168ZM131.216 103.896C130.021 103.896 129.093 103.619 128.432 103.064C127.771 102.52 127.44 101.768 127.44 100.808C127.44 99.816 127.781 99.0533 128.464 98.52C129.147 97.976 130.107 97.704 131.344 97.704C131.867 97.704 132.384 97.784 132.896 97.944C133.408 98.104 133.941 98.3493 134.496 98.68C135.051 99.0107 135.643 99.4373 136.272 99.96C136.912 100.483 137.6 101.117 138.336 101.864L137.184 103.144C136.331 102.312 135.611 101.64 135.024 101.128C134.448 100.605 133.952 100.211 133.536 99.944C133.131 99.6667 132.757 99.48 132.416 99.384C132.085 99.288 131.728 99.24 131.344 99.24C130.619 99.24 130.085 99.3627 129.744 99.608C129.413 99.8533 129.248 100.232 129.248 100.744C129.248 101.267 129.413 101.661 129.744 101.928C130.075 102.184 130.565 102.312 131.216 102.312C131.931 102.312 132.464 102.157 132.816 101.848C133.179 101.539 133.36 101.096 133.36 100.52V92.248C134.299 92.248 135.168 92.264 135.968 92.296C136.779 92.3173 137.573 92.3547 138.352 92.408L138.24 94.088C137.547 94.0347 136.821 93.9973 136.064 93.976C135.317 93.944 134.517 93.928 133.664 93.928L135.216 92.728V100.328C135.216 101.501 134.88 102.392 134.208 103C133.536 103.597 132.539 103.896 131.216 103.896ZM123.936 101.352C124.405 100.083 124.837 98.8347 125.232 97.608C125.627 96.3707 125.995 95.1227 126.336 93.864C126.677 92.5947 126.992 91.2933 127.28 89.96L129.088 90.136C128.8 91.5013 128.48 92.84 128.128 94.152C127.787 95.4533 127.413 96.744 127.008 98.024C126.613 99.304 126.176 100.589 125.696 101.88L123.936 101.352ZM123.808 93.928V92.248H131.872V93.928H123.808ZM142.208 103.944L140.544 103.336L145.728 90.312L147.488 90.824L144.704 97.704L144.112 97.32C144.645 96.8827 145.179 96.5413 145.712 96.296C146.256 96.0507 146.784 95.928 147.296 95.928C147.691 95.928 148.032 96.0133 148.32 96.184C148.608 96.344 148.853 96.584 149.056 96.904C149.259 97.2133 149.429 97.592 149.568 98.04C149.717 98.488 149.851 99 149.968 99.576C150.064 100.024 150.16 100.413 150.256 100.744C150.363 101.075 150.496 101.331 150.656 101.512C150.827 101.693 151.045 101.784 151.312 101.784C151.781 101.784 152.203 101.48 152.576 100.872C152.949 100.253 153.301 99.2773 153.632 97.944L155.312 98.504C155.035 99.688 154.709 100.659 154.336 101.416C153.963 102.163 153.52 102.717 153.008 103.08C152.496 103.453 151.904 103.64 151.232 103.64C150.773 103.64 150.379 103.56 150.048 103.4C149.728 103.24 149.451 103.005 149.216 102.696C148.981 102.387 148.779 102.013 148.608 101.576C148.448 101.128 148.309 100.627 148.192 100.072C148.085 99.6027 147.968 99.1973 147.84 98.856C147.723 98.5147 147.568 98.2533 147.376 98.072C147.195 97.8907 146.949 97.8 146.64 97.8C146.437 97.8 146.203 97.8427 145.936 97.928C145.669 98.0133 145.397 98.1573 145.12 98.36C144.853 98.552 144.592 98.8187 144.336 99.16C144.08 99.4907 143.851 99.9067 143.648 100.408L142.208 103.944ZM167.552 103.592C166.261 103.592 165.136 103.373 164.176 102.936C163.227 102.499 162.491 101.88 161.968 101.08C161.445 100.269 161.184 99.32 161.184 98.232C161.184 97.3787 161.339 96.5947 161.648 95.88C161.968 95.1547 162.416 94.52 162.992 93.976C163.579 93.4213 164.272 93 165.072 92.712L165.232 93.208L157.616 93.384V91.672L171.104 91.352V93.064L169.072 93.112C168.24 93.1333 167.467 93.2613 166.752 93.496C166.048 93.7307 165.429 94.0667 164.896 94.504C164.363 94.9413 163.947 95.4587 163.648 96.056C163.36 96.6427 163.216 97.304 163.216 98.04C163.216 98.8293 163.392 99.512 163.744 100.088C164.096 100.653 164.592 101.085 165.232 101.384C165.883 101.683 166.661 101.832 167.568 101.832C167.867 101.832 168.208 101.816 168.592 101.784C168.987 101.752 169.328 101.709 169.616 101.656L169.824 103.416C169.483 103.469 169.104 103.512 168.688 103.544C168.283 103.576 167.904 103.592 167.552 103.592Z" fill="#282828"/>
<path opacity="0.6" d="M49.016 126.68C49.016 124.09 50.122 121.808 52.432 119.946C52.558 119.834 52.712 119.778 52.852 119.778C53.118 119.778 53.37 120.016 53.37 120.282C53.37 120.464 53.3 120.59 53.16 120.716C51.144 122.438 50.304 124.384 50.304 126.68C50.304 128.976 51.144 130.922 53.16 132.644C53.3 132.77 53.37 132.896 53.37 133.078C53.37 133.344 53.118 133.582 52.852 133.582C52.712 133.582 52.558 133.526 52.432 133.414C50.122 131.552 49.016 129.27 49.016 126.68ZM56.814 130.432H60.734C61.238 130.432 61.476 130.74 61.476 131.16C61.476 131.58 61.238 131.874 60.734 131.874H55.568C55.064 131.874 54.742 131.496 54.742 130.978C54.742 130.572 54.882 130.278 55.176 130.026C56.296 129.032 57.234 128.178 58.326 126.904C59.194 125.882 59.572 125.154 59.572 124.342C59.572 123.292 59.026 122.76 58.144 122.76C57.57 122.76 56.94 123.012 56.268 123.67C56.1 123.824 55.932 123.908 55.736 123.908C55.26 123.908 54.924 123.572 54.924 123.124C54.924 122.9 54.994 122.76 55.204 122.55C55.946 121.822 57.08 121.318 58.13 121.318C60.132 121.318 61.252 122.522 61.252 124.314C61.252 125.602 60.804 126.47 59.544 127.8C58.382 129.018 57.696 129.634 56.814 130.432ZM66.4152 121.318C68.5432 121.318 69.9572 122.83 69.9572 126.708C69.9572 130.586 68.5432 132.098 66.4152 132.098C64.2872 132.098 62.9012 130.586 62.9012 126.708C62.9012 122.83 64.2872 121.318 66.4152 121.318ZM66.4152 122.718C65.2532 122.718 64.5532 123.698 64.5532 126.708C64.5532 129.718 65.2532 130.698 66.4152 130.698C67.5912 130.698 68.3052 129.718 68.3052 126.708C68.3052 123.698 67.5912 122.718 66.4152 122.718ZM73.0903 132.7V126.092C72.8523 126.456 72.6003 126.806 72.3483 127.114C72.1663 127.338 71.9423 127.436 71.7323 127.436C71.3263 127.436 70.9483 127.1 70.9483 126.694C70.9483 126.526 71.0043 126.358 71.1443 126.176C72.2503 124.804 73.2723 122.69 73.8323 120.814C73.9443 120.45 74.2523 120.282 74.5743 120.282C74.9943 120.282 75.4143 120.548 75.4143 120.996C75.4143 121.066 75.4003 121.15 75.3723 121.234C75.0643 122.284 74.5603 123.46 73.9863 124.552C74.3223 124.594 74.6163 124.79 74.6163 125.154V132.7C74.6163 133.078 74.2383 133.274 73.8603 133.274C73.4683 133.274 73.0903 133.078 73.0903 132.7ZM79.2503 124.258L83.1003 123.922H83.1563C83.5343 123.922 83.7303 124.286 83.7303 124.65C83.7303 124.972 83.5763 125.28 83.2263 125.308L79.4323 125.644C79.6283 126.848 79.9223 127.954 80.3283 128.92C81.1123 130.782 81.7563 131.244 82.1763 131.244C82.3583 131.244 82.5263 131.062 82.6243 130.152C82.6663 129.718 82.9883 129.522 83.3243 129.522C83.7023 129.522 84.1083 129.788 84.1083 130.264V130.362C83.9123 132.308 83.1843 132.896 82.2463 132.896C81.0143 132.896 79.8243 131.72 78.8303 129.34C78.3963 128.29 78.0743 127.1 77.8643 125.77L75.8203 125.952H75.7643C75.3863 125.952 75.1903 125.588 75.1903 125.238C75.1903 124.916 75.3583 124.608 75.6943 124.58L77.6963 124.398C77.5843 123.306 77.5283 122.13 77.5283 120.898C77.5283 120.464 77.9203 120.254 78.3123 120.254C78.7043 120.254 79.0963 120.464 79.0963 120.898C79.0963 122.088 79.1383 123.208 79.2503 124.258ZM80.9023 121.192C81.2803 121.472 81.6303 121.766 81.9243 122.06C82.0923 122.242 82.1763 122.438 82.1763 122.606C82.1763 123.012 81.8123 123.362 81.4203 123.362C81.2523 123.362 81.0703 123.278 80.9163 123.11C80.6223 122.774 80.3143 122.48 79.9643 122.2C79.7963 122.06 79.7123 121.892 79.7123 121.724C79.7123 121.374 80.0483 121.024 80.4403 121.024C80.5943 121.024 80.7483 121.08 80.9023 121.192ZM85.3683 132.42L96.9043 120.156C97.0303 120.03 97.1703 119.932 97.2963 119.932C97.6603 119.932 97.9683 120.226 97.9683 120.506C97.9683 120.66 97.9123 120.8 97.7723 120.94L86.2363 133.204C86.1103 133.33 85.9703 133.428 85.8443 133.428C85.4803 133.428 85.1723 133.134 85.1723 132.854C85.1723 132.7 85.2283 132.56 85.3683 132.42ZM111.408 124.874H109.378C109.238 125.42 109.028 126.12 108.776 126.722C108.412 127.59 107.95 128.388 107.39 129.116C108.524 129.69 109.644 130.334 110.652 131.048C110.918 131.23 111.03 131.482 111.03 131.72C111.03 132.14 110.666 132.546 110.218 132.546C110.05 132.546 109.868 132.49 109.686 132.364C108.636 131.594 107.474 130.88 106.312 130.278C104.744 131.664 102.784 132.462 100.572 132.882C100.502 132.896 100.446 132.896 100.376 132.896C99.9143 132.896 99.6483 132.546 99.6483 132.182C99.6483 131.874 99.8443 131.552 100.278 131.468C102.07 131.118 103.61 130.544 104.856 129.564C104.184 129.284 103.526 129.004 102.84 128.766L102.784 128.864C102.588 129.2 102.294 129.34 102.014 129.34C101.608 129.34 101.216 129.06 101.216 128.654C101.216 128.542 101.244 128.416 101.328 128.276C101.972 127.156 102.546 126.036 103.022 124.874H99.7323C99.3683 124.874 99.1723 124.538 99.1723 124.202C99.1723 123.866 99.3683 123.53 99.7323 123.53H103.54C103.862 122.62 104.142 121.668 104.422 120.646C104.52 120.296 104.842 120.128 105.164 120.128C105.57 120.128 105.976 120.366 105.976 120.786C105.976 120.842 105.962 120.898 105.948 120.968C105.71 121.85 105.458 122.704 105.164 123.53H111.408C111.786 123.53 111.982 123.866 111.982 124.202C111.982 124.538 111.786 124.874 111.408 124.874ZM107.726 124.874H104.674C104.296 125.784 103.904 126.68 103.47 127.562C104.324 127.828 105.164 128.122 105.976 128.472C106.83 127.436 107.404 126.176 107.726 124.874ZM121.18 131.356V128.584H119.052C118.702 128.584 118.534 128.234 118.534 127.898C118.534 127.548 118.702 127.212 119.052 127.212H121.18V124.874H119.57C119.402 125.252 119.22 125.616 119.038 125.952C118.856 126.288 118.562 126.428 118.296 126.428C117.932 126.428 117.596 126.176 117.596 125.784C117.596 125.644 117.638 125.49 117.736 125.322C118.282 124.384 118.716 123.236 118.996 121.976C119.08 121.598 119.388 121.416 119.682 121.416C120.046 121.416 120.41 121.668 120.41 122.088C120.41 122.144 120.41 122.186 120.396 122.242C120.312 122.676 120.2 123.11 120.06 123.53H121.18V120.87C121.18 120.45 121.558 120.24 121.936 120.24C122.314 120.24 122.692 120.45 122.692 120.87V123.53H125.254C125.618 123.53 125.8 123.866 125.8 124.202C125.8 124.538 125.618 124.874 125.254 124.874H122.692V127.212H124.75C125.1 127.212 125.282 127.548 125.282 127.898C125.282 128.234 125.1 128.584 124.75 128.584H122.692V131.356H125.548C125.898 131.356 126.08 131.692 126.08 132.042C126.08 132.378 125.898 132.728 125.548 132.728H117.834C117.498 132.728 117.316 132.378 117.316 132.042C117.316 131.692 117.498 131.356 117.834 131.356H121.18ZM116.294 120.772V132.616C116.294 133.036 115.916 133.246 115.538 133.246C115.146 133.246 114.768 133.036 114.768 132.616V120.772C114.768 120.352 115.146 120.156 115.538 120.156C115.916 120.156 116.294 120.352 116.294 120.772ZM113.452 123.558C113.494 123.236 113.746 123.082 113.998 123.082C114.292 123.082 114.572 123.278 114.572 123.628V123.698C114.516 124.328 114.362 125.168 114.18 125.77C114.082 126.078 113.844 126.218 113.606 126.218C113.312 126.218 113.032 126.008 113.032 125.686C113.032 125.63 113.032 125.56 113.06 125.49C113.242 124.902 113.382 124.104 113.452 123.558ZM117.512 123.012C117.652 123.432 117.778 123.936 117.834 124.314V124.412C117.834 124.79 117.526 125.014 117.246 125.014C117.008 125.014 116.784 124.874 116.728 124.552C116.658 124.132 116.56 123.6 116.462 123.264C116.448 123.208 116.434 123.138 116.434 123.082C116.434 122.788 116.7 122.606 116.966 122.606C117.19 122.606 117.414 122.732 117.512 123.012ZM131.554 126.68C131.554 129.27 130.448 131.552 128.138 133.414C128.012 133.526 127.858 133.582 127.718 133.582C127.452 133.582 127.2 133.344 127.2 133.078C127.2 132.896 127.27 132.77 127.41 132.644C129.426 130.922 130.266 128.976 130.266 126.68C130.266 124.384 129.426 122.438 127.41 120.716C127.27 120.59 127.2 120.464 127.2 120.282C127.2 120.016 127.452 119.778 127.718 119.778C127.858 119.778 128.012 119.834 128.138 119.946C130.448 121.808 131.554 124.09 131.554 126.68Z" fill="#282828"/>
<path d="M222.177 203L204.177 161L173 161L222.177 203Z" fill="#69BD83"/>
</svg>
