<svg width="400" height="279" viewBox="0 0 400 279" fill="none" xmlns="http://www.w3.org/2000/svg">
<rect width="400" height="161" rx="80" fill="#E18965"/>
<path d="M42.208 46.376L40.912 44.92C41.552 44.472 42.1067 44.024 42.576 43.576C43.056 43.128 43.456 42.6533 43.776 42.152C44.096 41.64 44.3467 41.0747 44.528 40.456C44.72 39.8267 44.8533 39.112 44.928 38.312C45.0133 37.512 45.056 36.584 45.056 35.528H40.768V33.896H47.024V31.784H48.976V33.896H55.232V35.528H47.024C47.024 36.9467 46.9387 38.1893 46.768 39.256C46.5973 40.3227 46.3253 41.272 45.952 42.104C45.5787 42.9253 45.0827 43.6773 44.464 44.36C43.856 45.0427 43.104 45.7147 42.208 46.376ZM50.832 46.056C50.4587 46.056 49.984 46.04 49.408 46.008C48.8427 45.9867 48.2027 45.9493 47.488 45.896L47.408 44.168C48.0267 44.2107 48.608 44.248 49.152 44.28C49.696 44.312 50.128 44.328 50.448 44.328C50.704 44.328 50.928 44.2693 51.12 44.152C51.312 44.0347 51.4613 43.8053 51.568 43.464C51.6853 43.1227 51.7707 42.6267 51.824 41.976C51.888 41.3147 51.92 40.44 51.92 39.352V39.256H45.888V37.608H53.84V38.872C53.84 40.152 53.808 41.224 53.744 42.088C53.6907 42.9413 53.5947 43.6347 53.456 44.168C53.3173 44.7013 53.1307 45.1013 52.896 45.368C52.672 45.6347 52.3893 45.816 52.048 45.912C51.7067 46.008 51.3013 46.056 50.832 46.056ZM61.904 46.008V44.424H66.192V43.016H62.896V41.608H66.192V40.296H62.544V38.808H71.904V40.296H68.112V41.608H71.552V43.016H68.112V44.424H72.144V46.008H61.904ZM57.856 44.104L56.976 42.248C57.6053 41.1813 58.096 40.1573 58.448 39.176C58.8 38.184 59.024 37.2133 59.12 36.264L59.84 37.32C59.648 38.92 59.3867 40.2587 59.056 41.336C58.7253 42.4133 58.3253 43.336 57.856 44.104ZM59.024 46.472V37.624H57.296V36.024H59.024V33.272H60.784V36.024H62.496V37.624H60.784V46.472H59.024ZM61.664 42.056C61.344 41.3307 61.008 40.6 60.656 39.864C60.3147 39.1173 59.952 38.36 59.568 37.592L60.496 36.744C60.944 37.5653 61.3653 38.344 61.76 39.08C62.1653 39.816 62.544 40.52 62.896 41.192L61.664 42.056ZM57.568 34.408L57.408 32.904C58.2187 32.8293 59.0347 32.712 59.856 32.552C60.688 32.392 61.472 32.2053 62.208 31.992L62.64 33.432C62 33.656 61.2427 33.8533 60.368 34.024C59.504 34.1947 58.5707 34.3227 57.568 34.408ZM62.912 37.896V32.472H71.44V37.896H64.784V36.456H69.584V34.056H64.784V37.896H62.912ZM86.768 46.328C86.384 46.328 85.984 46.184 85.568 45.896C85.152 45.608 84.7467 45.1333 84.352 44.472C83.968 43.8107 83.616 42.9253 83.296 41.816C82.9867 40.7067 82.736 39.3307 82.544 37.688C82.3627 36.0453 82.272 34.104 82.272 31.864H84.096C84.096 33.6133 84.16 35.16 84.288 36.504C84.4267 37.848 84.5973 39.0053 84.8 39.976C85.0133 40.936 85.232 41.7253 85.456 42.344C85.6907 42.952 85.904 43.4053 86.096 43.704C86.288 43.992 86.432 44.136 86.528 44.136C86.6133 44.136 86.6933 44.0667 86.768 43.928C86.8533 43.7893 86.9333 43.528 87.008 43.144C87.0933 42.76 87.1733 42.2 87.248 41.464L88.896 42.088C88.832 42.856 88.7307 43.512 88.592 44.056C88.464 44.5893 88.304 45.0213 88.112 45.352C87.92 45.6933 87.7067 45.9387 87.472 46.088C87.2373 46.248 87.0027 46.328 86.768 46.328ZM74.72 45.928L74.464 44.328C75.5733 44.1787 76.6347 44.024 77.648 43.864C78.6613 43.6933 79.5893 43.5227 80.432 43.352C81.2853 43.1707 82.0107 42.9947 82.608 42.824L82.88 44.344C82.272 44.5253 81.536 44.712 80.672 44.904C79.8187 45.096 78.88 45.2773 77.856 45.448C76.8427 45.6293 75.7973 45.7893 74.72 45.928ZM77.424 44.008V39.064H74.88V37.528H81.968V39.064H79.36V44.008H77.424ZM74.128 35.768V34.184H88.432V35.768H74.128ZM87.136 34.552C86.6987 34.2427 86.2453 33.944 85.776 33.656C85.3173 33.368 84.8693 33.1067 84.432 32.872L85.344 31.592C85.792 31.8267 86.2453 32.0933 86.704 32.392C87.1733 32.68 87.6213 32.9787 88.048 33.288L87.136 34.552ZM97.936 45.864C95.9413 45.864 94.4267 45.5547 93.392 44.936C92.3573 44.3067 91.84 43.3893 91.84 42.184C91.84 41.1707 92.2187 40.248 92.976 39.416C93.7333 38.5733 94.912 37.7947 96.512 37.08C98.1227 36.3653 100.192 35.688 102.72 35.048L103.168 36.76C101.024 37.304 99.2587 37.8587 97.872 38.424C96.496 38.9893 95.4773 39.5707 94.816 40.168C94.1653 40.7547 93.84 41.384 93.84 42.056C93.84 43.4427 95.2427 44.136 98.048 44.136C98.5067 44.136 98.9867 44.1147 99.488 44.072C99.9893 44.0293 100.549 43.9707 101.168 43.896C101.797 43.8107 102.512 43.704 103.312 43.576L103.536 45.304C102.523 45.4747 101.541 45.608 100.592 45.704C99.6533 45.8107 98.768 45.864 97.936 45.864ZM94.896 38.712C94.5867 37.6667 94.3253 36.6427 94.112 35.64C93.8987 34.6267 93.728 33.624 93.6 32.632L95.536 32.344C95.6747 33.336 95.8507 34.328 96.064 35.32C96.2773 36.3013 96.5333 37.2773 96.832 38.248L94.896 38.712ZM108.016 43.848C109.595 43.08 111.024 42.216 112.304 41.256C113.595 40.2853 114.72 39.24 115.68 38.12C116.651 37 117.429 35.8213 118.016 34.584L118.592 35.032H108.848V33.288H119.904V35.032C119.296 36.4293 118.448 37.7787 117.36 39.08C116.283 40.3707 115.024 41.56 113.584 42.648C112.155 43.736 110.587 44.68 108.88 45.48L108.016 43.848ZM119.92 45.592C119.312 44.8987 118.709 44.2693 118.112 43.704C117.525 43.1387 116.917 42.6107 116.288 42.12C115.659 41.6293 114.981 41.1547 114.256 40.696L115.504 39.336C116.571 40.008 117.573 40.7493 118.512 41.56C119.451 42.36 120.363 43.2667 121.248 44.28L119.92 45.592ZM130.8 46.392L129.616 32.248L131.6 32.088L132.784 46.232L130.8 46.392ZM124.16 42.376L124.096 40.664L138.24 40.136L138.304 41.848L124.16 42.376ZM124.8 36.648L124.736 34.936L137.6 34.488L137.664 36.2L124.8 36.648ZM147.856 45.576V32.648H149.792V44.712L148.672 43.704C149.621 43.704 150.448 43.496 151.152 43.08C151.856 42.664 152.421 42.04 152.848 41.208C153.285 40.376 153.579 39.3467 153.728 38.12L155.536 38.376C155.365 39.8907 154.976 41.1867 154.368 42.264C153.771 43.3413 152.992 44.1627 152.032 44.728C151.072 45.2933 149.952 45.576 148.672 45.576H147.856ZM140.16 44.152C140.779 43.8747 141.285 43.5653 141.68 43.224C142.085 42.8827 142.4 42.4667 142.624 41.976C142.848 41.4853 143.003 40.872 143.088 40.136C143.173 39.4 143.216 38.488 143.216 37.4V32.648H145.12V37.528C145.12 38.7653 145.051 39.832 144.912 40.728C144.773 41.624 144.555 42.3867 144.256 43.016C143.957 43.6453 143.552 44.1787 143.04 44.616C142.528 45.0533 141.899 45.432 141.152 45.752L140.16 44.152ZM165.728 42.696C165.728 41.4587 165.653 40.4827 165.504 39.768C165.365 39.0427 165.125 38.5253 164.784 38.216C164.453 37.9067 163.995 37.752 163.408 37.752C162.896 37.752 162.4 37.8747 161.92 38.12C161.451 38.3653 160.976 38.76 160.496 39.304C160.027 39.8373 159.509 40.552 158.944 41.448L157.376 40.552C157.909 39.7307 158.379 38.9733 158.784 38.28C159.2 37.5867 159.573 36.9093 159.904 36.248C160.245 35.576 160.555 34.8933 160.832 34.2C161.12 33.496 161.397 32.7333 161.664 31.912L163.552 32.216C163.221 33.208 162.869 34.1253 162.496 34.968C162.123 35.8 161.712 36.6267 161.264 37.448L160.832 37.192C161.301 36.8933 161.803 36.6693 162.336 36.52C162.88 36.36 163.424 36.28 163.968 36.28C164.853 36.28 165.563 36.4933 166.096 36.92C166.64 37.3467 167.035 38.0347 167.28 38.984C167.525 39.9227 167.648 41.16 167.648 42.696H165.728ZM165.568 45.944C163.925 45.944 162.64 45.6933 161.712 45.192C160.784 44.7013 160.32 44.0133 160.32 43.128C160.32 42.5093 160.555 41.9013 161.024 41.304C161.493 40.696 162.171 40.1253 163.056 39.592C163.952 39.0587 165.024 38.568 166.272 38.12C167.531 37.672 168.949 37.2827 170.528 36.952L170.816 38.52C169.504 38.7973 168.32 39.112 167.264 39.464C166.219 39.816 165.317 40.1893 164.56 40.584C163.813 40.968 163.237 41.3627 162.832 41.768C162.427 42.1733 162.224 42.568 162.224 42.952C162.224 43.4 162.512 43.752 163.088 44.008C163.675 44.2533 164.507 44.376 165.584 44.376C166.245 44.376 166.981 44.3333 167.792 44.248C168.603 44.152 169.477 44.0187 170.416 43.848L170.672 45.448C170.128 45.544 169.552 45.6293 168.944 45.704C168.336 45.7787 167.739 45.8373 167.152 45.88C166.576 45.9227 166.048 45.944 165.568 45.944ZM157.424 35.096V33.576H170.176V35.096H157.424ZM180.032 46.36C179.776 46.36 179.44 46.3547 179.024 46.344C178.608 46.3333 178.08 46.3173 177.44 46.296L177.36 44.664C177.936 44.6853 178.432 44.7067 178.848 44.728C179.275 44.7387 179.584 44.744 179.776 44.744C179.989 44.744 180.139 44.7333 180.224 44.712C180.309 44.6907 180.357 44.6427 180.368 44.568C180.389 44.4827 180.4 44.3493 180.4 44.168V42.248H173.824V40.616H180.4V39.4H182.368V40.616H188.416V42.248H182.368V44.456C182.368 44.8933 182.347 45.24 182.304 45.496C182.261 45.752 182.16 45.9387 182 46.056C181.851 46.184 181.616 46.264 181.296 46.296C180.987 46.3387 180.565 46.36 180.032 46.36ZM177.104 35.272C176.891 34.792 176.656 34.3173 176.4 33.848C176.144 33.3787 175.893 32.936 175.648 32.52L177.312 31.88C177.579 32.296 177.835 32.7387 178.08 33.208C178.325 33.6773 178.56 34.1573 178.784 34.648L177.104 35.272ZM176.672 38.088V36.504H185.568V38.088H176.672ZM182.08 41.016L181.056 39.704C181.643 39.288 182.219 38.8507 182.784 38.392C183.36 37.9333 183.893 37.4693 184.384 37L185.568 38.088C185.045 38.632 184.501 39.1387 183.936 39.608C183.381 40.0773 182.763 40.5467 182.08 41.016ZM174.352 37.944V33.928H187.888V37.944H186.064V35.464H176.176V37.944H174.352ZM180.848 35.176C180.624 34.6747 180.389 34.1893 180.144 33.72C179.899 33.24 179.648 32.7867 179.392 32.36L181.056 31.72C181.312 32.1467 181.563 32.6 181.808 33.08C182.064 33.56 182.299 34.0507 182.512 34.552L180.848 35.176ZM185.072 35.096L183.376 34.632C183.675 34.1627 183.957 33.6933 184.224 33.224C184.501 32.744 184.747 32.28 184.96 31.832L186.672 32.264C186.459 32.7227 186.213 33.192 185.936 33.672C185.669 34.152 185.381 34.6267 185.072 35.096ZM192.128 45.944L190.464 45.336L195.648 32.312L197.408 32.824L194.624 39.704L194.032 39.32C194.565 38.8827 195.099 38.5413 195.632 38.296C196.176 38.0507 196.704 37.928 197.216 37.928C197.611 37.928 197.952 38.0133 198.24 38.184C198.528 38.344 198.773 38.584 198.976 38.904C199.179 39.2133 199.349 39.592 199.488 40.04C199.637 40.488 199.771 41 199.888 41.576C199.984 42.024 200.08 42.4133 200.176 42.744C200.283 43.0747 200.416 43.3307 200.576 43.512C200.747 43.6933 200.965 43.784 201.232 43.784C201.701 43.784 202.123 43.48 202.496 42.872C202.869 42.2533 203.221 41.2773 203.552 39.944L205.232 40.504C204.955 41.688 204.629 42.6587 204.256 43.416C203.883 44.1627 203.44 44.7173 202.928 45.08C202.416 45.4533 201.824 45.64 201.152 45.64C200.693 45.64 200.299 45.56 199.968 45.4C199.648 45.24 199.371 45.0053 199.136 44.696C198.901 44.3867 198.699 44.0133 198.528 43.576C198.368 43.128 198.229 42.6267 198.112 42.072C198.005 41.6027 197.888 41.1973 197.76 40.856C197.643 40.5147 197.488 40.2533 197.296 40.072C197.115 39.8907 196.869 39.8 196.56 39.8C196.357 39.8 196.123 39.8427 195.856 39.928C195.589 40.0133 195.317 40.1573 195.04 40.36C194.773 40.552 194.512 40.8187 194.256 41.16C194 41.4907 193.771 41.9067 193.568 42.408L192.128 45.944ZM207.632 45.832C208.08 44.392 208.485 42.9307 208.848 41.448C209.221 39.9547 209.547 38.44 209.824 36.904C210.112 35.3573 210.357 33.8 210.56 32.232L212.464 32.312C212.283 33.848 212.048 35.4 211.76 36.968C211.483 38.536 211.157 40.0933 210.784 41.64C210.411 43.176 209.995 44.6853 209.536 46.168L207.632 45.832ZM217.552 45.848C216.581 45.848 215.739 45.7307 215.024 45.496C214.309 45.272 213.755 44.9573 213.36 44.552C212.965 44.136 212.768 43.64 212.768 43.064C212.768 42.6373 212.912 42.216 213.2 41.8C213.488 41.384 213.931 40.952 214.528 40.504L215.968 41.528C215.563 41.784 215.259 42.024 215.056 42.248C214.864 42.4613 214.768 42.6747 214.768 42.888C214.768 43.1333 214.88 43.352 215.104 43.544C215.339 43.7253 215.664 43.8693 216.08 43.976C216.507 44.0827 216.997 44.136 217.552 44.136C218.053 44.136 218.565 44.1093 219.088 44.056C219.611 44.0027 220.155 43.9227 220.72 43.816L220.928 45.528C220.341 45.6347 219.776 45.7147 219.232 45.768C218.688 45.8213 218.128 45.848 217.552 45.848ZM207.408 35.896V34.232H217.248V35.896H207.408ZM213.392 37.704C214.651 37.5867 215.883 37.496 217.088 37.432C218.304 37.368 219.52 37.336 220.736 37.336V39.016C219.541 39.016 218.341 39.048 217.136 39.112C215.941 39.1653 214.731 39.2613 213.504 39.4L213.392 37.704ZM218.672 35.736C218.395 35.16 218.123 34.6427 217.856 34.184C217.589 33.7147 217.291 33.2613 216.96 32.824L218.272 32.04C218.624 32.4987 218.933 32.9733 219.2 33.464C219.477 33.9547 219.749 34.488 220.016 35.064L218.672 35.736ZM220.976 34.984C220.72 34.3867 220.464 33.8587 220.208 33.4C219.952 32.9307 219.664 32.4773 219.344 32.04L220.656 31.32C220.997 31.7893 221.296 32.2693 221.552 32.76C221.819 33.2507 222.075 33.7893 222.32 34.376L220.976 34.984ZM231.2 45.608C229.952 45.608 228.859 45.464 227.92 45.176C226.992 44.8987 226.272 44.5093 225.76 44.008C225.259 43.496 225.008 42.8933 225.008 42.2C225.008 41.624 225.189 41.0107 225.552 40.36C225.925 39.6987 226.491 38.968 227.248 38.168L228.896 39.032C228.277 39.6507 227.808 40.2107 227.488 40.712C227.168 41.2133 227.008 41.6453 227.008 42.008C227.008 42.3813 227.179 42.712 227.52 43C227.872 43.288 228.363 43.512 228.992 43.672C229.621 43.8213 230.357 43.896 231.2 43.896C231.733 43.896 232.32 43.864 232.96 43.8C233.6 43.736 234.229 43.6507 234.848 43.544C235.477 43.4267 236.027 43.2987 236.496 43.16L236.88 44.872C236.411 45.0107 235.845 45.1333 235.184 45.24C234.533 45.3573 233.856 45.448 233.152 45.512C232.459 45.576 231.808 45.608 231.2 45.608ZM225.808 35.064V33.352H236.432V35.064H225.808ZM247.696 45.864C245.701 45.864 244.187 45.5547 243.152 44.936C242.117 44.3067 241.6 43.3893 241.6 42.184C241.6 41.1707 241.979 40.248 242.736 39.416C243.493 38.5733 244.672 37.7947 246.272 37.08C247.883 36.3653 249.952 35.688 252.48 35.048L252.928 36.76C250.784 37.304 249.019 37.8587 247.632 38.424C246.256 38.9893 245.237 39.5707 244.576 40.168C243.925 40.7547 243.6 41.384 243.6 42.056C243.6 43.4427 245.003 44.136 247.808 44.136C248.267 44.136 248.747 44.1147 249.248 44.072C249.749 44.0293 250.309 43.9707 250.928 43.896C251.557 43.8107 252.272 43.704 253.072 43.576L253.296 45.304C252.283 45.4747 251.301 45.608 250.352 45.704C249.413 45.8107 248.528 45.864 247.696 45.864ZM244.656 38.712C244.347 37.6667 244.085 36.6427 243.872 35.64C243.659 34.6267 243.488 33.624 243.36 32.632L245.296 32.344C245.435 33.336 245.611 34.328 245.824 35.32C246.037 36.3013 246.293 37.2773 246.592 38.248L244.656 38.712ZM266.752 45.752C265.461 45.752 264.336 45.5227 263.376 45.064C262.427 44.616 261.691 43.9813 261.168 43.16C260.645 42.328 260.384 41.352 260.384 40.232C260.384 39.3573 260.539 38.5467 260.848 37.8C261.168 37.0533 261.616 36.4027 262.192 35.848C262.779 35.2827 263.472 34.8507 264.272 34.552L264.432 35.048L256.816 35.224V33.512L270.304 33.192V34.904L268.272 34.952C267.419 34.9733 266.629 35.112 265.904 35.368C265.189 35.6133 264.571 35.96 264.048 36.408C263.536 36.856 263.136 37.3893 262.848 38.008C262.56 38.616 262.416 39.2933 262.416 40.04C262.416 40.8507 262.592 41.5547 262.944 42.152C263.296 42.7387 263.792 43.192 264.432 43.512C265.083 43.832 265.861 43.992 266.768 43.992C266.96 43.992 267.173 43.9867 267.408 43.976C267.653 43.9547 267.899 43.9333 268.144 43.912C268.4 43.88 268.624 43.848 268.816 43.816L269.024 45.576C268.8 45.608 268.555 45.6347 268.288 45.656C268.021 45.688 267.755 45.7093 267.488 45.72C267.221 45.7413 266.976 45.752 266.752 45.752ZM268.384 40.76C268.139 40.216 267.872 39.6987 267.584 39.208C267.307 38.7067 266.987 38.1947 266.624 37.672L268.016 36.904C268.379 37.4267 268.704 37.944 268.992 38.456C269.28 38.9573 269.552 39.4907 269.808 40.056L268.384 40.76ZM270.816 39.848C270.581 39.2933 270.325 38.7707 270.048 38.28C269.781 37.7787 269.472 37.2667 269.12 36.744L270.512 36.008C270.864 36.5413 271.179 37.064 271.456 37.576C271.744 38.088 272.005 38.632 272.24 39.208L270.816 39.848ZM277.36 46.264C276.869 45.6133 276.341 45.0053 275.776 44.44C275.211 43.864 274.597 43.3307 273.936 42.84L275.248 41.528C275.909 42.04 276.539 42.6 277.136 43.208C277.733 43.8053 278.288 44.4507 278.8 45.144L277.36 46.264ZM291.376 46.312V33.64H303.824V46.312H301.904V45.528H293.296V43.992H301.904V42.024H293.296V40.552H301.904V38.616H293.296V37.128H301.904V35.224H293.296V46.312H291.376ZM297.536 34.776L295.584 34.52C295.787 34.0613 295.968 33.5867 296.128 33.096C296.299 32.5947 296.448 32.0667 296.576 31.512L298.544 31.752C298.405 32.3067 298.251 32.8347 298.08 33.336C297.92 33.8373 297.739 34.3173 297.536 34.776ZM316.416 46.264C316.16 46.264 315.808 46.2533 315.36 46.232C314.923 46.2107 314.395 46.1787 313.776 46.136L313.744 44.456C314.245 44.488 314.709 44.5147 315.136 44.536C315.573 44.5573 315.915 44.568 316.16 44.568C316.32 44.568 316.464 44.536 316.592 44.472C316.72 44.408 316.832 44.2853 316.928 44.104C317.024 43.9227 317.099 43.656 317.152 43.304C317.216 42.952 317.264 42.488 317.296 41.912C317.328 41.336 317.344 40.616 317.344 39.752V38.68H309.552V37.048H319.248V38.92C319.248 40.264 319.221 41.3787 319.168 42.264C319.125 43.1493 319.04 43.864 318.912 44.408C318.795 44.9413 318.629 45.3413 318.416 45.608C318.203 45.8747 317.931 46.0507 317.6 46.136C317.28 46.2213 316.885 46.264 316.416 46.264ZM308.832 46.552L307.648 45.048C308.309 44.696 308.88 44.3067 309.36 43.88C309.851 43.4427 310.256 42.9467 310.576 42.392C310.896 41.8267 311.141 41.176 311.312 40.44C311.493 39.704 311.611 38.8613 311.664 37.912L313.536 37.992C313.483 39.1013 313.349 40.088 313.136 40.952C312.933 41.816 312.64 42.5893 312.256 43.272C311.883 43.944 311.413 44.5467 310.848 45.08C310.283 45.6133 309.611 46.104 308.832 46.552ZM307.904 39.432L306.576 38.088C307.525 37.2667 308.379 36.3707 309.136 35.4C309.893 34.4187 310.555 33.3627 311.12 32.232L312.848 32.84C312.272 34.088 311.568 35.2613 310.736 36.36C309.915 37.4587 308.971 38.4827 307.904 39.432ZM320.576 39.432C319.52 38.4827 318.576 37.4587 317.744 36.36C316.912 35.2613 316.208 34.088 315.632 32.84L317.36 32.232C317.925 33.3627 318.587 34.4187 319.344 35.4C320.101 36.3707 320.955 37.2667 321.904 38.088L320.576 39.432ZM333.312 45.752C332.021 45.752 330.896 45.5227 329.936 45.064C328.987 44.616 328.251 43.9813 327.728 43.16C327.205 42.328 326.944 41.352 326.944 40.232C326.944 39.3573 327.099 38.5467 327.408 37.8C327.728 37.0533 328.176 36.4027 328.752 35.848C329.339 35.2827 330.032 34.8507 330.832 34.552L330.992 35.048L323.376 35.224V33.512L336.864 33.192V34.904L334.832 34.952C333.979 34.9733 333.189 35.112 332.464 35.368C331.749 35.6133 331.131 35.96 330.608 36.408C330.096 36.856 329.696 37.3893 329.408 38.008C329.12 38.616 328.976 39.2933 328.976 40.04C328.976 40.8507 329.152 41.5547 329.504 42.152C329.856 42.7387 330.352 43.192 330.992 43.512C331.643 43.832 332.421 43.992 333.328 43.992C333.52 43.992 333.733 43.9867 333.968 43.976C334.213 43.9547 334.459 43.9333 334.704 43.912C334.96 43.88 335.184 43.848 335.376 43.816L335.584 45.576C335.36 45.608 335.115 45.6347 334.848 45.656C334.581 45.688 334.315 45.7093 334.048 45.72C333.781 45.7413 333.536 45.752 333.312 45.752ZM334.944 40.76C334.699 40.216 334.432 39.6987 334.144 39.208C333.867 38.7067 333.547 38.1947 333.184 37.672L334.576 36.904C334.939 37.4267 335.264 37.944 335.552 38.456C335.84 38.9573 336.112 39.4907 336.368 40.056L334.944 40.76ZM337.376 39.848C337.141 39.2933 336.885 38.7707 336.608 38.28C336.341 37.7787 336.032 37.2667 335.68 36.744L337.072 36.008C337.424 36.5413 337.739 37.064 338.016 37.576C338.304 38.088 338.565 38.632 338.8 39.208L337.376 39.848ZM340.688 41.08L340.064 39.448C341.952 38.9467 343.707 38.328 345.328 37.592C346.949 36.856 348.405 36.024 349.696 35.096C350.987 34.168 352.069 33.1867 352.944 32.152L354.384 33.144C353.445 34.232 352.293 35.272 350.928 36.264C349.573 37.2453 348.032 38.1467 346.304 38.968C344.587 39.7893 342.715 40.4933 340.688 41.08ZM343.68 44.392L341.76 44.12C341.909 43.672 342.053 43.176 342.192 42.632C342.331 42.088 342.459 41.5387 342.576 40.984C342.704 40.4293 342.805 39.912 342.88 39.432L344.8 39.464C344.725 39.9867 344.629 40.536 344.512 41.112C344.395 41.688 344.267 42.2587 344.128 42.824C343.989 43.3787 343.84 43.9013 343.68 44.392ZM350.704 46.312C350.469 46.312 350.139 46.3067 349.712 46.296C349.285 46.2853 348.821 46.2693 348.32 46.248C347.829 46.2267 347.36 46.2053 346.912 46.184L346.816 44.568C347.221 44.5787 347.637 44.5947 348.064 44.616C348.501 44.6267 348.896 44.6373 349.248 44.648C349.611 44.6587 349.883 44.664 350.064 44.664C350.235 44.664 350.373 44.6533 350.48 44.632C350.597 44.6 350.688 44.5253 350.752 44.408C350.827 44.28 350.891 44.072 350.944 43.784C350.997 43.496 351.056 43.1067 351.12 42.616H343.952V41.096H353.344C353.237 42.3013 353.12 43.256 352.992 43.96C352.875 44.6533 352.72 45.1653 352.528 45.496C352.347 45.8373 352.107 46.056 351.808 46.152C351.52 46.2587 351.152 46.312 350.704 46.312ZM344.368 40.52L344.16 39.096C346.219 38.9893 348.085 38.84 349.76 38.648C351.445 38.456 352.837 38.2427 353.936 38.008L354.304 39.48C353.184 39.704 351.765 39.9067 350.048 40.088C348.341 40.2693 346.448 40.4133 344.368 40.52ZM340.128 37.48V35.944H345.68V34.392H341.552V32.936H345.68V31.768H347.648V32.936H351.216V34.392H347.648V35.944H354.912V37.48H340.128ZM42.608 74.88L41.456 73.472L50.592 66.304L50.624 66.816H42.096V65.152H52.64V66.816L48.432 70.208L47.536 70.128C47.5787 69.776 47.712 69.5147 47.936 69.344C48.16 69.1627 48.4587 69.072 48.832 69.072C49.344 69.072 49.7227 69.1733 49.968 69.376C50.2133 69.568 50.384 69.8187 50.48 70.128C50.5867 70.4373 50.672 70.752 50.736 71.072C50.7893 71.3813 50.8587 71.68 50.944 71.968C51.04 72.2453 51.1947 72.4747 51.408 72.656C51.6213 72.8267 51.9413 72.912 52.368 72.912C52.5493 72.912 52.7893 72.9013 53.088 72.88C53.3973 72.848 53.712 72.8107 54.032 72.768C54.3627 72.7147 54.6507 72.6613 54.896 72.608L55.072 74.272C54.7627 74.3573 54.432 74.4267 54.08 74.48C53.728 74.5333 53.3867 74.5707 53.056 74.592C52.736 74.624 52.4533 74.64 52.208 74.64C51.568 74.64 51.0507 74.5547 50.656 74.384C50.272 74.224 49.9733 74.0107 49.76 73.744C49.5467 73.4773 49.392 73.1893 49.296 72.88C49.2 72.5707 49.12 72.2827 49.056 72.016C49.0027 71.7493 48.944 71.52 48.88 71.328C48.816 71.136 48.7253 70.9867 48.608 70.88C48.5013 70.7627 48.336 70.704 48.112 70.704C48.0267 70.704 47.936 70.7253 47.84 70.768C47.744 70.8 47.6213 70.8693 47.472 70.976C47.3333 71.072 47.136 71.2267 46.88 71.44L42.608 74.88ZM52.272 63.68C51.4827 63.68 50.5973 63.6587 49.616 63.616C48.6347 63.5733 47.616 63.5147 46.56 63.44C45.5147 63.3653 44.48 63.28 43.456 63.184L43.664 61.472C44.7093 61.5787 45.7387 61.6747 46.752 61.76C47.7653 61.8453 48.7413 61.9093 49.68 61.952C50.6187 61.9947 51.4827 62.016 52.272 62.016V63.68ZM67.712 74.592C66.4213 74.592 65.296 74.3733 64.336 73.936C63.3867 73.4987 62.6507 72.88 62.128 72.08C61.6053 71.2693 61.344 70.32 61.344 69.232C61.344 68.3787 61.4987 67.5947 61.808 66.88C62.128 66.1547 62.576 65.52 63.152 64.976C63.7387 64.4213 64.432 64 65.232 63.712L65.392 64.208L57.776 64.384V62.672L71.264 62.352V64.064L69.232 64.112C68.4 64.1333 67.6267 64.2613 66.912 64.496C66.208 64.7307 65.5893 65.0667 65.056 65.504C64.5227 65.9413 64.1067 66.4587 63.808 67.056C63.52 67.6427 63.376 68.304 63.376 69.04C63.376 69.8293 63.552 70.512 63.904 71.088C64.256 71.6533 64.752 72.0853 65.392 72.384C66.0427 72.6827 66.8213 72.832 67.728 72.832C68.0267 72.832 68.368 72.816 68.752 72.784C69.1467 72.752 69.488 72.7093 69.776 72.656L69.984 74.416C69.6427 74.4693 69.264 74.512 68.848 74.544C68.4427 74.576 68.064 74.592 67.712 74.592ZM76.128 75.472V67.648H73.904V66.112H76.144V61.008H77.872V66.112H79.872V67.648H77.888V75.472H76.128ZM74.432 73.776L73.552 71.984C74.2027 71.12 74.736 70.24 75.152 69.344C75.5787 68.448 75.904 67.504 76.128 66.512L76.976 66.976C76.8693 67.8507 76.6987 68.704 76.464 69.536C76.2293 70.3573 75.936 71.1307 75.584 71.856C75.2427 72.5707 74.8587 73.2107 74.432 73.776ZM78.896 71.952C78.5333 71.1307 78.1653 70.3147 77.792 69.504C77.4293 68.6827 77.0507 67.8453 76.656 66.992L77.792 66.416C78.1867 67.1627 78.576 67.9147 78.96 68.672C79.344 69.4187 79.7227 70.176 80.096 70.944L78.896 71.952ZM74.656 65.776C74.5173 65.1467 74.368 64.512 74.208 63.872C74.0587 63.232 73.9093 62.6453 73.76 62.112L75.216 61.728C75.3653 62.2613 75.5147 62.848 75.664 63.488C75.8133 64.1173 75.9413 64.752 76.048 65.392L74.656 65.776ZM79.664 73.152L79.504 71.52L88.848 69.776L89.008 71.408L79.664 73.152ZM83.232 70.016C82.7733 69.504 82.2773 68.976 81.744 68.432C81.2107 67.8773 80.6453 67.3227 80.048 66.768L81.312 65.568C81.9093 66.112 82.48 66.656 83.024 67.2C83.568 67.744 84.064 68.272 84.512 68.784L83.232 70.016ZM79.344 65.792L77.936 65.344C78.128 64.768 78.2987 64.1547 78.448 63.504C78.608 62.8427 78.7307 62.224 78.816 61.648L80.32 61.872C80.2133 62.4907 80.0747 63.1467 79.904 63.84C79.7333 64.5227 79.5467 65.1733 79.344 65.792ZM85.6 75.472V61.008H87.472V75.472H85.6ZM84.112 65.952C83.6853 65.472 83.232 64.9867 82.752 64.496C82.2827 64.0053 81.776 63.5093 81.232 63.008L82.512 61.824C83.056 62.3147 83.568 62.8053 84.048 63.296C84.528 63.776 84.9813 64.2507 85.408 64.72L84.112 65.952ZM94.608 75.008V73.456H99.264V71.856H95.552V70.4H99.264V65.776H97.36V64.464H99.264V62.816H101.168V64.464H103.072V62.816H97.36V68.928H95.6V61.312H104.832V68.928H97.36V67.504H103.072V65.776H101.168V70.4H105.072V71.856H101.168V73.456H105.296V75.008H94.608ZM90.624 74.048L90.448 72.416C90.928 72.2987 91.4293 72.1707 91.952 72.032C92.4853 71.8827 93.0133 71.7227 93.536 71.552C94.0693 71.3707 94.5867 71.1893 95.088 71.008L95.136 72.592C94.656 72.784 94.1547 72.9707 93.632 73.152C93.1093 73.3333 92.592 73.4987 92.08 73.648C91.568 73.7973 91.0827 73.9307 90.624 74.048ZM91.888 72.368V68.096H90.688V66.448H91.888V63.488H90.528V61.808H95.104V63.488H93.712V66.448H95.008V68.096H93.712V72.368H91.888ZM116.992 74.752C115.701 74.752 114.576 74.5227 113.616 74.064C112.667 73.616 111.931 72.9813 111.408 72.16C110.885 71.328 110.624 70.352 110.624 69.232C110.624 68.3573 110.779 67.5467 111.088 66.8C111.408 66.0533 111.856 65.4027 112.432 64.848C113.019 64.2827 113.712 63.8507 114.512 63.552L114.672 64.048L107.056 64.224V62.512L120.544 62.192V63.904L118.512 63.952C117.659 63.9733 116.869 64.112 116.144 64.368C115.429 64.6133 114.811 64.96 114.288 65.408C113.776 65.856 113.376 66.3893 113.088 67.008C112.8 67.616 112.656 68.2933 112.656 69.04C112.656 69.8507 112.832 70.5547 113.184 71.152C113.536 71.7387 114.032 72.192 114.672 72.512C115.323 72.832 116.101 72.992 117.008 72.992C117.2 72.992 117.413 72.9867 117.648 72.976C117.893 72.9547 118.139 72.9333 118.384 72.912C118.64 72.88 118.864 72.848 119.056 72.816L119.264 74.576C119.04 74.608 118.795 74.6347 118.528 74.656C118.261 74.688 117.995 74.7093 117.728 74.72C117.461 74.7413 117.216 74.752 116.992 74.752ZM118.624 69.76C118.379 69.216 118.112 68.6987 117.824 68.208C117.547 67.7067 117.227 67.1947 116.864 66.672L118.256 65.904C118.619 66.4267 118.944 66.944 119.232 67.456C119.52 67.9573 119.792 68.4907 120.048 69.056L118.624 69.76ZM121.056 68.848C120.821 68.2933 120.565 67.7707 120.288 67.28C120.021 66.7787 119.712 66.2667 119.36 65.744L120.752 65.008C121.104 65.5413 121.419 66.064 121.696 66.576C121.984 67.088 122.245 67.632 122.48 68.208L121.056 68.848ZM131.936 74.848C130.635 74.848 129.504 74.72 128.544 74.464C127.595 74.208 126.864 73.8507 126.352 73.392C125.84 72.9227 125.584 72.368 125.584 71.728C125.584 71.1733 125.771 70.656 126.144 70.176C126.517 69.696 127.04 69.3013 127.712 68.992L128.976 70.112C128.496 70.3467 128.149 70.5813 127.936 70.816C127.723 71.04 127.621 71.2907 127.632 71.568C127.643 71.92 127.808 72.2187 128.128 72.464C128.448 72.6987 128.917 72.88 129.536 73.008C130.165 73.136 130.923 73.2 131.808 73.2C132.587 73.2 133.403 73.1467 134.256 73.04C135.12 72.9333 135.925 72.7947 136.672 72.624L136.944 74.288C136.176 74.4693 135.36 74.608 134.496 74.704C133.632 74.8 132.779 74.848 131.936 74.848ZM124.848 68.144V66.576L137.552 66.256V67.824L124.848 68.144ZM133.488 71.456C133.136 70.6347 132.821 69.8027 132.544 68.96C132.267 68.1173 132.027 67.2693 131.824 66.416C131.632 65.552 131.472 64.672 131.344 63.776C131.216 62.8693 131.125 61.9467 131.072 61.008L132.976 60.896C133.029 61.8027 133.115 62.6827 133.232 63.536C133.36 64.3893 133.52 65.2267 133.712 66.048C133.904 66.8693 134.139 67.696 134.416 68.528C134.704 69.3493 135.035 70.1813 135.408 71.024L133.488 71.456ZM125.008 64.608V63.04L137.392 62.72V64.288L125.008 64.608ZM147.472 75.008C145.893 75.008 144.667 74.752 143.792 74.24C142.928 73.728 142.496 73.008 142.496 72.08C142.496 71.2907 142.821 70.6773 143.472 70.24C144.133 69.792 145.04 69.568 146.192 69.568C147.28 69.568 148.096 69.7707 148.64 70.176C149.184 70.5707 149.456 71.168 149.456 71.968C149.456 72.256 149.413 72.5653 149.328 72.896C149.253 73.2267 149.141 73.568 148.992 73.92L147.232 73.728C147.381 73.3653 147.488 73.056 147.552 72.8C147.627 72.544 147.664 72.32 147.664 72.128C147.664 71.4027 147.131 71.04 146.064 71.04C145.52 71.04 145.093 71.1307 144.784 71.312C144.485 71.4827 144.336 71.7333 144.336 72.064C144.336 72.512 144.597 72.8693 145.12 73.136C145.643 73.392 146.352 73.52 147.248 73.52C148.965 73.52 150.24 73.2693 151.072 72.768C151.915 72.256 152.336 71.4773 152.336 70.432C152.336 69.5467 152.005 68.896 151.344 68.48C150.693 68.064 149.653 67.856 148.224 67.856C147.403 67.856 146.677 67.9307 146.048 68.08C145.419 68.2187 144.837 68.4373 144.304 68.736L142.192 69.952L141.424 68.48L150.512 63.424V63.728H142.368V62.112H153.312V63.728L145.504 68.032L144.512 67.216C144.843 67.0987 145.211 66.992 145.616 66.896C146.032 66.7893 146.453 66.704 146.88 66.64C147.317 66.5653 147.739 66.5067 148.144 66.464C148.549 66.4107 148.917 66.384 149.248 66.384C150.869 66.384 152.112 66.7253 152.976 67.408C153.84 68.0907 154.272 69.0613 154.272 70.32C154.272 71.824 153.68 72.9813 152.496 73.792C151.323 74.6027 149.648 75.008 147.472 75.008ZM161.328 74.848C160.048 74.848 159.061 74.576 158.368 74.032C157.675 73.4987 157.328 72.7307 157.328 71.728C157.328 70.7147 157.669 69.9467 158.352 69.424C159.035 68.8907 160.027 68.624 161.328 68.624C162.032 68.624 162.731 68.704 163.424 68.864C164.128 69.0133 164.864 69.2587 165.632 69.6C166.4 69.9413 167.227 70.3893 168.112 70.944C169.008 71.488 169.995 72.1547 171.072 72.944L169.92 74.272C168.683 73.3227 167.563 72.5547 166.56 71.968C165.568 71.3707 164.645 70.9333 163.792 70.656C162.939 70.3787 162.117 70.24 161.328 70.24C160.592 70.24 160.043 70.3627 159.68 70.608C159.317 70.8427 159.136 71.216 159.136 71.728C159.136 72.7307 159.835 73.232 161.232 73.232C162.021 73.232 162.597 73.072 162.96 72.752C163.323 72.4213 163.504 71.9093 163.504 71.216V61.104H165.408V63.68H171.072V65.296H165.408V71.216C165.408 72.4533 165.077 73.3707 164.416 73.968C163.755 74.5547 162.725 74.848 161.328 74.848ZM176.944 73.136C178.245 73.0827 179.413 72.9547 180.448 72.752C181.483 72.5387 182.368 72.2613 183.104 71.92C183.84 71.5787 184.4 71.1893 184.784 70.752C185.168 70.304 185.36 69.808 185.36 69.264C185.36 68.656 185.088 68.2027 184.544 67.904C184.011 67.5947 183.189 67.44 182.08 67.44C181.536 67.44 180.933 67.4773 180.272 67.552C179.611 67.616 178.848 67.728 177.984 67.888C177.12 68.048 176.101 68.256 174.928 68.512L174.464 66.752C176.021 66.4 177.44 66.1387 178.72 65.968C180 65.7867 181.131 65.696 182.112 65.696C183.872 65.696 185.195 65.984 186.08 66.56C186.965 67.136 187.408 67.9947 187.408 69.136C187.408 69.9787 187.173 70.7467 186.704 71.44C186.245 72.1227 185.579 72.7147 184.704 73.216C183.829 73.7173 182.773 74.112 181.536 74.4C180.309 74.688 178.923 74.8587 177.376 74.912L176.944 73.136ZM185.008 63.856C184.272 63.856 183.44 63.84 182.512 63.808C181.595 63.7653 180.64 63.7067 179.648 63.632C178.667 63.5467 177.712 63.456 176.784 63.36L177.024 61.504C177.813 61.6107 178.672 61.7067 179.6 61.792C180.528 61.8773 181.461 61.9413 182.4 61.984C183.339 62.0267 184.208 62.048 185.008 62.048V63.856ZM200.352 74.176C199.392 74.176 198.533 74.0427 197.776 73.776C197.029 73.5093 196.443 73.1413 196.016 72.672C195.6 72.192 195.392 71.648 195.392 71.04C195.392 69.952 196.101 68.832 197.52 67.68L198.896 68.72C198.331 69.1787 197.915 69.5787 197.648 69.92C197.392 70.2613 197.264 70.5867 197.264 70.896C197.264 71.216 197.392 71.4933 197.648 71.728C197.904 71.9627 198.261 72.144 198.72 72.272C199.179 72.4 199.723 72.464 200.352 72.464C200.885 72.464 201.483 72.4267 202.144 72.352C202.816 72.2667 203.493 72.1547 204.176 72.016L204.432 73.696C203.739 73.8453 203.04 73.9627 202.336 74.048C201.643 74.1333 200.981 74.176 200.352 74.176ZM196.128 64.496V62.768H204.336V64.496H196.128ZM192.272 74.88C191.995 73.7813 191.792 72.6987 191.664 71.632C191.536 70.5653 191.472 69.4347 191.472 68.24C191.472 67.056 191.536 65.936 191.664 64.88C191.792 63.8133 191.995 62.7307 192.272 61.632L194.176 61.872C193.92 62.9067 193.728 63.9467 193.6 64.992C193.483 66.0267 193.424 67.1093 193.424 68.24C193.424 69.3707 193.483 70.4587 193.6 71.504C193.728 72.5493 193.92 73.5787 194.176 74.592L192.272 74.88ZM210.032 75.392C209.477 75.392 208.987 75.2747 208.56 75.04C208.144 74.8053 207.819 74.48 207.584 74.064C207.36 73.648 207.248 73.1573 207.248 72.592C207.248 72.0373 207.36 71.552 207.584 71.136C207.819 70.7093 208.144 70.384 208.56 70.16C208.987 69.9253 209.477 69.808 210.032 69.808C210.597 69.808 211.088 69.9253 211.504 70.16C211.92 70.384 212.245 70.7093 212.48 71.136C212.715 71.552 212.832 72.0373 212.832 72.592C212.832 73.1573 212.715 73.648 212.48 74.064C212.245 74.48 211.92 74.8053 211.504 75.04C211.088 75.2747 210.597 75.392 210.032 75.392ZM210.048 73.888C210.432 73.888 210.741 73.7707 210.976 73.536C211.211 73.3013 211.328 72.9867 211.328 72.592C211.328 72.208 211.211 71.8987 210.976 71.664C210.741 71.4293 210.432 71.312 210.048 71.312C209.653 71.312 209.339 71.4293 209.104 71.664C208.869 71.8987 208.752 72.208 208.752 72.592C208.752 72.9867 208.869 73.3013 209.104 73.536C209.339 73.7707 209.653 73.888 210.048 73.888ZM225.712 75.552V68.048H223.632V66.048H225.776V60.928H227.904V66.048H229.76V68.048H227.952V75.552H225.712ZM224.176 74.112L223.248 71.616C223.888 70.8267 224.4 70.0213 224.784 69.2C225.179 68.3787 225.472 67.5093 225.664 66.592L226.528 67.2C226.475 68.1173 226.336 69.0133 226.112 69.888C225.899 70.752 225.621 71.5467 225.28 72.272C224.949 72.9973 224.581 73.6107 224.176 74.112ZM228.784 72.464C228.443 71.6533 228.096 70.848 227.744 70.048C227.403 69.2373 227.035 68.3893 226.64 67.504L227.968 66.784C228.352 67.52 228.725 68.2453 229.088 68.96C229.451 69.664 229.819 70.3947 230.192 71.152L228.784 72.464ZM224.352 65.808C224.203 65.2 224.043 64.576 223.872 63.936C223.701 63.296 223.536 62.7147 223.376 62.192L225.008 61.6C225.179 62.1333 225.339 62.7147 225.488 63.344C225.648 63.9627 225.792 64.592 225.92 65.232L224.352 65.808ZM229.728 73.52L229.52 71.376L238.672 69.664L238.88 71.808L229.728 73.52ZM232.784 70.24C232.315 69.728 231.813 69.1947 231.28 68.64C230.747 68.0853 230.181 67.5307 229.584 66.976L231.248 65.44C231.845 65.984 232.411 66.528 232.944 67.072C233.488 67.6053 233.989 68.1333 234.448 68.656L232.784 70.24ZM229.264 65.824L227.632 65.168C227.845 64.6027 228.037 63.9947 228.208 63.344C228.379 62.6933 228.512 62.0853 228.608 61.52L230.368 61.904C230.24 62.5227 230.075 63.1787 229.872 63.872C229.68 64.5547 229.477 65.2053 229.264 65.824ZM234.976 75.552V60.928H237.456V75.552H234.976ZM233.424 65.984C233.019 65.5253 232.581 65.056 232.112 64.576C231.643 64.096 231.152 63.6107 230.64 63.12L232.304 61.6C232.816 62.0693 233.307 62.5387 233.776 63.008C234.245 63.4773 234.683 63.936 235.088 64.384L233.424 65.984ZM244.288 75.168V73.152H248.688V72.032H245.152V70.16H248.688V65.952H247.36V64.432H248.688V63.088H251.184V64.432H252.528V63.088H247.36V69.088H245.216V61.152H254.72V69.088H247.36V67.328H252.528V65.952H251.184V70.16H254.912V72.032H251.184V73.152H255.088V75.168H244.288ZM240.4 74.208L240.176 72.064C240.656 71.9787 241.163 71.872 241.696 71.744C242.24 71.616 242.779 71.4773 243.312 71.328C243.856 71.1787 244.357 71.0293 244.816 70.88L244.832 72.96C244.395 73.12 243.915 73.28 243.392 73.44C242.869 73.6 242.347 73.7493 241.824 73.888C241.301 74.016 240.827 74.1227 240.4 74.208ZM241.376 72.24V68.368H240.416V66.224H241.376V63.888H240.256V61.68H244.832V63.888H243.744V66.224H244.736V68.368H243.744V72.24H241.376ZM265.488 72.432C266.021 72.3573 266.507 72.2027 266.944 71.968C267.381 71.7333 267.755 71.4347 268.064 71.072C268.384 70.6987 268.629 70.272 268.8 69.792C268.971 69.3013 269.056 68.7787 269.056 68.224C269.056 67.4133 268.869 66.7147 268.496 66.128C268.133 65.5307 267.621 65.072 266.96 64.752C266.309 64.432 265.563 64.272 264.72 64.272C263.995 64.272 263.312 64.4 262.672 64.656C262.043 64.9013 261.488 65.2427 261.008 65.68C260.528 66.1173 260.149 66.624 259.872 67.2C259.595 67.776 259.456 68.3947 259.456 69.056C259.456 69.4827 259.525 69.904 259.664 70.32C259.803 70.7253 259.979 71.0667 260.192 71.344C260.416 71.6107 260.64 71.744 260.864 71.744C261.195 71.744 261.52 71.3867 261.84 70.672C262.171 69.9467 262.475 68.9067 262.752 67.552C263.04 66.1867 263.296 64.5547 263.52 62.656L266.048 62.928C265.781 65.0187 265.488 66.7893 265.168 68.24C264.859 69.6907 264.507 70.864 264.112 71.76C263.717 72.656 263.264 73.312 262.752 73.728C262.24 74.1333 261.653 74.336 260.992 74.336C260.427 74.336 259.904 74.208 259.424 73.952C258.944 73.6853 258.528 73.3173 258.176 72.848C257.824 72.368 257.552 71.808 257.36 71.168C257.168 70.5173 257.072 69.8133 257.072 69.056C257.072 68.0213 257.259 67.072 257.632 66.208C258.005 65.3333 258.533 64.5813 259.216 63.952C259.899 63.3227 260.709 62.832 261.648 62.48C262.587 62.128 263.616 61.952 264.736 61.952C266.059 61.952 267.232 62.2027 268.256 62.704C269.291 63.1947 270.101 63.9093 270.688 64.848C271.275 65.776 271.568 66.9013 271.568 68.224C271.568 69.088 271.44 69.8933 271.184 70.64C270.939 71.376 270.581 72.032 270.112 72.608C269.643 73.1733 269.077 73.6373 268.416 74C267.765 74.352 267.035 74.5813 266.224 74.688L265.488 72.432ZM273.92 75.232V73.152H279.648V71.184H275.36V69.168H279.648V67.488H276.4V65.472H285.584V67.488H282.272V69.168H286.56V71.184H282.272V73.152H288V75.232H273.92ZM274.096 67.456L273.168 65.376C274.021 64.928 274.8 64.4853 275.504 64.048C276.208 63.6 276.869 63.1307 277.488 62.64C278.107 62.1387 278.72 61.584 279.328 60.976H282.592C283.211 61.584 283.824 62.1387 284.432 62.64C285.051 63.1307 285.712 63.6 286.416 64.048C287.12 64.4853 287.899 64.928 288.752 65.376L287.824 67.456C286.469 66.7947 285.232 66.064 284.112 65.264C282.992 64.464 281.941 63.568 280.96 62.576C279.979 63.568 278.928 64.464 277.808 65.264C276.688 66.064 275.451 66.7947 274.096 67.456ZM298.288 75.552V73.152H295.968V71.184H298.288V65.44H294.288V63.36H298.288V60.928H300.768V63.36H305.104V65.44H300.768V71.184H303.04V73.152H300.768V75.552H298.288ZM291.376 75.552V64.816H293.728V75.552H291.376ZM290.256 70.496L289.712 67.392C290.128 66.8267 290.491 66.2347 290.8 65.616C291.12 64.9867 291.408 64.288 291.664 63.52C291.92 62.7413 292.149 61.856 292.352 60.864L294.688 61.28C294.517 62.432 294.261 63.4987 293.92 64.48C293.589 65.4613 293.2 66.336 292.752 67.104L292.416 66.768C292.331 67.056 292.203 67.3707 292.032 67.712C291.861 68.0533 291.675 68.4053 291.472 68.768C291.269 69.12 291.061 69.4453 290.848 69.744C290.635 70.0427 290.437 70.2933 290.256 70.496ZM294.816 73.696L293.104 71.76C294.053 70.6507 294.875 69.5253 295.568 68.384C296.272 67.2427 296.853 66.0747 297.312 64.88L298.912 65.728C298.581 66.7413 298.219 67.696 297.824 68.592C297.429 69.4773 296.987 70.3413 296.496 71.184C296.005 72.016 295.445 72.8533 294.816 73.696ZM304.16 73.696C303.552 72.8533 303.008 72.0107 302.528 71.168C302.048 70.3253 301.611 69.4613 301.216 68.576C300.821 67.68 300.464 66.7253 300.144 65.712L301.776 64.864C302.181 65.984 302.688 67.0667 303.296 68.112C303.915 69.1573 304.645 70.1973 305.488 71.232L304.16 73.696ZM320.928 75.424C320.309 74.9013 319.717 74.2347 319.152 73.424C318.587 72.6133 318.085 71.7067 317.648 70.704C317.221 69.6907 316.891 68.64 316.656 67.552L318.672 66.976C318.779 67.7867 318.987 68.5813 319.296 69.36C319.605 70.128 320 70.8533 320.48 71.536C320.96 72.2187 321.509 72.8267 322.128 73.36L320.928 75.424ZM307.632 75.552V65.376H309.92V75.552H307.632ZM310.432 75.52L309.712 73.728C310.971 73.2907 312.091 72.8 313.072 72.256C314.064 71.712 314.885 71.1467 315.536 70.56L316.272 71.744C315.621 72.4587 314.795 73.1413 313.792 73.792C312.8 74.4427 311.68 75.0187 310.432 75.52ZM310.464 72.88L309.808 71.216C311.003 70.832 312.048 70.4 312.944 69.92C313.851 69.44 314.597 68.944 315.184 68.432L315.984 69.552C315.355 70.16 314.581 70.7467 313.664 71.312C312.747 71.8773 311.68 72.4 310.464 72.88ZM306.784 70.56L306.336 67.376C306.741 66.832 307.093 66.256 307.392 65.648C307.701 65.0293 307.984 64.3307 308.24 63.552C308.496 62.7733 308.725 61.8773 308.928 60.864L311.296 61.28C311.115 62.4427 310.848 63.52 310.496 64.512C310.155 65.504 309.755 66.384 309.296 67.152L308.864 66.976C308.789 67.2427 308.667 67.5467 308.496 67.888C308.336 68.2187 308.155 68.5547 307.952 68.896C307.76 69.2373 307.563 69.552 307.36 69.84C307.157 70.128 306.965 70.368 306.784 70.56ZM315.984 75.504C315.707 75.504 315.365 75.4933 314.96 75.472C314.555 75.4613 314.059 75.4453 313.472 75.424L313.328 73.456C313.744 73.4773 314.085 73.4987 314.352 73.52C314.619 73.5307 314.832 73.536 314.992 73.536C315.12 73.536 315.216 73.5253 315.28 73.504C315.344 73.472 315.381 73.3973 315.392 73.28C315.413 73.1627 315.424 72.976 315.424 72.72C315.424 72.08 315.349 71.4933 315.2 70.96C315.051 70.416 314.811 69.8987 314.48 69.408C314.149 68.9067 313.707 68.4 313.152 67.888L314.992 66.704C315.557 67.2587 316.037 67.872 316.432 68.544C316.837 69.2053 317.147 69.888 317.36 70.592C317.573 71.296 317.68 71.9947 317.68 72.688C317.68 73.4347 317.621 74.0107 317.504 74.416C317.397 74.8213 317.216 75.104 316.96 75.264C316.715 75.424 316.389 75.504 315.984 75.504ZM310.56 70.4L309.904 68.864C311.035 68.5333 312.032 68.1653 312.896 67.76C313.771 67.344 314.496 66.912 315.072 66.464L315.888 67.328C315.259 67.8933 314.501 68.432 313.616 68.944C312.741 69.456 311.723 69.9413 310.56 70.4ZM311.392 66.976L309.536 65.664C310.005 65.184 310.448 64.6667 310.864 64.112C311.291 63.5573 311.669 62.9813 312 62.384C312.341 61.7867 312.613 61.2053 312.816 60.64L315.232 60.928C315.072 61.5787 314.8 62.2667 314.416 62.992C314.043 63.7173 313.595 64.4267 313.072 65.12C312.56 65.8133 312 66.432 311.392 66.976ZM319.392 72.688L318.048 71.024C318.443 70.64 318.832 70.208 319.216 69.728C319.6 69.248 319.973 68.7253 320.336 68.16L321.888 69.408C321.515 70.0267 321.12 70.6133 320.704 71.168C320.288 71.712 319.851 72.2187 319.392 72.688ZM310.752 68.032V64.608H313.088V66.496H314.928V65.504H317.232V66.496H319.088V65.504H311.792V63.76H321.488V68.032H310.752ZM313.104 63.2V61.52H319.584V63.2H313.104ZM317.776 65.344L315.808 64.24C316 64.0587 316.203 63.8613 316.416 63.648C316.629 63.424 316.827 63.2 317.008 62.976C317.2 62.752 317.355 62.5547 317.472 62.384L319.584 63.2C319.392 63.5093 319.136 63.856 318.816 64.24C318.496 64.624 318.149 64.992 317.776 65.344ZM323.456 74.384C323.84 73.3173 324.176 72.352 324.464 71.488C324.763 70.6133 325.024 69.7867 325.248 69.008C325.483 68.2187 325.691 67.4293 325.872 66.64C326.064 65.84 326.245 64.9867 326.416 64.08C326.587 63.1627 326.768 62.1333 326.96 60.992L329.472 61.264C329.312 62.3413 329.147 63.344 328.976 64.272C328.805 65.1893 328.619 66.0747 328.416 66.928C328.213 67.7707 327.984 68.6187 327.728 69.472C327.483 70.3253 327.205 71.2107 326.896 72.128C326.587 73.0453 326.235 74.048 325.84 75.136L323.456 74.384ZM336.208 72.256C336.133 71.6267 336.027 70.9493 335.888 70.224C335.76 69.4987 335.611 68.768 335.44 68.032C335.28 67.296 335.104 66.592 334.912 65.92L337.344 65.28C337.536 65.984 337.717 66.7093 337.888 67.456C338.059 68.192 338.213 68.9333 338.352 69.68C338.491 70.416 338.603 71.1253 338.688 71.808L336.208 72.256ZM334.832 65.136C334.565 64.5707 334.288 64.0587 334 63.6C333.723 63.1307 333.413 62.656 333.072 62.176L334.624 61.312C334.976 61.7707 335.291 62.2453 335.568 62.736C335.845 63.2267 336.117 63.7653 336.384 64.352L334.832 65.136ZM337.168 64.272C336.912 63.696 336.651 63.1733 336.384 62.704C336.128 62.224 335.835 61.7493 335.504 61.28L337.04 60.48C337.381 60.96 337.68 61.4453 337.936 61.936C338.203 62.4267 338.464 62.9707 338.72 63.568L337.168 64.272ZM331.264 74.688C330.976 74.688 330.624 74.656 330.208 74.592C329.792 74.5387 329.36 74.4587 328.912 74.352C328.464 74.2453 328.037 74.1227 327.632 73.984L328.192 71.856C328.512 71.9413 328.821 72.0267 329.12 72.112C329.419 72.1867 329.691 72.2453 329.936 72.288C330.181 72.3307 330.373 72.352 330.512 72.352C330.8 72.352 331.024 72.2347 331.184 72C331.355 71.7653 331.472 71.36 331.536 70.784C331.611 70.1973 331.648 69.3867 331.648 68.352C331.648 67.808 331.627 67.3707 331.584 67.04C331.541 66.6987 331.467 66.4373 331.36 66.256C331.253 66.0747 331.099 65.952 330.896 65.888C330.693 65.824 330.421 65.792 330.08 65.792H323.328V63.536H329.808C330.619 63.536 331.291 63.568 331.824 63.632C332.357 63.696 332.784 63.824 333.104 64.016C333.424 64.1973 333.664 64.48 333.824 64.864C333.995 65.2373 334.107 65.7387 334.16 66.368C334.213 66.9867 334.24 67.76 334.24 68.688C334.24 70.1387 334.139 71.3067 333.936 72.192C333.744 73.0667 333.429 73.7013 332.992 74.096C332.565 74.4907 331.989 74.688 331.264 74.688ZM351.008 75.344C350.912 75.344 350.816 75.344 350.72 75.344C350.624 75.344 350.523 75.344 350.416 75.344C349.851 75.3333 349.403 75.312 349.072 75.28C348.741 75.248 348.496 75.184 348.336 75.088C348.176 74.992 348.069 74.8587 348.016 74.688C347.973 74.5173 347.952 74.2827 347.952 73.984V71.04H344.144V69.168H350.896V68.272H344.144V66.672H350.896V65.76H344.144V64.16H350.896V63.248H344.144V71.04H341.6V61.232H353.44V71.04H350.496V72.864C350.496 73.1093 350.517 73.2533 350.56 73.296C350.613 73.3387 350.763 73.3653 351.008 73.376C351.061 73.376 351.109 73.376 351.152 73.376C351.195 73.376 351.237 73.376 351.28 73.376C351.333 73.376 351.381 73.376 351.424 73.376C351.467 73.376 351.509 73.376 351.552 73.376C351.733 73.3653 351.872 73.3493 351.968 73.328C352.064 73.296 352.133 73.2267 352.176 73.12C352.229 73.0133 352.261 72.832 352.272 72.576C352.293 72.3093 352.315 71.9467 352.336 71.488L354.752 71.76C354.709 72.4533 354.661 73.024 354.608 73.472C354.565 73.9093 354.491 74.256 354.384 74.512C354.277 74.768 354.112 74.9547 353.888 75.072C353.675 75.1893 353.387 75.2587 353.024 75.28C352.661 75.312 352.197 75.3333 351.632 75.344C351.536 75.344 351.435 75.344 351.328 75.344C351.221 75.344 351.115 75.344 351.008 75.344ZM340.848 75.584L340.16 73.44C341.195 73.28 342.021 73.0613 342.64 72.784C343.269 72.496 343.723 72.1387 344 71.712C344.288 71.2853 344.432 70.7787 344.432 70.192L347.024 70.272C346.939 71.7013 346.389 72.8587 345.376 73.744C344.373 74.6293 342.864 75.2427 340.848 75.584ZM42.88 104.056L41.328 102.152L50.032 95.752V96.392H42.016V94.136H52.864V96.392L48.8 99.512L47.536 99.48C47.5573 99 47.7013 98.6373 47.968 98.392C48.2453 98.136 48.624 98.008 49.104 98.008C49.616 98.008 49.9947 98.104 50.24 98.296C50.4853 98.4773 50.6507 98.712 50.736 99C50.832 99.2773 50.9067 99.5653 50.96 99.864C51.0027 100.131 51.0613 100.387 51.136 100.632C51.2107 100.867 51.3387 101.059 51.52 101.208C51.7013 101.357 51.9733 101.432 52.336 101.432C52.496 101.432 52.7253 101.421 53.024 101.4C53.3227 101.368 53.6373 101.331 53.968 101.288C54.3093 101.235 54.608 101.187 54.864 101.144L55.088 103.4C54.7253 103.485 54.3627 103.555 54 103.608C53.648 103.661 53.3067 103.699 52.976 103.72C52.656 103.752 52.3627 103.768 52.096 103.768C51.392 103.768 50.8267 103.683 50.4 103.512C49.9733 103.352 49.648 103.139 49.424 102.872C49.2 102.605 49.0347 102.323 48.928 102.024C48.832 101.725 48.7573 101.448 48.704 101.192C48.6613 100.979 48.6133 100.803 48.56 100.664C48.5173 100.525 48.4587 100.419 48.384 100.344C48.32 100.269 48.2187 100.232 48.08 100.232C48.016 100.232 47.9467 100.248 47.872 100.28C47.808 100.301 47.7067 100.36 47.568 100.456C47.44 100.552 47.2373 100.701 46.96 100.904L42.88 104.056ZM52.528 93.064C51.7387 93.064 50.8267 93.048 49.792 93.016C48.768 92.9733 47.696 92.92 46.576 92.856C45.4667 92.792 44.3733 92.7173 43.296 92.632L43.568 90.312C44.6667 90.408 45.7493 90.4987 46.816 90.584C47.8827 90.6587 48.9013 90.7173 49.872 90.76C50.8427 90.792 51.728 90.808 52.528 90.808V93.064ZM67.792 103.72C66.448 103.72 65.28 103.496 64.288 103.048C63.296 102.611 62.528 101.987 61.984 101.176C61.44 100.365 61.168 99.4107 61.168 98.312C61.168 97.544 61.296 96.8293 61.552 96.168C61.808 95.5067 62.176 94.92 62.656 94.408C63.1467 93.8853 63.728 93.4693 64.4 93.16L64.656 93.672L57.696 93.832V91.512L71.344 91.192V93.512L69.296 93.56C68.56 93.5707 67.8667 93.6827 67.216 93.896C66.5653 94.1093 65.9947 94.4133 65.504 94.808C65.0133 95.192 64.6293 95.656 64.352 96.2C64.0853 96.744 63.952 97.3573 63.952 98.04C63.952 98.744 64.1013 99.3413 64.4 99.832C64.6987 100.312 65.136 100.685 65.712 100.952C66.2987 101.208 66.9973 101.336 67.808 101.336C68.1067 101.336 68.4427 101.32 68.816 101.288C69.1893 101.256 69.536 101.208 69.856 101.144L70.144 103.528C69.7493 103.592 69.344 103.64 68.928 103.672C68.5227 103.704 68.144 103.72 67.792 103.72ZM81.968 104.008C80.6347 104.008 79.4827 103.875 78.512 103.608C77.552 103.341 76.8107 102.963 76.288 102.472C75.7653 101.971 75.504 101.379 75.504 100.696C75.504 100.195 75.6427 99.7147 75.92 99.256C76.208 98.7867 76.592 98.408 77.072 98.12L79.328 99C78.9973 99.224 78.7467 99.4587 78.576 99.704C78.4053 99.9493 78.32 100.195 78.32 100.44C78.32 100.728 78.448 100.973 78.704 101.176C78.9707 101.368 79.36 101.517 79.872 101.624C80.3947 101.72 81.0293 101.768 81.776 101.768C82.544 101.768 83.3653 101.72 84.24 101.624C85.1147 101.517 85.9413 101.373 86.72 101.192L87.072 103.432C86.2613 103.624 85.4133 103.768 84.528 103.864C83.6533 103.96 82.8 104.008 81.968 104.008ZM74.8 97.496V95.368L87.76 95.048V97.176L74.8 97.496ZM83.152 100.44C82.8213 99.6507 82.5173 98.8293 82.24 97.976C81.9733 97.1227 81.7333 96.2533 81.52 95.368C81.3173 94.4827 81.152 93.592 81.024 92.696C80.896 91.7893 80.8053 90.8827 80.752 89.976L83.328 89.832C83.3813 90.696 83.4667 91.5493 83.584 92.392C83.712 93.2347 83.8773 94.072 84.08 94.904C84.2827 95.7253 84.528 96.552 84.816 97.384C85.104 98.216 85.4293 99.0533 85.792 99.896L83.152 100.44ZM74.96 93.944V91.832L87.6 91.512V93.624L74.96 93.944ZM91.184 103.672C91.6107 102.243 91.9947 100.792 92.336 99.32C92.688 97.848 92.9973 96.344 93.264 94.808C93.5413 93.2613 93.7867 91.6773 94 90.056L96.592 90.168C96.4107 91.736 96.1813 93.3093 95.904 94.888C95.6373 96.456 95.328 98.0133 94.976 99.56C94.624 101.096 94.2293 102.616 93.792 104.12L91.184 103.672ZM101.36 103.848C100.325 103.848 99.4347 103.725 98.688 103.48C97.952 103.245 97.3813 102.909 96.976 102.472C96.5707 102.024 96.368 101.491 96.368 100.872C96.368 100.445 96.496 100.035 96.752 99.64C97.008 99.2347 97.4027 98.824 97.936 98.408L100.144 99.336C99.8027 99.56 99.5413 99.784 99.36 100.008C99.1787 100.221 99.088 100.419 99.088 100.6C99.088 100.792 99.1787 100.957 99.36 101.096C99.552 101.235 99.8187 101.341 100.16 101.416C100.501 101.491 100.901 101.528 101.36 101.528C101.851 101.528 102.341 101.501 102.832 101.448C103.333 101.395 103.872 101.315 104.448 101.208L104.72 103.528C104.112 103.645 103.547 103.725 103.024 103.768C102.512 103.821 101.957 103.848 101.36 103.848ZM90.96 94.152V91.912H102.48V94.152H90.96ZM97.104 95.464C98.3733 95.3467 99.6213 95.2613 100.848 95.208C102.085 95.144 103.317 95.112 104.544 95.112V97.368C103.339 97.368 102.128 97.4 100.912 97.464C99.7067 97.5173 98.4853 97.6027 97.248 97.72L97.104 95.464Z" fill="#282828"/>
<path opacity="0.6" d="M49.016 126.68C49.016 124.09 50.122 121.808 52.432 119.946C52.558 119.834 52.712 119.778 52.852 119.778C53.118 119.778 53.37 120.016 53.37 120.282C53.37 120.464 53.3 120.59 53.16 120.716C51.144 122.438 50.304 124.384 50.304 126.68C50.304 128.976 51.144 130.922 53.16 132.644C53.3 132.77 53.37 132.896 53.37 133.078C53.37 133.344 53.118 133.582 52.852 133.582C52.712 133.582 52.558 133.526 52.432 133.414C50.122 131.552 49.016 129.27 49.016 126.68ZM58.76 129.564H55.428C54.77 129.564 54.406 129.228 54.406 128.612C54.406 128.234 54.476 127.996 54.714 127.604L57.934 122.172C58.284 121.584 58.606 121.36 59.222 121.36C60.006 121.36 60.314 121.766 60.314 122.592V128.262H61.154C61.644 128.262 61.896 128.486 61.896 128.906C61.896 129.326 61.644 129.564 61.154 129.564H60.314V131.216C60.314 131.72 60.02 132 59.516 132C59.026 132 58.76 131.72 58.76 131.216V129.564ZM58.76 128.262V125.686C58.76 124.748 58.802 123.838 58.872 122.9H58.774C58.41 123.726 58.018 124.524 57.528 125.378L55.876 128.262H58.76ZM66.4152 121.318C68.5432 121.318 69.9572 122.83 69.9572 126.708C69.9572 130.586 68.5432 132.098 66.4152 132.098C64.2872 132.098 62.9012 130.586 62.9012 126.708C62.9012 122.83 64.2872 121.318 66.4152 121.318ZM66.4152 122.718C65.2532 122.718 64.5532 123.698 64.5532 126.708C64.5532 129.718 65.2532 130.698 66.4152 130.698C67.5912 130.698 68.3052 129.718 68.3052 126.708C68.3052 123.698 67.5912 122.718 66.4152 122.718ZM73.0903 132.7V126.092C72.8523 126.456 72.6003 126.806 72.3483 127.114C72.1663 127.338 71.9423 127.436 71.7323 127.436C71.3263 127.436 70.9483 127.1 70.9483 126.694C70.9483 126.526 71.0043 126.358 71.1443 126.176C72.2503 124.804 73.2723 122.69 73.8323 120.814C73.9443 120.45 74.2523 120.282 74.5743 120.282C74.9943 120.282 75.4143 120.548 75.4143 120.996C75.4143 121.066 75.4003 121.15 75.3723 121.234C75.0643 122.284 74.5603 123.46 73.9863 124.552C74.3223 124.594 74.6163 124.79 74.6163 125.154V132.7C74.6163 133.078 74.2383 133.274 73.8603 133.274C73.4683 133.274 73.0903 133.078 73.0903 132.7ZM79.2503 124.258L83.1003 123.922H83.1563C83.5343 123.922 83.7303 124.286 83.7303 124.65C83.7303 124.972 83.5763 125.28 83.2263 125.308L79.4323 125.644C79.6283 126.848 79.9223 127.954 80.3283 128.92C81.1123 130.782 81.7563 131.244 82.1763 131.244C82.3583 131.244 82.5263 131.062 82.6243 130.152C82.6663 129.718 82.9883 129.522 83.3243 129.522C83.7023 129.522 84.1083 129.788 84.1083 130.264V130.362C83.9123 132.308 83.1843 132.896 82.2463 132.896C81.0143 132.896 79.8243 131.72 78.8303 129.34C78.3963 128.29 78.0743 127.1 77.8643 125.77L75.8203 125.952H75.7643C75.3863 125.952 75.1903 125.588 75.1903 125.238C75.1903 124.916 75.3583 124.608 75.6943 124.58L77.6963 124.398C77.5843 123.306 77.5283 122.13 77.5283 120.898C77.5283 120.464 77.9203 120.254 78.3123 120.254C78.7043 120.254 79.0963 120.464 79.0963 120.898C79.0963 122.088 79.1383 123.208 79.2503 124.258ZM80.9023 121.192C81.2803 121.472 81.6303 121.766 81.9243 122.06C82.0923 122.242 82.1763 122.438 82.1763 122.606C82.1763 123.012 81.8123 123.362 81.4203 123.362C81.2523 123.362 81.0703 123.278 80.9163 123.11C80.6223 122.774 80.3143 122.48 79.9643 122.2C79.7963 122.06 79.7123 121.892 79.7123 121.724C79.7123 121.374 80.0483 121.024 80.4403 121.024C80.5943 121.024 80.7483 121.08 80.9023 121.192ZM85.3683 132.42L96.9043 120.156C97.0303 120.03 97.1703 119.932 97.2963 119.932C97.6603 119.932 97.9683 120.226 97.9683 120.506C97.9683 120.66 97.9123 120.8 97.7723 120.94L86.2363 133.204C86.1103 133.33 85.9703 133.428 85.8443 133.428C85.4803 133.428 85.1723 133.134 85.1723 132.854C85.1723 132.7 85.2283 132.56 85.3683 132.42ZM111.408 124.874H109.378C109.238 125.42 109.028 126.12 108.776 126.722C108.412 127.59 107.95 128.388 107.39 129.116C108.524 129.69 109.644 130.334 110.652 131.048C110.918 131.23 111.03 131.482 111.03 131.72C111.03 132.14 110.666 132.546 110.218 132.546C110.05 132.546 109.868 132.49 109.686 132.364C108.636 131.594 107.474 130.88 106.312 130.278C104.744 131.664 102.784 132.462 100.572 132.882C100.502 132.896 100.446 132.896 100.376 132.896C99.9143 132.896 99.6483 132.546 99.6483 132.182C99.6483 131.874 99.8443 131.552 100.278 131.468C102.07 131.118 103.61 130.544 104.856 129.564C104.184 129.284 103.526 129.004 102.84 128.766L102.784 128.864C102.588 129.2 102.294 129.34 102.014 129.34C101.608 129.34 101.216 129.06 101.216 128.654C101.216 128.542 101.244 128.416 101.328 128.276C101.972 127.156 102.546 126.036 103.022 124.874H99.7323C99.3683 124.874 99.1723 124.538 99.1723 124.202C99.1723 123.866 99.3683 123.53 99.7323 123.53H103.54C103.862 122.62 104.142 121.668 104.422 120.646C104.52 120.296 104.842 120.128 105.164 120.128C105.57 120.128 105.976 120.366 105.976 120.786C105.976 120.842 105.962 120.898 105.948 120.968C105.71 121.85 105.458 122.704 105.164 123.53H111.408C111.786 123.53 111.982 123.866 111.982 124.202C111.982 124.538 111.786 124.874 111.408 124.874ZM107.726 124.874H104.674C104.296 125.784 103.904 126.68 103.47 127.562C104.324 127.828 105.164 128.122 105.976 128.472C106.83 127.436 107.404 126.176 107.726 124.874ZM121.18 131.356V128.584H119.052C118.702 128.584 118.534 128.234 118.534 127.898C118.534 127.548 118.702 127.212 119.052 127.212H121.18V124.874H119.57C119.402 125.252 119.22 125.616 119.038 125.952C118.856 126.288 118.562 126.428 118.296 126.428C117.932 126.428 117.596 126.176 117.596 125.784C117.596 125.644 117.638 125.49 117.736 125.322C118.282 124.384 118.716 123.236 118.996 121.976C119.08 121.598 119.388 121.416 119.682 121.416C120.046 121.416 120.41 121.668 120.41 122.088C120.41 122.144 120.41 122.186 120.396 122.242C120.312 122.676 120.2 123.11 120.06 123.53H121.18V120.87C121.18 120.45 121.558 120.24 121.936 120.24C122.314 120.24 122.692 120.45 122.692 120.87V123.53H125.254C125.618 123.53 125.8 123.866 125.8 124.202C125.8 124.538 125.618 124.874 125.254 124.874H122.692V127.212H124.75C125.1 127.212 125.282 127.548 125.282 127.898C125.282 128.234 125.1 128.584 124.75 128.584H122.692V131.356H125.548C125.898 131.356 126.08 131.692 126.08 132.042C126.08 132.378 125.898 132.728 125.548 132.728H117.834C117.498 132.728 117.316 132.378 117.316 132.042C117.316 131.692 117.498 131.356 117.834 131.356H121.18ZM116.294 120.772V132.616C116.294 133.036 115.916 133.246 115.538 133.246C115.146 133.246 114.768 133.036 114.768 132.616V120.772C114.768 120.352 115.146 120.156 115.538 120.156C115.916 120.156 116.294 120.352 116.294 120.772ZM113.452 123.558C113.494 123.236 113.746 123.082 113.998 123.082C114.292 123.082 114.572 123.278 114.572 123.628V123.698C114.516 124.328 114.362 125.168 114.18 125.77C114.082 126.078 113.844 126.218 113.606 126.218C113.312 126.218 113.032 126.008 113.032 125.686C113.032 125.63 113.032 125.56 113.06 125.49C113.242 124.902 113.382 124.104 113.452 123.558ZM117.512 123.012C117.652 123.432 117.778 123.936 117.834 124.314V124.412C117.834 124.79 117.526 125.014 117.246 125.014C117.008 125.014 116.784 124.874 116.728 124.552C116.658 124.132 116.56 123.6 116.462 123.264C116.448 123.208 116.434 123.138 116.434 123.082C116.434 122.788 116.7 122.606 116.966 122.606C117.19 122.606 117.414 122.732 117.512 123.012ZM131.554 126.68C131.554 129.27 130.448 131.552 128.138 133.414C128.012 133.526 127.858 133.582 127.718 133.582C127.452 133.582 127.2 133.344 127.2 133.078C127.2 132.896 127.27 132.77 127.41 132.644C129.426 130.922 130.266 128.976 130.266 126.68C130.266 124.384 129.426 122.438 127.41 120.716C127.27 120.59 127.2 120.464 127.2 120.282C127.2 120.016 127.452 119.778 127.718 119.778C127.858 119.778 128.012 119.834 128.138 119.946C130.448 121.808 131.554 124.09 131.554 126.68Z" fill="#282828"/>
<path d="M332.177 203L314.177 161L283 161L332.177 203Z" fill="#E18965"/>
</svg>
