<svg width="400" height="279" viewBox="0 0 400 279" fill="none" xmlns="http://www.w3.org/2000/svg">
<rect width="400" height="182" rx="80" fill="#54B6CB"/>
<path d="M43.34 52.94V43.56H40.74V41.06H43.42V34.66H46.08V41.06H48.4V43.56H46.14V52.94H43.34ZM41.42 51.14L40.26 48.02C41.06 47.0333 41.7 46.0267 42.18 45C42.6733 43.9733 43.04 42.8867 43.28 41.74L44.36 42.5C44.2933 43.6467 44.12 44.7667 43.84 45.86C43.5733 46.94 43.2267 47.9333 42.8 48.84C42.3867 49.7467 41.9267 50.5133 41.42 51.14ZM47.18 49.08C46.7533 48.0667 46.32 47.06 45.88 46.06C45.4533 45.0467 44.9933 43.9867 44.5 42.88L46.16 41.98C46.64 42.9 47.1067 43.8067 47.56 44.7C48.0133 45.58 48.4733 46.4933 48.94 47.44L47.18 49.08ZM41.64 40.76C41.4533 40 41.2533 39.22 41.04 38.42C40.8267 37.62 40.62 36.8933 40.42 36.24L42.46 35.5C42.6733 36.1667 42.8733 36.8933 43.06 37.68C43.26 38.4533 43.44 39.24 43.6 40.04L41.64 40.76ZM48.36 50.4L48.1 47.72L59.54 45.58L59.8 48.26L48.36 50.4ZM52.18 46.3C51.5933 45.66 50.9667 44.9933 50.3 44.3C49.6333 43.6067 48.9267 42.9133 48.18 42.22L50.26 40.3C51.0067 40.98 51.7133 41.66 52.38 42.34C53.06 43.0067 53.6867 43.6667 54.26 44.32L52.18 46.3ZM47.78 40.78L45.74 39.96C46.0067 39.2533 46.2467 38.4933 46.46 37.68C46.6733 36.8667 46.84 36.1067 46.96 35.4L49.16 35.88C49 36.6533 48.7933 37.4733 48.54 38.34C48.3 39.1933 48.0467 40.0067 47.78 40.78ZM54.92 52.94V34.66H58.02V52.94H54.92ZM52.98 40.98C52.4733 40.4067 51.9267 39.82 51.34 39.22C50.7533 38.62 50.14 38.0133 49.5 37.4L51.58 35.5C52.22 36.0867 52.8333 36.6733 53.42 37.26C54.0067 37.8467 54.5533 38.42 55.06 38.98L52.98 40.98ZM65.76 52.46V49.94H71.26V48.54H66.84V46.2H71.26V40.94H69.6V39.04H71.26V37.36H74.38V39.04H76.06V37.36H69.6V44.86H66.92V34.94H78.8V44.86H69.6V42.66H76.06V40.94H74.38V46.2H79.04V48.54H74.38V49.94H79.26V52.46H65.76ZM60.9 51.26L60.62 48.58C61.22 48.4733 61.8533 48.34 62.52 48.18C63.2 48.02 63.8733 47.8467 64.54 47.66C65.22 47.4733 65.8467 47.2867 66.42 47.1L66.44 49.7C65.8933 49.9 65.2933 50.1 64.64 50.3C63.9867 50.5 63.3333 50.6867 62.68 50.86C62.0267 51.02 61.4333 51.1533 60.9 51.26ZM62.12 48.8V43.96H60.92V41.28H62.12V38.36H60.72V35.6H66.44V38.36H65.08V41.28H66.32V43.96H65.08V48.8H62.12ZM85.84 48.68C87.8133 48.68 89.3933 48.5667 90.58 48.34C91.7667 48.1 92.62 47.7267 93.14 47.22C93.6733 46.7133 93.94 46.0467 93.94 45.22C93.94 44.34 93.66 43.7 93.1 43.3C92.5533 42.9 91.6733 42.7 90.46 42.7C89.9267 42.7 89.34 42.7467 88.7 42.84C88.06 42.92 87.3133 43.0467 86.46 43.22C85.62 43.38 84.62 43.6067 83.46 43.9L82.88 40.94C84.64 40.5533 86.1533 40.2667 87.42 40.08C88.6867 39.8933 89.7667 39.8 90.66 39.8C92.7667 39.8 94.3667 40.24 95.46 41.12C96.5533 42 97.1 43.28 97.1 44.96C97.1 47.12 96.1667 48.7533 94.3 49.86C92.4467 50.9667 89.6933 51.52 86.04 51.52L85.84 48.68ZM113.94 51.9C112.26 51.9 110.8 51.62 109.56 51.06C108.32 50.5133 107.36 49.7333 106.68 48.72C106 47.7067 105.66 46.5133 105.66 45.14C105.66 44.18 105.82 43.2867 106.14 42.46C106.46 41.6333 106.92 40.9 107.52 40.26C108.133 39.6067 108.86 39.0867 109.7 38.7L110.02 39.34L101.32 39.54V36.64L118.38 36.24V39.14L115.82 39.2C114.9 39.2133 114.033 39.3533 113.22 39.62C112.407 39.8867 111.693 40.2667 111.08 40.76C110.467 41.24 109.987 41.82 109.64 42.5C109.307 43.18 109.14 43.9467 109.14 44.8C109.14 45.68 109.327 46.4267 109.7 47.04C110.073 47.64 110.62 48.1067 111.34 48.44C112.073 48.76 112.947 48.92 113.96 48.92C114.333 48.92 114.753 48.9 115.22 48.86C115.687 48.82 116.12 48.76 116.52 48.68L116.88 51.66C116.387 51.74 115.88 51.8 115.36 51.84C114.853 51.88 114.38 51.9 113.94 51.9ZM128.36 45.86C128.36 45.8067 128.36 45.76 128.36 45.72C128.36 45.6667 128.36 45.62 128.36 45.58V44.48H122.9V42.34H128.36V41.4H122.7V39.16H128.36V37.88H131.64V39.16H137.3V41.4H131.64V42.34H137.1V44.48H131.64V45.58C131.64 45.62 131.64 45.6667 131.64 45.72C131.64 45.76 131.64 45.8067 131.64 45.86H128.36ZM121.98 52.86L120.88 50.16C122.107 50 123.173 49.8067 124.08 49.58C125 49.34 125.753 49.0667 126.34 48.76C126.94 48.4533 127.4 48.1267 127.72 47.78H132.28C132.587 48.1133 133.04 48.4333 133.64 48.74C134.24 49.0467 134.993 49.32 135.9 49.56C136.807 49.8 137.88 50 139.12 50.16L138.02 52.86C136.847 52.6733 135.76 52.3933 134.76 52.02C133.773 51.66 132.893 51.24 132.12 50.76C131.347 50.28 130.693 49.7733 130.16 49.24C129.627 49.7733 128.953 50.28 128.14 50.76C127.34 51.24 126.42 51.66 125.38 52.02C124.34 52.3933 123.207 52.6733 121.98 52.86ZM120.98 47.9V45.46H139.02V47.9H120.98ZM121.16 39.86V35.82H128.36V34.44H131.64V35.82H138.84V39.86H135.9V38.2H124.1V39.86H121.16ZM149.32 52.9L148.26 50.16C149.34 49.8267 150.193 49.4667 150.82 49.08C151.447 48.6933 151.893 48.26 152.16 47.78C152.44 47.3 152.58 46.74 152.58 46.1V43.54H151.66V47.74H149.36V41.28H152.58V40.48H151.06V38.14H156.94V40.48H155.4V41.28H158.72V47.74H151.66V45.54H156.34V43.54H155.4V46.1C155.4 46.74 155.247 47.4 154.94 48.08C154.647 48.7467 154.227 49.3867 153.68 50C153.147 50.6133 152.507 51.1733 151.76 51.68C151.027 52.1867 150.213 52.5933 149.32 52.9ZM141.84 52.26L140.3 51.74C140.487 50.82 140.633 49.9467 140.74 49.12C140.847 48.2933 140.92 47.4333 140.96 46.54L142.42 46.8C142.393 47.68 142.327 48.5867 142.22 49.52C142.127 50.44 142 51.3533 141.84 52.26ZM142.92 51.84C142.907 51.04 142.873 50.2333 142.82 49.42C142.78 48.6067 142.733 47.7467 142.68 46.84L143.94 46.64C144.02 47.52 144.087 48.38 144.14 49.22C144.193 50.0467 144.233 50.8533 144.26 51.64L142.92 51.84ZM144.68 50.76C144.627 50.12 144.56 49.48 144.48 48.84C144.4 48.1867 144.313 47.5133 144.22 46.82L145.44 46.58C145.547 47.26 145.64 47.9333 145.72 48.6C145.813 49.2533 145.887 49.9 145.94 50.54L144.68 50.76ZM146.2 49.64C146.147 49.1333 146.08 48.64 146 48.16C145.92 47.68 145.833 47.1933 145.74 46.7L146.84 46.5C146.933 46.98 147.02 47.4667 147.1 47.96C147.18 48.44 147.247 48.9333 147.3 49.44L146.2 49.64ZM146.84 52.88C146.653 52.88 146.407 52.8733 146.1 52.86C145.793 52.8467 145.453 52.8133 145.08 52.76L144.92 50.16C145.053 50.1867 145.227 50.2067 145.44 50.22C145.653 50.2333 145.853 50.2467 146.04 50.26C146.227 50.2733 146.347 50.28 146.4 50.28C146.493 50.28 146.567 50.2533 146.62 50.2C146.673 50.1467 146.707 50 146.72 49.76C146.747 49.5067 146.76 49.1 146.76 48.54C146.773 47.9667 146.78 47.16 146.78 46.12H141.06V35.04H149.1V37.46H147.48V44.02H145.02V37.46H143.88V38.46H148.86V40.24H143.88V41.22H148.8V43H143.88V44.02H148.9V46.28C148.9 47.76 148.867 48.9467 148.8 49.84C148.733 50.72 148.62 51.3733 148.46 51.8C148.313 52.24 148.107 52.5267 147.84 52.66C147.573 52.8067 147.24 52.88 146.84 52.88ZM158.68 52.9C157.587 52.5 156.62 51.94 155.78 51.22C154.94 50.5 154.28 49.7 153.8 48.82C153.32 47.94 153.08 47.06 153.08 46.18H155.4C155.4 46.8067 155.527 47.3533 155.78 47.82C156.033 48.2867 156.473 48.7067 157.1 49.08C157.727 49.4533 158.6 49.8133 159.72 50.16L158.68 52.9ZM149.26 41.32L148.24 38.68C148.867 38.24 149.427 37.8133 149.92 37.4C150.413 36.9733 150.887 36.5267 151.34 36.06C151.793 35.58 152.247 35.0467 152.7 34.46H155.3C155.767 35.0333 156.22 35.5533 156.66 36.02C157.113 36.4733 157.58 36.9067 158.06 37.32C158.553 37.7333 159.107 38.16 159.72 38.6L158.7 41.32C157.793 40.68 156.953 39.9733 156.18 39.2C155.407 38.4133 154.68 37.54 154 36.58C153.307 37.54 152.573 38.4133 151.8 39.2C151.027 39.9733 150.18 40.68 149.26 41.32ZM165.96 51.96C165.293 51.96 164.66 51.8133 164.06 51.52C163.46 51.2267 162.92 50.8333 162.44 50.34C161.973 49.8333 161.607 49.2667 161.34 48.64C161.073 48.0133 160.94 47.3533 160.94 46.66C160.94 45.58 161.28 44.66 161.96 43.9C162.653 43.14 163.647 42.5533 164.94 42.14C166.233 41.7267 167.773 41.52 169.56 41.52C171.36 41.52 173.073 41.7533 174.7 42.22C176.34 42.6867 177.947 43.4 179.52 44.36L178.4 47.1C177.387 46.4333 176.407 45.9 175.46 45.5C174.527 45.0867 173.58 44.7933 172.62 44.62C171.673 44.4333 170.653 44.34 169.56 44.34C167.8 44.34 166.433 44.5467 165.46 44.96C164.487 45.36 164 45.9267 164 46.66C164 46.9 164.04 47.14 164.12 47.38C164.213 47.62 164.34 47.84 164.5 48.04C164.66 48.24 164.827 48.4067 165 48.54C165.173 48.66 165.353 48.72 165.54 48.72C165.913 48.72 166.247 48.4867 166.54 48.02C166.833 47.54 167.08 46.8467 167.28 45.94C167.48 45.02 167.627 43.88 167.72 42.52C167.827 41.16 167.88 39.5867 167.88 37.8L168.66 38.72H161.86V35.98H171.22V36.18C171.22 38.9 171.113 41.2533 170.9 43.24C170.7 45.2267 170.387 46.8667 169.96 48.16C169.533 49.44 168.987 50.3933 168.32 51.02C167.653 51.6467 166.867 51.96 165.96 51.96ZM171.08 50.04C171.56 49.68 171.96 49.3333 172.28 49C172.6 48.6533 172.86 48.26 173.06 47.82C173.26 47.3667 173.407 46.8133 173.5 46.16C173.607 45.5067 173.673 44.7067 173.7 43.76C173.74 42.8 173.76 41.6267 173.76 40.24V36.54H176.92V40.42C176.92 41.9667 176.887 43.3 176.82 44.42C176.767 45.54 176.667 46.5067 176.52 47.32C176.373 48.12 176.167 48.8133 175.9 49.4C175.647 49.9733 175.313 50.4933 174.9 50.96C174.487 51.4267 173.98 51.8867 173.38 52.34L171.08 50.04ZM181.58 51.84C182.113 50.0533 182.593 48.24 183.02 46.4C183.46 44.56 183.847 42.68 184.18 40.76C184.527 38.8267 184.833 36.8467 185.1 34.82L188.34 34.96C188.113 36.92 187.827 38.8867 187.48 40.86C187.147 42.82 186.76 44.7667 186.32 46.7C185.88 48.62 185.387 50.52 184.84 52.4L181.58 51.84ZM194.3 52.06C193.007 52.06 191.893 51.9067 190.96 51.6C190.04 51.3067 189.327 50.8867 188.82 50.34C188.313 49.78 188.06 49.1133 188.06 48.34C188.06 47.8067 188.22 47.2933 188.54 46.8C188.86 46.2933 189.353 45.78 190.02 45.26L192.78 46.42C192.353 46.7 192.027 46.98 191.8 47.26C191.573 47.5267 191.46 47.7733 191.46 48C191.46 48.24 191.573 48.4467 191.8 48.62C192.04 48.7933 192.373 48.9267 192.8 49.02C193.227 49.1133 193.727 49.16 194.3 49.16C194.913 49.16 195.527 49.1267 196.14 49.06C196.767 48.9933 197.44 48.8933 198.16 48.76L198.5 51.66C197.74 51.8067 197.033 51.9067 196.38 51.96C195.74 52.0267 195.047 52.06 194.3 52.06ZM181.3 39.94V37.14H195.7V39.94H181.3ZM188.98 41.58C190.567 41.4333 192.127 41.3267 193.66 41.26C195.207 41.18 196.747 41.14 198.28 41.14V43.96C196.773 43.96 195.26 44 193.74 44.08C192.233 44.1467 190.707 44.2533 189.16 44.4L188.98 41.58ZM206.34 51.84C205.607 51.84 204.94 51.6333 204.34 51.22C203.74 50.8067 203.22 50.22 202.78 49.46C202.353 48.7 202.02 47.7933 201.78 46.74C201.553 45.6867 201.44 44.52 201.44 43.24C201.44 42.2267 201.527 41.1733 201.7 40.08C201.873 38.9867 202.14 37.7867 202.5 36.48L205.7 36.84C205.367 38.0133 205.12 39.0867 204.96 40.06C204.8 41.0333 204.72 41.9667 204.72 42.86C204.72 43.6467 204.767 44.3733 204.86 45.04C204.967 45.7067 205.107 46.2867 205.28 46.78C205.453 47.2733 205.653 47.66 205.88 47.94C206.12 48.2067 206.373 48.34 206.64 48.34C206.907 48.34 207.2 48.22 207.52 47.98C207.853 47.74 208.193 47.4133 208.54 47C208.9 46.5733 209.24 46.0933 209.56 45.56C209.88 45.0133 210.153 44.4467 210.38 43.86L213.28 45.38C212.933 46.3 212.5 47.1533 211.98 47.94C211.473 48.7267 210.907 49.4133 210.28 50C209.653 50.5867 209.007 51.04 208.34 51.36C207.673 51.68 207.007 51.84 206.34 51.84ZM215.82 49.86C215.82 48.34 215.72 46.8267 215.52 45.32C215.333 43.8133 215.053 42.3533 214.68 40.94C214.32 39.5267 213.873 38.2067 213.34 36.98L216.36 36.12C216.96 37.3867 217.46 38.76 217.86 40.24C218.273 41.7067 218.58 43.2467 218.78 44.86C218.993 46.4733 219.1 48.14 219.1 49.86H215.82ZM233.14 52.1C231.46 52.1 230 51.8133 228.76 51.24C227.52 50.6667 226.56 49.86 225.88 48.82C225.2 47.78 224.86 46.5533 224.86 45.14C224.86 44.1533 225.02 43.2333 225.34 42.38C225.66 41.5267 226.12 40.7667 226.72 40.1C227.333 39.4333 228.06 38.9 228.9 38.5L229.22 39.14L220.52 39.34V36.44L237.58 36.04V38.94L235.02 39C234.087 39.0133 233.213 39.16 232.4 39.44C231.587 39.72 230.873 40.1133 230.26 40.62C229.647 41.1267 229.173 41.7333 228.84 42.44C228.507 43.1333 228.34 43.92 228.34 44.8C228.34 45.7067 228.527 46.4867 228.9 47.14C229.273 47.78 229.82 48.2733 230.54 48.62C231.273 48.9533 232.147 49.12 233.16 49.12C233.4 49.12 233.667 49.1133 233.96 49.1C234.253 49.0733 234.553 49.0467 234.86 49.02C235.167 48.98 235.453 48.9333 235.72 48.88L236.08 51.86C235.76 51.9 235.427 51.94 235.08 51.98C234.733 52.02 234.393 52.0467 234.06 52.06C233.727 52.0867 233.42 52.1 233.14 52.1ZM234.56 46.06C234.24 45.3667 233.9 44.7067 233.54 44.08C233.18 43.4533 232.767 42.8133 232.3 42.16L234.36 41.04C234.827 41.6933 235.24 42.34 235.6 42.98C235.973 43.62 236.327 44.3 236.66 45.02L234.56 46.06ZM237.82 44.96C237.513 44.2533 237.187 43.5867 236.84 42.96C236.493 42.32 236.1 41.6733 235.66 41.02L237.72 39.96C238.16 40.64 238.553 41.3 238.9 41.94C239.26 42.58 239.593 43.2667 239.9 44L237.82 44.96ZM241.36 52.84V39.12H258.64V52.84H255.54V52.16H244.46V49.94H251.48V48.36H248.52V46.46H251.48V44.88H248.52V42.96H251.48V41.42H254.22V49.94H255.54V41.42H248.52V49.94H245.78V41.42H244.46V52.84H241.36ZM250.72 40.68L247.36 40.16C247.56 39.5733 247.74 38.9667 247.9 38.34C248.073 37.7 248.227 37.0267 248.36 36.32L251.72 36.82C251.587 37.5267 251.433 38.2 251.26 38.84C251.087 39.48 250.907 40.0933 250.72 40.68ZM241.1 37.54V34.94H258.9V37.54H241.1ZM261.8 52.64V36.88H278.2V52.64H275.02V51.56H264.98V49.06H275.02V45.44H264.98V42.92H275.02V39.48H264.98V52.64H261.8ZM270.32 38.36L267.08 38C267.293 37.4133 267.487 36.8067 267.66 36.18C267.847 35.54 268.013 34.8667 268.16 34.16L271.44 34.52C271.293 35.2267 271.12 35.9 270.92 36.54C270.733 37.18 270.533 37.7867 270.32 38.36ZM286.34 51.84C285.607 51.84 284.94 51.6333 284.34 51.22C283.74 50.8067 283.22 50.22 282.78 49.46C282.353 48.7 282.02 47.7933 281.78 46.74C281.553 45.6867 281.44 44.52 281.44 43.24C281.44 42.2267 281.527 41.1733 281.7 40.08C281.873 38.9867 282.14 37.7867 282.5 36.48L285.7 36.84C285.367 38.0133 285.12 39.0867 284.96 40.06C284.8 41.0333 284.72 41.9667 284.72 42.86C284.72 43.6467 284.767 44.3733 284.86 45.04C284.967 45.7067 285.107 46.2867 285.28 46.78C285.453 47.2733 285.653 47.66 285.88 47.94C286.12 48.2067 286.373 48.34 286.64 48.34C286.907 48.34 287.2 48.22 287.52 47.98C287.853 47.74 288.193 47.4133 288.54 47C288.9 46.5733 289.24 46.0933 289.56 45.56C289.88 45.0133 290.153 44.4467 290.38 43.86L293.28 45.38C292.933 46.3 292.5 47.1533 291.98 47.94C291.473 48.7267 290.907 49.4133 290.28 50C289.653 50.5867 289.007 51.04 288.34 51.36C287.673 51.68 287.007 51.84 286.34 51.84ZM295.82 49.86C295.82 48.34 295.72 46.8267 295.52 45.32C295.333 43.8133 295.053 42.3533 294.68 40.94C294.32 39.5267 293.873 38.2067 293.34 36.98L296.36 36.12C296.96 37.3867 297.46 38.76 297.86 40.24C298.273 41.7067 298.58 43.2467 298.78 44.86C298.993 46.4733 299.1 48.14 299.1 49.86H295.82ZM308.42 46.36L307.92 36.4H312L311.5 46.36H308.42ZM308.2 51V47.86H311.72V51H308.2ZM325.958 52.26V50.32H331.778V48.32H327.138V46.5H331.778V40.72H329.398V39.08H331.778V37.02H334.158V39.08H336.538V37.02H329.398V44.66H327.198V35.14H338.738V44.66H329.398V42.88H336.538V40.72H334.158V46.5H339.038V48.32H334.158V50.32H339.318V52.26H325.958ZM320.978 51.06L320.758 49.02C321.358 48.8733 321.984 48.7133 322.638 48.54C323.304 48.3533 323.964 48.1533 324.618 47.94C325.284 47.7133 325.931 47.4867 326.558 47.26L326.618 49.24C326.018 49.48 325.391 49.7133 324.738 49.94C324.084 50.1667 323.438 50.3733 322.798 50.56C322.158 50.7467 321.551 50.9133 320.978 51.06ZM322.558 48.96V43.62H321.058V41.56H322.558V37.86H320.858V35.76H326.578V37.86H324.838V41.56H326.458V43.62H324.838V48.96H322.558ZM47.58 88.74V77.92H58.94V86.1C58.94 86.8867 58.9067 87.46 58.84 87.82C58.7867 88.1933 58.6733 88.4333 58.5 88.54C58.34 88.6467 58.0933 88.7 57.76 88.7C57.64 88.7 57.4067 88.6933 57.06 88.68C56.7267 88.6667 56.3533 88.6467 55.94 88.62L55.78 86.62C55.98 86.6467 56.1533 86.6667 56.3 86.68C56.46 86.6933 56.5667 86.7 56.62 86.7C56.6733 86.7 56.7067 86.6933 56.72 86.68C56.7467 86.6667 56.76 86.6333 56.76 86.58C56.7733 86.5267 56.78 86.4267 56.78 86.28V84.16H55.66V88.24H53.74V84.16H52.66V88.24H50.76V84.16H49.68V82.24H50.76V79.9H52.66V82.24H53.74V79.9H55.66V82.24H56.78V79.9H49.68V88.74H47.58ZM41.14 88.94V82.88H46.66V88.16H43.16V86.38H44.78V84.66H43.16V88.94H41.14ZM41.3 81.84V80.04H46.58V81.84H41.3ZM41.3 79V77.2H46.58V79H41.3ZM40.76 76.14V74.2H47.08V76.14H40.76ZM41.14 73.22V71.36H46.62V73.22H41.14ZM49.72 76.76V74.78H56.8V76.76H49.72ZM47.4 77.08L46.84 74.98C47.9067 74.34 48.8667 73.6867 49.72 73.02C50.5867 72.34 51.4267 71.5867 52.24 70.76H54.28C55.0933 71.5867 55.9267 72.34 56.78 73.02C57.6467 73.6867 58.6133 74.34 59.68 74.98L59.12 77.08C58.0133 76.44 56.9733 75.7333 56 74.96C55.0267 74.1867 54.1067 73.3467 53.24 72.44C52.3867 73.3467 51.4733 74.1867 50.5 74.96C49.54 75.7333 48.5067 76.44 47.4 77.08ZM66.72 85.66V74.84H78.34V83.28C78.34 83.8133 78.32 84.24 78.28 84.56C78.24 84.88 78.1467 85.1133 78 85.26C77.8667 85.4067 77.6533 85.5 77.36 85.54C77.0667 85.58 76.66 85.6 76.14 85.6C75.98 85.6 75.74 85.6 75.42 85.6C75.1 85.5867 74.78 85.5733 74.46 85.56L74.34 83.8C74.7267 83.8133 75.0467 83.8267 75.3 83.84C75.5533 83.84 75.7133 83.84 75.78 83.84C75.8867 83.84 75.96 83.8333 76 83.82C76.04 83.8067 76.06 83.76 76.06 83.68C76.0733 83.5867 76.08 83.4467 76.08 83.26V82.36H68.92V80.78H76.08V79.44H68.92V77.84H76.08V76.52H73.5V85.56H71.36V76.52H68.92V85.66H66.72ZM61.74 88.84L60.66 86.92C61.42 86.4267 62.1067 85.9267 62.72 85.42C63.3467 84.9 63.9267 84.3467 64.46 83.76L65.76 85.36C65.24 85.9867 64.6533 86.58 64 87.14C63.3467 87.7 62.5933 88.2667 61.74 88.84ZM63.24 85.14V80.18H60.96V78.18H65.54V85.14H63.24ZM73.42 88.52C72.0333 88.52 70.8333 88.48 69.82 88.4C68.8067 88.32 67.9467 88.1867 67.24 88C66.5467 87.8267 65.9667 87.5867 65.5 87.28C65.0333 86.9733 64.6467 86.6 64.34 86.16C64.0467 85.72 63.7933 85.2 63.58 84.6L65.52 84.46C65.6933 84.7933 65.9 85.08 66.14 85.32C66.38 85.5467 66.68 85.74 67.04 85.9C67.4 86.06 67.8533 86.1867 68.4 86.28C68.96 86.3733 69.6533 86.44 70.48 86.48C71.3067 86.52 72.3 86.54 73.46 86.54H79.04L78.9 88.52H73.42ZM64.64 76.24C64.08 75.6133 63.5133 75 62.94 74.4C62.3667 73.7867 61.7867 73.1933 61.2 72.62L62.8 71.22C63.3733 71.7933 63.94 72.3867 64.5 73C65.0733 73.6 65.6333 74.22 66.18 74.86L64.64 76.24ZM71.52 76.06C70.9333 75.6467 70.36 75.2467 69.8 74.86C69.24 74.4733 68.6933 74.1067 68.16 73.76L69.6 72.56C70.1333 72.9067 70.68 73.2733 71.24 73.66C71.8 74.0333 72.3667 74.4267 72.94 74.84L71.52 76.06ZM66.36 73.02V71.14H78.34V73.02H66.36ZM73.12 75.8L71.68 74.7C72.3467 74.4067 72.9733 74.1067 73.56 73.8C74.1467 73.4933 74.7 73.1867 75.22 72.88C75.74 72.56 76.2133 72.2467 76.64 71.94L78.34 73.02C78.06 73.2333 77.6333 73.5 77.06 73.82C76.5 74.14 75.8733 74.48 75.18 74.84C74.5 75.1867 73.8133 75.5067 73.12 75.8ZM84.26 85.8C86.8333 85.8 88.9067 85.58 90.48 85.14C92.0667 84.7 93.2133 83.9867 93.92 83C94.64 82 95 80.7133 95 79.14C95 77.54 94.66 76.3467 93.98 75.56C93.3133 74.76 92.2867 74.36 90.9 74.36C90.1267 74.36 89.4 74.4867 88.72 74.74C88.0533 74.9933 87.4667 75.3533 86.96 75.82C86.4533 76.2867 86.0467 76.84 85.74 77.48C85.4467 78.12 85.3 78.8267 85.3 79.6V82.22H82.98V71.7H85.3V75.96H84.4C84.88 75.1333 85.4467 74.4333 86.1 73.86C86.7667 73.2867 87.52 72.8533 88.36 72.56C89.2133 72.2533 90.14 72.1 91.14 72.1C93.18 72.1 94.74 72.7067 95.82 73.92C96.9133 75.12 97.46 76.86 97.46 79.14C97.46 81.1933 96.9933 82.8733 96.06 84.18C95.14 85.4867 93.72 86.4467 91.8 87.06C89.88 87.6867 87.4067 88 84.38 88L84.26 85.8ZM113.24 87.22C112.04 87.22 110.967 87.0533 110.02 86.72C109.087 86.3867 108.353 85.9267 107.82 85.34C107.3 84.74 107.04 84.06 107.04 83.3C107.04 81.94 107.927 80.54 109.7 79.1L111.42 80.4C110.713 80.9733 110.193 81.4733 109.86 81.9C109.54 82.3267 109.38 82.7333 109.38 83.12C109.38 83.52 109.54 83.8667 109.86 84.16C110.18 84.4533 110.627 84.68 111.2 84.84C111.773 85 112.453 85.08 113.24 85.08C113.907 85.08 114.653 85.0333 115.48 84.94C116.32 84.8333 117.167 84.6933 118.02 84.52L118.34 86.62C117.473 86.8067 116.6 86.9533 115.72 87.06C114.853 87.1667 114.027 87.22 113.24 87.22ZM107.96 75.12V72.96H118.22V75.12H107.96ZM103.14 88.1C102.793 86.7267 102.54 85.3733 102.38 84.04C102.22 82.7067 102.14 81.2933 102.14 79.8C102.14 78.32 102.22 76.92 102.38 75.6C102.54 74.2667 102.793 72.9133 103.14 71.54L105.52 71.84C105.2 73.1333 104.96 74.4333 104.8 75.74C104.653 77.0333 104.58 78.3867 104.58 79.8C104.58 81.2133 104.653 82.5733 104.8 83.88C104.96 85.1867 105.2 86.4733 105.52 87.74L103.14 88.1ZM133.46 83.52C133.167 83.52 132.847 83.5133 132.5 83.5C132.167 83.4733 131.827 83.4467 131.48 83.42V81.32C131.773 81.3333 132.06 81.3533 132.34 81.38C132.633 81.3933 132.9 81.4 133.14 81.4C134.433 81.4 135.367 81.1667 135.94 80.7C136.527 80.22 136.82 79.4667 136.82 78.44C136.82 76.7333 136.04 75.88 134.48 75.88C134.227 75.88 133.92 75.9133 133.56 75.98C133.213 76.0333 132.78 76.1267 132.26 76.26C131.753 76.3933 131.107 76.5933 130.32 76.86L121.06 79.88L120.36 77.76L129.64 74.74C130.427 74.4733 131.107 74.2667 131.68 74.12C132.267 73.96 132.793 73.8467 133.26 73.78C133.727 73.7 134.173 73.66 134.6 73.66C136.093 73.66 137.24 74.06 138.04 74.86C138.84 75.66 139.24 76.82 139.24 78.34C139.24 80.02 138.747 81.3067 137.76 82.2C136.787 83.08 135.353 83.52 133.46 83.52ZM127.48 88.48C127.027 86.6267 126.54 84.7733 126.02 82.92C125.513 81.0533 124.993 79.2267 124.46 77.44C123.94 75.64 123.413 73.9067 122.88 72.24L125.12 71.62C125.667 73.3 126.207 75.0467 126.74 76.86C127.273 78.66 127.793 80.5 128.3 82.38C128.82 84.2467 129.32 86.1133 129.8 87.98L127.48 88.48ZM131.16 79.9C130.88 78.8333 130.527 77.5933 130.1 76.18C129.687 74.7533 129.213 73.2067 128.68 71.54L130.94 70.94C131.233 71.8067 131.52 72.72 131.8 73.68C132.093 74.6267 132.373 75.58 132.64 76.54C132.92 77.5 133.167 78.4133 133.38 79.28L131.16 79.9ZM156.36 87.48C155.52 87.48 154.9 87.26 154.5 86.82C154.113 86.3667 153.92 85.6467 153.92 84.66V77.36C153.92 76.56 153.82 75.9733 153.62 75.6C153.433 75.2267 153.133 75.04 152.72 75.04C152.467 75.04 152.167 75.1267 151.82 75.3C151.473 75.46 151.04 75.7333 150.52 76.12C150.013 76.5067 149.393 77.0333 148.66 77.7C147.927 78.3533 147.047 79.1733 146.02 80.16H145.8C145.24 80.7333 144.607 81.3733 143.9 82.08C143.207 82.7867 142.447 83.5733 141.62 84.44L140.32 82.5C142.013 80.86 143.467 79.4733 144.68 78.34C145.893 77.2067 146.933 76.28 147.8 75.56C148.667 74.84 149.4 74.28 150 73.88C150.613 73.48 151.153 73.2067 151.62 73.06C152.1 72.9133 152.567 72.84 153.02 72.84C154.1 72.84 154.913 73.1733 155.46 73.84C156.02 74.4933 156.3 75.46 156.3 76.74V83.52C156.3 84 156.313 84.3667 156.34 84.62C156.38 84.8733 156.433 85.0467 156.5 85.14C156.58 85.22 156.693 85.26 156.84 85.26C157.08 85.26 157.407 85.18 157.82 85.02C158.247 84.86 158.713 84.6333 159.22 84.34L159.9 86.38C159.3 86.74 158.7 87.0133 158.1 87.2C157.5 87.3867 156.92 87.48 156.36 87.48ZM144.96 88.34V76.22H140.48V74.18H144.96V71.26H147.28V88.34H144.96ZM170.18 87.94C168.74 87.94 167.613 87.62 166.8 86.98C166 86.3267 165.6 85.42 165.6 84.26C165.6 83.0733 166 82.16 166.8 81.52C167.6 80.88 168.727 80.56 170.18 80.56C170.82 80.56 171.427 80.64 172 80.8C172.587 80.9467 173.193 81.2133 173.82 81.6C174.447 81.9867 175.153 82.52 175.94 83.2C176.727 83.8667 177.64 84.72 178.68 85.76L177.22 87.34C176.273 86.38 175.453 85.5933 174.76 84.98C174.067 84.3533 173.46 83.8667 172.94 83.52C172.42 83.1733 171.933 82.9333 171.48 82.8C171.027 82.6533 170.553 82.58 170.06 82.58C168.513 82.58 167.74 83.14 167.74 84.26C167.74 85.3667 168.513 85.92 170.06 85.92C170.887 85.92 171.473 85.7467 171.82 85.4C172.18 85.04 172.36 84.4533 172.36 83.64V75.52H171.8V71.38H174.12V75.52H174.68V83.74C174.68 85.14 174.3 86.1933 173.54 86.9C172.78 87.5933 171.66 87.94 170.18 87.94ZM161.96 88.3C161.613 86.9267 161.36 85.5733 161.2 84.24C161.04 82.9067 160.96 81.4933 160.96 80C160.96 78.52 161.04 77.12 161.2 75.8C161.36 74.4667 161.613 73.1133 161.96 71.74L164.32 72.04C164 73.3333 163.76 74.6333 163.6 75.94C163.453 77.2333 163.38 78.5867 163.38 80C163.38 81.4133 163.453 82.7733 163.6 84.08C163.76 85.3867 164 86.6733 164.32 87.94L161.96 88.3ZM165.66 76.54V74.52H178.38V76.54H165.66ZM175.26 74.1C175.14 73.46 175.007 72.8533 174.86 72.28C174.713 71.7067 174.54 71.1333 174.34 70.56L176.2 70.1C176.427 70.6733 176.613 71.2533 176.76 71.84C176.907 72.4267 177.033 73.06 177.14 73.74L175.26 74.1ZM178.04 73.88C177.933 73.2267 177.807 72.6133 177.66 72.04C177.527 71.4667 177.36 70.8933 177.16 70.32L179.04 69.9C179.24 70.4733 179.407 71.06 179.54 71.66C179.687 72.2467 179.807 72.8733 179.9 73.54L178.04 73.88ZM185.5 88.58C184.887 87.7667 184.227 87.0067 183.52 86.3C182.813 85.58 182.047 84.9133 181.22 84.3L182.86 82.66C183.687 83.3 184.473 84 185.22 84.76C185.967 85.5067 186.66 86.3133 187.3 87.18L185.5 88.58ZM209.64 88.04C208.12 88.04 206.873 87.8 205.9 87.32C204.94 86.8533 204.227 86.1267 203.76 85.14C203.307 84.1533 203.08 82.8867 203.08 81.34V71.6H205.52V81.34C205.52 82.9 205.847 84.0333 206.5 84.74C207.153 85.4333 208.2 85.78 209.64 85.78C210.693 85.78 211.62 85.5867 212.42 85.2C213.233 84.8133 213.967 84.1867 214.62 83.32C215.287 82.44 215.927 81.2733 216.54 79.82L218.76 80.72C218.227 82.0533 217.653 83.1867 217.04 84.12C216.44 85.04 215.78 85.7933 215.06 86.38C214.353 86.9533 213.553 87.3733 212.66 87.64C211.767 87.9067 210.76 88.04 209.64 88.04ZM226 85.16C228.013 85.16 229.647 85.0267 230.9 84.76C232.167 84.48 233.093 84.0467 233.68 83.46C234.267 82.8733 234.56 82.12 234.56 81.2C234.56 80.1733 234.22 79.4067 233.54 78.9C232.873 78.3933 231.853 78.14 230.48 78.14C229.933 78.14 229.333 78.1867 228.68 78.28C228.027 78.36 227.273 78.4867 226.42 78.66C225.58 78.8333 224.6 79.0667 223.48 79.36L223.02 77.1C224.713 76.7 226.18 76.4067 227.42 76.22C228.66 76.02 229.727 75.92 230.62 75.92C232.66 75.92 234.227 76.36 235.32 77.24C236.413 78.12 236.96 79.38 236.96 81.02C236.96 83.1 236.047 84.6733 234.22 85.74C232.407 86.8067 229.713 87.34 226.14 87.34L226 85.16ZM250.58 87.46C250.247 87.46 249.82 87.4133 249.3 87.32C248.78 87.24 248.233 87.1267 247.66 86.98C247.087 86.82 246.547 86.6467 246.04 86.46L246.58 84.44C247.007 84.5733 247.433 84.7067 247.86 84.84C248.3 84.96 248.7 85.06 249.06 85.14C249.433 85.2067 249.727 85.24 249.94 85.24C250.367 85.24 250.72 85.0467 251 84.66C251.28 84.26 251.487 83.64 251.62 82.8C251.767 81.9467 251.84 80.8533 251.84 79.52C251.84 78.7467 251.807 78.1267 251.74 77.66C251.687 77.18 251.58 76.82 251.42 76.58C251.26 76.34 251.013 76.18 250.68 76.1C250.347 76.02 249.9 75.98 249.34 75.98H240.82V73.9H249.1C250.033 73.9 250.807 73.94 251.42 74.02C252.033 74.0867 252.527 74.2267 252.9 74.44C253.273 74.6533 253.553 74.98 253.74 75.42C253.94 75.8467 254.067 76.42 254.12 77.14C254.187 77.8467 254.22 78.7333 254.22 79.8C254.22 81.5333 254.087 82.9667 253.82 84.1C253.567 85.2333 253.173 86.08 252.64 86.64C252.107 87.1867 251.42 87.46 250.58 87.46ZM241.06 87.24C241.553 85.9733 241.993 84.8067 242.38 83.74C242.767 82.66 243.113 81.6267 243.42 80.64C243.74 79.6533 244.027 78.6533 244.28 77.64C244.547 76.6267 244.793 75.5467 245.02 74.4C245.247 73.2533 245.473 71.9867 245.7 70.6L248.02 70.86C247.807 72.1933 247.587 73.44 247.36 74.6C247.133 75.7467 246.88 76.8533 246.6 77.92C246.333 78.9733 246.033 80.0267 245.7 81.08C245.38 82.1333 245.013 83.22 244.6 84.34C244.2 85.46 243.747 86.66 243.24 87.94L241.06 87.24ZM257.34 83.56C257.22 82.76 257.06 81.9067 256.86 81C256.66 80.0933 256.433 79.18 256.18 78.26C255.927 77.34 255.66 76.4533 255.38 75.6C255.1 74.7333 254.813 73.94 254.52 73.22L256.76 72.58C257.067 73.3267 257.36 74.1333 257.64 75C257.92 75.8667 258.187 76.76 258.44 77.68C258.693 78.6 258.92 79.52 259.12 80.44C259.32 81.3467 259.487 82.2133 259.62 83.04L257.34 83.56ZM264.26 85.8C266.833 85.8 268.907 85.58 270.48 85.14C272.067 84.7 273.213 83.9867 273.92 83C274.64 82 275 80.7133 275 79.14C275 77.54 274.66 76.3467 273.98 75.56C273.313 74.76 272.287 74.36 270.9 74.36C270.127 74.36 269.4 74.4867 268.72 74.74C268.053 74.9933 267.467 75.3533 266.96 75.82C266.453 76.2867 266.047 76.84 265.74 77.48C265.447 78.12 265.3 78.8267 265.3 79.6V82.22H262.98V71.7H265.3V75.96H264.4C264.88 75.1333 265.447 74.4333 266.1 73.86C266.767 73.2867 267.52 72.8533 268.36 72.56C269.213 72.2533 270.14 72.1 271.14 72.1C273.18 72.1 274.74 72.7067 275.82 73.92C276.913 75.12 277.46 76.86 277.46 79.14C277.46 81.1933 276.993 82.8733 276.06 84.18C275.14 85.4867 273.72 86.4467 271.8 87.06C269.88 87.6867 267.407 88 264.38 88L264.26 85.8ZM288.4 78.84V76.96H292.32V74.52H287.96V72.52H292.32V70.56H294.72V72.52H299.34V74.52H294.72V76.96H298.88V78.84H288.4ZM282.28 87.86L280.62 87.56C280.793 86.6533 280.94 85.7333 281.06 84.8C281.18 83.8667 281.267 82.9333 281.32 82L282.98 82.14C282.927 83.1 282.84 84.06 282.72 85.02C282.6 85.98 282.453 86.9267 282.28 87.86ZM283.4 88.84V80.42H285.6V88.84H283.4ZM286.42 87.12C286.393 86.64 286.353 86.1067 286.3 85.52C286.26 84.92 286.207 84.32 286.14 83.72C286.087 83.1067 286.027 82.5533 285.96 82.06L287.58 81.84C287.66 82.32 287.727 82.8733 287.78 83.5C287.847 84.1133 287.907 84.7267 287.96 85.34C288.013 85.94 288.053 86.48 288.08 86.96L286.42 87.12ZM280.86 81.2L280.8 79.26L287.5 78.86L287.52 80.74L280.86 81.2ZM283.2 78.68C282.96 78.2933 282.687 77.8733 282.38 77.42C282.087 76.9667 281.78 76.5067 281.46 76.04C281.153 75.5733 280.86 75.14 280.58 74.74L281.66 72.78C282.1 73.4067 282.553 74.08 283.02 74.8C283.487 75.52 283.893 76.16 284.24 76.72L283.2 78.68ZM283.54 80.74L282.02 79.7C282.78 78.5667 283.507 77.4267 284.2 76.28C284.893 75.12 285.547 73.9267 286.16 72.7L287.84 73.56C287.187 74.8133 286.507 76.0333 285.8 77.22C285.107 78.3933 284.353 79.5667 283.54 80.74ZM287.06 81.52C286.967 81.0267 286.853 80.5 286.72 79.94C286.587 79.3667 286.447 78.8 286.3 78.24C286.153 77.6667 286.007 77.1467 285.86 76.68L287.5 76.24C287.647 76.7333 287.793 77.2667 287.94 77.84C288.087 78.4133 288.227 78.9867 288.36 79.56C288.493 80.1333 288.607 80.6733 288.7 81.18L287.06 81.52ZM288.52 88.68V80.44H298.62V88.68H296.2V87.72H290.82V85.82H296.2V82.42H290.82V88.68H288.52ZM283.44 75.88L281.94 74.8C282.3 74.1067 282.633 73.4067 282.94 72.7C283.247 71.9933 283.547 71.28 283.84 70.56L285.64 71.28C285.32 72.0667 284.973 72.8467 284.6 73.62C284.24 74.38 283.853 75.1333 283.44 75.88ZM308.78 88.8V82.48H301.26V80.54H308.78V76.08H304.84V74.46H308.78V73H311.22V74.46H315.16V73H304.84V79.36H302.5V71.14H317.5V79.36H304.84V77.6H315.16V76.08H311.22V80.54H318.74V82.48H311.22V88.8H308.78ZM301.74 88.54L300.58 86.58C302.42 85.6733 304.007 84.7533 305.34 83.82C306.673 82.8867 307.787 81.8933 308.68 80.84L310.18 81.72C309.247 82.9867 308.073 84.1933 306.66 85.34C305.247 86.4867 303.607 87.5533 301.74 88.54ZM318.22 88.56C316.353 87.5733 314.713 86.5067 313.3 85.36C311.9 84.2133 310.72 83.0067 309.76 81.74L311.32 80.84C312.213 81.8933 313.327 82.8933 314.66 83.84C315.993 84.7867 317.58 85.72 319.42 86.64L318.22 88.56ZM321.06 87.44C321.553 86.1733 321.993 85.0067 322.38 83.94C322.767 82.86 323.113 81.8267 323.42 80.84C323.74 79.8533 324.027 78.8533 324.28 77.84C324.547 76.8267 324.793 75.7467 325.02 74.6C325.247 73.4533 325.473 72.1867 325.7 70.8L328.02 71.06C327.807 72.3933 327.587 73.64 327.36 74.8C327.133 75.9467 326.88 77.0533 326.6 78.12C326.333 79.1733 326.033 80.2267 325.7 81.28C325.38 82.3333 325.013 83.42 324.6 84.54C324.2 85.66 323.747 86.86 323.24 88.14L321.06 87.44ZM337.26 84.82C337.14 84.02 336.98 83.1667 336.78 82.26C336.593 81.34 336.373 80.42 336.12 79.5C335.867 78.58 335.6 77.6933 335.32 76.84L337.54 76.18C337.82 77.06 338.087 77.9733 338.34 78.92C338.607 79.8533 338.84 80.7933 339.04 81.74C339.24 82.6733 339.407 83.5667 339.54 84.42L337.26 84.82ZM335.16 75.74C334.813 75.0067 334.473 74.3533 334.14 73.78C333.807 73.2067 333.433 72.64 333.02 72.08L334.68 71.12C335.107 71.6933 335.487 72.2867 335.82 72.9C336.167 73.5133 336.507 74.18 336.84 74.9L335.16 75.74ZM337.96 74.68C337.64 73.9333 337.32 73.2733 337 72.7C336.68 72.1133 336.327 71.5467 335.94 71L337.56 70.1C337.987 70.6867 338.36 71.2867 338.68 71.9C339.013 72.5133 339.333 73.1867 339.64 73.92L337.96 74.68ZM330.56 87.66C330.213 87.66 329.78 87.6133 329.26 87.52C328.74 87.44 328.193 87.32 327.62 87.16C327.06 87.0133 326.52 86.8467 326 86.66L326.54 84.64C326.98 84.7733 327.413 84.9067 327.84 85.04C328.28 85.16 328.68 85.26 329.04 85.34C329.413 85.4067 329.7 85.44 329.9 85.44C330.327 85.44 330.68 85.2467 330.96 84.86C331.24 84.46 331.447 83.84 331.58 83C331.727 82.1467 331.8 81.0533 331.8 79.72C331.8 78.9467 331.773 78.3267 331.72 77.86C331.667 77.38 331.553 77.02 331.38 76.78C331.22 76.54 330.973 76.38 330.64 76.3C330.307 76.22 329.86 76.18 329.3 76.18H320.82V74.1H329.08C330 74.1 330.767 74.14 331.38 74.22C332.007 74.2867 332.5 74.4267 332.86 74.64C333.233 74.8533 333.513 75.18 333.7 75.62C333.9 76.0467 334.027 76.62 334.08 77.34C334.147 78.0467 334.18 78.9333 334.18 80C334.18 81.7333 334.053 83.1667 333.8 84.3C333.547 85.4333 333.147 86.28 332.6 86.84C332.067 87.3867 331.387 87.66 330.56 87.66ZM341.82 88.72V80.64H344.16V85.48H348.78V79.18H342.7V72.36H345.02V77.18H348.78V70.68H351.22V77.18H354.98V72.36H357.3V79.18H351.22V85.48H355.84V80.64H358.18V88.72H355.84V87.54H344.16V88.72H341.82ZM49.54 124.26C47.5667 124.26 46.0333 123.94 44.94 123.3C43.86 122.66 43.32 121.76 43.32 120.6C43.32 119.613 43.7267 118.847 44.54 118.3C45.3667 117.74 46.5 117.46 47.94 117.46C49.3 117.46 50.32 117.713 51 118.22C51.68 118.713 52.02 119.46 52.02 120.46C52.02 120.82 51.9667 121.207 51.86 121.62C51.7667 122.033 51.6267 122.46 51.44 122.9L49.24 122.66C49.4267 122.207 49.56 121.82 49.64 121.5C49.7333 121.18 49.78 120.9 49.78 120.66C49.78 119.753 49.1133 119.3 47.78 119.3C47.1 119.3 46.5667 119.413 46.18 119.64C45.8067 119.853 45.62 120.167 45.62 120.58C45.62 121.14 45.9467 121.587 46.6 121.92C47.2533 122.24 48.14 122.4 49.26 122.4C51.4067 122.4 53 122.087 54.04 121.46C55.0933 120.82 55.62 119.847 55.62 118.54C55.62 117.433 55.2067 116.62 54.38 116.1C53.5667 115.58 52.2667 115.32 50.48 115.32C49.4533 115.32 48.5467 115.413 47.76 115.6C46.9733 115.773 46.2467 116.047 45.58 116.42L42.94 117.94L41.98 116.1L53.34 109.78V110.16H43.16V108.14H56.84V110.16L47.08 115.54L45.84 114.52C46.2533 114.373 46.7133 114.24 47.22 114.12C47.74 113.987 48.2667 113.88 48.8 113.8C49.3467 113.707 49.8733 113.633 50.38 113.58C50.8867 113.513 51.3467 113.48 51.76 113.48C53.7867 113.48 55.34 113.907 56.42 114.76C57.5 115.613 58.04 116.827 58.04 118.4C58.04 120.28 57.3 121.727 55.82 122.74C54.3533 123.753 52.26 124.26 49.54 124.26ZM68.96 118.62L68.6 108.4H71.56L71.22 118.62H68.96ZM68.68 123V120.28H71.5V123H68.68Z" fill="#282828"/>
<path opacity="0.6" d="M49.016 147.68C49.016 145.09 50.122 142.808 52.432 140.946C52.558 140.834 52.712 140.778 52.852 140.778C53.118 140.778 53.37 141.016 53.37 141.282C53.37 141.464 53.3 141.59 53.16 141.716C51.144 143.438 50.304 145.384 50.304 147.68C50.304 149.976 51.144 151.922 53.16 153.644C53.3 153.77 53.37 153.896 53.37 154.078C53.37 154.344 53.118 154.582 52.852 154.582C52.712 154.582 52.558 154.526 52.432 154.414C50.122 152.552 49.016 150.27 49.016 147.68ZM58.76 150.564H55.428C54.77 150.564 54.406 150.228 54.406 149.612C54.406 149.234 54.476 148.996 54.714 148.604L57.934 143.172C58.284 142.584 58.606 142.36 59.222 142.36C60.006 142.36 60.314 142.766 60.314 143.592V149.262H61.154C61.644 149.262 61.896 149.486 61.896 149.906C61.896 150.326 61.644 150.564 61.154 150.564H60.314V152.216C60.314 152.72 60.02 153 59.516 153C59.026 153 58.76 152.72 58.76 152.216V150.564ZM58.76 149.262V146.686C58.76 145.748 58.802 144.838 58.872 143.9H58.774C58.41 144.726 58.018 145.524 57.528 146.378L55.876 149.262H58.76ZM66.4152 142.318C68.5432 142.318 69.9572 143.83 69.9572 147.708C69.9572 151.586 68.5432 153.098 66.4152 153.098C64.2872 153.098 62.9012 151.586 62.9012 147.708C62.9012 143.83 64.2872 142.318 66.4152 142.318ZM66.4152 143.718C65.2532 143.718 64.5532 144.698 64.5532 147.708C64.5532 150.718 65.2532 151.698 66.4152 151.698C67.5912 151.698 68.3052 150.718 68.3052 147.708C68.3052 144.698 67.5912 143.718 66.4152 143.718ZM73.0903 153.7V147.092C72.8523 147.456 72.6003 147.806 72.3483 148.114C72.1663 148.338 71.9423 148.436 71.7323 148.436C71.3263 148.436 70.9483 148.1 70.9483 147.694C70.9483 147.526 71.0043 147.358 71.1443 147.176C72.2503 145.804 73.2723 143.69 73.8323 141.814C73.9443 141.45 74.2523 141.282 74.5743 141.282C74.9943 141.282 75.4143 141.548 75.4143 141.996C75.4143 142.066 75.4003 142.15 75.3723 142.234C75.0643 143.284 74.5603 144.46 73.9863 145.552C74.3223 145.594 74.6163 145.79 74.6163 146.154V153.7C74.6163 154.078 74.2383 154.274 73.8603 154.274C73.4683 154.274 73.0903 154.078 73.0903 153.7ZM79.2503 145.258L83.1003 144.922H83.1563C83.5343 144.922 83.7303 145.286 83.7303 145.65C83.7303 145.972 83.5763 146.28 83.2263 146.308L79.4323 146.644C79.6283 147.848 79.9223 148.954 80.3283 149.92C81.1123 151.782 81.7563 152.244 82.1763 152.244C82.3583 152.244 82.5263 152.062 82.6243 151.152C82.6663 150.718 82.9883 150.522 83.3243 150.522C83.7023 150.522 84.1083 150.788 84.1083 151.264V151.362C83.9123 153.308 83.1843 153.896 82.2463 153.896C81.0143 153.896 79.8243 152.72 78.8303 150.34C78.3963 149.29 78.0743 148.1 77.8643 146.77L75.8203 146.952H75.7643C75.3863 146.952 75.1903 146.588 75.1903 146.238C75.1903 145.916 75.3583 145.608 75.6943 145.58L77.6963 145.398C77.5843 144.306 77.5283 143.13 77.5283 141.898C77.5283 141.464 77.9203 141.254 78.3123 141.254C78.7043 141.254 79.0963 141.464 79.0963 141.898C79.0963 143.088 79.1383 144.208 79.2503 145.258ZM80.9023 142.192C81.2803 142.472 81.6303 142.766 81.9243 143.06C82.0923 143.242 82.1763 143.438 82.1763 143.606C82.1763 144.012 81.8123 144.362 81.4203 144.362C81.2523 144.362 81.0703 144.278 80.9163 144.11C80.6223 143.774 80.3143 143.48 79.9643 143.2C79.7963 143.06 79.7123 142.892 79.7123 142.724C79.7123 142.374 80.0483 142.024 80.4403 142.024C80.5943 142.024 80.7483 142.08 80.9023 142.192ZM85.3683 153.42L96.9043 141.156C97.0303 141.03 97.1703 140.932 97.2963 140.932C97.6603 140.932 97.9683 141.226 97.9683 141.506C97.9683 141.66 97.9123 141.8 97.7723 141.94L86.2363 154.204C86.1103 154.33 85.9703 154.428 85.8443 154.428C85.4803 154.428 85.1723 154.134 85.1723 153.854C85.1723 153.7 85.2283 153.56 85.3683 153.42ZM111.408 145.874H109.378C109.238 146.42 109.028 147.12 108.776 147.722C108.412 148.59 107.95 149.388 107.39 150.116C108.524 150.69 109.644 151.334 110.652 152.048C110.918 152.23 111.03 152.482 111.03 152.72C111.03 153.14 110.666 153.546 110.218 153.546C110.05 153.546 109.868 153.49 109.686 153.364C108.636 152.594 107.474 151.88 106.312 151.278C104.744 152.664 102.784 153.462 100.572 153.882C100.502 153.896 100.446 153.896 100.376 153.896C99.9143 153.896 99.6483 153.546 99.6483 153.182C99.6483 152.874 99.8443 152.552 100.278 152.468C102.07 152.118 103.61 151.544 104.856 150.564C104.184 150.284 103.526 150.004 102.84 149.766L102.784 149.864C102.588 150.2 102.294 150.34 102.014 150.34C101.608 150.34 101.216 150.06 101.216 149.654C101.216 149.542 101.244 149.416 101.328 149.276C101.972 148.156 102.546 147.036 103.022 145.874H99.7323C99.3683 145.874 99.1723 145.538 99.1723 145.202C99.1723 144.866 99.3683 144.53 99.7323 144.53H103.54C103.862 143.62 104.142 142.668 104.422 141.646C104.52 141.296 104.842 141.128 105.164 141.128C105.57 141.128 105.976 141.366 105.976 141.786C105.976 141.842 105.962 141.898 105.948 141.968C105.71 142.85 105.458 143.704 105.164 144.53H111.408C111.786 144.53 111.982 144.866 111.982 145.202C111.982 145.538 111.786 145.874 111.408 145.874ZM107.726 145.874H104.674C104.296 146.784 103.904 147.68 103.47 148.562C104.324 148.828 105.164 149.122 105.976 149.472C106.83 148.436 107.404 147.176 107.726 145.874ZM121.18 152.356V149.584H119.052C118.702 149.584 118.534 149.234 118.534 148.898C118.534 148.548 118.702 148.212 119.052 148.212H121.18V145.874H119.57C119.402 146.252 119.22 146.616 119.038 146.952C118.856 147.288 118.562 147.428 118.296 147.428C117.932 147.428 117.596 147.176 117.596 146.784C117.596 146.644 117.638 146.49 117.736 146.322C118.282 145.384 118.716 144.236 118.996 142.976C119.08 142.598 119.388 142.416 119.682 142.416C120.046 142.416 120.41 142.668 120.41 143.088C120.41 143.144 120.41 143.186 120.396 143.242C120.312 143.676 120.2 144.11 120.06 144.53H121.18V141.87C121.18 141.45 121.558 141.24 121.936 141.24C122.314 141.24 122.692 141.45 122.692 141.87V144.53H125.254C125.618 144.53 125.8 144.866 125.8 145.202C125.8 145.538 125.618 145.874 125.254 145.874H122.692V148.212H124.75C125.1 148.212 125.282 148.548 125.282 148.898C125.282 149.234 125.1 149.584 124.75 149.584H122.692V152.356H125.548C125.898 152.356 126.08 152.692 126.08 153.042C126.08 153.378 125.898 153.728 125.548 153.728H117.834C117.498 153.728 117.316 153.378 117.316 153.042C117.316 152.692 117.498 152.356 117.834 152.356H121.18ZM116.294 141.772V153.616C116.294 154.036 115.916 154.246 115.538 154.246C115.146 154.246 114.768 154.036 114.768 153.616V141.772C114.768 141.352 115.146 141.156 115.538 141.156C115.916 141.156 116.294 141.352 116.294 141.772ZM113.452 144.558C113.494 144.236 113.746 144.082 113.998 144.082C114.292 144.082 114.572 144.278 114.572 144.628V144.698C114.516 145.328 114.362 146.168 114.18 146.77C114.082 147.078 113.844 147.218 113.606 147.218C113.312 147.218 113.032 147.008 113.032 146.686C113.032 146.63 113.032 146.56 113.06 146.49C113.242 145.902 113.382 145.104 113.452 144.558ZM117.512 144.012C117.652 144.432 117.778 144.936 117.834 145.314V145.412C117.834 145.79 117.526 146.014 117.246 146.014C117.008 146.014 116.784 145.874 116.728 145.552C116.658 145.132 116.56 144.6 116.462 144.264C116.448 144.208 116.434 144.138 116.434 144.082C116.434 143.788 116.7 143.606 116.966 143.606C117.19 143.606 117.414 143.732 117.512 144.012ZM131.554 147.68C131.554 150.27 130.448 152.552 128.138 154.414C128.012 154.526 127.858 154.582 127.718 154.582C127.452 154.582 127.2 154.344 127.2 154.078C127.2 153.896 127.27 153.77 127.41 153.644C129.426 151.922 130.266 149.976 130.266 147.68C130.266 145.384 129.426 143.438 127.41 141.716C127.27 141.59 127.2 141.464 127.2 141.282C127.2 141.016 127.452 140.778 127.718 140.778C127.858 140.778 128.012 140.834 128.138 140.946C130.448 142.808 131.554 145.09 131.554 147.68Z" fill="#282828"/>
<path d="M332.177 224L314.177 182L283 182L332.177 224Z" fill="#54B6CB"/>
</svg>
