<svg width="489" height="84" viewBox="0 0 489 84" fill="none" xmlns="http://www.w3.org/2000/svg">
<path d="M429 55H461.5L489 84L429 55Z" fill="white"/>
<rect width="489" height="55" rx="27.5" fill="white"/>
<path d="M39.668 33.12L39.732 30.016C39.332 30.912 38.836 31.76 38.356 32.336C38.132 32.608 37.876 32.72 37.636 32.72C37.236 32.72 36.9 32.416 36.9 32.016C36.9 31.856 36.964 31.664 37.108 31.488C38.004 30.384 38.756 28.928 39.332 27.36H37.684C37.284 27.36 37.076 26.976 37.076 26.608C37.076 26.224 37.284 25.856 37.668 25.856H39.668V21.072C39.668 20.64 40.084 20.432 40.5 20.432C40.916 20.432 41.332 20.64 41.332 21.072V25.856H42.868C43.268 25.856 43.476 26.224 43.476 26.608C43.476 26.976 43.268 27.36 42.868 27.36H41.332V28.032C42.164 28.544 42.964 29.2 43.284 29.568C43.476 29.792 43.556 30 43.556 30.208C43.556 30.608 43.22 30.928 42.836 30.928C42.628 30.928 42.404 30.832 42.212 30.624C41.956 30.336 41.652 30.048 41.332 29.776V34.752C41.332 35.232 40.916 35.472 40.5 35.472C40.084 35.472 39.668 35.232 39.668 34.752V33.12ZM50.004 29.024L51.124 28.768C51.188 28.752 51.236 28.752 51.3 28.752C51.748 28.752 52.02 29.184 52.02 29.6C52.02 29.92 51.844 30.224 51.46 30.32L50.004 30.656V34.64C50.004 35.136 49.572 35.376 49.14 35.376C48.692 35.376 48.26 35.136 48.26 34.64V31.04L44.548 31.888C44.484 31.904 44.436 31.904 44.388 31.904C43.94 31.904 43.652 31.456 43.652 31.04C43.652 30.72 43.812 30.4 44.196 30.32L48.26 29.408V21.248C48.26 20.752 48.692 20.512 49.14 20.512C49.572 20.512 50.004 20.752 50.004 21.248V29.024ZM42.132 22.832C42.212 22.528 42.468 22.384 42.74 22.384C43.092 22.384 43.444 22.624 43.444 23.008C43.444 23.056 43.444 23.12 43.428 23.184C43.3 23.712 43.06 24.384 42.82 24.864C42.692 25.104 42.452 25.216 42.228 25.216C41.876 25.216 41.54 24.992 41.54 24.656C41.54 24.576 41.556 24.496 41.604 24.4C41.796 23.968 41.988 23.408 42.132 22.832ZM38.884 22.88C39.14 23.44 39.38 24.016 39.412 24.368C39.428 24.416 39.428 24.464 39.428 24.512C39.428 24.944 39.06 25.216 38.692 25.216C38.404 25.216 38.116 25.056 38.036 24.688C37.94 24.288 37.764 23.68 37.604 23.312C37.572 23.216 37.556 23.136 37.556 23.056C37.556 22.704 37.892 22.496 38.244 22.496C38.5 22.496 38.756 22.608 38.884 22.88ZM46.132 22.672C46.58 22.992 47.076 23.392 47.444 23.808C47.62 24 47.7 24.208 47.7 24.4C47.7 24.848 47.3 25.216 46.868 25.216C46.66 25.216 46.436 25.136 46.244 24.944C45.86 24.576 45.428 24.192 45.076 23.888C44.868 23.712 44.772 23.488 44.772 23.296C44.772 22.88 45.156 22.496 45.62 22.496C45.78 22.496 45.956 22.544 46.132 22.672ZM45.524 26.016C46.004 26.352 46.468 26.72 46.9 27.168C47.076 27.36 47.156 27.568 47.156 27.76C47.156 28.208 46.756 28.592 46.324 28.592C46.116 28.592 45.908 28.512 45.716 28.32C45.348 27.968 44.852 27.52 44.468 27.232C44.244 27.056 44.148 26.848 44.148 26.64C44.148 26.224 44.548 25.84 45.012 25.84C45.172 25.84 45.348 25.888 45.524 26.016ZM62.804 28.688H61.636C60.244 28.688 59.668 28.128 59.668 26.976V23.024C59.668 21.872 60.244 21.296 61.636 21.296H65.748C67.14 21.296 67.732 21.872 67.732 23.024V26.976C67.732 28.128 67.14 28.688 65.748 28.688H64.516V30.176H66.98C67.38 30.176 67.588 30.544 67.588 30.928C67.588 31.296 67.38 31.68 66.98 31.68H64.516V33.408H67.988C68.388 33.408 68.596 33.776 68.596 34.16C68.596 34.528 68.388 34.912 67.988 34.912H58.548C58.164 34.912 57.956 34.528 57.956 34.16C57.956 33.776 58.164 33.408 58.548 33.408H62.804V31.68H60.308C59.924 31.68 59.716 31.296 59.716 30.928C59.716 30.544 59.924 30.176 60.308 30.176H62.804V28.688ZM61.812 27.248H62.852V25.712H61.3V26.832C61.3 27.2 61.476 27.248 61.812 27.248ZM61.3 24.304H62.852V22.768H61.812C61.412 22.768 61.3 22.848 61.3 23.184V24.304ZM64.452 22.768V24.304H66.1V23.184C66.1 22.848 66.004 22.768 65.588 22.768H64.452ZM66.1 25.712H64.452V27.248H65.588C66.004 27.248 66.1 27.168 66.1 26.832V25.712ZM55.62 30.976V27.408H54.612C54.196 27.408 53.988 27.024 53.988 26.64C53.988 26.272 54.196 25.888 54.612 25.888H55.62V23.232H54.388C53.972 23.232 53.764 22.848 53.764 22.464C53.764 22.096 53.972 21.712 54.388 21.712H58.452C58.868 21.712 59.076 22.096 59.076 22.464C59.076 22.848 58.868 23.232 58.452 23.232H57.3V25.888H58.196C58.612 25.888 58.82 26.272 58.82 26.64C58.82 27.024 58.612 27.408 58.196 27.408H57.3V30.448C57.588 30.336 57.876 30.24 58.132 30.128C58.26 30.08 58.372 30.064 58.484 30.064C58.932 30.064 59.204 30.448 59.204 30.832C59.204 31.104 59.076 31.376 58.756 31.52C57.444 32.112 55.876 32.64 54.628 32.928C54.548 32.944 54.468 32.96 54.404 32.96C53.908 32.96 53.62 32.544 53.62 32.128C53.62 31.776 53.812 31.456 54.244 31.344C54.676 31.248 55.14 31.12 55.62 30.976ZM73.956 32.912C72.324 32.912 70.964 31.6 70.964 29.104C70.964 25.456 73.988 22.464 78.388 22.464C82.292 22.464 84.548 24.912 84.548 28.096C84.548 30.992 82.836 33.12 80.084 34C79.956 34.048 79.828 34.064 79.716 34.064C79.172 34.064 78.82 33.616 78.82 33.152C78.82 32.8 79.012 32.448 79.492 32.272C81.764 31.456 82.676 30.08 82.676 28.096C82.676 26 81.252 24.272 78.82 24.096C78.66 26.752 78.004 29.152 77.012 30.896C76.132 32.448 75.188 32.912 73.956 32.912ZM76.948 24.208C74.564 24.672 72.804 26.736 72.804 29.104C72.804 30.576 73.38 31.12 73.956 31.12C74.452 31.12 74.884 30.864 75.348 30.048C76.164 28.624 76.756 26.56 76.948 24.208ZM90.436 29.952C90.436 27.408 90.596 24.368 90.772 22.016C90.804 21.472 91.252 21.216 91.7 21.216C92.18 21.216 92.628 21.488 92.628 22.016C92.628 22.192 92.596 22.608 92.58 22.784C92.42 25.152 92.292 27.6 92.292 29.968C92.292 32.112 92.948 32.688 94.084 32.688C95.572 32.688 96.964 32.08 98.436 30.256C98.66 29.968 98.948 29.856 99.204 29.856C99.7 29.856 100.148 30.24 100.148 30.736C100.148 30.928 100.084 31.12 99.924 31.328C98.1 33.6 96.164 34.464 94.084 34.464C91.7 34.464 90.436 33.28 90.436 29.952ZM111.54 21.344C111.732 21.04 112.02 20.912 112.292 20.912C112.772 20.912 113.252 21.28 113.252 21.808C113.252 21.984 113.188 22.176 113.06 22.384C112.084 23.824 110.66 25.568 109.428 26.896C109.172 27.168 109.092 27.344 109.092 27.6C109.092 27.872 109.22 28.064 109.476 28.352C110.9 29.856 112.34 31.648 113.54 33.328C113.7 33.568 113.78 33.792 113.78 33.984C113.78 34.528 113.284 34.912 112.772 34.912C112.436 34.912 112.116 34.752 111.876 34.384C110.852 32.784 109.38 30.832 108.084 29.392C107.508 28.736 107.236 28.192 107.236 27.616C107.236 27.088 107.412 26.544 107.988 25.952C109.22 24.704 110.548 22.88 111.54 21.344ZM123.748 22.048L126.404 21.648C126.564 21.616 126.724 21.616 126.884 21.616C127.876 21.616 128.436 22.176 128.436 23.024C128.436 23.152 128.436 23.28 128.404 23.424C128.196 24.592 127.892 25.776 127.556 26.896C128.612 27.04 129.652 27.328 130.676 27.664C130.836 26.912 130.932 26.096 130.98 25.232C130.996 24.736 131.428 24.48 131.876 24.48C132.34 24.48 132.804 24.768 132.804 25.328C132.804 26.24 132.612 27.36 132.372 28.368C133.172 28.736 133.956 29.168 134.724 29.664C135.044 29.872 135.172 30.176 135.172 30.464C135.172 30.96 134.788 31.424 134.276 31.424C134.1 31.424 133.908 31.376 133.716 31.248C133.076 30.832 132.452 30.464 131.828 30.144C131.22 31.776 130.34 33.168 129.268 34.224C129.012 34.48 128.74 34.592 128.484 34.592C127.988 34.592 127.588 34.16 127.588 33.696C127.588 33.488 127.668 33.264 127.86 33.072C128.852 32.08 129.652 30.848 130.18 29.376C129.156 28.96 128.116 28.656 127.028 28.48C126.708 29.328 126.372 30.112 126.036 30.768C125.22 32.384 124.388 32.896 123.236 32.896C121.908 32.896 120.932 32.032 120.932 30.384C120.932 28.384 122.74 26.736 125.412 26.736H125.78C126.1 25.712 126.404 24.64 126.532 23.632C126.532 23.584 126.548 23.536 126.548 23.504C126.548 23.36 126.452 23.344 126.228 23.376L123.988 23.744C123.924 23.76 123.86 23.76 123.812 23.76C123.3 23.76 122.996 23.328 122.996 22.896C122.996 22.512 123.236 22.128 123.748 22.048ZM123.252 31.152C123.716 31.152 123.972 31.008 124.404 30.208C124.692 29.664 124.964 29.024 125.22 28.352C123.556 28.368 122.676 29.312 122.676 30.32C122.676 30.896 122.932 31.152 123.252 31.152ZM141.812 26.416L141.844 26.448C142.26 26.288 142.724 26.176 143.22 26.176C144.324 26.176 145.044 26.512 145.46 27.696C146.708 27.168 148.052 26.688 149.46 26.256C149.572 26.224 149.684 26.208 149.78 26.208C150.308 26.208 150.612 26.64 150.612 27.072C150.612 27.408 150.42 27.76 149.972 27.888C148.58 28.304 147.156 28.784 145.812 29.328C145.892 29.92 145.924 30.624 145.956 31.456C145.972 32 145.508 32.288 145.044 32.288C144.628 32.288 144.212 32.048 144.196 31.552C144.18 30.944 144.148 30.432 144.116 30C142.452 30.848 142.068 31.568 142.068 32.16C142.068 32.784 142.644 33.152 144.484 33.152C145.492 33.152 146.548 33.056 147.588 32.88C147.652 32.864 147.716 32.864 147.764 32.864C148.308 32.864 148.628 33.296 148.628 33.744C148.628 34.128 148.372 34.512 147.828 34.608C146.788 34.8 145.604 34.864 144.548 34.864C141.524 34.864 140.244 33.856 140.244 32.288C140.244 31.008 140.996 29.776 143.844 28.352C143.636 27.76 143.3 27.632 142.724 27.632C142.132 27.632 140.964 28.064 139.444 29.28C139.252 29.424 139.06 29.488 138.868 29.488C138.404 29.488 138.004 29.088 138.004 28.64C138.004 28.4 138.116 28.16 138.372 27.936C139.38 27.056 140.292 26.016 141.076 24.816C140.452 24.864 139.876 24.88 139.348 24.896C138.772 24.912 138.468 24.48 138.468 24.064C138.468 23.664 138.756 23.248 139.348 23.248C140.1 23.248 140.996 23.2 141.924 23.136C142.196 22.496 142.436 21.872 142.628 21.28C142.756 20.88 143.092 20.704 143.444 20.704C143.892 20.704 144.324 20.992 144.324 21.44C144.324 21.52 144.324 21.6 144.292 21.68C144.148 22.128 143.988 22.544 143.812 22.944C144.644 22.864 145.444 22.752 146.132 22.624C146.196 22.608 146.26 22.608 146.324 22.608C146.82 22.608 147.092 22.992 147.092 23.376C147.092 23.728 146.868 24.096 146.388 24.176C145.38 24.352 144.18 24.528 142.996 24.64C142.596 25.296 142.196 25.904 141.812 26.416ZM164.42 27.616H167.54C167.972 27.616 168.196 27.968 168.196 28.32C168.196 28.672 167.972 29.024 167.54 29.024H164.596C165.46 29.888 166.66 30.688 167.956 31.28C168.356 31.456 168.532 31.792 168.532 32.08C168.532 32.496 168.228 32.88 167.764 32.88C167.62 32.88 167.476 32.848 167.316 32.768C165.62 31.984 163.876 30.64 162.66 29.024H159.332C158.068 30.768 156.42 32.096 154.692 32.992C154.516 33.088 154.356 33.12 154.196 33.12C153.748 33.12 153.444 32.768 153.444 32.384C153.444 32.096 153.604 31.808 153.988 31.616C155.22 31.008 156.388 30.144 157.348 29.024H154.468C154.052 29.024 153.828 28.672 153.828 28.32C153.828 27.968 154.052 27.616 154.468 27.616H157.524V23.232H155.22C154.804 23.232 154.58 22.88 154.58 22.528C154.58 22.176 154.804 21.824 155.22 21.824H157.524V21.024C157.524 20.576 157.94 20.368 158.356 20.368C158.772 20.368 159.188 20.576 159.188 21.024V21.824H162.756V21.024C162.756 20.576 163.172 20.368 163.588 20.368C164.004 20.368 164.42 20.576 164.42 21.024V21.824H166.852C167.284 21.824 167.508 22.176 167.508 22.528C167.508 22.88 167.284 23.232 166.852 23.232H164.42V27.616ZM162.756 27.616V26.912H159.188V27.616H162.756ZM159.188 23.232V23.904H162.756V23.232H159.188ZM159.188 25.072V25.744H162.756V25.072H159.188ZM160.116 33.552V32.288H158.244C157.844 32.288 157.652 31.952 157.652 31.6C157.652 31.264 157.844 30.928 158.244 30.928H160.116V30.16C160.116 29.712 160.532 29.504 160.948 29.504C161.364 29.504 161.78 29.712 161.78 30.16V30.928H163.78C164.196 30.928 164.388 31.264 164.388 31.6C164.388 31.952 164.196 32.288 163.78 32.288H161.78V33.552H166.756C167.172 33.552 167.364 33.904 167.364 34.24C167.364 34.592 167.172 34.944 166.756 34.944H155.204C154.804 34.944 154.596 34.592 154.596 34.24C154.596 33.904 154.804 33.552 155.204 33.552H160.116ZM171.204 30.32L171.236 28.928C171.06 29.168 170.82 29.264 170.596 29.264C170.196 29.264 169.828 28.992 169.828 28.56C169.828 28.416 169.876 28.24 169.988 28.064C170.772 26.736 171.396 24.848 171.668 22.992H170.66C170.244 22.992 170.02 22.608 170.02 22.224C170.02 21.856 170.244 21.472 170.66 21.472H174.516C174.948 21.472 175.172 21.856 175.172 22.224C175.172 22.608 174.948 22.992 174.516 22.992H173.268C173.124 23.968 172.9 24.928 172.596 25.872H173.668C174.692 25.872 175.06 26.272 175.06 27.248V32.032C175.06 33.04 174.676 33.408 173.668 33.408H172.596C171.588 33.408 171.204 32.992 171.204 32V30.32ZM172.98 31.984H173.284C173.492 31.984 173.556 31.92 173.556 31.648V27.6C173.556 27.328 173.492 27.264 173.284 27.264H172.98C172.772 27.264 172.692 27.328 172.692 27.6V31.648C172.692 31.872 172.74 31.984 172.98 31.984ZM177.028 26.432L177.076 25.408C176.868 25.744 176.612 26.08 176.308 26.416C176.116 26.624 175.908 26.72 175.716 26.72C175.38 26.72 175.108 26.432 175.108 26.096C175.108 25.936 175.172 25.76 175.332 25.584C175.844 25.04 176.308 24.384 176.74 23.664H175.876C175.524 23.664 175.348 23.328 175.348 23.008C175.348 22.672 175.524 22.352 175.876 22.352H177.028V21.12C177.028 20.736 177.396 20.544 177.748 20.544C178.116 20.544 178.468 20.736 178.468 21.12V22.352H179.188C179.54 22.352 179.716 22.672 179.716 23.008C179.716 23.328 179.54 23.664 179.188 23.664H178.468V23.952C178.788 24.144 179.14 24.352 179.396 24.528C179.652 24.704 179.748 24.912 179.748 25.104C179.748 25.424 179.476 25.696 179.156 25.696C179.012 25.696 178.868 25.648 178.724 25.536C178.628 25.472 178.548 25.408 178.468 25.344V26.96C178.468 27.376 178.116 27.584 177.748 27.584C177.396 27.584 177.028 27.376 177.028 26.96V26.432ZM184.18 23.664H183.028C183.54 24.352 184.164 25.024 184.836 25.616C185.028 25.792 185.108 25.984 185.108 26.176C185.108 26.56 184.804 26.896 184.42 26.896C184.212 26.896 184.004 26.8 183.796 26.592C183.46 26.256 183.108 25.824 182.788 25.36L182.836 26.496V26.96C182.836 27.376 182.484 27.584 182.116 27.584C181.764 27.584 181.396 27.376 181.396 26.96V26.496L181.444 25.424C181.172 25.872 180.788 26.368 180.436 26.768C180.26 26.96 180.052 27.04 179.876 27.04C179.54 27.04 179.252 26.784 179.252 26.448C179.252 26.288 179.332 26.096 179.492 25.92C180.068 25.312 180.612 24.56 181.108 23.664H180.532C180.18 23.664 180.004 23.328 180.004 23.008C180.004 22.672 180.18 22.352 180.532 22.352H181.396V21.12C181.396 20.736 181.764 20.544 182.116 20.544C182.484 20.544 182.836 20.736 182.836 21.12V22.352H184.18C184.532 22.352 184.708 22.672 184.708 23.008C184.708 23.328 184.532 23.664 184.18 23.664ZM179.124 33.072V29.264H176.292C175.86 29.264 175.652 28.912 175.652 28.56C175.652 28.192 175.876 27.824 176.292 27.824H182.932C183.908 27.824 184.324 28.256 184.324 28.912C184.324 29.104 184.292 29.328 184.212 29.568C184.116 29.872 184.004 30.128 183.828 30.416C183.636 30.72 183.364 30.848 183.092 30.848C182.98 30.848 182.884 30.832 182.772 30.784C182.916 30.928 182.98 31.12 182.98 31.328C182.98 31.68 182.772 32.032 182.372 32.032H180.756V33.472C181.06 33.504 181.396 33.52 181.748 33.52C182.564 33.52 183.14 33.504 183.748 33.456C183.94 33.44 184.196 33.44 184.26 33.44C184.788 33.44 185.044 33.856 185.044 34.24C185.044 34.624 184.804 35.008 184.292 35.024C183.348 35.072 182.66 35.072 181.828 35.072C179.572 35.072 178.228 34.592 177.14 33.296C176.82 33.872 176.468 34.4 176.1 34.848C175.876 35.12 175.604 35.232 175.364 35.232C174.932 35.232 174.564 34.896 174.564 34.464C174.564 34.288 174.628 34.08 174.804 33.888C175.588 32.992 176.292 31.6 176.66 30.336C176.772 29.952 177.092 29.792 177.428 29.792C177.828 29.792 178.244 30.048 178.244 30.496C178.244 30.576 178.244 30.656 178.212 30.736C178.1 31.12 177.956 31.52 177.796 31.904C178.148 32.4 178.58 32.816 179.124 33.072ZM180.756 30.624H182.372C182.436 30.624 182.484 30.624 182.532 30.64C182.404 30.528 182.308 30.368 182.308 30.176C182.308 30.08 182.34 29.952 182.404 29.84C182.468 29.728 182.532 29.6 182.564 29.504C182.58 29.456 182.596 29.408 182.596 29.376C182.596 29.296 182.516 29.264 182.34 29.264H180.756V30.624ZM192.42 26.272C191.78 28.912 190.852 31.504 189.716 33.504C189.508 33.872 189.172 34.016 188.852 34.016C188.388 34.016 187.972 33.696 187.972 33.216C187.972 33.072 188.02 32.896 188.116 32.72C189.124 30.944 189.956 28.752 190.564 26.464C189.908 26.544 189.268 26.656 188.66 26.784C188.596 26.8 188.516 26.8 188.452 26.8C187.956 26.8 187.684 26.4 187.684 25.984C187.684 25.616 187.908 25.248 188.404 25.152C189.22 24.992 190.1 24.88 190.948 24.784C191.14 23.808 191.3 22.816 191.412 21.84C191.476 21.328 191.876 21.088 192.292 21.088C192.74 21.088 193.188 21.376 193.188 21.888V22C193.092 22.864 192.948 23.76 192.772 24.64C193.092 24.624 193.38 24.624 193.636 24.624C195.684 24.624 196.436 25.552 196.436 28.064C196.436 29.568 196.276 30.912 196.004 31.888C195.492 33.728 194.772 34.384 193.156 34.384C192.772 34.384 192.372 34.352 192.068 34.304C191.524 34.224 191.284 33.824 191.284 33.44C191.284 32.992 191.572 32.56 192.1 32.56C192.132 32.56 192.18 32.576 192.228 32.576C192.532 32.608 192.772 32.64 193.108 32.64C193.668 32.64 193.956 32.464 194.228 31.52C194.5 30.608 194.644 29.36 194.644 28.048C194.644 26.608 194.372 26.224 193.604 26.224C193.252 26.224 192.852 26.24 192.42 26.272ZM198.948 23.536C199.956 24.496 200.948 25.968 201.492 27.04C201.588 27.232 201.62 27.424 201.62 27.584C201.62 28.144 201.172 28.512 200.692 28.512C200.372 28.512 200.036 28.336 199.812 27.904C199.236 26.752 198.388 25.52 197.54 24.608C197.364 24.416 197.284 24.208 197.284 24.032C197.284 23.584 197.732 23.232 198.212 23.232C198.468 23.232 198.724 23.328 198.948 23.536ZM209.78 21.104C210.644 21.312 211.716 21.68 212.548 22.112C212.948 22.32 213.108 22.656 213.108 22.992C213.108 23.44 212.772 23.872 212.26 23.872C212.116 23.872 211.956 23.84 211.78 23.76C210.948 23.392 209.94 22.992 209.172 22.768C208.756 22.64 208.564 22.32 208.564 22C208.564 21.552 208.932 21.072 209.508 21.072C209.588 21.072 209.684 21.088 209.78 21.104ZM207.62 28.64L207.652 28.656C208.868 27.6 210.708 26.944 212.292 26.944C214.804 26.944 216.356 28.32 216.356 30.128C216.356 32.592 214.324 34.352 210.468 34.8C210.42 34.8 210.372 34.816 210.324 34.816C209.764 34.816 209.444 34.368 209.444 33.936C209.444 33.536 209.716 33.136 210.26 33.072C213.396 32.704 214.484 31.52 214.484 30.144C214.484 29.312 213.828 28.544 212.292 28.544C210.596 28.544 208.676 29.408 207.332 30.976C207.108 31.248 206.804 31.36 206.516 31.36C206.036 31.36 205.572 31.008 205.572 30.432C205.572 30.368 205.572 30.304 205.588 30.24C205.748 29.056 206.132 26.96 206.596 24.768C206.692 24.304 207.092 24.096 207.476 24.096C207.94 24.096 208.388 24.368 208.388 24.848C208.388 24.896 208.388 24.96 208.372 25.008C208.068 26.496 207.796 27.712 207.62 28.64ZM223.556 29.952C223.556 27.408 223.716 24.368 223.892 22.016C223.924 21.472 224.372 21.216 224.82 21.216C225.3 21.216 225.748 21.488 225.748 22.016C225.748 22.192 225.716 22.608 225.7 22.784C225.54 25.152 225.412 27.6 225.412 29.968C225.412 32.112 226.068 32.688 227.204 32.688C228.692 32.688 230.084 32.08 231.556 30.256C231.78 29.968 232.068 29.856 232.324 29.856C232.82 29.856 233.268 30.24 233.268 30.736C233.268 30.928 233.204 31.12 233.044 31.328C231.22 33.6 229.284 34.464 227.204 34.464C224.82 34.464 223.556 33.28 223.556 29.952ZM245.652 26.192C247.988 26.192 249.588 27.456 249.588 29.472C249.588 31.968 247.716 33.728 244.132 34.24C244.084 34.256 244.02 34.256 243.972 34.256C243.492 34.256 243.236 33.856 243.236 33.472C243.236 33.136 243.444 32.8 243.892 32.72C246.932 32.192 247.972 31.168 247.972 29.472C247.972 28.448 247.236 27.648 245.652 27.648C244.004 27.648 241.94 28.176 239.588 29.216C239.46 29.28 239.332 29.296 239.204 29.296C238.756 29.296 238.452 28.928 238.452 28.544C238.452 28.256 238.612 27.952 238.996 27.792C241.364 26.752 243.764 26.192 245.652 26.192ZM258.98 26.272C258.34 28.912 257.412 31.504 256.276 33.504C256.068 33.872 255.732 34.016 255.412 34.016C254.948 34.016 254.532 33.696 254.532 33.216C254.532 33.072 254.58 32.896 254.676 32.72C255.684 30.944 256.516 28.752 257.124 26.464C256.468 26.544 255.828 26.656 255.22 26.784C255.156 26.8 255.076 26.8 255.012 26.8C254.516 26.8 254.244 26.4 254.244 25.984C254.244 25.616 254.468 25.248 254.964 25.152C255.78 24.992 256.66 24.88 257.508 24.784C257.7 23.808 257.86 22.816 257.972 21.84C258.036 21.328 258.436 21.088 258.852 21.088C259.3 21.088 259.748 21.376 259.748 21.888V22C259.652 22.864 259.508 23.76 259.332 24.64C259.652 24.624 259.94 24.624 260.196 24.624C262.244 24.624 262.996 25.552 262.996 28.064C262.996 29.568 262.836 30.912 262.564 31.888C262.052 33.728 261.332 34.384 259.716 34.384C259.332 34.384 258.932 34.352 258.628 34.304C258.084 34.224 257.844 33.824 257.844 33.44C257.844 32.992 258.132 32.56 258.66 32.56C258.692 32.56 258.74 32.576 258.788 32.576C259.092 32.608 259.332 32.64 259.668 32.64C260.228 32.64 260.516 32.464 260.788 31.52C261.06 30.608 261.204 29.36 261.204 28.048C261.204 26.608 260.932 26.224 260.164 26.224C259.812 26.224 259.412 26.24 258.98 26.272ZM265.508 23.536C266.516 24.496 267.508 25.968 268.052 27.04C268.148 27.232 268.18 27.424 268.18 27.584C268.18 28.144 267.732 28.512 267.252 28.512C266.932 28.512 266.596 28.336 266.372 27.904C265.796 26.752 264.948 25.52 264.1 24.608C263.924 24.416 263.844 24.208 263.844 24.032C263.844 23.584 264.292 23.232 264.772 23.232C265.028 23.232 265.284 23.328 265.508 23.536ZM274.964 27.92H274.996C275.156 27.552 275.268 27.248 275.412 26.816C275.54 26.464 275.828 26.304 276.1 26.304C276.468 26.304 276.82 26.56 276.82 26.944C276.82 27.008 276.804 27.072 276.788 27.136C276.516 28.048 276.084 29.056 275.668 29.776C275.412 30.208 274.98 30.432 274.564 30.432C274.116 30.432 273.684 30.176 273.54 29.664C273.332 28.976 273.156 27.824 273.156 26.912C273.156 25.632 273.348 23.872 273.748 22.208C273.86 21.76 274.276 21.552 274.66 21.552C275.108 21.552 275.54 21.808 275.54 22.272C275.54 22.336 275.524 22.4 275.508 22.48C275.156 23.968 274.916 25.792 274.916 26.752C274.916 27.264 274.932 27.6 274.964 27.92ZM279.124 22.128V22.032C279.124 21.504 279.604 21.216 280.084 21.216C280.516 21.216 280.948 21.456 281.028 21.984C281.252 23.664 281.364 25.408 281.364 27.136C281.364 30.608 280.116 33.024 277.876 34.736C277.652 34.912 277.412 34.992 277.204 34.992C276.708 34.992 276.308 34.576 276.308 34.096C276.308 33.824 276.436 33.536 276.724 33.296C278.548 31.792 279.444 29.84 279.444 27.136C279.444 25.488 279.332 23.824 279.124 22.128ZM294.9 21.344V22.928H295.924C296.852 22.928 297.732 22.944 298.548 22.96C299.092 22.976 299.364 23.392 299.364 23.824C299.364 24.24 299.092 24.64 298.548 24.64C297.924 24.624 297.236 24.608 296.516 24.608C296.004 24.608 295.476 24.624 294.932 24.624C294.932 25.184 294.948 25.744 294.98 26.304C296.036 26.24 297.06 26.16 297.988 26.048H298.116C298.676 26.048 298.964 26.448 298.964 26.864C298.964 27.248 298.708 27.648 298.18 27.712C297.204 27.84 296.148 27.92 295.076 27.984C295.108 28.688 295.172 29.392 295.236 30.096C296.596 30.448 297.956 31.04 299.252 31.84C299.636 32.08 299.796 32.4 299.796 32.704C299.796 33.2 299.38 33.648 298.852 33.648C298.676 33.648 298.5 33.6 298.308 33.472C297.332 32.832 296.34 32.304 295.348 31.936V32.048C295.348 33.776 293.844 34.608 291.988 34.608C289.956 34.608 288.708 33.632 288.708 32.144C288.708 30.752 289.86 29.68 292.148 29.68C292.58 29.68 292.996 29.712 293.444 29.76C293.396 29.184 293.332 28.608 293.316 28.048H292.404C291.444 28.048 290.468 28.016 289.908 27.952C289.38 27.888 289.14 27.488 289.14 27.104C289.14 26.688 289.428 26.256 289.94 26.256H290.052C290.644 26.32 291.444 26.368 292.356 26.368H293.22C293.188 25.792 293.172 25.232 293.156 24.656C291.796 24.688 290.468 24.736 289.348 24.784C288.804 24.8 288.516 24.368 288.516 23.936C288.516 23.52 288.772 23.12 289.316 23.088C290.436 23.04 291.764 22.976 293.124 22.96V21.344C293.124 20.864 293.572 20.624 294.02 20.624C294.452 20.624 294.9 20.864 294.9 21.344ZM291.988 32.96C293.06 32.96 293.588 32.464 293.588 31.792V31.44C293.092 31.344 292.628 31.296 292.148 31.296C290.9 31.296 290.532 31.68 290.532 32.16C290.532 32.592 290.948 32.96 291.988 32.96ZM313.572 32.4C313.54 34.192 312.228 34.832 310.692 34.832C308.788 34.832 307.636 34 307.636 32.512C307.636 31.232 308.724 30.176 310.772 30.176C311.028 30.176 311.284 30.192 311.572 30.224C311.46 29.488 311.412 28.944 311.412 28.528C311.412 27.84 311.444 27.488 311.524 26.976C311.604 26.528 311.972 26.336 312.356 26.336C312.804 26.336 313.252 26.592 313.252 27.072C313.252 27.12 313.236 27.152 313.236 27.2C313.172 27.664 313.124 28.064 313.124 28.512C313.124 28.96 313.172 29.584 313.348 30.592C314.372 30.896 315.428 31.36 316.356 31.984C316.66 32.192 316.788 32.464 316.788 32.736C316.788 33.184 316.42 33.616 315.94 33.616C315.78 33.616 315.588 33.552 315.396 33.424C314.804 33.008 314.18 32.656 313.572 32.4ZM310.692 33.248C311.428 33.248 311.828 32.928 311.828 32.224C311.828 32.08 311.828 31.952 311.812 31.824C311.46 31.76 311.124 31.728 310.804 31.728C309.684 31.728 309.332 32.08 309.332 32.512C309.332 32.976 309.652 33.248 310.692 33.248ZM307.204 23.856C307.444 23.04 307.668 22.224 307.828 21.424C307.924 20.944 308.308 20.736 308.692 20.736C309.14 20.736 309.556 21.008 309.556 21.52C309.556 21.584 309.556 21.664 309.54 21.728C309.412 22.336 309.252 22.976 309.076 23.616C309.556 23.536 310.036 23.456 310.484 23.376C310.548 23.36 310.612 23.36 310.66 23.36C311.172 23.36 311.492 23.776 311.492 24.208C311.492 24.56 311.284 24.912 310.772 25.024C310.084 25.168 309.3 25.296 308.516 25.408C307.844 27.344 306.98 29.264 306.052 30.8C305.812 31.2 305.476 31.376 305.156 31.376C304.676 31.376 304.26 31.008 304.26 30.528C304.26 30.352 304.308 30.16 304.436 29.968C305.252 28.688 305.988 27.2 306.596 25.616C306.004 25.68 305.428 25.712 304.932 25.728C304.388 25.744 304.1 25.296 304.1 24.848C304.1 24.432 304.356 24.032 304.868 24.016C305.588 23.984 306.388 23.936 307.204 23.856ZM314.308 23.664C315.076 23.872 316.068 24.32 316.756 24.752C317.124 24.976 317.284 25.296 317.284 25.584C317.284 26.048 316.9 26.464 316.436 26.464C316.276 26.464 316.116 26.416 315.956 26.32C315.204 25.888 314.372 25.472 313.668 25.216C313.268 25.072 313.092 24.784 313.092 24.496C313.092 24.064 313.46 23.616 314.004 23.616C314.1 23.616 314.196 23.632 314.308 23.664ZM331.332 22C331.236 21.888 331.204 21.76 331.204 21.648C331.204 21.328 331.524 21.056 331.876 21.056C332.036 21.056 332.212 21.12 332.356 21.28C332.756 21.712 333.188 22.272 333.476 22.784C333.556 22.912 333.588 23.04 333.588 23.168C333.588 23.536 333.268 23.808 332.932 23.808C332.724 23.808 332.532 23.696 332.388 23.456C332.068 22.896 331.668 22.4 331.332 22ZM333.044 20.88C332.948 20.768 332.9 20.64 332.9 20.528C332.9 20.208 333.22 19.968 333.556 19.968C333.732 19.968 333.924 20.032 334.084 20.192C334.468 20.592 334.9 21.12 335.188 21.616C335.284 21.776 335.332 21.92 335.332 22.048C335.332 22.416 335.028 22.672 334.692 22.672C334.484 22.672 334.26 22.56 334.1 22.32C333.78 21.824 333.38 21.296 333.044 20.88ZM324.068 24.256L324.052 24.224C323.332 24.384 322.42 24.528 321.572 24.624H321.46C320.884 24.624 320.596 24.192 320.596 23.744C320.596 23.36 320.836 22.976 321.364 22.928C322.788 22.8 324.404 22.576 325.684 22.304C325.764 22.288 325.828 22.288 325.892 22.288C326.452 22.288 326.82 22.72 326.82 23.184C326.82 23.44 326.708 23.696 326.468 23.888C324.068 25.824 323.364 28.016 323.364 29.808C323.364 31.808 324.388 32.784 325.876 32.784C328.084 32.784 329.54 31.12 329.54 27.744C329.54 25.984 329.316 24.432 328.916 23.088C328.9 23.008 328.884 22.928 328.884 22.864C328.884 22.352 329.348 22.032 329.828 22.032C330.164 22.032 330.516 22.192 330.692 22.576C331.476 24.208 332.82 26.048 334.036 27.184C334.292 27.424 334.404 27.696 334.404 27.952C334.404 28.448 333.956 28.88 333.476 28.88C333.22 28.88 332.964 28.768 332.74 28.48C331.924 27.472 331.332 26.544 330.948 25.776L330.916 25.792C331.076 26.624 331.156 27.456 331.156 28.288C331.156 32.32 329.044 34.592 325.908 34.592C323.492 34.592 321.572 33.136 321.572 29.84C321.572 28.08 322.228 26.048 324.068 24.256ZM340.084 25.808C339.428 25.904 338.772 26 338.116 26C337.588 26 337.316 25.6 337.316 25.168C337.316 24.736 337.588 24.32 338.132 24.288C338.772 24.256 339.54 24.16 340.404 24.016C340.548 23.136 340.612 22.432 340.708 21.552C340.756 21.056 341.172 20.816 341.588 20.816C342.036 20.816 342.484 21.104 342.484 21.616V21.712C342.404 22.48 342.324 23.056 342.228 23.664C342.676 23.568 343.14 23.456 343.604 23.344C343.684 23.328 343.764 23.312 343.844 23.312C344.34 23.312 344.644 23.728 344.644 24.16C344.644 24.496 344.452 24.832 344.02 24.944C343.284 25.152 342.58 25.328 341.94 25.472C341.364 28.608 340.596 31.568 339.7 33.888C339.508 34.368 339.108 34.592 338.724 34.592C338.276 34.592 337.844 34.272 337.844 33.776C337.844 33.632 337.876 33.488 337.94 33.328C338.82 31.152 339.524 28.608 340.084 25.808ZM343.3 31.296C343.3 30.752 343.748 30.448 344.196 30.448C344.564 30.448 344.916 30.656 344.964 31.12C345.076 32.144 345.652 32.432 347.396 32.432C348.212 32.432 348.9 32.368 349.54 32.272C349.588 32.256 349.668 32.256 349.716 32.256C350.26 32.256 350.564 32.72 350.564 33.152C350.564 33.536 350.324 33.92 349.828 34C349.14 34.112 348.34 34.176 347.428 34.176C345.188 34.176 344.196 33.6 343.684 32.784C343.428 32.384 343.3 31.744 343.3 31.296ZM344.9 26.064C346.148 25.808 347.732 25.632 349.012 25.632C349.588 25.632 349.876 26.064 349.876 26.496C349.876 26.912 349.604 27.312 349.06 27.312C347.78 27.312 346.292 27.504 345.156 27.728C345.092 27.744 345.012 27.744 344.964 27.744C344.468 27.744 344.164 27.344 344.164 26.912C344.164 26.544 344.388 26.176 344.9 26.064ZM354.452 23.28C354.5 22.768 354.948 22.512 355.38 22.512C355.86 22.512 356.324 22.8 356.324 23.36C356.324 23.584 356.26 24.368 356.26 24.864C356.26 30.464 357.396 31.936 358.068 31.936C358.452 31.936 358.804 31.68 359.108 30.48C359.236 30 359.572 29.792 359.924 29.792C360.388 29.792 360.836 30.128 360.836 30.656C360.836 30.752 360.836 30.832 360.804 30.928C360.212 33.072 359.188 33.856 358.116 33.856C355.796 33.856 354.388 30.992 354.388 24.912C354.388 24.176 354.42 23.696 354.452 23.28ZM364.34 24.416C365.684 25.664 366.916 27.664 367.444 29.296C367.492 29.424 367.508 29.536 367.508 29.632C367.508 30.16 367.06 30.48 366.612 30.48C366.276 30.48 365.924 30.304 365.764 29.872C365.188 28.4 364.148 26.72 362.996 25.52C362.804 25.328 362.724 25.12 362.724 24.928C362.724 24.48 363.156 24.112 363.636 24.112C363.86 24.112 364.116 24.208 364.34 24.416ZM370.836 31.504C370.836 30.064 371.876 28.016 374.612 26.768C374.628 26.048 374.676 25.328 374.74 24.624C374.004 24.656 373.3 24.672 372.676 24.672C372.148 24.672 371.892 24.272 371.892 23.856C371.892 23.456 372.148 23.056 372.676 23.056C373.348 23.056 374.116 23.04 374.9 22.992C374.964 22.4 375.044 21.792 375.14 21.152C375.22 20.688 375.62 20.464 376.004 20.464C376.436 20.464 376.852 20.72 376.852 21.168C376.852 21.216 376.836 21.248 376.836 21.296C376.756 21.84 376.676 22.368 376.596 22.88C377.764 22.784 378.9 22.64 379.796 22.48C379.86 22.464 379.924 22.464 379.988 22.464C380.516 22.464 380.804 22.864 380.804 23.264C380.804 23.616 380.58 23.984 380.1 24.064C379.044 24.256 377.732 24.4 376.404 24.512C376.372 25.072 376.308 25.648 376.276 26.224C377.044 26.048 377.844 25.968 378.628 25.968C378.692 25.76 378.756 25.552 378.804 25.328C378.9 24.928 379.252 24.752 379.604 24.752C380.02 24.752 380.436 25.008 380.436 25.456C380.436 25.52 380.42 25.584 380.404 25.664C380.356 25.824 380.324 25.984 380.276 26.144C382.484 26.656 383.748 28.304 383.748 30.208C383.748 32.544 382.148 34.288 379.476 34.944C379.396 34.96 379.3 34.976 379.22 34.976C378.708 34.976 378.372 34.544 378.372 34.096C378.372 33.76 378.58 33.408 379.06 33.264C381.092 32.64 381.94 31.6 381.94 30.224C381.94 29.12 381.22 28 379.78 27.6C379.092 29.36 378.084 31.04 376.644 32.272C376.708 32.608 376.772 32.928 376.852 33.232C376.868 33.296 376.884 33.376 376.884 33.44C376.884 33.936 376.42 34.224 375.988 34.224C375.652 34.224 375.316 34.048 375.22 33.648L375.124 33.248C374.436 33.664 373.78 33.808 373.092 33.808C371.732 33.808 370.836 32.944 370.836 31.504ZM372.532 31.392C372.532 31.904 372.66 32.128 373.204 32.144C373.684 32.144 374.148 32 374.82 31.568C374.676 30.528 374.596 29.488 374.58 28.448C373.108 29.408 372.516 30.48 372.532 31.392ZM376.356 30.368C377.108 29.504 377.684 28.512 378.116 27.456C377.476 27.488 376.852 27.584 376.228 27.76V28.032C376.228 28.752 376.276 29.552 376.356 30.368ZM396.772 32.4C396.74 34.192 395.428 34.832 393.892 34.832C391.988 34.832 390.836 34 390.836 32.512C390.836 31.232 391.924 30.176 393.972 30.176C394.228 30.176 394.484 30.192 394.772 30.224C394.66 29.488 394.612 28.944 394.612 28.528C394.612 27.84 394.644 27.488 394.724 26.976C394.804 26.528 395.172 26.336 395.556 26.336C396.004 26.336 396.452 26.592 396.452 27.072C396.452 27.12 396.436 27.152 396.436 27.2C396.372 27.664 396.324 28.064 396.324 28.512C396.324 28.96 396.372 29.584 396.548 30.592C397.572 30.896 398.628 31.36 399.556 31.984C399.86 32.192 399.988 32.464 399.988 32.736C399.988 33.184 399.62 33.616 399.14 33.616C398.98 33.616 398.788 33.552 398.596 33.424C398.004 33.008 397.38 32.656 396.772 32.4ZM393.892 33.248C394.628 33.248 395.028 32.928 395.028 32.224C395.028 32.08 395.028 31.952 395.012 31.824C394.66 31.76 394.324 31.728 394.004 31.728C392.884 31.728 392.532 32.08 392.532 32.512C392.532 32.976 392.852 33.248 393.892 33.248ZM390.404 23.856C390.644 23.04 390.868 22.224 391.028 21.424C391.124 20.944 391.508 20.736 391.892 20.736C392.34 20.736 392.756 21.008 392.756 21.52C392.756 21.584 392.756 21.664 392.74 21.728C392.612 22.336 392.452 22.976 392.276 23.616C392.756 23.536 393.236 23.456 393.684 23.376C393.748 23.36 393.812 23.36 393.86 23.36C394.372 23.36 394.692 23.776 394.692 24.208C394.692 24.56 394.484 24.912 393.972 25.024C393.284 25.168 392.5 25.296 391.716 25.408C391.044 27.344 390.18 29.264 389.252 30.8C389.012 31.2 388.676 31.376 388.356 31.376C387.876 31.376 387.46 31.008 387.46 30.528C387.46 30.352 387.508 30.16 387.636 29.968C388.452 28.688 389.188 27.2 389.796 25.616C389.204 25.68 388.628 25.712 388.132 25.728C387.588 25.744 387.3 25.296 387.3 24.848C387.3 24.432 387.556 24.032 388.068 24.016C388.788 23.984 389.588 23.936 390.404 23.856ZM397.508 23.664C398.276 23.872 399.268 24.32 399.956 24.752C400.324 24.976 400.484 25.296 400.484 25.584C400.484 26.048 400.1 26.464 399.636 26.464C399.476 26.464 399.316 26.416 399.156 26.32C398.404 25.888 397.572 25.472 396.868 25.216C396.468 25.072 396.292 24.784 396.292 24.496C396.292 24.064 396.66 23.616 397.204 23.616C397.3 23.616 397.396 23.632 397.508 23.664ZM406.644 25.808C405.988 25.904 405.332 26 404.676 26C404.148 26 403.876 25.6 403.876 25.168C403.876 24.736 404.148 24.32 404.692 24.288C405.332 24.256 406.1 24.16 406.964 24.016C407.108 23.136 407.172 22.432 407.268 21.552C407.316 21.056 407.732 20.816 408.148 20.816C408.596 20.816 409.044 21.104 409.044 21.616V21.712C408.964 22.48 408.884 23.056 408.788 23.664C409.236 23.568 409.7 23.456 410.164 23.344C410.244 23.328 410.324 23.312 410.404 23.312C410.9 23.312 411.204 23.728 411.204 24.16C411.204 24.496 411.012 24.832 410.58 24.944C409.844 25.152 409.14 25.328 408.5 25.472C407.924 28.608 407.156 31.568 406.26 33.888C406.068 34.368 405.668 34.592 405.284 34.592C404.836 34.592 404.404 34.272 404.404 33.776C404.404 33.632 404.436 33.488 404.5 33.328C405.38 31.152 406.084 28.608 406.644 25.808ZM409.86 31.296C409.86 30.752 410.308 30.448 410.756 30.448C411.124 30.448 411.476 30.656 411.524 31.12C411.636 32.144 412.212 32.432 413.956 32.432C414.772 32.432 415.46 32.368 416.1 32.272C416.148 32.256 416.228 32.256 416.276 32.256C416.82 32.256 417.124 32.72 417.124 33.152C417.124 33.536 416.884 33.92 416.388 34C415.7 34.112 414.9 34.176 413.988 34.176C411.748 34.176 410.756 33.6 410.244 32.784C409.988 32.384 409.86 31.744 409.86 31.296ZM411.46 26.064C412.708 25.808 414.292 25.632 415.572 25.632C416.148 25.632 416.436 26.064 416.436 26.496C416.436 26.912 416.164 27.312 415.62 27.312C414.34 27.312 412.852 27.504 411.716 27.728C411.652 27.744 411.572 27.744 411.524 27.744C411.028 27.744 410.724 27.344 410.724 26.912C410.724 26.544 410.948 26.176 411.46 26.064ZM422.052 22.512C422.148 22.048 422.548 21.84 422.948 21.84C423.412 21.84 423.876 22.112 423.876 22.656C423.876 22.704 423.876 22.768 423.86 22.832C423.316 25.456 423.124 27.632 423.124 29.904C423.124 31.232 423.3 32.72 423.412 33.664C423.412 33.712 423.428 33.76 423.428 33.792C423.428 34.336 422.964 34.64 422.5 34.64C422.068 34.64 421.652 34.4 421.572 33.856C421.444 32.832 421.3 31.248 421.3 29.904C421.3 27.52 421.492 25.36 422.052 22.512ZM431.748 23.248H431.876C432.436 23.248 432.74 23.664 432.74 24.096C432.74 24.496 432.484 24.896 431.924 24.976C430.516 25.168 428.932 25.296 427.412 25.328C426.788 25.344 426.484 24.912 426.484 24.464C426.484 24.048 426.772 23.616 427.348 23.6C428.836 23.568 430.356 23.44 431.748 23.248ZM427.572 30.32C427.716 31.312 428.212 31.68 430.212 31.68C430.932 31.68 431.812 31.6 432.628 31.44C432.692 31.424 432.756 31.424 432.82 31.424C433.364 31.424 433.668 31.872 433.668 32.32C433.668 32.688 433.46 33.072 432.964 33.168C432.02 33.36 431.076 33.44 430.196 33.44C427.236 33.44 426.004 32.544 425.828 30.608V30.528C425.828 29.952 426.292 29.632 426.756 29.632C427.14 29.632 427.508 29.856 427.572 30.32ZM439.524 29.648C441.012 29.648 442.196 30.8 442.196 32.288C442.196 33.776 441.012 34.944 439.524 34.944C438.036 34.944 436.836 33.776 436.836 32.288C436.836 30.8 438.036 29.648 439.524 29.648ZM439.524 30.72C438.628 30.72 437.94 31.408 437.94 32.288C437.94 33.184 438.628 33.872 439.524 33.872C440.404 33.872 441.092 33.184 441.092 32.288C441.092 31.408 440.404 30.72 439.524 30.72Z" fill="black"/>
</svg>
