<svg width="266" height="110" viewBox="0 0 266 110" fill="none" xmlns="http://www.w3.org/2000/svg">
<path d="M136.5 80.5H169L196.5 109.5L136.5 80.5Z" fill="white"/>
<rect width="266" height="82" rx="41" fill="white"/>
<path d="M26.772 33.23L26.828 30.514C26.478 31.298 26.044 32.04 25.624 32.544C25.428 32.782 25.204 32.88 24.994 32.88C24.644 32.88 24.35 32.614 24.35 32.264C24.35 32.124 24.406 31.956 24.532 31.802C25.316 30.836 25.974 29.562 26.478 28.19H25.036C24.686 28.19 24.504 27.854 24.504 27.532C24.504 27.196 24.686 26.874 25.022 26.874H26.772V22.688C26.772 22.31 27.136 22.128 27.5 22.128C27.864 22.128 28.228 22.31 28.228 22.688V26.874H29.572C29.922 26.874 30.104 27.196 30.104 27.532C30.104 27.854 29.922 28.19 29.572 28.19H28.228V28.778C28.956 29.226 29.656 29.8 29.936 30.122C30.104 30.318 30.174 30.5 30.174 30.682C30.174 31.032 29.88 31.312 29.544 31.312C29.362 31.312 29.166 31.228 28.998 31.046C28.774 30.794 28.508 30.542 28.228 30.304V34.658C28.228 35.078 27.864 35.288 27.5 35.288C27.136 35.288 26.772 35.078 26.772 34.658V33.23ZM35.816 29.646L36.796 29.422C36.852 29.408 36.894 29.408 36.95 29.408C37.342 29.408 37.58 29.786 37.58 30.15C37.58 30.43 37.426 30.696 37.09 30.78L35.816 31.074V34.56C35.816 34.994 35.438 35.204 35.06 35.204C34.668 35.204 34.29 34.994 34.29 34.56V31.41L31.042 32.152C30.986 32.166 30.944 32.166 30.902 32.166C30.51 32.166 30.258 31.774 30.258 31.41C30.258 31.13 30.398 30.85 30.734 30.78L34.29 29.982V22.842C34.29 22.408 34.668 22.198 35.06 22.198C35.438 22.198 35.816 22.408 35.816 22.842V29.646ZM28.928 24.228C28.998 23.962 29.222 23.836 29.46 23.836C29.768 23.836 30.076 24.046 30.076 24.382C30.076 24.424 30.076 24.48 30.062 24.536C29.95 24.998 29.74 25.586 29.53 26.006C29.418 26.216 29.208 26.314 29.012 26.314C28.704 26.314 28.41 26.118 28.41 25.824C28.41 25.754 28.424 25.684 28.466 25.6C28.634 25.222 28.802 24.732 28.928 24.228ZM26.086 24.27C26.31 24.76 26.52 25.264 26.548 25.572C26.562 25.614 26.562 25.656 26.562 25.698C26.562 26.076 26.24 26.314 25.918 26.314C25.666 26.314 25.414 26.174 25.344 25.852C25.26 25.502 25.106 24.97 24.966 24.648C24.938 24.564 24.924 24.494 24.924 24.424C24.924 24.116 25.218 23.934 25.526 23.934C25.75 23.934 25.974 24.032 26.086 24.27ZM32.428 24.088C32.82 24.368 33.254 24.718 33.576 25.082C33.73 25.25 33.8 25.432 33.8 25.6C33.8 25.992 33.45 26.314 33.072 26.314C32.89 26.314 32.694 26.244 32.526 26.076C32.19 25.754 31.812 25.418 31.504 25.152C31.322 24.998 31.238 24.802 31.238 24.634C31.238 24.27 31.574 23.934 31.98 23.934C32.12 23.934 32.274 23.976 32.428 24.088ZM31.896 27.014C32.316 27.308 32.722 27.63 33.1 28.022C33.254 28.19 33.324 28.372 33.324 28.54C33.324 28.932 32.974 29.268 32.596 29.268C32.414 29.268 32.232 29.198 32.064 29.03C31.742 28.722 31.308 28.33 30.972 28.078C30.776 27.924 30.692 27.742 30.692 27.56C30.692 27.196 31.042 26.86 31.448 26.86C31.588 26.86 31.742 26.902 31.896 27.014ZM47.016 29.352H45.994C44.776 29.352 44.272 28.862 44.272 27.854V24.396C44.272 23.388 44.776 22.884 45.994 22.884H49.592C50.81 22.884 51.328 23.388 51.328 24.396V27.854C51.328 28.862 50.81 29.352 49.592 29.352H48.514V30.654H50.67C51.02 30.654 51.202 30.976 51.202 31.312C51.202 31.634 51.02 31.97 50.67 31.97H48.514V33.482H51.552C51.902 33.482 52.084 33.804 52.084 34.14C52.084 34.462 51.902 34.798 51.552 34.798H43.292C42.956 34.798 42.774 34.462 42.774 34.14C42.774 33.804 42.956 33.482 43.292 33.482H47.016V31.97H44.832C44.496 31.97 44.314 31.634 44.314 31.312C44.314 30.976 44.496 30.654 44.832 30.654H47.016V29.352ZM46.148 28.092H47.058V26.748H45.7V27.728C45.7 28.05 45.854 28.092 46.148 28.092ZM45.7 25.516H47.058V24.172H46.148C45.798 24.172 45.7 24.242 45.7 24.536V25.516ZM48.458 24.172V25.516H49.9V24.536C49.9 24.242 49.816 24.172 49.452 24.172H48.458ZM49.9 26.748H48.458V28.092H49.452C49.816 28.092 49.9 28.022 49.9 27.728V26.748ZM40.73 31.354V28.232H39.848C39.484 28.232 39.302 27.896 39.302 27.56C39.302 27.238 39.484 26.902 39.848 26.902H40.73V24.578H39.652C39.288 24.578 39.106 24.242 39.106 23.906C39.106 23.584 39.288 23.248 39.652 23.248H43.208C43.572 23.248 43.754 23.584 43.754 23.906C43.754 24.242 43.572 24.578 43.208 24.578H42.2V26.902H42.984C43.348 26.902 43.53 27.238 43.53 27.56C43.53 27.896 43.348 28.232 42.984 28.232H42.2V30.892C42.452 30.794 42.704 30.71 42.928 30.612C43.04 30.57 43.138 30.556 43.236 30.556C43.628 30.556 43.866 30.892 43.866 31.228C43.866 31.466 43.754 31.704 43.474 31.83C42.326 32.348 40.954 32.81 39.862 33.062C39.792 33.076 39.722 33.09 39.666 33.09C39.232 33.09 38.98 32.726 38.98 32.362C38.98 32.054 39.148 31.774 39.526 31.676C39.904 31.592 40.31 31.48 40.73 31.354ZM56.774 33.048C55.346 33.048 54.156 31.9 54.156 29.716C54.156 26.524 56.802 23.906 60.652 23.906C64.068 23.906 66.042 26.048 66.042 28.834C66.042 31.368 64.544 33.23 62.136 34C62.024 34.042 61.912 34.056 61.814 34.056C61.338 34.056 61.03 33.664 61.03 33.258C61.03 32.95 61.198 32.642 61.618 32.488C63.606 31.774 64.404 30.57 64.404 28.834C64.404 27 63.158 25.488 61.03 25.334C60.89 27.658 60.316 29.758 59.448 31.284C58.678 32.642 57.852 33.048 56.774 33.048ZM59.392 25.432C57.306 25.838 55.766 27.644 55.766 29.716C55.766 31.004 56.27 31.48 56.774 31.48C57.208 31.48 57.586 31.256 57.992 30.542C58.706 29.296 59.224 27.49 59.392 25.432ZM71.194 30.458C71.194 28.232 71.334 25.572 71.488 23.514C71.516 23.038 71.908 22.814 72.3 22.814C72.72 22.814 73.112 23.052 73.112 23.514C73.112 23.668 73.084 24.032 73.07 24.186C72.93 26.258 72.818 28.4 72.818 30.472C72.818 32.348 73.392 32.852 74.386 32.852C75.688 32.852 76.906 32.32 78.194 30.724C78.39 30.472 78.642 30.374 78.866 30.374C79.3 30.374 79.692 30.71 79.692 31.144C79.692 31.312 79.636 31.48 79.496 31.662C77.9 33.65 76.206 34.406 74.386 34.406C72.3 34.406 71.194 33.37 71.194 30.458ZM89.66 22.926C89.828 22.66 90.08 22.548 90.318 22.548C90.738 22.548 91.158 22.87 91.158 23.332C91.158 23.486 91.102 23.654 90.99 23.836C90.136 25.096 88.89 26.622 87.812 27.784C87.588 28.022 87.518 28.176 87.518 28.4C87.518 28.638 87.63 28.806 87.854 29.058C89.1 30.374 90.36 31.942 91.41 33.412C91.55 33.622 91.62 33.818 91.62 33.986C91.62 34.462 91.186 34.798 90.738 34.798C90.444 34.798 90.164 34.658 89.954 34.336C89.058 32.936 87.77 31.228 86.636 29.968C86.132 29.394 85.894 28.918 85.894 28.414C85.894 27.952 86.048 27.476 86.552 26.958C87.63 25.866 88.792 24.27 89.66 22.926ZM100.342 23.542L102.666 23.192C102.806 23.164 102.946 23.164 103.086 23.164C103.954 23.164 104.444 23.654 104.444 24.396C104.444 24.508 104.444 24.62 104.416 24.746C104.234 25.768 103.968 26.804 103.674 27.784C104.598 27.91 105.508 28.162 106.404 28.456C106.544 27.798 106.628 27.084 106.67 26.328C106.684 25.894 107.062 25.67 107.454 25.67C107.86 25.67 108.266 25.922 108.266 26.412C108.266 27.21 108.098 28.19 107.888 29.072C108.588 29.394 109.274 29.772 109.946 30.206C110.226 30.388 110.338 30.654 110.338 30.906C110.338 31.34 110.002 31.746 109.554 31.746C109.4 31.746 109.232 31.704 109.064 31.592C108.504 31.228 107.958 30.906 107.412 30.626C106.88 32.054 106.11 33.272 105.172 34.196C104.948 34.42 104.71 34.518 104.486 34.518C104.052 34.518 103.702 34.14 103.702 33.734C103.702 33.552 103.772 33.356 103.94 33.188C104.808 32.32 105.508 31.242 105.97 29.954C105.074 29.59 104.164 29.324 103.212 29.17C102.932 29.912 102.638 30.598 102.344 31.172C101.63 32.586 100.902 33.034 99.894 33.034C98.732 33.034 97.878 32.278 97.878 30.836C97.878 29.086 99.46 27.644 101.798 27.644H102.12C102.4 26.748 102.666 25.81 102.778 24.928C102.778 24.886 102.792 24.844 102.792 24.816C102.792 24.69 102.708 24.676 102.512 24.704L100.552 25.026C100.496 25.04 100.44 25.04 100.398 25.04C99.95 25.04 99.684 24.662 99.684 24.284C99.684 23.948 99.894 23.612 100.342 23.542ZM99.908 31.508C100.314 31.508 100.538 31.382 100.916 30.682C101.168 30.206 101.406 29.646 101.63 29.058C100.174 29.072 99.404 29.898 99.404 30.78C99.404 31.284 99.628 31.508 99.908 31.508ZM116.148 27.364L116.176 27.392C116.54 27.252 116.946 27.154 117.38 27.154C118.346 27.154 118.976 27.448 119.34 28.484C120.432 28.022 121.608 27.602 122.84 27.224C122.938 27.196 123.036 27.182 123.12 27.182C123.582 27.182 123.848 27.56 123.848 27.938C123.848 28.232 123.68 28.54 123.288 28.652C122.07 29.016 120.824 29.436 119.648 29.912C119.718 30.43 119.746 31.046 119.774 31.774C119.788 32.25 119.382 32.502 118.976 32.502C118.612 32.502 118.248 32.292 118.234 31.858C118.22 31.326 118.192 30.878 118.164 30.5C116.708 31.242 116.372 31.872 116.372 32.39C116.372 32.936 116.876 33.258 118.486 33.258C119.368 33.258 120.292 33.174 121.202 33.02C121.258 33.006 121.314 33.006 121.356 33.006C121.832 33.006 122.112 33.384 122.112 33.776C122.112 34.112 121.888 34.448 121.412 34.532C120.502 34.7 119.466 34.756 118.542 34.756C115.896 34.756 114.776 33.874 114.776 32.502C114.776 31.382 115.434 30.304 117.926 29.058C117.744 28.54 117.45 28.428 116.946 28.428C116.428 28.428 115.406 28.806 114.076 29.87C113.908 29.996 113.74 30.052 113.572 30.052C113.166 30.052 112.816 29.702 112.816 29.31C112.816 29.1 112.914 28.89 113.138 28.694C114.02 27.924 114.818 27.014 115.504 25.964C114.958 26.006 114.454 26.02 113.992 26.034C113.488 26.048 113.222 25.67 113.222 25.306C113.222 24.956 113.474 24.592 113.992 24.592C114.65 24.592 115.434 24.55 116.246 24.494C116.484 23.934 116.694 23.388 116.862 22.87C116.974 22.52 117.268 22.366 117.576 22.366C117.968 22.366 118.346 22.618 118.346 23.01C118.346 23.08 118.346 23.15 118.318 23.22C118.192 23.612 118.052 23.976 117.898 24.326C118.626 24.256 119.326 24.158 119.928 24.046C119.984 24.032 120.04 24.032 120.096 24.032C120.53 24.032 120.768 24.368 120.768 24.704C120.768 25.012 120.572 25.334 120.152 25.404C119.27 25.558 118.22 25.712 117.184 25.81C116.834 26.384 116.484 26.916 116.148 27.364ZM135.93 28.414H138.66C139.038 28.414 139.234 28.722 139.234 29.03C139.234 29.338 139.038 29.646 138.66 29.646H136.084C136.84 30.402 137.89 31.102 139.024 31.62C139.374 31.774 139.528 32.068 139.528 32.32C139.528 32.684 139.262 33.02 138.856 33.02C138.73 33.02 138.604 32.992 138.464 32.922C136.98 32.236 135.454 31.06 134.39 29.646H131.478C130.372 31.172 128.93 32.334 127.418 33.118C127.264 33.202 127.124 33.23 126.984 33.23C126.592 33.23 126.326 32.922 126.326 32.586C126.326 32.334 126.466 32.082 126.802 31.914C127.88 31.382 128.902 30.626 129.742 29.646H127.222C126.858 29.646 126.662 29.338 126.662 29.03C126.662 28.722 126.858 28.414 127.222 28.414H129.896V24.578H127.88C127.516 24.578 127.32 24.27 127.32 23.962C127.32 23.654 127.516 23.346 127.88 23.346H129.896V22.646C129.896 22.254 130.26 22.072 130.624 22.072C130.988 22.072 131.352 22.254 131.352 22.646V23.346H134.474V22.646C134.474 22.254 134.838 22.072 135.202 22.072C135.566 22.072 135.93 22.254 135.93 22.646V23.346H138.058C138.436 23.346 138.632 23.654 138.632 23.962C138.632 24.27 138.436 24.578 138.058 24.578H135.93V28.414ZM134.474 28.414V27.798H131.352V28.414H134.474ZM131.352 24.578V25.166H134.474V24.578H131.352ZM131.352 26.188V26.776H134.474V26.188H131.352ZM132.164 33.608V32.502H130.526C130.176 32.502 130.008 32.208 130.008 31.9C130.008 31.606 130.176 31.312 130.526 31.312H132.164V30.64C132.164 30.248 132.528 30.066 132.892 30.066C133.256 30.066 133.62 30.248 133.62 30.64V31.312H135.37C135.734 31.312 135.902 31.606 135.902 31.9C135.902 32.208 135.734 32.502 135.37 32.502H133.62V33.608H137.974C138.338 33.608 138.506 33.916 138.506 34.21C138.506 34.518 138.338 34.826 137.974 34.826H127.866C127.516 34.826 127.334 34.518 127.334 34.21C127.334 33.916 127.516 33.608 127.866 33.608H132.164ZM141.866 30.78L141.894 29.562C141.74 29.772 141.53 29.856 141.334 29.856C140.984 29.856 140.662 29.618 140.662 29.24C140.662 29.114 140.704 28.96 140.802 28.806C141.488 27.644 142.034 25.992 142.272 24.368H141.39C141.026 24.368 140.83 24.032 140.83 23.696C140.83 23.374 141.026 23.038 141.39 23.038H144.764C145.142 23.038 145.338 23.374 145.338 23.696C145.338 24.032 145.142 24.368 144.764 24.368H143.672C143.546 25.222 143.35 26.062 143.084 26.888H144.022C144.918 26.888 145.24 27.238 145.24 28.092V32.278C145.24 33.16 144.904 33.482 144.022 33.482H143.084C142.202 33.482 141.866 33.118 141.866 32.25V30.78ZM143.42 32.236H143.686C143.868 32.236 143.924 32.18 143.924 31.942V28.4C143.924 28.162 143.868 28.106 143.686 28.106H143.42C143.238 28.106 143.168 28.162 143.168 28.4V31.942C143.168 32.138 143.21 32.236 143.42 32.236ZM146.962 27.378L147.004 26.482C146.822 26.776 146.598 27.07 146.332 27.364C146.164 27.546 145.982 27.63 145.814 27.63C145.52 27.63 145.282 27.378 145.282 27.084C145.282 26.944 145.338 26.79 145.478 26.636C145.926 26.16 146.332 25.586 146.71 24.956H145.954C145.646 24.956 145.492 24.662 145.492 24.382C145.492 24.088 145.646 23.808 145.954 23.808H146.962V22.73C146.962 22.394 147.284 22.226 147.592 22.226C147.914 22.226 148.222 22.394 148.222 22.73V23.808H148.852C149.16 23.808 149.314 24.088 149.314 24.382C149.314 24.662 149.16 24.956 148.852 24.956H148.222V25.208C148.502 25.376 148.81 25.558 149.034 25.712C149.258 25.866 149.342 26.048 149.342 26.216C149.342 26.496 149.104 26.734 148.824 26.734C148.698 26.734 148.572 26.692 148.446 26.594C148.362 26.538 148.292 26.482 148.222 26.426V27.84C148.222 28.204 147.914 28.386 147.592 28.386C147.284 28.386 146.962 28.204 146.962 27.84V27.378ZM153.22 24.956H152.212C152.66 25.558 153.206 26.146 153.794 26.664C153.962 26.818 154.032 26.986 154.032 27.154C154.032 27.49 153.766 27.784 153.43 27.784C153.248 27.784 153.066 27.7 152.884 27.518C152.59 27.224 152.282 26.846 152.002 26.44L152.044 27.434V27.84C152.044 28.204 151.736 28.386 151.414 28.386C151.106 28.386 150.784 28.204 150.784 27.84V27.434L150.826 26.496C150.588 26.888 150.252 27.322 149.944 27.672C149.79 27.84 149.608 27.91 149.454 27.91C149.16 27.91 148.908 27.686 148.908 27.392C148.908 27.252 148.978 27.084 149.118 26.93C149.622 26.398 150.098 25.74 150.532 24.956H150.028C149.72 24.956 149.566 24.662 149.566 24.382C149.566 24.088 149.72 23.808 150.028 23.808H150.784V22.73C150.784 22.394 151.106 22.226 151.414 22.226C151.736 22.226 152.044 22.394 152.044 22.73V23.808H153.22C153.528 23.808 153.682 24.088 153.682 24.382C153.682 24.662 153.528 24.956 153.22 24.956ZM148.796 33.188V29.856H146.318C145.94 29.856 145.758 29.548 145.758 29.24C145.758 28.918 145.954 28.596 146.318 28.596H152.128C152.982 28.596 153.346 28.974 153.346 29.548C153.346 29.716 153.318 29.912 153.248 30.122C153.164 30.388 153.066 30.612 152.912 30.864C152.744 31.13 152.506 31.242 152.268 31.242C152.17 31.242 152.086 31.228 151.988 31.186C152.114 31.312 152.17 31.48 152.17 31.662C152.17 31.97 151.988 32.278 151.638 32.278H150.224V33.538C150.49 33.566 150.784 33.58 151.092 33.58C151.806 33.58 152.31 33.566 152.842 33.524C153.01 33.51 153.234 33.51 153.29 33.51C153.752 33.51 153.976 33.874 153.976 34.21C153.976 34.546 153.766 34.882 153.318 34.896C152.492 34.938 151.89 34.938 151.162 34.938C149.188 34.938 148.012 34.518 147.06 33.384C146.78 33.888 146.472 34.35 146.15 34.742C145.954 34.98 145.716 35.078 145.506 35.078C145.128 35.078 144.806 34.784 144.806 34.406C144.806 34.252 144.862 34.07 145.016 33.902C145.702 33.118 146.318 31.9 146.64 30.794C146.738 30.458 147.018 30.318 147.312 30.318C147.662 30.318 148.026 30.542 148.026 30.934C148.026 31.004 148.026 31.074 147.998 31.144C147.9 31.48 147.774 31.83 147.634 32.166C147.942 32.6 148.32 32.964 148.796 33.188ZM150.224 31.046H151.638C151.694 31.046 151.736 31.046 151.778 31.06C151.666 30.962 151.582 30.822 151.582 30.654C151.582 30.57 151.61 30.458 151.666 30.36C151.722 30.262 151.778 30.15 151.806 30.066C151.82 30.024 151.834 29.982 151.834 29.954C151.834 29.884 151.764 29.856 151.61 29.856H150.224V31.046ZM160.43 27.238C159.87 29.548 159.058 31.816 158.064 33.566C157.882 33.888 157.588 34.014 157.308 34.014C156.902 34.014 156.538 33.734 156.538 33.314C156.538 33.188 156.58 33.034 156.664 32.88C157.546 31.326 158.274 29.408 158.806 27.406C158.232 27.476 157.672 27.574 157.14 27.686C157.084 27.7 157.014 27.7 156.958 27.7C156.524 27.7 156.286 27.35 156.286 26.986C156.286 26.664 156.482 26.342 156.916 26.258C157.63 26.118 158.4 26.02 159.142 25.936C159.31 25.082 159.45 24.214 159.548 23.36C159.604 22.912 159.954 22.702 160.318 22.702C160.71 22.702 161.102 22.954 161.102 23.402V23.5C161.018 24.256 160.892 25.04 160.738 25.81C161.018 25.796 161.27 25.796 161.494 25.796C163.286 25.796 163.944 26.608 163.944 28.806C163.944 30.122 163.804 31.298 163.566 32.152C163.118 33.762 162.488 34.336 161.074 34.336C160.738 34.336 160.388 34.308 160.122 34.266C159.646 34.196 159.436 33.846 159.436 33.51C159.436 33.118 159.688 32.74 160.15 32.74C160.178 32.74 160.22 32.754 160.262 32.754C160.528 32.782 160.738 32.81 161.032 32.81C161.522 32.81 161.774 32.656 162.012 31.83C162.25 31.032 162.376 29.94 162.376 28.792C162.376 27.532 162.138 27.196 161.466 27.196C161.158 27.196 160.808 27.21 160.43 27.238ZM166.142 24.844C167.024 25.684 167.892 26.972 168.368 27.91C168.452 28.078 168.48 28.246 168.48 28.386C168.48 28.876 168.088 29.198 167.668 29.198C167.388 29.198 167.094 29.044 166.898 28.666C166.394 27.658 165.652 26.58 164.91 25.782C164.756 25.614 164.686 25.432 164.686 25.278C164.686 24.886 165.078 24.578 165.498 24.578C165.722 24.578 165.946 24.662 166.142 24.844ZM175.62 22.716C176.376 22.898 177.314 23.22 178.042 23.598C178.392 23.78 178.532 24.074 178.532 24.368C178.532 24.76 178.238 25.138 177.79 25.138C177.664 25.138 177.524 25.11 177.37 25.04C176.642 24.718 175.76 24.368 175.088 24.172C174.724 24.06 174.556 23.78 174.556 23.5C174.556 23.108 174.878 22.688 175.382 22.688C175.452 22.688 175.536 22.702 175.62 22.716ZM173.73 29.31L173.758 29.324C174.822 28.4 176.432 27.826 177.818 27.826C180.016 27.826 181.374 29.03 181.374 30.612C181.374 32.768 179.596 34.308 176.222 34.7C176.18 34.7 176.138 34.714 176.096 34.714C175.606 34.714 175.326 34.322 175.326 33.944C175.326 33.594 175.564 33.244 176.04 33.188C178.784 32.866 179.736 31.83 179.736 30.626C179.736 29.898 179.162 29.226 177.818 29.226C176.334 29.226 174.654 29.982 173.478 31.354C173.282 31.592 173.016 31.69 172.764 31.69C172.344 31.69 171.938 31.382 171.938 30.878C171.938 30.822 171.938 30.766 171.952 30.71C172.092 29.674 172.428 27.84 172.834 25.922C172.918 25.516 173.268 25.334 173.604 25.334C174.01 25.334 174.402 25.572 174.402 25.992C174.402 26.034 174.402 26.09 174.388 26.132C174.122 27.434 173.884 28.498 173.73 29.31ZM187.674 30.458C187.674 28.232 187.814 25.572 187.968 23.514C187.996 23.038 188.388 22.814 188.78 22.814C189.2 22.814 189.592 23.052 189.592 23.514C189.592 23.668 189.564 24.032 189.55 24.186C189.41 26.258 189.298 28.4 189.298 30.472C189.298 32.348 189.872 32.852 190.866 32.852C192.168 32.852 193.386 32.32 194.674 30.724C194.87 30.472 195.122 30.374 195.346 30.374C195.78 30.374 196.172 30.71 196.172 31.144C196.172 31.312 196.116 31.48 195.976 31.662C194.38 33.65 192.686 34.406 190.866 34.406C188.78 34.406 187.674 33.37 187.674 30.458ZM207.008 27.168C209.052 27.168 210.452 28.274 210.452 30.038C210.452 32.222 208.814 33.762 205.678 34.21C205.636 34.224 205.58 34.224 205.538 34.224C205.118 34.224 204.894 33.874 204.894 33.538C204.894 33.244 205.076 32.95 205.468 32.88C208.128 32.418 209.038 31.522 209.038 30.038C209.038 29.142 208.394 28.442 207.008 28.442C205.566 28.442 203.76 28.904 201.702 29.814C201.59 29.87 201.478 29.884 201.366 29.884C200.974 29.884 200.708 29.562 200.708 29.226C200.708 28.974 200.848 28.708 201.184 28.568C203.256 27.658 205.356 27.168 207.008 27.168ZM218.67 27.238C218.11 29.548 217.298 31.816 216.304 33.566C216.122 33.888 215.828 34.014 215.548 34.014C215.142 34.014 214.778 33.734 214.778 33.314C214.778 33.188 214.82 33.034 214.904 32.88C215.786 31.326 216.514 29.408 217.046 27.406C216.472 27.476 215.912 27.574 215.38 27.686C215.324 27.7 215.254 27.7 215.198 27.7C214.764 27.7 214.526 27.35 214.526 26.986C214.526 26.664 214.722 26.342 215.156 26.258C215.87 26.118 216.64 26.02 217.382 25.936C217.55 25.082 217.69 24.214 217.788 23.36C217.844 22.912 218.194 22.702 218.558 22.702C218.95 22.702 219.342 22.954 219.342 23.402V23.5C219.258 24.256 219.132 25.04 218.978 25.81C219.258 25.796 219.51 25.796 219.734 25.796C221.526 25.796 222.184 26.608 222.184 28.806C222.184 30.122 222.044 31.298 221.806 32.152C221.358 33.762 220.728 34.336 219.314 34.336C218.978 34.336 218.628 34.308 218.362 34.266C217.886 34.196 217.676 33.846 217.676 33.51C217.676 33.118 217.928 32.74 218.39 32.74C218.418 32.74 218.46 32.754 218.502 32.754C218.768 32.782 218.978 32.81 219.272 32.81C219.762 32.81 220.014 32.656 220.252 31.83C220.49 31.032 220.616 29.94 220.616 28.792C220.616 27.532 220.378 27.196 219.706 27.196C219.398 27.196 219.048 27.21 218.67 27.238ZM224.382 24.844C225.264 25.684 226.132 26.972 226.608 27.91C226.692 28.078 226.72 28.246 226.72 28.386C226.72 28.876 226.328 29.198 225.908 29.198C225.628 29.198 225.334 29.044 225.138 28.666C224.634 27.658 223.892 26.58 223.15 25.782C222.996 25.614 222.926 25.432 222.926 25.278C222.926 24.886 223.318 24.578 223.738 24.578C223.962 24.578 224.186 24.662 224.382 24.844ZM232.656 28.68H232.684C232.824 28.358 232.922 28.092 233.048 27.714C233.16 27.406 233.412 27.266 233.65 27.266C233.972 27.266 234.28 27.49 234.28 27.826C234.28 27.882 234.266 27.938 234.252 27.994C234.014 28.792 233.636 29.674 233.272 30.304C233.048 30.682 232.67 30.878 232.306 30.878C231.914 30.878 231.536 30.654 231.41 30.206C231.228 29.604 231.074 28.596 231.074 27.798C231.074 26.678 231.242 25.138 231.592 23.682C231.69 23.29 232.054 23.108 232.39 23.108C232.782 23.108 233.16 23.332 233.16 23.738C233.16 23.794 233.146 23.85 233.132 23.92C232.824 25.222 232.614 26.818 232.614 27.658C232.614 28.106 232.628 28.4 232.656 28.68ZM236.296 23.612V23.528C236.296 23.066 236.716 22.814 237.136 22.814C237.514 22.814 237.892 23.024 237.962 23.486C238.158 24.956 238.256 26.482 238.256 27.994C238.256 31.032 237.164 33.146 235.204 34.644C235.008 34.798 234.798 34.868 234.616 34.868C234.182 34.868 233.832 34.504 233.832 34.084C233.832 33.846 233.944 33.594 234.196 33.384C235.792 32.068 236.576 30.36 236.576 27.994C236.576 26.552 236.478 25.096 236.296 23.612ZM31.7 47.926V49.312H32.596C33.408 49.312 34.178 49.326 34.892 49.34C35.368 49.354 35.606 49.718 35.606 50.096C35.606 50.46 35.368 50.81 34.892 50.81C34.346 50.796 33.744 50.782 33.114 50.782C32.666 50.782 32.204 50.796 31.728 50.796C31.728 51.286 31.742 51.776 31.77 52.266C32.694 52.21 33.59 52.14 34.402 52.042H34.514C35.004 52.042 35.256 52.392 35.256 52.756C35.256 53.092 35.032 53.442 34.57 53.498C33.716 53.61 32.792 53.68 31.854 53.736C31.882 54.352 31.938 54.968 31.994 55.584C33.184 55.892 34.374 56.41 35.508 57.11C35.844 57.32 35.984 57.6 35.984 57.866C35.984 58.3 35.62 58.692 35.158 58.692C35.004 58.692 34.85 58.65 34.682 58.538C33.828 57.978 32.96 57.516 32.092 57.194V57.292C32.092 58.804 30.776 59.532 29.152 59.532C27.374 59.532 26.282 58.678 26.282 57.376C26.282 56.158 27.29 55.22 29.292 55.22C29.67 55.22 30.034 55.248 30.426 55.29C30.384 54.786 30.328 54.282 30.314 53.792H29.516C28.676 53.792 27.822 53.764 27.332 53.708C26.87 53.652 26.66 53.302 26.66 52.966C26.66 52.602 26.912 52.224 27.36 52.224H27.458C27.976 52.28 28.676 52.322 29.474 52.322H30.23C30.202 51.818 30.188 51.328 30.174 50.824C28.984 50.852 27.822 50.894 26.842 50.936C26.366 50.95 26.114 50.572 26.114 50.194C26.114 49.83 26.338 49.48 26.814 49.452C27.794 49.41 28.956 49.354 30.146 49.34V47.926C30.146 47.506 30.538 47.296 30.93 47.296C31.308 47.296 31.7 47.506 31.7 47.926ZM29.152 58.09C30.09 58.09 30.552 57.656 30.552 57.068V56.76C30.118 56.676 29.712 56.634 29.292 56.634C28.2 56.634 27.878 56.97 27.878 57.39C27.878 57.768 28.242 58.09 29.152 58.09ZM48.038 57.6C48.01 59.168 46.862 59.728 45.518 59.728C43.852 59.728 42.844 59 42.844 57.698C42.844 56.578 43.796 55.654 45.588 55.654C45.812 55.654 46.036 55.668 46.288 55.696C46.19 55.052 46.148 54.576 46.148 54.212C46.148 53.61 46.176 53.302 46.246 52.854C46.316 52.462 46.638 52.294 46.974 52.294C47.366 52.294 47.758 52.518 47.758 52.938C47.758 52.98 47.744 53.008 47.744 53.05C47.688 53.456 47.646 53.806 47.646 54.198C47.646 54.59 47.688 55.136 47.842 56.018C48.738 56.284 49.662 56.69 50.474 57.236C50.74 57.418 50.852 57.656 50.852 57.894C50.852 58.286 50.53 58.664 50.11 58.664C49.97 58.664 49.802 58.608 49.634 58.496C49.116 58.132 48.57 57.824 48.038 57.6ZM45.518 58.342C46.162 58.342 46.512 58.062 46.512 57.446C46.512 57.32 46.512 57.208 46.498 57.096C46.19 57.04 45.896 57.012 45.616 57.012C44.636 57.012 44.328 57.32 44.328 57.698C44.328 58.104 44.608 58.342 45.518 58.342ZM42.466 50.124C42.676 49.41 42.872 48.696 43.012 47.996C43.096 47.576 43.432 47.394 43.768 47.394C44.16 47.394 44.524 47.632 44.524 48.08C44.524 48.136 44.524 48.206 44.51 48.262C44.398 48.794 44.258 49.354 44.104 49.914C44.524 49.844 44.944 49.774 45.336 49.704C45.392 49.69 45.448 49.69 45.49 49.69C45.938 49.69 46.218 50.054 46.218 50.432C46.218 50.74 46.036 51.048 45.588 51.146C44.986 51.272 44.3 51.384 43.614 51.482C43.026 53.176 42.27 54.856 41.458 56.2C41.248 56.55 40.954 56.704 40.674 56.704C40.254 56.704 39.89 56.382 39.89 55.962C39.89 55.808 39.932 55.64 40.044 55.472C40.758 54.352 41.402 53.05 41.934 51.664C41.416 51.72 40.912 51.748 40.478 51.762C40.002 51.776 39.75 51.384 39.75 50.992C39.75 50.628 39.974 50.278 40.422 50.264C41.052 50.236 41.752 50.194 42.466 50.124ZM48.682 49.956C49.354 50.138 50.222 50.53 50.824 50.908C51.146 51.104 51.286 51.384 51.286 51.636C51.286 52.042 50.95 52.406 50.544 52.406C50.404 52.406 50.264 52.364 50.124 52.28C49.466 51.902 48.738 51.538 48.122 51.314C47.772 51.188 47.618 50.936 47.618 50.684C47.618 50.306 47.94 49.914 48.416 49.914C48.5 49.914 48.584 49.928 48.682 49.956ZM63.578 48.5C63.494 48.402 63.466 48.29 63.466 48.192C63.466 47.912 63.746 47.674 64.054 47.674C64.194 47.674 64.348 47.73 64.474 47.87C64.824 48.248 65.202 48.738 65.454 49.186C65.524 49.298 65.552 49.41 65.552 49.522C65.552 49.844 65.272 50.082 64.978 50.082C64.796 50.082 64.628 49.984 64.502 49.774C64.222 49.284 63.872 48.85 63.578 48.5ZM65.076 47.52C64.992 47.422 64.95 47.31 64.95 47.212C64.95 46.932 65.23 46.722 65.524 46.722C65.678 46.722 65.846 46.778 65.986 46.918C66.322 47.268 66.7 47.73 66.952 48.164C67.036 48.304 67.078 48.43 67.078 48.542C67.078 48.864 66.812 49.088 66.518 49.088C66.336 49.088 66.14 48.99 66 48.78C65.72 48.346 65.37 47.884 65.076 47.52ZM57.222 50.474L57.208 50.446C56.578 50.586 55.78 50.712 55.038 50.796H54.94C54.436 50.796 54.184 50.418 54.184 50.026C54.184 49.69 54.394 49.354 54.856 49.312C56.102 49.2 57.516 49.004 58.636 48.766C58.706 48.752 58.762 48.752 58.818 48.752C59.308 48.752 59.63 49.13 59.63 49.536C59.63 49.76 59.532 49.984 59.322 50.152C57.222 51.846 56.606 53.764 56.606 55.332C56.606 57.082 57.502 57.936 58.804 57.936C60.736 57.936 62.01 56.48 62.01 53.526C62.01 51.986 61.814 50.628 61.464 49.452C61.45 49.382 61.436 49.312 61.436 49.256C61.436 48.808 61.842 48.528 62.262 48.528C62.556 48.528 62.864 48.668 63.018 49.004C63.704 50.432 64.88 52.042 65.944 53.036C66.168 53.246 66.266 53.484 66.266 53.708C66.266 54.142 65.874 54.52 65.454 54.52C65.23 54.52 65.006 54.422 64.81 54.17C64.096 53.288 63.578 52.476 63.242 51.804L63.214 51.818C63.354 52.546 63.424 53.274 63.424 54.002C63.424 57.53 61.576 59.518 58.832 59.518C56.718 59.518 55.038 58.244 55.038 55.36C55.038 53.82 55.612 52.042 57.222 50.474ZM71.236 51.832C70.662 51.916 70.088 52 69.514 52C69.052 52 68.814 51.65 68.814 51.272C68.814 50.894 69.052 50.53 69.528 50.502C70.088 50.474 70.76 50.39 71.516 50.264C71.642 49.494 71.698 48.878 71.782 48.108C71.824 47.674 72.188 47.464 72.552 47.464C72.944 47.464 73.336 47.716 73.336 48.164V48.248C73.266 48.92 73.196 49.424 73.112 49.956C73.504 49.872 73.91 49.774 74.316 49.676C74.386 49.662 74.456 49.648 74.526 49.648C74.96 49.648 75.226 50.012 75.226 50.39C75.226 50.684 75.058 50.978 74.68 51.076C74.036 51.258 73.42 51.412 72.86 51.538C72.356 54.282 71.684 56.872 70.9 58.902C70.732 59.322 70.382 59.518 70.046 59.518C69.654 59.518 69.276 59.238 69.276 58.804C69.276 58.678 69.304 58.552 69.36 58.412C70.13 56.508 70.746 54.282 71.236 51.832ZM74.05 56.634C74.05 56.158 74.442 55.892 74.834 55.892C75.156 55.892 75.464 56.074 75.506 56.48C75.604 57.376 76.108 57.628 77.634 57.628C78.348 57.628 78.95 57.572 79.51 57.488C79.552 57.474 79.622 57.474 79.664 57.474C80.14 57.474 80.406 57.88 80.406 58.258C80.406 58.594 80.196 58.93 79.762 59C79.16 59.098 78.46 59.154 77.662 59.154C75.702 59.154 74.834 58.65 74.386 57.936C74.162 57.586 74.05 57.026 74.05 56.634ZM75.45 52.056C76.542 51.832 77.928 51.678 79.048 51.678C79.552 51.678 79.804 52.056 79.804 52.434C79.804 52.798 79.566 53.148 79.09 53.148C77.97 53.148 76.668 53.316 75.674 53.512C75.618 53.526 75.548 53.526 75.506 53.526C75.072 53.526 74.806 53.176 74.806 52.798C74.806 52.476 75.002 52.154 75.45 52.056ZM83.808 49.62C83.85 49.172 84.242 48.948 84.62 48.948C85.04 48.948 85.446 49.2 85.446 49.69C85.446 49.886 85.39 50.572 85.39 51.006C85.39 55.906 86.384 57.194 86.972 57.194C87.308 57.194 87.616 56.97 87.882 55.92C87.994 55.5 88.288 55.318 88.596 55.318C89.002 55.318 89.394 55.612 89.394 56.074C89.394 56.158 89.394 56.228 89.366 56.312C88.848 58.188 87.952 58.874 87.014 58.874C84.984 58.874 83.752 56.368 83.752 51.048C83.752 50.404 83.78 49.984 83.808 49.62ZM92.46 50.614C93.636 51.706 94.714 53.456 95.176 54.884C95.218 54.996 95.232 55.094 95.232 55.178C95.232 55.64 94.84 55.92 94.448 55.92C94.154 55.92 93.846 55.766 93.706 55.388C93.202 54.1 92.292 52.63 91.284 51.58C91.116 51.412 91.046 51.23 91.046 51.062C91.046 50.67 91.424 50.348 91.844 50.348C92.04 50.348 92.264 50.432 92.46 50.614ZM98.144 56.816C98.144 55.556 99.054 53.764 101.448 52.672C101.462 52.042 101.504 51.412 101.56 50.796C100.916 50.824 100.3 50.838 99.754 50.838C99.292 50.838 99.068 50.488 99.068 50.124C99.068 49.774 99.292 49.424 99.754 49.424C100.342 49.424 101.014 49.41 101.7 49.368C101.756 48.85 101.826 48.318 101.91 47.758C101.98 47.352 102.33 47.156 102.666 47.156C103.044 47.156 103.408 47.38 103.408 47.772C103.408 47.814 103.394 47.842 103.394 47.884C103.324 48.36 103.254 48.822 103.184 49.27C104.206 49.186 105.2 49.06 105.984 48.92C106.04 48.906 106.096 48.906 106.152 48.906C106.614 48.906 106.866 49.256 106.866 49.606C106.866 49.914 106.67 50.236 106.25 50.306C105.326 50.474 104.178 50.6 103.016 50.698C102.988 51.188 102.932 51.692 102.904 52.196C103.576 52.042 104.276 51.972 104.962 51.972C105.018 51.79 105.074 51.608 105.116 51.412C105.2 51.062 105.508 50.908 105.816 50.908C106.18 50.908 106.544 51.132 106.544 51.524C106.544 51.58 106.53 51.636 106.516 51.706C106.474 51.846 106.446 51.986 106.404 52.126C108.336 52.574 109.442 54.016 109.442 55.682C109.442 57.726 108.042 59.252 105.704 59.826C105.634 59.84 105.55 59.854 105.48 59.854C105.032 59.854 104.738 59.476 104.738 59.084C104.738 58.79 104.92 58.482 105.34 58.356C107.118 57.81 107.86 56.9 107.86 55.696C107.86 54.73 107.23 53.75 105.97 53.4C105.368 54.94 104.486 56.41 103.226 57.488C103.282 57.782 103.338 58.062 103.408 58.328C103.422 58.384 103.436 58.454 103.436 58.51C103.436 58.944 103.03 59.196 102.652 59.196C102.358 59.196 102.064 59.042 101.98 58.692L101.896 58.342C101.294 58.706 100.72 58.832 100.118 58.832C98.928 58.832 98.144 58.076 98.144 56.816ZM99.628 56.718C99.628 57.166 99.74 57.362 100.216 57.376C100.636 57.376 101.042 57.25 101.63 56.872C101.504 55.962 101.434 55.052 101.42 54.142C100.132 54.982 99.614 55.92 99.628 56.718ZM102.974 55.822C103.632 55.066 104.136 54.198 104.514 53.274C103.954 53.302 103.408 53.386 102.862 53.54V53.778C102.862 54.408 102.904 55.108 102.974 55.822ZM120.838 57.6C120.81 59.168 119.662 59.728 118.318 59.728C116.652 59.728 115.644 59 115.644 57.698C115.644 56.578 116.596 55.654 118.388 55.654C118.612 55.654 118.836 55.668 119.088 55.696C118.99 55.052 118.948 54.576 118.948 54.212C118.948 53.61 118.976 53.302 119.046 52.854C119.116 52.462 119.438 52.294 119.774 52.294C120.166 52.294 120.558 52.518 120.558 52.938C120.558 52.98 120.544 53.008 120.544 53.05C120.488 53.456 120.446 53.806 120.446 54.198C120.446 54.59 120.488 55.136 120.642 56.018C121.538 56.284 122.462 56.69 123.274 57.236C123.54 57.418 123.652 57.656 123.652 57.894C123.652 58.286 123.33 58.664 122.91 58.664C122.77 58.664 122.602 58.608 122.434 58.496C121.916 58.132 121.37 57.824 120.838 57.6ZM118.318 58.342C118.962 58.342 119.312 58.062 119.312 57.446C119.312 57.32 119.312 57.208 119.298 57.096C118.99 57.04 118.696 57.012 118.416 57.012C117.436 57.012 117.128 57.32 117.128 57.698C117.128 58.104 117.408 58.342 118.318 58.342ZM115.266 50.124C115.476 49.41 115.672 48.696 115.812 47.996C115.896 47.576 116.232 47.394 116.568 47.394C116.96 47.394 117.324 47.632 117.324 48.08C117.324 48.136 117.324 48.206 117.31 48.262C117.198 48.794 117.058 49.354 116.904 49.914C117.324 49.844 117.744 49.774 118.136 49.704C118.192 49.69 118.248 49.69 118.29 49.69C118.738 49.69 119.018 50.054 119.018 50.432C119.018 50.74 118.836 51.048 118.388 51.146C117.786 51.272 117.1 51.384 116.414 51.482C115.826 53.176 115.07 54.856 114.258 56.2C114.048 56.55 113.754 56.704 113.474 56.704C113.054 56.704 112.69 56.382 112.69 55.962C112.69 55.808 112.732 55.64 112.844 55.472C113.558 54.352 114.202 53.05 114.734 51.664C114.216 51.72 113.712 51.748 113.278 51.762C112.802 51.776 112.55 51.384 112.55 50.992C112.55 50.628 112.774 50.278 113.222 50.264C113.852 50.236 114.552 50.194 115.266 50.124ZM121.482 49.956C122.154 50.138 123.022 50.53 123.624 50.908C123.946 51.104 124.086 51.384 124.086 51.636C124.086 52.042 123.75 52.406 123.344 52.406C123.204 52.406 123.064 52.364 122.924 52.28C122.266 51.902 121.538 51.538 120.922 51.314C120.572 51.188 120.418 50.936 120.418 50.684C120.418 50.306 120.74 49.914 121.216 49.914C121.3 49.914 121.384 49.928 121.482 49.956ZM129.476 51.832C128.902 51.916 128.328 52 127.754 52C127.292 52 127.054 51.65 127.054 51.272C127.054 50.894 127.292 50.53 127.768 50.502C128.328 50.474 129 50.39 129.756 50.264C129.882 49.494 129.938 48.878 130.022 48.108C130.064 47.674 130.428 47.464 130.792 47.464C131.184 47.464 131.576 47.716 131.576 48.164V48.248C131.506 48.92 131.436 49.424 131.352 49.956C131.744 49.872 132.15 49.774 132.556 49.676C132.626 49.662 132.696 49.648 132.766 49.648C133.2 49.648 133.466 50.012 133.466 50.39C133.466 50.684 133.298 50.978 132.92 51.076C132.276 51.258 131.66 51.412 131.1 51.538C130.596 54.282 129.924 56.872 129.14 58.902C128.972 59.322 128.622 59.518 128.286 59.518C127.894 59.518 127.516 59.238 127.516 58.804C127.516 58.678 127.544 58.552 127.6 58.412C128.37 56.508 128.986 54.282 129.476 51.832ZM132.29 56.634C132.29 56.158 132.682 55.892 133.074 55.892C133.396 55.892 133.704 56.074 133.746 56.48C133.844 57.376 134.348 57.628 135.874 57.628C136.588 57.628 137.19 57.572 137.75 57.488C137.792 57.474 137.862 57.474 137.904 57.474C138.38 57.474 138.646 57.88 138.646 58.258C138.646 58.594 138.436 58.93 138.002 59C137.4 59.098 136.7 59.154 135.902 59.154C133.942 59.154 133.074 58.65 132.626 57.936C132.402 57.586 132.29 57.026 132.29 56.634ZM133.69 52.056C134.782 51.832 136.168 51.678 137.288 51.678C137.792 51.678 138.044 52.056 138.044 52.434C138.044 52.798 137.806 53.148 137.33 53.148C136.21 53.148 134.908 53.316 133.914 53.512C133.858 53.526 133.788 53.526 133.746 53.526C133.312 53.526 133.046 53.176 133.046 52.798C133.046 52.476 133.242 52.154 133.69 52.056ZM142.958 48.948C143.042 48.542 143.392 48.36 143.742 48.36C144.148 48.36 144.554 48.598 144.554 49.074C144.554 49.116 144.554 49.172 144.54 49.228C144.064 51.524 143.896 53.428 143.896 55.416C143.896 56.578 144.05 57.88 144.148 58.706C144.148 58.748 144.162 58.79 144.162 58.818C144.162 59.294 143.756 59.56 143.35 59.56C142.972 59.56 142.608 59.35 142.538 58.874C142.426 57.978 142.3 56.592 142.3 55.416C142.3 53.33 142.468 51.44 142.958 48.948ZM151.442 49.592H151.554C152.044 49.592 152.31 49.956 152.31 50.334C152.31 50.684 152.086 51.034 151.596 51.104C150.364 51.272 148.978 51.384 147.648 51.412C147.102 51.426 146.836 51.048 146.836 50.656C146.836 50.292 147.088 49.914 147.592 49.9C148.894 49.872 150.224 49.76 151.442 49.592ZM147.788 55.78C147.914 56.648 148.348 56.97 150.098 56.97C150.728 56.97 151.498 56.9 152.212 56.76C152.268 56.746 152.324 56.746 152.38 56.746C152.856 56.746 153.122 57.138 153.122 57.53C153.122 57.852 152.94 58.188 152.506 58.272C151.68 58.44 150.854 58.51 150.084 58.51C147.494 58.51 146.416 57.726 146.262 56.032V55.962C146.262 55.458 146.668 55.178 147.074 55.178C147.41 55.178 147.732 55.374 147.788 55.78ZM158.246 55.192C159.548 55.192 160.584 56.2 160.584 57.502C160.584 58.804 159.548 59.826 158.246 59.826C156.944 59.826 155.894 58.804 155.894 57.502C155.894 56.2 156.944 55.192 158.246 55.192ZM158.246 56.13C157.462 56.13 156.86 56.732 156.86 57.502C156.86 58.286 157.462 58.888 158.246 58.888C159.016 58.888 159.618 58.286 159.618 57.502C159.618 56.732 159.016 56.13 158.246 56.13Z" fill="black"/>
</svg>
