<svg width="118" height="117" viewBox="0 0 118 117" fill="none" xmlns="http://www.w3.org/2000/svg">
<circle cx="58.7878" cy="57.7878" r="48" transform="rotate(-15 58.7878 57.7878)" fill="#69BD83"/>
<path d="M40.5236 42.3099L41.3408 42.091C42.5752 41.7602 43.312 42.215 43.5776 43.206C43.9177 44.4753 44.0902 47.2056 43.7042 49.1726C44.3329 49.4327 44.9222 49.6848 45.4072 49.9648C45.7159 50.143 45.8901 50.3758 45.9553 50.6192C46.0904 51.1235 45.7629 51.6398 45.2934 51.7656C45.0674 51.8262 44.8181 51.7998 44.5756 51.6598C44.1834 51.4481 43.7472 51.2109 43.2634 51.0051C42.8534 52.3262 42.267 53.5456 41.5204 54.5842C41.3583 54.814 41.1509 54.9441 40.9423 55C40.4555 55.1304 39.9484 54.8377 39.8226 54.3682C39.7574 54.1248 39.8139 53.8488 40.0141 53.5529C40.6878 52.5897 41.1978 51.5027 41.5408 50.3486C41.1893 50.2191 40.8425 50.1071 40.483 50.0171C40.3976 50.394 40.1219 50.617 39.809 50.7008C39.3569 50.8219 38.821 50.6301 38.6999 50.178C38.6719 50.0737 38.666 49.9821 38.6728 49.8685C38.8031 48.2683 38.8334 46.4339 38.7755 44.5487L37.4888 44.8934C37.002 45.0239 36.6468 44.6718 36.535 44.2545C36.4232 43.8372 36.5594 43.3721 37.0289 43.2463L38.6806 42.8038C38.6284 41.7742 38.5193 40.7412 38.4102 39.7083C38.3586 39.2376 38.6852 38.9264 39.1025 38.8146C39.572 38.6889 40.1206 38.8586 40.2604 39.3802L40.2883 39.4846C40.3868 40.4085 40.4726 41.3546 40.5236 42.3099ZM41.3661 43.8545L40.6184 44.0548C40.6375 45.4474 40.6786 46.8526 40.6061 48.251C41.0572 48.3351 41.4956 48.4413 41.9387 48.5648C42.1758 47.085 42.0713 45.0259 41.8104 44.0523C41.7452 43.8088 41.6443 43.78 41.3661 43.8545ZM48.1506 46.1549L45.5426 46.8537C45.0732 46.9795 44.7133 46.6101 44.6015 46.1928C44.485 45.7581 44.6166 45.2756 45.0861 45.1498L47.6941 44.451L46.986 41.8083C46.8509 41.304 47.2504 40.9175 47.7198 40.7917L47.8416 40.7591C48.2085 40.2508 48.4932 39.7832 48.6434 39.3702C48.6723 39.2693 48.6884 39.1904 48.6698 39.1209C48.6465 39.0339 48.5282 39.0097 48.3543 39.0563L44.4249 40.1092C43.9555 40.235 43.6003 39.8829 43.4885 39.4657C43.372 39.031 43.4989 38.5311 43.9684 38.4053L48.7149 37.1335C49.7581 36.8539 50.5204 37.2647 50.7301 38.0471C50.8186 38.3774 50.8167 38.7879 50.6584 39.2402C50.3083 40.2285 49.7402 41.238 49.0734 42.0875L49.5718 43.9479L52.545 43.1512C53.0318 43.0208 53.3917 43.3902 53.5035 43.8075C53.6199 44.2422 53.4883 44.7247 53.0015 44.8551L50.0284 45.6518L51.263 50.2592C51.6869 51.8414 51.1359 52.5668 49.7797 52.9302C49.2581 53.0699 48.8709 53.155 48.3735 53.1765C47.8066 53.2166 47.434 52.8692 47.3222 52.4519C47.1964 51.9825 47.401 51.4245 47.9747 51.2708C48.0443 51.2521 48.1138 51.2335 48.188 51.2323C48.4976 51.2052 48.6761 51.176 48.9891 51.0922C49.3194 51.0036 49.4132 50.8667 49.3246 50.5364L48.1506 46.1549ZM61.3809 49.5607L59.6249 50.0313C58.3209 50.3807 57.7465 49.9755 57.4623 48.9149L56.8892 46.7764C56.6051 45.7158 56.9 45.0777 58.204 44.7283L59.96 44.2578C61.2814 43.9037 61.8384 44.3135 62.1226 45.3741L62.6957 47.5127C63.0264 48.7471 62.5285 49.2532 61.3809 49.5607ZM59.5533 48.3733L60.6139 48.0891C60.8921 48.0146 60.9511 47.8869 60.8719 47.5914L60.4992 46.2004C60.42 45.9049 60.3098 45.8412 60.0316 45.9158L58.971 46.1999C58.7102 46.2698 58.6465 46.3801 58.7257 46.6756L59.0984 48.0666C59.1683 48.3274 59.2751 48.4478 59.5533 48.3733ZM65.66 34.5125L67.0436 39.6763L70.6774 38.7026C71.1121 38.5862 71.4453 38.9255 71.5571 39.3428C71.6642 39.7427 71.55 40.2205 71.1153 40.337L67.4815 41.3107L69.0049 46.9961C69.1447 47.5177 68.7625 47.8996 68.2931 48.0254C67.841 48.1465 67.3017 48.0115 67.162 47.4899L65.6385 41.8045L62.4568 42.657C62.0221 42.7735 61.6843 42.4168 61.5771 42.0169C61.4653 41.5996 61.5842 41.1392 62.0015 41.0273L65.2006 40.1701L63.817 35.0063L61.0003 35.761C60.5657 35.8775 60.2278 35.5208 60.1207 35.1209C60.0089 34.7036 60.1278 34.2431 60.545 34.1313L68.3343 32.0442C68.7689 31.9277 69.1021 32.2671 69.2139 32.6844C69.3211 33.0842 69.2068 33.5621 68.7722 33.6786L65.66 34.5125ZM67.5534 35.4587C67.5946 35.0563 67.8657 34.8159 68.1786 34.7321C68.5959 34.6203 69.1098 34.7994 69.2402 35.2862C69.2635 35.3731 69.2787 35.4995 69.2719 35.6131C69.1953 36.5095 69.0466 37.2761 68.7844 38.0359C68.6804 38.3433 68.4475 38.5175 68.1867 38.5873C67.7694 38.6992 67.2903 38.5107 67.1692 38.0587C67.1319 37.9196 67.1248 37.7538 67.1872 37.5694C67.3477 36.9859 67.4628 36.3029 67.5534 35.4587ZM62.8289 36.7432C63.3396 37.2586 63.7588 37.7799 64.1619 38.38C64.2246 38.475 64.27 38.5746 64.2933 38.6616C64.4284 39.1658 64.0648 39.6173 63.6302 39.7337C63.2824 39.8269 62.8835 39.7288 62.6186 39.2967C62.3677 38.9166 61.9438 38.378 61.4898 37.866C61.3877 37.763 61.3377 37.6459 61.3097 37.5416C61.1886 37.0896 61.5568 36.6555 62.0089 36.5343C62.287 36.4598 62.5978 36.507 62.8289 36.7432ZM60.1036 38.2561L54.7832 39.6817C54.3312 39.8028 53.9713 39.4334 53.8548 38.9987C53.7384 38.5641 53.8653 38.0642 54.3174 37.943L59.6377 36.5175C60.1071 36.3917 60.467 36.7611 60.5835 37.1958C60.7 37.6305 60.573 38.1303 60.1036 38.2561ZM58.6329 35.9668L55.086 36.9171C54.6514 37.0336 54.3135 36.6769 54.2064 36.277C54.0946 35.8597 54.2135 35.3993 54.6481 35.2828L58.195 34.3324C58.6471 34.2113 58.9802 34.5506 59.092 34.9679C59.1992 35.3678 59.085 35.8456 58.6329 35.9668ZM59.9467 40.8698L56.3998 41.8202C55.9651 41.9366 55.6273 41.5799 55.5202 41.18C55.4083 40.7628 55.5272 40.3023 55.9619 40.1858L59.5088 39.2355C59.9608 39.1143 60.294 39.4537 60.4058 39.8709C60.513 40.2708 60.3987 40.7487 59.9467 40.8698ZM60.5896 43.2692L57.0427 44.2195C56.608 44.336 56.2702 43.9793 56.1631 43.5794C56.0513 43.1621 56.1701 42.7017 56.6048 42.5852L60.1517 41.6348C60.6037 41.5137 60.9369 41.853 61.0487 42.2703C61.1559 42.6702 61.0416 43.148 60.5896 43.2692Z" fill="black"/>
<path d="M93.1455 61.4865C93.2346 61.1371 93.5276 59.7406 93.6898 59.2255C93.9481 58.4052 94.6897 58.1146 95.4718 58.3609C96.2349 58.6012 96.651 59.2774 96.3987 60.0786C96.2365 60.5937 95.7615 61.7022 95.5492 62.2434C94.8329 64.0518 93.8103 66.833 93.0862 68.9325C92.9109 69.4225 92.4524 69.6135 91.9373 69.4513C91.4222 69.2891 91.194 68.8818 91.3312 68.3798C91.9157 66.2574 92.6903 63.398 93.1455 61.4865ZM91.5659 70.6973C92.3862 70.9556 92.8174 71.7834 92.5651 72.5846C92.3128 73.3858 91.491 73.798 90.6708 73.5397C89.8505 73.2814 89.4132 72.4727 89.6655 71.6715C89.9178 70.8703 90.7456 70.439 91.5659 70.6973Z" fill="black"/>
<path d="M37.3487 78.3123L36.7401 78.4754C36.2881 78.5965 35.9549 78.2572 35.8477 77.8573C35.8245 77.7703 35.8185 77.6787 35.8126 77.5872C35.1169 78.5376 34.311 79.4244 33.4551 80.1942C33.3172 80.3056 33.17 80.3824 33.0483 80.415C32.5789 80.5407 32.1287 80.2514 32.0169 79.8341C31.9423 79.556 32.0196 79.2184 32.3509 78.9247C33.1165 78.2351 33.824 77.4678 34.4132 76.6763C33.9897 76.4171 33.5628 76.2147 33.3342 76.1269C33.0616 76.0136 32.9188 75.8282 32.8582 75.6022C32.7511 75.2023 32.9963 74.7266 33.4484 74.6055C33.6222 74.5589 33.8101 74.5645 34.0386 74.6523C34.4075 74.7771 34.817 74.9841 35.3194 75.2595C35.6376 74.7084 35.8816 74.1585 36.056 73.6272C36.0976 73.5043 36.1091 73.408 36.0951 73.3559C36.0672 73.2515 35.9489 73.2273 35.7055 73.2926L32.9236 74.038C32.4889 74.1544 32.1604 73.8325 32.0579 73.45C31.9554 73.0675 32.079 72.6244 32.5136 72.5079L35.7302 71.6461C36.9472 71.32 37.735 71.6866 37.9446 72.469C38.0471 72.8515 38.0024 73.3107 37.828 73.8419C37.4698 74.8697 36.9631 75.8999 36.3115 76.8758L43.1097 75.0542C43.5791 74.9284 43.9123 75.2678 44.0195 75.6677C44.1266 76.0676 44.0078 76.528 43.5383 76.6538L42.7907 76.8541L43.2752 78.6623L46.7351 77.7352C47.2046 77.6095 47.5551 77.9441 47.667 78.3614C47.7741 78.7613 47.6425 79.2438 47.1731 79.3696L43.7131 80.2967L44.4306 82.9742C44.5424 83.3915 44.7349 83.4145 45.865 83.1117C47.1516 82.7669 47.3972 82.5707 47.2419 81.6433C47.1636 81.1425 47.5029 80.8093 47.9202 80.6975C48.3896 80.5717 48.951 80.7194 49.0861 81.2236C49.2119 81.6931 49.2278 82.3783 49.0996 82.804C48.8224 83.7168 47.8665 84.2525 46.0757 84.7324C43.798 85.3427 43.0115 85.0502 42.6761 83.7984L41.8701 80.7905L39.8185 81.3402C39.7889 83.7335 38.6481 85.7349 36.4726 87.4918C36.3522 87.5986 36.2178 87.6533 36.096 87.6859C35.6092 87.8164 35.1323 87.4969 35.0158 87.0622C34.9366 86.7667 35.0139 86.4292 35.3498 86.1528C36.8823 84.8477 37.7375 83.5191 37.8886 81.8574L34.8285 82.6773C34.3765 82.7984 34.0213 82.4464 33.9141 82.0465C33.8023 81.6292 33.9386 81.1641 34.3906 81.043L37.7984 80.1298C37.7412 79.847 37.6794 79.5468 37.5956 79.2338L37.3487 78.3123ZM41.4322 79.1562L40.9477 77.348L39.1916 77.8185L39.4712 78.8617C39.5411 79.1225 39.5889 79.3706 39.6414 79.636L41.4322 79.1562ZM43.1393 72.661C43.541 72.1434 43.8592 71.5923 44.1414 70.9762C44.2721 70.699 44.4748 70.5515 44.7009 70.4909C45.1529 70.3698 45.668 70.6231 45.7891 71.0752C45.8357 71.249 45.8302 71.4369 45.7203 71.6527C45.4334 72.2513 45.0631 72.8164 44.6486 73.3561C45.55 73.7295 46.5023 74.0147 47.4092 74.2003C47.9044 74.3099 48.1668 74.5937 48.2507 74.9066C48.3718 75.3587 48.1185 75.8738 47.5969 76.0135C47.4404 76.0555 47.2746 76.0626 47.0775 76.0223C44.0018 75.3929 40.4584 73.4353 38.3813 71.1779C38.2745 71.0575 38.2071 70.9451 38.1745 70.8234C38.0534 70.3713 38.3868 69.9466 38.8389 69.8254C39.1344 69.7462 39.4847 69.8015 39.7912 70.1107C40.129 70.4674 40.4842 70.8195 40.8695 71.1448C41.1462 70.7166 41.4007 70.2757 41.6239 69.7873C41.7546 69.51 41.9573 69.3625 42.1834 69.302C42.6354 69.1809 43.1679 69.4295 43.2844 69.8642C43.331 70.038 43.308 70.2305 43.1981 70.4463C42.9066 71.0276 42.5664 71.566 42.1647 72.0836C42.4826 72.2966 42.8086 72.4701 43.1393 72.661ZM55.9757 69.5197L55.7055 68.5113L49.8983 70.0673C49.4463 70.1884 49.0957 69.8537 48.9932 69.4712C48.886 69.0713 49.027 68.6236 49.479 68.5025L55.2862 66.9465L55.0532 66.0771C54.9181 65.5729 55.3397 65.1991 55.8092 65.0733C56.296 64.9428 56.8307 65.0605 56.9658 65.5647L57.1987 66.434L63.1797 64.8314C63.6492 64.7056 63.9951 65.0229 64.1022 65.4228C64.2047 65.8053 64.0684 66.2704 63.599 66.3962L57.618 67.9988L57.8882 69.0072L62.061 67.8891C62.5304 67.7633 62.8763 68.0806 62.9835 68.4805C63.086 68.863 62.9497 69.3281 62.4803 69.4539L52.5003 72.128C52.0483 72.2492 51.6977 71.9145 51.5952 71.532C51.4881 71.1321 51.629 70.6844 52.081 70.5632L55.9757 69.5197ZM55.5077 75.7014C55.4421 75.1786 55.8289 74.8141 56.281 74.6929C56.7678 74.5625 57.3071 74.6975 57.4423 75.2017C57.4562 75.2539 57.4482 75.2933 57.4621 75.3455C57.8542 78.4084 56.3396 81.0318 53.6575 82.7754C53.5451 82.8427 53.4281 82.8927 53.3237 82.9207C52.7847 83.0651 52.3205 82.7236 52.1994 82.2716C52.1109 81.9412 52.209 81.5422 52.6191 81.2646C54.9373 79.6931 55.7677 77.9239 55.5077 75.7014ZM60.4589 78.8099L59.3501 74.6719C59.215 74.1677 59.6146 73.7811 60.084 73.6553C60.5361 73.5342 61.0754 73.6692 61.2105 74.1734L62.2401 78.0158C62.3472 78.4157 62.5537 78.4908 63.7534 78.1694C65.1269 77.8014 65.4154 77.5564 65.2669 76.5153C65.1886 76.0145 65.5406 75.6593 65.9753 75.5428C66.4273 75.4217 66.976 75.5915 67.1157 76.1131L67.1437 76.2174C67.4662 78.2554 66.7459 79.0447 64.1205 79.7482C61.4777 80.4563 60.813 80.1313 60.4589 78.8099ZM52.4436 73.1682L62.8061 70.3916C64.51 69.935 65.2582 70.2935 65.617 71.6323L65.9198 72.7625C66.0596 73.2841 65.6647 73.688 65.1778 73.8185C64.7084 73.9443 64.147 73.7965 64.0073 73.2749L63.779 72.423C63.6672 72.0057 63.5209 71.8772 62.9819 72.0216L53.1237 74.6631C52.5847 74.8075 52.5049 74.9966 52.6167 75.4139L52.8683 76.3528C53.0081 76.8744 52.6132 77.2783 52.1263 77.4088C51.6569 77.5346 51.0955 77.3868 50.9558 76.8652L50.6343 75.6655C50.2756 74.3268 50.7397 73.6247 52.4436 73.1682ZM75.3397 71.0583L71.8971 71.9808C69.9846 72.4932 69.0808 71.9714 68.6475 70.3544L68.0651 68.1811C67.6319 66.5641 68.1537 65.6603 70.0663 65.1478L73.5088 64.2254L72.7122 61.2523C72.5724 60.7307 72.9894 60.3394 73.4762 60.209C73.963 60.0785 74.5197 60.2089 74.6595 60.7305L75.4561 63.7036L78.9682 62.7625C80.8808 62.2501 81.7846 62.7719 82.2179 64.3889L82.8002 66.5622C83.2335 68.1792 82.7117 69.083 80.7991 69.5955L77.287 70.5366L78.6707 75.7004C78.8104 76.222 78.3935 76.6132 77.9067 76.7437C77.4198 76.8741 76.8631 76.7438 76.7234 76.2222L75.3397 71.0583ZM71.6666 70.2163L74.8832 69.3544L73.9654 65.9293L70.7488 66.7911C69.9664 67.0008 69.8566 67.2166 70.0289 67.8599L70.5088 69.6507C70.6858 70.3114 70.9364 70.412 71.6666 70.2163ZM75.9127 65.4075L76.8305 68.8327L80.1165 67.9522C80.8989 67.7425 81.0088 67.5267 80.8365 66.8834L80.3566 65.0926C80.1842 64.4493 79.9812 64.3173 79.1988 64.527L75.9127 65.4075Z" fill="black"/>
</svg>
