<svg width="118" height="117" viewBox="0 0 118 117" fill="none" xmlns="http://www.w3.org/2000/svg">
<circle cx="58.7878" cy="57.7878" r="48" transform="rotate(-15 58.7878 57.7878)" fill="#69BD83"/>
<path d="M39.7311 48.8845L41.0525 48.5304C42.9303 48.0273 43.6662 46.7865 43.2252 45.1406C42.8649 43.796 41.5438 43.1313 39.8515 43.5847C38.8779 43.8456 37.9759 44.5594 37.3339 45.5017C37.1071 45.8606 36.8707 45.9985 36.5925 46.073C35.897 46.2594 35.139 45.8413 34.9465 45.1227C34.8533 44.7749 34.8715 44.4719 35.0706 44.1949C35.9224 42.9231 37.5149 41.7262 39.2304 41.2665C42.615 40.3596 45.1983 41.6551 45.9064 44.2979C46.4158 46.1989 45.8301 47.7223 44.1524 48.6937C46.3833 48.7668 48.0451 49.9614 48.5731 51.9318C49.4614 55.2469 47.5602 58.1664 43.9438 59.1355C42.0429 59.6448 40.115 59.5899 38.7074 58.9732C38.2557 58.7712 38.0297 58.4839 37.9116 58.0435C37.7315 57.3712 38.0986 56.7014 38.8173 56.5088C39.0723 56.4405 39.2934 56.4309 39.5393 56.5141C40.9282 57.0613 42.1403 57.134 43.3226 56.8172C45.3627 56.2706 46.3006 54.5782 45.8223 52.7932C45.3502 51.0313 43.8466 50.2416 41.8065 50.7882L40.3461 51.1795C39.6738 51.3597 39.1261 50.9846 38.9459 50.3124C38.7658 49.6401 39.0588 49.0646 39.7311 48.8845ZM57.2725 35.3637L54.5588 58.1547C54.5344 58.4345 54.3121 58.7177 54.0107 58.7985C53.3384 58.9786 52.746 58.7149 52.6528 58.3672C52.5969 58.1586 52.5766 57.9901 52.5965 57.786L55.3102 34.995C55.3346 34.7152 55.5569 34.432 55.8583 34.3513C56.5306 34.1711 57.123 34.4348 57.2162 34.7825C57.2721 34.9911 57.2924 35.1596 57.2725 35.3637ZM70.0896 47.6325L64.5722 49.1109C63.4826 49.4028 62.7308 49.0079 62.4575 47.9879C62.2898 47.362 62.3001 46.9368 62.5203 46.1821L65.4421 35.7588C65.7607 34.6298 66.1945 34.116 67.2146 33.8427C68.5128 33.4949 69.2029 34.0305 69.5694 35.3982L72.0851 44.787L73.476 44.4143C74.2874 44.1969 74.8041 44.456 74.9904 45.1515C75.1768 45.847 74.8651 46.3529 74.0537 46.5703L72.6628 46.943L73.3958 49.6785C73.6194 50.513 73.2568 51.1071 72.4222 51.3308C71.6109 51.5482 71.0462 51.2025 70.8225 50.368L70.0896 47.6325ZM69.5119 45.4765L68.3689 41.211C67.9528 39.6578 67.6186 38.1323 67.3183 36.548L67.156 36.5915C66.9198 38.1208 66.6247 39.6161 66.1923 41.2476L64.7363 46.7561L69.5119 45.4765Z" fill="black"/>
<path d="M85.1332 63.5126C85.1491 63.0802 85.1388 61.368 85.1985 60.7228C85.2936 59.6951 86.0897 59.1662 87.0695 59.2569C88.0254 59.3453 88.6849 60.033 88.592 61.0367C88.5323 61.682 88.2563 63.1026 88.1444 63.7912C87.7626 66.0938 87.2681 69.6152 86.951 72.2613C86.8696 72.8804 86.3802 73.2208 85.7349 73.1611C85.0897 73.1014 84.7188 72.6814 84.7524 72.0579C84.9 69.4202 85.0838 65.8701 85.1332 63.5126ZM85.6151 74.7166C86.6427 74.8117 87.3584 75.6733 87.2656 76.677C87.1727 77.6807 86.3133 78.3725 85.2857 78.2774C84.2581 78.1824 83.5402 77.3447 83.6331 76.341C83.7259 75.3372 84.5875 74.6216 85.6151 74.7166Z" fill="black"/>
<path d="M44.181 79.4144L43.5049 79.5956C43.0026 79.7302 42.6324 79.3532 42.5133 78.9088C42.4874 78.8122 42.4809 78.7105 42.4743 78.6087C41.7013 79.6648 40.8058 80.6501 39.8548 81.5054C39.7016 81.6292 39.5381 81.7145 39.4029 81.7507C38.8813 81.8905 38.381 81.569 38.2568 81.1053C38.174 80.7963 38.2598 80.4212 38.6279 80.0949C39.4786 79.3286 40.2647 78.4761 40.9194 77.5967C40.4488 77.3086 39.9745 77.0837 39.7205 76.9861C39.4176 76.8602 39.2589 76.6543 39.1916 76.4032C39.0726 75.9588 39.3451 75.4303 39.8473 75.2957C40.0405 75.244 40.2492 75.2502 40.5032 75.3478C40.913 75.4864 41.3681 75.7165 41.9263 76.0224C42.2798 75.41 42.5509 74.7991 42.7448 74.2088C42.791 74.0722 42.8037 73.9652 42.7882 73.9073C42.7571 73.7914 42.6257 73.7645 42.3552 73.8369L39.2643 74.6651C38.7813 74.7946 38.4163 74.4368 38.3024 74.0118C38.1885 73.5868 38.3258 73.0945 38.8088 72.9651L42.3827 72.0075C43.735 71.6451 44.6102 72.0525 44.8432 72.9218C44.957 73.3468 44.9074 73.8571 44.7136 74.4473C44.3156 75.5893 43.7527 76.734 43.0286 77.8183L50.5822 75.7943C51.1038 75.6546 51.474 76.0316 51.593 76.4759C51.7121 76.9203 51.58 77.4319 51.0584 77.5716L50.2277 77.7942L50.7661 79.8033L54.6104 78.7732C55.132 78.6335 55.5216 79.0053 55.6458 79.469C55.7648 79.9133 55.6186 80.4494 55.097 80.5892L51.2526 81.6193L52.0498 84.5943C52.174 85.058 52.3879 85.0835 53.6436 84.747C55.0732 84.364 55.3461 84.1459 55.1735 83.1155C55.0865 82.559 55.4635 82.1888 55.9272 82.0646C56.4488 81.9248 57.0725 82.089 57.2226 82.6492C57.3624 83.1708 57.38 83.9322 57.2376 84.4052C56.9296 85.4195 55.8675 86.0146 53.8777 86.5478C51.347 87.2259 50.4731 86.901 50.1004 85.5101L49.2049 82.168L46.9253 82.7788C46.8924 85.4379 45.6248 87.6618 43.2077 89.6139C43.0738 89.7326 42.9244 89.7933 42.7892 89.8295C42.2483 89.9745 41.7184 89.6195 41.589 89.1366C41.501 88.8082 41.5868 88.4332 41.9601 88.1261C43.6628 86.676 44.6131 85.1997 44.7809 83.3534L41.3809 84.2644C40.8786 84.399 40.4839 84.0078 40.3648 83.5635C40.2406 83.0999 40.392 82.5831 40.8943 82.4485L44.6807 81.4339C44.6172 81.1196 44.5485 80.786 44.4554 80.4383L44.181 79.4144ZM48.7183 80.352L48.1799 78.3429L46.2288 78.8657L46.5394 80.0248C46.617 80.3146 46.6702 80.5903 46.7285 80.8852L48.7183 80.352ZM50.6151 73.1352C51.0614 72.5601 51.415 71.9477 51.7285 71.2632C51.8737 70.9552 52.099 70.7913 52.3501 70.724C52.8524 70.5894 53.4248 70.8709 53.5593 71.3731C53.6111 71.5663 53.6049 71.775 53.4828 72.0148C53.1641 72.68 52.7526 73.3079 52.2921 73.9075C53.2936 74.3224 54.3517 74.6394 55.3594 74.8456C55.9097 74.9673 56.2012 75.2826 56.2944 75.6303C56.429 76.1326 56.1475 76.705 55.5679 76.8602C55.3941 76.9068 55.2099 76.9148 54.9908 76.87C51.5733 76.1706 47.6362 73.9955 45.3284 71.4873C45.2097 71.3535 45.1349 71.2286 45.0986 71.0934C44.9641 70.5911 45.3345 70.1191 45.8368 69.9846C46.1652 69.8966 46.5544 69.9579 46.8949 70.3015C47.2703 70.6979 47.665 71.089 48.0931 71.4505C48.4004 70.9748 48.6833 70.4849 48.9313 69.9422C49.0765 69.6341 49.3018 69.4702 49.5529 69.403C50.0552 69.2684 50.6468 69.5446 50.7763 70.0276C50.828 70.2208 50.8025 70.4347 50.6804 70.6745C50.3565 71.3203 49.9785 71.9185 49.5321 72.4936C49.8854 72.7303 50.2476 72.9231 50.6151 73.1352ZM64.8777 69.6448L64.5775 68.5244L58.1251 70.2533C57.6228 70.3879 57.2333 70.016 57.1194 69.591C57.0003 69.1467 57.1569 68.6492 57.6592 68.5146L64.1116 66.7857L63.8528 65.8198C63.7026 65.2595 64.1711 64.8441 64.6927 64.7044C65.2336 64.5594 65.8277 64.6901 65.9778 65.2504L66.2366 66.2163L72.8822 64.4356C73.4038 64.2959 73.7881 64.6484 73.9072 65.0927C74.0211 65.5177 73.8697 66.0345 73.3481 66.1743L66.7025 67.955L67.0027 69.0754L71.6392 67.8331C72.1608 67.6934 72.5451 68.0459 72.6642 68.4902C72.778 68.9152 72.6266 69.432 72.105 69.5718L61.0162 72.543C60.5139 72.6776 60.1244 72.3058 60.0105 71.8807C59.8915 71.4364 60.0481 70.9389 60.5503 70.8044L64.8777 69.6448ZM64.3577 76.5135C64.2849 75.9325 64.7147 75.5275 65.2169 75.3929C65.7579 75.248 66.3571 75.398 66.5072 75.9582C66.5228 76.0162 66.5138 76.06 66.5293 76.1179C66.965 79.5211 65.2821 82.436 62.3019 84.3734C62.1771 84.4482 62.047 84.5038 61.9311 84.5348C61.3322 84.6953 60.8164 84.3159 60.6819 83.8136C60.5835 83.4465 60.6925 83.0032 61.1482 82.6948C63.724 80.9486 64.6467 78.9828 64.3577 76.5135ZM69.8591 79.9673L68.6271 75.3695C68.477 74.8093 68.9209 74.3797 69.4425 74.24C69.9448 74.1054 70.5441 74.2554 70.6942 74.8156L71.8382 79.085C71.9572 79.5293 72.1866 79.6128 73.5196 79.2556C75.0458 78.8467 75.3662 78.5745 75.2012 77.4178C75.1142 76.8613 75.5054 76.4666 75.9884 76.3372C76.4907 76.2026 77.1003 76.3913 77.2556 76.9708L77.2866 77.0868C77.6449 79.3512 76.8446 80.2282 73.9275 81.0098C70.9911 81.7966 70.2525 81.4355 69.8591 79.9673ZM60.9532 73.6987L72.467 70.6136C74.3602 70.1063 75.1917 70.5047 75.5902 71.9922L75.9267 73.2479C76.082 73.8275 75.6432 74.2763 75.1023 74.4213C74.5807 74.561 73.957 74.3969 73.8017 73.8173L73.548 72.8707C73.4238 72.4071 73.2613 72.2643 72.6624 72.4247L61.7088 75.3597C61.11 75.5202 61.0213 75.7303 61.1455 76.194L61.4251 77.2371C61.5804 77.8167 61.1416 78.2656 60.6007 78.4105C60.0791 78.5503 59.4553 78.3861 59.3 77.8066L58.9429 76.4736C58.5443 74.986 59.06 74.206 60.9532 73.6987Z" fill="black"/>
</svg>
