<svg width="32" height="32" viewBox="0 0 32 32" fill="none" xmlns="http://www.w3.org/2000/svg">
<path d="M9.00004 29.3338C8.00004 29.3338 7.13893 28.9949 6.41671 28.3171C5.69449 27.6393 5.33337 26.8005 5.33337 25.8005V7.20046C5.33337 6.35601 5.59449 5.60046 6.11671 4.93379C6.63893 4.26712 7.32226 3.8449 8.16671 3.66712L18.1667 1.70046C18.9889 1.52268 19.7223 1.70046 20.3667 2.23379C21.0112 2.76712 21.3334 3.45601 21.3334 4.30046V20.2005C21.3334 20.8449 21.1334 21.4171 20.7334 21.9171C20.3334 22.4171 19.8223 22.7227 19.2 22.8338L8.70004 24.9338C8.50004 24.9782 8.33337 25.0838 8.20004 25.2505C8.06671 25.4171 8.00004 25.6005 8.00004 25.8005C8.00004 26.0449 8.10004 26.2505 8.30004 26.4171C8.50004 26.5838 8.73337 26.6671 9.00004 26.6671H24V6.66712C24 6.28934 24.1278 5.97268 24.3834 5.71712C24.6389 5.46157 24.9556 5.33379 25.3334 5.33379C25.7112 5.33379 26.0278 5.46157 26.2834 5.71712C26.5389 5.97268 26.6667 6.28934 26.6667 6.66712V26.6671C26.6667 27.4005 26.4056 28.0282 25.8834 28.5505C25.3612 29.0727 24.7334 29.3338 24 29.3338H9.00004ZM10.9334 21.8005C11.2445 21.7338 11.5 21.5782 11.7 21.3338C11.9 21.0893 12 20.8116 12 20.5005V7.26712C12 6.8449 11.8389 6.50046 11.5167 6.23379C11.1945 5.96712 10.8223 5.87823 10.4 5.96712C10.0889 6.03379 9.83337 6.18934 9.63337 6.43379C9.43337 6.67823 9.33337 6.95601 9.33337 7.26712V20.5005C9.33337 20.9227 9.49449 21.2671 9.81671 21.5338C10.1389 21.8005 10.5112 21.8893 10.9334 21.8005Z" fill="#282828"/>
</svg>
