<svg width="32" height="32" viewBox="0 0 32 32" fill="none" xmlns="http://www.w3.org/2000/svg">
<path d="M1.68612 3.80347C1.79466 3.2622 2.32181 2.91134 2.8632 3.01962L4.26164 3.29956C5.84197 3.61563 7.03097 4.9264 7.19133 6.53003L7.30461 7.66675H25.4062C28.0515 7.66715 29.9918 10.1537 29.3502 12.7201L27.8541 18.7084C27.2233 21.2306 24.9566 22.9999 22.3567 23.0001H10.3658C8.50995 23.0001 6.9466 21.6135 6.72518 19.7709L5.40747 8.78654L5.40487 8.76571L5.20175 6.72925C5.12886 6.00036 4.588 5.4042 3.86971 5.2605L2.46997 4.98055C1.9287 4.87202 1.57784 4.34486 1.68612 3.80347ZM8.71086 19.5326C8.81166 20.37 9.52235 21.0001 10.3658 21.0001H22.3567C24.039 20.9999 25.5059 19.8549 25.914 18.2227L27.4101 12.2345C27.7361 10.9303 26.7503 9.66715 25.4062 9.66675H7.52727L8.71086 19.5326Z" fill="#282828"/>
<path d="M17.3333 17C17.8856 17 18.3333 17.4477 18.3333 18C18.3333 18.5523 17.8856 19 17.3333 19H12C11.4477 19 11 18.5523 11 18C11 17.4477 11.4477 17 12 17H17.3333Z" fill="#282828"/>
<path d="M13.3334 26.667C13.3334 27.7716 12.4379 28.667 11.3334 28.667C10.2288 28.667 9.33337 27.7716 9.33337 26.667C9.33337 25.5624 10.2288 24.667 11.3334 24.667C12.4379 24.667 13.3334 25.5624 13.3334 26.667Z" fill="#282828"/>
<path d="M25.3334 26.667C25.3334 27.7716 24.4379 28.667 23.3334 28.667C22.2288 28.667 21.3334 27.7716 21.3334 26.667C21.3334 25.5624 22.2288 24.667 23.3334 24.667C24.4379 24.667 25.3334 25.5624 25.3334 26.667Z" fill="#282828"/>
</svg>
