<svg width="75" height="74" viewBox="0 0 75 74" fill="none" xmlns="http://www.w3.org/2000/svg">
<g clip-path="url(#clip0_1535_1718)">
<path d="M17.3875 54.6254C21.4494 63.6269 34.6952 66.4476 46.9815 60.9294C59.2678 55.4111 65.9369 43.6349 61.8837 34.6266C57.8304 25.6184 44.576 22.8044 32.2897 28.3227C19.9947 33.8477 13.3256 45.624 17.3875 54.6254Z" fill="#E7372F"/>
<path d="M56.6114 37.9929C59.9326 45.4132 52.6693 47.7474 49.4603 41.1104C45.8722 33.6896 53.3158 30.6229 56.6114 37.9929Z" fill="white"/>
<mask id="mask0_1535_1718" style="mask-type:luminance" maskUnits="userSpaceOnUse" x="48" y="33" width="10" height="13">
<path d="M49.4674 41.1196C52.6765 47.7566 59.9329 45.4137 56.6186 38.0021C54.7594 33.8441 51.5754 33.0069 49.8013 34.4045C48.434 35.4817 47.9071 37.8928 49.4674 41.1196Z" fill="white"/>
</mask>
<g mask="url(#mask0_1535_1718)">
<path d="M59.6488 35.6716C62.9699 43.0919 55.7066 45.4261 52.4976 38.7891C48.9096 31.3683 56.3532 28.3016 59.6488 35.6716Z" fill="#231815"/>
</g>
<path d="M56.5815 44.862C56.3738 45.0256 56.1542 45.1564 55.921 45.2698C53.9105 46.2071 50.7675 45.1548 48.9352 41.3692C47.6723 38.7514 47.5879 36.3298 48.7038 34.7198C49.4598 33.6322 50.6637 33.0774 52.0147 33.2079C54.0645 33.4064 55.9431 35.0612 57.1417 37.7577C58.7039 41.236 58.0354 43.7166 56.5815 44.862ZM50.1564 34.8546C49.9746 34.9978 49.8048 35.1738 49.6622 35.3845C48.7932 36.6314 48.9113 38.6328 49.9924 40.8596C51.4948 43.9774 53.9291 44.9132 55.4404 44.2146C56.8187 43.5786 57.5519 41.4829 56.0968 38.2294C55.0832 35.9635 53.5253 34.52 51.9178 34.3667C51.25 34.3023 50.6478 34.4815 50.1632 34.8633L50.1564 34.8546Z" fill="#231815"/>
<path d="M36.4151 47.072C39.7363 54.4923 32.473 56.8265 29.264 50.1895C25.6759 42.7687 33.1195 39.702 36.4151 47.072Z" fill="white"/>
<mask id="mask1_1535_1718" style="mask-type:luminance" maskUnits="userSpaceOnUse" x="28" y="42" width="10" height="13">
<path d="M29.2553 50.196C32.4643 56.833 39.7294 54.4833 36.4065 47.0785C34.5473 42.9204 31.3633 42.0832 29.5892 43.4808C28.2218 44.558 27.695 46.9691 29.2553 50.196Z" fill="white"/>
</mask>
<g mask="url(#mask1_1535_1718)">
<path d="M39.4413 45.1091C42.7624 52.5294 35.4991 54.8636 32.2901 48.2266C28.702 40.8058 36.1456 37.7391 39.4413 45.1091Z" fill="#231815"/>
</g>
<path d="M36.385 53.9411C36.1773 54.1047 35.9577 54.2355 35.7245 54.3489C33.714 55.2862 30.5709 54.2339 28.7386 50.4482C27.4758 47.8305 27.3914 45.4089 28.5072 43.7989C29.2633 42.7113 30.4672 42.1565 31.8182 42.287C33.868 42.4855 35.7379 44.1471 36.9452 46.8368C38.5073 50.3152 37.8388 52.7957 36.385 53.9411ZM29.9512 43.9405C29.7695 44.0837 29.5996 44.2597 29.457 44.4704C28.588 45.7173 28.7061 47.7187 29.7872 49.9455C31.2896 53.0633 33.7239 53.9992 35.2352 53.3006C36.6049 52.6714 37.3467 50.5688 35.8916 47.3153C34.878 45.0495 33.3201 43.606 31.7126 43.4526C31.0448 43.3883 30.4427 43.5674 29.958 43.9492L29.9512 43.9405Z" fill="#231815"/>
<path d="M52.9781 26.349L17.5005 42.0404L15.1844 36.6257C1.61675 35.9422 10.1872 18.4791 18.829 25.9951C18.3692 16.5456 31.4973 10.28 37.2689 16.8942C38.9474 2.94888 55.9499 8.88265 50.5661 18.9435L52.9694 26.3559L52.9781 26.349Z" fill="white"/>
<path d="M53.3402 26.8082C53.3402 26.8082 53.2623 26.8695 53.214 26.8794L17.7365 42.5708C17.588 42.6315 17.4382 42.6371 17.2887 42.5721C17.1462 42.5157 17.0264 42.3993 16.9721 42.2592L14.7986 37.168C9.60538 36.7891 8.128 34.0592 7.70609 32.4377C6.95977 29.5676 8.43855 26.1395 11.1391 24.4759C13.3746 23.0943 15.9191 23.2265 18.2614 24.8111C18.5894 19.8155 22.4382 16.0666 26.3608 14.4945C30.3008 12.9087 34.2191 13.3783 36.8789 15.6687C37.6266 11.8466 39.703 9.21274 42.6929 8.36144C45.5534 7.54176 48.8636 8.57474 50.7277 10.8875C52.5234 13.1136 52.6958 16.0562 51.2133 18.9812L53.5424 26.1569C53.6166 26.3936 53.5324 26.6427 53.3507 26.7859L53.3402 26.8082ZM17.8034 41.267L52.262 26.027L50.019 19.1209C49.9735 18.974 49.9848 18.8104 50.0563 18.6697C51.9387 15.1486 50.7055 12.7465 49.8085 11.6257C48.2314 9.6772 45.43 8.79161 43.0077 9.49099C41.3584 9.96098 38.5016 11.5509 37.8574 16.9642C37.8301 17.1965 37.6671 17.3812 37.4548 17.4501C37.2357 17.5102 36.9915 17.4495 36.8462 17.2829C34.1125 14.151 29.8645 14.3488 26.7982 15.5837C22.9498 17.1255 19.1712 20.9456 19.4129 25.9702C19.4253 26.1995 19.2982 26.4121 19.0891 26.5205C18.8801 26.629 18.6254 26.5906 18.456 26.429C15.4709 23.8326 12.9803 24.7123 11.7527 25.4685C9.49992 26.8637 8.22062 29.7973 8.8307 32.1562C9.42894 34.4822 11.6933 35.8611 15.2139 36.0396C15.4326 36.0501 15.6366 36.1845 15.7214 36.3989L17.8102 41.2757L17.8034 41.267Z" fill="#231815"/>
<path d="M48.9479 50.216C48.7229 50.3932 48.4842 50.5531 48.2387 50.7044C45.9189 52.068 42.8675 52.04 40.0642 50.6358C39.7827 50.4921 39.6679 50.1327 39.8023 49.8582C39.9453 49.5769 40.2974 49.4541 40.5789 49.5978C43.025 50.8336 45.6751 50.8684 47.6492 49.7069C48.9318 48.9494 49.7384 47.7658 49.7894 46.5308C49.8035 46.2104 50.0686 45.9594 50.3888 45.9743C50.709 45.9891 50.9604 46.2549 50.9463 46.5752C50.8945 47.9515 50.1594 49.2615 48.9479 50.216Z" fill="#231815"/>
</g>
<defs>
<clipPath id="clip0_1535_1718">
<rect width="53.6414" height="51.8534" fill="white" transform="translate(0 33.1953) rotate(-38.2308)"/>
</clipPath>
</defs>
</svg>
